<svg width="24" height="24" viewBox="0 0 24 24" fill="none" xmlns="http://www.w3.org/2000/svg">
<path d="M9 22H21" stroke="#292D32" stroke-width="1.5" stroke-linecap="round" stroke-linejoin="round"/>
<path d="M2 22H6" stroke="#292D32" stroke-width="1.5" stroke-linecap="round" stroke-linejoin="round"/>
<path d="M3 12.9999V17.9999C3 18.5499 3.45 18.9999 4 18.9999H5.59998C6.14998 18.9999 6.59998 18.5499 6.59998 17.9999V9.37988C6.59998 8.82988 6.14998 8.37988 5.59998 8.37988H4C3.45 8.37988 3 8.82988 3 9.37988" stroke="#292D32" stroke-width="1.5" stroke-linecap="round" stroke-linejoin="round"/>
<path d="M12.7992 5.18994H11.1992C10.6492 5.18994 10.1992 5.63994 10.1992 6.18994V17.9999C10.1992 18.5499 10.6492 18.9999 11.1992 18.9999H12.7992C13.3492 18.9999 13.7992 18.5499 13.7992 17.9999V6.18994C13.7992 5.63994 13.3492 5.18994 12.7992 5.18994Z" stroke="#292D32" stroke-width="1.5" stroke-linecap="round" stroke-linejoin="round"/>
<path d="M21.0004 3C21.0004 2.45 20.5504 2 20.0004 2H18.4004C17.8504 2 17.4004 2.45 17.4004 3V18C17.4004 18.55 17.8504 19 18.4004 19H20.0004C20.5504 19 21.0004 18.55 21.0004 18V7.13" stroke="#292D32" stroke-width="1.5" stroke-linecap="round" stroke-linejoin="round"/>
</svg>
