<svg width="24" height="24" viewBox="0 0 24 24" fill="none" xmlns="http://www.w3.org/2000/svg">
<path d="M12 9.65991V12.4499L13.4 13.8499" stroke="#292D32" stroke-width="1.5" stroke-linecap="round" stroke-linejoin="round"/>
<path d="M6.96 7.89C8.16 6.43 9.97 5.5 12 5.5C15.59 5.5 18.5 8.41 18.5 12C18.5 14.08 17.52 15.94 16 17.13H15.99C14.89 17.99 13.51 18.5 12 18.5C10.51 18.5 9.14 18 8.04 17.15H8.03C6.49 15.96 5.5 14.1 5.5 12" stroke="#292D32" stroke-width="1.5" stroke-linecap="round" stroke-linejoin="round"/>
<path d="M8.0293 17.1499H8.0393C9.1393 17.9999 10.5093 18.4999 11.9993 18.4999C13.5093 18.4999 14.8893 17.9899 15.9893 17.1299H15.9993L15.4893 19.5999C14.9993 21.4999 13.8993 21.9999 12.5493 21.9999H11.4593C10.1093 21.9999 8.9993 21.4999 8.5193 19.5899L8.0293 17.1499Z" stroke="#292D32" stroke-width="1.5" stroke-linecap="round" stroke-linejoin="round"/>
<path d="M8.0293 6.85H8.0393C9.1393 6 10.5093 5.5 11.9993 5.5C13.5093 5.5 14.8893 6.01 15.9893 6.87H15.9993L15.4893 4.4C14.9993 2.5 13.8993 2 12.5493 2H11.4593C10.1093 2 8.9993 2.5 8.5193 4.41L8.0293 6.85Z" stroke="#292D32" stroke-width="1.5" stroke-linecap="round" stroke-linejoin="round"/>
</svg>
