<svg width="24" height="24" viewBox="0 0 24 24" fill="none" xmlns="http://www.w3.org/2000/svg">
<path d="M2.5 14.07V11.51C2.5 9.44001 4.19 7.75 6.26 7.75H17.74C19.81 7.75 21.5 9.44001 21.5 11.51V12.95H19.48C18.92 12.95 18.41 13.17 18.04 13.55C17.62 13.96 17.38 14.55 17.44 15.18C17.53 16.26 18.52 17.05 19.6 17.05H21.5V18.24C21.5 20.31 19.81 22 17.74 22H6.26C4.19 22 2.5 20.31 2.5 18.24" stroke="#292D32" stroke-width="1.5" stroke-linecap="round" stroke-linejoin="round"/>
<path d="M12.2793 2.16982C13.5193 1.69982 14.8493 2.61985 14.8493 3.94985V7.74983" stroke="#292D32" stroke-width="1.5" stroke-linecap="round" stroke-linejoin="round"/>
<path d="M2.5 12.4099V7.83997C2.5 6.64997 3.23 5.58992 4.34 5.16992L8.31 3.66992" stroke="#292D32" stroke-width="1.5" stroke-linecap="round" stroke-linejoin="round"/>
<path d="M22.5608 13.9702V16.0302C22.5608 16.5802 22.1208 17.0302 21.5608 17.0502H19.6008C18.5208 17.0502 17.5308 16.2602 17.4408 15.1802C17.3808 14.5502 17.6208 13.9602 18.0408 13.5502C18.4108 13.1702 18.9208 12.9502 19.4808 12.9502H21.5608C22.1208 12.9702 22.5608 13.4202 22.5608 13.9702Z" stroke="#292D32" stroke-width="1.5" stroke-linecap="round" stroke-linejoin="round"/>
<path d="M7 12H14" stroke="#292D32" stroke-width="1.5" stroke-linecap="round" stroke-linejoin="round"/>
</svg>
