<svg width="24" height="24" viewBox="0 0 24 24" fill="none" xmlns="http://www.w3.org/2000/svg">
<path d="M2 13.05V15C2 20 4 22 9 22H15C20 22 22 20 22 15V9C22 4 20 2 15 2H9C4 2 2 4 2 9" stroke="#292D32" stroke-width="1.5" stroke-linecap="round" stroke-linejoin="round"/>
<path d="M6.98945 15.08L8.92944 17.02C9.56944 17.66 10.6295 17.66 11.2695 17.02L17.0195 11.27C17.6595 10.63 17.6595 9.57 17.0195 8.93L15.0794 6.99001C14.4394 6.35001 13.3795 6.35001 12.7395 6.99001L6.98945 12.74C6.33945 13.38 6.33945 14.43 6.98945 15.08Z" stroke="#292D32" stroke-width="1.5" stroke-linecap="round" stroke-linejoin="round"/>
<path d="M9.30859 10.4199L13.5786 14.6899" stroke="#292D32" stroke-width="1.5" stroke-linecap="round" stroke-linejoin="round"/>
</svg>
