<svg width="24" height="24" viewBox="0 0 24 24" fill="none" xmlns="http://www.w3.org/2000/svg">
<path d="M12 20.9C11.78 20.9 11.55 20.87 11.38 20.81C8.48 19.82 2 15.69 2 8.69C2 7.29 2.51 6.01003 3.36 5.03003" stroke="#292D32" stroke-width="1.5" stroke-linecap="round" stroke-linejoin="round"/>
<path d="M21.4905 12C21.8105 10.98 22.0005 9.88 22.0005 8.69C22.0005 5.6 19.5105 3.09998 16.4405 3.09998C14.6205 3.09998 13.0105 3.98003 12.0005 5.34003C10.9905 3.98003 9.37055 3.09998 7.56055 3.09998" stroke="#292D32" stroke-width="1.5" stroke-linecap="round" stroke-linejoin="round"/>
<path d="M19.2091 15.74L15.6691 19.2801C15.5291 19.4201 15.3991 19.68 15.3691 19.87L15.1791 21.22C15.1091 21.71 15.4491 22.05 15.9391 21.98L17.2891 21.79C17.4791 21.76 17.7491 21.63 17.8791 21.49L21.4191 17.95C22.0291 17.34 22.3191 16.63 21.4191 15.73C20.5291 14.84 19.8191 15.13 19.2091 15.74Z" stroke="#292D32" stroke-width="1.5" stroke-miterlimit="10" stroke-linecap="round" stroke-linejoin="round"/>
<path d="M18.6992 16.25C18.9992 17.33 19.8392 18.17 20.9192 18.47" stroke="#292D32" stroke-width="1.5" stroke-miterlimit="10" stroke-linecap="round" stroke-linejoin="round"/>
</svg>
