<svg width="24" height="24" viewBox="0 0 24 24" fill="none" xmlns="http://www.w3.org/2000/svg">
<path d="M2.02929 11.2799C1.85929 10.2999 2.3593 8.98989 3.1393 8.36989L10.0693 2.81984C11.1293 1.96984 12.8593 1.96985 13.9293 2.82985L20.8593 8.36989C21.6293 8.98989 22.1293 10.2999 21.9693 11.2799L20.6393 19.2399C20.3993 20.6499 19.0293 21.81 17.5993 21.81H6.39928C4.95928 21.81 3.59927 20.6599 3.35927 19.2399L2.71929 15.3799" stroke="#292D32" stroke-width="1.5" stroke-linecap="round" stroke-linejoin="round"/>
<path d="M9.88086 14.3802C11.1509 13.1702 12.8508 13.1702 14.1208 14.3802" stroke="#292D32" stroke-width="1.5" stroke-linecap="round" stroke-linejoin="round"/>
<path d="M8.75 11.45C8.4 11.68 8.07 11.95 7.75 12.26" stroke="#292D32" stroke-width="1.5" stroke-linecap="round" stroke-linejoin="round"/>
<path d="M16.24 12.26C15.7 11.73 15.1 11.32 14.48 11.02C13.68 10.64 12.84 10.45 12 10.45" stroke="#292D32" stroke-width="1.5" stroke-linecap="round" stroke-linejoin="round"/>
<path d="M11.9955 16.5H12.0045" stroke="#292D32" stroke-width="2" stroke-linecap="round" stroke-linejoin="round"/>
</svg>
