<svg width="24" height="24" viewBox="0 0 24 24" fill="none" xmlns="http://www.w3.org/2000/svg">
<path d="M11.9693 11.86V16.39C11.9493 18.04 10.7193 18.44 9.5693 17.98C7.1993 17.03 5.5293 14.71 5.5293 12C5.5293 9.28999 7.1993 6.97 9.5693 6.01C10.7193 5.55 11.9493 5.95999 11.9693 7.59999" stroke="#292D32" stroke-width="1.5" stroke-linecap="round" stroke-linejoin="round"/>
<path d="M4 6C2.75 7.67 2 9.75 2 12C2 17.52 6.48 22 12 22C17.52 22 22 17.52 22 12C22 6.48 17.52 2 12 2C10.57 2 9.2 2.3 7.97 2.85" stroke="#292D32" stroke-width="1.5" stroke-linecap="round" stroke-linejoin="round"/>
</svg>
