<svg width="24" height="24" viewBox="0 0 24 24" fill="none" xmlns="http://www.w3.org/2000/svg">
<path d="M6.94003 9.41988C6.12003 10.1999 4.83003 10.1899 4.01003 9.41988C2.89003 8.34988 1.60002 6.62988 2.07002 4.59988C2.87002 1.13988 8.08003 1.13988 8.87003 4.59988C8.99003 5.08988 9.00002 5.54988 8.94002 5.99988" stroke="#292D32" stroke-width="1.5" stroke-linecap="round" stroke-linejoin="round"/>
<path d="M15.07 16.5999C15.87 13.1399 21.11 13.1399 21.91 16.5999C22.38 18.6299 21.09 20.3499 19.96 21.4199C19.14 22.1999 17.84 22.1899 17.02 21.4199C15.89 20.3499 14.6 18.6299 15.07 16.5999Z" stroke="#292D32" stroke-width="1.5"/>
<path d="M11.9997 5H14.6797C16.5297 5 17.3897 7.29 15.9997 8.51L8.0097 15.5C6.6197 16.71 7.4797 19 9.3197 19H11.9997" stroke="#292D32" stroke-width="1.5" stroke-linecap="round" stroke-linejoin="round"/>
<path d="M11.9997 5H14.6797C16.5297 5 17.3897 7.29 15.9997 8.51L8.0097 15.5C6.6197 16.71 7.4797 19 9.3197 19H11.9997" stroke="#292D32" stroke-width="1.5" stroke-linecap="round" stroke-linejoin="round"/>
<path d="M5.48573 5.5H5.49728" stroke="#292D32" stroke-width="2" stroke-linecap="round" stroke-linejoin="round"/>
<path d="M18.4857 17.5H18.4973" stroke="#292D32" stroke-width="2" stroke-linecap="round" stroke-linejoin="round"/>
</svg>
