<svg width="24" height="24" viewBox="0 0 24 24" fill="none" xmlns="http://www.w3.org/2000/svg">
<path d="M2 8.5C2 5 4 3.5 7 3.5H17C20 3.5 22 5 22 8.5V11.5" stroke="#292D32" stroke-width="1.5" stroke-miterlimit="10" stroke-linecap="round" stroke-linejoin="round"/>
<path d="M12 20.5H7C4 20.5 2 19 2 15.5V12.47" stroke="#292D32" stroke-width="1.5" stroke-miterlimit="10" stroke-linecap="round" stroke-linejoin="round"/>
<path d="M17 9L13.87 11.5C12.84 12.32 11.15 12.32 10.12 11.5L7 9" stroke="#292D32" stroke-width="1.5" stroke-miterlimit="10" stroke-linecap="round" stroke-linejoin="round"/>
<path d="M19.2091 14.77L15.6691 18.31C15.5291 18.45 15.3991 18.71 15.3691 18.9L15.1791 20.25C15.1091 20.74 15.4491 21.0801 15.9391 21.0101L17.2891 20.82C17.4791 20.79 17.7491 20.66 17.8791 20.52L21.4191 16.9801C22.0291 16.3701 22.3191 15.6601 21.4191 14.7601C20.5291 13.8701 19.8191 14.16 19.2091 14.77Z" stroke="#292D32" stroke-width="1.5" stroke-miterlimit="10" stroke-linecap="round" stroke-linejoin="round"/>
<path d="M18.6992 15.28C18.9992 16.36 19.8392 17.2 20.9192 17.5" stroke="#292D32" stroke-width="1.5" stroke-miterlimit="10" stroke-linecap="round" stroke-linejoin="round"/>
</svg>
