<svg width="24" height="24" viewBox="0 0 24 24" fill="none" xmlns="http://www.w3.org/2000/svg">
<path d="M22 8.5C22 12.09 19.09 15 15.5 15C15.33 15 15.15 14.99 14.98 14.98C14.73 11.81 12.19 9.26999 9.01999 9.01999C9.00999 8.84999 9 8.67 9 8.5C9 4.91 11.91 2 15.5 2C19.09 2 22 4.91 22 8.5Z" stroke="#292D32" stroke-width="1.5" stroke-linecap="round" stroke-linejoin="round"/>
<path d="M4.67999 20.76C3.05999 19.58 2 17.66 2 15.5C2 11.91 4.91 9 8.5 9C8.67 9 8.84999 9.00999 9.01999 9.01999C12.19 9.26999 14.73 11.81 14.98 14.98C14.99 15.15 15 15.33 15 15.5C15 19.09 12.09 22 8.5 22" stroke="#292D32" stroke-width="1.5" stroke-linecap="round" stroke-linejoin="round"/>
<path d="M5.59 2H3C2.45 2 2 2.45 2 3V5.59C2 6.48 3.07999 6.92999 3.70999 6.29999L6.29999 3.70999C6.91999 3.07999 6.48 2 5.59 2Z" stroke="#292D32" stroke-width="1.5" stroke-linecap="round" stroke-linejoin="round"/>
<path d="M18.4097 22H20.9997C21.5497 22 21.9997 21.55 21.9997 21V18.41C21.9997 17.52 20.9197 17.07 20.2897 17.7L17.6997 20.29C17.0797 20.92 17.5197 22 18.4097 22Z" stroke="#292D32" stroke-width="1.5" stroke-linecap="round" stroke-linejoin="round"/>
</svg>
