<svg width="24" height="24" viewBox="0 0 24 24" fill="none" xmlns="http://www.w3.org/2000/svg">
<path d="M9 22H15C20 22 22 20 22 15V9C22 4 20 2 15 2H9C4 2 2 4 2 9V15C2 20 4 22 9 22Z" stroke="#292D32" stroke-width="1.5" stroke-linecap="round" stroke-linejoin="round"/>
<path d="M17.9 9.04997C15.72 8.82997 13.52 8.71997 11.33 8.71997C10.03 8.71997 8.72997 8.78997 7.43997 8.91997L6.09998 9.04997" stroke="#292D32" stroke-width="1.5" stroke-linecap="round" stroke-linejoin="round"/>
<path d="M9.70996 8.38994L9.84996 7.52994C9.94996 6.90994 10.03 6.43994 11.14 6.43994H12.86C13.97 6.43994 14.0499 6.92994 14.1499 7.52994L14.2899 8.37994" stroke="#292D32" stroke-width="1.5" stroke-linecap="round" stroke-linejoin="round"/>
<path d="M16.49 9.12988L16.06 15.7299C15.99 16.7599 15.93 17.5599 14.1 17.5599H9.89C8.06 17.5599 7.99999 16.7599 7.92999 15.7299L7.5 9.12988" stroke="#292D32" stroke-width="1.5" stroke-linecap="round" stroke-linejoin="round"/>
</svg>
