<svg width="24" height="24" viewBox="0 0 24 24" fill="none" xmlns="http://www.w3.org/2000/svg">
<path opacity="0.4" d="M17.98 10.79V14.79C17.98 15.05 17.97 15.3 17.94 15.54C17.71 18.24 16.12 19.58 13.19 19.58H12.79C12.54 19.58 12.3 19.7 12.15 19.9L10.95 21.5C10.42 22.21 9.56 22.21 9.03 21.5L7.82999 19.9C7.69999 19.73 7.41 19.58 7.19 19.58H6.79001C3.60001 19.58 2 18.79 2 14.79V10.79C2 7.86001 3.35001 6.27001 6.04001 6.04001C6.28001 6.01001 6.53001 6 6.79001 6H13.19C16.38 6 17.98 7.60001 17.98 10.79Z" fill="#292D32"/>
<path d="M9.98828 14C9.42828 14 8.98828 13.55 8.98828 13C8.98828 12.45 9.43828 12 9.98828 12C10.5383 12 10.9883 12.45 10.9883 13C10.9883 13.55 10.5483 14 9.98828 14Z" fill="#292D32"/>
<path d="M13.4883 14C12.9283 14 12.4883 13.55 12.4883 13C12.4883 12.45 12.9383 12 13.4883 12C14.0383 12 14.4883 12.45 14.4883 13C14.4883 13.55 14.0383 14 13.4883 14Z" fill="#292D32"/>
<path d="M6.5 14C5.94 14 5.5 13.55 5.5 13C5.5 12.45 5.95 12 6.5 12C7.05 12 7.5 12.45 7.5 13C7.5 13.55 7.05 14 6.5 14Z" fill="#292D32"/>
<path d="M21.9791 6.79001V10.79C21.9791 13.73 20.6291 15.31 17.9391 15.54C17.9691 15.3 17.9791 15.05 17.9791 14.79V10.79C17.9791 7.60001 16.3791 6 13.1891 6H6.78906C6.52906 6 6.27906 6.01001 6.03906 6.04001C6.26906 3.35001 7.85906 2 10.7891 2H17.1891C20.3791 2 21.9791 3.60001 21.9791 6.79001Z" fill="#292D32"/>
</svg>
