<svg width="24" height="24" viewBox="0 0 24 24" fill="none" xmlns="http://www.w3.org/2000/svg">
<path d="M11.3996 2.35002L6.24961 7.50002C6.04961 7.70002 6.04961 8.01002 6.24961 8.21002L7.97962 9.94002C8.17962 10.14 8.48961 10.14 8.68961 9.94002L13.8396 4.79002C14.0396 4.59002 14.0396 4.28002 13.8396 4.08002L12.1096 2.35002C11.9096 2.16002 11.5996 2.16002 11.3996 2.35002Z" stroke="black" stroke-width="1.5" stroke-miterlimit="10" stroke-linecap="round" stroke-linejoin="round"/>
<path opacity="0.4" d="M15.2996 6.25986L6.24961 15.3099C6.04961 15.5099 6.04961 15.8199 6.24961 16.0199L7.97962 17.7499C8.17962 17.9499 8.48961 17.9499 8.68961 17.7499L17.7396 8.69986C17.9396 8.49986 17.9396 8.18986 17.7396 7.98986L16.0096 6.25986C15.8196 6.05986 15.4996 6.05986 15.2996 6.25986Z" stroke="black" stroke-width="1.5" stroke-miterlimit="10" stroke-linecap="round" stroke-linejoin="round"/>
<path d="M19.2098 10.1598L10.1598 19.2098C9.95977 19.4098 9.95977 19.7198 10.1598 19.9198L11.8898 21.6498C12.0898 21.8498 12.3998 21.8498 12.5998 21.6498L21.6498 12.5998C21.8498 12.3998 21.8498 12.0898 21.6498 11.8898L19.9198 10.1598C19.7198 9.95977 19.3998 9.95977 19.2098 10.1598Z" stroke="black" stroke-width="1.5" stroke-miterlimit="10" stroke-linecap="round" stroke-linejoin="round"/>
<path opacity="0.4" d="M4.08997 13.84L2.35996 12.11C2.15996 11.91 2.15996 11.6 2.35996 11.4L4.08997 9.67002C4.28997 9.47002 4.59996 9.47002 4.79996 9.67002L6.52997 11.4C6.72997 11.6 6.72997 11.91 6.52997 12.11L4.79996 13.84C4.59996 14.04 4.27997 14.04 4.08997 13.84Z" stroke="black" stroke-width="1.5" stroke-miterlimit="10" stroke-linecap="round" stroke-linejoin="round"/>
</svg>
