<svg width="24" height="24" viewBox="0 0 24 24" fill="none" xmlns="http://www.w3.org/2000/svg">
<path d="M21.5397 15C20.2597 19.06 16.4697 22 11.9997 22C7.53973 22 3.75973 19.08 2.46973 15.04L6.99973 15V9L11.9997 15L16.9997 9V15H21.5397Z" stroke="black" stroke-width="1.5" stroke-miterlimit="10" stroke-linecap="round" stroke-linejoin="round"/>
<path opacity="0.4" d="M22 12C22 13.05 21.84 14.05 21.54 15H17V9L12 15L7 9V15L2.47 15.04C2.17 14.08 2 13.06 2 12C2 6.48 6.48 2 12 2C17.52 2 22 6.48 22 12Z" stroke="black" stroke-width="1.5" stroke-miterlimit="10" stroke-linecap="round" stroke-linejoin="round"/>
</svg>
