<svg width="24" height="24" viewBox="0 0 24 24" fill="none" xmlns="http://www.w3.org/2000/svg">
<path d="M19.0002 7C19.0002 7.18 18.9902 7.34999 18.9702 7.51999C18.8502 8.96999 18.2102 10.28 17.2402 11.24C16.1602 12.33 14.6602 13 13.0002 13H9.87021C9.37021 13 8.95022 13.37 8.88022 13.86L8.12021 19.14C8.06021 19.53 7.78022 19.85 7.41022 19.95C7.32022 19.99 7.23022 20 7.13022 20H5.1802C4.5602 20 4.09021 19.45 4.19021 18.84L6.5802 4.51001C6.8202 3.06001 8.07022 2 9.54022 2H14.0002C16.7602 2 19.0002 4.24 19.0002 7Z" stroke="black" stroke-width="1.5" stroke-miterlimit="10"/>
<path opacity="0.4" d="M20.9995 11C20.9995 12.38 20.4395 13.63 19.5395 14.54C18.6295 15.44 17.3795 16 15.9995 16H13.8495C13.3595 16 12.9395 16.35 12.8595 16.84L12.1395 21.16C12.0595 21.65 11.6395 22 11.1495 22H8.2195C7.5895 22 7.11949 21.42 7.23949 20.8L7.4095 19.95C7.7795 19.85 8.05949 19.53 8.11949 19.14L8.8795 13.86C8.9495 13.37 9.36949 13 9.86949 13H12.9995C14.6595 13 16.1595 12.33 17.2395 11.24C18.2095 10.28 18.8495 8.97002 18.9695 7.52002C20.1795 8.21002 20.9995 9.51003 20.9995 11Z" stroke="black" stroke-width="1.5" stroke-miterlimit="10"/>
</svg>
