<svg width="24" height="24" viewBox="0 0 24 24" fill="none" xmlns="http://www.w3.org/2000/svg">
<path opacity="0.4" d="M16.9502 16.9498C19.6802 14.2198 19.6802 9.7798 16.9502 7.0498" stroke="black" stroke-width="1.5" stroke-miterlimit="10" stroke-linecap="round" stroke-linejoin="round"/>
<path opacity="0.4" d="M7.05043 7.0498C4.32043 9.7798 4.32043 14.2198 7.05043 16.9498" stroke="black" stroke-width="1.5" stroke-miterlimit="10" stroke-linecap="round" stroke-linejoin="round"/>
<g opacity="0.4">
<path d="M9.66992 13.6297C9.66992 14.5297 10.3699 15.2598 11.2299 15.2598H12.9899C13.7399 15.2598 14.3499 14.6197 14.3499 13.8397C14.3499 12.9897 13.9799 12.6797 13.4199 12.4897L10.6099 11.5098C10.0599 11.3198 9.6799 11.0098 9.6799 10.1598C9.6799 9.36975 10.2899 8.73975 11.0399 8.73975H12.7999C13.6599 8.73975 14.3599 9.46975 14.3599 10.3698" stroke="black" stroke-width="1.5" stroke-linecap="round" stroke-linejoin="round"/>
<path d="M12 7.7998V16.1998" stroke="black" stroke-width="1.5" stroke-linecap="round" stroke-linejoin="round"/>
</g>
<path d="M12 22C17.5228 22 22 17.5228 22 12C22 6.47715 17.5228 2 12 2C6.47715 2 2 6.47715 2 12C2 17.5228 6.47715 22 12 22Z" stroke="black" stroke-width="1.5" stroke-miterlimit="10" stroke-linecap="round" stroke-linejoin="round"/>
</svg>
