<svg width="24" height="24" viewBox="0 0 24 24" fill="none" xmlns="http://www.w3.org/2000/svg">
<path d="M5.46042 2H4.05039C3.12039 2 2.6504 3.13 3.3104 3.79L9.04038 9.52C10.6804 11.16 13.3304 11.16 14.9704 9.52L20.7004 3.79C21.3604 3.13 20.8904 2 19.9604 2H18.5504C17.7204 2 16.9204 2.33 16.3304 2.92L12.7504 6.5C12.3404 6.91 11.6804 6.91 11.2704 6.5L7.6904 2.92C7.0904 2.33 6.29042 2 5.46042 2Z" stroke="black" stroke-width="1.5" stroke-miterlimit="10" stroke-linecap="round" stroke-linejoin="round"/>
<path opacity="0.4" d="M5.46042 21.9702H4.05039C3.12039 21.9702 2.6504 20.8402 3.3104 20.1802L9.04038 14.4502C10.6804 12.8102 13.3304 12.8102 14.9704 14.4502L20.7004 20.1802C21.3604 20.8402 20.8904 21.9702 19.9604 21.9702H18.5504C17.7204 21.9702 16.9204 21.6402 16.3304 21.0502L12.7504 17.4702C12.3404 17.0602 11.6804 17.0602 11.2704 17.4702L7.6904 21.0502C7.0904 21.6402 6.29042 21.9702 5.46042 21.9702Z" stroke="black" stroke-width="1.5" stroke-miterlimit="10" stroke-linecap="round" stroke-linejoin="round"/>
</svg>
