<svg width="24" height="24" viewBox="0 0 24 24" fill="none" xmlns="http://www.w3.org/2000/svg">
<path d="M5.75 16.11V7.89C7.04 7.56 8 6.4 8 5C8 3.34 6.66 2 5 2C3.34 2 2 3.34 2 5C2 6.4 2.96 7.56 4.25 7.89V16.1C2.96 16.44 2 17.6 2 19C2 20.66 3.34 22 5 22C6.66 22 8 20.66 8 19C8 17.6 7.04 16.44 5.75 16.11Z" fill="#292D32"/>
<path d="M19.75 16.1107V6.50066C19.75 4.98066 18.52 3.75066 17 3.75066H14.07L15.48 2.58066C15.8 2.31066 15.84 1.84066 15.58 1.52066C15.31 1.20066 14.84 1.16066 14.52 1.42066L11.52 3.92066C11.35 4.06066 11.25 4.27066 11.25 4.50066C11.25 4.73066 11.35 4.93066 11.52 5.08066L14.52 7.58066C14.66 7.70066 14.83 7.75066 15 7.75066C15.21 7.75066 15.43 7.66066 15.58 7.48066C15.85 7.16066 15.8 6.69066 15.48 6.42066L14.07 5.25066H17C17.69 5.25066 18.25 5.81066 18.25 6.50066V16.1107C16.96 16.4407 16 17.6007 16 19.0007C16 20.6607 17.34 22.0007 19 22.0007C20.66 22.0007 22 20.6607 22 19.0007C22 17.6007 21.04 16.4407 19.75 16.1107Z" fill="#292D32"/>
</svg>
