<svg width="24" height="24" viewBox="0 0 24 24" fill="none" xmlns="http://www.w3.org/2000/svg">
<path opacity="0.4" d="M12 22C17.5228 22 22 17.5228 22 12C22 6.47715 17.5228 2 12 2C6.47715 2 2 6.47715 2 12C2 17.5228 6.47715 22 12 22Z" fill="#292D32"/>
<path d="M12.0016 9.87109C11.5116 9.87109 11.1016 10.2711 11.1016 10.7711V13.2411C11.1016 13.7411 11.5016 14.1411 12.0016 14.1411C12.5016 14.1411 12.9016 13.7411 12.9016 13.2411V10.7711C12.9016 10.2711 12.4916 9.87109 12.0016 9.87109Z" fill="#292D32"/>
<path d="M12 17.5492C9.38 17.5492 7.25 15.4192 7.25 12.7992V11.1992C7.25 8.57922 9.38 6.44922 12 6.44922C14.62 6.44922 16.75 8.57922 16.75 11.1992V12.7992C16.75 15.4192 14.62 17.5492 12 17.5492ZM12 7.94922C10.21 7.94922 8.75 9.40922 8.75 11.1992V12.7992C8.75 14.5892 10.21 16.0492 12 16.0492C13.79 16.0492 15.25 14.5892 15.25 12.7992V11.1992C15.25 9.40922 13.79 7.94922 12 7.94922Z" fill="#292D32"/>
</svg>
