<svg width="24" height="24" viewBox="0 0 24 24" fill="none" xmlns="http://www.w3.org/2000/svg">
<path opacity="0.4" d="M12 22C17.5228 22 22 17.5228 22 12C22 6.47715 17.5228 2 12 2C6.47715 2 2 6.47715 2 12C2 17.5228 6.47715 22 12 22Z" fill="#292D32"/>
<path d="M15.7511 10.73V10C15.7511 9.07 15.7511 6.25 12.0011 6.25C8.2511 6.25 8.2511 9.07 8.2511 10V10.73C7.0311 11 6.62109 11.79 6.62109 13.5V14.5C6.62109 16.7 7.3011 17.38 9.5011 17.38H14.5011C16.7011 17.38 17.3811 16.7 17.3811 14.5V13.5C17.3811 11.79 16.9711 11 15.7511 10.73ZM12.0011 15.1C11.3911 15.1 10.9011 14.61 10.9011 14C10.9011 13.39 11.3911 12.9 12.0011 12.9C12.6111 12.9 13.1011 13.39 13.1011 14C13.1011 14.61 12.6111 15.1 12.0011 15.1ZM14.2511 10.62H9.7511V10C9.7511 8.54 10.1111 7.75 12.0011 7.75C13.8911 7.75 14.2511 8.54 14.2511 10V10.62Z" fill="#292D32"/>
</svg>
