<svg width="24" height="24" viewBox="0 0 24 24" fill="none" xmlns="http://www.w3.org/2000/svg">
<path opacity="0.4" d="M9.96078 2.1094L4.46078 4.1694C3.41078 4.5694 2.55078 5.8094 2.55078 6.9394V15.0394C2.55078 15.8494 3.08078 16.9194 3.73078 17.3994L9.23078 21.5094C10.2008 22.2394 11.7908 22.2394 12.7608 21.5094L18.2608 17.3994C18.9108 16.9094 19.4408 15.8494 19.4408 15.0394V6.9394C19.4408 5.8194 18.5808 4.5694 17.5308 4.1794L12.0308 2.1194C11.4708 1.8994 10.5308 1.8994 9.96078 2.1094Z" fill="#292D32"/>
<path d="M16 11.5117C13.52 11.5117 11.5 13.5317 11.5 16.0117C11.5 18.4917 13.52 20.5117 16 20.5117C18.48 20.5117 20.5 18.4917 20.5 16.0117C20.5 13.5217 18.48 11.5117 16 11.5117Z" fill="#292D32"/>
<path d="M21 22.0009C20.73 22.0009 20.48 21.8909 20.29 21.7109C20.25 21.6609 20.2 21.6109 20.17 21.5509C20.13 21.5009 20.1 21.4409 20.08 21.3809C20.05 21.3209 20.03 21.2609 20.02 21.2009C20.01 21.1309 20 21.0709 20 21.0009C20 20.8709 20.03 20.7409 20.08 20.6209C20.13 20.4909 20.2 20.3909 20.29 20.2909C20.52 20.0609 20.87 19.9509 21.19 20.0209C21.26 20.0309 21.32 20.0509 21.38 20.0809C21.44 20.1009 21.5 20.1309 21.55 20.1709C21.61 20.2009 21.66 20.2509 21.71 20.2909C21.8 20.3909 21.87 20.4909 21.92 20.6209C21.97 20.7409 22 20.8709 22 21.0009C22 21.2609 21.89 21.5209 21.71 21.7109C21.66 21.7509 21.61 21.7909 21.55 21.8309C21.5 21.8709 21.44 21.9009 21.38 21.9209C21.32 21.9509 21.26 21.9709 21.19 21.9809C21.13 21.9909 21.06 22.0009 21 22.0009Z" fill="#292D32"/>
</svg>
