<svg width="24" height="24" viewBox="0 0 24 24" fill="none" xmlns="http://www.w3.org/2000/svg">
<path opacity="0.4" d="M19.3608 4.63984L5.83078 18.1698L4.73078 17.3498C4.08078 16.8598 3.55078 15.7998 3.55078 14.9798V6.88984C3.55078 5.75984 4.41078 4.51984 5.46078 4.11984L10.9608 2.05984C11.5308 1.84984 12.4708 1.84984 13.0408 2.05984L18.5408 4.11984C18.8308 4.22984 19.1108 4.40984 19.3608 4.63984Z" fill="#292D32"/>
<path opacity="0.4" d="M20.4491 6.88812V14.9781C20.4491 15.7981 19.9191 16.8581 19.2691 17.3481L13.7691 21.4581C12.7891 22.1781 11.2091 22.1781 10.2291 21.4581L7.53906 19.4581L20.4191 6.57812C20.4391 6.67813 20.4491 6.78812 20.4491 6.88812Z" fill="#292D32"/>
<path d="M21.7689 2.22891C21.4689 1.92891 20.9789 1.92891 20.6789 2.22891L2.22891 20.6889C1.92891 20.9889 1.92891 21.4789 2.22891 21.7789C2.37891 21.9189 2.56891 21.9989 2.76891 21.9989C2.96891 21.9989 3.15891 21.9189 3.30891 21.7689L21.7689 3.30891C22.0789 3.00891 22.0789 2.52891 21.7689 2.22891Z" fill="#292D32"/>
</svg>
