<svg width="24" height="24" viewBox="0 0 24 24" fill="none" xmlns="http://www.w3.org/2000/svg">
<path d="M14 2C16 2 17 3.01 17 5.03V12.08C17 14.07 15.59 14.84 13.86 13.8L12.54 13C12.24 12.82 11.76 12.82 11.46 13L10.14 13.8C8.41 14.84 7 14.07 7 12.08V5.03C7 3.01 8 2 10 2H14Z" stroke="#292D32" stroke-width="1.5" stroke-linecap="round" stroke-linejoin="round"/>
<path opacity="0.4" d="M6.82 4.99094C3.41 5.56094 2 7.66094 2 11.9009V14.9309C2 19.9809 4 22.0009 9 22.0009H15C20 22.0009 22 19.9809 22 14.9309V11.9009C22 7.59094 20.54 5.48094 17 4.96094" stroke="#292D32" stroke-width="1.5" stroke-linecap="round" stroke-linejoin="round"/>
</svg>
