<svg width="24" height="24" viewBox="0 0 24 24" fill="none" xmlns="http://www.w3.org/2000/svg">
<path d="M12.5991 18.1087C12.3791 18.1087 12.2091 18.0487 12.1091 18.0087C11.8891 17.9087 11.3891 17.5787 11.3891 16.6687V13.9987L9.08906 16.1087C8.78906 16.3887 8.30907 16.3687 8.02907 16.0587C7.74907 15.7487 7.76905 15.2787 8.07905 14.9987L11.3591 11.9887L8.07905 8.97872C7.76905 8.69872 7.74907 8.22872 8.02907 7.91872C8.30907 7.61872 8.78906 7.58871 9.08906 7.86871L11.3891 9.97872V7.31872C11.3891 6.41872 11.8891 6.08872 12.1091 5.97872C12.3191 5.87872 12.8991 5.70871 13.5991 6.27871L15.6591 7.99871C15.9591 8.24871 16.1391 8.61871 16.1491 8.99871C16.1591 9.37871 15.9991 9.7587 15.7091 10.0187L13.5791 11.9687L15.7091 13.9187C15.9991 14.1887 16.1591 14.5587 16.1491 14.9387C16.1391 15.3187 15.9591 15.6887 15.6591 15.9387L13.5991 17.6587C13.2191 18.0187 12.8691 18.1087 12.5991 18.1087ZM12.8991 13.4087V16.3287L14.5691 14.9387L12.8991 13.4087ZM12.8991 7.66872V10.5887L14.5691 9.05871L12.8991 7.66872Z" fill="#292D32"/>
<path d="M12 22.75C6.07 22.75 1.25 17.93 1.25 12C1.25 6.07 6.07 1.25 12 1.25C17.93 1.25 22.75 6.07 22.75 12C22.75 17.93 17.93 22.75 12 22.75ZM12 2.75C6.9 2.75 2.75 6.9 2.75 12C2.75 17.1 6.9 21.25 12 21.25C17.1 21.25 21.25 17.1 21.25 12C21.25 6.9 17.1 2.75 12 2.75Z" fill="#292D32"/>
</svg>
