<svg width="24" height="24" viewBox="0 0 24 24" fill="none" xmlns="http://www.w3.org/2000/svg">
<path d="M16.75 7.75H7.25C6.84 7.75 6.5 7.41 6.5 7V5C6.5 2.44 7.69 1.25 10.25 1.25H13.75C16.31 1.25 17.5 2.44 17.5 5V7C17.5 7.41 17.16 7.75 16.75 7.75ZM8 6.25H16V5C16 3.3 15.45 2.75 13.75 2.75H10.25C8.55 2.75 8 3.3 8 5V6.25Z" fill="#292D32"/>
<path d="M12.9997 22.75H10.9997C8.95972 22.75 7.65972 21.77 7.32972 19.99C7.25972 19.58 7.51972 19.19 7.92972 19.12C8.32972 19.04 8.72972 19.31 8.79972 19.72C8.92972 20.43 9.29972 21.25 10.9897 21.25H12.9897C14.5697 21.25 15.2397 20.58 15.2397 19V15.75H12.9597C12.5497 15.75 12.2097 15.41 12.2097 15C12.2097 14.59 12.5497 14.25 12.9597 14.25H15.9997C16.4097 14.25 16.7497 14.59 16.7497 15V19C16.7497 21.42 15.4197 22.75 12.9997 22.75Z" fill="#292D32"/>
<path d="M6 18.75C3.58 18.75 2.25 17.42 2.25 15V10C2.25 7.58 3.58 6.25 6 6.25H16.59C17 6.25 17.34 6.59 17.34 7C17.34 7.41 17 7.75 16.59 7.75H6C4.42 7.75 3.75 8.42 3.75 10V15C3.75 16.58 4.42 17.25 6 17.25C6.41 17.25 6.75 17.59 6.75 18C6.75 18.41 6.41 18.75 6 18.75Z" fill="#292D32"/>
<path d="M18 18.7518H16C15.59 18.7518 15.25 18.4118 15.25 18.0018V15.7518H13C12.59 15.7518 12.25 15.4118 12.25 15.0018C12.25 14.5918 12.59 14.2518 13 14.2518H16C16.41 14.2518 16.75 14.5918 16.75 15.0018V17.2518H18C19.58 17.2518 20.25 16.5818 20.25 15.0018V10.0018C20.25 9.08178 20.02 8.47178 19.54 8.13178C19.2 7.89178 19.12 7.42178 19.36 7.09178C19.6 6.75178 20.07 6.67178 20.41 6.91178C21.3 7.54178 21.75 8.58178 21.75 10.0018V15.0018C21.75 17.4218 20.42 18.7518 18 18.7518Z" fill="#292D32"/>
<path d="M16.9991 15.75H15.7891C15.3791 15.75 15.0391 15.41 15.0391 15C15.0391 14.59 15.3791 14.25 15.7891 14.25H16.9991C17.4091 14.25 17.7491 14.59 17.7491 15C17.7491 15.41 17.4091 15.75 16.9991 15.75Z" fill="#292D32"/>
<path d="M9 11.75H7C6.59 11.75 6.25 11.41 6.25 11C6.25 10.59 6.59 10.25 7 10.25H9C9.41 10.25 9.75 10.59 9.75 11C9.75 11.41 9.41 11.75 9 11.75Z" fill="#292D32"/>
<path d="M1.99945 22.7514C1.80945 22.7514 1.61945 22.6814 1.46945 22.5314C1.17945 22.2414 1.17945 21.7614 1.46945 21.4714L21.4695 1.47141C21.7595 1.18141 22.2395 1.18141 22.5295 1.47141C22.8195 1.76141 22.8195 2.24141 22.5295 2.53141L2.52945 22.5314C2.37945 22.6814 2.18945 22.7514 1.99945 22.7514Z" fill="#292D32"/>
</svg>
