<svg width="24" height="24" viewBox="0 0 24 24" fill="none" xmlns="http://www.w3.org/2000/svg">
<path d="M5.46005 18.4908V15.5708C5.46005 14.6008 6.22005 13.7308 7.30005 13.7308C8.27005 13.7308 9.14005 14.4908 9.14005 15.5708V18.3808C9.14005 20.3308 7.52005 21.9508 5.57005 21.9508C3.62005 21.9508 2.00005 20.3208 2.00005 18.3808V12.2208C1.89005 6.60078 6.33005 2.05078 11.95 2.05078C17.57 2.05078 22 6.60078 22 12.1108V18.2708C22 20.2208 20.38 21.8408 18.43 21.8408C16.48 21.8408 14.86 20.2208 14.86 18.2708V15.4608C14.86 14.4908 15.62 13.6208 16.7 13.6208C17.67 13.6208 18.54 14.3808 18.54 15.4608V18.4908" stroke="#292D32" stroke-width="1.5" stroke-linecap="round" stroke-linejoin="round"/>
</svg>
