<svg width="24" height="24" viewBox="0 0 24 24" fill="none" xmlns="http://www.w3.org/2000/svg">
<path d="M10.5 11.46V14.31L8 15.75L5.5 14.31V11.46L8 10.02L9.25 10.74L10.5 11.46Z" stroke="black" stroke-width="1.5" stroke-miterlimit="10" stroke-linejoin="round"/>
<path d="M18.5 11.46V14.31L16 15.75L13.5 14.31V11.46L14.75 10.74L16 10.02L18.5 11.46Z" stroke="black" stroke-width="1.5" stroke-miterlimit="10" stroke-linejoin="round"/>
<path d="M14.75 9.33V10.74L13.5 11.46V13.19L12 14.05L10.5 13.19V11.46L9.25 10.74V9.33L12 7.75L14.75 9.33Z" stroke="black" stroke-width="1.5" stroke-miterlimit="10" stroke-linejoin="round"/>
<path d="M4 6C2.75 7.67 2 9.75 2 12C2 17.52 6.48 22 12 22C17.52 22 22 17.52 22 12C22 6.48 17.52 2 12 2C10.57 2 9.19997 2.30001 7.96997 2.85001" stroke="#17191C" stroke-width="1.5" stroke-linecap="round" stroke-linejoin="round"/>
</svg>
