<svg width="24" height="24" viewBox="0 0 24 24" fill="none" xmlns="http://www.w3.org/2000/svg">
<path d="M12 16.25C9.38 16.25 7.25 14.12 7.25 11.5V6C7.25 3.38 9.38 1.25 12 1.25C14.62 1.25 16.75 3.38 16.75 6V11.5C16.75 14.12 14.62 16.25 12 16.25ZM12 2.75C10.21 2.75 8.75 4.21 8.75 6V11.5C8.75 13.29 10.21 14.75 12 14.75C13.79 14.75 15.25 13.29 15.25 11.5V6C15.25 4.21 13.79 2.75 12 2.75Z" fill="#292D32"/>
<path d="M12.0016 19.7484C7.37156 19.7484 3.60156 15.9784 3.60156 11.3484V9.64844C3.60156 9.23844 3.94156 8.89844 4.35156 8.89844C4.76156 8.89844 5.10156 9.23844 5.10156 9.64844V11.3484C5.10156 15.1484 8.20156 18.2484 12.0016 18.2484C15.8016 18.2484 18.9016 15.1484 18.9016 11.3484V9.64844C18.9016 9.23844 19.2416 8.89844 19.6516 8.89844C20.0616 8.89844 20.4016 9.23844 20.4016 9.64844V11.3484C20.4016 15.9784 16.6316 19.7484 12.0016 19.7484Z" fill="#292D32"/>
<path d="M13.3918 7.18031C13.3118 7.18031 13.2218 7.17031 13.1318 7.14031C12.4018 6.87031 11.6018 6.87031 10.8718 7.14031C10.4818 7.28031 10.0518 7.08031 9.91183 6.69031C9.77183 6.30031 9.97183 5.87031 10.3618 5.73031C11.4218 5.35031 12.5918 5.35031 13.6518 5.73031C14.0418 5.87031 14.2418 6.30031 14.1018 6.69031C13.9818 6.99031 13.6918 7.18031 13.3918 7.18031Z" fill="#292D32"/>
<path d="M12.7981 9.30031C12.7281 9.30031 12.6681 9.29031 12.5981 9.27031C12.1981 9.16031 11.7881 9.16031 11.3881 9.27031C10.9881 9.38031 10.5781 9.14031 10.4681 8.74031C10.3581 8.35031 10.5981 7.94031 10.9981 7.83031C11.6481 7.65031 12.3481 7.65031 12.9981 7.83031C13.3981 7.94031 13.6381 8.35031 13.5281 8.75031C13.4381 9.08031 13.1281 9.30031 12.7981 9.30031Z" fill="#292D32"/>
<path d="M12 22.75C11.59 22.75 11.25 22.41 11.25 22V19C11.25 18.59 11.59 18.25 12 18.25C12.41 18.25 12.75 18.59 12.75 19V22C12.75 22.41 12.41 22.75 12 22.75Z" fill="#292D32"/>
</svg>
