<svg width="24" height="24" viewBox="0 0 24 24" fill="none" xmlns="http://www.w3.org/2000/svg">
<path d="M6.28016 22.7517C4.15016 22.7517 2.41016 21.0117 2.41016 18.8817C2.41016 16.7517 4.15016 15.0117 6.28016 15.0117C8.41016 15.0117 10.1502 16.7517 10.1502 18.8817C10.1502 21.0117 8.41016 22.7517 6.28016 22.7517ZM6.28016 16.5117C4.97016 16.5117 3.91016 17.5717 3.91016 18.8817C3.91016 20.1917 4.97016 21.2517 6.28016 21.2517C7.59016 21.2517 8.65016 20.1917 8.65016 18.8817C8.65016 17.5717 7.59016 16.5117 6.28016 16.5117Z" fill="#292D32"/>
<path d="M9.39844 19.6287C8.98844 19.6287 8.64844 19.2887 8.64844 18.8787V6.29867C8.64844 4.71867 9.59844 3.47867 11.1184 3.06867L17.3584 1.36867C18.6284 1.01867 19.6984 1.14867 20.4484 1.72867C21.2084 2.30867 21.5884 3.27867 21.5884 4.60867V16.8087C21.5884 17.2187 21.2484 17.5587 20.8384 17.5587C20.4284 17.5587 20.0884 17.2187 20.0884 16.8087V4.59867C20.0884 4.01867 19.9884 3.25867 19.5384 2.91867C19.0484 2.53867 18.2084 2.68867 17.7484 2.81867L11.5084 4.51867C10.6384 4.75867 10.1484 5.40867 10.1484 6.30867V18.8887C10.1484 19.2887 9.80844 19.6287 9.39844 19.6287Z" fill="#292D32"/>
<path d="M17.7216 20.6697C15.5916 20.6697 13.8516 18.9297 13.8516 16.7997C13.8516 14.6697 15.5916 12.9297 17.7216 12.9297C19.8516 12.9297 21.5916 14.6697 21.5916 16.7997C21.5916 18.9297 19.8516 20.6697 17.7216 20.6697ZM17.7216 14.4297C16.4116 14.4297 15.3516 15.4897 15.3516 16.7997C15.3516 18.1097 16.4116 19.1697 17.7216 19.1697C19.0316 19.1697 20.0916 18.1097 20.0916 16.7997C20.0916 15.4897 19.0316 14.4297 17.7216 14.4297Z" fill="#292D32"/>
<path d="M9.3998 10.2712C9.0698 10.2712 8.7698 10.0512 8.6798 9.72125C8.5698 9.32125 8.7998 8.90125 9.1998 8.79125L20.6398 5.67125C21.0398 5.56125 21.4498 5.80125 21.5598 6.20125C21.6698 6.60125 21.4298 7.01125 21.0298 7.12125L9.5998 10.2412C9.5298 10.2612 9.4598 10.2712 9.3998 10.2712Z" fill="#292D32"/>
</svg>
