<svg width="24" height="24" viewBox="0 0 24 24" fill="none" xmlns="http://www.w3.org/2000/svg">
<path d="M15 22.75H9C3.57 22.75 1.25 20.43 1.25 15V9C1.25 3.57 3.57 1.25 9 1.25H15C20.43 1.25 22.75 3.57 22.75 9V15C22.75 20.43 20.43 22.75 15 22.75ZM9 2.75C4.39 2.75 2.75 4.39 2.75 9V15C2.75 19.61 4.39 21.25 9 21.25H15C19.61 21.25 21.25 19.61 21.25 15V9C21.25 4.39 19.61 2.75 15 2.75H9Z" fill="#292D32"/>
<path d="M7 22.25C6.59 22.25 6.25 21.91 6.25 21.5V2.5C6.25 2.09 6.59 1.75 7 1.75C7.41 1.75 7.75 2.09 7.75 2.5V21.5C7.75 21.91 7.41 22.25 7 22.25Z" fill="#292D32"/>
<path d="M11.4705 17.5503C10.2305 17.5503 9.23047 16.5403 9.23047 15.3103C9.23047 14.0803 10.2405 13.0703 11.4705 13.0703C12.7005 13.0703 13.7105 14.0803 13.7105 15.3103C13.7105 16.5403 12.7005 17.5503 11.4705 17.5503ZM11.4705 14.5603C11.0605 14.5603 10.7305 14.8903 10.7305 15.3003C10.7305 15.7103 11.0605 16.0403 11.4705 16.0403C11.8805 16.0403 12.2105 15.7103 12.2105 15.3003C12.2105 14.8903 11.8705 14.5603 11.4705 14.5603Z" fill="#292D32"/>
<path d="M12.9609 16.0605C12.5509 16.0605 12.2109 15.7205 12.2109 15.3105V9.30049C12.2109 8.38049 12.7909 7.6205 13.6809 7.3805L16.6609 6.57051C17.5809 6.32051 18.1609 6.5605 18.4809 6.8105C18.9409 7.1605 19.1809 7.7305 19.1809 8.5005V14.3305C19.1809 14.7405 18.8409 15.0805 18.4309 15.0805C18.0209 15.0805 17.6809 14.7405 17.6809 14.3305V8.5005C17.6809 8.1705 17.6109 8.03051 17.5709 8.01051C17.5209 7.97051 17.3509 7.95053 17.0609 8.03053L14.0809 8.84053C13.8409 8.91053 13.7209 9.06051 13.7209 9.32051V15.3305C13.7109 15.7205 13.3709 16.0605 12.9609 16.0605Z" fill="#292D32"/>
<path d="M16.9314 16.5503C15.6914 16.5503 14.6914 15.5403 14.6914 14.3103C14.6914 13.0703 15.7014 12.0703 16.9314 12.0703C18.1614 12.0703 19.1714 13.0803 19.1714 14.3103C19.1814 15.5503 18.1714 16.5503 16.9314 16.5503ZM16.9314 13.5703C16.5214 13.5703 16.1914 13.9003 16.1914 14.3103C16.1914 14.7203 16.5214 15.0503 16.9314 15.0503C17.3414 15.0503 17.6714 14.7203 17.6714 14.3103C17.6714 13.9003 17.3414 13.5703 16.9314 13.5703Z" fill="#292D32"/>
<path d="M12.9616 11.7914C12.6316 11.7914 12.3316 11.5714 12.2416 11.2414C12.1316 10.8414 12.3716 10.4314 12.7716 10.3214L18.2416 8.83141C18.6416 8.72141 19.0516 8.96138 19.1616 9.36138C19.2716 9.76138 19.0316 10.1714 18.6316 10.2814L13.1616 11.7714C13.0916 11.7814 13.0216 11.7914 12.9616 11.7914Z" fill="#292D32"/>
</svg>
