<svg width="24" height="24" viewBox="0 0 24 24" fill="none" xmlns="http://www.w3.org/2000/svg">
<path d="M15 22.75H9C3.57 22.75 1.25 20.43 1.25 15V9C1.25 3.57 3.57 1.25 9 1.25H15C20.43 1.25 22.75 3.57 22.75 9V15C22.75 20.43 20.43 22.75 15 22.75ZM9 2.75C4.39 2.75 2.75 4.39 2.75 9V15C2.75 19.61 4.39 21.25 9 21.25H15C19.61 21.25 21.25 19.61 21.25 15V9C21.25 4.39 19.61 2.75 15 2.75H9Z" fill="#292D32"/>
<path d="M21.4795 17.8594H2.51953C2.10953 17.8594 1.76953 17.5194 1.76953 17.1094C1.76953 16.6994 2.10953 16.3594 2.51953 16.3594H21.4795C21.8895 16.3594 22.2295 16.6994 22.2295 17.1094C22.2295 17.5194 21.8995 17.8594 21.4795 17.8594Z" fill="#292D32"/>
<path d="M21.4795 7.85938H2.51953C2.10953 7.85938 1.76953 7.51937 1.76953 7.10938C1.76953 6.69938 2.09953 6.35938 2.51953 6.35938H21.4795C21.8895 6.35938 22.2295 6.69938 22.2295 7.10938C22.2295 7.51937 21.8995 7.85938 21.4795 7.85938Z" fill="#292D32"/>
<path d="M6.96875 22.2094C6.55875 22.2094 6.21875 21.8694 6.21875 21.4594V17.1094C6.21875 16.6994 6.55875 16.3594 6.96875 16.3594C7.37875 16.3594 7.71875 16.6994 7.71875 17.1094V21.4594C7.71875 21.8794 7.37875 22.2094 6.96875 22.2094Z" fill="#292D32"/>
<path d="M12 22.7194C11.59 22.7194 11.25 22.3794 11.25 21.9694V17.1094C11.25 16.6994 11.59 16.3594 12 16.3594C12.41 16.3594 12.75 16.6994 12.75 17.1094V21.9694C12.75 22.3794 12.41 22.7194 12 22.7194Z" fill="#292D32"/>
<path d="M16.9688 22.2694C16.5588 22.2694 16.2188 21.9294 16.2188 21.5194V17.1094C16.2188 16.6994 16.5588 16.3594 16.9688 16.3594C17.3787 16.3594 17.7188 16.6994 17.7188 17.1094V21.5194C17.7188 21.9394 17.3787 22.2694 16.9688 22.2694Z" fill="#292D32"/>
<path d="M6.96875 7.20937C6.55875 7.20937 6.21875 6.86937 6.21875 6.45937V2.10937C6.21875 1.69937 6.55875 1.35938 6.96875 1.35938C7.37875 1.35938 7.71875 1.69937 7.71875 2.10937V6.45937C7.71875 6.87937 7.37875 7.20937 6.96875 7.20937Z" fill="#292D32"/>
<path d="M12 7.71937C11.59 7.71937 11.25 7.37937 11.25 6.96937V2.10937C11.25 1.69937 11.59 1.35938 12 1.35938C12.41 1.35938 12.75 1.69937 12.75 2.10937V6.96937C12.75 7.37937 12.41 7.71937 12 7.71937Z" fill="#292D32"/>
<path d="M12 18.7812C11.59 18.7812 11.25 18.4412 11.25 18.0312V7.03125C11.25 6.62125 11.59 6.28125 12 6.28125C12.41 6.28125 12.75 6.62125 12.75 7.03125V18.0312C12.75 18.4412 12.41 18.7812 12 18.7812Z" fill="#292D32"/>
<path d="M16.9688 7.26937C16.5588 7.26937 16.2188 6.92937 16.2188 6.51937V2.10937C16.2188 1.69937 16.5588 1.35938 16.9688 1.35938C17.3787 1.35938 17.7188 1.69937 17.7188 2.10937V6.51937C17.7188 6.93937 17.3787 7.26937 16.9688 7.26937Z" fill="#292D32"/>
</svg>
