<svg width="24" height="24" viewBox="0 0 24 24" fill="none" xmlns="http://www.w3.org/2000/svg">
<path d="M24 0H0V24H24V0Z" fill="white"/>
<path opacity="0.4" d="M12 22C17.5228 22 22 17.5228 22 12C22 6.47715 17.5228 2 12 2C6.47715 2 2 6.47715 2 12C2 17.5228 6.47715 22 12 22Z" fill="#292D32"/>
<path d="M16.6901 15.6999L12.6901 6.69992C12.4501 6.15992 11.5601 6.15992 11.3201 6.69992L9.30007 11.2499H8.00008C7.59008 11.2499 7.25008 11.5899 7.25008 11.9999C7.25008 12.4099 7.59008 12.7499 8.00008 12.7499H8.62008L7.31008 15.6999C7.14008 16.0799 7.31009 16.5199 7.69009 16.6899C8.07009 16.8599 8.51008 16.6899 8.68008 16.3099L10.2601 12.7599H12.0001C12.4101 12.7599 12.7501 12.4199 12.7501 12.0099C12.7501 11.5999 12.4101 11.2599 12.0001 11.2599H10.9301L12.0001 8.85992L15.3101 16.3199C15.4301 16.5999 15.7101 16.7699 16.0001 16.7699C16.1001 16.7699 16.2101 16.7499 16.3001 16.7099C16.6801 16.5199 16.8501 16.0699 16.6901 15.6999Z" fill="#292D32"/>
</svg>
