<svg width="24" height="24" viewBox="0 0 24 24" fill="none" xmlns="http://www.w3.org/2000/svg">
<path d="M24 0H0V24H24V0Z" fill="white"/>
<g opacity="0.6">
<path opacity="0.6" d="M17.1484 10C17.7007 10 18.1484 9.55228 18.1484 9C18.1484 8.44772 17.7007 8 17.1484 8C16.5962 8 16.1484 8.44772 16.1484 9C16.1484 9.55228 16.5962 10 17.1484 10Z" fill="#292D32"/>
<path opacity="0.6" d="M17.1484 16C17.7007 16 18.1484 15.5523 18.1484 15C18.1484 14.4477 17.7007 14 17.1484 14C16.5962 14 16.1484 14.4477 16.1484 15C16.1484 15.5523 16.5962 16 17.1484 16Z" fill="#292D32"/>
<path opacity="0.6" d="M19.75 13C20.3023 13 20.75 12.5523 20.75 12C20.75 11.4477 20.3023 11 19.75 11C19.1977 11 18.75 11.4477 18.75 12C18.75 12.5523 19.1977 13 19.75 13Z" fill="#292D32"/>
<path opacity="0.6" d="M6.79883 10C7.35111 10 7.79883 9.55228 7.79883 9C7.79883 8.44772 7.35111 8 6.79883 8C6.24654 8 5.79883 8.44772 5.79883 9C5.79883 9.55228 6.24654 10 6.79883 10Z" fill="#292D32"/>
<path opacity="0.6" d="M6.79883 16C7.35111 16 7.79883 15.5523 7.79883 15C7.79883 14.4477 7.35111 14 6.79883 14C6.24654 14 5.79883 14.4477 5.79883 15C5.79883 15.5523 6.24654 16 6.79883 16Z" fill="#292D32"/>
<path opacity="0.6" d="M4.19922 13C4.7515 13 5.19922 12.5523 5.19922 12C5.19922 11.4477 4.7515 11 4.19922 11C3.64693 11 3.19922 11.4477 3.19922 12C3.19922 12.5523 3.64693 13 4.19922 13Z" fill="#292D32"/>
<path opacity="0.6" d="M15.8984 6.2002C16.4507 6.2002 16.8984 5.75248 16.8984 5.2002C16.8984 4.64791 16.4507 4.2002 15.8984 4.2002C15.3462 4.2002 14.8984 4.64791 14.8984 5.2002C14.8984 5.75248 15.3462 6.2002 15.8984 6.2002Z" fill="#292D32"/>
<path opacity="0.6" d="M8.09961 6.2002C8.65189 6.2002 9.09961 5.75248 9.09961 5.2002C9.09961 4.64791 8.65189 4.2002 8.09961 4.2002C7.54733 4.2002 7.09961 4.64791 7.09961 5.2002C7.09961 5.75248 7.54733 6.2002 8.09961 6.2002Z" fill="#292D32"/>
<path opacity="0.6" d="M12.0488 7C12.6011 7 13.0488 6.55228 13.0488 6C13.0488 5.44772 12.6011 5 12.0488 5C11.4965 5 11.0488 5.44772 11.0488 6C11.0488 6.55228 11.4965 7 12.0488 7Z" fill="#292D32"/>
<path opacity="0.6" d="M15.8984 20C16.4507 20 16.8984 19.5523 16.8984 19C16.8984 18.4477 16.4507 18 15.8984 18C15.3462 18 14.8984 18.4477 14.8984 19C14.8984 19.5523 15.3462 20 15.8984 20Z" fill="#292D32"/>
<path opacity="0.6" d="M8.09961 20C8.65189 20 9.09961 19.5523 9.09961 19C9.09961 18.4477 8.65189 18 8.09961 18C7.54733 18 7.09961 18.4477 7.09961 19C7.09961 19.5523 7.54733 20 8.09961 20Z" fill="#292D32"/>
<path opacity="0.6" d="M12.0488 19.2002C12.6011 19.2002 13.0488 18.7525 13.0488 18.2002C13.0488 17.6479 12.6011 17.2002 12.0488 17.2002C11.4965 17.2002 11.0488 17.6479 11.0488 18.2002C11.0488 18.7525 11.4965 19.2002 12.0488 19.2002Z" fill="#292D32"/>
</g>
<path d="M13.75 10.25C14.4404 10.25 15 9.69036 15 9C15 8.30964 14.4404 7.75 13.75 7.75C13.0596 7.75 12.5 8.30964 12.5 9C12.5 9.69036 13.0596 10.25 13.75 10.25Z" fill="#292D32"/>
<path d="M10.25 10.25C10.9404 10.25 11.5 9.69036 11.5 9C11.5 8.30964 10.9404 7.75 10.25 7.75C9.55964 7.75 9 8.30964 9 9C9 9.69036 9.55964 10.25 10.25 10.25Z" fill="#292D32"/>
<path d="M15.5 13.25C16.1904 13.25 16.75 12.6904 16.75 12C16.75 11.3096 16.1904 10.75 15.5 10.75C14.8096 10.75 14.25 11.3096 14.25 12C14.25 12.6904 14.8096 13.25 15.5 13.25Z" fill="#292D32"/>
<path d="M8.5 13.25C9.19036 13.25 9.75 12.6904 9.75 12C9.75 11.3096 9.19036 10.75 8.5 10.75C7.80964 10.75 7.25 11.3096 7.25 12C7.25 12.6904 7.80964 13.25 8.5 13.25Z" fill="#292D32"/>
<path d="M10.25 16.25C10.9404 16.25 11.5 15.6904 11.5 15C11.5 14.3096 10.9404 13.75 10.25 13.75C9.55964 13.75 9 14.3096 9 15C9 15.6904 9.55964 16.25 10.25 16.25Z" fill="#292D32"/>
<path d="M13.75 16.25C14.4404 16.25 15 15.6904 15 15C15 14.3096 14.4404 13.75 13.75 13.75C13.0596 13.75 12.5 14.3096 12.5 15C12.5 15.6904 13.0596 16.25 13.75 16.25Z" fill="#292D32"/>
<g opacity="0.4">
<path opacity="0.4" d="M11.9991 3.33008C11.5091 3.33008 11.1191 2.94008 11.1191 2.45008C11.1191 1.96008 11.5091 1.58008 11.9991 1.58008C12.4891 1.58008 12.8791 1.97008 12.8791 2.46008C12.8791 2.95008 12.4891 3.33008 11.9991 3.33008Z" fill="#292D32"/>
</g>
<g opacity="0.4">
<path opacity="0.4" d="M17.2502 3.6001C16.8302 3.6001 16.4902 3.2601 16.4902 2.8501C16.4902 2.4401 16.8302 2.1001 17.2402 2.1001C17.6502 2.1001 18.0002 2.4401 18.0002 2.8501C18.0002 3.2601 17.6702 3.6001 17.2502 3.6001Z" fill="#292D32"/>
</g>
<g opacity="0.4">
<path opacity="0.4" d="M6.75 3.6001C6.34 3.6001 6 3.2601 6 2.8501C6 2.4401 6.33 2.1001 6.75 2.1001H6.76C7.17 2.1001 7.51 2.4401 7.51 2.8501C7.51 3.2601 7.17 3.6001 6.75 3.6001Z" fill="#292D32"/>
</g>
<g opacity="0.4">
<path opacity="0.4" d="M11.9991 22.3801C11.5091 22.3801 11.1191 21.9901 11.1191 21.5001C11.1191 21.0101 11.5091 20.6201 11.9991 20.6201C12.4891 20.6201 12.8791 21.0101 12.8791 21.5001C12.8791 21.9901 12.4891 22.3801 11.9991 22.3801Z" fill="#292D32"/>
</g>
<g opacity="0.4">
<path opacity="0.4" d="M17.2502 21.8501C16.8302 21.8501 16.4902 21.5101 16.4902 21.1001C16.4902 20.6901 16.8302 20.3501 17.2402 20.3501C17.6502 20.3501 18.0002 20.6901 18.0002 21.1001C18.0002 21.5101 17.6702 21.8501 17.2502 21.8501Z" fill="#292D32"/>
</g>
<g opacity="0.4">
<path opacity="0.4" d="M6.75 21.8501C6.34 21.8501 6 21.5101 6 21.1001C6 20.6901 6.33 20.3501 6.75 20.3501H6.76C7.17 20.3501 7.51 20.6901 7.51 21.1001C7.51 21.5101 7.17 21.8501 6.75 21.8501Z" fill="#292D32"/>
</g>
<g opacity="0.4">
<path opacity="0.4" d="M1.54992 12.8801C1.06992 12.8801 0.669922 12.4901 0.669922 12.0101V12.0001C0.669922 11.5201 1.05992 11.1201 1.54992 11.1201C2.03992 11.1201 2.41992 11.5101 2.41992 12.0001C2.41992 12.4901 2.02992 12.8801 1.54992 12.8801Z" fill="#292D32"/>
</g>
<g opacity="0.4">
<path opacity="0.4" d="M3.75 17.7502C3.34 17.7502 3 17.4102 3 17.0002V16.9902C3 16.5802 3.34 16.2402 3.75 16.2402C4.16 16.2402 4.5 16.5802 4.5 16.9902C4.5 17.4002 4.16 17.7502 3.75 17.7502Z" fill="#292D32"/>
</g>
<g opacity="0.4">
<path opacity="0.4" d="M3.75 7.75977C3.34 7.75977 3 7.41977 3 7.00977C3 6.59977 3.34 6.25977 3.75 6.25977C4.16 6.25977 4.5 6.58977 4.5 6.99977V7.00977C4.5 7.41977 4.16 7.75977 3.75 7.75977Z" fill="#292D32"/>
</g>
<g opacity="0.4">
<path opacity="0.4" d="M22.4991 12.8801C22.0191 12.8801 21.6191 12.4901 21.6191 12.0101V12.0001C21.6191 11.5201 22.0091 11.1201 22.4991 11.1201C22.9891 11.1201 23.3791 11.5101 23.3791 12.0001C23.3791 12.4901 22.9791 12.8801 22.4991 12.8801Z" fill="#292D32"/>
</g>
<g opacity="0.4">
<path opacity="0.4" d="M20.3008 17.7502C19.8908 17.7502 19.5508 17.4202 19.5508 17.0002V16.9902C19.5508 16.5802 19.8908 16.2402 20.3008 16.2402C20.7108 16.2402 21.0508 16.5802 21.0508 16.9902C21.0508 17.4002 20.7108 17.7502 20.3008 17.7502Z" fill="#292D32"/>
</g>
<g opacity="0.4">
<path opacity="0.4" d="M20.3008 7.75977C19.8908 7.75977 19.5508 7.41977 19.5508 7.00977C19.5508 6.59977 19.8908 6.25977 20.3008 6.25977C20.7108 6.25977 21.0508 6.58977 21.0508 6.99977V7.00977C21.0508 7.41977 20.7108 7.75977 20.3008 7.75977Z" fill="#292D32"/>
</g>
</svg>
