<svg width="24" height="24" viewBox="0 0 24 24" fill="none" xmlns="http://www.w3.org/2000/svg">
<path opacity="0.58" d="M24 0H0V24H24V0Z" fill="white"/>
<path opacity="0.4" d="M16.1898 2H7.81976C4.17976 2 2.00977 4.17 2.00977 7.81V16.18C2.00977 19.82 4.17976 21.99 7.81976 21.99H16.1898C19.8298 21.99 21.9998 19.82 21.9998 16.18V7.81C21.9998 4.17 19.8298 2 16.1898 2Z" fill="#292D32"/>
<path d="M13.9205 9.2802L13.9705 12.2302L16.6005 12.1902C16.7905 12.1902 16.9305 12.3602 16.9005 12.5402L16.5504 14.4502C16.5204 14.5902 16.4005 14.6902 16.2605 14.7002L14.0105 14.7402L14.1305 21.9902L11.1305 22.0402L11.0105 14.7902L9.31046 14.8202C9.14046 14.8202 9.01047 14.6902 9.01047 14.5202L8.98047 12.6202C8.98047 12.4502 9.11046 12.3202 9.28046 12.3202L10.9805 12.2902L10.9305 9.0402C10.9005 7.3802 12.2205 6.0202 13.8805 5.9902L16.5804 5.9502C16.7504 5.9502 16.8805 6.0802 16.8805 6.2502L16.9205 8.6502C16.9205 8.8202 16.7905 8.9502 16.6205 8.9502L14.2205 8.9902C14.0505 8.9802 13.9205 9.1202 13.9205 9.2802Z" fill="#292D32"/>
</svg>
