<svg width="24" height="24" viewBox="0 0 24 24" fill="none" xmlns="http://www.w3.org/2000/svg">
<path opacity="0.58" d="M24 0H0V24H24V0Z" fill="white"/>
<path opacity="0.6" d="M19 7.16027V15.9703C19 16.4003 18.86 16.8103 18.62 17.1503L18.16 16.9103L10 12.0003L18.54 7.26027L18.99 7.03027C19 7.07027 19 7.12027 19 7.16027Z" fill="#292D32"/>
<path d="M18.99 7.02982L18.54 7.25982L10 11.9998L12 2.99982L12.14 2.31982C12.43 2.33982 12.72 2.41982 12.99 2.56982L17.99 5.41982C18.58 5.75982 18.95 6.35982 18.99 7.02982Z" fill="#292D32"/>
<path opacity="0.4" d="M12 2.99985L10 11.9999L11.85 21.2299L11.9 21.5299C11.52 21.5199 11.15 21.3999 10.84 21.1699L5.84003 17.5999C5.31003 17.2199 5 16.6199 5 15.9699V7.15985C5 6.43985 5.38001 5.77985 6.01001 5.41985L11.01 2.56985C11.36 2.36985 11.75 2.27985 12.14 2.31985L12 2.99985Z" fill="#292D32"/>
<path d="M18.62 17.15C18.49 17.32 18.34 17.47 18.16 17.6L13.16 21.17C12.79 21.44 12.34 21.56 11.9 21.53L11.85 21.23L10 12L18.16 16.91L18.62 17.15Z" fill="#292D32"/>
</svg>
