<svg width="24" height="24" viewBox="0 0 24 24" fill="none" xmlns="http://www.w3.org/2000/svg">
<path d="M24 0H0V24H24V0Z" fill="white"/>
<path opacity="0.6" d="M16.3596 18.4901C16.3496 18.5001 16.3496 18.5101 16.3496 18.5101C15.1596 19.7701 13.7296 20.9601 11.9996 22.0001C11.9996 22.0001 3.15961 17.5801 2.09961 7.08008C5.20961 17.1501 11.9996 10.0001 11.9996 10.0001C18.7596 12.9001 16.5196 18.1401 16.3596 18.4901Z" fill="#292D32"/>
<path opacity="0.4" d="M16.3597 18.4898C16.5197 18.1398 18.7598 12.8998 11.9998 9.99982C10.9998 3.99982 16.0698 2.93982 16.0698 2.93982L16.6597 2.81982H16.6697C18.4097 3.22982 20.1998 3.91982 21.9998 4.99982C21.9998 4.99982 21.9997 12.4998 16.3597 18.4898Z" fill="#292D32"/>
<path d="M16.66 2.81979L16.07 2.93979C16.07 2.93979 11 3.99979 12 9.99979C12 9.99979 5.20998 17.1498 2.09998 7.07979V7.06979C2.03998 6.40979 2 5.70979 2 4.99979C2 4.99979 8.71997 0.969786 16.66 2.81979Z" fill="#292D32"/>
</svg>
