<svg width="24" height="24" viewBox="0 0 24 24" fill="none" xmlns="http://www.w3.org/2000/svg">
<path opacity="0.58" d="M24 0H0V24H24V0Z" fill="white"/>
<path opacity="0.6" d="M21 7V12L17 14.78V9.23L21 7Z" fill="#292D32"/>
<path opacity="0.6" d="M12 17.56V22L3 17L7 14.77V14.78L12 17.56Z" fill="#292D32"/>
<path d="M7 9.23V14.77L3 17V7L7 9.23Z" fill="#292D32"/>
<path opacity="0.6" d="M12 2V6.44L7 9.22V9.23L3 7L12 2Z" fill="#292D32"/>
<path d="M17 9.23V9.22L12 6.44V2L21 7L17 9.23Z" fill="#292D32"/>
<path d="M17 14.7803V19.5003L12 22.0003V17.5603L17 14.7803Z" fill="#292D32"/>
<path opacity="0.4" d="M21 17.0003V22.0003L17 19.5003V14.7803L21 17.0003Z" fill="#292D32"/>
<path opacity="0.4" d="M17 9.21994V14.7799L12 17.5599L7 14.7799V9.21994L12 6.43994L17 9.21994Z" fill="#292D32"/>
</svg>
