<svg width="24" height="24" viewBox="0 0 24 24" fill="none" xmlns="http://www.w3.org/2000/svg">
<path d="M24 0H0V24H24V0Z" fill="white"/>
<path d="M20.6602 8.04004C20.6602 8.27004 20.6002 8.51004 20.4502 8.70004L11.0702 20.64C10.7302 21.07 10.3302 21.22 9.99023 21.1L10.0002 21L11.0002 10L20.0402 8.19004L20.6602 8.04004Z" fill="#292D32"/>
<path opacity="0.4" d="M20.66 8.0398L20.04 8.1898L11 9.9998L16.95 4.0498C17.07 4.0998 17.17 4.1698 17.24 4.2398L20.37 7.3698C20.55 7.5498 20.65 7.7898 20.66 8.0398Z" fill="#292D32"/>
<path d="M16.9502 4.05019L11.0002 10.0002L3.01016 2.90019L2.66016 2.56019V2.55019C2.86016 2.29019 3.22016 2.16019 3.70016 2.23019L16.6602 3.96019C16.7502 3.97019 16.8502 4.00019 16.9502 4.05019Z" fill="#292D32"/>
<path opacity="0.4" d="M10.9994 10.0001L9.99942 21.0001L9.98942 21.1001C9.73942 21.0101 9.50942 20.7701 9.35942 20.3901L2.63942 3.59006C2.46942 3.17006 2.48942 2.81006 2.65942 2.56006L3.00942 2.90006L10.9994 10.0001Z" fill="#292D32"/>
</svg>
