<svg width="24" height="24" viewBox="0 0 24 24" fill="none" xmlns="http://www.w3.org/2000/svg">
<path opacity="0.58" d="M24 0H0V24H24V0Z" fill="white"/>
<path d="M14.9501 8.28977C14.8701 8.11977 14.6901 8.00977 14.5001 8.00977H9.50009C9.31009 8.00977 9.14008 8.11977 9.05008 8.28977C8.96008 8.45977 8.98006 8.65977 9.10006 8.80977L11.6001 12.1398C11.6901 12.2698 11.8401 12.3398 12.0001 12.3398C12.1601 12.3398 12.3101 12.2698 12.4001 12.1398L14.9001 8.80977C15.0101 8.66977 15.0301 8.45977 14.9501 8.28977Z" fill="#292D32"/>
<path opacity="0.4" d="M12 22C17.5228 22 22 17.5228 22 12C22 6.47715 17.5228 2 12 2C6.47715 2 2 6.47715 2 12C2 17.5228 6.47715 22 12 22Z" fill="#292D32"/>
<path d="M12.0009 17.7502C11.7609 17.7502 11.5309 17.6302 11.3909 17.4402L6.3909 10.4402C6.1509 10.1002 6.23088 9.63024 6.56088 9.39024C6.90088 9.15024 7.37087 9.23024 7.61087 9.56024L12.0009 15.7102L16.3909 9.56024C16.6309 9.22024 17.1009 9.14024 17.4409 9.39024C17.7809 9.63024 17.8609 10.1002 17.6109 10.4402L12.6109 17.4402C12.4709 17.6302 12.2409 17.7502 12.0009 17.7502Z" fill="#292D32"/>
</svg>
