<svg width="24" height="24" viewBox="0 0 24 24" fill="none" xmlns="http://www.w3.org/2000/svg">
<path d="M8 22.7514C4.28 22.7514 1.25 19.7214 1.25 16.0014C1.25 12.9614 3.29 10.2814 6.22 9.49136C6.59 9.39136 6.97 9.58136 7.11 9.94136C7.72 11.4714 9.02 12.6414 10.61 13.0714C11.49 13.3114 12.51 13.3114 13.37 13.0714C13.74 12.9714 14.13 13.1614 14.27 13.5214C14.58 14.3114 14.74 15.1514 14.74 16.0114C14.74 17.9314 13.92 19.7614 12.49 21.0314C11.27 22.1314 9.67 22.7514 8 22.7514ZM6.02 11.1314C4.07 11.9314 2.75 13.8514 2.75 16.0014C2.75 18.8914 5.11 21.2514 8 21.2514C9.3 21.2514 10.54 20.7714 11.5 19.9014C12.62 18.9114 13.25 17.4914 13.25 16.0014C13.25 15.5414 13.19 15.1014 13.08 14.6714C12.14 14.8214 11.12 14.7714 10.22 14.5214C8.41 14.0214 6.89 12.7814 6.02 11.1314Z" fill="#292D32"/>
<path d="M12 14.75C11.38 14.75 10.78 14.67 10.22 14.51C8.19 13.95 6.5 12.45 5.72 10.48C5.41 9.7 5.25 8.86 5.25 8C5.25 4.28 8.28 1.25 12 1.25C15.72 1.25 18.75 4.28 18.75 8C18.75 8.86 18.59 9.7 18.28 10.49C17.5 12.45 15.82 13.96 13.78 14.52C13.22 14.67 12.62 14.75 12 14.75ZM12 2.75C9.11 2.75 6.75 5.11 6.75 8C6.75 8.67 6.87 9.32 7.12 9.93C7.73 11.46 9.03 12.63 10.62 13.06C11.5 13.3 12.52 13.3 13.38 13.06C14.97 12.63 16.28 11.45 16.88 9.93C17.12 9.32 17.25 8.67 17.25 8C17.25 5.11 14.89 2.75 12 2.75Z" fill="#292D32"/>
<path d="M16 22.7517C14.33 22.7517 12.73 22.1317 11.5 21.0217C11.34 20.8817 11.25 20.6717 11.25 20.4617C11.25 20.2517 11.34 20.0417 11.5 19.9017C12.61 18.9217 13.25 17.5017 13.25 16.0017C13.25 15.3317 13.13 14.6817 12.88 14.0717C12.8 13.8717 12.81 13.6517 12.91 13.4617C13.01 13.2717 13.18 13.1317 13.38 13.0717C14.97 12.6417 16.27 11.4717 16.88 9.94168C17.02 9.58168 17.41 9.40169 17.77 9.49169C20.7 10.2917 22.74 12.9617 22.74 16.0017C22.75 19.7217 19.72 22.7517 16 22.7517ZM13.12 20.3917C13.97 20.9517 14.96 21.2517 16 21.2517C18.89 21.2517 21.25 18.8917 21.25 16.0017C21.25 13.8517 19.93 11.9317 17.98 11.1317C17.24 12.5417 16 13.6617 14.52 14.2617C14.67 14.8217 14.75 15.4117 14.75 16.0017C14.75 17.6217 14.17 19.1817 13.12 20.3917Z" fill="#292D32"/>
</svg>
