<svg width="24" height="24" viewBox="0 0 24 24" fill="none" xmlns="http://www.w3.org/2000/svg">
<path d="M10.4299 18.3699C10.2799 18.3699 10.1399 18.3299 10.0099 18.2399C9.79991 18.0999 9.67991 17.8699 9.67991 17.6199C9.67991 17.4699 9.66991 17.3099 9.64991 17.1499C9.55991 16.4399 9.23991 15.8199 8.69991 15.2799C8.15991 14.7399 7.48991 14.3999 6.76991 14.3099C6.64991 14.2999 6.47991 14.2899 6.31991 14.2999C6.05991 14.3199 5.81991 14.2099 5.66991 13.9999C5.51991 13.7999 5.47991 13.5299 5.55991 13.2899C5.70991 12.8799 5.92991 12.5099 6.18991 12.2099L7.72991 10.2699C10.3799 6.95992 15.7499 2.97992 19.6799 1.39992C20.5199 1.07992 21.3999 1.26992 22.0099 1.86992C22.6399 2.49992 22.8299 3.39992 22.4999 4.21992C20.9199 8.15992 16.9499 13.5199 13.6399 16.1699L11.6699 17.7499C11.2999 18.0199 10.9999 18.1899 10.6999 18.3099C10.6199 18.3499 10.5199 18.3699 10.4299 18.3699ZM7.53991 12.9399C8.37991 13.1599 9.12991 13.5999 9.75991 14.2299C10.3899 14.8499 10.8099 15.5699 11.0199 16.3699L12.7099 15.0099C15.8499 12.4999 19.6199 7.40992 21.1099 3.66992C21.2599 3.29992 21.0499 3.03992 20.9499 2.94992C20.8799 2.87992 20.6199 2.65992 20.2199 2.80992C16.4999 4.30992 11.4099 8.07992 8.88991 11.2199L7.53991 12.9399Z" fill="#292D32"/>
<path d="M4.07938 22.7491C3.32938 22.7491 2.60938 22.4491 2.06938 21.9091C1.44938 21.2891 1.14938 20.4291 1.24938 19.5491L1.51938 17.0891C1.77938 14.6491 3.77938 12.8391 6.25938 12.7891C6.44938 12.7791 6.69938 12.7891 6.92938 12.8091C8.01938 12.9491 8.98938 13.4391 9.76938 14.2191C10.5394 14.9891 10.9994 15.9091 11.1394 16.9391C11.1694 17.1591 11.1894 17.3991 11.1894 17.6091C11.1894 18.9291 10.6794 20.1591 9.75938 21.0891C8.98938 21.8491 7.99938 22.3191 6.87938 22.4591L4.40938 22.7291C4.29938 22.7391 4.18938 22.7491 4.07938 22.7491ZM6.44938 14.2991C6.40938 14.2991 6.35938 14.2991 6.31938 14.2991C4.80938 14.3291 3.20938 15.3591 3.00938 17.2591L2.73938 19.7191C2.68938 20.1391 2.83938 20.5491 3.12938 20.8491C3.41938 21.1391 3.82938 21.2891 4.23938 21.2391L6.69938 20.9691C7.46938 20.8691 8.15938 20.5491 8.67938 20.0291C9.31938 19.3891 9.67938 18.5291 9.67938 17.6091C9.67938 17.4591 9.66938 17.2991 9.64938 17.1391C9.55938 16.4291 9.23938 15.8091 8.69938 15.2691C8.15938 14.7291 7.48938 14.3891 6.76938 14.2991C6.68938 14.2991 6.56938 14.2991 6.44938 14.2991Z" fill="#292D32"/>
<path d="M14.2398 15.2183C13.8298 15.2183 13.4898 14.8783 13.4898 14.4683C13.4898 12.2683 11.6998 10.4883 9.50977 10.4883C9.09977 10.4883 8.75977 10.1483 8.75977 9.73828C8.75977 9.32828 9.08977 8.98828 9.49977 8.98828C12.5198 8.98828 14.9798 11.4483 14.9798 14.4683C14.9898 14.8883 14.6498 15.2183 14.2398 15.2183Z" fill="#292D32"/>
<path d="M15.6804 22.7306C14.7504 22.7306 13.8204 22.2906 12.9304 21.4006C12.6404 21.1106 12.6404 20.6306 12.9304 20.3406C13.2204 20.0506 13.7004 20.0506 13.9904 20.3406C15.1704 21.5206 16.1804 21.5206 17.3604 20.3406L20.3204 17.3806C21.5104 16.1906 21.5104 15.1806 20.3204 14.0006L19.5804 13.2706C19.2904 12.9806 19.2804 12.5006 19.5704 12.2106C19.8604 11.9106 20.3404 11.9106 20.6304 12.2006L21.3704 12.9306C23.1504 14.7106 23.1504 16.6606 21.3704 18.4406L18.4104 21.4006C17.5404 22.2806 16.6104 22.7306 15.6804 22.7306Z" fill="#292D32"/>
<path d="M3.10977 11.2617C2.91977 11.2617 2.71977 11.1917 2.57977 11.0417C0.819766 9.27172 0.819766 7.31172 2.57977 5.54172L5.53977 2.58172C7.29977 0.821719 9.27977 0.821719 11.0398 2.58172L11.7798 3.32172C12.0698 3.61172 12.0698 4.09172 11.7798 4.38172C11.4898 4.67172 11.0098 4.67172 10.7198 4.38172L9.96977 3.64172C8.78977 2.46172 7.76977 2.46172 6.59977 3.64172L3.63977 6.60172C2.45977 7.79172 2.45977 8.80172 3.63977 9.99172C3.92977 10.2817 3.92977 10.7617 3.63977 11.0517C3.48977 11.1917 3.29977 11.2617 3.10977 11.2617Z" fill="#292D32"/>
<path d="M7.55023 8.29906C7.36023 8.29906 7.17023 8.22906 7.02023 8.07906C6.73023 7.78906 6.73023 7.30906 7.02023 7.01906L10.7202 3.31906C11.0102 3.02906 11.4902 3.02906 11.7802 3.31906C12.0702 3.60906 12.0702 4.08906 11.7802 4.37906L8.08023 8.07906C7.93023 8.22906 7.74023 8.29906 7.55023 8.29906Z" fill="#292D32"/>
<path d="M17.1596 16.4302C16.9696 16.4302 16.7796 16.3602 16.6296 16.2102C16.3396 15.9202 16.3396 15.4402 16.6296 15.1502L19.5896 12.1902C19.8796 11.9002 20.3596 11.9002 20.6496 12.1902C20.9396 12.4802 20.9396 12.9602 20.6496 13.2502L17.6896 16.2102C17.5496 16.3602 17.3596 16.4302 17.1596 16.4302Z" fill="#292D32"/>
</svg>
