<svg width="24" height="24" viewBox="0 0 24 24" fill="none" xmlns="http://www.w3.org/2000/svg">
<path d="M14.4 9.6001H9.59998V14.4001H14.4V9.6001Z" stroke="#292D32" stroke-width="1.5" stroke-linecap="round" stroke-linejoin="round"/>
<path d="M7.79999 17.9999C8.78999 17.9999 9.59998 17.1899 9.59998 16.1999V14.3999H7.79999C6.80999 14.3999 6 15.2099 6 16.1999C6 17.1899 6.80999 17.9999 7.79999 17.9999Z" stroke="#292D32" stroke-width="1.5" stroke-linecap="round" stroke-linejoin="round"/>
<path d="M7.79999 9.60001H9.59998V7.79999C9.59998 6.80999 8.78999 6 7.79999 6C6.80999 6 6 6.80999 6 7.79999C6 8.78999 6.80999 9.60001 7.79999 9.60001Z" stroke="#292D32" stroke-width="1.5" stroke-linecap="round" stroke-linejoin="round"/>
<path d="M14.4 9.60001H16.2C17.19 9.60001 18 8.78999 18 7.79999C18 6.80999 17.19 6 16.2 6C15.21 6 14.4 6.80999 14.4 7.79999V9.60001Z" stroke="#292D32" stroke-width="1.5" stroke-linecap="round" stroke-linejoin="round"/>
<path d="M16.2 17.9999C17.19 17.9999 18 17.1899 18 16.1999C18 15.2099 17.19 14.3999 16.2 14.3999H14.4V16.1999C14.4 17.1899 15.21 17.9999 16.2 17.9999Z" stroke="#292D32" stroke-width="1.5" stroke-linecap="round" stroke-linejoin="round"/>
<path d="M9 22H15C20 22 22 20 22 15V9C22 4 20 2 15 2H9C4 2 2 4 2 9V15C2 20 4 22 9 22Z" stroke="#292D32" stroke-width="1.5" stroke-linecap="round" stroke-linejoin="round"/>
</svg>
