<svg width="24" height="24" viewBox="0 0 24 24" fill="none" xmlns="http://www.w3.org/2000/svg">
<path opacity="0.4" d="M15.0002 22.75C14.7302 22.75 14.4802 22.6 14.3502 22.37C14.2202 22.14 14.2202 21.85 14.3602 21.62L15.4102 19.87C15.6202 19.51 16.0802 19.4 16.4402 19.61C16.8002 19.82 16.9102 20.28 16.7002 20.64L16.4302 21.09C19.1902 20.44 21.2602 17.96 21.2602 15C21.2602 14.59 21.6002 14.25 22.0102 14.25C22.4202 14.25 22.7602 14.59 22.7602 15C22.7502 19.27 19.2702 22.75 15.0002 22.75Z" fill="#292D32"/>
<path opacity="0.4" d="M2 9.75C1.59 9.75 1.25 9.41 1.25 9C1.25 4.73 4.73 1.25 9 1.25C9.27 1.25 9.51999 1.4 9.64999 1.63C9.77999 1.86 9.78 2.15 9.64 2.38L8.59 4.13C8.38 4.49 7.92 4.60001 7.56 4.39001C7.2 4.18001 7.09 3.71999 7.3 3.35999L7.57001 2.90997C4.81001 3.55997 2.74001 6.04 2.74001 9C2.75001 9.41 2.41 9.75 2 9.75Z" fill="#292D32"/>
<path d="M10.667 13.8484L7.52702 12.1584C7.19702 11.9784 6.79703 11.9784 6.46703 12.1584L3.32703 13.8484C3.09703 13.9684 2.95703 14.2185 2.95703 14.4885C2.95703 14.7585 3.09703 15.0085 3.32703 15.1285L6.46703 16.8185C6.63703 16.9085 6.81702 16.9485 6.99702 16.9485C7.17702 16.9485 7.35702 16.9085 7.52702 16.8185L10.667 15.1285C10.897 15.0085 11.037 14.7585 11.037 14.4885C11.037 14.2185 10.887 13.9784 10.667 13.8484Z" fill="#292D32"/>
<path d="M5.94827 17.4067L3.02827 15.9467C2.80827 15.8367 2.54828 15.8467 2.32828 15.9767C2.11828 16.1067 1.98828 16.3367 1.98828 16.5867V19.3467C1.98828 19.8267 2.24827 20.2567 2.67827 20.4667L5.59828 21.9267C5.69828 21.9767 5.80827 22.0067 5.91827 22.0067C6.04827 22.0067 6.17828 21.9667 6.29828 21.8967C6.50828 21.7667 6.63828 21.5367 6.63828 21.2867V18.5267C6.64828 18.0467 6.37827 17.6167 5.94827 17.4067Z" fill="#292D32"/>
<path d="M11.6577 15.9767C11.4477 15.8467 11.1877 15.8367 10.9577 15.9467L8.03764 17.4067C7.60764 17.6167 7.34766 18.0467 7.34766 18.5267V21.2867C7.34766 21.5367 7.47765 21.7667 7.68765 21.8967C7.80765 21.9667 7.93766 22.0067 8.06766 22.0067C8.17766 22.0067 8.28765 21.9767 8.38765 21.9267L11.3076 20.4667C11.7376 20.2567 11.9977 19.8267 11.9977 19.3467V16.5867C11.9977 16.3367 11.8677 16.1067 11.6577 15.9767Z" fill="#292D32"/>
<path d="M20.667 3.82891L17.527 2.13891C17.197 1.95891 16.797 1.95891 16.467 2.13891L13.327 3.82891C13.097 3.94891 12.957 4.19886 12.957 4.46886C12.957 4.73886 13.097 4.98888 13.327 5.10888L16.467 6.79888C16.637 6.88888 16.817 6.92888 16.997 6.92888C17.177 6.92888 17.357 6.88888 17.527 6.79888L20.667 5.10888C20.897 4.98888 21.037 4.73886 21.037 4.46886C21.037 4.18886 20.887 3.94891 20.667 3.82891Z" fill="#292D32"/>
<path d="M15.9483 7.37938L13.0283 5.91936C12.8083 5.80936 12.5483 5.81939 12.3283 5.94939C12.1183 6.07939 11.9883 6.30938 11.9883 6.55938V9.31939C11.9883 9.79939 12.2483 10.2294 12.6783 10.4394L15.5983 11.8994C15.6983 11.9494 15.8083 11.9794 15.9183 11.9794C16.0483 11.9794 16.1783 11.9394 16.2983 11.8694C16.5083 11.7394 16.6383 11.5094 16.6383 11.2594V8.49938C16.6483 8.01938 16.3783 7.58938 15.9483 7.37938Z" fill="#292D32"/>
<path d="M21.6577 5.94939C21.4477 5.81939 21.1877 5.80936 20.9577 5.91936L18.0376 7.37938C17.6076 7.58938 17.3477 8.01938 17.3477 8.49938V11.2594C17.3477 11.5094 17.4777 11.7394 17.6877 11.8694C17.8077 11.9394 17.9377 11.9794 18.0677 11.9794C18.1777 11.9794 18.2876 11.9494 18.3876 11.8994L21.3076 10.4394C21.7376 10.2294 21.9977 9.79939 21.9977 9.31939V6.55938C21.9977 6.30938 21.8677 6.07939 21.6577 5.94939Z" fill="#292D32"/>
</svg>
