<svg width="24" height="24" viewBox="0 0 24 24" fill="none" xmlns="http://www.w3.org/2000/svg">
<path d="M15.9998 16.7519C15.7098 16.7519 15.4398 16.5819 15.3098 16.3019L11.9998 8.85188L8.68984 16.3119C8.51984 16.6919 8.06985 16.8619 7.69985 16.6919C7.31985 16.5219 7.14985 16.0819 7.31985 15.7019L11.3198 6.70188C11.5598 6.16188 12.4498 6.16188 12.6898 6.70188L16.6898 15.7019C16.8598 16.0819 16.6898 16.5219 16.3098 16.6919C16.2098 16.7319 16.0998 16.7519 15.9998 16.7519Z" fill="black"/>
<path d="M12 12.75H8C7.59 12.75 7.25 12.41 7.25 12C7.25 11.59 7.59 11.25 8 11.25H12C12.41 11.25 12.75 11.59 12.75 12C12.75 12.41 12.41 12.75 12 12.75Z" fill="black"/>
<path d="M12 22.75C6.07 22.75 1.25 17.93 1.25 12C1.25 6.07 6.07 1.25 12 1.25C17.93 1.25 22.75 6.07 22.75 12C22.75 17.93 17.93 22.75 12 22.75ZM12 2.75C6.9 2.75 2.75 6.9 2.75 12C2.75 17.1 6.9 21.25 12 21.25C17.1 21.25 21.25 17.1 21.25 12C21.25 6.9 17.1 2.75 12 2.75Z" fill="black"/>
</svg>
