<svg width="24" height="24" viewBox="0 0 24 24" fill="none" xmlns="http://www.w3.org/2000/svg">
<path d="M11.9991 16.7505C10.8991 16.7505 9.99915 15.8505 9.99915 14.7505V13.1505C9.28915 12.5605 8.86914 11.6905 8.86914 10.7505C8.86914 9.78051 9.30914 8.88051 10.0891 8.28051C10.8691 7.68051 11.8691 7.48052 12.8391 7.74052C13.8991 8.02052 14.7591 8.88052 15.0291 9.94052C15.3391 11.1505 14.9291 12.3905 13.9991 13.1505V14.7505C13.9991 15.8505 13.0991 16.7505 11.9991 16.7505ZM11.9991 9.13052C11.6391 9.13052 11.2991 9.25051 11.0091 9.47051C10.6091 9.78051 10.3792 10.2505 10.3792 10.7505C10.3792 11.3205 10.6691 11.8305 11.1491 12.1305L11.5091 12.3505V14.7505C11.5091 15.0305 11.7291 15.2505 12.0091 15.2505C12.2891 15.2505 12.5091 15.0305 12.5091 14.7505V12.3505L12.8691 12.1305C13.4891 11.7505 13.7691 11.0305 13.5891 10.3105C13.4491 9.78051 12.9991 9.33052 12.4691 9.19052C12.2991 9.15052 12.1491 9.13052 11.9991 9.13052Z" fill="black"/>
<path d="M12 22.75C6.07 22.75 1.25 17.93 1.25 12C1.25 6.07 6.07 1.25 12 1.25C16.74 1.25 20.86 4.29 22.27 8.8C22.39 9.2 22.17 9.62001 21.78 9.74001C21.38 9.86001 20.96 9.64 20.84 9.25C19.63 5.36 16.08 2.75 12.01 2.75C6.90999 2.75 2.75999 6.9 2.75999 12C2.75999 17.1 6.90999 21.25 12.01 21.25C16.07 21.25 19.62 18.65 20.83 14.78C20.95 14.38 21.37 14.17 21.77 14.29C22.17 14.41 22.38 14.84 22.26 15.23C20.84 19.73 16.72 22.75 12 22.75Z" fill="black"/>
</svg>
