<svg width="24" height="24" viewBox="0 0 24 24" fill="none" xmlns="http://www.w3.org/2000/svg">
<path d="M19.409 21.7517H4.58907C4.32907 21.7517 4.07906 21.6117 3.94906 21.3917L0.769063 16.1017C0.629063 15.8717 0.629063 15.5717 0.769063 15.3417L8.17904 2.63171C8.30904 2.40171 8.55906 2.26172 8.82906 2.26172H15.179C15.449 2.26172 15.6891 2.40171 15.8291 2.63171C18.6191 7.41171 22.829 14.6217 23.189 15.1817C23.289 15.3117 23.3391 15.4617 23.3391 15.6317C23.3391 15.8117 23.279 15.9717 23.169 16.1017C22.909 16.4917 21.149 19.5217 20.059 21.3817C19.929 21.6117 19.679 21.7517 19.409 21.7517ZM5.00905 20.2517H18.979C20.469 17.6917 21.2691 16.3317 21.7591 15.6117C21.1891 14.7717 20.189 13.0717 18.219 9.70172L14.749 3.75171H9.25905L2.28902 15.7017L5.00905 20.2517ZM22.369 16.3317V16.3517V16.3317Z" fill="black"/>
<path d="M19.4097 21.7494C19.1497 21.7494 18.8998 21.6194 18.7598 21.3794L8.16973 3.37943C7.95973 3.01943 8.07975 2.55943 8.43975 2.34943C8.79975 2.13943 9.25972 2.25942 9.46972 2.61942L20.0597 20.6194C20.2697 20.9794 20.1497 21.4394 19.7897 21.6494C19.6697 21.7194 19.5397 21.7494 19.4097 21.7494Z" fill="black"/>
<path d="M4.58929 21.7494C4.45929 21.7494 4.32929 21.7194 4.20929 21.6494C3.84929 21.4394 3.72927 20.9794 3.93927 20.6194L14.5293 2.61942C14.7393 2.25942 15.1993 2.13943 15.5593 2.34943C15.9193 2.55943 16.0393 3.01943 15.8293 3.37943L5.23925 21.3794C5.08925 21.6194 4.83929 21.7494 4.58929 21.7494Z" fill="black"/>
<path d="M22 16.4609H1.5C1.09 16.4609 0.75 16.1209 0.75 15.7109C0.75 15.3009 1.09 14.9609 1.5 14.9609H22C22.41 14.9609 22.75 15.3009 22.75 15.7109C22.75 16.1209 22.41 16.4609 22 16.4609Z" fill="black"/>
</svg>
