<svg width="24" height="24" viewBox="0 0 24 24" fill="none" xmlns="http://www.w3.org/2000/svg">
<path d="M15.6702 17.8894H7.97017C7.73017 17.8894 7.51016 17.7794 7.37016 17.5894C7.23016 17.3994 7.18016 17.1594 7.25016 16.9294L10.3302 6.14938C10.4202 5.82938 10.7202 5.60938 11.0502 5.60938H14.0902C14.3202 5.60938 14.5402 5.71938 14.6902 5.89938C14.8302 6.08938 14.8802 6.32938 14.8202 6.54938L12.9502 13.5494H16.2002C16.4202 13.5494 16.6302 13.6494 16.7802 13.8194C16.9202 13.9894 16.9802 14.2194 16.9402 14.4294L16.4302 17.2694C16.3402 17.6294 16.0302 17.8894 15.6702 17.8894ZM8.96016 16.3894H15.0402L15.2802 15.0494H11.9602C11.7302 15.0494 11.5101 14.9394 11.3601 14.7594C11.2201 14.5694 11.1702 14.3294 11.2302 14.1094L13.1002 7.10938H11.6002L8.96016 16.3894Z" fill="black"/>
<path d="M7.32063 13.2688C6.97063 13.2688 6.66062 13.0188 6.59062 12.6688C6.51062 12.2588 6.77061 11.8688 7.18061 11.7888L14.8806 10.2488C15.2806 10.1688 15.6806 10.4288 15.7606 10.8388C15.8406 11.2488 15.5806 11.6388 15.1706 11.7188L7.47062 13.2588C7.42062 13.2688 7.37063 13.2688 7.32063 13.2688Z" fill="black"/>
<path d="M12 22.75C6.07 22.75 1.25 17.93 1.25 12C1.25 6.07 6.07 1.25 12 1.25C17.93 1.25 22.75 6.07 22.75 12C22.75 17.93 17.93 22.75 12 22.75ZM12 2.75C6.9 2.75 2.75 6.9 2.75 12C2.75 17.1 6.9 21.25 12 21.25C17.1 21.25 21.25 17.1 21.25 12C21.25 6.9 17.1 2.75 12 2.75Z" fill="black"/>
</svg>
