<svg width="24" height="24" viewBox="0 0 24 24" fill="none" xmlns="http://www.w3.org/2000/svg">
<path d="M12.0003 22.7484C7.3003 22.7484 3.1803 19.7384 1.7603 15.2684C1.6903 15.0384 1.7303 14.7984 1.8703 14.5984C2.0103 14.4084 2.2303 14.2884 2.4703 14.2884L6.2603 14.2584V8.99843C6.2603 8.67843 6.4603 8.39843 6.7503 8.28843C7.0503 8.17843 7.3803 8.26843 7.5803 8.51843L12.0003 13.8284L16.4203 8.51843C16.6203 8.27843 16.9603 8.18843 17.2503 8.28843C17.5503 8.39843 17.7403 8.67843 17.7403 8.99843V14.2484H21.5303C21.7703 14.2484 21.9903 14.3584 22.1303 14.5584C22.2703 14.7484 22.3103 14.9984 22.2403 15.2284C20.8403 19.7284 16.7103 22.7484 12.0003 22.7484ZM3.5503 15.7784C5.0303 19.0884 8.3003 21.2484 12.0003 21.2484C15.7103 21.2484 18.9903 19.0784 20.4603 15.7484H17.0003C16.5903 15.7484 16.2503 15.4084 16.2503 14.9984V11.0684L12.5803 15.4784C12.2903 15.8184 11.7103 15.8184 11.4303 15.4784L7.7603 11.0684V14.9984C7.7603 15.4084 7.4303 15.7484 7.0203 15.7484L3.5503 15.7784Z" fill="black"/>
<path d="M2.47 15.79C2.14 15.79 1.85 15.58 1.75 15.26C1.42 14.19 1.25 13.09 1.25 12C1.25 6.07 6.07 1.25 12 1.25C17.93 1.25 22.75 6.07 22.75 12C22.75 13.1 22.58 14.19 22.26 15.23C22.16 15.54 21.87 15.75 21.54 15.75H17C16.59 15.75 16.25 15.41 16.25 15V11.07L12.58 15.48C12.29 15.82 11.71 15.82 11.43 15.48L7.76 11.07V15C7.76 15.41 7.43 15.75 7.02 15.75L2.47 15.79ZM12 2.75C6.9 2.75 2.75 6.9 2.75 12C2.75 12.76 2.85 13.53 3.04 14.29L6.25 14.26V9C6.25 8.68 6.45 8.4 6.74 8.29C7.04 8.18 7.37 8.27 7.57 8.52L12 13.83L16.42 8.52C16.62 8.28 16.96 8.19 17.25 8.29C17.55 8.4 17.74 8.68 17.74 9V14.25H20.96C21.14 13.52 21.24 12.76 21.24 12C21.25 6.9 17.1 2.75 12 2.75Z" fill="black"/>
</svg>
