<svg width="24" height="24" viewBox="0 0 24 24" fill="none" xmlns="http://www.w3.org/2000/svg">
<path opacity="0.4" d="M21.9883 10.8383C21.9683 10.3583 21.8883 9.88828 21.7383 9.43828C21.0483 7.27828 19.0283 5.71828 16.6483 5.71828H13.8583C13.2783 5.71828 13.2383 5.65828 12.9283 5.24828L11.5283 3.38828C10.8783 2.51828 10.3683 1.98828 8.73828 1.98828H6.40826C3.96826 1.98828 1.98828 3.96828 1.98828 6.40828V9.42827V16.6383C1.98828 19.5883 4.38832 21.9883 7.33832 21.9883H16.6383C19.5883 21.9883 21.9883 19.5883 21.9883 16.6383V11.0583C21.9983 10.9983 21.9983 10.9083 21.9883 10.8383Z" fill="#292D32"/>
<path d="M15.5786 19.6986C13.4686 19.8486 13.4686 22.9086 15.5786 23.0586H20.5886C21.1986 23.0586 21.7786 22.8386 22.2286 22.4286C23.7086 21.1386 22.9185 18.5386 20.9685 18.2986C20.2685 14.0786 14.1586 15.6786 15.6086 19.6986" fill="#292D32"/>
</svg>
