<svg width="24" height="24" viewBox="0 0 24 24" fill="none" xmlns="http://www.w3.org/2000/svg">
<path d="M21.49 12C21.81 10.98 22 9.88 22 8.69C22 5.6 19.51 3.09998 16.44 3.09998C14.62 3.09998 13.01 3.98003 12 5.34003C10.99 3.98003 9.37 3.09998 7.56 3.09998C4.49 3.09998 2 5.6 2 8.69C2 15.69 8.48 19.82 11.38 20.82C11.55 20.88 11.77 20.91 12 20.91" stroke="#292D32" stroke-width="1.5" stroke-linecap="round" stroke-linejoin="round"/>
<path d="M19.21 15.74L15.67 19.2801C15.53 19.4201 15.4 19.68 15.37 19.87L15.18 21.22C15.11 21.71 15.45 22.05 15.94 21.98L17.29 21.79C17.48 21.76 17.75 21.63 17.88 21.49L21.42 17.95C22.03 17.34 22.32 16.63 21.42 15.73C20.53 14.84 19.82 15.13 19.21 15.74Z" stroke="#292D32" stroke-width="1.5" stroke-miterlimit="10" stroke-linecap="round" stroke-linejoin="round"/>
<path d="M18.7001 16.25C19.0001 17.33 19.8401 18.17 20.9201 18.47" stroke="#292D32" stroke-width="1.5" stroke-miterlimit="10" stroke-linecap="round" stroke-linejoin="round"/>
</svg>
