<svg width="24" height="24" viewBox="0 0 24 24" fill="none" xmlns="http://www.w3.org/2000/svg">
<path d="M12 22.75C6.07 22.75 1.25 17.93 1.25 12C1.25 6.07 6.07 1.25 12 1.25C17.93 1.25 22.75 6.07 22.75 12C22.75 17.93 17.93 22.75 12 22.75ZM12 2.75C6.9 2.75 2.75 6.9 2.75 12C2.75 17.1 6.9 21.25 12 21.25C17.1 21.25 21.25 17.1 21.25 12C21.25 6.9 17.1 2.75 12 2.75Z" fill="#292D32"/>
<path d="M12.0002 15.0119C11.8102 15.0119 11.6202 14.9419 11.4702 14.7919L7.94016 11.2619C7.65016 10.9719 7.65016 10.4919 7.94016 10.2019C8.23016 9.91188 8.71016 9.91188 9.00016 10.2019L12.0002 13.2019L15.0002 10.2019C15.2902 9.91188 15.7702 9.91188 16.0602 10.2019C16.3502 10.4919 16.3502 10.9719 16.0602 11.2619L12.5302 14.7919C12.3802 14.9419 12.1902 15.0119 12.0002 15.0119Z" fill="#292D32"/>
</svg>
