<svg width="24" height="24" viewBox="0 0 24 24" fill="none" xmlns="http://www.w3.org/2000/svg">
<path d="M15 22.75H9C3.57 22.75 1.25 20.43 1.25 15V9C1.25 3.57 3.57 1.25 9 1.25H15C20.43 1.25 22.75 3.57 22.75 9V15C22.75 20.43 20.43 22.75 15 22.75ZM9 2.75C4.39 2.75 2.75 4.39 2.75 9V15C2.75 19.61 4.39 21.25 9 21.25H15C19.61 21.25 21.25 19.61 21.25 15V9C21.25 4.39 19.61 2.75 15 2.75H9Z" fill="#292D32"/>
<path d="M13.9184 16.1287H8.99844C8.58844 16.1287 8.24844 15.7887 8.24844 15.3787C8.24844 14.9687 8.58844 14.6287 8.99844 14.6287H13.9184C15.1984 14.6287 16.2484 13.5888 16.2484 12.2988C16.2484 11.0088 15.2084 9.96875 13.9184 9.96875H7.14844C6.73844 9.96875 6.39844 9.62875 6.39844 9.21875C6.39844 8.80875 6.73844 8.46875 7.14844 8.46875H13.9184C16.0284 8.46875 17.7484 10.1888 17.7484 12.2988C17.7484 14.4088 16.0284 16.1287 13.9184 16.1287Z" fill="#292D32"/>
<path d="M8.5714 11.5203C8.3814 11.5203 8.19141 11.4503 8.04141 11.3003L6.47141 9.73032C6.18141 9.44032 6.18141 8.96031 6.47141 8.67031L8.04141 7.10031C8.33141 6.81031 8.8114 6.81031 9.1014 7.10031C9.3914 7.39031 9.3914 7.87032 9.1014 8.16032L8.0614 9.20031L9.1014 10.2403C9.3914 10.5303 9.3914 11.0103 9.1014 11.3003C8.9614 11.4403 8.7714 11.5203 8.5714 11.5203Z" fill="#292D32"/>
</svg>
