<svg width="24" height="24" viewBox="0 0 24 24" fill="none" xmlns="http://www.w3.org/2000/svg">
<path d="M13.7983 10.9514C13.6083 10.9514 13.4183 10.8814 13.2683 10.7314C12.9783 10.4414 12.9783 9.96141 13.2683 9.67141L21.4683 1.47141C21.7583 1.18141 22.2383 1.18141 22.5283 1.47141C22.8183 1.76141 22.8183 2.24141 22.5283 2.53141L14.3283 10.7314C14.1883 10.8714 13.9983 10.9514 13.7983 10.9514Z" fill="#292D32"/>
<path d="M17.83 11.7519H13C12.59 11.7519 12.25 11.4119 12.25 11.0019V6.17188C12.25 5.76188 12.59 5.42188 13 5.42188C13.41 5.42188 13.75 5.76188 13.75 6.17188V10.2519H17.83C18.24 10.2519 18.58 10.5919 18.58 11.0019C18.58 11.4119 18.24 11.7519 17.83 11.7519Z" fill="#292D32"/>
<path d="M15 22.75H9C3.57 22.75 1.25 20.43 1.25 15V9C1.25 3.57 3.57 1.25 9 1.25H11C11.41 1.25 11.75 1.59 11.75 2C11.75 2.41 11.41 2.75 11 2.75H9C4.39 2.75 2.75 4.39 2.75 9V15C2.75 19.61 4.39 21.25 9 21.25H15C19.61 21.25 21.25 19.61 21.25 15V13C21.25 12.59 21.59 12.25 22 12.25C22.41 12.25 22.75 12.59 22.75 13V15C22.75 20.43 20.43 22.75 15 22.75Z" fill="#292D32"/>
</svg>
