<svg width="24" height="24" viewBox="0 0 24 24" fill="none" xmlns="http://www.w3.org/2000/svg">
<path d="M15 22.75H9C3.57 22.75 1.25 20.43 1.25 15V9C1.25 3.57 3.57 1.25 9 1.25H15C20.43 1.25 22.75 3.57 22.75 9V15C22.75 20.43 20.43 22.75 15 22.75ZM9 2.75C4.39 2.75 2.75 4.39 2.75 9V15C2.75 19.61 4.39 21.25 9 21.25H15C19.61 21.25 21.25 19.61 21.25 15V9C21.25 4.39 19.61 2.75 15 2.75H9Z" fill="#292D32"/>
<path d="M14.8298 14.0916H10.5898C10.1798 14.0916 9.83984 13.7516 9.83984 13.3416C9.83984 12.9316 10.1798 12.5916 10.5898 12.5916H14.0798V9.10156C14.0798 8.69156 14.4198 8.35156 14.8298 8.35156C15.2398 8.35156 15.5798 8.69156 15.5798 9.10156V13.3416C15.5798 13.7616 15.2398 14.0916 14.8298 14.0916Z" fill="#292D32"/>
<path d="M14.8294 14.0911C14.6394 14.0911 14.4494 14.0211 14.2994 13.8711L8.63938 8.21111C8.34938 7.92111 8.34938 7.44109 8.63938 7.15109C8.92937 6.86109 9.40937 6.86109 9.69937 7.15109L15.3594 12.8111C15.6494 13.1011 15.6494 13.5811 15.3594 13.8711C15.2094 14.0211 15.0194 14.0911 14.8294 14.0911Z" fill="#292D32"/>
<path d="M11.9985 18.2302C9.88849 18.2302 7.76848 17.8902 5.75848 17.2202C5.36848 17.0902 5.15848 16.6602 5.28848 16.2702C5.41848 15.8802 5.84849 15.6602 6.23849 15.8002C9.95849 17.0402 14.0485 17.0402 17.7685 15.8002C18.1585 15.6702 18.5885 15.8802 18.7185 16.2702C18.8485 16.6602 18.6385 17.0902 18.2485 17.2202C16.2285 17.9002 14.1085 18.2302 11.9985 18.2302Z" fill="#292D32"/>
</svg>
