<svg width="24" height="24" viewBox="0 0 24 24" fill="none" xmlns="http://www.w3.org/2000/svg">
<path opacity="0.4" d="M21.6509 10.0307C21.2609 9.47071 20.5709 9.15071 19.7809 9.15071H15.6809C15.4109 9.15071 15.1609 9.04071 14.9909 8.84071C14.8109 8.64071 14.7409 8.36071 14.7809 8.07071L15.2909 4.79071C15.5109 3.81071 14.8609 2.71071 13.8809 2.38071C12.9709 2.04071 11.9009 2.50071 11.4709 3.15071L7.25086 9.42071L7.13086 9.62071V18.4607L7.28086 18.6107L10.4509 21.0607C10.8709 21.4807 11.8209 21.7107 12.4909 21.7107H16.3909C17.7309 21.7107 19.0809 20.7007 19.3809 19.4707L21.8409 11.9807C22.1009 11.2707 22.0309 10.5807 21.6509 10.0307Z" fill="#292D32"/>
<path d="M5.21 6.37891H4.18C2.63 6.37891 2 6.97891 2 8.45891V18.5189C2 19.9989 2.63 20.5989 4.18 20.5989H5.21C6.76 20.5989 7.39 19.9989 7.39 18.5189V8.45891C7.39 6.97891 6.76 6.37891 5.21 6.37891Z" fill="#292D32"/>
</svg>
