<svg width="24" height="24" viewBox="0 0 24 24" fill="none" xmlns="http://www.w3.org/2000/svg">
<path d="M3 12.97V15C3 20 5 22 10 22H14C19 22 21 20 21 15V9C21 4 19 2 14 2H10C5 2 3 4 3 9" stroke="#292D32" stroke-width="1.5" stroke-linecap="round" stroke-linejoin="round"/>
<path d="M16.5 7.57812V8.57812C16.5 9.39812 15.83 10.0781 15 10.0781H9C8.18 10.0781 7.5 9.40812 7.5 8.57812V7.57812C7.5 6.75813 8.17 6.07812 9 6.07812H15C15.83 6.07812 16.5 6.74813 16.5 7.57812Z" stroke="#292D32" stroke-width="1.5" stroke-linecap="round" stroke-linejoin="round"/>
<path d="M8.13612 14H8.14767" stroke="#292D32" stroke-width="2" stroke-linecap="round" stroke-linejoin="round"/>
<path d="M11.9955 14H12.007" stroke="#292D32" stroke-width="2" stroke-linecap="round" stroke-linejoin="round"/>
<path d="M15.8549 14H15.8664" stroke="#292D32" stroke-width="2" stroke-linecap="round" stroke-linejoin="round"/>
<path d="M8.13612 17.5H8.14767" stroke="#292D32" stroke-width="2" stroke-linecap="round" stroke-linejoin="round"/>
<path d="M11.9955 17.5H12.007" stroke="#292D32" stroke-width="2" stroke-linecap="round" stroke-linejoin="round"/>
<path d="M15.8549 17.5H15.8664" stroke="#292D32" stroke-width="2" stroke-linecap="round" stroke-linejoin="round"/>
</svg>
