<svg width="24" height="24" viewBox="0 0 24 24" fill="none" xmlns="http://www.w3.org/2000/svg">
<path d="M18.0217 18.9597C19.7417 17.7997 19.7417 17.7997 19.7417 15.9797V11.0097C19.7417 9.18969 19.7417 9.18969 18.0217 8.02969L13.2917 5.29969C12.5817 4.88969 11.4217 4.88969 10.7117 5.29969L5.98172 8.03969C4.26172 9.19969 4.26172 9.19969 4.26172 11.0197V15.9897C4.26172 17.8097 4.26172 17.8097 5.98172 18.9697L10.7117 21.6997C11.4217 22.1097 12.5817 22.1097 13.2917 21.6997L14.8117 20.8197" stroke="#292D32" stroke-width="1.5" stroke-linecap="round" stroke-linejoin="round"/>
<path d="M17.5 7.63V5C17.5 3 16.5 2 14.5 2H9.5C7.5 2 6.5 3 6.5 5V7.56" stroke="#292D32" stroke-width="1.5" stroke-linecap="round" stroke-linejoin="round"/>
<path d="M12.2795 16.4219C12.1295 16.3619 11.8795 16.3619 11.7295 16.4219L10.7495 16.8119C10.1495 17.0519 9.68955 16.7119 9.72955 16.0719L9.78955 15.0219C9.79955 14.8619 9.71955 14.6219 9.61955 14.5019L8.94955 13.6919C8.53955 13.1919 8.70955 12.6519 9.33955 12.4919L10.3595 12.2319C10.5195 12.1919 10.7195 12.0419 10.7995 11.9119L11.3695 11.0219C11.7195 10.4719 12.2895 10.4719 12.6395 11.0219L13.2095 11.9119C13.2995 12.0519 13.4995 12.1919 13.6495 12.2319L14.6695 12.4919C15.2995 12.6519 15.4695 13.1919 15.0595 13.6919L14.3895 14.5019C14.2895 14.6319 14.2095 14.8619 14.2195 15.0219" stroke="#292D32" stroke-width="1.5" stroke-linecap="round" stroke-linejoin="round"/>
</svg>
