<svg width="24" height="24" viewBox="0 0 24 24" fill="none" xmlns="http://www.w3.org/2000/svg">
<path d="M12 21.6516C11.78 21.6516 11.45 21.6316 11.14 21.5216C7.32 20.2116 1.25 15.5716 1.25 8.69159C1.25 5.19159 4.08 2.35156 7.56 2.35156C9.25 2.35156 10.83 3.01159 12 4.19159C13.17 3.01159 14.75 2.35156 16.44 2.35156C19.92 2.35156 22.75 5.19159 22.75 8.69159C22.75 9.90159 22.57 11.0916 22.21 12.2316C22.09 12.6216 21.66 12.8516 21.27 12.7216C20.87 12.6016 20.66 12.1716 20.78 11.7816C21.09 10.7916 21.25 9.7516 21.25 8.7016C21.25 6.0316 19.09 3.86157 16.44 3.86157C14.92 3.86157 13.51 4.57156 12.6 5.79156C12.32 6.17156 11.68 6.17156 11.4 5.79156C10.48 4.56156 9.08 3.86157 7.56 3.86157C4.91 3.86157 2.75 6.0316 2.75 8.7016C2.75 15.5416 9.32 19.3316 11.63 20.1216C11.69 20.1416 11.83 20.1716 12 20.1716C12.41 20.1716 12.75 20.5116 12.75 20.9216C12.75 21.3316 12.41 21.6516 12 21.6516Z" fill="#292D32"/>
<path d="M15.8196 22.7503C15.4396 22.7503 15.0796 22.6103 14.8196 22.3503C14.5096 22.0403 14.3696 21.5903 14.4396 21.1203L14.6296 19.7703C14.6796 19.4203 14.8896 19.0003 15.1396 18.7503L18.6796 15.2103C19.1596 14.7303 19.6296 14.4803 20.1396 14.4303C20.7696 14.3703 21.3796 14.6303 21.9596 15.2103C22.5396 15.7903 22.7996 16.4003 22.7396 17.0303C22.6896 17.5303 22.4296 18.0103 21.9596 18.4903L18.4196 22.0303C18.1696 22.2803 17.7596 22.4903 17.4096 22.5403L16.0596 22.7303C15.9696 22.7403 15.8996 22.7503 15.8196 22.7503ZM20.3096 15.9203C20.2996 15.9203 20.2896 15.9203 20.2796 15.9203C20.1396 15.9303 19.9496 16.0503 19.7396 16.2703L16.1996 19.8103C16.1696 19.8403 16.1196 19.9403 16.1196 19.9803L15.9396 21.2303L17.1896 21.0503C17.2296 21.0403 17.3296 20.9903 17.3596 20.9603L20.8996 17.4203C21.1096 17.2103 21.2396 17.0203 21.2496 16.8803C21.2696 16.6803 21.0696 16.4403 20.8996 16.2703C20.7396 16.1103 20.5096 15.9203 20.3096 15.9203Z" fill="#292D32"/>
<path d="M20.9206 19.2213C20.8506 19.2213 20.7806 19.2113 20.7206 19.1913C19.4006 18.8213 18.3506 17.7714 17.9806 16.4514C17.8706 16.0514 18.1006 15.6414 18.5006 15.5314C18.9006 15.4214 19.3106 15.6513 19.4306 16.0513C19.6606 16.8713 20.3106 17.5213 21.1306 17.7513C21.5306 17.8613 21.7606 18.2813 21.6506 18.6713C21.5506 19.0013 21.2506 19.2213 20.9206 19.2213Z" fill="#292D32"/>
</svg>
