<svg width="24" height="24" viewBox="0 0 24 24" fill="none" xmlns="http://www.w3.org/2000/svg">
<path d="M5.28012 19.3981C5.22012 19.3981 5.17012 19.3881 5.11012 19.3781C4.71012 19.2881 4.45012 18.8781 4.55012 18.4781L5.12012 16.0181C5.20012 15.6981 5.04012 15.1481 4.80012 14.9081L2.32012 12.4281C1.08012 11.1881 1.18012 10.1281 1.35012 9.60812C1.52012 9.08812 2.06012 8.16813 3.78012 7.87813L6.97012 7.34812C7.27012 7.28812 7.70012 6.96812 7.83012 6.69812L9.60012 3.16813C10.4001 1.55813 11.4501 1.32812 12.0001 1.32812C12.5501 1.32812 13.6001 1.56813 14.4001 3.16813L16.1601 6.68813C16.2201 6.80813 16.3501 6.94813 16.5001 7.06813C16.8301 7.31813 16.8901 7.79812 16.6301 8.11812C16.3801 8.44812 15.9101 8.50813 15.5801 8.24813C15.3401 8.06813 15.0201 7.75813 14.8201 7.35813L13.0601 3.83812C12.7501 3.20812 12.3501 2.82812 12.0001 2.82812C11.6501 2.82812 11.2501 3.20812 10.9401 3.84812L9.17012 7.36812C8.82012 8.06812 7.98012 8.68812 7.21012 8.81812L4.03012 9.34813C3.35012 9.45813 2.89012 9.72813 2.78012 10.0581C2.67012 10.3881 2.90012 10.8781 3.39012 11.3581L5.87012 13.8381C6.47012 14.4381 6.78012 15.5181 6.59012 16.3481L6.02012 18.8081C5.93012 19.1581 5.63012 19.3981 5.28012 19.3981Z" fill="#292D32"/>
<path d="M17.6593 22.6716C17.1293 22.6716 16.4493 22.5016 15.5993 22.0016L12.6093 20.2316C12.2993 20.0516 11.6993 20.0516 11.3993 20.2316L8.39933 22.0016C8.04933 22.2116 7.57933 22.0916 7.36933 21.7416C7.15933 21.3816 7.27933 20.9216 7.62933 20.7116L10.6193 18.9416C11.3993 18.4816 12.5793 18.4816 13.3593 18.9416L16.3493 20.7116C17.2193 21.2316 17.7693 21.2316 17.9793 21.0816C18.1893 20.9316 18.3393 20.4016 18.1193 19.4216L17.4093 16.3516C17.2193 15.5216 17.5293 14.4516 18.1293 13.8416L20.6093 11.3616C21.0993 10.8716 21.3193 10.3916 21.2193 10.0616C21.1093 9.73161 20.6493 9.46161 19.9693 9.35161C19.5593 9.28161 19.2893 8.90161 19.3493 8.49161C19.4193 8.08161 19.7993 7.81161 20.2093 7.87161C21.9393 8.16161 22.4793 9.08161 22.6393 9.60161C22.7993 10.1216 22.8993 11.1816 21.6693 12.4216L19.1993 14.9016C18.9593 15.1416 18.8093 15.6816 18.8793 16.0116L19.5893 19.0816C20.0493 21.0816 19.3393 21.9516 18.8793 22.2916C18.6293 22.4716 18.2293 22.6716 17.6593 22.6716Z" fill="#292D32"/>
<path d="M1.99945 22.7514C1.80945 22.7514 1.61945 22.6814 1.46945 22.5314C1.17945 22.2414 1.17945 21.7614 1.46945 21.4714L21.4695 1.47141C21.7595 1.18141 22.2395 1.18141 22.5295 1.47141C22.8195 1.76141 22.8195 2.24141 22.5295 2.53141L2.52945 22.5314C2.37945 22.6814 2.18945 22.7514 1.99945 22.7514Z" fill="#292D32"/>
</svg>
