<svg width="24" height="24" viewBox="0 0 24 24" fill="none" xmlns="http://www.w3.org/2000/svg">
<path d="M12 16.75C11.6 16.75 11.2 16.72 10.82 16.65C8.7 16.34 6.77 15.12 5.55 13.31C4.7 12.03 4.25 10.54 4.25 9C4.25 4.73 7.73 1.25 12 1.25C16.27 1.25 19.75 4.73 19.75 9C19.75 10.54 19.3 12.03 18.45 13.31C17.22 15.13 15.29 16.34 13.15 16.66C12.8 16.72 12.4 16.75 12 16.75ZM12 2.75C8.55 2.75 5.75 5.55 5.75 9C5.75 10.25 6.11 11.45 6.79 12.47C7.78 13.93 9.33 14.91 11.05 15.16C11.69 15.27 12.32 15.27 12.91 15.16C14.66 14.91 16.21 13.92 17.2 12.46C17.88 11.44 18.24 10.24 18.24 8.98999C18.25 5.54999 15.45 2.75 12 2.75Z" fill="#292D32"/>
<path d="M6.46933 22.588C6.32933 22.588 6.19933 22.568 6.05933 22.538C5.40933 22.388 4.90933 21.888 4.75933 21.238L4.40933 19.768C4.38933 19.678 4.31933 19.608 4.21933 19.578L2.56933 19.188C1.94933 19.038 1.45933 18.578 1.28933 17.968C1.11933 17.358 1.28933 16.698 1.73933 16.248L5.63933 12.348C5.79933 12.188 6.01933 12.108 6.23933 12.128C6.45933 12.148 6.65933 12.268 6.78933 12.458C7.77933 13.918 9.32933 14.908 11.0593 15.158C11.6993 15.268 12.3293 15.268 12.9193 15.158C14.6693 14.908 16.2193 13.918 17.2093 12.458C17.3293 12.268 17.5393 12.148 17.7593 12.128C17.9793 12.108 18.1993 12.188 18.3593 12.348L22.2593 16.248C22.7093 16.698 22.8793 17.358 22.7093 17.968C22.5393 18.578 22.0393 19.048 21.4293 19.188L19.7793 19.578C19.6893 19.598 19.6193 19.668 19.5893 19.768L19.2393 21.238C19.0893 21.888 18.5893 22.388 17.9393 22.538C17.2893 22.698 16.6193 22.468 16.1993 21.958L11.9993 17.128L7.79933 21.968C7.45933 22.368 6.97933 22.588 6.46933 22.588ZM6.08933 14.028L2.79933 17.318C2.70933 17.408 2.71933 17.508 2.73933 17.568C2.74933 17.618 2.79933 17.718 2.91933 17.738L4.56933 18.128C5.21933 18.278 5.71933 18.778 5.86933 19.428L6.21933 20.898C6.24933 21.028 6.34933 21.068 6.40933 21.088C6.46933 21.098 6.56933 21.108 6.65933 21.008L10.4893 16.598C8.78933 16.268 7.22933 15.358 6.08933 14.028ZM13.5093 16.588L17.3393 20.988C17.4293 21.098 17.5393 21.098 17.5993 21.078C17.6593 21.068 17.7493 21.018 17.7893 20.888L18.1393 19.418C18.2893 18.768 18.7893 18.268 19.4393 18.118L21.0893 17.728C21.2093 17.698 21.2593 17.608 21.2693 17.558C21.2893 17.508 21.2993 17.398 21.2093 17.308L17.9193 14.018C16.7693 15.348 15.2193 16.258 13.5093 16.588Z" fill="#292D32"/>
<path d="M13.8911 12.8883C13.6311 12.8883 13.3211 12.8183 12.9511 12.5983L12.0011 12.0283L11.0511 12.5883C10.1811 13.1083 9.61112 12.8083 9.40112 12.6583C9.19112 12.5083 8.74112 12.0583 8.97112 11.0683L9.21112 10.0383L8.41112 9.29828C7.97112 8.85828 7.81112 8.3283 7.96112 7.8483C8.11112 7.3683 8.55112 7.02828 9.17112 6.92828L10.2411 6.74829L10.7511 5.6283C11.0411 5.0583 11.4911 4.73828 12.0011 4.73828C12.5111 4.73828 12.9711 5.06831 13.2511 5.63831L13.8411 6.8183L14.8311 6.93829C15.4411 7.03829 15.8811 7.37828 16.0411 7.85828C16.1911 8.33828 16.0311 8.86829 15.5911 9.30829L14.7611 10.1383L15.0211 11.0683C15.2511 12.0583 14.8011 12.5083 14.5911 12.6583C14.4811 12.7483 14.2411 12.8883 13.8911 12.8883ZM9.61112 8.38831L10.3011 9.07828C10.6211 9.39828 10.7811 9.9383 10.6811 10.3783L10.4911 11.1783L11.2911 10.7083C11.7211 10.4583 12.3011 10.4583 12.7211 10.7083L13.5211 11.1783L13.3411 10.3783C13.2411 9.9283 13.3911 9.39828 13.7111 9.07828L14.4011 8.38831L13.5311 8.23828C13.1111 8.16828 12.6911 7.8583 12.5011 7.4783L12.0011 6.49829L11.5011 7.49829C11.3211 7.86829 10.9011 8.1883 10.4811 8.2583L9.61112 8.38831Z" fill="#292D32"/>
</svg>
