<svg width="24" height="24" viewBox="0 0 24 24" fill="none" xmlns="http://www.w3.org/2000/svg">
<path d="M8 22.3214C7.72 22.3214 7.42998 22.2514 7.16998 22.1114C6.59998 21.8114 6.25 21.2114 6.25 20.5714V19.1514C3.23 18.8414 1.25 16.6213 1.25 13.4413V7.44141C1.25 4.00141 3.56 1.69141 7 1.69141H17C20.44 1.69141 22.75 4.00141 22.75 7.44141V13.4413C22.75 16.8813 20.44 19.1913 17 19.1913H13.23L8.96997 22.0314C8.67997 22.2214 8.34 22.3214 8 22.3214ZM7 3.1814C4.42 3.1814 2.75 4.8514 2.75 7.4314V13.4315C2.75 16.0115 4.42 17.6815 7 17.6815C7.41 17.6815 7.75 18.0215 7.75 18.4315V20.5615C7.75 20.6915 7.83 20.7514 7.88 20.7814C7.93 20.8114 8.03001 20.8414 8.14001 20.7714L12.59 17.8115C12.71 17.7315 12.86 17.6815 13.01 17.6815H17.01C19.59 17.6815 21.26 16.0115 21.26 13.4315V7.4314C21.26 4.8514 19.59 3.1814 17.01 3.1814H7V3.1814Z" fill="#292D32"/>
<path d="M11.9998 12.1094C11.5898 12.1094 11.2498 11.7694 11.2498 11.3594V11.1494C11.2498 9.98941 12.0998 9.4194 12.4198 9.1994C12.7898 8.9494 12.9098 8.77941 12.9098 8.51941C12.9098 8.01941 12.4998 7.60938 11.9998 7.60938C11.4998 7.60938 11.0898 8.01941 11.0898 8.51941C11.0898 8.92941 10.7498 9.26941 10.3398 9.26941C9.92984 9.26941 9.58984 8.92941 9.58984 8.51941C9.58984 7.18941 10.6698 6.10938 11.9998 6.10938C13.3298 6.10938 14.4098 7.18941 14.4098 8.51941C14.4098 9.65941 13.5698 10.2294 13.2598 10.4394C12.8698 10.6994 12.7498 10.8694 12.7498 11.1494V11.3594C12.7498 11.7794 12.4098 12.1094 11.9998 12.1094Z" fill="#292D32"/>
<path d="M12 14.6016C11.58 14.6016 11.25 14.2616 11.25 13.8516C11.25 13.4416 11.59 13.1016 12 13.1016C12.41 13.1016 12.75 13.4416 12.75 13.8516C12.75 14.2616 12.42 14.6016 12 14.6016Z" fill="#292D32"/>
</svg>
