<svg width="24" height="24" viewBox="0 0 24 24" fill="none" xmlns="http://www.w3.org/2000/svg">
<path d="M9.48117 20.6886C8.98117 20.6886 8.63118 20.5186 8.42118 20.3586C8.02118 20.0686 7.40117 19.3186 7.79117 17.6386L8.36115 15.1786C8.41115 14.9686 8.30116 14.5886 8.15116 14.4286L6.16117 12.4386C5.11117 11.3886 5.20116 10.4786 5.34116 10.0286C5.48116 9.57859 5.94116 8.78859 7.40116 8.53859L9.95117 8.11859C10.1412 8.08859 10.4512 7.8586 10.5312 7.6886L11.9412 4.86859C12.6212 3.50859 13.5212 3.30859 14.0012 3.30859C14.4812 3.30859 15.3812 3.50859 16.0612 4.86859L17.4712 7.6886C17.5612 7.8586 17.8611 8.08859 18.0511 8.11859L20.6012 8.53859C22.0612 8.77859 22.5212 9.57859 22.6612 10.0286C22.8012 10.4786 22.8912 11.3886 21.8412 12.4386L19.8512 14.4286C19.7012 14.5786 19.5912 14.9686 19.6412 15.1786L20.2112 17.6386C20.6012 19.3286 19.9811 20.0686 19.5811 20.3586C19.1811 20.6486 18.2912 21.0186 16.7912 20.1286L14.4012 18.7086C14.2012 18.5886 13.7811 18.5886 13.5811 18.7086L11.1912 20.1286C10.5012 20.5486 9.92117 20.6886 9.48117 20.6886ZM14.0012 4.80859C13.8412 4.80859 13.5512 4.99859 13.2812 5.53859L11.8712 8.3586C11.5712 8.9686 10.8612 9.4886 10.1912 9.5986L7.64118 10.0186C7.07118 10.1186 6.81117 10.3286 6.76117 10.4886C6.71117 10.6486 6.80115 10.9686 7.21115 11.3786L9.20117 13.3686C9.71117 13.8786 9.98117 14.8086 9.82117 15.5086L9.25116 17.9686C9.08116 18.6786 9.19115 19.0586 9.30115 19.1486C9.41115 19.2286 9.81115 19.2186 10.4312 18.8386L12.8311 17.4186C13.5011 17.0186 14.5112 17.0186 15.1712 17.4186L17.5612 18.8386C18.1912 19.2086 18.5912 19.2286 18.7012 19.1486C18.8112 19.0686 18.9212 18.6886 18.7512 17.9686L18.1812 15.5086C18.0212 14.7986 18.2811 13.8786 18.8011 13.3686L20.7912 11.3786C21.2012 10.9686 21.2912 10.6386 21.2412 10.4886C21.1912 10.3386 20.9311 10.1186 20.3611 10.0186L17.8112 9.5986C17.1412 9.4886 16.4312 8.9686 16.1312 8.3586L14.7212 5.53859C14.4512 4.99859 14.1612 4.80859 14.0012 4.80859Z" fill="#292D32"/>
<path d="M8 5.75H2C1.59 5.75 1.25 5.41 1.25 5C1.25 4.59 1.59 4.25 2 4.25H8C8.41 4.25 8.75 4.59 8.75 5C8.75 5.41 8.41 5.75 8 5.75Z" fill="#292D32"/>
<path d="M5 19.75H2C1.59 19.75 1.25 19.41 1.25 19C1.25 18.59 1.59 18.25 2 18.25H5C5.41 18.25 5.75 18.59 5.75 19C5.75 19.41 5.41 19.75 5 19.75Z" fill="#292D32"/>
<path d="M3 12.75H2C1.59 12.75 1.25 12.41 1.25 12C1.25 11.59 1.59 11.25 2 11.25H3C3.41 11.25 3.75 11.59 3.75 12C3.75 12.41 3.41 12.75 3 12.75Z" fill="#292D32"/>
</svg>
