<svg width="24" height="24" viewBox="0 0 24 24" fill="none" xmlns="http://www.w3.org/2000/svg">
<path d="M2 12.99V15C2 20 4 22 9 22H15C20 22 22 20 22 15V9C22 4 20 2 15 2H9C4 2 2 4 2 9" stroke="#292D32" stroke-width="1.5" stroke-linecap="round" stroke-linejoin="round"/>
<path d="M11 8C11 9.1 10.1 10 9 10C7.9 10 7 9.1 7 8C7 6.9 7.9 6 9 6" stroke="#292D32" stroke-width="1.5" stroke-linecap="round" stroke-linejoin="round"/>
<path d="M2.67188 18.9486L7.60187 15.6386C8.39187 15.1086 9.53187 15.1686 10.2419 15.7786L10.5719 16.0686C11.3519 16.7386 12.6119 16.7386 13.3919 16.0686L17.5519 12.4986C18.3319 11.8286 19.5919 11.8286 20.3719 12.4986L22.0019 13.8986" stroke="#292D32" stroke-width="1.5" stroke-linecap="round" stroke-linejoin="round"/>
</svg>
