<svg width="24" height="24" viewBox="0 0 24 24" fill="none" xmlns="http://www.w3.org/2000/svg">
<path d="M2 13.0117V15.0017C2 20.0017 4 22.0017 9 22.0017H11" stroke="#292D32" stroke-width="1.5" stroke-linecap="round" stroke-linejoin="round"/>
<path d="M22 10V9C22 4 20 2 15 2H9C4 2 2 4 2 9" stroke="#292D32" stroke-width="1.5" stroke-linecap="round" stroke-linejoin="round"/>
<path d="M15.5117 22C16.6163 22 17.5117 21.1046 17.5117 20C17.5117 18.8954 16.6163 18 15.5117 18C14.4071 18 13.5117 18.8954 13.5117 20C13.5117 21.1046 14.4071 22 15.5117 22Z" stroke="#292D32" stroke-width="1.5" stroke-linecap="round" stroke-linejoin="round"/>
<path d="M17.5117 20.0017V13.0117" stroke="#292D32" stroke-width="1.5" stroke-linecap="round" stroke-linejoin="round"/>
<path d="M18.8217 12.0714L21.0317 12.8113C21.5617 12.9913 22.0017 13.5913 22.0017 14.1613V14.7513C22.0017 15.5113 21.4117 15.9414 20.6917 15.7014L18.4817 14.9614C17.9517 14.7814 17.5117 14.1813 17.5117 13.6113V13.0214C17.5117 12.2514 18.1017 11.8314 18.8217 12.0714Z" stroke="#292D32" stroke-width="1.5" stroke-linecap="round" stroke-linejoin="round"/>
</svg>
