<svg width="24" height="24" viewBox="0 0 24 24" fill="none" xmlns="http://www.w3.org/2000/svg">
<path d="M2 14C2 16 3 17 5 17H7" stroke="#292D32" stroke-width="1.5" stroke-linecap="round" stroke-linejoin="round"/>
<path d="M15 8.37174V7.41174C15 4.43174 12.93 3.29174 10.41 4.87174L7.49 6.70174C7.17 6.89174 6.8 7.00174 6.43 7.00174H5C3 7.00174 2 8.00174 2 10.0017" stroke="#292D32" stroke-width="1.5" stroke-linecap="round" stroke-linejoin="round"/>
<path d="M10.4102 19.1292C12.9302 20.7092 15.0002 19.5592 15.0002 16.5892V12.9492" stroke="#292D32" stroke-width="1.5" stroke-linecap="round" stroke-linejoin="round"/>
<path d="M18.81 9.42188C19.71 11.5719 19.44 14.0819 18 16.0019" stroke="#292D32" stroke-width="1.5" stroke-linecap="round" stroke-linejoin="round"/>
<path d="M20.7798 17C20.5098 17.52 20.1998 18.02 19.8398 18.5" stroke="#292D32" stroke-width="1.5" stroke-linecap="round" stroke-linejoin="round"/>
<path d="M21.1484 7.80078C21.9784 9.77078 22.1984 11.9308 21.8084 14.0008" stroke="#292D32" stroke-width="1.5" stroke-linecap="round" stroke-linejoin="round"/>
<path d="M22 2L2 22" stroke="#292D32" stroke-width="1.5" stroke-linecap="round" stroke-linejoin="round"/>
</svg>
