<svg width="24" height="24" viewBox="0 0 24 24" fill="none" xmlns="http://www.w3.org/2000/svg">
<path opacity="0.4" d="M16.1917 2H7.82172C4.18172 2 2.01172 4.17 2.01172 7.81V16.18C2.01172 19.82 4.18172 21.99 7.82172 21.99H16.1917C19.8317 21.99 22.0017 19.82 22.0017 16.18V7.81C22.0017 4.17 19.8317 2 16.1917 2Z" fill="#292D32"/>
<path d="M10.1103 11.1523H7.4603C6.8303 11.1523 6.32031 11.6623 6.32031 12.2923V17.4123H10.1103V11.1523Z" fill="#292D32"/>
<path opacity="0.4" d="M12.7616 6.60156H11.2415C10.6115 6.60156 10.1016 7.11158 10.1016 7.74158V17.4016H13.8916V7.74158C13.8916 7.11158 13.3916 6.60156 12.7616 6.60156Z" fill="#292D32"/>
<path d="M16.5484 12.8516H13.8984V17.4016H17.6884V13.9916C17.6784 13.3616 17.1684 12.8516 16.5484 12.8516Z" fill="#292D32"/>
</svg>
