<svg width="25" height="24" viewBox="0 0 25 24" fill="none" xmlns="http://www.w3.org/2000/svg">
<path opacity="0.4" d="M19.9455 12.6044H21.9116V11.2028C21.9116 9.18794 20.2667 7.54297 18.2518 7.54297H7.07777C5.06293 7.54297 3.41797 9.18794 3.41797 11.2028V15.4563C4.08958 14.921 4.9364 14.5998 5.85135 14.5998C8.00245 14.5998 9.74475 16.3421 9.74475 18.4932C9.74475 19.2232 9.54034 19.9143 9.1802 20.4983C8.9758 20.8487 8.713 21.1601 8.41126 21.4132H18.2518C20.2667 21.4132 21.9116 19.7682 21.9116 17.7534V16.5951H20.0623C19.011 16.5951 18.0474 15.8262 17.9598 14.775C17.9014 14.1617 18.135 13.5875 18.5438 13.1884C18.904 12.8185 19.4004 12.6044 19.9455 12.6044Z" fill="#292D32"/>
<path d="M15.4389 3.84625V7.54497H7.07777C5.06293 7.54497 3.41797 9.18994 3.41797 11.2048V7.6326C3.41797 6.47431 4.12851 5.44251 5.20893 5.03371L12.9373 2.11365C14.1443 1.66591 15.4389 2.55169 15.4389 3.84625Z" fill="#292D32"/>
<path d="M22.9417 13.5982V15.6034C22.9417 16.1387 22.5134 16.5767 21.9683 16.5962H20.0605C19.0093 16.5962 18.0457 15.8272 17.9581 14.776C17.8997 14.1628 18.1333 13.5885 18.5421 13.1895C18.9022 12.8196 19.3987 12.6055 19.9437 12.6055H21.9683C22.5134 12.6249 22.9417 13.0629 22.9417 13.5982Z" fill="#292D32"/>
<path d="M14.6099 12.4092H7.79642C7.39735 12.4092 7.06641 12.0783 7.06641 11.6792C7.06641 11.2802 7.39735 10.9492 7.79642 10.9492H14.6099C15.0089 10.9492 15.3399 11.2802 15.3399 11.6792C15.3399 12.0783 15.0089 12.4092 14.6099 12.4092Z" fill="#292D32"/>
<path d="M8.60461 15.7413C7.95765 15.0944 7.13173 14.7227 6.27828 14.6264C5.14265 14.4956 3.96572 14.8741 3.09851 15.7413C2.58231 16.2575 2.23818 16.8907 2.07988 17.5583C1.7564 18.8316 2.09365 20.2426 3.09851 21.2474C3.79366 21.9426 4.68151 22.3211 5.5969 22.3693C5.98921 22.4037 6.39529 22.3693 6.7876 22.2661C7.45522 22.1078 8.08842 21.7636 8.60461 21.2474C10.1257 19.7264 10.1257 17.2624 8.60461 15.7413ZM5.13575 17.0353C5.13575 16.6361 5.46612 16.3057 5.86531 16.3057C6.27138 16.3126 6.59487 16.6361 6.60175 17.0422L6.59489 17.7648L7.29005 17.7579C7.69612 17.7648 8.0196 18.0883 8.02649 18.4944C8.0196 18.9005 7.69612 19.2239 7.29004 19.2308L6.59489 19.2239L6.60176 19.9466C6.59488 20.3527 6.27139 20.6762 5.86531 20.6831C5.66572 20.6762 5.4868 20.5936 5.35603 20.4628C5.22526 20.332 5.14264 20.1531 5.13576 19.9535L5.13578 19.2239L4.3787 19.2239C4.17222 19.2239 3.99325 19.1414 3.86248 19.0106C3.73171 18.8798 3.64914 18.7008 3.64914 18.4944C3.64914 18.0952 3.9795 17.7648 4.3787 17.7648L5.13577 17.7648L5.13575 17.0353Z" fill="#292D32"/>
</svg>
