<svg width="24" height="24" viewBox="0 0 24 24" fill="none" xmlns="http://www.w3.org/2000/svg">
<path opacity="0.4" d="M6.7283 19.7017C7.5483 18.8217 8.79828 18.8917 9.51828 19.8517L10.5283 21.2017C11.3383 22.2717 12.6483 22.2717 13.4583 21.2017L14.4683 19.8517C15.1883 18.8917 16.4383 18.8217 17.2583 19.7017C19.0383 21.6017 20.4883 20.9717 20.4883 18.3117V7.0517C20.4883 3.0217 19.5483 2.01172 15.7683 2.01172H8.20828C4.42828 2.01172 3.48828 3.0217 3.48828 7.0517V18.3117C3.49828 20.9717 4.9583 21.5917 6.7283 19.7017Z" fill="#292D32"/>
<path d="M14.839 9.9892L14.339 10.4992H14.329L11.299 13.5292C11.169 13.6592 10.899 13.7992 10.709 13.8192L9.35896 14.0192C8.86896 14.0892 8.52898 13.7392 8.59898 13.2592L8.78898 11.8992C8.81898 11.7092 8.94896 11.4492 9.07896 11.3092L12.119 8.27921L12.619 7.7692C12.949 7.4392 13.319 7.19922 13.719 7.19922C14.059 7.19922 14.429 7.3592 14.839 7.7692C15.739 8.6692 15.449 9.3792 14.839 9.9892Z" fill="#292D32"/>
</svg>
