<svg width="24" height="24" viewBox="0 0 24 24" fill="none" xmlns="http://www.w3.org/2000/svg">
<path opacity="0.4" d="M19.8503 12.9397C19.8503 13.7397 20.5003 14.3997 21.3003 14.3997C21.6803 14.3997 22.0003 14.7097 22.0003 15.0897C22.0003 18.9297 20.8403 20.0897 17.0003 20.0897H11.7503V18.4997C11.7503 18.1097 11.4503 17.7897 11.0703 17.7597V14.9097C11.4503 14.8797 11.7503 14.5597 11.7503 14.1697V9.82969C11.7503 9.43969 11.4503 9.11969 11.0703 9.08969V4.92969H17.0003C20.8403 4.92969 22.0003 6.08969 22.0003 9.92969V10.7797C22.0003 11.1697 21.6803 11.4797 21.3003 11.4797C20.5003 11.4797 19.8503 12.1297 19.8503 12.9397Z" fill="#292D32"/>
<path d="M11.0701 9.09079C10.6601 9.09079 10.2501 9.42079 10.2501 9.83079V14.1708C10.2501 14.5808 10.5901 14.9208 11.0001 14.9208C11.0201 14.9208 11.0501 14.9208 11.0701 14.9108V17.7608C11.0501 17.7508 11.0201 17.7508 11.0001 17.7508C10.5901 17.7508 10.2501 18.0908 10.2501 18.5008V20.0908H8.49009C6.61009 20.0908 5.64009 18.6808 4.76009 16.5508L4.59009 16.1308C4.45009 15.7708 4.62009 15.3608 4.98009 15.2208C5.35009 15.0808 5.64009 14.7908 5.79009 14.4108C5.95009 14.0408 5.95009 13.6308 5.80009 13.2608C5.48009 12.4908 4.60009 12.1208 3.82009 12.4308C3.65009 12.5108 3.45009 12.5108 3.28009 12.4308C3.11009 12.3608 2.98009 12.2208 2.90009 12.0408L2.75009 11.6408C1.26009 8.02079 1.91009 6.47079 5.53009 4.97079L7.98009 3.96079C8.34009 3.81079 8.75009 3.98079 8.89009 4.34079L11.0701 9.09079Z" fill="#292D32"/>
</svg>
