<svg width="24" height="24" viewBox="0 0 24 24" fill="none" xmlns="http://www.w3.org/2000/svg">
<path opacity="0.4" d="M21.3 10.8394C21.69 10.8394 22 10.5294 22 10.1394V9.20938C22 5.10938 20.75 3.85938 16.65 3.85938H7.35C3.25 3.85937 2 5.10938 2 9.20938V9.67938C2 10.0694 2.31 10.3794 2.7 10.3794C3.6 10.3794 4.33 11.1094 4.33 12.0094C4.33 12.9094 3.6 13.6294 2.7 13.6294C2.31 13.6294 2 13.9394 2 14.3294V14.7994C2 18.8994 3.25 20.1494 7.35 20.1494H16.65C20.75 20.1494 22 18.8994 22 14.7994C22 14.4094 21.69 14.0994 21.3 14.0994C20.4 14.0994 19.67 13.3694 19.67 12.4694C19.67 11.5694 20.4 10.8394 21.3 10.8394Z" fill="#292D32"/>
<path d="M14.9983 15.8789C14.4383 15.8789 13.9883 15.4289 13.9883 14.8789C13.9883 14.3289 14.4383 13.8789 14.9883 13.8789C15.5383 13.8789 15.9883 14.3289 15.9883 14.8789C15.9883 15.4289 15.5583 15.8789 14.9983 15.8789Z" fill="#292D32"/>
<path d="M8.99828 10.8789C8.43828 10.8789 7.98828 10.4289 7.98828 9.87891C7.98828 9.32891 8.43828 8.87891 8.98828 8.87891C9.53828 8.87891 9.98828 9.32891 9.98828 9.87891C9.98828 10.4289 9.55828 10.8789 8.99828 10.8789Z" fill="#292D32"/>
<path d="M8.63031 16.4306C8.44031 16.4306 8.25031 16.3606 8.10031 16.2106C7.81031 15.9206 7.81031 15.4406 8.10031 15.1506L14.8303 8.42063C15.1203 8.13063 15.6003 8.13063 15.8903 8.42063C16.1803 8.71062 16.1803 9.19062 15.8903 9.48062L9.16031 16.2106C9.02031 16.3606 8.82031 16.4306 8.63031 16.4306Z" fill="#292D32"/>
</svg>
