<svg width="24" height="24" viewBox="0 0 24 24" fill="none" xmlns="http://www.w3.org/2000/svg">
<path d="M12 19.75C9.38 19.75 7.25 17.62 7.25 15C7.25 12.38 9.38 10.25 12 10.25C14.62 10.25 16.75 12.38 16.75 15C16.75 17.62 14.62 19.75 12 19.75ZM12 11.75C10.21 11.75 8.75 13.21 8.75 15C8.75 16.79 10.21 18.25 12 18.25C13.79 18.25 15.25 16.79 15.25 15C15.25 13.21 13.79 11.75 12 11.75Z" fill="#292D32"/>
<path d="M11.4409 16.5398C11.1209 16.5398 10.8009 16.4198 10.5609 16.1698L9.91086 15.5198C9.62086 15.2298 9.62086 14.7498 9.91086 14.4598C10.2009 14.1698 10.6809 14.1698 10.9709 14.4598L11.4509 14.9398L13.0609 13.4598C13.3609 13.1798 13.8409 13.1998 14.1209 13.4998C14.4009 13.7998 14.3809 14.2798 14.0809 14.5598L12.3009 16.1998C12.0509 16.4298 11.7409 16.5398 11.4409 16.5398Z" fill="#292D32"/>
<path d="M14.9998 22.75H8.99982C4.37982 22.75 3.51982 20.6 3.29982 18.51L2.54982 12.52C2.43982 11.44 2.39982 9.89 3.44982 8.73C4.34982 7.73 5.83982 7.25 7.99982 7.25H15.9998C18.1698 7.25 19.6598 7.74 20.5498 8.73C21.5898 9.89 21.5598 11.44 21.4498 12.5L20.6998 18.51C20.4798 20.6 19.6198 22.75 14.9998 22.75ZM7.99982 8.75C6.30982 8.75 5.14982 9.08 4.55982 9.74C4.06982 10.28 3.90982 11.11 4.03982 12.35L4.78982 18.34C4.95982 19.94 5.39982 21.26 8.99982 21.26H14.9998C18.5998 21.26 19.0398 19.95 19.2098 18.36L19.9598 12.35C20.0898 11.13 19.9298 10.3 19.4398 9.75C18.8498 9.08 17.6898 8.75 15.9998 8.75H7.99982Z" fill="#292D32"/>
<path d="M16.5 8.6303C16.09 8.6303 15.75 8.2903 15.75 7.8803V6.5003C15.75 5.4503 15.3 4.4303 14.52 3.7203C13.73 3.0003 12.7 2.6703 11.63 2.7703C9.83 2.9403 8.25 4.7803 8.25 6.7003V7.6703C8.25 8.0803 7.91 8.4203 7.5 8.4203C7.09 8.4203 6.75 8.0803 6.75 7.6703V6.6903C6.75 4.0003 8.92 1.5203 11.49 1.2703C12.99 1.1303 14.43 1.6003 15.53 2.6103C16.62 3.6003 17.25 5.0203 17.25 6.5003V7.8803C17.25 8.2903 16.91 8.6303 16.5 8.6303Z" fill="#292D32"/>
</svg>
