<svg width="24" height="24" viewBox="0 0 24 24" fill="none" xmlns="http://www.w3.org/2000/svg">
<path d="M16.6713 20.8315C16.6512 20.8315 16.6412 20.8315 16.6312 20.8315H5.54125C2.60125 20.6215 1.28125 18.3515 1.28125 16.3415C1.28125 14.5415 2.33125 12.5415 4.61125 11.9915C3.98125 9.47148 4.53125 7.11148 6.19125 5.40148C8.07125 3.46148 11.0612 2.71148 13.6112 3.54148C14.0013 3.67148 14.2213 4.09148 14.0913 4.48148C13.9613 4.87148 13.5413 5.09148 13.1512 4.96148C11.1213 4.31148 8.75125 4.90148 7.26125 6.45148C5.81125 7.95148 5.47125 10.0415 6.30125 12.3515C6.38125 12.5815 6.35125 12.8415 6.21125 13.0315C6.07125 13.2215 5.84125 13.3515 5.60125 13.3515C3.66125 13.4915 2.79125 14.9515 2.79125 16.3415C2.79125 17.7315 3.66125 19.1915 5.60125 19.3415H16.6412C17.7812 19.3515 18.9212 18.9215 19.7712 18.1415C20.9212 17.1315 21.4212 15.6615 21.1712 14.1015C21.1012 13.6915 21.3813 13.3115 21.7913 13.2415C22.2013 13.1715 22.5812 13.4515 22.6512 13.8615C22.9912 15.9215 22.2812 17.9415 20.7812 19.2615C19.6612 20.2615 18.2013 20.8315 16.6713 20.8315Z" fill="#292D32"/>
<path d="M7.25984 13.7618C7.14984 13.7618 7.02984 13.7318 6.92984 13.6818C6.50984 13.4718 6.04984 13.3618 5.57984 13.3518C5.16984 13.3418 4.83984 13.0018 4.83984 12.5918C4.84984 12.1818 5.23984 11.8418 5.59984 11.8518C6.28984 11.8618 6.97984 12.0318 7.58984 12.3418C7.95984 12.5218 8.10984 12.9818 7.92984 13.3518C7.79984 13.6118 7.53984 13.7618 7.25984 13.7618Z" fill="#292D32"/>
<path d="M18.4687 12.7517C16.1287 12.7517 14.2188 10.8417 14.2188 8.50172C14.2188 7.40172 14.6387 6.36172 15.3987 5.58172C15.4187 5.55172 15.4387 5.53172 15.4587 5.51172C16.2587 4.70172 17.3187 4.26172 18.4587 4.26172C20.7987 4.26172 22.7087 6.17172 22.7087 8.51172C22.7087 9.81172 22.1288 11.0217 21.1088 11.8317C20.3788 12.4217 19.4387 12.7517 18.4687 12.7517ZM16.5988 6.50172C16.5788 6.53172 16.5588 6.55172 16.5288 6.58172C16.0088 7.09172 15.7188 7.78172 15.7188 8.51172C15.7188 10.0317 16.9487 11.2617 18.4687 11.2617C19.0887 11.2617 19.6988 11.0517 20.1788 10.6617C20.8488 10.1317 21.2187 9.35172 21.2187 8.51172C21.2187 6.99172 19.9887 5.76172 18.4687 5.76172C17.7587 5.75172 17.0988 6.02172 16.5988 6.50172Z" fill="#292D32"/>
</svg>
