<svg width="24" height="24" viewBox="0 0 24 24" fill="none" xmlns="http://www.w3.org/2000/svg">
<path opacity="0.4" d="M21.2516 9.14906C20.7616 8.36906 20.2016 7.66906 19.6216 7.03906L15.8516 10.8091C15.9716 11.1791 16.0416 11.5791 16.0416 11.9991C16.0416 14.2391 14.2316 16.0391 12.0016 16.0391C11.5816 16.0391 11.1816 15.9691 10.8116 15.8491L7.35156 19.3091C8.81156 20.1291 10.3916 20.5591 12.0016 20.5591C13.7816 20.5591 15.5116 20.0391 17.0916 19.0691C18.6716 18.0891 20.0916 16.6591 21.2516 14.8391C22.2516 13.2791 22.2516 10.7191 21.2516 9.14906Z" fill="#292D32"/>
<path d="M14.0206 9.98062L9.98062 14.0206C9.47062 13.5006 9.14062 12.7806 9.14062 12.0006C9.14062 10.4306 10.4206 9.14062 12.0006 9.14062C12.7806 9.14062 13.5006 9.47062 14.0206 9.98062Z" fill="#292D32"/>
<path opacity="0.4" d="M18.25 5.74969L14.86 9.13969C14.13 8.39969 13.12 7.95969 12 7.95969C9.76 7.95969 7.96 9.76969 7.96 11.9997C7.96 13.1197 8.41 14.1297 9.14 14.8597L5.76 18.2497H5.75C4.64 17.3497 3.62 16.1997 2.75 14.8397C1.75 13.2697 1.75 10.7197 2.75 9.14969C3.91 7.32969 5.33 5.89969 6.91 4.91969C8.49 3.95969 10.22 3.42969 12 3.42969C14.23 3.42969 16.39 4.24969 18.25 5.74969Z" fill="#292D32"/>
<path d="M14.8581 11.9981C14.8581 13.5681 13.5781 14.8581 11.9981 14.8581C11.9381 14.8581 11.8881 14.8581 11.8281 14.8381L14.8381 11.8281C14.8581 11.8881 14.8581 11.9381 14.8581 11.9981Z" fill="#292D32"/>
<path d="M21.7689 2.22891C21.4689 1.92891 20.9789 1.92891 20.6789 2.22891L2.22891 20.6889C1.92891 20.9889 1.92891 21.4789 2.22891 21.7789C2.37891 21.9189 2.56891 21.9989 2.76891 21.9989C2.96891 21.9989 3.15891 21.9189 3.30891 21.7689L21.7689 3.30891C22.0789 3.00891 22.0789 2.52891 21.7689 2.22891Z" fill="#292D32"/>
</svg>
