<svg width="24" height="24" viewBox="0 0 24 24" fill="none" xmlns="http://www.w3.org/2000/svg">
<path d="M15.9082 12.3714H20.5982C20.5182 17.0414 19.5982 17.8114 16.7282 19.5114C16.3982 19.7114 16.2882 20.1314 16.4882 20.4714C16.6882 20.8014 17.1082 20.9114 17.4482 20.7114C20.8282 18.7114 22.0082 17.4914 22.0082 11.6714V6.28143C22.0082 4.57143 20.6182 3.19141 18.9182 3.19141H15.9182C14.1582 3.19141 12.8282 4.52143 12.8282 6.28143V9.28143C12.8182 11.0414 14.1482 12.3714 15.9082 12.3714Z" fill="#292D32"/>
<path opacity="0.4" d="M5.09177 12.3714H9.78177C9.70177 17.0414 8.78177 17.8114 5.91177 19.5114C5.58177 19.7114 5.47177 20.1314 5.67177 20.4714C5.87177 20.8014 6.29177 20.9114 6.63177 20.7114C10.0118 18.7114 11.1918 17.4914 11.1918 11.6714V6.28143C11.1918 4.57143 9.80177 3.19141 8.10178 3.19141H5.10177C3.34177 3.19141 2.01177 4.52143 2.01177 6.28143V9.28143C2.00177 11.0414 3.33177 12.3714 5.09177 12.3714Z" fill="#292D32"/>
</svg>
