<svg width="24" height="24" viewBox="0 0 24 24" fill="none" xmlns="http://www.w3.org/2000/svg">
<path opacity="0.4" d="M22 7.81V16.19C22 19.83 19.83 22 16.19 22H7.81C7.61 22 7.41 21.99 7.22 21.98C5.99 21.9 4.95 21.55 4.13 20.95C3.71 20.66 3.34 20.29 3.05 19.87C2.36 18.92 2 17.68 2 16.19V7.81C2 4.37 3.94 2.24 7.22 2.03C7.41 2.01 7.61 2 7.81 2H16.19C17.68 2 18.92 2.36 19.87 3.05C20.29 3.34 20.66 3.71 20.95 4.13C21.64 5.08 22 6.32 22 7.81Z" fill="#292D32"/>
<path d="M16.8319 18.9609H7.17188C6.76188 18.9609 6.42188 18.6209 6.42188 18.2109C6.42188 17.8009 6.76188 17.4609 7.17188 17.4609H16.8419C17.2519 17.4609 17.5919 17.8009 17.5919 18.2109C17.5919 18.6209 17.2519 18.9609 16.8319 18.9609Z" fill="#292D32"/>
<path d="M12.0019 16.1991C8.92188 16.1991 6.42188 13.6991 6.42188 10.6191V5.78906C6.42188 5.37906 6.76188 5.03906 7.17188 5.03906C7.58187 5.03906 7.92188 5.37906 7.92188 5.78906V10.6191C7.92188 12.8691 9.75187 14.6991 12.0019 14.6991C14.2519 14.6991 16.0819 12.8691 16.0819 10.6191V5.78906C16.0819 5.37906 16.4219 5.03906 16.8319 5.03906C17.2419 5.03906 17.5819 5.37906 17.5819 5.78906V10.6191C17.5819 13.6991 15.0819 16.1991 12.0019 16.1991Z" fill="#292D32"/>
</svg>
