<svg width="24" height="24" viewBox="0 0 24 24" fill="none" xmlns="http://www.w3.org/2000/svg">
<path opacity="0.4" d="M22 7.81V16.19C22 19.83 19.83 22 16.19 22H7.81C7.61 22 7.41 21.99 7.22 21.98C5.99 21.9 4.95 21.55 4.13 20.95C3.71 20.66 3.34 20.29 3.05 19.87C2.36 18.92 2 17.68 2 16.19V7.81C2 4.37 3.94 2.24 7.22 2.03C7.41 2.01 7.61 2 7.81 2H16.19C17.68 2 18.92 2.36 19.87 3.05C20.29 3.34 20.66 3.71 20.95 4.13C21.64 5.08 22 6.32 22 7.81Z" fill="#292D32"/>
<path d="M15.8706 6.01172H10.4906C10.0806 6.01172 9.74062 6.35172 9.74062 6.76172C9.74062 7.17172 10.0806 7.51172 10.4906 7.51172H12.3806L10.1406 16.4817H8.14063C7.73063 16.4817 7.39062 16.8217 7.39062 17.2317C7.39062 17.6417 7.73063 17.9817 8.14063 17.9817H13.5206C13.9306 17.9817 14.2706 17.6417 14.2706 17.2317C14.2706 16.8217 13.9306 16.4817 13.5206 16.4817H11.6806L13.9206 7.51172H15.8706C16.2806 7.51172 16.6206 7.17172 16.6206 6.76172C16.6206 6.35172 16.2806 6.01172 15.8706 6.01172Z" fill="#292D32"/>
</svg>
