<svg width="24" height="24" viewBox="0 0 24 24" fill="none" xmlns="http://www.w3.org/2000/svg">
<path opacity="0.4" d="M18.6992 14.4592C18.3492 14.8092 18.1492 15.5192 18.2592 15.9992L18.9492 19.0092C19.2392 20.2592 19.0592 21.1992 18.4392 21.6492C18.1892 21.8292 17.8892 21.9192 17.5392 21.9192C17.0292 21.9192 16.4292 21.7292 15.7692 21.3392L12.8392 19.5992C12.3892 19.3292 11.6092 19.3292 11.1592 19.5992L8.22922 21.3392C7.11922 21.9892 6.16922 22.0992 5.55922 21.6492C5.51922 21.6192 5.47922 21.5892 5.44922 21.5492L18.7992 8.19922L19.9692 8.39922C21.0292 8.57922 21.7392 9.05922 21.9692 9.75922C22.1892 10.4592 21.8892 11.2692 21.1292 12.0292L18.6992 14.4592Z" fill="#292D32"/>
<path opacity="0.4" d="M5.73937 16C5.84937 15.52 5.64937 14.81 5.29937 14.46L2.86937 12.03C2.10937 11.27 1.80937 10.46 2.02937 9.76C2.25937 9.06 2.96937 8.58 4.02937 8.4L7.14937 7.88C7.59937 7.8 8.14937 7.4 8.35937 6.99L10.0794 3.54C10.5794 2.55 11.2594 2 11.9994 2C12.7394 2 13.4194 2.55 13.9194 3.54L15.6394 6.99C15.7694 7.25 16.0394 7.5 16.3294 7.67L5.06937 18.93L5.73937 16Z" fill="#292D32"/>
<path d="M21.7709 2.22891C21.4709 1.92891 20.9809 1.92891 20.6809 2.22891L2.23086 20.6889C1.93086 20.9889 1.93086 21.4789 2.23086 21.7789C2.38086 21.9189 2.57086 21.9989 2.77086 21.9989C2.97086 21.9989 3.16086 21.9189 3.31086 21.7689L21.7709 3.30891C22.0809 3.00891 22.0809 2.52891 21.7709 2.22891Z" fill="#292D32"/>
</svg>
