<svg width="24" height="24" viewBox="0 0 24 24" fill="none" xmlns="http://www.w3.org/2000/svg">
<path opacity="0.4" d="M16.1917 2H7.82173C4.18173 2 2.01172 4.17 2.01172 7.81V16.18C2.01172 19.82 4.18173 21.99 7.82173 21.99H16.1917C19.8317 21.99 22.0017 19.82 22.0017 16.18V7.81C22.0017 4.17 19.8317 2 16.1917 2Z" fill="#292D32"/>
<path d="M13.5814 14.6919L11.2614 17.0119C10.6214 17.6619 9.5714 17.6619 8.9214 17.0119L6.99141 15.0819C6.34141 14.4319 6.34141 13.3819 6.99141 12.7419L9.3114 10.4219L13.5814 14.6919Z" fill="#292D32"/>
<path opacity="0.6" d="M17.0086 11.2614L13.5786 14.6914L9.30859 10.4214L12.7386 6.99141C13.3786 6.34141 14.4286 6.34141 15.0786 6.99141L17.0086 8.9214C17.6586 9.5714 17.6586 10.6214 17.0086 11.2614Z" fill="#292D32"/>
</svg>
