<svg width="24" height="24" viewBox="0 0 24 24" fill="none" xmlns="http://www.w3.org/2000/svg">
<path d="M12.3317 12.8396C11.3717 14.5696 9.58173 14.7196 8.34173 13.1696L8.12173 12.8896C6.83173 11.2696 5.01173 11.4696 4.08173 13.3196L2.36173 16.7696C1.16173 19.1696 2.91173 21.9996 5.59173 21.9996H18.3517C20.9417 21.9996 22.6917 19.3496 21.6717 16.9596L18.5417 9.64964C17.4817 7.16964 15.5317 7.06964 14.2217 9.42964" stroke="#292D32" stroke-width="1.5" stroke-linecap="round" stroke-linejoin="round"/>
<path d="M9.96875 5C9.96875 6.66 8.62875 8 6.96875 8C5.30875 8 3.96875 6.66 3.96875 5C3.96875 3.34 5.30875 2 6.96875 2C7.32875 2 7.66875 2.06 7.97875 2.18" stroke="#292D32" stroke-width="1.5" stroke-linecap="round" stroke-linejoin="round"/>
</svg>
