<svg width="24" height="24" viewBox="0 0 24 24" fill="none" xmlns="http://www.w3.org/2000/svg">
<path d="M14.9083 14.1189C16.7083 13.0789 16.7083 11.3789 14.9083 10.3389L13.4583 9.49889L12.0083 8.65889C10.2083 7.61889 8.73828 8.46889 8.73828 10.5489V12.2189V13.8889C8.73828 15.5489 9.67828 16.4289 10.9783 16.1789" stroke="#292D32" stroke-width="1.5" stroke-miterlimit="10" stroke-linecap="round" stroke-linejoin="round"/>
<path d="M4 6C2.75 7.67 2 9.75 2 12C2 17.52 6.48 22 12 22C17.52 22 22 17.52 22 12C22 6.48 17.52 2 12 2C10.57 2 9.2 2.3 7.97 2.85" stroke="#292D32" stroke-width="1.5" stroke-linecap="round" stroke-linejoin="round"/>
</svg>
