<svg width="24" height="24" viewBox="0 0 24 24" fill="none" xmlns="http://www.w3.org/2000/svg">
<path opacity="0.4" d="M23.5293 12.0483C23.2393 11.7583 22.7593 11.7583 22.4693 12.0483L22.0093 12.5083V11.9983C22.0093 6.47829 17.5193 1.98828 11.9993 1.98828C8.94927 1.98828 6.09927 3.35828 4.18927 5.73828C3.92927 6.05828 3.97927 6.53827 4.30927 6.78827C4.62927 7.04827 5.10927 6.99827 5.35927 6.66827C6.98927 4.63827 9.40927 3.47827 11.9993 3.47827C16.6893 3.47827 20.5093 7.29828 20.5093 11.9883V12.4883L20.0493 12.0283C19.7593 11.7383 19.2793 11.7383 18.9893 12.0283C18.6993 12.3183 18.6993 12.7983 18.9893 13.0883L20.7293 14.8283C20.7993 14.8983 20.8793 14.9483 20.9693 14.9883C21.0593 15.0283 21.1593 15.0483 21.2593 15.0483C21.3593 15.0483 21.4493 15.0283 21.5493 14.9883C21.6393 14.9483 21.7193 14.8983 21.7893 14.8283L23.5293 13.0883C23.8193 12.8183 23.8193 12.3383 23.5293 12.0483Z" fill="#292D32"/>
<path opacity="0.4" d="M19.6892 17.2014C19.3692 16.9414 18.8892 16.9914 18.6392 17.3214C17.0092 19.3514 14.5892 20.5114 11.9992 20.5114C7.30922 20.5114 3.48921 16.6914 3.48921 12.0014V11.5014L3.94921 11.9614C4.09921 12.1114 4.28922 12.1814 4.47922 12.1814C4.66922 12.1814 4.85922 12.1114 5.00922 11.9614C5.29922 11.6714 5.29922 11.1914 5.00922 10.9014L3.26921 9.16138C3.19921 9.09138 3.11921 9.04141 3.02921 9.00141C2.84921 8.92141 2.63921 8.92141 2.45921 9.00141C2.36921 9.04141 2.28922 9.09138 2.21922 9.16138L0.479219 10.9014C0.189219 11.1914 0.189219 11.6714 0.479219 11.9614C0.769219 12.2514 1.24922 12.2514 1.53922 11.9614L1.99922 11.5014V12.0014C1.99922 17.5214 6.48922 22.0114 12.0092 22.0114C15.0592 22.0114 17.9092 20.6414 19.8192 18.2614C20.0692 17.9414 20.0192 17.4614 19.6892 17.2014Z" fill="#292D32"/>
<path d="M15.45 11.64C15.72 11.24 15.87 10.77 15.87 10.25C15.87 8.92 14.7 7.75 13.37 7.75H12.55V6.75C12.55 6.34 12.21 6 11.8 6C11.39 6 11.05 6.34 11.05 6.75V7.75H9C8.59 7.75 8.25 8.09 8.25 8.5V12V15.5C8.25 15.91 8.59 16.25 9 16.25H11.05V17.25C11.05 17.66 11.39 18 11.8 18C12.21 18 12.55 17.66 12.55 17.25V16.25H14C15.52 16.25 16.75 15.13 16.75 13.75C16.75 12.86 16.23 12.08 15.45 11.64ZM9.75 9.25H13.37C13.92 9.25 14.37 9.8 14.37 10.25C14.37 10.8 13.92 11.25 13.37 11.25H9.75V9.25ZM14 14.75H9.75V12.75H13.37H14C14.69 12.75 15.25 13.2 15.25 13.75C15.25 14.3 14.69 14.75 14 14.75Z" fill="#292D32"/>
</svg>
