<svg width="24" height="24" viewBox="0 0 24 24" fill="none" xmlns="http://www.w3.org/2000/svg">
<path d="M14.0401 4.52142L11.8301 6.00143L15.0301 10.7814L20.6901 6.99142C21.2601 6.61142 21.4101 5.83142 21.0301 5.27142L19.2101 2.56143C18.8301 1.99143 18.0501 1.84143 17.4901 2.22143" stroke="#292D32" stroke-width="1.5" stroke-linecap="round" stroke-linejoin="round"/>
<path d="M12.1742 6.47981L7.39648 9.67969L9.95639 13.5018L14.7341 10.302L12.1742 6.47981Z" stroke="#292D32" stroke-width="1.5" stroke-linecap="round" stroke-linejoin="round"/>
<path d="M5.83053 15.9019L9.78053 13.2619L7.54053 9.92188L3.59053 12.5619C3.13053 12.8719 3.01053 13.4919 3.32053 13.9519L4.45053 15.6319C4.75053 16.0819 5.37053 16.2019 5.83053 15.9019Z" stroke="#292D32" stroke-width="1.5" stroke-linecap="round" stroke-linejoin="round"/>
<path d="M12.0506 12.1992L7.56055 21.9992" stroke="#292D32" stroke-width="1.5" stroke-linecap="round" stroke-linejoin="round"/>
<path d="M12 12.1992L16.44 21.9992" stroke="#292D32" stroke-width="1.5" stroke-linecap="round" stroke-linejoin="round"/>
</svg>
