<svg width="24" height="24" viewBox="0 0 24 24" fill="none" xmlns="http://www.w3.org/2000/svg">
<path d="M12 20.9034C11.78 20.9034 11.55 20.8734 11.38 20.8134C8.48 19.8234 2 15.6934 2 8.68341C2 7.28341 2.51 6.00344 3.36 5.02344" stroke="#292D32" stroke-width="1.5" stroke-linecap="round" stroke-linejoin="round"/>
<path d="M21.4905 12.0016C21.8105 10.9816 22.0005 9.88159 22.0005 8.69159C22.0005 5.60159 19.5106 3.10156 16.4406 3.10156C14.6206 3.10156 13.0105 3.98161 12.0005 5.34161C10.9905 3.98161 9.37055 3.10156 7.56055 3.10156" stroke="#292D32" stroke-width="1.5" stroke-linecap="round" stroke-linejoin="round"/>
<path d="M17.7391 21.0016C19.5064 21.0016 20.9391 19.5689 20.9391 17.8016C20.9391 16.0343 19.5064 14.6016 17.7391 14.6016C15.9717 14.6016 14.5391 16.0343 14.5391 17.8016C14.5391 19.5689 15.9717 21.0016 17.7391 21.0016Z" stroke="#292D32" stroke-width="1.5" stroke-linecap="round" stroke-linejoin="round"/>
<path d="M21.5391 21.6016L20.5391 20.6016" stroke="#292D32" stroke-width="1.5" stroke-linecap="round" stroke-linejoin="round"/>
</svg>
