<svg width="24" height="24" viewBox="0 0 24 24" fill="none" xmlns="http://www.w3.org/2000/svg">
<path d="M2 11.5597V13.4297C2 16.4297 4 18.4297 7 18.4297H11L15.45 21.3897C16.11 21.8297 17 21.3598 17 20.5598V18.4297C20 18.4297 22 16.4297 22 13.4297V7.42969C22 4.42969 20 2.42969 17 2.42969H7C4 2.42969 2 4.42969 2 7.42969" stroke="#292D32" stroke-width="1.5" stroke-miterlimit="10" stroke-linecap="round" stroke-linejoin="round"/>
<path d="M11.9998 11.3594V11.1494C11.9998 10.4694 12.4198 10.1094 12.8398 9.8194C13.2498 9.5394 13.6598 9.17941 13.6598 8.51941C13.6598 7.59941 12.9198 6.85938 11.9998 6.85938C11.0798 6.85938 10.3398 7.59941 10.3398 8.51941" stroke="#292D32" stroke-width="1.5" stroke-linecap="round" stroke-linejoin="round"/>
<path d="M11.9955 13.75H12.0045" stroke="#292D32" stroke-width="1.5" stroke-linecap="round" stroke-linejoin="round"/>
</svg>
