<svg width="24" height="24" viewBox="0 0 24 24" fill="none" xmlns="http://www.w3.org/2000/svg">
<path d="M19.4998 7.49891L18.0098 8.98891L15.0098 5.98891L16.4998 4.49891C16.9198 4.07891 17.4598 3.87891 17.9998 3.87891C18.5398 3.87891 19.0798 4.07891 19.4998 4.49891C20.3298 5.32891 20.3298 6.66891 19.4998 7.49891Z" fill="#292D32"/>
<path d="M17.3095 9.69922L6.49945 20.4992C5.66945 21.3292 4.32945 21.3292 3.49945 20.4992C2.66945 19.6692 2.66945 18.3292 3.49945 17.4992L14.3095 6.69922L17.3095 9.69922Z" fill="#292D32"/>
<path d="M9.95051 3.50051L10.3605 2.11051C10.4005 1.98051 10.3605 1.84051 10.2705 1.74051C10.1805 1.64051 10.0205 1.60051 9.89051 1.64051L8.50051 2.05051L7.11051 1.64051C6.98051 1.60051 6.84051 1.64051 6.74051 1.73051C6.64051 1.83051 6.61051 1.97051 6.65051 2.10051L7.05051 3.50051L6.64051 4.89051C6.60051 5.0205 6.64051 5.16051 6.73051 5.26051C6.83051 5.36051 6.97051 5.39051 7.10051 5.35051L8.50051 4.95051L9.89051 5.36051C9.93051 5.37051 9.96051 5.38051 10.0005 5.38051C10.1005 5.38051 10.1905 5.34051 10.2705 5.27051C10.3705 5.17051 10.4005 5.03051 10.3605 4.90051L9.95051 3.50051Z" fill="#292D32"/>
<path d="M5.95051 9.50051L6.36051 8.1105C6.40051 7.9805 6.36051 7.84051 6.27051 7.74051C6.17051 7.64051 6.03051 7.61051 5.90051 7.65051L4.50051 8.05051L3.1105 7.64051C2.9805 7.60051 2.84051 7.64051 2.74051 7.73051C2.64051 7.83051 2.61051 7.97051 2.65051 8.10051L3.05051 9.50051L2.64051 10.8905C2.60051 11.0205 2.64051 11.1605 2.73051 11.2605C2.83051 11.3605 2.9705 11.3905 3.1005 11.3505L4.4905 10.9405L5.88051 11.3505C5.91051 11.3605 5.95051 11.3605 5.9905 11.3605C6.0905 11.3605 6.18051 11.3205 6.26051 11.2505C6.36051 11.1505 6.39051 11.0105 6.35051 10.8805L5.95051 9.50051Z" fill="#292D32"/>
<path d="M20.9497 14.5L21.3597 13.11C21.3997 12.98 21.3597 12.84 21.2697 12.74C21.1697 12.64 21.0297 12.61 20.8997 12.65L19.5097 13.06L18.1197 12.65C17.9897 12.61 17.8497 12.65 17.7497 12.74C17.6497 12.84 17.6197 12.98 17.6597 13.11L18.0697 14.5L17.6597 15.89C17.6197 16.02 17.6597 16.16 17.7497 16.26C17.8497 16.36 17.9897 16.39 18.1197 16.35L19.5097 15.94L20.8997 16.35C20.9297 16.36 20.9697 16.36 21.0097 16.36C21.1097 16.36 21.1997 16.32 21.2797 16.25C21.3797 16.15 21.4097 16.01 21.3697 15.88L20.9497 14.5Z" fill="#292D32"/>
</svg>
