<svg width="24" height="24" viewBox="0 0 24 24" fill="none" xmlns="http://www.w3.org/2000/svg">
<path d="M11.75 7H11H7C4.24 7 2 9.24 2 12V17C2 19.76 4.24 22 7 22H12C14.76 22 17 19.76 17 17V13V12.25C17 9.35 14.65 7 11.75 7Z" fill="#292D32"/>
<path d="M21.8806 6.33033C22.4052 8.88991 21.1628 11.2123 19.1598 12.306C18.8522 12.4739 18.5006 12.2343 18.5006 11.8838V11.7503C18.5006 8.31033 15.6906 5.50033 12.2506 5.50033H12.1171C11.7666 5.50033 11.527 5.14879 11.695 4.84119C12.7887 2.8381 15.111 1.59574 17.6706 2.12033C19.7606 2.55033 21.4506 4.24033 21.8806 6.33033Z" fill="#292D32"/>
</svg>
