<svg width="24" height="24" viewBox="0 0 24 24" fill="none" xmlns="http://www.w3.org/2000/svg">
<path d="M14 16C14 17.77 13.23 19.37 12 20.46C10.94 21.42 9.54 22 8 22C4.69 22 2 19.31 2 16C2 13.24 3.88 10.9 6.42 10.21C7.11 11.95 8.59 13.29 10.42 13.79C10.92 13.93 11.45 14 12 14C12.55 14 13.08 13.93 13.58 13.79C13.85 14.47 14 15.22 14 16Z" stroke="#292D32" stroke-width="1.5" stroke-linecap="round" stroke-linejoin="round"/>
<path d="M7.52 4.01C8.62 2.78 10.22 2 12 2C15.31 2 18 4.69 18 8C18 8.78 17.85 9.53 17.58 10.21C16.89 11.95 15.41 13.29 13.58 13.79C13.08 13.93 12.55 14 12 14C11.45 14 10.92 13.93 10.42 13.79C8.59 13.29 7.11 11.95 6.42 10.21C6.15 9.53 6 8.78 6 8" stroke="#292D32" stroke-width="1.5" stroke-linecap="round" stroke-linejoin="round"/>
<path d="M22 16C22 19.31 19.31 22 16 22C14.46 22 13.06 21.42 12 20.46C13.23 19.37 14 17.77 14 16C14 15.22 13.85 14.47 13.58 13.79C15.41 13.29 16.89 11.95 17.58 10.21C20.12 10.9 22 13.24 22 16Z" stroke="#292D32" stroke-width="1.5" stroke-linecap="round" stroke-linejoin="round"/>
</svg>
