<svg width="24" height="24" viewBox="0 0 24 24" fill="none" xmlns="http://www.w3.org/2000/svg">
<path d="M2 7C2 3 3 2 7 2H8.5C10 2 10.33 2.44001 10.9 3.20001L12.4 5.20001C12.78 5.70001 13 6 14 6H17C21 6 22 7 22 11V13" stroke="#292D32" stroke-width="1.5" stroke-miterlimit="10" stroke-linecap="round" stroke-linejoin="round"/>
<path d="M9 22H7C3 22 2 21 2 17V12.03" stroke="#292D32" stroke-width="1.5" stroke-miterlimit="10" stroke-linecap="round" stroke-linejoin="round"/>
<path d="M13.7605 18.3199C11.4105 18.4899 11.4105 21.8899 13.7605 22.0599H19.3205C19.9905 22.0599 20.6506 21.8099 21.1406 21.3599C22.7906 19.9199 21.9105 17.0399 19.7405 16.7699C18.9605 12.0799 12.1806 13.8599 13.7806 18.3299" stroke="#292D32" stroke-width="1.5" stroke-miterlimit="10" stroke-linecap="round" stroke-linejoin="round"/>
</svg>
