<svg width="24" height="24" viewBox="0 0 24 24" fill="none" xmlns="http://www.w3.org/2000/svg">
<path d="M22 11V9C22 4 20 2 15 2H9C4 2 2 4 2 9V15C2 20 4 22 9 22H10" stroke="#292D32" stroke-width="1.5" stroke-linecap="round" stroke-linejoin="round"/>
<path d="M5.0293 8.5H21.9993" stroke="#292D32" stroke-width="1.5" stroke-linecap="round" stroke-linejoin="round"/>
<path d="M2.0293 15.5H11.9993" stroke="#292D32" stroke-width="1.5" stroke-linecap="round" stroke-linejoin="round"/>
<path d="M8.50977 21.99V2.01001" stroke="#292D32" stroke-width="1.5" stroke-linecap="round" stroke-linejoin="round"/>
<path d="M15.5098 11.99V2.01001" stroke="#292D32" stroke-width="1.5" stroke-linecap="round" stroke-linejoin="round"/>
<path d="M18.7304 14.6701L14.5804 18.82C14.4204 18.98 14.2704 19.29 14.2304 19.51L14.0004 21.1C13.9204 21.67 14.3204 22.08 14.8904 21.99L16.4804 21.76C16.7004 21.73 17.0104 21.5701 17.1704 21.4101L21.3204 17.26C22.0304 16.55 22.3704 15.7101 21.3204 14.6601C20.2804 13.6201 19.4504 13.9501 18.7304 14.6701Z" stroke="#292D32" stroke-width="1.5" stroke-miterlimit="10" stroke-linecap="round" stroke-linejoin="round"/>
<path d="M18.1406 15.26C18.4906 16.52 19.4806 17.5 20.7406 17.86" stroke="#292D32" stroke-width="1.5" stroke-miterlimit="10" stroke-linecap="round" stroke-linejoin="round"/>
</svg>
