<svg width="24" height="24" viewBox="0 0 24 24" fill="none" xmlns="http://www.w3.org/2000/svg">
<path d="M12.3296 17.45C12.1496 17.51 11.8396 17.51 11.6596 17.45C10.0996 16.92 6.59961 14.69 6.59961 10.91C6.59961 9.24 7.93961 7.89001 9.59961 7.89001C10.5796 7.89001 11.4496 8.36001 11.9996 9.10001C12.5396 8.37001 13.4196 7.89001 14.3996 7.89001C16.0596 7.89001 17.3996 9.24 17.3996 10.91C17.3996 14.69 13.8996 16.92 12.3296 17.45Z" stroke="#292D32" stroke-width="1.5" stroke-linecap="round" stroke-linejoin="round"/>
<path d="M4 6C2.75 7.67 2 9.75 2 12C2 17.52 6.48 22 12 22C17.52 22 22 17.52 22 12C22 6.48 17.52 2 12 2C10.57 2 9.2 2.30001 7.97 2.85001" stroke="#292D32" stroke-width="1.5" stroke-linecap="round" stroke-linejoin="round"/>
</svg>
