<svg width="24" height="24" viewBox="0 0 24 24" fill="none" xmlns="http://www.w3.org/2000/svg">
<path d="M13.5 9H10.5C8.85 9 7.5 10.35 7.5 12V15C7.5 16.65 8.85 18 10.5 18H13.5C15.15 18 16.5 16.65 16.5 15V12" stroke="#292D32" stroke-width="1.5" stroke-linecap="round" stroke-linejoin="round"/>
<path d="M12 9V18" stroke="#292D32" stroke-width="1.5" stroke-linecap="round" stroke-linejoin="round"/>
<path d="M7.5 13.5H16.5" stroke="#292D32" stroke-width="1.5" stroke-linecap="round" stroke-linejoin="round"/>
<path d="M22 10.4999C22 9.28992 21.19 7.73992 20.2 7.04992L14.02 2.71992C12.62 1.73992 10.37 1.78992 9.02 2.83992L3.63 7.03992C2.73 7.73992 2 9.22992 2 10.3599V17.7699C2 20.0899 3.89 21.9899 6.21 21.9899H17.79C20.11 21.9899 22 20.0899 22 17.7799V14.6799" stroke="#292D32" stroke-width="1.5" stroke-linecap="round" stroke-linejoin="round"/>
</svg>
