<svg width="24" height="24" viewBox="0 0 24 24" fill="none" xmlns="http://www.w3.org/2000/svg">
<path d="M17.5401 8.30989C18.8987 8.30989 20.0001 7.20851 20.0001 5.84989C20.0001 4.49127 18.8987 3.38989 17.5401 3.38989C16.1814 3.38989 15.0801 4.49127 15.0801 5.84989C15.0801 7.20851 16.1814 8.30989 17.5401 8.30989Z" stroke="#292D32" stroke-width="1.5" stroke-miterlimit="10" stroke-linecap="round" stroke-linejoin="round"/>
<path d="M8.92 5.84989C8.92 4.48989 7.82001 3.38989 6.46001 3.38989C5.10001 3.38989 4 4.48989 4 5.84989C4 7.20989 5.10001 8.30989 6.46001 8.30989" stroke="#292D32" stroke-width="1.5" stroke-miterlimit="10" stroke-linecap="round" stroke-linejoin="round"/>
<path d="M17.5401 20.62C18.9001 20.62 20.0001 19.52 20.0001 18.16C20.0001 16.8 18.9001 15.7 17.5401 15.7C16.1801 15.7 15.0801 16.8 15.0801 18.16" stroke="#292D32" stroke-width="1.5" stroke-miterlimit="10" stroke-linecap="round" stroke-linejoin="round"/>
<path d="M6.46001 20.6099C7.81863 20.6099 8.92 19.5086 8.92 18.1499C8.92 16.7913 7.81863 15.6899 6.46001 15.6899C5.10139 15.6899 4 16.7913 4 18.1499C4 19.5086 5.10139 20.6099 6.46001 20.6099Z" stroke="#292D32" stroke-width="1.5" stroke-miterlimit="10" stroke-linecap="round" stroke-linejoin="round"/>
</svg>
