<svg width="24" height="24" viewBox="0 0 24 24" fill="none" xmlns="http://www.w3.org/2000/svg">
<path d="M16 6.3V6C16 3.79 14.21 2 12 2C9.79 2 8 3.79 8 6V11" stroke="#292D32" stroke-width="1.5" stroke-linecap="round" stroke-linejoin="round"/>
<path d="M9.03906 14.19C9.76906 15 10.8291 15.5 11.9991 15.5C14.2091 15.5 15.9991 13.71 15.9991 11.5V11" stroke="#292D32" stroke-width="1.5" stroke-linecap="round" stroke-linejoin="round"/>
<path d="M18.7207 15.0199C19.3207 13.9299 19.6507 12.6799 19.6507 11.3499V9.6499" stroke="#292D32" stroke-width="1.5" stroke-linecap="round" stroke-linejoin="round"/>
<path d="M6.7793 16.9502C8.1493 18.2202 9.9793 19.0002 11.9993 19.0002C13.1793 19.0002 14.3093 18.7302 15.3093 18.2502" stroke="#292D32" stroke-width="1.5" stroke-linecap="round" stroke-linejoin="round"/>
<path d="M4.34961 9.6499V11.3499C4.34961 12.4099 4.55961 13.4099 4.94961 14.3299" stroke="#292D32" stroke-width="1.5" stroke-linecap="round" stroke-linejoin="round"/>
<path d="M20.0697 2.83984L3.92969 18.9898" stroke="#292D32" stroke-width="1.5" stroke-linecap="round" stroke-linejoin="round"/>
<path d="M11 3V6" stroke="#292D32" stroke-width="1.5" stroke-linecap="round" stroke-linejoin="round"/>
<path d="M12 19V22" stroke="#292D32" stroke-width="1.5" stroke-linecap="round" stroke-linejoin="round"/>
</svg>
