<svg id="Vuesax_Bold_Edit" data-name="Vuesax/Bold/Edit" xmlns="http://www.w3.org/2000/svg" width="24" height="24" viewBox="0 0 24 24">
  <path id="Vector" d="M14.19,0H5.81C2.17,0,0,2.17,0,5.81v8.37C0,17.83,2.17,20,5.81,20h8.37c3.64,0,5.81-2.17,5.81-5.81V5.81C20,2.17,17.83,0,14.19,0ZM8.95,15.51a2.578,2.578,0,0,1-1.24.63l-2.46.35a2.452,2.452,0,0,1-.27.02,1.48,1.48,0,0,1-1.06-.41,1.526,1.526,0,0,1-.39-1.34l.35-2.46a2.454,2.454,0,0,1,.63-1.24L8.97,6.6c.08.21.16.42.27.66.1.21.21.43.33.63a5,5,0,0,0,.3.45,3.728,3.728,0,0,0,.32.42,1.363,1.363,0,0,0,.11.14,6.538,6.538,0,0,0,.79.79.917.917,0,0,0,.13.12c.15.12.3.24.43.33a3.738,3.738,0,0,0,.49.32c.2.12.42.23.64.34s.44.19.65.26Zm6.42-6.42-.92.93a.31.31,0,0,1-.22.09.248.248,0,0,1-.09-.01A6.2,6.2,0,0,1,9.91,5.87a.3.3,0,0,1,.08-.3l.93-.93c1.52-1.52,2.97-1.49,4.46,0a3.209,3.209,0,0,1,1.13,2.25A3.243,3.243,0,0,1,15.37,9.09Z" transform="translate(2 2)" fill="#fff"/>
</svg>
