<svg id="Vuesax_Bold_Activity" data-name="Vuesax/Bold/Activity" xmlns="http://www.w3.org/2000/svg" width="24" height="24" viewBox="0 0 24 24">
  <path id="Vector" d="M14.19,0H5.81C2.17,0,0,2.17,0,5.81v8.37C0,17.83,2.17,20,5.81,20h8.37c3.64,0,5.81-2.17,5.81-5.81V5.81C20,2.17,17.83,0,14.19,0Zm1.07,7.96-2.31,2.98a1.707,1.707,0,0,1-1.17.66,1.735,1.735,0,0,1-1.3-.36L8.65,9.8a.219.219,0,0,0-.19-.05.222.222,0,0,0-.17.1L5.91,12.94a.753.753,0,0,1-.59.29.736.736,0,0,1-.46-.16.749.749,0,0,1-.14-1.05L7.1,8.93a1.752,1.752,0,0,1,2.47-.31l1.83,1.44a.214.214,0,0,0,.19.05.222.222,0,0,0,.17-.1l2.31-2.98a.739.739,0,0,1,1.05-.13A.764.764,0,0,1,15.26,7.96Z" transform="translate(2 2)" fill="#fff"/>
</svg>
