<svg id="Vuesax_Linear_Frame" data-name="Vuesax/Linear/Frame" xmlns="http://www.w3.org/2000/svg" width="24" height="24" viewBox="0 0 24 24">
  <path id="Vector" d="M0,0A8,8,0,0,0,5.5,0" transform="translate(9.25 9.05)" fill="none" stroke="#fff" stroke-linecap="round" stroke-linejoin="round" stroke-width="1.5"/>
  <path id="Vector-2" data-name="Vector" d="M13.5,0H3.86A3.869,3.869,0,0,0,0,3.86V17.95c0,1.8,1.29,2.56,2.87,1.69l4.88-2.71a2.118,2.118,0,0,1,1.87,0l4.88,2.71c1.58.88,2.87.12,2.87-1.69V3.86A3.884,3.884,0,0,0,13.5,0Z" transform="translate(3.32 2)" fill="none" stroke="#fff" stroke-linecap="round" stroke-linejoin="round" stroke-width="1.5"/>
  <path id="Vector-3" data-name="Vector" d="M13.5,0H3.86A3.869,3.869,0,0,0,0,3.86V17.95c0,1.8,1.29,2.56,2.87,1.69l4.88-2.71a2.118,2.118,0,0,1,1.87,0l4.88,2.71c1.58.88,2.87.12,2.87-1.69V3.86A3.884,3.884,0,0,0,13.5,0Z" transform="translate(3.32 2)" fill="none" stroke="#fff" stroke-linecap="round" stroke-linejoin="round" stroke-width="1.5"/>
</svg>
