<svg id="Vuesax_Linear_Microphone_-_2" data-name="Vuesax/Linear/Microphone - 2" xmlns="http://www.w3.org/2000/svg" width="24" height="24" viewBox="0 0 24 24">
  <path id="Vector" d="M4,13.5a4,4,0,0,0,4-4V4A4,4,0,0,0,0,4V9.5A4,4,0,0,0,4,13.5Z" transform="translate(8 2)" fill="none" stroke="#fff" stroke-linecap="round" stroke-linejoin="round" stroke-width="1.5"/>
  <path id="Vector-2" data-name="Vector" d="M0,0V1.7a7.65,7.65,0,1,0,15.3,0V0" transform="translate(4.35 9.65)" fill="none" stroke="#fff" stroke-linecap="round" stroke-linejoin="round" stroke-width="1.5"/>
  <path id="Vector-3" data-name="Vector" d="M0,.248a4.027,4.027,0,0,1,2.78,0" transform="translate(10.61 6.182)" fill="none" stroke="#fff" stroke-linecap="round" stroke-linejoin="round" stroke-width="1.5"/>
  <path id="Vector-4" data-name="Vector" d="M0,.105a3.138,3.138,0,0,1,1.61,0" transform="translate(11.2 8.445)" fill="none" stroke="#fff" stroke-linecap="round" stroke-linejoin="round" stroke-width="1.5"/>
  <path id="Vector-5" data-name="Vector" d="M0,0V3" transform="translate(12 19)" fill="none" stroke="#fff" stroke-linecap="round" stroke-linejoin="round" stroke-width="1.5"/>
</svg>
