<svg id="Vuesax_Bold_Notification_-_Bing" data-name="Vuesax/Bold/Notification - Bing" xmlns="http://www.w3.org/2000/svg" width="24" height="24" viewBox="0 0 24 24">
  <path id="Vector" d="M16.75,12.01l-1.13-1.88a3.956,3.956,0,0,1-.47-1.68V6.58A6.575,6.575,0,1,0,2,6.58V8.44a4.093,4.093,0,0,1-.46,1.68L.41,12a2.656,2.656,0,0,0-.26,2.28,2.63,2.63,0,0,0,1.68,1.57,22.123,22.123,0,0,0,3.28.81c.11.02.22.03.33.05l.44.06c.26.04.52.07.79.09.63.06,1.27.09,1.91.09s1.26-.03,1.88-.09c.23-.02.46-.04.68-.07.18-.02.36-.04.54-.07.11-.01.22-.03.33-.05a21.062,21.062,0,0,0,3.31-.82,2.65,2.65,0,0,0,1.64-1.58A2.609,2.609,0,0,0,16.75,12.01ZM9.31,7.95a.76.76,0,0,1-1.52,0V4.85a.76.76,0,0,1,1.52,0Z" transform="translate(3.44 2.05)" fill="#fff"/>
  <path id="Vector-2" data-name="Vector" d="M5.65.01A3.014,3.014,0,0,1,2.82,2,2.965,2.965,0,0,1,.7,1.11,2.761,2.761,0,0,1,0,0C.13.02.26.03.4.05c.23.03.47.06.71.08.57.05,1.15.08,1.73.08S3.98.18,4.54.13c.21-.02.42-.03.62-.06Z" transform="translate(9.18 20)" fill="#fff"/>
</svg>
