<svg width="24" height="24" viewBox="0 0 24 24" fill="none" xmlns="http://www.w3.org/2000/svg">
<path d="M5.47998 15.6201L5.21997 16.9401C5.09997 17.5201 5.42998 18.2401 5.94998 18.5401L11.27 21.5801C11.68 21.8101 12.35 21.8101 12.76 21.5801L18.08 18.5401C18.6 18.2401 18.92 17.5301 18.81 16.9401L17.1 8.37006C17.06 8.16006 16.92 7.86006 16.78 7.70006L13.18 3.38006C12.55 2.62006 11.51 2.62006 10.88 3.38006L7.27996 7.70006C7.14996 7.86006 6.99996 8.16006 6.95996 8.37006L6.43997 10.9801" stroke="black" stroke-width="1.5" stroke-miterlimit="10" stroke-linecap="round" stroke-linejoin="round"/>
<path d="M16.8097 8.52L12.4697 20.68C12.3097 21.12 11.6897 21.12 11.5297 20.68L7.17969 8.5" stroke="black" stroke-width="1.5" stroke-miterlimit="10" stroke-linecap="round" stroke-linejoin="round"/>
</svg>
