<svg width="24" height="24" viewBox="0 0 24 24" fill="none" xmlns="http://www.w3.org/2000/svg">
<path d="M17 17C19.7614 17 22 14.7614 22 12C22 9.23858 19.7614 7 17 7C14.2386 7 12 9.23858 12 12C12 14.7614 14.2386 17 17 17Z" stroke="black" stroke-width="1.5" stroke-miterlimit="10" stroke-linecap="round" stroke-linejoin="round"/>
<path d="M12 22C14.7614 22 17 19.7614 17 17C17 14.2386 14.7614 12 12 12C9.23858 12 7 14.2386 7 17C7 19.7614 9.23858 22 12 22Z" stroke="black" stroke-width="1.5" stroke-miterlimit="10" stroke-linecap="round" stroke-linejoin="round"/>
<path d="M12 12C14.7614 12 17 9.76142 17 7C17 4.23858 14.7614 2 12 2C9.23858 2 7 4.23858 7 7C7 9.76142 9.23858 12 12 12Z" stroke="black" stroke-width="1.5" stroke-miterlimit="10" stroke-linecap="round" stroke-linejoin="round"/>
<path d="M2.81 9.27C2.3 10.06 2 10.99 2 12C2 14.76 4.24 17 7 17C9.76 17 12 14.76 12 12C12 9.24 9.76 7 7 7C6.65 7 6.31999 7.03 5.98999 7.1" stroke="black" stroke-width="1.5" stroke-miterlimit="10" stroke-linecap="round" stroke-linejoin="round"/>
</svg>
