<svg width="24" height="24" viewBox="0 0 24 24" fill="none" xmlns="http://www.w3.org/2000/svg">
<path d="M6.16925 6.98001L6.57922 4.51001C6.81922 3.06001 8.06924 2 9.53924 2H13.9992C16.7592 2 18.9992 4.24 18.9992 7C18.9992 7.18 18.9892 7.34999 18.9692 7.51999C18.8492 8.96999 18.2092 10.28 17.2392 11.24C16.1592 12.33 14.6592 13 12.9992 13H9.86923C9.36923 13 8.94924 13.37 8.87924 13.86L8.11923 19.14C8.05923 19.53 7.77924 19.85 7.40924 19.95C7.31924 19.99 7.22924 20 7.12924 20H5.17923C4.55923 20 4.08924 19.45 4.18924 18.84L5.42923 11.38" stroke="black" stroke-width="1.5" stroke-miterlimit="10" stroke-linecap="round" stroke-linejoin="round"/>
<path d="M20.9995 11C20.9995 12.38 20.4395 13.63 19.5395 14.54C18.6295 15.44 17.3795 16 15.9995 16H13.8495C13.3595 16 12.9395 16.35 12.8595 16.84L12.1395 21.16C12.0595 21.65 11.6395 22 11.1495 22H8.2195C7.5895 22 7.11949 21.42 7.23949 20.8L7.4095 19.95C7.7795 19.85 8.05949 19.53 8.11949 19.14L8.8795 13.86C8.9495 13.37 9.36949 13 9.86949 13H12.9995C14.6595 13 16.1595 12.33 17.2395 11.24C18.2095 10.28 18.8495 8.97002 18.9695 7.52002C20.1795 8.21002 20.9995 9.51003 20.9995 11Z" stroke="black" stroke-width="1.5" stroke-miterlimit="10"/>
</svg>
