<svg width="24" height="24" viewBox="0 0 24 24" fill="none" xmlns="http://www.w3.org/2000/svg">
<path fill-rule="evenodd" clip-rule="evenodd" d="M17.3098 15.3101C17.0198 15.4701 16.7798 15.5401 16.5798 15.5901C16.4098 15.6301 16.2698 15.6701 16.1498 15.7501C16.0198 15.8301 16.0098 15.96 15.9898 16.08C15.9698 16.19 15.9598 16.2801 15.8798 16.3401C15.7898 16.4001 15.6198 16.4101 15.3898 16.4201C15.0898 16.4401 14.7098 16.4501 14.2498 16.5901C14.0298 16.6701 13.8298 16.7901 13.6298 16.9101C13.2298 17.1601 12.7798 17.4301 11.9898 17.4301C11.2098 17.4301 10.7598 17.1601 10.3598 16.9101C10.1598 16.7801 9.95979 16.66 9.72979 16.58C9.27979 16.44 8.88978 16.4201 8.58978 16.4101C8.35978 16.4001 8.19978 16.39 8.09978 16.33C8.01978 16.28 8.00977 16.1801 7.98977 16.0701C7.96977 15.9501 7.95977 15.8201 7.82977 15.7401C7.70977 15.6601 7.55977 15.6201 7.39977 15.5701C7.19977 15.5201 6.95979 15.46 6.66979 15.3C6.32979 15.11 6.52979 15.0001 6.63979 14.9401C8.56979 14.0101 8.86978 12.5701 8.87978 12.4601C8.87978 12.4501 8.87978 12.4501 8.87978 12.4401C8.89978 12.3201 8.90977 12.2201 8.76977 12.0901C8.67977 12.0001 8.36977 11.8001 8.11977 11.6401C8.00977 11.5601 7.90978 11.5001 7.84978 11.4701C7.56978 11.2701 7.44979 11.08 7.53979 10.83C7.59979 10.66 7.75979 10.6001 7.91979 10.6001C7.96979 10.6001 8.02979 10.6101 8.06979 10.6201C8.24979 10.6601 8.42978 10.7301 8.58978 10.7901C8.69978 10.8401 8.78976 10.8701 8.85976 10.8901C8.87976 10.9001 8.90979 10.9001 8.91979 10.9001C9.01979 10.9001 9.04979 10.8501 9.03979 10.7501C9.03979 10.7201 9.03978 10.6901 9.02978 10.6601C9.00978 10.3101 8.97977 9.70008 9.01977 9.14008C9.09977 8.30008 9.36978 7.87007 9.68978 7.51007C9.84978 7.33007 10.5798 6.56006 11.9698 6.56006C13.3598 6.56006 14.0898 7.33006 14.2498 7.50006C14.5698 7.87006 14.8398 8.29008 14.9198 9.14008C14.9698 9.73008 14.9298 10.3601 14.8998 10.7101V10.7401C14.8898 10.8501 14.9198 10.8901 15.0198 10.8901C15.0398 10.8901 15.0598 10.8901 15.0798 10.8801C15.1498 10.8601 15.2398 10.8301 15.3498 10.7901C15.4998 10.7301 15.6798 10.6601 15.8698 10.6201C15.9198 10.6001 15.9698 10.6001 16.0198 10.6001C16.1898 10.6001 16.3398 10.6701 16.3998 10.8401C16.4898 11.0801 16.3698 11.2701 16.0898 11.4701C16.0398 11.5101 15.9398 11.5801 15.8198 11.6401C15.5798 11.8001 15.2598 12.0001 15.1698 12.0901C15.0298 12.2201 15.0398 12.3201 15.0598 12.4401C15.0598 12.4501 15.0598 12.4601 15.0598 12.4601C15.0798 12.5701 15.3798 14.0101 17.2998 14.9401C17.4498 15.0001 17.6498 15.1201 17.3098 15.3101Z" stroke="black" stroke-width="1.5" stroke-miterlimit="10" stroke-linejoin="round"/>
<path d="M4 6C2.75 7.67 2 9.75 2 12C2 17.52 6.48 22 12 22C17.52 22 22 17.52 22 12C22 6.48 17.52 2 12 2C10.57 2 9.2 2.30001 7.97 2.85001" stroke="#17191C" stroke-width="1.5" stroke-linecap="round" stroke-linejoin="round"/>
</svg>
