<svg width="24" height="24" viewBox="0 0 24 24" fill="none" xmlns="http://www.w3.org/2000/svg">
<path d="M16.9492 16.95C19.6792 14.22 19.6792 9.78005 16.9492 7.05005" stroke="black" stroke-width="1.5" stroke-miterlimit="10" stroke-linecap="round" stroke-linejoin="round"/>
<path d="M7.04945 7.05005C4.31945 9.78005 4.31945 14.22 7.04945 16.95" stroke="black" stroke-width="1.5" stroke-miterlimit="10" stroke-linecap="round" stroke-linejoin="round"/>
<path d="M9.66992 13.63C9.66992 14.53 10.3699 15.26 11.2299 15.26H12.9899C13.7399 15.26 14.3499 14.62 14.3499 13.84C14.3499 12.99 13.9799 12.68 13.4199 12.49L10.6099 11.51C10.0599 11.32 9.6799 11.01 9.6799 10.16C9.6799 9.37 10.2899 8.73999 11.0399 8.73999H12.7999C13.6599 8.73999 14.3599 9.47 14.3599 10.37" stroke="black" stroke-width="1.5" stroke-linecap="round" stroke-linejoin="round"/>
<path d="M12 7.80005V16.2" stroke="black" stroke-width="1.5" stroke-linecap="round" stroke-linejoin="round"/>
<path d="M4 6C2.75 7.67 2 9.75 2 12C2 17.52 6.48 22 12 22C17.52 22 22 17.52 22 12C22 6.48 17.52 2 12 2C10.57 2 9.2 2.3 7.97 2.85" stroke="#17191C" stroke-width="1.5" stroke-linecap="round" stroke-linejoin="round"/>
</svg>
