<svg width="24" height="24" viewBox="0 0 24 24" fill="none" xmlns="http://www.w3.org/2000/svg">
<path d="M9.96055 14.0401V12.9301C9.96055 12.5001 9.64055 12.2901 9.25055 12.4601L4.24055 14.6201C3.45055 14.9601 2.81055 14.5401 2.81055 13.6901V12.3701C2.81055 11.6901 3.32055 10.9001 3.95055 10.6401L9.65055 8.19006C9.81055 8.11006 9.95055 7.90006 9.95055 7.72006V4.66006C9.95055 3.70006 10.6605 2.55006 11.5105 2.11006C11.8105 1.96006 12.1705 1.96006 12.4705 2.11006C13.3305 2.55006 14.0405 3.69006 14.0405 4.65006V7.71006C14.0405 7.89006 14.1805 8.10006 14.3405 8.18006L15.3805 8.62006L9.96055 14.0401Z" fill="#292D32"/>
<path opacity="0.4" d="M21.1892 12.3701V13.6901C21.1892 14.5401 20.5492 14.9601 19.7592 14.6201L14.7492 12.4601C14.3492 12.3001 14.0392 12.5001 14.0392 12.9301V15.8401C14.0392 16.0701 14.1692 16.4001 14.3392 16.5601L16.6592 18.8901C16.8992 19.1301 17.0092 19.6101 16.8992 19.9401L16.4492 21.3001C16.2492 21.8901 15.5792 22.1601 15.0292 21.8901L12.6492 19.8901C12.2892 19.5801 11.6992 19.5801 11.3392 19.8901L8.95918 21.8901C8.40918 22.1701 7.73918 21.8901 7.55918 21.3001L7.10918 19.9401C6.99918 19.6001 7.10918 19.1301 7.34918 18.8901L9.66918 16.5601C9.82918 16.4001 9.95918 16.0701 9.95918 15.8401V14.0401L15.3792 8.62012L20.0492 10.6301C20.6792 10.9001 21.1892 11.6901 21.1892 12.3701Z" fill="#292D32"/>
</svg>
