<svg width="24" height="24" viewBox="0 0 24 24" fill="none" xmlns="http://www.w3.org/2000/svg">
<path opacity="0.4" d="M12 22C17.5228 22 22 17.5228 22 12C22 6.47715 17.5228 2 12 2C6.47715 2 2 6.47715 2 12C2 17.5228 6.47715 22 12 22Z" fill="#292D32"/>
<path d="M17.1493 9.44009C16.7293 8.47009 15.9393 7.7201 14.8493 7.3801V6.59009C14.8493 6.18009 14.5093 5.84009 14.0993 5.84009C13.6893 5.84009 13.3493 6.18009 13.3493 6.59009V7.18008H10.6393V6.59009C10.6393 6.18009 10.2993 5.84009 9.88933 5.84009C9.47933 5.84009 9.13933 6.18009 9.13933 6.59009V7.3801C8.04933 7.7201 7.25931 8.47009 6.83931 9.44009C6.69931 9.77009 6.93931 10.1501 7.29931 10.1501H16.6693C17.0493 10.1401 17.2893 9.77009 17.1493 9.44009Z" fill="#292D32"/>
<path d="M17 11.1401C17.28 11.1401 17.5 11.3601 17.5 11.6401V14.1701C17.5 16.3701 16 18.1701 13.5 18.1701H10.5C8 18.1701 6.5 16.3701 6.5 14.1701V11.6401C6.5 11.3601 6.72 11.1401 7 11.1401H17Z" fill="#292D32"/>
</svg>
