<svg width="24" height="24" viewBox="0 0 24 24" fill="none" xmlns="http://www.w3.org/2000/svg">
<path d="M13.47 14.3899H10.53C9.26 14.3899 8.5 15.1499 8.5 16.4199V19.3599C8.5 20.6299 9.26 21.3899 10.53 21.3899H13.47C14.74 21.3899 15.5 20.6299 15.5 19.3599V16.4199C15.5 15.1499 14.74 14.3899 13.47 14.3899ZM13.97 18.9399C14.22 19.1899 14.22 19.5999 13.97 19.8499C13.84 19.9699 13.68 20.0299 13.51 20.0299C13.35 20.0299 13.19 19.9699 13.06 19.8499L12 18.7899L10.95 19.8499C10.82 19.9699 10.66 20.0299 10.49 20.0299C10.33 20.0299 10.17 19.9699 10.04 19.8499C9.79 19.5999 9.79 19.1899 10.04 18.9399L11.1 17.8799L10.04 16.8299C9.79 16.5799 9.79 16.1699 10.04 15.9199C10.29 15.6699 10.7 15.6699 10.95 15.9199L12 16.9799L13.06 15.9199C13.31 15.6699 13.72 15.6699 13.97 15.9199C14.22 16.1699 14.22 16.5799 13.97 16.8299L12.91 17.8799L13.97 18.9399Z" fill="#292D32"/>
<path opacity="0.4" d="M21.74 11.7401C21.13 9.74005 19.61 8.30005 17.7 7.87005C17.14 5.37005 15.6 3.58005 13.42 2.90005C11.04 2.17005 8.28 2.88005 6.55 4.69005C5.02 6.28005 4.52 8.47005 5.11 10.8001C2.98 11.3201 2 13.1801 2 14.8601C2 16.7401 3.23 18.8501 5.97 19.0401H8.5V16.4101C8.5 15.1401 9.26 14.3801 10.53 14.3801H13.47C14.74 14.3801 15.5 15.1401 15.5 16.4101V19.0401H16.31C16.32 19.0401 16.34 19.0401 16.35 19.0401C17.77 19.0401 19.13 18.5101 20.17 17.5601C21.8 16.1401 22.4 13.9101 21.74 11.7401Z" fill="#292D32"/>
</svg>
