<svg width="24" height="24" viewBox="0 0 24 24" fill="none" xmlns="http://www.w3.org/2000/svg">
<path opacity="0.4" d="M21.7605 15.92L15.3605 4.4C14.5005 2.85 13.3105 2 12.0005 2C10.6905 2 9.50047 2.85 8.64047 4.4L2.24047 15.92C1.43047 17.39 1.34047 18.8 1.99047 19.91C2.64047 21.02 3.92047 21.63 5.60047 21.63H18.4005C20.0805 21.63 21.3605 21.02 22.0105 19.91C22.6605 18.8 22.5705 17.38 21.7605 15.92Z" fill="#292D32"/>
<path d="M12 14.75C11.59 14.75 11.25 14.41 11.25 14V9C11.25 8.59 11.59 8.25 12 8.25C12.41 8.25 12.75 8.59 12.75 9V14C12.75 14.41 12.41 14.75 12 14.75Z" fill="#292D32"/>
<path d="M12 18.0001C11.94 18.0001 11.87 17.9901 11.8 17.9801C11.74 17.9701 11.68 17.9501 11.62 17.9201C11.56 17.9001 11.5 17.8701 11.44 17.8301C11.39 17.7901 11.34 17.7501 11.29 17.7101C11.11 17.5201 11 17.2601 11 17.0001C11 16.7401 11.11 16.4801 11.29 16.2901C11.34 16.2501 11.39 16.2101 11.44 16.1701C11.5 16.1301 11.56 16.1001 11.62 16.0801C11.68 16.0501 11.74 16.0301 11.8 16.0201C11.93 15.9901 12.07 15.9901 12.19 16.0201C12.26 16.0301 12.32 16.0501 12.38 16.0801C12.44 16.1001 12.5 16.1301 12.56 16.1701C12.61 16.2101 12.66 16.2501 12.71 16.2901C12.89 16.4801 13 16.7401 13 17.0001C13 17.2601 12.89 17.5201 12.71 17.7101C12.66 17.7501 12.61 17.7901 12.56 17.8301C12.5 17.8701 12.44 17.9001 12.38 17.9201C12.32 17.9501 12.26 17.9701 12.19 17.9801C12.13 17.9901 12.06 18.0001 12 18.0001Z" fill="#292D32"/>
</svg>
