<svg width="24" height="24" viewBox="0 0 24 24" fill="none" xmlns="http://www.w3.org/2000/svg">
<path opacity="0.4" d="M15.48 3H7.52C4.07 3 2 5.06 2 8.52V16.47C2 19.94 4.07 22 7.52 22H15.47C18.93 22 20.99 19.94 20.99 16.48V8.52C21 5.06 18.93 3 15.48 3Z" fill="#292D32"/>
<path d="M21.0195 2.97979C19.2295 1.17979 17.4795 1.13979 15.6395 2.97979L14.5095 4.09979C14.4095 4.19979 14.3795 4.33979 14.4195 4.46979C15.1195 6.91979 17.0795 8.87979 19.5295 9.57979C19.5595 9.58979 19.6095 9.58979 19.6395 9.58979C19.7395 9.58979 19.8395 9.54979 19.9095 9.47979L21.0195 8.35979C21.9295 7.44979 22.3795 6.57979 22.3795 5.68979C22.3795 4.78979 21.9295 3.89979 21.0195 2.97979Z" fill="#292D32"/>
<path d="M17.8591 10.4198C17.5891 10.2898 17.3291 10.1598 17.0891 10.0098C16.8891 9.88984 16.6891 9.75984 16.4991 9.61984C16.3391 9.51984 16.1591 9.36984 15.9791 9.21984C15.9591 9.20984 15.8991 9.15984 15.8191 9.07984C15.5091 8.82984 15.1791 8.48984 14.8691 8.11984C14.8491 8.09984 14.7891 8.03984 14.7391 7.94984C14.6391 7.83984 14.4891 7.64984 14.3591 7.43984C14.2491 7.29984 14.1191 7.09984 13.9991 6.88984C13.8491 6.63984 13.7191 6.38984 13.5991 6.12984C13.4691 5.84984 13.3691 5.58984 13.2791 5.33984L7.89912 10.7198C7.54912 11.0698 7.20912 11.7298 7.13912 12.2198L6.70912 15.1998C6.61912 15.8298 6.78912 16.4198 7.17912 16.8098C7.50912 17.1398 7.95912 17.3098 8.45912 17.3098C8.56912 17.3098 8.67912 17.2998 8.78912 17.2898L11.7591 16.8698C12.2491 16.7998 12.9091 16.4698 13.2591 16.1098L18.6391 10.7298C18.3891 10.6498 18.1391 10.5398 17.8591 10.4198Z" fill="#292D32"/>
</svg>
