<svg width="25" height="24" viewBox="0 0 25 24" fill="none" xmlns="http://www.w3.org/2000/svg">
<path opacity="0.4" d="M19.9416 12.6049H21.9077V11.2033C21.9077 9.18843 20.2628 7.54346 18.2479 7.54346H7.07386C5.05903 7.54346 3.41406 9.18843 3.41406 11.2033V15.4568C4.08567 14.9215 4.93249 14.6003 5.84744 14.6003C7.99855 14.6003 9.74084 16.3425 9.74084 18.4937C9.74084 19.2237 9.53644 19.9147 9.1763 20.4988C8.97189 20.8492 8.70909 21.1606 8.40735 21.4137H18.2479C20.2628 21.4137 21.9077 19.7687 21.9077 17.7539V16.5956H20.0584C19.0071 16.5956 18.0435 15.8267 17.9559 14.7754C17.8975 14.1622 18.1311 13.588 18.5399 13.1889C18.9001 12.819 19.3965 12.6049 19.9416 12.6049Z" fill="#292D32"/>
<path d="M15.4349 3.84478V7.5435H7.07386C5.05903 7.5435 3.41406 9.18847 3.41406 11.2033V7.63113C3.41406 6.47284 4.12461 5.44105 5.20502 5.03224L12.9334 2.11219C14.1404 1.66445 15.4349 2.55022 15.4349 3.84478Z" fill="#292D32"/>
<path d="M22.9417 13.5978V15.6029C22.9417 16.1383 22.5134 16.5762 21.9683 16.5957H20.0605C19.0093 16.5957 18.0457 15.8268 17.9581 14.7755C17.8997 14.1623 18.1333 13.588 18.5421 13.189C18.9022 12.8191 19.3987 12.605 19.9437 12.605H21.9683C22.5134 12.6244 22.9417 13.0624 22.9417 13.5978Z" fill="#292D32"/>
<path d="M14.6079 12.4102H7.79447C7.39539 12.4102 7.06445 12.0793 7.06445 11.6802C7.06445 11.2811 7.39539 10.9502 7.79447 10.9502H14.6079C15.007 10.9502 15.3379 11.2811 15.3379 11.6802C15.3379 12.0793 15.007 12.4102 14.6079 12.4102Z" fill="#292D32"/>
<path d="M8.60071 15.7408C7.95374 15.0939 7.12782 14.7222 6.27438 14.6259C5.13874 14.4951 3.96182 14.8736 3.0946 15.7408C2.57841 16.257 2.23428 16.8902 2.07598 17.5579C1.75249 18.8311 2.08974 20.2421 3.0946 21.2469C3.78975 21.9421 4.67761 22.3206 5.593 22.3688C5.98531 22.4032 6.39138 22.3688 6.78369 22.2656C7.45131 22.1073 8.08451 21.7631 8.60071 21.2469C10.1218 19.7259 10.1218 17.2619 8.60071 15.7408ZM5.13185 17.0348C5.13185 16.6356 5.46221 16.3052 5.8614 16.3052C6.26748 16.3121 6.59096 16.6356 6.59784 17.0417L6.59099 17.7643L7.28614 17.7574C7.69221 17.7643 8.0157 18.0878 8.02258 18.4939C8.0157 18.9 7.69221 19.2235 7.28613 19.2303L6.59099 19.2234L6.59785 19.9461C6.59097 20.3522 6.26748 20.6757 5.86141 20.6826C5.66181 20.6757 5.48289 20.5931 5.35212 20.4623C5.22135 20.3315 5.13873 20.1526 5.13185 19.953L5.13187 19.2234L4.37479 19.2234C4.16831 19.2234 3.98934 19.1409 3.85857 19.0101C3.7278 18.8793 3.64523 18.7004 3.64523 18.4939C3.64523 18.0947 3.9756 17.7643 4.37479 17.7643L5.13187 17.7643L5.13185 17.0348Z" fill="#292D32"/>
</svg>
