<svg width="24" height="24" viewBox="0 0 24 24" fill="none" xmlns="http://www.w3.org/2000/svg">
<path opacity="0.4" d="M20.5996 4.1001V6.3001C20.5996 7.1001 20.0996 8.1001 19.5996 8.6001L15.2996 12.4001C14.6996 12.9001 14.2996 13.9001 14.2996 14.7001V19.0001C14.2996 19.6001 13.8996 20.4001 13.3996 20.7001L11.9996 21.6001C10.6996 22.4001 8.89961 21.5001 8.89961 19.9001V14.6001C8.89961 13.9001 8.49961 13.0001 8.09961 12.5001L7.09961 11.4501L12.9196 2.1001H18.5996C19.6996 2.1001 20.5996 3.0001 20.5996 4.1001Z" fill="#292D32"/>
<path d="M11.3004 2.1001L6.12039 10.4101L4.30039 8.5001C3.80039 8.0001 3.40039 7.1001 3.40039 6.5001V4.2001C3.40039 3.0001 4.30039 2.1001 5.40039 2.1001H11.3004Z" fill="#292D32"/>
</svg>
