<svg width="24" height="24" viewBox="0 0 24 24" fill="none" xmlns="http://www.w3.org/2000/svg">
<path opacity="0.4" d="M11.9707 22C17.4936 22 21.9707 17.5228 21.9707 12C21.9707 6.47715 17.4936 2 11.9707 2C6.44786 2 1.9707 6.47715 1.9707 12C1.9707 17.5228 6.44786 22 11.9707 22Z" fill="#292D32"/>
<path d="M15.2505 11.2999H13.5505V7.33993C13.5505 6.41993 13.0505 6.22993 12.4405 6.91993L12.0005 7.41993L8.28045 11.6499C7.77045 12.2299 7.98045 12.6999 8.75045 12.6999H10.4505V16.6599C10.4505 17.5799 10.9505 17.7699 11.5605 17.0799L12.0005 16.5799L15.7205 12.3499C16.2305 11.7699 16.0205 11.2999 15.2505 11.2999Z" fill="#292D32"/>
</svg>
