<svg width="24" height="24" viewBox="0 0 24 24" fill="none" xmlns="http://www.w3.org/2000/svg">
<path d="M14.4294 16.9198H12.1395C11.7295 16.9198 11.3895 16.5798 11.3895 16.1698C11.3895 15.7598 11.7295 15.4198 12.1395 15.4198H14.4294C14.8594 15.4198 15.2095 15.0698 15.2095 14.6398C15.2095 14.2098 14.8594 13.8598 14.4294 13.8598H12.1395C11.8995 13.8598 11.6695 13.7398 11.5295 13.5498C11.3895 13.3598 11.3494 13.0998 11.4294 12.8698L12.1894 10.5798C12.2894 10.2698 12.5795 10.0698 12.8995 10.0698H15.9595C16.3695 10.0698 16.7095 10.4098 16.7095 10.8198C16.7095 11.2298 16.3695 11.5698 15.9595 11.5698H13.4394L13.1794 12.3598H14.4294C15.6894 12.3598 16.7095 13.3798 16.7095 14.6398C16.7095 15.8998 15.6794 16.9198 14.4294 16.9198Z" fill="#292D32"/>
<path d="M9.53955 16.9198C9.12955 16.9198 8.78955 16.5798 8.78955 16.1698V12.7799L8.59955 12.9998C8.31955 13.3098 7.84955 13.3298 7.53955 13.0598C7.22955 12.7798 7.20955 12.3098 7.47955 11.9998L8.97955 10.3298C9.18955 10.0998 9.51957 10.0198 9.80957 10.1298C10.0996 10.2398 10.2895 10.5198 10.2895 10.8298V16.1798C10.2895 16.5898 9.95955 16.9198 9.53955 16.9198Z" fill="#292D32"/>
<path opacity="0.4" d="M19.6898 7.35021C19.4398 7.02021 18.9698 6.95025 18.6398 7.20025C18.3098 7.45025 18.2398 7.92024 18.4898 8.25024C19.5698 9.69024 20.1398 11.3702 20.1398 13.1102C20.1398 17.6002 16.4898 21.2502 11.9998 21.2502C7.50982 21.2502 3.8598 17.6002 3.8598 13.1102C3.8598 8.62022 7.50982 4.97021 11.9998 4.97021C12.5798 4.97021 13.1698 5.04024 13.8098 5.19024C13.8398 5.20024 13.8698 5.19024 13.8998 5.19024C13.9298 5.19024 13.9498 5.21026 13.9698 5.21026C13.9998 5.21026 14.0198 5.20025 14.0498 5.20025C14.0798 5.20025 14.1098 5.19023 14.1498 5.18023C14.2098 5.17023 14.2598 5.14023 14.3098 5.12023C14.3398 5.10023 14.3698 5.09024 14.3998 5.07024C14.4098 5.06024 14.4298 5.06022 14.4398 5.05022C14.4698 5.03022 14.4798 5.00022 14.4998 4.98022C14.5398 4.94022 14.5698 4.91022 14.5998 4.86022C14.6298 4.82022 14.6398 4.77021 14.6598 4.72021C14.6698 4.69021 14.6898 4.66024 14.6998 4.63024C14.6998 4.61024 14.6998 4.60025 14.6998 4.58025C14.7098 4.53025 14.7098 4.48023 14.6998 4.43023C14.6998 4.38023 14.6998 4.34021 14.6898 4.29021C14.6798 4.25021 14.6598 4.21021 14.6398 4.16021C14.6198 4.11021 14.5998 4.06026 14.5698 4.02026C14.5598 4.01026 14.5598 3.99022 14.5498 3.98022L12.5698 1.51025C12.3098 1.19025 11.8398 1.13025 11.5198 1.39025C11.1998 1.65025 11.1498 2.12024 11.3998 2.44024L12.2198 3.46026C12.1398 3.46026 12.0598 3.45025 11.9798 3.45025C6.6698 3.45025 2.33984 7.77026 2.33984 13.0903C2.33984 18.4103 6.6598 22.7302 11.9798 22.7302C17.2998 22.7302 21.6198 18.4103 21.6198 13.0903C21.6398 11.0403 20.9598 9.05021 19.6898 7.35021Z" fill="#292D32"/>
</svg>
