<svg width="24" height="24" viewBox="0 0 24 24" fill="none" xmlns="http://www.w3.org/2000/svg">
<path opacity="0.4" d="M12 22C17.5228 22 22 17.5228 22 12C22 6.47715 17.5228 2 12 2C6.47715 2 2 6.47715 2 12C2 17.5228 6.47715 22 12 22Z" fill="#292D32"/>
<path d="M12.3296 16.9999C12.1496 17.0599 11.8396 17.0599 11.6596 16.9999C10.0996 16.4699 6.59961 14.2399 6.59961 10.4599C6.59961 8.78993 7.93961 7.43994 9.59961 7.43994C10.5796 7.43994 11.4496 7.90993 11.9996 8.64993C12.5396 7.91993 13.4196 7.43994 14.3996 7.43994C16.0596 7.43994 17.3996 8.78993 17.3996 10.4599C17.3996 14.2399 13.8996 16.4699 12.3296 16.9999Z" fill="#292D32"/>
</svg>
