<svg width="24" height="24" viewBox="0 0 24 24" fill="none" xmlns="http://www.w3.org/2000/svg">
<path opacity="0.4" d="M20.0402 6.81994L14.2802 2.78994C12.7102 1.68994 10.3002 1.74994 8.79023 2.91994L3.78023 6.82994C2.78023 7.60994 1.99023 9.20994 1.99023 10.4699V17.3699C1.99023 19.9199 4.06023 21.9999 6.61023 21.9999H17.3902C19.9402 21.9999 22.0102 19.9299 22.0102 17.3799V10.5999C22.0102 9.24994 21.1402 7.58994 20.0402 6.81994Z" fill="#292D32"/>
<path d="M12 18.75C11.59 18.75 11.25 18.41 11.25 18V15C11.25 14.59 11.59 14.25 12 14.25C12.41 14.25 12.75 14.59 12.75 15V18C12.75 18.41 12.41 18.75 12 18.75Z" fill="#292D32"/>
</svg>
