<svg width="24" height="24" viewBox="0 0 24 24" fill="none" xmlns="http://www.w3.org/2000/svg">
<path opacity="0.4" d="M13.1502 15.3699C12.9302 15.0499 12.5401 14.8699 12.0901 14.8699H9.76015C9.61015 14.8699 9.46016 14.8099 9.37016 14.6899C9.27016 14.5699 9.23015 14.4199 9.25015 14.2499L9.54015 12.3899C9.66015 11.8399 9.29015 11.2099 8.74015 11.0199C8.22015 10.8299 7.62016 11.0899 7.37016 11.4599L4.98016 15.0099L4.91016 15.1299V20.1499L5.00015 20.2398L6.80016 21.6299C7.04016 21.8699 7.58015 21.9999 7.96015 21.9999H10.1702C10.9302 21.9999 11.6902 21.4298 11.8702 20.7298L13.2701 16.4798C13.4101 16.0698 13.3702 15.6799 13.1502 15.3699Z" fill="#292D32"/>
<path d="M3.82 13.2998H3.24C2.36 13.2998 2 13.6398 2 14.4798V20.1898C2 21.0298 2.36 21.3698 3.24 21.3698H3.82C4.7 21.3698 5.06 21.0298 5.06 20.1898V14.4798C5.06 13.6398 4.7 13.2998 3.82 13.2998Z" fill="#292D32"/>
<path opacity="0.4" d="M11.1997 8.59998C11.4197 8.91998 11.8097 9.09998 12.2597 9.09998H14.5897C14.7397 9.09998 14.8897 9.16003 14.9797 9.28003C15.0797 9.40003 15.1197 9.54997 15.0997 9.71997L14.8097 11.58C14.6897 12.13 15.0597 12.76 15.6097 12.95C16.1297 13.14 16.7297 12.88 16.9797 12.51L19.3697 8.96002L19.4397 8.84003V3.82001L19.3497 3.72998L17.5497 2.34003C17.3097 2.10003 16.7697 1.96997 16.3897 1.96997H14.1797C13.4197 1.96997 12.6597 2.53999 12.4797 3.23999L11.0797 7.48999C10.9397 7.88999 10.9797 8.28998 11.1997 8.59998Z" fill="#292D32"/>
<path d="M20.5291 10.6701H21.1091C21.9891 10.6701 22.3491 10.3301 22.3491 9.49011V3.78015C22.3491 2.94015 21.9891 2.6001 21.1091 2.6001H20.5291C19.6491 2.6001 19.2891 2.94015 19.2891 3.78015V9.49011C19.2891 10.3301 19.6491 10.6701 20.5291 10.6701Z" fill="#292D32"/>
</svg>
