<svg width="24" height="24" viewBox="0 0 24 24" fill="none" xmlns="http://www.w3.org/2000/svg">
<path opacity="0.4" d="M16.1898 2H7.81976C4.17976 2 2.00977 4.17 2.00977 7.81V16.18C2.00977 19.82 4.17976 21.99 7.81976 21.99H16.1898C19.8298 21.99 21.9998 19.82 21.9998 16.18V7.81C21.9998 4.17 19.8298 2 16.1898 2Z" fill="#292D32"/>
<path d="M16.1407 6.7099C15.8007 6.4499 15.2007 6.1999 14.2407 6.4599L11.2507 7.27991C10.3207 7.52991 9.71075 8.31986 9.71075 9.28986V11.0399V13.0699C9.50075 13.0099 9.29073 12.9698 9.06073 12.9698C7.77073 12.9698 6.7207 14.0199 6.7207 15.3099C6.7207 16.5999 7.77073 17.6499 9.06073 17.6499C10.3407 17.6499 11.3808 16.6099 11.4008 15.3399C11.4008 15.3299 11.4107 15.3199 11.4107 15.3099V11.6899L15.1907 10.6599V12.0799C14.9807 12.0199 14.7707 11.9799 14.5407 11.9799C13.2507 11.9799 12.2007 13.0299 12.2007 14.3199C12.2007 15.6099 13.2507 16.6599 14.5407 16.6599C15.8307 16.6599 16.8807 15.6099 16.8807 14.3199V9.55988V8.48987C16.8807 7.48987 16.4707 6.9699 16.1407 6.7099ZM9.06073 15.9599C8.70073 15.9599 8.41071 15.6699 8.41071 15.3099C8.41071 14.9499 8.70073 14.6599 9.06073 14.6599C9.42073 14.6599 9.71075 14.9499 9.71075 15.3099C9.71075 15.6699 9.42073 15.9599 9.06073 15.9599ZM14.5407 14.9599C14.1807 14.9599 13.8907 14.6699 13.8907 14.3099C13.8907 13.9499 14.1807 13.6599 14.5407 13.6599C14.9007 13.6599 15.1907 13.9499 15.1907 14.3099C15.1807 14.6699 14.8907 14.9599 14.5407 14.9599Z" fill="#292D32"/>
</svg>
