<svg width="24" height="24" viewBox="0 0 24 24" fill="none" xmlns="http://www.w3.org/2000/svg">
<path d="M10.2894 10.3398V18.4098C10.2894 20.3898 8.66937 21.9998 6.69937 21.9998C4.71937 21.9998 3.10938 20.3898 3.10938 18.4098C3.10938 16.4398 4.71937 14.8298 6.69937 14.8298C7.52938 14.8298 8.27938 15.1198 8.88938 15.5898V10.7398L10.2894 10.3398Z" fill="#292D32"/>
<path d="M20.8909 7.31982V16.4798C20.8909 18.4598 19.2809 20.0698 17.3009 20.0698C15.3309 20.0698 13.7109 18.4598 13.7109 16.4798C13.7109 14.5098 15.3309 12.8998 17.3009 12.8998C18.1409 12.8998 18.8909 13.1898 19.5009 13.6698V7.71982L20.8909 7.31982Z" fill="#292D32"/>
<path opacity="0.4" d="M20.8906 5.18007V7.32007L8.89062 10.7401V6.75007C8.89062 5.28007 9.78062 4.14007 11.1906 3.76007L16.9706 2.18007C18.1406 1.86007 19.1306 1.97007 19.8306 2.51007C20.5406 3.04007 20.8906 3.94007 20.8906 5.18007Z" fill="#292D32"/>
</svg>
