<svg width="24" height="24" viewBox="0 0 24 24" fill="none" xmlns="http://www.w3.org/2000/svg">
<path opacity="0.4" d="M21.6602 10.44L20.6802 14.62C19.8402 18.23 18.1802 19.69 15.0602 19.39C14.5602 19.35 14.0202 19.26 13.4402 19.12L11.7602 18.72C7.59018 17.73 6.30018 15.67 7.28018 11.49L8.26018 7.30001C8.46018 6.45001 8.70018 5.71001 9.00018 5.10001C10.1702 2.68001 12.1602 2.03001 15.5002 2.82001L17.1702 3.21001C21.3602 4.19001 22.6402 6.26001 21.6602 10.44Z" fill="#292D32"/>
<path d="M15.0603 19.3901C14.4403 19.8101 13.6603 20.1601 12.7103 20.4701L11.1303 20.9901C7.16034 22.2701 5.07034 21.2001 3.78034 17.2301L2.50034 13.2801C1.22034 9.3101 2.28034 7.2101 6.25034 5.9301L7.83034 5.4101C8.24034 5.2801 8.63034 5.1701 9.00034 5.1001C8.70034 5.7101 8.46034 6.4501 8.26034 7.3001L7.28034 11.4901C6.30034 15.6701 7.59034 17.7301 11.7603 18.7201L13.4403 19.1201C14.0203 19.2601 14.5603 19.3501 15.0603 19.3901Z" fill="#292D32"/>
<path d="M17.4894 10.51C17.4294 10.51 17.3694 10.5 17.2994 10.49L12.4494 9.26002C12.0494 9.16002 11.8094 8.75002 11.9094 8.35002C12.0094 7.95002 12.4194 7.71002 12.8194 7.81002L17.6694 9.04002C18.0694 9.14002 18.3094 9.55002 18.2094 9.95002C18.1294 10.28 17.8194 10.51 17.4894 10.51Z" fill="#292D32"/>
<path d="M14.5592 13.8899C14.4992 13.8899 14.4392 13.8799 14.3692 13.8699L11.4592 13.1299C11.0592 13.0299 10.8192 12.6199 10.9192 12.2199C11.0192 11.8199 11.4292 11.5799 11.8292 11.6799L14.7392 12.4199C15.1392 12.5199 15.3792 12.9299 15.2792 13.3299C15.1992 13.6699 14.8992 13.8899 14.5592 13.8899Z" fill="#292D32"/>
</svg>
