<svg width="24" height="24" viewBox="0 0 24 24" fill="none" xmlns="http://www.w3.org/2000/svg">
<path d="M16 15V19C16 20.66 14.66 22 13 22H11C9.34 22 8 20.66 8 19V15H16Z" fill="#292D32"/>
<path d="M7 7V5C7 3.34 8.34 2 10 2H14C15.66 2 17 3.34 17 5V7H7Z" fill="#292D32"/>
<path opacity="0.4" d="M18 7H6C4 7 3 8 3 10V15C3 17 4 18 6 18H8V15H16V18H18C20 18 21 17 21 15V10C21 8 20 7 18 7ZM10 11.75H7C6.59 11.75 6.25 11.41 6.25 11C6.25 10.59 6.59 10.25 7 10.25H10C10.41 10.25 10.75 10.59 10.75 11C10.75 11.41 10.41 11.75 10 11.75Z" fill="#292D32"/>
<path d="M10.75 11C10.75 11.41 10.41 11.75 10 11.75H7C6.59 11.75 6.25 11.41 6.25 11C6.25 10.59 6.59 10.25 7 10.25H10C10.41 10.25 10.75 10.59 10.75 11Z" fill="#292D32"/>
<path d="M17 15.75H7C6.59 15.75 6.25 15.41 6.25 15C6.25 14.59 6.59 14.25 7 14.25H17C17.41 14.25 17.75 14.59 17.75 15C17.75 15.41 17.41 15.75 17 15.75Z" fill="#292D32"/>
</svg>
