<svg width="24" height="24" viewBox="0 0 24 24" fill="none" xmlns="http://www.w3.org/2000/svg">
<path d="M19 16.01V18C19 20.2 17.5 22 15 22H9C6.5 22 5 20.2 5 18V16.01H19Z" fill="#292D32"/>
<path opacity="0.4" d="M19 6V16.01H5V6C5 3.8 6.5 2 9 2H15C17.5 2 19 3.8 19 6Z" fill="#292D32"/>
<path d="M3 20.75C2.59 20.75 2.25 20.41 2.25 20V4C2.25 3.59 2.59 3.25 3 3.25C3.41 3.25 3.75 3.59 3.75 4V20C3.75 20.41 3.41 20.75 3 20.75Z" fill="#292D32"/>
<path d="M21 20.75C20.59 20.75 20.25 20.41 20.25 20V4C20.25 3.59 20.59 3.25 21 3.25C21.41 3.25 21.75 3.59 21.75 4V20C21.75 20.41 21.41 20.75 21 20.75Z" fill="#292D32"/>
</svg>
