<svg width="24" height="24" viewBox="0 0 24 24" fill="none" xmlns="http://www.w3.org/2000/svg">
<path opacity="0.4" d="M16.1694 10.0601H7.82933C6.64933 10.0601 6.23934 9.27007 6.92934 8.31007L11.0994 2.47007C11.5894 1.77007 12.4093 1.77007 12.8993 2.47007L17.0694 8.31007C17.7594 9.27007 17.3494 10.0601 16.1694 10.0601Z" fill="#292D32"/>
<path d="M17.5896 18.0001H6.4096C4.8296 18.0001 4.2896 16.9501 5.2196 15.6701L9.20959 10.0601H14.7896L18.7796 15.6701C19.7096 16.9501 19.1696 18.0001 17.5896 18.0001Z" fill="#292D32"/>
<path d="M12.75 18V22C12.75 22.41 12.41 22.75 12 22.75C11.59 22.75 11.25 22.41 11.25 22V18H12.75Z" fill="#292D32"/>
</svg>
