<svg width="24" height="24" viewBox="0 0 24 24" fill="none" xmlns="http://www.w3.org/2000/svg">
<path d="M22 12.75H18C17.59 12.75 17.25 12.41 17.25 12C17.25 11.59 17.59 11.25 18 11.25H22C22.41 11.25 22.75 11.59 22.75 12C22.75 12.41 22.41 12.75 22 12.75Z" fill="#292D32"/>
<path opacity="0.4" d="M15.75 7.41021V16.5902C15.75 18.3102 15.13 19.6002 14.02 20.2202C13.57 20.4702 13.07 20.5902 12.55 20.5902C11.75 20.5902 10.89 20.3202 10.01 19.7702L7.09 17.9402C6.89 17.8202 6.66 17.7502 6.43 17.7502H5.5V6.25021H6.43C6.66 6.25021 6.89 6.18021 7.09 6.06021L10.01 4.23021C11.47 3.32021 12.9 3.16021 14.02 3.78021C15.13 4.40021 15.75 5.69021 15.75 7.41021Z" fill="#292D32"/>
<path d="M5.5 6.25V17.75H5C2.58 17.75 1.25 16.42 1.25 14V10C1.25 7.58 2.58 6.25 5 6.25H5.5Z" fill="#292D32"/>
</svg>
