<svg width="24" height="24" viewBox="0 0 24 24" fill="none" xmlns="http://www.w3.org/2000/svg">
<path d="M3.41016 11.3686V14.5486C3.41016 15.7286 4.19017 17.2786 5.14017 17.9886L9.44016 21.1986C10.8502 22.2586 13.1701 22.2586 14.5801 21.1986L18.8802 17.9886C19.8302 17.2786 20.6101 15.7286 20.6101 14.5486V7.11859C20.6101 5.88859 19.6701 4.52859 18.5201 4.09859L13.5302 2.22859C12.7002 1.91859 11.3402 1.91859 10.5102 2.22859L5.52014 4.09859C4.37014 4.52859 3.43015 5.88859 3.43015 7.11859" stroke="#292D32" stroke-width="1.5" stroke-linecap="round" stroke-linejoin="round"/>
<path d="M16 11.5C16 9.29 14.21 7.5 12 7.5C9.79 7.5 8 9.29 8 11.5C8 13.71 9.79 15.5 12 15.5C12.71 15.5 13.37 15.32 13.95 14.99" stroke="#292D32" stroke-width="1.5" stroke-miterlimit="10" stroke-linecap="round" stroke-linejoin="round"/>
<path d="M12.25 10.25V11.18C12.25 11.53 12.07 11.86 11.76 12.04L11 12.5" stroke="#292D32" stroke-width="1.5" stroke-miterlimit="10" stroke-linecap="round" stroke-linejoin="round"/>
</svg>
