<svg width="24" height="24" viewBox="0 0 24 24" fill="none" xmlns="http://www.w3.org/2000/svg">
<path d="M12 8V13" stroke="#292D32" stroke-width="1.5" stroke-linecap="round" stroke-linejoin="round"/>
<path d="M8.00977 5.46C9.20977 4.85 10.5598 4.5 11.9998 4.5C16.8298 4.5 20.7498 8.42 20.7498 13.25" stroke="#292D32" stroke-width="1.5" stroke-linecap="round" stroke-linejoin="round"/>
<path d="M12 21.9983C7.17 21.9983 3.25 18.0783 3.25 13.2483C3.25 11.2683 3.91 9.44828 5.01 7.98828" stroke="#292D32" stroke-width="1.5" stroke-linecap="round" stroke-linejoin="round"/>
<path d="M9 2H15" stroke="#292D32" stroke-width="1.5" stroke-miterlimit="10" stroke-linecap="round" stroke-linejoin="round"/>
<path d="M14.9004 18.5017V17.3417C14.9004 15.9117 15.9204 15.3217 17.1604 16.0417L18.1604 16.6217L19.1604 17.2017C20.4004 17.9217 20.4004 19.0917 19.1604 19.8117L18.1604 20.3917L17.1604 20.9717C15.9204 21.6917 14.9004 21.1017 14.9004 19.6717V18.5017Z" stroke="#292D32" stroke-width="1.5" stroke-miterlimit="10" stroke-linecap="round" stroke-linejoin="round"/>
</svg>
