<svg width="24" height="24" viewBox="0 0 24 24" fill="none" xmlns="http://www.w3.org/2000/svg">
<path d="M11.9987 13.0807C11.8687 13.0807 11.7386 13.0507 11.6186 12.9807L6.31866 9.92068C5.95866 9.71068 5.83864 9.25068 6.04864 8.90068C6.25864 8.54068 6.70864 8.42068 7.07864 8.63068L11.9987 11.4807L16.8887 8.65068C17.2487 8.44068 17.7087 8.57068 17.9187 8.92068C18.1287 9.28068 17.9986 9.74068 17.6486 9.94068L12.3887 12.9807C12.2587 13.0407 12.1287 13.0807 11.9987 13.0807Z" fill="#292D32"/>
<path d="M12 18.5181C11.59 18.5181 11.25 18.1781 11.25 17.7681V12.3281C11.25 11.9181 11.59 11.5781 12 11.5781C12.41 11.5781 12.75 11.9181 12.75 12.3281V17.7681C12.75 18.1781 12.41 18.5181 12 18.5181Z" fill="#292D32"/>
<path d="M12.0022 18.7508C11.4222 18.7508 10.8522 18.6208 10.3922 18.3708L7.1922 16.5908C6.2322 16.0608 5.49219 14.7908 5.49219 13.6908V10.3008C5.49219 9.21078 6.2422 7.93078 7.1922 7.40078L10.3922 5.62078C11.3122 5.11078 12.6922 5.11078 13.6122 5.62078L16.8122 7.40078C17.7722 7.93078 18.5122 9.20078 18.5122 10.3008V13.6908C18.5122 14.7808 17.7622 16.0608 16.8122 16.5908L13.6122 18.3708C13.1522 18.6208 12.5822 18.7508 12.0022 18.7508ZM12.0022 6.75078C11.6722 6.75078 11.3522 6.81078 11.1222 6.94078L7.92221 8.72078C7.43221 8.99078 6.99219 9.75078 6.99219 10.3008V13.6908C6.99219 14.2508 7.43221 15.0008 7.92221 15.2708L11.1222 17.0508C11.5822 17.3108 12.4222 17.3108 12.8822 17.0508L16.0822 15.2708C16.5722 15.0008 17.0122 14.2408 17.0122 13.6908V10.3008C17.0122 9.74078 16.5722 8.99078 16.0822 8.72078L12.8822 6.94078C12.6522 6.81078 12.3322 6.75078 12.0022 6.75078Z" fill="#292D32"/>
<path d="M15.0002 22.7483C14.7302 22.7483 14.4802 22.5983 14.3502 22.3683C14.2202 22.1283 14.2202 21.8483 14.3602 21.6083L15.4102 19.8583C15.6202 19.5083 16.0802 19.3883 16.4402 19.5983C16.8002 19.8083 16.9102 20.2683 16.7002 20.6283L16.4302 21.0783C19.1902 20.4283 21.2602 17.9483 21.2602 14.9883C21.2602 14.5783 21.6002 14.2383 22.0102 14.2383C22.4202 14.2383 22.7602 14.5783 22.7602 14.9883C22.7502 19.2683 19.2702 22.7483 15.0002 22.7483Z" fill="#292D32"/>
<path d="M2 9.75C1.59 9.75 1.25 9.41 1.25 9C1.25 4.73 4.73 1.25 9 1.25C9.27 1.25 9.51999 1.4 9.64999 1.63C9.77999 1.87 9.78001 2.15 9.64001 2.39L8.59 4.14C8.38 4.49 7.92 4.61 7.56 4.4C7.2 4.19 7.08999 3.73 7.29999 3.37L7.57001 2.92C4.81001 3.57 2.73999 6.05 2.73999 9.01C2.74999 9.41 2.41 9.75 2 9.75Z" fill="#292D32"/>
</svg>
