<svg width="24" height="24" viewBox="0 0 24 24" fill="none" xmlns="http://www.w3.org/2000/svg">
<path d="M12.0013 13.3008C11.8713 13.3008 11.7413 13.2709 11.6213 13.2009L2.79132 8.09088C2.43132 7.88088 2.3113 7.42085 2.5213 7.06085C2.7313 6.70085 3.19132 6.58083 3.54132 6.79083L11.9913 11.6808L20.3913 6.82086C20.7513 6.61086 21.2113 6.74088 21.4113 7.09088C21.6213 7.45088 21.4913 7.91085 21.1413 8.12085L12.3713 13.2009C12.2613 13.2609 12.1313 13.3008 12.0013 13.3008Z" fill="#292D32"/>
<path d="M12 22.3591C11.59 22.3591 11.25 22.0191 11.25 21.6091V12.5391C11.25 12.1291 11.59 11.7891 12 11.7891C12.41 11.7891 12.75 12.1291 12.75 12.5391V21.6091C12.75 22.0191 12.41 22.3591 12 22.3591Z" fill="#292D32"/>
<path d="M11.9989 22.7519C11.1189 22.7519 10.2389 22.5619 9.5589 22.1719L4.2189 19.2119C2.7689 18.4119 1.62891 16.4819 1.62891 14.8219V9.16185C1.62891 7.50185 2.7689 5.5819 4.2189 4.7719L9.5589 1.81187C10.9189 1.04188 13.0589 1.04188 14.4289 1.81187L19.7689 4.7719C21.2189 5.5719 22.3589 7.50185 22.3589 9.16185V14.8219C22.3589 14.9219 22.3589 15.0019 22.3389 15.1019C22.2889 15.3619 22.0989 15.5819 21.8489 15.6619C21.5989 15.7519 21.3189 15.6919 21.1089 15.5219C19.9589 14.5219 18.1789 14.4819 16.9689 15.4519C16.1989 16.0619 15.7489 16.9919 15.7489 17.9819C15.7489 18.5719 15.9089 19.1519 16.2189 19.6519C16.2989 19.7919 16.3789 19.9019 16.4689 20.0119C16.6189 20.1819 16.6789 20.4119 16.6389 20.6319C16.5989 20.8519 16.4589 21.0419 16.2589 21.1519L14.4289 22.1618C13.7489 22.5618 12.8789 22.7519 11.9989 22.7519ZM11.9989 2.75188C11.3789 2.75188 10.7489 2.88188 10.2989 3.13188L4.95889 6.0919C3.98889 6.6219 3.1489 8.06185 3.1489 9.16185V14.8219C3.1489 15.9219 3.99889 17.3619 4.95889 17.8919L10.2989 20.8519C11.2089 21.3619 12.7989 21.3619 13.7089 20.8519L14.8289 20.2319C14.4589 19.5619 14.2589 18.7819 14.2589 17.9819C14.2589 16.5219 14.9089 15.1719 16.0389 14.2719C17.3989 13.1819 19.3489 12.9519 20.8689 13.6019V9.14189C20.8689 8.04189 20.0189 6.60188 19.0589 6.07188L13.7189 3.11186C13.2489 2.88186 12.6189 2.75188 11.9989 2.75188Z" fill="#292D32"/>
<path d="M19 22.75C17.34 22.75 15.78 21.87 14.94 20.44C14.49 19.72 14.25 18.87 14.25 18C14.25 16.54 14.9 15.19 16.03 14.29C16.87 13.62 17.93 13.25 19 13.25C21.62 13.25 23.75 15.38 23.75 18C23.75 18.87 23.51 19.72 23.06 20.45C22.82 20.87 22.49 21.25 22.11 21.57C21.28 22.33 20.17 22.75 19 22.75ZM19 14.75C18.26 14.75 17.56 15 16.97 15.47C16.2 16.08 15.75 17.01 15.75 18C15.75 18.59 15.91 19.17 16.22 19.67C16.81 20.67 17.85 21.25 19 21.25C19.79 21.25 20.55 20.96 21.13 20.44C21.39 20.22 21.61 19.96 21.77 19.68C22.09 19.17 22.25 18.59 22.25 18C22.25 16.21 20.79 14.75 19 14.75Z" fill="#292D32"/>
<path d="M20.0685 19.791C19.8785 19.791 19.6885 19.7211 19.5385 19.5711L17.4284 17.4611C17.1384 17.1711 17.1384 16.6911 17.4284 16.4011C17.7184 16.1111 18.1984 16.1111 18.4884 16.4011L20.5985 18.5111C20.8885 18.8011 20.8885 19.2811 20.5985 19.5711C20.4485 19.7211 20.2585 19.791 20.0685 19.791Z" fill="#292D32"/>
<path d="M17.9311 19.8185C17.7411 19.8185 17.5511 19.7484 17.4011 19.5984C17.1111 19.3084 17.1111 18.8284 17.4011 18.5384L19.5111 16.4284C19.8011 16.1384 20.2811 16.1384 20.5711 16.4284C20.8611 16.7184 20.8611 17.1984 20.5711 17.4884L18.4611 19.5984C18.3111 19.7484 18.1211 19.8185 17.9311 19.8185Z" fill="#292D32"/>
</svg>
