<svg width="24" height="24" viewBox="0 0 24 24" fill="none" xmlns="http://www.w3.org/2000/svg">
<path d="M11.9991 13.3008C11.8691 13.3008 11.7391 13.2708 11.6191 13.2008L2.78911 8.09083C2.43911 7.88083 2.30911 7.42083 2.51911 7.06083C2.72911 6.70083 3.18911 6.58083 3.54911 6.79083L11.9991 11.6808L20.3991 6.82083C20.7591 6.61083 21.2191 6.74083 21.4291 7.09083C21.6391 7.45083 21.5091 7.91083 21.1591 8.12083L12.3891 13.2008C12.2591 13.2608 12.1291 13.3008 11.9991 13.3008Z" fill="#292D32"/>
<path d="M12 22.3591C11.59 22.3591 11.25 22.0191 11.25 21.6091V12.5391C11.25 12.1291 11.59 11.7891 12 11.7891C12.41 11.7891 12.75 12.1291 12.75 12.5391V21.6091C12.75 22.0191 12.41 22.3591 12 22.3591Z" fill="#292D32"/>
<path d="M12.0006 22.75C11.1206 22.75 10.2506 22.56 9.56063 22.18L4.22062 19.21C2.77062 18.41 1.64062 16.48 1.64062 14.82V9.17C1.64062 7.51 2.77062 5.59 4.22062 4.78L9.56063 1.82C10.9306 1.06 13.0706 1.06 14.4406 1.82L19.7806 4.79C21.2306 5.59 22.3606 7.52 22.3606 9.18V14.83C22.3606 16.49 21.2306 18.41 19.7806 19.22L14.4406 22.18C13.7506 22.56 12.8806 22.75 12.0006 22.75ZM12.0006 2.75C11.3706 2.75 10.7506 2.88 10.2906 3.13L4.95062 6.1C3.99062 6.63 3.14063 8.07 3.14063 9.17V14.82C3.14063 15.92 3.99062 17.36 4.95062 17.9L10.2906 20.87C11.2006 21.38 12.8006 21.38 13.7106 20.87L19.0506 17.9C20.0106 17.36 20.8606 15.93 20.8606 14.82V9.17C20.8606 8.07 20.0106 6.63 19.0506 6.09L13.7106 3.12C13.2506 2.88 12.6306 2.75 12.0006 2.75Z" fill="#292D32"/>
</svg>
