<svg width="24" height="24" viewBox="0 0 24 24" fill="none" xmlns="http://www.w3.org/2000/svg">
<path d="M19.3297 5.67979L13.0597 2.29979C12.3997 1.93979 11.5997 1.93979 10.9397 2.29979L4.66969 5.67979C4.20969 5.92979 3.92969 6.40979 3.92969 6.95979C3.92969 7.49979 4.20969 7.98979 4.66969 8.23979L10.9397 11.6198C11.2697 11.7998 11.6397 11.8898 11.9997 11.8898C12.3597 11.8898 12.7297 11.7998 13.0597 11.6198L19.3297 8.23979C19.7897 7.98979 20.0697 7.50979 20.0697 6.95979C20.0697 6.40979 19.7897 5.92979 19.3297 5.67979Z" fill="#292D32"/>
<path opacity="0.4" d="M9.91 12.79L4.07 9.87C3.62 9.65 3.1 9.67 2.68 9.93C2.25 10.2 2 10.65 2 11.15V16.66C2 17.61 2.53 18.47 3.38 18.9L9.21 21.82C9.41 21.92 9.63 21.97 9.85 21.97C10.11 21.97 10.37 21.9 10.6 21.76C11.03 21.5 11.28 21.04 11.28 20.54V15.03C11.29 14.07 10.76 13.21 9.91 12.79Z" fill="#292D32"/>
<path opacity="0.4" d="M21.3207 9.92965C20.8907 9.66965 20.3707 9.63965 19.9307 9.86965L14.1007 12.7897C13.2507 13.2197 12.7207 14.0697 12.7207 15.0297V20.5397C12.7207 21.0397 12.9707 21.4997 13.4007 21.7597C13.6307 21.8997 13.8907 21.9697 14.1507 21.9697C14.3707 21.9697 14.5907 21.9197 14.7907 21.8197L20.6207 18.8997C21.4707 18.4697 22.0007 17.6197 22.0007 16.6597V11.1497C22.0007 10.6497 21.7507 10.1997 21.3207 9.92965Z" fill="#292D32"/>
</svg>
