<svg width="24" height="24" viewBox="0 0 24 24" fill="none" xmlns="http://www.w3.org/2000/svg">
<path opacity="0.4" d="M17.9496 7.7101L17.8096 7.6301L16.4196 6.8301L13.5496 5.1701C12.6696 4.6601 11.3296 4.6601 10.4496 5.1701L7.57961 6.8301L6.18961 7.6401L6.00961 7.7401C4.21961 8.9401 4.09961 9.1601 4.09961 11.0901V15.7001C4.09961 17.6301 4.21961 17.8501 6.04961 19.0801L10.4496 21.6201C10.8896 21.8801 11.4396 22.0001 11.9996 22.0001C12.5496 22.0001 13.1096 21.8801 13.5496 21.6201L17.9896 19.0501C19.7796 17.8501 19.8996 17.6301 19.8996 15.7001V11.0901C19.8996 9.1601 19.7796 8.9401 17.9496 7.7101Z" fill="#292D32"/>
<path d="M6.18945 7.64L7.57945 6.83L10.3195 5.25L10.4495 5.17C11.3295 4.66 12.6695 4.66 13.5495 5.17L13.6795 5.25L16.4195 6.83L17.8095 7.63V5.49C17.8095 3.24 16.5695 2 14.3195 2H9.66945C7.41945 2 6.18945 3.24 6.18945 5.49V7.64Z" fill="#292D32"/>
<path d="M14.8397 13.3398L14.2197 14.0998C14.1197 14.2098 14.0497 14.4298 14.0597 14.5798L14.1197 15.5598C14.1597 16.1598 13.7297 16.4698 13.1697 16.2498L12.2597 15.8898C12.1197 15.8398 11.8797 15.8398 11.7397 15.8898L10.8297 16.2498C10.2697 16.4698 9.83975 16.1598 9.87975 15.5598L9.93975 14.5798C9.94975 14.4298 9.87975 14.2098 9.77975 14.0998L9.15975 13.3398C8.76975 12.8798 8.93975 12.3698 9.51975 12.2198L10.4697 11.9798C10.6197 11.9398 10.7997 11.7998 10.8797 11.6698L11.4097 10.8498C11.7397 10.3398 12.2597 10.3398 12.5897 10.8498L13.1197 11.6698C13.1997 11.7998 13.3797 11.9398 13.5297 11.9798L14.4797 12.2198C15.0597 12.3698 15.2297 12.8798 14.8397 13.3398Z" fill="#292D32"/>
</svg>
