<svg width="24" height="24" viewBox="0 0 24 24" fill="none" xmlns="http://www.w3.org/2000/svg">
<path d="M20.4192 9.00047C20.2792 8.99047 20.0992 8.98047 19.8992 8.98047C19.5092 8.98047 19.1992 9.29047 19.1992 9.68047V14.3305C19.1992 14.7205 19.5092 15.0305 19.8992 15.0305C20.0992 15.0305 20.2692 15.0205 20.4392 15.0105C21.9992 14.8305 21.9992 13.7305 21.9992 12.9305V11.0705C21.9992 10.2705 21.9992 9.17047 20.4192 9.00047Z" fill="#292D32"/>
<path d="M18.2794 10.1405V13.8605C18.2794 16.8105 15.8794 19.2105 12.9294 19.2105H9.25942C8.46942 19.2105 7.98942 18.3405 8.40942 17.6805L15.6694 6.2005C16.0294 5.6305 16.8394 5.5805 17.2894 6.0905C18.0094 6.9205 18.2794 8.2105 18.2794 10.1405Z" fill="#292D32"/>
<path d="M16.4 1.87036C16.05 1.65036 15.59 1.75036 15.37 2.10036L13.66 4.81036C13.43 4.80036 13.19 4.79036 12.93 4.79036H7.35C3.25 4.79036 2 6.04036 2 10.1404V13.8604C2 16.9104 2.7 18.3704 4.74 18.9204L3.37 21.1004C3.15 21.4504 3.25 21.9104 3.6 22.1304C3.72 22.2104 3.86 22.2504 4 22.2504C4.25 22.2504 4.49 22.1304 4.63 21.9004L16.63 2.90036C16.86 2.55036 16.75 2.09036 16.4 1.87036Z" fill="#292D32"/>
</svg>
