<svg width="24" height="24" viewBox="0 0 24 24" fill="none" xmlns="http://www.w3.org/2000/svg">
<path d="M3.16992 7.43945L11.9999 12.5494L20.7699 7.46942" stroke="#292D32" stroke-width="1.5" stroke-linecap="round" stroke-linejoin="round"/>
<path d="M12 21.6091V12.5391" stroke="#292D32" stroke-width="1.5" stroke-linecap="round" stroke-linejoin="round"/>
<path d="M2.39062 9.16958C2.39062 7.78958 3.38061 6.1096 4.59061 5.4396L9.9306 2.46957C11.0706 1.83957 12.9406 1.83957 14.0806 2.46957L19.4206 5.4396C20.6306 6.1096 21.6206 7.78958 21.6206 9.16958V14.8196C21.6206 16.1996 20.6306 17.8796 19.4206 18.5496L14.0806 21.5196C12.9406 22.1496 11.0706 22.1496 9.9306 21.5196L4.59061 18.5496C3.38061 17.8796 2.39062 16.1996 2.39062 14.8196V13.9996" stroke="#292D32" stroke-width="1.5" stroke-linecap="round" stroke-linejoin="round"/>
<path d="M16.9998 13.2396V9.57965L10.9297 6.06964L9.87976 5.4696L7.50977 4.09961" stroke="#292D32" stroke-width="1.5" stroke-linecap="round" stroke-linejoin="round"/>
</svg>
