<svg width="24" height="24" viewBox="0 0 24 24" fill="none" xmlns="http://www.w3.org/2000/svg">
<path d="M21.8098 3.93814C20.4998 7.20814 17.5098 11.4781 14.6598 14.2681C14.2498 11.6881 12.1898 9.66814 9.58984 9.30814C12.3898 6.44814 16.6898 3.41814 19.9698 2.09814C20.5498 1.87814 21.1298 2.04814 21.4898 2.40814C21.8698 2.78814 22.0498 3.35814 21.8098 3.93814Z" fill="#292D32"/>
<path d="M13.7791 15.087C13.5791 15.257 13.3791 15.427 13.1791 15.587L11.3891 17.017C11.3891 16.987 11.3791 16.947 11.3791 16.907C11.2391 15.837 10.7391 14.847 9.92914 14.037C9.10914 13.217 8.08914 12.717 6.96914 12.577C6.93914 12.577 6.89914 12.567 6.86914 12.567L8.31914 10.737C8.45914 10.557 8.60914 10.387 8.76914 10.207L9.44914 10.297C11.5991 10.597 13.3291 12.287 13.6691 14.427L13.7791 15.087Z" fill="#292D32"/>
<path d="M10.4298 17.6169C10.4298 18.7169 10.0098 19.7669 9.20976 20.5569C8.59976 21.1769 7.77977 21.5969 6.77977 21.7169L4.32976 21.9869C2.98976 22.1369 1.83976 20.9869 1.98976 19.6369L2.25976 17.1769C2.49976 14.9869 4.32976 13.5869 6.26976 13.5469C6.45976 13.5369 6.66976 13.5469 6.86976 13.5669C7.71976 13.6769 8.53976 14.0669 9.22976 14.7469C9.89976 15.4169 10.2798 16.2069 10.3898 17.0369C10.4098 17.2369 10.4298 17.4269 10.4298 17.6169Z" fill="#292D32"/>
</svg>
