<svg width="24" height="24" viewBox="0 0 24 24" fill="none" xmlns="http://www.w3.org/2000/svg">
<path d="M7.00914 17.9998L2.99914 13.9898C1.65914 12.6498 1.65914 11.3198 2.99914 9.9798L9.67914 3.2998L17.0291 10.6498C17.3991 11.0198 17.3991 11.6198 17.0291 11.9898L11.0091 18.0098C9.68914 19.3298 8.34914 19.3298 7.00914 17.9998Z" stroke="#292D32" stroke-width="1.5" stroke-miterlimit="10" stroke-linecap="round" stroke-linejoin="round"/>
<path d="M8.34961 1.9502L9.68961 3.29016" stroke="#292D32" stroke-width="1.5" stroke-miterlimit="10" stroke-linecap="round" stroke-linejoin="round"/>
<path opacity="0.4" d="M2.07031 11.9197L17.1903 11.2598" stroke="#292D32" stroke-width="1.5" stroke-miterlimit="10" stroke-linecap="round" stroke-linejoin="round"/>
<path d="M3 22H16" stroke="#292D32" stroke-width="1.5" stroke-miterlimit="10" stroke-linecap="round" stroke-linejoin="round"/>
<path opacity="0.4" d="M18.85 15C18.85 15 17 17.01 17 18.24C17 19.26 17.83 20.09 18.85 20.09C19.87 20.09 20.7 19.26 20.7 18.24C20.7 17.01 18.85 15 18.85 15Z" stroke="#292D32" stroke-width="1.5" stroke-linecap="round" stroke-linejoin="round"/>
</svg>
