<svg width="24" height="24" viewBox="0 0 24 24" fill="none" xmlns="http://www.w3.org/2000/svg">
<path d="M12.4997 21.9999H4.07973C2.91973 21.9999 1.96973 21.0699 1.96973 19.9299V5.08986C1.96973 2.46986 3.91973 1.27986 6.30973 2.44986L10.7497 4.62986C11.7097 5.09986 12.4997 6.34986 12.4997 7.40986V21.9999Z" stroke="#292D32" stroke-width="1.5" stroke-linecap="round" stroke-linejoin="round"/>
<path opacity="0.4" d="M21.97 15.0599V18.8399C21.97 20.9999 20.97 21.9999 18.81 21.9999H12.5V10.4199L12.97 10.5199L17.47 11.5299L19.5 11.9799C20.82 12.2699 21.9 12.9499 21.96 14.8699C21.97 14.9299 21.97 14.9899 21.97 15.0599Z" stroke="#292D32" stroke-width="1.5" stroke-linecap="round" stroke-linejoin="round"/>
<path opacity="0.4" d="M5.5 9H8.97" stroke="#292D32" stroke-width="1.5" stroke-linecap="round" stroke-linejoin="round"/>
<path opacity="0.4" d="M5.5 13H8.97" stroke="#292D32" stroke-width="1.5" stroke-linecap="round" stroke-linejoin="round"/>
<path d="M17.4697 11.53V14.75C17.4697 15.99 16.4597 17 15.2197 17C13.9797 17 12.9697 15.99 12.9697 14.75V10.52L17.4697 11.53Z" stroke="#292D32" stroke-width="1.5" stroke-linecap="round" stroke-linejoin="round"/>
<path d="M21.9597 14.8698C21.8997 16.0498 20.9197 16.9998 19.7197 16.9998C18.4797 16.9998 17.4697 15.9898 17.4697 14.7498V11.5298L19.4997 11.9798C20.8197 12.2698 21.8997 12.9498 21.9597 14.8698Z" stroke="#292D32" stroke-width="1.5" stroke-linecap="round" stroke-linejoin="round"/>
</svg>
