<svg width="24" height="24" viewBox="0 0 24 24" fill="none" xmlns="http://www.w3.org/2000/svg">
<path d="M1 22H23" stroke="#292D32" stroke-width="1.5" stroke-miterlimit="10" stroke-linecap="round" stroke-linejoin="round"/>
<path opacity="0.4" d="M19.7803 22.0098V17.5498" stroke="#292D32" stroke-width="1.5" stroke-miterlimit="10" stroke-linecap="round" stroke-linejoin="round"/>
<path d="M19.7996 10.8901C18.5796 10.8901 17.5996 11.8701 17.5996 13.0901V15.3601C17.5996 16.5801 18.5796 17.5601 19.7996 17.5601C21.0196 17.5601 21.9996 16.5801 21.9996 15.3601V13.0901C21.9996 11.8701 21.0196 10.8901 19.7996 10.8901Z" stroke="#292D32" stroke-width="1.5" stroke-miterlimit="10" stroke-linecap="round" stroke-linejoin="round"/>
<path d="M2.09961 21.9998V6.02979C2.09961 4.01979 3.09966 3.00977 5.08966 3.00977H11.3196C13.3096 3.00977 14.2996 4.01979 14.2996 6.02979V21.9998" stroke="#292D32" stroke-width="1.5" stroke-miterlimit="10" stroke-linecap="round" stroke-linejoin="round"/>
<path opacity="0.4" d="M5.7998 8.25H10.7498" stroke="#292D32" stroke-width="1.5" stroke-miterlimit="10" stroke-linecap="round" stroke-linejoin="round"/>
<path opacity="0.4" d="M5.7998 12H10.7498" stroke="#292D32" stroke-width="1.5" stroke-miterlimit="10" stroke-linecap="round" stroke-linejoin="round"/>
<path opacity="0.4" d="M8.25 22V18.25" stroke="#292D32" stroke-width="1.5" stroke-miterlimit="10" stroke-linecap="round" stroke-linejoin="round"/>
</svg>
