<svg width="24" height="24" viewBox="0 0 24 24" fill="none" xmlns="http://www.w3.org/2000/svg">
<path d="M20.5 5.25H18.75V3.5C18.75 3.09 18.41 2.75 18 2.75C17.59 2.75 17.25 3.09 17.25 3.5V5.25H15.5C15.09 5.25 14.75 5.59 14.75 6C14.75 6.41 15.09 6.75 15.5 6.75H17.25V8.5C17.25 8.91 17.59 9.25 18 9.25C18.41 9.25 18.75 8.91 18.75 8.5V6.75H20.5C20.91 6.75 21.25 6.41 21.25 6C21.25 5.59 20.91 5.25 20.5 5.25Z" fill="#292D32"/>
<path d="M11.05 14.95L9.2 16.8C8.81 17.19 8.19 17.19 7.79 16.81C7.68 16.7 7.57 16.6 7.46 16.49C6.43 15.45 5.5 14.36 4.67 13.22C3.85 12.08 3.19 10.94 2.71 9.81C2.24 8.67 2 7.58 2 6.54C2 5.86 2.12 5.21 2.36 4.61C2.6 4 2.98 3.44 3.51 2.94C4.15 2.31 4.85 2 5.59 2C5.87 2 6.15 2.06 6.4 2.18C6.66 2.3 6.89 2.48 7.07 2.74L9.39 6.01C9.57 6.26 9.7 6.49 9.79 6.71C9.88 6.92 9.93 7.13 9.93 7.32C9.93 7.56 9.86 7.8 9.72 8.03C9.59 8.26 9.4 8.5 9.16 8.74L8.4 9.53C8.29 9.64 8.24 9.77 8.24 9.93C8.24 10.01 8.25 10.08 8.27 10.16C8.3 10.24 8.33 10.3 8.35 10.36C8.53 10.69 8.84 11.12 9.28 11.64C9.73 12.16 10.21 12.69 10.73 13.22C10.83 13.32 10.94 13.42 11.04 13.52C11.44 13.91 11.45 14.55 11.05 14.95Z" fill="#292D32"/>
<path d="M21.9696 18.3291C21.9696 18.6091 21.9196 18.8991 21.8196 19.1791C21.7896 19.2591 21.7596 19.3391 21.7196 19.4191C21.5496 19.7791 21.3296 20.1191 21.0396 20.4391C20.5496 20.9791 20.0096 21.3691 19.3996 21.6191C19.3896 21.6191 19.3796 21.6291 19.3696 21.6291C18.7796 21.8691 18.1396 21.9991 17.4496 21.9991C16.4296 21.9991 15.3396 21.7591 14.1896 21.2691C13.0396 20.7791 11.8896 20.1191 10.7496 19.2891C10.3596 18.9991 9.96961 18.7091 9.59961 18.3991L12.8696 15.1291C13.1496 15.3391 13.3996 15.4991 13.6096 15.6091C13.6596 15.6291 13.7196 15.6591 13.7896 15.6891C13.8696 15.7191 13.9496 15.7291 14.0396 15.7291C14.2096 15.7291 14.3396 15.6691 14.4496 15.5591L15.2096 14.8091C15.4596 14.5591 15.6996 14.3691 15.9296 14.2491C16.1596 14.1091 16.3896 14.0391 16.6396 14.0391C16.8296 14.0391 17.0296 14.0791 17.2496 14.1691C17.4696 14.2591 17.6996 14.3891 17.9496 14.5591L21.2596 16.9091C21.5196 17.0891 21.6996 17.2991 21.8096 17.5491C21.9096 17.7991 21.9696 18.0491 21.9696 18.3291Z" fill="#292D32"/>
</svg>
