<svg width="24" height="24" viewBox="0 0 24 24" fill="none" xmlns="http://www.w3.org/2000/svg">
<path d="M11.02 20.25H7.5C6.75 20.25 6.2 20.22 5.73 20.15C2.4 19.78 1.75 17.8 1.75 14.5V9.5C1.75 6.2 2.41 4.21 5.76 3.84C6.2 3.78 6.75 3.75 7.5 3.75H10.96C11.37 3.75 11.71 4.09 11.71 4.5C11.71 4.91 11.37 5.25 10.96 5.25H7.5C6.82 5.25 6.34 5.28 5.95 5.33C3.92 5.55 3.25 6.19 3.25 9.5V14.5C3.25 17.81 3.92 18.44 5.92 18.67C6.34 18.73 6.82 18.75 7.5 18.75H11.02C11.43 18.75 11.77 19.09 11.77 19.5C11.77 19.91 11.43 20.25 11.02 20.25Z" fill="#292D32"/>
<path d="M16.4995 20.25H15.0195C14.6095 20.25 14.2695 19.91 14.2695 19.5C14.2695 19.09 14.6095 18.75 15.0195 18.75H16.4995C17.1795 18.75 17.6595 18.72 18.0495 18.67C20.0795 18.45 20.7495 17.81 20.7495 14.5V9.5C20.7495 6.19 20.0795 5.56 18.0795 5.33C17.6595 5.27 17.1795 5.25 16.4995 5.25H15.0195C14.6095 5.25 14.2695 4.91 14.2695 4.5C14.2695 4.09 14.6095 3.75 15.0195 3.75H16.4995C17.2495 3.75 17.7995 3.78 18.2695 3.85C21.5995 4.22 22.2495 6.2 22.2495 9.5V14.5C22.2495 17.8 21.5895 19.79 18.2395 20.16C17.7995 20.22 17.2495 20.25 16.4995 20.25Z" fill="#292D32"/>
<path d="M15 22.75C14.59 22.75 14.25 22.41 14.25 22V2C14.25 1.59 14.59 1.25 15 1.25C15.41 1.25 15.75 1.59 15.75 2V22C15.75 22.41 15.41 22.75 15 22.75Z" fill="#292D32"/>
<path d="M8 16.25C7.59 16.25 7.25 15.91 7.25 15.5V8.5C7.25 8.09 7.59 7.75 8 7.75C8.41 7.75 8.75 8.09 8.75 8.5V15.5C8.75 15.91 8.41 16.25 8 16.25Z" fill="#292D32"/>
</svg>
