<svg width="24" height="24" viewBox="0 0 24 24" fill="none" xmlns="http://www.w3.org/2000/svg">
<path opacity="0.4" d="M12 22C17.5228 22 22 17.5228 22 12C22 6.47715 17.5228 2 12 2C6.47715 2 2 6.47715 2 12C2 17.5228 6.47715 22 12 22Z" fill="#292D32"/>
<path d="M15.7106 15.9298C15.5806 15.9298 15.4506 15.8998 15.3306 15.8198L12.2306 13.9698C11.4606 13.5098 10.8906 12.4998 10.8906 11.6098V7.50977C10.8906 7.09977 11.2306 6.75977 11.6406 6.75977C12.0506 6.75977 12.3906 7.09977 12.3906 7.50977V11.6098C12.3906 11.9698 12.6906 12.4998 13.0006 12.6798L16.1006 14.5298C16.4606 14.7398 16.5706 15.1998 16.3606 15.5598C16.2106 15.7998 15.9606 15.9298 15.7106 15.9298Z" fill="#292D32"/>
</svg>
