<svg width="24" height="24" viewBox="0 0 24 24" fill="none" xmlns="http://www.w3.org/2000/svg">
<path d="M16.6497 20.7498C16.6397 20.7498 16.6197 20.7498 16.6097 20.7498C16.1997 20.7498 15.8597 20.4098 15.8697 19.9898C15.8697 19.5798 16.2097 19.2498 16.6197 19.2498C16.6297 19.2498 16.6497 19.2498 16.6597 19.2498C17.7997 19.2498 18.8897 18.8298 19.7297 18.0498C21.2797 16.6898 21.3897 14.7498 20.9697 13.3798C20.5497 12.0098 19.3897 10.4598 17.3597 10.1998C17.0297 10.1598 16.7697 9.90977 16.7097 9.57977C16.3097 7.18977 15.0197 5.53977 13.0797 4.93977C11.0597 4.31977 8.72973 4.92977 7.26973 6.45977C5.84973 7.94977 5.51973 10.0198 6.33973 12.3098C6.47973 12.6998 6.27973 13.1298 5.88973 13.2698C5.49973 13.4098 5.06973 13.2098 4.92973 12.8198C3.91973 10.0098 4.37973 7.31977 6.18973 5.42977C8.03973 3.49977 10.9797 2.72977 13.5297 3.51977C15.8597 4.23977 17.5097 6.15977 18.0997 8.81977C20.1397 9.27977 21.7697 10.8198 22.4197 12.9498C23.1297 15.2698 22.4797 17.6498 20.7497 19.1698C19.6097 20.1898 18.1597 20.7498 16.6497 20.7498Z" fill="#292D32"/>
<path d="M5.57008 20.75C5.55008 20.75 5.53008 20.75 5.52008 20.75C2.64008 20.55 1.33008 18.29 1.33008 16.28C1.33008 14.27 2.64008 12.02 5.52008 11.81C6.26008 11.8 6.99008 11.97 7.63008 12.29C8.00008 12.48 8.14008 12.93 7.96008 13.3C7.77008 13.67 7.32008 13.81 6.95008 13.63C6.53008 13.41 6.05008 13.32 5.59008 13.31C3.70008 13.45 2.84008 14.9 2.84008 16.28C2.84008 17.66 3.70008 19.11 5.64008 19.25C6.05008 19.28 6.36008 19.64 6.33008 20.05C6.29008 20.45 5.96008 20.75 5.57008 20.75Z" fill="#292D32"/>
<path d="M15.8206 10.6397C15.5506 10.6397 15.2806 10.4897 15.1506 10.2197C14.9606 9.84973 15.1106 9.39973 15.4906 9.20973C16.1006 8.89973 16.7906 8.72973 17.4706 8.71973C17.8606 8.73973 18.2306 9.03973 18.2306 9.45973C18.2406 9.86973 17.9106 10.2197 17.4906 10.2197C17.0306 10.2297 16.5706 10.3397 16.1506 10.5497C16.0506 10.6197 15.9306 10.6397 15.8206 10.6397Z" fill="#292D32"/>
<path d="M12.9707 20.75H8.9707C8.5607 20.75 8.2207 20.41 8.2207 20C8.2207 19.59 8.5607 19.25 8.9707 19.25H12.9707C13.3807 19.25 13.7207 19.59 13.7207 20C13.7207 20.41 13.3907 20.75 12.9707 20.75Z" fill="#292D32"/>
<path d="M10.9707 22.75C10.5607 22.75 10.2207 22.41 10.2207 22V18C10.2207 17.59 10.5607 17.25 10.9707 17.25C11.3807 17.25 11.7207 17.59 11.7207 18V22C11.7207 22.41 11.3907 22.75 10.9707 22.75Z" fill="#292D32"/>
</svg>
