<svg width="24" height="24" viewBox="0 0 24 24" fill="none" xmlns="http://www.w3.org/2000/svg">
<path d="M14 15.9991C14 17.7691 13.23 19.3691 12 20.4591C10.94 21.4191 9.54 21.9991 8 21.9991C4.69 21.9991 2 19.3091 2 15.9991C2 13.7691 3.23 11.8191 5.04 10.7891C5.91 12.9691 7.77 14.6191 10.02 15.2291C10.65 15.4091 11.31 15.4991 12 15.4991C12.68 15.4991 13.32 15.4091 13.94 15.2491C13.98 15.4891 14 15.7491 14 15.9991Z" fill="#292D32"/>
<path d="M18 8C18 8.78 17.85 9.53 17.58 10.21C16.89 11.95 15.41 13.29 13.58 13.79C13.08 13.93 12.55 14 12 14C11.45 14 10.92 13.93 10.42 13.79C8.59 13.29 7.11 11.95 6.42 10.21C6.15 9.53 6 8.78 6 8C6 4.69 8.69 2 12 2C15.31 2 18 4.69 18 8Z" fill="#292D32"/>
<path d="M22 15.9991C22 19.3091 19.31 21.9991 16 21.9991C15.01 21.9991 14.07 21.7591 13.25 21.3291C14.69 19.9391 15.5 18.0191 15.5 15.9991C15.5 15.6591 15.47 15.3191 15.42 14.9991L15.37 14.6891C16.99 13.8791 18.28 12.4991 18.96 10.7891C20.77 11.8191 22 13.7691 22 15.9991Z" fill="#292D32"/>
</svg>
