<svg width="24" height="24" viewBox="0 0 24 24" fill="none" xmlns="http://www.w3.org/2000/svg">
<path d="M21.2877 17.0218L19.5477 13.5418C19.0677 12.5718 19.0677 11.4418 19.5477 10.4718L21.2877 6.99178C22.7777 4.00178 19.5677 0.861782 16.6177 2.42178L15.0777 3.24178C14.8677 3.35178 14.6977 3.53178 14.5977 3.75178L8.89773 16.3918C8.66773 16.9118 8.87773 17.5218 9.37773 17.7818L16.6177 21.5918C19.5677 23.1518 22.7777 20.0018 21.2877 17.0218Z" fill="#292D32"/>
<path d="M7.68953 15.6004L11.4195 7.32045C11.8395 6.39045 10.8395 5.45045 9.93953 5.93045L4.16953 8.96045C1.71953 10.2504 1.71953 13.7504 4.16953 15.0404L6.20953 16.1104C6.75953 16.4004 7.42953 16.1704 7.68953 15.6004Z" fill="#292D32"/>
</svg>
