<svg width="24" height="24" viewBox="0 0 24 24" fill="none" xmlns="http://www.w3.org/2000/svg">
<path d="M18.6897 11.5308C18.1197 11.3808 17.4497 11.3008 16.6497 11.3008C15.5397 11.3008 15.1297 11.5708 14.5597 12.0008C14.5297 12.0208 14.4997 12.0508 14.4697 12.0808L13.5197 13.0908C12.7297 13.9408 11.2797 13.9408 10.4797 13.0908L9.52969 12.0908C9.49969 12.0508 9.46969 12.0208 9.43969 12.0008C8.85969 11.5708 8.44969 11.3008 7.34969 11.3008C6.54969 11.3008 5.87969 11.3708 5.30969 11.5308C2.92969 12.1708 2.92969 14.0608 2.92969 15.7208V16.6508C2.92969 19.1608 2.92969 22.0008 8.27969 22.0008H15.7197C19.2697 22.0008 21.0697 20.2008 21.0697 16.6508V15.7208C21.0697 14.0608 21.0697 12.1708 18.6897 11.5308Z" fill="#292D32"/>
<path d="M14.7891 2H9.20906C4.78906 2 4.78906 4.35 4.78906 6.42V10.12C4.82906 10.1 4.87906 10.09 4.91906 10.08C5.61906 9.89 6.40906 9.8 7.34906 9.8C8.88906 9.8 9.61906 10.25 10.3391 10.8C10.4391 10.87 10.5391 10.96 10.6291 11.06L11.5691 12.05C11.6691 12.16 11.8291 12.22 11.9991 12.22C12.1691 12.22 12.3291 12.16 12.4191 12.06L13.3791 11.05C13.4591 10.97 13.5491 10.88 13.6491 10.81C14.3891 10.25 15.1091 9.8 16.6491 9.8C17.5891 9.8 18.3791 9.89 19.0791 10.08C19.1191 10.09 19.1691 10.1 19.2091 10.12V6.42C19.2091 4.35 19.2091 2 14.7891 2ZM13.5491 8.5H10.4491C10.0691 8.5 9.74906 8.18 9.74906 7.8C9.74906 7.41 10.0691 7.1 10.4491 7.1H13.5491C13.9291 7.1 14.2491 7.41 14.2491 7.8C14.2491 8.18 13.9291 8.5 13.5491 8.5ZM14.3291 5.71H9.66906C9.28906 5.71 8.97906 5.39 8.97906 5.01C8.97906 4.62 9.28906 4.31 9.66906 4.31H14.3291C14.7091 4.31 15.0191 4.62 15.0191 5.01C15.0191 5.39 14.7091 5.71 14.3291 5.71Z" fill="#292D32"/>
</svg>
