<svg width="24" height="24" viewBox="0 0 24 24" fill="none" xmlns="http://www.w3.org/2000/svg">
<path d="M4.90926 22.8198C3.81926 22.8198 2.88926 22.4698 2.20926 21.7898C1.23926 20.8198 0.939261 19.3398 1.36926 17.6198L3.84926 7.68977C4.27926 5.96977 5.95926 4.29977 7.66926 3.86977L17.5993 1.38977C19.3193 0.959769 20.7993 1.25977 21.7693 2.22977C22.7393 3.19977 23.0393 4.67977 22.6093 6.39977L20.1293 16.3298C19.6993 18.0498 18.0193 19.7198 16.3093 20.1498L6.37926 22.6298C5.86926 22.7498 5.37926 22.8198 4.90926 22.8198ZM17.9793 2.82977L8.04926 5.31977C6.87926 5.60977 5.60926 6.87977 5.30926 8.04977L2.82926 17.9798C2.52926 19.1698 2.68926 20.1398 3.26926 20.7298C3.84926 21.3098 4.82926 21.4698 6.01926 21.1698L15.9493 18.6898C17.1193 18.3998 18.3893 17.1198 18.6793 15.9598L21.1593 6.02977C21.4593 4.83977 21.2993 3.86977 20.7193 3.27977C20.1393 2.68977 19.1693 2.53977 17.9793 2.82977Z" fill="#292D32"/>
<path d="M12 16.25C9.66 16.25 7.75 14.34 7.75 12C7.75 9.66 9.66 7.75 12 7.75C14.34 7.75 16.25 9.66 16.25 12C16.25 14.34 14.34 16.25 12 16.25ZM12 9.25C10.48 9.25 9.25 10.48 9.25 12C9.25 13.52 10.48 14.75 12 14.75C13.52 14.75 14.75 13.52 14.75 12C14.75 10.48 13.52 9.25 12 9.25Z" fill="#292D32"/>
</svg>
