<svg width="24" height="24" viewBox="0 0 24 24" fill="none" xmlns="http://www.w3.org/2000/svg">
<path opacity="0.4" d="M2.34904 13.9598C2.73904 14.5198 3.42904 14.8398 4.21904 14.8398H8.31904C8.58904 14.8398 8.83904 14.9498 9.00904 15.1498C9.18904 15.3498 9.25904 15.6298 9.21904 15.9198L8.70904 19.1998C8.48904 20.1798 9.13904 21.2798 10.119 21.6098C11.029 21.9498 12.099 21.4898 12.529 20.8398L16.739 14.5698L16.859 14.3698V5.52979L16.709 5.37979L13.539 2.92979C13.119 2.50979 12.169 2.27979 11.499 2.27979H7.59904C6.25904 2.27979 4.90904 3.28979 4.60904 4.51979L2.14904 12.0098C1.89904 12.7198 1.96904 13.4198 2.34904 13.9598Z" fill="#292D32"/>
<path d="M18.7894 17.6099H19.8194C21.3694 17.6099 21.9994 17.0099 21.9994 15.5299V5.4799C21.9994 3.9999 21.3694 3.3999 19.8194 3.3999H18.7894C17.2394 3.3999 16.6094 3.9999 16.6094 5.4799V15.5399C16.6094 17.0099 17.2394 17.6099 18.7894 17.6099Z" fill="#292D32"/>
</svg>
