<svg width="24" height="24" viewBox="0 0 24 24" fill="none" xmlns="http://www.w3.org/2000/svg">
<path opacity="0.4" d="M16.9898 10.9302V13.0702C16.9898 14.9502 15.9498 16.6002 14.4098 17.4502C14.2398 17.5402 14.0598 17.6302 13.8698 17.7102C13.5898 17.8202 13.2998 17.9102 12.9998 17.9702C12.6798 18.0302 12.3498 18.0702 12.0098 18.0702C11.9998 18.0702 11.9998 18.0702 11.9898 18.0702C11.6498 18.0702 11.3198 18.0302 10.9998 17.9702C10.7098 17.9102 10.4198 17.8202 10.1398 17.7102L9.58976 17.4502C9.45976 17.3702 9.32976 17.3002 9.20976 17.2102C7.88976 16.3202 7.00977 14.8002 7.00977 13.0702V10.9302C7.00977 10.0702 7.22976 9.26017 7.60976 8.55017C7.68976 8.41017 7.76976 8.2702 7.85976 8.1402C7.94976 8.0002 8.04976 7.88018 8.14977 7.75018C8.24977 7.63018 8.35976 7.51018 8.46976 7.40018C8.69976 7.17018 8.94976 6.97019 9.20976 6.79019C9.34976 6.70019 9.47976 6.61018 9.62976 6.53018C9.74976 6.47018 9.87977 6.40018 10.0098 6.34018C10.1798 6.27018 10.3498 6.20019 10.5198 6.16019C10.6598 6.11019 10.7998 6.08017 10.9398 6.05017C10.9698 6.03017 11.0098 6.03017 11.0498 6.02017C11.3598 5.96017 11.6698 5.93018 11.9898 5.93018H12.0098C12.3298 5.93018 12.6498 5.96017 12.9598 6.02017C12.9698 6.03017 12.9898 6.03018 12.9998 6.03018C13.1598 6.07018 13.3198 6.11019 13.4798 6.16019C13.6398 6.20019 13.7898 6.26019 13.9398 6.32019C14.0898 6.39019 14.2398 6.46018 14.3798 6.53018C14.7998 6.77018 15.1898 7.06018 15.5298 7.40018C16.4298 8.30018 16.9898 9.55018 16.9898 10.9302Z" fill="#292D32"/>
<path d="M22 9.75C21.59 9.75 21.25 9.41 21.25 9V7C21.25 4.42 19.58 2.75 17 2.75H15C14.59 2.75 14.25 2.41 14.25 2C14.25 1.59 14.59 1.25 15 1.25H17C20.44 1.25 22.75 3.56 22.75 7V9C22.75 9.41 22.41 9.75 22 9.75Z" fill="#292D32"/>
<path d="M2 9.75C1.59 9.75 1.25 9.41 1.25 9V7C1.25 3.56 3.56 1.25 7 1.25H9C9.41 1.25 9.75 1.59 9.75 2C9.75 2.41 9.41 2.75 9 2.75H7C4.42 2.75 2.75 4.42 2.75 7V9C2.75 9.41 2.41 9.75 2 9.75Z" fill="#292D32"/>
<path d="M17 22.75H15C14.59 22.75 14.25 22.41 14.25 22C14.25 21.59 14.59 21.25 15 21.25H17C19.58 21.25 21.25 19.58 21.25 17V15C21.25 14.59 21.59 14.25 22 14.25C22.41 14.25 22.75 14.59 22.75 15V17C22.75 20.44 20.44 22.75 17 22.75Z" fill="#292D32"/>
<path d="M9 22.75H7C3.56 22.75 1.25 20.44 1.25 17V15C1.25 14.59 1.59 14.25 2 14.25C2.41 14.25 2.75 14.59 2.75 15V17C2.75 19.58 4.42 21.25 7 21.25H9C9.41 21.25 9.75 21.59 9.75 22C9.75 22.41 9.41 22.75 9 22.75Z" fill="#292D32"/>
<path d="M11.9996 15.6299C10.6796 15.6299 9.59961 14.5499 9.59961 13.2299V10.7599C9.59961 9.43989 10.6796 8.35986 11.9996 8.35986C13.3196 8.35986 14.3996 9.43989 14.3996 10.7599V13.2299C14.3996 14.5599 13.3196 15.6299 11.9996 15.6299ZM11.9996 9.86987C11.5096 9.86987 11.0996 10.2699 11.0996 10.7699V13.2399C11.0996 13.7399 11.4996 14.1399 11.9996 14.1399C12.4996 14.1399 12.8996 13.7399 12.8996 13.2399V10.7699C12.8996 10.2699 12.4896 9.86987 11.9996 9.86987Z" fill="#292D32"/>
</svg>
