<svg width="24" height="24" viewBox="0 0 24 24" fill="none" xmlns="http://www.w3.org/2000/svg">
<path d="M14.4294 16.9203H12.1395C11.7295 16.9203 11.3895 16.5803 11.3895 16.1703C11.3895 15.7603 11.7295 15.4203 12.1395 15.4203H14.4294C14.8594 15.4203 15.2095 15.0703 15.2095 14.6403C15.2095 14.2103 14.8594 13.8603 14.4294 13.8603H12.1395C11.8995 13.8603 11.6695 13.7403 11.5295 13.5503C11.3895 13.3603 11.3494 13.1003 11.4294 12.8703L12.1894 10.5803C12.2894 10.2703 12.5795 10.0703 12.8995 10.0703H15.9595C16.3695 10.0703 16.7095 10.4103 16.7095 10.8203C16.7095 11.2303 16.3695 11.5703 15.9595 11.5703H13.4394L13.1794 12.3603H14.4294C15.6894 12.3603 16.7095 13.3803 16.7095 14.6403C16.7095 15.9003 15.6794 16.9203 14.4294 16.9203Z" fill="#292D32"/>
<path d="M9.53955 16.9198C9.12955 16.9198 8.78955 16.5798 8.78955 16.1698V12.7799L8.59955 12.9998C8.31955 13.3098 7.84955 13.3298 7.53955 13.0598C7.22955 12.7798 7.20955 12.3098 7.47955 11.9998L8.97955 10.3298C9.18955 10.0998 9.51957 10.0198 9.80957 10.1298C10.0996 10.2398 10.2895 10.5198 10.2895 10.8298V16.1798C10.2895 16.5898 9.95955 16.9198 9.53955 16.9198Z" fill="#292D32"/>
<path d="M13.9797 5.21973C13.7597 5.21973 13.5398 5.11976 13.3998 4.93976L11.4197 2.46973C11.1597 2.14973 11.2097 1.66974 11.5397 1.41974C11.8597 1.15974 12.3298 1.20973 12.5898 1.53973L14.5698 4.00977C14.8298 4.32977 14.7798 4.80975 14.4498 5.05975C14.3098 5.15975 14.1397 5.21973 13.9797 5.21973Z" fill="#292D32"/>
<path d="M11.9994 22.7498C6.68939 22.7498 2.35938 18.4297 2.35938 13.1097C2.35938 7.78974 6.67939 3.46973 11.9994 3.46973C12.6894 3.46973 13.3894 3.54974 14.1494 3.72974C14.5494 3.81974 14.8094 4.22976 14.7094 4.62976C14.6194 5.02976 14.2094 5.28976 13.8094 5.18976C13.1694 5.03976 12.5694 4.96973 11.9994 4.96973C7.50939 4.96973 3.85938 8.61974 3.85938 13.1097C3.85938 17.5997 7.50939 21.2498 11.9994 21.2498C16.4894 21.2498 20.1394 17.5997 20.1394 13.1097C20.1394 11.3697 19.5694 9.68976 18.4894 8.24976C18.2394 7.91976 18.3094 7.44977 18.6394 7.19977C18.9694 6.94977 19.4394 7.01973 19.6894 7.34973C20.9694 9.04973 21.6394 11.0397 21.6394 13.1097C21.6394 18.4297 17.3094 22.7498 11.9994 22.7498Z" fill="#292D32"/>
</svg>
