<svg width="24" height="24" viewBox="0 0 24 24" fill="none" xmlns="http://www.w3.org/2000/svg">
<path d="M9 10.75C7.48 10.75 6.25 9.52 6.25 8C6.25 6.48 7.48 5.25 9 5.25C10.52 5.25 11.75 6.48 11.75 8C11.75 9.52 10.52 10.75 9 10.75ZM9 6.75C8.31 6.75 7.75 7.31 7.75 8C7.75 8.69 8.31 9.25 9 9.25C9.69 9.25 10.25 8.69 10.25 8C10.25 7.31 9.69 6.75 9 6.75Z" fill="#292D32"/>
<path d="M15 22.75H9C3.57 22.75 1.25 20.43 1.25 15V9C1.25 3.57 3.57 1.25 9 1.25H13C13.41 1.25 13.75 1.59 13.75 2C13.75 2.41 13.41 2.75 13 2.75H9C4.39 2.75 2.75 4.39 2.75 9V15C2.75 19.61 4.39 21.25 9 21.25H15C19.61 21.25 21.25 19.61 21.25 15V10C21.25 9.59 21.59 9.25 22 9.25C22.41 9.25 22.75 9.59 22.75 10V15C22.75 20.43 20.43 22.75 15 22.75Z" fill="#292D32"/>
<path d="M15.6709 9.75043C15.2809 9.75043 14.9209 9.61043 14.6609 9.34043C14.3509 9.03043 14.2009 8.57043 14.2709 8.10043L14.4709 6.71043C14.5209 6.36043 14.7309 5.93043 14.9909 5.68043L18.6209 2.05043C20.0709 0.600427 21.3309 1.43043 21.9509 2.05043C22.5409 2.64043 22.8109 3.26043 22.7509 3.90043C22.7009 4.41043 22.4409 4.90043 21.9509 5.38043L18.3209 9.01043C18.0709 9.26043 17.6409 9.47043 17.2909 9.53043L15.9009 9.73043C15.8209 9.75043 15.7409 9.75043 15.6709 9.75043ZM19.6709 3.12043L16.0409 6.75043C16.0109 6.78043 15.9609 6.89043 15.9509 6.94043L15.7609 8.24043L17.0709 8.06043C17.1109 8.05043 17.2209 8.00043 17.2609 7.96043L20.8909 4.33043C21.1109 4.11043 21.2409 3.91043 21.2509 3.76043C21.2709 3.55043 21.0609 3.29043 20.8909 3.12043C20.3709 2.60043 20.1309 2.66043 19.6709 3.12043Z" fill="#292D32"/>
<path d="M20.9003 6.13074C20.8303 6.13074 20.7603 6.12074 20.7003 6.10074C19.3603 5.72074 18.2903 4.65074 17.9103 3.31074C17.8003 2.91074 18.0303 2.50074 18.4303 2.39074C18.8303 2.28074 19.2403 2.51074 19.3503 2.91074C19.5903 3.75074 20.2603 4.43074 21.1103 4.67074C21.5103 4.78074 21.7403 5.20074 21.6303 5.59074C21.5203 5.91074 21.2203 6.13074 20.9003 6.13074Z" fill="#292D32"/>
<path d="M2.66932 19.7005C2.42932 19.7005 2.18932 19.5805 2.04932 19.3705C1.81932 19.0305 1.90932 18.5605 2.24932 18.3305L7.17932 15.0205C8.25932 14.3005 9.74932 14.3805 10.7293 15.2105L11.0593 15.5005C11.5593 15.9305 12.4093 15.9305 12.8993 15.5005L17.0593 11.9305C18.1193 11.0205 19.7893 11.0205 20.8593 11.9305L22.4893 13.3305C22.7993 13.6005 22.8393 14.0705 22.5693 14.3905C22.2993 14.7005 21.8293 14.7405 21.5093 14.4705L19.8793 13.0705C19.3793 12.6405 18.5293 12.6405 18.0393 13.0705L13.8793 16.6405C12.8193 17.5505 11.1493 17.5505 10.0793 16.6405L9.74932 16.3505C9.28932 15.9605 8.52932 15.9205 8.01932 16.2705L3.09932 19.5805C2.95932 19.6605 2.80932 19.7005 2.66932 19.7005Z" fill="#292D32"/>
</svg>
