<svg width="24" height="24" viewBox="0 0 24 24" fill="none" xmlns="http://www.w3.org/2000/svg">
<path d="M14 18.25H10C9.59 18.25 9.25 17.91 9.25 17.5C9.25 17.09 9.59 16.75 10 16.75H14C14.41 16.75 14.75 17.09 14.75 17.5C14.75 17.91 14.41 18.25 14 18.25Z" fill="#292D32"/>
<path d="M2 18.25C1.59 18.25 1.25 17.91 1.25 17.5V7.5C1.25 3.09 2.59 1.75 7 1.75C7.41 1.75 7.75 2.09 7.75 2.5C7.75 2.91 7.41 3.25 7 3.25C3.43 3.25 2.75 3.92 2.75 7.5V17.5C2.75 17.91 2.41 18.25 2 18.25Z" fill="#292D32"/>
<path d="M22 18.25C21.59 18.25 21.25 17.91 21.25 17.5V7.5C21.25 3.92 20.57 3.25 17 3.25C16.59 3.25 16.25 2.91 16.25 2.5C16.25 2.09 16.59 1.75 17 1.75C21.41 1.75 22.75 3.09 22.75 7.5V17.5C22.75 17.91 22.41 18.25 22 18.25Z" fill="#292D32"/>
<path d="M7.2 22.7499H4.8C2.38 22.7499 1.25 21.6199 1.25 19.1999V15.9099C1.25 13.4899 2.38 12.3599 4.8 12.3599H7.2C9.62 12.3599 10.75 13.4899 10.75 15.9099V19.1999C10.75 21.6199 9.62 22.7499 7.2 22.7499ZM4.8 13.8599C3.21 13.8599 2.75 14.3199 2.75 15.9099V19.1999C2.75 20.7899 3.21 21.2499 4.8 21.2499H7.2C8.79 21.2499 9.25 20.7899 9.25 19.1999V15.9099C9.25 14.3199 8.79 13.8599 7.2 13.8599H4.8Z" fill="#292D32"/>
<path d="M19.2 22.7499H16.8C14.38 22.7499 13.25 21.6199 13.25 19.1999V15.9099C13.25 13.4899 14.38 12.3599 16.8 12.3599H19.2C21.62 12.3599 22.75 13.4899 22.75 15.9099V19.1999C22.75 21.6199 21.62 22.7499 19.2 22.7499ZM16.8 13.8599C15.21 13.8599 14.75 14.3199 14.75 15.9099V19.1999C14.75 20.7899 15.21 21.2499 16.8 21.2499H19.2C20.79 21.2499 21.25 20.7899 21.25 19.1999V15.9099C21.25 14.3199 20.79 13.8599 19.2 13.8599H16.8Z" fill="#292D32"/>
</svg>
