<svg width="24" height="24" viewBox="0 0 24 24" fill="none" xmlns="http://www.w3.org/2000/svg">
<path d="M18.7304 14.6711L14.5804 18.8211C14.4204 18.9811 14.2704 19.2911 14.2304 19.5111L14.0004 21.1011C13.9204 21.6711 14.3204 22.0811 14.8904 21.9911L16.4804 21.7611C16.7004 21.7311 17.0104 21.5711 17.1704 21.4111L21.3204 17.2611C22.0304 16.5511 22.3704 15.7111 21.3204 14.6611C20.2804 13.6211 19.4504 13.9511 18.7304 14.6711Z" fill="#292D32"/>
<path d="M18.1406 15.2617C18.4906 16.5217 19.4806 17.5017 20.7406 17.8617L18.1406 15.2617Z" fill="#292D32"/>
<path d="M2.02977 14.6289C2.02977 14.6589 2.00977 14.6989 2.00977 14.7289C2.92977 16.5689 4.42977 18.0789 6.26977 18.9889C6.29977 18.9889 6.33977 18.9689 6.36977 18.9689C6.02977 17.8089 5.76977 16.6189 5.57977 15.4289C4.37977 15.2289 3.18977 14.9689 2.02977 14.6289Z" fill="#292D32"/>
<path d="M19.0701 6.43141C18.1301 4.46141 16.5401 2.87141 14.5801 1.94141C14.9401 3.13141 15.2401 4.35141 15.4401 5.57141C16.6601 5.77141 17.8801 6.06141 19.0701 6.43141Z" fill="#292D32"/>
<path d="M1.92969 6.42953C3.12969 6.06953 4.34969 5.76953 5.56969 5.56953C5.76969 4.37953 6.01969 3.19953 6.35969 2.03953C6.32969 2.03953 6.28969 2.01953 6.25969 2.01953C4.37969 2.94953 2.84969 4.51953 1.92969 6.42953Z" fill="#292D32"/>
<path d="M13.8197 5.36C13.5797 4.06 13.2797 2.76 12.8497 1.5C12.8297 1.43 12.8297 1.37 12.8197 1.29C12.0797 1.11 11.2997 1 10.4997 1C9.68969 1 8.91969 1.11 8.16969 1.3C8.15969 1.37 8.16969 1.43 8.14969 1.51C7.72969 2.77 7.41969 4.06 7.17969 5.36C9.38969 5.12 11.6097 5.12 13.8197 5.36Z" fill="#292D32"/>
<path d="M5.36 7.17969C4.05 7.41969 2.77 7.72969 1.5 8.14969C1.43 8.16969 1.37 8.16969 1.3 8.17969C1.11 8.91969 1 9.69969 1 10.4997C1 11.3097 1.11 12.0797 1.3 12.8297C1.37 12.8397 1.43 12.8297 1.51 12.8497C2.77 13.2697 4.06 13.5797 5.37 13.8197C5.12 11.6097 5.12 9.38969 5.36 7.17969Z" fill="#292D32"/>
<path d="M19.7009 8.17969C19.6309 8.17969 19.5709 8.16969 19.4909 8.14969C18.2309 7.72969 16.9309 7.41969 15.6309 7.17969C15.8809 9.38969 15.8809 11.6097 15.6309 13.8097C16.9309 13.5697 18.2309 13.2697 19.4909 12.8397C19.5609 12.8197 19.6209 12.8297 19.7009 12.8197C19.8809 12.0697 20.0009 11.2997 20.0009 10.4897C20.0009 9.69969 19.8909 8.92969 19.7009 8.17969Z" fill="#292D32"/>
<path d="M7.17969 15.6389C7.41969 16.9489 7.71969 18.2389 8.14969 19.4989C8.16969 19.5689 8.15969 19.6289 8.16969 19.7089C8.91969 19.8889 9.68969 19.9989 10.4997 19.9989C11.2997 19.9989 12.0797 19.8889 12.8197 19.6989C12.8297 19.6289 12.8297 19.5689 12.8497 19.4889C13.2697 18.2289 13.5797 16.9389 13.8197 15.6289C12.7197 15.7489 11.6097 15.8389 10.4997 15.8389C9.38969 15.8389 8.27969 15.7589 7.17969 15.6389Z" fill="#292D32"/>
<path d="M6.94961 6.95156C6.64961 9.31156 6.64961 11.6916 6.94961 14.0616C9.30961 14.3616 11.6896 14.3616 14.0596 14.0616C14.3596 11.7016 14.3596 9.32156 14.0596 6.95156C11.6896 6.65156 9.30961 6.65156 6.94961 6.95156Z" fill="#292D32"/>
</svg>
