<svg width="24" height="24" viewBox="0 0 24 24" fill="none" xmlns="http://www.w3.org/2000/svg">
<path opacity="0.4" d="M16.44 3.1001C14.63 3.1001 13.01 3.98008 12 5.33008C10.99 3.98008 9.37 3.1001 7.56 3.1001C4.49 3.1001 2 5.60009 2 8.69009C2 9.88009 2.19 10.9801 2.52 12.0001C4.1 17.0001 8.97 19.9901 11.38 20.8101C11.72 20.9301 12.28 20.9301 12.62 20.8101C15.03 19.9901 19.9 17.0001 21.48 12.0001C21.81 10.9801 22 9.88009 22 8.69009C22 5.60009 19.51 3.1001 16.44 3.1001Z" fill="#292D32"/>
<path d="M21.77 20.6797L21.01 19.9198C21.41 19.3198 21.64 18.5997 21.64 17.8297C21.64 15.7197 19.93 14.0098 17.82 14.0098C15.71 14.0098 14 15.7197 14 17.8297C14 19.9397 15.71 21.6497 17.82 21.6497C18.59 21.6497 19.31 21.4197 19.91 21.0197L20.67 21.7798C20.82 21.9298 21.02 22.0098 21.22 22.0098C21.42 22.0098 21.62 21.9298 21.77 21.7798C22.08 21.4698 22.08 20.9797 21.77 20.6797Z" fill="#292D32"/>
</svg>
