<svg width="24" height="24" viewBox="0 0 24 24" fill="none" xmlns="http://www.w3.org/2000/svg">
<path opacity="0.4" d="M21.49 12.0001C21.81 10.9801 22 9.88012 22 8.69012C22 5.60012 19.51 3.1001 16.44 3.1001C14.62 3.1001 13.01 3.98015 12 5.34015C10.99 3.98015 9.37 3.1001 7.56 3.1001C4.49 3.1001 2 5.60012 2 8.69012C2 15.6901 8.48 19.8201 11.38 20.8201C11.55 20.8801 11.77 20.9101 12 20.9101" stroke="#292D32" stroke-width="1.5" stroke-linecap="round" stroke-linejoin="round"/>
<path d="M19.2091 15.74L15.6691 19.2801C15.5291 19.4201 15.3991 19.68 15.3691 19.87L15.1791 21.22C15.1091 21.71 15.4491 22.05 15.9391 21.98L17.2891 21.79C17.4791 21.76 17.7491 21.63 17.8791 21.49L21.4191 17.95C22.0291 17.34 22.3191 16.63 21.4191 15.73C20.5291 14.84 19.8191 15.13 19.2091 15.74Z" stroke="#292D32" stroke-width="1.5" stroke-miterlimit="10" stroke-linecap="round" stroke-linejoin="round"/>
<path d="M18.6992 16.25C18.9992 17.33 19.8392 18.17 20.9192 18.47" stroke="#292D32" stroke-width="1.5" stroke-miterlimit="10" stroke-linecap="round" stroke-linejoin="round"/>
</svg>
