<svg width="24" height="24" viewBox="0 0 24 24" fill="none" xmlns="http://www.w3.org/2000/svg">
<path d="M18.75 22C20.5449 22 22 20.5449 22 18.75C22 16.9551 20.5449 15.5 18.75 15.5C16.9551 15.5 15.5 16.9551 15.5 18.75C15.5 20.5449 16.9551 22 18.75 22Z" fill="#292D32"/>
<path d="M19 8C20.6569 8 22 6.65685 22 5C22 3.34315 20.6569 2 19 2C17.3431 2 16 3.34315 16 5C16 6.65685 17.3431 8 19 8Z" fill="#292D32"/>
<path d="M5 8C6.65685 8 8 6.65685 8 5C8 3.34315 6.65685 2 5 2C3.34315 2 2 3.34315 2 5C2 6.65685 3.34315 8 5 8Z" fill="#292D32"/>
<path d="M4.83049 8.02C5.80049 10.8 8.42049 12.67 11.3705 12.67C11.3805 12.67 11.3905 12.67 11.4005 12.67L14.9305 12.66C16.4505 12.64 17.8105 13.67 18.2205 15.15V17C18.2205 17.42 18.5605 17.76 18.9905 17.76C19.4105 17.76 19.7505 17.42 19.7505 17V5.76C19.7505 5.34 19.4105 5 18.9905 5C18.5705 5 18.2205 5.34 18.2205 5.76V12.38C17.3405 11.6 16.1905 11.12 14.9405 11.12C14.9305 11.12 14.9305 11.12 14.9205 11.12L11.3905 11.13C11.3805 11.13 11.3805 11.13 11.3705 11.13C9.08049 11.13 7.03049 9.68 6.28049 7.51C6.16049 7.2 5.87049 7 5.55049 7C5.47049 7 5.38049 7.02 5.30049 7.04C4.90049 7.18 4.69049 7.62 4.83049 8.02Z" fill="#292D32"/>
</svg>
