<svg width="24" height="24" viewBox="0 0 24 24" fill="none" xmlns="http://www.w3.org/2000/svg">
<path d="M12.3298 12.8396C11.3698 14.5696 9.57978 14.7196 8.33978 13.1696L8.11978 12.8896C6.82978 11.2696 5.00978 11.4696 4.07978 13.3196L2.35978 16.7696C1.15978 19.1696 2.90978 21.9996 5.58978 21.9996H18.3498C20.9398 21.9996 22.6898 19.3496 21.6698 16.9596L18.5398 9.64964C17.4798 7.16964 15.5298 7.06964 14.2198 9.42964" stroke="#292D32" stroke-width="1.5" stroke-linecap="round" stroke-linejoin="round"/>
<path d="M9.9707 5C9.9707 6.66 8.6307 8 6.9707 8C5.3107 8 3.9707 6.66 3.9707 5C3.9707 3.34 5.3107 2 6.9707 2C7.3307 2 7.6707 2.06 7.9807 2.18" stroke="#292D32" stroke-width="1.5" stroke-linecap="round" stroke-linejoin="round"/>
</svg>
