<svg width="24" height="24" viewBox="0 0 24 24" fill="none" xmlns="http://www.w3.org/2000/svg">
<path d="M19.2107 6.36148C18.1707 4.26148 16.1607 2.71148 13.8307 2.20148C11.3907 1.66148 8.8907 2.24148 6.9807 3.78148C5.0607 5.31148 3.9707 7.60148 3.9707 10.0515C3.9707 12.6415 5.5207 15.3515 7.8607 16.9215V17.7515C7.8507 18.0315 7.8407 18.4615 8.1807 18.8115C8.5307 19.1715 9.0507 19.2115 9.4607 19.2115H14.5907C15.1307 19.2115 15.5407 19.0615 15.8207 18.7815C16.2007 18.3915 16.1907 17.8915 16.1807 17.6215V16.9215C19.2807 14.8315 21.2307 10.4215 19.2107 6.36148Z" fill="#292D32"/>
<path d="M15.2611 22.0023C15.2011 22.0023 15.1311 21.9923 15.0711 21.9723C13.0611 21.4023 10.9511 21.4023 8.94113 21.9723C8.57113 22.0723 8.18113 21.8623 8.08113 21.4923C7.97113 21.1223 8.19113 20.7323 8.56113 20.6323C10.8211 19.9923 13.2011 19.9923 15.4611 20.6323C15.8311 20.7423 16.0511 21.1223 15.9411 21.4923C15.8411 21.8023 15.5611 22.0023 15.2611 22.0023Z" fill="#292D32"/>
</svg>
