<svg width="24" height="24" viewBox="0 0 24 24" fill="none" xmlns="http://www.w3.org/2000/svg">
<path d="M16.9897 9.70996H7.00977C6.59977 9.70996 6.25977 9.36996 6.25977 8.95996C6.25977 8.54996 6.59977 8.20996 7.00977 8.20996H16.9897C17.3997 8.20996 17.7397 8.54996 17.7397 8.95996C17.7397 9.36996 17.3997 9.70996 16.9897 9.70996Z" fill="#292D32"/>
<path d="M12 9.71027C11.59 9.71027 11.25 9.37027 11.25 8.96027V7.28027C11.25 6.87027 11.59 6.53027 12 6.53027C12.41 6.53027 12.75 6.87027 12.75 7.28027V8.96027C12.75 9.37027 12.41 9.71027 12 9.71027Z" fill="#292D32"/>
<path d="M7 17.4699C6.59 17.4699 6.25 17.1299 6.25 16.7199C6.25 16.3099 6.59 15.9699 7 15.9699C10.72 15.9699 13.75 12.8199 13.75 8.93994C13.75 8.52994 14.09 8.18994 14.5 8.18994C14.91 8.18994 15.25 8.52994 15.25 8.93994C15.25 13.6499 11.55 17.4699 7 17.4699Z" fill="#292D32"/>
<path d="M17.0012 17.4702C15.0312 17.4702 13.2012 16.4903 11.8612 14.7003C11.6112 14.3703 11.6812 13.9003 12.0112 13.6503C12.3412 13.4003 12.8112 13.4702 13.0612 13.8002C14.1212 15.2002 15.5212 15.9702 17.0112 15.9702C17.4212 15.9702 17.7612 16.3102 17.7612 16.7202C17.7612 17.1302 17.4112 17.4702 17.0012 17.4702Z" fill="#292D32"/>
<path d="M12 22.75C6.07 22.75 1.25 17.93 1.25 12C1.25 6.07 6.07 1.25 12 1.25C17.93 1.25 22.75 6.07 22.75 12C22.75 17.93 17.93 22.75 12 22.75ZM12 2.75C6.9 2.75 2.75 6.9 2.75 12C2.75 17.1 6.9 21.25 12 21.25C17.1 21.25 21.25 17.1 21.25 12C21.25 6.9 17.1 2.75 12 2.75Z" fill="#292D32"/>
</svg>
