<svg width="24" height="24" viewBox="0 0 24 24" fill="none" xmlns="http://www.w3.org/2000/svg">
<path d="M13.15 15.3709C12.93 15.0509 12.54 14.8709 12.09 14.8709H9.76C9.61 14.8709 9.46 14.8109 9.37 14.6909C9.27 14.5709 9.23 14.4209 9.25 14.2509L9.54 12.3909C9.66 11.8409 9.29 11.2109 8.74 11.0209C8.22 10.8309 7.62 11.0909 7.37 11.4609L5.06 14.9009V14.4709C5.06 13.6309 4.7 13.2909 3.82 13.2909H3.24C2.36 13.3009 2 13.6409 2 14.4809V20.1909C2 21.0309 2.36 21.3709 3.24 21.3709H3.82C4.66 21.3709 5.01 21.0409 5.04 20.2809L6.79 21.6309C7.04 21.8709 7.57 22.0009 7.95 22.0009H10.16C10.92 22.0009 11.68 21.4309 11.86 20.7309L13.26 16.4809C13.41 16.0709 13.37 15.6809 13.15 15.3709Z" fill="#292D32"/>
<path d="M21.1108 2.61047H20.5308C19.6908 2.61047 19.3408 2.94047 19.3008 3.70047L17.5508 2.35047C17.3108 2.11047 16.7708 1.98047 16.3908 1.98047H14.1808C13.4208 1.98047 12.6608 2.55047 12.4808 3.25047L11.0808 7.50047C10.9308 7.91047 10.9808 8.30047 11.1908 8.61047C11.4108 8.93047 11.8008 9.11047 12.2508 9.11047H14.5808C14.7308 9.11047 14.8808 9.17047 14.9708 9.29047C15.0708 9.41047 15.1108 9.56047 15.0908 9.73047L14.8008 11.5905C14.6808 12.1405 15.0508 12.7705 15.6008 12.9605C16.1208 13.1505 16.7208 12.8905 16.9708 12.5205L19.2808 9.08047V9.51047C19.2808 10.3505 19.6408 10.6905 20.5208 10.6905H21.1008C21.9808 10.6905 22.3408 10.3505 22.3408 9.51047V3.78047C22.3508 2.95047 21.9908 2.61047 21.1108 2.61047Z" fill="#292D32"/>
</svg>
