<svg width="24" height="24" viewBox="0 0 24 24" fill="none" xmlns="http://www.w3.org/2000/svg">
<path d="M12.0089 22.7498C11.3789 22.7498 10.7489 22.5397 10.2589 22.1197L8.6789 20.7598C8.5189 20.6198 8.11891 20.4797 7.90891 20.4797H6.1789C4.6989 20.4797 3.49891 19.2798 3.49891 17.7998V16.0897C3.49891 15.8797 3.35891 15.4897 3.21891 15.3297L1.86891 13.7397C1.04891 12.7697 1.04891 11.2398 1.86891 10.2698L3.21891 8.6798C3.35891 8.5198 3.49891 8.1298 3.49891 7.9198V6.20971C3.49891 4.72971 4.6989 3.52978 6.1789 3.52978H7.90891C8.11891 3.52978 8.5189 3.37975 8.6789 3.24975L10.2589 1.88977C11.2389 1.04977 12.7689 1.04977 13.7489 1.88977L15.3289 3.24975C15.4889 3.38975 15.8889 3.52978 16.0989 3.52978H17.7989C19.2789 3.52978 20.4789 4.72971 20.4789 6.20971V7.90979C20.4789 8.11979 20.6289 8.5198 20.7689 8.6798L22.1189 10.2598C22.9589 11.2398 22.9589 12.7698 22.1189 13.7498L20.7689 15.3297C20.6289 15.4897 20.4889 15.8897 20.4889 16.0997V17.7998C20.4889 19.2798 19.2889 20.4797 17.8089 20.4797H16.1089C15.8989 20.4797 15.4989 20.6298 15.3389 20.7598L13.7589 22.1197C13.2589 22.5397 12.6289 22.7498 12.0089 22.7498ZM6.1789 5.01977C5.5289 5.01977 4.99891 5.5497 4.99891 6.1997V7.90979C4.99891 8.47979 4.72891 9.20977 4.36891 9.63977L3.0189 11.2297C2.6689 11.6397 2.6689 12.3498 3.0189 12.7598L4.36891 14.3497C4.73891 14.7897 5.00892 15.5197 5.00892 16.0797V17.7898C5.00892 18.4398 5.53891 18.9697 6.18891 18.9697H7.91892C8.49892 18.9697 9.22892 19.2397 9.66892 19.6197L11.2489 20.9797C11.6589 21.3297 12.3789 21.3297 12.7889 20.9797L14.3689 19.6197C14.8089 19.2497 15.5389 18.9697 16.1189 18.9697H17.8189C18.4689 18.9697 18.9989 18.4398 18.9989 17.7898V16.0897C18.9989 15.5097 19.2689 14.7797 19.6489 14.3397L20.9989 12.7598C21.3489 12.3498 21.3489 11.6297 20.9989 11.2197L19.6489 9.63977C19.2789 9.19977 18.9989 8.46977 18.9989 7.88977V6.18969C18.9989 5.53969 18.4689 5.00976 17.8189 5.00976H16.1189C15.5489 5.00976 14.8089 4.73974 14.3689 4.35974L12.7889 2.99975C12.3789 2.64975 11.6589 2.64975 11.2489 2.99975L9.66892 4.35974C9.22892 4.72974 8.49892 5.00976 7.91892 5.00976H6.1789V5.01977Z" fill="#292D32"/>
<path d="M13.9998 16.9698H12.2198C11.7998 16.9698 11.1697 16.8398 10.7997 16.4698L9.41977 15.4099L10.3398 14.2198L11.7898 15.3398C11.8898 15.4098 12.0698 15.4598 12.2198 15.4598H13.9998C14.2398 15.4598 14.5297 15.2499 14.5797 15.0399L15.7198 11.5698C15.7498 11.4798 15.7497 11.4199 15.7397 11.3999C15.7197 11.3699 15.6497 11.3398 15.5497 11.3398H13.6797C13.3197 11.3398 12.9898 11.1899 12.7498 10.9199C12.5198 10.6499 12.4097 10.2899 12.4597 9.9199L12.6998 8.40989C12.7198 8.32989 12.6598 8.22982 12.5998 8.20982C12.5398 8.19982 12.4498 8.21986 12.4198 8.24986L10.5098 11.0898L9.25977 10.2499L11.1797 7.39988C11.5797 6.79988 12.4198 6.5399 13.0998 6.7899C13.8598 7.0399 14.3497 7.89991 14.1797 8.67991L13.9998 9.8198H15.5497C16.1397 9.8198 16.6598 10.0699 16.9698 10.5099C17.2698 10.9399 17.3397 11.4999 17.1497 12.0299L16.0298 15.4299C15.8198 16.2899 14.9298 16.9698 13.9998 16.9698Z" fill="#292D32"/>
<path d="M8.90024 16.4601H8.43024C6.96024 16.4601 6.74023 15.4301 6.74023 14.8201V10.2401C6.74023 9.63011 6.96024 8.6001 8.43024 8.6001H8.90024C10.3702 8.6001 10.5902 9.63011 10.5902 10.2401V14.8201C10.5902 15.4301 10.3702 16.4601 8.90024 16.4601ZM8.26025 14.9501C8.30025 14.9601 8.36025 14.9601 8.44025 14.9601H8.91025C8.99025 14.9601 9.05024 14.9601 9.09024 14.9501C9.09024 14.9201 9.10025 14.8801 9.10025 14.8201V10.2401C9.10025 10.1801 9.10024 10.1401 9.09024 10.1101C9.05024 10.1001 8.99025 10.1001 8.91025 10.1001H8.44025C8.36025 10.1001 8.30025 10.1001 8.26025 10.1101C8.26025 10.1401 8.25024 10.1801 8.25024 10.2401V14.8201C8.25024 14.8801 8.25025 14.9201 8.26025 14.9501Z" fill="#292D32"/>
</svg>
