<svg width="24" height="24" viewBox="0 0 24 24" fill="none" xmlns="http://www.w3.org/2000/svg">
<path d="M13.0103 22.5C12.4103 22.5 11.4803 22.21 10.5903 20.75L8.83027 17.9C8.66027 17.62 8.14026 17.35 7.82026 17.37L4.48024 17.54C2.48024 17.64 1.78028 16.81 1.53028 16.31C1.28028 15.81 1.06024 14.74 2.36024 13.22L4.34028 10.92C4.54028 10.68 4.65025 10.16 4.56025 9.86002L3.55024 6.63004C3.04024 5.01004 3.61025 4.14004 3.99025 3.76004C4.37024 3.38004 5.25025 2.83003 6.87025 3.37003L9.82026 4.34003C10.0903 4.43003 10.5903 4.35003 10.8203 4.19003L13.9003 1.97003C15.3103 0.950032 16.3302 1.22003 16.8002 1.47003C17.2702 1.72003 18.0702 2.40005 18.0402 4.14005L17.9702 7.93002C17.9602 8.21002 18.1902 8.67003 18.4102 8.84003L20.8903 10.72C22.2403 11.75 22.2903 12.78 22.2003 13.31C22.1103 13.84 21.7103 14.8 20.0903 15.3L16.8602 16.31C16.5602 16.4 16.1902 16.79 16.1102 17.09L15.3403 20.03C14.8303 21.96 13.8303 22.39 13.2703 22.47C13.2003 22.49 13.1103 22.5 13.0103 22.5ZM7.85023 15.87C8.71023 15.87 9.66023 16.39 10.1002 17.11L11.8602 19.96C12.3602 20.78 12.8102 21.03 13.0502 20.99C13.2802 20.96 13.6403 20.58 13.8903 19.66L14.6602 16.72C14.8702 15.92 15.6202 15.13 16.4102 14.89L19.6403 13.88C20.2603 13.69 20.6602 13.38 20.7202 13.06C20.7802 12.74 20.5002 12.32 19.9802 11.92L17.5003 10.04C16.8903 9.58004 16.4503 8.66002 16.4603 7.90002L16.5303 4.11002C16.5403 3.44002 16.3803 2.94004 16.0903 2.79004C15.8003 2.64004 15.3103 2.79002 14.7603 3.18002L11.6802 5.40002C11.0702 5.84002 10.0603 6.00004 9.33027 5.76004L6.38026 4.79004C5.76026 4.59004 5.26028 4.60002 5.03028 4.83002C4.80028 5.06002 4.78023 5.56002 4.97023 6.18002L5.98024 9.41003C6.23024 10.2 6.01023 11.27 5.47023 11.89L3.49025 14.19C2.86025 14.92 2.76025 15.43 2.87025 15.64C2.97025 15.85 3.45028 16.08 4.40028 16.03L7.74025 15.86C7.78025 15.87 7.82023 15.87 7.85023 15.87Z" fill="#292D32"/>
<path d="M21.9103 22.7502C21.7203 22.7502 21.5303 22.6802 21.3803 22.5302L18.3503 19.5002C18.0603 19.2102 18.0603 18.7302 18.3503 18.4402C18.6403 18.1502 19.1203 18.1502 19.4103 18.4402L22.4403 21.4702C22.7303 21.7602 22.7303 22.2402 22.4403 22.5302C22.2903 22.6802 22.1003 22.7502 21.9103 22.7502Z" fill="#292D32"/>
</svg>
