<svg width="24" height="24" viewBox="0 0 24 24" fill="none" xmlns="http://www.w3.org/2000/svg">
<path d="M21.97 12C21.97 14.94 20.69 17.6 18.65 19.41C16.89 21.01 14.56 21.97 12 21.97C6.5 21.97 2.03 17.5 2.03 12C2.03 6.50003 6.5 2.03003 12 2.03003C14.56 2.03003 16.89 2.99003 18.65 4.59003C20.69 6.40003 21.97 9.06003 21.97 12Z" stroke="#292D32" stroke-width="1.5" stroke-linecap="round" stroke-linejoin="round"/>
<path d="M11.97 16.39C11.95 18.04 10.72 18.44 9.57 17.98C7.2 17.03 5.53 14.71 5.53 12C5.53 9.28999 7.2 6.97 9.57 6.01C10.72 5.55 11.95 5.95999 11.97 7.59999V16.39Z" stroke="#292D32" stroke-width="1.5" stroke-linecap="round" stroke-linejoin="round"/>
</svg>
