<svg width="24" height="24" viewBox="0 0 24 24" fill="none" xmlns="http://www.w3.org/2000/svg">
<path d="M15.9998 22.3195C15.6598 22.3195 15.3298 22.2195 15.0398 22.0295L10.7798 19.1895H8.88977C8.65977 19.1895 8.43974 19.0795 8.29974 18.8995C8.15974 18.7095 8.10977 18.4694 8.16977 18.2495C8.22977 18.0095 8.25977 17.7695 8.25977 17.5095C8.25977 16.7095 7.95977 15.9395 7.41977 15.3395C6.80977 14.6495 5.93977 14.2595 5.00977 14.2595C4.11977 14.2595 3.29975 14.6094 2.67975 15.2394C2.48975 15.4394 2.19976 15.5095 1.93976 15.4395C1.67976 15.3595 1.46976 15.1495 1.40976 14.8795C1.30976 14.4395 1.25977 13.9595 1.25977 13.4395V7.43945C1.25977 3.99945 3.56977 1.68945 7.00977 1.68945H17.0098C20.4498 1.68945 22.7598 3.99945 22.7598 7.43945V13.4395C22.7598 15.1095 22.2098 16.5494 21.1598 17.5994C20.2798 18.4794 19.1098 19.0095 17.7598 19.1495V20.5695C17.7598 21.2195 17.3997 21.8094 16.8297 22.1194C16.5597 22.2494 16.2798 22.3195 15.9998 22.3195ZM9.74976 17.6794H10.9998C11.1498 17.6794 11.2898 17.7194 11.4198 17.8094L15.8698 20.7795C15.9798 20.8495 16.0698 20.8194 16.1198 20.7894C16.1698 20.7594 16.2598 20.6994 16.2598 20.5594V18.4294C16.2598 18.0194 16.5998 17.6794 17.0098 17.6794C18.2798 17.6794 19.3498 17.2795 20.0998 16.5295C20.8598 15.7695 21.2598 14.6994 21.2598 13.4294V7.42944C21.2598 4.84944 19.5898 3.17944 17.0098 3.17944H7.00977C4.42977 3.17944 2.75977 4.84944 2.75977 7.42944V13.3094C3.43977 12.9394 4.20977 12.7495 5.00977 12.7495C6.36977 12.7495 7.65976 13.3295 8.53976 14.3295C9.31976 15.1995 9.75977 16.3195 9.75977 17.4995C9.74977 17.5595 9.74976 17.6194 9.74976 17.6794Z" fill="#292D32"/>
<path d="M5 22.25C3.34 22.25 1.78 21.37 0.940002 19.94C0.490002 19.22 0.25 18.37 0.25 17.5C0.25 16.04 0.899999 14.69 2.03 13.79C2.87 13.12 3.93 12.75 5 12.75C7.62 12.75 9.75 14.88 9.75 17.5C9.75 18.37 9.51 19.22 9.06 19.95C8.81 20.37 8.48999 20.75 8.10999 21.07C7.27999 21.83 6.17 22.25 5 22.25ZM5 14.25C4.26 14.25 3.56 14.5 2.97 14.97C2.2 15.58 1.75 16.51 1.75 17.5C1.75 18.09 1.91 18.67 2.22 19.17C2.8 20.15 3.87 20.75 5 20.75C5.79 20.75 6.55 20.46 7.13 19.94C7.39001 19.72 7.60999 19.46 7.76999 19.18C8.08999 18.67 8.25 18.09 8.25 17.5C8.25 15.71 6.79 14.25 5 14.25Z" fill="#292D32"/>
<path d="M4.4289 19.2396C4.2389 19.2396 4.0489 19.1696 3.8989 19.0196L2.90891 18.0296C2.61891 17.7396 2.61891 17.2595 2.90891 16.9695C3.19891 16.6795 3.6789 16.6795 3.9689 16.9695L4.44891 17.4496L6.04889 15.9695C6.34889 15.6895 6.82889 15.7096 7.10889 16.0096C7.38889 16.3096 7.36891 16.7896 7.06891 17.0696L4.93891 19.0396C4.7889 19.1696 4.6089 19.2396 4.4289 19.2396Z" fill="#292D32"/>
<path d="M15.5 11.25H8.5C8.09 11.25 7.75 10.91 7.75 10.5C7.75 10.09 8.09 9.75 8.5 9.75H15.5C15.91 9.75 16.25 10.09 16.25 10.5C16.25 10.91 15.91 11.25 15.5 11.25Z" fill="#292D32"/>
</svg>
