<svg width="24" height="24" viewBox="0 0 24 24" fill="none" xmlns="http://www.w3.org/2000/svg">
<path d="M12.0016 21.9292C6.96156 21.9292 2.85156 17.8292 2.85156 12.7792V10.8992C2.85156 10.5092 3.17156 10.1992 3.55156 10.1992C3.93156 10.1992 4.25156 10.5192 4.25156 10.8992V12.7792C4.25156 17.0492 7.72156 20.5192 11.9916 20.5192C16.2616 20.5192 19.7316 17.0492 19.7316 12.7792V10.8992C19.7316 10.5092 20.0516 10.1992 20.4316 10.1992C20.8116 10.1992 21.1316 10.5192 21.1316 10.8992V12.7792C21.1516 17.8292 17.0416 21.9292 12.0016 21.9292Z" fill="#292D32"/>
<path d="M12.0023 2C8.64234 2 5.90234 4.74 5.90234 8.1V12.79C5.90234 16.15 8.64234 18.89 12.0023 18.89C15.3623 18.89 18.1023 16.15 18.1023 12.79V8.1C18.1023 4.74 15.3623 2 12.0023 2ZM14.1823 10.59C14.1123 10.86 13.8623 11.04 13.5923 11.04C13.5423 11.04 13.4823 11.03 13.4323 11.02C12.4123 10.74 11.3323 10.74 10.3123 11.02C9.98234 11.11 9.65234 10.92 9.56234 10.59C9.47234 10.27 9.66234 9.93 9.99234 9.84C11.2223 9.5 12.5223 9.5 13.7523 9.84C14.0823 9.93 14.2723 10.26 14.1823 10.59ZM15.0323 7.82C14.9423 8.07 14.7123 8.22 14.4623 8.22C14.3923 8.22 14.3223 8.21 14.2523 8.18C12.7223 7.62 11.0423 7.62 9.51234 8.18C9.19234 8.3 8.84234 8.14 8.72234 7.82C8.61234 7.51 8.77234 7.16 9.09234 7.04C10.8923 6.39 12.8723 6.39 14.6623 7.04C14.9823 7.16 15.1423 7.51 15.0323 7.82Z" fill="#292D32"/>
</svg>
