<svg width="24" height="24" viewBox="0 0 24 24" fill="none" xmlns="http://www.w3.org/2000/svg">
<path d="M2 3H22" stroke="#292D32" stroke-width="1.5" stroke-miterlimit="10" stroke-linecap="round" stroke-linejoin="round"/>
<path d="M2 9H11" stroke="#292D32" stroke-width="1.5" stroke-miterlimit="10" stroke-linecap="round" stroke-linejoin="round"/>
<path d="M2 15H8" stroke="#292D32" stroke-width="1.5" stroke-miterlimit="10" stroke-linecap="round" stroke-linejoin="round"/>
<path d="M2 21H6" stroke="#292D32" stroke-width="1.5" stroke-miterlimit="10" stroke-linecap="round" stroke-linejoin="round"/>
<path d="M11.84 21.9999C13.044 21.9999 14.02 21.0239 14.02 19.8199C14.02 18.6159 13.044 17.6399 11.84 17.6399C10.6361 17.6399 9.66003 18.6159 9.66003 19.8199C9.66003 21.0239 10.6361 21.9999 11.84 21.9999Z" stroke="#292D32" stroke-width="1.5" stroke-linecap="round" stroke-linejoin="round"/>
<path d="M22 18.3699V9.85993C22 8.04993 20.86 7.79993 19.71 8.10993L15.36 9.29993C14.57 9.51993 14.02 10.1399 14.02 11.0499V12.57V13.59V19.82" stroke="#292D32" stroke-width="1.5" stroke-linecap="round" stroke-linejoin="round"/>
<path d="M19.82 20.5499C21.024 20.5499 22 19.5739 22 18.3699C22 17.166 21.024 16.1899 19.82 16.1899C18.616 16.1899 17.64 17.166 17.64 18.3699C17.64 19.5739 18.616 20.5499 19.82 20.5499Z" stroke="#292D32" stroke-width="1.5" stroke-linecap="round" stroke-linejoin="round"/>
<path d="M14.02 13.5999L22 11.4199" stroke="#292D32" stroke-width="1.5" stroke-linecap="round" stroke-linejoin="round"/>
</svg>
