<svg width="24" height="24" viewBox="0 0 24 24" fill="none" xmlns="http://www.w3.org/2000/svg">
<path d="M4 6C2.75 7.67 2 9.75 2 12C2 17.52 6.48 22 12 22C17.52 22 22 17.52 22 12C22 6.48 17.52 2 12 2C10.57 2 9.2 2.3 7.97 2.85" stroke="#292D32" stroke-width="1.5" stroke-linecap="round" stroke-linejoin="round"/>
<path d="M10.7491 14.4302V9.3702C10.7491 8.8902 10.5491 8.7002 10.0391 8.7002H8.74906C8.23906 8.7002 8.03906 8.8902 8.03906 9.3702V14.4302C8.03906 14.9102 8.23906 15.1002 8.74906 15.1002H10.0391C10.5491 15.1002 10.7491 14.9102 10.7491 14.4302Z" stroke="#292D32" stroke-width="1.5" stroke-linecap="round" stroke-linejoin="round"/>
<path d="M16.0303 14.4302V9.3702C16.0303 8.8902 15.8303 8.7002 15.3203 8.7002H14.0303C13.5203 8.7002 13.3203 8.8902 13.3203 9.3702V14.4302C13.3203 14.9102 13.5203 15.1002 14.0303 15.1002" stroke="#292D32" stroke-width="1.5" stroke-linecap="round" stroke-linejoin="round"/>
</svg>
