<svg width="24" height="24" viewBox="0 0 24 24" fill="none" xmlns="http://www.w3.org/2000/svg">
<path opacity="0.4" d="M19.0803 15.7198C18.4903 12.1898 15.1003 9.31982 11.5203 9.31982C7.63028 9.31982 4.21028 12.4698 3.88028 16.3498C3.75028 17.8498 4.23028 19.2698 5.22028 20.3398C6.20028 21.4098 7.58028 21.9998 9.08028 21.9998H13.7603C15.4503 21.9998 16.9303 21.3398 17.9403 20.1498C18.9503 18.9598 19.3503 17.3798 19.0803 15.7198Z" fill="#292D32"/>
<path d="M10.2796 7.86C11.8978 7.86 13.2096 6.54819 13.2096 4.93C13.2096 3.31181 11.8978 2 10.2796 2C8.66141 2 7.34961 3.31181 7.34961 4.93C7.34961 6.54819 8.66141 7.86 10.2796 7.86Z" fill="#292D32"/>
<path d="M16.94 9.0299C18.2876 9.0299 19.38 7.93748 19.38 6.5899C19.38 5.24233 18.2876 4.1499 16.94 4.1499C15.5924 4.1499 14.5 5.24233 14.5 6.5899C14.5 7.93748 15.5924 9.0299 16.94 9.0299Z" fill="#292D32"/>
<path d="M20.5496 12.9298C21.6266 12.9298 22.4996 12.0567 22.4996 10.9798C22.4996 9.90283 21.6266 9.02979 20.5496 9.02979C19.4727 9.02979 18.5996 9.90283 18.5996 10.9798C18.5996 12.0567 19.4727 12.9298 20.5496 12.9298Z" fill="#292D32"/>
<path d="M3.94 10.9801C5.28757 10.9801 6.38 9.88767 6.38 8.5401C6.38 7.19252 5.28757 6.1001 3.94 6.1001C2.59243 6.1001 1.5 7.19252 1.5 8.5401C1.5 9.88767 2.59243 10.9801 3.94 10.9801Z" fill="#292D32"/>
</svg>
