<svg width="24" height="24" viewBox="0 0 24 24" fill="none" xmlns="http://www.w3.org/2000/svg">
<path d="M18.4098 18.0898L15.5898 20.9098" stroke="#292D32" stroke-width="1.5" stroke-linecap="round" stroke-linejoin="round"/>
<path d="M18.4098 20.9098L15.5898 18.0898" stroke="#292D32" stroke-width="1.5" stroke-linecap="round" stroke-linejoin="round"/>
<path d="M12.0008 21.8097C10.1808 21.8097 8.37078 21.3497 6.99078 20.4297C4.57078 18.8097 4.57078 16.1697 6.99078 14.5597C9.74078 12.7197 14.2508 12.7197 17.0008 14.5597" stroke="#292D32" stroke-width="1.5" stroke-linecap="round" stroke-linejoin="round"/>
<path d="M15.6805 3.96C16.1605 4.67 16.4405 5.52 16.4405 6.44C16.4305 8.84 14.5405 10.79 12.1605 10.87C12.0605 10.86 11.9405 10.86 11.8305 10.87C9.45055 10.79 7.56055 8.84 7.56055 6.44C7.56055 3.99 9.54055 2 12.0005 2" stroke="#292D32" stroke-width="1.5" stroke-linecap="round" stroke-linejoin="round"/>
</svg>
