<svg width="24" height="24" viewBox="0 0 24 24" fill="none" xmlns="http://www.w3.org/2000/svg">
<path d="M11.9991 14.3801C13.3136 14.3801 14.3792 13.3146 14.3792 12.0001C14.3792 10.6857 13.3136 9.62012 11.9991 9.62012C10.6847 9.62012 9.61914 10.6857 9.61914 12.0001C9.61914 13.3146 10.6847 14.3801 11.9991 14.3801Z" fill="#292D32"/>
<path opacity="0.4" d="M20.0003 18.7498C19.8403 18.7498 19.6903 18.6998 19.5503 18.5998C19.2203 18.3498 19.1503 17.8798 19.4003 17.5498C20.6103 15.9398 21.2503 14.0198 21.2503 11.9998C21.2503 9.97979 20.6103 8.05981 19.4003 6.44981C19.1503 6.11981 19.2203 5.64979 19.5503 5.39979C19.8803 5.14979 20.3503 5.21978 20.6003 5.54978C22.0103 7.41978 22.7503 9.64979 22.7503 11.9998C22.7503 14.3498 22.0103 16.5798 20.6003 18.4498C20.4503 18.6498 20.2303 18.7498 20.0003 18.7498Z" fill="#292D32"/>
<path opacity="0.4" d="M4 18.7498C3.77 18.7498 3.54999 18.6498 3.39999 18.4498C1.98999 16.5798 1.25 14.3498 1.25 11.9998C1.25 9.64979 1.98999 7.41978 3.39999 5.54978C3.64999 5.21978 4.12001 5.14979 4.45001 5.39979C4.78001 5.64979 4.85001 6.11981 4.60001 6.44981C3.39001 8.05981 2.75 9.97979 2.75 11.9998C2.75 14.0198 3.39001 15.9398 4.60001 17.5498C4.85001 17.8798 4.78001 18.3498 4.45001 18.5998C4.32001 18.6998 4.16 18.7498 4 18.7498Z" fill="#292D32"/>
<path opacity="0.4" d="M16.7991 16.3502C16.6391 16.3502 16.4891 16.3002 16.3491 16.2002C16.0191 15.9502 15.9491 15.4802 16.1991 15.1502C16.8891 14.2402 17.2491 13.1502 17.2491 12.0002C17.2491 10.8502 16.8891 9.76018 16.1991 8.85018C15.9491 8.52018 16.0191 8.05017 16.3491 7.80017C16.6791 7.55017 17.1491 7.62019 17.3991 7.95019C18.2791 9.13019 18.7491 10.5302 18.7491 12.0002C18.7491 13.4702 18.2791 14.8802 17.3991 16.0502C17.2491 16.2502 17.0291 16.3502 16.7991 16.3502Z" fill="#292D32"/>
<path opacity="0.4" d="M7.20001 16.3502C6.97001 16.3502 6.75001 16.2502 6.60001 16.0502C5.72001 14.8702 5.25 13.4702 5.25 12.0002C5.25 10.5302 5.72001 9.12019 6.60001 7.95019C6.85001 7.62019 7.31999 7.55017 7.64999 7.80017C7.97999 8.05017 8.04999 8.52018 7.79999 8.85018C7.10999 9.76018 6.75 10.8502 6.75 12.0002C6.75 13.1502 7.10999 14.2402 7.79999 15.1502C8.04999 15.4802 7.97999 15.9502 7.64999 16.2002C7.51999 16.3002 7.36001 16.3502 7.20001 16.3502Z" fill="#292D32"/>
</svg>
