<svg width="24" height="24" viewBox="0 0 24 24" fill="none" xmlns="http://www.w3.org/2000/svg">
<path d="M12 18.01C8.83 18.01 6.25 15.43 6.25 12.26C6.25 11.12 6.58 10.01 7.22 9.07C7.45 8.73 7.91999 8.63 8.25999 8.86C8.59999 9.09 8.7 9.56 8.47 9.9C8 10.6 7.75999 11.42 7.75999 12.26C7.75999 14.6 9.66999 16.51 12.01 16.51C14.35 16.51 16.26 14.6 16.26 12.26C16.26 9.92 14.35 8.01 12.01 8.01C11.51 8.01 11.03 8.08 10.56 8.22C10.17 8.34 9.75 8.12 9.62 7.72C9.5 7.32 9.72 6.9 10.12 6.78C10.73 6.59 11.36 6.5 12.01 6.5C15.18 6.5 17.76 9.08 17.76 12.25C17.76 15.42 15.17 18.01 12 18.01Z" fill="#292D32"/>
<path d="M9.61911 8.39987C9.44911 8.39987 9.26912 8.33987 9.12912 8.21987C8.81912 7.94987 8.78911 7.46987 9.05911 7.15987L10.7291 5.24987C10.9991 4.93987 11.4791 4.89987 11.7891 5.17987C12.0991 5.44987 12.1291 5.92986 11.8591 6.23986L10.1891 8.14987C10.0291 8.30987 9.82911 8.39987 9.61911 8.39987Z" fill="#292D32"/>
<path d="M11.5598 9.82004C11.4098 9.82004 11.2498 9.77004 11.1198 9.68004L9.17976 8.26004C8.84976 8.02004 8.76977 7.55004 9.01977 7.21004C9.25977 6.88004 9.72978 6.80005 10.0698 7.05005L12.0098 8.47004C12.3398 8.71004 12.4198 9.18004 12.1698 9.52004C12.0198 9.71004 11.7898 9.82004 11.5598 9.82004Z" fill="#292D32"/>
<path d="M15 22.75H9C3.57 22.75 1.25 20.43 1.25 15V9C1.25 3.57 3.57 1.25 9 1.25H15C20.43 1.25 22.75 3.57 22.75 9V15C22.75 20.43 20.43 22.75 15 22.75ZM9 2.75C4.39 2.75 2.75 4.39 2.75 9V15C2.75 19.61 4.39 21.25 9 21.25H15C19.61 21.25 21.25 19.61 21.25 15V9C21.25 4.39 19.61 2.75 15 2.75H9Z" fill="#292D32"/>
</svg>
