<svg width="24" height="24" viewBox="0 0 24 24" fill="none" xmlns="http://www.w3.org/2000/svg">
<path opacity="0.4" d="M11.5 21C16.7467 21 21 16.7467 21 11.5C21 6.25329 16.7467 2 11.5 2C6.25329 2 2 6.25329 2 11.5C2 16.7467 6.25329 21 11.5 21Z" fill="#292D32"/>
<path d="M21.3005 22.0001C21.1205 22.0001 20.9405 21.9301 20.8105 21.8001L18.9505 19.9401C18.6805 19.6701 18.6805 19.2301 18.9505 18.9501C19.2205 18.6801 19.6605 18.6801 19.9405 18.9501L21.8005 20.8101C22.0705 21.0801 22.0705 21.5201 21.8005 21.8001C21.6605 21.9301 21.4805 22.0001 21.3005 22.0001Z" fill="#292D32"/>
<path d="M14.1992 10.9502H12.4492V9.2002C12.4492 8.7902 12.1092 8.4502 11.6992 8.4502C11.2892 8.4502 10.9492 8.7902 10.9492 9.2002V10.9502H9.19922C8.78922 10.9502 8.44922 11.2902 8.44922 11.7002C8.44922 12.1102 8.78922 12.4502 9.19922 12.4502H10.9492V14.2002C10.9492 14.6102 11.2892 14.9502 11.6992 14.9502C12.1092 14.9502 12.4492 14.6102 12.4492 14.2002V12.4502H14.1992C14.6092 12.4502 14.9492 12.1102 14.9492 11.7002C14.9492 11.2902 14.6092 10.9502 14.1992 10.9502Z" fill="#292D32"/>
</svg>
