<svg width="24" height="24" viewBox="0 0 24 24" fill="none" xmlns="http://www.w3.org/2000/svg">
<path opacity="0.4" d="M9.50929 4.23013L18.0693 8.51013C21.9093 10.4301 21.9093 13.5701 18.0693 15.4901L9.50929 19.7701C3.74929 22.6501 1.39929 20.2901 4.27929 14.5401L5.14929 12.8101C5.39929 12.3001 5.39929 11.7101 5.14929 11.2001L4.27929 9.46013C1.39929 3.71013 3.75929 1.35013 9.50929 4.23013Z" fill="#292D32"/>
<path d="M14.8395 12.75H9.43945C9.02945 12.75 8.68945 12.41 8.68945 12C8.68945 11.59 9.02945 11.25 9.43945 11.25H14.8395C15.2495 11.25 15.5895 11.59 15.5895 12C15.5895 12.41 15.2495 12.75 14.8395 12.75Z" fill="#292D32"/>
</svg>
