<svg width="24" height="24" viewBox="0 0 24 24" fill="none" xmlns="http://www.w3.org/2000/svg">
<path d="M11.75 7H11H7C4.24 7 2 9.24 2 12V17C2 19.76 4.24 22 7 22H12C14.76 22 17 19.76 17 17V13V12.25C17 9.35 14.65 7 11.75 7Z" fill="#292D32"/>
<path d="M21.8806 6.33033C22.4606 9.16033 20.8806 11.7003 18.5006 12.6103V11.7503C18.5006 8.31033 15.6906 5.50033 12.2506 5.50033H11.3906C12.3006 3.12033 14.8406 1.54033 17.6706 2.12033C19.7606 2.55033 21.4506 4.24033 21.8806 6.33033Z" fill="#292D32"/>
</svg>
