<svg width="24" height="24" viewBox="0 0 24 24" fill="none" xmlns="http://www.w3.org/2000/svg">
<path d="M20.3611 12.7315C19.9911 12.7315 19.6811 12.4515 19.6411 12.0815C19.4011 9.88154 18.2211 7.90154 16.4011 6.64154C16.0711 6.41154 15.9911 5.96154 16.2211 5.63154C16.4511 5.30154 16.9011 5.22154 17.2311 5.45154C19.4011 6.96154 20.8011 9.32154 21.0911 11.9315C21.1311 12.3315 20.8411 12.6915 20.4411 12.7315C20.4111 12.7315 20.3911 12.7315 20.3611 12.7315Z" fill="#292D32"/>
<path d="M3.74127 12.7812C3.72127 12.7812 3.69127 12.7812 3.67127 12.7812C3.27127 12.7412 2.98127 12.3812 3.02127 11.9812C3.29127 9.37118 4.67127 7.01118 6.82127 5.49118C7.14127 5.26118 7.60126 5.34118 7.83126 5.66118C8.06126 5.99118 7.98127 6.44118 7.66126 6.67118C5.86126 7.95118 4.69126 9.93118 4.47126 12.1212C4.43126 12.5012 4.11127 12.7812 3.74127 12.7812Z" fill="#292D32"/>
<path d="M15.9906 21.1003C14.7606 21.6903 13.4406 21.9903 12.0606 21.9903C10.6206 21.9903 9.25059 21.6703 7.97059 21.0203C7.61059 20.8503 7.47059 20.4103 7.65059 20.0503C7.82059 19.6903 8.26059 19.5503 8.62059 19.7203C9.25059 20.0403 9.92059 20.2603 10.6006 20.3903C11.5206 20.5703 12.4606 20.5803 13.3806 20.4203C14.0606 20.3003 14.7306 20.0903 15.3506 19.7903C15.7206 19.6203 16.1606 19.7603 16.3206 20.1303C16.5006 20.4903 16.3606 20.9303 15.9906 21.1003Z" fill="#292D32"/>
<path d="M12.0505 2.01172C10.5005 2.01172 9.23047 3.27172 9.23047 4.83172C9.23047 6.39172 10.4905 7.65172 12.0505 7.65172C13.6105 7.65172 14.8705 6.39172 14.8705 4.83172C14.8705 3.27172 13.6105 2.01172 12.0505 2.01172Z" fill="#292D32"/>
<path d="M5.05047 13.8711C3.50047 13.8711 2.23047 15.1311 2.23047 16.6911C2.23047 18.2511 3.49047 19.5111 5.05047 19.5111C6.61047 19.5111 7.87047 18.2511 7.87047 16.6911C7.87047 15.1311 6.60047 13.8711 5.05047 13.8711Z" fill="#292D32"/>
<path d="M18.9509 13.8711C17.4009 13.8711 16.1309 15.1311 16.1309 16.6911C16.1309 18.2511 17.3909 19.5111 18.9509 19.5111C20.5109 19.5111 21.7709 18.2511 21.7709 16.6911C21.7709 15.1311 20.5109 13.8711 18.9509 13.8711Z" fill="#292D32"/>
</svg>
