<svg width="24" height="24" viewBox="0 0 24 24" fill="none" xmlns="http://www.w3.org/2000/svg">
<path d="M18.5408 4.17063L13.0408 2.11062C12.4708 1.90063 11.5408 1.90063 10.9708 2.11062L5.47078 4.17063C4.41078 4.57063 3.55078 5.81063 3.55078 6.94063V15.0406C3.55078 15.8506 4.08078 16.9206 4.73078 17.4006L10.2308 21.5106C11.2008 22.2406 12.7908 22.2406 13.7608 21.5106L19.2608 17.4006C19.9108 16.9106 20.4408 15.8506 20.4408 15.0406V6.94063C20.4508 5.81063 19.5908 4.57063 18.5408 4.17063ZM12.7508 12.8706V15.5006C12.7508 15.9106 12.4108 16.2506 12.0008 16.2506C11.5908 16.2506 11.2508 15.9106 11.2508 15.5006V12.8706C10.2408 12.5506 9.50078 11.6106 9.50078 10.5006C9.50078 9.12062 10.6208 8.00063 12.0008 8.00063C13.3808 8.00063 14.5008 9.12062 14.5008 10.5006C14.5008 11.6206 13.7608 12.5506 12.7508 12.8706Z" fill="#292D32"/>
</svg>
