<svg width="24" height="24" viewBox="0 0 24 24" fill="none" xmlns="http://www.w3.org/2000/svg">
<path d="M5.73937 16C5.84937 15.51 5.64937 14.81 5.29937 14.46L2.86937 12.03C2.10937 11.27 1.80937 10.46 2.02937 9.76C2.25937 9.06 2.96937 8.58 4.02937 8.4L7.14937 7.88C7.59937 7.8 8.14937 7.4 8.35937 6.99L10.0794 3.54C10.5794 2.55 11.2594 2 11.9994 2C12.7394 2 13.4194 2.55 13.9194 3.54L15.6394 6.99C15.7694 7.25 16.0394 7.5 16.3294 7.67L5.55937 18.44C5.41937 18.58 5.17937 18.45 5.21937 18.25L5.73937 16Z" fill="#292D32"/>
<path d="M18.6988 14.4619C18.3388 14.8219 18.1388 15.5119 18.2588 16.0019L18.9488 19.0119C19.2388 20.2619 19.0588 21.2019 18.4388 21.6519C18.1888 21.8319 17.8888 21.9219 17.5388 21.9219C17.0288 21.9219 16.4288 21.7319 15.7688 21.3419L12.8388 19.6019C12.3788 19.3319 11.6188 19.3319 11.1588 19.6019L8.22883 21.3419C7.11883 21.9919 6.16883 22.1019 5.55883 21.6519C5.32883 21.4819 5.15883 21.2519 5.04883 20.9519L17.2088 8.79185C17.6688 8.33185 18.3188 8.12185 18.9488 8.23185L19.9588 8.40185C21.0188 8.58185 21.7288 9.06185 21.9588 9.76185C22.1788 10.4619 21.8788 11.2719 21.1188 12.0319L18.6988 14.4619Z" fill="#292D32"/>
</svg>
