<svg width="24" height="24" viewBox="0 0 24 24" fill="none" xmlns="http://www.w3.org/2000/svg">
<path d="M19.0291 14.97C19.0291 16.26 20.0891 17.31 21.3791 17.31C21.3791 21.06 20.4391 22 16.6891 22H7.30914C3.55914 22 2.61914 21.06 2.61914 17.31V16.85C3.90914 16.85 4.96914 15.79 4.96914 14.5C4.96914 13.21 3.90914 12.15 2.61914 12.15V11.69C2.62914 7.94 3.55914 7 7.30914 7H16.6791C20.4291 7 21.3691 7.94 21.3691 11.69V12.63" stroke="#292D32" stroke-width="1.5" stroke-linecap="round" stroke-linejoin="round"/>
<path d="M16.3283 6.99984H7.23828L10.1683 4.06984C12.5583 1.67984 13.7583 1.67984 16.1483 4.06984L16.7483 4.66984C16.1183 5.29984 15.9683 6.22984 16.3283 6.99984Z" stroke="#292D32" stroke-width="1.5" stroke-linecap="round" stroke-linejoin="round"/>
<path d="M10 7L10 22" stroke="#292D32" stroke-width="1.5" stroke-linecap="round" stroke-linejoin="round" stroke-dasharray="5 5"/>
</svg>
