<svg width="24" height="24" viewBox="0 0 24 24" fill="none" xmlns="http://www.w3.org/2000/svg">
<path opacity="0.4" d="M16.19 2H7.81C4.17 2 2 4.17 2 7.81V16.18C2 19.83 4.17 22 7.81 22H16.18C19.82 22 21.99 19.83 21.99 16.19V7.81C22 4.17 19.83 2 16.19 2Z" fill="#292D32"/>
<path d="M9.09961 12.0005V10.5205C9.09961 8.61048 10.4496 7.84048 12.0996 8.79048L13.3796 9.53048L14.6596 10.2705C16.3096 11.2205 16.3096 12.7805 14.6596 13.7305L13.3796 14.4705L12.0996 15.2105C10.4496 16.1605 9.09961 15.3805 9.09961 13.4805V12.0005Z" fill="#292D32"/>
</svg>
