<svg width="24" height="24" viewBox="0 0 24 24" fill="none" xmlns="http://www.w3.org/2000/svg">
<path opacity="0.4" d="M19.25 7.40972V16.5897C19.25 18.3097 18.63 19.5997 17.52 20.2197C17.07 20.4697 16.57 20.5897 16.05 20.5897C15.25 20.5897 14.39 20.3197 13.51 19.7697L10.59 17.9397C10.39 17.8197 10.16 17.7497 9.93 17.7497H9V6.24972H9.93C10.16 6.24972 10.39 6.17972 10.59 6.05972L13.51 4.22972C14.97 3.31972 16.4 3.15972 17.52 3.77972C18.63 4.39972 19.25 5.68972 19.25 7.40972Z" fill="#292D32"/>
<path d="M9 6.25V17.75H8.5C6.08 17.75 4.75 16.42 4.75 14V10C4.75 7.58 6.08 6.25 8.5 6.25H9Z" fill="#292D32"/>
</svg>
