<svg width="24" height="24" viewBox="0 0 24 24" fill="none" xmlns="http://www.w3.org/2000/svg">
<path d="M19.0909 12.5884C18.9309 12.5884 18.7709 12.5384 18.6309 12.4284C14.6009 9.31844 9.39091 9.31844 5.36091 12.4284C5.03091 12.6784 4.56091 12.6184 4.31091 12.2984C4.06091 11.9684 4.12091 11.4984 4.44091 11.2484C9.03091 7.69844 14.9609 7.69844 19.5409 11.2484C19.8709 11.4984 19.9309 11.9684 19.6709 12.2984C19.5409 12.4884 19.3209 12.5884 19.0909 12.5884Z" fill="#292D32"/>
<path d="M22 9.10844C21.84 9.10844 21.68 9.05844 21.54 8.94844C15.74 4.46844 8.25001 4.46844 2.46001 8.94844C2.13001 9.19844 1.66001 9.13844 1.41001 8.81844C1.15001 8.49844 1.21001 8.01844 1.54001 7.76844C7.89001 2.85844 16.1 2.85844 22.46 7.76844C22.79 8.01844 22.85 8.48844 22.59 8.81844C22.45 9.00844 22.22 9.10844 22 9.10844Z" fill="#292D32"/>
<path d="M17.2096 16.2413C17.0496 16.2413 16.8896 16.1913 16.7496 16.0813C13.8696 13.8513 10.1396 13.8513 7.24958 16.0813C6.91958 16.3313 6.44958 16.2713 6.19958 15.9513C5.94958 15.6213 6.00958 15.1513 6.32958 14.9013C9.76958 12.2413 14.2196 12.2413 17.6596 14.9013C17.9896 15.1513 18.0496 15.6213 17.7896 15.9513C17.6496 16.1413 17.4296 16.2413 17.2096 16.2413Z" fill="#292D32"/>
<path d="M14.5992 19.9005C14.4392 19.9005 14.2792 19.8505 14.1392 19.7405C12.8392 18.7305 11.1492 18.7305 9.84919 19.7405C9.51919 19.9905 9.04919 19.9305 8.79919 19.6105C8.54919 19.2805 8.60919 18.8105 8.92919 18.5605C10.7892 17.1205 13.1892 17.1205 15.0492 18.5605C15.3792 18.8105 15.4392 19.2805 15.1792 19.6105C15.0492 19.7905 14.8292 19.9005 14.5992 19.9005Z" fill="#292D32"/>
</svg>
