<svg xmlns="http://www.w3.org/2000/svg" width="21.981" height="20.39" viewBox="0 0 21.981 20.39">
  <g id="_39" data-name="39" transform="translate(-1.009 -1.8)">
    <path id="Vector" d="M15.56,8.89h-.8A24.393,24.393,0,0,0,.8,8.89H0L1.59,2.52C1.93,1.13,2.22,0,4.82,0h5.91c2.6,0,2.89,1.13,3.23,2.52Z" transform="translate(4.22 2.55)" fill="none" stroke="#292d32" stroke-linecap="round" stroke-linejoin="round" stroke-width="1.5"/>
    <path id="Vector-2" data-name="Vector" d="M3.02,1.11A23.792,23.792,0,0,0,0,0" transform="translate(18.98 11.45)" fill="none" stroke="#292d32" stroke-linecap="round" stroke-linejoin="round" stroke-width="1.5"/>
    <path id="Vector-3" data-name="Vector" d="M3.02,0A23.792,23.792,0,0,0,0,1.11" transform="translate(2 11.44)" fill="none" stroke="#292d32" stroke-linecap="round" stroke-linejoin="round" stroke-width="1.5"/>
    <path id="Vector-4" data-name="Vector" d="M6.66,3.33A3.33,3.33,0,1,1,3.33,0,3.33,3.33,0,0,1,6.66,3.33Z" transform="translate(13.67 14.78)" fill="none" stroke="#292d32" stroke-linecap="round" stroke-linejoin="round" stroke-width="1.5"/>
    <path id="Vector-5" data-name="Vector" d="M6.66,3.33A3.33,3.33,0,1,1,3.33,0,3.33,3.33,0,0,1,6.66,3.33Z" transform="translate(3.67 14.78)" fill="none" stroke="#292d32" stroke-linecap="round" stroke-linejoin="round" stroke-width="1.5"/>
    <path id="Vector-6" data-name="Vector" d="M0,0H3.34" transform="translate(10.33 18.11)" fill="none" stroke="#292d32" stroke-linecap="round" stroke-linejoin="round" stroke-width="1.5"/>
  </g>
</svg>
