<svg width="24" height="24" viewBox="0 0 24 24" fill="none" xmlns="http://www.w3.org/2000/svg">
<path d="M15.5013 14.5011H3.50132C3.27132 14.5011 3.06132 14.4011 2.92132 14.2211C2.78132 14.0511 2.72132 13.8111 2.77132 13.5911L3.62131 9.54108C3.90131 8.22108 4.50131 6.87109 6.87131 6.87109H12.1413C14.5113 6.87109 15.1113 8.22108 15.3913 9.54108L16.2413 13.5911C16.2913 13.8111 16.2313 14.0411 16.0913 14.2211C15.9413 14.4011 15.7313 14.5011 15.5013 14.5011ZM4.42132 13.0011H14.5713L13.9113 9.85107C13.7013 8.84107 13.4513 8.37109 12.1313 8.37109H6.86132C5.54132 8.37109 5.29132 8.84107 5.08132 9.85107L4.42132 13.0011Z" fill="#292D32"/>
<path d="M15.4679 22.75H14.0579C12.7079 22.75 12.4279 21.92 12.2879 21.47L12.1379 21.02C11.9579 20.51 11.9579 20.51 11.4279 20.51H7.58789C7.04789 20.51 7.0379 20.53 6.8779 21.02L6.72789 21.47C6.57789 21.92 6.29789 22.76 4.94789 22.76H3.53789C2.88789 22.76 2.27789 22.49 1.83789 22.01C1.41789 21.55 1.2079 20.92 1.2679 20.3L1.68789 15.73C1.81789 14.31 2.27789 13 4.71789 13H14.2879C16.7279 13 17.1879 14.31 17.3179 15.73L17.7379 20.3C17.7979 20.92 17.5879 21.54 17.1679 22.01C16.7279 22.48 16.1179 22.75 15.4679 22.75ZM13.7979 21.23C13.8179 21.23 13.8979 21.25 14.0579 21.25H15.4679C15.6979 21.25 15.9079 21.16 16.0579 20.99C16.1979 20.83 16.2679 20.64 16.2479 20.43L15.8279 15.86C15.7379 14.92 15.6979 14.49 14.2879 14.49H4.71789C3.30789 14.49 3.26789 14.92 3.17789 15.86L2.75789 20.43C2.73789 20.64 2.80789 20.84 2.94789 20.99C3.09789 21.16 3.30789 21.25 3.53789 21.25H4.94789C5.16789 21.25 5.2279 21.22 5.2379 21.22C5.2379 21.21 5.27789 21.09 5.30789 21L5.4579 20.55C5.6579 19.94 5.9679 19.01 7.5979 19.01H11.4379C13.0479 19.01 13.3479 19.89 13.5679 20.54L13.7279 21C13.7379 21.08 13.7679 21.19 13.7979 21.23Z" fill="#292D32"/>
<path d="M3.5 12.25H2.75C2.34 12.25 2 11.91 2 11.5C2 11.09 2.34 10.75 2.75 10.75H3.5C3.91 10.75 4.25 11.09 4.25 11.5C4.25 11.91 3.91 12.25 3.5 12.25Z" fill="#292D32"/>
<path d="M16.25 12.25H15.5C15.09 12.25 14.75 11.91 14.75 11.5C14.75 11.09 15.09 10.75 15.5 10.75H16.25C16.66 10.75 17 11.09 17 11.5C17 11.91 16.66 12.25 16.25 12.25Z" fill="#292D32"/>
<path d="M7.25 17.5H5C4.59 17.5 4.25 17.16 4.25 16.75C4.25 16.34 4.59 16 5 16H7.25C7.66 16 8 16.34 8 16.75C8 17.16 7.66 17.5 7.25 17.5Z" fill="#292D32"/>
<path d="M14 17.5H11.75C11.34 17.5 11 17.16 11 16.75C11 16.34 11.34 16 11.75 16H14C14.41 16 14.75 16.34 14.75 16.75C14.75 17.16 14.41 17.5 14 17.5Z" fill="#292D32"/>
<path d="M18.7111 9.49048C18.6111 9.49048 18.5111 9.47049 18.4111 9.43049C18.0311 9.26049 17.8611 8.8205 18.0211 8.4405C18.2111 8.0105 18.1011 7.38048 17.7511 6.86048C17.4011 6.33048 16.8711 5.98049 16.3811 6.00049H16.3711C15.9611 6.00049 15.6311 5.6705 15.6211 5.2605C15.6211 4.8405 15.9511 4.51049 16.3611 4.50049C17.3911 4.48049 18.3611 5.07051 18.9911 6.02051C19.6311 6.98051 19.7811 8.13052 19.3911 9.03052C19.2811 9.32052 19.0011 9.49048 18.7111 9.49048Z" fill="#292D32"/>
<path d="M21.8201 10.4793C21.7501 10.4793 21.6901 10.4694 21.6201 10.4494C21.2201 10.3394 20.9901 9.92938 21.1001 9.52938C21.4801 8.16938 21.1601 6.54935 20.2501 5.18935C19.3401 3.82935 17.9601 2.91935 16.5501 2.74935C16.1401 2.69935 15.8501 2.32933 15.9001 1.91933C15.9501 1.50933 16.3301 1.20937 16.7301 1.26937C18.5601 1.48937 20.3401 2.64935 21.4901 4.36935C22.6401 6.08935 23.0301 8.16936 22.5401 9.94936C22.4501 10.2594 22.1501 10.4793 21.8201 10.4793Z" fill="#292D32"/>
</svg>
