<svg width="24" height="24" viewBox="0 0 24 24" fill="none" xmlns="http://www.w3.org/2000/svg">
<path d="M12 22H17C20 22 22 20 22 17V12C22 9.3 20.3 7.3 17.8 7C17.6 7 17.3 7 17 7H7C6.7 7 6.5 6.99998 6.2 7.09998C3.6 7.39998 2 9.3 2 12C2 12.3 2 12.7 2 13" stroke="#292D32" stroke-width="1.5" stroke-linecap="round" stroke-linejoin="round"/>
<path d="M17.8 6.99995C17.6 6.99995 17.3 6.99995 17 6.99995H6.99995C6.69995 6.99995 6.49995 6.99993 6.19995 7.09993C6.29995 6.79993 6.49996 6.59994 6.79996 6.29994L9.99995 2.99995C11.4 1.59995 13.6 1.59995 15 2.99995L16.8 4.79994C17.4 5.39994 17.7 6.19995 17.8 6.99995Z" stroke="#292D32" stroke-width="1.5" stroke-linecap="round" stroke-linejoin="round"/>
<path d="M22 12.5H19C17.9 12.5 17 13.4 17 14.5C17 15.6 17.9 16.5 19 16.5H22" stroke="#292D32" stroke-width="1.5" stroke-linecap="round" stroke-linejoin="round"/>
<path d="M5.80157 21.4C7.57157 21.4 9.00156 19.97 9.00156 18.2C9.00156 16.43 7.57157 15 5.80157 15C4.03157 15 2.60156 16.43 2.60156 18.2C2.60156 19.97 4.03157 21.4 5.80157 21.4Z" stroke="#292D32" stroke-width="1.5" stroke-linecap="round" stroke-linejoin="round"/>
<path d="M2 22L3 21" stroke="#292D32" stroke-width="1.5" stroke-linecap="round" stroke-linejoin="round"/>
</svg>
