<svg width="24" height="24" viewBox="0 0 24 24" fill="none" xmlns="http://www.w3.org/2000/svg">
<path d="M24 0H0V24H24V0Z" fill="white"/>
<path opacity="0.4" d="M12 22C17.5228 22 22 17.5228 22 12C22 6.47715 17.5228 2 12 2C6.47715 2 2 6.47715 2 12C2 17.5228 6.47715 22 12 22Z" fill="#292D32"/>
<path d="M12.0005 18.1886C8.59055 18.1886 5.81055 15.4086 5.81055 11.9986C5.81055 8.58859 8.59055 5.80859 12.0005 5.80859C13.3505 5.80859 14.6406 6.23859 15.7206 7.04859C16.0506 7.29859 16.1205 7.76859 15.8705 8.09859C15.6205 8.42859 15.1506 8.49859 14.8206 8.24859C14.0006 7.63859 13.0305 7.30859 12.0005 7.30859C9.42055 7.30859 7.31055 9.40859 7.31055 11.9986C7.31055 14.5886 9.41055 16.6886 12.0005 16.6886C13.4805 16.6886 14.8406 16.0086 15.7406 14.8286C15.9906 14.4986 16.4605 14.4386 16.7905 14.6886C17.1205 14.9386 17.1805 15.4086 16.9305 15.7386C15.7505 17.2886 13.9505 18.1886 12.0005 18.1886Z" fill="#292D32"/>
<path d="M17.42 11.34C18.0662 11.34 18.59 10.8162 18.59 10.17C18.59 9.52383 18.0662 9 17.42 9C16.7738 9 16.25 9.52383 16.25 10.17C16.25 10.8162 16.7738 11.34 17.42 11.34Z" fill="#292D32"/>
</svg>
