<svg width="24" height="24" viewBox="0 0 24 24" fill="none" xmlns="http://www.w3.org/2000/svg">
<path opacity="0.58" d="M24 0H0V24H24V0Z" fill="white"/>
<path opacity="0.4" d="M12 22C17.5228 22 22 17.5228 22 12C22 6.47715 17.5228 2 12 2C6.47715 2 2 6.47715 2 12C2 17.5228 6.47715 22 12 22Z" fill="#292D32"/>
<path d="M10.5 11.4591V14.0291C10.5 14.2091 10.4 14.3691 10.25 14.4591L8.25 15.6091C8.1 15.6991 7.91 15.6991 7.75 15.6091L5.75 14.4591C5.59 14.3691 5.5 14.2091 5.5 14.0291V11.7491C5.5 11.5691 5.6 11.4091 5.75 11.3191L7.75 10.1691C7.9 10.0791 8.1 10.0791 8.25 10.1691L9.25 10.7491L10.5 11.4591Z" fill="#292D32"/>
<path d="M18.5 11.7491V14.0291C18.5 14.2091 18.4 14.3691 18.25 14.4591L16.25 15.6091C16.1 15.6991 15.91 15.6991 15.75 15.6091L13.75 14.4591C13.59 14.3691 13.5 14.2091 13.5 14.0291V11.4591L14.75 10.7491L15.75 10.1691C15.9 10.0791 16.09 10.0791 16.25 10.1691L18.25 11.3191C18.4 11.3991 18.5 11.5691 18.5 11.7491Z" fill="#292D32"/>
<path d="M14.75 9.61953V10.7495L13.5 11.4595V13.1895L12.25 13.9095C12.1 13.9995 11.91 13.9995 11.75 13.9095L10.5 13.1895V11.4595L9.25 10.7495V9.61953C9.25 9.43953 9.35 9.27953 9.5 9.18953L11.75 7.89953C11.9 7.80953 12.09 7.80953 12.25 7.89953L14.5 9.18953C14.65 9.26953 14.75 9.43953 14.75 9.61953Z" fill="#292D32"/>
</svg>
