<svg width="24" height="24" viewBox="0 0 24 24" fill="none" xmlns="http://www.w3.org/2000/svg">
<path d="M9 22H15C20 22 22 20 22 15V9C22 4 20 2 15 2H9C4 2 2 4 2 9V15C2 20 4 22 9 22Z" stroke="#292D32" stroke-width="1.5" stroke-linecap="round" stroke-linejoin="round"/>
<path d="M6.69922 9.25977L11.9992 12.3298L17.2592 9.27976" stroke="#292D32" stroke-width="1.5" stroke-linecap="round" stroke-linejoin="round"/>
<path d="M12 17.7698V12.3198" stroke="#292D32" stroke-width="1.5" stroke-linecap="round" stroke-linejoin="round"/>
<path d="M10.7603 6.28986L7.56024 8.06986C6.84024 8.46986 6.24023 9.47985 6.24023 10.3099V13.6999C6.24023 14.5299 6.83024 15.5399 7.56024 15.9399L10.7603 17.7199C11.4403 18.0999 12.5602 18.0999 13.2502 17.7199L16.4503 15.9399C17.1703 15.5399 17.7702 14.5299 17.7702 13.6999V10.2999C17.7702 9.46986 17.1803 8.45985 16.4503 8.05985L13.2502 6.27985C12.5602 5.89985 11.4403 5.89986 10.7603 6.28986Z" stroke="#292D32" stroke-width="1.5" stroke-linecap="round" stroke-linejoin="round"/>
</svg>
