<svg width="24" height="24" viewBox="0 0 24 24" fill="none" xmlns="http://www.w3.org/2000/svg">
<path d="M2 17.0601H12" stroke="#292D32" stroke-width="1.5" stroke-miterlimit="10" stroke-linecap="round" stroke-linejoin="round"/>
<path d="M4.21997 13.5H9.78003C11.56 13.5 12 13.94 12 15.7V19.81C12 21.57 11.56 22.01 9.78003 22.01H4.21997C2.43997 22.01 2 21.57 2 19.81V15.7C2 13.94 2.43997 13.5 4.21997 13.5Z" stroke="#292D32" stroke-width="1.5" stroke-linecap="round" stroke-linejoin="round"/>
<path opacity="0.4" d="M22 15C22 18.87 18.87 22 15 22L16.05 20.25" stroke="#292D32" stroke-width="1.5" stroke-linecap="round" stroke-linejoin="round"/>
<path opacity="0.4" d="M2 9C2 5.13 5.13 2 9 2L7.95001 3.75" stroke="#292D32" stroke-width="1.5" stroke-linecap="round" stroke-linejoin="round"/>
<path d="M18.5 11C20.9853 11 23 8.98528 23 6.5C23 4.01472 20.9853 2 18.5 2C16.0147 2 14 4.01472 14 6.5C14 8.98528 16.0147 11 18.5 11Z" stroke="#292D32" stroke-width="1.5" stroke-linecap="round" stroke-linejoin="round"/>
</svg>
