<svg width="24" height="24" viewBox="0 0 24 24" fill="none" xmlns="http://www.w3.org/2000/svg">
<path d="M20 11C20 15.97 15.97 20 11 20C6.03 20 2 15.97 2 11C2 6.03 6.03 2 11 2" stroke="#292D32" stroke-width="1.5" stroke-linecap="round" stroke-linejoin="round"/>
<path opacity="0.4" d="M13.4999 6.13008C13.1499 5.03008 13.5599 3.66008 14.7199 3.29008C15.3299 3.09008 16.0799 3.26008 16.5099 3.85008C16.9099 3.24008 17.6899 3.10008 18.2899 3.29008C19.4499 3.66008 19.8599 5.03008 19.5099 6.13008C18.9599 7.88008 17.0399 8.79008 16.5099 8.79008C15.9699 8.79008 14.0699 7.90008 13.4999 6.13008Z" stroke="#292D32" stroke-width="1.5" stroke-linecap="round" stroke-linejoin="round"/>
<path opacity="0.4" d="M18.9304 20.6898C19.4604 22.2898 20.6704 22.4498 21.6004 21.0498C22.4504 19.7698 21.8904 18.7198 20.3504 18.7198C19.2104 18.7098 18.5704 19.5998 18.9304 20.6898Z" stroke="#292D32" stroke-width="1.5" stroke-linecap="round" stroke-linejoin="round"/>
</svg>
