<svg width="24" height="24" viewBox="0 0 24 24" fill="none" xmlns="http://www.w3.org/2000/svg">
<path opacity="0.4" d="M17 7.75C16.81 7.75 16.62 7.68 16.47 7.53C16.18 7.24 16.18 6.76 16.47 6.47L18.52 4.42C16.76 2.92 14.49 2 12 2C6.48 2 2 6.48 2 12C2 17.52 6.48 22 12 22C17.52 22 22 17.52 22 12C22 9.51 21.08 7.24 19.58 5.48L17.53 7.53C17.38 7.68 17.19 7.75 17 7.75Z" fill="#292D32"/>
<path d="M13.75 11.82L12.75 11.47V9.25H12.83C13.34 9.25 13.75 9.7 13.75 10.25C13.75 10.66 14.09 11 14.5 11C14.91 11 15.25 10.66 15.25 10.25C15.25 8.87 14.17 7.75 12.83 7.75H12.75V7.5C12.75 7.09 12.41 6.75 12 6.75C11.59 6.75 11.25 7.09 11.25 7.5V7.75H10.95C9.74001 7.75 8.75 8.77 8.75 10.03C8.75 11.49 9.6 11.96 10.25 12.19L11.25 12.54V14.76H11.17C10.66 14.76 10.25 14.31 10.25 13.76C10.25 13.35 9.91 13.01 9.5 13.01C9.09 13.01 8.75 13.35 8.75 13.76C8.75 15.14 9.83001 16.26 11.17 16.26H11.25V16.51C11.25 16.92 11.59 17.26 12 17.26C12.41 17.26 12.75 16.92 12.75 16.51V16.26H13.05C14.26 16.26 15.25 15.24 15.25 13.98C15.25 12.51 14.4 12.04 13.75 11.82ZM10.74 10.76C10.4 10.64 10.25 10.57 10.25 10.02C10.25 9.59 10.57 9.24 10.95 9.24H11.25V10.93L10.74 10.76ZM13.05 14.75H12.75V13.06L13.26 13.24C13.6 13.36 13.75 13.43 13.75 13.98C13.75 14.4 13.43 14.75 13.05 14.75Z" fill="#292D32"/>
<path d="M22.6883 1.70828C22.6083 1.52828 22.4683 1.37829 22.2783 1.29829C22.1883 1.25829 22.0883 1.23828 21.9883 1.23828H17.9883C17.5783 1.23828 17.2383 1.57828 17.2383 1.98828C17.2383 2.39828 17.5783 2.73828 17.9883 2.73828H20.1783L18.5083 4.40829C18.8883 4.73829 19.2383 5.08828 19.5683 5.46828L21.2383 3.79829V5.99828C21.2383 6.40828 21.5783 6.74828 21.9883 6.74828C22.3983 6.74828 22.7383 6.40828 22.7383 5.99828V1.99828C22.7483 1.89828 22.7283 1.80828 22.6883 1.70828Z" fill="#292D32"/>
</svg>
