<svg width="24" height="24" viewBox="0 0 24 24" fill="none" xmlns="http://www.w3.org/2000/svg">
<path opacity="0.4" d="M6.73 19.7C7.55 18.82 8.8 18.89 9.52 19.85L10.53 21.2C11.34 22.27 12.65 22.27 13.46 21.2L14.47 19.85C15.19 18.89 16.44 18.82 17.26 19.7C19.04 21.6 20.49 20.97 20.49 18.31V7.04C20.5 3.01 19.56 2 15.78 2H8.22C4.44 2 3.5 3.01 3.5 7.04V18.3C3.5 20.97 4.96 21.59 6.73 19.7Z" fill="#292D32"/>
<path d="M16.2305 11.75H10.7305C10.3205 11.75 9.98047 11.41 9.98047 11C9.98047 10.59 10.3205 10.25 10.7305 10.25H16.2305C16.6405 10.25 16.9805 10.59 16.9805 11C16.9805 11.41 16.6405 11.75 16.2305 11.75Z" fill="#292D32"/>
<path d="M16.2305 7.75H10.7305C10.3205 7.75 9.98047 7.41 9.98047 7C9.98047 6.59 10.3205 6.25 10.7305 6.25H16.2305C16.6405 6.25 16.9805 6.59 16.9805 7C16.9805 7.41 16.6405 7.75 16.2305 7.75Z" fill="#292D32"/>
<path d="M7.78125 8C7.23125 8 6.78125 7.55 6.78125 7C6.78125 6.45 7.23125 6 7.78125 6C8.33125 6 8.78125 6.45 8.78125 7C8.78125 7.55 8.33125 8 7.78125 8Z" fill="#292D32"/>
<path d="M7.78125 12C7.23125 12 6.78125 11.55 6.78125 11C6.78125 10.45 7.23125 10 7.78125 10C8.33125 10 8.78125 10.45 8.78125 11C8.78125 11.55 8.33125 12 7.78125 12Z" fill="#292D32"/>
</svg>
