<svg width="24" height="24" viewBox="0 0 24 24" fill="none" xmlns="http://www.w3.org/2000/svg">
<path d="M17.7514 7.04997C17.5114 7.00997 17.2614 6.99998 17.0014 6.99998H7.0014C6.7214 6.99998 6.45141 7.01998 6.19141 7.05998C6.33141 6.77998 6.5314 6.52001 6.7714 6.28001L10.0214 3.02C11.3914 1.66 13.6114 1.66 14.9814 3.02L16.7314 4.78996C17.3714 5.41996 17.7114 6.21997 17.7514 7.04997Z" fill="#292D32"/>
<path opacity="0.4" d="M2 16.36V12C2 9.28 3.64 7.38 6.19 7.06C6.45 7.02 6.72 7 7 7H17C17.26 7 17.51 7.00999 17.75 7.04999C20.33 7.34999 22 9.26 22 12V17C22 19.76 19.76 22 17 22H7.63H7C4.24 22 2 19.76 2 17V16.36Z" fill="#292D32"/>
<path d="M22 12.5H19C17.9 12.5 17 13.4 17 14.5C17 15.6 17.9 16.5 19 16.5H22" fill="#292D32"/>
<path d="M1.22859 21.6817L1.98859 20.9217C1.58859 20.3217 1.35859 19.6017 1.35859 18.8317C1.35859 16.7217 3.06859 15.0117 5.17859 15.0117C7.28859 15.0117 8.99859 16.7217 8.99859 18.8317C8.99859 20.9417 7.28859 22.6517 5.17859 22.6517C4.40859 22.6517 3.68859 22.4217 3.08859 22.0217L2.32859 22.7817C2.17859 22.9317 1.97859 23.0117 1.77859 23.0117C1.57859 23.0117 1.37859 22.9317 1.22859 22.7817C0.918594 22.4717 0.918594 21.9817 1.22859 21.6817Z" fill="#292D32"/>
</svg>
