<svg width="24" height="24" viewBox="0 0 24 24" fill="none" xmlns="http://www.w3.org/2000/svg">
<path d="M22.0002 10.9692V13.0292C22.0002 13.5792 21.5602 14.0292 21.0002 14.0492H19.0402C17.9602 14.0492 16.9702 13.2592 16.8802 12.1792C16.8202 11.5492 17.0602 10.9592 17.4802 10.5492C17.8502 10.1692 18.3602 9.94922 18.9202 9.94922H21.0002C21.5602 9.96922 22.0002 10.4192 22.0002 10.9692Z" fill="#292D32"/>
<path opacity="0.4" d="M17.48 10.55C17.06 10.96 16.82 11.55 16.88 12.18C16.97 13.26 17.96 14.05 19.04 14.05H21V15.5C21 18.5 19 20.5 16 20.5H7C4 20.5 2 18.5 2 15.5V8.5C2 5.78 3.64 3.88 6.19 3.56C6.45 3.52 6.72 3.5 7 3.5H16C16.26 3.5 16.51 3.50999 16.75 3.54999C19.33 3.84999 21 5.76 21 8.5V9.95001H18.92C18.36 9.95001 17.85 10.17 17.48 10.55Z" fill="#292D32"/>
<path d="M13 9.75H7C6.59 9.75 6.25 9.41 6.25 9C6.25 8.59 6.59 8.25 7 8.25H13C13.41 8.25 13.75 8.59 13.75 9C13.75 9.41 13.41 9.75 13 9.75Z" fill="#292D32"/>
</svg>
