<svg width="24" height="24" viewBox="0 0 24 24" fill="none" xmlns="http://www.w3.org/2000/svg">
<path d="M11.9986 22.75C7.11857 22.75 3.14856 18.78 3.14856 13.9C3.11856 8.17 8.57856 3.4 10.9286 1.61C11.5586 1.13 12.4386 1.13 13.0686 1.61C15.4186 3.43 20.8786 8.26 20.8486 13.91C20.8486 18.78 16.8786 22.75 11.9986 22.75ZM11.9986 2.75C11.9486 2.75 11.8886 2.77 11.8386 2.81C10.1486 4.1 4.62857 8.71 4.65857 13.9C4.65857 17.96 7.95858 21.25 12.0086 21.25C16.0586 21.25 19.3586 17.96 19.3586 13.91C19.3886 8.79 13.8586 4.12 12.1586 2.81C12.0986 2.77 12.0486 2.75 11.9986 2.75Z" fill="#292D32"/>
</svg>
