<svg width="24" height="24" viewBox="0 0 24 24" fill="none" xmlns="http://www.w3.org/2000/svg">
<path d="M12 2C6.48 2 2 6.48 2 12C2 17.52 6.48 22 12 22C17.52 22 22 17.52 22 12C22 6.48 17.52 2 12 2ZM16.3 16.69C16.2 16.73 16.1 16.75 16 16.75C15.71 16.75 15.44 16.58 15.31 16.3L12 8.85L10.93 11.25H12C12.41 11.25 12.75 11.59 12.75 12C12.75 12.41 12.41 12.75 12 12.75H10.27L8.69 16.3C8.52 16.68 8.07001 16.85 7.70001 16.68C7.32001 16.51 7.15001 16.07 7.32001 15.69L8.63 12.74H8C7.59 12.74 7.25 12.4 7.25 11.99C7.25 11.58 7.59 11.24 8 11.24H9.28998L11.31 6.69C11.55 6.15 12.44 6.15 12.68 6.69L16.68 15.69C16.85 16.07 16.68 16.52 16.3 16.69Z" fill="black"/>
</svg>
