<svg width="24" height="24" viewBox="0 0 24 24" fill="none" xmlns="http://www.w3.org/2000/svg">
<path opacity="0.13" d="M10.8698 14L12.7998 17.33L10.8799 20.66H6.99985L5.08984 17.35L7.02985 14H10.8698Z" fill="black"/>
<path d="M10.5396 14.0781H7.11959C6.93959 14.0781 6.7796 14.1781 6.6896 14.3281L4.97961 17.2881C4.88961 17.4381 4.88961 17.6381 4.97961 17.7881L6.6896 20.7481C6.7796 20.8981 6.93959 20.9981 7.11959 20.9981H10.5396C10.7196 20.9981 10.8796 20.8981 10.9696 20.7481L12.6796 17.7881C12.7696 17.6381 12.7696 17.4381 12.6796 17.2881L10.9696 14.3281C10.8796 14.1681 10.7196 14.0781 10.5396 14.0781Z" fill="black"/>
<path d="M22.2401 11.7383C22.3301 11.8983 22.3301 12.0983 22.2401 12.2583L17.3102 20.7883C17.2402 20.9183 17.1002 20.9983 16.9502 20.9983C16.6302 20.9983 16.4302 20.6483 16.5902 20.3783L19.8802 14.6783C19.9702 14.5183 19.9702 14.3183 19.8802 14.1583L15.4802 6.53828C15.3902 6.37828 15.2202 6.27828 15.0302 6.27828H6.22016C6.03016 6.27828 5.87014 6.37828 5.77014 6.53828L2.50016 12.2183C2.33016 12.5183 1.90016 12.5183 1.72016 12.2183C1.64016 12.0783 1.64016 11.9083 1.72016 11.7683L6.64017 3.24828C6.72017 3.08828 6.90015 2.98828 7.09015 2.98828H16.8802C17.0702 2.98828 17.2301 3.08828 17.3301 3.24828L22.2401 11.7383Z" fill="black"/>
<path d="M18.089 14.6816L14.589 20.7416C14.499 20.9016 14.3291 21.0016 14.1391 21.0016H13.5391C13.1391 21.0016 12.889 20.5716 13.089 20.2216L14.489 17.8016C14.579 17.6416 14.579 17.4416 14.489 17.2816L11.8891 12.7816C11.7891 12.6216 11.6091 12.5216 11.4191 12.5216H6.21905C6.02905 12.5216 5.86904 12.6216 5.76904 12.7816L4.36904 15.2016C4.16904 15.5516 3.66905 15.5516 3.46905 15.2016L3.16906 14.6916C3.07906 14.5316 3.07906 14.3316 3.16906 14.1716L6.65905 8.11156C6.74905 7.95156 6.91903 7.85156 7.10903 7.85156H14.0991C14.2891 7.85156 14.449 7.95156 14.549 8.11156L18.049 14.1716C18.169 14.3216 18.169 14.5316 18.089 14.6816Z" fill="black"/>
</svg>
