<svg width="24" height="24" viewBox="0 0 24 24" fill="none" xmlns="http://www.w3.org/2000/svg">
<path d="M19.8803 2H4.11032C3.51032 2 3.05033 2.52 3.12033 3.11L4.92032 19.33C4.96032 19.73 5.25035 20.07 5.64035 20.18L11.7203 21.92C11.9003 21.97 12.0904 21.97 12.2704 21.92L18.3503 20.18C18.7403 20.07 19.0203 19.73 19.0703 19.33L20.8703 3.11C20.9403 2.52 20.4803 2 19.8803 2ZM16.2503 7.5H8.59036L8.92032 10.5H15.7503C15.9603 10.5 16.1603 10.59 16.3103 10.75C16.4503 10.91 16.5203 11.12 16.5003 11.33L16.0003 16.33C15.9703 16.64 15.7604 16.89 15.4604 16.98L11.9604 17.98C11.8904 18 11.8203 18.01 11.7503 18.01C11.6803 18.01 11.6103 18 11.5403 17.98L8.04031 16.98C7.72031 16.89 7.50034 16.59 7.50034 16.26V14.26C7.50034 13.85 7.84034 13.51 8.25034 13.51C8.66034 13.51 9.00034 13.85 9.00034 14.26V15.69L11.7503 16.48L14.5503 15.68L14.9203 12.01H8.25034C7.87034 12.01 7.55034 11.72 7.50034 11.34L7.00034 6.84C6.98034 6.63 7.04034 6.41999 7.19034 6.25999C7.33034 6.09999 7.54034 6.00999 7.75034 6.00999H16.2503C16.6603 6.00999 17.0003 6.34999 17.0003 6.75999C17.0003 7.16999 16.6603 7.5 16.2503 7.5Z" fill="black"/>
</svg>
