<svg width="24" height="24" viewBox="0 0 24 24" fill="none" xmlns="http://www.w3.org/2000/svg">
<path d="M15.0707 17.8793L14.0607 20.0993C13.8007 20.6593 13.4207 21.1493 12.9107 21.4893C12.3907 21.8393 11.7107 21.8693 11.1707 21.5293C9.53067 20.4893 5.95071 17.8193 3.78071 13.1893C3.70071 13.0293 3.92068 12.8693 4.06068 12.9693C4.63068 13.3693 5.24066 13.6493 5.91066 13.8093C6.32066 13.8993 6.7407 13.9393 7.1407 13.9393C9.0007 13.9393 10.6807 12.9893 11.8007 12.1693C12.1307 11.9293 12.5707 11.8793 12.9107 12.0893C14.0307 12.7893 14.7807 13.6293 15.1507 14.5793C15.7907 16.2593 15.0907 17.8093 15.0707 17.8793Z" fill="black"/>
<path d="M16.8492 18.0497C16.7692 18.1397 16.6093 18.0397 16.6493 17.9297C17.0893 16.4697 17.6592 12.6197 12.5592 10.1797C12.2492 10.0297 12.0192 9.74967 11.9792 9.40967C11.3592 3.84967 16.1493 2.84967 16.1493 2.84967C16.5393 2.76967 16.9492 2.76966 17.3292 2.87966C18.4092 3.16966 19.5092 3.56967 20.6192 4.10967C21.5692 4.56967 22.1192 5.56967 21.9792 6.61967C21.6492 9.09967 20.5492 13.8797 16.8492 18.0497Z" fill="black"/>
<path d="M10.56 10.2105L10.5901 10.4105C10.6601 10.7905 10.5 11.1805 10.18 11.3805C8.03003 12.7305 4.51002 13.7505 2.36002 7.84047C2.16002 7.30047 2.04003 6.90048 2.00003 6.32048C1.95003 5.56048 2.38003 4.69048 3.06003 4.37048C4.82003 3.55048 8.54006 2.12048 13.0301 2.25048C13.2301 2.26048 13.3 2.52047 13.14 2.63047C11.41 3.95047 9.92003 6.33048 10.56 10.2105Z" fill="black"/>
</svg>
