<svg width="24" height="24" viewBox="0 0 24 24" fill="none" xmlns="http://www.w3.org/2000/svg">
<path d="M19.9992 3.5H5.49919C5.18919 3.5 4.8892 3.65 4.6992 3.9L3.1992 5.9C2.7092 6.56 3.17919 7.5 3.99919 7.5H18.4992C18.8092 7.5 19.1092 7.35 19.2992 7.1L20.7992 5.1C21.2892 4.44 20.8192 3.5 19.9992 3.5Z" fill="black"/>
<path d="M3.99919 10H18.4992C18.8092 10 19.1092 10.15 19.2992 10.4L20.7992 12.4C21.2892 13.06 20.8192 14 19.9992 14H5.49919C5.18919 14 4.8892 13.85 4.6992 13.6L3.1992 11.6C2.7092 10.94 3.17919 10 3.99919 10Z" fill="black"/>
<path d="M19.9992 16.5H5.49919C5.18919 16.5 4.8892 16.65 4.6992 16.9L3.1992 18.9C2.7092 19.56 3.17919 20.5 3.99919 20.5H18.4992C18.8092 20.5 19.1092 20.35 19.2992 20.1L20.7992 18.1C21.2892 17.44 20.8192 16.5 19.9992 16.5Z" fill="black"/>
</svg>
