<svg width="24" height="24" viewBox="0 0 24 24" fill="none" xmlns="http://www.w3.org/2000/svg">
<path d="M19.5103 6.42171L13.0103 2.60172C12.3803 2.23172 11.6102 2.23172 10.9802 2.60172L4.48022 6.42171C3.87022 6.78171 3.49023 7.44171 3.49023 8.14171V15.8517C3.49023 16.5617 3.87022 17.2117 4.48022 17.5717L10.9802 21.3917C11.6102 21.7617 12.3803 21.7617 13.0103 21.3917L19.5103 17.5717C20.1203 17.2117 20.5002 16.5517 20.5002 15.8517V8.14171C20.5002 7.44171 20.1203 6.78171 19.5103 6.42171ZM17.3903 15.6417L12.3903 18.6417C12.2703 18.7117 12.1402 18.7517 12.0002 18.7517C11.8602 18.7517 11.7302 18.7117 11.6102 18.6417L6.61023 15.6417C6.25023 15.4317 6.14022 14.9717 6.35022 14.6117C6.56022 14.2517 7.02025 14.1417 7.38025 14.3517L11.9902 17.1217L15.5303 14.9917L13.6702 13.8717L13.0203 14.5217C12.8703 14.6717 12.6802 14.7417 12.4902 14.7417C12.3002 14.7417 12.1103 14.6717 11.9603 14.5217C11.6703 14.2317 11.6703 13.7517 11.9603 13.4617L12.3403 13.0817L10.5402 12.0017L10.0203 12.5217C9.87026 12.6717 9.68023 12.7417 9.49023 12.7417C9.30023 12.7417 9.11027 12.6717 8.96027 12.5217C8.67027 12.2317 8.67027 11.7517 8.96027 11.4617L9.22021 11.2017L6.61023 9.63172C6.38023 9.49172 6.25024 9.25172 6.25024 8.99172C6.25024 8.73172 6.39023 8.48172 6.61023 8.35172L11.6102 5.35172C11.8502 5.21172 12.1502 5.21172 12.3802 5.35172L17.3802 8.35172C17.7402 8.56172 17.8503 9.02172 17.6403 9.38172C17.4303 9.73172 16.9702 9.85171 16.6102 9.64171L12.0002 6.87171L8.46027 9.00171L10.3203 10.1217L10.9702 9.47171C11.2602 9.18171 11.7403 9.18171 12.0303 9.47171C12.3203 9.76171 12.3203 10.2417 12.0303 10.5317L11.6503 10.9117L13.4503 11.9917L13.9702 11.4717C14.2602 11.1817 14.7403 11.1817 15.0303 11.4717C15.3203 11.7617 15.3203 12.2417 15.0303 12.5317L14.7703 12.7917L17.3802 14.3617C17.6102 14.5017 17.7402 14.7417 17.7402 15.0017C17.7402 15.2617 17.6103 15.5117 17.3903 15.6417Z" fill="black"/>
</svg>
