<svg width="24" height="24" viewBox="0 0 24 24" fill="none" xmlns="http://www.w3.org/2000/svg">
<path d="M3.18069 15.029C2.83069 15.029 2.58069 15.379 2.71069 15.699C4.18069 19.399 7.79069 21.999 12.0007 21.999C16.2207 21.999 19.8307 19.379 21.3007 15.669C21.4307 15.349 21.1707 14.999 20.8307 14.999H17.5007C17.2207 14.999 17.0007 14.779 17.0007 14.499V11.759C17.0007 10.839 15.8507 10.409 15.2507 11.109L12.3807 14.539C12.1807 14.779 11.8107 14.779 11.6107 14.539L8.74069 11.109C8.15069 10.409 7.00069 10.839 7.00069 11.759V14.499C7.00069 14.779 6.78069 14.999 6.50069 14.999L3.18069 15.029Z" fill="black"/>
<path d="M22 12.1397C22 12.4497 21.98 12.7597 21.94 13.0597C21.91 13.3097 21.69 13.4997 21.43 13.4997H19C18.72 13.4997 18.5 13.2797 18.5 12.9997V11.8997C18.5 10.8897 17.96 9.90973 17.04 9.48973C16.01 9.01973 14.84 9.27973 14.1 10.1497L12.38 12.1997C12.18 12.4397 11.81 12.4397 11.61 12.1997L9.88 10.1297C9.16 9.27972 8 9.01973 6.96 9.48973C6.04 9.90973 5.5 10.8897 5.5 11.8997V12.8797C5.5 13.2997 5.28 13.5197 5 13.5197L2.56 13.5297C2.31 13.5297 2.08 13.3397 2.05 13.0897C2.02 12.7297 2 12.3697 2 11.9997C2 5.94973 7.39 1.13972 13.63 2.12972C18.46 2.88972 22.07 7.23973 22 12.1397Z" fill="black"/>
</svg>
