<svg width="24" height="24" viewBox="0 0 24 24" fill="none" xmlns="http://www.w3.org/2000/svg">
<path d="M12 2C6.48 2 2 6.48 2 12C2 17.52 6.48 22 12 22C17.52 22 22 17.52 22 12C22 6.48 17.52 2 12 2ZM15.42 16.58C15.27 16.79 15.04 16.89 14.81 16.89C14.66 16.89 14.51 16.84 14.37 16.75C12.83 15.65 10.86 15.41 9.10001 16.1C8.72001 16.25 8.28 16.06 8.13 15.68C7.98 15.29 8.17 14.86 8.55 14.71C10.79 13.82 13.29 14.13 15.24 15.53C15.59 15.78 15.66 16.25 15.42 16.58ZM16.52 13.79C16.37 14 16.14 14.1 15.91 14.1C15.76 14.1 15.61 14.05 15.47 13.96C13.35 12.44 10.64 12.11 8.21001 13.07C7.83001 13.22 7.39001 13.03 7.24001 12.65C7.09001 12.26 7.28 11.83 7.66 11.68C10.56 10.53 13.81 10.93 16.34 12.75C16.68 12.99 16.76 13.46 16.52 13.79ZM18.09 11.11C17.94 11.32 17.71 11.42 17.48 11.42C17.33 11.42 17.18 11.37 17.04 11.28C14.06 9.14 10.24 8.67 6.84 10.03C6.45 10.18 6.02 9.98999 5.87 9.60999C5.72 9.22999 5.90999 8.79001 6.28999 8.64001C10.17 7.10001 14.52 7.63001 17.92 10.07C18.26 10.3 18.34 10.77 18.09 11.11Z" fill="black"/>
</svg>
