<svg width="24" height="24" viewBox="0 0 24 24" fill="none" xmlns="http://www.w3.org/2000/svg">
<path d="M17.8005 8.67999H6.20054C5.97054 8.67999 5.76053 8.58002 5.62053 8.40002C5.48053 8.22002 5.42054 7.99002 5.47054 7.77002L6.29053 3.84998C6.56053 2.55998 7.15054 1.25 9.45054 1.25H14.5505C16.8605 1.25 17.4505 2.56998 17.7105 3.84998L18.5305 7.77002C18.5805 7.99002 18.5205 8.22002 18.3805 8.40002C18.2405 8.58002 18.0305 8.67999 17.8005 8.67999ZM7.12053 7.17999H16.8705L16.2405 4.16998C16.0405 3.20998 15.8105 2.76001 14.5405 2.76001H9.44054C8.18054 2.76001 7.94055 3.20998 7.74055 4.16998L7.12053 7.17999Z" fill="#292D32"/>
<path d="M17.7684 16.6497H16.4084C15.0884 16.6497 14.8184 15.8297 14.6684 15.3897L14.5184 14.9497C14.3584 14.4697 14.3584 14.4697 13.8484 14.4697H10.1384C9.62838 14.4697 9.62838 14.4797 9.46838 14.9497L9.31839 15.3897C9.16839 15.8297 8.89838 16.6497 7.57838 16.6497H6.21838C5.58838 16.6497 4.97838 16.3797 4.55838 15.9197C4.14838 15.4697 3.93838 14.8597 3.99838 14.2497L4.40838 9.83972C4.53838 8.45972 4.98837 7.17969 7.36837 7.17969H16.6184C18.9984 7.17969 19.4484 8.45972 19.5784 9.83972L19.9884 14.2597C20.0484 14.8697 19.8384 15.4797 19.4284 15.9297C19.0084 16.3897 18.3984 16.6497 17.7684 16.6497ZM16.1784 15.1397C16.1984 15.1397 16.2784 15.1497 16.4084 15.1497H17.7684C17.9784 15.1497 18.1784 15.0697 18.3184 14.9097C18.4484 14.7697 18.5084 14.5797 18.4984 14.3897L18.0884 9.96967C18.0084 9.07967 17.9684 8.66968 16.6284 8.66968H7.37838C6.03838 8.66968 5.99838 9.07967 5.91838 9.96967L5.50837 14.3897C5.48837 14.5797 5.54838 14.7697 5.68838 14.9097C5.82838 15.0597 6.02838 15.1497 6.23838 15.1497H7.59839C7.79839 15.1497 7.85837 15.1197 7.86837 15.1197C7.85837 15.1197 7.88838 14.9997 7.91838 14.9197L8.06839 14.4797C8.25839 13.9197 8.56838 12.9697 10.1584 12.9697H13.8684C15.3184 12.9697 15.6884 13.6797 15.9484 14.4597L16.0984 14.9097C16.1184 14.9997 16.1484 15.0997 16.1784 15.1397C16.1784 15.1397 16.1684 15.1397 16.1784 15.1397Z" fill="#292D32"/>
<path d="M6.19875 6.5H5.46875C5.05875 6.5 4.71875 6.16 4.71875 5.75C4.71875 5.34 5.05875 5 5.46875 5H6.19875C6.60875 5 6.94875 5.34 6.94875 5.75C6.94875 6.16 6.60875 6.5 6.19875 6.5Z" fill="#292D32"/>
<path d="M18.5308 6.5H17.8008C17.3908 6.5 17.0508 6.16 17.0508 5.75C17.0508 5.34 17.3908 5 17.8008 5H18.5308C18.9408 5 19.2808 5.34 19.2808 5.75C19.2808 6.16 18.9408 6.5 18.5308 6.5Z" fill="#292D32"/>
<path d="M9.82063 11.5781H7.64062C7.23063 11.5781 6.89062 11.2381 6.89062 10.8281C6.89062 10.4181 7.23063 10.0781 7.64062 10.0781H9.82063C10.2306 10.0781 10.5706 10.4181 10.5706 10.8281C10.5706 11.2381 10.2406 11.5781 9.82063 11.5781Z" fill="#292D32"/>
<path d="M16.3519 11.5781H14.1719C13.7619 11.5781 13.4219 11.2381 13.4219 10.8281C13.4219 10.4181 13.7619 10.0781 14.1719 10.0781H16.3519C16.7619 10.0781 17.1019 10.4181 17.1019 10.8281C17.1019 11.2381 16.7619 11.5781 16.3519 11.5781Z" fill="#292D32"/>
<path d="M12 18.75C11.59 18.75 11.25 18.41 11.25 18V17C11.25 16.59 11.59 16.25 12 16.25C12.41 16.25 12.75 16.59 12.75 17V18C12.75 18.41 12.41 18.75 12 18.75Z" fill="#292D32"/>
<path d="M12 22.75C11.59 22.75 11.25 22.41 11.25 22V21C11.25 20.59 11.59 20.25 12 20.25C12.41 20.25 12.75 20.59 12.75 21V22C12.75 22.41 12.41 22.75 12 22.75Z" fill="#292D32"/>
<path d="M2.00205 22.752C1.94205 22.752 1.88205 22.742 1.82205 22.732C1.42205 22.632 1.17205 22.222 1.27205 21.822L2.27205 17.822C2.37205 17.422 2.77204 17.1721 3.18204 17.2721C3.58204 17.3721 3.83204 17.782 3.73204 18.182L2.73204 22.182C2.64204 22.522 2.34205 22.752 2.00205 22.752Z" fill="#292D32"/>
<path d="M21.9987 22.7487C21.6587 22.7487 21.3587 22.5187 21.2687 22.1787L20.2687 18.1787C20.1687 17.7787 20.4087 17.3687 20.8187 17.2687C21.2187 17.1687 21.6287 17.4087 21.7287 17.8187L22.7287 21.8187C22.8287 22.2187 22.5887 22.6287 22.1787 22.7287C22.1187 22.7387 22.0587 22.7487 21.9987 22.7487Z" fill="#292D32"/>
</svg>
