<svg width="24" height="24" viewBox="0 0 24 24" fill="none" xmlns="http://www.w3.org/2000/svg">
<path d="M14.3778 22.7483H9.61782C5.83782 22.7483 2.86781 20.3683 2.04781 16.6783L1.63784 14.8183C1.35784 13.5383 2.08781 12.1583 3.29781 11.6683L10.2278 8.88828C11.3678 8.43828 12.6278 8.43828 13.7678 8.88828L20.6978 11.6683C21.9178 12.1583 22.6478 13.5383 22.3578 14.8183L21.9478 16.6783C21.1278 20.3683 18.1578 22.7483 14.3778 22.7483ZM11.9978 10.0483C11.5878 10.0483 11.1778 10.1283 10.7778 10.2783L3.84783 13.0583C3.31783 13.2683 2.96782 13.9383 3.08782 14.4883L3.49782 16.3483C4.16782 19.3683 6.50781 21.2383 9.60781 21.2383H14.3678C17.4678 21.2383 19.8078 19.3683 20.4778 16.3483L20.8878 14.4883C21.0078 13.9383 20.6578 13.2683 20.1278 13.0583L13.1978 10.2783C12.8178 10.1283 12.4078 10.0483 11.9978 10.0483Z" fill="#292D32"/>
<path d="M12 22.75C11.59 22.75 11.25 22.41 11.25 22V10C11.25 9.59 11.59 9.25 12 9.25C12.41 9.25 12.75 9.59 12.75 10V22C12.75 22.41 12.41 22.75 12 22.75Z" fill="#292D32"/>
<path d="M19.0022 12.55C18.9122 12.55 18.8122 12.53 18.7222 12.5L13.2122 10.29C12.4322 9.98001 11.5722 9.98001 10.7822 10.29L5.27219 12.5C5.04219 12.59 4.7822 12.56 4.5722 12.42C4.3622 12.28 4.24219 12.05 4.24219 11.8V8C4.24219 5.93 5.92219 4.25 7.99219 4.25H15.9922C18.0622 4.25 19.7422 5.93 19.7422 8V11.8C19.7422 12.05 19.6222 12.28 19.4122 12.42C19.2922 12.51 19.1522 12.55 19.0022 12.55ZM12.0022 8.54999C12.6022 8.54999 13.2022 8.66001 13.7722 8.89001L18.2522 10.69V8C18.2522 6.76 17.2422 5.75 16.0022 5.75H8.0022C6.7622 5.75 5.7522 6.76 5.7522 8V10.69L10.2322 8.89001C10.8022 8.67001 11.4022 8.54999 12.0022 8.54999Z" fill="#292D32"/>
<path d="M14.5 5.75H9.5C9.09 5.75 8.75 5.41 8.75 5V3C8.75 2.04 9.54 1.25 10.5 1.25H13.5C14.46 1.25 15.25 2.04 15.25 3V5C15.25 5.41 14.91 5.75 14.5 5.75ZM10.25 4.25H13.75V3C13.75 2.86 13.64 2.75 13.5 2.75H10.5C10.36 2.75 10.25 2.86 10.25 3V4.25Z" fill="#292D32"/>
</svg>
