<svg width="24" height="24" viewBox="0 0 24 24" fill="none" xmlns="http://www.w3.org/2000/svg">
<path opacity="0.4" d="M16.1898 2H7.81976C4.17976 2 2.00977 4.17 2.00977 7.81V16.18C2.00977 19.82 4.17976 21.99 7.81976 21.99H16.1898C19.8298 21.99 21.9998 19.82 21.9998 16.18V7.81C21.9998 4.17 19.8298 2 16.1898 2Z" fill="#292D32"/>
<path d="M12.0796 19.0009C11.8496 19.0009 11.6696 18.9409 11.5696 18.8909C11.3396 18.7809 10.7996 18.4309 10.7996 17.4509V14.0609L7.8996 16.7109C7.5996 16.9909 7.1196 16.9709 6.8396 16.6609C6.5596 16.3509 6.57962 15.8809 6.88962 15.6009L10.7996 12.0209V11.9409L6.88962 8.40089C6.57962 8.12089 6.5596 7.65089 6.8396 7.34089C7.1196 7.03089 7.5896 7.01089 7.8996 7.29089L10.7996 9.9409V6.5509C10.7996 5.5709 11.3396 5.2109 11.5696 5.1109C11.7996 5.0009 12.4196 4.8209 13.1696 5.4509L15.5796 7.46091C15.9096 7.73091 16.0996 8.1209 16.1096 8.5309C16.1196 8.9409 15.9496 9.3409 15.6396 9.6309L13.0496 12.0009L15.6396 14.3709C15.9496 14.6609 16.1296 15.0609 16.1196 15.4709C16.1096 15.8809 15.9196 16.2709 15.5896 16.5409L13.1796 18.5509C12.7496 18.9009 12.3696 19.0009 12.0796 19.0009ZM12.2996 13.3009V17.3209L14.6096 15.3909L12.2996 13.3009ZM12.2996 6.68089V10.6409L14.6096 8.5209L12.2996 6.68089Z" fill="#292D32"/>
<path d="M6.62024 13.3811C5.86024 13.3811 5.24023 12.7611 5.24023 12.0011C5.24023 11.2411 5.86024 10.6211 6.62024 10.6211C7.38024 10.6211 8.00024 11.2411 8.00024 12.0011C8.00024 12.7611 7.38024 13.3811 6.62024 13.3811ZM6.62024 11.8811C6.55024 11.8811 6.50024 11.9411 6.50024 12.0011C6.50024 12.1411 6.75024 12.1411 6.75024 12.0011C6.75024 11.9311 6.69024 11.8811 6.62024 11.8811Z" fill="#292D32"/>
<path d="M17.38 13.3811C16.62 13.3811 16 12.7611 16 12.0011C16 11.2411 16.62 10.6211 17.38 10.6211C18.14 10.6211 18.76 11.2411 18.76 12.0011C18.76 12.7611 18.13 13.3811 17.38 13.3811ZM17.38 11.8811C17.31 11.8811 17.26 11.9411 17.26 12.0011C17.26 12.1411 17.51 12.1411 17.51 12.0011C17.5 11.9311 17.44 11.8811 17.38 11.8811Z" fill="#292D32"/>
</svg>
