<svg width="24" height="24" viewBox="0 0 24 24" fill="none" xmlns="http://www.w3.org/2000/svg">
<path opacity="0.4" d="M5.5 12C5.5 8.41 8.41 5.5 12 5.5C15.59 5.5 18.5 8.41 18.5 12C18.5 14.08 17.52 15.94 16 17.13H15.99C14.89 17.99 13.51 18.5 12 18.5C10.51 18.5 9.14 18 8.04 17.15H8.03C6.49 15.96 5.5 14.1 5.5 12Z" fill="#292D32"/>
<path d="M8.0293 17.1489H8.0393C9.1393 17.9989 10.5093 18.4989 11.9993 18.4989C13.5093 18.4989 14.8893 17.9889 15.9893 17.1289H15.9993L15.4893 19.5989C14.9993 21.4989 13.8993 21.9989 12.5493 21.9989H11.4593C10.1093 21.9989 8.9993 21.4989 8.5193 19.5889L8.0293 17.1489Z" fill="#292D32"/>
<path d="M8.0293 6.85H8.0393C9.1393 6 10.5093 5.5 11.9993 5.5C13.5093 5.5 14.8893 6.01 15.9893 6.87H15.9993L15.4893 4.4C14.9993 2.5 13.8993 2 12.5493 2H11.4593C10.1093 2 8.9993 2.5 8.5193 4.41L8.0293 6.85Z" fill="#292D32"/>
<path d="M13.4 14.6002C13.21 14.6002 13.02 14.5302 12.87 14.3802L11.47 12.9802C11.33 12.8402 11.25 12.6502 11.25 12.4502V9.66016C11.25 9.25016 11.59 8.91016 12 8.91016C12.41 8.91016 12.75 9.25016 12.75 9.66016V12.1402L13.93 13.3202C14.22 13.6102 14.22 14.0902 13.93 14.3802C13.78 14.5302 13.59 14.6002 13.4 14.6002Z" fill="#292D32"/>
</svg>
