<svg width="24" height="24" viewBox="0 0 24 24" fill="none" xmlns="http://www.w3.org/2000/svg">
<path d="M10.1309 15.0084L9.10094 13.9784L10.0909 12.9884C10.3809 12.6984 10.3809 12.2184 10.0909 11.9284C9.80094 11.6384 9.32094 11.6384 9.03094 11.9284L8.04094 12.9184L7.08094 11.9584C6.79094 11.6684 6.31094 11.6684 6.02094 11.9584C5.73094 12.2484 5.73094 12.7284 6.02094 13.0184L6.98094 13.9784L5.99094 14.9684C5.70094 15.2584 5.70094 15.7384 5.99094 16.0284C6.14094 16.1784 6.33094 16.2484 6.52094 16.2484C6.71094 16.2484 6.90094 16.1784 7.05094 16.0284L8.04094 15.0384L9.07094 16.0684C9.22094 16.2184 9.41094 16.2884 9.60094 16.2884C9.79094 16.2884 9.98094 16.2184 10.1309 16.0684C10.4209 15.7784 10.4209 15.2984 10.1309 15.0084Z" fill="#292D32"/>
<path d="M13.5393 15C12.9893 15 12.5293 14.55 12.5293 14C12.5293 13.45 12.9693 13 13.5193 13H13.5393C14.0893 13 14.5393 13.45 14.5393 14C14.5393 14.55 14.0993 15 13.5393 15Z" fill="#292D32"/>
<path d="M17.4807 15C16.9307 15 16.4707 14.55 16.4707 14C16.4707 13.45 16.9107 13 17.4607 13H17.4807C18.0307 13 18.4807 13.45 18.4807 14C18.4807 14.55 18.0407 15 17.4807 15Z" fill="#292D32"/>
<path d="M15.5 16.9709C14.95 16.9709 14.5 16.5309 14.5 15.9809V15.9609C14.5 15.4109 14.95 14.9609 15.5 14.9609C16.05 14.9609 16.5 15.4109 16.5 15.9609C16.5 16.5109 16.06 16.9709 15.5 16.9709Z" fill="#292D32"/>
<path d="M15.5 13.0295C14.95 13.0295 14.5 12.5895 14.5 12.0395V12.0195C14.5 11.4695 14.95 11.0195 15.5 11.0195C16.05 11.0195 16.5 11.4695 16.5 12.0195C16.5 12.5695 16.06 13.0295 15.5 13.0295Z" fill="#292D32"/>
<path opacity="0.4" d="M22 11.0687V16.6488C22 19.5988 19.6 21.9988 16.65 21.9988H7.35C4.4 21.9988 2 19.5988 2 16.6488V11.0687C2 8.11875 4.4 5.71875 7.35 5.71875H16.65C19.6 5.71875 22 8.11875 22 11.0687Z" fill="#292D32"/>
<path d="M13.6394 2.71L13.6294 3.65C13.6194 4.53 12.8894 5.26 11.9994 5.26C11.8494 5.26 11.7594 5.36 11.7594 5.49C11.7594 5.62 11.8594 5.72 11.9894 5.72H10.3794C10.3694 5.65 10.3594 5.57 10.3594 5.49C10.3594 4.59 11.0894 3.86 11.9794 3.86C12.1294 3.86 12.2294 3.76 12.2294 3.63L12.2394 2.69C12.2494 2.31 12.5594 2 12.9394 2H12.9494C13.3394 2 13.6394 2.32 13.6394 2.71Z" fill="#292D32"/>
</svg>
