<svg width="24" height="24" viewBox="0 0 24 24" fill="none" xmlns="http://www.w3.org/2000/svg">
<path opacity="0.4" d="M20.97 7.19V13.37H2V7.19C2 4.88 3.88 3 6.19 3H16.78C19.09 3 20.97 4.88 20.97 7.19Z" fill="#292D32"/>
<path d="M2 13.3711V13.5611C2 15.8811 3.88 17.7511 6.19 17.7511H9.79C10.34 17.7511 10.79 18.2011 10.79 18.7511V19.5711C10.79 20.1211 10.34 20.5711 9.79 20.5711H7.53C7.14 20.5711 6.82 20.8911 6.82 21.2811C6.82 21.6711 7.14 21.9911 7.53 21.9911H15.46C15.85 21.9911 16.17 21.6711 16.17 21.2811C16.17 20.8911 15.85 20.5711 15.46 20.5711H13.21C12.66 20.5711 12.21 20.1211 12.21 19.5711V18.7511C12.21 18.2011 12.66 17.7511 13.21 17.7511H16.78C19.1 17.7511 20.97 15.8711 20.97 13.5611V13.3711H2Z" fill="#292D32"/>
<path d="M21.99 2.35962L20.86 3.14962V2.72962C20.86 1.77962 20.09 1.01962 19.15 1.01962H14.87C13.84 1.00962 13 1.84962 13 2.87962V6.15962C13 7.01962 13.43 7.86962 14.71 7.86962H19.14C20.09 7.86962 20.85 7.09962 20.85 6.15962V5.72962L21.98 6.51962C22.55 6.90962 23 6.66962 23 5.98962V2.88962C23 2.20962 22.55 1.97962 21.99 2.35962Z" fill="#292D32"/>
</svg>
