<svg width="24" height="24" viewBox="0 0 24 24" fill="none" xmlns="http://www.w3.org/2000/svg">
<path opacity="0.4" d="M8 22H16C19 22 21 20 21 17V7C21 4 19 2 16 2H8C5 2 3 4 3 7V17C3 20 5 22 8 22Z" fill="#292D32"/>
<path d="M17.5 7.99875C14.37 5.20875 9.63998 5.20875 6.49998 7.99875C6.35998 8.12875 6.32998 8.32875 6.42998 8.47875L8.60998 11.9787C8.66998 12.0687 8.76998 12.1387 8.86998 12.1487C8.97998 12.1687 9.08998 12.1288 9.16998 12.0588C10.78 10.6288 13.2 10.6288 14.81 12.0588C14.88 12.1188 14.97 12.1487 15.06 12.1487C15.08 12.1487 15.1 12.1487 15.11 12.1487C15.22 12.1287 15.32 12.0687 15.37 11.9787L17.55 8.47875C17.67 8.32875 17.64 8.12875 17.5 7.99875Z" fill="#292D32"/>
</svg>
