<svg width="24" height="24" viewBox="0 0 24 24" fill="none" xmlns="http://www.w3.org/2000/svg">
<path d="M10.5396 21.94C10.3096 21.94 10.0895 21.84 9.93954 21.64L8.92953 20.29C8.71953 20.01 8.43956 19.85 8.13956 19.83C7.83956 19.81 7.53953 19.95 7.29953 20.2C5.84953 21.75 4.74954 21.62 4.21954 21.42C3.67954 21.21 2.76953 20.52 2.76953 18.3V7.04001C2.76953 2.60001 4.04953 1.25 8.23953 1.25H15.7896C19.9796 1.25 21.2596 2.60001 21.2596 7.04001V11.3C21.2596 11.71 20.9196 12.05 20.5096 12.05C20.0996 12.05 19.7596 11.71 19.7596 11.3V7.04001C19.7596 3.43001 19.1296 2.75 15.7896 2.75H8.23953C4.89953 2.75 4.26953 3.43001 4.26953 7.04001V18.3C4.26953 19.35 4.52953 19.93 4.76953 20.02C4.94953 20.09 5.43955 19.99 6.19955 19.18C6.74955 18.6 7.46954 18.29 8.21954 18.33C8.95954 18.37 9.65955 18.76 10.1295 19.39L11.1495 20.74C11.3995 21.07 11.3295 21.54 10.9995 21.79C10.8495 21.9 10.6896 21.94 10.5396 21.94Z" fill="#292D32"/>
<path d="M18.2 22.15C16.02 22.15 14.25 20.38 14.25 18.2C14.25 16.02 16.02 14.25 18.2 14.25C20.38 14.25 22.15 16.02 22.15 18.2C22.15 20.38 20.38 22.15 18.2 22.15ZM18.2 15.75C16.85 15.75 15.75 16.85 15.75 18.2C15.75 19.55 16.85 20.65 18.2 20.65C19.55 20.65 20.65 19.55 20.65 18.2C20.65 16.85 19.55 15.75 18.2 15.75Z" fill="#292D32"/>
<path d="M22.0014 22.7514C21.8114 22.7514 21.6214 22.6814 21.4714 22.5314L20.4714 21.5314C20.1814 21.2414 20.1814 20.7614 20.4714 20.4714C20.7614 20.1814 21.2414 20.1814 21.5314 20.4714L22.5314 21.4714C22.8214 21.7614 22.8214 22.2414 22.5314 22.5314C22.3814 22.6814 22.1914 22.7514 22.0014 22.7514Z" fill="#292D32"/>
<path d="M16 7.75H8C7.59 7.75 7.25 7.41 7.25 7C7.25 6.59 7.59 6.25 8 6.25H16C16.41 6.25 16.75 6.59 16.75 7C16.75 7.41 16.41 7.75 16 7.75Z" fill="#292D32"/>
<path d="M15 11.75H9C8.59 11.75 8.25 11.41 8.25 11C8.25 10.59 8.59 10.25 9 10.25H15C15.41 10.25 15.75 10.59 15.75 11C15.75 11.41 15.41 11.75 15 11.75Z" fill="#292D32"/>
</svg>
