<svg width="24" height="24" viewBox="0 0 24 24" fill="none" xmlns="http://www.w3.org/2000/svg">
<path d="M12.0691 21.9816C10.6591 21.9816 9.23911 21.4416 8.16911 20.3716L3.63911 15.8416C2.53911 14.7416 1.95911 13.2216 2.02911 11.6716L2.26911 6.67164C2.37911 4.28164 4.26911 2.39164 6.66911 2.27164L11.6691 2.03164C13.2191 1.97164 14.7391 2.54164 15.8391 3.64164L20.3691 8.17164C22.5191 10.3216 22.5191 13.8316 20.3691 15.9816L15.9791 20.3716C14.8991 21.4416 13.4891 21.9816 12.0691 21.9816ZM4.69911 14.7716L9.22911 19.3016C9.98911 20.0616 10.9991 20.4816 12.0691 20.4816C13.1391 20.4816 14.1491 20.0616 14.9091 19.3016L19.2991 14.9116C20.0591 14.1516 20.4791 13.1416 20.4791 12.0716C20.4791 11.0016 20.0591 9.99164 19.2991 9.23164L14.7691 4.70164C13.9691 3.90164 12.8591 3.47164 11.7391 3.53164L6.73911 3.77164C5.10911 3.84164 3.83911 5.11164 3.75911 6.73164L3.51911 11.7316C3.46911 12.8616 3.89911 13.9716 4.69911 14.7716Z" fill="#292D32"/>
<path d="M9.5 12.75C7.71 12.75 6.25 11.29 6.25 9.5C6.25 7.71 7.71 6.25 9.5 6.25C11.29 6.25 12.75 7.71 12.75 9.5C12.75 11.29 11.29 12.75 9.5 12.75ZM9.5 7.75C8.54 7.75 7.75 8.54 7.75 9.5C7.75 10.46 8.54 11.25 9.5 11.25C10.46 11.25 11.25 10.46 11.25 9.5C11.25 8.54 10.46 7.75 9.5 7.75Z" fill="#292D32"/>
</svg>
