<svg width="24" height="24" viewBox="0 0 24 24" fill="none" xmlns="http://www.w3.org/2000/svg">
<path d="M17.3802 20.7509H10.9102C10.5002 20.7509 10.1602 20.4109 10.1602 20.0009C10.1602 19.5909 10.5002 19.2509 10.9102 19.2509H17.3802C20.4402 19.2509 21.1602 18.7509 21.2402 16.0309C19.9202 15.6909 18.9402 14.4909 18.9402 13.0709C18.9402 11.6409 19.9202 10.4309 21.2502 10.0909V9.83094C21.2502 6.54094 20.6702 5.96094 17.3802 5.96094H11.7502V12.0009C11.7502 12.4109 11.4102 12.7509 11.0002 12.7509C10.5902 12.7509 10.2502 12.4109 10.2502 12.0009V5.21094C10.2502 4.80094 10.5902 4.46094 11.0002 4.46094H17.3802C21.5002 4.46094 22.7502 5.71094 22.7502 9.83094V10.7509C22.7502 11.1609 22.4102 11.5009 22.0002 11.5009C21.1402 11.5009 20.4402 12.2009 20.4402 13.0709C20.4402 13.9309 21.1402 14.6309 22.0002 14.6309C22.4102 14.6309 22.7502 14.9709 22.7502 15.3809C22.7502 19.5009 21.5002 20.7509 17.3802 20.7509Z" fill="#292D32"/>
<path d="M10.9985 20.7502H8.22848C6.20848 20.7502 5.16848 19.2302 4.21848 16.9502L4.02848 16.4902C3.95848 16.3102 3.95848 16.1002 4.03848 15.9202C4.11848 15.7402 4.26848 15.5902 4.44848 15.5202C4.84848 15.3602 5.15848 15.0502 5.32848 14.6602C5.49848 14.2602 5.49848 13.8202 5.32848 13.4202C4.99848 12.5802 4.04848 12.1902 3.20848 12.5202C3.01848 12.6002 2.81848 12.5902 2.62848 12.5102C2.44848 12.4302 2.29848 12.2802 2.22848 12.1002L2.05848 11.6702C0.458483 7.78022 1.15848 6.11022 5.04848 4.50022L7.68848 3.42022C8.06848 3.26022 8.50848 3.45022 8.66848 3.83022L11.6985 11.1702C11.7385 11.2602 11.7585 11.3602 11.7585 11.4602V14.0002C11.7585 14.4102 11.4185 14.7502 11.0085 14.7502C10.5985 14.7502 10.2585 14.4102 10.2585 14.0002V11.6002L7.55848 5.09022L5.61848 5.89022C2.53848 7.16022 2.16848 7.94022 3.37848 10.9402C4.76848 10.7402 6.16848 11.4902 6.71848 12.8402C7.03848 13.6102 7.03848 14.4602 6.70848 15.2302C6.48848 15.7602 6.12848 16.2102 5.66848 16.5402C6.62848 18.8002 7.32848 19.2502 8.21848 19.2502H10.2385V17.0002C10.2385 16.5902 10.5785 16.2502 10.9885 16.2502C11.3985 16.2502 11.7385 16.5902 11.7385 17.0002V20.0002C11.7485 20.4102 11.4085 20.7502 10.9985 20.7502Z" fill="#292D32"/>
<path d="M8.17 20.75H8C7.59 20.75 7.25 20.41 7.25 20C7.25 19.59 7.59 19.25 8 19.25H8.17C8.58 19.25 8.92 19.59 8.92 20C8.92 20.41 8.58 20.75 8.17 20.75Z" fill="#292D32"/>
</svg>
