<svg width="24" height="24" viewBox="0 0 24 24" fill="none" xmlns="http://www.w3.org/2000/svg">
<path d="M21 8.95V15.88C21 17.52 19.66 18.85 18 18.85H17.24C16.44 18.85 15.68 19.16 15.12 19.72L13.41 21.41C12.63 22.18 11.36 22.18 10.58 21.41L8.87 19.72C8.31 19.16 7.54 18.85 6.75 18.85H6C4.34 18.85 3 17.52 3 15.88V4.97C3 3.33 4.34 2 6 2H18C19.66 2 21 3.33 21 4.97" stroke="#292D32" stroke-width="1.5" stroke-miterlimit="10" stroke-linecap="round" stroke-linejoin="round"/>
<path d="M12.0691 8.95078C12.0291 8.95078 11.9691 8.95078 11.9191 8.95078C10.8691 8.91078 10.0391 8.06078 10.0391 7.00078C10.0391 5.92078 10.9091 5.05078 11.9891 5.05078C13.0691 5.05078 13.9391 5.93078 13.9391 7.00078C13.9491 8.06078 13.1191 8.92078 12.0691 8.95078Z" stroke="#292D32" stroke-width="1.5" stroke-linecap="round" stroke-linejoin="round"/>
<path d="M9.25 15.1906C10.76 16.2006 13.24 16.2006 14.75 15.1906C16.08 14.3006 16.08 12.8506 14.75 11.9606C13.24 10.9506 10.76 10.9506 9.25 11.9606" stroke="#292D32" stroke-width="1.5" stroke-linecap="round" stroke-linejoin="round"/>
</svg>
