<svg width="24" height="24" viewBox="0 0 24 24" fill="none" xmlns="http://www.w3.org/2000/svg">
<path d="M12 12C14.7614 12 17 9.76142 17 7C17 4.23858 14.7614 2 12 2C9.23858 2 7 4.23858 7 7C7 9.76142 9.23858 12 12 12Z" stroke="#292D32" stroke-width="1.5" stroke-linecap="round" stroke-linejoin="round"/>
<path d="M19.211 15.741L15.671 19.281C15.531 19.421 15.401 19.681 15.371 19.871L15.181 21.221C15.111 21.711 15.451 22.051 15.941 21.981L17.291 21.791C17.481 21.761 17.751 21.631 17.881 21.491L21.421 17.951C22.031 17.341 22.321 16.631 21.421 15.731C20.531 14.841 19.821 15.131 19.211 15.741Z" stroke="#292D32" stroke-width="1.5" stroke-miterlimit="10" stroke-linecap="round" stroke-linejoin="round"/>
<path d="M18.6992 16.25C18.9992 17.33 19.8392 18.17 20.9192 18.47" stroke="#292D32" stroke-width="1.5" stroke-miterlimit="10" stroke-linecap="round" stroke-linejoin="round"/>
<path opacity="0.4" d="M3.41016 22C3.41016 18.13 7.26018 15 12.0002 15C13.0402 15 14.0402 15.15 14.9702 15.43" stroke="#292D32" stroke-width="1.5" stroke-linecap="round" stroke-linejoin="round"/>
</svg>
