<svg id="Vuesax_Bold_Key" data-name="Vuesax/Bold/Key" xmlns="http://www.w3.org/2000/svg" width="24" height="24" viewBox="0 0 24 24">
  <path id="Vector" d="M17.793,2.213A7.577,7.577,0,0,0,5.2,9.813l-4.7,4.7A2.015,2.015,0,0,0,.013,16l.3,2.18a1.888,1.888,0,0,0,1.5,1.5l2.18.3a1.943,1.943,0,0,0,1.49-.5l.82-.82a.5.5,0,0,0,0-.71l-1.94-1.94a.75.75,0,0,1,1.06-1.06l1.95,1.95a.5.5,0,0,0,.7,0l2.12-2.11a7.568,7.568,0,0,0,7.6-12.58ZM12.5,9.993a2.5,2.5,0,1,1,2.5-2.5A2.5,2.5,0,0,1,12.5,9.993Z" transform="translate(1.997 2.007)" fill="#fff"/>
</svg>
