<svg xmlns="http://www.w3.org/2000/svg" width="21.551" height="21.642" viewBox="0 0 21.551 21.642">
  <g id="_39a" data-name="39a" transform="translate(-1.216 -1.26)">
    <path id="Vector" d="M.1,2.6C.9-.86,6.11-.86,6.9,2.6c.47,2.03-.82,3.75-1.94,4.82a2.137,2.137,0,0,1-2.93,0C.919,6.345-.371,4.625.1,2.6Z" transform="translate(1.971 2.005)" fill="none" stroke="#292d32" stroke-width="1.5"/>
    <path id="Vector-2" data-name="Vector" d="M.1,2.6C.9-.86,6.14-.86,6.94,2.6c.47,2.03-.82,3.75-1.95,4.82a2.149,2.149,0,0,1-2.94,0C.919,6.345-.371,4.625.1,2.6Z" transform="translate(14.971 14.005)" fill="none" stroke="#292d32" stroke-width="1.5"/>
    <path id="Vector-3" data-name="Vector" d="M4.677,0h2.68a2,2,0,0,1,1.32,3.51L.687,10.5A2,2,0,0,0,2,14H4.68" transform="translate(7.323 5)" fill="none" stroke="#292d32" stroke-linecap="round" stroke-linejoin="round" stroke-width="1.5"/>
    <path id="Vector-4" data-name="Vector" d="M.636.5H.648" transform="translate(4.85 5)" fill="none" stroke="#292d32" stroke-linecap="round" stroke-linejoin="round" stroke-width="2"/>
    <path id="Vector-5" data-name="Vector" d="M.636.5H.648" transform="translate(17.85 17)" fill="none" stroke="#292d32" stroke-linecap="round" stroke-linejoin="round" stroke-width="2"/>
  </g>
</svg>
