<svg xmlns="http://www.w3.org/2000/svg" width="24" height="24" viewBox="0 0 24 24">
  <g id="vuesax_bold_brush" data-name="vuesax/bold/brush" transform="translate(-172 -188)">
    <g id="brush">
      <path id="Vector" d="M12.79,2.79h-.28A3.193,3.193,0,0,0,11.66.9,3.516,3.516,0,0,0,9.07,0H3.49A3.149,3.149,0,0,0,0,3.49,3.516,3.516,0,0,0,.9,6.08a3.516,3.516,0,0,0,2.59.9H9.07c2,0,3.2-.99,3.44-2.79h.28c2.09,0,2.09.28,2.09,2.09V8.14c0,1.81,0,2.09-2.09,2.09H9.07c-2.99,0-3.42,1.42-3.48,2.8a1.832,1.832,0,0,0-1.87,2.08V17.9a1.873,1.873,0,0,0,2.09,2.09h.93A1.873,1.873,0,0,0,8.83,17.9V15.11a1.829,1.829,0,0,0-1.85-2.08c.05-1.01.34-1.41,2.08-1.41h3.72c3.25,0,3.49-1.32,3.49-3.49V6.28C16.28,4.11,16.04,2.79,12.79,2.79Z" transform="translate(175.86 190)" fill="#292d32"/>
      <path id="Vector-2" data-name="Vector" d="M0,0H24V24H0Z" transform="translate(172 188)" fill="none" opacity="0"/>
    </g>
  </g>
</svg>
