<svg xmlns="http://www.w3.org/2000/svg" width="24" height="24" viewBox="0 0 24 24">
  <g id="vuesax_bold_empty-wallet-tick" data-name="vuesax/bold/empty-wallet-tick" transform="translate(-748 -188)">
    <g id="empty-wallet-tick">
      <path id="Vector" d="M0,0H24V24H0Z" transform="translate(748.001 188)" fill="none" opacity="0"/>
      <path id="Vector-2" data-name="Vector" d="M4,0A4,4,0,0,0,0,4,3.921,3.921,0,0,0,.58,6.06,3.97,3.97,0,0,0,4,8,3.905,3.905,0,0,0,6.63,7a3.593,3.593,0,0,0,.79-.94A3.921,3.921,0,0,0,8,4,4,4,0,0,0,4,0ZM6.07,3.57,3.94,5.54a.763.763,0,0,1-.51.2.742.742,0,0,1-.53-.22l-.99-.99A.75.75,0,0,1,2.97,3.47l.48.48,1.6-1.48a.75.75,0,0,1,1.02,1.1Z" transform="translate(749.001 203)" fill="#292d32"/>
      <path id="Vector-3" data-name="Vector" d="M12.35,1.9V5.7h-1.5V1.9a.4.4,0,0,0-.55-.37L2.37,4.52A1.343,1.343,0,0,0,1.5,5.79v.67a3.736,3.736,0,0,0-1.5,3V5.79A2.848,2.848,0,0,1,1.84,3.12l7.94-3A1.975,1.975,0,0,1,10.45,0,1.905,1.905,0,0,1,12.35,1.9Z" transform="translate(750.501 190.05)" fill="#292d32"/>
      <path id="Vector-4" data-name="Vector" d="M3,.5v1a.5.5,0,0,1-.49.5H1.055A1.035,1.035,0,0,1,0,1.09a1,1,0,0,1,.29-.8A.951.951,0,0,1,.995,0H2.5A.5.5,0,0,1,3,.5Z" transform="translate(766.496 202)" fill="#292d32"/>
      <path id="Vector-5" data-name="Vector" d="M16.98,5.2H18a1,1,0,0,0,1-1V3.76A3.768,3.768,0,0,0,15.24,0H3.76A3.706,3.706,0,0,0,1.5.76a3.736,3.736,0,0,0-1.5,3V5.54a.563.563,0,0,0,.76.5A5.429,5.429,0,0,1,2.5,5.75,5.51,5.51,0,0,1,8,11.25a5.8,5.8,0,0,1-.49,2.21.557.557,0,0,0,.48.79h7.25A3.768,3.768,0,0,0,19,10.49V10.3a1,1,0,0,0-1-1h-.87A2.171,2.171,0,0,1,15,7.78a2.013,2.013,0,0,1,.54-1.98A1.993,1.993,0,0,1,16.98,5.2ZM11.5,5h-5a.75.75,0,0,1,0-1.5h5a.75.75,0,0,1,0,1.5Z" transform="translate(750.501 195.75)" fill="#292d32"/>
    </g>
  </g>
</svg>
