<svg xmlns="http://www.w3.org/2000/svg" width="24" height="24" viewBox="0 0 24 24">
  <g id="vuesax_bold_music" data-name="vuesax/bold/music" transform="translate(-748 -316)">
    <g id="music">
      <path id="Vector" d="M17.78,3.179v11.3a3.59,3.59,0,1,1-3.59-3.58,3.521,3.521,0,0,1,2.2.77V5.719L7.18,8.339v8.07a3.619,3.619,0,1,1-1.4-2.82V4.749a3,3,0,0,1,2.3-2.99L13.86.179a3.187,3.187,0,0,1,2.86.33A3.128,3.128,0,0,1,17.78,3.179Z" transform="translate(751.11 318.001)" fill="#292d32"/>
      <path id="Vector-2" data-name="Vector" d="M0,0H24V24H0Z" transform="translate(748 316)" fill="none" opacity="0"/>
    </g>
  </g>
</svg>
