<svg width="24" height="24" viewBox="0 0 24 24" fill="none" xmlns="http://www.w3.org/2000/svg">
<path d="M14.6585 20.0105L13.1385 21.5305C12.5185 22.1505 11.4985 22.1505 10.8785 21.5305L9.35843 20.0105C9.09843 19.7505 8.58846 19.5405 8.22846 19.5405H6.07843C5.19843 19.5405 4.47846 18.8204 4.47846 17.9404V15.7905C4.47846 15.4305 4.26846 14.9205 4.00846 14.6605L2.48844 13.1405C1.86844 12.5205 1.86844 11.5005 2.48844 10.8805L4.00846 9.36047C4.26846 9.10047 4.47846 8.59047 4.47846 8.23047V6.08044C4.47846 5.20044 5.19843 4.48047 6.07843 4.48047" stroke="#292D32" stroke-width="1.5" stroke-linecap="round" stroke-linejoin="round"/>
<path d="M9.33984 3.98893L10.8598 2.46891C11.4798 1.84891 12.4998 1.84891 13.1198 2.46891L14.6399 3.98893C14.8999 4.24893 15.4098 4.4589 15.7698 4.4589H17.9199C18.7999 4.4589 19.5198 5.17899 19.5198 6.05899V8.2089C19.5198 8.5689 19.7298 9.0789 19.9898 9.3389L21.5099 10.8589C22.1299 11.4789 22.1299 12.4989 21.5099 13.1189L19.9898 14.639C19.7298 14.899 19.5198 15.409 19.5198 15.769V17.919C19.5198 18.799 18.7999 19.519 17.9199 19.519" stroke="#292D32" stroke-width="1.5" stroke-linecap="round" stroke-linejoin="round"/>
<path d="M9 15L15 9" stroke="#292D32" stroke-width="1.5" stroke-linecap="round" stroke-linejoin="round"/>
<path d="M14.4945 14.5H14.5035" stroke="#292D32" stroke-width="2" stroke-linecap="round" stroke-linejoin="round"/>
<path d="M9.49451 9.5H9.50349" stroke="#292D32" stroke-width="2" stroke-linecap="round" stroke-linejoin="round"/>
</svg>
