<svg width="24" height="24" viewBox="0 0 24 24" fill="none" xmlns="http://www.w3.org/2000/svg">
<path d="M9.5 13.7483C9.5 14.7183 10.25 15.4983 11.17 15.4983H13.05C13.85 15.4983 14.5 14.8183 14.5 13.9683C14.5 13.0583 14.1 12.7283 13.51 12.5183L10.5 11.4683C9.91 11.2583 9.51001 10.9383 9.51001 10.0183C9.51001 9.17828 10.16 8.48828 10.96 8.48828H12.84C13.76 8.48828 14.51 9.26828 14.51 10.2383" stroke="#292D32" stroke-width="1.5" stroke-linecap="round" stroke-linejoin="round"/>
<path d="M12 7.5V16.5" stroke="#292D32" stroke-width="1.5" stroke-linecap="round" stroke-linejoin="round"/>
<path d="M17 3V7H21" stroke="#292D32" stroke-width="1.5" stroke-linecap="round" stroke-linejoin="round"/>
<path d="M22 2L17 7" stroke="#292D32" stroke-width="1.5" stroke-linecap="round" stroke-linejoin="round"/>
<path d="M12 2C6.48 2 2 6.48 2 12C2 15.94 4.28001 19.35 7.60001 20.98" stroke="#292D32" stroke-width="1.5" stroke-linecap="round" stroke-linejoin="round"/>
<path d="M22 12C22 17.52 17.52 22 12 22" stroke="#292D32" stroke-width="1.5" stroke-linecap="round" stroke-linejoin="round"/>
</svg>
