<svg width="24" height="24" viewBox="0 0 24 24" fill="none" xmlns="http://www.w3.org/2000/svg">
<path d="M3.24172 15.27C2.86172 15.41 2.44172 15.49 2.01172 15.49C2.10172 19.08 3.17172 20 7.00172 20H17.0017C21.0017 20 22.0017 19 22.0017 15V9C22.0017 5 21.0017 4 17.0017 4H7.00172C3.17172 4 2.10172 4.92 2.01172 8.5C3.94172 8.5 5.50172 10.07 5.50172 12" stroke="#292D32" stroke-width="1.5" stroke-linecap="round" stroke-linejoin="round"/>
<path d="M9 4V7.5" stroke="#292D32" stroke-width="1.5" stroke-linecap="round" stroke-linejoin="round"/>
<path d="M9 16.5V20" stroke="#292D32" stroke-width="1.5" stroke-linecap="round" stroke-linejoin="round"/>
<path d="M14.8619 14.2084C14.7419 14.1484 14.5919 14.1484 14.4719 14.2084L13.2419 14.8584C12.9319 15.0184 12.5819 14.7584 12.6419 14.4184L12.8819 13.0484C12.9019 12.9084 12.8619 12.7784 12.7619 12.6784L11.7719 11.7084C11.5219 11.4684 11.6619 11.0484 12.0019 10.9984L13.3819 10.7984C13.5219 10.7784 13.6319 10.6984 13.6919 10.5684L14.3019 9.31844C14.4519 9.00844 14.8919 9.00844 15.0419 9.31844L15.6619 10.5684C15.7219 10.6884 15.8419 10.7784 15.9719 10.7984L17.3519 10.9984C17.6919 11.0484 17.8319 11.4684 17.5819 11.7084L16.5819 12.6784C16.4819 12.7684 16.4419 12.9084 16.4619 13.0484" stroke="#292D32" stroke-width="1.5" stroke-linecap="round" stroke-linejoin="round"/>
</svg>
