<svg width="24" height="24" viewBox="0 0 24 24" fill="none" xmlns="http://www.w3.org/2000/svg">
<path d="M21.3192 11.9083C22.4892 10.7383 22.1092 9.55828 20.4792 9.27828L17.9292 8.85828C17.4992 8.78828 16.9892 8.40829 16.7992 8.01829L15.3892 5.19828C14.6292 3.66828 13.3792 3.66828 12.6192 5.19828L11.2092 8.01829C11.0192 8.40829 10.5092 8.77828 10.0792 8.85828L7.52922 9.27828C5.89922 9.54828 5.51922 10.7283 6.68922 11.9083L8.67921 13.8983C9.00921 14.2283 9.19921 14.8783 9.08921 15.3483L8.51921 17.8083C8.06921 19.7483 9.10923 20.5083 10.8192 19.4883L13.2092 18.0683C13.6392 17.8083 14.3592 17.8083 14.7892 18.0683L17.1792 19.4883C18.8892 20.4983 19.9292 19.7483 19.4792 17.8083L18.9092 15.3483" stroke="#292D32" stroke-width="1.5" stroke-linecap="round" stroke-linejoin="round"/>
<path d="M8 5H2" stroke="#292D32" stroke-width="1.5" stroke-linecap="round" stroke-linejoin="round"/>
<path d="M5 19H2" stroke="#292D32" stroke-width="1.5" stroke-linecap="round" stroke-linejoin="round"/>
<path d="M3 12H2" stroke="#292D32" stroke-width="1.5" stroke-linecap="round" stroke-linejoin="round"/>
</svg>
