<svg width="24" height="24" viewBox="0 0 24 24" fill="none" xmlns="http://www.w3.org/2000/svg">
<path d="M18.5408 4.11984L13.0408 2.05984C12.4708 1.84984 11.5408 1.84984 10.9708 2.05984L5.47078 4.11984C4.41078 4.51984 3.55078 5.75984 3.55078 6.88984V14.9898C3.55078 15.7998 4.08078 16.8698 4.73078 17.3498L10.2308 21.4598C11.2008 22.1898 12.7908 22.1898 13.7608 21.4598L19.2608 17.3498C19.9108 16.8598 20.4408 15.7998 20.4408 14.9898V6.88984C20.4508 5.75984 19.5908 4.51984 18.5408 4.11984ZM14.6808 13.9698C14.5308 14.1198 14.3408 14.1898 14.1508 14.1898C13.9608 14.1898 13.7708 14.1198 13.6208 13.9698L12.0308 12.3798L10.3908 14.0198C10.2408 14.1698 10.0508 14.2398 9.86078 14.2398C9.67078 14.2398 9.48078 14.1698 9.33078 14.0198C9.04078 13.7298 9.04078 13.2498 9.33078 12.9598L10.9708 11.3198L9.37078 9.71984C9.08078 9.42984 9.08078 8.94984 9.37078 8.65984C9.66078 8.36984 10.1408 8.36984 10.4308 8.65984L12.0208 10.2498L13.5708 8.69984C13.8608 8.40984 14.3408 8.40984 14.6308 8.69984C14.9208 8.98984 14.9208 9.46984 14.6308 9.75984L13.0808 11.3098L14.6708 12.8998C14.9708 13.1998 14.9708 13.6698 14.6808 13.9698Z" fill="#292D32"/>
</svg>
