<svg width="24" height="24" viewBox="0 0 24 24" fill="none" xmlns="http://www.w3.org/2000/svg">
<path opacity="0.4" d="M20.5691 11.0119C19.8091 10.1019 18.8091 9.49189 17.6691 9.24189C17.4191 8.09189 16.9591 7.09189 16.3091 6.27189C16.2891 6.24189 16.2691 6.21189 16.2491 6.19189C14.0591 3.54189 10.4691 3.55189 8.04906 4.92189C5.97906 6.10189 4.21906 8.59189 5.13906 12.1619C3.01906 12.6819 2.03906 14.5319 2.03906 16.2019C2.03906 18.0719 3.25906 20.1819 5.98906 20.3719H16.2891C16.2991 20.3719 16.3191 20.3719 16.3291 20.3719C17.7491 20.3719 19.0991 19.8519 20.1391 18.8919C22.6591 16.6919 22.3291 13.0819 20.5691 11.0119Z" fill="#292D32"/>
<path d="M21.2717 8.76172C21.2717 9.78172 20.8017 10.7017 20.0417 11.3017C19.4917 11.7517 18.7817 12.0217 18.0117 12.0217C16.2217 12.0217 14.7617 10.5617 14.7617 8.77172C14.7617 7.88172 15.1217 7.07172 15.7217 6.48172V6.47172C16.3117 5.88172 17.1217 5.51172 18.0117 5.51172C19.8117 5.51172 21.2717 6.97172 21.2717 8.76172Z" fill="#292D32"/>
</svg>
