<svg width="24" height="24" viewBox="0 0 24 24" fill="none" xmlns="http://www.w3.org/2000/svg">
<path d="M12.3806 16.9203H10.0906C9.68061 16.9203 9.34061 16.5803 9.34061 16.1703C9.34061 15.7603 9.68061 15.4203 10.0906 15.4203H12.3806C12.8106 15.4203 13.1606 15.0703 13.1606 14.6403C13.1606 14.2103 12.8106 13.8603 12.3806 13.8603H10.0906C9.85061 13.8603 9.62062 13.7403 9.48062 13.5503C9.34062 13.3603 9.30062 13.1003 9.38062 12.8703L10.1406 10.5803C10.2406 10.2703 10.5306 10.0703 10.8506 10.0703H13.9106C14.3206 10.0703 14.6606 10.4103 14.6606 10.8203C14.6606 11.2303 14.3206 11.5703 13.9106 11.5703H11.3906L11.1306 12.3603H12.3806C13.6406 12.3603 14.6606 13.3803 14.6606 14.6403C14.6606 15.9003 13.6406 16.9203 12.3806 16.9203Z" fill="#292D32"/>
<path opacity="0.4" d="M11.9998 3.47945C11.9198 3.47945 11.8399 3.48946 11.7599 3.48946L12.5798 2.46944C12.8398 2.14944 12.7898 1.66945 12.4598 1.41945C12.1298 1.16945 11.6699 1.20945 11.4099 1.53945L9.42984 4.00948C9.41984 4.01948 9.41985 4.03946 9.40985 4.04946C9.37985 4.08946 9.35984 4.13947 9.33984 4.18947C9.31984 4.22947 9.29986 4.26948 9.28986 4.31948C9.27986 4.36948 9.27985 4.40949 9.27985 4.45949C9.27985 4.50949 9.27985 4.55945 9.27985 4.60945C9.27985 4.62945 9.27985 4.63944 9.27985 4.65944C9.28985 4.68944 9.30985 4.71947 9.31985 4.74947C9.33985 4.79947 9.35985 4.83948 9.37985 4.88948C9.40985 4.92948 9.43985 4.96947 9.46985 4.99947C9.48985 5.02947 9.50986 5.05949 9.53986 5.07949C9.54986 5.08949 9.56984 5.09945 9.58984 5.10945C9.61984 5.12945 9.64986 5.13944 9.66986 5.15944C9.71986 5.18944 9.77984 5.20944 9.83984 5.21944C9.86984 5.22944 9.89984 5.22946 9.92984 5.23946C9.95984 5.23946 9.97986 5.24947 10.0099 5.24947C10.0399 5.24947 10.0598 5.23945 10.0798 5.22945C10.1098 5.22945 10.1399 5.23945 10.1699 5.22945C10.8099 5.07945 11.4099 5.00948 11.9799 5.00948C16.4699 5.00948 20.1198 8.65949 20.1198 13.1495C20.1198 17.6395 16.4699 21.2894 11.9799 21.2894C7.48986 21.2894 3.83984 17.6395 3.83984 13.1495C3.83984 11.4095 4.40984 9.72945 5.48984 8.28945C5.73984 7.95945 5.66984 7.48946 5.33984 7.23946C5.00984 6.98946 4.53986 7.05948 4.28986 7.38948C3.00986 9.08948 2.33984 11.0795 2.33984 13.1495C2.33984 18.4595 6.65986 22.7894 11.9799 22.7894C17.2999 22.7894 21.6198 18.4695 21.6198 13.1495C21.6198 7.82949 17.3098 3.47945 11.9998 3.47945Z" fill="#292D32"/>
</svg>
