<svg width="24" height="24" viewBox="0 0 24 24" fill="none" xmlns="http://www.w3.org/2000/svg">
<path d="M15.7194 9.68953C13.6694 7.62953 10.3294 7.62953 8.27937 9.68953C6.21938 11.7495 6.21938 15.0795 8.27937 17.1295C10.3394 19.1895 13.6694 19.1895 15.7194 17.1295C17.7794 15.0695 17.7794 11.7395 15.7194 9.68953ZM12.5294 13.9395L10.9394 15.5296C10.7894 15.6796 10.5994 15.7495 10.4094 15.7495C10.2194 15.7495 10.0194 15.6796 9.87938 15.5296C9.58938 15.2396 9.58938 14.7596 9.87938 14.4596L11.4694 12.8695C11.7594 12.5795 12.2394 12.5795 12.5394 12.8695C12.8294 13.1695 12.8294 13.6495 12.5294 13.9395Z" fill="#292D32"/>
<path opacity="0.4" d="M19.5981 5.80878C19.3781 5.58878 19.0981 5.46875 18.7881 5.46875C18.4781 5.46875 18.1981 5.58877 17.9781 5.79877C17.5281 6.24877 17.5281 6.96876 17.9781 7.41876C18.1981 7.63876 18.4781 7.75879 18.7881 7.75879C19.0981 7.75879 19.3781 7.63877 19.5981 7.42877C19.8181 7.20877 19.9381 6.92877 19.9381 6.61877C19.9381 6.30877 19.8181 6.01878 19.5981 5.80878Z" fill="#292D32"/>
<path opacity="0.4" d="M6.01859 19.3908C5.79859 19.1708 5.51859 19.0508 5.20859 19.0508C4.89859 19.0508 4.61859 19.1708 4.39859 19.3808C4.17859 19.6008 4.05859 19.8808 4.05859 20.1908C4.05859 20.5008 4.17859 20.7808 4.39859 21.0008C4.61859 21.2208 4.91859 21.3308 5.20859 21.3308C5.49859 21.3308 5.79859 21.2208 6.01859 20.9908C6.45859 20.5608 6.45859 19.8308 6.01859 19.3908Z" fill="#292D32"/>
<path opacity="0.4" d="M22.4106 12.6017C22.2006 12.3817 21.9106 12.2717 21.6006 12.2617C21.2906 12.2617 21.0106 12.3817 20.7906 12.6017C20.3406 13.0517 20.3406 13.7717 20.7906 14.2217C21.0106 14.4417 21.3106 14.5517 21.6006 14.5517C21.8906 14.5517 22.1906 14.4417 22.4106 14.2217C22.8606 13.7717 22.8606 13.0417 22.4106 12.6017Z" fill="#292D32"/>
<path opacity="0.4" d="M3.2114 12.5994C2.7714 12.1594 2.04141 12.1494 1.59141 12.5994C1.14141 13.0494 1.14141 13.7694 1.59141 14.2194C1.81141 14.4394 2.1114 14.5494 2.4014 14.5494C2.6914 14.5494 2.9914 14.4394 3.2114 14.2194C3.6514 13.7694 3.6514 13.0394 3.2114 12.5994Z" fill="#292D32"/>
<path opacity="0.4" d="M19.5981 19.3883C19.1481 18.9383 18.4281 18.9383 17.9781 19.3883C17.5281 19.8383 17.5281 20.5583 17.9781 21.0083C18.1981 21.2283 18.4981 21.3383 18.7881 21.3383C19.0781 21.3383 19.3781 21.2283 19.5981 21.0083C19.8181 20.7883 19.9381 20.4983 19.9381 20.1983C19.9381 19.8883 19.8181 19.5983 19.5981 19.3883Z" fill="#292D32"/>
<path opacity="0.4" d="M6.01859 5.80878C5.79859 5.58878 5.51859 5.46875 5.20859 5.46875C4.89859 5.46875 4.61859 5.58877 4.39859 5.79877C4.17859 6.01877 4.05859 6.29876 4.05859 6.60876C4.05859 6.91876 4.17861 7.19876 4.38861 7.41876C4.60861 7.63876 4.88861 7.75879 5.19861 7.75879C5.50861 7.75879 5.78861 7.63876 6.00861 7.41876C6.45861 6.97876 6.45859 6.24878 6.01859 5.80878Z" fill="#292D32"/>
<path opacity="0.4" d="M12.8116 3.00156C12.8116 2.99156 12.8116 2.99156 12.8116 3.00156C12.3616 2.55156 11.6416 2.55156 11.1916 3.00156C10.9716 3.22156 10.8516 3.51156 10.8516 3.81156C10.8516 4.12156 10.9715 4.40156 11.1815 4.62156C11.4015 4.84156 11.6815 4.96158 11.9915 4.96158C12.3015 4.96158 12.5815 4.84156 12.8015 4.62156C13.2615 4.17156 13.2616 3.44156 12.8116 3.00156Z" fill="#292D32"/>
</svg>
