<svg width="24" height="24" viewBox="0 0 24 24" fill="none" xmlns="http://www.w3.org/2000/svg">
<path d="M14.4314 16.9203H12.1414C11.7314 16.9203 11.3914 16.5803 11.3914 16.1703C11.3914 15.7603 11.7314 15.4203 12.1414 15.4203H14.4314C14.8614 15.4203 15.2114 15.0703 15.2114 14.6403C15.2114 14.2103 14.8614 13.8603 14.4314 13.8603H12.1414C11.9014 13.8603 11.6714 13.7403 11.5314 13.5503C11.3914 13.3603 11.3514 13.1003 11.4314 12.8703L12.1914 10.5803C12.2914 10.2703 12.5814 10.0703 12.9014 10.0703H15.9614C16.3714 10.0703 16.7114 10.4103 16.7114 10.8203C16.7114 11.2303 16.3714 11.5703 15.9614 11.5703H13.4414L13.1814 12.3603H14.4314C15.6914 12.3603 16.7114 13.3803 16.7114 14.6403C16.7114 15.9003 15.6814 16.9203 14.4314 16.9203Z" fill="#292D32"/>
<path d="M9.5415 16.9208C9.1315 16.9208 8.7915 16.5808 8.7915 16.1708V12.7808L8.6015 13.0008C8.3215 13.3108 7.8515 13.3308 7.5415 13.0608C7.2315 12.7808 7.2115 12.3108 7.4815 12.0008L8.9815 10.3308C9.1915 10.1008 9.52152 10.0208 9.81152 10.1308C10.1015 10.2408 10.2915 10.5208 10.2915 10.8308V16.1808C10.2915 16.5908 9.9615 16.9208 9.5415 16.9208Z" fill="#292D32"/>
<path opacity="0.4" d="M19.6898 7.34923C19.4398 7.01923 18.9698 6.94927 18.6398 7.19927C18.3098 7.44927 18.2398 7.91926 18.4898 8.24926C19.5698 9.68926 20.1398 11.3692 20.1398 13.1092C20.1398 17.5992 16.4898 21.2493 11.9998 21.2493C7.50982 21.2493 3.8598 17.5992 3.8598 13.1092C3.8598 8.61924 7.50982 4.96923 11.9998 4.96923C12.5798 4.96923 13.1698 5.03926 13.8098 5.18926C13.8398 5.19926 13.8698 5.18926 13.8998 5.18926C13.9298 5.18926 13.9498 5.20928 13.9698 5.20928C13.9998 5.20928 14.0198 5.19927 14.0498 5.19927C14.0798 5.19927 14.1098 5.18925 14.1498 5.17925C14.2098 5.16925 14.2598 5.13925 14.3098 5.11925C14.3398 5.09925 14.3698 5.08927 14.3998 5.06927C14.4098 5.05927 14.4298 5.05925 14.4398 5.04925C14.4698 5.02925 14.4798 4.99924 14.4998 4.97924C14.5398 4.93924 14.5698 4.90924 14.5998 4.85924C14.6298 4.81924 14.6398 4.76923 14.6598 4.71923C14.6698 4.68923 14.6898 4.65926 14.6998 4.62926C14.6998 4.60926 14.6998 4.59928 14.6998 4.57928C14.7098 4.52928 14.7098 4.47925 14.6998 4.42925C14.6998 4.37925 14.6998 4.33924 14.6898 4.28924C14.6798 4.24924 14.6598 4.20923 14.6398 4.15923C14.6198 4.10923 14.5998 4.05928 14.5698 4.01928C14.5598 4.00928 14.5598 3.98924 14.5498 3.97924L12.5698 1.50927C12.3098 1.18927 11.8398 1.12927 11.5198 1.38927C11.1998 1.64927 11.1498 2.11926 11.3998 2.43926L12.2198 3.45928C12.1398 3.45928 12.0598 3.44927 11.9798 3.44927C6.6698 3.44927 2.33984 7.76929 2.33984 13.0893C2.33984 18.4093 6.6598 22.7292 11.9798 22.7292C17.2998 22.7292 21.6198 18.4093 21.6198 13.0893C21.6398 11.0393 20.9598 9.04923 19.6898 7.34923Z" fill="#292D32"/>
</svg>
