<svg width="24" height="24" viewBox="0 0 24 24" fill="none" xmlns="http://www.w3.org/2000/svg">
<path opacity="0.4" d="M19.2605 2.86971L14.8405 1.39971C13.9205 1.08971 12.9905 1.19971 12.3105 1.69971C11.6205 2.19971 11.2305 3.03971 11.2305 4.00971V7.77971L18.1105 10.0697C18.4505 10.1897 18.8005 10.2397 19.1305 10.2397C19.6905 10.2397 20.2105 10.0797 20.6405 9.76971C21.3305 9.26971 21.7205 8.42971 21.7205 7.45971V6.27971C21.7205 4.84971 20.6205 3.31971 19.2605 2.86971Z" fill="#292D32"/>
<path d="M12.7188 8.26953V17.9995C12.7188 20.6195 10.5887 22.7495 7.96875 22.7495C5.34875 22.7495 3.21875 20.6195 3.21875 17.9995C3.21875 15.3795 5.34875 13.2495 7.96875 13.2495C9.22875 13.2495 10.3688 13.7495 11.2188 14.5495V7.76953L12.7188 8.26953Z" fill="#292D32"/>
</svg>
