<svg width="24" height="24" viewBox="0 0 24 24" fill="none" xmlns="http://www.w3.org/2000/svg">
<path opacity="0.4" d="M19.0717 19.8211C18.8817 19.8211 18.6917 19.751 18.5417 19.601C18.2517 19.311 18.2517 18.831 18.5417 18.541C22.1517 14.931 22.1517 9.06109 18.5417 5.46109C18.2517 5.17109 18.2517 4.69109 18.5417 4.40109C18.8317 4.11109 19.3117 4.11109 19.6017 4.40109C23.7917 8.59109 23.7917 15.411 19.6017 19.601C19.4517 19.751 19.2617 19.8211 19.0717 19.8211Z" fill="#292D32"/>
<path opacity="0.4" d="M4.93031 19.8211C4.74031 19.8211 4.55031 19.751 4.40031 19.601C0.210312 15.411 0.210312 8.59109 4.40031 4.40109C4.69031 4.11109 5.17031 4.11109 5.46031 4.40109C5.75031 4.69109 5.75031 5.17109 5.46031 5.46109C1.85031 9.07109 1.85031 14.941 5.46031 18.541C5.75031 18.831 5.75031 19.311 5.46031 19.601C5.31031 19.751 5.12031 19.8211 4.93031 19.8211Z" fill="#292D32"/>
<path opacity="0.4" d="M11.9988 22.7119C10.7488 22.7019 9.5588 22.5019 8.4488 22.1119C8.0588 21.9719 7.84878 21.5419 7.98878 21.1519C8.12878 20.7619 8.5488 20.5519 8.9488 20.6919C9.9088 21.0219 10.9288 21.2019 12.0088 21.2019C13.0788 21.2019 14.1088 21.0219 15.0588 20.6919C15.4488 20.5619 15.8788 20.7619 16.0188 21.1519C16.1588 21.5419 15.9488 21.9719 15.5588 22.1119C14.4388 22.5019 13.2488 22.7119 11.9988 22.7119Z" fill="#292D32"/>
<path opacity="0.4" d="M15.3009 3.33911C15.2209 3.33911 15.1309 3.32907 15.0509 3.29907C14.0909 2.96907 13.061 2.78906 11.991 2.78906C10.9209 2.78906 9.90096 2.96907 8.94096 3.29907C8.55096 3.42907 8.12097 3.22911 7.98097 2.83911C7.84097 2.44911 8.05096 2.01909 8.44096 1.87909C9.55096 1.48909 10.751 1.28906 11.991 1.28906C13.231 1.28906 14.431 1.48909 15.541 1.87909C15.931 2.01909 16.141 2.44911 16.001 2.83911C15.901 3.14911 15.6109 3.33911 15.3009 3.33911Z" fill="#292D32"/>
<path d="M8.73828 12.0001V10.3302C8.73828 8.25016 10.2083 7.40014 12.0083 8.44014L13.4583 9.28017L14.9083 10.1201C16.7083 11.1601 16.7083 12.8602 14.9083 13.9002L13.4583 14.7401L12.0083 15.5802C10.2083 16.6202 8.73828 15.7701 8.73828 13.6901V12.0001Z" fill="#292D32"/>
</svg>
