<svg width="24" height="24" viewBox="0 0 24 24" fill="none" xmlns="http://www.w3.org/2000/svg">
<path opacity="0.4" d="M16.1917 2H7.82172C4.18172 2 2.01172 4.17 2.01172 7.81V16.18C2.01172 19.82 4.18172 21.99 7.82172 21.99H16.1917C19.8317 21.99 22.0017 19.82 22.0017 16.18V7.81C22.0017 4.17 19.8317 2 16.1917 2Z" fill="#292D32"/>
<path d="M14.1692 11.9919L17.7692 9.30188C18.0992 9.05188 18.1692 8.58188 17.9192 8.25188C17.6692 7.92188 17.1992 7.85188 16.8692 8.10188L12.9192 11.0519L10.5192 9.25188C10.5292 9.16188 10.5492 9.07188 10.5492 8.97188C10.5492 7.70188 9.51921 6.67188 8.24921 6.67188C6.97921 6.67188 5.94922 7.70188 5.94922 8.97188C5.94922 10.2419 6.97921 11.2719 8.24921 11.2719C8.86921 11.2719 9.42918 11.0219 9.84918 10.6219L11.6792 11.9919L9.83923 13.3719C9.42923 12.9819 8.86922 12.7319 8.25922 12.7319C6.98922 12.7319 5.95923 13.7619 5.95923 15.0319C5.95923 16.3019 6.98922 17.3319 8.25922 17.3319C9.52922 17.3319 10.5592 16.3019 10.5592 15.0319C10.5592 14.9319 10.5392 14.8319 10.5292 14.7319L12.9392 12.9319L16.8892 15.8819C17.0192 15.9819 17.1792 16.0319 17.3392 16.0319C17.5692 16.0319 17.7892 15.9319 17.9392 15.7319C18.1892 15.4019 18.1192 14.9319 17.7892 14.6819L14.1692 11.9919Z" fill="#292D32"/>
</svg>
