<svg width="24" height="24" viewBox="0 0 24 24" fill="none" xmlns="http://www.w3.org/2000/svg">
<path d="M17.4984 17.8281H15.6484C15.2384 17.8281 14.8984 17.4881 14.8984 17.0781C14.8984 16.6681 15.2384 16.3281 15.6484 16.3281H17.4984C17.9084 16.3281 18.2484 16.6681 18.2484 17.0781C18.2484 17.4881 17.9084 17.8281 17.4984 17.8281Z" fill="#292D32"/>
<path d="M12.97 17.8281H6.5C6.09 17.8281 5.75 17.4881 5.75 17.0781C5.75 16.6681 6.09 16.3281 6.5 16.3281H12.97C13.38 16.3281 13.72 16.6681 13.72 17.0781C13.72 17.4881 13.39 17.8281 12.97 17.8281Z" fill="#292D32"/>
<path d="M17.4987 14.0703H11.9688C11.5588 14.0703 11.2188 13.7303 11.2188 13.3203C11.2188 12.9103 11.5588 12.5703 11.9688 12.5703H17.4987C17.9087 12.5703 18.2487 12.9103 18.2487 13.3203C18.2487 13.7303 17.9087 14.0703 17.4987 14.0703Z" fill="#292D32"/>
<path d="M9.27 14.0703H6.5C6.09 14.0703 5.75 13.7303 5.75 13.3203C5.75 12.9103 6.09 12.5703 6.5 12.5703H9.27C9.68 12.5703 10.02 12.9103 10.02 13.3203C10.02 13.7303 9.68 14.0703 9.27 14.0703Z" fill="#292D32"/>
<path opacity="0.4" d="M16.19 2H7.81C4.17 2 2 4.17 2 7.81V16.18C2 19.83 4.17 22 7.81 22H16.18C19.82 22 21.99 19.83 21.99 16.19V7.81C22 4.17 19.83 2 16.19 2Z" fill="#292D32"/>
</svg>
