<svg width="24" height="24" viewBox="0 0 24 24" fill="none" xmlns="http://www.w3.org/2000/svg">
<path opacity="0.4" d="M16.19 2H7.81C4.17 2 2 4.17 2 7.81V16.18C2 19.83 4.17 22 7.81 22H16.18C19.82 22 21.99 19.83 21.99 16.19V7.81C22 4.17 19.83 2 16.19 2Z" fill="#292D32"/>
<path d="M9.10156 11.9995V10.5195C9.10156 8.6095 10.4516 7.8395 12.1016 8.7895L13.3816 9.5295L14.6616 10.2695C16.3116 11.2195 16.3116 12.7795 14.6616 13.7295L13.3816 14.4695L12.1016 15.2095C10.4516 16.1595 9.10156 15.3795 9.10156 13.4795V11.9995Z" fill="#292D32"/>
</svg>
