<svg width="24" height="24" viewBox="0 0 24 24" fill="none" xmlns="http://www.w3.org/2000/svg">
<path d="M22 11.25H20.75V10C20.75 9.59 20.41 9.25 20 9.25C19.59 9.25 19.25 9.59 19.25 10V11.25H18C17.59 11.25 17.25 11.59 17.25 12C17.25 12.41 17.59 12.75 18 12.75H19.25V14C19.25 14.41 19.59 14.75 20 14.75C20.41 14.75 20.75 14.41 20.75 14V12.75H22C22.41 12.75 22.75 12.41 22.75 12C22.75 11.59 22.41 11.25 22 11.25Z" fill="#292D32"/>
<path opacity="0.4" d="M15.75 7.41168V16.5917C15.75 18.3117 15.13 19.6017 14.02 20.2217C13.57 20.4717 13.07 20.5917 12.55 20.5917C11.75 20.5917 10.89 20.3217 10.01 19.7717L7.09 17.9417C6.89 17.8217 6.66 17.7517 6.43 17.7517H5.5V6.25168H6.43C6.66 6.25168 6.89 6.18168 7.09 6.06168L10.01 4.23168C11.47 3.32168 12.9 3.16168 14.02 3.78168C15.13 4.40168 15.75 5.69168 15.75 7.41168Z" fill="#292D32"/>
<path d="M5.5 6.25V17.75H5C2.58 17.75 1.25 16.42 1.25 14V10C1.25 7.58 2.58 6.25 5 6.25H5.5Z" fill="#292D32"/>
</svg>
