<svg width="24" height="24" viewBox="0 0 24 24" fill="none" xmlns="http://www.w3.org/2000/svg">
<path d="M19.9597 8.95844C19.2897 8.21844 18.2797 7.78844 16.8797 7.63844V6.87844C16.8797 5.50844 16.2997 4.18844 15.2797 3.26844C14.2497 2.32844 12.9097 1.88844 11.5197 2.01844C9.12975 2.24844 7.11975 4.55844 7.11975 7.05844V7.63844C5.71975 7.78844 4.70975 8.21844 4.03975 8.95844C3.06975 10.0384 3.09975 11.4784 3.20975 12.4784L3.90975 18.0484C4.11975 19.9984 4.90975 21.9984 9.20975 21.9984H14.7897C19.0897 21.9984 19.8797 19.9984 20.0897 18.0584L20.7897 12.4684C20.8997 11.4784 20.9297 10.0384 19.9597 8.95844ZM11.6597 3.40844C12.6597 3.31844 13.6097 3.62844 14.3497 4.29844C15.0797 4.95844 15.4897 5.89844 15.4897 6.87844V7.57844H8.50975V7.05844C8.50975 5.27844 9.97975 3.56844 11.6597 3.40844ZM11.9997 18.5784C9.90975 18.5784 8.20975 16.8784 8.20975 14.7884C8.20975 12.6984 9.90975 10.9984 11.9997 10.9984C14.0897 10.9984 15.7897 12.6984 15.7897 14.7884C15.7897 16.8784 14.0897 18.5784 11.9997 18.5784Z" fill="#292D32"/>
<path d="M11.4309 16.64C11.2409 16.64 11.0509 16.57 10.9009 16.42L9.91086 15.43C9.62086 15.14 9.62086 14.66 9.91086 14.37C10.2009 14.08 10.6809 14.08 10.9709 14.37L11.4509 14.85L13.0509 13.37C13.3509 13.09 13.8309 13.11 14.1109 13.41C14.3909 13.71 14.3709 14.19 14.0709 14.47L11.9409 16.44C11.7909 16.57 11.6109 16.64 11.4309 16.64Z" fill="#292D32"/>
</svg>
