<svg width="24" height="24" viewBox="0 0 24 24" fill="none" xmlns="http://www.w3.org/2000/svg">
<path d="M7 3C5.34 3 4 4.34 4 6V6.84C4 7.61 3.88 8.37001 3.63 9.10001C3.25 10.23 2.19 11 1 11V13C2.19 13 3.25 13.76 3.63 14.9C3.87 15.63 4 16.4 4 17.16V18C4 19.66 5.34 21 7 21H17C18.66 21 20 19.66 20 18V17.16C20 16.39 20.12 15.63 20.37 14.9C20.75 13.77 21.81 13 23 13V11C21.81 11 20.75 10.24 20.37 9.10001C20.13 8.37001 20 7.6 20 6.84V6C20 4.34 18.66 3 17 3H12.25" stroke="black" stroke-width="1.5" stroke-miterlimit="10" stroke-linecap="round" stroke-linejoin="round"/>
<path d="M9.75 11.9981H12.67C13.82 11.9981 14.75 12.9281 14.75 14.0781C14.75 15.2281 13.82 16.1581 12.67 16.1581H9.75V7.82812H12.67C13.82 7.82812 14.75 8.75814 14.75 9.90814C14.75 11.0581 13.82 11.9881 12.67 11.9881H9.75" stroke="black" stroke-width="1.5" stroke-miterlimit="10" stroke-linecap="round" stroke-linejoin="round"/>
</svg>
