<svg width="24" height="24" viewBox="0 0 24 24" fill="none" xmlns="http://www.w3.org/2000/svg">
<path d="M14.5397 2.26172C13.5097 2.26172 12.6797 3.0917 12.6797 4.1217V8.76172C12.6797 9.79172 13.5097 10.6217 14.5397 10.6217C15.5697 10.6217 16.3997 9.79172 16.3997 8.76172V4.1217C16.3997 3.0917 15.5697 2.26172 14.5397 2.26172Z" stroke="black" stroke-width="1.5" stroke-miterlimit="10" stroke-linecap="round" stroke-linejoin="round"/>
<path d="M18.6191 10.6205H20.1891C21.0591 10.6205 21.7591 9.92045 21.7591 9.05045C21.7591 8.18045 21.0591 7.48047 20.1891 7.48047C19.3191 7.48047 18.6191 8.18045 18.6191 9.05045V10.6205Z" stroke="black" stroke-width="1.5" stroke-miterlimit="10" stroke-linecap="round" stroke-linejoin="round"/>
<path d="M3.86 7.37109C2.83 7.37109 2 8.20111 2 9.23111C2 10.2611 2.83 11.0911 3.86 11.0911H8.5C9.53 11.0911 10.36 10.2611 10.36 9.23111C10.36 8.20111 9.53 7.37109 8.5 7.37109H7.75" stroke="black" stroke-width="1.5" stroke-miterlimit="10" stroke-linecap="round" stroke-linejoin="round"/>
<path d="M10.3607 5.1283V3.55829C10.3607 2.68829 9.6607 1.98828 8.7907 1.98828C7.9207 1.98828 7.2207 2.68829 7.2207 3.55829C7.2207 4.42829 7.9207 5.1283 8.7907 5.1283H10.3607Z" stroke="black" stroke-width="1.5" stroke-miterlimit="10" stroke-linecap="round" stroke-linejoin="round"/>
<path d="M9.4303 21.7701C10.4603 21.7701 11.2903 20.9402 11.2903 19.9102V15.2701C11.2903 14.2401 10.4603 13.4102 9.4303 13.4102C8.4003 13.4102 7.57031 14.2401 7.57031 15.2701V19.9102C7.57031 20.9302 8.4003 21.7701 9.4303 21.7701Z" stroke="black" stroke-width="1.5" stroke-miterlimit="10" stroke-linecap="round" stroke-linejoin="round"/>
<path d="M5.3607 13.4102H3.7907C2.9207 13.4102 2.2207 14.1102 2.2207 14.9802C2.2207 15.8502 2.9207 16.5501 3.7907 16.5501C4.6607 16.5501 5.3607 15.8502 5.3607 14.9802V13.4102Z" stroke="black" stroke-width="1.5" stroke-miterlimit="10" stroke-linecap="round" stroke-linejoin="round"/>
<path d="M21.9694 14.8014C21.9694 13.7714 21.1394 12.9414 20.1094 12.9414H15.4694C14.4394 12.9414 13.6094 13.7714 13.6094 14.8014C13.6094 15.8314 14.4394 16.6614 15.4694 16.6614H20.1094C21.1394 16.6614 21.9694 15.8314 21.9694 14.8014Z" stroke="black" stroke-width="1.5" stroke-miterlimit="10" stroke-linecap="round" stroke-linejoin="round"/>
<path d="M13.6094 18.8398V20.4099C13.6094 21.2799 14.3094 21.9799 15.1794 21.9799C16.0494 21.9799 16.7494 21.2799 16.7494 20.4099C16.7494 19.5399 16.0494 18.8398 15.1794 18.8398H13.6094Z" stroke="black" stroke-width="1.5" stroke-miterlimit="10" stroke-linecap="round" stroke-linejoin="round"/>
</svg>
