<svg width="24" height="24" viewBox="0 0 24 24" fill="none" xmlns="http://www.w3.org/2000/svg">
<path d="M16.9492 16.9508C19.6792 14.2208 19.6792 9.78078 16.9492 7.05078" stroke="black" stroke-width="1.5" stroke-miterlimit="10" stroke-linecap="round" stroke-linejoin="round"/>
<path d="M7.04945 7.05078C4.31945 9.78078 4.31945 14.2208 7.04945 16.9508" stroke="black" stroke-width="1.5" stroke-miterlimit="10" stroke-linecap="round" stroke-linejoin="round"/>
<path d="M9.66992 13.6283C9.66992 14.5283 10.3699 15.2583 11.2299 15.2583H12.9899C13.7399 15.2583 14.3499 14.6183 14.3499 13.8383C14.3499 12.9883 13.9799 12.6783 13.4199 12.4883L10.6099 11.5083C10.0599 11.3183 9.6799 11.0083 9.6799 10.1583C9.6799 9.36829 10.2899 8.73828 11.0399 8.73828H12.7999C13.6599 8.73828 14.3599 9.46829 14.3599 10.3683" stroke="black" stroke-width="1.5" stroke-linecap="round" stroke-linejoin="round"/>
<path d="M12 7.80078V16.2008" stroke="black" stroke-width="1.5" stroke-linecap="round" stroke-linejoin="round"/>
<path d="M4 6C2.75 7.67 2 9.75 2 12C2 17.52 6.48 22 12 22C17.52 22 22 17.52 22 12C22 6.48 17.52 2 12 2C10.57 2 9.2 2.3 7.97 2.85" stroke="#17191C" stroke-width="1.5" stroke-linecap="round" stroke-linejoin="round"/>
</svg>
