<svg width="24" height="24" viewBox="0 0 24 24" fill="none" xmlns="http://www.w3.org/2000/svg">
<path d="M9.15859 11.62C9.12859 11.62 9.10859 11.62 9.07859 11.62C9.02859 11.61 8.95859 11.61 8.89859 11.62C5.99859 11.53 3.80859 9.25 3.80859 6.44C3.80859 3.58 6.13859 1.25 8.99859 1.25C11.8586 1.25 14.1886 3.58 14.1886 6.44C14.1786 9.25 11.9786 11.53 9.18859 11.62C9.17859 11.62 9.16859 11.62 9.15859 11.62ZM8.99859 2.75C6.96859 2.75 5.30859 4.41 5.30859 6.44C5.30859 8.44 6.86859 10.05 8.85859 10.12C8.91859 10.11 9.04859 10.11 9.17859 10.12C11.1386 10.03 12.6786 8.42 12.6886 6.44C12.6886 4.41 11.0286 2.75 8.99859 2.75Z" fill="#292D32"/>
<path d="M16.5384 11.75C16.5084 11.75 16.4784 11.75 16.4484 11.74C16.0384 11.78 15.6184 11.49 15.5784 11.08C15.5384 10.67 15.7884 10.3 16.1984 10.25C16.3184 10.24 16.4484 10.24 16.5584 10.24C18.0184 10.16 19.1584 8.96 19.1584 7.49C19.1584 5.97 17.9284 4.74 16.4084 4.74C15.9984 4.75 15.6584 4.41 15.6584 4C15.6584 3.59 15.9984 3.25 16.4084 3.25C18.7484 3.25 20.6584 5.16 20.6584 7.5C20.6584 9.8 18.8584 11.66 16.5684 11.75C16.5584 11.75 16.5484 11.75 16.5384 11.75Z" fill="#292D32"/>
<path d="M9.17156 22.55C7.21156 22.55 5.24156 22.05 3.75156 21.05C2.36156 20.13 1.60156 18.87 1.60156 17.5C1.60156 16.13 2.36156 14.86 3.75156 13.93C6.75156 11.94 11.6116 11.94 14.5916 13.93C15.9716 14.85 16.7416 16.11 16.7416 17.48C16.7416 18.85 15.9816 20.12 14.5916 21.05C13.0916 22.05 11.1316 22.55 9.17156 22.55ZM4.58156 15.19C3.62156 15.83 3.10156 16.65 3.10156 17.51C3.10156 18.36 3.63156 19.18 4.58156 19.81C7.07156 21.48 11.2716 21.48 13.7616 19.81C14.7216 19.17 15.2416 18.35 15.2416 17.49C15.2416 16.64 14.7116 15.82 13.7616 15.19C11.2716 13.53 7.07156 13.53 4.58156 15.19Z" fill="#292D32"/>
<path d="M18.3382 20.75C17.9882 20.75 17.6782 20.51 17.6082 20.15C17.5282 19.74 17.7882 19.35 18.1882 19.26C18.8182 19.13 19.3982 18.88 19.8482 18.53C20.4182 18.1 20.7282 17.56 20.7282 16.99C20.7282 16.42 20.4182 15.88 19.8582 15.46C19.4182 15.12 18.8682 14.88 18.2182 14.73C17.8182 14.64 17.5582 14.24 17.6482 13.83C17.7382 13.43 18.1382 13.17 18.5482 13.26C19.4082 13.45 20.1582 13.79 20.7682 14.26C21.6982 14.96 22.2282 15.95 22.2282 16.99C22.2282 18.03 21.6882 19.02 20.7582 19.73C20.1382 20.21 19.3582 20.56 18.4982 20.73C18.4382 20.75 18.3882 20.75 18.3382 20.75Z" fill="#292D32"/>
</svg>
