<svg width="24" height="24" viewBox="0 0 24 24" fill="none" xmlns="http://www.w3.org/2000/svg">
<path d="M15.0006 22.7488H9.00063C7.68063 22.7488 6.58063 22.6188 5.65063 22.3388C5.31063 22.2388 5.09063 21.9088 5.11063 21.5588C5.36063 18.5688 8.39063 16.2188 12.0006 16.2188C15.6106 16.2188 18.6306 18.5588 18.8906 21.5588C18.9206 21.9188 18.7006 22.2388 18.3506 22.3388C17.4206 22.6188 16.3206 22.7488 15.0006 22.7488ZM6.72063 21.0588C7.38063 21.1888 8.13063 21.2488 9.00063 21.2488H15.0006C15.8706 21.2488 16.6206 21.1888 17.2806 21.0588C16.7506 19.1388 14.5606 17.7188 12.0006 17.7188C9.44063 17.7188 7.25063 19.1388 6.72063 21.0588Z" fill="#292D32"/>
<path d="M15 2H9C4 2 2 4 2 9V15C2 18.78 3.14 20.85 5.86 21.62C6.08 19.02 8.75 16.97 12 16.97C15.25 16.97 17.92 19.02 18.14 21.62C20.86 20.85 22 18.78 22 15V9C22 4 20 2 15 2ZM12 14.17C10.02 14.17 8.42 12.56 8.42 10.58C8.42 8.60002 10.02 7 12 7C13.98 7 15.58 8.60002 15.58 10.58C15.58 12.56 13.98 14.17 12 14.17Z" stroke="#292D32" stroke-width="1.5" stroke-linecap="round" stroke-linejoin="round"/>
<path d="M12.0019 14.92C9.61188 14.92 7.67188 12.97 7.67188 10.58C7.67188 8.19002 9.61188 6.25 12.0019 6.25C14.3919 6.25 16.3319 8.19002 16.3319 10.58C16.3319 12.97 14.3919 14.92 12.0019 14.92ZM12.0019 7.75C10.4419 7.75 9.17188 9.02002 9.17188 10.58C9.17188 12.15 10.4419 13.42 12.0019 13.42C13.5619 13.42 14.8319 12.15 14.8319 10.58C14.8319 9.02002 13.5619 7.75 12.0019 7.75Z" fill="#292D32"/>
</svg>
