<svg width="24" height="24" viewBox="0 0 24 24" fill="none" xmlns="http://www.w3.org/2000/svg">
<path d="M22 8V13C22 17 20 19 16 19H15.5C15.19 19 14.89 19.15 14.7 19.4L13.2 21.4C12.54 22.28 11.46 22.28 10.8 21.4L9.3 19.4C9.14 19.18 8.77 19 8.5 19H8C4 19 2 18 2 13V8C2 4 4 2 8 2H12" stroke="#292D32" stroke-width="1.5" stroke-miterlimit="10" stroke-linecap="round" stroke-linejoin="round"/>
<path opacity="0.4" d="M15.1997 4.62154C14.8697 3.63154 15.2597 2.41154 16.3397 2.07154C16.8997 1.90154 17.5997 2.04154 17.9997 2.57154C18.3797 2.02154 19.0997 1.90154 19.6597 2.07154C20.7397 2.40154 21.1297 3.63154 20.7997 4.62154C20.2897 6.19154 18.4997 7.00154 17.9997 7.00154C17.4997 7.00154 15.7297 6.20154 15.1997 4.62154Z" stroke="#292D32" stroke-width="1.5" stroke-linecap="round" stroke-linejoin="round"/>
<path opacity="0.4" d="M15.9965 11H16.0054" stroke="#292D32" stroke-width="2" stroke-linecap="round" stroke-linejoin="round"/>
<path opacity="0.4" d="M11.9945 11H12.0035" stroke="#292D32" stroke-width="2" stroke-linecap="round" stroke-linejoin="round"/>
<path opacity="0.4" d="M7.99451 11H8.00349" stroke="#292D32" stroke-width="2" stroke-linecap="round" stroke-linejoin="round"/>
</svg>
