<svg width="24" height="24" viewBox="0 0 24 24" fill="none" xmlns="http://www.w3.org/2000/svg">
<path opacity="0.4" d="M16.19 2H7.81C4.17 2 2 4.17 2 7.81V16.18C2 19.83 4.17 22 7.81 22H16.18C19.82 22 21.99 19.83 21.99 16.19V7.81C22 4.17 19.83 2 16.19 2Z" fill="#292D32"/>
<path d="M13.8604 6.64844H10.1404C8.22039 6.64844 6.65039 8.20844 6.65039 10.1384V13.8584C6.65039 15.7784 8.22039 17.3484 10.1404 17.3484H13.8604C15.7804 17.3484 17.3504 15.7884 17.3504 13.8584V10.1384C17.3504 8.21844 15.7804 6.64844 13.8604 6.64844ZM15.9504 10.1384V11.2984H12.7004V8.04844H13.8604C15.0104 8.04844 15.9504 8.98844 15.9504 10.1384ZM10.1404 8.04844H11.3004V11.3084H8.05039V10.1484C8.05039 8.98844 8.99039 8.04844 10.1404 8.04844ZM8.05039 13.8584V12.6984H11.3104V15.9584H10.1504C8.99039 15.9484 8.05039 15.0084 8.05039 13.8584ZM13.8604 15.9484H12.7004V12.6984H15.9604V13.8584C15.9504 15.0084 15.0104 15.9484 13.8604 15.9484Z" fill="#292D32"/>
</svg>
