<svg width="24" height="24" viewBox="0 0 24 24" fill="none" xmlns="http://www.w3.org/2000/svg">
<path opacity="0.4" d="M20.0402 6.82165L14.2802 2.79165C12.7102 1.69165 10.3002 1.75165 8.79023 2.92165L3.78023 6.83165C2.78023 7.61165 1.99023 9.21165 1.99023 10.4716V17.3716C1.99023 19.9216 4.06023 22.0016 6.61023 22.0016H17.3902C19.9402 22.0016 22.0102 19.9316 22.0102 17.3816V10.6016C22.0102 9.25165 21.1402 7.59165 20.0402 6.82165Z" fill="#292D32"/>
<path d="M16.8802 14.3323C16.8802 13.9423 16.5702 13.6323 16.1802 13.6323C15.7902 13.6323 15.4802 13.9423 15.4802 14.3323V14.5123L12.7602 11.7923C12.6102 11.6423 12.4102 11.5723 12.2002 11.5923C11.9902 11.6123 11.8002 11.7223 11.6902 11.9023L10.6702 13.4223L8.29016 11.0423C8.02016 10.7723 7.58016 10.7723 7.30016 11.0423C7.03016 11.3123 7.03016 11.7523 7.30016 12.0323L10.2802 15.0123C10.4302 15.1623 10.6302 15.2323 10.8402 15.2123C11.0502 15.1923 11.2402 15.0823 11.3502 14.9023L12.3702 13.3823L14.4802 15.4923H14.3002C13.9102 15.4923 13.6002 15.8023 13.6002 16.1923C13.6002 16.5823 13.9102 16.8923 14.3002 16.8923H16.1602C16.2502 16.8923 16.3402 16.8723 16.4302 16.8423C16.6002 16.7723 16.7402 16.6323 16.8102 16.4623C16.8502 16.3723 16.8602 16.2823 16.8602 16.1923V14.3323H16.8802Z" fill="#292D32"/>
</svg>
