<svg width="24" height="24" viewBox="0 0 24 24" fill="none" xmlns="http://www.w3.org/2000/svg">
<path opacity="0.4" d="M12 22C17.5228 22 22 17.5228 22 12C22 6.47715 17.5228 2 12 2C6.47715 2 2 6.47715 2 12C2 17.5228 6.47715 22 12 22Z" fill="#292D32"/>
<path d="M17.3903 9.25998L14.3503 6.22C14.2803 6.15 14.2003 6.1 14.1103 6.06C13.9303 5.98 13.7203 5.98 13.5403 6.06C13.3603 6.14 13.2103 6.28 13.1303 6.47C13.0903 6.56 13.0703 6.65998 13.0703 6.75998V17.07C13.0703 17.48 13.4103 17.82 13.8203 17.82C14.2303 17.82 14.5703 17.48 14.5703 17.07V8.57001L16.3303 10.33C16.4803 10.48 16.6703 10.55 16.8603 10.55C17.0503 10.55 17.2403 10.48 17.3903 10.33C17.6803 10.02 17.6803 9.54998 17.3903 9.25998Z" fill="#292D32"/>
<path d="M10.9281 6.75C10.9281 6.34 10.5881 6 10.1781 6C9.76813 6 9.42813 6.34 9.42813 6.75V15.25L7.66815 13.49C7.37815 13.2 6.89812 13.2 6.60813 13.49C6.31813 13.78 6.31813 14.26 6.60813 14.55L9.64813 17.59C9.71813 17.66 9.79815 17.71 9.88815 17.75C9.97815 17.79 10.0781 17.81 10.1781 17.81C10.2781 17.81 10.3681 17.79 10.4681 17.75C10.6481 17.67 10.7981 17.53 10.8781 17.34C10.9181 17.25 10.9381 17.15 10.9381 17.05V6.75H10.9281Z" fill="#292D32"/>
</svg>
