<svg width="24" height="24" viewBox="0 0 24 24" fill="none" xmlns="http://www.w3.org/2000/svg">
<path opacity="0.4" d="M16.19 2H7.82001C4.17001 2 2 4.17 2 7.81V16.18C2 19.82 4.17 21.99 7.81 21.99H16.18C19.82 21.99 21.99 19.82 21.99 16.18V7.81C22 4.17 19.83 2 16.19 2Z" fill="#292D32"/>
<path d="M17.53 8.65859L15.96 7.08859C15.67 6.79859 15.19 6.79859 14.9 7.08859C14.61 7.37859 14.61 7.85859 14.9 8.14859L15.23 8.47859H10.08C7.97 8.47859 6.25 10.1986 6.25 12.3086C6.25 14.4186 7.97 16.1386 10.08 16.1386H15C15.41 16.1386 15.75 15.7986 15.75 15.3886C15.75 14.9786 15.41 14.6386 15 14.6386H10.08C8.8 14.6386 7.75 13.5986 7.75 12.3086C7.75 11.0186 8.79 9.97859 10.08 9.97859H15.16L14.9 10.2386C14.61 10.5286 14.61 11.0086 14.9 11.2986C15.05 11.4486 15.24 11.5186 15.43 11.5186C15.62 11.5186 15.81 11.4486 15.96 11.2986L17.53 9.72859C17.82 9.42859 17.82 8.95859 17.53 8.65859Z" fill="#292D32"/>
</svg>
