<svg width="24" height="24" viewBox="0 0 24 24" fill="none" xmlns="http://www.w3.org/2000/svg">
<path opacity="0.4" d="M16.19 2H7.82C4.17 2 2 4.17 2 7.81V16.18C2 19.82 4.17 21.99 7.81 21.99H16.18C19.82 21.99 21.99 19.82 21.99 16.18V7.81C22 4.17 19.83 2 16.19 2Z" fill="#292D32"/>
<path d="M11.4714 15.0417C11.5414 15.1117 11.6214 15.1617 11.7114 15.2017C11.8014 15.2417 11.9014 15.2617 12.0014 15.2617C12.1014 15.2617 12.1914 15.2417 12.2914 15.2017C12.3814 15.1617 12.4614 15.1117 12.5314 15.0417L15.5314 12.0417C15.8214 11.7517 15.8214 11.2717 15.5314 10.9817C15.2414 10.6917 14.7614 10.6917 14.4714 10.9817L12.7514 12.7017V6.51172C12.7514 6.10172 12.4114 5.76172 12.0014 5.76172C11.5914 5.76172 11.2514 6.10172 11.2514 6.51172V12.7017L9.5314 10.9817C9.2414 10.6917 8.76141 10.6917 8.47141 10.9817C8.18141 11.2717 8.18141 11.7517 8.47141 12.0417L11.4714 15.0417Z" fill="#292D32"/>
<path d="M18.7107 16.2819C18.5807 15.8919 18.1607 15.6819 17.7607 15.8119C14.0407 17.0519 9.95067 17.0519 6.23067 15.8119C5.84067 15.6819 5.41067 15.8919 5.28067 16.2819C5.15067 16.6719 5.36067 17.1019 5.75067 17.2319C7.76067 17.9019 9.87067 18.2419 11.9907 18.2419C14.1107 18.2419 16.2207 17.9019 18.2307 17.2319C18.6307 17.0919 18.8407 16.6719 18.7107 16.2819Z" fill="#292D32"/>
</svg>
