<svg width="24" height="24" viewBox="0 0 24 24" fill="none" xmlns="http://www.w3.org/2000/svg">
<path opacity="0.4" d="M20.4992 22.7992H3.49922C3.09922 22.7992 2.69922 22.4992 2.69922 21.9992C2.69922 21.4992 2.99922 21.1992 3.49922 21.1992H20.4992C20.8992 21.1992 21.2992 21.4992 21.2992 21.9992C21.2992 22.4992 20.8992 22.7992 20.4992 22.7992Z" fill="#292D32"/>
<path d="M18.9984 18.1984C18.7984 18.1984 18.5984 18.0984 18.4984 17.9984L4.49844 3.99844C4.19844 3.69844 4.19844 3.29844 4.49844 2.99844C4.79844 2.69844 5.29844 2.69844 5.59844 2.99844L19.5984 16.9984C19.8984 17.2984 19.8984 17.7984 19.5984 18.0984C19.3984 18.1984 19.1984 18.1984 18.9984 18.1984Z" fill="#292D32"/>
<path d="M4.99922 14.4992C4.59922 14.4992 4.19922 14.1992 4.19922 13.6992V3.49922C4.19922 3.09922 4.49922 2.69922 4.99922 2.69922H15.2992C15.6992 2.69922 16.0992 2.99922 16.0992 3.49922C16.0992 3.99922 15.7992 4.29922 15.2992 4.29922H5.79922V13.7992C5.79922 14.1992 5.39922 14.4992 4.99922 14.4992Z" fill="#292D32"/>
</svg>
