<svg width="24" height="24" viewBox="0 0 24 24" fill="none" xmlns="http://www.w3.org/2000/svg">
<g opacity="0.4">
<path d="M8.18156 16.0184C7.42156 15.9484 6.67156 15.5984 6.09156 14.9884C4.77156 13.5984 4.77156 11.3184 6.09156 9.92843L8.28156 7.62844C9.60157 6.23844 11.7716 6.23844 13.1016 7.62844C14.4216 9.01844 14.4216 11.2984 13.1016 12.6884L12.0116 13.8384" stroke="#292D32" stroke-width="1.5" stroke-linecap="round" stroke-linejoin="round"/>
<path d="M15.8202 7.97656C16.5802 8.04656 17.3302 8.39656 17.9102 9.00656C19.2302 10.3966 19.2302 12.6766 17.9102 14.0666L15.7202 16.3665C14.4002 17.7565 12.2302 17.7565 10.9002 16.3665C9.58016 14.9765 9.58016 12.6965 10.9002 11.3065L11.9902 10.1566" stroke="#292D32" stroke-width="1.5" stroke-linecap="round" stroke-linejoin="round"/>
</g>
<path d="M9 22H15C20 22 22 20 22 15V9C22 4 20 2 15 2H9C4 2 2 4 2 9V15C2 20 4 22 9 22Z" stroke="#292D32" stroke-width="1.5" stroke-linecap="round" stroke-linejoin="round"/>
</svg>
