<svg width="24" height="24" viewBox="0 0 24 24" fill="none" xmlns="http://www.w3.org/2000/svg">
<path d="M19.3297 5.68125L13.0597 2.30125C12.3997 1.94125 11.5997 1.94125 10.9397 2.30125L4.66969 5.68125C4.20969 5.93125 3.92969 6.41125 3.92969 6.96125C3.92969 7.50125 4.20969 7.99125 4.66969 8.24125L10.9397 11.6213C11.2697 11.8013 11.6397 11.8913 11.9997 11.8913C12.3597 11.8913 12.7297 11.8013 13.0597 11.6213L19.3297 8.24125C19.7897 7.99125 20.0697 7.51125 20.0697 6.96125C20.0697 6.41125 19.7897 5.93125 19.3297 5.68125Z" fill="#292D32"/>
<path d="M9.91 12.79L4.07 9.87C3.62 9.65 3.1 9.67 2.68 9.93C2.25 10.2 2 10.65 2 11.15V16.66C2 17.61 2.53 18.47 3.38 18.9L9.21 21.82C9.41 21.92 9.63 21.97 9.85 21.97C10.11 21.97 10.37 21.9 10.6 21.76C11.03 21.5 11.28 21.04 11.28 20.54V15.03C11.29 14.07 10.76 13.21 9.91 12.79Z" fill="#292D32"/>
<path d="M21.3207 9.93014C20.8907 9.67014 20.3707 9.64014 19.9307 9.87014L14.1007 12.7901C13.2507 13.2201 12.7207 14.0701 12.7207 15.0301V20.5401C12.7207 21.0401 12.9707 21.5001 13.4007 21.7601C13.6307 21.9001 13.8907 21.9701 14.1507 21.9701C14.3707 21.9701 14.5907 21.9201 14.7907 21.8201L20.6207 18.9001C21.4707 18.4701 22.0007 17.6201 22.0007 16.6601V11.1501C22.0007 10.6501 21.7507 10.2001 21.3207 9.93014Z" fill="#292D32"/>
</svg>
