<svg width="24" height="24" viewBox="0 0 24 24" fill="none" xmlns="http://www.w3.org/2000/svg">
<path d="M12.5007 5.48125C12.5807 5.48125 12.6607 5.48125 12.7507 5.49125V2.53125C12.7507 2.12125 12.4107 1.78125 12.0007 1.78125C11.5907 1.78125 11.2507 2.12125 11.2507 2.53125V5.49125C11.3307 5.48125 11.4107 5.48125 11.5007 5.48125C6.8907 5.71125 3.2207 9.51125 3.2207 14.1813V16.1213C3.2207 17.2213 4.1207 18.1213 5.2207 18.1213H18.7807C19.8807 18.1213 20.7807 17.2213 20.7807 16.1213V14.1813C20.7807 9.51125 17.1107 5.71125 12.5007 5.48125Z" fill="#292D32"/>
<path d="M14.7292 19.1094C15.0592 19.1094 15.2992 19.4194 15.2192 19.7394C14.8392 21.1694 13.5392 22.2194 11.9992 22.2194C10.4592 22.2194 9.15915 21.1694 8.77915 19.7394C8.69915 19.4194 8.93916 19.1094 9.26916 19.1094H14.7292Z" fill="#292D32"/>
</svg>
