<svg width="24" height="24" viewBox="0 0 24 24" fill="none" xmlns="http://www.w3.org/2000/svg">
<path d="M21.2502 18.4701L19.6002 18.8601C19.2302 18.9501 18.9402 19.2301 18.8602 19.6001L18.5102 21.0701C18.3202 21.8701 17.3002 22.1201 16.7702 21.4901L13.7802 18.0501C13.5402 17.7701 13.6702 17.3301 14.0302 17.2401C15.8002 16.8101 17.3902 15.8201 18.5602 14.4101C18.7502 14.1801 19.0902 14.1501 19.3002 14.3601L21.5202 16.5801C22.2802 17.3401 22.0102 18.2901 21.2502 18.4701Z" fill="#292D32"/>
<path d="M2.69919 18.4701L4.34919 18.8601C4.71919 18.9501 5.00919 19.2301 5.08919 19.6001L5.43919 21.0701C5.62919 21.8701 6.64919 22.1201 7.17919 21.4901L10.1692 18.0501C10.4092 17.7701 10.2792 17.3301 9.91919 17.2401C8.14919 16.8101 6.55919 15.8201 5.38919 14.4101C5.19919 14.1801 4.85919 14.1501 4.64919 14.3601L2.42919 16.5801C1.66919 17.3401 1.93919 18.2901 2.69919 18.4701Z" fill="#292D32"/>
<path d="M12 2C8.13 2 5 5.13 5 9C5 10.45 5.43 11.78 6.17 12.89C7.25 14.49 8.96 15.62 10.95 15.91C11.29 15.97 11.64 16 12 16C12.36 16 12.71 15.97 13.05 15.91C15.04 15.62 16.75 14.49 17.83 12.89C18.57 11.78 19 10.45 19 9C19 5.13 15.87 2 12 2ZM15.06 8.78L14.23 9.61C14.09 9.75 14.01 10.02 14.06 10.22L14.3 11.25C14.49 12.06 14.06 12.38 13.34 11.95L12.34 11.36C12.16 11.25 11.86 11.25 11.68 11.36L10.68 11.95C9.96 12.37 9.53 12.06 9.72 11.25L9.96 10.22C10 10.03 9.93 9.75 9.79 9.61L8.94 8.78C8.45 8.29 8.61 7.8 9.29 7.69L10.36 7.51C10.54 7.48 10.75 7.32 10.83 7.16L11.42 5.98C11.74 5.34 12.26 5.34 12.58 5.98L13.17 7.16C13.25 7.32 13.46 7.48 13.65 7.51L14.72 7.69C15.39 7.8 15.55 8.29 15.06 8.78Z" fill="#292D32"/>
</svg>
