<svg width="24" height="24" viewBox="0 0 24 24" fill="none" xmlns="http://www.w3.org/2000/svg">
<path d="M10.99 2.60172L4.48999 6.42171C3.87999 6.78171 3.5 7.44171 3.5 8.14171V15.8517C3.5 16.5617 3.87999 17.2117 4.48999 17.5717L10.99 21.3917C11.62 21.7617 12.39 21.7617 13.02 21.3917L19.52 17.5717C20.13 17.2117 20.51 16.5517 20.51 15.8517V8.14171C20.51 7.43171 20.13 6.78171 19.52 6.42171L13.02 2.60172C12.39 2.23172 11.61 2.23172 10.99 2.60172Z" stroke="black" stroke-width="1.5" stroke-miterlimit="10" stroke-linecap="round" stroke-linejoin="round"/>
<g opacity="0.4">
<path d="M17 9L12 6L7 9L17 15L12 18L7 15" stroke="black" stroke-width="1.5" stroke-miterlimit="10" stroke-linecap="round" stroke-linejoin="round"/>
<path d="M11.5 10L9.5 12" stroke="black" stroke-width="1.5" stroke-miterlimit="10" stroke-linecap="round" stroke-linejoin="round"/>
<path d="M14.5 12L12.5 14" stroke="black" stroke-width="1.5" stroke-miterlimit="10" stroke-linecap="round" stroke-linejoin="round"/>
</g>
</svg>
