<svg width="24" height="24" viewBox="0 0 24 24" fill="none" xmlns="http://www.w3.org/2000/svg">
<path opacity="0.4" d="M7.56055 7.56032V3.89034C7.56055 3.06034 8.17056 2.37031 8.98056 2.24031C10.9806 1.93031 13.0205 1.93031 15.0205 2.24031C15.8405 2.37031 16.4406 3.07034 16.4406 3.89034V9.78032C16.4406 11.0103 15.4506 12.0003 14.2206 12.0003H9.78055C8.55055 12.0003 7.56055 12.9903 7.56055 14.2203V20.1103C7.56055 20.9403 8.17056 21.6303 8.98056 21.7603C10.9806 22.0703 13.0205 22.0703 15.0205 21.7603C15.8405 21.6303 16.4406 20.9303 16.4406 20.1103V16.4403" stroke="black" stroke-width="1.5" stroke-linecap="round" stroke-linejoin="round"/>
<path d="M16.44 7.55859H20.11C20.94 7.55859 21.63 8.16861 21.76 8.97861C22.07 10.9786 22.07 13.0186 21.76 15.0186C21.63 15.8386 20.93 16.4386 20.11 16.4386H12" stroke="black" stroke-width="1.5" stroke-linecap="round" stroke-linejoin="round"/>
<path d="M12.0005 7.55859H3.88054C3.05054 7.55859 2.36055 8.16861 2.23055 8.97861C1.92055 10.9786 1.92055 13.0186 2.23055 15.0186C2.36055 15.8386 3.06054 16.4386 3.88054 16.4386H7.55052" stroke="black" stroke-width="1.5" stroke-linecap="round" stroke-linejoin="round"/>
<path opacity="0.4" d="M10 4.85156V4.85156" stroke="black" stroke-width="1.5" stroke-linecap="round" stroke-linejoin="round"/>
<path opacity="0.4" d="M14 19.1484V19.1484" stroke="black" stroke-width="1.5" stroke-linecap="round" stroke-linejoin="round"/>
</svg>
