<svg width="24" height="24" viewBox="0 0 24 24" fill="none" xmlns="http://www.w3.org/2000/svg">
<path opacity="0.4" fill-rule="evenodd" clip-rule="evenodd" d="M17.3098 15.3086C17.0198 15.4686 16.7798 15.5386 16.5798 15.5886C16.4098 15.6286 16.2698 15.6686 16.1498 15.7486C16.0198 15.8286 16.0098 15.9586 15.9898 16.0786C15.9698 16.1886 15.9598 16.2786 15.8798 16.3386C15.7898 16.3986 15.6198 16.4086 15.3898 16.4186C15.0898 16.4386 14.7098 16.4486 14.2498 16.5886C14.0298 16.6686 13.8298 16.7886 13.6298 16.9086C13.2298 17.1586 12.7798 17.4286 11.9898 17.4286C11.2098 17.4286 10.7598 17.1586 10.3598 16.9086C10.1598 16.7786 9.95979 16.6586 9.72979 16.5786C9.27979 16.4386 8.88978 16.4186 8.58978 16.4086C8.35978 16.3986 8.19978 16.3886 8.09978 16.3286C8.01978 16.2786 8.00977 16.1786 7.98977 16.0686C7.96977 15.9486 7.95977 15.8186 7.82977 15.7386C7.70977 15.6586 7.55977 15.6186 7.39977 15.5686C7.19977 15.5186 6.95979 15.4586 6.66979 15.2986C6.32979 15.1086 6.52979 14.9986 6.63979 14.9386C8.56979 14.0086 8.86978 12.5686 8.87978 12.4586C8.87978 12.4486 8.87978 12.4486 8.87978 12.4386C8.89978 12.3186 8.90977 12.2186 8.76977 12.0886C8.67977 11.9986 8.36977 11.7986 8.11977 11.6386C8.00977 11.5586 7.90978 11.4986 7.84978 11.4686C7.56978 11.2686 7.44979 11.0786 7.53979 10.8286C7.59979 10.6586 7.75979 10.5986 7.91979 10.5986C7.96979 10.5986 8.02979 10.6086 8.06979 10.6186C8.24979 10.6586 8.42978 10.7286 8.58978 10.7886C8.69978 10.8386 8.78976 10.8686 8.85976 10.8886C8.87976 10.8986 8.90979 10.8986 8.91979 10.8986C9.01979 10.8986 9.04979 10.8486 9.03979 10.7486C9.03979 10.7186 9.03978 10.6886 9.02978 10.6586C9.00978 10.3086 8.97977 9.69861 9.01977 9.13861C9.09977 8.29861 9.36978 7.86861 9.68978 7.50861C9.84978 7.32861 10.5798 6.55859 11.9698 6.55859C13.3598 6.55859 14.0898 7.3286 14.2498 7.4986C14.5698 7.8686 14.8398 8.28861 14.9198 9.13861C14.9698 9.72861 14.9298 10.3586 14.8998 10.7086V10.7386C14.8898 10.8486 14.9198 10.8886 15.0198 10.8886C15.0398 10.8886 15.0598 10.8886 15.0798 10.8786C15.1498 10.8586 15.2398 10.8286 15.3498 10.7886C15.4998 10.7286 15.6798 10.6586 15.8698 10.6186C15.9198 10.5986 15.9698 10.5986 16.0198 10.5986C16.1898 10.5986 16.3398 10.6686 16.3998 10.8386C16.4898 11.0786 16.3698 11.2686 16.0898 11.4686C16.0398 11.5086 15.9398 11.5786 15.8198 11.6386C15.5798 11.7986 15.2598 11.9986 15.1698 12.0886C15.0298 12.2186 15.0398 12.3186 15.0598 12.4386C15.0598 12.4486 15.0598 12.4586 15.0598 12.4586C15.0798 12.5686 15.3798 14.0086 17.2998 14.9386C17.4498 14.9986 17.6498 15.1186 17.3098 15.3086Z" stroke="black" stroke-width="1.5" stroke-miterlimit="10" stroke-linejoin="round"/>
<path d="M12 22C17.5228 22 22 17.5228 22 12C22 6.47715 17.5228 2 12 2C6.47715 2 2 6.47715 2 12C2 17.5228 6.47715 22 12 22Z" stroke="black" stroke-width="1.5" stroke-miterlimit="10" stroke-linejoin="round"/>
</svg>
