<svg width="24" height="24" viewBox="0 0 24 24" fill="none" xmlns="http://www.w3.org/2000/svg">
<path d="M11.7502 9.42999L8.50016 15L7.87016 16.09L5.40016 20.31C5.22016 20.63 4.76016 20.64 4.56016 20.33L1.18016 15.28C1.07016 15.11 1.07016 14.89 1.18016 14.72L4.85017 9.22C4.94017 9.08 5.10015 9 5.27015 9H11.5002L11.7502 9.42999Z" stroke="black" stroke-width="1.5" stroke-miterlimit="10" stroke-linecap="round" stroke-linejoin="round"/>
<path opacity="0.4" d="M8.49954 15H14.1295C14.5195 15 14.7595 14.58 14.5595 14.25L11.7495 9.42999L11.4995 9L8.43954 3.75C8.23954 3.42 8.47954 3 8.86954 3H15.7095C15.8895 3 16.0596 3.09 16.1396 3.25L22.8395 14.73C22.9395 14.9 22.9295 15.1 22.8295 15.26L19.1495 20.78C19.0595 20.92 18.8996 21 18.7296 21H12.2695C12.0995 21 11.9395 20.92 11.8495 20.78L8.70953 16.07L8.26953 15.4L8.49954 15Z" stroke="black" stroke-width="1.5" stroke-miterlimit="10"/>
</svg>
