<svg width="24" height="24" viewBox="0 0 24 24" fill="none" xmlns="http://www.w3.org/2000/svg">
<path opacity="0.4" fill-rule="evenodd" clip-rule="evenodd" d="M6 9.6817V12.4817C6 14.0217 7.25001 15.2617 8.79001 15.2517L12.47 15.2217C12.98 15.2217 13.39 14.8017 13.39 14.3017V11.5317C13.39 10.0017 12.15 8.76172 10.62 8.76172H6.92999C6.40999 8.76172 6 9.1717 6 9.6817Z" stroke="black" stroke-width="1.5" stroke-miterlimit="10"/>
<path opacity="0.4" fill-rule="evenodd" clip-rule="evenodd" d="M18.0005 9.23828V14.7783L15.2305 12.9283V11.0883L18.0005 9.23828Z" stroke="black" stroke-width="1.5" stroke-miterlimit="10" stroke-linecap="round" stroke-linejoin="round"/>
<path d="M12 22C17.5228 22 22 17.5228 22 12C22 6.47715 17.5228 2 12 2C6.47715 2 2 6.47715 2 12C2 17.5228 6.47715 22 12 22Z" stroke="black" stroke-width="1.5" stroke-miterlimit="10"/>
</svg>
