<svg width="24" height="24" viewBox="0 0 24 24" fill="none" xmlns="http://www.w3.org/2000/svg">
<path opacity="0.4" d="M16.8203 1.91016H7.18031C5.06031 1.91016 3.32031 3.65016 3.32031 5.77016V19.8602C3.32031 21.6602 4.61031 22.4202 6.19031 21.5502L11.0703 18.8402C11.5903 18.5502 12.4303 18.5502 12.9403 18.8402L17.8203 21.5502C19.4003 22.4302 20.6903 21.6702 20.6903 19.8602V5.77016C20.6803 3.65016 18.9503 1.91016 16.8203 1.91016Z" fill="#292D32"/>
<path d="M11.0893 13.2514C10.8993 13.2514 10.7093 13.1814 10.5593 13.0314L9.0593 11.5314C8.7693 11.2414 8.7693 10.7614 9.0593 10.4714C9.3493 10.1814 9.8293 10.1814 10.1193 10.4714L11.0893 11.4414L14.5593 7.97141C14.8493 7.68141 15.3293 7.68141 15.6193 7.97141C15.9093 8.26141 15.9093 8.74141 15.6193 9.03141L11.6193 13.0314C11.4693 13.1814 11.2793 13.2514 11.0893 13.2514Z" fill="#292D32"/>
</svg>
