<svg width="24" height="24" viewBox="0 0 24 24" fill="none" xmlns="http://www.w3.org/2000/svg">
<path d="M22 12C22 6.48 17.52 2 12 2C6.48 2 2 6.48 2 12C2 17.52 6.48 22 12 22" stroke="#292D32" stroke-width="1.5" stroke-linecap="round" stroke-linejoin="round"/>
<g opacity="0.4">
<path d="M7.99961 3H8.99961C7.04961 8.84 7.04961 15.16 8.99961 21H7.99961" stroke="#292D32" stroke-width="1.5" stroke-linecap="round" stroke-linejoin="round"/>
<path d="M15 3C15.97 5.92 16.46 8.96 16.46 12" stroke="#292D32" stroke-width="1.5" stroke-linecap="round" stroke-linejoin="round"/>
<path d="M3 16V15C5.92 15.97 8.96 16.46 12 16.46" stroke="#292D32" stroke-width="1.5" stroke-linecap="round" stroke-linejoin="round"/>
<path d="M3 9.00156C8.84 7.05156 15.16 7.05156 21 9.00156" stroke="#292D32" stroke-width="1.5" stroke-linecap="round" stroke-linejoin="round"/>
</g>
<path d="M19.211 15.741L15.671 19.281C15.531 19.421 15.401 19.681 15.371 19.871L15.181 21.221C15.111 21.711 15.451 22.051 15.941 21.981L17.291 21.791C17.481 21.761 17.751 21.631 17.881 21.491L21.421 17.951C22.031 17.341 22.321 16.631 21.421 15.731C20.531 14.841 19.821 15.131 19.211 15.741Z" stroke="#292D32" stroke-width="1.5" stroke-miterlimit="10" stroke-linecap="round" stroke-linejoin="round"/>
<path d="M18.6992 16.25C18.9992 17.33 19.8392 18.17 20.9192 18.47" stroke="#292D32" stroke-width="1.5" stroke-miterlimit="10" stroke-linecap="round" stroke-linejoin="round"/>
</svg>
