<svg width="24" height="24" viewBox="0 0 24 24" fill="none" xmlns="http://www.w3.org/2000/svg">
<path d="M9.18948 17.0114H6.44949C6.01949 17.0114 5.61945 16.7814 5.40945 16.4114C5.19945 16.0414 5.19945 15.5814 5.40945 15.2014L11.0095 5.59138C11.2095 5.24138 11.5795 5.02138 11.9795 4.99138C12.3795 4.96138 12.7695 5.15138 13.0095 5.47138L14.5795 7.56138C15.2095 8.40138 15.2595 9.56138 14.6995 10.4614L11.3595 15.8114C10.8895 16.5614 10.0795 17.0114 9.18948 17.0114ZM6.9595 15.5114H9.17947C9.54947 15.5114 9.8895 15.3214 10.0795 15.0114L13.4195 9.66138C13.6495 9.29138 13.6295 8.81138 13.3695 8.46138L12.0695 6.73138L6.9595 15.5114Z" fill="black"/>
<path d="M17.5502 17.0089H13.7102C13.2802 17.0089 12.8802 16.7789 12.6602 16.3989C12.4502 16.0189 12.4502 15.5589 12.6702 15.1889L14.5902 11.9889C15.0302 11.2589 16.2102 11.2589 16.6502 11.9889L18.5702 15.1889C18.7902 15.5589 18.8002 16.0289 18.5802 16.3989C18.3902 16.7689 17.9802 17.0089 17.5502 17.0089ZM14.2402 15.5089H17.0302L15.6302 13.1789L14.2402 15.5089Z" fill="black"/>
<path d="M12 22.75C6.07 22.75 1.25 17.93 1.25 12C1.25 6.07 6.07 1.25 12 1.25C17.93 1.25 22.75 6.07 22.75 12C22.75 17.93 17.93 22.75 12 22.75ZM12 2.75C6.9 2.75 2.75 6.9 2.75 12C2.75 17.1 6.9 21.25 12 21.25C17.1 21.25 21.25 17.1 21.25 12C21.25 6.9 17.1 2.75 12 2.75Z" fill="black"/>
</svg>
