<svg width="24" height="24" viewBox="0 0 24 24" fill="none" xmlns="http://www.w3.org/2000/svg">
<path d="M13.75 10.5C12.92 10.5 12.25 9.83 12.25 9C12.25 8.17 12.92 7.5 13.75 7.5C14.58 7.5 15.25 8.17 15.25 9C15.25 9.83 14.58 10.5 13.75 10.5ZM13.75 8.5C13.47 8.5 13.25 8.72 13.25 9C13.25 9.28 13.47 9.5 13.75 9.5C14.03 9.5 14.25 9.28 14.25 9C14.25 8.72 14.03 8.5 13.75 8.5Z" fill="black"/>
<path d="M10.25 10.5C9.42 10.5 8.75 9.83 8.75 9C8.75 8.17 9.42 7.5 10.25 7.5C11.08 7.5 11.75 8.17 11.75 9C11.75 9.83 11.08 10.5 10.25 10.5ZM10.25 8.5C9.97 8.5 9.75 8.72 9.75 9C9.75 9.28 9.97 9.5 10.25 9.5C10.53 9.5 10.75 9.28 10.75 9C10.75 8.72 10.53 8.5 10.25 8.5Z" fill="black"/>
<path d="M15.5 13.5C14.67 13.5 14 12.83 14 12C14 11.17 14.67 10.5 15.5 10.5C16.33 10.5 17 11.17 17 12C17 12.83 16.33 13.5 15.5 13.5ZM15.5 11.5C15.22 11.5 15 11.72 15 12C15 12.28 15.22 12.5 15.5 12.5C15.78 12.5 16 12.28 16 12C16 11.72 15.78 11.5 15.5 11.5Z" fill="black"/>
<path d="M17.1504 10.25C16.4604 10.25 15.9004 9.69 15.9004 9C15.9004 8.31 16.4604 7.75 17.1504 7.75C17.8404 7.75 18.4004 8.31 18.4004 9C18.4004 9.69 17.8404 10.25 17.1504 10.25ZM17.1504 8.75C17.0104 8.75 16.9004 8.86 16.9004 9C16.9004 9.28 17.4004 9.28 17.4004 9C17.4004 8.86 17.2904 8.75 17.1504 8.75Z" fill="black"/>
<path d="M17.1504 16.25C16.4604 16.25 15.9004 15.69 15.9004 15C15.9004 14.31 16.4604 13.75 17.1504 13.75C17.8404 13.75 18.4004 14.31 18.4004 15C18.4004 15.69 17.8404 16.25 17.1504 16.25ZM17.1504 14.75C17.0104 14.75 16.9004 14.86 16.9004 15C16.9004 15.28 17.4004 15.28 17.4004 15C17.4004 14.86 17.2904 14.75 17.1504 14.75Z" fill="black"/>
<path d="M19.75 13.25C19.06 13.25 18.5 12.69 18.5 12C18.5 11.31 19.06 10.75 19.75 10.75C20.44 10.75 21 11.31 21 12C21 12.69 20.44 13.25 19.75 13.25ZM19.75 11.75C19.61 11.75 19.5 11.86 19.5 12C19.5 12.28 20 12.28 20 12C20 11.86 19.89 11.75 19.75 11.75Z" fill="black"/>
<path d="M6.80078 10.25C6.11078 10.25 5.55078 9.69 5.55078 9C5.55078 8.31 6.11078 7.75 6.80078 7.75C7.49078 7.75 8.05078 8.31 8.05078 9C8.05078 9.69 7.49078 10.25 6.80078 10.25ZM6.80078 8.75C6.66078 8.75 6.55078 8.86 6.55078 9C6.55078 9.28 7.05078 9.28 7.05078 9C7.05078 8.86 6.94078 8.75 6.80078 8.75Z" fill="black"/>
<path d="M6.80078 16.25C6.11078 16.25 5.55078 15.69 5.55078 15C5.55078 14.31 6.11078 13.75 6.80078 13.75C7.49078 13.75 8.05078 14.31 8.05078 15C8.05078 15.69 7.49078 16.25 6.80078 16.25ZM6.80078 14.75C6.66078 14.75 6.55078 14.86 6.55078 15C6.55078 15.28 7.05078 15.28 7.05078 15C7.05078 14.86 6.94078 14.75 6.80078 14.75Z" fill="black"/>
<path d="M4.19922 13.25C3.50922 13.25 2.94922 12.69 2.94922 12C2.94922 11.31 3.50922 10.75 4.19922 10.75C4.88922 10.75 5.44922 11.31 5.44922 12C5.44922 12.69 4.88922 13.25 4.19922 13.25ZM4.19922 11.75C4.05922 11.75 3.94922 11.86 3.94922 12C3.94922 12.28 4.44922 12.28 4.44922 12C4.44922 11.86 4.33922 11.75 4.19922 11.75Z" fill="black"/>
<path d="M15.9004 6.44922C15.2104 6.44922 14.6504 5.88922 14.6504 5.19922C14.6504 4.50922 15.2104 3.94922 15.9004 3.94922C16.5904 3.94922 17.1504 4.50922 17.1504 5.19922C17.1504 5.88922 16.5904 6.44922 15.9004 6.44922ZM15.9004 4.94922C15.7604 4.94922 15.6504 5.05922 15.6504 5.19922C15.6504 5.47922 16.1504 5.47922 16.1504 5.19922C16.1504 5.05922 16.0404 4.94922 15.9004 4.94922Z" fill="black"/>
<path d="M8.09961 6.44922C7.40961 6.44922 6.84961 5.88922 6.84961 5.19922C6.84961 4.50922 7.40961 3.94922 8.09961 3.94922C8.78961 3.94922 9.34961 4.50922 9.34961 5.19922C9.34961 5.88922 8.78961 6.44922 8.09961 6.44922ZM8.09961 4.94922C7.95961 4.94922 7.84961 5.05922 7.84961 5.19922C7.84961 5.47922 8.34961 5.47922 8.34961 5.19922C8.34961 5.05922 8.23961 4.94922 8.09961 4.94922Z" fill="black"/>
<path d="M12.0508 7.25C11.3608 7.25 10.8008 6.69 10.8008 6C10.8008 5.31 11.3608 4.75 12.0508 4.75C12.7408 4.75 13.3008 5.31 13.3008 6C13.3008 6.69 12.7408 7.25 12.0508 7.25ZM12.0508 5.75C11.9108 5.75 11.8008 5.86 11.8008 6C11.8008 6.28 12.3008 6.28 12.3008 6C12.3008 5.86 12.1908 5.75 12.0508 5.75Z" fill="black"/>
<path d="M15.9004 20.25C15.2104 20.25 14.6504 19.69 14.6504 19C14.6504 18.31 15.2104 17.75 15.9004 17.75C16.5904 17.75 17.1504 18.31 17.1504 19C17.1504 19.69 16.5904 20.25 15.9004 20.25ZM15.9004 18.75C15.7604 18.75 15.6504 18.86 15.6504 19C15.6504 19.28 16.1504 19.28 16.1504 19C16.1504 18.86 16.0404 18.75 15.9004 18.75Z" fill="black"/>
<path d="M8.09961 20.25C7.40961 20.25 6.84961 19.69 6.84961 19C6.84961 18.31 7.40961 17.75 8.09961 17.75C8.78961 17.75 9.34961 18.31 9.34961 19C9.34961 19.69 8.78961 20.25 8.09961 20.25ZM8.09961 18.75C7.95961 18.75 7.84961 18.86 7.84961 19C7.84961 19.28 8.34961 19.28 8.34961 19C8.34961 18.86 8.23961 18.75 8.09961 18.75Z" fill="black"/>
<path d="M12.0508 19.4492C11.3608 19.4492 10.8008 18.8892 10.8008 18.1992C10.8008 17.5092 11.3608 16.9492 12.0508 16.9492C12.7408 16.9492 13.3008 17.5092 13.3008 18.1992C13.3008 18.8892 12.7408 19.4492 12.0508 19.4492ZM12.0508 17.9492C11.9108 17.9492 11.8008 18.0592 11.8008 18.1992C11.8008 18.4792 12.3008 18.4792 12.3008 18.1992C12.3008 18.0592 12.1908 17.9492 12.0508 17.9492Z" fill="black"/>
<path d="M8.5 13.5C7.67 13.5 7 12.83 7 12C7 11.17 7.67 10.5 8.5 10.5C9.33 10.5 10 11.17 10 12C10 12.83 9.33 13.5 8.5 13.5ZM8.5 11.5C8.22 11.5 8 11.72 8 12C8 12.28 8.22 12.5 8.5 12.5C8.78 12.5 9 12.28 9 12C9 11.72 8.78 11.5 8.5 11.5Z" fill="black"/>
<path d="M10.25 16.5C9.42 16.5 8.75 15.83 8.75 15C8.75 14.17 9.42 13.5 10.25 13.5C11.08 13.5 11.75 14.17 11.75 15C11.75 15.83 11.08 16.5 10.25 16.5ZM10.25 14.5C9.97 14.5 9.75 14.72 9.75 15C9.75 15.28 9.97 15.5 10.25 15.5C10.53 15.5 10.75 15.28 10.75 15C10.75 14.72 10.53 14.5 10.25 14.5Z" fill="black"/>
<path d="M13.75 16.5C12.92 16.5 12.25 15.83 12.25 15C12.25 14.17 12.92 13.5 13.75 13.5C14.58 13.5 15.25 14.17 15.25 15C15.25 15.83 14.58 16.5 13.75 16.5ZM13.75 14.5C13.47 14.5 13.25 14.72 13.25 15C13.25 15.28 13.47 15.5 13.75 15.5C14.03 15.5 14.25 15.28 14.25 15C14.25 14.72 14.03 14.5 13.75 14.5Z" fill="black"/>
<path d="M12.0002 3.44922C11.4402 3.44922 10.9902 2.99922 10.9902 2.44922C10.9902 1.89922 11.4402 1.44922 11.9902 1.44922C12.5402 1.44922 12.9902 1.89922 12.9902 2.44922C12.9902 2.99922 12.5602 3.44922 12.0002 3.44922Z" fill="black"/>
<path d="M17.2502 3.60156C16.8302 3.60156 16.4902 3.26156 16.4902 2.85156C16.4902 2.44156 16.8302 2.10156 17.2402 2.10156C17.6502 2.10156 18.0002 2.44156 18.0002 2.85156C18.0002 3.26156 17.6702 3.60156 17.2502 3.60156Z" fill="black"/>
<path d="M6.75 3.60156C6.34 3.60156 6 3.26156 6 2.85156C6 2.44156 6.33 2.10156 6.75 2.10156H6.76001C7.17001 2.10156 7.51001 2.44156 7.51001 2.85156C7.51001 3.26156 7.17 3.60156 6.75 3.60156Z" fill="black"/>
<path d="M12.0002 22.5C11.4402 22.5 10.9902 22.05 10.9902 21.5C10.9902 20.95 11.4402 20.5 11.9902 20.5C12.5402 20.5 12.9902 20.95 12.9902 21.5C12.9902 22.05 12.5602 22.5 12.0002 22.5Z" fill="black"/>
<path d="M17.2502 21.8516C16.8302 21.8516 16.4902 21.5116 16.4902 21.1016C16.4902 20.6916 16.8302 20.3516 17.2402 20.3516C17.6502 20.3516 18.0002 20.6916 18.0002 21.1016C18.0002 21.5116 17.6702 21.8516 17.2502 21.8516Z" fill="black"/>
<path d="M6.75 21.8516C6.34 21.8516 6 21.5116 6 21.1016C6 20.6916 6.33 20.3516 6.75 20.3516H6.76001C7.17001 20.3516 7.51001 20.6916 7.51001 21.1016C7.51001 21.5116 7.17 21.8516 6.75 21.8516Z" fill="black"/>
<path d="M1.55078 13C1.00078 13 0.550781 12.56 0.550781 12C0.550781 11.45 1.00078 11 1.55078 11C2.10078 11 2.55078 11.45 2.55078 12C2.55078 12.55 2.10078 13 1.55078 13Z" fill="black"/>
<path d="M3.75 17.7483C3.34 17.7483 3 17.4183 3 16.9983V16.9883C3 16.5783 3.34 16.2383 3.75 16.2383C4.16 16.2383 4.5 16.5783 4.5 16.9883C4.5 17.3983 4.16 17.7483 3.75 17.7483Z" fill="black"/>
<path d="M3.75 7.76172C3.34 7.76172 3 7.42172 3 7.01172C3 6.60172 3.34 6.26172 3.75 6.26172C4.16 6.26172 4.5 6.59172 4.5 7.00172V7.01172C4.5 7.42172 4.16 7.76172 3.75 7.76172Z" fill="black"/>
<path d="M22.5 13C21.95 13 21.5 12.56 21.5 12C21.5 11.45 21.95 11 22.5 11C23.05 11 23.5 11.45 23.5 12C23.5 12.55 23.05 13 22.5 13Z" fill="black"/>
<path d="M20.3008 17.7483C19.8908 17.7483 19.5508 17.4183 19.5508 16.9983V16.9883C19.5508 16.5783 19.8908 16.2383 20.3008 16.2383C20.7108 16.2383 21.0508 16.5783 21.0508 16.9883C21.0508 17.3983 20.7108 17.7483 20.3008 17.7483Z" fill="black"/>
<path d="M20.3008 7.76172C19.8908 7.76172 19.5508 7.42172 19.5508 7.01172C19.5508 6.60172 19.8908 6.26172 20.3008 6.26172C20.7108 6.26172 21.0508 6.59172 21.0508 7.01172V7.02172C21.0508 7.42172 20.7108 7.76172 20.3008 7.76172Z" fill="black"/>
</svg>
