<svg width="24" height="24" viewBox="0 0 24 24" fill="none" xmlns="http://www.w3.org/2000/svg">
<path d="M13.5003 21.25H3.94032C3.71032 21.25 3.49032 21.14 3.35032 20.96C3.21032 20.78 3.16032 20.54 3.21032 20.32L4.27032 16.07C4.35032 15.74 4.65032 15.5 5.00032 15.5H12.4403C15.3403 15.5 17.0003 13.84 17.0003 10.94V10.75C17.0003 9.15 16.3503 8.5 14.7503 8.5H6.06032C5.83032 8.5 5.61032 8.39001 5.47032 8.21001C5.33032 8.03001 5.28032 7.79001 5.33032 7.57001L6.39032 3.32001C6.47032 2.99001 6.77032 2.75 7.12032 2.75H16.0003C20.1603 2.75 22.7503 5.34 22.7503 9.5V12C22.7503 17.71 19.2103 21.25 13.5003 21.25ZM4.90032 19.75H13.5003C18.3503 19.75 21.2503 16.85 21.2503 12V9.5C21.2503 6.16 19.3403 4.25 16.0003 4.25H7.71032L7.02032 7H14.7503C17.1703 7 18.5003 8.33 18.5003 10.75V10.94C18.5003 14.68 16.1803 17 12.4403 17H5.59032L4.90032 19.75Z" fill="black"/>
<path d="M9.19086 14.2517H2.00086C1.77086 14.2517 1.55086 14.1417 1.41086 13.9617C1.27086 13.7817 1.22086 13.5417 1.27086 13.3217L1.64086 11.8417C1.95086 10.6117 3.04086 9.76172 4.31086 9.76172H11.5009C11.7309 9.76172 11.9509 9.87173 12.0909 10.0517C12.2309 10.2317 12.2809 10.4717 12.2309 10.6917L11.8609 12.1717C11.5509 13.3917 10.4509 14.2517 9.19086 14.2517ZM2.96086 12.7517H9.19086C9.76086 12.7517 10.2609 12.3617 10.4009 11.8017L10.5409 11.2517H4.31086C3.74086 11.2517 3.24086 11.6417 3.10086 12.2017L2.96086 12.7517Z" fill="black"/>
</svg>
