<svg width="24" height="24" viewBox="0 0 24 24" fill="none" xmlns="http://www.w3.org/2000/svg">
<path d="M13.25 12.72V5.74001C13.25 3.26001 15.26 1.25 17.74 1.25H18.26C20.74 1.25 22.75 3.26001 22.75 5.74001C22.75 7.73001 21.77 9.54001 20.12 10.57C18.37 11.67 16.34 12.36 14.09 12.62L13.25 12.72ZM17.74 2.75C16.09 2.75 14.75 4.09001 14.75 5.74001V11.01C16.45 10.72 17.98 10.14 19.32 9.3C20.51 8.55 21.25 7.19001 21.25 5.74001C21.25 4.09001 19.91 2.75 18.26 2.75H17.74Z" fill="black"/>
<path d="M18.26 22.7495H17.74C15.26 22.7495 13.25 20.7395 13.25 18.2595V11.2095L13.91 11.1295C19.07 10.5295 21.38 7.56952 21.4 7.53952L22.75 5.76953V18.2495C22.75 20.7395 20.74 22.7495 18.26 22.7495ZM14.75 12.5295V18.2595C14.75 19.9095 16.09 21.2495 17.74 21.2495H18.26C19.91 21.2495 21.25 19.9095 21.25 18.2595V9.77953C20.01 10.7695 17.89 12.0395 14.75 12.5295Z" fill="black"/>
<path d="M6.26001 22.7513H5.73999C3.25999 22.7513 1.25 20.7412 1.25 18.2612C1.25 16.2712 2.23 14.4612 3.88 13.4312C5.63 12.3312 7.65997 11.6413 9.90997 11.3813L10.75 11.2812V18.2612C10.75 20.7412 8.74001 22.7513 6.26001 22.7513ZM9.25 12.9913C7.55 13.2813 6.01999 13.8612 4.67999 14.7012C3.48999 15.4512 2.75 16.8112 2.75 18.2612C2.75 19.9112 4.08999 21.2513 5.73999 21.2513H6.26001C7.91001 21.2513 9.25 19.9112 9.25 18.2612V12.9913Z" fill="black"/>
<path d="M1.25 18.22V5.74001C1.25 3.26001 3.25999 1.25 5.73999 1.25H6.26001C8.74001 1.25 10.75 3.26001 10.75 5.74001V12.79L10.09 12.87C4.93003 13.47 2.61998 16.43 2.59998 16.46L1.25 18.22ZM5.73999 2.75C4.08999 2.75 2.75 4.09001 2.75 5.74001V14.22C3.99 13.23 6.11 11.95 9.25 11.46V5.73C9.25 4.08 7.91001 2.74001 6.26001 2.74001H5.73999V2.75Z" fill="black"/>
<path d="M10.0697 12.8506L9.92969 11.3606C11.4097 11.2206 12.7097 11.3006 13.9097 11.1406L14.0997 12.6306C12.8697 12.7806 11.5797 12.7006 10.0697 12.8506Z" fill="black"/>
</svg>
