<svg width="24" height="24" viewBox="0 0 24 24" fill="none" xmlns="http://www.w3.org/2000/svg">
<path d="M11.7005 22.7493C11.6005 22.7493 11.5105 22.7493 11.4105 22.7493C5.93046 22.5993 1.48047 17.8793 1.48047 12.2393V5.2093C1.48047 4.6993 1.78046 4.24929 2.25046 4.05929C2.72046 3.86929 3.25044 3.96929 3.61044 4.32929L18.4405 19.1593C18.5905 19.3093 18.6705 19.5093 18.6605 19.7193C18.6505 19.9293 18.5605 20.1193 18.4005 20.2593C16.5405 21.8693 14.1705 22.7493 11.7005 22.7493ZM2.98047 5.80929V12.2393C2.98047 17.0793 6.78047 21.1193 11.4505 21.2493C13.3805 21.2893 15.2505 20.7293 16.7805 19.6193L2.98047 5.80929Z" fill="black"/>
<path d="M21.2696 19.901C20.9496 19.901 20.6296 19.7711 20.3896 19.5311L5.68959 4.83106C5.53959 4.68106 5.45959 4.48106 5.46959 4.27106C5.47959 4.06106 5.5696 3.87105 5.7296 3.73105C7.6396 2.06105 10.1096 1.17106 12.6696 1.25106C18.0996 1.40106 22.5196 6.08105 22.5196 11.681V18.6411C22.5196 19.1511 22.2196 19.601 21.7496 19.791C21.5996 19.861 21.4396 19.901 21.2696 19.901ZM7.34959 4.37105L21.0296 18.0511V11.6911C21.0296 6.90106 17.2596 2.89105 12.6296 2.76105C10.7196 2.72105 8.86959 3.27105 7.34959 4.37105Z" fill="black"/>
</svg>
