<svg width="24" height="24" viewBox="0 0 24 24" fill="none" xmlns="http://www.w3.org/2000/svg">
<path d="M16.5 11.25H7.5C7.09 11.25 6.75 10.91 6.75 10.5C6.75 10.09 7.09 9.75 7.5 9.75H16.5C16.91 9.75 17.25 10.09 17.25 10.5C17.25 10.91 16.91 11.25 16.5 11.25Z" fill="black"/>
<path d="M11.8203 11.2483C11.5803 11.2483 11.3503 11.1383 11.2103 10.9283L8.3903 6.92833C8.1503 6.58833 8.23029 6.11834 8.57029 5.88834C8.91029 5.64834 9.38027 5.72835 9.61027 6.06835L12.4303 10.0683C12.6703 10.4083 12.5903 10.8783 12.2503 11.1083C12.1203 11.2083 11.9703 11.2483 11.8203 11.2483Z" fill="black"/>
<path d="M12.0003 11.2483C11.8503 11.2483 11.7003 11.2083 11.5703 11.1083C11.2303 10.8683 11.1503 10.3983 11.3903 10.0683L14.2103 6.06835C14.4503 5.72835 14.9203 5.64834 15.2503 5.88834C15.5903 6.12834 15.6703 6.59833 15.4303 6.92833L12.6103 10.9283C12.4703 11.1383 12.2303 11.2483 12.0003 11.2483Z" fill="black"/>
<path d="M16.5 14.25H7.5C7.09 14.25 6.75 13.91 6.75 13.5C6.75 13.09 7.09 12.75 7.5 12.75H16.5C16.91 12.75 17.25 13.09 17.25 13.5C17.25 13.91 16.91 14.25 16.5 14.25Z" fill="black"/>
<path d="M9.00028 18.2483C8.85028 18.2483 8.70029 18.2083 8.57029 18.1083C8.23029 17.8683 8.1503 17.3983 8.3903 17.0683L11.2103 13.0683C11.4503 12.7283 11.9203 12.6483 12.2503 12.8883C12.5903 13.1283 12.6703 13.5983 12.4303 13.9283L9.61027 17.9283C9.47027 18.1383 9.23028 18.2483 9.00028 18.2483Z" fill="black"/>
<path d="M14.8203 18.2483C14.5803 18.2483 14.3503 18.1383 14.2103 17.9283L11.3903 13.9283C11.1503 13.5883 11.2303 13.1183 11.5703 12.8883C11.9103 12.6483 12.3803 12.7283 12.6103 13.0683L15.4303 17.0683C15.6703 17.4083 15.5903 17.8783 15.2503 18.1083C15.1203 18.2083 14.9703 18.2483 14.8203 18.2483Z" fill="black"/>
<path d="M12 22.75C6.07 22.75 1.25 17.93 1.25 12C1.25 6.07 6.07 1.25 12 1.25C17.93 1.25 22.75 6.07 22.75 12C22.75 17.93 17.93 22.75 12 22.75ZM12 2.75C6.9 2.75 2.75 6.9 2.75 12C2.75 17.1 6.9 21.25 12 21.25C17.1 21.25 21.25 17.1 21.25 12C21.25 6.9 17.1 2.75 12 2.75Z" fill="black"/>
</svg>
