<svg width="24" height="24" viewBox="0 0 24 24" fill="none" xmlns="http://www.w3.org/2000/svg">
<path d="M4.03998 14.94C3.70998 14.94 3.41001 14.72 3.32001 14.39C3.11001 13.61 3 12.81 3 12C3 7.04 7.04 3 12 3C13.69 3 15.33 3.47 16.75 4.36C17.1 4.58 17.21 5.04 16.99 5.39C16.77 5.74 16.31 5.85 15.96 5.63C14.77 4.89 13.4 4.5 12 4.5C7.86 4.5 4.5 7.86 4.5 12C4.5 12.68 4.59002 13.35 4.77002 13.99C4.88002 14.39 4.63999 14.8 4.23999 14.91C4.17999 14.93 4.10998 14.94 4.03998 14.94Z" fill="black"/>
<path d="M12.0008 20.9986C10.3008 20.9986 8.65076 20.5186 7.22076 19.6286C6.87076 19.4086 6.76077 18.9486 6.98077 18.5986C7.20077 18.2486 7.6608 18.1386 8.0108 18.3586C9.2008 19.1086 10.5808 19.4986 11.9908 19.4986C16.1308 19.4986 19.4908 16.1386 19.4908 11.9986C19.4908 11.2686 19.3808 10.5386 19.1808 9.84861C19.0608 9.44861 19.2908 9.03861 19.6808 8.91861C20.0808 8.79861 20.4908 9.02861 20.6108 9.41861C20.8608 10.2486 20.9908 11.1186 20.9908 11.9986C21.0008 16.9586 16.9608 20.9986 12.0008 20.9986Z" fill="black"/>
<path d="M1.99965 16.7497C1.73965 16.7497 1.47968 16.6097 1.33968 16.3597C1.13968 15.9997 1.26967 15.5397 1.63967 15.3397L21.6397 4.33968C21.9997 4.13968 22.4596 4.26968 22.6596 4.63968C22.8596 4.99968 22.7296 5.45968 22.3596 5.65968L2.35964 16.6597C2.24964 16.7197 2.11965 16.7497 1.99965 16.7497Z" fill="black"/>
<path d="M1.99965 20.2497C1.73965 20.2497 1.47968 20.1097 1.33968 19.8597C1.13968 19.4997 1.26967 19.0397 1.63967 18.8397L21.6397 7.83968C21.9997 7.63968 22.4596 7.76968 22.6596 8.13968C22.8596 8.49968 22.7296 8.95968 22.3596 9.15968L2.35964 20.1597C2.24964 20.2197 2.11965 20.2497 1.99965 20.2497Z" fill="black"/>
</svg>
