<svg width="24" height="24" viewBox="0 0 24 24" fill="none" xmlns="http://www.w3.org/2000/svg">
<path d="M22.53 21.47L21.79 20.73C22.17 20.15 22.4 19.45 22.4 18.7C22.4 16.66 20.74 15 18.7 15C16.66 15 15 16.66 15 18.7C15 20.74 16.66 22.4 18.7 22.4C19.45 22.4 20.15 22.17 20.73 21.79L21.47 22.53C21.62 22.68 21.81 22.75 22 22.75C22.19 22.75 22.38 22.68 22.53 22.53C22.82 22.24 22.82 21.76 22.53 21.47Z" fill="#292D32"/>
<path opacity="0.4" d="M2 12.9717V6.99172C2 4.24172 4.24 2.01172 7 2.01172H17C19.76 2.01172 22 4.24172 22 7.00172V13.9817C22 16.7317 19.76 18.9617 17 18.9617H15.5C15.19 18.9617 14.89 19.1117 14.7 19.3617L13.2 21.3517C12.54 22.2317 11.46 22.2317 10.8 21.3517L9.29999 19.3617C9.12999 19.1417 8.78 18.9617 8.5 18.9617H7C4.24 18.9617 2 16.7317 2 13.9817V12.9717Z" fill="#292D32"/>
<path d="M11.9983 12C11.4383 12 10.9883 11.55 10.9883 11C10.9883 10.45 11.4383 10 11.9883 10C12.5383 10 12.9883 10.45 12.9883 11C12.9883 11.55 12.5583 12 11.9983 12Z" fill="#292D32"/>
<path d="M15.9983 12C15.4383 12 14.9883 11.55 14.9883 11C14.9883 10.45 15.4383 10 15.9883 10C16.5383 10 16.9883 10.45 16.9883 11C16.9883 11.55 16.5583 12 15.9983 12Z" fill="#292D32"/>
<path d="M7.99829 12C7.43829 12 6.98828 11.55 6.98828 11C6.98828 10.45 7.43828 10 7.98828 10C8.53828 10 8.98828 10.45 8.98828 11C8.98828 11.55 8.55829 12 7.99829 12Z" fill="#292D32"/>
</svg>
