<svg width="24" height="24" viewBox="0 0 24 24" fill="none" xmlns="http://www.w3.org/2000/svg">
<path d="M18.28 9.76178V12.9018C18.28 13.1018 18.27 13.3018 18.25 13.4918C18.07 15.6118 16.82 16.6718 14.52 16.6718H14.21C14.01 16.6718 13.82 16.7618 13.71 16.9218L12.77 18.1818C12.35 18.7418 11.68 18.7418 11.26 18.1818L10.32 16.9218C10.22 16.7918 9.99001 16.6718 9.82001 16.6718H9.51001C7.00001 16.6718 5.75 16.0518 5.75 12.9118V9.77176C5.75 7.47176 6.80999 6.22178 8.92999 6.04178C9.11999 6.02178 9.31999 6.01178 9.51999 6.01178H14.55C17.02 6.00178 18.28 7.26178 18.28 9.76178Z" fill="#292D32"/>
<path opacity="0.4" d="M16.1917 2H7.82172C4.18172 2 2.01172 4.17 2.01172 7.81V16.18C2.01172 19.82 4.18172 21.99 7.82172 21.99H16.1917C19.8317 21.99 22.0017 19.82 22.0017 16.18V7.81C22.0017 4.17 19.8317 2 16.1917 2Z" fill="#292D32"/>
</svg>
