<svg width="24" height="24" viewBox="0 0 24 24" fill="none" xmlns="http://www.w3.org/2000/svg">
<path opacity="0.4" d="M17 20.5H7C4 20.5 2 19 2 15.5V8.5C2 5 4 3.5 7 3.5H17C20 3.5 22 5 22 8.5V15.5C22 19 20 20.5 17 20.5Z" fill="#292D32"/>
<path fill-rule="evenodd" clip-rule="evenodd" d="M17.586 8.53196C17.8445 8.85561 17.7917 9.32754 17.4681 9.58605L14.3372 12.0868C13.0338 13.1244 10.9563 13.1244 9.65289 12.0868L9.65104 12.0853L6.53105 9.58531C6.2078 9.3263 6.15573 8.85429 6.41474 8.53105C6.67375 8.2078 7.14576 8.15573 7.46901 8.41474L10.588 10.914C11.3446 11.5155 12.6462 11.5154 13.4025 10.9135C13.4027 10.9135 13.4024 10.9136 13.4025 10.9135L16.532 8.41401C16.8556 8.15551 17.3275 8.20832 17.586 8.53196Z" fill="#292D32"/>
<path d="M22.6589 21.47L21.9189 20.73C22.2989 20.15 22.5289 19.45 22.5289 18.7C22.5289 16.66 20.8689 15 18.8289 15C16.7889 15 15.1289 16.66 15.1289 18.7C15.1289 20.74 16.7889 22.4 18.8289 22.4C19.5789 22.4 20.2789 22.17 20.8589 21.79L21.5989 22.53C21.7489 22.68 21.9389 22.75 22.1289 22.75C22.3189 22.75 22.5089 22.68 22.6589 22.53C22.9489 22.24 22.9489 21.76 22.6589 21.47Z" fill="#292D32"/>
</svg>
