<svg width="24" height="24" viewBox="0 0 24 24" fill="none" xmlns="http://www.w3.org/2000/svg">
<path d="M4.47 11.4197L2.73 9.67969L1 11.4197" stroke="#292D32" stroke-width="1.5" stroke-linecap="round" stroke-linejoin="round"/>
<path d="M19.5293 12.5781L21.2693 14.3181L23.0093 12.5781" stroke="#292D32" stroke-width="1.5" stroke-linecap="round" stroke-linejoin="round"/>
<path d="M21.2595 14.3183V11.9983C21.2595 6.87829 17.1095 2.73828 11.9995 2.73828C9.07953 2.73828 6.46953 4.09831 4.76953 6.20831" stroke="#292D32" stroke-width="1.5" stroke-linecap="round" stroke-linejoin="round"/>
<path d="M2.74023 9.67969V11.9997C2.74023 17.1197 6.89024 21.2597 12.0002 21.2597C14.9202 21.2597 17.5302 19.8997 19.2302 17.7897" stroke="#292D32" stroke-width="1.5" stroke-linecap="round" stroke-linejoin="round"/>
<g opacity="0.4">
<path d="M9 8.5H13.38C14.35 8.5 15.13 9.38 15.13 10.25C15.13 11.22 14.35 12 13.38 12H9V8.5Z" stroke="#292D32" stroke-width="1.5" stroke-miterlimit="10" stroke-linecap="round" stroke-linejoin="round"/>
<path d="M9 12H14C15.1 12 16 12.78 16 13.75C16 14.72 15.1 15.5 14 15.5H9V12Z" stroke="#292D32" stroke-width="1.5" stroke-miterlimit="10" stroke-linecap="round" stroke-linejoin="round"/>
<path d="M11.8008 15.5V17.25" stroke="#292D32" stroke-width="1.5" stroke-miterlimit="10" stroke-linecap="round" stroke-linejoin="round"/>
<path d="M11.8008 6.75V8.5" stroke="#292D32" stroke-width="1.5" stroke-miterlimit="10" stroke-linecap="round" stroke-linejoin="round"/>
</g>
</svg>
