<svg width="24" height="24" viewBox="0 0 24 24" fill="none" xmlns="http://www.w3.org/2000/svg">
<path d="M22 9.75C21.59 9.75 21.25 9.41 21.25 9V7C21.25 4.42 19.58 2.75 17 2.75H7C4.42 2.75 2.75 4.42 2.75 7V9C2.75 9.41 2.41 9.75 2 9.75C1.59 9.75 1.25 9.41 1.25 9V7C1.25 3.56 3.56 1.25 7 1.25H17C20.44 1.25 22.75 3.56 22.75 7V9C22.75 9.41 22.41 9.75 22 9.75Z" fill="#292D32"/>
<path d="M17 22.75H7C3.56 22.75 1.25 20.44 1.25 17V15C1.25 14.59 1.59 14.25 2 14.25C2.41 14.25 2.75 14.59 2.75 15V17C2.75 19.58 4.42 21.25 7 21.25H17C19.58 21.25 21.25 19.58 21.25 17V15C21.25 14.59 21.59 14.25 22 14.25C22.41 14.25 22.75 14.59 22.75 15V17C22.75 20.44 20.44 22.75 17 22.75Z" fill="#292D32"/>
<path d="M11.9986 13.079C11.8686 13.079 11.7386 13.0489 11.6186 12.9789L6.31865 9.91894C5.95865 9.70894 5.83864 9.24897 6.04864 8.88897C6.25864 8.52897 6.71865 8.40895 7.06865 8.61895L11.9886 11.4689L16.8786 8.63897C17.2386 8.42897 17.6986 8.55893 17.8986 8.90893C18.1086 9.26893 17.9786 9.72896 17.6286 9.93896L12.3686 12.9789C12.2586 13.0389 12.1286 13.079 11.9986 13.079Z" fill="#292D32"/>
<path d="M12 18.5181C11.59 18.5181 11.25 18.1781 11.25 17.7681V12.3281C11.25 11.9181 11.59 11.5781 12 11.5781C12.41 11.5781 12.75 11.9181 12.75 12.3281V17.7681C12.75 18.1781 12.41 18.5181 12 18.5181Z" fill="#292D32"/>
<path d="M12.0022 18.7508C11.4222 18.7508 10.8522 18.6208 10.3922 18.3708L7.19218 16.5908C6.23218 16.0608 5.49219 14.7908 5.49219 13.6908V10.3008C5.49219 9.21077 6.24218 7.94081 7.19218 7.40081L10.3922 5.62078C11.3122 5.11078 12.6922 5.11078 13.6122 5.62078L16.8122 7.40081C17.7722 7.93081 18.5122 9.20077 18.5122 10.3008V13.6908C18.5122 14.7808 17.7622 16.0508 16.8122 16.5908L13.6122 18.3708C13.1522 18.6208 12.5822 18.7508 12.0022 18.7508ZM11.1222 6.94079L7.92218 8.72076C7.43218 8.99076 6.99219 9.75077 6.99219 10.3008V13.6908C6.99219 14.2508 7.43218 15.0008 7.92218 15.2708L11.1222 17.0508C11.5822 17.3008 12.4222 17.3008 12.8822 17.0508L16.0822 15.2708C16.5722 15.0008 17.0122 14.2408 17.0122 13.6908V10.3008C17.0122 9.74077 16.5722 8.99076 16.0822 8.72076L12.8822 6.94079C12.4222 6.69079 11.5822 6.69079 11.1222 6.94079Z" fill="#292D32"/>
</svg>
