<svg width="24" height="24" viewBox="0 0 24 24" fill="none" xmlns="http://www.w3.org/2000/svg">
<path d="M12.0013 13.3008C11.8713 13.3008 11.7413 13.2709 11.6213 13.2009L2.79132 8.09088C2.43132 7.88088 2.3113 7.42085 2.5213 7.06085C2.7313 6.70085 3.1813 6.58083 3.5513 6.79083L12.0013 11.6808L20.4013 6.82086C20.7613 6.61086 21.2213 6.74088 21.4313 7.09088C21.6413 7.45088 21.5113 7.91085 21.1613 8.12085L12.3913 13.2009C12.2613 13.2609 12.1313 13.3008 12.0013 13.3008Z" fill="#292D32"/>
<path d="M12 22.3591C11.59 22.3591 11.25 22.0191 11.25 21.6091V12.5391C11.25 12.1291 11.59 11.7891 12 11.7891C12.41 11.7891 12.75 12.1291 12.75 12.5391V21.6091C12.75 22.0191 12.41 22.3591 12 22.3591Z" fill="#292D32"/>
<path d="M11.9989 22.7483C11.1189 22.7483 10.2389 22.5583 9.5589 22.1683L4.2189 19.2083C2.7689 18.4083 1.62891 16.4783 1.62891 14.8183V9.15826C1.62891 7.49826 2.7689 5.5783 4.2189 4.7683L9.5589 1.80828C10.9189 1.04828 13.0589 1.04828 14.4289 1.80828L19.7689 4.7683C21.2189 5.5683 22.3589 7.49826 22.3589 9.15826V14.8183C22.3589 14.8883 22.3589 14.9883 22.3289 15.1183C22.2689 15.3783 22.0789 15.5883 21.8289 15.6683C21.5789 15.7483 21.2989 15.6983 21.0989 15.5183C19.9589 14.5183 18.1789 14.4783 16.9589 15.4483C16.1889 16.0583 15.7389 16.9883 15.7389 17.9783C15.7389 18.5683 15.8989 19.1483 16.2089 19.6483C16.2889 19.7883 16.3689 19.8983 16.4589 19.9983C16.6089 20.1683 16.6689 20.3983 16.6289 20.6183C16.5889 20.8383 16.4489 21.0383 16.2489 21.1383L14.4189 22.1483C13.7489 22.5583 12.8789 22.7483 11.9989 22.7483ZM11.9989 2.74828C11.3789 2.74828 10.7489 2.87829 10.2989 3.12829L4.95889 6.08831C3.98889 6.62831 3.1489 8.05826 3.1489 9.15826V14.8183C3.1489 15.9183 3.99889 17.3583 4.95889 17.8883L10.2989 20.8483C11.2089 21.3583 12.7989 21.3583 13.7089 20.8483L14.8289 20.2283C14.4589 19.5583 14.2589 18.7783 14.2589 17.9783C14.2589 16.5183 14.9089 15.1683 16.0389 14.2683C17.4089 13.1783 19.3489 12.9483 20.8689 13.6083V9.14831C20.8689 8.04831 20.0189 6.6083 19.0589 6.0783L13.7189 3.11828C13.2489 2.87828 12.6189 2.74828 11.9989 2.74828Z" fill="#292D32"/>
<path d="M19 22.75C16.38 22.75 14.25 20.62 14.25 18C14.25 16.54 14.9 15.19 16.03 14.29C16.87 13.62 17.93 13.25 19 13.25C21.62 13.25 23.75 15.38 23.75 18C23.75 19.36 23.16 20.66 22.13 21.56C21.26 22.33 20.15 22.75 19 22.75ZM19 14.75C18.26 14.75 17.56 15 16.97 15.47C16.2 16.08 15.75 17.01 15.75 18C15.75 19.79 17.21 21.25 19 21.25C19.78 21.25 20.54 20.96 21.15 20.44C21.85 19.82 22.25 18.94 22.25 18C22.25 16.21 20.79 14.75 19 14.75Z" fill="#292D32"/>
<path d="M17.9999 19.75C17.7499 19.75 17.4999 19.62 17.3599 19.39C17.1499 19.03 17.2599 18.57 17.6199 18.36L18.5099 17.83V16.75C18.5099 16.34 18.8499 16 19.2599 16C19.6699 16 20.0099 16.34 20.0099 16.75V18.25C20.0099 18.51 19.8699 18.76 19.6499 18.89L18.3999 19.64C18.2599 19.72 18.1299 19.75 17.9999 19.75Z" fill="#292D32"/>
</svg>
