<svg width="24" height="24" viewBox="0 0 24 24" fill="none" xmlns="http://www.w3.org/2000/svg">
<path d="M19.001 22.7502C17.381 22.7502 15.851 21.9102 14.991 20.5302C14.531 19.8202 14.271 18.9701 14.251 18.1001C14.221 16.6401 14.8411 15.2801 15.9511 14.3601C16.7811 13.6701 17.8211 13.2802 18.8911 13.2502C20.1911 13.2402 21.361 13.6902 22.281 14.5702C23.201 15.4502 23.721 16.6302 23.741 17.9002C23.761 18.7702 23.541 19.6202 23.101 20.3702C22.861 20.7902 22.551 21.1802 22.181 21.5102C21.361 22.2802 20.261 22.7302 19.091 22.7502C19.071 22.7502 19.041 22.7502 19.001 22.7502ZM19.001 14.7502C18.981 14.7502 18.951 14.7502 18.931 14.7502C18.191 14.7702 17.491 15.0302 16.911 15.5102C16.151 16.1402 15.731 17.0702 15.751 18.0702C15.761 18.6602 15.941 19.2401 16.251 19.7301C16.861 20.7101 17.921 21.3102 19.061 21.2502C19.851 21.2302 20.6011 20.9302 21.1711 20.4002C21.4311 20.1702 21.641 19.9102 21.801 19.6302C22.101 19.1102 22.251 18.5302 22.241 17.9402C22.221 17.0702 21.871 16.2601 21.241 15.6601C20.641 15.0701 19.841 14.7502 19.001 14.7502Z" fill="#292D32"/>
<path d="M18.4489 19.7497C18.2589 19.7497 18.0789 19.6797 17.9289 19.5397L16.9189 18.5797C16.6189 18.2897 16.6089 17.8197 16.8989 17.5197C17.1889 17.2197 17.6589 17.2097 17.9589 17.4997L18.4489 17.9697L20.0189 16.4497C20.3189 16.1597 20.7889 16.1697 21.0789 16.4697C21.3689 16.7697 21.3589 17.2397 21.0589 17.5297L18.9689 19.5497C18.8189 19.6797 18.6289 19.7497 18.4489 19.7497Z" fill="#292D32"/>
<path d="M12.0013 13.3008C11.8713 13.3008 11.7413 13.2709 11.6213 13.2009L2.79132 8.09088C2.43132 7.88088 2.3113 7.42085 2.5213 7.06085C2.7313 6.70085 3.19132 6.58083 3.54132 6.79083L11.9913 11.6808L20.3913 6.82086C20.7513 6.61086 21.2113 6.74088 21.4113 7.09088C21.6213 7.45088 21.4913 7.91085 21.1413 8.12085L12.3713 13.2009C12.2613 13.2609 12.1313 13.3008 12.0013 13.3008Z" fill="#292D32"/>
<path d="M12 22.3591C11.59 22.3591 11.25 22.0191 11.25 21.6091V12.5391C11.25 12.1291 11.59 11.7891 12 11.7891C12.41 11.7891 12.75 12.1291 12.75 12.5391V21.6091C12.75 22.0191 12.41 22.3591 12 22.3591Z" fill="#292D32"/>
<path d="M11.9989 22.7519C11.1189 22.7519 10.2389 22.5619 9.5589 22.1719L4.2189 19.2119C2.7689 18.4119 1.62891 16.4819 1.62891 14.8219V9.16185C1.62891 7.50185 2.7689 5.5819 4.2189 4.7719L9.5589 1.81187C10.9189 1.04188 13.0589 1.04188 14.4289 1.81187L19.7689 4.7719C21.2189 5.5719 22.3589 7.50185 22.3589 9.16185V14.8219C22.3589 14.9219 22.3589 15.0019 22.3389 15.1019C22.2889 15.3619 22.0989 15.5819 21.8489 15.6619C21.5989 15.7519 21.3189 15.6919 21.1089 15.5219C19.9589 14.5219 18.1789 14.4819 16.9689 15.4519C16.1989 16.0619 15.7489 16.9919 15.7489 17.9819C15.7489 18.5719 15.9089 19.1519 16.2189 19.6519C16.2989 19.7919 16.3789 19.9019 16.4689 20.0119C16.6189 20.1819 16.6789 20.4119 16.6389 20.6319C16.5989 20.8519 16.4589 21.0419 16.2589 21.1519L14.4289 22.1618C13.7489 22.5618 12.8789 22.7519 11.9989 22.7519ZM11.9989 2.75188C11.3789 2.75188 10.7489 2.88188 10.2989 3.13188L4.95889 6.0919C3.98889 6.6219 3.1489 8.06185 3.1489 9.16185V14.8219C3.1489 15.9219 3.99889 17.3619 4.95889 17.8919L10.2989 20.8519C11.2089 21.3619 12.7989 21.3619 13.7089 20.8519L14.8289 20.2319C14.4589 19.5619 14.2589 18.7819 14.2589 17.9819C14.2589 16.5219 14.9089 15.1719 16.0389 14.2719C17.3989 13.1819 19.3389 12.9519 20.8689 13.6019V9.14189C20.8689 8.04189 20.0189 6.60188 19.0589 6.07188L13.7189 3.11186C13.2489 2.88186 12.6189 2.75188 11.9989 2.75188Z" fill="#292D32"/>
</svg>
