<svg width="24" height="24" viewBox="0 0 24 24" fill="none" xmlns="http://www.w3.org/2000/svg">
<path d="M19.1709 6.63953C18.7409 4.46953 17.1309 3.51953 14.8909 3.51953H6.11094C3.47094 3.51953 1.71094 4.83953 1.71094 7.91953V13.0695C1.71094 15.2895 2.62094 16.5895 4.12094 17.1495C4.34094 17.2295 4.58094 17.2995 4.83094 17.3395C5.23094 17.4295 5.66094 17.4695 6.11094 17.4695H14.9009C17.5409 17.4695 19.3009 16.1495 19.3009 13.0695V7.91953C19.3009 7.44953 19.2609 7.02953 19.1709 6.63953ZM5.53094 11.9995C5.53094 12.4095 5.19094 12.7495 4.78094 12.7495C4.37094 12.7495 4.03094 12.4095 4.03094 11.9995V8.99953C4.03094 8.58953 4.37094 8.24953 4.78094 8.24953C5.19094 8.24953 5.53094 8.58953 5.53094 8.99953V11.9995ZM10.5009 13.1395C9.04094 13.1395 7.86094 11.9595 7.86094 10.4995C7.86094 9.03953 9.04094 7.85953 10.5009 7.85953C11.9609 7.85953 13.1409 9.03953 13.1409 10.4995C13.1409 11.9595 11.9609 13.1395 10.5009 13.1395ZM16.9609 11.9995C16.9609 12.4095 16.6209 12.7495 16.2109 12.7495C15.8009 12.7495 15.4609 12.4095 15.4609 11.9995V8.99953C15.4609 8.58953 15.8009 8.24953 16.2109 8.24953C16.6209 8.24953 16.9609 8.58953 16.9609 8.99953V11.9995Z" fill="#292D32"/>
<path d="M22.3017 10.9183V16.0683C22.3017 19.1483 20.5417 20.4783 17.8917 20.4783H9.11172C8.36172 20.4783 7.69172 20.3683 7.11172 20.1483C6.64172 19.9783 6.23172 19.7283 5.90172 19.4083C5.72172 19.2383 5.86172 18.9683 6.11172 18.9683H14.8917C18.5917 18.9683 20.7917 16.7683 20.7917 13.0783V7.91832C20.7917 7.67832 21.0617 7.52832 21.2317 7.70832C21.9117 8.42832 22.3017 9.47832 22.3017 10.9183Z" fill="#292D32"/>
</svg>
