<svg width="24" height="24" viewBox="0 0 24 24" fill="none" xmlns="http://www.w3.org/2000/svg">
<path d="M21.0582 11.8216L20.8982 11.6016C20.6182 11.2616 20.2882 10.9916 19.9082 10.7916C19.3982 10.5016 18.8182 10.3516 18.2182 10.3516H5.76824C5.16824 10.3516 4.59824 10.5016 4.07824 10.7916C3.68824 11.0016 3.33824 11.2916 3.04824 11.6516C2.47824 12.3816 2.20824 13.2816 2.29824 14.1816L2.66824 18.8516C2.79824 20.2616 2.96824 22.0016 6.13824 22.0016H17.8582C21.0282 22.0016 21.1882 20.2616 21.3282 18.8416L21.6982 14.1916C21.7882 13.3516 21.5682 12.5116 21.0582 11.8216ZM14.3882 17.3416H9.59824C9.20824 17.3416 8.89824 17.0216 8.89824 16.6416C8.89824 16.2616 9.20824 15.9416 9.59824 15.9416H14.3882C14.7782 15.9416 15.0882 16.2616 15.0882 16.6416C15.0882 17.0316 14.7782 17.3416 14.3882 17.3416Z" fill="#292D32"/>
<path opacity="0.4" d="M3.37891 11.31C3.59891 11.11 3.81891 10.93 4.07891 10.79C4.58891 10.5 5.16891 10.35 5.76891 10.35H18.2289C18.8289 10.35 19.3989 10.5 19.9189 10.79C20.1789 10.93 20.4089 11.11 20.6189 11.32V10.79V9.82C20.6189 6.25 19.5289 5.16 15.9589 5.16H13.5789C13.1389 5.16 13.1289 5.15 12.8689 4.81L11.6689 3.2C11.0989 2.46 10.6489 2 9.21891 2H8.03891C4.46891 2 3.37891 3.09 3.37891 6.66V10.8V11.31Z" fill="#292D32"/>
</svg>
