<svg width="24" height="24" viewBox="0 0 24 24" fill="none" xmlns="http://www.w3.org/2000/svg">
<path d="M22.0011 12.3995H16.2011C14.3011 12.3995 12.8711 10.9695 12.8711 9.06952V5.84949C12.8711 3.94949 14.3011 2.51953 16.2011 2.51953H19.4211C21.2511 2.51953 22.7511 4.00949 22.7511 5.84949V11.6495C22.7511 12.0695 22.4111 12.3995 22.0011 12.3995ZM16.2011 4.02954C15.1411 4.02954 14.3711 4.7995 14.3711 5.8595V9.07953C14.3711 10.1395 15.1411 10.9095 16.2011 10.9095H21.2511V5.8595C21.2511 4.8495 20.4311 4.02954 19.4211 4.02954H16.2011Z" fill="#292D32"/>
<path d="M17.4686 21.4684C17.2086 21.4684 16.9586 21.3384 16.8186 21.0984C16.6086 20.7384 16.7286 20.2784 17.0786 20.0684C20.3086 18.1484 21.2486 17.3484 21.2486 11.6484C21.2486 11.2384 21.5886 10.8984 21.9986 10.8984C22.4086 10.8984 22.7486 11.2384 22.7486 11.6484C22.7486 17.8984 21.4786 19.2084 17.8486 21.3584C17.7286 21.4384 17.5986 21.4684 17.4686 21.4684Z" fill="#292D32"/>
<path d="M10.3722 12.3995H4.57219C2.67219 12.3995 1.24219 10.9695 1.24219 9.06952V5.84949C1.24219 3.94949 2.67219 2.51953 4.57219 2.51953H7.80219C9.63219 2.51953 11.1322 4.00949 11.1322 5.84949V11.6495C11.1222 12.0695 10.7922 12.3995 10.3722 12.3995ZM4.58219 4.02954C3.52219 4.02954 2.75219 4.7995 2.75219 5.8595V9.07953C2.75219 10.1395 3.52219 10.9095 4.58219 10.9095H9.63219V5.8595C9.63219 4.8495 8.81219 4.02954 7.80219 4.02954H4.58219Z" fill="#292D32"/>
<path d="M5.83964 21.4684C5.57964 21.4684 5.32964 21.3384 5.18964 21.0984C4.97964 20.7384 5.09964 20.2784 5.44964 20.0684C8.67964 18.1484 9.61964 17.3484 9.61964 11.6484C9.61964 11.2384 9.95964 10.8984 10.3696 10.8984C10.7796 10.8984 11.1196 11.2384 11.1196 11.6484C11.1196 17.8984 9.84964 19.2084 6.21964 21.3584C6.09964 21.4384 5.96964 21.4684 5.83964 21.4684Z" fill="#292D32"/>
</svg>
