<svg width="24" height="24" viewBox="0 0 24 24" fill="none" xmlns="http://www.w3.org/2000/svg">
<path d="M11.9989 12.75H4.87891C4.46891 12.75 4.12891 12.41 4.12891 12V4.5C4.12891 2.98 5.35891 1.75 6.87891 1.75H11.9989C15.0289 1.75 17.4989 4.22 17.4989 7.25C17.4989 10.28 15.0289 12.75 11.9989 12.75ZM5.61891 11.25H11.9989C14.2089 11.25 15.9989 9.46 15.9989 7.25C15.9989 5.04 14.2089 3.25 11.9989 3.25H6.87891C6.18891 3.25 5.62891 3.81 5.62891 4.5V11.25H5.61891Z" fill="#292D32"/>
<path d="M14.3789 22.25H6.87891C5.35891 22.25 4.12891 21.02 4.12891 19.5V12C4.12891 11.59 4.46891 11.25 4.87891 11.25H14.3789C17.4089 11.25 19.8789 13.72 19.8789 16.75C19.8789 19.78 17.4089 22.25 14.3789 22.25ZM5.61891 12.75V19.5C5.61891 20.19 6.17891 20.75 6.86891 20.75H14.3689C16.5789 20.75 18.3689 18.96 18.3689 16.75C18.3689 14.54 16.5789 12.75 14.3689 12.75H5.61891Z" fill="#292D32"/>
</svg>
