<svg width="24" height="24" viewBox="0 0 24 24" fill="none" xmlns="http://www.w3.org/2000/svg">
<path d="M14.789 19.4184C14.679 19.4184 14.559 19.3884 14.459 19.3384C14.089 19.1484 13.939 18.6984 14.119 18.3284L16.259 14.0584C16.389 13.8084 16.649 13.6484 16.929 13.6484C17.209 13.6484 17.469 13.8084 17.599 14.0684L19.739 18.3384C19.929 18.7084 19.779 19.1584 19.399 19.3484C19.029 19.5384 18.579 19.3884 18.389 19.0084L16.929 16.0784L15.469 19.0084C15.329 19.2684 15.059 19.4184 14.789 19.4184Z" fill="#292D32"/>
<path d="M18.6801 18.6602H15.1602C14.7502 18.6602 14.4102 18.3202 14.4102 17.9102C14.4102 17.5002 14.7502 17.1602 15.1602 17.1602H18.6801C19.0901 17.1602 19.4301 17.5002 19.4301 17.9102C19.4301 18.3202 19.1001 18.6602 18.6801 18.6602Z" fill="#292D32"/>
<path d="M16.9198 22.7498C13.7098 22.7498 11.0898 20.1398 11.0898 16.9198C11.0898 13.6998 13.6998 11.0898 16.9198 11.0898C20.1298 11.0898 22.7498 13.6998 22.7498 16.9198C22.7498 20.1398 20.1398 22.7498 16.9198 22.7498ZM16.9198 12.5998C14.5298 12.5998 12.5898 14.5398 12.5898 16.9298C12.5898 19.3198 14.5298 21.2598 16.9198 21.2598C19.2998 21.2598 21.2498 19.3198 21.2498 16.9298C21.2498 14.5398 19.3098 12.5998 16.9198 12.5998Z" fill="#292D32"/>
<path d="M4.86 12.6983C3.75 12.6983 2.87 12.3883 2.25 11.7883C1.59 11.1483 1.25 10.1783 1.25 8.92828V5.0083C1.25 2.5783 2.59 1.23828 5.02 1.23828H8.94C10.19 1.23828 11.15 1.56828 11.8 2.23828C12.43 2.88828 12.74 3.82832 12.71 5.02832V8.92828C12.74 10.1483 12.43 11.1083 11.78 11.7583C11.13 12.4083 10.17 12.7083 8.92999 12.6883H5.03C4.96 12.6983 4.91 12.6983 4.86 12.6983ZM5.02 2.74829C3.41 2.74829 2.75 3.40831 2.75 5.01831V8.93829C2.75 9.76829 2.92999 10.3683 3.28999 10.7183C3.63999 11.0583 4.20001 11.2083 4.99001 11.1983H8.92999C9.76999 11.2183 10.35 11.0483 10.7 10.6983C11.05 10.3483 11.21 9.7583 11.19 8.9483V5.0083C11.21 4.2083 11.05 3.63827 10.71 3.28827C10.36 2.92827 9.75999 2.74829 8.92999 2.74829H5.02Z" fill="#292D32"/>
<path d="M9.0014 6.60156H4.94141C4.53141 6.60156 4.19141 6.26156 4.19141 5.85156C4.19141 5.44156 4.53141 5.10156 4.94141 5.10156H9.0014C9.4114 5.10156 9.7514 5.44156 9.7514 5.85156C9.7514 6.26156 9.4214 6.60156 9.0014 6.60156Z" fill="#292D32"/>
<path d="M6.98047 6.60187C6.57047 6.60187 6.23047 6.26187 6.23047 5.85187V5.17188C6.23047 4.76188 6.57047 4.42188 6.98047 4.42188C7.39047 4.42188 7.73047 4.76188 7.73047 5.17188V5.85187C7.73047 6.26187 7.39047 6.60187 6.98047 6.60187Z" fill="#292D32"/>
<path d="M4.94141 9.75983C4.53141 9.75983 4.19141 9.41983 4.19141 9.00983C4.19141 8.59983 4.53141 8.25983 4.94141 8.25983C6.21141 8.25983 7.24141 7.17984 7.24141 5.83984C7.24141 5.42984 7.58141 5.08984 7.99141 5.08984C8.40141 5.08984 8.74141 5.42984 8.74141 5.83984C8.74141 7.99984 7.04141 9.75983 4.94141 9.75983Z" fill="#292D32"/>
<path d="M9.01042 9.75811C8.08042 9.75811 7.19043 9.28813 6.56043 8.45813C6.31043 8.12813 6.38043 7.65808 6.71043 7.40808C7.04043 7.15808 7.51042 7.2281 7.76042 7.5581C8.10042 8.0181 8.55042 8.26812 9.01042 8.26812C9.42042 8.26812 9.76042 8.60812 9.76042 9.01812C9.76042 9.42812 9.42042 9.75811 9.01042 9.75811Z" fill="#292D32"/>
<path d="M9 22.75C4.73 22.75 1.25 19.27 1.25 15C1.25 14.59 1.59 14.25 2 14.25C2.41 14.25 2.75 14.59 2.75 15C2.75 17.96 4.81 20.44 7.58 21.09L7.31 20.64C7.1 20.28 7.21001 19.82 7.57001 19.61C7.92001 19.4 8.39001 19.51 8.60001 19.87L9.64999 21.62C9.78999 21.85 9.79 22.14 9.66 22.37C9.52 22.6 9.27 22.75 9 22.75Z" fill="#292D32"/>
<path d="M21.9985 9.75C21.5885 9.75 21.2485 9.41 21.2485 9C21.2485 6.04 19.1885 3.55997 16.4185 2.90997L16.6885 3.35999C16.8985 3.71999 16.7885 4.18001 16.4285 4.39001C16.0785 4.60001 15.6085 4.49001 15.3985 4.13L14.3485 2.38C14.2085 2.15 14.2085 1.86 14.3385 1.63C14.4685 1.39 14.7185 1.25 14.9885 1.25C19.2585 1.25 22.7385 4.73 22.7385 9C22.7485 9.41 22.4085 9.75 21.9985 9.75Z" fill="#292D32"/>
</svg>
