<svg width="24" height="24" viewBox="0 0 24 24" fill="none" xmlns="http://www.w3.org/2000/svg">
<path d="M12.0103 17.0013C11.1603 17.0013 10.3003 16.7813 9.63031 16.3513L3.61031 12.4213C2.49031 11.6913 1.82031 10.4613 1.82031 9.12126C1.82031 7.78126 2.49031 6.55126 3.61031 5.82126L9.64031 1.90126C10.9803 1.03126 13.0703 1.03126 14.4003 1.91126L20.3903 5.84126C21.5003 6.57126 22.1703 7.80126 22.1703 9.13126C22.1703 10.4613 21.5003 11.6913 20.3903 12.4213L14.4003 16.3513C13.7303 16.7913 12.8703 17.0013 12.0103 17.0013ZM12.0103 2.75126C11.4403 2.75126 10.8703 2.88126 10.4603 3.16126L4.44031 7.08126C3.74031 7.54126 3.33031 8.28126 3.33031 9.12126C3.33031 9.96126 3.73031 10.7013 4.44031 11.1613L10.4603 15.0913C11.2903 15.6313 12.7503 15.6313 13.5803 15.0913L19.5703 11.1613C20.2703 10.7013 20.6703 9.96126 20.6703 9.12126C20.6703 8.28126 20.2703 7.54126 19.5703 7.08126L13.5803 3.15126C13.1603 2.89126 12.5903 2.75126 12.0103 2.75126Z" fill="#292D32"/>
<path d="M12.0012 22.7481C11.5612 22.7481 11.1112 22.6881 10.7512 22.5681L7.56116 21.5081C6.05116 21.0081 4.86116 19.3581 4.87116 17.7681L4.88116 13.0781C4.88116 12.6681 5.22116 12.3281 5.63116 12.3281C6.04116 12.3281 6.38116 12.6681 6.38116 13.0781L6.37116 17.7681C6.37116 18.7081 7.15116 19.7881 8.04116 20.0881L11.2312 21.1481C11.6312 21.2781 12.3712 21.2781 12.7712 21.1481L15.9612 20.0881C16.8512 19.7881 17.6312 18.7081 17.6312 17.7781V13.1381C17.6312 12.7281 17.9712 12.3881 18.3812 12.3881C18.7912 12.3881 19.1312 12.7281 19.1312 13.1381V17.7781C19.1312 19.3681 17.9512 21.0081 16.4412 21.5181L13.2512 22.5781C12.8912 22.6881 12.4412 22.7481 12.0012 22.7481Z" fill="#292D32"/>
<path d="M21.3984 15.75C20.9884 15.75 20.6484 15.41 20.6484 15V9C20.6484 8.59 20.9884 8.25 21.3984 8.25C21.8084 8.25 22.1484 8.59 22.1484 9V15C22.1484 15.41 21.8084 15.75 21.3984 15.75Z" fill="#292D32"/>
</svg>
