<svg width="24" height="24" viewBox="0 0 24 24" fill="none" xmlns="http://www.w3.org/2000/svg">
<path d="M20 6V6.24H14.87C11.9 6.24 10.52 7.62 10.52 10.59V15.7H9.75V19.25H10.52V20.75H4.95C4.54 20.75 4.2 20.41 4.2 20C4.2 19.59 4.54 19.25 4.95 19.25H8.25V15.7H6C2.87 15.7 2.03 14.93 2 11.9V6C2 2.8 2.8 2 6 2H16C19.2 2 20 2.8 20 6Z" fill="#292D32"/>
<path d="M19.9995 7.78828C19.7495 7.75828 19.4595 7.73828 19.1495 7.73828H14.8695C12.7295 7.73828 12.0195 8.44828 12.0195 10.5883V19.2483C12.0295 19.8683 12.0995 20.3583 12.2495 20.7483C12.5995 21.6583 13.3895 21.9983 14.8695 21.9983H19.1495C21.2895 21.9983 21.9995 21.2883 21.9995 19.1483V10.5883C21.9995 8.75828 21.4795 7.97828 19.9995 7.78828ZM17.0095 10.0883C17.8795 10.0883 18.5795 10.7883 18.5795 11.6583C18.5795 12.5283 17.8795 13.2283 17.0095 13.2283C16.1395 13.2283 15.4395 12.5283 15.4395 11.6583C15.4395 10.7883 16.1395 10.0883 17.0095 10.0883ZM17.0095 19.1483C15.8295 19.1483 14.8695 18.1883 14.8695 17.0083C14.8695 16.5183 15.0395 16.0583 15.3195 15.6983C15.7095 15.1983 16.3195 14.8683 17.0095 14.8683C17.5495 14.8683 18.0395 15.0683 18.4095 15.3883C18.8595 15.7883 19.1495 16.3683 19.1495 17.0083C19.1495 18.1883 18.1895 19.1483 17.0095 19.1483Z" fill="#292D32"/>
<path d="M19.9995 7.78828C19.7495 7.75828 19.4595 7.73828 19.1495 7.73828H14.8695C12.7295 7.73828 12.0195 8.44828 12.0195 10.5883V19.2483C12.0295 19.8683 12.0995 20.3583 12.2495 20.7483C12.5995 21.6583 13.3895 21.9983 14.8695 21.9983H19.1495C21.2895 21.9983 21.9995 21.2883 21.9995 19.1483V10.5883C21.9995 8.75828 21.4795 7.97828 19.9995 7.78828ZM17.0095 10.0883C17.8795 10.0883 18.5795 10.7883 18.5795 11.6583C18.5795 12.5283 17.8795 13.2283 17.0095 13.2283C16.1395 13.2283 15.4395 12.5283 15.4395 11.6583C15.4395 10.7883 16.1395 10.0883 17.0095 10.0883ZM17.0095 19.1483C15.8295 19.1483 14.8695 18.1883 14.8695 17.0083C14.8695 16.5183 15.0395 16.0583 15.3195 15.6983C15.7095 15.1983 16.3195 14.8683 17.0095 14.8683C17.5495 14.8683 18.0395 15.0683 18.4095 15.3883C18.8595 15.7883 19.1495 16.3683 19.1495 17.0083C19.1495 18.1883 18.1895 19.1483 17.0095 19.1483Z" fill="#292D32"/>
</svg>
