<svg width="24" height="24" viewBox="0 0 24 24" fill="none" xmlns="http://www.w3.org/2000/svg">
<path d="M13.1807 11.8606C12.7807 11.8606 12.4207 11.6406 12.2507 11.2806L10.8007 8.39058L10.3807 9.17058C10.1507 9.60058 9.6907 9.87058 9.2007 9.87058H8.4707C8.0607 9.87058 7.7207 9.53058 7.7207 9.12058C7.7207 8.71058 8.0607 8.37058 8.4707 8.37058H9.1107L9.9007 6.91058C10.0907 6.57058 10.4707 6.34058 10.8307 6.36058C11.2207 6.36058 11.5707 6.59058 11.7507 6.93058L13.1807 9.79058L13.5207 9.10058C13.7507 8.64058 14.2007 8.36058 14.7207 8.36058H15.5307C15.9407 8.36058 16.2807 8.70058 16.2807 9.11058C16.2807 9.52058 15.9407 9.86058 15.5307 9.86058H14.8207L14.1107 11.2706C13.9307 11.6406 13.5807 11.8606 13.1807 11.8606Z" fill="#292D32"/>
<path d="M2.74982 18.6508C2.33982 18.6508 1.99982 18.3108 1.99982 17.9008V12.2008C1.94982 9.49078 2.95982 6.93078 4.83982 5.01078C6.71982 3.10078 9.23982 2.05078 11.9498 2.05078C17.4898 2.05078 21.9998 6.56078 21.9998 12.1008V17.8008C21.9998 18.2108 21.6598 18.5508 21.2498 18.5508C20.8398 18.5508 20.4998 18.2108 20.4998 17.8008V12.1008C20.4998 7.39078 16.6698 3.55078 11.9498 3.55078C9.63982 3.55078 7.49982 4.44078 5.90982 6.06078C4.30982 7.69078 3.45982 9.86078 3.49982 12.1808V17.8908C3.49982 18.3108 3.16982 18.6508 2.74982 18.6508Z" fill="#292D32"/>
<path d="M5.94 12.4492H5.81C3.71 12.4492 2 14.1592 2 16.2592V18.1392C2 20.2392 3.71 21.9492 5.81 21.9492H5.94C8.04 21.9492 9.75 20.2392 9.75 18.1392V16.2592C9.75 14.1592 8.04 12.4492 5.94 12.4492Z" fill="#292D32"/>
<path d="M18.19 12.4492H18.06C15.96 12.4492 14.25 14.1592 14.25 16.2592V18.1392C14.25 20.2392 15.96 21.9492 18.06 21.9492H18.19C20.29 21.9492 22 20.2392 22 18.1392V16.2592C22 14.1592 20.29 12.4492 18.19 12.4492Z" fill="#292D32"/>
</svg>
