<svg width="24" height="24" viewBox="0 0 24 24" fill="none" xmlns="http://www.w3.org/2000/svg">
<path d="M8.58023 22.5501C8.36023 22.5501 8.13023 22.5101 7.92023 22.4201C7.45023 22.2201 7.09023 21.8301 6.93023 21.3401L6.49023 20.0201C6.29023 19.4201 6.47023 18.6701 6.91023 18.2201L9.18023 15.9401C9.21024 15.9101 9.25023 15.8001 9.25023 15.7501V13.2801L4.69023 15.2501C4.08023 15.5101 3.46023 15.4801 2.99023 15.1701C2.52023 14.8601 2.24023 14.3001 2.24023 13.6501V12.3601C2.24023 11.3801 2.94023 10.3301 3.83023 9.98007L9.24023 7.64007V4.80007C9.24023 3.59007 10.0902 2.20007 11.1702 1.64007C11.6902 1.38007 12.2902 1.38007 12.8002 1.64007C13.8902 2.20007 14.7402 3.58007 14.7402 4.79007V7.63007L20.1802 9.97007C21.0702 10.3501 21.7502 11.3701 21.7502 12.3601V13.6501C21.7502 14.3101 21.4802 14.8601 21.0002 15.1701C20.5202 15.4801 19.9102 15.5101 19.3002 15.2601L14.7402 13.2901V15.7601C14.7402 15.8001 14.7802 15.9001 14.8102 15.9301L17.0902 18.2201C17.5302 18.6601 17.7102 19.4301 17.5102 20.0201L17.0702 21.3401C16.9002 21.8301 16.5402 22.2201 16.0602 22.4101C15.5902 22.6001 15.0702 22.5801 14.6202 22.3601C14.5702 22.3301 14.5202 22.3001 14.4702 22.2601L12.1402 20.3001C12.0602 20.2301 11.9002 20.2401 11.8302 20.3001L9.50023 22.2601C9.46023 22.3001 9.41023 22.3301 9.36023 22.3501C9.12023 22.4901 8.85023 22.5501 8.58023 22.5501ZM9.56024 11.6401C9.79024 11.6401 10.0102 11.7001 10.2002 11.8301C10.5502 12.0601 10.7502 12.4501 10.7502 12.9101V15.7601C10.7502 16.1901 10.5402 16.7001 10.2402 17.0001L7.97023 19.2801C7.93023 19.3301 7.89023 19.4801 7.91023 19.5401L8.35023 20.8701C8.38024 20.9701 8.45023 21.0101 8.49023 21.0301C8.52023 21.0401 8.57023 21.0601 8.63023 21.0401L10.8702 19.1501C11.5002 18.6101 12.4902 18.6101 13.1202 19.1501L15.3502 21.0301C15.4202 21.0401 15.4702 21.0301 15.5002 21.0201C15.5402 21.0001 15.6202 20.9601 15.6502 20.8601L16.0902 19.5401C16.1102 19.4701 16.0702 19.3201 16.0302 19.2801L13.7602 17.0001C13.4602 16.7201 13.2402 16.2001 13.2402 15.7601V12.9101C13.2402 12.4601 13.4302 12.0701 13.7702 11.8401C14.1102 11.6101 14.5502 11.5801 14.9702 11.7601L19.8902 13.8801C20.0402 13.9401 20.1402 13.9401 20.1702 13.9201C20.2002 13.9001 20.2402 13.8101 20.2402 13.6501V12.3601C20.2402 11.9801 19.9202 11.4901 19.5802 11.3501L14.0002 8.94007C13.5602 8.75007 13.2502 8.27007 13.2502 7.79007V4.79007C13.2502 4.13007 12.7302 3.28007 12.1302 2.98007C12.0502 2.94007 11.9502 2.94007 11.8602 2.98007C11.2802 3.28007 10.7502 4.15007 10.7502 4.80007V7.80007C10.7502 8.27007 10.4402 8.76007 10.0002 8.95007L4.42023 11.3601C4.07023 11.5001 3.75023 11.9901 3.75023 12.3601V13.6501C3.75023 13.8101 3.79023 13.9001 3.82023 13.9201C3.85023 13.9401 3.95023 13.9401 4.10023 13.8801L9.01023 11.7601C9.19023 11.6801 9.38024 11.6401 9.56024 11.6401Z" fill="#292D32"/>
</svg>
