<svg width="24" height="24" viewBox="0 0 24 24" fill="none" xmlns="http://www.w3.org/2000/svg">
<path d="M13.3903 18.11C13.2003 18.11 13.0103 18.04 12.8603 17.89L10.1003 15.13C9.81031 14.84 9.81031 14.36 10.1003 14.07C10.3903 13.78 10.8703 13.78 11.1603 14.07L13.9203 16.83C14.2103 17.12 14.2103 17.6 13.9203 17.89C13.7803 18.04 13.5903 18.11 13.3903 18.11Z" fill="#292D32"/>
<path d="M10.6108 18.1401C10.4208 18.1401 10.2308 18.0701 10.0808 17.9201C9.79078 17.6301 9.79078 17.1501 10.0808 16.8601L12.8408 14.1001C13.1308 13.8101 13.6108 13.8101 13.9008 14.1001C14.1908 14.3901 14.1908 14.8701 13.9008 15.1601L11.1408 17.9201C10.9908 18.0701 10.8008 18.1401 10.6108 18.1401Z" fill="#292D32"/>
<path d="M5.19086 6.37994C5.00086 6.37994 4.80086 6.29994 4.66086 6.15994C4.37086 5.86994 4.37086 5.38994 4.66086 5.09994L8.29086 1.46994C8.58086 1.17994 9.06086 1.17994 9.35086 1.46994C9.64086 1.75994 9.64086 2.23994 9.35086 2.52994L5.72086 6.15994C5.57086 6.29994 5.38086 6.37994 5.19086 6.37994Z" fill="#292D32"/>
<path d="M18.8091 6.37994C18.6191 6.37994 18.4291 6.30994 18.2791 6.15994L14.6491 2.52994C14.3591 2.23994 14.3591 1.75994 14.6491 1.46994C14.9391 1.17994 15.4191 1.17994 15.7091 1.46994L19.3391 5.09994C19.6291 5.38994 19.6291 5.86994 19.3391 6.15994C19.1991 6.29994 18.9991 6.37994 18.8091 6.37994Z" fill="#292D32"/>
<path d="M20.21 10.6001C20.14 10.6001 20.07 10.6001 20 10.6001H19.77H4C3.3 10.6101 2.5 10.6101 1.92 10.0301C1.46 9.5801 1.25 8.8801 1.25 7.8501C1.25 5.1001 3.26 5.1001 4.22 5.1001H19.78C20.74 5.1001 22.75 5.1001 22.75 7.8501C22.75 8.8901 22.54 9.5801 22.08 10.0301C21.56 10.5501 20.86 10.6001 20.21 10.6001ZM4.22 9.1001H20.01C20.46 9.1101 20.88 9.1101 21.02 8.9701C21.09 8.9001 21.24 8.6601 21.24 7.8501C21.24 6.7201 20.96 6.6001 19.77 6.6001H4.22C3.03 6.6001 2.75 6.7201 2.75 7.8501C2.75 8.6601 2.91 8.9001 2.97 8.9701C3.11 9.1001 3.54 9.1001 3.98 9.1001H4.22Z" fill="#292D32"/>
<path d="M14.8907 22.75H8.86073C5.28073 22.75 4.48073 20.62 4.17073 18.77L2.76073 10.12C2.69073 9.71 2.97073 9.33 3.38073 9.26C3.79073 9.19 4.17073 9.47 4.24073 9.88L5.65073 18.52C5.94073 20.29 6.54073 21.25 8.86073 21.25H14.8907C17.4607 21.25 17.7507 20.35 18.0807 18.61L19.7607 9.86C19.8407 9.45 20.2307 9.18 20.6407 9.27C21.0507 9.35 21.3107 9.74 21.2307 10.15L19.5507 18.9C19.1607 20.93 18.5107 22.75 14.8907 22.75Z" fill="#292D32"/>
</svg>
