<svg width="24" height="24" viewBox="0 0 24 24" fill="none" xmlns="http://www.w3.org/2000/svg">
<path d="M22 22.75H2C1.59 22.75 1.25 22.41 1.25 22C1.25 21.59 1.59 21.25 2 21.25H22C22.41 21.25 22.75 21.59 22.75 22C22.75 22.41 22.41 22.75 22 22.75Z" fill="#292D32"/>
<path d="M21 22.75H3C2.59 22.75 2.25 22.41 2.25 22V6C2.25 2.98 3.98 1.25 7 1.25H17C20.02 1.25 21.75 2.98 21.75 6V22C21.75 22.41 21.41 22.75 21 22.75ZM3.75 21.25H20.25V6C20.25 3.78 19.22 2.75 17 2.75H7C4.78 2.75 3.75 3.78 3.75 6V21.25Z" fill="#292D32"/>
<path d="M10 17.25H7C6.59 17.25 6.25 16.91 6.25 16.5C6.25 16.09 6.59 15.75 7 15.75H10C10.41 15.75 10.75 16.09 10.75 16.5C10.75 16.91 10.41 17.25 10 17.25Z" fill="#292D32"/>
<path d="M17 17.25H14C13.59 17.25 13.25 16.91 13.25 16.5C13.25 16.09 13.59 15.75 14 15.75H17C17.41 15.75 17.75 16.09 17.75 16.5C17.75 16.91 17.41 17.25 17 17.25Z" fill="#292D32"/>
<path d="M10 12.75H7C6.59 12.75 6.25 12.41 6.25 12C6.25 11.59 6.59 11.25 7 11.25H10C10.41 11.25 10.75 11.59 10.75 12C10.75 12.41 10.41 12.75 10 12.75Z" fill="#292D32"/>
<path d="M17 12.75H14C13.59 12.75 13.25 12.41 13.25 12C13.25 11.59 13.59 11.25 14 11.25H17C17.41 11.25 17.75 11.59 17.75 12C17.75 12.41 17.41 12.75 17 12.75Z" fill="#292D32"/>
<path d="M10 8.25H7C6.59 8.25 6.25 7.91 6.25 7.5C6.25 7.09 6.59 6.75 7 6.75H10C10.41 6.75 10.75 7.09 10.75 7.5C10.75 7.91 10.41 8.25 10 8.25Z" fill="#292D32"/>
<path d="M17 8.25H14C13.59 8.25 13.25 7.91 13.25 7.5C13.25 7.09 13.59 6.75 14 6.75H17C17.41 6.75 17.75 7.09 17.75 7.5C17.75 7.91 17.41 8.25 17 8.25Z" fill="#292D32"/>
</svg>
