<svg width="24" height="24" viewBox="0 0 24 24" fill="none" xmlns="http://www.w3.org/2000/svg">
<path d="M12 22.75C6.07 22.75 1.25 17.93 1.25 12C1.25 6.07 6.07 1.25 12 1.25C17.93 1.25 22.75 6.07 22.75 12C22.75 17.93 17.93 22.75 12 22.75ZM12 2.75C6.9 2.75 2.75 6.9 2.75 12C2.75 17.1 6.9 21.25 12 21.25C17.1 21.25 21.25 17.1 21.25 12C21.25 6.9 17.1 2.75 12 2.75Z" fill="#292D32"/>
<path d="M8.99109 15.6199C6.99109 15.6199 5.37109 13.9999 5.37109 11.9999C5.37109 9.99988 6.99109 8.37988 8.99109 8.37988C9.87109 8.37988 10.7111 8.69991 11.3811 9.27991C11.6911 9.54991 11.7211 10.0299 11.4511 10.3399C11.1811 10.6499 10.7011 10.6799 10.3911 10.4099C10.0011 10.0699 9.51109 9.87988 8.99109 9.87988C7.82109 9.87988 6.87109 10.8299 6.87109 11.9999C6.87109 13.1699 7.82109 14.1199 8.99109 14.1199C9.50109 14.1199 10.0011 13.9299 10.3911 13.5899C10.7011 13.3199 11.1711 13.3499 11.4511 13.6599C11.7211 13.9699 11.6911 14.4498 11.3811 14.7198C10.7111 15.2998 9.86109 15.6199 8.99109 15.6199Z" fill="#292D32"/>
<path d="M15.9911 15.6199C13.9911 15.6199 12.3711 13.9999 12.3711 11.9999C12.3711 9.99988 13.9911 8.37988 15.9911 8.37988C16.8711 8.37988 17.7111 8.69991 18.3811 9.27991C18.6911 9.54991 18.7211 10.0299 18.4511 10.3399C18.1811 10.6499 17.7011 10.6799 17.3911 10.4099C17.0011 10.0699 16.5111 9.87988 15.9911 9.87988C14.8211 9.87988 13.8711 10.8299 13.8711 11.9999C13.8711 13.1699 14.8211 14.1199 15.9911 14.1199C16.5011 14.1199 17.0011 13.9299 17.3911 13.5899C17.7011 13.3199 18.1711 13.3499 18.4511 13.6599C18.7211 13.9699 18.6911 14.4498 18.3811 14.7198C17.7111 15.2998 16.8611 15.6199 15.9911 15.6199Z" fill="#292D32"/>
</svg>
