<svg width="24" height="24" viewBox="0 0 24 24" fill="none" xmlns="http://www.w3.org/2000/svg">
<path d="M16.7004 19.73H7.30042C6.56042 19.73 5.81042 19.2 5.56042 18.51L1.42042 6.91998C0.910423 5.45998 1.28042 4.78998 1.68042 4.48998C2.08042 4.18998 2.83042 4.00998 4.09042 4.90998L7.99042 7.69998C8.11042 7.76998 8.22042 7.79998 8.30042 7.77998C8.39042 7.74998 8.46042 7.66998 8.51042 7.52998L10.2704 2.83998C10.8004 1.43998 11.5804 1.22998 12.0004 1.22998C12.4204 1.22998 13.2004 1.43998 13.7304 2.83998L15.4904 7.52998C15.5404 7.65998 15.6104 7.74998 15.7004 7.77998C15.7904 7.80998 15.9004 7.77998 16.0104 7.68998L19.6704 5.07998C21.0104 4.11998 21.7904 4.30998 22.2204 4.61998C22.6404 4.93998 23.0304 5.64998 22.4804 7.19998L18.4404 18.51C18.1904 19.2 17.4404 19.73 16.7004 19.73ZM2.68042 5.80998C2.70042 5.94998 2.74042 6.14998 2.84042 6.40998L6.98042 18C7.02042 18.1 7.20042 18.23 7.30042 18.23H16.7004C16.8104 18.23 16.9904 18.1 17.0204 18L21.0604 6.69998C21.2004 6.31998 21.2404 6.05998 21.2504 5.90998C21.1004 5.95998 20.8704 6.06998 20.5404 6.30998L16.8804 8.91998C16.3804 9.26998 15.7904 9.37998 15.2604 9.21998C14.7304 9.05998 14.3004 8.63998 14.0804 8.06998L12.3204 3.37998C12.1904 3.02998 12.0704 2.85998 12.0004 2.77998C11.9304 2.85998 11.8104 3.02998 11.6804 3.36998L9.92042 8.05998C9.71042 8.62998 9.28042 9.04998 8.74042 9.20998C8.21042 9.36998 7.61042 9.25998 7.12042 8.90998L3.22042 6.11998C2.99042 5.95998 2.81042 5.85998 2.68042 5.80998Z" fill="#292D32"/>
<path d="M17.5 22.75H6.5C6.09 22.75 5.75 22.41 5.75 22C5.75 21.59 6.09 21.25 6.5 21.25H17.5C17.91 21.25 18.25 21.59 18.25 22C18.25 22.41 17.91 22.75 17.5 22.75Z" fill="#292D32"/>
<path d="M14.5 14.75H9.5C9.09 14.75 8.75 14.41 8.75 14C8.75 13.59 9.09 13.25 9.5 13.25H14.5C14.91 13.25 15.25 13.59 15.25 14C15.25 14.41 14.91 14.75 14.5 14.75Z" fill="#292D32"/>
</svg>
