<svg width="24" height="24" viewBox="0 0 24 24" fill="none" xmlns="http://www.w3.org/2000/svg">
<path d="M4.90926 22.82C3.81926 22.82 2.88926 22.47 2.20926 21.79C1.23926 20.82 0.939261 19.34 1.36926 17.62L3.84926 7.69001C4.27926 5.97001 5.95926 4.30001 7.66926 3.87001L17.5993 1.39001C19.3193 0.960013 20.7993 1.26001 21.7693 2.23001C22.7393 3.20001 23.0393 4.68001 22.6093 6.40001L20.1293 16.33C19.6993 18.05 18.0193 19.72 16.3093 20.15L6.37926 22.63C5.86926 22.75 5.37926 22.82 4.90926 22.82ZM17.9793 2.83001L8.04926 5.32001C6.87926 5.61001 5.60926 6.88001 5.30926 8.05001L2.82926 17.98C2.52926 19.17 2.68926 20.14 3.26926 20.73C3.84926 21.31 4.82926 21.47 6.01926 21.17L15.9493 18.69C17.1193 18.4 18.3893 17.12 18.6793 15.96L21.1593 6.03001C21.4593 4.84001 21.2993 3.87001 20.7193 3.28001C20.1393 2.69001 19.1693 2.54001 17.9793 2.83001Z" fill="#292D32"/>
<path d="M12 16.25C9.66 16.25 7.75 14.34 7.75 12C7.75 9.66 9.66 7.75 12 7.75C14.34 7.75 16.25 9.66 16.25 12C16.25 14.34 14.34 16.25 12 16.25ZM12 9.25C10.48 9.25 9.25 10.48 9.25 12C9.25 13.52 10.48 14.75 12 14.75C13.52 14.75 14.75 13.52 14.75 12C14.75 10.48 13.52 9.25 12 9.25Z" fill="#292D32"/>
</svg>
