<svg width="24" height="24" viewBox="0 0 24 24" fill="none" xmlns="http://www.w3.org/2000/svg">
<path d="M17.7395 22.7502H7.63953C7.32953 22.7502 7.04953 22.5603 6.93953 22.2603C6.82953 21.9603 6.90952 21.6402 7.14952 21.4302C7.84952 20.8102 8.25952 19.9202 8.25952 18.9902C8.25952 17.2002 6.79952 15.7402 5.00952 15.7402C4.26952 15.7402 3.56952 15.9903 2.97952 16.4603C2.74952 16.6403 2.44953 16.6702 2.18953 16.5502C1.92953 16.4302 1.76953 16.1602 1.76953 15.8702V11.5002C1.76953 9.01024 3.78953 6.99023 6.27953 6.99023H17.7595C20.2495 6.99023 22.2695 9.01024 22.2695 11.5002V12.9402C22.2695 13.3502 21.9295 13.6902 21.5195 13.6902H19.4995C19.1495 13.6902 18.8295 13.8202 18.5995 14.0602L18.5895 14.0703C18.3095 14.3403 18.1795 14.7103 18.2095 15.0903C18.2695 15.7503 18.8995 16.2803 19.6195 16.2803H21.5195C21.9295 16.2803 22.2695 16.6203 22.2695 17.0303V18.2202C22.2495 20.7302 20.2295 22.7502 17.7395 22.7502ZM9.17952 21.2502H17.7395C19.3995 21.2502 20.7495 19.9002 20.7495 18.2402V17.8002H19.5995C18.0895 17.8002 16.8095 16.6802 16.6895 15.2402C16.6095 14.4202 16.9095 13.6103 17.5095 13.0203C18.0295 12.4903 18.7295 12.2003 19.4795 12.2003H20.7495V11.5103C20.7495 9.85025 19.3995 8.50024 17.7395 8.50024H6.25952C4.59952 8.50024 3.24953 9.85025 3.24953 11.5103V14.5903C3.80953 14.3703 4.39953 14.2502 4.99953 14.2502C7.61953 14.2502 9.74953 16.3802 9.74953 19.0002C9.74953 19.7902 9.54952 20.5702 9.17952 21.2502Z" fill="#292D32"/>
<path d="M2.5 12.2603C2.09 12.2603 1.75 11.9203 1.75 11.5103V7.84035C1.75 6.35035 2.68001 4.9903 4.07001 4.4703L12.01 1.4703C12.83 1.1703 13.75 1.28035 14.46 1.78035C15.17 2.28035 15.6 3.09034 15.6 3.95034V7.75033C15.6 8.16033 15.26 8.50033 14.85 8.50033C14.44 8.50033 14.1 8.16033 14.1 7.75033V3.95034C14.1 3.57034 13.92 3.23034 13.61 3.01034C13.29 2.79034 12.9 2.74032 12.54 2.87032L4.60001 5.87032C3.78001 6.18032 3.25 6.95035 3.25 7.84035V11.5103C3.25 11.9203 2.91 12.2603 2.5 12.2603Z" fill="#292D32"/>
<path d="M19.6005 17.8002C18.0905 17.8002 16.8105 16.6802 16.6905 15.2402C16.6105 14.4102 16.9105 13.6002 17.5105 13.0102C18.0205 12.4902 18.7205 12.2002 19.4705 12.2002H21.5505C22.5405 12.2302 23.3005 13.0102 23.3005 13.9702V16.0302C23.3005 16.9902 22.5405 17.7702 21.5805 17.8002H19.6005ZM21.5305 13.7002H19.4805C19.1305 13.7002 18.8105 13.8302 18.5805 14.0702C18.2905 14.3502 18.1505 14.7302 18.1905 15.1102C18.2505 15.7702 18.8805 16.3002 19.6005 16.3002H21.5605C21.6905 16.3002 21.8105 16.1802 21.8105 16.0302V13.9702C21.8105 13.8202 21.6905 13.7102 21.5305 13.7002Z" fill="#292D32"/>
<path d="M14 12.75H7C6.59 12.75 6.25 12.41 6.25 12C6.25 11.59 6.59 11.25 7 11.25H14C14.41 11.25 14.75 11.59 14.75 12C14.75 12.41 14.41 12.75 14 12.75Z" fill="#292D32"/>
<path d="M5 23.75C2.38 23.75 0.25 21.62 0.25 19C0.25 17.54 0.899999 16.19 2.03 15.29C2.87 14.62 3.93 14.25 5 14.25C7.62 14.25 9.75 16.38 9.75 19C9.75 20.36 9.16 21.66 8.14 22.56C7.26 23.33 6.15 23.75 5 23.75ZM5 15.75C4.26 15.75 3.56 16 2.97 16.47C2.2 17.08 1.75 18.01 1.75 19C1.75 20.79 3.21 22.25 5 22.25C5.78 22.25 6.53999 21.96 7.14999 21.44C7.84999 20.82 8.25 19.94 8.25 19C8.25 17.21 6.79 15.75 5 15.75Z" fill="#292D32"/>
<path d="M3.99988 20.75C3.74988 20.75 3.49988 20.62 3.35988 20.39C3.14988 20.03 3.25988 19.57 3.61988 19.36L4.50988 18.83V17.75C4.50988 17.34 4.84988 17 5.25988 17C5.66988 17 6.00988 17.34 6.00988 17.75V19.25C6.00988 19.51 5.86988 19.76 5.64988 19.89L4.39988 20.64C4.26988 20.72 4.12988 20.75 3.99988 20.75Z" fill="#292D32"/>
</svg>
