<svg width="24" height="24" viewBox="0 0 24 24" fill="none" xmlns="http://www.w3.org/2000/svg">
<path d="M9 10.75C7.48 10.75 6.25 9.52 6.25 8C6.25 6.48 7.48 5.25 9 5.25C10.52 5.25 11.75 6.48 11.75 8C11.75 9.52 10.52 10.75 9 10.75ZM9 6.75C8.31 6.75 7.75 7.31 7.75 8C7.75 8.69 8.31 9.25 9 9.25C9.69 9.25 10.25 8.69 10.25 8C10.25 7.31 9.69 6.75 9 6.75Z" fill="#292D32"/>
<path d="M15 22.75H9C3.57 22.75 1.25 20.43 1.25 15V9C1.25 3.57 3.57 1.25 9 1.25H13C13.41 1.25 13.75 1.59 13.75 2C13.75 2.41 13.41 2.75 13 2.75H9C4.39 2.75 2.75 4.39 2.75 9V15C2.75 19.61 4.39 21.25 9 21.25H15C19.61 21.25 21.25 19.61 21.25 15V10C21.25 9.59 21.59 9.25 22 9.25C22.41 9.25 22.75 9.59 22.75 10V15C22.75 20.43 20.43 22.75 15 22.75Z" fill="#292D32"/>
<path d="M21.25 5.75H15.75C15.34 5.75 15 5.41 15 5C15 4.59 15.34 4.25 15.75 4.25H21.25C21.66 4.25 22 4.59 22 5C22 5.41 21.66 5.75 21.25 5.75Z" fill="#292D32"/>
<path d="M18.5 8.5C18.09 8.5 17.75 8.16 17.75 7.75V2.25C17.75 1.84 18.09 1.5 18.5 1.5C18.91 1.5 19.25 1.84 19.25 2.25V7.75C19.25 8.16 18.91 8.5 18.5 8.5Z" fill="#292D32"/>
<path d="M2.66932 19.7001C2.42932 19.7001 2.18932 19.5801 2.04932 19.3701C1.81932 19.0301 1.90932 18.5601 2.24932 18.3301L7.17932 15.0201C8.25932 14.3001 9.74932 14.3801 10.7293 15.2101L11.0593 15.5001C11.5593 15.9301 12.4093 15.9301 12.8993 15.5001L17.0593 11.9301C18.1293 11.0201 19.7893 11.0201 20.8593 11.9301L22.4893 13.3301C22.7993 13.6001 22.8393 14.0701 22.5693 14.3901C22.2993 14.7001 21.8293 14.7401 21.5093 14.4701L19.8793 13.0701C19.3793 12.6401 18.5293 12.6401 18.0393 13.0701L13.8793 16.6401C12.8193 17.5501 11.1493 17.5501 10.0793 16.6401L9.74932 16.3501C9.28932 15.9601 8.52932 15.9201 8.01932 16.2701L3.09932 19.5801C2.95932 19.6601 2.80932 19.7001 2.66932 19.7001Z" fill="#292D32"/>
</svg>
