<svg width="24" height="24" viewBox="0 0 24 24" fill="none" xmlns="http://www.w3.org/2000/svg">
<path d="M17.2004 22.7499C15.6304 22.7499 14.1304 22.0799 13.0704 20.8999C12.1504 19.8699 11.6504 18.5599 11.6504 17.1999C11.6504 14.1399 14.1404 11.6499 17.2004 11.6499C18.7404 11.6499 20.1704 12.2699 21.2404 13.3899C21.2704 13.4199 21.3004 13.4599 21.3204 13.4899C22.2604 14.5499 22.7504 15.8399 22.7504 17.1899C22.7504 20.2599 20.2604 22.7499 17.2004 22.7499ZM17.2004 13.1499C14.9704 13.1499 13.1504 14.9699 13.1504 17.1999C13.1504 18.1899 13.5204 19.1499 14.1904 19.8999C14.9604 20.7599 16.0604 21.2499 17.2004 21.2499C19.4304 21.2499 21.2504 19.4299 21.2504 17.1999C21.2504 16.1699 20.8604 15.1899 20.1404 14.4299C20.1204 14.4099 20.1004 14.3799 20.0804 14.3599C19.3104 13.5799 18.2904 13.1499 17.2004 13.1499Z" fill="#292D32"/>
<path d="M18.4789 19.2899C18.2889 19.2899 18.0989 19.22 17.9489 19.07L15.4089 16.53C15.1189 16.24 15.1189 15.7599 15.4089 15.4699C15.6989 15.1799 16.1789 15.1799 16.4689 15.4699L19.0089 18.01C19.2989 18.3 19.2989 18.78 19.0089 19.07C18.8689 19.21 18.6689 19.2899 18.4789 19.2899Z" fill="#292D32"/>
<path d="M15.9193 19.32C15.7293 19.32 15.5394 19.2499 15.3894 19.0999C15.0994 18.8099 15.0994 18.3299 15.3894 18.0399L17.9294 15.5C18.2194 15.21 18.6994 15.21 18.9894 15.5C19.2794 15.79 19.2794 16.27 18.9894 16.56L16.4494 19.0999C16.2994 19.2399 16.1093 19.32 15.9193 19.32Z" fill="#292D32"/>
<path d="M12 21.6501C11.69 21.6501 11.38 21.6101 11.13 21.5201C8.57 20.6501 1.25 16.4101 1.25 8.69012C1.25 5.19012 4.08 2.3501 7.56 2.3501C9.23 2.3501 10.83 3.02012 12 4.19012C13.17 3.02012 14.78 2.3501 16.44 2.3501C19.92 2.3501 22.75 5.19012 22.75 8.69012C22.75 10.6401 22.28 12.5101 21.35 14.2601C21.24 14.4701 21.03 14.6201 20.79 14.6501C20.55 14.6801 20.31 14.6001 20.14 14.4201C19.36 13.6001 18.31 13.1401 17.19 13.1401C14.96 13.1401 13.14 14.9601 13.14 17.1901C13.14 18.1801 13.51 19.1401 14.18 19.8901C14.34 20.0701 14.4 20.3101 14.35 20.5401C14.3 20.7701 14.14 20.9701 13.93 21.0701C13.53 21.2501 13.17 21.4001 12.84 21.5101C12.61 21.6101 12.31 21.6501 12 21.6501ZM7.56 3.8501C4.91 3.8501 2.75 6.02012 2.75 8.69012C2.75 15.5301 9.31999 19.3101 11.62 20.1001C11.8 20.1701 12.19 20.1601 12.37 20.1001C12.4 20.0901 12.43 20.0801 12.46 20.0701C11.94 19.2101 11.65 18.2201 11.65 17.2001C11.65 14.1401 14.14 11.6501 17.2 11.6501C18.38 11.6501 19.5 12.0201 20.44 12.6901C20.98 11.4101 21.25 10.0701 21.25 8.69012C21.25 6.02012 19.09 3.8501 16.44 3.8501C14.94 3.8501 13.5 4.57015 12.6 5.78015C12.32 6.16015 11.68 6.16015 11.4 5.78015C10.5 4.57015 9.06 3.8501 7.56 3.8501Z" fill="#292D32"/>
</svg>
