<svg width="24" height="24" viewBox="0 0 24 24" fill="none" xmlns="http://www.w3.org/2000/svg">
<path d="M7.93974 15.2602C7.84974 15.2602 7.76973 15.2502 7.67973 15.2102C6.86973 14.9102 6.18973 14.3202 5.75973 13.5502C4.75973 11.7502 5.37974 9.40017 7.12974 8.31017L9.46974 6.86015C10.3297 6.33015 11.3397 6.17018 12.2997 6.42018C13.2597 6.67018 14.0697 7.30016 14.5597 8.18016C15.5597 9.98016 14.9397 12.3302 13.1897 13.4202L12.9297 13.6102C12.5897 13.8502 12.1197 13.7702 11.8797 13.4402C11.6397 13.1002 11.7197 12.6302 12.0497 12.3902L12.3597 12.1702C13.4797 11.4702 13.8597 10.0202 13.2497 8.91017C12.9597 8.39017 12.4897 8.02016 11.9297 7.87016C11.3697 7.72016 10.7797 7.82017 10.2697 8.13017L7.92973 9.58016C6.84973 10.2502 6.46974 11.7002 7.07974 12.8202C7.32974 13.2702 7.72974 13.6202 8.20974 13.8002C8.59974 13.9402 8.79973 14.3702 8.64973 14.7602C8.53973 15.0702 8.24974 15.2602 7.93974 15.2602Z" fill="#292D32"/>
<path d="M12.66 17.6501C12.36 17.6501 12.05 17.6101 11.75 17.5301C10.79 17.2801 9.97997 16.6501 9.49997 15.7701C8.49997 13.9701 9.11996 11.6201 10.87 10.5301L11.13 10.3401C11.47 10.1001 11.94 10.1801 12.18 10.5101C12.42 10.8501 12.34 11.3201 12.01 11.5601L11.7 11.7801C10.58 12.4801 10.2 13.9301 10.81 15.0401C11.1 15.5601 11.57 15.9301 12.13 16.0801C12.69 16.2301 13.28 16.1301 13.79 15.8201L16.13 14.3701C17.21 13.7001 17.59 12.2501 16.98 11.1301C16.73 10.6801 16.33 10.3301 15.85 10.1501C15.46 10.0101 15.26 9.58011 15.41 9.19011C15.55 8.80011 15.98 8.60011 16.37 8.75011C17.18 9.05011 17.86 9.64012 18.29 10.4101C19.29 12.2101 18.67 14.5601 16.92 15.6501L14.58 17.1001C13.99 17.4601 13.33 17.6501 12.66 17.6501Z" fill="#292D32"/>
<path d="M12 22.75C6.07 22.75 1.25 17.93 1.25 12C1.25 6.07 6.07 1.25 12 1.25C17.93 1.25 22.75 6.07 22.75 12C22.75 17.93 17.93 22.75 12 22.75ZM12 2.75C6.9 2.75 2.75 6.9 2.75 12C2.75 17.1 6.9 21.25 12 21.25C17.1 21.25 21.25 17.1 21.25 12C21.25 6.9 17.1 2.75 12 2.75Z" fill="#292D32"/>
</svg>
