<svg width="24" height="24" viewBox="0 0 24 24" fill="none" xmlns="http://www.w3.org/2000/svg">
<path d="M11 22.75H9C3.57 22.75 1.25 20.43 1.25 15V9C1.25 3.57 3.57 1.25 9 1.25H15C20.43 1.25 22.75 3.57 22.75 9V10C22.75 10.41 22.41 10.75 22 10.75C21.59 10.75 21.25 10.41 21.25 10V9C21.25 4.39 19.61 2.75 15 2.75H9C4.39 2.75 2.75 4.39 2.75 9V15C2.75 19.61 4.39 21.25 9 21.25H11C11.41 21.25 11.75 21.59 11.75 22C11.75 22.41 11.41 22.75 11 22.75Z" fill="#292D32"/>
<path d="M15.5098 22.75C13.9998 22.75 12.7598 21.52 12.7598 20C12.7598 18.48 13.9898 17.25 15.5098 17.25C17.0298 17.25 18.2598 18.48 18.2598 20C18.2598 21.52 17.0198 22.75 15.5098 22.75ZM15.5098 18.76C14.8198 18.76 14.2598 19.32 14.2598 20.01C14.2598 20.7 14.8198 21.26 15.5098 21.26C16.1998 21.26 16.7598 20.7 16.7598 20.01C16.7598 19.32 16.1998 18.76 15.5098 18.76Z" fill="#292D32"/>
<path d="M17.5098 20.7498C17.0998 20.7498 16.7598 20.4098 16.7598 19.9998V13.0098C16.7598 12.5998 17.0998 12.2598 17.5098 12.2598C17.9198 12.2598 18.2598 12.5998 18.2598 13.0098V19.9998C18.2598 20.4198 17.9198 20.7498 17.5098 20.7498Z" fill="#292D32"/>
<path d="M21.0798 16.4998C20.8698 16.4998 20.6598 16.4698 20.4498 16.3898L18.2397 15.6597C17.3897 15.3797 16.7598 14.4897 16.7598 13.5997V13.0098C16.7598 12.3998 17.0098 11.8698 17.4598 11.5498C17.9098 11.2298 18.4898 11.1597 19.0598 11.3497L21.2698 12.0898C22.1198 12.3698 22.7498 13.2598 22.7498 14.1498V14.7398C22.7498 15.3498 22.4997 15.8798 22.0497 16.1998C21.7697 16.3998 21.4298 16.4998 21.0798 16.4998ZM18.4297 12.7498C18.3897 12.7498 18.3498 12.7598 18.3298 12.7698C18.2898 12.7998 18.2598 12.8698 18.2598 13.0098V13.5997C18.2598 13.8397 18.4897 14.1598 18.7197 14.2398L20.9297 14.9697C21.0597 15.0097 21.1497 14.9997 21.1797 14.9797C21.2197 14.9497 21.2598 14.8798 21.2598 14.7398V14.1498C21.2598 13.9098 21.0297 13.5898 20.7997 13.5098L18.5898 12.7798C18.5198 12.7598 18.4697 12.7498 18.4297 12.7498Z" fill="#292D32"/>
</svg>
