<svg width="24" height="24" viewBox="0 0 24 24" fill="none" xmlns="http://www.w3.org/2000/svg">
<path d="M15.5 22.75H8.5C4.79 22.75 2.75 20.71 2.75 17V7C2.75 3.29 4.79 1.25 8.5 1.25H15.5C19.15 1.25 21.25 3.35 21.25 7V8C21.25 8.96 20.46 9.75 19.5 9.75C19.36 9.75 19.25 9.86 19.25 10V12.17C19.25 12.5 19.38 12.82 19.62 13.05L20.45 13.88C20.97 14.4 21.26 15.09 21.26 15.82V17C21.25 20.65 19.15 22.75 15.5 22.75ZM8.5 2.75C5.64 2.75 4.25 4.14 4.25 7V17C4.25 19.86 5.64 21.25 8.5 21.25H15.5C18.32 21.25 19.75 19.82 19.75 17V15.83C19.75 15.5 19.62 15.18 19.38 14.95L18.55 14.12C18.03 13.6 17.74 12.91 17.74 12.18V10C17.74 9.04 18.53 8.25 19.49 8.25C19.63 8.25 19.74 8.14 19.74 8V7C19.74 4.18 18.31 2.75 15.49 2.75H8.5Z" fill="#292D32"/>
<path d="M16.0105 22.72C15.6005 22.72 15.2605 22.39 15.2605 21.98L15.2305 18.99C15.2305 18.3 14.6605 17.75 13.9805 17.75H9.98047C9.65047 17.75 9.33047 17.88 9.09047 18.12C8.86047 18.35 8.73047 18.67 8.73047 19L8.74047 21.97C8.74047 22.38 8.41047 22.72 7.99047 22.72C7.58047 22.72 7.24047 22.39 7.24047 21.97L7.23047 19C7.23047 18.26 7.51047 17.57 8.03047 17.05C8.55047 16.53 9.24047 16.24 9.98047 16.24H13.9905C15.5005 16.24 16.7305 17.47 16.7405 18.97L16.7705 21.95C16.7705 22.38 16.4305 22.72 16.0105 22.72C16.0205 22.72 16.0105 22.72 16.0105 22.72Z" fill="#292D32"/>
<path d="M13.9697 8.53003H7.96973C7.55973 8.53003 7.21973 8.19003 7.21973 7.78003C7.21973 7.37003 7.55973 7.03003 7.96973 7.03003H13.9697C14.3797 7.03003 14.7197 7.37003 14.7197 7.78003C14.7197 8.19003 14.3897 8.53003 13.9697 8.53003Z" fill="#292D32"/>
</svg>
