<svg width="24" height="24" viewBox="0 0 24 24" fill="none" xmlns="http://www.w3.org/2000/svg">
<path d="M15 22.75H9C3.57 22.75 1.25 20.43 1.25 15V9C1.25 3.57 3.57 1.25 9 1.25H15C20.43 1.25 22.75 3.57 22.75 9V15C22.75 20.43 20.43 22.75 15 22.75ZM9 2.75C4.39 2.75 2.75 4.39 2.75 9V15C2.75 19.61 4.39 21.25 9 21.25H15C19.61 21.25 21.25 19.61 21.25 15V9C21.25 4.39 19.61 2.75 15 2.75H9Z" fill="#292D32"/>
<path d="M12 18.0098C8.83 18.0098 6.25 15.4298 6.25 12.2598C6.25 9.08977 8.83 6.50977 12 6.50977C12.64 6.50977 13.28 6.59976 13.89 6.78976C14.29 6.90976 14.51 7.32977 14.39 7.72977C14.27 8.12977 13.85 8.34977 13.45 8.22977C12.99 8.08977 12.5 8.01976 12 8.01976C9.66 8.01976 7.75 9.92976 7.75 12.2698C7.75 14.6098 9.66 16.5198 12 16.5198C14.34 16.5198 16.25 14.6098 16.25 12.2698C16.25 11.4198 16 10.6098 15.54 9.90977C15.31 9.56977 15.4 9.09977 15.75 8.86977C16.09 8.63977 16.56 8.72977 16.79 9.07977C17.42 10.0298 17.76 11.1298 17.76 12.2698C17.75 15.4398 15.17 18.0098 12 18.0098Z" fill="#292D32"/>
<path d="M14.3811 8.39996C14.1711 8.39996 13.9611 8.30996 13.8111 8.13996L12.1411 6.22996C11.8711 5.91996 11.9012 5.43995 12.2112 5.16995C12.5212 4.89995 13.0011 4.92995 13.2711 5.23995L14.9411 7.14996C15.2111 7.45996 15.1811 7.93996 14.8711 8.20996C14.7311 8.33996 14.5611 8.39996 14.3811 8.39996Z" fill="#292D32"/>
<path d="M12.4399 9.81986C12.2099 9.81986 11.9799 9.70986 11.8299 9.50986C11.5899 9.17986 11.6599 8.70986 11.9899 8.45986L13.9299 7.03986C14.2599 6.79986 14.7299 6.86986 14.9799 7.19986C15.2199 7.52986 15.1499 7.99986 14.8199 8.24986L12.8799 9.66986C12.7499 9.76986 12.5899 9.81986 12.4399 9.81986Z" fill="#292D32"/>
</svg>
