<svg width="24" height="24" viewBox="0 0 24 24" fill="none" xmlns="http://www.w3.org/2000/svg">
<path d="M11.9693 22.7499C11.3593 22.7499 10.7293 22.6999 10.0893 22.5899C5.68932 21.8399 2.09932 18.2399 1.36932 13.8199C0.789319 10.3099 1.87932 6.87991 4.36932 4.38991C6.85932 1.89991 10.2893 0.819909 13.7893 1.38991C18.1993 2.11991 21.8093 5.69991 22.5593 10.0999C22.7193 11.0699 22.7593 12.0199 22.6793 12.9199V12.9299C22.6593 13.1599 22.6193 13.3799 22.5593 13.5999C22.4893 13.8499 22.2993 14.0399 22.0593 14.1199C21.8193 14.1999 21.5493 14.1399 21.3493 13.9799C20.4093 13.1899 19.2093 12.7499 17.9693 12.7499C15.0693 12.7499 12.7193 15.1099 12.7193 17.9999C12.7193 19.2399 13.1593 20.4399 13.9493 21.3799C14.1193 21.5799 14.1693 21.8399 14.0893 22.0899C14.0093 22.3399 13.8193 22.5199 13.5693 22.5899C13.3493 22.6499 13.1293 22.6899 12.8993 22.7099C12.5993 22.7399 12.2893 22.7499 11.9693 22.7499ZM11.9693 2.74991C9.51932 2.74991 7.19932 3.69991 5.43932 5.45991C3.29932 7.59991 2.35932 10.5599 2.85932 13.5799C3.48932 17.3699 6.55932 20.4699 10.3493 21.1099C10.9493 21.2099 11.5193 21.2699 12.0693 21.2499C11.5293 20.2599 11.2393 19.1399 11.2393 17.9999C11.2393 14.2799 14.2693 11.2499 17.9893 11.2499C19.1293 11.2499 20.2493 11.5399 21.2393 12.0799C21.2493 11.5299 21.1993 10.9599 21.0993 10.3599C20.4593 6.57991 17.3593 3.49991 13.5693 2.87991C13.0193 2.78991 12.4893 2.74991 11.9693 2.74991Z" fill="#292D32"/>
<path d="M13.3807 22.61C13.1607 22.61 12.9507 22.52 12.8107 22.34C11.7907 21.13 11.2207 19.59 11.2207 18C11.2207 14.28 14.2507 11.25 17.9707 11.25C19.5607 11.25 21.1007 11.81 22.3107 12.84C22.5407 13.03 22.6307 13.34 22.5507 13.62C22.3707 14.24 22.0507 14.78 21.5907 15.24L15.2107 21.62C14.7507 22.08 14.2007 22.4 13.5907 22.58C13.5207 22.6 13.4507 22.61 13.3807 22.61ZM17.9707 12.75C15.0707 12.75 12.7207 15.11 12.7207 18C12.7207 19.06 13.0407 20.09 13.6307 20.95C13.8207 20.85 13.9907 20.72 14.1507 20.56L20.5307 14.18C20.6907 14.02 20.8207 13.85 20.9207 13.66C20.0607 13.07 19.0307 12.75 17.9707 12.75Z" fill="#292D32"/>
</svg>
