<svg width="24" height="24" viewBox="0 0 24 24" fill="none" xmlns="http://www.w3.org/2000/svg">
<path d="M21.3299 7.91979C20.9199 7.91979 20.5799 7.57979 20.5799 7.16979V5.34979C20.5799 4.61979 19.9899 4.02979 19.2599 4.02979H4.73992C4.00992 4.02979 3.41992 4.61979 3.41992 5.34979V7.17978C3.41992 7.58978 3.07992 7.92978 2.66992 7.92978C2.25992 7.92978 1.91992 7.58979 1.91992 7.16979V5.34979C1.91992 3.78979 3.18992 2.52979 4.73992 2.52979H19.2599C20.8199 2.52979 22.0799 3.79979 22.0799 5.34979V7.17978C22.0799 7.58978 21.7499 7.91979 21.3299 7.91979Z" fill="#292D32"/>
<path d="M12 21.4699C11.59 21.4699 11.25 21.1299 11.25 20.7199V4.10986C11.25 3.69986 11.59 3.35986 12 3.35986C12.41 3.35986 12.75 3.69986 12.75 4.10986V20.7199C12.75 21.1399 12.41 21.4699 12 21.4699Z" fill="#292D32"/>
<path d="M15.9405 21.4702H8.06055C7.65055 21.4702 7.31055 21.1302 7.31055 20.7202C7.31055 20.3102 7.65055 19.9702 8.06055 19.9702H15.9405C16.3505 19.9702 16.6905 20.3102 16.6905 20.7202C16.6905 21.1302 16.3505 21.4702 15.9405 21.4702Z" fill="#292D32"/>
</svg>
