<svg width="24" height="24" viewBox="0 0 24 24" fill="none" xmlns="http://www.w3.org/2000/svg">
<path d="M13.8801 20.5901C13.0901 20.5901 12.2201 20.3101 11.3501 19.7601L8.43008 17.9301C8.23008 17.8101 8.00008 17.7401 7.77008 17.7401H6.33008C3.91008 17.7401 2.58008 16.4101 2.58008 13.9901V9.99011C2.58008 7.57011 3.91008 6.24011 6.33008 6.24011H7.76008C7.99008 6.24011 8.22008 6.17011 8.42008 6.05011L11.3401 4.22011C12.8001 3.31011 14.2201 3.14011 15.3401 3.76011C16.4601 4.38011 17.0701 5.67011 17.0701 7.40011V16.5701C17.0701 18.2901 16.4501 19.5901 15.3401 20.2101C14.9001 20.4701 14.4101 20.5901 13.8801 20.5901ZM6.33008 7.75011C4.75008 7.75011 4.08008 8.42011 4.08008 10.0001V14.0001C4.08008 15.5801 4.75008 16.2501 6.33008 16.2501H7.76008C8.28008 16.2501 8.78008 16.3901 9.22008 16.6701L12.1401 18.5001C13.1101 19.1001 14.0101 19.2601 14.6201 18.9201C15.2301 18.5801 15.5801 17.7301 15.5801 16.6001V7.41011C15.5801 6.27011 15.2301 5.42011 14.6201 5.09011C14.0101 4.75011 13.1101 4.90011 12.1401 5.51011L9.22008 7.33011C8.78008 7.61011 8.28008 7.75011 7.76008 7.75011H6.33008Z" fill="#292D32"/>
<path d="M19.3304 16.7498C19.1704 16.7498 19.0204 16.6998 18.8804 16.5998C18.5504 16.3498 18.4804 15.8798 18.7304 15.5498C20.3004 13.4598 20.3004 10.5398 18.7304 8.44978C18.4804 8.11978 18.5504 7.64978 18.8804 7.39978C19.2104 7.14978 19.6804 7.21978 19.9304 7.54978C21.9004 10.1698 21.9004 13.8298 19.9304 16.4498C19.7904 16.6498 19.5604 16.7498 19.3304 16.7498Z" fill="#292D32"/>
</svg>
