<svg width="24" height="24" viewBox="0 0 24 24" fill="none" xmlns="http://www.w3.org/2000/svg">
<path d="M17 22.75H12C11.59 22.75 11.25 22.41 11.25 22C11.25 21.59 11.59 21.25 12 21.25H17C19.58 21.25 21.25 19.58 21.25 17V12C21.25 9.71 19.83 8 17.71 7.75H17H7C6.72 7.75 6.62 7.75 6.44 7.81C6.39 7.83 6.34 7.84003 6.29 7.84003C4.08 8.10003 2.75 9.65 2.75 12V13C2.75 13.41 2.41 13.75 2 13.75C1.59 13.75 1.25 13.41 1.25 13V12C1.25 8.94 3.13 6.72999 6.04 6.35999C6.42 6.24999 6.7 6.25 7 6.25H17.8C20.8 6.6 22.75 8.91 22.75 12V17C22.75 20.44 20.44 22.75 17 22.75Z" fill="#292D32"/>
<path d="M6.19983 7.84996C5.99983 7.84996 5.80984 7.76999 5.66984 7.62999C5.46984 7.42999 5.39984 7.12997 5.48984 6.85997C5.64984 6.38997 5.93983 6.10001 6.26983 5.77001L9.45984 2.47997C11.1098 0.829969 13.8898 0.829959 15.5298 2.46996L17.3298 4.27001C17.9898 4.93001 18.4098 5.83996 18.5398 6.90996C18.5698 7.11996 18.4998 7.33999 18.3598 7.49999C18.2198 7.65999 18.0098 7.74999 17.7998 7.74999H6.99984C6.71984 7.74999 6.61984 7.74999 6.43984 7.80999C6.35984 7.83999 6.27983 7.84996 6.19983 7.84996ZM7.88984 6.24999H16.8498C16.7298 5.92999 16.5398 5.61001 16.2698 5.33001L14.4698 3.53002C13.3998 2.46002 11.5998 2.46002 10.5298 3.53002L7.88984 6.24999Z" fill="#292D32"/>
<path d="M22 17.25H19C17.48 17.25 16.25 16.02 16.25 14.5C16.25 12.98 17.48 11.75 19 11.75H22C22.41 11.75 22.75 12.09 22.75 12.5C22.75 12.91 22.41 13.25 22 13.25H19C18.31 13.25 17.75 13.81 17.75 14.5C17.75 15.19 18.31 15.75 19 15.75H22C22.41 15.75 22.75 16.09 22.75 16.5C22.75 16.91 22.41 17.25 22 17.25Z" fill="#292D32"/>
<path d="M5.79961 22.15C3.61961 22.15 1.84961 20.38 1.84961 18.2C1.84961 16.02 3.61961 14.25 5.79961 14.25C7.97961 14.25 9.74961 16.02 9.74961 18.2C9.74961 20.38 7.97961 22.15 5.79961 22.15ZM5.79961 15.75C4.44961 15.75 3.34961 16.85 3.34961 18.2C3.34961 19.55 4.44961 20.65 5.79961 20.65C7.14961 20.65 8.24961 19.55 8.24961 18.2C8.24961 16.85 7.14961 15.75 5.79961 15.75Z" fill="#292D32"/>
<path d="M1.99945 22.75C1.80945 22.75 1.61945 22.68 1.46945 22.53C1.17945 22.24 1.17945 21.7599 1.46945 21.4699L2.46945 20.4699C2.75945 20.1799 3.23945 20.1799 3.52945 20.4699C3.81945 20.7599 3.81945 21.24 3.52945 21.53L2.52945 22.53C2.37945 22.68 2.18945 22.75 1.99945 22.75Z" fill="#292D32"/>
</svg>
