<svg xmlns="http://www.w3.org/2000/svg" width="60.231" height="80.307" viewBox="0 0 60.231 80.307">
  <path id="Trazado_1238" data-name="Trazado 1238" d="M458.066,523.658a3.218,3.218,0,0,1-3.014-3.192c0-3.865,9.2-6.721,19.665-6.721.954,0,1.586,0,1.586-.841,0-1.511-3.17-2.015-3.17-4.535,0-2.69,3.012-4.369,6.819-4.369s6.819,1.679,6.819,4.369c0,2.52-3.172,2.856-3.172,4.535,0,.5.477.841,1.586.841,10.468,0,19.826,2.688,19.826,6.721A3.108,3.108,0,0,1,502,523.658Zm47.419,15.288a11.269,11.269,0,0,1,4.6,11.255l-4.439,25.369a10.371,10.371,0,0,1-9.993,8.736H464.569a10.366,10.366,0,0,1-9.991-8.736L450.136,550.2a11.244,11.244,0,0,1,4.758-11.087c2.221-1.681,2.7-4.537,0-5.546-3.807-1.511-3.014-6.384.793-6.384h23.156c3.646,0,8.088,2.859,8.088,12.1s-4.126,8.4-4.126,14.952c0,2.856,2.221,5.88,4.919,6.216,4.6.5,7.3-1.345,7.3-8.066,0-6.886-3.807-10.079-3.807-15.793,0-6.886,4.123-9.574,6.819-9.574h6.66c3.807,0,4.6,4.871.793,6.382C502.789,534.577,503.266,537.433,505.485,538.946Z" transform="translate(-450 -504)" fill="#16a5f3" fill-rule="evenodd"/>
</svg>
