<svg width="24" height="24" viewBox="0 0 24 24" fill="none" xmlns="http://www.w3.org/2000/svg">
<path d="M20.4192 9.00047C20.2792 8.99047 20.0992 8.98047 19.8992 8.98047C19.5092 8.98047 19.1992 9.29047 19.1992 9.68047V14.3305C19.1992 14.7205 19.5092 15.0305 19.8992 15.0305C20.0992 15.0305 20.2692 15.0205 20.4392 15.0105C21.9992 14.8305 21.9992 13.7305 21.9992 12.9305V11.0705C21.9992 10.2705 21.9992 9.17047 20.4192 9.00047Z" fill="#292D32"/>
<path opacity="0.4" d="M14.5 4.86906L5.52 19.0891C2.87 18.7091 2 17.2691 2 13.8591V10.1391C2 6.03906 3.25 4.78906 7.35 4.78906H12.93C13.51 4.78906 14.03 4.80906 14.5 4.86906Z" fill="#292D32"/>
<path opacity="0.4" d="M18.2792 10.1386V13.8586C18.2792 16.8086 15.8792 19.2086 12.9292 19.2086H7.44922L16.2292 5.30859C17.7492 5.99859 18.2792 7.45859 18.2792 10.1386Z" fill="#292D32"/>
<path d="M4.00088 22.2504C3.86088 22.2504 3.72088 22.2104 3.60088 22.1304C3.25088 21.9104 3.14088 21.4504 3.37088 21.1004L15.3709 2.10036C15.5909 1.75036 16.0609 1.65036 16.4009 1.87036C16.7509 2.09036 16.8609 2.55036 16.6309 2.90036L4.63088 21.9004C4.49088 22.1304 4.25088 22.2504 4.00088 22.2504Z" fill="#292D32"/>
</svg>
