<svg width="24" height="24" viewBox="0 0 24 24" fill="none" xmlns="http://www.w3.org/2000/svg">
<path opacity="0.4" d="M22 12C22 17.47 17.61 21.91 12.16 22H12C11.39 22 10.79 21.94 10.21 21.84C5.54 20.99 2 16.91 2 12C2 10.29 2.43 8.68 3.19 7.27C3.5 6.7 3.86 6.15 4.27 5.65C6.11 3.42 8.89 2 12 2C15.56 2 18.68 3.86 20.45 6.66C20.8 7.21 21.1 7.8 21.34 8.42C21.77 9.53 22 10.74 22 12Z" fill="#292D32"/>
<path d="M15.0995 8.01844C17.1795 7.84844 19.2695 7.97844 21.3395 8.41844C21.0995 7.79844 20.7995 7.20844 20.4495 6.65844C17.5795 6.18844 14.6795 6.27844 11.8195 6.89844C9.38945 6.97844 7.40945 8.77844 7.03945 11.1284C5.87945 9.44844 4.93945 7.61844 4.26945 5.64844C3.85945 6.14844 3.49945 6.69844 3.18945 7.26844C4.24945 9.95844 5.73945 12.3584 7.64945 14.4684C7.66945 14.4884 7.69945 14.4984 7.71945 14.5184C8.62945 15.9884 10.2395 16.8984 11.9695 16.8984C12.5795 16.8984 13.1695 16.7784 13.7195 16.5684C12.8095 18.4784 11.6495 20.2484 10.2095 21.8384C10.7895 21.9384 11.3895 21.9984 11.9995 21.9984H12.1595C14.0095 19.7384 15.4095 17.1784 16.3495 14.2984C16.7595 13.5584 16.9795 12.7284 16.9795 11.8884C16.9795 10.3184 16.2395 8.93844 15.0995 8.01844ZM14.9295 13.6084C14.3295 14.6584 13.1895 15.3184 11.9695 15.3184C10.7495 15.3184 9.61945 14.6584 9.00945 13.6084C8.69945 13.0684 8.54945 12.4984 8.54945 11.8884C8.54945 9.99844 10.0795 8.46844 11.9695 8.46844C13.8595 8.46844 15.3995 9.99844 15.3995 11.8884C15.3995 12.4984 15.2395 13.0684 14.9295 13.6084Z" fill="#292D32"/>
</svg>
