<svg width="24" height="24" viewBox="0 0 24 24" fill="none" xmlns="http://www.w3.org/2000/svg">
<path opacity="0.4" d="M20.5996 4.10156V6.30156C20.5996 7.10156 20.0996 8.10156 19.5996 8.60156L15.2996 12.4016C14.6996 12.9016 14.2996 13.9016 14.2996 14.7016V19.0016C14.2996 19.6016 13.8996 20.4016 13.3996 20.7016L11.9996 21.6016C10.6996 22.4016 8.89961 21.5016 8.89961 19.9016V14.6016C8.89961 13.9016 8.49961 13.0016 8.09961 12.5016L7.09961 11.4516L12.9196 2.10156H18.5996C19.6996 2.10156 20.5996 3.00156 20.5996 4.10156Z" fill="#292D32"/>
<path d="M11.3004 2.10156L6.12039 10.4116L4.30039 8.50156C3.80039 8.00156 3.40039 7.10156 3.40039 6.50156V4.20156C3.40039 3.00156 4.30039 2.10156 5.40039 2.10156H11.3004Z" fill="#292D32"/>
</svg>
