<svg width="24" height="24" viewBox="0 0 24 24" fill="none" xmlns="http://www.w3.org/2000/svg">
<path opacity="0.4" d="M11.9707 22C17.4936 22 21.9707 17.5228 21.9707 12C21.9707 6.47715 17.4936 2 11.9707 2C6.44786 2 1.9707 6.47715 1.9707 12C1.9707 17.5228 6.44786 22 11.9707 22Z" fill="#292D32"/>
<path d="M15.2505 11.2992H13.5505V7.3392C13.5505 6.4192 13.0505 6.2292 12.4405 6.9192L12.0005 7.4192L8.28045 11.6492C7.77045 12.2292 7.98045 12.6992 8.75045 12.6992H10.4505V16.6592C10.4505 17.5792 10.9505 17.7692 11.5605 17.0792L12.0005 16.5792L15.7205 12.3492C16.2305 11.7692 16.0205 11.2992 15.2505 11.2992Z" fill="#292D32"/>
</svg>
