<svg width="24" height="24" viewBox="0 0 24 24" fill="none" xmlns="http://www.w3.org/2000/svg">
<path opacity="0.4" d="M14.9 2H9.10001C8.42001 2 7.46 2.4 6.98 2.88L2.88 6.98001C2.4 7.46001 2 8.42001 2 9.10001V14.9C2 15.58 2.4 16.54 2.88 17.02L6.98 21.12C7.46 21.6 8.42001 22 9.10001 22H14.9C15.58 22 16.54 21.6 17.02 21.12L21.12 17.02C21.6 16.54 22 15.58 22 14.9V9.10001C22 8.42001 21.6 7.46001 21.12 6.98001L17.02 2.88C16.54 2.4 15.58 2 14.9 2Z" fill="#292D32"/>
<path d="M13.0594 12.0014L16.0295 9.0314C16.3195 8.7414 16.3195 8.26141 16.0295 7.97141C15.7395 7.68141 15.2595 7.68141 14.9695 7.97141L11.9995 10.9414L9.02945 7.97141C8.73945 7.68141 8.25945 7.68141 7.96945 7.97141C7.67945 8.26141 7.67945 8.7414 7.96945 9.0314L10.9395 12.0014L7.96945 14.9714C7.67945 15.2614 7.67945 15.7414 7.96945 16.0314C8.11945 16.1814 8.30945 16.2514 8.49945 16.2514C8.68945 16.2514 8.87945 16.1814 9.02945 16.0314L11.9995 13.0614L14.9695 16.0314C15.1195 16.1814 15.3095 16.2514 15.4995 16.2514C15.6895 16.2514 15.8795 16.1814 16.0295 16.0314C16.3195 15.7414 16.3195 15.2614 16.0295 14.9714L13.0594 12.0014Z" fill="#292D32"/>
</svg>
