<svg width="24" height="24" viewBox="0 0 24 24" fill="none" xmlns="http://www.w3.org/2000/svg">
<path opacity="0.4" d="M11.9707 22C17.4936 22 21.9707 17.5228 21.9707 12C21.9707 6.47715 17.4936 2 11.9707 2C6.44786 2 1.9707 6.47715 1.9707 12C1.9707 17.5228 6.44786 22 11.9707 22Z" fill="#292D32"/>
<path d="M11.9999 19.2489C9.84988 19.2489 7.82988 18.1989 6.59988 16.4289C6.35988 16.0889 6.44988 15.6189 6.78988 15.3889C7.12988 15.1489 7.59988 15.2389 7.82988 15.5789C8.77988 16.9389 10.3399 17.7589 11.9999 17.7589C13.6599 17.7589 15.2199 16.9489 16.1699 15.5789C16.4099 15.2389 16.8699 15.1589 17.2099 15.3889C17.5499 15.6289 17.6299 16.0889 17.3999 16.4289C16.1699 18.1989 14.1499 19.2489 11.9999 19.2489Z" fill="#292D32"/>
</svg>
