<svg width="24" height="24" viewBox="0 0 24 24" fill="none" xmlns="http://www.w3.org/2000/svg">
<path opacity="0.4" d="M15.4798 2H7.52977C4.06977 2 2.00977 4.05999 2.00977 7.51999V15.47C2.00977 18.93 4.07977 20.99 7.52977 20.99H15.4798C18.9398 20.99 20.9998 18.93 20.9998 15.47V7.51999C20.9998 4.05999 18.9298 2 15.4798 2Z" fill="#292D32"/>
<path d="M21.9597 18.8385L20.3297 19.3885C19.8797 19.5385 19.5197 19.8885 19.3697 20.3485L18.8197 21.9785C18.3497 23.3885 16.3697 23.3585 15.9297 21.9485L14.0797 15.9985C13.7197 14.8185 14.8097 13.7185 15.9797 14.0885L21.9397 15.9385C23.3397 16.3785 23.3597 18.3685 21.9597 18.8385Z" fill="#292D32"/>
</svg>
