<svg width="24" height="24" viewBox="0 0 24 24" fill="none" xmlns="http://www.w3.org/2000/svg">
<path opacity="0.4" d="M19.0992 20.2992C18.8992 20.2992 18.6992 20.1992 18.5992 20.0992C18.2992 19.7992 18.2992 19.2992 18.5992 18.9992C20.2992 17.2992 21.1992 14.9992 21.1992 12.4992C21.1992 7.39922 17.0992 3.29922 11.9992 3.29922C6.89922 3.29922 2.79922 7.39922 2.79922 12.4992C2.79922 14.8992 3.69922 17.1992 5.39922 18.9992C5.69922 19.2992 5.69922 19.7992 5.39922 20.0992C5.09922 20.3992 4.59922 20.3992 4.29922 20.0992C2.29922 18.0992 1.19922 15.3992 1.19922 12.5992C1.19922 6.59922 6.09922 1.69922 11.9992 1.69922C17.8992 1.69922 22.7992 6.49922 22.7992 12.4992C22.7992 15.2992 21.6992 17.9992 19.6992 19.9992C19.4992 20.1992 19.2992 20.2992 19.0992 20.2992Z" fill="#292D32"/>
<path d="M11.9996 21.9992C14.1535 21.9992 15.8996 20.2531 15.8996 18.0992C15.8996 15.9453 14.1535 14.1992 11.9996 14.1992C9.8457 14.1992 8.09961 15.9453 8.09961 18.0992C8.09961 20.2531 9.8457 21.9992 11.9996 21.9992Z" fill="#292D32"/>
<path d="M16 8.5C14.9 8.5 14 9.4 14 10.5V11.3C14 12 14.6 12.5 15.2 12.5H16C17.1 12.5 18 11.6 18 10.5C18 9.4 17.1 8.5 16 8.5Z" fill="#292D32"/>
</svg>
