<svg width="24" height="24" viewBox="0 0 24 24" fill="none" xmlns="http://www.w3.org/2000/svg">
<path d="M20.5 15.25C20.09 15.25 19.75 14.91 19.75 14.5C19.75 14.09 20.09 13.75 20.5 13.75C21.09 13.75 21.22 13.66 21.23 13.66C21.25 13.6 21.25 13.25 21.25 13V11C21.25 10.75 21.25 10.41 21.21 10.32C21.2 10.33 21.05 10.25 20.5 10.25C20.09 10.25 19.75 9.91 19.75 9.5C19.75 9.09 20.09 8.75 20.5 8.75C22.58 8.75 22.75 9.77 22.75 11V13C22.75 14.23 22.58 15.25 20.5 15.25Z" fill="#292D32"/>
<path d="M6.37958 14.7481C6.31958 14.7481 6.25958 14.7381 6.19958 14.7281C5.79958 14.6281 5.54958 14.2181 5.64958 13.8181C5.94958 12.6281 5.94958 11.3681 5.64958 10.1781C5.54958 9.77814 5.78958 9.36814 6.19958 9.26814C6.59958 9.16814 6.99958 9.41814 7.09958 9.81814C7.45958 11.2481 7.45958 12.7581 7.09958 14.1781C7.01958 14.5181 6.70958 14.7481 6.37958 14.7481Z" fill="#292D32"/>
<path d="M9.87959 14.7487C9.81959 14.7487 9.75959 14.7387 9.69959 14.7287C9.29959 14.6287 9.04958 14.2187 9.14958 13.8187C9.44958 12.6287 9.44958 11.3687 9.14958 10.1787C9.04958 9.77873 9.28959 9.36873 9.69959 9.26873C10.0996 9.16873 10.5096 9.40872 10.6096 9.81872C10.9696 11.2487 10.9696 12.7587 10.6096 14.1787C10.5196 14.5187 10.2096 14.7487 9.87959 14.7487Z" fill="#292D32"/>
<path d="M13.3796 14.7487C13.3196 14.7487 13.2596 14.7387 13.1996 14.7287C12.7996 14.6287 12.5496 14.2187 12.6496 13.8187C12.9496 12.6287 12.9496 11.3687 12.6496 10.1787C12.5496 9.77873 12.7896 9.36873 13.1996 9.26873C13.5996 9.16873 14.0096 9.40872 14.1096 9.81872C14.4696 11.2487 14.4696 12.7587 14.1096 14.1787C14.0196 14.5187 13.7096 14.7487 13.3796 14.7487Z" fill="#292D32"/>
<path d="M13 19.75H7C2.59 19.75 1.25 18.41 1.25 14V10C1.25 5.59 2.59 4.25 7 4.25H13C17.41 4.25 18.75 5.59 18.75 10V14C18.75 18.41 17.41 19.75 13 19.75ZM7 5.75C3.43 5.75 2.75 6.43 2.75 10V14C2.75 17.57 3.43 18.25 7 18.25H13C16.57 18.25 17.25 17.57 17.25 14V10C17.25 6.43 16.57 5.75 13 5.75H7Z" fill="#292D32"/>
</svg>
