<svg width="24" height="24" viewBox="0 0 24 24" fill="none" xmlns="http://www.w3.org/2000/svg">
<path d="M11.9994 22.7508C11.9394 22.7508 11.8794 22.7408 11.8294 22.7308C11.7694 22.7208 11.7094 22.6908 11.6494 22.6608L9.43938 21.5608C9.06938 21.3708 8.91937 20.9208 9.09937 20.5508C9.28937 20.1808 9.73937 20.0308 10.1094 20.2108L11.2494 20.7808V19.2208C11.2494 18.8108 11.5894 18.4708 11.9994 18.4708C12.4094 18.4708 12.7494 18.8108 12.7494 19.2208V20.7808L13.8894 20.2108C14.2594 20.0308 14.7094 20.1808 14.8994 20.5508C15.0894 20.9208 14.9394 21.3708 14.5594 21.5608L12.3494 22.6608C12.2894 22.6908 12.2294 22.7108 12.1694 22.7308C12.1094 22.7408 12.0594 22.7508 11.9994 22.7508ZM18.6694 19.4208C18.3994 19.4208 18.1294 19.2708 17.9994 19.0108C17.8094 18.6408 17.9594 18.1908 18.3394 18.0008L20.1494 17.1008V14.7908C20.1494 14.3808 20.4894 14.0408 20.8994 14.0408C21.3094 14.0408 21.6494 14.3808 21.6494 14.7908V17.5708C21.6494 17.8508 21.4894 18.1108 21.2394 18.2408L19.0194 19.3508C18.8894 19.3908 18.7794 19.4208 18.6694 19.4208ZM5.32938 19.4208C5.21938 19.4208 5.09937 19.3908 4.99937 19.3408L2.77937 18.2308C2.52937 18.1008 2.36938 17.8408 2.36938 17.5608V14.7808C2.36938 14.3708 2.70938 14.0308 3.11938 14.0308C3.52938 14.0308 3.86938 14.3708 3.86938 14.7808V17.0908L5.67937 17.9908C6.04937 18.1808 6.19937 18.6308 6.01937 19.0008C5.86937 19.2608 5.60938 19.4208 5.32938 19.4208ZM11.9994 14.4208C11.5894 14.4208 11.2494 14.0808 11.2494 13.6708V11.3608L9.43938 10.4608C9.06938 10.2708 8.91937 9.82077 9.09937 9.45077C9.28937 9.08077 9.73937 8.93077 10.1094 9.11077L11.9994 10.0508L13.8894 9.11077C14.2594 8.93077 14.7094 9.07077 14.8994 9.45077C15.0894 9.83077 14.9394 10.2708 14.5594 10.4608L12.7494 11.3608V13.6708C12.7494 14.0808 12.4094 14.4208 11.9994 14.4208ZM20.8894 9.97078C20.4794 9.97078 20.1394 9.63078 20.1394 9.22078V7.66078L18.9994 8.23077C18.6294 8.42077 18.1794 8.27077 17.9894 7.89077C17.7994 7.52077 17.9494 7.07078 18.3294 6.88078L19.2094 6.44078L18.3294 6.00077C17.9594 5.81077 17.8094 5.36078 17.9894 4.99078C18.1794 4.62078 18.6294 4.47077 18.9994 4.65077L21.2094 5.75077C21.2294 5.76077 21.2594 5.77077 21.2794 5.79077C21.3394 5.82077 21.3894 5.87077 21.4394 5.92077C21.4694 5.96077 21.4994 6.00077 21.5294 6.04077C21.5694 6.11077 21.5994 6.18077 21.6194 6.26077C21.6294 6.32077 21.6394 6.38077 21.6394 6.43077V6.44078V9.20077C21.6394 9.64077 21.2994 9.97078 20.8894 9.97078ZM3.10938 9.97078C2.69938 9.97078 2.35938 9.63078 2.35938 9.22078V6.46078V6.45077C2.35938 6.39077 2.36937 6.33077 2.37937 6.28077C2.39937 6.20077 2.42938 6.13077 2.46938 6.06077C2.49938 6.01077 2.52937 5.97077 2.56937 5.93077C2.60937 5.89077 2.65937 5.85078 2.70937 5.82078C2.72937 5.81078 2.75937 5.79077 2.77937 5.78077L4.98937 4.68077C5.35937 4.50077 5.80937 4.64078 5.99937 5.02078C6.18937 5.40078 6.03938 5.84077 5.65938 6.03077L4.77937 6.47078L5.65938 6.91078C6.02938 7.10078 6.17937 7.55077 5.99937 7.92077C5.80937 8.29077 5.36937 8.44077 4.98937 8.26077L3.84937 7.69078V9.25077C3.85937 9.64077 3.52937 9.97078 3.10938 9.97078ZM14.2194 3.86077C14.1094 3.86077 13.9894 3.83077 13.8894 3.78077L11.9994 2.84077L10.1094 3.78077C9.73937 3.97077 9.28937 3.82078 9.09937 3.44078C8.90937 3.07078 9.05938 2.62077 9.43938 2.43077L11.6594 1.32078C11.8694 1.21078 12.1194 1.21078 12.3294 1.32078L14.5494 2.43077C14.9194 2.62077 15.0694 3.07078 14.8894 3.44078C14.7594 3.71078 14.4994 3.86077 14.2194 3.86077Z" fill="#292D32"/>
</svg>
