<svg width="24" height="24" viewBox="0 0 24 24" fill="none" xmlns="http://www.w3.org/2000/svg">
<path d="M6.44977 8.50057C6.38977 8.50057 6.32978 8.49055 6.26978 8.48055C6.07978 8.43055 5.90977 8.31058 5.80977 8.14058L4.24978 5.58059C3.86978 4.96059 3.74977 4.22057 3.92977 3.50057C4.09977 2.79057 4.53977 2.18056 5.16977 1.80056C5.78977 1.42056 6.52978 1.30055 7.24978 1.48055C7.96978 1.65055 8.56977 2.09054 8.94977 2.72054L10.5098 5.2806C10.7298 5.6306 10.6098 6.09057 10.2598 6.31057L6.83977 8.39058C6.71977 8.46058 6.58977 8.50057 6.44977 8.50057ZM6.58977 2.90059C6.35977 2.90059 6.13977 2.96059 5.94977 3.08059C5.66977 3.25059 5.46978 3.53054 5.38978 3.85054C5.30978 4.18054 5.35977 4.51055 5.52977 4.79055L6.69977 6.71059L8.83977 5.41054L7.66977 3.49056C7.49977 3.21056 7.21977 3.01056 6.89977 2.93056C6.78977 2.91056 6.68977 2.90059 6.58977 2.90059Z" fill="#292D32"/>
<path d="M11.4194 22.6091C11.1194 22.6091 10.8194 22.5691 10.5294 22.4791C9.64936 22.2191 8.93936 21.6191 8.52936 20.7691L6.47936 16.5891C5.38936 14.3691 6.15937 11.7291 8.26937 10.4391L11.4294 8.5191C13.5394 7.2291 16.2494 7.75908 17.7194 9.74908L20.4894 13.4891C21.0494 14.2491 21.2594 15.1591 21.0894 16.0491C20.9194 16.9391 20.3794 17.7091 19.5694 18.1991L13.1394 22.1091C12.5994 22.4391 12.0094 22.6091 11.4194 22.6091ZM13.8994 9.31909C13.3194 9.31909 12.7394 9.47907 12.1994 9.79907L9.03935 11.719C7.58935 12.599 7.06936 14.4091 7.80936 15.9291L9.85936 20.1091C10.0894 20.5691 10.4694 20.8991 10.9394 21.0391C11.4094 21.1791 11.9094 21.0991 12.3394 20.8391L18.7694 16.9291C19.2094 16.6591 19.4994 16.2491 19.5994 15.7691C19.6894 15.2891 19.5794 14.7991 19.2694 14.3891L16.4994 10.6491C15.8694 9.7791 14.8994 9.31909 13.8994 9.31909Z" fill="#292D32"/>
<path d="M7.68041 12.4309C7.62041 12.4309 7.56042 12.4209 7.50042 12.4109C7.31042 12.3609 7.14041 12.2409 7.04041 12.0709L4.96043 8.65093C4.74043 8.30093 4.86043 7.8409 5.21043 7.6209L10.3304 4.50091C10.6804 4.29091 11.1504 4.40091 11.3604 4.75091L13.4404 8.17089C13.5404 8.34089 13.5804 8.5409 13.5304 8.7409C13.4804 8.9309 13.3604 9.10092 13.1904 9.20092L8.07043 12.3209C7.95043 12.4009 7.81041 12.4309 7.68041 12.4309ZM6.63042 8.52093L7.93041 10.6609L11.7704 8.32091L10.4704 6.1809L6.63042 8.52093Z" fill="#292D32"/>
<path d="M15.9594 20.2689C15.7094 20.2689 15.4594 20.1389 15.3194 19.9089L13.6694 17.1989C13.4494 16.8489 13.5694 16.3889 13.9194 16.1689C14.2694 15.9589 14.7394 16.0689 14.9494 16.4189L16.5994 19.1289C16.8194 19.4789 16.6994 19.9389 16.3494 20.1589C16.2294 20.2289 16.0894 20.2689 15.9594 20.2689Z" fill="#292D32"/>
<path d="M13.4008 21.8314C13.1508 21.8314 12.9008 21.7014 12.7608 21.4714L11.1108 18.7614C10.8908 18.4114 11.0108 17.9514 11.3608 17.7314C11.7108 17.5214 12.1808 17.6314 12.3908 17.9814L14.0408 20.6914C14.2608 21.0414 14.1408 21.5014 13.7908 21.7214C13.6708 21.7914 13.5308 21.8314 13.4008 21.8314Z" fill="#292D32"/>
<path d="M18.52 18.7103C18.27 18.7103 18.02 18.5803 17.88 18.3503L16.23 15.6403C16.01 15.2903 16.13 14.8303 16.48 14.6103C16.83 14.4003 17.3 14.5103 17.51 14.8603L19.16 17.5703C19.38 17.9203 19.26 18.3803 18.91 18.6003C18.79 18.6703 18.66 18.7103 18.52 18.7103Z" fill="#292D32"/>
</svg>
