<svg width="24" height="24" viewBox="0 0 24 24" fill="none" xmlns="http://www.w3.org/2000/svg">
<path d="M9.98969 22.7509C9.78969 22.7509 9.62969 22.7109 9.50969 22.6609C9.10969 22.5109 8.42969 22.0209 8.42969 20.4709V18.0309C8.42969 17.6209 8.76969 17.2809 9.17969 17.2809C9.58969 17.2809 9.92969 17.6209 9.92969 18.0309V20.4709C9.92969 20.9709 10.0197 21.1909 10.0597 21.2509C10.0897 21.2109 10.2997 21.1109 10.6297 20.7309L18.1997 12.1309C18.4797 11.8109 18.5197 11.6109 18.5197 11.5709C18.4997 11.5609 18.3197 11.4609 17.8997 11.4609H16.9697C16.5597 11.4609 16.2197 11.1209 16.2197 10.7109C16.2197 10.3009 16.5597 9.96094 16.9697 9.96094H17.8997C19.2397 9.96094 19.7197 10.5909 19.8897 10.9609C20.0597 11.3409 20.2097 12.1109 19.3297 13.1209L11.7597 21.7209C11.0497 22.5409 10.4297 22.7509 9.98969 22.7509Z" fill="#292D32"/>
<path d="M9.18057 15.2201C8.77057 15.2201 8.43057 14.8801 8.43057 14.4701V14.0401H6.09057C4.75057 14.0401 4.27057 13.4101 4.10057 13.0401C3.93057 12.6601 3.78057 11.8901 4.66057 10.8801L12.2306 2.28015C13.2506 1.12015 14.0806 1.20015 14.4806 1.35015C14.8806 1.50015 15.5606 1.99015 15.5606 3.54015V8.85015C15.5606 9.26015 15.2206 9.60015 14.8106 9.60015C14.4006 9.60015 14.0606 9.26015 14.0606 8.85015V3.52015C14.0606 3.02015 13.9706 2.80015 13.9306 2.74015C13.9006 2.78015 13.6906 2.88015 13.3606 3.26015L5.79057 11.8601C5.51057 12.1801 5.47057 12.3801 5.47057 12.4201C5.49057 12.4301 5.67057 12.5301 6.09057 12.5301H9.18057C9.59057 12.5301 9.93057 12.8701 9.93057 13.2801V14.4601C9.93057 14.8801 9.59057 15.2201 9.18057 15.2201Z" fill="#292D32"/>
<path d="M1.99945 22.7514C1.80945 22.7514 1.61945 22.6814 1.46945 22.5314C1.17945 22.2414 1.17945 21.7614 1.46945 21.4714L21.4695 1.47141C21.7595 1.18141 22.2395 1.18141 22.5295 1.47141C22.8195 1.76141 22.8195 2.24141 22.5295 2.53141L2.52945 22.5314C2.37945 22.6814 2.18945 22.7514 1.99945 22.7514Z" fill="#292D32"/>
</svg>
