<svg width="24" height="24" viewBox="0 0 24 24" fill="none" xmlns="http://www.w3.org/2000/svg">
<path d="M11.0693 18.1696C10.8993 18.1696 10.7393 18.1396 10.5693 18.0796C10.0193 17.8696 9.65934 17.3596 9.65934 16.7696V13.4696H8.67934C8.11934 13.4696 7.62934 13.1496 7.39934 12.6496C7.16934 12.1396 7.25934 11.5696 7.62934 11.1496L11.8893 6.30963C12.2793 5.86963 12.8793 5.71963 13.4293 5.92963C13.9793 6.13963 14.3393 6.64963 14.3393 7.23963V10.5396H15.3293C15.8893 10.5396 16.3793 10.8596 16.6093 11.3596C16.8393 11.8696 16.7493 12.4396 16.3793 12.8596L12.1193 17.6996C11.8393 17.9996 11.4593 18.1696 11.0693 18.1696ZM8.89934 11.9696H10.4093C10.8193 11.9696 11.1593 12.3096 11.1593 12.7196V16.4996L15.0993 12.0296H13.5893C13.1793 12.0296 12.8393 11.6896 12.8393 11.2796V7.49963L8.89934 11.9696Z" fill="#292D32"/>
<path d="M11.9707 22.75C6.0507 22.75 1.2207 17.93 1.2207 12C1.2207 6.07 6.0507 1.25 11.9707 1.25C17.8907 1.25 22.7207 6.07 22.7207 12C22.7207 17.93 17.9007 22.75 11.9707 22.75ZM11.9707 2.75C6.8707 2.75 2.7207 6.9 2.7207 12C2.7207 17.1 6.8707 21.25 11.9707 21.25C17.0707 21.25 21.2207 17.1 21.2207 12C21.2207 6.9 17.0707 2.75 11.9707 2.75Z" fill="#292D32"/>
</svg>
