<svg width="24" height="24" viewBox="0 0 24 24" fill="none" xmlns="http://www.w3.org/2000/svg">
<path d="M11.311 18.0012C11.301 18.0012 11.301 18.0012 11.291 18.0012C10.251 17.9912 9.37096 17.3412 9.06096 16.3512L7.11097 10.0712C6.85097 9.2212 7.07096 8.31119 7.70096 7.69119C8.32096 7.07119 9.22096 6.85117 10.061 7.11117L16.351 9.06119C17.351 9.37119 18.001 10.2512 18.011 11.2912C18.021 12.3312 17.391 13.2112 16.401 13.5412L14.681 14.1212C14.421 14.2112 14.231 14.4012 14.141 14.6512L13.551 16.3812C13.221 17.3712 12.341 18.0012 11.311 18.0012ZM9.34096 8.50119C9.04096 8.50119 8.84096 8.66119 8.75096 8.75119C8.52096 8.98119 8.44096 9.31118 8.54096 9.62118L10.491 15.9012C10.661 16.4512 11.151 16.5012 11.301 16.5012C11.421 16.4912 11.931 16.4612 12.111 15.9112L12.701 14.1812C12.931 13.4912 13.491 12.9312 14.181 12.7012L15.901 12.1212C15.901 12.1212 15.901 12.1212 15.911 12.1212C16.461 11.9412 16.501 11.4512 16.501 11.3112C16.501 11.1612 16.451 10.6712 15.901 10.5012L9.61097 8.55118C9.51097 8.51118 9.42096 8.50119 9.34096 8.50119Z" fill="#292D32"/>
<path d="M12 22.75C6.07 22.75 1.25 17.93 1.25 12C1.25 6.07 6.07 1.25 12 1.25C17.93 1.25 22.75 6.07 22.75 12C22.75 17.93 17.93 22.75 12 22.75ZM12 2.75C6.9 2.75 2.75 6.9 2.75 12C2.75 17.1 6.9 21.25 12 21.25C17.1 21.25 21.25 17.1 21.25 12C21.25 6.9 17.1 2.75 12 2.75Z" fill="#292D32"/>
</svg>
