<svg width="24" height="24" viewBox="0 0 24 24" fill="none" xmlns="http://www.w3.org/2000/svg">
<path d="M14.0392 22.75H9.24923C7.62923 22.75 6.15923 22.12 5.09923 20.96C4.03923 19.81 3.52923 18.29 3.66923 16.68C4.00923 12.58 7.62923 9.25 11.7492 9.25C15.5392 9.25 19.1192 12.29 19.7492 16.02C20.0492 17.8 19.6092 19.48 18.5292 20.76C17.4292 22.04 15.8392 22.75 14.0392 22.75ZM11.7392 10.75C8.38923 10.75 5.43923 13.47 5.15923 16.81C5.05923 18 5.42923 19.11 6.19923 19.95C6.96923 20.79 8.04923 21.25 9.23923 21.25H14.0292C15.3792 21.25 16.5692 20.73 17.3592 19.8C18.1492 18.87 18.4692 17.61 18.2492 16.27C17.7492 13.23 14.8292 10.75 11.7392 10.75Z" fill="#292D32"/>
<path d="M10.4707 8.25C8.6807 8.25 7.2207 6.79 7.2207 5C7.2207 3.21 8.6807 1.75 10.4707 1.75C12.2607 1.75 13.7207 3.21 13.7207 5C13.7207 6.79 12.2707 8.25 10.4707 8.25ZM10.4707 3.25C9.5107 3.25 8.7207 4.04 8.7207 5C8.7207 5.96 9.5107 6.75 10.4707 6.75C11.4307 6.75 12.2207 5.96 12.2207 5C12.2207 4.04 11.4407 3.25 10.4707 3.25Z" fill="#292D32"/>
<path d="M17.3008 9.44922C15.7808 9.44922 14.5508 8.21922 14.5508 6.69922C14.5508 5.17922 15.7808 3.94922 17.3008 3.94922C18.8208 3.94922 20.0508 5.17922 20.0508 6.69922C20.0508 8.21922 18.8208 9.44922 17.3008 9.44922ZM17.3008 5.44922C16.6108 5.44922 16.0508 6.00922 16.0508 6.69922C16.0508 7.38922 16.6108 7.94922 17.3008 7.94922C17.9908 7.94922 18.5508 7.38922 18.5508 6.69922C18.5508 6.00922 17.9908 5.44922 17.3008 5.44922Z" fill="#292D32"/>
<path d="M21 13.4492C19.76 13.4492 18.75 12.4392 18.75 11.1992C18.75 9.95922 19.76 8.94922 21 8.94922C22.24 8.94922 23.25 9.95922 23.25 11.1992C23.25 12.4392 22.24 13.4492 21 13.4492ZM21 10.4492C20.59 10.4492 20.25 10.7892 20.25 11.1992C20.25 11.6092 20.59 11.9492 21 11.9492C21.41 11.9492 21.75 11.6092 21.75 11.1992C21.75 10.7892 21.41 10.4492 21 10.4492Z" fill="#292D32"/>
<path d="M3.9707 11.4492C2.4507 11.4492 1.2207 10.2192 1.2207 8.69922C1.2207 7.17922 2.4507 5.94922 3.9707 5.94922C5.4907 5.94922 6.7207 7.17922 6.7207 8.69922C6.7207 10.2192 5.4907 11.4492 3.9707 11.4492ZM3.9707 7.44922C3.2807 7.44922 2.7207 8.00922 2.7207 8.69922C2.7207 9.38922 3.2807 9.94922 3.9707 9.94922C4.6607 9.94922 5.2207 9.38922 5.2207 8.69922C5.2207 8.00922 4.6607 7.44922 3.9707 7.44922Z" fill="#292D32"/>
</svg>
