<svg width="24" height="24" viewBox="0 0 24 24" fill="none" xmlns="http://www.w3.org/2000/svg">
<path d="M11 19.9V4.1C11 2.6 10.36 2 8.77 2H4.73C3.14 2 2.5 2.6 2.5 4.1V19.9C2.5 21.4 3.14 22 4.73 22H8.77C10.36 22 11 21.4 11 19.9Z" fill="#292D32"/>
<path opacity="0.4" d="M21.5 10.9V4.1C21.5 2.6 20.86 2 19.27 2H15.23C13.64 2 13 2.6 13 4.1V10.9C13 12.4 13.64 13 15.23 13H19.27C20.86 13 21.5 12.4 21.5 10.9Z" fill="#292D32"/>
<path opacity="0.4" d="M21.5 19.9V17.1C21.5 15.6 20.86 15 19.27 15H15.23C13.64 15 13 15.6 13 17.1V19.9C13 21.4 13.64 22 15.23 22H19.27C20.86 22 21.5 21.4 21.5 19.9Z" fill="#292D32"/>
</svg>
