<svg width="24" height="24" viewBox="0 0 24 24" fill="none" xmlns="http://www.w3.org/2000/svg">
<path d="M12.1978 17.3819C11.4978 17.3819 10.7878 17.1119 10.2578 16.5819C9.73781 16.0619 9.44781 15.3719 9.44781 14.6419C9.44781 13.9119 9.73781 13.2119 10.2578 12.7019L11.6678 11.2919C11.9578 11.0019 12.4378 11.0019 12.7278 11.2919C13.0178 11.5819 13.0178 12.0619 12.7278 12.3519L11.3178 13.7619C11.0778 14.0019 10.9478 14.3119 10.9478 14.6419C10.9478 14.9719 11.0778 15.2919 11.3178 15.5219C11.8078 16.0119 12.5978 16.0119 13.0878 15.5219L15.3078 13.3019C16.5778 12.0319 16.5778 9.97189 15.3078 8.70189C14.0378 7.43189 11.9778 7.43189 10.7078 8.70189L8.28778 11.1219C7.77778 11.6319 7.4978 12.3019 7.4978 13.0119C7.4978 13.7219 7.77778 14.4019 8.28778 14.9019C8.57778 15.1919 8.57778 15.6719 8.28778 15.9619C7.99778 16.2519 7.51778 16.2519 7.22778 15.9619C6.43778 15.1719 6.00781 14.1219 6.00781 13.0019C6.00781 11.8819 6.43778 10.8319 7.22778 10.0419L9.64783 7.62188C11.4978 5.77188 14.5178 5.77188 16.3678 7.62188C18.2178 9.47188 18.2178 12.4919 16.3678 14.3419L14.1478 16.5619C13.6078 17.1119 12.9078 17.3819 12.1978 17.3819Z" fill="#292D32"/>
<path d="M15 22.75H9C3.57 22.75 1.25 20.43 1.25 15V9C1.25 3.57 3.57 1.25 9 1.25H15C20.43 1.25 22.75 3.57 22.75 9V15C22.75 20.43 20.43 22.75 15 22.75ZM9 2.75C4.39 2.75 2.75 4.39 2.75 9V15C2.75 19.61 4.39 21.25 9 21.25H15C19.61 21.25 21.25 19.61 21.25 15V9C21.25 4.39 19.61 2.75 15 2.75H9Z" fill="#292D32"/>
</svg>
