<svg width="24" height="24" viewBox="0 0 24 24" fill="none" xmlns="http://www.w3.org/2000/svg">
<path d="M15 22.75H9C3.57 22.75 1.25 20.43 1.25 15V9C1.25 3.57 3.57 1.25 9 1.25H15C20.43 1.25 22.75 3.57 22.75 9V15C22.75 20.43 20.43 22.75 15 22.75ZM9 2.75C4.39 2.75 2.75 4.39 2.75 9V15C2.75 19.61 4.39 21.25 9 21.25H15C19.61 21.25 21.25 19.61 21.25 15V9C21.25 4.39 19.61 2.75 15 2.75H9Z" fill="#292D32"/>
<path d="M10.0911 18.2489C9.47109 18.2489 8.8611 18.0189 8.3911 17.5489L6.45109 15.6089C5.51109 14.6689 5.51109 13.1489 6.45109 12.2089L12.2011 6.45891C13.1411 5.51891 14.6611 5.51891 15.6011 6.45891L17.5411 8.39889C18.4811 9.33889 18.4811 10.8589 17.5411 11.7989L11.7911 17.5489C11.3211 18.0089 10.7111 18.2489 10.0911 18.2489ZM7.5211 14.5489L9.4611 16.4889C9.8111 16.8389 10.3911 16.8389 10.7411 16.4889L16.4911 10.7389C16.8411 10.3889 16.8411 9.80891 16.4911 9.45891L14.5511 7.5189C14.2011 7.1689 13.6211 7.1689 13.2711 7.5189L7.5211 13.2689C7.1711 13.6189 7.1711 14.1889 7.5211 14.5489Z" fill="#292D32"/>
<path d="M13.5822 15.4416C13.3922 15.4416 13.2022 15.3716 13.0522 15.2216L8.77219 10.9416C8.48219 10.6516 8.48219 10.1716 8.77219 9.88156C9.06219 9.59156 9.54219 9.59156 9.83219 9.88156L14.1122 14.1616C14.4022 14.4516 14.4022 14.9316 14.1122 15.2216C13.9722 15.3716 13.7722 15.4416 13.5822 15.4416Z" fill="#292D32"/>
</svg>
