<svg width="24" height="24" viewBox="0 0 24 24" fill="none" xmlns="http://www.w3.org/2000/svg">
<path d="M7.93974 15.2602C7.84974 15.2602 7.76973 15.2502 7.67973 15.2102C6.86973 14.9102 6.18973 14.3202 5.75973 13.5502C4.75973 11.7502 5.37974 9.40017 7.12974 8.31017L9.46974 6.86015C10.3297 6.33015 11.3397 6.17018 12.2997 6.42018C13.2597 6.67018 14.0697 7.30016 14.5597 8.18016C15.5597 9.98016 14.9397 12.3302 13.1897 13.4202L12.9297 13.6102C12.5897 13.8502 12.1197 13.7702 11.8797 13.4402C11.6397 13.1002 11.7197 12.6302 12.0497 12.3902L12.3597 12.1702C13.4797 11.4702 13.8597 10.0202 13.2497 8.91017C12.9597 8.39017 12.4897 8.02016 11.9297 7.87016C11.3697 7.72016 10.7797 7.82017 10.2697 8.13017L7.92973 9.58016C6.84973 10.2502 6.46974 11.7002 7.07974 12.8202C7.32974 13.2702 7.72974 13.6202 8.20974 13.8002C8.59974 13.9402 8.79973 14.3702 8.64973 14.7602C8.53973 15.0702 8.24974 15.2602 7.93974 15.2602Z" fill="#292D32"/>
<path d="M12.6619 17.6491C12.3619 17.6491 12.0519 17.6091 11.7519 17.5291C10.7919 17.2791 9.98192 16.6491 9.50192 15.7691C8.50192 13.9691 9.12192 11.6191 10.8719 10.5291L11.1319 10.3391C11.4719 10.0991 11.9419 10.1791 12.1819 10.5091C12.4219 10.8491 12.3419 11.3191 12.0119 11.5591L11.7019 11.7791C10.5819 12.4791 10.2019 13.9291 10.8119 15.0391C11.1019 15.5591 11.5719 15.9291 12.1319 16.0791C12.6919 16.2291 13.2819 16.1291 13.7919 15.8191L16.1319 14.3691C17.2119 13.6991 17.5919 12.2491 16.9819 11.1291C16.7319 10.6791 16.3319 10.3291 15.8519 10.1491C15.4619 10.0091 15.2619 9.57914 15.4119 9.18914C15.5519 8.79914 15.9819 8.59914 16.3719 8.74914C17.1819 9.04914 17.8619 9.63914 18.2919 10.4091C19.2919 12.2091 18.6719 14.5591 16.9219 15.6491L14.5819 17.0991C13.9919 17.4591 13.3319 17.6491 12.6619 17.6491Z" fill="#292D32"/>
<path d="M12 22.75C6.07 22.75 1.25 17.93 1.25 12C1.25 6.07 6.07 1.25 12 1.25C17.93 1.25 22.75 6.07 22.75 12C22.75 17.93 17.93 22.75 12 22.75ZM12 2.75C6.9 2.75 2.75 6.9 2.75 12C2.75 17.1 6.9 21.25 12 21.25C17.1 21.25 21.25 17.1 21.25 12C21.25 6.9 17.1 2.75 12 2.75Z" fill="#292D32"/>
</svg>
