<svg width="24" height="24" viewBox="0 0 24 24" fill="none" xmlns="http://www.w3.org/2000/svg">
<path d="M7.79999 21.4698H4.58002C2.75002 21.4698 1.25 19.9798 1.25 18.1398V12.3398C1.25 11.9298 1.59 11.5898 2 11.5898H7.79999C9.69999 11.5898 11.13 13.0198 11.13 14.9198V18.1398C11.12 20.0398 9.68999 21.4698 7.79999 21.4698ZM2.75 13.0998V18.1498C2.75 19.1598 3.57002 19.9798 4.58002 19.9798H7.79999C8.85999 19.9798 9.63 19.2098 9.63 18.1498V14.9298C9.63 13.8698 8.85999 13.0998 7.79999 13.0998H2.75Z" fill="#292D32"/>
<path d="M2 13.0988C1.59 13.0988 1.25 12.7588 1.25 12.3488C1.25 6.09882 2.52002 4.78886 6.15002 2.63886C6.51002 2.42886 6.96999 2.54887 7.17999 2.89887C7.38999 3.25887 7.26998 3.71884 6.91998 3.92884C3.67998 5.84884 2.75 6.64882 2.75 12.3488C2.75 12.7588 2.41 13.0988 2 13.0988Z" fill="#292D32"/>
<path d="M19.4211 21.4698H16.2011C14.3711 21.4698 12.8711 19.9798 12.8711 18.1398V12.3398C12.8711 11.9298 13.2111 11.5898 13.6211 11.5898H19.4211C21.3211 11.5898 22.7511 13.0198 22.7511 14.9198V18.1398C22.7511 20.0398 21.3211 21.4698 19.4211 21.4698ZM14.3811 13.0998V18.1498C14.3811 19.1598 15.2011 19.9798 16.2111 19.9798H19.4311C20.4911 19.9798 21.2611 19.2098 21.2611 18.1498V14.9298C21.2611 13.8698 20.4911 13.0998 19.4311 13.0998H14.3811Z" fill="#292D32"/>
<path d="M13.6289 13.0988C13.2189 13.0988 12.8789 12.7588 12.8789 12.3488C12.8789 6.09882 14.1489 4.78886 17.7789 2.63886C18.1389 2.42886 18.5989 2.54887 18.8089 2.89887C19.0189 3.25887 18.8989 3.71884 18.5489 3.92884C15.3089 5.84884 14.3789 6.64882 14.3789 12.3488C14.3789 12.7588 14.0389 13.0988 13.6289 13.0988Z" fill="#292D32"/>
</svg>
