<svg width="24" height="24" viewBox="0 0 24 24" fill="none" xmlns="http://www.w3.org/2000/svg">
<path d="M12.0006 8.90923C11.5106 8.90923 11.0306 8.72922 10.6606 8.35922L7.99062 5.68922C7.45062 5.14922 7.28065 4.33922 7.58065 3.61922C7.87065 2.90922 8.56065 2.44922 9.33065 2.44922H14.6806C15.4506 2.44922 16.1406 2.90922 16.4306 3.61922C16.7206 4.32922 16.5606 5.13922 16.0206 5.68922L13.3506 8.35922C12.9706 8.71922 12.4906 8.90923 12.0006 8.90923ZM9.05062 4.61922L11.7206 7.28922C11.8706 7.43922 12.1207 7.43922 12.2807 7.28922L14.9506 4.61922C15.1206 4.44922 15.0707 4.25922 15.0307 4.18922C14.9907 4.11922 14.9006 3.94922 14.6706 3.94922H9.32064C9.08064 3.94922 8.99065 4.11922 8.96065 4.18922C8.93065 4.25922 8.88062 4.44922 9.05062 4.61922Z" fill="black"/>
<path d="M14.6703 21.5594H9.32034C8.55034 21.5594 7.86034 21.0994 7.57034 20.3894C7.28034 19.6794 7.44032 18.8694 7.98032 18.3194L10.6504 15.6494C11.3704 14.9294 12.6104 14.9294 13.3304 15.6494L16.0003 18.3194C16.5403 18.8594 16.7103 19.6794 16.4103 20.3894C16.1303 21.0994 15.4403 21.5594 14.6703 21.5594ZM9.05032 19.3794C8.88032 19.5494 8.93031 19.7394 8.97031 19.8094C9.01031 19.8794 9.10035 20.0494 9.33035 20.0494H14.6803C14.9203 20.0494 15.0103 19.8794 15.0403 19.8094C15.0703 19.7394 15.1204 19.5494 14.9604 19.3794L12.2903 16.7094C12.1403 16.5594 11.8903 16.5594 11.7303 16.7094L9.05032 19.3794Z" fill="black"/>
<path d="M5.22965 17.2509C5.16965 17.2509 5.0997 17.2509 5.0297 17.2409C4.4897 17.1809 4.01965 16.8909 3.72965 16.4309L1.51969 12.9509C1.14969 12.3709 1.14969 11.6309 1.51969 11.0509L3.72965 7.57092C4.01965 7.12092 4.4897 6.82091 5.0297 6.76091C5.5597 6.70091 6.08964 6.89092 6.46964 7.27092L9.94968 10.7509C10.2797 11.0809 10.4696 11.5309 10.4696 12.0009C10.4696 12.4709 10.2897 12.9209 9.94968 13.2509L6.47965 16.7309C6.14965 17.0609 5.69965 17.2509 5.22965 17.2509ZM2.78965 11.8609C2.72965 11.9509 2.72965 12.0609 2.78965 12.1509L4.99967 15.6309C5.05967 15.7209 5.14968 15.7509 5.19968 15.7509C5.24968 15.7509 5.33965 15.7509 5.41965 15.6709L8.89969 12.1909C8.96969 12.1209 8.97965 12.0409 8.97965 12.0009C8.97965 11.9609 8.96969 11.8809 8.89969 11.8109L5.41965 8.33091C5.33965 8.25091 5.24968 8.25091 5.19968 8.25091C5.14968 8.26091 5.05967 8.28091 4.99967 8.37091L2.78965 11.8609Z" fill="black"/>
<path d="M18.7695 17.2509C18.2995 17.2509 17.8595 17.0709 17.5195 16.7309L14.0395 13.2509C13.7095 12.9209 13.5195 12.4709 13.5195 12.0009C13.5195 11.5309 13.6995 11.0809 14.0395 10.7509L17.5095 7.27092C17.8895 6.89092 18.4195 6.70091 18.9495 6.76091C19.4895 6.82091 19.9595 7.11092 20.2495 7.57092L22.4595 11.0509C22.8295 11.6309 22.8295 12.3709 22.4595 12.9509L20.2495 16.4309C19.9595 16.8909 19.4895 17.1809 18.9495 17.2409C18.8995 17.2409 18.8295 17.2509 18.7695 17.2509ZM18.7695 8.26091C18.7195 8.26091 18.6495 8.27091 18.5795 8.34091L15.0995 11.8209C15.0295 11.8909 15.0195 11.9709 15.0195 12.0109C15.0195 12.0509 15.0295 12.1309 15.0995 12.2009L18.5795 15.6809C18.6595 15.7609 18.7495 15.7609 18.7995 15.7609C18.8495 15.7509 18.9395 15.7309 18.9995 15.6409L21.2095 12.1609C21.2695 12.0709 21.2695 11.9609 21.2095 11.8709L18.9995 8.39091C18.9395 8.30091 18.8495 8.27092 18.7995 8.27092C18.7895 8.26092 18.7795 8.26091 18.7695 8.26091Z" fill="black"/>
</svg>
