<svg width="24" height="24" viewBox="0 0 24 24" fill="none" xmlns="http://www.w3.org/2000/svg">
<path d="M12 22.75C6.07 22.75 1.25 17.93 1.25 12C1.25 6.07 6.07 1.25 12 1.25C17.93 1.25 22.75 6.07 22.75 12C22.75 17.93 17.93 22.75 12 22.75ZM12 2.75C6.9 2.75 2.75 6.9 2.75 12C2.75 17.1 6.9 21.25 12 21.25C17.1 21.25 21.25 17.1 21.25 12C21.25 6.9 17.1 2.75 12 2.75Z" fill="black"/>
<path d="M16.5 16.75H7.5C7.09 16.75 6.75 16.41 6.75 16C6.75 15.59 7.09 15.25 7.5 15.25H15.75V8.75H7.5C7.09 8.75 6.75 8.41 6.75 8C6.75 7.59 7.09 7.25 7.5 7.25H16.5C16.91 7.25 17.25 7.59 17.25 8V16C17.25 16.41 16.91 16.75 16.5 16.75Z" fill="black"/>
<path d="M12.5 12.75H7.5C7.09 12.75 6.75 12.41 6.75 12C6.75 11.59 7.09 11.25 7.5 11.25H11.75V8C11.75 7.59 12.09 7.25 12.5 7.25C12.91 7.25 13.25 7.59 13.25 8V12C13.25 12.41 12.91 12.75 12.5 12.75Z" fill="black"/>
</svg>
