<svg width="24" height="24" viewBox="0 0 24 24" fill="none" xmlns="http://www.w3.org/2000/svg">
<path d="M14.7602 22.721C14.5902 22.721 14.4302 22.681 14.3002 22.601C13.8502 22.311 11.6102 20.761 11.2002 18.401C10.9802 17.091 11.3502 15.791 12.3102 14.551C15.1002 10.941 15.4102 9.89103 15.4202 9.85103C15.4602 9.57103 15.6502 9.37103 15.9202 9.28103C16.1902 9.19103 16.4702 9.28103 16.6802 9.48103C18.9602 11.691 20.0002 13.971 19.7602 16.261C19.3802 19.851 15.9002 22.201 15.2102 22.631C15.0902 22.681 14.9202 22.721 14.7602 22.721ZM16.3802 11.311C15.9202 12.121 15.0802 13.421 13.5002 15.451C12.7902 16.361 12.5302 17.241 12.6802 18.131C12.9202 19.521 14.1402 20.611 14.7702 21.081C15.7602 20.391 18.0002 18.571 18.2602 16.061C18.4302 14.521 17.8002 12.931 16.3802 11.311Z" fill="black"/>
<path d="M10.2796 22.7294C10.0196 22.7294 9.75959 22.6594 9.56959 22.6094C7.35959 21.9794 5.3596 19.9594 4.5796 17.5894C3.7796 15.1594 4.26956 12.6194 5.96956 10.4294C9.06956 6.36939 10.0996 3.09939 10.3396 2.19939C10.4496 1.76939 10.7696 1.43939 11.2096 1.30939C11.6596 1.18939 12.1496 1.31939 12.4896 1.65939C12.5196 1.67939 12.5396 1.70939 12.5596 1.73939C13.4996 2.99939 14.5096 5.24939 14.5096 7.78939C14.5096 9.52939 13.2896 11.1094 12.1096 12.6294C10.8596 14.2494 9.56961 15.9194 9.70961 17.7294C9.83961 19.0694 10.4196 20.0894 10.8096 20.7694C11.1396 21.3394 11.4496 21.8794 11.0596 22.3894C10.8496 22.6494 10.5696 22.7294 10.2796 22.7294ZM9.74959 21.9694H9.75959H9.74959ZM11.6496 3.05939C11.1896 4.56939 9.98956 7.62939 7.15956 11.3494C5.38956 13.6394 5.55959 15.7594 6.00959 17.1294C6.53959 18.7394 7.7396 20.1394 9.1396 20.8394C8.7596 20.0994 8.33956 19.0994 8.21956 17.8594C8.03956 15.4594 9.56958 13.4694 10.9296 11.7094C11.9996 10.3194 13.0096 9.00939 13.0096 7.77939C13.0096 5.87939 12.3296 4.13939 11.6496 3.05939ZM11.7896 2.56939C11.7896 2.56939 11.7896 2.57939 11.7896 2.56939C11.7896 2.57939 11.7896 2.56939 11.7896 2.56939Z" fill="black"/>
</svg>
