<svg width="24" height="24" viewBox="0 0 24 24" fill="none" xmlns="http://www.w3.org/2000/svg">
<path d="M12 12.25C10.48 12.25 9.25 11.02 9.25 9.5C9.25 7.98 10.48 6.75 12 6.75C13.52 6.75 14.75 7.98 14.75 9.5C14.75 11.02 13.52 12.25 12 12.25ZM12 8.25C11.31 8.25 10.75 8.81 10.75 9.5C10.75 10.19 11.31 10.75 12 10.75C12.69 10.75 13.25 10.19 13.25 9.5C13.25 8.81 12.69 8.25 12 8.25Z" fill="black"/>
<path d="M11.9905 14.7186C11.1905 14.7186 10.3905 14.5386 9.66048 14.1686C9.29048 13.9786 9.14052 13.5286 9.33052 13.1586C9.51052 12.7886 9.96053 12.6386 10.3405 12.8286C11.3805 13.3486 12.6205 13.3486 13.6605 12.8286C14.0205 12.6486 14.4805 12.7886 14.6605 13.1486C14.8505 13.5086 14.7205 13.9586 14.3605 14.1486C13.6105 14.5286 12.8005 14.7186 11.9905 14.7186Z" fill="black"/>
<path d="M14.0005 17.2483C13.7805 17.2483 13.5605 17.1483 13.4105 16.9683L12.0005 15.1883L10.5906 16.9683C10.3406 17.2883 9.86052 17.3483 9.54052 17.0883C9.22052 16.8283 9.16052 16.3583 9.42052 16.0383L11.4205 13.5083C11.7005 13.1483 12.3105 13.1483 12.6005 13.5083L14.6005 16.0383C14.8605 16.3683 14.8005 16.8383 14.4805 17.0883C14.3305 17.1983 14.1605 17.2483 14.0005 17.2483Z" fill="black"/>
<path d="M12 22.75C6.07 22.75 1.25 17.93 1.25 12C1.25 6.07 6.07 1.25 12 1.25C17.93 1.25 22.75 6.07 22.75 12C22.75 17.93 17.93 22.75 12 22.75ZM12 2.75C6.9 2.75 2.75 6.9 2.75 12C2.75 17.1 6.9 21.25 12 21.25C17.1 21.25 21.25 17.1 21.25 12C21.25 6.9 17.1 2.75 12 2.75Z" fill="black"/>
</svg>
