<svg width="24" height="24" viewBox="0 0 24 24" fill="none" xmlns="http://www.w3.org/2000/svg">
<path d="M7.12954 20.75H5.17953C4.65953 20.75 4.17954 20.53 3.83954 20.13C3.50954 19.74 3.35955 19.22 3.44955 18.72L5.83954 4.39001C6.13954 2.57001 7.69955 1.25 9.53955 1.25H13.9995C17.1695 1.25 19.7495 3.83 19.7495 7C19.7495 7.21 19.7395 7.40999 19.7095 7.60999C19.5795 9.16999 18.8896 10.66 17.7596 11.78C16.4996 13.05 14.7995 13.76 12.9895 13.76H9.85953C9.73953 13.76 9.62953 13.85 9.60953 13.98L8.84955 19.26C8.74955 19.93 8.27953 20.48 7.64953 20.67C7.44953 20.74 7.25954 20.75 7.12954 20.75ZM9.53955 2.75C8.42955 2.75 7.49955 3.54 7.31955 4.63L4.92953 18.96C4.90953 19.06 4.95953 19.13 4.98953 19.16C5.01953 19.19 5.07953 19.25 5.17953 19.25H7.12954C7.29954 19.2 7.35954 19.12 7.37954 19.03L8.13955 13.76C8.25955 12.9 9.00953 12.26 9.86953 12.26H12.9995C14.4095 12.26 15.7195 11.71 16.7095 10.72C17.5895 9.85 18.1196 8.7 18.2296 7.47C18.2496 7.3 18.2596 7.16001 18.2596 7.01001C18.2596 4.67001 16.3496 2.76001 14.0096 2.76001H9.53955V2.75Z" fill="black"/>
<path d="M11.1496 22.7491H8.21962C7.69962 22.7491 7.20961 22.519 6.86961 22.109C6.52961 21.699 6.39961 21.169 6.49961 20.649L6.75962 19.3391L7.20961 19.2191C7.28961 19.1991 7.35962 19.119 7.37962 19.019L8.13963 13.7491C8.25963 12.8891 9.00961 12.2491 9.86961 12.2491H12.9996C14.4096 12.2491 15.7196 11.699 16.7096 10.709C17.5896 9.83905 18.1196 8.68905 18.2296 7.45905L18.3296 6.28906L19.3496 6.86905C20.8396 7.71905 21.7596 9.29905 21.7596 10.9991C21.7596 12.5291 21.1596 13.9691 20.0796 15.0691C18.9796 16.1591 17.5396 16.7491 16.0096 16.7491H13.8596C13.7296 16.7491 13.6296 16.839 13.6096 16.959L12.8896 21.2791C12.7396 22.1291 12.0096 22.7491 11.1496 22.7491ZM8.06962 20.4691L7.96962 20.9491C7.94962 21.0491 7.99961 21.1291 8.02961 21.1591C8.05961 21.1991 8.11962 21.2491 8.21962 21.2491H11.1496C11.2796 21.2491 11.3796 21.1591 11.3996 21.0391L12.1196 16.7191C12.2596 15.8691 12.9896 15.2491 13.8496 15.2491H15.9996C17.1296 15.2491 18.1996 14.8091 19.0096 14.0091C19.8096 13.2091 20.2496 12.1291 20.2496 10.9991C20.2496 10.2191 19.9696 9.47905 19.4696 8.89905C19.1596 9.97905 18.5696 10.9791 17.7596 11.7791C16.4996 13.0491 14.7996 13.7591 12.9896 13.7591H9.8596C9.7396 13.7591 9.6296 13.8491 9.6096 13.9791L8.84962 19.2591C8.77962 19.7591 8.48962 20.1991 8.06962 20.4691Z" fill="black"/>
</svg>
