<svg width="24" height="24" viewBox="0 0 24 24" fill="none" xmlns="http://www.w3.org/2000/svg">
<path d="M15 22.75H9C3.57 22.75 1.25 20.43 1.25 15V9C1.25 3.57 3.57 1.25 9 1.25H15C20.43 1.25 22.75 3.57 22.75 9V15C22.75 20.43 20.43 22.75 15 22.75ZM9 2.75C4.39 2.75 2.75 4.39 2.75 9V15C2.75 19.61 4.39 21.25 9 21.25H15C19.61 21.25 21.25 19.61 21.25 15V9C21.25 4.39 19.61 2.75 15 2.75H9Z" fill="black"/>
<path d="M9.55084 18.4713H7.10083C6.01083 18.4713 5.13086 17.5812 5.13086 16.4912V7.51126C5.13086 6.42126 6.02083 5.53125 7.10083 5.53125H9.55084C10.6408 5.53125 11.5309 6.42126 11.5309 7.51126V16.4912C11.5309 17.5812 10.6408 18.4713 9.55084 18.4713ZM7.10083 7.03125C6.84083 7.03125 6.63086 7.25126 6.63086 7.51126V16.4912C6.63086 16.7512 6.85083 16.9713 7.10083 16.9713H9.55084C9.81084 16.9713 10.0309 16.7512 10.0309 16.4912V7.51126C10.0309 7.25126 9.81084 7.03125 9.55084 7.03125H7.10083Z" fill="black"/>
<path d="M17.1407 14.3813H14.2007C13.2407 14.3813 12.4707 13.6012 12.4707 12.6512V7.26126C12.4707 6.30126 13.2507 5.53125 14.2007 5.53125H17.1407C18.1007 5.53125 18.8707 6.31126 18.8707 7.26126V12.6512C18.8807 13.6112 18.1007 14.3813 17.1407 14.3813ZM14.2108 7.03125C14.0808 7.03125 13.9807 7.14126 13.9807 7.26126V12.6512C13.9807 12.7812 14.0908 12.8813 14.2108 12.8813H17.1508C17.2808 12.8813 17.3807 12.7712 17.3807 12.6512V7.26126C17.3807 7.13126 17.2708 7.03125 17.1508 7.03125H14.2108Z" fill="black"/>
</svg>
