<svg width="24" height="24" viewBox="0 0 24 24" fill="none" xmlns="http://www.w3.org/2000/svg">
<path d="M10.8999 22.7485C10.6999 22.7485 10.5098 22.6685 10.3698 22.5285L0.369844 12.5285C0.0798438 12.2385 0.0798438 11.7585 0.369844 11.4685L10.3698 1.46853C10.5798 1.25853 10.9099 1.18852 11.1899 1.30852C11.4699 1.42852 11.6499 1.69853 11.6499 1.99853V5.99853C11.6499 6.19853 11.5698 6.38852 11.4298 6.52852L5.95987 11.9985L11.4298 17.4685C11.5698 17.6085 11.6499 17.7985 11.6499 17.9985V21.9985C11.6499 22.2985 11.4699 22.5785 11.1899 22.6885C11.0899 22.7285 10.9999 22.7485 10.8999 22.7485ZM1.95987 11.9985L10.1499 20.1885V18.3085L4.36984 12.5285C4.07984 12.2385 4.07984 11.7585 4.36984 11.4685L10.1499 5.68853V3.80852L1.95987 11.9985Z" fill="black"/>
<path d="M12.9004 22.7485C12.8004 22.7485 12.7104 22.7285 12.6104 22.6885C12.3304 22.5685 12.1504 22.2985 12.1504 21.9985V17.9985C12.1504 17.7985 12.2304 17.6085 12.3704 17.4685L17.8404 11.9985L12.3704 6.52852C12.2304 6.38852 12.1504 6.19853 12.1504 5.99853V1.99853C12.1504 1.69853 12.3304 1.41852 12.6104 1.30852C12.8904 1.18852 13.2104 1.25853 13.4304 1.46853L23.4304 11.4685C23.7204 11.7585 23.7204 12.2385 23.4304 12.5285L13.4304 22.5285C13.2904 22.6685 13.1004 22.7485 12.9004 22.7485ZM13.6504 18.3085V20.1885L21.8404 11.9985L13.6504 3.80852V5.68853L19.4304 11.4685C19.7204 11.7585 19.7204 12.2385 19.4304 12.5285L13.6504 18.3085Z" fill="black"/>
<path d="M10.8999 15.7485C10.6999 15.7485 10.5098 15.6685 10.3698 15.5285L7.36984 12.5285C7.07984 12.2385 7.07984 11.7585 7.36984 11.4685L10.3698 8.46853C10.5798 8.25853 10.9099 8.18852 11.1899 8.30852C11.4699 8.42852 11.6499 8.69853 11.6499 8.99853V14.9985C11.6499 15.2985 11.4699 15.5785 11.1899 15.6885C11.0899 15.7285 10.9999 15.7485 10.8999 15.7485ZM8.95987 11.9985L10.1499 13.1885V10.8085L8.95987 11.9985Z" fill="black"/>
</svg>
