<svg width="24" height="24" viewBox="0 0 24 24" fill="none" xmlns="http://www.w3.org/2000/svg">
<path d="M16.9506 17.6983C16.7606 17.6983 16.5706 17.6283 16.4206 17.4783C16.1306 17.1883 16.1306 16.7083 16.4206 16.4183C17.6006 15.2383 18.2506 13.6683 18.2506 11.9983C18.2506 10.3283 17.6006 8.75829 16.4206 7.57829C16.1306 7.28829 16.1306 6.80828 16.4206 6.51828C16.7106 6.22828 17.1906 6.22828 17.4806 6.51828C18.9406 7.97828 19.7506 9.92828 19.7506 11.9983C19.7506 14.0683 18.9406 16.0183 17.4806 17.4783C17.3306 17.6283 17.1406 17.6983 16.9506 17.6983Z" fill="black"/>
<path d="M7.04999 17.6983C6.85999 17.6983 6.66999 17.6283 6.51999 17.4783C5.05999 16.0183 4.25 14.0683 4.25 11.9983C4.25 9.92828 5.05999 7.97828 6.51999 6.51828C6.80999 6.22828 7.28999 6.22828 7.57999 6.51828C7.86999 6.80828 7.86999 7.28829 7.57999 7.57829C6.39999 8.75829 5.75 10.3283 5.75 11.9983C5.75 13.6683 6.39999 15.2383 7.57999 16.4183C7.86999 16.7083 7.86999 17.1883 7.57999 17.4783C7.42999 17.6283 7.23999 17.6983 7.04999 17.6983Z" fill="black"/>
<path d="M12.9802 16.02H11.2202C9.95015 16.02 8.91016 14.95 8.91016 13.64C8.91016 13.23 9.25016 12.89 9.66016 12.89C10.0702 12.89 10.4102 13.23 10.4102 13.64C10.4102 14.13 10.7702 14.52 11.2202 14.52H12.9802C13.3102 14.52 13.5901 14.22 13.5901 13.85C13.5901 13.38 13.4802 13.32 13.1602 13.21L10.3502 12.23C9.39016 11.89 8.92017 11.22 8.92017 10.17C8.92017 8.97 9.86015 8 11.0302 8H12.7902C14.0602 8 15.1002 9.07 15.1002 10.38C15.1002 10.79 14.7602 11.13 14.3502 11.13C13.9402 11.13 13.6002 10.79 13.6002 10.38C13.6002 9.89 13.2402 9.5 12.7902 9.5H11.0302C10.7002 9.5 10.4202 9.8 10.4202 10.17C10.4202 10.64 10.5302 10.7 10.8502 10.81L13.6602 11.79C14.6202 12.13 15.0901 12.8 15.0901 13.85C15.0801 15.04 14.1402 16.02 12.9802 16.02Z" fill="black"/>
<path d="M12 16.9508C11.59 16.9508 11.25 16.6108 11.25 16.2008V7.80078C11.25 7.39078 11.59 7.05078 12 7.05078C12.41 7.05078 12.75 7.39078 12.75 7.80078V16.2008C12.75 16.6108 12.41 16.9508 12 16.9508Z" fill="black"/>
<path d="M12 22.75C6.07 22.75 1.25 17.93 1.25 12C1.25 6.07 6.07 1.25 12 1.25C17.93 1.25 22.75 6.07 22.75 12C22.75 17.93 17.93 22.75 12 22.75ZM12 2.75C6.9 2.75 2.75 6.9 2.75 12C2.75 17.1 6.9 21.25 12 21.25C17.1 21.25 21.25 17.1 21.25 12C21.25 6.9 17.1 2.75 12 2.75Z" fill="black"/>
</svg>
