<svg width="24" height="24" viewBox="0 0 24 24" fill="none" xmlns="http://www.w3.org/2000/svg">
<path d="M16.4999 9.59954C16.3699 9.59954 16.2399 9.56954 16.1099 9.48954L11.9999 7.01954L7.88988 9.48954C7.53988 9.69954 7.06988 9.58953 6.85988 9.22953C6.64988 8.87953 6.75988 8.40953 7.11988 8.19953L11.6199 5.49953C11.8599 5.35953 12.1499 5.35953 12.3899 5.49953L16.8899 8.19953C17.2499 8.40953 17.3599 8.86953 17.1499 9.22953C16.9999 9.46953 16.7499 9.59954 16.4999 9.59954Z" fill="black"/>
<path d="M16.5 15.9C16.37 15.9 16.23 15.86 16.11 15.79L12 13.32L7.89 15.79C7.66 15.93 7.37 15.93 7.13 15.8C6.9 15.67 6.75 15.42 6.75 15.15V9C6.75 8.59 7.09 8.25 7.5 8.25C7.91 8.25 8.25 8.59 8.25 9V13.83L11.61 11.81C11.85 11.67 12.14 11.67 12.38 11.81L15.74 13.83V9C15.74 8.59 16.08 8.25 16.49 8.25C16.9 8.25 17.24 8.59 17.24 9V15.15C17.24 15.42 17.09 15.67 16.86 15.8C16.75 15.87 16.63 15.9 16.5 15.9Z" fill="black"/>
<path d="M12.0004 18.4483C11.8504 18.4483 11.7104 18.4083 11.5804 18.3183L9.33044 16.8183C8.99044 16.5883 8.89043 16.1183 9.12043 15.7783C9.35043 15.4283 9.82044 15.3383 10.1604 15.5683L11.9904 16.7883L13.8204 15.5683C14.1604 15.3383 14.6304 15.4283 14.8604 15.7783C15.0904 16.1183 15.0004 16.5883 14.6504 16.8183L12.4004 18.3183C12.2904 18.4083 12.1504 18.4483 12.0004 18.4483Z" fill="black"/>
<path d="M12 22.75C6.07 22.75 1.25 17.93 1.25 12C1.25 6.07 6.07 1.25 12 1.25C17.93 1.25 22.75 6.07 22.75 12C22.75 17.93 17.93 22.75 12 22.75ZM12 2.75C6.9 2.75 2.75 6.9 2.75 12C2.75 17.1 6.9 21.25 12 21.25C17.1 21.25 21.25 17.1 21.25 12C21.25 6.9 17.1 2.75 12 2.75Z" fill="black"/>
</svg>
