<svg width="24" height="24" viewBox="0 0 24 24" fill="none" xmlns="http://www.w3.org/2000/svg">
<path d="M15 22.75H9C3.57 22.75 1.25 20.43 1.25 15V9C1.25 3.57 3.57 1.25 9 1.25H15C20.43 1.25 22.75 3.57 22.75 9V13C22.75 13.41 22.41 13.75 22 13.75C21.59 13.75 21.25 13.41 21.25 13V9C21.25 4.39 19.61 2.75 15 2.75H9C4.39 2.75 2.75 4.39 2.75 9V15C2.75 19.61 4.39 21.25 9 21.25H15C15.41 21.25 15.75 21.59 15.75 22C15.75 22.41 15.41 22.75 15 22.75Z" fill="#292D32"/>
<path d="M18.9995 22.7485C18.5895 22.7485 18.2495 22.4085 18.2495 21.9985V17.8085L17.5295 18.5285C17.2395 18.8185 16.7595 18.8185 16.4695 18.5285C16.1795 18.2385 16.1795 17.7585 16.4695 17.4685L18.4695 15.4685C18.6795 15.2585 19.0095 15.1885 19.2895 15.3085C19.5695 15.4285 19.7495 15.6985 19.7495 15.9985V21.9985C19.7495 22.4085 19.4095 22.7485 18.9995 22.7485Z" fill="#292D32"/>
<path d="M20.9995 18.7514C20.8095 18.7514 20.6195 18.6814 20.4695 18.5314L18.4695 16.5314C18.1795 16.2414 18.1795 15.7614 18.4695 15.4714C18.7595 15.1814 19.2395 15.1814 19.5295 15.4714L21.5295 17.4714C21.8195 17.7614 21.8195 18.2414 21.5295 18.5314C21.3795 18.6814 21.1895 18.7514 20.9995 18.7514Z" fill="#292D32"/>
<path d="M8.89974 16.4911C8.86974 16.4911 8.83974 16.4911 8.81974 16.4911C8.40974 16.4411 8.10974 16.0711 8.15974 15.6611L9.19974 6.18107C9.24974 5.77107 9.61974 5.47107 10.0297 5.52107C10.4397 5.57107 10.7397 5.94107 10.6897 6.35107L9.63975 15.8211C9.59975 16.2011 9.26974 16.4911 8.89974 16.4911Z" fill="#292D32"/>
<path d="M12.0501 16.4889C12.0201 16.4889 11.9901 16.4889 11.9701 16.4889C11.5601 16.4389 11.2601 16.0689 11.3101 15.6589L12.3601 6.18889C12.4101 5.77889 12.7801 5.47889 13.1901 5.52889C13.6001 5.57889 13.9001 5.94889 13.8501 6.35889L12.8001 15.8289C12.7601 16.1989 12.4301 16.4889 12.0501 16.4889Z" fill="#292D32"/>
<path d="M15.9993 10.1719H6.5293C6.1193 10.1719 5.7793 9.83187 5.7793 9.42188C5.7793 9.01188 6.1193 8.67188 6.5293 8.67188H15.9993C16.4093 8.67188 16.7493 9.01188 16.7493 9.42188C16.7493 9.83187 16.4093 10.1719 15.9993 10.1719Z" fill="#292D32"/>
<path d="M15.47 13.3281H6C5.59 13.3281 5.25 12.9881 5.25 12.5781C5.25 12.1681 5.59 11.8281 6 11.8281H15.47C15.88 11.8281 16.22 12.1681 16.22 12.5781C16.22 12.9881 15.89 13.3281 15.47 13.3281Z" fill="#292D32"/>
</svg>
