<svg width="24" height="24" viewBox="0 0 24 24" fill="none" xmlns="http://www.w3.org/2000/svg">
<path d="M14.9707 22.75H8.9707C3.5407 22.75 1.2207 20.43 1.2207 15V9C1.2207 3.57 3.5407 1.25 8.9707 1.25H14.9707C20.4007 1.25 22.7207 3.57 22.7207 9V15C22.7207 20.43 20.4107 22.75 14.9707 22.75ZM8.9707 2.75C4.3607 2.75 2.7207 4.39 2.7207 9V15C2.7207 19.61 4.3607 21.25 8.9707 21.25H14.9707C19.5807 21.25 21.2207 19.61 21.2207 15V9C21.2207 4.39 19.5807 2.75 14.9707 2.75H8.9707Z" fill="#292D32"/>
<path d="M22 16.25H2C1.59 16.25 1.25 15.91 1.25 15.5C1.25 15.09 1.59 14.75 2 14.75H22C22.41 14.75 22.75 15.09 22.75 15.5C22.75 15.91 22.41 16.25 22 16.25Z" fill="#292D32"/>
<path d="M12.0009 11.8114C11.8109 11.8114 11.6209 11.7414 11.4709 11.5914L8.91086 9.03141C8.62086 8.74141 8.62086 8.26141 8.91086 7.97141C9.20086 7.68141 9.68086 7.68141 9.97086 7.97141L12.0009 10.0014L14.0309 7.97141C14.3209 7.68141 14.8009 7.68141 15.0909 7.97141C15.3809 8.26141 15.3809 8.74141 15.0909 9.03141L12.5309 11.5914C12.3809 11.7414 12.1909 11.8114 12.0009 11.8114Z" fill="#292D32"/>
</svg>
