<svg width="24" height="24" viewBox="0 0 24 24" fill="none" xmlns="http://www.w3.org/2000/svg">
<path d="M16.6713 20.8309C16.6512 20.8309 16.6412 20.8309 16.6312 20.8309H5.54125C2.60125 20.6209 1.28125 18.3509 1.28125 16.3409C1.28125 14.5409 2.33125 12.5409 4.61125 11.9909C3.61125 8.15092 5.51125 5.46092 7.75125 4.19092C10.3512 2.71092 14.2213 2.70093 16.5712 5.55093C16.5913 5.58092 16.6112 5.61092 16.6312 5.64092C17.3312 6.53092 17.8212 7.60092 18.1012 8.84092C19.3312 9.11092 20.3912 9.77092 21.2212 10.7509C23.1112 12.9809 23.4713 16.8609 20.7712 19.2409C19.6512 20.2709 18.2013 20.8309 16.6713 20.8309ZM11.4913 4.70092C10.4312 4.70092 9.38125 4.99092 8.50125 5.49092C6.08125 6.87092 5.26125 9.43093 6.30125 12.3509C6.38125 12.5809 6.35125 12.8409 6.21125 13.0309C6.07125 13.2209 5.84125 13.3509 5.60125 13.3509C3.66125 13.4909 2.79125 14.9509 2.79125 16.3409C2.79125 17.7309 3.66125 19.1909 5.60125 19.3409H16.6412C17.8013 19.3509 18.9212 18.9209 19.7712 18.1409L19.7812 18.1309C21.8113 16.3509 21.5112 13.4209 20.0812 11.7309C19.3812 10.9009 18.4512 10.3909 17.3812 10.2509C17.0512 10.2109 16.7913 9.96092 16.7413 9.63092C16.5312 8.39092 16.0913 7.35092 15.4313 6.53093C15.4113 6.51093 15.4013 6.48092 15.3813 6.46092C14.3213 5.22092 12.9012 4.70092 11.4913 4.70092Z" fill="#292D32"/>
<path d="M7.25984 13.7618C7.14984 13.7618 7.02984 13.7318 6.92984 13.6818C6.50984 13.4718 6.04984 13.3618 5.57984 13.3518C5.16984 13.3418 4.83984 13.0018 4.83984 12.5918C4.84984 12.1818 5.23984 11.8418 5.59984 11.8518C6.28984 11.8618 6.97984 12.0318 7.58984 12.3418C7.95984 12.5218 8.10984 12.9818 7.92984 13.3518C7.79984 13.6118 7.53984 13.7618 7.25984 13.7618Z" fill="#292D32"/>
<path d="M15.8481 10.6702C15.5681 10.6702 15.3081 10.5202 15.1781 10.2502C14.9881 9.88022 15.1481 9.43022 15.5181 9.24022C16.1381 8.93022 16.8281 8.76022 17.5081 8.75022C17.9081 8.74022 18.2681 9.07022 18.2681 9.49022C18.2781 9.90022 17.9481 10.2502 17.5281 10.2502C17.0681 10.2602 16.5981 10.3702 16.1781 10.5802C16.0681 10.6402 15.9581 10.6702 15.8481 10.6702Z" fill="#292D32"/>
<path d="M20.65 11.98C20.44 11.98 20.22 11.89 20.07 11.71C19.38 10.88 18.44 10.37 17.37 10.23C17.04 10.19 16.78 9.94 16.73 9.61C16.52 8.37 16.08 7.33 15.42 6.51C15.31 6.38 15.25 6.21 15.25 6.04C15.25 5.84 15.33 5.64 15.47 5.5C16.27 4.69 17.33 4.25 18.47 4.25C20.81 4.25 22.72 6.16 22.72 8.5C22.72 9.8 22.14 11.01 21.12 11.82C20.98 11.93 20.82 11.98 20.65 11.98ZM18.11 8.84C19.07 9.05 19.94 9.5 20.66 10.16C21.02 9.69 21.22 9.11 21.22 8.5C21.22 6.98 19.99 5.75 18.47 5.75C17.95 5.75 17.45 5.89 17.02 6.17C17.53 6.94 17.89 7.84 18.11 8.84Z" fill="#292D32"/>
</svg>
