<svg width="24" height="24" viewBox="0 0 24 24" fill="none" xmlns="http://www.w3.org/2000/svg">
<path d="M13.5719 22.3801C13.3419 22.3801 13.1119 22.3401 12.8919 22.2601C12.1419 21.9801 11.6619 21.2801 11.6619 20.4801V14.0301H9.32192C8.56192 14.0301 7.90191 13.6001 7.59191 12.9101C7.28191 12.2201 7.40191 11.4401 7.90191 10.8701L15.4719 2.27006C16.0019 1.67006 16.8219 1.46006 17.5719 1.75006C18.3219 2.03006 18.8019 2.73006 18.8019 3.53006V9.98006H21.1419C21.9019 9.98006 22.5619 10.4101 22.8719 11.1001C23.1819 11.7901 23.0619 12.5701 22.5619 13.1401L14.9919 21.7401C14.6219 22.1601 14.1019 22.3801 13.5719 22.3801ZM16.8819 3.12006C16.7919 3.12006 16.6819 3.15006 16.5919 3.26006L9.0219 11.8701C8.8619 12.0501 8.92193 12.2301 8.95193 12.3001C8.98193 12.3701 9.08192 12.5401 9.32192 12.5401H12.4119C12.8219 12.5401 13.1619 12.8801 13.1619 13.2901V20.4901C13.1619 20.7401 13.3419 20.8401 13.4219 20.8701C13.5019 20.9001 13.7019 20.9501 13.8619 20.7601L21.4319 12.1501C21.5919 11.9701 21.5319 11.7901 21.5019 11.7201C21.4719 11.6501 21.3719 11.4801 21.1319 11.4801H18.0419C17.6319 11.4801 17.2919 11.1401 17.2919 10.7301V3.53006C17.2919 3.28006 17.1119 3.18006 17.0319 3.15006C17.0019 3.13006 16.9419 3.12006 16.8819 3.12006Z" fill="#292D32"/>
<path d="M8.5 4.75H1.5C1.09 4.75 0.75 4.41 0.75 4C0.75 3.59 1.09 3.25 1.5 3.25H8.5C8.91 3.25 9.25 3.59 9.25 4C9.25 4.41 8.91 4.75 8.5 4.75Z" fill="#292D32"/>
<path d="M7.5 20.75H1.5C1.09 20.75 0.75 20.41 0.75 20C0.75 19.59 1.09 19.25 1.5 19.25H7.5C7.91 19.25 8.25 19.59 8.25 20C8.25 20.41 7.91 20.75 7.5 20.75Z" fill="#292D32"/>
<path d="M4.5 12.75H1.5C1.09 12.75 0.75 12.41 0.75 12C0.75 11.59 1.09 11.25 1.5 11.25H4.5C4.91 11.25 5.25 11.59 5.25 12C5.25 12.41 4.91 12.75 4.5 12.75Z" fill="#292D32"/>
</svg>
