<svg width="24" height="24" viewBox="0 0 24 24" fill="none" xmlns="http://www.w3.org/2000/svg">
<path d="M16.1999 10C16.1999 10 15.9999 11 12.9999 15C10.0999 18.8 14.2999 21.6 14.7999 22H14.8999C15.4999 21.5 23.0999 16.7 16.1999 10Z" stroke="#17191C" stroke-width="1.5" stroke-miterlimit="10" stroke-linecap="round" stroke-linejoin="round"/>
<path d="M13.7998 7.80007C13.7998 5.50007 12.8998 3.40007 11.9998 2.20007C11.6998 1.90007 11.1998 2.00007 11.0998 2.40007C10.6998 3.90007 9.49981 7.10007 6.59981 10.9001C2.89981 15.7001 6.29981 20.9001 9.79981 21.9001C11.6998 22.4001 9.29981 20.9001 8.99981 17.8001C8.69981 13.9001 13.7998 11.0001 13.7998 7.80007Z" stroke="#17191C" stroke-width="1.5" stroke-miterlimit="10" stroke-linecap="round" stroke-linejoin="round"/>
</svg>
