<svg width="24" height="24" viewBox="0 0 24 24" fill="none" xmlns="http://www.w3.org/2000/svg">
<path d="M8 5.75C7.59 5.75 7.25 5.41 7.25 5V2C7.25 1.59 7.59 1.25 8 1.25C8.41 1.25 8.75 1.59 8.75 2V5C8.75 5.41 8.41 5.75 8 5.75Z" fill="#292D32"/>
<path d="M16 5.75C15.59 5.75 15.25 5.41 15.25 5V2C15.25 1.59 15.59 1.25 16 1.25C16.41 1.25 16.75 1.59 16.75 2V5C16.75 5.41 16.41 5.75 16 5.75Z" fill="#292D32"/>
<path d="M8.5 14.4984C8.37 14.4984 8.24 14.4784 8.12 14.4184C8 14.3684 7.88999 14.2983 7.78999 14.2083C7.60999 14.0183 7.5 13.7584 7.5 13.4984C7.5 13.3684 7.53 13.2384 7.58 13.1184C7.63 12.9984 7.69999 12.8884 7.78999 12.7884C7.88999 12.6984 8 12.6283 8.12 12.5783C8.48 12.4283 8.93001 12.5084 9.21001 12.7884C9.30001 12.8884 9.37 12.9984 9.42 13.1184C9.47 13.2384 9.5 13.3684 9.5 13.4984C9.5 13.7584 9.39001 14.0183 9.21001 14.2083C9.02001 14.3883 8.76 14.4984 8.5 14.4984Z" fill="#292D32"/>
<path d="M12 14.4989C11.74 14.4989 11.48 14.3889 11.29 14.2089C11.2 14.1089 11.13 13.9989 11.08 13.8789C11.03 13.7589 11 13.6289 11 13.4989C11 13.2389 11.11 12.9789 11.29 12.7889C11.57 12.5089 12.01 12.4189 12.38 12.5789C12.5 12.6289 12.61 12.6989 12.71 12.7889C12.89 12.9789 13 13.2389 13 13.4989C13 13.6289 12.98 13.7589 12.92 13.8789C12.87 13.9989 12.8 14.1089 12.71 14.2089C12.61 14.2989 12.5 14.3689 12.38 14.4189C12.26 14.4789 12.13 14.4989 12 14.4989Z" fill="#292D32"/>
<path d="M8.5 17.9989C8.37 17.9989 8.24 17.9689 8.12 17.9189C8 17.8689 7.88999 17.7989 7.78999 17.7089C7.60999 17.5189 7.5 17.2689 7.5 16.9989C7.5 16.8689 7.53 16.7389 7.58 16.6189C7.63 16.4889 7.69999 16.3889 7.78999 16.2889C7.88999 16.1989 8 16.1289 8.12 16.0789C8.48 15.9189 8.93001 16.0089 9.21001 16.2889C9.30001 16.3889 9.37 16.4889 9.42 16.6189C9.47 16.7389 9.5 16.8689 9.5 16.9989C9.5 17.2689 9.39001 17.5189 9.21001 17.7089C9.02001 17.8889 8.76 17.9989 8.5 17.9989Z" fill="#292D32"/>
<path d="M20.5 9.83984H3.5C3.09 9.83984 2.75 9.49984 2.75 9.08984C2.75 8.67984 3.09 8.33984 3.5 8.33984H20.5C20.91 8.33984 21.25 8.67984 21.25 9.08984C21.25 9.49984 20.91 9.83984 20.5 9.83984Z" fill="#292D32"/>
<path d="M18 23.75C15.38 23.75 13.25 21.62 13.25 19C13.25 16.38 15.38 14.25 18 14.25C20.62 14.25 22.75 16.38 22.75 19C22.75 21.62 20.62 23.75 18 23.75ZM18 15.75C16.21 15.75 14.75 17.21 14.75 19C14.75 20.79 16.21 22.25 18 22.25C19.79 22.25 21.25 20.79 21.25 19C21.25 17.21 19.79 15.75 18 15.75Z" fill="#292D32"/>
<path d="M19.49 19.8008H16.5C16.09 19.8008 15.75 19.4608 15.75 19.0508C15.75 18.6408 16.09 18.3008 16.5 18.3008H19.49C19.9 18.3008 20.24 18.6408 20.24 19.0508C20.24 19.4608 19.91 19.8008 19.49 19.8008Z" fill="#292D32"/>
<path d="M18 21.3298C17.59 21.3298 17.25 20.9898 17.25 20.5798V17.5898C17.25 17.1798 17.59 16.8398 18 16.8398C18.41 16.8398 18.75 17.1798 18.75 17.5898V20.5798C18.75 20.9898 18.41 21.3298 18 21.3298Z" fill="#292D32"/>
<path d="M15.37 22.75H8C4.35 22.75 2.25 20.65 2.25 17V8.5C2.25 4.85 4.35 2.75 8 2.75H16C19.65 2.75 21.75 4.85 21.75 8.5V16.36C21.75 16.67 21.56 16.95 21.26 17.06C20.97 17.17 20.64 17.09 20.43 16.85C19.81 16.15 18.92 15.75 17.99 15.75C16.2 15.75 14.74 17.21 14.74 19C14.74 19.59 14.9 20.17 15.21 20.67C15.38 20.97 15.6 21.22 15.84 21.43C16.08 21.63 16.17 21.96 16.06 22.26C15.97 22.55 15.69 22.75 15.37 22.75ZM8 4.25C5.14 4.25 3.75 5.64 3.75 8.5V17C3.75 19.86 5.14 21.25 8 21.25H13.82C13.45 20.57 13.25 19.8 13.25 19C13.25 16.38 15.38 14.25 18 14.25C18.79 14.25 19.57 14.45 20.25 14.82V8.5C20.25 5.64 18.86 4.25 16 4.25H8Z" fill="#292D32"/>
</svg>
