<svg id="Vuesax_Bold_Export" data-name="Vuesax/Bold/Export" xmlns="http://www.w3.org/2000/svg" width="24" height="24" viewBox="0 0 24 24">
  <g id="Group">
    <path id="Vector" d="M14.8,0H10.75V6.25a.75.75,0,0,1-1.5,0V0H5.2A4.832,4.832,0,0,0,0,5.2V7.79A4.835,4.835,0,0,0,5.2,13h9.59a4.832,4.832,0,0,0,5.2-5.2V5.2A4.819,4.819,0,0,0,14.8,0Z" transform="translate(2 9)" fill="#fff"/>
    <path id="Vector-2" data-name="Vector" d="M4.848,2.557l2.07,2.07a.748.748,0,0,0,1.06,0,.754.754,0,0,0,0-1.06L4.628.218a.754.754,0,0,0-1.06,0L.218,3.568a.75.75,0,0,0,1.06,1.06l2.07-2.07V7h1.5Z" transform="translate(7.902 2.003)" fill="#fff"/>
  </g>
</svg>
