<svg xmlns="http://www.w3.org/2000/svg" width="24" height="24" viewBox="0 0 24 24">
  <g id="vuesax_bold_clock" data-name="vuesax/bold/clock" transform="translate(-172 -188)">
    <g id="clock">
      <path id="Vector" d="M10,0A10,10,0,1,0,20,10,10.016,10.016,0,0,0,10,0Zm4.35,13.57a.746.746,0,0,1-.65.37.67.67,0,0,1-.38-.11l-3.1-1.85A2.949,2.949,0,0,1,8.88,9.62V5.52a.75.75,0,0,1,1.5,0v4.1a1.478,1.478,0,0,0,.61,1.07l3.1,1.85A.74.74,0,0,1,14.35,13.57Z" transform="translate(174 190)" fill="#292d32"/>
      <path id="Vector-2" data-name="Vector" d="M0,0H24V24H0Z" transform="translate(196 212) rotate(180)" fill="none" opacity="0"/>
    </g>
  </g>
</svg>
