<svg xmlns="http://www.w3.org/2000/svg" width="24" height="24" viewBox="0 0 24 24">
  <g id="vuesax_bold_gameboy" data-name="vuesax/bold/gameboy" transform="translate(-552 -382)">
    <g id="gameboy">
      <path id="Vector" d="M0,0H24V24H0Z" transform="translate(552 382)" fill="none" opacity="0"/>
      <path id="Vector-2" data-name="Vector" d="M14,0H4A4.012,4.012,0,0,0,0,4V16a4.012,4.012,0,0,0,4,4H14a4.012,4.012,0,0,0,4-4V4A4.012,4.012,0,0,0,14,0ZM7.86,16.14a.748.748,0,0,1-1.06,0l-.65-.65-.62.62a.748.748,0,0,1-1.06,0,.754.754,0,0,1,0-1.06l.62-.62-.59-.59a.75.75,0,0,1,1.06-1.06l.59.59.62-.62a.75.75,0,0,1,1.06,1.06l-.62.62.65.65A.754.754,0,0,1,7.86,16.14Zm3.63.35a.994.994,0,0,1-1-.99v-.02a1,1,0,1,1,1,1.01Zm2.02-2.16a1.012,1.012,0,0,1-1.01-1,.994.994,0,0,1,.99-1h.02a1,1,0,0,1,0,2ZM15,7.25A1.758,1.758,0,0,1,13.25,9H4.75A1.758,1.758,0,0,1,3,7.25V4.75A1.758,1.758,0,0,1,4.75,3h8.5A1.758,1.758,0,0,1,15,4.75Z" transform="translate(555 384)" fill="#292d32"/>
    </g>
  </g>
</svg>
