<svg width="24" height="24" viewBox="0 0 24 24" fill="none" xmlns="http://www.w3.org/2000/svg">
<path d="M5.5393 11.1201C0.859297 11.4501 0.859297 18.2601 5.5393 18.5901H7.45934" stroke="#292D32" stroke-width="1.5" stroke-miterlimit="10" stroke-linecap="round" stroke-linejoin="round"/>
<path d="M17.4691 8C21.7991 8.55 23.5491 14.32 20.2691 17.19C19.2691 18.1 17.9791 18.6 16.6291 18.59H16.5391" stroke="#292D32" stroke-width="1.5" stroke-miterlimit="10" stroke-linecap="round" stroke-linejoin="round"/>
<path d="M5.58881 11.1202C3.05881 4.09022 10.9188 0.380226 15.1288 3.70023" stroke="#292D32" stroke-width="1.5" stroke-miterlimit="10" stroke-linecap="round" stroke-linejoin="round"/>
<path d="M17 16.5298C17 17.2698 16.84 17.9698 16.54 18.5898C16.46 18.7698 16.37 18.9398 16.27 19.0998C15.41 20.5498 13.82 21.5298 12 21.5298C10.18 21.5298 8.58998 20.5498 7.72998 19.0998C7.62998 18.9398 7.54002 18.7698 7.46002 18.5898C7.16002 17.9698 7 17.2698 7 16.5298C7 13.7698 9.24 11.5298 12 11.5298C14.76 11.5298 17 13.7698 17 16.5298Z" stroke="#292D32" stroke-width="1.5" stroke-miterlimit="10" stroke-linecap="round" stroke-linejoin="round"/>
<path d="M10.4395 16.5298L11.4294 17.5198L13.5594 15.5498" stroke="#292D32" stroke-width="1.5" stroke-linecap="round" stroke-linejoin="round"/>
</svg>
