<svg xmlns="http://www.w3.org/2000/svg" width="20.008" height="18.858" viewBox="0 0 20.008 18.858">
  <g id="_8b" data-name="8b" transform="translate(-2 -1.742)">
    <path id="Vector" d="M4.97,7H2.03A1.866,1.866,0,0,1,0,4.97V2.03A1.866,1.866,0,0,1,2.03,0H4.97A1.866,1.866,0,0,1,7,2.03V4.97A1.866,1.866,0,0,1,4.97,7Zm.22-3.31a.628.628,0,0,0-.88,0l-.18.18V1.63a.63.63,0,0,0-1.26,0V3.87l-.18-.18a.622.622,0,1,0-.88.88L3.06,5.82a.615.615,0,0,0,.19.12c.02.01.04.01.06.02a.415.415,0,0,0,.16.03h.06a.477.477,0,0,0,.2-.04h.02a.567.567,0,0,0,.18-.12c.01-.01.01-.01.02-.01L5.2,4.57a.619.619,0,0,0-.01-.88Z" transform="translate(15 1.75)" fill="#292d32"/>
    <path id="Vector-2" data-name="Vector" d="M0,1.21v5a4.135,4.135,0,0,0,4.14,4.14H15.85A4.153,4.153,0,0,0,20,6.2V1.21A1.208,1.208,0,0,0,18.79,0H1.21A1.208,1.208,0,0,0,0,1.21ZM6,7H4A.75.75,0,1,1,4,5.5H6A.75.75,0,0,1,6,7Zm6.5,0h-4a.75.75,0,1,1,0-1.5h4a.75.75,0,1,1,0,1.5Z" transform="translate(2 10.25)" fill="#292d32"/>
    <path id="Vector-3" data-name="Vector" d="M11.5,1.21V4.14a1.208,1.208,0,0,1-1.21,1.21H1.21A1.218,1.218,0,0,1,0,4.12,4.131,4.131,0,0,1,4.14,0h6.15A1.208,1.208,0,0,1,11.5,1.21Z" transform="translate(2 3.4)" fill="#292d32"/>
  </g>
</svg>
