<svg width="24" height="24" viewBox="0 0 24 24" fill="none" xmlns="http://www.w3.org/2000/svg">
<path d="M8.9707 2C12.5207 2 15.4507 4.64 15.9007 8.07C15.9507 8.37 15.9707 8.68 15.9707 9C15.9707 12.87 12.8407 16 8.9707 16C8.6507 16 8.3407 15.98 8.0407 15.93C4.6107 15.48 1.9707 12.55 1.9707 9C1.9707 7.07 2.7507 5.32 4.0207 4.05" stroke="#292D32" stroke-width="1.5" stroke-linecap="round" stroke-linejoin="round"/>
<path d="M21.9691 15.0003C21.9691 18.8703 18.8391 22.0003 14.9691 22.0003C11.4191 22.0003 8.48906 19.3603 8.03906 15.9303C8.33906 15.9803 8.64906 16.0003 8.96906 16.0003C12.8391 16.0003 15.9691 12.8703 15.9691 9.00031C15.9691 8.68031 15.9491 8.37031 15.8991 8.07031C19.3291 8.52031 21.9691 11.4503 21.9691 15.0003Z" stroke="#292D32" stroke-width="1.5" stroke-linecap="round" stroke-linejoin="round"/>
<path d="M14.1191 14.1211L15.4291 15.4111" stroke="#292D32" stroke-width="1.5" stroke-linecap="round" stroke-linejoin="round"/>
<path d="M16.9707 12L15.9707 11" stroke="#292D32" stroke-width="1.5" stroke-linecap="round" stroke-linejoin="round"/>
<path d="M11.9707 17L10.9707 16" stroke="#292D32" stroke-width="1.5" stroke-linecap="round" stroke-linejoin="round"/>
</svg>
