<svg width="24" height="24" viewBox="0 0 24 24" fill="none" xmlns="http://www.w3.org/2000/svg">
<path d="M1.9707 12.9414V15.0014C1.9707 20.0014 3.9707 22.0014 8.9707 22.0014H14.9707C19.9707 22.0014 21.9707 20.0014 21.9707 15.0014V13.0014" stroke="#292D32" stroke-width="1.5" stroke-linecap="round" stroke-linejoin="round"/>
<path d="M10.9707 2H8.9707C3.9707 2 1.9707 4 1.9707 9" stroke="#292D32" stroke-width="1.5" stroke-linecap="round" stroke-linejoin="round"/>
<path d="M18.5092 3.00022C19.1692 2.63022 19.8092 2.32022 20.4092 2.08022C20.8792 1.90022 21.3392 2.04022 21.6292 2.33022C21.9292 2.63022 22.0792 3.09022 21.8892 3.56022C20.6592 6.63022 17.5692 10.8102 14.9892 12.8802L13.4092 14.1402C13.2092 14.2902 13.0092 14.4102 12.7792 14.5002C12.7792 14.3502 12.7692 14.2002 12.7492 14.0402C12.6592 13.3702 12.3592 12.7402 11.8192 12.2102C11.2692 11.6602 10.6092 11.3502 9.92922 11.2602C9.76922 11.2502 9.60922 11.2402 9.44922 11.2502C9.53922 11.0002 9.66922 10.7702 9.83922 10.5802L11.0892 9.00022C12.1592 7.66022 13.8092 6.18022 15.5792 4.89022" stroke="#292D32" stroke-width="1.5" stroke-linecap="round" stroke-linejoin="round"/>
<path d="M12.7801 14.4885C12.7801 15.3685 12.4401 16.2085 11.8101 16.8485C11.3201 17.3385 10.6601 17.6785 9.87009 17.7785L7.90009 17.9885C6.83009 18.1085 5.91009 17.1985 6.03009 16.1085L6.24009 14.1385C6.43009 12.3885 7.89009 11.2685 9.45009 11.2385C9.61009 11.2285 9.77009 11.2385 9.93009 11.2485C10.6101 11.3385 11.2701 11.6485 11.8201 12.1985C12.3601 12.7385 12.6601 13.3585 12.7501 14.0285C12.7701 14.1885 12.7801 14.3485 12.7801 14.4885Z" stroke="#292D32" stroke-width="1.5" stroke-linecap="round" stroke-linejoin="round"/>
<path d="M15.8193 11.9814C15.8193 9.89141 14.1293 8.19141 12.0293 8.19141" stroke="#292D32" stroke-width="1.5" stroke-linecap="round" stroke-linejoin="round"/>
</svg>
