<svg width="24" height="24" viewBox="0 0 24 24" fill="none" xmlns="http://www.w3.org/2000/svg">
<path opacity="0.4" d="M19.2107 6.36148C18.1707 4.26148 16.1607 2.71148 13.8307 2.20148C11.3907 1.66148 8.8907 2.24148 6.9807 3.78148C5.0607 5.31148 3.9707 7.60148 3.9707 10.0515C3.9707 12.6415 5.5207 15.3515 7.8607 16.9215V17.7515C7.8507 18.0315 7.8407 18.4615 8.1807 18.8115C8.5307 19.1715 9.0507 19.2115 9.4607 19.2115H14.5907C15.1307 19.2115 15.5407 19.0615 15.8207 18.7815C16.2007 18.3915 16.1907 17.8915 16.1807 17.6215V16.9215C19.2807 14.8315 21.2307 10.4215 19.2107 6.36148Z" fill="#292D32"/>
<path d="M15.2592 21.9984C15.1992 21.9984 15.1292 21.9884 15.0692 21.9684C13.0592 21.3984 10.9492 21.3984 8.93918 21.9684C8.56918 22.0684 8.17918 21.8584 8.07918 21.4884C7.96918 21.1184 8.18918 20.7284 8.55918 20.6284C10.8192 19.9884 13.1992 19.9884 15.4592 20.6284C15.8292 20.7384 16.0492 21.1184 15.9392 21.4884C15.8392 21.7984 15.5592 21.9984 15.2592 21.9984Z" fill="#292D32"/>
<path d="M12.0004 13.8509C11.8704 13.8509 11.7404 13.8209 11.6304 13.7509C11.2704 13.5409 11.1504 13.0809 11.3504 12.7309L12.2004 11.2509H11.3604C10.8604 11.2509 10.4504 11.0309 10.2304 10.6609C10.0104 10.2809 10.0304 9.82088 10.2804 9.38088L11.3504 7.52088C11.5604 7.16088 12.0204 7.04088 12.3704 7.24088C12.7304 7.45088 12.8504 7.91088 12.6504 8.26088L11.8004 9.75088H12.6404C13.1404 9.75088 13.5504 9.97088 13.7704 10.3409C13.9904 10.7209 13.9704 11.1809 13.7204 11.6209L12.6504 13.4809C12.5104 13.7209 12.2604 13.8509 12.0004 13.8509Z" fill="#292D32"/>
</svg>
