<svg width="24" height="24" viewBox="0 0 24 24" fill="none" xmlns="http://www.w3.org/2000/svg">
<path opacity="0.4" d="M18 18.8597H17.24C16.44 18.8597 15.68 19.1697 15.12 19.7297L13.41 21.4197C12.63 22.1897 11.36 22.1897 10.58 21.4197L8.87 19.7297C8.31 19.1697 7.54 18.8597 6.75 18.8597H6C4.34 18.8597 3 17.5298 3 15.8898V4.97974C3 3.33974 4.34 2.00977 6 2.00977H18C19.66 2.00977 21 3.33974 21 4.97974V15.8898C21 17.5198 19.66 18.8597 18 18.8597Z" fill="#292D32"/>
<path d="M10.3802 14.5099H7.70023C7.26023 14.5099 6.85023 14.2999 6.59023 13.9399C6.34023 13.5999 6.28022 13.18 6.40022 12.78C6.75022 11.71 7.61022 11.1299 8.37022 10.6099C9.17022 10.0699 9.62022 9.72996 9.62022 9.14996C9.62022 8.62996 9.20022 8.20996 8.68022 8.20996C8.16022 8.20996 7.74023 8.62996 7.74023 9.14996C7.74023 9.55996 7.40023 9.89996 6.99023 9.89996C6.58023 9.89996 6.24023 9.55996 6.24023 9.14996C6.24023 7.80996 7.33022 6.70996 8.68022 6.70996C10.0302 6.70996 11.1202 7.79996 11.1202 9.14996C11.1202 10.56 10.0602 11.2799 9.21024 11.8599C8.68024 12.2199 8.18022 12.5599 7.93022 13.0099H10.3702C10.7802 13.0099 11.1202 13.3499 11.1202 13.7599C11.1202 14.1699 10.7902 14.5099 10.3802 14.5099Z" fill="#292D32"/>
<path d="M16.0408 14.5099C15.6308 14.5099 15.2908 14.1699 15.2908 13.7599V13.0699H13.3309C13.3309 13.0699 13.3309 13.0699 13.3209 13.0699C12.8309 13.0699 12.3809 12.81 12.1309 12.39C11.8809 11.96 11.8809 11.4299 12.1309 11.0099C12.8109 9.83995 13.6009 8.50991 14.3209 7.34991C14.6409 6.83991 15.2509 6.60996 15.8209 6.76996C16.3909 6.93996 16.7909 7.45993 16.7809 8.05993V11.58H17.0009C17.4109 11.58 17.7509 11.92 17.7509 12.33C17.7509 12.74 17.4109 13.08 17.0009 13.08H16.7908V13.77C16.7908 14.18 16.4608 14.5099 16.0408 14.5099ZM15.2908 8.63995C14.7008 9.59995 14.0908 10.6299 13.5408 11.5699H15.2908V8.63995Z" fill="#292D32"/>
</svg>
