<svg width="24" height="24" viewBox="0 0 24 24" fill="none" xmlns="http://www.w3.org/2000/svg">
<path d="M8.58023 22.5498C8.36023 22.5498 8.13023 22.5098 7.92023 22.4198C7.45023 22.2198 7.09023 21.8298 6.93023 21.3398L6.49023 20.0198C6.29023 19.4198 6.47023 18.6698 6.91023 18.2198L9.18023 15.9398C9.21024 15.9098 9.25023 15.7998 9.25023 15.7498V13.2798L4.69023 15.2498C4.08023 15.5098 3.46023 15.4798 2.99023 15.1698C2.52023 14.8598 2.24023 14.2998 2.24023 13.6498V12.3598C2.24023 11.3798 2.94023 10.3298 3.83023 9.97982L9.24023 7.63982V4.79982C9.24023 3.58982 10.0902 2.19982 11.1702 1.63982C11.6902 1.37982 12.2902 1.37982 12.8002 1.63982C13.8902 2.19982 14.7402 3.57982 14.7402 4.78982V7.62982L20.1802 9.96982C21.0702 10.3498 21.7502 11.3698 21.7502 12.3598V13.6498C21.7502 14.3098 21.4802 14.8598 21.0002 15.1698C20.5202 15.4798 19.9102 15.5098 19.3002 15.2598L14.7402 13.2898V15.7598C14.7402 15.7998 14.7802 15.8998 14.8102 15.9298L17.0902 18.2198C17.5302 18.6598 17.7102 19.4298 17.5102 20.0198L17.0702 21.3398C16.9002 21.8298 16.5402 22.2198 16.0602 22.4098C15.5902 22.5998 15.0702 22.5798 14.6202 22.3598C14.5702 22.3298 14.5202 22.2998 14.4702 22.2598L12.1402 20.2998C12.0602 20.2298 11.9002 20.2398 11.8302 20.2998L9.50023 22.2598C9.46023 22.2998 9.41023 22.3298 9.36023 22.3498C9.12023 22.4898 8.85023 22.5498 8.58023 22.5498ZM9.56024 11.6398C9.79024 11.6398 10.0102 11.6998 10.2002 11.8298C10.5502 12.0598 10.7502 12.4498 10.7502 12.9098V15.7598C10.7502 16.1898 10.5402 16.6998 10.2402 16.9998L7.97023 19.2798C7.93023 19.3298 7.89023 19.4798 7.91023 19.5398L8.35023 20.8698C8.38024 20.9698 8.45023 21.0098 8.49023 21.0298C8.52023 21.0398 8.57023 21.0598 8.63023 21.0398L10.8702 19.1498C11.5002 18.6098 12.4902 18.6098 13.1202 19.1498L15.3502 21.0298C15.4202 21.0398 15.4702 21.0298 15.5002 21.0198C15.5402 20.9998 15.6202 20.9598 15.6502 20.8598L16.0902 19.5398C16.1102 19.4698 16.0702 19.3198 16.0302 19.2798L13.7602 16.9998C13.4602 16.7198 13.2402 16.1998 13.2402 15.7598V12.9098C13.2402 12.4598 13.4302 12.0698 13.7702 11.8398C14.1102 11.6098 14.5502 11.5798 14.9702 11.7598L19.8902 13.8798C20.0402 13.9398 20.1402 13.9398 20.1702 13.9198C20.2002 13.8998 20.2402 13.8098 20.2402 13.6498V12.3598C20.2402 11.9798 19.9202 11.4898 19.5802 11.3498L14.0002 8.93982C13.5602 8.74982 13.2502 8.26982 13.2502 7.78982V4.78982C13.2502 4.12982 12.7302 3.27982 12.1302 2.97982C12.0502 2.93982 11.9502 2.93982 11.8602 2.97982C11.2802 3.27982 10.7502 4.14982 10.7502 4.79982V7.79982C10.7502 8.26982 10.4402 8.75982 10.0002 8.94982L4.42023 11.3598C4.07023 11.4998 3.75023 11.9898 3.75023 12.3598V13.6498C3.75023 13.8098 3.79023 13.8998 3.82023 13.9198C3.85023 13.9398 3.95023 13.9398 4.10023 13.8798L9.01023 11.7598C9.19023 11.6798 9.38024 11.6398 9.56024 11.6398Z" fill="#292D32"/>
</svg>
