<svg width="24" height="24" viewBox="0 0 24 24" fill="none" xmlns="http://www.w3.org/2000/svg">
<path d="M2.62012 15.75V8.25C2.62012 7.48 2.65012 6.79 2.73012 6.18C3.10012 2.89 4.65012 2 8.88012 2H15.1301C19.3501 2 20.9101 2.89 21.2701 6.18C21.3601 6.79 21.3801 7.48 21.3801 8.25V15.75C21.3801 16.52 21.3501 17.21 21.2701 17.83C20.9001 21.11 19.3501 22 15.1201 22H8.88012C4.66012 22 3.10012 21.11 2.74012 17.83C2.65012 17.21 2.62012 16.52 2.62012 15.75Z" stroke="#292D32" stroke-width="1.5" stroke-linecap="round" stroke-linejoin="round"/>
<g opacity="0.4">
<path d="M21.2309 8.91992H17.1309" stroke="#292D32" stroke-width="1.5" stroke-linecap="round" stroke-linejoin="round"/>
<path d="M6.87051 8.91992H2.77051" stroke="#292D32" stroke-width="1.5" stroke-linecap="round" stroke-linejoin="round"/>
<path d="M17.1311 8.92012C17.1311 10.0501 16.2111 10.9701 15.0811 10.9701H8.92109C8.36109 10.9701 7.84109 10.7401 7.47109 10.3601C7.10109 10.0001 6.87109 9.49012 6.87109 8.92012C6.87109 7.79012 7.79109 6.87012 8.92109 6.87012H15.0711C15.6311 6.87012 16.1511 7.10012 16.5211 7.48012C16.9011 7.85012 17.1311 8.36012 17.1311 8.92012Z" stroke="#292D32" stroke-width="1.5" stroke-linecap="round" stroke-linejoin="round"/>
</g>
</svg>
