<svg width="24" height="24" viewBox="0 0 24 24" fill="none" xmlns="http://www.w3.org/2000/svg">
<path d="M19.3789 15.98V17.02C19.3789 18.61 18.7789 19.25 17.2589 19.25H5.37891V13.75H17.2589C18.7789 13.75 19.3789 14.39 19.3789 15.98Z" fill="#292D32"/>
<path d="M14.3789 7.48V8.52C14.3789 10.11 13.7689 10.75 12.2589 10.75H5.37891V5.25H12.2589C13.7689 5.25 14.3789 5.89 14.3789 7.48Z" fill="#292D32"/>
<path d="M5.37912 22C4.96912 22 4.62912 21.66 4.62912 21.25V2.75C4.61912 2.33 4.95912 2 5.37912 2C5.79912 2 6.12912 2.34 6.12912 2.75V21.25C6.11912 21.66 5.78912 22 5.37912 22Z" fill="#292D32"/>
</svg>
