<svg width="24" height="24" viewBox="0 0 24 24" fill="none" xmlns="http://www.w3.org/2000/svg">
<path opacity="0.4" d="M12.2009 11.8002L10.7908 13.2102C10.0108 13.9902 10.0108 15.2602 10.7908 16.0402C11.5708 16.8202 12.8408 16.8202 13.6208 16.0402L15.8409 13.8202C17.4009 12.2602 17.4009 9.73023 15.8409 8.16023C14.2809 6.60023 11.7508 6.60023 10.1808 8.16023L7.76086 10.5802C6.42086 11.9202 6.42086 14.0902 7.76086 15.4302" stroke="#292D32" stroke-width="1.5" stroke-linecap="round" stroke-linejoin="round"/>
<path d="M12 22C17.5228 22 22 17.5228 22 12C22 6.47715 17.5228 2 12 2C6.47715 2 2 6.47715 2 12C2 17.5228 6.47715 22 12 22Z" stroke="#292D32" stroke-width="1.5" stroke-linecap="round" stroke-linejoin="round"/>
</svg>
