<svg width="24" height="24" viewBox="0 0 24 24" fill="none" xmlns="http://www.w3.org/2000/svg">
<path opacity="0.4" d="M23.5293 12.0502C23.2393 11.7602 22.7593 11.7602 22.4693 12.0502L22.0093 12.5103V12.0002C22.0093 6.48024 17.5193 1.99023 11.9993 1.99023C8.94927 1.99023 6.09927 3.36023 4.18927 5.74023C3.92927 6.06023 3.97927 6.54022 4.30927 6.79022C4.62927 7.05022 5.10927 7.00023 5.35927 6.67023C6.98927 4.64023 9.40927 3.48022 11.9993 3.48022C16.6893 3.48022 20.5093 7.30023 20.5093 11.9902V12.4902L20.0493 12.0303C19.7593 11.7403 19.2793 11.7403 18.9893 12.0303C18.6993 12.3203 18.6993 12.8003 18.9893 13.0903L20.7293 14.8303C20.7993 14.9003 20.8793 14.9502 20.9693 14.9902C21.0593 15.0302 21.1593 15.0502 21.2593 15.0502C21.3593 15.0502 21.4493 15.0302 21.5493 14.9902C21.6393 14.9502 21.7193 14.9003 21.7893 14.8303L23.5293 13.0903C23.8193 12.8203 23.8193 12.3402 23.5293 12.0502Z" fill="#292D32"/>
<path opacity="0.4" d="M19.6892 17.2C19.3692 16.94 18.8892 16.9899 18.6392 17.3199C17.0092 19.3499 14.5892 20.51 11.9992 20.51C7.30922 20.51 3.48921 16.6899 3.48921 11.9999V11.4999L3.94921 11.96C4.09921 12.11 4.28922 12.1799 4.47922 12.1799C4.66922 12.1799 4.85922 12.11 5.00922 11.96C5.29922 11.67 5.29922 11.19 5.00922 10.9L3.26921 9.15991C3.19921 9.08991 3.11921 9.03994 3.02921 8.99994C2.84921 8.91994 2.63921 8.91994 2.45921 8.99994C2.36921 9.03994 2.28922 9.08991 2.21922 9.15991L0.479219 10.9C0.189219 11.19 0.189219 11.67 0.479219 11.96C0.769219 12.25 1.24922 12.25 1.53922 11.96L1.99922 11.4999V11.9999C1.99922 17.5199 6.48922 22.01 12.0092 22.01C15.0592 22.01 17.9092 20.64 19.8192 18.26C20.0692 17.94 20.0192 17.46 19.6892 17.2Z" fill="#292D32"/>
<path d="M15.45 11.64C15.72 11.24 15.87 10.77 15.87 10.25C15.87 8.92 14.7 7.75 13.37 7.75H12.55V6.75C12.55 6.34 12.21 6 11.8 6C11.39 6 11.05 6.34 11.05 6.75V7.75H9C8.59 7.75 8.25 8.09 8.25 8.5V12V15.5C8.25 15.91 8.59 16.25 9 16.25H11.05V17.25C11.05 17.66 11.39 18 11.8 18C12.21 18 12.55 17.66 12.55 17.25V16.25H14C15.52 16.25 16.75 15.13 16.75 13.75C16.75 12.86 16.23 12.08 15.45 11.64ZM9.75 9.25H13.37C13.92 9.25 14.37 9.8 14.37 10.25C14.37 10.8 13.92 11.25 13.37 11.25H9.75V9.25ZM14 14.75H9.75V12.75H13.37H14C14.69 12.75 15.25 13.2 15.25 13.75C15.25 14.3 14.69 14.75 14 14.75Z" fill="#292D32"/>
</svg>
