<svg width="24" height="24" viewBox="0 0 24 24" fill="none" xmlns="http://www.w3.org/2000/svg">
<path d="M15.9707 9C15.9707 12.87 12.8407 16 8.9707 16C8.6507 16 8.3407 15.98 8.0407 15.93C4.6107 15.48 1.9707 12.55 1.9707 9C1.9707 5.13 5.1007 2 8.9707 2C12.5207 2 15.4507 4.64 15.9007 8.07C15.9507 8.37 15.9707 8.68 15.9707 9Z" stroke="#292D32" stroke-width="1.5" stroke-linecap="round" stroke-linejoin="round"/>
<path opacity="0.4" d="M21.971 14.9998C21.971 18.8698 18.841 21.9998 14.971 21.9998C11.421 21.9998 8.49102 19.3598 8.04102 15.9298C8.34102 15.9798 8.65102 15.9998 8.97102 15.9998C12.841 15.9998 15.971 12.8698 15.971 8.99982C15.971 8.67982 15.951 8.36982 15.901 8.06982C19.331 8.51982 21.971 11.4498 21.971 14.9998Z" stroke="#292D32" stroke-width="1.5" stroke-linecap="round" stroke-linejoin="round"/>
<path opacity="0.4" d="M14.1211 14.1201L15.4311 15.4101" stroke="#292D32" stroke-width="1.5" stroke-linecap="round" stroke-linejoin="round"/>
<path opacity="0.4" d="M16.9707 12L15.9707 11" stroke="#292D32" stroke-width="1.5" stroke-linecap="round" stroke-linejoin="round"/>
<path opacity="0.4" d="M11.9707 17L10.9707 16" stroke="#292D32" stroke-width="1.5" stroke-linecap="round" stroke-linejoin="round"/>
</svg>
