<svg width="24" height="24" viewBox="0 0 24 24" fill="none" xmlns="http://www.w3.org/2000/svg">
<path opacity="0.4" d="M16.1898 2H7.81976C4.17976 2 2.00977 4.17 2.00977 7.81V16.18C2.00977 19.82 4.17976 21.99 7.81976 21.99H16.1898C19.8298 21.99 21.9998 19.82 21.9998 16.18V7.81C21.9998 4.17 19.8298 2 16.1898 2Z" fill="#292D32"/>
<path d="M12.7109 19.0301C12.4809 19.0301 12.3009 18.9701 12.2009 18.9201C11.9709 18.8101 11.4309 18.4501 11.4309 17.4701V14.0501L8.51094 16.7301C8.21094 17.0101 7.73094 16.9901 7.45094 16.6801C7.17094 16.3701 7.19093 15.9001 7.50093 15.6201L11.4309 12.0201V11.9401L7.50093 8.38014C7.19093 8.10014 7.17094 7.63014 7.45094 7.32014C7.73094 7.02014 8.21094 6.99014 8.51094 7.27014L11.4309 9.95013V6.53013C11.4309 5.55013 11.9709 5.19014 12.2009 5.08014C12.4309 4.97014 13.0509 4.79013 13.8009 5.42013L16.2209 7.44014C16.5509 7.71014 16.7409 8.11014 16.7509 8.52014C16.7609 8.93014 16.5909 9.33013 16.2709 9.62013L13.6609 12.0101L16.2709 14.4001C16.5809 14.6901 16.7609 15.0901 16.7509 15.5001C16.7409 15.9101 16.5509 16.3001 16.2209 16.5801L13.8009 18.6001C13.3809 18.9401 13.0009 19.0301 12.7109 19.0301ZM12.9309 13.3001V17.3601L15.2609 15.4101L12.9309 13.3001ZM12.9309 6.64014V10.6401L15.2609 8.50014L12.9309 6.64014Z" fill="#292D32"/>
</svg>
