<svg width="24" height="24" viewBox="0 0 24 24" fill="none" xmlns="http://www.w3.org/2000/svg">
<path d="M12.9297 10.6406L15.2597 8.51063L12.9297 6.64062V10.6406Z" fill="#292D32"/>
<path d="M16.19 2H7.81C4.17 2 2 4.17 2 7.81V16.18C2 19.83 4.17 22 7.81 22H16.18C19.82 22 21.99 19.83 21.99 16.19V7.81C22 4.17 19.83 2 16.19 2ZM16.27 14.39C16.58 14.68 16.76 15.08 16.75 15.49C16.74 15.9 16.55 16.29 16.22 16.57L13.8 18.59C13.38 18.94 13 19.04 12.71 19.04C12.48 19.04 12.3 18.98 12.2 18.93C11.97 18.82 11.43 18.46 11.43 17.48V14.06L8.51 16.74C8.21 17.02 7.73 17 7.45 16.69C7.17 16.38 7.19 15.91 7.5 15.63L11.43 12.03V11.95L7.49 8.38C7.19 8.1 7.17 7.62 7.45 7.32C7.73 7.02 8.21 6.99 8.51 7.27L11.43 9.95V6.53C11.43 5.55 11.97 5.19 12.2 5.08C12.43 4.97 13.05 4.79 13.8 5.42L16.22 7.44C16.55 7.71 16.74 8.11 16.75 8.52C16.76 8.93 16.59 9.33 16.27 9.62L13.67 12L16.27 14.39Z" fill="#292D32"/>
<path d="M12.9297 17.3608L15.2597 15.4108L12.9297 13.3008V17.3608Z" fill="#292D32"/>
</svg>
