<svg width="24" height="24" viewBox="0 0 24 24" fill="none" xmlns="http://www.w3.org/2000/svg">
<path d="M12 22.08C11.7 22.08 11.4 22.01 11.15 21.87C9.28 20.85 5.99 19.77 3.93 19.5L3.64 19.46C2.33 19.3 1.25 18.07 1.25 16.74V4.66001C1.25 3.87001 1.56 3.15001 2.13 2.63001C2.7 2.11001 3.44 1.86001 4.22 1.93001C6.42 2.10001 9.74 3.20001 11.62 4.38001L11.86 4.52001C11.93 4.56001 12.08 4.56001 12.14 4.53001L12.3 4.43001C14.18 3.25001 17.5 2.13001 19.71 1.94001C19.73 1.94001 19.81 1.94001 19.83 1.94001C20.56 1.87001 21.31 2.13001 21.87 2.65001C22.44 3.17001 22.75 3.89001 22.75 4.68001V16.75C22.75 18.09 21.67 19.31 20.35 19.47L20.02 19.51C17.96 19.78 14.66 20.87 12.83 21.88C12.59 22.02 12.3 22.08 12 22.08ZM3.98 3.42001C3.66 3.42001 3.37 3.53001 3.14 3.74001C2.89 3.97001 2.75 4.30001 2.75 4.66001V16.74C2.75 17.33 3.26 17.9 3.83 17.98L4.13 18.02C6.38 18.32 9.83 19.45 11.83 20.54C11.92 20.58 12.05 20.59 12.1 20.57C14.1 19.46 17.57 18.32 19.83 18.02L20.17 17.98C20.74 17.91 21.25 17.33 21.25 16.74V4.67001C21.25 4.30001 21.11 3.98001 20.86 3.74001C20.6 3.51001 20.27 3.40001 19.9 3.42001C19.88 3.42001 19.8 3.42001 19.78 3.42001C17.87 3.59001 14.79 4.62001 13.11 5.67001L12.95 5.78001C12.4 6.12001 11.62 6.12001 11.09 5.79001L10.85 5.65001C9.14 4.60001 6.06 3.58001 4.1 3.42001C4.06 3.42001 4.02 3.42001 3.98 3.42001Z" fill="#292D32"/>
<path d="M12 21.2402C11.59 21.2402 11.25 20.9002 11.25 20.4902V5.49023C11.25 5.08023 11.59 4.74023 12 4.74023C12.41 4.74023 12.75 5.08023 12.75 5.49023V20.4902C12.75 20.9102 12.41 21.2402 12 21.2402Z" fill="#292D32"/>
<path d="M7.75 9.24023H5.5C5.09 9.24023 4.75 8.90023 4.75 8.49023C4.75 8.08023 5.09 7.74023 5.5 7.74023H7.75C8.16 7.74023 8.5 8.08023 8.5 8.49023C8.5 8.90023 8.16 9.24023 7.75 9.24023Z" fill="#292D32"/>
<path d="M8.5 12.2402H5.5C5.09 12.2402 4.75 11.9002 4.75 11.4902C4.75 11.0802 5.09 10.7402 5.5 10.7402H8.5C8.91 10.7402 9.25 11.0802 9.25 11.4902C9.25 11.9002 8.91 12.2402 8.5 12.2402Z" fill="#292D32"/>
</svg>
