<svg width="24" height="24" viewBox="0 0 24 24" fill="none" xmlns="http://www.w3.org/2000/svg">
<path opacity="0.4" d="M21.0409 7.19L12.0009 12.42L2.96094 7.19C3.36094 6.45 3.94094 5.8 4.59094 5.44L9.93094 2.48C11.0709 1.84 12.9309 1.84 14.0709 2.48L19.4109 5.44C20.0609 5.8 20.6409 6.45 21.0409 7.19Z" fill="#292D32"/>
<path opacity="0.6" d="M12.0006 12.4199V21.9999C11.2506 21.9999 10.5006 21.8399 9.93062 21.5199L4.59063 18.5599C3.38063 17.8899 2.39062 16.2099 2.39062 14.8299V9.16994C2.39062 8.52994 2.61062 7.82994 2.96062 7.18994L12.0006 12.4199Z" fill="#292D32"/>
<path d="M21.61 9.16994V14.8299C21.61 16.2099 20.62 17.8899 19.41 18.5599L14.07 21.5199C13.5 21.8399 12.75 21.9999 12 21.9999V12.4199L21.04 7.18994C21.39 7.82994 21.61 8.52994 21.61 9.16994Z" fill="#292D32"/>
</svg>
