<svg width="24" height="24" viewBox="0 0 24 24" fill="none" xmlns="http://www.w3.org/2000/svg">
<path opacity="0.4" d="M9.82948 5.57026L6.35948 7.68024L4.77948 5.08027C4.19948 4.13027 4.49949 2.87023 5.45949 2.29023C6.40949 1.71023 7.66948 2.01022 8.24948 2.97022L9.82948 5.57026Z" fill="#292D32"/>
<path opacity="0.4" d="M19.2706 17.6403L19.2606 17.6503L17.9606 18.4403L16.6606 19.2302L15.3606 20.0203L14.0606 20.8103L12.7606 21.6002H12.7506C11.4406 22.4002 9.82064 21.9203 9.15064 20.5503L7.07065 16.3103C6.34065 14.8303 6.57065 13.0303 7.69065 11.8003C7.95065 11.5203 8.25065 11.2603 8.60065 11.0503L11.8106 9.10024C12.1706 8.89024 12.5306 8.73028 12.9006 8.64028C14.5006 8.20028 16.2006 8.82029 17.1806 10.1503L19.9906 13.9503C20.9006 15.2003 20.5806 16.8503 19.2706 17.6403Z" fill="#292D32"/>
<path d="M12.9008 8.66006C12.5308 8.75006 12.1708 8.90008 11.8108 9.12008L8.60078 11.0701C8.24078 11.2801 7.95078 11.5401 7.69078 11.8201C7.68078 11.8201 7.68077 11.8101 7.68077 11.8101L6.03078 9.08011C5.74078 8.60011 5.89078 7.97009 6.36078 7.69009L9.83078 5.58011C10.3108 5.29011 10.9308 5.44006 11.2208 5.91006L12.8808 8.6401C12.8908 8.6501 12.9008 8.65006 12.9008 8.66006Z" fill="#292D32"/>
<path d="M16.6604 19.2302L15.3604 20.0202L13.6904 17.2702C13.4804 16.9102 13.5904 16.4501 13.9404 16.2201C14.3104 16.0101 14.7704 16.1201 14.9904 16.4701L16.6604 19.2302Z" fill="#292D32"/>
<path d="M14.0597 20.82L12.7597 21.61L11.0897 18.86C10.8697 18.5 10.9797 18.04 11.3397 17.81C11.6997 17.6 12.1597 17.71 12.3897 18.06L14.0597 20.82Z" fill="#292D32"/>
<path d="M19.26 17.6501L17.96 18.4401L16.29 15.6901C16.08 15.3301 16.19 14.8701 16.54 14.6401C16.91 14.4301 17.37 14.5401 17.59 14.8901L19.26 17.6501Z" fill="#292D32"/>
</svg>
