<svg width="24" height="24" viewBox="0 0 24 24" fill="none" xmlns="http://www.w3.org/2000/svg">
<path d="M21.8098 3.94009C20.4998 7.21009 17.5098 11.4801 14.6598 14.2701C14.2498 11.6901 12.1898 9.67009 9.58984 9.31009C12.3898 6.45009 16.6898 3.42009 19.9698 2.10009C20.5498 1.88009 21.1298 2.05009 21.4898 2.41009C21.8698 2.79009 22.0498 3.36009 21.8098 3.94009Z" fill="#292D32"/>
<path opacity="0.4" d="M14.6595 14.2705C14.1595 14.7605 13.6595 15.2105 13.1795 15.5905L11.2095 17.1705C10.9595 17.3505 10.7095 17.5005 10.4295 17.6205C10.4295 17.4305 10.4095 17.2405 10.3895 17.0405C10.2795 16.2105 9.89953 15.4205 9.22953 14.7505C8.53953 14.0705 7.71953 13.6805 6.86953 13.5705C6.66953 13.5505 6.45953 13.5405 6.26953 13.5505C6.37953 13.2405 6.54953 12.9505 6.75953 12.7105L8.31953 10.7405C8.68953 10.2705 9.11953 9.79055 9.58953 9.31055C12.1895 9.67055 14.2495 11.6905 14.6595 14.2705Z" fill="#292D32"/>
<path d="M10.4298 17.6198C10.4298 18.7198 10.0098 19.7698 9.20976 20.5598C8.59976 21.1798 7.77977 21.5998 6.77977 21.7198L4.32976 21.9898C2.98976 22.1398 1.83976 20.9898 1.98976 19.6398L2.25976 17.1798C2.49976 14.9898 4.32976 13.5898 6.26976 13.5498C6.45976 13.5398 6.66976 13.5498 6.86976 13.5698C7.71976 13.6798 8.53976 14.0698 9.22976 14.7498C9.89976 15.4198 10.2798 16.2098 10.3898 17.0398C10.4098 17.2398 10.4298 17.4298 10.4298 17.6198Z" fill="#292D32"/>
</svg>
