<svg width="24" height="24" viewBox="0 0 24 24" fill="none" xmlns="http://www.w3.org/2000/svg">
<path opacity="0.4" d="M16.19 2H7.81C4.17 2 2 4.17 2 7.81V16.18C2 19.83 4.17 22 7.81 22H16.18C19.82 22 21.99 19.83 21.99 16.19V7.81C22 4.17 19.83 2 16.19 2Z" fill="#292D32"/>
<path d="M21.8303 3.55022C20.7803 6.16022 18.4003 9.57022 16.1203 11.8002C15.7903 9.74022 14.1503 8.13022 12.0703 7.84022C14.3103 5.56022 17.7403 3.14022 20.3603 2.08022C20.8203 1.90022 21.2903 2.04022 21.5703 2.33022C21.8803 2.63022 22.0203 3.09022 21.8303 3.55022Z" fill="#292D32"/>
<path opacity="0.4" d="M16.1197 11.7901C15.7197 12.1801 15.3197 12.5401 14.9397 12.8401L13.3697 14.1001C13.1697 14.2401 12.9697 14.3601 12.7497 14.4601C12.7497 14.3101 12.7297 14.1601 12.7197 14.0001C12.6297 13.3401 12.3297 12.7101 11.7897 12.1701C11.2397 11.6301 10.5797 11.3201 9.90969 11.2301C9.74969 11.2101 9.57969 11.2101 9.42969 11.2101C9.51969 10.9601 9.64969 10.7301 9.81969 10.5401L11.0697 8.97008C11.3697 8.59008 11.7097 8.21008 12.0797 7.83008C14.1497 8.12008 15.7997 9.74008 16.1197 11.7901Z" fill="#292D32"/>
<path d="M12.7506 14.4705C12.7506 15.3505 12.4106 16.1905 11.7806 16.8205C11.2906 17.3105 10.6406 17.6505 9.84056 17.7505L7.88056 17.9705C6.81056 18.0905 5.89056 17.1705 6.01056 16.0905L6.23056 14.1305C6.42056 12.3805 7.88056 11.2605 9.43056 11.2305C9.58056 11.2205 9.75056 11.2305 9.91056 11.2505C10.5906 11.3405 11.2406 11.6505 11.7906 12.1905C12.3206 12.7205 12.6306 13.3605 12.7206 14.0205C12.7306 14.1705 12.7506 14.3205 12.7506 14.4705Z" fill="#292D32"/>
</svg>
