<svg width="24" height="24" viewBox="0 0 24 24" fill="none" xmlns="http://www.w3.org/2000/svg">
<path d="M17.0408 10.6406L9.69083 3.29062L8.82083 2.42063C8.53083 2.13063 8.05083 2.13063 7.76083 2.42063C7.47083 2.71062 7.47083 3.19062 7.76083 3.48062L8.63083 4.35062L3.00083 9.98062C2.36083 10.6206 2.02083 11.2706 2.00083 11.9206C1.98083 12.6106 2.32083 13.3006 3.00083 13.9906L7.01083 18.0006C8.35083 19.3306 9.69083 19.3306 11.0208 18.0006L17.0408 11.9806C17.2408 11.7806 17.3308 11.5106 17.3108 11.2506C17.3008 11.0306 17.2008 10.8006 17.0408 10.6406Z" fill="#292D32"/>
<path d="M16 22.75H3C2.59 22.75 2.25 22.41 2.25 22C2.25 21.59 2.59 21.25 3 21.25H16C16.41 21.25 16.75 21.59 16.75 22C16.75 22.41 16.41 22.75 16 22.75Z" fill="#292D32"/>
<path d="M19.35 14.7803C19.09 14.5003 18.61 14.5003 18.35 14.7803C18.04 15.1203 16.5 16.8503 16.5 18.1703C16.5 19.4703 17.55 20.5203 18.85 20.5203C20.15 20.5203 21.2 19.4703 21.2 18.1703C21.2 16.8603 19.66 15.1203 19.35 14.7803Z" fill="#292D32"/>
</svg>
