<svg width="24" height="24" viewBox="0 0 24 24" fill="none" xmlns="http://www.w3.org/2000/svg">
<path d="M8.93931 16.9299L6.1093 14.0998C5.1693 13.1598 5.1693 12.2098 6.1093 11.2698L10.8293 6.5498L16.0193 11.7398C16.2793 11.9998 16.2793 12.4199 16.0193 12.6799L11.7693 16.9299C10.8293 17.8699 9.87931 17.8699 8.93931 16.9299Z" stroke="#292D32" stroke-width="1.5" stroke-miterlimit="10" stroke-linecap="round" stroke-linejoin="round"/>
<path d="M9.87891 5.59961L10.8289 6.53961" stroke="#292D32" stroke-width="1.5" stroke-miterlimit="10" stroke-linecap="round" stroke-linejoin="round"/>
<path d="M5.43945 12.6399L16.1295 12.1699" stroke="#292D32" stroke-width="1.5" stroke-miterlimit="10" stroke-linecap="round" stroke-linejoin="round"/>
<path d="M17.3002 14.8096C17.3002 14.8096 15.9902 16.2295 15.9902 17.0995C15.9902 17.8195 16.5802 18.4095 17.3002 18.4095C18.0202 18.4095 18.6102 17.8195 18.6102 17.0995C18.6002 16.2295 17.3002 14.8096 17.3002 14.8096Z" stroke="#292D32" stroke-width="1.5" stroke-linecap="round" stroke-linejoin="round"/>
<path d="M2 12.97V15C2 20 4 22 9 22H15C20 22 22 20 22 15V9C22 4 20 2 15 2H9C4 2 2 4 2 9" stroke="#292D32" stroke-width="1.5" stroke-linecap="round" stroke-linejoin="round"/>
</svg>
