<svg width="24" height="24" viewBox="0 0 24 24" fill="none" xmlns="http://www.w3.org/2000/svg">
<path d="M6.76005 22H17.24C20 22 21.1 20.31 21.23 18.25L21.75 9.99C21.89 7.83 20.17 6 18 6C17.39 6 16.83 5.65 16.55 5.11L15.83 3.66C15.37 2.75 14.17 2 13.15 2H10.86C9.83005 2 8.63005 2.75 8.17005 3.66L7.45005 5.11C7.17005 5.65 6.61005 6 6.00005 6C3.83005 6 2.11005 7.83 2.25005 9.99L2.77005 18.25C2.89005 20.31 4.00005 22 6.76005 22Z" stroke="#292D32" stroke-width="1.5" stroke-linecap="round" stroke-linejoin="round"/>
<path d="M10.5 8H13.5" stroke="#292D32" stroke-width="1.5" stroke-linecap="round" stroke-linejoin="round"/>
<path d="M12 18C13.79 18 15.25 16.54 15.25 14.75C15.25 12.96 13.79 11.5 12 11.5C10.21 11.5 8.75 12.96 8.75 14.75C8.75 16.54 10.21 18 12 18Z" stroke="#292D32" stroke-width="1.5" stroke-linecap="round" stroke-linejoin="round"/>
</svg>
