<svg width="24" height="24" viewBox="0 0 24 24" fill="none" xmlns="http://www.w3.org/2000/svg">
<path d="M13.5 9.25H2C1.59 9.25 1.25 8.91 1.25 8.5C1.25 8.09 1.59 7.75 2 7.75H13.5C13.91 7.75 14.25 8.09 14.25 8.5C14.25 8.91 13.91 9.25 13.5 9.25Z" fill="#292D32"/>
<path d="M8 17.25H6C5.59 17.25 5.25 16.91 5.25 16.5C5.25 16.09 5.59 15.75 6 15.75H8C8.41 15.75 8.75 16.09 8.75 16.5C8.75 16.91 8.41 17.25 8 17.25Z" fill="#292D32"/>
<path d="M14.5 17.25H10.5C10.09 17.25 9.75 16.91 9.75 16.5C9.75 16.09 10.09 15.75 10.5 15.75H14.5C14.91 15.75 15.25 16.09 15.25 16.5C15.25 16.91 14.91 17.25 14.5 17.25Z" fill="#292D32"/>
<path d="M17.56 21.25H6.44C2.46 21.25 1.25 20.05 1.25 16.11V7.89C1.25 3.95 2.46 2.75 6.44 2.75H13.5C13.91 2.75 14.25 3.09 14.25 3.5C14.25 3.91 13.91 4.25 13.5 4.25H6.44C3.3 4.25 2.75 4.79 2.75 7.89V16.1C2.75 19.2 3.3 19.74 6.44 19.74H17.55C20.69 19.74 21.24 19.2 21.24 16.1V12.02C21.24 11.61 21.58 11.27 21.99 11.27C22.4 11.27 22.74 11.61 22.74 12.02V16.1C22.75 20.05 21.54 21.25 17.56 21.25Z" fill="#292D32"/>
<path d="M17.31 8.94023C17.12 8.94023 16.93 8.87023 16.78 8.72023C16.49 8.43023 16.49 7.95023 16.78 7.66023L20.67 3.77023C20.96 3.48023 21.44 3.48023 21.73 3.77023C22.02 4.06023 22.02 4.54023 21.73 4.83023L17.84 8.72023C17.69 8.87023 17.5 8.94023 17.31 8.94023Z" fill="#292D32"/>
<path d="M21.1902 8.94023C21.0002 8.94023 20.8102 8.87023 20.6602 8.72023L16.7702 4.83023C16.4802 4.54023 16.4802 4.06023 16.7702 3.77023C17.0602 3.48023 17.5402 3.48023 17.8302 3.77023L21.7202 7.66023C22.0102 7.95023 22.0102 8.43023 21.7202 8.72023C21.5802 8.87023 21.3902 8.94023 21.1902 8.94023Z" fill="#292D32"/>
</svg>
