<svg width="24" height="24" viewBox="0 0 24 24" fill="none" xmlns="http://www.w3.org/2000/svg">
<path opacity="0.4" d="M12 15.7V16.31H2V15.7C2 13.94 2.43997 13.5 4.21997 13.5H9.78003C11.56 13.5 12 13.94 12 15.7Z" fill="#292D32"/>
<path d="M2 16.3101V17.8101V19.8001C2 21.5601 2.43997 22.0001 4.21997 22.0001H9.78003C11.56 22.0001 12 21.5601 12 19.8001V17.8101V16.3101H2Z" fill="#292D32"/>
<g opacity="0.4">
<path d="M22 15C22 18.87 18.87 22 15 22L16.05 20.25" stroke="#292D32" stroke-width="1.5" stroke-linecap="round" stroke-linejoin="round"/>
<path d="M2 9C2 5.13 5.13 2 9 2L7.95001 3.75" stroke="#292D32" stroke-width="1.5" stroke-linecap="round" stroke-linejoin="round"/>
</g>
<path opacity="0.4" d="M23 6.5H14C14 8.98 16.02 11 18.5 11C20.99 11 23 8.98 23 6.5Z" fill="#292D32"/>
<path d="M23 6.5C23 4.01 20.99 2 18.5 2C16.02 2 14 4.01 14 6.5H23Z" fill="#292D32"/>
</svg>
