<svg width="24" height="24" viewBox="0 0 24 24" fill="none" xmlns="http://www.w3.org/2000/svg">
<path d="M6 10.0303H21.9" stroke="#292D32" stroke-width="1.5" stroke-miterlimit="10" stroke-linecap="round" stroke-linejoin="round"/>
<path d="M11.4604 20.53H6.35034C2.80034 20.53 1.90039 19.65 1.90039 16.14V7.92004C1.90039 4.74004 2.64036 3.72004 5.43036 3.56004C5.71036 3.55004 6.02034 3.54004 6.35034 3.54004H17.4604C21.0104 3.54004 21.9103 4.42004 21.9103 7.93004V12.34" stroke="#292D32" stroke-width="1.5" stroke-linecap="round" stroke-linejoin="round"/>
<path d="M17.9004 22.0303C20.1095 22.0303 21.9004 20.2394 21.9004 18.0303C21.9004 15.8211 20.1095 14.0303 17.9004 14.0303C15.6913 14.0303 13.9004 15.8211 13.9004 18.0303C13.9004 20.2394 15.6913 22.0303 17.9004 22.0303Z" stroke="#292D32" stroke-width="1.5" stroke-miterlimit="10" stroke-linecap="round" stroke-linejoin="round"/>
<path d="M18.9694 19.1503L16.8594 17.0303" stroke="#292D32" stroke-width="1.5" stroke-miterlimit="10" stroke-linecap="round" stroke-linejoin="round"/>
<path d="M18.9501 17.0605L16.8301 19.1705" stroke="#292D32" stroke-width="1.5" stroke-miterlimit="10" stroke-linecap="round" stroke-linejoin="round"/>
<path d="M5.90039 16.0303H9.90039" stroke="#292D32" stroke-width="1.5" stroke-miterlimit="10" stroke-linecap="round" stroke-linejoin="round"/>
</svg>
