<svg width="24" height="24" viewBox="0 0 24 24" fill="none" xmlns="http://www.w3.org/2000/svg">
<path d="M13.47 14.3901H10.53C9.26 14.3901 8.5 15.1501 8.5 16.4201V19.3601C8.5 20.6301 9.26 21.3901 10.53 21.3901H13.47C14.74 21.3901 15.5 20.6301 15.5 19.3601V16.4201C15.5 15.1501 14.74 14.3901 13.47 14.3901ZM14.41 18.3201C14.31 18.4201 14.16 18.4901 14 18.5001H12.59L12.6 19.8901C12.59 20.0601 12.53 20.2001 12.41 20.3201C12.31 20.4201 12.16 20.4901 12 20.4901C11.67 20.4901 11.4 20.2201 11.4 19.8901V18.4901L10 18.5001C9.67 18.5001 9.4 18.2201 9.4 17.8901C9.4 17.5601 9.67 17.2901 10 17.2901L11.4 17.3001V15.9001C11.4 15.5701 11.67 15.2901 12 15.2901C12.33 15.2901 12.6 15.5701 12.6 15.9001L12.59 17.2901H14C14.33 17.2901 14.6 17.5601 14.6 17.8901C14.59 18.0601 14.52 18.2001 14.41 18.3201Z" fill="#292D32"/>
<path opacity="0.4" d="M21.74 11.7401C21.13 9.74005 19.61 8.30005 17.7 7.87005C17.14 5.37005 15.6 3.58005 13.42 2.90005C11.04 2.17005 8.28 2.88005 6.55 4.69005C5.02 6.28005 4.52 8.47005 5.11 10.8001C2.98 11.3201 2 13.1801 2 14.8601C2 16.7401 3.23 18.8501 5.97 19.0401H8.5V16.4101C8.5 15.1401 9.26 14.3801 10.53 14.3801H13.47C14.74 14.3801 15.5 15.1401 15.5 16.4101V19.0401H16.31C16.32 19.0401 16.34 19.0401 16.35 19.0401C17.77 19.0401 19.13 18.5101 20.17 17.5601C21.8 16.1401 22.4 13.9101 21.74 11.7401Z" fill="#292D32"/>
</svg>
