<svg width="24" height="24" viewBox="0 0 24 24" fill="none" xmlns="http://www.w3.org/2000/svg">
<path d="M19.799 11.9998H4.19907C3.97907 11.9998 3.77908 11.8498 3.70908 11.6398C0.959081 2.54978 14.8391 -0.940207 16.4391 8.81979C18.0991 9.02979 19.409 9.96978 20.219 11.2298C20.439 11.5598 20.189 11.9998 19.799 11.9998Z" fill="#292D32"/>
<path opacity="0.4" d="M20 15.7798H4C3.59 15.7798 3.25 15.4398 3.25 15.0298C3.25 14.6198 3.59 14.2798 4 14.2798H20C20.41 14.2798 20.75 14.6198 20.75 15.0298C20.75 15.4398 20.41 15.7798 20 15.7798Z" fill="#292D32"/>
<path opacity="0.4" d="M18 18.7798H6C5.59 18.7798 5.25 18.4398 5.25 18.0298C5.25 17.6198 5.59 17.2798 6 17.2798H18C18.41 17.2798 18.75 17.6198 18.75 18.0298C18.75 18.4398 18.41 18.7798 18 18.7798Z" fill="#292D32"/>
<path opacity="0.4" d="M15 21.7798H9C8.59 21.7798 8.25 21.4398 8.25 21.0298C8.25 20.6198 8.59 20.2798 9 20.2798H15C15.41 20.2798 15.75 20.6198 15.75 21.0298C15.75 21.4398 15.41 21.7798 15 21.7798Z" fill="#292D32"/>
</svg>
