<svg width="24" height="24" viewBox="0 0 24 24" fill="none" xmlns="http://www.w3.org/2000/svg">
<path opacity="0.4" d="M15 4H9C6.24 4 4 6.24 4 9V15C4 17.76 6.24 20 9 20H15C17.76 20 20 17.76 20 15V9C20 6.24 17.76 4 15 4ZM17.26 14.26C17.26 15.92 15.92 17.26 14.26 17.26H9.74C8.08 17.26 6.74 15.92 6.74 14.26V9.74C6.74 8.08 8.08 6.74 9.74 6.74H14.25C15.91 6.74 17.25 8.08 17.25 9.74V14.26H17.26Z" fill="#292D32"/>
<path d="M9.06055 2.75V4H9.00055C8.50055 4 8.02055 4.07 7.56055 4.21V2.75C7.56055 2.34 7.89055 2 8.31055 2C8.72055 2 9.06055 2.34 9.06055 2.75Z" fill="#292D32"/>
<path d="M12.75 2.75V4H11.25V2.75C11.25 2.34 11.59 2 12 2C12.41 2 12.75 2.34 12.75 2.75Z" fill="#292D32"/>
<path d="M16.4492 2.75V4.21C15.9892 4.07 15.4992 4 14.9992 4H14.9492V2.75C14.9492 2.34 15.2892 2 15.6992 2C16.1092 2 16.4492 2.34 16.4492 2.75Z" fill="#292D32"/>
<path d="M21.9991 8.2998C21.9991 8.7198 21.6691 9.0498 21.2491 9.0498H19.9991V8.9998C19.9991 8.4998 19.9291 8.0098 19.7891 7.5498H21.2491C21.6691 7.5498 21.9991 7.8898 21.9991 8.2998Z" fill="#292D32"/>
<path d="M22 12C22 12.41 21.67 12.75 21.25 12.75H20V11.25H21.25C21.67 11.25 22 11.58 22 12Z" fill="#292D32"/>
<path d="M21.9991 15.7002C21.9991 16.1102 21.6691 16.4502 21.2491 16.4502H19.7891C19.9291 15.9902 19.9991 15.5002 19.9991 15.0002V14.9502H21.2491C21.6691 14.9502 21.9991 15.2802 21.9991 15.7002Z" fill="#292D32"/>
<path d="M16.4492 19.79V21.25C16.4492 21.66 16.1092 22 15.6992 22C15.2892 22 14.9492 21.66 14.9492 21.25V20H14.9992C15.4992 20 15.9892 19.93 16.4492 19.79Z" fill="#292D32"/>
<path d="M12.7598 20V21.25C12.7598 21.66 12.4198 22 12.0098 22C11.5898 22 11.2598 21.66 11.2598 21.25V20H12.7598Z" fill="#292D32"/>
<path d="M9.06055 20V21.25C9.06055 21.66 8.72055 22 8.31055 22C7.89055 22 7.56055 21.66 7.56055 21.25V19.79C8.02055 19.93 8.50055 20 9.00055 20H9.06055Z" fill="#292D32"/>
<path d="M4.21 7.5498C4.07 8.0098 4 8.4998 4 8.9998V9.0498H2.75C2.34 9.0498 2 8.7198 2 8.2998C2 7.8898 2.34 7.5498 2.75 7.5498H4.21Z" fill="#292D32"/>
<path d="M4 11.25V12.75H2.75C2.34 12.75 2 12.41 2 12C2 11.58 2.34 11.25 2.75 11.25H4Z" fill="#292D32"/>
<path d="M4.21 16.4502H2.75C2.34 16.4502 2 16.1102 2 15.7002C2 15.2802 2.34 14.9502 2.75 14.9502H4V15.0002C4 15.5002 4.07 15.9902 4.21 16.4502Z" fill="#292D32"/>
<path d="M17.2602 9.74023V14.2502C17.2602 15.9102 15.9202 17.2502 14.2602 17.2502H9.74023C8.08023 17.2502 6.74023 15.9102 6.74023 14.2502V9.74023C6.74023 8.08023 8.08023 6.74023 9.74023 6.74023H14.2502C15.9102 6.74023 17.2602 8.09023 17.2602 9.74023Z" fill="#292D32"/>
</svg>
