<svg width="24" height="24" viewBox="0 0 24 24" fill="none" xmlns="http://www.w3.org/2000/svg">
<path d="M18.6897 11.5308C18.1197 11.3808 17.4497 11.3008 16.6497 11.3008C15.5397 11.3008 15.1297 11.5708 14.5597 12.0008C14.5297 12.0208 14.4997 12.0508 14.4697 12.0808L13.5197 13.0908C12.7197 13.9308 11.2797 13.9408 10.4797 13.0808L9.52969 12.0808C9.49969 12.0508 9.46969 12.0208 9.43969 12.0008C8.86969 11.5708 8.45969 11.3008 7.34969 11.3008C6.54969 11.3008 5.87969 11.3808 5.30969 11.5308C2.92969 12.1708 2.92969 14.0608 2.92969 15.7208V16.6508C2.92969 19.1608 2.92969 22.0008 8.27969 22.0008H15.7197C19.2697 22.0008 21.0697 20.2008 21.0697 16.6508V15.7208C21.0697 14.0608 21.0697 12.1708 18.6897 11.5308ZM14.3297 18.4008H9.66969C9.28969 18.4008 8.97969 18.0908 8.97969 17.7008C8.97969 17.3108 9.28969 17.0008 9.66969 17.0008H14.3297C14.7097 17.0008 15.0197 17.3108 15.0197 17.7008C15.0197 18.0908 14.7097 18.4008 14.3297 18.4008Z" fill="#292D32"/>
<path d="M12.6681 2.67C12.6681 2.3 12.3681 2 11.9981 2C11.6281 2 11.3281 2.3 11.3281 2.67V4H12.6781V2.67H12.6681Z" fill="#292D32"/>
<path d="M19.2091 8.42V10.12C19.1691 10.1 19.1191 10.09 19.0791 10.08H19.0691C18.3591 9.89 17.5691 9.8 16.6491 9.8C15.1091 9.8 14.3791 10.25 13.7191 10.75C13.5791 10.85 13.4791 10.95 13.3791 11.05L12.4291 12.06C12.3291 12.16 12.1691 12.22 11.9991 12.22C11.9191 12.22 11.7191 12.21 11.5691 12.05L10.5891 11.02C10.4891 10.91 10.3691 10.82 10.3391 10.8C9.61906 10.25 8.88906 9.8 7.34906 9.8C6.42906 9.8 5.63906 9.89 4.91906 10.08C4.87906 10.09 4.82906 10.1 4.78906 10.12V8.42C4.78906 6.35 4.78906 4 9.20906 4H11.3291V7.45L10.6791 6.8C10.4091 6.53 9.98906 6.53 9.71906 6.8C9.45906 7.06 9.45906 7.49 9.71906 7.75L11.5191 9.55C11.5291 9.56 11.5391 9.56 11.5391 9.57C11.5991 9.62 11.6691 9.67 11.7391 9.7C11.8291 9.73 11.9091 9.75 11.9991 9.75C12.0891 9.75 12.1691 9.73 12.2591 9.7C12.3391 9.67 12.4091 9.62 12.4791 9.55L14.2791 7.75C14.5391 7.49 14.5391 7.06 14.2791 6.8C14.0091 6.53 13.5891 6.53 13.3191 6.8L12.6691 7.45V4H14.7891C19.2091 4 19.2091 6.35 19.2091 8.42Z" fill="#292D32"/>
</svg>
