<svg width="24" height="24" viewBox="0 0 24 24" fill="none" xmlns="http://www.w3.org/2000/svg">
<path opacity="0.4" d="M12 22C17.5228 22 22 17.5228 22 12C22 6.47715 17.5228 2 12 2C6.47715 2 2 6.47715 2 12C2 17.5228 6.47715 22 12 22Z" fill="#292D32"/>
<path d="M15.0002 16C14.4402 16 13.9902 15.55 13.9902 15C13.9902 14.45 14.4402 14 14.9902 14C15.5402 14 15.9902 14.45 15.9902 15C15.9902 15.55 15.5502 16 15.0002 16Z" fill="#292D32"/>
<path d="M9.01001 10C8.45001 10 8 9.55 8 9C8 8.45 8.45 8 9 8C9.55 8 10 8.45 10 9C10 9.55 9.56001 10 9.01001 10Z" fill="#292D32"/>
<path d="M8.99948 15.75C8.80948 15.75 8.61945 15.68 8.46945 15.53C8.17945 15.24 8.17945 14.7599 8.46945 14.4699L14.4695 8.46994C14.7595 8.17994 15.2395 8.17994 15.5295 8.46994C15.8195 8.75994 15.8195 9.24 15.5295 9.53L9.52951 15.53C9.37951 15.68 9.18948 15.75 8.99948 15.75Z" fill="#292D32"/>
</svg>
