<svg width="24" height="24" viewBox="0 0 24 24" fill="none" xmlns="http://www.w3.org/2000/svg">
<path opacity="0.4" d="M21 7V17C21 20 19.5 22 16 22H8C4.5 22 3 20 3 17V7C3 4 4.5 2 8 2H16C19.5 2 21 4 21 7Z" fill="#292D32"/>
<path d="M18.5 9.25H16.5C14.98 9.25 13.75 8.02 13.75 6.5V4.5C13.75 4.09 14.09 3.75 14.5 3.75C14.91 3.75 15.25 4.09 15.25 4.5V6.5C15.25 7.19 15.81 7.75 16.5 7.75H18.5C18.91 7.75 19.25 8.09 19.25 8.5C19.25 8.91 18.91 9.25 18.5 9.25Z" fill="#292D32"/>
<path d="M9.99945 17.75C9.80945 17.75 9.61945 17.68 9.46945 17.53L7.46945 15.53C7.17945 15.24 7.17945 14.7599 7.46945 14.4699L9.46945 12.4699C9.75945 12.1799 10.2395 12.1799 10.5295 12.4699C10.8195 12.7599 10.8195 13.24 10.5295 13.53L9.05945 15L10.5295 16.4699C10.8195 16.7599 10.8195 17.24 10.5295 17.53C10.3795 17.68 10.1895 17.75 9.99945 17.75Z" fill="#292D32"/>
<path d="M13.9995 17.75C13.8095 17.75 13.6195 17.68 13.4695 17.53C13.1795 17.24 13.1795 16.7599 13.4695 16.4699L14.9395 15L13.4695 13.53C13.1795 13.24 13.1795 12.7599 13.4695 12.4699C13.7595 12.1799 14.2395 12.1799 14.5295 12.4699L16.5295 14.4699C16.8195 14.7599 16.8195 15.24 16.5295 15.53L14.5295 17.53C14.3795 17.68 14.1895 17.75 13.9995 17.75Z" fill="#292D32"/>
</svg>
