<svg width="24" height="24" viewBox="0 0 24 24" fill="none" xmlns="http://www.w3.org/2000/svg">
<path d="M15 22.75H9C3.57 22.75 1.25 20.43 1.25 15V9C1.25 3.57 3.57 1.25 9 1.25H14C14.41 1.25 14.75 1.59 14.75 2C14.75 2.41 14.41 2.75 14 2.75H9C4.39 2.75 2.75 4.39 2.75 9V15C2.75 19.61 4.39 21.25 9 21.25H15C19.61 21.25 21.25 19.61 21.25 15V10C21.25 9.59 21.59 9.25 22 9.25C22.41 9.25 22.75 9.59 22.75 10V15C22.75 20.43 20.43 22.75 15 22.75Z" fill="#292D32"/>
<path d="M22 10.7505H18C14.58 10.7505 13.25 9.42048 13.25 6.00048V2.00048C13.25 1.70048 13.43 1.42048 13.71 1.31048C13.99 1.19048 14.31 1.26048 14.53 1.47048L22.53 9.47048C22.74 9.68048 22.81 10.0105 22.69 10.2905C22.58 10.5705 22.3 10.7505 22 10.7505ZM14.75 3.81048V6.00048C14.75 8.58048 15.42 9.25048 18 9.25048H20.19L14.75 3.81048Z" fill="#292D32"/>
<path d="M9.65064 18.7102C9.21064 18.7102 8.79064 18.5402 8.48064 18.2302L6.02064 15.7702C5.48064 15.2302 5.39064 14.3202 5.81064 13.6802L6.94064 11.9802C7.22064 11.5502 7.80064 11.2402 8.32064 11.2402H10.9706C11.4806 11.2402 12.0606 11.5502 12.3506 11.9802L13.4806 13.6702C13.9006 14.3002 13.8106 15.2202 13.2706 15.7602L10.8106 18.2202C10.5106 18.5402 10.0906 18.7102 9.65064 18.7102ZM8.33064 12.7502C8.29064 12.7602 8.21064 12.8002 8.19064 12.8302L7.07064 14.5202C7.04064 14.5602 7.05064 14.6802 7.09064 14.7202L9.55064 17.1802C9.60064 17.2302 9.72064 17.2302 9.77064 17.1802L12.2306 14.7202C12.2706 14.6802 12.2806 14.5702 12.2506 14.5202L11.1206 12.8302C11.1006 12.8102 11.0206 12.7702 10.9806 12.7602L8.33064 12.7502Z" fill="#292D32"/>
</svg>
