<svg width="24" height="24" viewBox="0 0 24 24" fill="none" xmlns="http://www.w3.org/2000/svg">
<path d="M7.82782 21.8284C8.4925 21.1637 8.87434 20.3152 8.97334 19.4384C9.10769 18.2717 8.71878 17.0625 7.82782 16.1716C7.29749 15.6412 6.64695 15.2877 5.96106 15.1251C4.65291 14.7927 3.20334 15.1392 2.17097 16.1716C1.45679 16.8858 1.06788 17.7979 1.01838 18.7384C0.98303 19.1414 1.01838 19.5586 1.12445 19.9617C1.28709 20.6476 1.64064 21.2981 2.17097 21.8284C3.73367 23.3911 6.26512 23.3911 7.82782 21.8284ZM6.49846 18.2646C6.90858 18.2646 7.248 18.604 7.248 19.0141C7.24092 19.4313 6.90858 19.7637 6.49139 19.7707L5.74893 19.7637L5.756 20.4779C5.74893 20.895 5.41659 21.2274 4.9994 21.2345C4.5822 21.2274 4.24986 20.895 4.24279 20.4779L4.24986 19.7637L3.5074 19.7707C3.09021 19.7637 2.75787 19.4313 2.7508 19.0141C2.75787 18.8091 2.84272 18.6252 2.97707 18.4909C3.11142 18.3565 3.29527 18.2717 3.50033 18.2646L4.24986 18.2646L4.24986 17.4868C4.24986 17.2747 4.33472 17.0908 4.46907 16.9565C4.60342 16.8221 4.78726 16.7373 4.9994 16.7373C5.40952 16.7373 5.74893 17.0767 5.74893 17.4868L5.74893 18.2646L6.49846 18.2646Z" fill="#292D32"/>
<path d="M14.85 3.95078V7.75078H13.35V3.95078C13.35 3.68078 13.11 3.55078 12.95 3.55078C12.9 3.55078 12.85 3.56078 12.8 3.58078L4.87 6.57078C4.34 6.77078 4 7.27078 4 7.84078V8.51078C3.09 9.19078 2.5 10.2808 2.5 11.5108V7.84078C2.5 6.65078 3.23 5.59078 4.34 5.17078L12.28 2.17078C12.5 2.09078 12.73 2.05078 12.95 2.05078C13.95 2.05078 14.85 2.86078 14.85 3.95078Z" fill="#292D32"/>
<path d="M21.5007 14.5V15.5C21.5007 15.77 21.2907 15.99 21.0107 16H19.5507C19.0207 16 18.5407 15.61 18.5007 15.09C18.4707 14.78 18.5907 14.49 18.7907 14.29C18.9707 14.1 19.2207 14 19.4907 14H21.0007C21.2907 14.01 21.5007 14.23 21.5007 14.5Z" fill="#292D32"/>
<path d="M19.48 12.95H20.5C21.05 12.95 21.5 12.5 21.5 11.95V11.51C21.5 9.44 19.81 7.75 17.74 7.75H6.26C5.41 7.75 4.63 8.03 4 8.51C3.09 9.19 2.5 10.28 2.5 11.51V13.29C2.5 13.67 2.9 13.91 3.26 13.79C3.82 13.6 4.41 13.5 5 13.5C8.03 13.5 10.5 15.97 10.5 19C10.5 19.72 10.31 20.51 10.01 21.21C9.85 21.57 10.1 22 10.49 22H17.74C19.81 22 21.5 20.31 21.5 18.24V18.05C21.5 17.5 21.05 17.05 20.5 17.05H19.63C18.67 17.05 17.75 16.46 17.5 15.53C17.3 14.77 17.54 14.03 18.04 13.55C18.41 13.17 18.92 12.95 19.48 12.95ZM14 12.75H9C8.59 12.75 8.25 12.41 8.25 12C8.25 11.59 8.59 11.25 9 11.25H14C14.41 11.25 14.75 11.59 14.75 12C14.75 12.41 14.41 12.75 14 12.75Z" fill="#292D32"/>
</svg>
