<svg width="24" height="24" viewBox="0 0 24 24" fill="none" xmlns="http://www.w3.org/2000/svg">
<path d="M10.9404 22.6496C10.4604 22.6496 9.99039 22.5296 9.55039 22.2896C8.67039 21.7996 8.14039 20.9096 8.14039 19.9096V14.6096C8.14039 14.1096 7.81039 13.3596 7.50039 12.9796L3.76039 9.01961C3.13039 8.38961 2.65039 7.30961 2.65039 6.49961V4.19961C2.65039 2.59961 3.86039 1.34961 5.40039 1.34961H18.6004C20.1204 1.34961 21.3504 2.57961 21.3504 4.09961V6.29961C21.3504 7.34961 20.7204 8.53961 20.1304 9.12961L15.8004 12.9596C15.3804 13.3096 15.0504 14.0796 15.0504 14.6996V18.9996C15.0504 19.8896 14.4904 20.9196 13.7904 21.3396L12.4104 22.2296C11.9604 22.5096 11.4504 22.6496 10.9404 22.6496ZM5.40039 2.84961C4.70039 2.84961 4.15039 3.43961 4.15039 4.19961V6.49961C4.15039 6.86961 4.45039 7.58961 4.83039 7.96961L8.64039 11.9796C9.15039 12.6096 9.65039 13.6596 9.65039 14.5996V19.8996C9.65039 20.5496 10.1004 20.8696 10.2904 20.9696C10.7104 21.1996 11.2204 21.1996 11.6104 20.9596L13.0004 20.0696C13.2804 19.8996 13.5604 19.3596 13.5604 18.9996V14.6996C13.5604 13.6296 14.0804 12.4496 14.8304 11.8196L19.1104 8.02961C19.4504 7.68961 19.8604 6.87961 19.8604 6.28961V4.09961C19.8604 3.40961 19.3004 2.84961 18.6104 2.84961H5.40039Z" fill="#292D32"/>
<path d="M5.99968 10.7498C5.85968 10.7498 5.72968 10.7098 5.59968 10.6398C5.24968 10.4198 5.13968 9.94978 5.35968 9.59978L10.2897 1.69978C10.5097 1.34978 10.9697 1.23978 11.3197 1.45978C11.6697 1.67978 11.7797 2.13978 11.5597 2.48978L6.62968 10.3898C6.48968 10.6198 6.24968 10.7498 5.99968 10.7498Z" fill="#292D32"/>
</svg>
