<svg width="24" height="24" viewBox="0 0 24 24" fill="none" xmlns="http://www.w3.org/2000/svg">
<path d="M12 22.75C6.07 22.75 1.25 17.93 1.25 12C1.25 6.07 6.07 1.25 12 1.25C17.93 1.25 22.75 6.07 22.75 12C22.75 17.93 17.93 22.75 12 22.75ZM12 2.75C6.9 2.75 2.75 6.9 2.75 12C2.75 17.1 6.9 21.25 12 21.25C17.1 21.25 21.25 17.1 21.25 12C21.25 6.9 17.1 2.75 12 2.75Z" fill="#292D32"/>
<path d="M11.9996 15.6299C10.6796 15.6299 9.59961 14.5499 9.59961 13.2299V10.7599C9.59961 9.43989 10.6796 8.35986 11.9996 8.35986C13.3196 8.35986 14.3996 9.43989 14.3996 10.7599V13.2299C14.3996 14.5599 13.3196 15.6299 11.9996 15.6299ZM11.9996 9.86987C11.5096 9.86987 11.0996 10.2699 11.0996 10.7699V13.2399C11.0996 13.7399 11.4996 14.1399 11.9996 14.1399C12.4996 14.1399 12.8996 13.7399 12.8996 13.2399V10.7699C12.8996 10.2699 12.4896 9.86987 11.9996 9.86987Z" fill="#292D32"/>
<path d="M12 18.8202C8.83 18.8202 6.25 16.2402 6.25 13.0702V10.9302C6.25 7.76018 8.83 5.18018 12 5.18018C14.96 5.18018 17.42 7.40021 17.72 10.3402C17.76 10.7502 17.46 11.1202 17.05 11.1602C16.64 11.2102 16.27 10.9002 16.23 10.4902C16.01 8.32017 14.19 6.68018 12 6.68018C9.66 6.68018 7.75 8.59018 7.75 10.9302V13.0702C7.75 15.4102 9.66 17.3202 12 17.3202C14.2 17.3202 16.06 15.6002 16.24 13.4102C16.27 13.0002 16.63 12.6902 17.05 12.7202C17.46 12.7502 17.77 13.1102 17.74 13.5302C17.5 16.5002 14.98 18.8202 12 18.8202Z" fill="#292D32"/>
</svg>
