<svg width="24" height="24" viewBox="0 0 24 24" fill="none" xmlns="http://www.w3.org/2000/svg">
<path d="M9.99057 22.7501C9.79057 22.7501 9.63057 22.7101 9.51057 22.6601C9.11057 22.5101 8.43057 22.0201 8.43057 20.4701V14.0201H6.09057C4.75057 14.0201 4.27057 13.3901 4.10057 13.0201C3.93057 12.6401 3.78057 11.8701 4.66057 10.8601L12.2306 2.26013C13.2506 1.10013 14.0806 1.18013 14.4806 1.33013C14.8806 1.48013 15.5606 1.97013 15.5606 3.52013V9.97013H17.9006C19.2406 9.97013 19.7206 10.6001 19.8906 10.9701C20.0606 11.3501 20.2106 12.1201 19.3306 13.1301L11.7606 21.7301C11.0506 22.5401 10.4306 22.7501 9.99057 22.7501ZM13.9306 2.74013C13.9006 2.78013 13.6906 2.88013 13.3606 3.26013L5.79057 11.8601C5.51057 12.1801 5.47057 12.3801 5.47057 12.4201C5.49057 12.4301 5.67057 12.5301 6.09057 12.5301H9.18057C9.59057 12.5301 9.93057 12.8701 9.93057 13.2801V20.4801C9.93057 20.9801 10.0206 21.2001 10.0606 21.2601C10.0906 21.2201 10.3006 21.1201 10.6306 20.7401L18.2006 12.1401C18.4806 11.8201 18.5206 11.6201 18.5206 11.5801C18.5006 11.5701 18.3206 11.4701 17.9006 11.4701H14.8106C14.4006 11.4701 14.0606 11.1301 14.0606 10.7201V3.52013C14.0706 3.02013 13.9706 2.81013 13.9306 2.74013Z" fill="#292D32"/>
</svg>
