<svg width="24" height="24" viewBox="0 0 24 24" fill="none" xmlns="http://www.w3.org/2000/svg">
<path opacity="0.4" d="M14.9 2H9.10001C8.42001 2 7.46 2.4 6.98 2.88L2.88 6.98001C2.4 7.46001 2 8.42001 2 9.10001V14.9C2 15.58 2.4 16.54 2.88 17.02L6.98 21.12C7.46 21.6 8.42001 22 9.10001 22H14.9C15.58 22 16.54 21.6 17.02 21.12L21.12 17.02C21.6 16.54 22 15.58 22 14.9V9.10001C22 8.42001 21.6 7.46001 21.12 6.98001L17.02 2.88C16.54 2.4 15.58 2 14.9 2Z" fill="#292D32"/>
<path d="M3.02094 21.75C2.83094 21.75 2.64094 21.68 2.49094 21.53C2.20094 21.24 2.20094 20.76 2.49094 20.47L20.4709 2.48996C20.7609 2.19996 21.2409 2.19996 21.5309 2.48996C21.8209 2.77996 21.8209 3.25996 21.5309 3.54996L3.55094 21.53C3.41094 21.68 3.22094 21.75 3.02094 21.75Z" fill="#292D32"/>
</svg>
