<svg width="24" height="24" viewBox="0 0 24 24" fill="none" xmlns="http://www.w3.org/2000/svg">
<path opacity="0.4" d="M2 8.33994V15.6599C2 17.1599 3.62999 18.0999 4.92999 17.3499L8.10001 15.5299L11.27 13.7C11.47 13.58 11.63 13.45 11.76 13.29V10.73C11.63 10.57 11.47 10.44 11.27 10.32L8.10001 8.48993L4.92999 6.66996C3.62999 5.89996 2 6.83994 2 8.33994Z" stroke="#292D32" stroke-width="1.5" stroke-linecap="round" stroke-linejoin="round"/>
<path d="M11.7598 8.33994V15.6599C11.7598 17.1599 13.3898 18.0999 14.6898 17.3499L17.8597 15.5299L21.0298 13.7C22.3298 12.95 22.3298 11.08 21.0298 10.32L17.8597 8.48993L14.6898 6.66996C13.3898 5.89996 11.7598 6.83994 11.7598 8.33994Z" stroke="#292D32" stroke-width="1.5" stroke-linecap="round" stroke-linejoin="round"/>
</svg>
