<svg width="24" height="24" viewBox="0 0 24 24" fill="none" xmlns="http://www.w3.org/2000/svg">
<path d="M9 10.75C7.48 10.75 6.25 9.52 6.25 8C6.25 6.48 7.48 5.25 9 5.25C10.52 5.25 11.75 6.48 11.75 8C11.75 9.52 10.52 10.75 9 10.75ZM9 6.75C8.31 6.75 7.75 7.31 7.75 8C7.75 8.69 8.31 9.25 9 9.25C9.69 9.25 10.25 8.69 10.25 8C10.25 7.31 9.69 6.75 9 6.75Z" fill="#292D32"/>
<path d="M15 22.75H9C3.57 22.75 1.25 20.43 1.25 15V9C1.25 3.57 3.57 1.25 9 1.25H12C12.41 1.25 12.75 1.59 12.75 2C12.75 2.41 12.41 2.75 12 2.75H9C4.39 2.75 2.75 4.39 2.75 9V15C2.75 19.61 4.39 21.25 9 21.25H15C19.61 21.25 21.25 19.61 21.25 15V11C21.25 10.59 21.59 10.25 22 10.25C22.41 10.25 22.75 10.59 22.75 11V15C22.75 20.43 20.43 22.75 15 22.75Z" fill="#292D32"/>
<path d="M18.9395 8.36043C18.0695 8.36043 16.0295 7.29043 15.3995 5.34043C14.9695 3.99043 15.4695 2.22043 17.0295 1.72043C17.6895 1.51043 18.3795 1.60043 18.9295 1.94043C19.4695 1.60043 20.1795 1.50043 20.8495 1.72043C22.4095 2.22043 22.9095 3.99043 22.4795 5.34043C21.8495 7.33043 19.7095 8.36043 18.9395 8.36043ZM16.8295 4.88043C17.2595 6.21043 18.6995 6.83043 18.9595 6.86043C19.2495 6.83043 20.6595 6.13043 21.0495 4.88043C21.2595 4.21043 21.0495 3.36043 20.3895 3.14043C20.1095 3.05043 19.7395 3.10043 19.5695 3.36043C19.4295 3.57043 19.1995 3.70043 18.9595 3.70043C18.7295 3.70043 18.4795 3.59043 18.3395 3.39043C18.1295 3.10043 17.7595 3.06043 17.4995 3.14043C16.8295 3.36043 16.6195 4.21043 16.8295 4.88043Z" fill="#292D32"/>
<path d="M2.67075 19.6996C2.43075 19.6996 2.19075 19.5796 2.05075 19.3696C1.82075 19.0296 1.91075 18.5596 2.26075 18.3296L7.19075 15.0196C8.27075 14.2896 9.76075 14.3796 10.7407 15.2096L11.0707 15.4996C11.5707 15.9296 12.4207 15.9296 12.9107 15.4996L17.0707 11.9296C18.1307 11.0196 19.8007 11.0196 20.8707 11.9296L22.5007 13.3296C22.8107 13.5996 22.8507 14.0696 22.5807 14.3896C22.3107 14.6996 21.8407 14.7396 21.5207 14.4696L19.8907 13.0696C19.3907 12.6396 18.5407 12.6396 18.0407 13.0696L13.8807 16.6396C12.8207 17.5496 11.1507 17.5496 10.0807 16.6396L9.75075 16.3496C9.29075 15.9596 8.53075 15.9196 8.02075 16.2696L3.09075 19.5796C2.96075 19.6596 2.81075 19.6996 2.67075 19.6996Z" fill="#292D32"/>
</svg>
