<svg width="24" height="24" viewBox="0 0 24 24" fill="none" xmlns="http://www.w3.org/2000/svg">
<path d="M2.00005 12.2198C1.89005 6.5998 6.33005 2.0498 11.95 2.0498C17.57 2.0498 22 6.5998 22 12.1098V18.2698C22 20.2198 20.38 21.8398 18.43 21.8398C16.48 21.8398 14.86 20.2198 14.86 18.2698V15.4598C14.86 14.4898 15.62 13.6198 16.7 13.6198C17.67 13.6198 18.54 14.3798 18.54 15.4598V18.4898" stroke="#292D32" stroke-width="1.5" stroke-linecap="round" stroke-linejoin="round"/>
<path d="M5.46 18.4895V15.5695C5.46 14.5995 6.22 13.7295 7.3 13.7295C8.27 13.7295 9.14 14.4895 9.14 15.5695V18.3795C9.14 20.3295 7.52 21.9495 5.57 21.9495C3.62 21.9495 2 20.3195 2 18.3795V15.9995" stroke="#292D32" stroke-width="1.5" stroke-linecap="round" stroke-linejoin="round"/>
</svg>
