<svg width="24" height="24" viewBox="0 0 24 24" fill="none" xmlns="http://www.w3.org/2000/svg">
<path d="M17.2004 21.9999C19.8513 21.9999 22.0004 19.8509 22.0004 17.1999C22.0004 14.5489 19.8513 12.3999 17.2004 12.3999C14.5494 12.3999 12.4004 14.5489 12.4004 17.1999C12.4004 19.8509 14.5494 21.9999 17.2004 21.9999Z" stroke="#292D32" stroke-width="1.5" stroke-miterlimit="10" stroke-linecap="round" stroke-linejoin="round"/>
<path d="M18.9902 17.2598H15.4102" stroke="#292D32" stroke-width="1.5" stroke-miterlimit="10" stroke-linecap="round" stroke-linejoin="round"/>
<path d="M17.1992 15.5098V19.0997" stroke="#292D32" stroke-width="1.5" stroke-miterlimit="10" stroke-linecap="round" stroke-linejoin="round"/>
<path opacity="0.4" d="M22 8.69012C22 10.6601 21.49 12.4001 20.69 13.9101C19.81 12.9801 18.57 12.4001 17.2 12.4001C14.55 12.4001 12.4 14.5501 12.4 17.2001C12.4 18.4301 12.87 19.5501 13.63 20.4001C13.26 20.5701 12.92 20.7101 12.62 20.8101C12.28 20.9301 11.72 20.9301 11.38 20.8101C8.48 19.8201 2 15.6901 2 8.69012C2 5.60012 4.49 3.1001 7.56 3.1001C9.37 3.1001 10.99 3.98014 12 5.33014C13.01 3.98014 14.63 3.1001 16.44 3.1001C19.51 3.1001 22 5.60012 22 8.69012Z" stroke="#292D32" stroke-width="1.5" stroke-linecap="round" stroke-linejoin="round"/>
</svg>
