<svg width="24" height="24" viewBox="0 0 24 24" fill="none" xmlns="http://www.w3.org/2000/svg">
<path d="M16.4501 14.4V8.5C16.4501 7.95 16.0001 7.5 15.4501 7.5H12.55" stroke="#292D32" stroke-width="1.5" stroke-linecap="round" stroke-linejoin="round"/>
<path d="M14.05 6L12.25 7.5L14.05 9" stroke="#292D32" stroke-width="1.5" stroke-linecap="round" stroke-linejoin="round"/>
<path d="M7.55005 10.2V14.3999" stroke="#292D32" stroke-width="1.5" stroke-linecap="round" stroke-linejoin="round"/>
<path d="M7.70001 9.89999C8.77697 9.89999 9.65002 9.02697 9.65002 7.95001C9.65002 6.87306 8.77697 6 7.70001 6C6.62306 6 5.75 6.87306 5.75 7.95001C5.75 9.02697 6.62306 9.89999 7.70001 9.89999Z" stroke="#292D32" stroke-width="1.5" stroke-linecap="round" stroke-linejoin="round"/>
<path d="M7.54999 17.9999C8.5441 17.9999 9.34998 17.194 9.34998 16.1999C9.34998 15.2058 8.5441 14.3999 7.54999 14.3999C6.55588 14.3999 5.75 15.2058 5.75 16.1999C5.75 17.194 6.55588 17.9999 7.54999 17.9999Z" stroke="#292D32" stroke-width="1.5" stroke-linecap="round" stroke-linejoin="round"/>
<path d="M16.45 17.9999C17.4441 17.9999 18.25 17.194 18.25 16.1999C18.25 15.2058 17.4441 14.3999 16.45 14.3999C15.4559 14.3999 14.65 15.2058 14.65 16.1999C14.65 17.194 15.4559 17.9999 16.45 17.9999Z" stroke="#292D32" stroke-width="1.5" stroke-linecap="round" stroke-linejoin="round"/>
<path d="M9 22H15C20 22 22 20 22 15V9C22 4 20 2 15 2H9C4 2 2 4 2 9V15C2 20 4 22 9 22Z" stroke="#292D32" stroke-width="1.5" stroke-linecap="round" stroke-linejoin="round"/>
</svg>
