<svg width="24" height="24" viewBox="0 0 24 24" fill="none" xmlns="http://www.w3.org/2000/svg">
<path d="M12 18.75C11.59 18.75 11.25 18.41 11.25 18V15C11.25 14.59 11.59 14.25 12 14.25C12.41 14.25 12.75 14.59 12.75 15V18C12.75 18.41 12.41 18.75 12 18.75Z" fill="#292D32"/>
<path d="M17.6009 22.5598H6.40094C4.58094 22.5598 2.92094 21.1598 2.62094 19.3698L1.29094 11.3998C1.07094 10.1598 1.68094 8.56982 2.67094 7.77982L9.60094 2.22982C10.9409 1.14982 13.0509 1.15982 14.4009 2.23982L21.3309 7.77982C22.3109 8.56982 22.9109 10.1598 22.7109 11.3998L21.3809 19.3598C21.0809 21.1298 19.3809 22.5598 17.6009 22.5598ZM11.9909 2.92982C11.4609 2.92982 10.9309 3.08982 10.5409 3.39982L3.61094 8.95982C3.05094 9.40982 2.65094 10.4498 2.77094 11.1598L4.10094 19.1198C4.28094 20.1698 5.33094 21.0598 6.40094 21.0598H17.6009C18.6709 21.0598 19.7209 20.1698 19.9009 19.1098L21.2309 11.1498C21.3409 10.4498 20.9409 9.38982 20.3909 8.94982L13.4609 3.40982C13.0609 3.08982 12.5209 2.92982 11.9909 2.92982Z" fill="#292D32"/>
</svg>
