<svg width="24" height="24" viewBox="0 0 24 24" fill="none" xmlns="http://www.w3.org/2000/svg">
<path d="M9 22H15C20 22 22 20 22 15V9C22 4 20 2 15 2H9C4 2 2 4 2 9V15C2 20 4 22 9 22Z" stroke="#292D32" stroke-width="1.5" stroke-linecap="round" stroke-linejoin="round"/>
<path d="M16.2812 13.6101C15.1512 14.7401 13.5312 15.0901 12.1012 14.6401L9.51117 17.2201C9.33117 17.4101 8.96117 17.5301 8.69117 17.4901L7.49117 17.3301C7.09117 17.2801 6.73117 16.9001 6.67117 16.5101L6.51117 15.3101C6.47117 15.0501 6.60117 14.6801 6.78117 14.4901L9.36117 11.9101C8.92117 10.4801 9.26117 8.86014 10.3912 7.73014C12.0112 6.11014 14.6512 6.11014 16.2812 7.73014C17.9012 9.34014 17.9012 11.9801 16.2812 13.6101Z" stroke="#292D32" stroke-width="1.5" stroke-miterlimit="10" stroke-linecap="round" stroke-linejoin="round"/>
<path d="M10.4496 16.2799L9.59961 15.4199" stroke="#292D32" stroke-width="1.5" stroke-miterlimit="10" stroke-linecap="round" stroke-linejoin="round"/>
<path opacity="0.4" d="M13.3949 10.7002H13.4039" stroke="#292D32" stroke-width="2" stroke-linecap="round" stroke-linejoin="round"/>
</svg>
