<svg width="24" height="24" viewBox="0 0 24 24" fill="none" xmlns="http://www.w3.org/2000/svg">
<path d="M15.6987 4.353L6.39875 13.653C5.92875 14.123 5.10875 14.023 4.80875 13.423C4.26875 12.353 3.96875 11.183 3.96875 10.053C3.96875 7.603 5.05875 5.313 6.96875 3.773C8.87875 2.233 11.3787 1.663 13.8287 2.203C14.3687 2.323 14.8987 2.493 15.3987 2.723C16.0387 3.013 16.1987 3.853 15.6987 4.353Z" fill="#292D32"/>
<path d="M15.4494 20.6323C13.1894 19.9923 10.8094 19.9923 8.54941 20.6323C8.17941 20.7423 7.95941 21.1223 8.06941 21.4923C8.17941 21.8623 8.55941 22.0723 8.92941 21.9723C10.9394 21.4023 13.0494 21.4023 15.0594 21.9723C15.1194 21.9923 15.1894 22.0023 15.2494 22.0023C15.5494 22.0023 15.8294 21.8023 15.9194 21.4923C16.0294 21.1223 15.8194 20.7423 15.4494 20.6323Z" fill="#292D32"/>
<path d="M20.5591 1.95188C20.2691 1.66188 19.7891 1.66188 19.4991 1.95188L3.64914 17.8019C3.35914 18.0919 3.35914 18.5719 3.64914 18.8619C3.79914 19.0119 3.98914 19.0819 4.17914 19.0819C4.36914 19.0819 4.55914 19.0119 4.70914 18.8619L7.16914 16.4019C7.38914 16.5819 7.61914 16.7619 7.85914 16.9219V17.7519C7.84914 18.0319 7.83914 18.4619 8.16914 18.8119C8.51914 19.1619 9.03914 19.2119 9.44914 19.2119H14.5791C15.1191 19.2119 15.5291 19.0619 15.8091 18.7819C16.1991 18.3819 16.1791 17.8819 16.1691 17.6219V16.9219C19.2791 14.8319 21.2291 10.4219 19.2091 6.36188C18.9891 5.93188 18.7191 5.52187 18.4191 5.14187L20.5491 3.01187C20.8491 2.72187 20.8491 2.24187 20.5591 1.95188Z" fill="#292D32"/>
</svg>
