<svg width="24" height="24" viewBox="0 0 24 24" fill="none" xmlns="http://www.w3.org/2000/svg">
<path d="M14.2293 16.1101H12.2493C11.7893 16.1101 11.1193 15.9701 10.7293 15.5801L9.1893 14.3901L10.1093 13.2001L11.7193 14.4501C11.8393 14.5401 12.0593 14.6001 12.2493 14.6001H14.2293C14.5293 14.6001 14.8893 14.3401 14.9593 14.0801L16.2193 10.2301C16.2493 10.1501 16.2793 10.0401 16.2293 9.96009C16.1893 9.90009 16.0793 9.86011 15.9493 9.86011H13.8693C13.4993 9.86011 13.1493 9.70017 12.8993 9.42017C12.6593 9.14017 12.5493 8.76013 12.5993 8.38013L12.8593 6.71009C12.8893 6.58009 12.7993 6.43014 12.6893 6.39014C12.5993 6.36014 12.4493 6.41009 12.4093 6.46009L10.2793 9.63013L9.0293 8.79016L11.1593 5.62012C11.5793 4.99012 12.4693 4.7001 13.1893 4.9701C13.9993 5.2401 14.5193 6.14011 14.3393 6.9801L14.1293 8.3501H15.9493C16.5793 8.3501 17.1293 8.62009 17.4593 9.09009C17.7793 9.55009 17.8493 10.1401 17.6493 10.7101L16.4093 14.4901C16.1793 15.3801 15.2193 16.1101 14.2293 16.1101Z" fill="#292D32"/>
<path d="M8.56 15.5398H8.03999C6.47999 15.5398 6.25 14.4498 6.25 13.7998V8.70972C6.25 8.05972 6.47999 6.96973 8.03999 6.96973H8.56C10.12 6.96973 10.35 8.05972 10.35 8.70972V13.7998C10.35 14.4498 10.12 15.5398 8.56 15.5398ZM7.78 14.0298C7.81 14.0298 7.88999 14.0398 8.03999 14.0398H8.56C8.72 14.0398 8.81 14.0198 8.84 14.0098C8.84 13.9898 8.85001 13.9298 8.85001 13.7998V8.70972C8.85001 8.57972 8.84 8.50975 8.83 8.48975C8.81 8.48975 8.73 8.47974 8.56 8.47974H8.03999C7.87999 8.47974 7.78999 8.49977 7.75999 8.50977C7.75999 8.52977 7.75 8.58973 7.75 8.71973V13.8098C7.75 13.9398 7.76 14.0098 7.77 14.0398C7.77 14.0298 7.78 14.0298 7.78 14.0298Z" fill="#292D32"/>
<path d="M12 22.7498C11.3 22.7498 10.59 22.4797 10.06 21.9497L8.35001 20.2598C7.92001 19.8398 7.35999 19.6097 6.75999 19.6097H6C3.93 19.6097 2.25 17.9398 2.25 15.8898V4.97974C2.25 2.92974 3.93 1.25977 6 1.25977H18C20.07 1.25977 21.75 2.92974 21.75 4.97974V15.8898C21.75 17.9398 20.07 19.6097 18 19.6097H17.24C16.64 19.6097 16.07 19.8398 15.65 20.2598L13.94 21.9497C13.41 22.4797 12.7 22.7498 12 22.7498ZM6 2.74976C4.76 2.74976 3.75 3.74973 3.75 4.96973V15.8798C3.75 17.1098 4.76 18.0997 6 18.0997H6.75999C7.75999 18.0997 8.7 18.4897 9.41 19.1897L11.12 20.8798C11.61 21.3598 12.4 21.3598 12.89 20.8798L14.6 19.1897C15.31 18.4897 16.25 18.0997 17.25 18.0997H18C19.24 18.0997 20.25 17.0998 20.25 15.8798V4.96973C20.25 3.73973 19.24 2.74976 18 2.74976H6Z" fill="#292D32"/>
</svg>
