<svg width="24" height="24" viewBox="0 0 24 24" fill="none" xmlns="http://www.w3.org/2000/svg">
<path opacity="0.4" d="M10.7509 2.44982C11.4409 1.85982 12.5708 1.85982 13.2708 2.44982L14.8509 3.80981C15.1509 4.06981 15.7108 4.27984 16.1108 4.27984H17.8109C18.8709 4.27984 19.7408 5.14983 19.7408 6.20983V7.90979C19.7408 8.29979 19.9508 8.86979 20.2108 9.1698L21.5709 10.7498C22.1609 11.4398 22.1609 12.5698 21.5709 13.2698L20.2108 14.8498C19.9508 15.1498 19.7408 15.7098 19.7408 16.1098V17.8098C19.7408 18.8698 18.8709 19.7398 17.8109 19.7398H16.1108C15.7208 19.7398 15.1509 19.9498 14.8509 20.2098L13.2708 21.5698C12.5808 22.1598 11.4509 22.1598 10.7509 21.5698L9.17087 20.2098C8.87087 19.9498 8.31086 19.7398 7.91086 19.7398H6.18085C5.12085 19.7398 4.25086 18.8698 4.25086 17.8098V16.0998C4.25086 15.7098 4.04087 15.1498 3.79087 14.8498L2.44086 13.2598C1.86086 12.5698 1.86086 11.4498 2.44086 10.7598L3.79087 9.1698C4.04087 8.86979 4.25086 8.30979 4.25086 7.9198V6.20983C4.25086 5.14983 5.12085 4.27984 6.18085 4.27984H7.91086C8.30086 4.27984 8.87087 4.06981 9.17087 3.80981L10.7509 2.44982Z" fill="#292D32"/>
<path d="M16.5804 11.0697C16.3904 10.7997 16.0705 10.6498 15.6905 10.6498H13.7404C13.6104 10.6498 13.4905 10.5997 13.4105 10.4997C13.3305 10.3997 13.2905 10.2697 13.3105 10.1297L13.5504 8.56974C13.6504 8.10974 13.3405 7.57973 12.8805 7.42973C12.4505 7.26973 11.9404 7.48971 11.7404 7.78971L9.80045 10.6697V10.3097C9.80045 9.60973 9.50047 9.31974 8.76047 9.31974H8.27045C7.53045 9.31974 7.23047 9.60973 7.23047 10.3097V15.0898C7.23047 15.7898 7.53045 16.0798 8.27045 16.0798H8.76047C9.46047 16.0798 9.76047 15.8097 9.79047 15.1697L11.2605 16.2997C11.4605 16.4997 11.9105 16.6097 12.2305 16.6097H14.0804C14.7204 16.6097 15.3605 16.1297 15.5005 15.5397L16.6705 11.9797C16.8005 11.6597 16.7704 11.3297 16.5804 11.0697Z" fill="#292D32"/>
</svg>
