<svg width="24" height="24" viewBox="0 0 24 24" fill="none" xmlns="http://www.w3.org/2000/svg">
<path d="M14.5314 12.4202L13.0814 10.9702L14.4814 9.57018C14.7714 9.28018 14.7714 8.80018 14.4814 8.51018C14.1914 8.22018 13.7114 8.22018 13.4214 8.51018L12.0214 9.91018L10.5714 8.46018C10.2814 8.17018 9.80141 8.17018 9.51141 8.46018C9.22141 8.75018 9.22141 9.23018 9.51141 9.52018L10.9614 10.9702L9.47141 12.4602C9.18141 12.7502 9.18141 13.2302 9.47141 13.5202C9.62141 13.6702 9.81141 13.7402 10.0014 13.7402C10.1914 13.7402 10.3814 13.6702 10.5314 13.5202L12.0214 12.0302L13.4714 13.4802C13.6214 13.6302 13.8114 13.7002 14.0014 13.7002C14.1914 13.7002 14.3814 13.6302 14.5314 13.4802C14.8214 13.1902 14.8214 12.7202 14.5314 12.4202Z" fill="#292D32"/>
<path opacity="0.4" d="M20.6207 8.7C19.5807 4.07 15.5407 2 12.0007 2C12.0007 2 12.0007 2 11.9907 2C8.46073 2 4.43073 4.07 3.38073 8.69C2.20073 13.85 5.36073 18.22 8.22073 20.98C9.28073 22 10.6407 22.51 12.0007 22.51C13.3607 22.51 14.7207 22 15.7707 20.98C18.6307 18.22 21.7907 13.86 20.6207 8.7Z" fill="#292D32"/>
</svg>
