<svg width="24" height="24" viewBox="0 0 24 24" fill="none" xmlns="http://www.w3.org/2000/svg">
<path d="M11.9987 19.3498C11.4787 19.3498 10.9888 19.0898 10.6388 18.6298L9.72876 17.4198H9.47876C6.76876 17.4198 4.96875 16.6498 4.96875 12.9098V9.76974C4.96875 7.08974 6.33874 5.49976 8.82874 5.28976C9.01874 5.26976 9.24876 5.25977 9.47876 5.25977H14.5088C17.4188 5.25977 19.0187 6.85974 19.0187 9.76974V12.9098C19.0187 13.1498 19.0088 13.3698 18.9788 13.5898C18.7688 16.0498 17.1787 17.4198 14.4987 17.4198H14.2487L13.3387 18.6298C13.0087 19.0898 12.5187 19.3498 11.9987 19.3498ZM9.48874 6.74976C9.31874 6.74976 9.14874 6.75975 8.98874 6.77975C7.23874 6.92975 6.46875 7.84974 6.46875 9.76974V12.9098C6.46875 15.4898 7.21876 15.9198 9.47876 15.9198H9.78876C10.1888 15.9198 10.6388 16.1397 10.8888 16.4597L11.8387 17.7298C11.8987 17.8098 11.9587 17.8498 11.9887 17.8498C12.0187 17.8498 12.0788 17.8098 12.1388 17.7298L13.0787 16.4698C13.3387 16.1198 13.7487 15.9198 14.1787 15.9198H14.4887C16.4087 15.9198 17.3288 15.1497 17.4788 13.4297C17.4988 13.2397 17.5088 13.0797 17.5088 12.8997V9.75977C17.5088 7.67977 16.5787 6.74976 14.4987 6.74976H9.48874Z" fill="#292D32"/>
<path d="M15 22.75H9C3.57 22.75 1.25 20.43 1.25 15V9C1.25 3.57 3.57 1.25 9 1.25H15C20.43 1.25 22.75 3.57 22.75 9V15C22.75 20.43 20.43 22.75 15 22.75ZM9 2.75C4.39 2.75 2.75 4.39 2.75 9V15C2.75 19.61 4.39 21.25 9 21.25H15C19.61 21.25 21.25 19.61 21.25 15V9C21.25 4.39 19.61 2.75 15 2.75H9Z" fill="#292D32"/>
</svg>
