<svg width="24" height="24" viewBox="0 0 24 24" fill="none" xmlns="http://www.w3.org/2000/svg">
<path d="M16.422 6.4177V7.5777L9.14203 14.8577C8.18203 13.9877 7.58203 12.7077 7.58203 11.3377V6.4177C7.58203 4.3577 8.98203 2.6477 10.882 2.1577C11.072 2.1077 11.252 2.2677 11.252 2.4577V3.9977C11.252 4.4077 11.592 4.7477 12.002 4.7477C12.412 4.7477 12.752 4.4077 12.752 3.9977V2.4577C12.752 2.2677 12.932 2.1077 13.122 2.1577C15.022 2.6477 16.422 4.3577 16.422 6.4177Z" fill="#292D32"/>
<path d="M19.8117 9.80719V11.3972C19.8117 15.4672 16.6817 18.8172 12.7017 19.1672V21.2972C12.7017 21.6872 12.3917 21.9972 12.0017 21.9972C11.6117 21.9972 11.3017 21.6872 11.3017 21.2972V19.1672C10.2117 19.0672 9.18172 18.7472 8.26172 18.2372L9.29172 17.2072C10.1117 17.5872 11.0317 17.8072 12.0017 17.8072C15.5417 17.8072 18.4217 14.9272 18.4217 11.3972V9.80719C18.4217 9.42719 18.7317 9.11719 19.1217 9.11719C19.5017 9.11719 19.8117 9.42719 19.8117 9.80719Z" fill="#292D32"/>
<path d="M16.4222 10.0781V11.5281C16.4222 14.1081 14.2022 16.1781 11.5622 15.9281C11.2822 15.8981 11.0022 15.8481 10.7422 15.7581L16.4222 10.0781Z" fill="#292D32"/>
<path d="M21.7711 2.22891C21.4711 1.92891 20.9811 1.92891 20.6811 2.22891L7.23109 15.6789C6.20109 14.5489 5.58109 13.0489 5.58109 11.3989V9.80891C5.58109 9.42891 5.27109 9.11891 4.88109 9.11891C4.50109 9.11891 4.19109 9.42891 4.19109 9.80891V11.3989C4.19109 13.4289 4.97109 15.2789 6.24109 16.6689L2.22109 20.6889C1.92109 20.9889 1.92109 21.4789 2.22109 21.7789C2.38109 21.9189 2.57109 21.9989 2.77109 21.9989C2.97109 21.9989 3.16109 21.9189 3.31109 21.7689L21.7711 3.30891C22.0811 3.00891 22.0811 2.52891 21.7711 2.22891Z" fill="#292D32"/>
</svg>
