<svg width="24" height="24" viewBox="0 0 24 24" fill="none" xmlns="http://www.w3.org/2000/svg">
<path d="M15.0301 11.5202C14.7901 11.5202 14.5501 11.4002 14.4101 11.1902L11.2101 6.41018C11.1001 6.24018 11.0601 6.04018 11.1001 5.85018C11.1401 5.66018 11.2501 5.48017 11.4201 5.37017L17.0801 1.58017C17.5201 1.28017 18.0501 1.18018 18.5701 1.28018C19.0901 1.38018 19.5401 1.68017 19.8401 2.12017L21.6601 4.83017C22.2701 5.74017 22.0301 6.98018 21.1101 7.59018L15.4601 11.3802C15.3201 11.4802 15.1801 11.5202 15.0301 11.5202ZM12.8801 6.20019L15.2401 9.73019L20.2701 6.36016C20.5001 6.21016 20.5601 5.90017 20.4001 5.68017L18.5801 2.97018C18.5101 2.86018 18.4001 2.79019 18.2701 2.76019C18.1401 2.73019 18.0101 2.76017 17.9001 2.83017L12.8801 6.20019Z" fill="#292D32"/>
<path d="M9.93973 14.2398C9.69973 14.2398 9.45973 14.1198 9.31973 13.9098L6.75973 10.0898C6.52973 9.74977 6.61973 9.27976 6.96973 9.04976L11.7497 5.84978C11.9197 5.73978 12.1197 5.69977 12.3097 5.73977C12.5097 5.77977 12.6797 5.88977 12.7897 6.05977L15.3497 9.87978C15.5797 10.2198 15.4897 10.6898 15.1397 10.9198L10.3597 14.1198C10.2297 14.1998 10.0797 14.2398 9.93973 14.2398ZM8.41973 9.87978L10.1397 12.4498L13.6697 10.0898L11.9497 7.50979L8.41973 9.87978Z" fill="#292D32"/>
<path d="M5.28039 16.8198C4.72039 16.8198 4.16039 16.5498 3.82039 16.0398L2.69039 14.3598C2.43039 13.9698 2.34039 13.5098 2.43039 13.0498C2.52039 12.5898 2.78039 12.1998 3.17039 11.9398L7.12039 9.29976C7.46039 9.06976 7.9304 9.15979 8.1604 9.50979L10.4004 12.8498C10.6304 13.1898 10.5404 13.6598 10.1904 13.8898L6.24039 16.5298C5.95039 16.7198 5.61039 16.8198 5.28039 16.8198ZM7.33039 10.9498L4.01039 13.1698C3.90039 13.2498 3.86039 13.3998 3.94039 13.5198L5.07039 15.1998C5.15039 15.3098 5.30039 15.3498 5.42039 15.2698L8.74039 13.0498L7.33039 10.9498Z" fill="#292D32"/>
<path d="M7.56019 22.7498C7.46019 22.7498 7.3502 22.7298 7.2502 22.6798C6.8702 22.5098 6.71019 22.0599 6.88019 21.6899L11.3702 11.8899C11.5402 11.5099 11.9902 11.3498 12.3602 11.5198C12.7402 11.6898 12.9002 12.1399 12.7302 12.5099L8.24019 22.3098C8.11019 22.5898 7.84019 22.7498 7.56019 22.7498Z" fill="#292D32"/>
<path d="M16.44 22.7502C16.15 22.7502 15.88 22.5902 15.76 22.3102L11.32 12.5102C11.15 12.1302 11.32 11.6902 11.69 11.5202C12.06 11.3502 12.51 11.5202 12.68 11.8902L17.12 21.6902C17.29 22.0702 17.12 22.5102 16.75 22.6802C16.65 22.7302 16.55 22.7502 16.44 22.7502Z" fill="#292D32"/>
</svg>
