<svg width="24" height="24" viewBox="0 0 24 24" fill="none" xmlns="http://www.w3.org/2000/svg">
<path d="M1.69922 7.91949C1.69922 4.83949 3.45921 3.51953 6.09921 3.51953H14.8892C17.1292 3.51953 18.7392 4.46953 19.1692 6.63953C19.2492 7.02953 19.2892 7.44949 19.2892 7.91949V13.0695C19.2892 16.1495 17.5292 17.4695 14.8892 17.4695H6.09921C5.64921 17.4695 5.21921 17.4295 4.81921 17.3395C4.56921 17.2995 4.32919 17.2295 4.10919 17.1495C2.60919 16.5895 1.69922 15.2895 1.69922 13.0695V11.9995" stroke="#292D32" stroke-width="1.5" stroke-miterlimit="10" stroke-linecap="round" stroke-linejoin="round"/>
<path d="M22.3001 15.0096V16.0696C22.3001 19.1496 20.5401 20.4696 17.9001 20.4696H9.11008C8.37008 20.4696 7.70009 20.3697 7.12009 20.1497C5.93009 19.7097 5.12008 18.7997 4.83008 17.3397C5.23008 17.4297 5.66008 17.4696 6.11008 17.4696H14.9001C17.5401 17.4696 19.3001 16.1496 19.3001 13.0696V7.91962C19.3001 7.44962 19.2601 7.02965 19.1801 6.63965C21.0901 7.02965 22.3001 8.36962 22.3001 10.9196" stroke="#292D32" stroke-width="1.5" stroke-miterlimit="10" stroke-linecap="round" stroke-linejoin="round"/>
<path d="M13.1394 10.4994C13.1394 9.03939 11.9594 7.85938 10.4994 7.85938C9.03939 7.85938 7.85938 9.03939 7.85938 10.4994C7.85938 11.9594 9.03939 13.1394 10.4994 13.1394" stroke="#292D32" stroke-width="1.5" stroke-miterlimit="10" stroke-linecap="round" stroke-linejoin="round"/>
<path d="M4.7793 8.2998V12.6998" stroke="#292D32" stroke-width="1.5" stroke-miterlimit="10" stroke-linecap="round" stroke-linejoin="round"/>
<path d="M16.2188 8.2998V12.6998" stroke="#292D32" stroke-width="1.5" stroke-miterlimit="10" stroke-linecap="round" stroke-linejoin="round"/>
</svg>
