<svg width="24" height="24" viewBox="0 0 24 24" fill="none" xmlns="http://www.w3.org/2000/svg">
<path d="M2 8.65002C2 3.90002 3.89999 2 8.64999 2H14.35C19.1 2 21 3.90002 21 8.65002V14.35C21 14.69 20.99 15.02 20.97 15.33C20.25 14.51 19.18 14 18 14C15.79 14 14 15.79 14 18C14 18.75 14.21 19.46 14.58 20.06C14.78 20.4 15.04 20.71 15.34 20.97C15.03 20.99 14.7 21 14.35 21H8.64999C3.89999 21 2 19.1 2 14.35V12.97" stroke="#292D32" stroke-width="1.5" stroke-linecap="round" stroke-linejoin="round"/>
<path d="M6.71953 14.4195C7.52034 14.4195 8.16953 13.7703 8.16953 12.9695C8.16953 12.1687 7.52034 11.5195 6.71953 11.5195C5.91872 11.5195 5.26953 12.1687 5.26953 12.9695C5.26953 13.7703 5.91872 14.4195 6.71953 14.4195Z" stroke="#292D32" stroke-width="1.5" stroke-linecap="round" stroke-linejoin="round"/>
<path d="M13.4797 11.9995V6.33952C13.4797 5.12952 12.7197 4.96949 11.9597 5.17949L9.0697 5.96946C8.5497 6.10946 8.17969 6.5295 8.17969 7.1295V8.13951V8.8195V12.9695" stroke="#292D32" stroke-width="1.5" stroke-linecap="round" stroke-linejoin="round"/>
<path d="M12.0301 13.4498C12.8309 13.4498 13.4801 12.8006 13.4801 11.9998C13.4801 11.199 12.8309 10.5498 12.0301 10.5498C11.2293 10.5498 10.5801 11.199 10.5801 11.9998C10.5801 12.8006 11.2293 13.4498 12.0301 13.4498Z" stroke="#292D32" stroke-width="1.5" stroke-linecap="round" stroke-linejoin="round"/>
<path d="M8.16992 8.8299L13.4799 7.37988" stroke="#292D32" stroke-width="1.5" stroke-linecap="round" stroke-linejoin="round"/>
<path d="M22 18C22 18.75 21.79 19.46 21.42 20.06C20.73 21.22 19.46 22 18 22C16.54 22 15.27 21.22 14.58 20.06C14.21 19.46 14 18.75 14 18C14 15.79 15.79 14 18 14C20.21 14 22 15.79 22 18Z" stroke="#292D32" stroke-width="1.5" stroke-miterlimit="10" stroke-linecap="round" stroke-linejoin="round"/>
<path d="M19.4898 17.9795H16.5098" stroke="#292D32" stroke-width="1.5" stroke-miterlimit="10" stroke-linecap="round" stroke-linejoin="round"/>
<path d="M18 16.5195V19.5095" stroke="#292D32" stroke-width="1.5" stroke-miterlimit="10" stroke-linecap="round" stroke-linejoin="round"/>
</svg>
