<svg width="24" height="24" viewBox="0 0 24 24" fill="none" xmlns="http://www.w3.org/2000/svg">
<path d="M22 3.75H2C1.59 3.75 1.25 3.41 1.25 3C1.25 2.59 1.59 2.25 2 2.25H22C22.41 2.25 22.75 2.59 22.75 3C22.75 3.41 22.41 3.75 22 3.75Z" fill="#292D32"/>
<path d="M11 9.75H2C1.59 9.75 1.25 9.41 1.25 9C1.25 8.59 1.59 8.25 2 8.25H11C11.41 8.25 11.75 8.59 11.75 9C11.75 9.41 11.41 9.75 11 9.75Z" fill="#292D32"/>
<path d="M8 15.75H2C1.59 15.75 1.25 15.41 1.25 15C1.25 14.59 1.59 14.25 2 14.25H8C8.41 14.25 8.75 14.59 8.75 15C8.75 15.41 8.41 15.75 8 15.75Z" fill="#292D32"/>
<path d="M6 21.75H2C1.59 21.75 1.25 21.41 1.25 21C1.25 20.59 1.59 20.25 2 20.25H6C6.41 20.25 6.75 20.59 6.75 21C6.75 21.41 6.41 21.75 6 21.75Z" fill="#292D32"/>
<path d="M21.8602 7.67825C21.2702 7.22825 20.4602 7.13826 19.5102 7.39826L15.1602 8.57825C13.9902 8.89825 13.2702 9.84826 13.2702 11.0483V13.5983V17.2783C12.8502 17.0383 12.3602 16.8883 11.8402 16.8883C10.2302 16.8883 8.91016 18.1983 8.91016 19.8183C8.91016 21.4283 10.2202 22.7483 11.8402 22.7483C13.4602 22.7483 14.7702 21.4383 14.7702 19.8183V14.1683L21.2502 12.3983V15.8283C20.8302 15.5883 20.3402 15.4383 19.8202 15.4383C18.2102 15.4383 16.8902 16.7483 16.8902 18.3683C16.8902 19.9783 18.2002 21.2983 19.8202 21.2983C21.4402 21.2983 22.7502 19.9883 22.7502 18.3683V11.4183V9.86825C22.7502 8.85825 22.4502 8.11825 21.8602 7.67825ZM11.8402 21.2483C11.0502 21.2483 10.4102 20.6083 10.4102 19.8183C10.4102 19.0283 11.0502 18.3883 11.8402 18.3883C12.6302 18.3883 13.2702 19.0283 13.2702 19.8183C13.2702 20.6083 12.6302 21.2483 11.8402 21.2483ZM19.8202 19.7983C19.0302 19.7983 18.3902 19.1583 18.3902 18.3683C18.3902 17.5783 19.0302 16.9383 19.8202 16.9383C20.6102 16.9383 21.2502 17.5783 21.2502 18.3683C21.2502 19.1583 20.6102 19.7983 19.8202 19.7983Z" fill="#292D32"/>
</svg>
