<svg width="24" height="24" viewBox="0 0 24 24" fill="none" xmlns="http://www.w3.org/2000/svg">
<path d="M13.1807 11.8601C12.7807 11.8601 12.4207 11.6401 12.2507 11.2801L10.8007 8.39013L10.3807 9.17009C10.1507 9.60009 9.69071 9.87011 9.20071 9.87011H8.4707C8.0607 9.87011 7.7207 9.53011 7.7207 9.12011C7.7207 8.71011 8.0607 8.37011 8.4707 8.37011H9.11069L9.9007 6.91008C10.0907 6.57008 10.4707 6.3401 10.8307 6.3601C11.2207 6.3601 11.5707 6.5901 11.7507 6.9301L13.1807 9.79009L13.5207 9.10009C13.7507 8.64009 14.2007 8.3601 14.7207 8.3601H15.5307C15.9407 8.3601 16.2807 8.7001 16.2807 9.1101C16.2807 9.5201 15.9407 9.8601 15.5307 9.8601H14.8207L14.1107 11.2701C13.9307 11.6401 13.5807 11.8601 13.1807 11.8601Z" fill="#292D32"/>
<path opacity="0.4" d="M2.74982 18.6498C2.33982 18.6498 1.99982 18.3098 1.99982 17.8998V12.1998C1.94982 9.48983 2.95981 6.92983 4.83981 5.00983C6.71981 3.09983 9.23983 2.0498 11.9498 2.0498C17.4898 2.0498 21.9998 6.55979 21.9998 12.0998V17.7998C21.9998 18.2098 21.6598 18.5498 21.2498 18.5498C20.8398 18.5498 20.4998 18.2098 20.4998 17.7998V12.0998C20.4998 7.38979 16.6698 3.5498 11.9498 3.5498C9.63983 3.5498 7.49982 4.43981 5.90982 6.05981C4.30982 7.68981 3.45982 9.85981 3.49982 12.1798V17.8898C3.49982 18.3098 3.16982 18.6498 2.74982 18.6498Z" fill="#292D32"/>
<path d="M5.94 12.4497H5.81C3.71 12.4497 2 14.1597 2 16.2597V18.1397C2 20.2397 3.71 21.9497 5.81 21.9497H5.94C8.04 21.9497 9.75 20.2397 9.75 18.1397V16.2597C9.75 14.1597 8.04 12.4497 5.94 12.4497Z" fill="#292D32"/>
<path d="M18.19 12.4497H18.06C15.96 12.4497 14.25 14.1597 14.25 16.2597V18.1397C14.25 20.2397 15.96 21.9497 18.06 21.9497H18.19C20.29 21.9497 22 20.2397 22 18.1397V16.2597C22 14.1597 20.29 12.4497 18.19 12.4497Z" fill="#292D32"/>
</svg>
