<svg width="24" height="24" viewBox="0 0 24 24" fill="none" xmlns="http://www.w3.org/2000/svg">
<path d="M2.01958 12.2198C1.90958 6.59979 6.34959 2.0498 11.9696 2.0498C17.5896 2.0498 22.0196 6.5998 22.0196 12.1098V18.2698C22.0196 20.2198 20.3996 21.8398 18.4496 21.8398C16.4996 21.8398 14.8796 20.2198 14.8796 18.2698V15.4598C14.8796 14.4898 15.6396 13.6198 16.7196 13.6198C17.6896 13.6198 18.5596 14.3798 18.5596 15.4598V18.4898" stroke="#292D32" stroke-width="1.5" stroke-linecap="round" stroke-linejoin="round"/>
<path d="M5.47955 18.4905V15.5705C5.47955 14.6005 6.23955 13.7305 7.31955 13.7305C8.28955 13.7305 9.15955 14.4905 9.15955 15.5705V18.3805C9.15955 20.3305 7.53954 21.9505 5.58954 21.9505C3.63954 21.9505 2.01953 20.3205 2.01953 18.3805V16.0105" stroke="#292D32" stroke-width="1.5" stroke-linecap="round" stroke-linejoin="round"/>
<path d="M11.5407 8.19L11.0807 7.27002C10.9707 7.06002 10.6707 7.05001 10.5607 7.26001L9.7207 8.80999C9.6207 8.99999 9.42071 9.11999 9.20071 9.11999H8.4707" stroke="#292D32" stroke-width="1.5" stroke-linecap="round" stroke-linejoin="round"/>
<path d="M15.5302 9.12012H14.7202C14.5002 9.12012 14.2902 9.25012 14.1902 9.44012L13.4402 10.9401C13.3302 11.1601 13.0202 11.1601 12.9102 10.9401" stroke="#292D32" stroke-width="1.5" stroke-linecap="round" stroke-linejoin="round"/>
</svg>
