<svg width="24" height="24" viewBox="0 0 24 24" fill="none" xmlns="http://www.w3.org/2000/svg">
<path opacity="0.4" d="M19.11 7.47047L15.59 3.95047C12.43 0.800475 10.77 1.96047 8.77005 3.95047L3.11005 9.61047C1.96005 10.7605 1.33005 11.5005 1.10005 12.3205C1.10005 12.3305 1.09005 12.3305 1.09005 12.3305C1.09005 12.3405 1.09005 12.3405 1.09005 12.3405C1.09005 12.3505 1.09005 12.3505 1.09005 12.3505V12.3805C0.680048 13.8405 1.76005 15.0805 3.11005 16.4305L6.64005 19.9405C7.90005 21.2105 8.92005 22.0005 10.05 22.0005C11.18 22.0005 12.15 21.2405 13.45 19.9405L19.11 14.2905C19.6 13.7905 19.96 13.3805 20.24 12.9905C20.24 12.9805 20.24 12.9805 20.24 12.9805C20.24 12.9805 20.24 12.9805 20.25 12.9805C21.53 11.1905 21.19 9.54047 19.11 7.47047ZM19.15 9.92047C19.58 10.6505 18.9 11.5505 18.07 11.3705C17.76 11.3005 17.46 11.2405 17.15 11.1805C17.13 11.1805 17.11 11.1705 17.08 11.1705C16.38 11.0405 15.67 10.9305 14.95 10.8405H14.91C14.19 10.7505 13.46 10.6805 12.73 10.6405H12.65C12.01 10.6005 11.36 10.5805 10.72 10.5805C9.94005 10.5805 9.16005 10.6205 8.39005 10.6705C8.26005 10.6805 8.14005 10.6905 8.02005 10.7005C7.44005 10.7405 6.86005 10.8005 6.29005 10.8705C6.13005 10.8905 5.98005 10.9105 5.83005 10.9305C5.25005 11.0205 4.68005 11.1105 4.11005 11.2205C3.98005 11.2505 3.86005 11.2705 3.73005 11.2905C3.68005 11.3005 3.62005 11.3105 3.57005 11.3205C3.75005 11.1205 3.96005 10.9105 4.19005 10.6805L9.84005 5.03047C11.66 3.23047 12.28 2.80047 14.52 5.03047L18.03 8.55047C18.57 9.08047 18.93 9.53047 19.15 9.92047Z" fill="#292D32"/>
<path d="M19.1503 9.92018C19.5803 10.6502 18.9003 11.5502 18.0703 11.3702C17.7603 11.3002 17.4603 11.2402 17.1503 11.1802C17.1303 11.1802 17.1103 11.1702 17.0803 11.1702C16.3803 11.0402 15.6703 10.9302 14.9503 10.8402H14.9103C14.1903 10.7502 13.4603 10.6802 12.7303 10.6402H12.6503C12.0103 10.6002 11.3603 10.5802 10.7203 10.5802C9.94031 10.5802 9.16031 10.6202 8.39031 10.6702C8.26031 10.6802 8.14031 10.6902 8.02031 10.7002C7.44031 10.7402 6.86031 10.8002 6.29031 10.8702C6.13031 10.8902 5.98031 10.9102 5.83031 10.9302C5.25031 11.0202 4.68031 11.1102 4.11031 11.2202C3.98031 11.2502 3.86031 11.2702 3.73031 11.2902C3.68031 11.3002 3.62031 11.3102 3.57031 11.3202C3.75031 11.1202 3.96031 10.9102 4.19031 10.6802L9.84031 5.03018C11.6603 3.23018 12.2803 2.80018 14.5203 5.03018L18.0303 8.55018C18.5703 9.08018 18.9303 9.53018 19.1503 9.92018Z" fill="#292D32"/>
<path d="M20.9499 16.87C20.5699 16.4 20.2399 16 19.4999 16C18.7599 16 18.4299 16.4 18.0599 16.87C17.2599 17.86 16.8999 18.94 17.0299 19.98C17.1799 21.17 18.1999 22 19.4999 22C20.7999 22 21.8199 21.17 21.9699 19.97C22.0999 18.93 21.7499 17.86 20.9499 16.87Z" fill="#292D32"/>
</svg>
