<svg width="24" height="24" viewBox="0 0 24 24" fill="none" xmlns="http://www.w3.org/2000/svg">
<path d="M11.1501 5.19063L10.3701 4.41061C9.90008 3.94061 9.90008 3.18065 10.3701 2.71065L11.1501 1.93062C11.6201 1.46062 12.3801 1.46062 12.8501 1.93062L13.6301 2.71065C14.1001 3.18065 14.1001 3.94061 13.6301 4.41061L12.8501 5.19063C12.3801 5.66063 11.6201 5.66063 11.1501 5.19063Z" fill="#292D32"/>
<path d="M11.9998 5.91013C11.5998 5.91013 11.1898 5.76016 10.8898 5.45016L10.1098 4.67013C9.49984 4.06013 9.49984 3.06015 10.1098 2.44015L10.8898 1.66013C11.4798 1.06013 12.5198 1.07013 13.1198 1.66013L13.8998 2.44015C14.5098 3.05015 14.5098 4.05013 13.8998 4.67013L13.1198 5.45016C12.8098 5.76016 12.3998 5.91013 11.9998 5.91013ZM11.9998 1.96017C11.7898 1.96017 11.5798 2.04016 11.4198 2.20016L10.6398 2.98013C10.3198 3.30013 10.3198 3.83018 10.6398 4.15018L11.4198 4.93014C11.7398 5.25014 12.2598 5.25014 12.5898 4.93014L13.3698 4.15018C13.6898 3.83018 13.6898 3.31013 13.3698 2.98013L12.5898 2.20016C12.4198 2.04016 12.2098 1.96017 11.9998 1.96017Z" fill="#292D32"/>
<path d="M19.45 9.80957H20.55C21.21 9.80957 21.75 10.3496 21.75 11.0096V12.1096C21.75 12.7696 21.21 13.3096 20.55 13.3096H19.45C18.79 13.3096 18.25 12.7696 18.25 12.1096V11.0096C18.25 10.3496 18.79 9.80957 19.45 9.80957Z" fill="#292D32"/>
<path d="M20.5491 13.6897H19.4491C18.5791 13.6897 17.8691 12.9797 17.8691 12.1097V11.0097C17.8691 10.1397 18.5791 9.42969 19.4491 9.42969H20.5491C21.4191 9.42969 22.1291 10.1397 22.1291 11.0097V12.1097C22.1191 12.9797 21.4191 13.6897 20.5491 13.6897ZM19.4491 10.1897C18.9891 10.1897 18.6191 10.5597 18.6191 11.0197V12.1197C18.6191 12.5797 18.9891 12.9497 19.4491 12.9497H20.5491C21.0091 12.9497 21.3791 12.5797 21.3791 12.1197V11.0197C21.3791 10.5597 21.0091 10.1897 20.5491 10.1897H19.4491Z" fill="#292D32"/>
<path d="M4.55 9.80957H3.45C2.79 9.80957 2.25 10.3496 2.25 11.0096V12.1096C2.25 12.7696 2.79 13.3096 3.45 13.3096H4.55C5.21 13.3096 5.75 12.7696 5.75 12.1096V11.0096C5.75 10.3496 5.21 9.80957 4.55 9.80957Z" fill="#292D32"/>
<path d="M4.54914 13.6897H3.44913C2.57913 13.6897 1.86914 12.9797 1.86914 12.1097V11.0097C1.86914 10.1397 2.57913 9.42969 3.44913 9.42969H4.54914C5.41914 9.42969 6.12914 10.1397 6.12914 11.0097V12.1097C6.11913 12.9797 5.41914 13.6897 4.54914 13.6897ZM3.44913 10.1897C2.98913 10.1897 2.61914 10.5597 2.61914 11.0197V12.1197C2.61914 12.5797 2.98913 12.9497 3.44913 12.9497H4.54914C5.00914 12.9497 5.37914 12.5797 5.37914 12.1197V11.0197C5.37914 10.5597 5.00914 10.1897 4.54914 10.1897H3.44913Z" fill="#292D32"/>
<path d="M18.5402 10.0998L13.2402 4.7998" stroke="#292D32" stroke-width="1.5" stroke-linecap="round" stroke-linejoin="round"/>
<path d="M5.46094 10.0998L10.7609 4.7998" stroke="#292D32" stroke-width="1.5" stroke-linecap="round" stroke-linejoin="round"/>
<path d="M13.2603 22.0101H10.7003C9.78029 22.0101 9.10029 21.2701 9.27029 20.4701L9.69029 18.6201H14.2803L14.7003 20.4701C14.8903 21.3201 14.2403 22.0101 13.2603 22.0101Z" fill="#292D32"/>
<path opacity="0.4" d="M16.0405 17.0499L14.2705 18.6199H9.68051L7.91051 17.0499C6.88051 16.2099 6.88051 15.5599 7.66051 14.5699L10.7805 10.6299C11.0005 10.3599 11.2505 10.1699 11.5205 10.0799C11.8105 9.97988 12.1305 9.97988 12.4205 10.0799C12.6905 10.1799 12.9405 10.3599 13.1605 10.6299L16.2805 14.5699C17.0705 15.5599 17.0305 16.1799 16.0405 17.0499Z" fill="#292D32"/>
</svg>
