<svg width="24" height="24" viewBox="0 0 24 24" fill="none" xmlns="http://www.w3.org/2000/svg">
<path d="M4.40991 16.75C4.16991 19.64 6.34991 22 9.24991 22H14.0399C17.2999 22 19.5399 19.37 18.9999 16.15C18.4299 12.77 15.1699 10 11.7399 10C8.01991 10 4.71991 13.04 4.40991 16.75Z" stroke="#292D32" stroke-width="1.5" stroke-linecap="round" stroke-linejoin="round"/>
<path d="M10.47 7.5C11.8507 7.5 12.97 6.38071 12.97 5C12.97 3.61929 11.8507 2.5 10.47 2.5C9.08926 2.5 7.96997 3.61929 7.96997 5C7.96997 6.38071 9.08926 7.5 10.47 7.5Z" stroke="#292D32" stroke-width="1.5" stroke-linecap="round" stroke-linejoin="round"/>
<path d="M17.2999 8.69995C18.4045 8.69995 19.2999 7.80452 19.2999 6.69995C19.2999 5.59538 18.4045 4.69995 17.2999 4.69995C16.1954 4.69995 15.2999 5.59538 15.2999 6.69995C15.2999 7.80452 16.1954 8.69995 17.2999 8.69995Z" stroke="#292D32" stroke-width="1.5" stroke-linecap="round" stroke-linejoin="round"/>
<path d="M21 12.7C21.8284 12.7 22.5 12.0284 22.5 11.2C22.5 10.3715 21.8284 9.69995 21 9.69995C20.1716 9.69995 19.5 10.3715 19.5 11.2C19.5 12.0284 20.1716 12.7 21 12.7Z" stroke="#292D32" stroke-width="1.5" stroke-linecap="round" stroke-linejoin="round"/>
<path d="M3.96997 10.7C5.07454 10.7 5.96997 9.80452 5.96997 8.69995C5.96997 7.59538 5.07454 6.69995 3.96997 6.69995C2.8654 6.69995 1.96997 7.59538 1.96997 8.69995C1.96997 9.80452 2.8654 10.7 3.96997 10.7Z" stroke="#292D32" stroke-width="1.5" stroke-linecap="round" stroke-linejoin="round"/>
</svg>
