<svg width="24" height="24" viewBox="0 0 24 24" fill="none" xmlns="http://www.w3.org/2000/svg">
<path d="M21.28 15.72C20.63 15.27 19.84 15 19 15C18.06 15 17.19 15.33 16.5 15.88C15.58 16.61 15 17.74 15 19C15 19.75 15.21 20.46 15.58 21.06C15.62 21.13 15.67 21.2 15.73 21.27C16.43 22.31 17.63 23 19 23C20.01 23 20.93 22.63 21.63 22C21.94 21.74 22.21 21.42 22.42 21.06C22.79 20.46 23 19.75 23 19C23 17.64 22.32 16.44 21.28 15.72ZM20.6 20.58C20.45 20.73 20.26 20.8 20.07 20.8C19.88 20.8 19.69 20.73 19.54 20.58L19.01 20.05L18.46 20.6C18.31 20.75 18.12 20.82 17.93 20.82C17.74 20.82 17.55 20.75 17.4 20.6C17.11 20.31 17.11 19.83 17.4 19.54L17.95 18.99L17.42 18.46C17.13 18.17 17.13 17.69 17.42 17.4C17.71 17.11 18.19 17.11 18.48 17.4L19.01 17.93L19.51 17.43C19.8 17.14 20.28 17.14 20.57 17.43C20.86 17.72 20.86 18.2 20.57 18.49L20.07 18.99L20.6 19.52C20.89 19.81 20.89 20.28 20.6 20.58Z" fill="#292D32"/>
<path d="M21.8507 10.2506C21.0707 5.80065 17.2407 2.35065 12.7307 2.03065C6.6307 1.59065 1.5907 6.64065 2.0307 12.7306C2.3507 17.2406 5.8007 21.0606 10.2507 21.8406C11.4007 22.0406 12.5207 22.0406 13.5907 21.8606C13.9007 21.8106 14.0807 21.4706 13.9607 21.1906C13.6607 20.5106 13.5007 19.7606 13.5007 18.9906C13.5007 17.3006 14.2507 15.7406 15.5707 14.7006C16.5407 13.9206 17.7607 13.4906 19.0007 13.4906C19.7807 13.4906 20.5207 13.6506 21.1907 13.9506C21.4807 14.0806 21.8107 13.8906 21.8707 13.5806C22.0507 12.5206 22.0507 11.4006 21.8507 10.2506ZM14.5007 13.5706L13.3007 14.2606L12.1007 14.9506C10.6107 15.8106 9.3907 15.1106 9.3907 13.3806V12.0006V10.6106C9.3907 8.89065 10.6107 8.18065 12.1007 9.04065L13.3007 9.73065L14.5007 10.4206C15.9907 11.3006 15.9907 12.7006 14.5007 13.5706Z" fill="#292D32"/>
</svg>
