<svg width="24" height="24" viewBox="0 0 24 24" fill="none" xmlns="http://www.w3.org/2000/svg">
<path opacity="0.4" d="M12 22.0098C17.5228 22.0098 22 17.5326 22 12.0098C22 6.48692 17.5228 2.00977 12 2.00977C6.47715 2.00977 2 6.48692 2 12.0098C2 17.5326 6.47715 22.0098 12 22.0098Z" fill="#292D32"/>
<path d="M12 6.93994C9.93 6.93994 8.25 8.61994 8.25 10.6899C8.25 12.7199 9.84 14.3699 11.95 14.4299C11.98 14.4299 12.02 14.4299 12.04 14.4299C12.06 14.4299 12.09 14.4299 12.11 14.4299C12.12 14.4299 12.13 14.4299 12.13 14.4299C14.15 14.3599 15.74 12.7199 15.75 10.6899C15.75 8.61994 14.07 6.93994 12 6.93994Z" fill="#292D32"/>
<path d="M18.7807 19.3597C17.0007 20.9997 14.6207 22.0097 12.0007 22.0097C9.3807 22.0097 7.0007 20.9997 5.2207 19.3597C5.4607 18.4497 6.1107 17.6197 7.0607 16.9797C9.7907 15.1597 14.2307 15.1597 16.9407 16.9797C17.9007 17.6197 18.5407 18.4497 18.7807 19.3597Z" fill="#292D32"/>
</svg>
