<svg width="24" height="24" viewBox="0 0 24 24" fill="none" xmlns="http://www.w3.org/2000/svg">
<path d="M9.16055 11.62C9.13055 11.62 9.11055 11.62 9.08055 11.62C9.03055 11.61 8.96055 11.61 8.90055 11.62C6.00055 11.53 3.81055 9.25 3.81055 6.44C3.81055 3.58 6.14055 1.25 9.00055 1.25C11.8605 1.25 14.1905 3.58 14.1905 6.44C14.1805 9.25 11.9805 11.53 9.19055 11.62C9.18055 11.62 9.17055 11.62 9.16055 11.62ZM9.00055 2.75C6.97055 2.75 5.31055 4.41 5.31055 6.44C5.31055 8.44 6.87055 10.05 8.86055 10.12C8.92055 10.11 9.05055 10.11 9.18055 10.12C11.1405 10.03 12.6805 8.42 12.6905 6.44C12.6905 4.41 11.0305 2.75 9.00055 2.75Z" fill="#292D32"/>
<path d="M16.5404 11.75C16.5104 11.75 16.4804 11.75 16.4504 11.74C16.0404 11.78 15.6204 11.49 15.5804 11.08C15.5404 10.67 15.7904 10.3 16.2004 10.25C16.3204 10.24 16.4504 10.24 16.5604 10.24C18.0204 10.16 19.1604 8.96 19.1604 7.49C19.1604 5.97 17.9304 4.74 16.4104 4.74C16.0004 4.75 15.6604 4.41 15.6604 4C15.6604 3.59 16.0004 3.25 16.4104 3.25C18.7504 3.25 20.6604 5.16 20.6604 7.5C20.6604 9.8 18.8604 11.66 16.5704 11.75C16.5604 11.75 16.5504 11.75 16.5404 11.75Z" fill="#292D32"/>
<path d="M9.16961 22.55C7.20961 22.55 5.23961 22.05 3.74961 21.05C2.35961 20.13 1.59961 18.87 1.59961 17.5C1.59961 16.13 2.35961 14.86 3.74961 13.93C6.74961 11.94 11.6096 11.94 14.5896 13.93C15.9696 14.85 16.7396 16.11 16.7396 17.48C16.7396 18.85 15.9796 20.12 14.5896 21.05C13.0896 22.05 11.1296 22.55 9.16961 22.55ZM4.57961 15.19C3.61961 15.83 3.09961 16.65 3.09961 17.51C3.09961 18.36 3.62961 19.18 4.57961 19.81C7.06961 21.48 11.2696 21.48 13.7596 19.81C14.7196 19.17 15.2396 18.35 15.2396 17.49C15.2396 16.64 14.7096 15.82 13.7596 15.19C11.2696 13.53 7.06961 13.53 4.57961 15.19Z" fill="#292D32"/>
<path d="M18.3402 20.75C17.9902 20.75 17.6802 20.51 17.6102 20.15C17.5302 19.74 17.7902 19.35 18.1902 19.26C18.8202 19.13 19.4002 18.88 19.8502 18.53C20.4202 18.1 20.7302 17.56 20.7302 16.99C20.7302 16.42 20.4202 15.88 19.8602 15.46C19.4202 15.12 18.8702 14.88 18.2202 14.73C17.8202 14.64 17.5602 14.24 17.6502 13.83C17.7402 13.43 18.1402 13.17 18.5502 13.26C19.4102 13.45 20.1602 13.79 20.7702 14.26C21.7002 14.96 22.2302 15.95 22.2302 16.99C22.2302 18.03 21.6902 19.02 20.7602 19.73C20.1402 20.21 19.3602 20.56 18.5002 20.73C18.4402 20.75 18.3902 20.75 18.3402 20.75Z" fill="#292D32"/>
</svg>
