<svg width="24" height="24" viewBox="0 0 24 24" fill="none" xmlns="http://www.w3.org/2000/svg">
<path d="M13.63 5.86017C13.63 4.44017 14.68 3.28021 16.21 3.28021L19.42 3.28021C20.84 3.28021 22 4.44017 22 5.86017L22 11.6602" stroke="#292D32" stroke-width="1.5" stroke-linecap="round" stroke-linejoin="round"/>
<path d="M22 11.6494L16.2 11.6494C15.24 11.6494 14.48 11.1994 14.04 10.5094" stroke="#292D32" stroke-width="1.5" stroke-linecap="round" stroke-linejoin="round"/>
<path d="M22 11.6498C22 17.6998 20.87 18.6997 17.47 20.7197" stroke="#292D32" stroke-width="1.5" stroke-linecap="round" stroke-linejoin="round"/>
<path d="M10.3709 11.6494L4.57086 11.6494C3.04086 11.6494 1.99086 10.4894 1.99086 9.0694L1.99086 5.84936C1.99086 4.42936 3.04086 3.26941 4.57086 3.26941L7.80086 3.26941C9.22086 3.26941 10.3809 4.42937 10.3809 5.84937L10.3809 11.6494" stroke="#292D32" stroke-width="1.5" stroke-linecap="round" stroke-linejoin="round"/>
<path d="M10.3711 11.6498C10.3711 17.6998 9.24109 18.6997 5.84109 20.7197" stroke="#292D32" stroke-width="1.5" stroke-linecap="round" stroke-linejoin="round"/>
</svg>
