<svg width="24" height="24" viewBox="0 0 24 24" fill="none" xmlns="http://www.w3.org/2000/svg">
<path opacity="0.4" d="M12 22C17.5228 22 22 17.5228 22 12C22 6.47715 17.5228 2 12 2C6.47715 2 2 6.47715 2 12C2 17.5228 6.47715 22 12 22Z" fill="#292D32"/>
<path d="M15.8109 7.21973H14.3209C13.2309 7.21973 12.3809 8.06973 12.3809 9.15973V10.6498C12.3809 11.7398 13.2309 12.5898 14.3209 12.5898H16.2309C16.1509 14.3998 15.7309 14.6698 14.5209 15.3798C14.1609 15.5898 14.0508 16.0497 14.2608 16.4097C14.4008 16.6497 14.6509 16.7798 14.9109 16.7798C15.0409 16.7798 15.1708 16.7497 15.2908 16.6797C17.0808 15.6197 17.7509 14.9297 17.7509 11.8497V9.17975C17.7509 8.08975 16.8809 7.21973 15.8109 7.21973Z" fill="#292D32"/>
<path d="M9.67999 7.21973H8.19C7.1 7.21973 6.25 8.06973 6.25 9.15973V10.6498C6.25 11.7398 7.1 12.5898 8.19 12.5898H10.1C10.02 14.3998 9.6 14.6698 8.39 15.3798C8.03 15.5898 7.92 16.0497 8.13 16.4097C8.27 16.6497 8.52 16.7798 8.78 16.7798C8.91 16.7798 9.04 16.7497 9.16 16.6797C10.95 15.6197 11.62 14.9297 11.62 11.8497V9.17975C11.61 8.08975 10.74 7.21973 9.67999 7.21973Z" fill="#292D32"/>
</svg>
