<svg width="24" height="24" viewBox="0 0 24 24" fill="none" xmlns="http://www.w3.org/2000/svg">
<path d="M10.3702 18.1398C10.3702 19.5598 9.32022 20.7198 7.79022 20.7198H4.57025C3.15025 20.7198 1.99023 19.5598 1.99023 18.1398L1.99023 12.3398" stroke="#292D32" stroke-width="1.5" stroke-linecap="round" stroke-linejoin="round"/>
<path d="M2 12.3506H7.79999C8.75999 12.3506 9.52002 12.8006 9.96002 13.4906" stroke="#292D32" stroke-width="1.5" stroke-linecap="round" stroke-linejoin="round"/>
<path d="M2 12.3502C2 6.30022 3.13003 5.30027 6.53003 3.28027" stroke="#292D32" stroke-width="1.5" stroke-linecap="round" stroke-linejoin="round"/>
<path d="M13.6309 12.3506H19.4308C20.9608 12.3506 22.0109 13.5106 22.0109 14.9306V18.1506C22.0109 19.5706 20.9608 20.7306 19.4308 20.7306H16.2109C14.7909 20.7306 13.6309 19.5706 13.6309 18.1506V12.3506" stroke="#292D32" stroke-width="1.5" stroke-linecap="round" stroke-linejoin="round"/>
<path d="M13.6309 12.3502C13.6309 6.30022 14.7608 5.30027 18.1608 3.28027" stroke="#292D32" stroke-width="1.5" stroke-linecap="round" stroke-linejoin="round"/>
</svg>
