<svg width="24" height="24" viewBox="0 0 24 24" fill="none" xmlns="http://www.w3.org/2000/svg">
<path d="M12 22.7502C6.07 22.7502 1.25 17.9302 1.25 12.0002C1.25 10.1202 1.73999 8.27026 2.67999 6.64026C2.88999 6.28026 3.34001 6.16023 3.70001 6.36023L12.37 11.3402C12.73 11.5502 12.85 12.0002 12.65 12.3602C12.44 12.7202 11.99 12.8403 11.63 12.6403L3.63 8.05023C3.05 9.28023 2.75 10.6202 2.75 11.9902C2.75 17.0902 6.9 21.2402 12 21.2402C17.1 21.2402 21.25 17.0902 21.25 11.9902C21.25 6.89023 17.1 2.74023 12 2.74023C9.98 2.74023 8.06001 3.38024 6.45001 4.59024C6.12001 4.84024 5.64999 4.77025 5.39999 4.44025C5.14999 4.11025 5.21999 3.64026 5.54999 3.39026C7.41999 1.99026 9.65 1.24023 12 1.24023C17.93 1.24023 22.75 6.06023 22.75 11.9902C22.75 17.9202 17.93 22.7502 12 22.7502Z" fill="#292D32"/>
<path d="M12 18.75C8.28 18.75 5.25 15.72 5.25 12C5.25 10.8 5.56999 9.60999 6.17999 8.57999C6.38999 8.21999 6.84999 8.1 7.20999 8.31C7.56999 8.52 7.69001 8.98 7.48001 9.34C7.01001 10.14 6.76001 11.06 6.76001 12C6.76001 14.9 9.12001 17.25 12.01 17.25C14.9 17.25 17.26 14.9 17.26 12C17.26 9.1 14.9 6.75 12.01 6.75C11.23 6.75 10.48 6.92 9.76999 7.25C9.38999 7.42 8.94999 7.26001 8.76999 6.89001C8.58999 6.51001 8.75 6.07001 9.13 5.89001C10.03 5.47001 11 5.25 12 5.25C15.72 5.25 18.75 8.28 18.75 12C18.75 15.72 15.72 18.75 12 18.75Z" fill="#292D32"/>
</svg>
