<svg width="24" height="24" viewBox="0 0 24 24" fill="none" xmlns="http://www.w3.org/2000/svg">
<path d="M12.0011 14.3811C13.3155 14.3811 14.3811 13.3155 14.3811 12.0011C14.3811 10.6867 13.3155 9.62109 12.0011 9.62109C10.6867 9.62109 9.62109 10.6867 9.62109 12.0011C9.62109 13.3155 10.6867 14.3811 12.0011 14.3811Z" fill="#292D32"/>
<path d="M20.0003 18.7503C19.8403 18.7503 19.6903 18.7003 19.5503 18.6003C19.2203 18.3503 19.1503 17.8803 19.4003 17.5503C20.6103 15.9403 21.2503 14.0203 21.2503 12.0003C21.2503 9.98027 20.6103 8.06027 19.4003 6.45027C19.1503 6.12027 19.2203 5.65027 19.5503 5.40027C19.8803 5.15027 20.3503 5.22027 20.6003 5.55027C22.0103 7.42027 22.7503 9.65027 22.7503 12.0003C22.7503 14.3503 22.0103 16.5803 20.6003 18.4503C20.4503 18.6503 20.2303 18.7503 20.0003 18.7503Z" fill="#292D32"/>
<path d="M4 18.7503C3.77 18.7503 3.55 18.6503 3.4 18.4503C1.99 16.5803 1.25 14.3503 1.25 12.0003C1.25 9.65027 1.99 7.42027 3.4 5.55027C3.65 5.22027 4.12 5.15027 4.45 5.40027C4.78 5.65027 4.85 6.12027 4.6 6.45027C3.39 8.06027 2.75 9.98027 2.75 12.0003C2.75 14.0203 3.39 15.9403 4.6 17.5503C4.85 17.8803 4.78 18.3503 4.45 18.6003C4.32 18.7003 4.16 18.7503 4 18.7503Z" fill="#292D32"/>
<path d="M16.8011 16.3487C16.6411 16.3487 16.4911 16.2987 16.3511 16.1987C16.0211 15.9487 15.9511 15.4787 16.2011 15.1487C16.8911 14.2387 17.2511 13.1487 17.2511 11.9987C17.2511 10.8487 16.8911 9.75871 16.2011 8.84871C15.9511 8.51871 16.0211 8.04871 16.3511 7.79871C16.6811 7.54871 17.1511 7.61871 17.4011 7.94871C18.2811 9.12871 18.7511 10.5287 18.7511 11.9987C18.7511 13.4687 18.2811 14.8787 17.4011 16.0487C17.2511 16.2487 17.0311 16.3487 16.8011 16.3487Z" fill="#292D32"/>
<path d="M7.2 16.3487C6.97 16.3487 6.75 16.2487 6.6 16.0487C5.72 14.8787 5.25 13.4687 5.25 11.9987C5.25 10.5287 5.72 9.11871 6.6 7.94871C6.85 7.61871 7.32 7.54871 7.65 7.79871C7.98 8.04871 8.05 8.51871 7.8 8.84871C7.11 9.75871 6.75 10.8487 6.75 11.9987C6.75 13.1487 7.11 14.2387 7.8 15.1487C8.05 15.4787 7.98 15.9487 7.65 16.1987C7.52 16.2987 7.36 16.3487 7.2 16.3487Z" fill="#292D32"/>
</svg>
