<svg width="24" height="24" viewBox="0 0 24 24" fill="none" xmlns="http://www.w3.org/2000/svg">
<path d="M21.9707 18V19C21.9707 20.65 21.9707 22 18.9707 22H4.9707C1.9707 22 1.9707 20.65 1.9707 19V18C1.9707 17.45 2.4207 17 2.9707 17H20.9707C21.5207 17 21.9707 17.45 21.9707 18Z" fill="#292D32"/>
<path d="M14.4115 5.17977C14.4615 4.97977 14.4915 4.78977 14.5015 4.57977C14.5315 3.41977 13.8215 2.39977 12.7015 2.09977C11.0215 1.63977 9.50148 2.89977 9.50148 4.49977C9.50148 4.73977 9.53148 4.95977 9.59148 5.17977C5.98148 5.94977 3.27148 9.15977 3.27148 12.9998V14.4998C3.27148 15.0498 3.72148 15.4998 4.27148 15.4998H19.7215C20.2715 15.4998 20.7215 15.0498 20.7215 14.4998V12.9998C20.7215 9.15977 18.0215 5.95977 14.4115 5.17977ZM15.0015 11.7498H9.00148C8.59148 11.7498 8.25148 11.4098 8.25148 10.9998C8.25148 10.5898 8.59148 10.2498 9.00148 10.2498H15.0015C15.4115 10.2498 15.7515 10.5898 15.7515 10.9998C15.7515 11.4098 15.4115 11.7498 15.0015 11.7498Z" fill="#292D32"/>
</svg>
