<svg width="24" height="24" viewBox="0 0 24 24" fill="none" xmlns="http://www.w3.org/2000/svg">
<path d="M5.50977 6.5C4.95977 6.5 4.50977 6.05 4.50977 5.5C4.50977 4.95 4.94977 4.5 5.50977 4.5H5.51977C6.06977 4.5 6.51977 4.95 6.51977 5.5C6.51977 6.05 6.06977 6.5 5.50977 6.5Z" fill="#292D32"/>
<path d="M18.5098 19.5C17.9598 19.5 17.5098 19.05 17.5098 18.5C17.5098 17.95 17.9498 17.5 18.5098 17.5H18.5198C19.0698 17.5 19.5198 17.95 19.5198 18.5C19.5198 19.05 19.0698 19.5 18.5098 19.5Z" fill="#292D32"/>
<path d="M5.4707 9.75C3.1307 9.75 1.2207 7.84 1.2207 5.5C1.2207 3.16 3.1307 1.25 5.4707 1.25C7.8107 1.25 9.7207 3.16 9.7207 5.5C9.7207 7.84 7.8207 9.75 5.4707 9.75ZM5.4707 2.75C3.9507 2.75 2.7207 3.98 2.7207 5.5C2.7207 7.02 3.9507 8.25 5.4707 8.25C6.9907 8.25 8.2207 7.02 8.2207 5.5C8.2207 3.98 6.9907 2.75 5.4707 2.75Z" fill="#292D32"/>
<path d="M19.9707 22.75H16.9707C15.4507 22.75 14.2207 21.52 14.2207 20V17C14.2207 15.48 15.4507 14.25 16.9707 14.25H19.9707C21.4907 14.25 22.7207 15.48 22.7207 17V20C22.7207 21.52 21.4907 22.75 19.9707 22.75ZM16.9707 15.75C16.2807 15.75 15.7207 16.31 15.7207 17V20C15.7207 20.69 16.2807 21.25 16.9707 21.25H19.9707C20.6607 21.25 21.2207 20.69 21.2207 20V17C21.2207 16.31 20.6607 15.75 19.9707 15.75H16.9707Z" fill="#292D32"/>
<path d="M12.0014 19.75H9.32141C8.16141 19.75 7.15141 19.05 6.75141 17.97C6.34141 16.89 6.64141 15.7 7.51141 14.93L15.5014 7.94C15.9814 7.52 15.9914 6.95 15.8514 6.56C15.7014 6.17 15.3214 5.75 14.6814 5.75H12.0014C11.5914 5.75 11.2514 5.41 11.2514 5C11.2514 4.59 11.5914 4.25 12.0014 4.25H14.6814C15.8414 4.25 16.8514 4.95 17.2514 6.03C17.6614 7.11 17.3614 8.3 16.4914 9.07L8.50141 16.06C8.02141 16.48 8.01141 17.05 8.15141 17.44C8.30141 17.83 8.68141 18.25 9.32141 18.25H12.0014C12.4114 18.25 12.7514 18.59 12.7514 19C12.7514 19.41 12.4114 19.75 12.0014 19.75Z" fill="#292D32"/>
</svg>
