<svg width="24" height="24" viewBox="0 0 24 24" fill="none" xmlns="http://www.w3.org/2000/svg">
<path d="M13.1807 18.6999C12.0107 18.6999 11.0207 17.9799 10.6507 16.8699L9.95072 14.7999C9.84072 14.4399 9.56072 14.1699 9.22072 14.0599L7.14072 13.3599C6.02072 12.9799 5.30072 11.9699 5.32072 10.7899C5.34072 9.60992 6.08072 8.61994 7.21072 8.26994L14.7407 5.92992C15.6907 5.63992 16.7207 5.88994 17.4207 6.59994C18.1207 7.30994 18.3707 8.32993 18.0807 9.27993L15.7407 16.8199C15.3907 17.9499 14.4007 18.6899 13.2107 18.7099C13.2007 18.6999 13.1907 18.6999 13.1807 18.6999ZM15.5207 7.29993C15.4007 7.29993 15.2907 7.31994 15.1707 7.34994L7.63072 9.69993C7.02072 9.88993 6.80072 10.3899 6.80072 10.8099C6.79072 11.2199 7.00072 11.7399 7.60072 11.9399L9.68072 12.6299C10.4807 12.8899 11.1107 13.5199 11.3707 14.3299L12.0607 16.3899C12.2607 16.9899 12.7307 17.1799 13.1907 17.1999C13.6007 17.1999 14.1107 16.9799 14.3007 16.3699L16.6407 8.82993C16.7707 8.40993 16.6607 7.96993 16.3507 7.65993C16.1207 7.41993 15.8307 7.29993 15.5207 7.29993Z" fill="#292D32"/>
<path d="M15 22.75H9C3.57 22.75 1.25 20.43 1.25 15V9C1.25 3.57 3.57 1.25 9 1.25H15C20.43 1.25 22.75 3.57 22.75 9V15C22.75 20.43 20.43 22.75 15 22.75ZM9 2.75C4.39 2.75 2.75 4.39 2.75 9V15C2.75 19.61 4.39 21.25 9 21.25H15C19.61 21.25 21.25 19.61 21.25 15V9C21.25 4.39 19.61 2.75 15 2.75H9Z" fill="#292D32"/>
</svg>
