<svg width="24" height="24" viewBox="0 0 24 24" fill="none" xmlns="http://www.w3.org/2000/svg">
<path d="M18.4687 2H14.4688C12.976 2 11.742 3.28581 11.5085 4.75204C11.4651 5.02475 11.6926 5.25 11.9688 5.25H16.4687C16.8787 5.25 17.2187 5.59 17.2187 6C17.2187 6.41 16.8787 6.75 16.4687 6.75H11.9688C11.6926 6.75 11.4688 6.97386 11.4688 7.25V8.75C11.4688 9.02614 11.6926 9.25 11.9688 9.25H14.2787C14.6887 9.25 15.0287 9.59 15.0287 10C15.0287 10.41 14.6887 10.75 14.2787 10.75H11.9688C11.6926 10.75 11.4688 10.9739 11.4688 11.25V12.705C11.4688 12.9792 11.6896 13.2022 11.9638 13.2049L16.4687 13.25C16.8887 13.25 17.2187 13.59 17.2187 14.01C17.2087 14.42 16.8787 14.75 16.4687 14.75C16.4587 14.75 16.4587 14.75 16.4587 14.75L11.9738 14.7051C11.6957 14.7023 11.4688 14.9269 11.4688 15.205V16.75C11.4688 17.0261 11.6926 17.25 11.9687 17.25H15.3687C15.7887 17.25 16.1188 17.59 16.1188 18C16.1188 18.41 15.7887 18.75 15.3687 18.75H11.9687C11.6926 18.75 11.4651 18.9753 11.5085 19.248C11.742 20.7142 12.976 22 14.4688 22H18.4687C20.1187 22 21.4687 20.66 21.4687 19V5C21.4687 3.34 20.1187 2 18.4687 2Z" fill="#292D32"/>
<path d="M8.4393 4.95V5.75C8.4393 6.02614 8.21544 6.25 7.9393 6.25H3.0293C2.75315 6.25 2.5293 6.02614 2.5293 5.75V4.95C2.5293 3.33 3.8593 2 5.4893 2C7.1093 2 8.4393 3.33 8.4393 4.95Z" fill="#292D32"/>
<path d="M2.5293 17.91C2.5293 18.36 2.7193 19.05 2.9593 19.43L3.7693 20.79C4.7193 22.37 6.2593 22.37 7.1993 20.79L8.0193 19.43C8.2493 19.05 8.4393 18.36 8.4393 17.91V8.25C8.4393 7.97386 8.21544 7.75 7.9393 7.75H3.0293C2.75315 7.75 2.5293 7.97386 2.5293 8.25V17.91Z" fill="#292D32"/>
</svg>
