<svg width="24" height="24" viewBox="0 0 24 24" fill="none" xmlns="http://www.w3.org/2000/svg">
<path d="M21.4687 19V5C21.4687 3 20.4687 2 18.4687 2H14.4688C12.4688 2 11.4688 3 11.4688 5V19C11.4688 21 12.4688 22 14.4688 22H18.4687C20.4687 22 21.4687 21 21.4687 19Z" stroke="#292D32" stroke-width="1.5" stroke-linecap="round"/>
<path opacity="0.4" d="M11.4688 6H16.4687" stroke="#292D32" stroke-width="1.5" stroke-linecap="round"/>
<path opacity="0.4" d="M11.4688 18H15.4688" stroke="#292D32" stroke-width="1.5" stroke-linecap="round"/>
<path opacity="0.4" d="M11.4688 13.9502L16.4687 14.0002" stroke="#292D32" stroke-width="1.5" stroke-linecap="round"/>
<path opacity="0.4" d="M11.4688 10H14.4688" stroke="#292D32" stroke-width="1.5" stroke-linecap="round"/>
<path d="M5.4893 2C3.8593 2 2.5293 3.33 2.5293 4.95V17.91C2.5293 18.36 2.7193 19.04 2.9493 19.43L3.7693 20.79C4.7093 22.36 6.2593 22.36 7.1993 20.79L8.0193 19.43C8.2493 19.04 8.4393 18.36 8.4393 17.91V4.95C8.4393 3.33 7.1093 2 5.4893 2Z" stroke="#292D32" stroke-width="1.5" stroke-linecap="round"/>
<path opacity="0.4" d="M8.4393 7H2.5293" stroke="#292D32" stroke-width="1.5" stroke-linecap="round"/>
</svg>
