<svg width="24" height="24" viewBox="0 0 24 24" fill="none" xmlns="http://www.w3.org/2000/svg">
<path d="M16.96 6.17004C18.96 7.56004 20.34 9.77004 20.62 12.32" stroke="#292D32" stroke-width="1.5" stroke-linecap="round" stroke-linejoin="round"/>
<path d="M3.48999 12.37C3.74999 9.82997 5.10999 7.61997 7.08999 6.21997" stroke="#292D32" stroke-width="1.5" stroke-linecap="round" stroke-linejoin="round"/>
<path d="M8.19 20.9401C9.35 21.5301 10.67 21.8601 12.06 21.8601C13.4 21.8601 14.66 21.5601 15.79 21.0101" stroke="#292D32" stroke-width="1.5" stroke-linecap="round" stroke-linejoin="round"/>
<path d="M12.06 7.70001C13.5953 7.70001 14.84 6.45537 14.84 4.92001C14.84 3.38466 13.5953 2.14001 12.06 2.14001C10.5246 2.14001 9.27997 3.38466 9.27997 4.92001C9.27997 6.45537 10.5246 7.70001 12.06 7.70001Z" stroke="#292D32" stroke-width="1.5" stroke-linecap="round" stroke-linejoin="round"/>
<path d="M4.82999 19.92C6.36534 19.92 7.60999 18.6753 7.60999 17.14C7.60999 15.6046 6.36534 14.36 4.82999 14.36C3.29464 14.36 2.04999 15.6046 2.04999 17.14C2.04999 18.6753 3.29464 19.92 4.82999 19.92Z" stroke="#292D32" stroke-width="1.5" stroke-linecap="round" stroke-linejoin="round"/>
<path d="M19.17 19.92C20.7054 19.92 21.95 18.6753 21.95 17.14C21.95 15.6046 20.7054 14.36 19.17 14.36C17.6347 14.36 16.39 15.6046 16.39 17.14C16.39 18.6753 17.6347 19.92 19.17 19.92Z" stroke="#292D32" stroke-width="1.5" stroke-linecap="round" stroke-linejoin="round"/>
</svg>
