<svg width="24" height="24" viewBox="0 0 24 24" fill="none" xmlns="http://www.w3.org/2000/svg">
<path opacity="0.4" d="M21.3689 11.3899V17.3799C21.3689 20.1399 19.1289 22.3799 16.3689 22.3799H7.62891C4.86891 22.3799 2.62891 20.1399 2.62891 17.3799V11.4599C3.38891 12.2799 4.46891 12.7499 5.63891 12.7499C6.89891 12.7499 8.10891 12.1199 8.86891 11.1099C9.54891 12.1199 10.7089 12.7499 11.9989 12.7499C13.2789 12.7499 14.4189 12.1499 15.1089 11.1499C15.8789 12.1399 17.0689 12.7499 18.3089 12.7499C19.5189 12.7499 20.6189 12.2599 21.3689 11.3899Z" fill="#292D32"/>
<path d="M14.9894 1.25H8.98936L8.24936 8.61C8.18936 9.29 8.28936 9.93 8.53936 10.51C9.11936 11.87 10.4794 12.75 11.9994 12.75C13.5394 12.75 14.8694 11.89 15.4694 10.52C15.6494 10.09 15.7594 9.59 15.7694 9.08V8.89L14.9894 1.25Z" fill="#292D32"/>
<path opacity="0.6" d="M22.3598 8.27L22.0698 5.5C21.6498 2.48 20.2798 1.25 17.3498 1.25H13.5098L14.2498 8.75C14.2598 8.85 14.2698 8.96 14.2698 9.15C14.3298 9.67 14.4898 10.15 14.7298 10.58C15.4498 11.9 16.8498 12.75 18.3098 12.75C19.6398 12.75 20.8398 12.16 21.5898 11.12C22.1898 10.32 22.4598 9.31 22.3598 8.27Z" fill="#292D32"/>
<path opacity="0.6" d="M6.58965 1.25C3.64965 1.25 2.28965 2.48 1.85965 5.53L1.58965 8.28C1.48965 9.35 1.77965 10.39 2.40965 11.2C3.16965 12.19 4.33965 12.75 5.63965 12.75C7.09965 12.75 8.49965 11.9 9.20965 10.6C9.46965 10.15 9.63965 9.63 9.68965 9.09L10.4697 1.26H6.58965V1.25Z" fill="#292D32"/>
<path d="M11.3491 16.6602C10.0791 16.7902 9.11914 17.8702 9.11914 19.1502V22.3802H14.8691V19.5002C14.8791 17.4102 13.6491 16.4202 11.3491 16.6602Z" fill="#292D32"/>
</svg>
