<svg width="24" height="24" viewBox="0 0 24 24" fill="none" xmlns="http://www.w3.org/2000/svg">
<path d="M22.3596 8.27L22.0696 5.5C21.6496 2.48 20.2796 1.25 17.3497 1.25H14.9896H13.5097H10.4697H8.98965H6.58965C3.64965 1.25 2.28965 2.48 1.85965 5.53L1.58965 8.28C1.48965 9.35 1.77965 10.39 2.40965 11.2C3.16965 12.19 4.33965 12.75 5.63965 12.75C6.89965 12.75 8.10965 12.12 8.86965 11.11C9.54965 12.12 10.7097 12.75 11.9997 12.75C13.2896 12.75 14.4197 12.15 15.1096 11.15C15.8797 12.14 17.0696 12.75 18.3096 12.75C19.6396 12.75 20.8396 12.16 21.5896 11.12C22.1896 10.32 22.4597 9.31 22.3596 8.27Z" fill="#292D32"/>
<path d="M11.3491 16.6602C10.0791 16.7902 9.11914 17.8702 9.11914 19.1502V21.8902C9.11914 22.1602 9.33914 22.3802 9.60914 22.3802H14.3791C14.6491 22.3802 14.8691 22.1602 14.8691 21.8902V19.5002C14.8791 17.4102 13.6491 16.4202 11.3491 16.6602Z" fill="#292D32"/>
<path d="M21.3689 14.3981V17.3781C21.3689 20.1381 19.1289 22.3781 16.3689 22.3781C16.0989 22.3781 15.8789 22.1581 15.8789 21.8881V19.4981C15.8789 18.2181 15.4889 17.2181 14.7289 16.5381C14.0589 15.9281 13.1489 15.6281 12.0189 15.6281C11.7689 15.6281 11.5189 15.6381 11.2489 15.6681C9.46891 15.8481 8.11891 17.3481 8.11891 19.1481V21.8881C8.11891 22.1581 7.89891 22.3781 7.62891 22.3781C4.86891 22.3781 2.62891 20.1381 2.62891 17.3781V14.4181C2.62891 13.7181 3.31891 13.2481 3.96891 13.4781C4.23891 13.5681 4.50891 13.6381 4.78891 13.6781C4.90891 13.6981 5.03891 13.7181 5.15891 13.7181C5.31891 13.7381 5.47891 13.7481 5.63891 13.7481C6.79891 13.7481 7.93891 13.3181 8.83891 12.5781C9.69891 13.3181 10.8189 13.7481 11.9989 13.7481C13.1889 13.7481 14.2889 13.3381 15.1489 12.5981C16.0489 13.3281 17.1689 13.7481 18.3089 13.7481C18.4889 13.7481 18.6689 13.7381 18.8389 13.7181C18.9589 13.7081 19.0689 13.6981 19.1789 13.6781C19.4889 13.6381 19.7689 13.5481 20.0489 13.4581C20.6989 13.2381 21.3689 13.7181 21.3689 14.3981Z" fill="#292D32"/>
</svg>
