<svg width="24" height="24" viewBox="0 0 24 24" fill="none" xmlns="http://www.w3.org/2000/svg">
<path d="M16 12.6904V18.0804C16 20.4204 14.44 21.9704 12.11 21.9704H5.89C3.56 21.9704 2 20.4204 2 18.0804V10.3104C2 7.97041 3.56 6.42041 5.89 6.42041H9.72C10.75 6.42041 11.74 6.83041 12.47 7.56041L14.86 9.94041C15.59 10.6704 16 11.6604 16 12.6904Z" stroke="#292D32" stroke-width="1.5" stroke-linecap="round" stroke-linejoin="round"/>
<path opacity="0.4" d="M22 8.25021V13.6402C22 15.9702 20.44 17.5302 18.11 17.5302H16V12.6902C16 11.6602 15.59 10.6702 14.86 9.94021L12.47 7.56021C11.74 6.83021 10.75 6.42021 9.72 6.42021H8V5.86021C8 3.53022 9.56 1.97021 11.89 1.97021H15.72C16.75 1.97021 17.74 2.38021 18.47 3.11021L20.86 5.50021C21.59 6.23021 22 7.22021 22 8.25021Z" stroke="#292D32" stroke-width="1.5" stroke-linecap="round" stroke-linejoin="round"/>
</svg>
