<svg width="24" height="24" viewBox="0 0 24 24" fill="none" xmlns="http://www.w3.org/2000/svg">
<path d="M12 20.5H7C4 20.5 2 19 2 15.5V8.5C2 5 4 3.5 7 3.5H17C20 3.5 22 5 22 8.5V11.5" stroke="#292D32" stroke-width="1.5" stroke-miterlimit="10" stroke-linecap="round" stroke-linejoin="round"/>
<path d="M17 9L13.87 11.5C12.84 12.32 11.15 12.32 10.12 11.5L7 9" stroke="#292D32" stroke-width="1.5" stroke-miterlimit="10" stroke-linecap="round" stroke-linejoin="round"/>
<path d="M19.21 14.77L15.6701 18.31C15.5301 18.45 15.4 18.71 15.37 18.9L15.18 20.25C15.11 20.74 15.45 21.0801 15.94 21.0101L17.29 20.82C17.48 20.79 17.75 20.66 17.88 20.52L21.4201 16.9801C22.0301 16.3701 22.3201 15.6601 21.4201 14.7601C20.5301 13.8701 19.82 14.16 19.21 14.77Z" stroke="#292D32" stroke-width="1.5" stroke-miterlimit="10" stroke-linecap="round" stroke-linejoin="round"/>
<path d="M18.7001 15.28C19.0001 16.36 19.8401 17.2 20.9201 17.5" stroke="#292D32" stroke-width="1.5" stroke-miterlimit="10" stroke-linecap="round" stroke-linejoin="round"/>
</svg>
