<svg width="24" height="24" viewBox="0 0 24 24" fill="none" xmlns="http://www.w3.org/2000/svg">
<path d="M17.6601 22.6698C17.1301 22.6698 16.4501 22.4998 15.6001 21.9998L12.6101 20.2298C12.3001 20.0498 11.7001 20.0498 11.4001 20.2298L8.40012 21.9998C6.63012 23.0498 5.59012 22.6298 5.12012 22.2898C4.66012 21.9498 3.94012 21.0798 4.41012 19.0798L5.12012 16.0098C5.20012 15.6898 5.04012 15.1398 4.80012 14.8998L2.32012 12.4198C1.08012 11.1798 1.18012 10.1198 1.35012 9.59982C1.52012 9.07982 2.06012 8.15982 3.78012 7.86982L6.97012 7.33982C7.27012 7.28982 7.70012 6.96982 7.83012 6.69982L9.60012 3.16982C10.4001 1.55982 11.4501 1.31982 12.0001 1.31982C12.5501 1.31982 13.6001 1.55982 14.4001 3.16982L16.1601 6.68982C16.3001 6.95982 16.7301 7.27982 17.0301 7.32982L20.2201 7.85982C21.9501 8.14982 22.4901 9.06982 22.6501 9.58982C22.8101 10.1098 22.9101 11.1698 21.6801 12.4098L19.2001 14.8998C18.9601 15.1398 18.8101 15.6798 18.8801 16.0098L19.5901 19.0798C20.0501 21.0798 19.3401 21.9498 18.8801 22.2898C18.6301 22.4698 18.2301 22.6698 17.6601 22.6698ZM12.0001 18.5898C12.4901 18.5898 12.9801 18.7098 13.3701 18.9398L16.3601 20.7098C17.2301 21.2298 17.7801 21.2298 17.9901 21.0798C18.2001 20.9298 18.3501 20.3998 18.1301 19.4198L17.4201 16.3498C17.2301 15.5198 17.5401 14.4498 18.1401 13.8398L20.6201 11.3598C21.1101 10.8698 21.3301 10.3898 21.2301 10.0598C21.1201 9.72983 20.6601 9.45982 19.9801 9.34982L16.7901 8.81982C16.0201 8.68982 15.1801 8.06982 14.8301 7.36982L13.0701 3.84982C12.7501 3.20982 12.3501 2.82982 12.0001 2.82982C11.6501 2.82982 11.2501 3.20982 10.9401 3.84982L9.17012 7.36982C8.82012 8.06982 7.98012 8.68982 7.21012 8.81982L4.03012 9.34982C3.35012 9.45982 2.89012 9.72983 2.78012 10.0598C2.67012 10.3898 2.90012 10.8798 3.39012 11.3598L5.87012 13.8398C6.47012 14.4398 6.78012 15.5198 6.59012 16.3498L5.88012 19.4198C5.65012 20.4098 5.81012 20.9298 6.02012 21.0798C6.23012 21.2298 6.77012 21.2198 7.65012 20.7098L10.6401 18.9398C11.0201 18.7098 11.5101 18.5898 12.0001 18.5898Z" fill="#292D32"/>
</svg>
