<svg width="24" height="24" viewBox="0 0 24 24" fill="none" xmlns="http://www.w3.org/2000/svg">
<path d="M21.3192 11.9102C22.4892 10.7402 22.1092 9.56024 20.4792 9.28024L17.9292 8.86024C17.4992 8.79024 16.9892 8.41024 16.7992 8.02024L15.3892 5.20023C14.6292 3.67023 13.3792 3.67023 12.6192 5.20023L11.2092 8.02024C11.0192 8.41024 10.5092 8.78024 10.0792 8.86024L7.52922 9.28024C5.89922 9.55024 5.51922 10.7302 6.68922 11.9102L8.67921 13.9002C9.00921 14.2302 9.19921 14.8802 9.08921 15.3502L8.51921 17.8102C8.06921 19.7502 9.10923 20.5102 10.8192 19.4902L13.2092 18.0702C13.6392 17.8102 14.3592 17.8102 14.7892 18.0702L17.1792 19.4902C18.8892 20.5002 19.9292 19.7502 19.4792 17.8102L18.9092 15.3502" stroke="#292D32" stroke-width="1.5" stroke-linecap="round" stroke-linejoin="round"/>
<path d="M8 5H2" stroke="#292D32" stroke-width="1.5" stroke-linecap="round" stroke-linejoin="round"/>
<path d="M5 19H2" stroke="#292D32" stroke-width="1.5" stroke-linecap="round" stroke-linejoin="round"/>
<path d="M3 12H2" stroke="#292D32" stroke-width="1.5" stroke-linecap="round" stroke-linejoin="round"/>
</svg>
