<svg width="24" height="24" viewBox="0 0 24 24" fill="none" xmlns="http://www.w3.org/2000/svg">
<path d="M14.6694 21.6501H4.21943C3.11943 21.6501 2.14945 21.0801 1.61945 20.1201C1.08945 19.1601 1.11947 18.0301 1.69947 17.1001L4.46943 12.6701C4.68943 12.3201 4.68943 11.6701 4.46943 11.3301L1.69947 6.9001C1.11947 5.9701 1.08945 4.8401 1.61945 3.8801C2.14945 2.9201 3.12943 2.3501 4.21943 2.3501H15.6594C16.5994 2.3501 17.6894 2.9501 18.1794 3.7501L22.3594 10.4301C22.9194 11.3301 22.8694 12.7101 22.2294 13.5601L17.0494 20.4601C16.5394 21.1401 15.5194 21.6501 14.6694 21.6501ZM4.21943 3.8501C3.67943 3.8501 3.18945 4.1301 2.92945 4.6101C2.66945 5.0901 2.67943 5.6501 2.96943 6.1101L5.73945 10.5401C6.25945 11.3801 6.25945 12.6401 5.73945 13.4801L2.96943 17.9101C2.67943 18.3701 2.66945 18.9301 2.92945 19.4101C3.18945 19.8901 3.67943 20.1701 4.21943 20.1701H14.6694C15.0494 20.1701 15.6194 19.8801 15.8494 19.5801L21.0295 12.6801C21.2995 12.3201 21.3295 11.6301 21.0895 11.2501L16.9094 4.5701C16.6894 4.2101 16.0794 3.8801 15.6594 3.8801H4.21943V3.8501Z" fill="#292D32"/>
</svg>
