<svg width="24" height="24" viewBox="0 0 24 24" fill="none" xmlns="http://www.w3.org/2000/svg">
<path d="M12.0691 21.9803C10.6591 21.9803 9.23911 21.4403 8.16911 20.3703L3.63911 15.8403C2.53911 14.7403 1.95911 13.2203 2.02911 11.6703L2.26911 6.66032C2.37911 4.27032 4.26911 2.38032 6.66911 2.26032L11.6691 2.02032C13.2291 1.95032 14.7391 2.53032 15.8391 3.63032L20.3691 8.16032C22.5191 10.3103 22.5191 13.8203 20.3691 15.9703L15.9791 20.3603C14.8991 21.4403 13.4891 21.9803 12.0691 21.9803ZM4.69911 14.7703L9.22911 19.3003C10.7991 20.8703 13.3491 20.8703 14.9191 19.3003L19.3091 14.9103C20.8791 13.3403 20.8791 10.7903 19.3091 9.22032L14.7691 4.70032C13.9691 3.90032 12.8791 3.48032 11.7291 3.53032L6.72911 3.77032C5.10911 3.84032 3.83911 5.11032 3.75911 6.73032L3.51911 11.7403C3.46911 12.8603 3.89911 13.9703 4.69911 14.7703Z" fill="#292D32"/>
<path d="M9.5 12.75C7.71 12.75 6.25 11.29 6.25 9.5C6.25 7.71 7.71 6.25 9.5 6.25C11.29 6.25 12.75 7.71 12.75 9.5C12.75 11.29 11.29 12.75 9.5 12.75ZM9.5 7.75C8.54 7.75 7.75 8.54 7.75 9.5C7.75 10.46 8.54 11.25 9.5 11.25C10.46 11.25 11.25 10.46 11.25 9.5C11.25 8.54 10.46 7.75 9.5 7.75Z" fill="#292D32"/>
<path d="M12.9995 17.7504C12.8095 17.7504 12.6195 17.6804 12.4695 17.5304C12.1795 17.2404 12.1795 16.7604 12.4695 16.4704L16.4695 12.4704C16.7595 12.1804 17.2395 12.1804 17.5295 12.4704C17.8195 12.7604 17.8195 13.2404 17.5295 13.5304L13.5295 17.5304C13.3795 17.6804 13.1895 17.7504 12.9995 17.7504Z" fill="#292D32"/>
</svg>
