<svg width="24" height="24" viewBox="0 0 24 24" fill="none" xmlns="http://www.w3.org/2000/svg">
<path d="M12.0103 16.9998C11.1603 16.9998 10.3003 16.7798 9.63031 16.3498L3.61031 12.4198C2.49031 11.6898 1.82031 10.4598 1.82031 9.11979C1.82031 7.77979 2.49031 6.54979 3.61031 5.81979L9.64031 1.89979C10.9803 1.02979 13.0703 1.02979 14.4003 1.90979L20.3903 5.83979C21.5003 6.56979 22.1703 7.79979 22.1703 9.12979C22.1703 10.4598 21.5003 11.6898 20.3903 12.4198L14.4003 16.3498C13.7303 16.7898 12.8703 16.9998 12.0103 16.9998ZM12.0103 2.74979C11.4403 2.74979 10.8703 2.87979 10.4603 3.15979L4.44031 7.07979C3.74031 7.53979 3.33031 8.27979 3.33031 9.11979C3.33031 9.95979 3.73031 10.6998 4.44031 11.1598L10.4603 15.0898C11.2903 15.6298 12.7503 15.6298 13.5803 15.0898L19.5703 11.1598C20.2703 10.6998 20.6703 9.95979 20.6703 9.11979C20.6703 8.27979 20.2703 7.53979 19.5703 7.07979L13.5803 3.14979C13.1603 2.88979 12.5903 2.74979 12.0103 2.74979Z" fill="#292D32"/>
<path d="M12.0012 22.7496C11.5612 22.7496 11.1112 22.6896 10.7512 22.5696L7.56116 21.5096C6.05116 21.0096 4.86116 19.3596 4.87116 17.7696L4.88116 13.0796C4.88116 12.6696 5.22116 12.3296 5.63116 12.3296C6.04116 12.3296 6.38116 12.6696 6.38116 13.0796L6.37116 17.7696C6.37116 18.7096 7.15116 19.7896 8.04116 20.0896L11.2312 21.1496C11.6312 21.2796 12.3712 21.2796 12.7712 21.1496L15.9612 20.0896C16.8512 19.7896 17.6312 18.7096 17.6312 17.7796V13.1396C17.6312 12.7296 17.9712 12.3896 18.3812 12.3896C18.7912 12.3896 19.1312 12.7296 19.1312 13.1396V17.7796C19.1312 19.3696 17.9512 21.0096 16.4412 21.5196L13.2512 22.5796C12.8912 22.6896 12.4412 22.7496 12.0012 22.7496Z" fill="#292D32"/>
<path d="M21.4004 15.75C20.9904 15.75 20.6504 15.41 20.6504 15V9C20.6504 8.59 20.9904 8.25 21.4004 8.25C21.8104 8.25 22.1504 8.59 22.1504 9V15C22.1504 15.41 21.8104 15.75 21.4004 15.75Z" fill="#292D32"/>
</svg>
