<svg width="24" height="24" viewBox="0 0 24 24" fill="none" xmlns="http://www.w3.org/2000/svg">
<path opacity="0.4" d="M18.3495 19.68C17.7995 21.09 16.4595 22 14.9495 22H9.04949C7.52949 22 6.19949 21.09 5.64949 19.68C5.09949 18.26 5.47949 16.69 6.59949 15.67L10.6495 12H13.3595L17.3995 15.67C18.5195 16.69 18.8895 18.26 18.3495 19.68Z" fill="#292D32"/>
<path d="M13.82 18.1398H10.18C9.8 18.1398 9.5 17.8298 9.5 17.4598C9.5 17.0798 9.81 16.7798 10.18 16.7798H13.82C14.2 16.7798 14.5 17.0898 14.5 17.4598C14.5 17.8298 14.19 18.1398 13.82 18.1398Z" fill="#292D32"/>
<path d="M18.3487 4.32C17.7987 2.91 16.4587 2 14.9487 2H9.0487C7.5387 2 6.1987 2.91 5.6487 4.32C5.1087 5.74 5.4787 7.31 6.6087 8.33L10.6487 12H13.3587L17.3987 8.33C18.5187 7.31 18.8887 5.74 18.3487 4.32ZM13.8187 7.23H10.1787C9.7987 7.23 9.4987 6.92 9.4987 6.55C9.4987 6.18 9.8087 5.87 10.1787 5.87H13.8187C14.1987 5.87 14.4987 6.18 14.4987 6.55C14.4987 6.92 14.1887 7.23 13.8187 7.23Z" fill="#292D32"/>
</svg>
