<svg width="24" height="24" viewBox="0 0 24 24" fill="none" xmlns="http://www.w3.org/2000/svg">
<path d="M12.55 20.5896C11.76 20.5896 10.89 20.3096 10.02 19.7596L7.1 17.9296C6.9 17.8096 6.67 17.7396 6.44 17.7396H5C2.58 17.7396 1.25 16.4096 1.25 13.9896V9.98962C1.25 7.56962 2.58 6.23962 5 6.23962H6.43C6.66 6.23962 6.89 6.16962 7.09 6.04962L10.01 4.21962C11.47 3.30962 12.89 3.13962 14.01 3.75962C15.13 4.37962 15.74 5.66962 15.74 7.39962V16.5696C15.74 18.2896 15.12 19.5896 14.01 20.2096C13.57 20.4696 13.07 20.5896 12.55 20.5896ZM5 7.74962C3.42 7.74962 2.75 8.41962 2.75 9.99962V13.9996C2.75 15.5796 3.42 16.2496 5 16.2496H6.43C6.95 16.2496 7.45 16.3896 7.89 16.6696L10.81 18.4996C11.77 19.0996 12.68 19.2596 13.29 18.9196C13.9 18.5796 14.25 17.7296 14.25 16.5996V7.40962C14.25 6.26962 13.9 5.41962 13.29 5.08962C12.68 4.74962 11.77 4.89962 10.81 5.50962L7.88 7.32962C7.45 7.60962 6.94 7.74962 6.43 7.74962H5Z" fill="#292D32"/>
<path d="M18.0003 16.7493C17.8403 16.7493 17.6903 16.6993 17.5503 16.5993C17.2203 16.3493 17.1503 15.8793 17.4003 15.5493C18.9703 13.4593 18.9703 10.5393 17.4003 8.4493C17.1503 8.1193 17.2203 7.6493 17.5503 7.3993C17.8803 7.1493 18.3503 7.2193 18.6003 7.5493C20.5603 10.1693 20.5603 13.8293 18.6003 16.4493C18.4503 16.6493 18.2303 16.7493 18.0003 16.7493Z" fill="#292D32"/>
<path d="M19.8304 19.2493C19.6704 19.2493 19.5204 19.1993 19.3804 19.0993C19.0504 18.8493 18.9804 18.3793 19.2304 18.0493C21.9004 14.4893 21.9004 9.5093 19.2304 5.9493C18.9804 5.6193 19.0504 5.1493 19.3804 4.8993C19.7104 4.6493 20.1804 4.7193 20.4304 5.0493C23.5004 9.1393 23.5004 14.8593 20.4304 18.9493C20.2904 19.1493 20.0604 19.2493 19.8304 19.2493Z" fill="#292D32"/>
</svg>
