<svg width="24" height="24" viewBox="0 0 24 24" fill="none" xmlns="http://www.w3.org/2000/svg">
<path d="M13.8801 20.5896C13.0901 20.5896 12.2201 20.3096 11.3501 19.7596L8.43008 17.9296C8.23008 17.8096 8.00008 17.7396 7.77008 17.7396H6.33008C3.91008 17.7396 2.58008 16.4096 2.58008 13.9896V9.98962C2.58008 7.56962 3.91008 6.23962 6.33008 6.23962H7.76008C7.99008 6.23962 8.22008 6.16962 8.42008 6.04962L11.3401 4.21962C12.8001 3.30962 14.2201 3.13962 15.3401 3.75962C16.4601 4.37962 17.0701 5.66962 17.0701 7.39962V16.5696C17.0701 18.2896 16.4501 19.5896 15.3401 20.2096C14.9001 20.4696 14.4101 20.5896 13.8801 20.5896ZM6.33008 7.74962C4.75008 7.74962 4.08008 8.41962 4.08008 9.99962V13.9996C4.08008 15.5796 4.75008 16.2496 6.33008 16.2496H7.76008C8.28008 16.2496 8.78008 16.3896 9.22008 16.6696L12.1401 18.4996C13.1101 19.0996 14.0101 19.2596 14.6201 18.9196C15.2301 18.5796 15.5801 17.7296 15.5801 16.5996V7.40962C15.5801 6.26962 15.2301 5.41962 14.6201 5.08962C14.0101 4.74962 13.1101 4.89962 12.1401 5.50962L9.22008 7.32962C8.78008 7.60962 8.28008 7.74962 7.76008 7.74962H6.33008Z" fill="#292D32"/>
<path d="M19.3304 16.7493C19.1704 16.7493 19.0204 16.6993 18.8804 16.5993C18.5504 16.3493 18.4804 15.8793 18.7304 15.5493C20.3004 13.4593 20.3004 10.5393 18.7304 8.4493C18.4804 8.1193 18.5504 7.6493 18.8804 7.3993C19.2104 7.1493 19.6804 7.2193 19.9304 7.5493C21.9004 10.1693 21.9004 13.8293 19.9304 16.4493C19.7904 16.6493 19.5604 16.7493 19.3304 16.7493Z" fill="#292D32"/>
</svg>
