<svg width="24" height="24" viewBox="0 0 24 24" fill="none" xmlns="http://www.w3.org/2000/svg">
<path d="M7 17.7504H5C2.58 17.7504 1.25 16.4204 1.25 14.0004V10.0004C1.25 7.58036 2.58 6.25036 5 6.25036H6.43C6.66 6.25036 6.89 6.18036 7.09 6.06036L10.01 4.23036C11.47 3.32036 12.89 3.15036 14.01 3.77036C15.13 4.39036 15.74 5.68036 15.74 7.41036V8.37036C15.74 8.78036 15.4 9.12036 14.99 9.12036C14.58 9.12036 14.24 8.78036 14.24 8.37036V7.41036C14.24 6.27036 13.89 5.42036 13.28 5.09036C12.67 4.75036 11.77 4.90036 10.8 5.51036L7.88 7.33036C7.45 7.61036 6.94 7.75036 6.43 7.75036H5C3.42 7.75036 2.75 8.42036 2.75 10.0004V14.0004C2.75 15.5804 3.42 16.2504 5 16.2504H7C7.41 16.2504 7.75 16.5904 7.75 17.0004C7.75 17.4104 7.41 17.7504 7 17.7504Z" fill="#292D32"/>
<path d="M12.5496 20.5902C11.7596 20.5902 10.8896 20.3102 10.0196 19.7602C9.6696 19.5402 9.5596 19.0802 9.7796 18.7302C9.9996 18.3802 10.4596 18.2702 10.8096 18.4902C11.7796 19.0902 12.6796 19.2502 13.2896 18.9102C13.8996 18.5702 14.2496 17.7202 14.2496 16.5902V12.9502C14.2496 12.5402 14.5896 12.2002 14.9996 12.2002C15.4096 12.2002 15.7496 12.5402 15.7496 12.9502V16.5902C15.7496 18.3102 15.1296 19.6102 14.0196 20.2302C13.5696 20.4702 13.0696 20.5902 12.5496 20.5902Z" fill="#292D32"/>
<path d="M18.0003 16.7503C17.8403 16.7503 17.6903 16.7003 17.5503 16.6003C17.2203 16.3503 17.1503 15.8803 17.4003 15.5503C18.6603 13.8703 18.9303 11.6403 18.1203 9.71032C17.9603 9.33032 18.1403 8.89032 18.5203 8.73032C18.9003 8.57032 19.3403 8.75032 19.5003 9.13032C20.5203 11.5503 20.1703 14.3603 18.6003 16.4603C18.4503 16.6503 18.2303 16.7503 18.0003 16.7503Z" fill="#292D32"/>
<path d="M19.8304 19.2502C19.6704 19.2502 19.5204 19.2002 19.3804 19.1002C19.0504 18.8502 18.9804 18.3802 19.2304 18.0502C21.3704 15.2002 21.8404 11.3802 20.4604 8.0902C20.3004 7.7102 20.4804 7.2702 20.8604 7.1102C21.2504 6.9502 21.6804 7.1302 21.8404 7.5102C23.4304 11.2902 22.8904 15.6702 20.4304 18.9502C20.2904 19.1502 20.0604 19.2502 19.8304 19.2502Z" fill="#292D32"/>
<path d="M1.99945 22.7504C1.80945 22.7504 1.61945 22.6804 1.46945 22.5304C1.17945 22.2404 1.17945 21.7604 1.46945 21.4704L21.4695 1.47043C21.7595 1.18043 22.2395 1.18043 22.5295 1.47043C22.8195 1.76043 22.8195 2.24043 22.5295 2.53043L2.52945 22.5304C2.37945 22.6804 2.18945 22.7504 1.99945 22.7504Z" fill="#292D32"/>
</svg>
