<svg width="24" height="24" viewBox="0 0 24 24" fill="none" xmlns="http://www.w3.org/2000/svg">
<path d="M20.97 16.08C20.73 18.75 18.8 20.5 16 20.5H7C4.24 20.5 2 18.26 2 15.5V8.5C2 5.78 3.64 3.88 6.19 3.56C6.45 3.52 6.72 3.5 7 3.5H16C16.26 3.5 16.51 3.51 16.75 3.55C19.14 3.83 20.76 5.5 20.97 7.92C21 8.21 20.76 8.45 20.47 8.45H18.92C17.96 8.45 17.07 8.82 16.43 9.48C15.67 10.22 15.29 11.26 15.38 12.3C15.54 14.12 17.14 15.55 19.04 15.55H20.47C20.76 15.55 21 15.79 20.97 16.08Z" fill="#292D32"/>
<path d="M22.0002 10.9692V13.0292C22.0002 13.5792 21.5602 14.0292 21.0002 14.0492H19.0402C17.9602 14.0492 16.9702 13.2592 16.8802 12.1792C16.8202 11.5492 17.0602 10.9592 17.4802 10.5492C17.8502 10.1692 18.3602 9.94922 18.9202 9.94922H21.0002C21.5602 9.96922 22.0002 10.4192 22.0002 10.9692Z" fill="#292D32"/>
</svg>
