<svg width="24" height="24" viewBox="0 0 24 24" fill="none" xmlns="http://www.w3.org/2000/svg">
<path d="M11.9392 2.21178L9.52922 7.82178H7.11922C6.71922 7.82178 6.32922 7.85178 5.94922 7.93178L6.94922 5.53178L6.98922 5.44178L7.04922 5.28178C7.07922 5.21178 7.09922 5.15178 7.12922 5.10178C8.28922 2.41178 9.58922 1.57178 11.9392 2.21178Z" fill="#292D32"/>
<path d="M18.7272 8.09344L18.7072 8.08344C18.1072 7.91344 17.4972 7.82344 16.8772 7.82344H10.6172L12.8672 2.59344L12.8972 2.52344C13.0372 2.57344 13.1872 2.64344 13.3372 2.69344L15.5472 3.62344C16.7772 4.13344 17.6372 4.66344 18.1672 5.30344C18.2572 5.42344 18.3372 5.53344 18.4172 5.66344C18.5072 5.80344 18.5772 5.94344 18.6172 6.09344C18.6572 6.18344 18.6872 6.26344 18.7072 6.35344C18.8572 6.86344 18.8672 7.44344 18.7272 8.09344Z" fill="#292D32"/>
<path d="M18.2883 9.52031C17.8383 9.39031 17.3683 9.32031 16.8783 9.32031H7.11828C6.43828 9.32031 5.79828 9.45031 5.19828 9.71031C3.45828 10.4603 2.23828 12.1903 2.23828 14.2003V16.1503C2.23828 16.3903 2.25828 16.6203 2.28828 16.8603C2.50828 20.0403 4.20828 21.7403 7.38828 21.9503C7.61828 21.9803 7.84828 22.0003 8.09828 22.0003H15.8983C19.5983 22.0003 21.5483 20.2403 21.7383 16.7403C21.7483 16.5503 21.7583 16.3503 21.7583 16.1503V14.2003C21.7583 11.9903 20.2883 10.1303 18.2883 9.52031ZM14.4983 16.1903H12.7483V18.0003C12.7483 18.4103 12.4083 18.7503 11.9983 18.7503C11.5883 18.7503 11.2483 18.4103 11.2483 18.0003V16.1903H9.49828C9.08828 16.1903 8.74828 15.8603 8.74828 15.4403C8.74828 15.0303 9.08828 14.6903 9.49828 14.6903H11.2483V13.0003C11.2483 12.5903 11.5883 12.2503 11.9983 12.2503C12.4083 12.2503 12.7483 12.5903 12.7483 13.0003V14.6903H14.4983C14.9083 14.6903 15.2483 15.0303 15.2483 15.4403C15.2483 15.8603 14.9083 16.1903 14.4983 16.1903Z" fill="#292D32"/>
</svg>
