<svg width="24" height="24" viewBox="0 0 24 24" fill="none" xmlns="http://www.w3.org/2000/svg">
<path d="M11.9392 2.21178L9.52922 7.82178H7.11922C6.71922 7.82178 6.32922 7.85178 5.94922 7.93178L6.94922 5.53178L6.98922 5.44178L7.04922 5.28178C7.07922 5.21178 7.09922 5.15178 7.12922 5.10178C8.28922 2.41178 9.58922 1.57178 11.9392 2.21178Z" fill="#292D32"/>
<path d="M18.7272 8.09344L18.7072 8.08344C18.1072 7.91344 17.4972 7.82344 16.8772 7.82344H10.6172L12.8672 2.59344L12.8972 2.52344C13.0372 2.57344 13.1872 2.64344 13.3372 2.69344L15.5472 3.62344C16.7772 4.13344 17.6372 4.66344 18.1672 5.30344C18.2572 5.42344 18.3372 5.53344 18.4172 5.66344C18.5072 5.80344 18.5772 5.94344 18.6172 6.09344C18.6572 6.18344 18.6872 6.26344 18.7072 6.35344C18.8572 6.86344 18.8672 7.44344 18.7272 8.09344Z" fill="#292D32"/>
<path d="M12.5195 17.662H12.7695C13.0695 17.662 13.3195 17.392 13.3195 17.062C13.3195 16.642 13.1995 16.582 12.9395 16.482L12.5195 16.332V17.662Z" fill="#292D32"/>
<path d="M18.2883 9.52031C17.8383 9.39031 17.3683 9.32031 16.8783 9.32031H7.11828C6.43828 9.32031 5.79828 9.45031 5.19828 9.71031C3.45828 10.4603 2.23828 12.1903 2.23828 14.2003V16.1503C2.23828 16.3903 2.25828 16.6203 2.28828 16.8603C2.50828 20.0403 4.20828 21.7403 7.38828 21.9503C7.61828 21.9803 7.84828 22.0003 8.09828 22.0003H15.8983C19.5983 22.0003 21.5483 20.2403 21.7383 16.7403C21.7483 16.5503 21.7583 16.3503 21.7583 16.1503V14.2003C21.7583 11.9903 20.2883 10.1303 18.2883 9.52031ZM13.2783 15.5003C13.7383 15.6603 14.3583 16.0003 14.3583 17.0603C14.3583 17.9703 13.6483 18.7003 12.7683 18.7003H12.5183V18.9203C12.5183 19.2103 12.2883 19.4403 11.9983 19.4403C11.7083 19.4403 11.4783 19.2103 11.4783 18.9203V18.7003H11.3883C10.4283 18.7003 9.63828 17.8903 9.63828 16.8903C9.63828 16.6003 9.86828 16.3703 10.1583 16.3703C10.4483 16.3703 10.6783 16.6003 10.6783 16.8903C10.6783 17.3103 10.9983 17.6603 11.3883 17.6603H11.4783V15.9703L10.7183 15.7003C10.2583 15.5403 9.63828 15.2003 9.63828 14.1403C9.63828 13.2303 10.3483 12.5003 11.2283 12.5003H11.4783V12.2803C11.4783 11.9903 11.7083 11.7603 11.9983 11.7603C12.2883 11.7603 12.5183 11.9903 12.5183 12.2803V12.5003H12.6083C13.5683 12.5003 14.3583 13.3103 14.3583 14.3103C14.3583 14.6003 14.1283 14.8303 13.8383 14.8303C13.5483 14.8303 13.3183 14.6003 13.3183 14.3103C13.3183 13.8903 12.9983 13.5403 12.6083 13.5403H12.5183V15.2303L13.2783 15.5003Z" fill="#292D32"/>
<path d="M10.6797 14.143C10.6797 14.563 10.7997 14.623 11.0597 14.723L11.4797 14.873V13.543H11.2297C10.9197 13.543 10.6797 13.813 10.6797 14.143Z" fill="#292D32"/>
</svg>
