<svg width="24" height="24" viewBox="0 0 24 24" fill="none" xmlns="http://www.w3.org/2000/svg">
<path opacity="0.4" d="M8 22H16C19 22 21 20 21 17V7C21 4 19 2 16 2H8C5 2 3 4 3 7V17C3 20 5 22 8 22Z" fill="#292D32"/>
<path d="M17.5 8.00021C14.37 5.21021 9.63998 5.21021 6.49998 8.00021C6.35998 8.13021 6.32998 8.33021 6.42998 8.48021L8.60998 11.9802C8.66998 12.0702 8.76998 12.1402 8.86998 12.1502C8.97998 12.1702 9.08998 12.1302 9.16998 12.0602C10.78 10.6302 13.2 10.6302 14.81 12.0602C14.88 12.1202 14.97 12.1502 15.06 12.1502C15.08 12.1502 15.1 12.1502 15.11 12.1502C15.22 12.1302 15.32 12.0702 15.37 11.9802L17.55 8.48021C17.67 8.33021 17.64 8.13021 17.5 8.00021Z" fill="#292D32"/>
</svg>
