<svg width="24" height="24" viewBox="0 0 24 24" fill="none" xmlns="http://www.w3.org/2000/svg">
<path d="M12 22.75C6.07 22.75 1.25 17.93 1.25 12C1.25 6.07 6.07 1.25 12 1.25C17.93 1.25 22.75 6.07 22.75 12C22.75 17.93 17.93 22.75 12 22.75ZM12 2.75C6.9 2.75 2.75 6.9 2.75 12C2.75 17.1 6.9 21.25 12 21.25C17.1 21.25 21.25 17.1 21.25 12C21.25 6.9 17.1 2.75 12 2.75Z" fill="#292D32"/>
<path d="M12 13.75C11.59 13.75 11.25 13.41 11.25 13V8C11.25 7.59 11.59 7.25 12 7.25C12.41 7.25 12.75 7.59 12.75 8V13C12.75 13.41 12.41 13.75 12 13.75Z" fill="#292D32"/>
<path d="M12 16.9989C11.87 16.9989 11.74 16.9689 11.62 16.9189C11.5 16.8689 11.39 16.7989 11.29 16.7089C11.2 16.6089 11.13 16.5089 11.08 16.3789C11.03 16.2589 11 16.1289 11 15.9989C11 15.8689 11.03 15.7389 11.08 15.6189C11.13 15.4989 11.2 15.3889 11.29 15.2889C11.39 15.1989 11.5 15.1289 11.62 15.0789C11.86 14.9789 12.14 14.9789 12.38 15.0789C12.5 15.1289 12.61 15.1989 12.71 15.2889C12.8 15.3889 12.87 15.4989 12.92 15.6189C12.97 15.7389 13 15.8689 13 15.9989C13 16.1289 12.97 16.2589 12.92 16.3789C12.87 16.5089 12.8 16.6089 12.71 16.7089C12.61 16.7989 12.5 16.8689 12.38 16.9189C12.26 16.9689 12.13 16.9989 12 16.9989Z" fill="#292D32"/>
</svg>
