<svg width="24" height="24" viewBox="0 0 24 24" fill="none" xmlns="http://www.w3.org/2000/svg">
<path d="M9.9898 22.5515C9.9398 22.5515 9.8898 22.5515 9.8398 22.5315C6.0098 21.7515 2.8998 18.9315 1.7398 15.1915C1.6198 14.7915 1.8398 14.3715 2.2298 14.2515C2.6298 14.1315 3.0498 14.3515 3.1698 14.7415C4.1698 17.9615 6.8398 20.3815 10.1398 21.0515C10.5498 21.1315 10.8098 21.5315 10.7198 21.9415C10.6498 22.3015 10.3298 22.5515 9.9898 22.5515Z" fill="#292D32"/>
<path d="M21.9502 11.73C21.5702 11.73 21.2402 11.44 21.2002 11.06C20.7202 6.32 16.7602 2.75 12.0002 2.75C7.23022 2.75 3.28022 6.32 2.80022 11.05C2.76022 11.46 2.40022 11.77 1.98022 11.72C1.57022 11.68 1.27022 11.31 1.31022 10.9C1.87022 5.4 6.47022 1.25 12.0002 1.25C17.5402 1.25 22.1402 5.4 22.6902 10.9C22.7302 11.31 22.4302 11.68 22.0202 11.72C22.0002 11.73 21.9702 11.73 21.9502 11.73Z" fill="#292D32"/>
<path d="M14.0101 22.5508C13.6601 22.5508 13.3501 22.3108 13.2801 21.9508C13.2001 21.5408 13.4601 21.1508 13.8601 21.0708C17.1401 20.4008 19.8101 18.0008 20.8201 14.8008C20.9401 14.4008 21.3701 14.1808 21.7601 14.3108C22.1601 14.4308 22.3701 14.8608 22.2501 15.2508C21.0701 18.9708 17.9701 21.7608 14.1601 22.5408C14.1101 22.5408 14.0601 22.5508 14.0101 22.5508Z" fill="#292D32"/>
</svg>
