<svg width="24" height="24" viewBox="0 0 24 24" fill="none" xmlns="http://www.w3.org/2000/svg">
<path d="M16.1703 10.8098H7.83022C6.97022 10.8098 6.31025 10.4698 6.01025 9.88985C5.71025 9.29985 5.83022 8.56984 6.33022 7.87984L10.5002 2.03985C11.2402 0.979847 12.7702 0.979849 13.5202 2.04985L17.6902 7.87984C18.1902 8.56984 18.3102 9.29985 18.0102 9.88985C17.6902 10.4698 17.0303 10.8098 16.1703 10.8098ZM12.0002 2.69984C11.9102 2.69984 11.8102 2.77985 11.7202 2.89985L7.55023 8.74985C7.35023 9.01985 7.34024 9.17985 7.35024 9.20985C7.36024 9.22985 7.50023 9.30984 7.84023 9.30984H16.1802C16.5102 9.30984 16.6503 9.21984 16.6703 9.19984C16.6703 9.17984 16.6602 9.01985 16.4702 8.74985L12.3002 2.90985C12.1902 2.76985 12.0902 2.69984 12.0002 2.69984Z" fill="#292D32"/>
<path d="M17.5897 18.7486H6.41968C4.98968 18.7486 4.41966 18.0586 4.20966 17.6486C3.99966 17.2386 3.77966 16.3786 4.61966 15.2186L8.60965 9.6186C8.74965 9.4186 8.97967 9.30859 9.21967 9.30859H14.7897C15.0297 9.30859 15.2597 9.4286 15.3997 9.6186L19.3897 15.2286C20.2297 16.3786 19.9997 17.2386 19.7897 17.6486C19.5797 18.0586 19.0197 18.7486 17.5897 18.7486ZM9.59967 10.8086L5.82965 16.0986C5.50965 16.5386 5.47967 16.8386 5.53967 16.9686C5.60967 17.0986 5.86967 17.2486 6.40967 17.2486H17.5797C18.1197 17.2486 18.3897 17.0986 18.4497 16.9686C18.5197 16.8386 18.4797 16.5386 18.1597 16.0986L14.3897 10.7986H9.59967V10.8086Z" fill="#292D32"/>
<path d="M12 22.75C11.59 22.75 11.25 22.41 11.25 22V18C11.25 17.59 11.59 17.25 12 17.25C12.41 17.25 12.75 17.59 12.75 18V22C12.75 22.41 12.41 22.75 12 22.75Z" fill="#292D32"/>
</svg>
