<svg width="24" height="24" viewBox="0 0 24 24" fill="none" xmlns="http://www.w3.org/2000/svg">
<path d="M13.0296 1.99829H8.95956C8.55956 1.99829 8.17953 2.1383 7.86953 2.3783L5.67953 4.1283C4.79953 4.8283 4.79953 6.15828 5.67953 6.85828L7.86953 8.60828C8.17953 8.85828 8.56956 8.98828 8.95956 8.98828H17.2195C18.1895 8.98828 18.9695 8.20828 18.9695 7.23828V3.73828C18.9695 2.76828 18.1895 1.98828 17.2195 1.98828" stroke="#292D32" stroke-width="1.5" stroke-linecap="round" stroke-linejoin="round"/>
<path d="M6.80078 12H15.0608C15.4608 12 15.8408 12.14 16.1508 12.38L18.3408 14.13C19.2208 14.83 19.2208 16.16 18.3408 16.86L16.1508 18.61C15.8408 18.86 15.4508 18.99 15.0608 18.99H6.80078C5.83078 18.99 5.05078 18.21 5.05078 17.24V13.74C5.05078 12.78 5.83078 12 6.80078 12Z" stroke="#292D32" stroke-width="1.5" stroke-linecap="round" stroke-linejoin="round"/>
<path d="M12 12V9" stroke="#292D32" stroke-width="1.5" stroke-linecap="round" stroke-linejoin="round"/>
<path d="M12 22V19" stroke="#292D32" stroke-width="1.5" stroke-linecap="round" stroke-linejoin="round"/>
<path d="M9 22H15" stroke="#292D32" stroke-width="1.5" stroke-linecap="round" stroke-linejoin="round"/>
</svg>
