<svg width="24" height="24" viewBox="0 0 24 24" fill="none" xmlns="http://www.w3.org/2000/svg">
<path d="M2 12.97V15C2 20 4 22 9 22H15C20 22 22 20 22 15V9C22 4 20 2 15 2H9C4 2 2 4 2 9" stroke="#292D32" stroke-width="1.5" stroke-linecap="round" stroke-linejoin="round"/>
<path d="M16.2792 13.6106C15.1492 14.7406 13.5292 15.0906 12.0992 14.6406L9.50922 17.2206C9.32922 17.4106 8.95922 17.5306 8.68922 17.4906L7.48922 17.3306C7.08922 17.2806 6.72922 16.9006 6.66922 16.5106L6.50922 15.3106C6.46922 15.0506 6.59922 14.6806 6.77922 14.4906L9.35922 11.9106C8.91922 10.4806 9.25922 8.86063 10.3892 7.73063C12.0092 6.11063 14.6492 6.11063 16.2792 7.73063C17.8992 9.34063 17.8992 11.9806 16.2792 13.6106Z" stroke="#292D32" stroke-width="1.5" stroke-miterlimit="10" stroke-linecap="round" stroke-linejoin="round"/>
<path d="M10.4496 16.2819L9.59961 15.4219" stroke="#292D32" stroke-width="1.5" stroke-miterlimit="10" stroke-linecap="round" stroke-linejoin="round"/>
<path d="M13.3949 10.6992H13.4039" stroke="#292D32" stroke-width="2" stroke-linecap="round" stroke-linejoin="round"/>
</svg>
