<svg width="24" height="24" viewBox="0 0 24 24" fill="none" xmlns="http://www.w3.org/2000/svg">
<path d="M12 10C10.9 10 10 10.9 10 12C10 13.1 10.9 14 12 14C13.1 14 14 13.1 14 12" stroke="#292D32" stroke-width="1.5" stroke-linecap="round" stroke-linejoin="round"/>
<path d="M20 18C21.26 16.33 22 14.25 22 12C22 9.75 21.26 7.67 20 6" stroke="#292D32" stroke-width="1.5" stroke-linecap="round" stroke-linejoin="round"/>
<path d="M4 17.9989C2.74 16.3289 2 14.2489 2 11.9989C2 11.7889 2.00999 11.5789 2.01999 11.3789" stroke="#292D32" stroke-width="1.5" stroke-linecap="round" stroke-linejoin="round"/>
<path d="M4 6C3.62 6.51 3.28 7.06001 3 7.64001" stroke="#292D32" stroke-width="1.5" stroke-linecap="round" stroke-linejoin="round"/>
<path d="M16.8008 15.5984C17.5508 14.5984 18.0008 13.3484 18.0008 11.9984C18.0008 10.6484 17.5508 9.39844 16.8008 8.39844" stroke="#292D32" stroke-width="1.5" stroke-linecap="round" stroke-linejoin="round"/>
<path d="M7.20001 8.39844C6.45001 9.39844 6 10.6484 6 11.9984C6 13.3484 6.45001 14.5984 7.20001 15.5984" stroke="#292D32" stroke-width="1.5" stroke-linecap="round" stroke-linejoin="round"/>
</svg>
