<svg width="24" height="24" viewBox="0 0 24 24" fill="none" xmlns="http://www.w3.org/2000/svg">
<path d="M10.4319 2.42C11.4019 1.86 12.6019 1.86 13.5819 2.42L19.5219 5.84999C20.4919 6.40999 21.0919 7.45003 21.0919 8.58003V15.42C21.0919 16.54 20.4919 17.58 19.5219 18.15L13.5819 21.58C12.6119 22.14 11.4119 22.14 10.4319 21.58L4.49187 18.15C3.52187 17.59 2.92188 16.55 2.92188 15.42V8.58003C2.92188 7.46003 3.52187 6.41999 4.49187 5.84999L6.39187 4.75002" stroke="#292D32" stroke-width="1.5" stroke-linecap="round" stroke-linejoin="round"/>
<path d="M12.0019 10.9998C13.2887 10.9998 14.3319 9.95662 14.3319 8.6698C14.3319 7.38298 13.2887 6.33984 12.0019 6.33984C10.7151 6.33984 9.67188 7.38298 9.67188 8.6698C9.67188 9.95662 10.7151 10.9998 12.0019 10.9998Z" stroke="#292D32" stroke-width="1.5" stroke-linecap="round" stroke-linejoin="round"/>
<path d="M16 16.6584C16 14.8584 14.21 13.3984 12 13.3984C9.79 13.3984 8 14.8584 8 16.6584" stroke="#292D32" stroke-width="1.5" stroke-linecap="round" stroke-linejoin="round"/>
</svg>
