<svg width="24" height="24" viewBox="0 0 24 24" fill="none" xmlns="http://www.w3.org/2000/svg">
<path opacity="0.4" d="M16.2391 3.64844H7.75906C5.28906 3.64844 3.28906 5.65844 3.28906 8.11844V17.5284C3.28906 19.9884 5.29906 21.9984 7.75906 21.9984H16.2291C18.6991 21.9984 20.6991 19.9884 20.6991 17.5284V8.11844C20.7091 5.64844 18.6991 3.64844 16.2391 3.64844Z" fill="#292D32"/>
<path d="M14.3498 2H9.64977C8.60977 2 7.75977 2.84 7.75977 3.88V4.82C7.75977 5.86 8.59977 6.7 9.63977 6.7H14.3498C15.3898 6.7 16.2298 5.86 16.2298 4.82V3.88C16.2398 2.84 15.3898 2 14.3498 2Z" fill="#292D32"/>
<path d="M10.81 16.9506C10.62 16.9506 10.43 16.8806 10.28 16.7306L8.78 15.2306C8.49 14.9406 8.49 14.4606 8.78 14.1706C9.07 13.8806 9.55 13.8806 9.84 14.1706L10.81 15.1406L14.28 11.6706C14.57 11.3806 15.05 11.3806 15.34 11.6706C15.63 11.9606 15.63 12.4406 15.34 12.7306L11.34 16.7306C11.2 16.8806 11 16.9506 10.81 16.9506Z" fill="#292D32"/>
</svg>
