<svg width="24" height="24" viewBox="0 0 24 24" fill="none" xmlns="http://www.w3.org/2000/svg">
<path d="M16.0004 10.7499C15.8104 10.7499 15.6204 10.6799 15.4704 10.5299L12.0004 7.05994L8.53043 10.5299C8.24043 10.8199 7.76043 10.8199 7.47043 10.5299L5.47043 8.52994C5.18043 8.23994 5.18043 7.75994 5.47043 7.46994L11.4704 1.46994C11.7604 1.17994 12.2404 1.17994 12.5304 1.46994L18.5304 7.46994C18.8204 7.75994 18.8204 8.23994 18.5304 8.52994L16.5304 10.5299C16.3804 10.6799 16.1904 10.7499 16.0004 10.7499ZM12.0004 5.24994C12.1904 5.24994 12.3804 5.31994 12.5304 5.46994L16.0004 8.93994L16.9404 7.99994L12.0004 3.05994L7.06043 7.99994L8.00043 8.93994L11.4704 5.46994C11.6204 5.31994 11.8104 5.24994 12.0004 5.24994Z" fill="black"/>
<path d="M12.0004 22.7499C11.8104 22.7499 11.6204 22.6799 11.4704 22.5299L5.47043 16.5299C5.18043 16.2399 5.18043 15.7599 5.47043 15.4699L7.47043 13.4699C7.76043 13.1799 8.24043 13.1799 8.53043 13.4699L12.0004 16.9399L15.4704 13.4699C15.7604 13.1799 16.2404 13.1799 16.5304 13.4699L18.5304 15.4699C18.8204 15.7599 18.8204 16.2399 18.5304 16.5299L12.5304 22.5299C12.3804 22.6799 12.1904 22.7499 12.0004 22.7499ZM7.06043 15.9999L12.0004 20.9399L16.9404 15.9999L16.0004 15.0599L12.5304 18.5299C12.2404 18.8199 11.7604 18.8199 11.4704 18.5299L8.00043 15.0599L7.06043 15.9999Z" fill="black"/>
<path d="M19.7504 14.9999C19.5604 14.9999 19.3704 14.9299 19.2204 14.7799L16.9704 12.5299C16.6804 12.2399 16.6804 11.7599 16.9704 11.4699L19.2204 9.21994C19.5104 8.92994 19.9904 8.92994 20.2804 9.21994L22.5304 11.4699C22.8204 11.7599 22.8204 12.2399 22.5304 12.5299L20.2804 14.7799C20.1304 14.9299 19.9404 14.9999 19.7504 14.9999ZM18.5604 11.9999L19.7504 13.1899L20.9404 11.9999L19.7504 10.8099L18.5604 11.9999Z" fill="black"/>
<path d="M4.25043 14.9999C4.06043 14.9999 3.87043 14.9299 3.72043 14.7799L1.47043 12.5299C1.18043 12.2399 1.18043 11.7599 1.47043 11.4699L3.72043 9.21994C4.01043 8.92994 4.49043 8.92994 4.78043 9.21994L7.03043 11.4699C7.32043 11.7599 7.32043 12.2399 7.03043 12.5299L4.78043 14.7799C4.63043 14.9299 4.44043 14.9999 4.25043 14.9999ZM3.06043 11.9999L4.25043 13.1899L5.44043 11.9999L4.25043 10.8099L3.06043 11.9999Z" fill="black"/>
<path d="M12 15.23C11.81 15.23 11.62 15.16 11.47 15.01L8.98996 12.53C8.69996 12.24 8.69996 11.76 8.98996 11.47L11.47 8.98996C11.76 8.69996 12.24 8.69996 12.53 8.98996L15.01 11.47C15.3 11.76 15.3 12.24 15.01 12.53L12.53 15.01C12.38 15.15 12.19 15.23 12 15.23ZM10.58 12L12 13.42L13.42 12L12 10.58L10.58 12Z" fill="black"/>
</svg>
