<svg width="24" height="24" viewBox="0 0 24 24" fill="none" xmlns="http://www.w3.org/2000/svg">
<path d="M15 18.75H9C6.58 18.75 5.25 17.42 5.25 15V9C5.25 6.58 6.58 5.25 9 5.25H13C15.42 5.25 16.75 6.58 16.75 9V10C16.75 10.14 16.86 10.25 17 10.25C17.96 10.25 18.75 11.04 18.75 12V15C18.75 17.42 17.42 18.75 15 18.75ZM9 6.75C7.42 6.75 6.75 7.42 6.75 9V15C6.75 16.58 7.42 17.25 9 17.25H15C16.58 17.25 17.25 16.58 17.25 15V12C17.25 11.86 17.14 11.75 17 11.75C16.04 11.75 15.25 10.96 15.25 10V9C15.25 7.42 14.58 6.75 13 6.75H9Z" fill="black"/>
<path d="M12 10.75H10C9.59 10.75 9.25 10.41 9.25 10C9.25 9.59 9.59 9.25 10 9.25H12C12.41 9.25 12.75 9.59 12.75 10C12.75 10.41 12.41 10.75 12 10.75Z" fill="black"/>
<path d="M14 14.75H10C9.59 14.75 9.25 14.41 9.25 14C9.25 13.59 9.59 13.25 10 13.25H14C14.41 13.25 14.75 13.59 14.75 14C14.75 14.41 14.41 14.75 14 14.75Z" fill="black"/>
<path d="M15 22.75H9C3.57 22.75 1.25 20.43 1.25 15V9C1.25 3.57 3.57 1.25 9 1.25H15C20.43 1.25 22.75 3.57 22.75 9V15C22.75 20.43 20.43 22.75 15 22.75ZM9 2.75C4.39 2.75 2.75 4.39 2.75 9V15C2.75 19.61 4.39 21.25 9 21.25H15C19.61 21.25 21.25 19.61 21.25 15V9C21.25 4.39 19.61 2.75 15 2.75H9Z" fill="black"/>
</svg>
