<svg width="24" height="24" viewBox="0 0 24 24" fill="none" xmlns="http://www.w3.org/2000/svg">
<path d="M12 12.25C10.48 12.25 9.25 11.02 9.25 9.5C9.25 7.98 10.48 6.75 12 6.75C13.52 6.75 14.75 7.98 14.75 9.5C14.75 11.02 13.52 12.25 12 12.25ZM12 8.25C11.31 8.25 10.75 8.81 10.75 9.5C10.75 10.19 11.31 10.75 12 10.75C12.69 10.75 13.25 10.19 13.25 9.5C13.25 8.81 12.69 8.25 12 8.25Z" fill="black"/>
<path d="M11.9905 14.72C11.1905 14.72 10.3905 14.54 9.66048 14.17C9.29048 13.98 9.14052 13.53 9.33052 13.16C9.51052 12.79 9.96053 12.64 10.3405 12.83C11.3805 13.35 12.6205 13.35 13.6605 12.83C14.0205 12.65 14.4805 12.79 14.6605 13.15C14.8505 13.51 14.7205 13.96 14.3605 14.15C13.6105 14.53 12.8005 14.72 11.9905 14.72Z" fill="black"/>
<path d="M13.9996 17.2502C13.7796 17.2502 13.5595 17.1502 13.4095 16.9702L11.9996 15.1902L10.5896 16.9702C10.3396 17.2902 9.85954 17.3502 9.53954 17.0902C9.21954 16.8302 9.15955 16.3602 9.41955 16.0402L11.4195 13.5102C11.6995 13.1502 12.3095 13.1502 12.5995 13.5102L14.5995 16.0402C14.8595 16.3702 14.7995 16.8402 14.4795 17.0902C14.3295 17.2002 14.1596 17.2502 13.9996 17.2502Z" fill="black"/>
<path d="M12 22.75C6.07 22.75 1.25 17.93 1.25 12C1.25 6.07 6.07 1.25 12 1.25C17.93 1.25 22.75 6.07 22.75 12C22.75 17.93 17.93 22.75 12 22.75ZM12 2.75C6.9 2.75 2.75 6.9 2.75 12C2.75 17.1 6.9 21.25 12 21.25C17.1 21.25 21.25 17.1 21.25 12C21.25 6.9 17.1 2.75 12 2.75Z" fill="black"/>
</svg>
