<svg width="24" height="24" viewBox="0 0 24 24" fill="none" xmlns="http://www.w3.org/2000/svg">
<path d="M7.99976 21.75C7.97976 21.75 7.95976 21.75 7.94976 21.75C7.55976 21.72 7.24976 21.4 7.24976 21C7.24976 20.43 7.31976 19.9 7.46976 19.41L9.25977 6.89C9.31977 6.48 9.69976 6.2 10.1098 6.25C10.5198 6.31 10.8098 6.69 10.7498 7.1L9.32977 17.01C10.5698 16.26 11.9198 16.25 11.9998 16.25C15.7198 16.25 18.7498 13.22 18.7498 9.5C18.7498 5.78 15.7198 2.75 11.9998 2.75C8.27976 2.75 5.24976 5.78 5.24976 9.5C5.24976 10.6 5.51976 11.69 6.02976 12.65C6.21976 13.02 6.07976 13.47 5.71976 13.66C5.34976 13.85 4.89976 13.71 4.70976 13.35C4.08976 12.17 3.75977 10.84 3.75977 9.5C3.75977 4.95 7.45977 1.25 12.0098 1.25C16.5598 1.25 20.2598 4.95 20.2598 9.5C20.2598 14.05 16.5598 17.75 12.0098 17.75C11.9198 17.75 9.79976 17.79 9.03976 19.5C9.00976 19.58 8.96976 19.66 8.94976 19.74L8.75977 21.1C8.68977 21.48 8.36976 21.75 7.99976 21.75Z" fill="black"/>
<path d="M14 21.9999C13.74 21.9999 13.48 21.8899 13.29 21.7099C13.11 21.5199 13 21.2599 13 20.9999C13 20.8699 13.03 20.7399 13.08 20.6199C13.13 20.4899 13.2 20.3899 13.29 20.2899C13.57 20.0099 14.01 19.9199 14.38 20.0799C14.51 20.1299 14.61 20.1999 14.71 20.2899C14.8 20.3899 14.87 20.4899 14.92 20.6199C14.97 20.7399 15 20.8699 15 20.9999C15 21.2599 14.89 21.5199 14.71 21.7099C14.61 21.7999 14.51 21.8699 14.38 21.9199C14.26 21.9699 14.13 21.9999 14 21.9999Z" fill="black"/>
</svg>
