<svg width="24" height="24" viewBox="0 0 24 24" fill="none" xmlns="http://www.w3.org/2000/svg">
<path d="M11.9997 21.3999C11.0597 21.3999 10.1197 21.0799 9.40973 20.4299L2.47972 14.1399C1.26972 13.0399 0.889723 11.0299 1.61972 9.56986L4.01973 4.74986C4.61973 3.54986 6.12973 2.60986 7.46973 2.60986H16.5297C17.8697 2.60986 19.3797 3.54986 19.9797 4.74986L22.3797 9.56986C23.1097 11.0299 22.7297 13.0399 21.5197 14.1399L14.5897 20.4299C13.8797 21.0699 12.9397 21.3999 11.9997 21.3999ZM7.46973 4.09986C6.68973 4.09986 5.70973 4.70986 5.35973 5.40986L2.95973 10.2299C2.53973 11.0799 2.77973 12.3799 3.48973 13.0199L10.4197 19.3099C11.2797 20.0899 12.7297 20.0899 13.5797 19.3099L20.5097 13.0199C21.2097 12.3799 21.4597 11.0799 21.0397 10.2299L18.6397 5.40986C18.2897 4.71986 17.3097 4.10986 16.5297 4.10986H7.46973V4.09986Z" fill="black"/>
<path d="M12 15.25C11.59 15.25 11.25 14.91 11.25 14.5V8.5C11.25 8.09 11.59 7.75 12 7.75C12.41 7.75 12.75 8.09 12.75 8.5V14.5C12.75 14.91 12.41 15.25 12 15.25Z" fill="black"/>
<path d="M16 9.25H8C7.59 9.25 7.25 8.91 7.25 8.5C7.25 8.09 7.59 7.75 8 7.75H16C16.41 7.75 16.75 8.09 16.75 8.5C16.75 8.91 16.41 9.25 16 9.25Z" fill="black"/>
</svg>
