<svg width="24" height="24" viewBox="0 0 24 24" fill="none" xmlns="http://www.w3.org/2000/svg">
<path d="M11.3104 14.6902C9.04042 14.6902 7.19043 12.8402 7.19043 10.5702C7.19043 8.3002 9.04042 6.4502 11.3104 6.4502C13.5804 6.4502 15.4304 8.3002 15.4304 10.5702C15.4304 12.8402 13.5904 14.6902 11.3104 14.6902ZM11.3104 7.9402C9.86042 7.9402 8.69043 9.1202 8.69043 10.5602C8.69043 12.0002 9.87042 13.1802 11.3104 13.1802C12.7504 13.1802 13.9304 12.0002 13.9304 10.5602C13.9304 9.1202 12.7604 7.9402 11.3104 7.9402Z" fill="black"/>
<path d="M16.5098 8.31006C15.9598 8.31006 15.5098 7.86006 15.5098 7.31006C15.5098 6.76006 15.9498 6.31006 16.5098 6.31006H16.5198C17.0698 6.31006 17.5198 6.76006 17.5198 7.31006C17.5198 7.86006 17.0598 8.31006 16.5098 8.31006Z" fill="black"/>
<path d="M12.06 18.56C11.87 18.56 11.68 18.49 11.53 18.34C11.24 18.05 11.24 17.57 11.53 17.28L14.53 14.28C14.82 13.99 15.3 13.99 15.59 14.28C15.88 14.57 15.88 15.05 15.59 15.34L12.59 18.34C12.45 18.49 12.25 18.56 12.06 18.56Z" fill="black"/>
<path d="M12 22.75C6.07 22.75 1.25 17.93 1.25 12C1.25 6.07 6.07 1.25 12 1.25C17.93 1.25 22.75 6.07 22.75 12C22.75 17.93 17.93 22.75 12 22.75ZM12 2.75C6.9 2.75 2.75 6.9 2.75 12C2.75 17.1 6.9 21.25 12 21.25C17.1 21.25 21.25 17.1 21.25 12C21.25 6.9 17.1 2.75 12 2.75Z" fill="black"/>
</svg>
