<svg width="24" height="24" viewBox="0 0 24 24" fill="none" xmlns="http://www.w3.org/2000/svg">
<path d="M14.4314 16.9203H12.1414C11.7314 16.9203 11.3914 16.5803 11.3914 16.1703C11.3914 15.7603 11.7314 15.4203 12.1414 15.4203H14.4314C14.8614 15.4203 15.2114 15.0703 15.2114 14.6403C15.2114 14.2103 14.8614 13.8603 14.4314 13.8603H12.1414C11.9014 13.8603 11.6714 13.7403 11.5314 13.5503C11.3914 13.3603 11.3514 13.1003 11.4314 12.8703L12.1914 10.5803C12.2914 10.2703 12.5814 10.0703 12.9014 10.0703H15.9614C16.3714 10.0703 16.7114 10.4103 16.7114 10.8203C16.7114 11.2303 16.3714 11.5703 15.9614 11.5703H13.4414L13.1814 12.3603H14.4314C15.6914 12.3603 16.7114 13.3803 16.7114 14.6403C16.7114 15.9003 15.6814 16.9203 14.4314 16.9203Z" fill="#292D32"/>
<path d="M9.5415 16.9208C9.1315 16.9208 8.7915 16.5808 8.7915 16.1708V12.7808L8.6015 13.0008C8.3215 13.3108 7.8515 13.3308 7.5415 13.0608C7.2315 12.7808 7.2115 12.3108 7.4815 12.0008L8.9815 10.3308C9.1915 10.1008 9.52152 10.0208 9.81152 10.1308C10.1015 10.2408 10.2915 10.5208 10.2915 10.8308V16.1808C10.2915 16.5908 9.9615 16.9208 9.5415 16.9208Z" fill="#292D32"/>
<path d="M13.9797 5.21973C13.7597 5.21973 13.5398 5.11976 13.3998 4.93976L11.4197 2.46973C11.1597 2.14973 11.2097 1.66974 11.5397 1.41974C11.8597 1.15974 12.3298 1.20973 12.5898 1.53973L14.5698 4.00977C14.8298 4.32977 14.7798 4.80975 14.4498 5.05975C14.3098 5.15975 14.1397 5.21973 13.9797 5.21973Z" fill="#292D32"/>
<path d="M11.9994 22.7488C6.68939 22.7488 2.35938 18.4288 2.35938 13.1088C2.35938 7.78876 6.67939 3.46875 11.9994 3.46875C12.6894 3.46875 13.3894 3.54876 14.1494 3.72876C14.5494 3.81876 14.8094 4.22878 14.7094 4.62878C14.6194 5.02878 14.2094 5.28878 13.8094 5.18878C13.1694 5.03878 12.5694 4.96875 11.9994 4.96875C7.50939 4.96875 3.85938 8.61876 3.85938 13.1088C3.85938 17.5988 7.50939 21.2488 11.9994 21.2488C16.4894 21.2488 20.1394 17.5988 20.1394 13.1088C20.1394 11.3688 19.5694 9.68878 18.4894 8.24878C18.2394 7.91878 18.3094 7.44879 18.6394 7.19879C18.9694 6.94879 19.4394 7.01875 19.6894 7.34875C20.9694 9.04875 21.6394 11.0388 21.6394 13.1088C21.6394 18.4288 17.3094 22.7488 11.9994 22.7488Z" fill="#292D32"/>
</svg>
