<svg width="24" height="24" viewBox="0 0 24 24" fill="none" xmlns="http://www.w3.org/2000/svg">
<path d="M3.95001 18.3586C3.49001 18.3586 3.02001 18.2386 2.60001 17.9886C1.75001 17.4986 1.25 16.6286 1.25 15.6486V8.32859C1.25 7.34859 1.75001 6.47859 2.60001 5.98859C3.45001 5.49859 4.45999 5.49859 5.29999 5.98859L11.64 9.6486C11.93 9.8186 12.16 10.0186 12.34 10.2386C12.45 10.3686 12.51 10.5386 12.51 10.7086V13.2686C12.51 13.4386 12.45 13.6086 12.34 13.7386C12.16 13.9586 11.93 14.1586 11.66 14.3186L5.29999 17.9986C4.87999 18.2386 4.42001 18.3586 3.95001 18.3586ZM3.95001 7.13862C3.74001 7.13862 3.54001 7.18859 3.35001 7.29859C2.97001 7.51859 2.75 7.9086 2.75 8.3386V15.6586C2.75 16.0886 2.97001 16.4786 3.35001 16.6986C3.73001 16.9186 4.16999 16.9186 4.54999 16.6986L10.89 13.0386C10.93 13.0186 10.97 12.9886 11 12.9586V11.0286C10.96 10.9986 10.92 10.9686 10.88 10.9486L4.54999 7.29859C4.35999 7.18859 4.16001 7.13862 3.95001 7.13862Z" fill="#292D32"/>
<path d="M13.7078 18.3586C13.2478 18.3586 12.7778 18.2386 12.3578 17.9886C11.5078 17.4986 11.0078 16.6286 11.0078 15.6486V8.32859C11.0078 7.34859 11.5078 6.47859 12.3578 5.98859C13.2078 5.49859 14.2178 5.49859 15.0578 5.98859L21.3978 9.6486C22.2378 10.1386 22.7478 11.0086 22.7478 11.9886C22.7478 12.9686 22.2478 13.8386 21.3978 14.3286L15.0578 17.9886C14.6378 18.2386 14.1678 18.3586 13.7078 18.3586ZM13.7078 7.13862C13.4978 7.13862 13.2978 7.18859 13.1078 7.29859C12.7278 7.51859 12.5078 7.8986 12.5078 8.3386V15.6586C12.5078 16.0886 12.7278 16.4786 13.1078 16.6986C13.4878 16.9186 13.9378 16.9186 14.3078 16.6986L20.6478 13.0386C21.0278 12.8186 21.2478 12.4286 21.2478 11.9986C21.2478 11.5686 21.0278 11.1786 20.6478 10.9586L14.3078 7.29859C14.1178 7.18859 13.9178 7.13862 13.7078 7.13862Z" fill="#292D32"/>
</svg>
