<svg width="24" height="24" viewBox="0 0 24 24" fill="none" xmlns="http://www.w3.org/2000/svg">
<path d="M7.39 17.59C7.18 17.59 6.96 17.5 6.81 17.32C5.8 16.11 5.25 14.58 5.25 13V8C5.25 4.28 8.28 1.25 12 1.25C15.1 1.25 17.79 3.35 18.55 6.35C18.65 6.75 18.41 7.16 18.01 7.26C17.62 7.36 17.2 7.12 17.1 6.72C16.5 4.38 14.41 2.75 12 2.75C9.11 2.75 6.75 5.1 6.75 8V13C6.75 14.23 7.18 15.42 7.96 16.36C8.23 16.68 8.18 17.15 7.86 17.42C7.73 17.53 7.56 17.59 7.39 17.59Z" fill="#292D32"/>
<path d="M12.0018 19.7505C11.1918 19.7505 10.4018 19.6105 9.66179 19.3305C9.27179 19.1905 9.07179 18.7505 9.22179 18.3705C9.36179 17.9805 9.80179 17.7805 10.1818 17.9305C10.7618 18.1505 11.3818 18.2605 12.0018 18.2605C14.8918 18.2605 17.2518 15.9105 17.2518 13.0105V9.98047C17.2518 9.57047 17.5918 9.23047 18.0018 9.23047C18.4118 9.23047 18.7518 9.57047 18.7518 9.98047V13.0005C18.7518 16.7205 15.7218 19.7505 12.0018 19.7505Z" fill="#292D32"/>
<path d="M12.0014 22.7483C9.52136 22.7483 7.16136 21.8183 5.35136 20.1283C5.05136 19.8483 5.03136 19.3683 5.31136 19.0683C5.59136 18.7683 6.07136 18.7483 6.37136 19.0283C7.90136 20.4583 9.90136 21.2383 11.9914 21.2383C16.5414 21.2383 20.2414 17.5383 20.2414 12.9883V10.9883C20.2414 10.5783 20.5814 10.2383 20.9914 10.2383C21.4014 10.2383 21.7414 10.5783 21.7414 10.9883V12.9883C21.7514 18.3783 17.3814 22.7483 12.0014 22.7483Z" fill="#292D32"/>
<path d="M2.50141 22.7397C2.31141 22.7397 2.12141 22.6697 1.97141 22.5197C1.68141 22.2297 1.68141 21.7497 1.97141 21.4597L20.9714 2.45969C21.2614 2.16969 21.7414 2.16969 22.0314 2.45969C22.3214 2.74969 22.3214 3.22969 22.0314 3.51969L3.03141 22.5197C2.88141 22.6697 2.69141 22.7397 2.50141 22.7397Z" fill="#292D32"/>
<path d="M11.5508 6.25172C11.1408 6.25172 10.8008 5.91172 10.8008 5.50172V2.26172C10.8008 1.85172 11.1408 1.51172 11.5508 1.51172C11.9608 1.51172 12.3008 1.85172 12.3008 2.26172V5.50172C12.3008 5.92172 11.9608 6.25172 11.5508 6.25172Z" fill="#292D32"/>
<path d="M8.5 8.25C8.09 8.25 7.75 7.91 7.75 7.5V3.5C7.75 3.09 8.09 2.75 8.5 2.75C8.91 2.75 9.25 3.09 9.25 3.5V7.5C9.25 7.91 8.91 8.25 8.5 8.25Z" fill="#292D32"/>
</svg>
