<svg width="24" height="24" viewBox="0 0 24 24" fill="none" xmlns="http://www.w3.org/2000/svg">
<path d="M11.9998 9.32C13.1898 9.32 14.1598 8.35 14.1598 7.16C14.1598 5.97 13.1898 5 11.9998 5C10.8098 5 9.83984 5.97 9.83984 7.16C9.83984 8.35 10.8098 9.32 11.9998 9.32Z" stroke="#292D32" stroke-width="1.5" stroke-linecap="round" stroke-linejoin="round"/>
<path opacity="0.4" d="M6.79086 18.9997C7.98086 18.9997 8.95086 18.0297 8.95086 16.8397C8.95086 15.6497 7.98086 14.6797 6.79086 14.6797C5.60086 14.6797 4.63086 15.6497 4.63086 16.8397C4.63086 18.0297 5.59086 18.9997 6.79086 18.9997Z" stroke="#292D32" stroke-width="1.5" stroke-linecap="round" stroke-linejoin="round"/>
<path d="M17.2108 18.9997C18.4008 18.9997 19.3708 18.0297 19.3708 16.8397C19.3708 15.6497 18.4008 14.6797 17.2108 14.6797C16.0208 14.6797 15.0508 15.6497 15.0508 16.8397C15.0508 18.0297 16.0208 18.9997 17.2108 18.9997Z" stroke="#292D32" stroke-width="1.5" stroke-linecap="round" stroke-linejoin="round"/>
</svg>
