<svg width="24" height="24" viewBox="0 0 24 24" fill="none" xmlns="http://www.w3.org/2000/svg">
<path d="M18.8008 9.91016C17.6708 9.91016 16.6608 10.4602 16.0308 11.3002C15.4008 10.4602 14.3908 9.91016 13.2608 9.91016C11.3508 9.91016 9.80078 11.4702 9.80078 13.3902C9.80078 14.1302 9.92078 14.8202 10.1208 15.4502C11.1008 18.5602 14.1408 20.4302 15.6408 20.9402C15.8508 21.0102 16.2008 21.0102 16.4108 20.9402C17.9108 20.4302 20.9508 18.5702 21.9308 15.4502C22.1408 14.8102 22.2508 14.1302 22.2508 13.3902C22.2608 11.4702 20.7108 9.91016 18.8008 9.91016Z" fill="#292D32"/>
<path d="M20.75 8.34156C20.75 8.57156 20.52 8.72156 20.3 8.66156C18.95 8.31156 17.47 8.60156 16.35 9.40156C16.13 9.56156 15.83 9.56156 15.62 9.40156C14.83 8.82156 13.87 8.50156 12.86 8.50156C10.28 8.50156 8.18 10.6116 8.18 13.2116C8.18 16.0316 9.53 18.1416 10.89 19.5516C10.96 19.6216 10.9 19.7416 10.81 19.7016C8.08 18.7716 2 14.9116 2 8.34156C2 5.44156 4.33 3.10156 7.21 3.10156C8.92 3.10156 10.43 3.92156 11.38 5.19156C12.34 3.92156 13.85 3.10156 15.55 3.10156C18.42 3.10156 20.75 5.44156 20.75 8.34156Z" fill="#292D32"/>
</svg>
