<svg width="24" height="24" viewBox="0 0 24 24" fill="none" xmlns="http://www.w3.org/2000/svg">
<path d="M23 22.75H1C0.59 22.75 0.25 22.41 0.25 22C0.25 21.59 0.59 21.25 1 21.25H23C23.41 21.25 23.75 21.59 23.75 22C23.75 22.41 23.41 22.75 23 22.75Z" fill="#292D32"/>
<path d="M19.7812 22.7608C19.3713 22.7608 19.0312 22.4208 19.0312 22.0108V17.5508C19.0312 17.1408 19.3713 16.8008 19.7812 16.8008C20.1912 16.8008 20.5312 17.1408 20.5312 17.5508V22.0108C20.5312 22.4208 20.2012 22.7608 19.7812 22.7608Z" fill="#292D32"/>
<path d="M19.7996 18.2989C18.1696 18.2989 16.8496 16.9789 16.8496 15.3489V13.0789C16.8496 11.4489 18.1696 10.1289 19.7996 10.1289C21.4296 10.1289 22.7496 11.4489 22.7496 13.0789V15.3489C22.7496 16.9789 21.4296 18.2989 19.7996 18.2989ZM19.7996 11.6389C18.9996 11.6389 18.3496 12.2889 18.3496 13.0889V15.3589C18.3496 16.1589 18.9996 16.8089 19.7996 16.8089C20.5996 16.8089 21.2496 16.1589 21.2496 15.3589V13.0889C21.2496 12.2889 20.5996 11.6389 19.7996 11.6389Z" fill="#292D32"/>
<path d="M14.2998 22.7517C13.8898 22.7517 13.5498 22.4117 13.5498 22.0017V6.03174C13.5498 4.44174 12.8798 3.76172 11.3198 3.76172H5.08984C3.51984 3.76172 2.83984 4.44174 2.83984 6.03174V22.0017C2.83984 22.4117 2.49984 22.7517 2.08984 22.7517C1.67984 22.7517 1.33984 22.4117 1.33984 22.0017V6.03174C1.33984 3.60174 2.66984 2.26172 5.08984 2.26172H11.3198C13.7298 2.26172 15.0498 3.60174 15.0498 6.03174V22.0017C15.0498 22.4117 14.7098 22.7517 14.2998 22.7517Z" fill="#292D32"/>
<path d="M10.7508 9H5.80078C5.39078 9 5.05078 8.66 5.05078 8.25C5.05078 7.84 5.39078 7.5 5.80078 7.5H10.7508C11.1608 7.5 11.5008 7.84 11.5008 8.25C11.5008 8.66 11.1608 9 10.7508 9Z" fill="#292D32"/>
<path d="M10.7508 12.75H5.80078C5.39078 12.75 5.05078 12.41 5.05078 12C5.05078 11.59 5.39078 11.25 5.80078 11.25H10.7508C11.1608 11.25 11.5008 11.59 11.5008 12C11.5008 12.41 11.1608 12.75 10.7508 12.75Z" fill="#292D32"/>
<path d="M8.25 22.75C7.84 22.75 7.5 22.41 7.5 22V18.25C7.5 17.84 7.84 17.5 8.25 17.5C8.66 17.5 9 17.84 9 18.25V22C9 22.41 8.66 22.75 8.25 22.75Z" fill="#292D32"/>
</svg>
