<svg width="24" height="24" viewBox="0 0 24 24" fill="none" xmlns="http://www.w3.org/2000/svg">
<path opacity="0.4" d="M16.19 2H7.81C4.17 2 2 4.17 2 7.81V16.18C2 19.83 4.17 22 7.81 22H16.18C19.82 22 21.99 19.83 21.99 16.19V7.81C22 4.17 19.83 2 16.19 2Z" fill="#292D32"/>
<path d="M18.8192 10.5785C19.2192 10.5785 19.5492 10.2485 19.5492 9.84849C19.5492 9.44849 19.2192 9.11848 18.8192 9.11848H15.2092L15.5992 5.61849C15.6392 5.21849 15.3592 4.85849 14.9492 4.80849C14.5492 4.76849 14.1892 5.04849 14.1392 5.45849L13.7292 9.11848H10.8992L11.2892 5.61849C11.3292 5.21849 11.0492 4.85849 10.6392 4.80849C10.2392 4.76849 9.87922 5.04849 9.82922 5.45849L9.42922 9.11848H5.89922C5.49922 9.11848 5.16922 9.44849 5.16922 9.84849C5.16922 10.2485 5.49922 10.5785 5.89922 10.5785H9.26922L8.94922 13.4285H5.17922C4.77922 13.4285 4.44922 13.7585 4.44922 14.1585C4.44922 14.5585 4.77922 14.8885 5.17922 14.8885H8.78922L8.39922 18.3885C8.35922 18.7885 8.63922 19.1485 9.04922 19.1985C9.07922 19.1985 9.09922 19.1985 9.12922 19.1985C9.49922 19.1985 9.80922 18.9185 9.85922 18.5485L10.2692 14.8885H13.1092L12.7192 18.3885C12.6792 18.7885 12.9592 19.1485 13.3692 19.1985C13.3992 19.1985 13.4192 19.1985 13.4492 19.1985C13.8192 19.1985 14.1292 18.9185 14.1792 18.5485L14.5892 14.8885H18.1192C18.5192 14.8885 18.8492 14.5585 18.8492 14.1585C18.8492 13.7585 18.5192 13.4285 18.1192 13.4285H14.7492L15.0692 10.5785H18.8192ZM13.2592 13.4185H10.4192L10.7392 10.5685H13.5792L13.2592 13.4185Z" fill="#292D32"/>
</svg>
