<svg width="24" height="24" viewBox="0 0 24 24" fill="none" xmlns="http://www.w3.org/2000/svg">
<path d="M8.67938 11.9098L10.3294 12.3198L9.37939 16.1599C9.15939 17.0599 9.59937 17.3598 10.3594 16.8298L15.5394 13.2398C16.1694 12.7998 16.0794 12.2898 15.3294 12.0998L13.6794 11.6898L14.6294 7.84981C14.8494 6.94981 14.4094 6.64983 13.6494 7.17983L8.46939 10.7699C7.83939 11.2099 7.92938 11.7198 8.67938 11.9098Z" stroke="#292D32" stroke-width="1.5" stroke-miterlimit="10" stroke-linecap="round" stroke-linejoin="round"/>
<path d="M4 6C2.75 7.67 2 9.75 2 12C2 17.52 6.48 22 12 22C17.52 22 22 17.52 22 12C22 6.48 17.52 2 12 2C10.57 2 9.2 2.29998 7.97 2.84998" stroke="#292D32" stroke-width="1.5" stroke-linecap="round" stroke-linejoin="round"/>
</svg>
