<svg width="24" height="24" viewBox="0 0 24 24" fill="none" xmlns="http://www.w3.org/2000/svg">
<path d="M10.7513 22.5035H13.2713C14.2313 22.5035 14.8513 21.8235 14.6713 20.9935L14.2613 19.1836H9.76129L9.3513 20.9935C9.1713 21.7735 9.8513 22.5035 10.7513 22.5035Z" stroke="#292D32" stroke-width="1.5" stroke-linecap="round" stroke-linejoin="round"/>
<path d="M14.2208 12.6719L13.1708 11.3419C12.5308 10.5319 11.4808 10.5319 10.8408 11.3419L7.79077 15.2118C7.02077 16.1818 7.02078 16.8119 8.03078 17.6419L9.76078 19.1819" stroke="#292D32" stroke-width="1.5" stroke-linecap="round" stroke-linejoin="round"/>
<path d="M14.2617 19.1732L15.9917 17.6332C16.9617 16.7732 17.0017 16.1731 16.2317 15.2031" stroke="#292D32" stroke-width="1.5" stroke-linecap="round" stroke-linejoin="round"/>
<path d="M12.0117 11.1211V13.6511" stroke="#292D32" stroke-width="1.5" stroke-linecap="round" stroke-linejoin="round"/>
<path d="M12.5195 5H11.5195C10.9695 5 10.5195 4.55 10.5195 4V3C10.5195 2.45 10.9695 2 11.5195 2H12.5195C13.0695 2 13.5195 2.45 13.5195 3V4C13.5195 4.55 13.0695 5 12.5195 5Z" stroke="#292D32" stroke-width="1.5" stroke-linecap="round" stroke-linejoin="round"/>
<path d="M3.26953 14.1719H4.26953C4.81953 14.1719 5.26953 13.7219 5.26953 13.1719V12.1719C5.26953 11.6219 4.81953 11.1719 4.26953 11.1719H3.26953C2.71953 11.1719 2.26953 11.6219 2.26953 12.1719V13.1719C2.26953 13.7219 2.71953 14.1719 3.26953 14.1719Z" stroke="#292D32" stroke-width="1.5" stroke-linecap="round" stroke-linejoin="round"/>
<path d="M20.7305 14.1719H19.7305C19.1805 14.1719 18.7305 13.7219 18.7305 13.1719V12.1719C18.7305 11.6219 19.1805 11.1719 19.7305 11.1719H20.7305C21.2805 11.1719 21.7305 11.6219 21.7305 12.1719V13.1719C21.7305 13.7219 21.2805 14.1719 20.7305 14.1719Z" stroke="#292D32" stroke-width="1.5" stroke-linecap="round" stroke-linejoin="round"/>
<path d="M3.75 11.1708C3.75 9.20078 4.49001 7.41078 5.71001 6.05078" stroke="#292D32" stroke-width="1.5" stroke-linecap="round" stroke-linejoin="round"/>
<path d="M10.5199 3.55859C9.87993 3.63859 9.25992 3.78861 8.66992 4.00861" stroke="#292D32" stroke-width="1.5" stroke-linecap="round" stroke-linejoin="round"/>
<path d="M20.2495 11.1686C20.2495 7.24858 17.3095 4.02859 13.5195 3.55859" stroke="#292D32" stroke-width="1.5" stroke-linecap="round" stroke-linejoin="round"/>
</svg>
