<svg width="24" height="24" viewBox="0 0 24 24" fill="none" xmlns="http://www.w3.org/2000/svg">
<path d="M24 0H0V24H24V0Z" fill="white"/>
<path d="M16.9795 8.08957L16.8095 8.51957L12.0895 21.7496H11.9095L7.17953 8.49957L7.01953 8.09957C7.07953 7.94957 7.15953 7.80957 7.23953 7.70957L10.8495 3.37957C11.4795 2.61957 12.5195 2.61957 13.1495 3.37957L16.7595 7.70957C16.8395 7.79957 16.9195 7.94957 16.9795 8.08957Z" fill="#17191C"/>
<path opacity="0.4" d="M11.9091 21.7496C11.6691 21.7396 11.4391 21.6796 11.2591 21.5696L5.93911 18.5396C5.41911 18.2396 5.09911 17.5196 5.20911 16.9396L6.92911 8.36961C6.94911 8.28961 6.97911 8.19961 7.01911 8.09961L7.17911 8.49961L11.9091 21.7496Z" fill="#17191C"/>
<path opacity="0.4" d="M18.0598 18.5398L12.7398 21.5698C12.5598 21.6798 12.3298 21.7398 12.0898 21.7498L16.8098 8.51984L16.9798 8.08984C17.0198 8.18984 17.0498 8.28984 17.0698 8.36984L18.7898 16.9398C18.8998 17.5198 18.5798 18.2398 18.0598 18.5398Z" fill="#17191C"/>
</svg>
