<svg width="24" height="24" viewBox="0 0 24 24" fill="none" xmlns="http://www.w3.org/2000/svg">
<path d="M21.25 22H2.75C2.34 22 2 21.66 2 21.25C2 20.84 2.34 20.5 2.75 20.5H21.25C21.66 20.5 22 20.84 22 21.25C22 21.66 21.66 22 21.25 22Z" fill="#292D32"/>
<path opacity="0.4" d="M20.5909 13.7002L13.3609 20.9302C11.9409 22.3502 9.65086 22.3502 8.24086 20.9402L3.63086 16.3302L15.9909 3.97021L20.6009 8.58021C22.0109 9.99021 22.0109 12.2802 20.5909 13.7002Z" fill="#292D32"/>
<path d="M15.9906 3.97016L3.62055 16.3302L2.71055 15.4202C1.30055 14.0102 1.30055 11.7202 2.72055 10.3002L9.95055 3.07016C11.3706 1.65016 13.6606 1.65016 15.0705 3.06016L15.9906 3.97016Z" fill="#292D32"/>
<path d="M12.8903 17.6004L11.5403 18.9504C11.2603 19.2304 10.8103 19.2304 10.5303 18.9504C10.2503 18.6704 10.2503 18.2204 10.5303 17.9404L11.8803 16.5904C12.1603 16.3104 12.6103 16.3104 12.8903 16.5904C13.1703 16.8704 13.1703 17.3204 12.8903 17.6004Z" fill="#292D32"/>
<path d="M17.2713 13.22L14.5813 15.91C14.3013 16.19 13.8513 16.19 13.5713 15.91C13.2913 15.63 13.2913 15.18 13.5713 14.9L16.2613 12.21C16.5413 11.93 16.9913 11.93 17.2713 12.21C17.5413 12.49 17.5413 12.94 17.2713 13.22Z" fill="#292D32"/>
</svg>
