<svg width="24" height="24" viewBox="0 0 24 24" fill="none" xmlns="http://www.w3.org/2000/svg">
<path d="M16 2H8C4 2 2 4 2 8V21C2 21.55 2.45 22 3 22H16C20 22 22 20 22 16V8C22 4 20 2 16 2Z" stroke="#292D32" stroke-width="1.5" stroke-linecap="round" stroke-linejoin="round"/>
<g opacity="0.4">
<path d="M12.9088 7.84015L7.71881 13.0302C7.51881 13.2302 7.32882 13.6202 7.28882 13.9002L7.00882 15.8802C6.90882 16.6002 7.40882 17.1002 8.12882 17.0002L10.1088 16.7202C10.3888 16.6802 10.7788 16.4902 10.9788 16.2902L16.1688 11.1002C17.0588 10.2102 17.4888 9.17015 16.1688 7.85015C14.8488 6.52015 13.8088 6.94015 12.9088 7.84015Z" stroke="#292D32" stroke-width="1.5" stroke-miterlimit="10" stroke-linecap="round" stroke-linejoin="round"/>
<path d="M12.168 8.58008C12.608 10.1501 13.838 11.3901 15.418 11.8301" stroke="#292D32" stroke-width="1.5" stroke-miterlimit="10" stroke-linecap="round" stroke-linejoin="round"/>
</g>
</svg>
