<svg width="24" height="24" viewBox="0 0 24 24" fill="none" xmlns="http://www.w3.org/2000/svg">
<path d="M9.02828 21.6917L11.3583 19.7317C11.7083 19.4317 12.2883 19.4317 12.6383 19.7317L14.9683 21.6917C15.5083 21.9617 16.1683 21.6917 16.3683 21.1117L16.8083 19.7817C16.9183 19.4617 16.8083 18.9917 16.5683 18.7517L14.2983 16.4717C14.1283 16.3117 13.9983 15.9917 13.9983 15.7617V12.9117C13.9983 12.4917 14.3083 12.2917 14.6983 12.4517L19.6083 14.5717C20.3783 14.9017 21.0083 14.4917 21.0083 13.6517V12.3617C21.0083 11.6917 20.5083 10.9217 19.8883 10.6617L14.2983 8.25172C14.1383 8.18172 13.9983 7.97172 13.9983 7.79172V4.79172C13.9983 3.85172 13.3083 2.74172 12.4683 2.31172C12.1683 2.16172 11.8183 2.16172 11.5183 2.31172C10.6783 2.74172 9.98828 3.86172 9.98828 4.80172V7.80172C9.98828 7.98172 9.84828 8.19172 9.68828 8.26172L4.10828 10.6717C3.48828 10.9217 2.98828 11.6917 2.98828 12.3617V13.6517C2.98828 14.4917 3.61828 14.9017 4.38828 14.5717L9.29828 12.4517C9.67828 12.2817 9.99828 12.4917 9.99828 12.9117V15.7617C9.99828 15.9917 9.86828 16.3117 9.70828 16.4717L7.43828 18.7517C7.19828 18.9917 7.08828 19.4517 7.19828 19.7817L7.63828 21.1117C7.81828 21.6917 8.47828 21.9717 9.02828 21.6917Z" stroke="#292D32" stroke-width="1.5" stroke-linecap="round" stroke-linejoin="round"/>
</svg>
