<svg width="24" height="24" viewBox="0 0 24 24" fill="none" xmlns="http://www.w3.org/2000/svg">
<path fill-rule="evenodd" clip-rule="evenodd" d="M17.2999 15.3C16.9999 15.5 16.8 15.5 16.6 15.6C16.4 15.6 16.3 15.7 16.2 15.8C16 15.8 16 16 16 16.1C16 16.2 16 16.3 15.9 16.4C15.8 16.5 15.6 16.5 15.4 16.5C15.1 16.5 14.7 16.5 14.3 16.7C14.1 16.8 13.8999 16.9 13.6999 17C13.2999 17.3 12.9 17.5 12.1 17.5C11.3 17.5 10.8999 17.2 10.4999 17C10.2999 16.9 10.0999 16.7 9.89995 16.7C9.49995 16.6 9.09995 16.5 8.79995 16.5C8.59995 16.5 8.39995 16.5 8.29995 16.4C7.99995 16.3 7.99995 16.2 7.99995 16.1C7.99995 16 7.99995 15.8 7.79995 15.8C7.69995 15.7 7.49995 15.7 7.39995 15.6C7.19995 15.5 6.99995 15.5 6.69995 15.3C6.39995 15.1 6.59995 15 6.69995 14.9C8.59995 14 8.89995 12.5 8.89995 12.4C8.89995 12.3 8.89995 12.2 8.79995 12.1C8.69995 12 8.39995 11.8 8.09995 11.7C7.99995 11.6 7.89995 11.6 7.79995 11.5C7.49995 11.3 7.39995 11.1 7.49995 10.9C7.59995 10.7 7.69995 10.7 7.89995 10.7C7.99995 10.7 7.99995 10.7 8.09995 10.7C8.29995 10.7 8.49995 10.8 8.59995 10.9C8.69995 10.9 8.79995 11 8.89995 11C8.89995 11 8.89995 11 8.99995 11C9.09995 11 9.09995 11 9.09995 10.8V10.7C9.09995 10.4 8.99995 9.69995 9.09995 9.19995C9.19995 8.39995 9.39995 7.89995 9.79995 7.59995C9.99995 7.39995 10.7 6.69995 12.1 6.69995C13.5 6.69995 14.1999 7.49995 14.3999 7.59995C14.6999 7.99995 15 8.39995 15.1 9.19995C15.2 9.79995 15.1 10.4 15.1 10.8C15.1 10.9 15.1 11 15.2 11C15.2 11 15.2 11 15.3 11C15.4 11 15.5 10.9 15.6 10.9C15.8 10.8 15.9 10.8 16.1 10.7C16.1 10.7 16.1999 10.7 16.2999 10.7C16.4999 10.7 16.6 10.8 16.7 10.9C16.8 11.1 16.7 11.3 16.4 11.5C16.3 11.5 16.2 11.6 16.1 11.7C15.9 11.9 15.5 12.1 15.4 12.1C15.3 12.2 15.3 12.3 15.3 12.4C15.3 12.5 15.6 13.9 17.5 14.9C17.5 15 17.6999 15.1 17.2999 15.3Z" stroke="#17191C" stroke-width="1.5" stroke-miterlimit="10" stroke-linejoin="round"/>
<path d="M12 22C17.5228 22 22 17.5228 22 12C22 6.47715 17.5228 2 12 2C6.47715 2 2 6.47715 2 12C2 17.5228 6.47715 22 12 22Z" stroke="#17191C" stroke-width="1.5" stroke-miterlimit="10" stroke-linejoin="round"/>
</svg>
