<svg width="24" height="24" viewBox="0 0 24 24" fill="none" xmlns="http://www.w3.org/2000/svg">
<path d="M12 19C15.31 19 18 16.31 18 13V8C18 4.69 15.31 2 12 2C8.69 2 6 4.69 6 8V13C6 16.31 8.69 19 12 19Z" stroke="#292D32" stroke-width="1.5" stroke-linecap="round" stroke-linejoin="round"/>
<path d="M3 11V13C3 17.97 7.03 22 12 22C16.97 22 21 17.97 21 13V11" stroke="#292D32" stroke-width="1.5" stroke-linecap="round" stroke-linejoin="round"/>
<path d="M9.11011 7.47993C10.8901 6.82993 12.8301 6.82993 14.6101 7.47993" stroke="#292D32" stroke-width="1.5" stroke-linecap="round" stroke-linejoin="round"/>
<path d="M10.03 10.4799C11.23 10.1499 12.5 10.1499 13.7 10.4799" stroke="#292D32" stroke-width="1.5" stroke-linecap="round" stroke-linejoin="round"/>
</svg>
