<svg width="24" height="24" viewBox="0 0 24 24" fill="none" xmlns="http://www.w3.org/2000/svg">
<path d="M12 22C17.5228 22 22 17.5228 22 12C22 6.47715 17.5228 2 12 2C6.47715 2 2 6.47715 2 12C2 17.5228 6.47715 22 12 22Z" stroke="#292D32" stroke-width="1.5" stroke-miterlimit="10" stroke-linecap="round" stroke-linejoin="round"/>
<path opacity="0.4" d="M12.0016 14.8794C11.0916 14.8794 10.3516 14.1394 10.3516 13.2294V10.7594C10.3516 9.8494 11.0916 9.10938 12.0016 9.10938C12.9116 9.10938 13.6516 9.8494 13.6516 10.7594V13.2294C13.6516 14.1394 12.9116 14.8794 12.0016 14.8794Z" stroke="#292D32" stroke-width="1.5" stroke-linecap="round"/>
<path opacity="0.4" d="M16.98 13.4697C16.78 16.0497 14.62 18.0697 12 18.0697C9.24 18.0697 7 15.8297 7 13.0697V10.9297C7 8.16969 9.24 5.92969 12 5.92969C14.59 5.92969 16.72 7.89968 16.97 10.4197" stroke="#292D32" stroke-width="1.5" stroke-linecap="round"/>
</svg>
