<svg width="24" height="24" viewBox="0 0 24 24" fill="none" xmlns="http://www.w3.org/2000/svg">
<path d="M11.9998 2H8.6698C6.8298 2 5.33984 3.48999 5.33984 5.32999C5.33984 7.16999 6.8298 8.66 8.6698 8.66H11.9998V2Z" fill="black"/>
<path d="M11.9998 8.67188H8.6698C6.8298 8.67188 5.33984 10.1619 5.33984 12.0019C5.33984 13.8419 6.8298 15.3318 8.6698 15.3318H11.9998V8.67188Z" fill="black"/>
<path d="M11.9998 15.3281H8.6698C6.8298 15.3281 5.33984 16.8181 5.33984 18.6581C5.33984 20.4981 6.8298 21.9881 8.6698 21.9881C10.5098 21.9881 11.9998 20.4981 11.9998 18.6581V15.3281Z" fill="black"/>
<path d="M12 2H15.33C17.17 2 18.66 3.48999 18.66 5.32999C18.66 7.16999 17.17 8.66 15.33 8.66H12V2Z" fill="black"/>
<path d="M15.33 8.67188C17.17 8.67188 18.66 10.1619 18.66 12.0019C18.66 13.8419 17.17 15.3318 15.33 15.3318C13.49 15.3318 12 13.8419 12 12.0019C12 10.1619 13.49 8.67188 15.33 8.67188Z" fill="black"/>
</svg>
