<svg width="24" height="24" viewBox="0 0 24 24" fill="none" xmlns="http://www.w3.org/2000/svg">
<path d="M17.8206 8.70003C18.5306 8.31003 19.4006 8.82004 19.3906 9.63004L19.3505 15.05C19.3405 15.87 18.4506 16.37 17.7506 15.95L13.0706 13.15C12.3706 12.73 12.3905 11.71 13.1005 11.32L17.8206 8.70003Z" fill="black"/>
<path d="M19.2505 6.28065C19.4005 6.66065 19.1705 7.05065 18.8105 7.25065L13.1805 10.3607C12.3805 10.8007 11.4405 10.0907 11.6405 9.21066L12.8605 3.68065C13.0105 2.98065 13.8005 2.64066 14.4205 2.99066L18.3405 5.23065C18.7705 5.48065 19.0805 5.85065 19.2505 6.28065Z" fill="black"/>
<path d="M12.0096 2.67165L9.93964 11.9717C9.90964 12.1117 9.90964 12.2617 9.93964 12.4117L11.6696 21.0917C11.7896 21.6917 11.2797 22.2617 10.7797 21.8917L5.48962 18.1217C4.92962 17.7217 4.59961 17.0817 4.59961 16.4017V7.09165C4.59961 6.33165 4.99962 5.63166 5.66962 5.25166L10.9597 2.24166C11.1097 2.15166 11.2696 2.09165 11.4296 2.04165C11.8096 1.91165 12.0896 2.29165 12.0096 2.67165Z" fill="black"/>
<path d="M17.6289 16.8097C18.2789 17.1997 18.3189 18.1298 17.7089 18.5698L14.2389 21.0897C13.6189 21.5397 12.7289 21.1997 12.5789 20.4397L11.5589 15.2398C11.3789 14.3398 12.3489 13.6597 13.1389 14.1297L17.6289 16.8097Z" fill="black"/>
</svg>
