<svg width="24" height="24" viewBox="0 0 24 24" fill="none" xmlns="http://www.w3.org/2000/svg">
<path d="M21.3802 11.4483L16.8802 8.84828C16.6502 8.71828 16.3602 8.71828 16.1302 8.84828L11.6302 11.4483C11.6302 11.4483 11.6302 11.4583 11.6202 11.4583L7.50023 13.8383L3.75023 11.6683V7.33828L7.50023 5.16828L11.2502 7.33828V8.47828C11.2502 8.88828 11.5902 9.22828 12.0002 9.22828C12.4102 9.22828 12.7502 8.88828 12.7502 8.47828V6.89828C12.7502 6.62828 12.6102 6.37828 12.3702 6.24828L7.87022 3.64828C7.64022 3.51828 7.35022 3.51828 7.12022 3.64828L2.62022 6.24828C2.39022 6.37828 2.24023 6.62828 2.24023 6.89828V12.0983C2.24023 12.3683 2.38022 12.6183 2.62022 12.7483L7.12022 15.3483C7.24022 15.4183 7.37023 15.4483 7.50023 15.4483C7.63023 15.4483 7.76023 15.4183 7.88023 15.3483L12.3802 12.7483C12.3802 12.7483 12.3802 12.7383 12.3902 12.7383L16.5102 10.3583L20.2602 12.5283V16.8583L16.5102 19.0283L12.7602 16.8583V15.6383C12.7602 15.2283 12.4202 14.8883 12.0102 14.8883C11.6002 14.8883 11.2602 15.2283 11.2602 15.6383V17.2883C11.2602 17.5583 11.4002 17.8083 11.6402 17.9383L16.1402 20.5383C16.2602 20.6083 16.3902 20.6383 16.5202 20.6383C16.6502 20.6383 16.7802 20.6083 16.9002 20.5383L21.4002 17.9383C21.6302 17.8083 21.7802 17.5583 21.7802 17.2883V12.0883C21.7502 11.8283 21.6102 11.5783 21.3802 11.4483Z" fill="black"/>
<path d="M4.5 8.35031V10.6603C4.5 11.0203 4.69 11.3503 5 11.5303L7 12.6803C7.31 12.8603 7.69 12.8603 8 12.6803L10 11.5303C10.31 11.3503 10.5 11.0203 10.5 10.6603V8.35031C10.5 7.99031 10.31 7.66031 10 7.48031L8 6.33031C7.69 6.15031 7.31 6.15031 7 6.33031L5 7.48031C4.69 7.66031 4.5 7.99031 4.5 8.35031Z" fill="black"/>
<path d="M13.5 13.5495V15.8595C13.5 16.2195 13.69 16.5495 14 16.7295L16 17.8795C16.31 18.0595 16.69 18.0595 17 17.8795L19 16.7295C19.31 16.5495 19.5 16.2195 19.5 15.8595V13.5495C19.5 13.1895 19.31 12.8595 19 12.6795L17 11.5295C16.69 11.3495 16.31 11.3495 16 11.5295L14 12.6795C13.69 12.8595 13.5 13.1895 13.5 13.5495Z" fill="black"/>
</svg>
