<svg width="24" height="24" viewBox="0 0 24 24" fill="none" xmlns="http://www.w3.org/2000/svg">
<path d="M15.0205 2.22859C13.0205 1.91859 10.9805 1.91859 8.98055 2.22859C8.16055 2.35859 7.56053 3.05859 7.56053 3.87859V7.55858H3.88054C3.06054 7.55858 2.36055 8.15859 2.23055 8.97859C1.92055 10.9786 1.92055 13.0186 2.23055 15.0186C2.36055 15.8386 3.06054 16.4386 3.88054 16.4386H5.56053C5.84053 16.4386 6.06053 16.2186 6.06053 15.9386V14.2186C6.06053 12.1686 7.73053 10.4986 9.78053 10.4986H14.2205C14.6205 10.4986 14.9405 10.1786 14.9405 9.77858V6.55858C14.9405 6.27858 15.1605 6.05858 15.4405 6.05858H15.9405C16.2205 6.05858 16.4405 5.83858 16.4405 5.55858V3.87859C16.4405 3.05859 15.8405 2.35859 15.0205 2.22859ZM10.3305 5.57857C9.92052 5.57857 9.53053 5.18858 9.53053 4.77858C9.53053 4.35858 9.92052 3.96858 10.3305 3.96858C10.5305 3.96858 10.7506 4.05859 10.8906 4.1986C11.0406 4.3386 11.1406 4.56858 11.1406 4.77858C11.1406 5.18858 10.7505 5.57857 10.3305 5.57857Z" fill="black"/>
<path d="M21.7705 8.97861C21.6405 8.15861 20.9405 7.55859 20.1205 7.55859H16.9406C16.6606 7.55859 16.4406 7.77859 16.4406 8.05859V9.77859C16.4406 10.9986 15.4506 11.9986 14.2206 11.9986H9.78055C8.55055 11.9986 7.56055 12.9886 7.56055 14.2186V20.1186C7.56055 20.9386 8.16056 21.6386 8.98056 21.7686C10.9806 22.0786 13.0205 22.0786 15.0205 21.7686C15.8405 21.6386 16.4406 20.9386 16.4406 20.1186V16.4386H20.1205C20.9405 16.4386 21.6405 15.8386 21.7705 15.0186C22.0805 13.0186 22.0805 10.9786 21.7705 8.97861ZM13.6706 20.0286C13.2606 20.0286 12.8605 19.6386 12.8605 19.2186C12.8605 18.7986 13.2506 18.4086 13.6706 18.4086C13.8606 18.4086 14.0906 18.4986 14.2306 18.6286C14.3806 18.7686 14.4806 19.0086 14.4806 19.2086C14.4706 19.6386 14.0806 20.0286 13.6706 20.0286Z" fill="black"/>
</svg>
