<svg width="24" height="24" viewBox="0 0 24 24" fill="none" xmlns="http://www.w3.org/2000/svg">
<path d="M14 6.75H10C9.04 6.75 7.25 6.75 7.25 4C7.25 1.25 9.04 1.25 10 1.25H14C14.96 1.25 16.75 1.25 16.75 4C16.75 4.96 16.75 6.75 14 6.75ZM10 2.75C9.01 2.75 8.75 2.75 8.75 4C8.75 5.25 9.01 5.25 10 5.25H14C15.25 5.25 15.25 4.99 15.25 4C15.25 2.75 14.99 2.75 14 2.75H10Z" fill="#292D32"/>
<path d="M14 22.7483H9C3.38 22.7483 2.25 20.1683 2.25 15.9983V9.99826C2.25 5.43826 3.9 3.48826 7.96 3.27826C8.35 3.25826 8.73 3.56826 8.75 3.98826C8.77 4.40826 8.45 4.74826 8.04 4.76826C5.2 4.92826 3.75 5.77826 3.75 9.99826V15.9983C3.75 19.6983 4.48 21.2483 9 21.2483H14C14.41 21.2483 14.75 21.5883 14.75 21.9983C14.75 22.4083 14.41 22.7483 14 22.7483Z" fill="#292D32"/>
<path d="M21.0009 15.7504C20.5909 15.7504 20.2509 15.4104 20.2509 15.0004V10.0004C20.2509 5.78042 18.8009 4.93042 15.9609 4.77042C15.5509 4.75042 15.2309 4.39042 15.2509 3.98042C15.2709 3.57042 15.6309 3.25042 16.0409 3.27042C20.1009 3.49042 21.7509 5.44042 21.7509 9.99042V14.9904C21.7509 15.4104 21.4109 15.7504 21.0009 15.7504Z" fill="#292D32"/>
<path d="M15 19.75C14.59 19.75 14.25 19.41 14.25 19V16C14.25 15.59 14.59 15.25 15 15.25H18C18.41 15.25 18.75 15.59 18.75 16C18.75 16.41 18.41 16.75 18 16.75H15.75V19C15.75 19.41 15.41 19.75 15 19.75Z" fill="#292D32"/>
<path d="M21.0005 22.7505C20.8105 22.7505 20.6205 22.6805 20.4705 22.5305L14.5105 16.5705C14.2205 16.2805 14.2205 15.8005 14.5105 15.5105C14.8005 15.2205 15.2805 15.2205 15.5705 15.5105L21.5305 21.4705C21.8205 21.7605 21.8205 22.2405 21.5305 22.5305C21.3805 22.6805 21.1905 22.7505 21.0005 22.7505Z" fill="#292D32"/>
</svg>
