<svg width="24" height="24" viewBox="0 0 24 24" fill="none" xmlns="http://www.w3.org/2000/svg">
<path d="M8.99945 17.7485C8.58945 17.7485 8.24945 17.4085 8.24945 16.9985V12.8085L7.52945 13.5285C7.23945 13.8185 6.75945 13.8185 6.46945 13.5285C6.17945 13.2385 6.17945 12.7585 6.46945 12.4685L8.46945 10.4685C8.67945 10.2585 9.00945 10.1885 9.28945 10.3085C9.56945 10.4185 9.74945 10.6985 9.74945 10.9985V16.9985C9.74945 17.4085 9.40945 17.7485 8.99945 17.7485Z" fill="#292D32"/>
<path d="M10.9995 13.7514C10.8095 13.7514 10.6195 13.6814 10.4695 13.5314L8.46945 11.5314C8.17945 11.2414 8.17945 10.7614 8.46945 10.4714C8.75945 10.1814 9.23945 10.1814 9.52945 10.4714L11.5295 12.4714C11.8195 12.7614 11.8195 13.2414 11.5295 13.5314C11.3795 13.6814 11.1895 13.7514 10.9995 13.7514Z" fill="#292D32"/>
<path d="M15 22.75H9C3.57 22.75 1.25 20.43 1.25 15V9C1.25 3.57 3.57 1.25 9 1.25H14C14.41 1.25 14.75 1.59 14.75 2C14.75 2.41 14.41 2.75 14 2.75H9C4.39 2.75 2.75 4.39 2.75 9V15C2.75 19.61 4.39 21.25 9 21.25H15C19.61 21.25 21.25 19.61 21.25 15V10C21.25 9.59 21.59 9.25 22 9.25C22.41 9.25 22.75 9.59 22.75 10V15C22.75 20.43 20.43 22.75 15 22.75Z" fill="#292D32"/>
<path d="M22 10.7485H18C14.58 10.7485 13.25 9.41852 13.25 5.99852V1.99852C13.25 1.69852 13.43 1.41852 13.71 1.30852C13.99 1.18852 14.31 1.25852 14.53 1.46852L22.53 9.46852C22.74 9.67852 22.81 10.0085 22.69 10.2885C22.57 10.5685 22.3 10.7485 22 10.7485ZM14.75 3.80852V5.99852C14.75 8.57852 15.42 9.24852 18 9.24852H20.19L14.75 3.80852Z" fill="#292D32"/>
</svg>
