<svg width="24" height="24" viewBox="0 0 24 24" fill="none" xmlns="http://www.w3.org/2000/svg">
<path d="M2 13.02V15C2 20 4 22 9 22H15C20 22 22 20 22 15V9C22 4 20 2 15 2H9C4 2 2 4 2 9" stroke="#292D32" stroke-width="1.5" stroke-linecap="round" stroke-linejoin="round"/>
<path d="M18.3792 15.2712V7.58121C18.3792 6.81121 17.7591 6.25122 16.9991 6.31122H16.9592C15.6192 6.42122 13.5892 7.11123 12.4492 7.82123L12.3392 7.89124C12.1592 8.00124 11.8491 8.00124 11.6591 7.89124L11.4991 7.79123C10.3691 7.08123 8.33915 6.41121 6.99915 6.30121C6.23915 6.24121 5.61914 6.81123 5.61914 7.57123V15.2712C5.61914 15.8812 6.11913 16.4612 6.72913 16.5312L6.90912 16.5612C8.28912 16.7412 10.4292 17.4512 11.6492 18.1212L11.6791 18.1312C11.8491 18.2312 12.1291 18.2312 12.2891 18.1312C13.5091 17.4512 15.6591 16.7512 17.0491 16.5612L17.2592 16.5312C17.8792 16.4612 18.3792 15.8912 18.3792 15.2712Z" stroke="#292D32" stroke-width="1.5" stroke-linecap="round" stroke-linejoin="round"/>
<path d="M12 8.10156V17.6616" stroke="#292D32" stroke-width="1.5" stroke-linecap="round" stroke-linejoin="round"/>
</svg>
