<svg width="24" height="24" viewBox="0 0 24 24" fill="none" xmlns="http://www.w3.org/2000/svg">
<path d="M21.3 12.2305H17.82C16.84 12.2305 15.97 12.7705 15.53 13.6505L14.69 15.3105C14.49 15.7105 14.09 15.9605 13.65 15.9605H10.37C10.06 15.9605 9.62 15.8905 9.33 15.3105L8.49 13.6605C8.05 12.7905 7.17 12.2405 6.2 12.2405H2.7C2.31 12.2405 2 12.5505 2 12.9405V16.2005C2 19.8305 4.18 22.0005 7.82 22.0005H16.2C19.63 22.0005 21.74 20.1205 22 16.7805V12.9305C22 12.5505 21.69 12.2305 21.3 12.2305Z" fill="#292D32"/>
<path d="M12.7492 3.80828L13.4692 4.52828C13.6192 4.67828 13.8092 4.74828 13.9992 4.74828C14.1892 4.74828 14.3792 4.67828 14.5292 4.52828C14.8192 4.23828 14.8192 3.75828 14.5292 3.46828L12.5292 1.46828C12.5192 1.45828 12.5092 1.45828 12.5092 1.44828C12.4492 1.38828 12.3692 1.33828 12.2892 1.29828C12.2792 1.29828 12.2792 1.29828 12.2692 1.28828C12.1892 1.25828 12.1092 1.24828 12.0292 1.23828C11.9992 1.23828 11.9792 1.23828 11.9492 1.23828C11.8892 1.23828 11.8292 1.25828 11.7692 1.27828C11.7392 1.28828 11.7192 1.29828 11.6992 1.30828C11.6192 1.34828 11.5392 1.38828 11.4792 1.45828L9.47922 3.45828C9.18922 3.74828 9.18922 4.22828 9.47922 4.51828C9.76922 4.80828 10.2492 4.80828 10.5392 4.51828L11.2592 3.79828V4.99828H12.7592V3.80828H12.7492Z" fill="#292D32"/>
<path d="M22 10.81V10.85C21.78 10.77 21.54 10.73 21.3 10.73H17.82C16.27 10.73 14.88 11.59 14.19 12.97L13.44 14.45H10.58L9.83 12.98C9.14 11.59 7.75 10.73 6.2 10.73H2.7C2.46 10.73 2.22 10.77 2 10.85V10.81C2 7.17 4.17 5 7.81 5H11.25V9C11.25 9.41 11.59 9.75 12 9.75C12.41 9.75 12.75 9.41 12.75 9V5H16.19C19.83 5 22 7.17 22 10.81Z" fill="#292D32"/>
</svg>
