<svg width="24" height="24" viewBox="0 0 24 24" fill="none" xmlns="http://www.w3.org/2000/svg">
<path d="M11.9987 19.3517C11.4787 19.3517 10.9888 19.0917 10.6388 18.6317L9.72876 17.4217H9.47876C6.76876 17.4217 4.96875 16.6517 4.96875 12.9117V9.7717C4.96875 7.0917 6.33874 5.50172 8.82874 5.29172C9.01874 5.27172 9.24876 5.26172 9.47876 5.26172H14.5088C17.4188 5.26172 19.0187 6.8617 19.0187 9.7717V12.9117C19.0187 13.1517 19.0088 13.3717 18.9788 13.5917C18.7688 16.0517 17.1787 17.4217 14.4987 17.4217H14.2487L13.3387 18.6317C13.0087 19.0917 12.5187 19.3517 11.9987 19.3517ZM9.48874 6.75171C9.31874 6.75171 9.14874 6.76171 8.98874 6.78171C7.23874 6.93171 6.46875 7.8517 6.46875 9.7717V12.9117C6.46875 15.4917 7.21876 15.9217 9.47876 15.9217H9.78876C10.1888 15.9217 10.6388 16.1417 10.8888 16.4617L11.8387 17.7317C11.8987 17.8117 11.9587 17.8517 11.9887 17.8517C12.0187 17.8517 12.0788 17.8117 12.1388 17.7317L13.0787 16.4717C13.3387 16.1217 13.7487 15.9217 14.1787 15.9217H14.4887C16.4087 15.9217 17.3288 15.1517 17.4788 13.4317C17.4988 13.2417 17.5088 13.0817 17.5088 12.9017V9.76172C17.5088 7.68172 16.5787 6.75171 14.4987 6.75171H9.48874Z" fill="#292D32"/>
<path d="M15 22.75H9C3.57 22.75 1.25 20.43 1.25 15V9C1.25 3.57 3.57 1.25 9 1.25H15C20.43 1.25 22.75 3.57 22.75 9V15C22.75 20.43 20.43 22.75 15 22.75ZM9 2.75C4.39 2.75 2.75 4.39 2.75 9V15C2.75 19.61 4.39 21.25 9 21.25H15C19.61 21.25 21.25 19.61 21.25 15V9C21.25 4.39 19.61 2.75 15 2.75H9Z" fill="#292D32"/>
</svg>
