<svg width="24" height="24" viewBox="0 0 24 24" fill="none" xmlns="http://www.w3.org/2000/svg">
<path d="M12 22.7787C11.31 22.7787 10.66 22.4287 10.2 21.8187L8.70001 19.8187C8.67001 19.7787 8.54999 19.7188 8.48999 19.7188H8C3.83 19.7188 1.25 18.5887 1.25 12.9688V7.96875C1.25 3.54875 3.58 1.21875 8 1.21875H16C20.42 1.21875 22.75 3.54875 22.75 7.96875V12.9688C22.75 13.3787 22.41 13.7188 22 13.7188C21.59 13.7188 21.25 13.3787 21.25 12.9688V7.96875C21.25 4.38875 19.58 2.71875 16 2.71875H8C4.42 2.71875 2.75 4.38875 2.75 7.96875V12.9688C2.75 17.4887 4.3 18.2188 8 18.2188H8.5C9.01 18.2188 9.59999 18.5087 9.89999 18.9187L11.4 20.9187C11.75 21.3787 12.25 21.3787 12.6 20.9187C12.85 20.5887 13.32 20.5187 13.65 20.7687C13.98 21.0187 14.05 21.4887 13.8 21.8187C13.34 22.4287 12.69 22.7787 12 22.7787Z" fill="#292D32"/>
<path d="M12 11.9688C11.44 11.9688 11 11.5188 11 10.9688C11 10.4187 11.45 9.96875 12 9.96875C12.55 9.96875 13 10.4187 13 10.9688C13 11.5188 12.56 11.9688 12 11.9688Z" fill="#292D32"/>
<path d="M16 11.9688C15.44 11.9688 15 11.5188 15 10.9688C15 10.4187 15.45 9.96875 16 9.96875C16.55 9.96875 17 10.4187 17 10.9688C17 11.5188 16.56 11.9688 16 11.9688Z" fill="#292D32"/>
<path d="M8 11.9688C7.44 11.9688 7 11.5188 7 10.9688C7 10.4187 7.45 9.96875 8 9.96875C8.55 9.96875 9 10.4187 9 10.9688C9 11.5188 8.56 11.9688 8 11.9688Z" fill="#292D32"/>
<path d="M18.2 22.15C16.02 22.15 14.25 20.38 14.25 18.2C14.25 16.02 16.02 14.25 18.2 14.25C20.38 14.25 22.15 16.02 22.15 18.2C22.15 20.38 20.38 22.15 18.2 22.15ZM18.2 15.75C16.85 15.75 15.75 16.85 15.75 18.2C15.75 19.55 16.85 20.65 18.2 20.65C19.55 20.65 20.65 19.55 20.65 18.2C20.65 16.85 19.55 15.75 18.2 15.75Z" fill="#292D32"/>
<path d="M22.0014 22.7514C21.8114 22.7514 21.6214 22.6814 21.4714 22.5314L20.4714 21.5314C20.1814 21.2414 20.1814 20.7614 20.4714 20.4714C20.7614 20.1814 21.2414 20.1814 21.5314 20.4714L22.5314 21.4714C22.8214 21.7614 22.8214 22.2414 22.5314 22.5314C22.3814 22.6814 22.1914 22.7514 22.0014 22.7514Z" fill="#292D32"/>
</svg>
