<svg width="24" height="24" viewBox="0 0 24 24" fill="none" xmlns="http://www.w3.org/2000/svg">
<path d="M3.93109 16.6311C3.74109 16.6311 3.55109 16.5611 3.40109 16.4111C3.11109 16.1211 3.11109 15.6411 3.40109 15.3511L15.3511 3.40109C15.6411 3.11109 16.1211 3.11109 16.4111 3.40109C16.7011 3.69109 16.7011 4.17109 16.4111 4.46109L4.46109 16.4211C4.32109 16.5611 4.12109 16.6311 3.93109 16.6311Z" fill="#292D32"/>
<path d="M11.0991 19.0295C10.9091 19.0295 10.7191 18.9595 10.5691 18.8095C10.2791 18.5195 10.2791 18.0395 10.5691 17.7495L11.7691 16.5495C12.0591 16.2595 12.5391 16.2595 12.8291 16.5495C13.1191 16.8395 13.1191 17.3195 12.8291 17.6095L11.6291 18.8095C11.4891 18.9495 11.2991 19.0295 11.0991 19.0295Z" fill="#292D32"/>
<path d="M13.7905 16.3406C13.6005 16.3406 13.4105 16.2706 13.2605 16.1206C12.9705 15.8306 12.9705 15.3506 13.2605 15.0606L15.6505 12.6706C15.9405 12.3806 16.4205 12.3806 16.7105 12.6706C17.0005 12.9606 17.0005 13.4406 16.7105 13.7306L14.3205 16.1206C14.1805 16.2606 13.9805 16.3406 13.7905 16.3406Z" fill="#292D32"/>
<path d="M11.0989 22.7489C10.1189 22.7489 9.13894 22.1489 7.94894 20.9589L3.03894 16.0489C0.648937 13.6589 0.658937 12.1189 3.06894 9.70894L9.70894 3.06894C12.1189 0.658937 13.6589 0.648937 16.0489 3.03894L20.9589 7.94894C23.3489 10.3389 23.3389 11.8789 20.9289 14.2889L14.2889 20.9289C13.0789 22.1389 12.0889 22.7489 11.0989 22.7489ZM12.8989 2.74894C12.3789 2.74894 11.7189 3.17894 10.7689 4.12894L4.12894 10.7689C3.17894 11.7189 2.74894 12.3789 2.74894 12.8889C2.74894 13.4089 3.14894 14.0389 4.09894 14.9889L9.00894 19.8989C9.95894 20.8489 10.5789 21.2489 11.0989 21.2489C11.0989 21.2489 11.0989 21.2489 11.1089 21.2489C11.6289 21.2489 12.2789 20.8189 13.2289 19.8689L19.8689 13.2289C20.8189 12.2789 21.2489 11.6189 21.2489 11.1089C21.2489 10.5889 20.8489 9.95894 19.8989 9.00894L14.9889 4.09894C14.0489 3.14894 13.4189 2.74894 12.8989 2.74894Z" fill="#292D32"/>
<path d="M22 22.75H2C1.59 22.75 1.25 22.41 1.25 22C1.25 21.59 1.59 21.25 2 21.25H22C22.41 21.25 22.75 21.59 22.75 22C22.75 22.41 22.41 22.75 22 22.75Z" fill="#292D32"/>
</svg>
