<svg width="24" height="24" viewBox="0 0 24 24" fill="none" xmlns="http://www.w3.org/2000/svg">
<path d="M11.5 9.25H2C1.59 9.25 1.25 8.91 1.25 8.5C1.25 8.09 1.59 7.75 2 7.75H11.5C11.91 7.75 12.25 8.09 12.25 8.5C12.25 8.91 11.91 9.25 11.5 9.25Z" fill="#292D32"/>
<path d="M8 17.25H6C5.59 17.25 5.25 16.91 5.25 16.5C5.25 16.09 5.59 15.75 6 15.75H8C8.41 15.75 8.75 16.09 8.75 16.5C8.75 16.91 8.41 17.25 8 17.25Z" fill="#292D32"/>
<path d="M14.5 17.25H10.5C10.09 17.25 9.75 16.91 9.75 16.5C9.75 16.09 10.09 15.75 10.5 15.75H14.5C14.91 15.75 15.25 16.09 15.25 16.5C15.25 16.91 14.91 17.25 14.5 17.25Z" fill="#292D32"/>
<path d="M17.56 21.25H6.44C2.46 21.25 1.25 20.05 1.25 16.11V7.89C1.25 3.95 2.46 2.75 6.44 2.75H14.5C14.91 2.75 15.25 3.09 15.25 3.5C15.25 3.91 14.91 4.25 14.5 4.25H6.44C3.3 4.25 2.75 4.79 2.75 7.89V16.1C2.75 19.2 3.3 19.74 6.44 19.74H17.55C20.69 19.74 21.24 19.2 21.24 16.1V12.02C21.24 11.61 21.58 11.27 21.99 11.27C22.4 11.27 22.74 11.61 22.74 12.02V16.1C22.75 20.05 21.54 21.25 17.56 21.25Z" fill="#292D32"/>
<path d="M15.5214 11.4381C15.1314 11.4381 14.7614 11.2981 14.5014 11.0281C14.1814 10.7081 14.0414 10.2481 14.1114 9.7681L14.3114 8.3481C14.3614 7.9881 14.5814 7.5581 14.8314 7.3081L18.5414 3.5981C20.0114 2.1281 21.2914 2.9681 21.9314 3.5981C22.5614 4.2281 23.4014 5.5081 21.9314 6.9881L18.2214 10.6981C17.9614 10.9581 17.5314 11.1681 17.1814 11.2181L15.7614 11.4181C15.6814 11.4281 15.6014 11.4381 15.5214 11.4381ZM20.2314 4.2781C20.0314 4.2781 19.8514 4.4181 19.6014 4.6581L15.9014 8.3681C15.8714 8.4081 15.8114 8.5181 15.8014 8.5681L15.6014 9.9181L16.9614 9.7281C17.0114 9.7181 17.1214 9.6581 17.1614 9.6281L20.8714 5.9181C21.3414 5.4481 21.4114 5.1881 20.8714 4.6581C20.6114 4.3981 20.4214 4.2781 20.2314 4.2781Z" fill="#292D32"/>
<path d="M20.8682 7.74152C20.7982 7.74152 20.7282 7.73152 20.6682 7.71152C19.2982 7.32152 18.2082 6.24152 17.8282 4.87152C17.7182 4.47152 17.9482 4.06152 18.3482 3.94152C18.7482 3.83152 19.1582 4.06152 19.2782 4.46152C19.5282 5.33152 20.2182 6.02152 21.0882 6.27152C21.4882 6.38152 21.7182 6.80152 21.6082 7.19152C21.4982 7.52152 21.1982 7.74152 20.8682 7.74152Z" fill="#292D32"/>
</svg>
