<svg width="24" height="24" viewBox="0 0 24 24" fill="none" xmlns="http://www.w3.org/2000/svg">
<path d="M13.4002 17.4181H10.8902C9.25016 17.4181 7.92016 16.0381 7.92016 14.3381C7.92016 13.9281 8.26016 13.5881 8.67016 13.5881C9.08016 13.5881 9.42016 13.9281 9.42016 14.3381C9.42016 15.2081 10.0802 15.9181 10.8902 15.9181H13.4002C14.0502 15.9181 14.5902 15.3381 14.5902 14.6381C14.5902 13.7681 14.2802 13.5981 13.7702 13.4181L9.74016 11.9981C8.96016 11.7281 7.91016 11.1481 7.91016 9.35812C7.91016 7.81812 9.12016 6.57812 10.6002 6.57812H13.1102C14.7502 6.57812 16.0802 7.95812 16.0802 9.65812C16.0802 10.0681 15.7402 10.4081 15.3302 10.4081C14.9202 10.4081 14.5802 10.0681 14.5802 9.65812C14.5802 8.78813 13.9202 8.07812 13.1102 8.07812H10.6002C9.95016 8.07812 9.41016 8.65812 9.41016 9.35812C9.41016 10.2281 9.72016 10.3981 10.2302 10.5781L14.2602 11.9981C15.0402 12.2681 16.0902 12.8481 16.0902 14.6381C16.0802 16.1681 14.8802 17.4181 13.4002 17.4181Z" fill="#292D32"/>
<path d="M12 18.75C11.59 18.75 11.25 18.41 11.25 18V6C11.25 5.59 11.59 5.25 12 5.25C12.41 5.25 12.75 5.59 12.75 6V18C12.75 18.41 12.41 18.75 12 18.75Z" fill="#292D32"/>
<path d="M15 22.75H9C3.57 22.75 1.25 20.43 1.25 15V9C1.25 3.57 3.57 1.25 9 1.25H15C20.43 1.25 22.75 3.57 22.75 9V15C22.75 20.43 20.43 22.75 15 22.75ZM9 2.75C4.39 2.75 2.75 4.39 2.75 9V15C2.75 19.61 4.39 21.25 9 21.25H15C19.61 21.25 21.25 19.61 21.25 15V9C21.25 4.39 19.61 2.75 15 2.75H9Z" fill="#292D32"/>
</svg>
