<svg width="24" height="24" viewBox="0 0 24 24" fill="none" xmlns="http://www.w3.org/2000/svg">
<path d="M17.74 22.7517H7.63C7.31 22.7517 7.03 22.5517 6.92 22.2617C6.81 21.9617 6.9 21.6317 7.14 21.4317C7.38 21.2317 7.59999 20.9717 7.75999 20.6917C8.07999 20.1817 8.24001 19.6017 8.24001 19.0117C8.24001 17.2217 6.78001 15.7617 4.99001 15.7617C4.25001 15.7617 3.55001 16.0117 2.96001 16.4817C2.74001 16.6617 2.43 16.6917 2.17 16.5717C1.91 16.4517 1.75 16.1817 1.75 15.8917V11.5217C1.75 9.03173 3.76999 7.01172 6.25999 7.01172H17.74C20.23 7.01172 22.25 9.03173 22.25 11.5217V12.9617C22.25 13.3717 21.91 13.7117 21.5 13.7117H19.48C19.13 13.7117 18.81 13.8417 18.58 14.0817L18.57 14.0917C18.29 14.3617 18.16 14.7317 18.19 15.1117C18.25 15.7717 18.88 16.3017 19.6 16.3017H21.5C21.91 16.3017 22.25 16.6417 22.25 17.0517V18.2417C22.25 20.7317 20.23 22.7517 17.74 22.7517ZM9.17999 21.2517H17.74C19.4 21.2517 20.75 19.9017 20.75 18.2417V17.8017H19.6C18.09 17.8017 16.81 16.6817 16.69 15.2417C16.61 14.4217 16.91 13.6117 17.51 13.0217C18.03 12.4917 18.73 12.2017 19.48 12.2017H20.75V11.5117C20.75 9.85172 19.4 8.50171 17.74 8.50171H6.25999C4.59999 8.50171 3.25 9.85172 3.25 11.5117V14.5917C3.81 14.3717 4.4 14.2517 5 14.2517C7.62 14.2517 9.75 16.3817 9.75 19.0017C9.75 19.7917 9.54999 20.5717 9.17999 21.2517Z" fill="#292D32"/>
<path d="M2.5 13.16C2.09 13.16 1.75 12.82 1.75 12.41V7.84006C1.75 6.35006 2.69 5.00001 4.08 4.47001L12.02 1.47001C12.84 1.16001 13.75 1.27005 14.46 1.77005C15.18 2.27005 15.6 3.08005 15.6 3.95005V7.75003C15.6 8.16003 15.26 8.50003 14.85 8.50003C14.44 8.50003 14.1 8.16003 14.1 7.75003V3.95005C14.1 3.57005 13.92 3.22003 13.6 3.00003C13.28 2.78003 12.9 2.73003 12.54 2.87003L4.60001 5.87003C3.79001 6.18003 3.24001 6.97006 3.24001 7.84006V12.41C3.25001 12.83 2.91 13.16 2.5 13.16Z" fill="#292D32"/>
<path d="M19.5985 17.7992C18.0885 17.7992 16.8085 16.6792 16.6885 15.2392C16.6085 14.4092 16.9085 13.5992 17.5085 13.0092C18.0185 12.4892 18.7185 12.1992 19.4685 12.1992H21.5485C22.5385 12.2292 23.2985 13.0092 23.2985 13.9692V16.0292C23.2985 16.9892 22.5385 17.7692 21.5785 17.7992H19.5985ZM21.5285 13.6992H19.4785C19.1285 13.6992 18.8085 13.8292 18.5785 14.0692C18.2885 14.3492 18.1485 14.7292 18.1885 15.1092C18.2485 15.7692 18.8785 16.2992 19.5985 16.2992H21.5585C21.6885 16.2992 21.8085 16.1792 21.8085 16.0292V13.9692C21.8085 13.8192 21.6885 13.7092 21.5285 13.6992Z" fill="#292D32"/>
<path d="M14 12.75H7C6.59 12.75 6.25 12.41 6.25 12C6.25 11.59 6.59 11.25 7 11.25H14C14.41 11.25 14.75 11.59 14.75 12C14.75 12.41 14.41 12.75 14 12.75Z" fill="#292D32"/>
<path d="M5 23.75C3.34 23.75 1.78 22.87 0.940002 21.44C0.490002 20.72 0.25 19.87 0.25 19C0.25 17.54 0.899999 16.19 2.03 15.29C2.87 14.62 3.93 14.25 5 14.25C7.62 14.25 9.75 16.38 9.75 19C9.75 19.87 9.51 20.72 9.06 21.45C8.82 21.87 8.49 22.25 8.11 22.57C7.28 23.33 6.17 23.75 5 23.75ZM5 15.75C4.26 15.75 3.56 16 2.97 16.47C2.2 17.08 1.75 18.01 1.75 19C1.75 19.59 1.91 20.17 2.22 20.67C2.81 21.67 3.85 22.25 5 22.25C5.79 22.25 6.55 21.96 7.13 21.44C7.39001 21.22 7.61 20.96 7.77 20.68C8.09 20.17 8.25 19.59 8.25 19C8.25 17.21 6.79 15.75 5 15.75Z" fill="#292D32"/>
<path d="M4.4289 20.7415C4.2389 20.7415 4.0489 20.6716 3.8989 20.5215L2.90891 19.5316C2.61891 19.2416 2.61891 18.7615 2.90891 18.4715C3.19891 18.1815 3.6789 18.1815 3.9689 18.4715L4.4489 18.9515L6.04891 17.4715C6.34891 17.1915 6.8289 17.2115 7.1089 17.5115C7.3889 17.8115 7.36891 18.2915 7.06891 18.5715L4.93891 20.5415C4.7889 20.6715 4.6089 20.7415 4.4289 20.7415Z" fill="#292D32"/>
</svg>
