<svg width="24" height="24" viewBox="0 0 24 24" fill="none" xmlns="http://www.w3.org/2000/svg">
<path d="M19.42 11.75H16C15.59 11.75 15.25 11.41 15.25 11V4.01C15.25 3.27 15.54 2.58 16.06 2.06C16.58 1.54 17.27 1.25 18.01 1.25H18.02C19.27 1.26 20.45 1.75 21.35 2.64C22.25 3.55 22.74 4.75 22.74 6V8.42C22.75 10.41 21.41 11.75 19.42 11.75ZM16.75 10.25H19.42C20.58 10.25 21.25 9.58 21.25 8.42V6C21.25 5.14 20.91 4.32 20.3 3.7C19.69 3.1 18.88 2.76 18.02 2.75C18.02 2.75 18.02 2.75 18.01 2.75C17.68 2.75 17.36 2.88 17.12 3.12C16.88 3.36 16.75 3.67 16.75 4.01V10.25Z" fill="#292D32"/>
<path d="M8.9978 23.33C8.5278 23.33 8.08781 23.15 7.75781 22.81L6.09778 21.14C6.00778 21.05 5.86782 21.04 5.76782 21.12L4.0578 22.4C3.5278 22.8 2.82778 22.87 2.22778 22.57C1.62778 22.27 1.25781 21.67 1.25781 21V6C1.25781 2.98 2.98781 1.25 6.00781 1.25H18.0078C18.4178 1.25 18.7578 1.59 18.7578 2C18.7578 2.41 18.4178 2.75 18.0078 2.75C17.3178 2.75 16.7578 3.31 16.7578 4V21C16.7578 21.67 16.3878 22.27 15.7878 22.57C15.1978 22.87 14.4878 22.8 13.9578 22.4L12.2478 21.12C12.1478 21.04 12.0078 21.06 11.9278 21.14L10.2478 22.82C9.9078 23.15 9.4678 23.33 8.9978 23.33ZM5.90778 19.57C6.36778 19.57 6.81778 19.74 7.15778 20.09L8.81781 21.76C8.87781 21.82 8.9578 21.83 8.9978 21.83C9.0378 21.83 9.1178 21.82 9.1778 21.76L10.8578 20.08C11.4778 19.46 12.4578 19.4 13.1478 19.93L14.8478 21.2C14.9578 21.28 15.0578 21.25 15.1078 21.22C15.1578 21.19 15.2478 21.13 15.2478 21V4C15.2478 3.55 15.3578 3.12 15.5478 2.75H5.9978C3.7778 2.75 2.7478 3.78 2.7478 6V21C2.7478 21.14 2.83782 21.2 2.88782 21.23C2.94782 21.26 3.04783 21.28 3.14783 21.2L4.85779 19.92C5.16779 19.69 5.53778 19.57 5.90778 19.57Z" fill="#292D32"/>
<path d="M12 9.75H6C5.59 9.75 5.25 9.41 5.25 9C5.25 8.59 5.59 8.25 6 8.25H12C12.41 8.25 12.75 8.59 12.75 9C12.75 9.41 12.41 9.75 12 9.75Z" fill="#292D32"/>
<path d="M11.25 13.75H6.75C6.34 13.75 6 13.41 6 13C6 12.59 6.34 12.25 6.75 12.25H11.25C11.66 12.25 12 12.59 12 13C12 13.41 11.66 13.75 11.25 13.75Z" fill="#292D32"/>
</svg>
