<svg width="24" height="24" viewBox="0 0 24 24" fill="none" xmlns="http://www.w3.org/2000/svg">
<path d="M17 22.75H7C3.56 22.75 1.25 20.44 1.25 17V12C1.25 8.92 3.15 6.69001 6.1 6.32001C6.38 6.28001 6.69 6.25 7 6.25H17C17.24 6.25 17.55 6.26 17.87 6.31C20.82 6.65 22.75 8.89 22.75 12V17C22.75 20.44 20.44 22.75 17 22.75ZM7 7.75C6.76 7.75 6.53 7.76999 6.3 7.79999C4.1 8.07999 2.75 9.68 2.75 12V17C2.75 19.58 4.42 21.25 7 21.25H17C19.58 21.25 21.25 19.58 21.25 17V12C21.25 9.66 19.88 8.05001 17.66 7.79001C17.42 7.75001 17.21 7.75 17 7.75H7Z" fill="#292D32"/>
<path d="M6.192 7.81141C5.952 7.81141 5.732 7.70142 5.582 7.50142C5.412 7.27142 5.392 6.97142 5.522 6.72142C5.692 6.38142 5.932 6.05142 6.242 5.75142L9.492 2.49141C11.152 0.841406 13.852 0.841406 15.512 2.49141L17.262 4.26143C18.002 4.99143 18.452 5.97143 18.502 7.01143C18.512 7.24143 18.422 7.4614 18.252 7.6114C18.082 7.7614 17.852 7.83142 17.632 7.79142C17.432 7.76142 17.222 7.75142 17.002 7.75142H7.002C6.762 7.75142 6.532 7.7714 6.302 7.8014C6.272 7.8114 6.232 7.81141 6.192 7.81141ZM7.862 6.25142H16.822C16.692 5.91142 16.482 5.60142 16.202 5.32142L14.442 3.54142C13.372 2.48142 11.622 2.48142 10.542 3.54142L7.862 6.25142Z" fill="#292D32"/>
<path d="M22 17.25H19C17.48 17.25 16.25 16.02 16.25 14.5C16.25 12.98 17.48 11.75 19 11.75H22C22.41 11.75 22.75 12.09 22.75 12.5C22.75 12.91 22.41 13.25 22 13.25H19C18.31 13.25 17.75 13.81 17.75 14.5C17.75 15.19 18.31 15.75 19 15.75H22C22.41 15.75 22.75 16.09 22.75 16.5C22.75 16.91 22.41 17.25 22 17.25Z" fill="#292D32"/>
</svg>
