<svg width="24" height="24" viewBox="0 0 24 24" fill="none" xmlns="http://www.w3.org/2000/svg">
<path d="M17.0005 22.75H7.63049C7.31049 22.75 7.03047 22.55 6.92047 22.26C6.81047 21.97 6.9005 21.63 7.1405 21.43C7.3805 21.23 7.6005 20.97 7.7605 20.69C8.0805 20.18 8.24048 19.6 8.24048 19.01C8.24048 17.22 6.78048 15.76 4.99048 15.76C4.06048 15.76 3.17048 16.16 2.55048 16.87C2.34048 17.1 2.01046 17.19 1.72046 17.08C1.43046 16.97 1.23047 16.69 1.23047 16.38V12C1.23047 8.92 3.13051 6.69001 6.08051 6.32001C6.35051 6.28001 6.66047 6.25 6.98047 6.25H16.9805C17.2205 6.25 17.5305 6.26 17.8505 6.31C20.8005 6.65 22.7305 8.89 22.7305 12V17C22.7505 20.44 20.4405 22.75 17.0005 22.75ZM9.18048 21.25H17.0005C19.5805 21.25 21.2505 19.58 21.2505 17V12C21.2505 9.66 19.8805 8.04998 17.6605 7.78998C17.4205 7.74998 17.2105 7.75 17.0005 7.75H7.00049C6.76049 7.75 6.53048 7.76999 6.30048 7.79999C4.10048 8.07999 2.75049 9.68 2.75049 12V14.82C3.43049 14.45 4.21049 14.25 5.00049 14.25C7.62049 14.25 9.75049 16.38 9.75049 19C9.75049 19.79 9.55048 20.57 9.18048 21.25Z" fill="#292D32"/>
<path d="M6.19198 7.81141C5.95198 7.81141 5.732 7.70142 5.582 7.50142C5.412 7.27142 5.392 6.97139 5.522 6.72139C5.692 6.38139 5.93197 6.05142 6.24197 5.75142L9.49197 2.49141C11.152 0.841406 13.852 0.841406 15.512 2.49141L17.262 4.27144C18.002 5.00144 18.452 5.98144 18.502 7.02144C18.512 7.25144 18.422 7.47141 18.252 7.62141C18.082 7.77141 17.852 7.8414 17.632 7.8014C17.432 7.7714 17.222 7.76143 17.002 7.76143H7.00198C6.76198 7.76143 6.53197 7.78141 6.30197 7.81141C6.27197 7.81141 6.23198 7.81141 6.19198 7.81141ZM7.86197 6.25142H16.822C16.692 5.91142 16.482 5.60142 16.202 5.32142L14.442 3.54139C13.372 2.48139 11.622 2.48139 10.542 3.54139L7.86197 6.25142Z" fill="#292D32"/>
<path d="M22 17.25H19C17.48 17.25 16.25 16.02 16.25 14.5C16.25 12.98 17.48 11.75 19 11.75H22C22.41 11.75 22.75 12.09 22.75 12.5C22.75 12.91 22.41 13.25 22 13.25H19C18.31 13.25 17.75 13.81 17.75 14.5C17.75 15.19 18.31 15.75 19 15.75H22C22.41 15.75 22.75 16.09 22.75 16.5C22.75 16.91 22.41 17.25 22 17.25Z" fill="#292D32"/>
<path d="M5 23.75C3.34 23.75 1.78 22.87 0.940002 21.44C0.490002 20.72 0.25 19.87 0.25 19C0.25 17.85 0.670002 16.74 1.44 15.87C2.34 14.84 3.64 14.25 5 14.25C7.62 14.25 9.75 16.38 9.75 19C9.75 19.87 9.51 20.72 9.06 21.45C8.81 21.87 8.48999 22.25 8.10999 22.57C7.27999 23.33 6.17 23.75 5 23.75ZM5 15.75C4.07 15.75 3.18 16.15 2.56 16.86C2.04 17.46 1.75 18.22 1.75 19C1.75 19.59 1.90997 20.17 2.21997 20.67C2.79997 21.65 3.87 22.25 5 22.25C5.79 22.25 6.55 21.96 7.13 21.44C7.39001 21.22 7.61002 20.96 7.77002 20.68C8.09002 20.17 8.25 19.59 8.25 19C8.25 17.21 6.79 15.75 5 15.75Z" fill="#292D32"/>
<path d="M6.06845 20.791C5.87845 20.791 5.68842 20.7211 5.53842 20.5711L3.42844 18.4611C3.13844 18.1711 3.13844 17.6911 3.42844 17.4011C3.71844 17.1111 4.19844 17.1111 4.48844 17.4011L6.59842 19.5111C6.88842 19.8011 6.88842 20.2811 6.59842 20.5711C6.44842 20.7211 6.25845 20.791 6.06845 20.791Z" fill="#292D32"/>
<path d="M3.93106 20.8185C3.74106 20.8185 3.55109 20.7484 3.40109 20.5984C3.11109 20.3084 3.11109 19.8284 3.40109 19.5384L5.51108 17.4284C5.80108 17.1384 6.28108 17.1384 6.57108 17.4284C6.86108 17.7184 6.86108 18.1984 6.57108 18.4884L4.46109 20.5984C4.31109 20.7484 4.12106 20.8185 3.93106 20.8185Z" fill="#292D32"/>
</svg>
