<svg width="24" height="24" viewBox="0 0 24 24" fill="none" xmlns="http://www.w3.org/2000/svg">
<path d="M18 18.8617H17.24C16.44 18.8617 15.68 19.1717 15.12 19.7317L13.41 21.4218C12.63 22.1918 11.36 22.1918 10.58 21.4218L8.87 19.7317C8.31 19.1717 7.54 18.8617 6.75 18.8617H6C4.34 18.8617 3 17.5317 3 15.8917V4.98169C3 3.34169 4.34 2.01172 6 2.01172H18C19.66 2.01172 21 3.34169 21 4.98169V15.8917C21 17.5217 19.66 18.8617 18 18.8617Z" stroke="#292D32" stroke-width="1.5" stroke-miterlimit="10" stroke-linecap="round" stroke-linejoin="round"/>
<path opacity="0.4" d="M7 9.15881C7 8.22881 7.76 7.46875 8.69 7.46875C9.62 7.46875 10.38 8.22881 10.38 9.15881C10.38 11.0388 7.71 11.2388 7.12 13.0288C7 13.3988 7.31 13.7688 7.7 13.7688H10.38" stroke="#292D32" stroke-width="1.5" stroke-linecap="round" stroke-linejoin="round"/>
<path opacity="0.4" d="M16.0398 13.7608V8.05088C16.0398 7.79088 15.8698 7.56083 15.6198 7.49083C15.3698 7.42083 15.0998 7.52083 14.9598 7.74083C14.2398 8.90083 13.4598 10.2208 12.7798 11.3808C12.6698 11.5708 12.6698 11.8208 12.7798 12.0108C12.8898 12.2008 13.0998 12.3208 13.3298 12.3208H16.9998" stroke="#292D32" stroke-width="1.5" stroke-linecap="round" stroke-linejoin="round"/>
</svg>
