<svg width="24" height="24" viewBox="0 0 24 24" fill="none" xmlns="http://www.w3.org/2000/svg">
<path d="M5.64999 7.64999L2 4H7L13 10H8.5C6.57 10 5 11.57 5 13.5C5 15.43 6.57 17 8.5 17H10L13 20H8.5C4.91 20 2 17.09 2 13.5C2 11.01 3.4 8.84 5.47 7.75L5.64999 7.64999Z" stroke="black" stroke-width="1.5" stroke-miterlimit="10" stroke-linecap="round" stroke-linejoin="round"/>
<path opacity="0.4" d="M18.35 16.35L22 20H17L11 14H15.5C17.43 14 19 12.43 19 10.5C19 8.57 17.43 7 15.5 7H14L11 4H15.5C19.09 4 22 6.91 22 10.5C22 12.99 20.6 15.16 18.53 16.25L18.35 16.35Z" stroke="black" stroke-width="1.5" stroke-miterlimit="10" stroke-linecap="round" stroke-linejoin="round"/>
</svg>
