<svg width="24" height="24" viewBox="0 0 24 24" fill="none" xmlns="http://www.w3.org/2000/svg">
<path d="M10.4504 3.05006L6.7204 7.71006C5.8704 8.77006 6.1704 10.1301 7.3804 10.7301L11.1104 12.6001C11.6004 12.8401 12.4004 12.8401 12.8904 12.6001L16.6204 10.7301C17.8304 10.1201 18.1304 8.76006 17.2804 7.71006L13.5504 3.05006C12.7004 1.98006 11.3004 1.98006 10.4504 3.05006Z" stroke="black" stroke-width="1.5" stroke-miterlimit="10" stroke-linecap="round" stroke-linejoin="round"/>
<path d="M12 2.2998V7.5598" stroke="black" stroke-width="1.5" stroke-miterlimit="10" stroke-linecap="round" stroke-linejoin="round"/>
<path d="M7.7998 10.7101L11.9998 7.56006L16.1998 10.7101" stroke="black" stroke-width="1.5" stroke-miterlimit="10" stroke-linecap="round" stroke-linejoin="round"/>
<path opacity="0.4" d="M8.77011 14.4301L10.3801 15.1501C11.4101 15.6101 12.5901 15.6101 13.6301 15.1501L15.2401 14.4301C16.6801 13.7901 18.0101 15.5301 17.0101 16.7501L13.5501 20.9801C12.7001 22.0201 11.3101 22.0201 10.4501 20.9801L7.00011 16.7501C5.99011 15.5301 7.32011 13.7901 8.77011 14.4301Z" stroke="black" stroke-width="1.5" stroke-miterlimit="10" stroke-linecap="round" stroke-linejoin="round"/>
</svg>
