<svg width="24" height="24" viewBox="0 0 24 24" fill="none" xmlns="http://www.w3.org/2000/svg">
<path d="M20.0002 3.5H5.50017C5.19017 3.5 4.89018 3.65 4.70018 3.9L3.20018 5.9C2.71018 6.56 3.18017 7.5 4.00017 7.5H18.5002C18.8102 7.5 19.1102 7.35 19.3002 7.1L20.8002 5.1C21.2902 4.44 20.8202 3.5 20.0002 3.5Z" stroke="black" stroke-width="1.5" stroke-miterlimit="10"/>
<path opacity="0.4" d="M4.00017 10H18.5002C18.8102 10 19.1102 10.15 19.3002 10.4L20.8002 12.4C21.2902 13.06 20.8202 14 20.0002 14H5.50017C5.19017 14 4.89018 13.85 4.70018 13.6L3.20018 11.6C2.71018 10.94 3.18017 10 4.00017 10Z" stroke="black" stroke-width="1.5" stroke-miterlimit="10"/>
<path d="M20.0002 16.5H5.50017C5.19017 16.5 4.89018 16.65 4.70018 16.9L3.20018 18.9C2.71018 19.56 3.18017 20.5 4.00017 20.5H18.5002C18.8102 20.5 19.1102 20.35 19.3002 20.1L20.8002 18.1C21.2902 17.44 20.8202 16.5 20.0002 16.5Z" stroke="black" stroke-width="1.5" stroke-miterlimit="10"/>
</svg>
