<svg width="24" height="24" viewBox="0 0 24 24" fill="none" xmlns="http://www.w3.org/2000/svg">
<path d="M1 22H23" stroke="#292D32" stroke-width="1.5" stroke-miterlimit="10" stroke-linecap="round" stroke-linejoin="round"/>
<path d="M19.78 22.0101V17.55" stroke="#292D32" stroke-width="1.5" stroke-miterlimit="10" stroke-linecap="round" stroke-linejoin="round"/>
<path d="M19.8001 10.8901C18.5801 10.8901 17.6001 11.8701 17.6001 13.0901V15.3601C17.6001 16.5801 18.5801 17.5601 19.8001 17.5601C21.0201 17.5601 22.0001 16.5801 22.0001 15.3601V13.0901C22.0001 11.8701 21.0201 10.8901 19.8001 10.8901Z" stroke="#292D32" stroke-width="1.5" stroke-miterlimit="10" stroke-linecap="round" stroke-linejoin="round"/>
<path d="M2.1001 22V6.03003C2.1001 4.02003 3.10015 3.01001 5.09015 3.01001H11.3201C13.3101 3.01001 14.3001 4.02003 14.3001 6.03003V22" stroke="#292D32" stroke-width="1.5" stroke-miterlimit="10" stroke-linecap="round" stroke-linejoin="round"/>
<path d="M5.80005 8.25H10.7501" stroke="#292D32" stroke-width="1.5" stroke-miterlimit="10" stroke-linecap="round" stroke-linejoin="round"/>
<path d="M5.80005 12H10.7501" stroke="#292D32" stroke-width="1.5" stroke-miterlimit="10" stroke-linecap="round" stroke-linejoin="round"/>
<path d="M8.25 22V18.25" stroke="#292D32" stroke-width="1.5" stroke-miterlimit="10" stroke-linecap="round" stroke-linejoin="round"/>
</svg>
