<svg width="24" height="24" viewBox="0 0 24 24" fill="none" xmlns="http://www.w3.org/2000/svg">
<path opacity="0.4" d="M16.19 2H7.81C4.17 2 2 4.17 2 7.81V16.18C2 19.83 4.17 22 7.81 22H16.18C19.82 22 21.99 19.83 21.99 16.19V7.81C22 4.17 19.83 2 16.19 2Z" fill="#292D32"/>
<path d="M2.75 9.97C2.34 9.97 2 9.64 2 9.22V6.91C2 4.2 4.2 2 6.91 2H9.22C9.63 2 9.97 2.34 9.97 2.75C9.97 3.16 9.64 3.5 9.22 3.5H6.91C5.03 3.5 3.5 5.03 3.5 6.91V9.22C3.5 9.64 3.16 9.97 2.75 9.97Z" fill="#292D32"/>
<path d="M21.2493 9.97C20.8393 9.97 20.4993 9.63 20.4993 9.22V6.91C20.4993 5.03 18.9693 3.5 17.0893 3.5H14.7793C14.3693 3.5 14.0293 3.16 14.0293 2.75C14.0293 2.34 14.3593 2 14.7793 2H17.0893C19.7993 2 21.9993 4.2 21.9993 6.91V9.22C21.9993 9.64 21.6593 9.97 21.2493 9.97Z" fill="#292D32"/>
<path d="M17.0892 21.9992H15.6992C15.2892 21.9992 14.9492 21.6592 14.9492 21.2492C14.9492 20.8392 15.2892 20.4992 15.6992 20.4992H17.0892C18.9692 20.4992 20.4992 18.9692 20.4992 17.0892V15.6992C20.4992 15.2892 20.8392 14.9492 21.2492 14.9492C21.6592 14.9492 21.9992 15.2892 21.9992 15.6992V17.0892C21.9992 19.7992 19.7992 21.9992 17.0892 21.9992Z" fill="#292D32"/>
<path d="M9.22 22.0013H6.91C4.2 22.0013 2 19.8013 2 17.0913V14.7812C2 14.3713 2.34 14.0312 2.75 14.0312C3.16 14.0312 3.5 14.3713 3.5 14.7812V17.0913C3.5 18.9713 5.03 20.5013 6.91 20.5013H9.22C9.63 20.5013 9.97 20.8413 9.97 21.2513C9.97 21.6613 9.64 22.0013 9.22 22.0013Z" fill="#292D32"/>
</svg>
