<svg width="24" height="24" viewBox="0 0 24 24" fill="none" xmlns="http://www.w3.org/2000/svg">
<path d="M20.97 10.37V13.56C20.97 15.88 19.09 17.76 16.77 17.76H13.21C12.66 17.76 12.21 18.2 12.21 18.76V19.58C12.21 20.13 12.66 20.58 13.21 20.58H15.47C15.86 20.58 16.18 20.89 16.18 21.29C16.18 21.68 15.86 22 15.47 22H7.53C7.14 22 6.82 21.68 6.82 21.29C6.82 20.89 7.14 20.58 7.53 20.58H9.79C10.34 20.58 10.79 20.13 10.79 19.58V18.76C10.79 18.2 10.34 17.76 9.79 17.76H6.19C3.88 17.76 2 15.88 2 13.56V7.19C2 4.88 3.88 3 6.19 3H10.5C11.05 3 11.5 3.45 11.5 4V6.15C11.5 8.08 12.79 9.37 14.71 9.37H19.97C20.52 9.37 20.97 9.82 20.97 10.37Z" fill="#292D32"/>
<path d="M21.99 2.35962L20.86 3.14962V2.72962C20.86 1.77962 20.09 1.01962 19.15 1.01962H14.87C13.84 1.00962 13 1.84962 13 2.87962V6.15962C13 7.01962 13.43 7.86962 14.71 7.86962H19.14C20.09 7.86962 20.85 7.09962 20.85 6.15962V5.72962L21.98 6.51962C22.55 6.90962 23 6.66962 23 5.98962V2.88962C23 2.20962 22.55 1.97962 21.99 2.35962Z" fill="#292D32"/>
</svg>
