<svg width="24" height="24" viewBox="0 0 24 24" fill="none" xmlns="http://www.w3.org/2000/svg">
<path d="M9.5 19.5V18H4.5C3.95 18 3.45 17.78 3.09 17.41C2.72 17.05 2.5 16.55 2.5 16C2.5 14.97 3.3 14.11 4.31 14.01C4.37 14 4.43 14 4.5 14H19.5C19.57 14 19.63 14 19.69 14.01C20.17 14.05 20.59 14.26 20.91 14.59C21.32 14.99 21.54 15.56 21.49 16.18C21.4 17.23 20.45 18 19.39 18H14.5V19.5C14.5 20.88 13.38 22 12 22C10.62 22 9.5 20.88 9.5 19.5Z" fill="#292D32"/>
<path opacity="0.4" d="M20.1702 5.3L19.6902 14.01C19.6302 14 19.5702 14 19.5002 14H4.50016C4.43016 14 4.37016 14 4.31016 14.01L3.83016 5.3C3.65016 3.53 5.04016 2 6.81016 2H17.1902C18.9602 2 20.3502 3.53 20.1702 5.3Z" fill="#292D32"/>
<path d="M8.74023 2V7C8.74023 7.41 8.40023 7.75 7.99023 7.75C7.58023 7.75 7.24023 7.41 7.24023 7V2H8.74023Z" fill="#292D32"/>
<path d="M12.75 2V4C12.75 4.41 12.41 4.75 12 4.75C11.59 4.75 11.25 4.41 11.25 4V2H12.75Z" fill="#292D32"/>
</svg>
