<svg width="24" height="24" viewBox="0 0 24 24" fill="none" xmlns="http://www.w3.org/2000/svg">
<path d="M21.0303 22H13.9902C13.5702 22 13.2402 21.66 13.2402 21.25C13.2402 20.84 13.5802 20.5 13.9902 20.5H21.0303C21.4503 20.5 21.7803 20.84 21.7803 21.25C21.7803 21.66 21.4503 22 21.0303 22Z" fill="#292D32"/>
<path opacity="0.4" d="M15.41 16.3381L10.66 21.0881C9.54997 22.1981 7.77002 22.2581 6.59002 21.2681C6.52002 21.2081 6.46002 21.1481 6.40002 21.0881L5.53003 20.2181L3.73999 18.4281L2.88 17.5681C2.81 17.4981 2.75 17.4281 2.69 17.3581C1.71 16.1781 1.78 14.4181 2.88 13.3181L6.57 9.63813L7.63 8.57812L15.41 16.3381Z" fill="#292D32"/>
<path d="M21.1208 10.6414L15.4108 16.3414L7.63086 8.58141L13.3409 2.88141C14.5109 1.71141 16.4308 1.71141 17.6008 2.88141L21.1208 6.39141C22.2908 7.56141 22.2908 9.47141 21.1208 10.6414Z" fill="#292D32"/>
</svg>
