<svg width="24" height="24" viewBox="0 0 24 24" fill="none" xmlns="http://www.w3.org/2000/svg">
<path opacity="0.4" d="M20.95 14.55L18.28 17.22L17.22 18.28L14.55 20.95C13.15 22.35 10.85 22.35 9.45002 20.95L6.78001 18.28L5.72001 17.22L3.05 14.55C1.65 13.15 1.65 10.85 3.05 9.45002L5.72001 6.78001L6.78001 5.72001L9.45002 3.05C10.85 1.65 13.15 1.65 14.55 3.05L17.22 5.72001L18.28 6.78001L20.95 9.45002C22.35 10.85 22.35 13.15 20.95 14.55Z" fill="#292D32"/>
<path d="M13.0607 11.9987L18.2807 17.2188L17.2207 18.2787L12.0007 13.0587L6.7807 18.2787L5.7207 17.2188L10.9407 11.9987L5.7207 6.77875L6.7807 5.71875L12.0007 10.9388L17.2207 5.71875L18.2807 6.77875L13.0607 11.9987Z" fill="#292D32"/>
</svg>
