<svg width="24" height="24" viewBox="0 0 24 24" fill="none" xmlns="http://www.w3.org/2000/svg">
<path opacity="0.4" d="M21.9693 12.0013C21.9693 14.9413 20.6893 17.6012 18.6493 19.4112C16.8893 21.0112 14.5593 21.9712 11.9993 21.9712C6.4993 21.9712 2.0293 17.5013 2.0293 12.0013C2.0293 6.50125 6.4993 2.03125 11.9993 2.03125C14.5593 2.03125 16.8893 2.99125 18.6493 4.59125C20.6893 6.40125 21.9693 9.06125 21.9693 12.0013Z" fill="#292D32"/>
<path d="M11.9693 16.3883C11.9493 18.0383 10.7193 18.4383 9.5693 17.9783C7.1993 17.0283 5.5293 14.7083 5.5293 11.9983C5.5293 9.28829 7.1993 6.96829 9.5693 6.00829C10.7193 5.54829 11.9493 5.95829 11.9693 7.59829V16.3883Z" fill="#292D32"/>
</svg>
