<svg width="24" height="24" viewBox="0 0 24 24" fill="none" xmlns="http://www.w3.org/2000/svg">
<path d="M14.1506 22.0016H9.87057C8.34057 22.0016 7.20057 20.7616 7.49057 19.4316L8.19057 16.3516H15.8306L16.5306 19.4316C16.8506 20.8416 15.7806 22.0016 14.1506 22.0016Z" fill="#292D32"/>
<path opacity="0.4" d="M18.7692 13.7397L15.8292 16.3497H8.18916L5.24916 13.7397C3.53916 12.3397 3.53916 11.2597 4.83916 9.60969L10.0292 3.03969C10.3892 2.58969 10.8092 2.27969 11.2592 2.11969C11.7492 1.94969 12.2692 1.94969 12.7592 2.11969C13.2092 2.27969 13.6292 2.58969 13.9892 3.03969L19.1792 9.60969C20.4792 11.2597 20.4192 12.2797 18.7692 13.7397Z" fill="#292D32"/>
<path d="M12.7598 2.11969V6.96969C12.7598 7.37969 12.4198 7.71969 12.0098 7.71969C11.5998 7.71969 11.2598 7.37969 11.2598 6.96969V2.11969C11.7498 1.94969 12.2698 1.94969 12.7598 2.11969Z" fill="#292D32"/>
</svg>
