<svg width="24" height="24" viewBox="0 0 24 24" fill="none" xmlns="http://www.w3.org/2000/svg">
<path d="M2 15H18.5C20.43 15 22 16.57 22 18.5C22 20.43 20.43 22 18.5 22C16.57 22 15 20.43 15 18.5V18" stroke="#292D32" stroke-width="1.5" stroke-miterlimit="10" stroke-linecap="round" stroke-linejoin="round"/>
<path opacity="0.4" d="M2 12H18.5C20.42 12 22 10.43 22 8.5C22 6.58 20.42 5 18.5 5C16.58 5 15 6.57 15 8.5V9" stroke="#292D32" stroke-width="1.5" stroke-miterlimit="10" stroke-linecap="round" stroke-linejoin="round"/>
<path d="M2 9.00109H9.31C10.8 9.00109 12 7.79109 12 6.31109C12 4.82109 10.79 3.62109 9.31 3.62109C7.82 3.62109 6.62 4.83109 6.62 6.31109V6.69109" stroke="#292D32" stroke-width="1.5" stroke-miterlimit="10" stroke-linecap="round" stroke-linejoin="round"/>
</svg>
