<svg width="24" height="24" viewBox="0 0 24 24" fill="none" xmlns="http://www.w3.org/2000/svg">
<path d="M13.4 14.6002C13.21 14.6002 13.02 14.5302 12.87 14.3802L11.47 12.9802C11.33 12.8402 11.25 12.6502 11.25 12.4502V9.66016C11.25 9.25016 11.59 8.91016 12 8.91016C12.41 8.91016 12.75 9.25016 12.75 9.66016V12.1402L13.93 13.3202C14.22 13.6102 14.22 14.0902 13.93 14.3802C13.78 14.5302 13.59 14.6002 13.4 14.6002Z" fill="#292D32"/>
<path d="M12 19.25C10.41 19.25 8.91 18.75 7.65 17.8C7.62 17.78 7.6 17.77 7.57 17.75C5.78 16.36 4.75 14.26 4.75 12C4.75 8 8 4.75 12 4.75C16 4.75 19.25 8 19.25 12C19.25 14.25 18.23 16.33 16.46 17.72C16.43 17.74 16.41 17.76 16.38 17.78C15.11 18.74 13.6 19.25 12 19.25ZM8.43 16.51C8.46 16.53 8.48 16.54 8.5 16.56C10.53 18.13 13.51 18.12 15.53 16.54C15.55 16.52 15.58 16.5 15.6 16.49C16.97 15.39 17.75 13.76 17.75 12C17.75 8.83 15.17 6.25 12 6.25C8.83 6.25 6.25 8.83 6.25 12C6.25 13.77 7.04 15.41 8.43 16.51Z" fill="#292D32"/>
<path d="M12.5506 22.7496H11.4606C9.50057 22.7496 8.30057 21.7796 7.79057 19.7696L7.29057 17.2996C7.25057 17.0796 7.30057 16.8496 7.45057 16.6796C7.60057 16.5096 7.81057 16.4096 8.03057 16.4096H8.04057C8.21057 16.4096 8.37057 16.4596 8.50057 16.5696C10.5306 18.1396 13.5106 18.1296 15.5306 16.5496C15.8406 16.3096 16.3306 16.3596 16.5806 16.6696C16.7206 16.8396 16.7806 17.0696 16.7406 17.2896L16.2306 19.7596C15.7006 21.7796 14.5006 22.7496 12.5506 22.7496ZM9.09057 18.6396L9.25057 19.4396C9.63057 20.9396 10.4106 21.2496 11.4606 21.2496H12.5506C13.5906 21.2496 14.3706 20.9396 14.7606 19.4196L14.9206 18.6396C13.1106 19.4396 10.9106 19.4496 9.09057 18.6396Z" fill="#292D32"/>
<path d="M15.9993 7.62C15.8293 7.62 15.6593 7.56 15.5293 7.46C13.5093 5.88 10.5293 5.87 8.49927 7.44C8.18927 7.68 7.69927 7.63 7.45927 7.33C7.31927 7.16 7.25927 6.93 7.29927 6.71L7.78927 4.27C8.29927 2.22 9.49927 1.25 11.4593 1.25H12.5493C14.4993 1.25 15.6993 2.22 16.2093 4.21L16.7293 6.72C16.7793 6.94 16.7193 7.17 16.5793 7.34C16.4393 7.52 16.2293 7.62 15.9993 7.62ZM11.9993 4.75C13.0293 4.75 14.0093 4.96 14.9193 5.36L14.7493 4.55C14.3593 3.07 13.5893 2.75 12.5493 2.75H11.4593C10.4093 2.75 9.62927 3.06 9.24927 4.6L9.08927 5.36C9.99927 4.96 10.9793 4.75 11.9993 4.75Z" fill="#292D32"/>
</svg>
