<svg width="24" height="24" viewBox="0 0 24 24" fill="none" xmlns="http://www.w3.org/2000/svg">
<path d="M9.6 20.75C5.21 20.75 3.25 18.79 3.25 14.4V9.6C3.25 5.21 5.21 3.25 9.6 3.25H14.4C18.79 3.25 20.75 5.21 20.75 9.6C20.75 10.01 20.41 10.35 20 10.35C19.59 10.35 19.25 10.01 19.25 9.6C19.25 6.02 17.98 4.75 14.4 4.75H9.6C6.02 4.75 4.75 6.02 4.75 9.6V14.4C4.75 17.98 6.02 19.25 9.6 19.25C10.01 19.25 10.35 19.59 10.35 20C10.35 20.41 10.01 20.75 9.6 20.75Z" fill="#292D32"/>
<path d="M7.99023 17.1C7.83023 17.1 7.66023 17.05 7.52023 16.94C6.65023 16.25 6.24023 15.15 6.24023 13.5V10.5C6.24023 7.6 7.59023 6.25 10.4902 6.25H13.4902C15.1402 6.25 16.2302 6.66 16.9302 7.53C17.1902 7.85 17.1302 8.33 16.8102 8.58C16.4902 8.84 16.0102 8.79 15.7602 8.46C15.5202 8.15 15.0202 7.75 13.5002 7.75H10.5002C8.42023 7.75 7.75023 8.42 7.75023 10.5V13.5C7.75023 15.02 8.16023 15.52 8.46023 15.76C8.78023 16.02 8.84023 16.49 8.58023 16.81C8.43023 17 8.21023 17.1 7.99023 17.1Z" fill="#292D32"/>
<path d="M8.00977 4.75C7.58977 4.75 7.25977 4.41 7.25977 4V2C7.25977 1.59 7.59977 1.25 8.00977 1.25C8.41977 1.25 8.75977 1.59 8.75977 2V4C8.75977 4.41 8.41977 4.75 8.00977 4.75Z" fill="#292D32"/>
<path d="M12 4.75C11.59 4.75 11.25 4.41 11.25 4V2C11.25 1.59 11.59 1.25 12 1.25C12.41 1.25 12.75 1.59 12.75 2V4C12.75 4.41 12.41 4.75 12 4.75Z" fill="#292D32"/>
<path d="M16 4.75C15.59 4.75 15.25 4.41 15.25 4V2C15.25 1.59 15.59 1.25 16 1.25C16.41 1.25 16.75 1.59 16.75 2V4C16.75 4.41 16.41 4.75 16 4.75Z" fill="#292D32"/>
<path d="M22 8.75H20C19.59 8.75 19.25 8.41 19.25 8C19.25 7.59 19.59 7.25 20 7.25H22C22.41 7.25 22.75 7.59 22.75 8C22.75 8.41 22.42 8.75 22 8.75Z" fill="#292D32"/>
<path d="M8.00977 22.75C7.59977 22.75 7.25977 22.41 7.25977 22V20C7.25977 19.59 7.59977 19.25 8.00977 19.25C8.41977 19.25 8.75977 19.59 8.75977 20V22C8.75977 22.41 8.41977 22.75 8.00977 22.75Z" fill="#292D32"/>
<path d="M4 8.75H2C1.59 8.75 1.25 8.42 1.25 8C1.25 7.58 1.59 7.25 2 7.25H4C4.41 7.25 4.75 7.59 4.75 8C4.75 8.41 4.42 8.75 4 8.75Z" fill="#292D32"/>
<path d="M4 12.75H2C1.59 12.75 1.25 12.41 1.25 12C1.25 11.59 1.59 11.25 2 11.25H4C4.41 11.25 4.75 11.59 4.75 12C4.75 12.41 4.42 12.75 4 12.75Z" fill="#292D32"/>
<path d="M4 16.75H2C1.59 16.75 1.25 16.41 1.25 16C1.25 15.59 1.59 15.25 2 15.25H4C4.41 15.25 4.75 15.59 4.75 16C4.75 16.41 4.42 16.75 4 16.75Z" fill="#292D32"/>
<path d="M16.7091 19.3402C15.4191 19.3402 14.3691 18.2902 14.3691 17.0002C14.3691 15.7102 15.4191 14.6602 16.7091 14.6602C17.9991 14.6602 19.0491 15.7102 19.0491 17.0002C19.0391 18.2902 17.9991 19.3402 16.7091 19.3402ZM16.7091 16.1602C16.2491 16.1602 15.8691 16.5402 15.8691 17.0002C15.8691 17.4602 16.2491 17.8402 16.7091 17.8402C17.1691 17.8402 17.5491 17.4602 17.5491 17.0002C17.5391 16.5402 17.1691 16.1602 16.7091 16.1602Z" fill="#292D32"/>
<path d="M18.4004 22.7482C17.8404 22.7482 17.2904 22.4582 16.9904 21.9382L16.9204 21.8282C16.8104 21.6382 16.7204 21.5882 16.7004 21.5782C16.6904 21.5782 16.5904 21.6382 16.4804 21.8282L16.4204 21.9282C15.9604 22.7182 14.9504 22.9782 14.1804 22.5182L13.2804 21.9982C12.8704 21.7682 12.5804 21.3882 12.4604 20.9282C12.3404 20.4782 12.4004 19.9982 12.6304 19.5982C12.7404 19.4082 12.7404 19.2982 12.7304 19.2782C12.7204 19.2682 12.6304 19.2182 12.4104 19.2182C11.4404 19.2182 10.6504 18.4282 10.6504 17.4682V16.5382C10.6504 15.5682 11.4404 14.7882 12.4004 14.7882C12.6204 14.7882 12.7104 14.7282 12.7304 14.7182C12.7304 14.7082 12.7304 14.5982 12.6204 14.4082C12.3904 13.9982 12.3204 13.5282 12.4504 13.0782C12.5704 12.6282 12.8604 12.2482 13.2704 12.0082L14.1804 11.4782C14.9404 11.0282 15.9504 11.2882 16.4004 12.0682L16.4604 12.1782C16.5704 12.3682 16.6604 12.4182 16.6804 12.4282C16.6904 12.4282 16.7904 12.3682 16.9004 12.1782L16.9604 12.0782C17.4304 11.2882 18.4304 11.0282 19.2004 11.4882L20.1304 11.9982C20.5404 12.2282 20.8304 12.6082 20.9504 13.0682C21.0704 13.5182 21.0104 13.9982 20.7804 14.3982C20.6704 14.5882 20.6704 14.6982 20.6804 14.7182C20.6904 14.7282 20.7804 14.7782 21.0004 14.7782C21.9704 14.7782 22.7604 15.5682 22.7604 16.5282V17.4582C22.7604 18.4282 21.9704 19.2082 21.0104 19.2082C20.7904 19.2082 20.7004 19.2682 20.6804 19.2782C20.6804 19.2882 20.6804 19.3982 20.7904 19.5882C21.0204 19.9982 21.0904 20.4682 20.9604 20.9182C20.8404 21.3682 20.5504 21.7482 20.1404 21.9882L19.2304 22.5182C18.9604 22.6682 18.6804 22.7482 18.4004 22.7482ZM16.7104 20.0782C17.3104 20.0782 17.8604 20.4382 18.2304 21.0782L18.2904 21.1882C18.3204 21.2382 18.4004 21.2682 18.4604 21.2282L19.3804 20.6982C19.4604 20.6582 19.4904 20.5782 19.5004 20.5382C19.5104 20.4982 19.5204 20.4282 19.4804 20.3482C19.1104 19.7182 19.0804 19.0582 19.3804 18.5382C19.6804 18.0182 20.2704 17.7182 21.0004 17.7182C21.1404 17.7182 21.2604 17.5982 21.2604 17.4682V16.5382C21.2604 16.3982 21.1404 16.2882 21.0104 16.2882C20.2804 16.2882 19.6804 15.9882 19.3904 15.4682C19.0904 14.9482 19.1304 14.2882 19.4904 13.6582C19.5404 13.5782 19.5304 13.4982 19.5104 13.4682C19.5004 13.4282 19.4704 13.3582 19.3904 13.3082L18.4804 12.7782C18.4104 12.7382 18.3304 12.7682 18.2904 12.8282L18.2404 12.9182C17.8704 13.5582 17.3204 13.9182 16.7204 13.9182C16.1204 13.9182 15.5704 13.5582 15.2004 12.9182L15.1404 12.8182C15.1104 12.7582 15.0204 12.7382 14.9704 12.7682L14.0504 13.2982C13.9704 13.3382 13.9404 13.4182 13.9304 13.4582C13.9204 13.4982 13.9104 13.5682 13.9504 13.6482C14.3204 14.2782 14.3504 14.9382 14.0504 15.4582C13.7504 15.9782 13.1604 16.2782 12.4304 16.2782C12.2904 16.2782 12.1704 16.3982 12.1704 16.5282V17.4582C12.1704 17.5982 12.2904 17.7082 12.4204 17.7082C13.1504 17.7082 13.7504 18.0082 14.0404 18.5282C14.3404 19.0482 14.3004 19.7082 13.9404 20.3382C13.9004 20.4182 13.9104 20.4882 13.9204 20.5282C13.9304 20.5682 13.9604 20.6382 14.0404 20.6882L14.9504 21.2182C15.0204 21.2582 15.1004 21.2282 15.1404 21.1682L15.1904 21.0682C15.5504 20.4382 16.1104 20.0782 16.7104 20.0782Z" fill="#292D32"/>
</svg>
