<svg width="24" height="24" viewBox="0 0 24 24" fill="none" xmlns="http://www.w3.org/2000/svg">
<path d="M17.0095 13.4798C16.0095 13.4798 15.1895 12.6598 15.1895 11.6598C15.1895 10.6598 16.0095 9.83984 17.0095 9.83984C18.0095 9.83984 18.8294 10.6598 18.8294 11.6598C18.8294 12.6598 18.0095 13.4798 17.0095 13.4798ZM17.0095 11.3398C16.8295 11.3398 16.6895 11.4798 16.6895 11.6598C16.6895 11.8398 16.8295 11.9798 17.0095 11.9798C17.1895 11.9798 17.3294 11.8398 17.3294 11.6598C17.3294 11.4798 17.1895 11.3398 17.0095 11.3398Z" fill="#292D32"/>
<path d="M12.02 16.45H6C2.4 16.45 1.25 15.3 1.25 11.7V6C1.25 2.4 2.4 1.25 6 1.25H16C19.6 1.25 20.75 2.4 20.75 6V7.78998C20.75 7.99998 20.66 8.20998 20.5 8.34998C20.34 8.48998 20.13 8.56003 19.91 8.53003C19.69 8.50003 19.43 8.48999 19.15 8.48999H14.87C13.14 8.48999 12.77 8.86003 12.77 10.59V15.7C12.77 16.11 12.43 16.45 12.02 16.45ZM6 2.75C3.21 2.75 2.75 3.21 2.75 6V11.7C2.75 14.49 3.21 14.95 6 14.95H11.27V10.59C11.27 8.03003 12.31 6.98999 14.87 6.98999H19.15C19.18 6.98999 19.22 6.98999 19.25 6.98999V6C19.25 3.21 18.79 2.75 16 2.75H6Z" fill="#292D32"/>
<path d="M9 20.7492C8.59 20.7492 8.25 20.4092 8.25 19.9992V15.6992C8.25 15.2892 8.59 14.9492 9 14.9492C9.41 14.9492 9.75 15.2892 9.75 15.6992V19.9992C9.75 20.4092 9.41 20.7492 9 20.7492Z" fill="#292D32"/>
<path d="M12 12.6484H2C1.59 12.6484 1.25 12.3084 1.25 11.8984C1.25 11.4884 1.59 11.1484 2 11.1484H12C12.41 11.1484 12.75 11.4884 12.75 11.8984C12.75 12.3084 12.41 12.6484 12 12.6484Z" fill="#292D32"/>
<path d="M11.9992 20.75H5.94922C5.53922 20.75 5.19922 20.41 5.19922 20C5.19922 19.59 5.53922 19.25 5.94922 19.25H11.9992C12.4092 19.25 12.7492 19.59 12.7492 20C12.7492 20.41 12.4092 20.75 11.9992 20.75Z" fill="#292D32"/>
<path d="M17.0095 13.4798C16.0095 13.4798 15.1895 12.6598 15.1895 11.6598C15.1895 10.6598 16.0095 9.83984 17.0095 9.83984C18.0095 9.83984 18.8294 10.6598 18.8294 11.6598C18.8294 12.6598 18.0095 13.4798 17.0095 13.4798ZM17.0095 11.3398C16.8295 11.3398 16.6895 11.4798 16.6895 11.6598C16.6895 11.8398 16.8295 11.9798 17.0095 11.9798C17.1895 11.9798 17.3294 11.8398 17.3294 11.6598C17.3294 11.4798 17.1895 11.3398 17.0095 11.3398Z" fill="#292D32"/>
<path d="M19.9995 7.78827C19.7495 7.75827 19.4595 7.73828 19.1495 7.73828H14.8695C12.7295 7.73828 12.0195 8.44832 12.0195 10.5883V19.1483C12.0195 21.2883 12.7295 21.9983 14.8695 21.9983H19.1495C21.2895 21.9983 21.9995 21.2883 21.9995 19.1483V10.5883C21.9995 8.75832 21.4795 7.97827 19.9995 7.78827ZM17.0096 10.5883C17.5996 10.5883 18.0795 11.0683 18.0795 11.6583C18.0795 12.2483 17.5996 12.7283 17.0096 12.7283C16.4196 12.7283 15.9395 12.2483 15.9395 11.6583C15.9395 11.0683 16.4196 10.5883 17.0096 10.5883ZM17.0096 19.1483C15.8296 19.1483 14.8695 18.1883 14.8695 17.0083C14.8695 16.5183 15.0395 16.0583 15.3195 15.6983C15.7095 15.1983 16.3196 14.8683 17.0096 14.8683C17.5496 14.8683 18.0395 15.0683 18.4095 15.3883C18.8595 15.7883 19.1495 16.3683 19.1495 17.0083C19.1495 18.1883 18.1896 19.1483 17.0096 19.1483Z" stroke="#292D32" stroke-width="1.5" stroke-miterlimit="10" stroke-linecap="round" stroke-linejoin="round"/>
<path d="M17.0111 19.9011C15.4211 19.9011 14.1211 18.6011 14.1211 17.0111C14.1211 16.3711 14.3411 15.7411 14.7311 15.2411C15.2811 14.5311 16.1211 14.1211 17.0111 14.1211C17.7011 14.1211 18.3811 14.3711 18.9011 14.8211C19.5411 15.3911 19.9011 16.1811 19.9011 17.0111C19.9011 18.6011 18.6011 19.9011 17.0111 19.9011ZM17.0111 15.6211C16.5811 15.6211 16.1811 15.8211 15.9111 16.1611C15.7211 16.4011 15.6211 16.7011 15.6211 17.0111C15.6211 17.7811 16.2411 18.4011 17.0111 18.4011C17.7811 18.4011 18.4011 17.7811 18.4011 17.0111C18.4011 16.6111 18.2211 16.2311 17.9111 15.9511C17.6711 15.7411 17.3411 15.6211 17.0111 15.6211Z" fill="#292D32"/>
<path d="M17.0095 13.4798C16.0095 13.4798 15.1895 12.6598 15.1895 11.6598C15.1895 10.6598 16.0095 9.83984 17.0095 9.83984C18.0095 9.83984 18.8294 10.6598 18.8294 11.6598C18.8294 12.6598 18.0095 13.4798 17.0095 13.4798ZM17.0095 11.3398C16.8295 11.3398 16.6895 11.4798 16.6895 11.6598C16.6895 11.8398 16.8295 11.9798 17.0095 11.9798C17.1895 11.9798 17.3294 11.8398 17.3294 11.6598C17.3294 11.4798 17.1895 11.3398 17.0095 11.3398Z" fill="#292D32"/>
</svg>
