<svg width="24" height="24" viewBox="0 0 24 24" fill="none" xmlns="http://www.w3.org/2000/svg">
<path d="M19.3198 10.7517H4.68977C2.79977 10.7517 1.25977 9.21173 1.25977 7.32173V4.69173C1.25977 2.80173 2.79977 1.26172 4.68977 1.26172H19.3198C21.2098 1.26172 22.7498 2.80173 22.7498 4.69173V7.32173C22.7498 9.21173 21.2098 10.7517 19.3198 10.7517ZM4.67976 2.75172C3.60976 2.75172 2.74977 3.62172 2.74977 4.68172V7.31172C2.74977 8.38172 3.61976 9.24173 4.67976 9.24173H19.3098C20.3798 9.24173 21.2398 8.37172 21.2398 7.31172V4.68172C21.2398 3.61172 20.3698 2.75172 19.3098 2.75172H4.67976Z" fill="#292D32"/>
<path d="M19.3198 22.7517H4.68977C2.79977 22.7517 1.25977 21.2117 1.25977 19.3217V16.6917C1.25977 14.8017 2.79977 13.2617 4.68977 13.2617H19.3198C21.2098 13.2617 22.7498 14.8017 22.7498 16.6917V19.3217C22.7498 21.2117 21.2098 22.7517 19.3198 22.7517ZM4.67976 14.7517C3.60976 14.7517 2.74977 15.6217 2.74977 16.6817V19.3117C2.74977 20.3817 3.61976 21.2417 4.67976 21.2417H19.3098C20.3798 21.2417 21.2398 20.3717 21.2398 19.3117V16.6817C21.2398 15.6117 20.3698 14.7517 19.3098 14.7517H4.67976Z" fill="#292D32"/>
<path d="M6 7.75C5.59 7.75 5.25 7.41 5.25 7V5C5.25 4.59 5.59 4.25 6 4.25C6.41 4.25 6.75 4.59 6.75 5V7C6.75 7.41 6.41 7.75 6 7.75Z" fill="#292D32"/>
<path d="M10 7.75C9.59 7.75 9.25 7.41 9.25 7V5C9.25 4.59 9.59 4.25 10 4.25C10.41 4.25 10.75 4.59 10.75 5V7C10.75 7.41 10.41 7.75 10 7.75Z" fill="#292D32"/>
<path d="M6 19.75C5.59 19.75 5.25 19.41 5.25 19V17C5.25 16.59 5.59 16.25 6 16.25C6.41 16.25 6.75 16.59 6.75 17V19C6.75 19.41 6.41 19.75 6 19.75Z" fill="#292D32"/>
<path d="M10 19.75C9.59 19.75 9.25 19.41 9.25 19V17C9.25 16.59 9.59 16.25 10 16.25C10.41 16.25 10.75 16.59 10.75 17V19C10.75 19.41 10.41 19.75 10 19.75Z" fill="#292D32"/>
<path d="M18 6.75H14C13.59 6.75 13.25 6.41 13.25 6C13.25 5.59 13.59 5.25 14 5.25H18C18.41 5.25 18.75 5.59 18.75 6C18.75 6.41 18.41 6.75 18 6.75Z" fill="#292D32"/>
<path d="M18 18.75H14C13.59 18.75 13.25 18.41 13.25 18C13.25 17.59 13.59 17.25 14 17.25H18C18.41 17.25 18.75 17.59 18.75 18C18.75 18.41 18.41 18.75 18 18.75Z" fill="#292D32"/>
</svg>
