<svg width="24" height="24" viewBox="0 0 24 24" fill="none" xmlns="http://www.w3.org/2000/svg">
<path d="M15.5 22.75H8.5C4.79 22.75 2.75 20.71 2.75 17V7C2.75 3.29 4.79 1.25 8.5 1.25H15.5C19.15 1.25 21.25 3.35 21.25 7V8C21.25 8.96 20.46 9.75 19.5 9.75C19.36 9.75 19.25 9.86 19.25 10V12.17C19.25 12.5 19.38 12.82 19.62 13.05L20.45 13.88C20.97 14.4 21.26 15.09 21.26 15.82V17C21.25 20.65 19.15 22.75 15.5 22.75ZM8.5 2.75C5.64 2.75 4.25 4.14 4.25 7V17C4.25 19.86 5.64 21.25 8.5 21.25H15.5C18.32 21.25 19.75 19.82 19.75 17V15.83C19.75 15.5 19.62 15.18 19.38 14.95L18.55 14.12C18.03 13.6 17.74 12.91 17.74 12.18V10C17.74 9.04 18.53 8.25 19.49 8.25C19.63 8.25 19.74 8.14 19.74 8V7C19.74 4.18 18.31 2.75 15.49 2.75H8.5Z" fill="#292D32"/>
<path d="M16.0105 22.7183C15.6005 22.7183 15.2605 22.3883 15.2605 21.9783L15.2305 18.9883C15.2305 18.2983 14.6605 17.7483 13.9805 17.7483H9.98047C9.65047 17.7483 9.33047 17.8783 9.09047 18.1183C8.86047 18.3483 8.73047 18.6683 8.73047 18.9983L8.74047 21.9683C8.74047 22.3783 8.41047 22.7183 7.99047 22.7183C7.58047 22.7183 7.24047 22.3883 7.24047 21.9683L7.23047 18.9983C7.23047 18.2583 7.51047 17.5683 8.03047 17.0483C8.55047 16.5283 9.24047 16.2383 9.98047 16.2383H13.9905C15.5005 16.2383 16.7305 17.4683 16.7405 18.9683L16.7705 21.9483C16.7705 22.3783 16.4305 22.7183 16.0105 22.7183C16.0105 22.7183 16.0205 22.7183 16.0105 22.7183Z" fill="#292D32"/>
<path d="M8.93967 5.70078H8.92968C8.50968 5.69078 8.17967 5.35078 8.18967 4.93078L8.23967 2.04078C8.24967 1.63078 8.57967 1.30078 8.98967 1.30078H8.99967C9.40967 1.31078 9.73967 1.65078 9.73967 2.06078L9.68967 4.96078C9.67967 5.37078 9.34967 5.70078 8.93967 5.70078Z" fill="#292D32"/>
<path d="M11.9395 5.69859H11.9295C11.5195 5.68859 11.1895 5.34859 11.1895 4.93859L11.2395 2.04859C11.2495 1.63859 11.5795 1.30859 11.9895 1.30859H11.9995C12.4095 1.31859 12.7395 1.65859 12.7395 2.06859L12.6895 4.95859C12.6795 5.36859 12.3495 5.69859 11.9395 5.69859Z" fill="#292D32"/>
<path d="M14.9395 5.67125H14.9295C14.5195 5.66125 14.1895 5.32125 14.1895 4.91125L14.2395 2.02125C14.2495 1.61125 14.5795 1.28125 14.9895 1.28125H14.9995C15.4095 1.29125 15.7395 1.63125 15.7395 2.04125L15.6895 4.93125C15.6795 5.34125 15.3495 5.67125 14.9395 5.67125Z" fill="#292D32"/>
</svg>
