<svg width="24" height="24" viewBox="0 0 24 24" fill="none" xmlns="http://www.w3.org/2000/svg">
<path d="M12.11 22.7219H5.89C3.16 22.7219 1.25 20.8119 1.25 18.0819V10.3119C1.25 7.58188 3.16 5.67188 5.89 5.67188H9.72C10.94 5.67188 12.14 6.17188 13 7.03188L15.39 9.41187C16.26 10.2819 16.75 11.4719 16.75 12.6919V18.0819C16.75 20.8119 14.84 22.7219 12.11 22.7219ZM5.89 7.17188C3.98 7.17188 2.75 8.40188 2.75 10.3119V18.0819C2.75 19.9919 3.98 21.2219 5.89 21.2219H12.11C14.02 21.2219 15.25 19.9919 15.25 18.0819V12.6919C15.25 11.8619 14.91 11.0619 14.33 10.4719L11.94 8.09188C11.35 7.50188 10.54 7.17188 9.72 7.17188H5.89V7.17188Z" fill="#292D32"/>
<path d="M18.11 18.2788H16C15.59 18.2788 15.25 17.9388 15.25 17.5288V12.6887C15.25 11.8587 14.91 11.0587 14.33 10.4688L11.94 8.08875C11.35 7.49875 10.54 7.16875 9.72 7.16875H8C7.59 7.16875 7.25 6.82875 7.25 6.41875V5.85875C7.25 3.12875 9.16 1.21875 11.89 1.21875H15.72C16.94 1.21875 18.14 1.71875 19 2.57875L21.39 4.96875C22.27 5.84875 22.75 7.00875 22.75 8.24875V13.6388C22.75 16.3688 20.84 18.2788 18.11 18.2788ZM16.75 16.7788H18.11C20.02 16.7788 21.25 15.5488 21.25 13.6388V8.24875C21.25 7.40875 20.92 6.61875 20.33 6.02875L17.94 3.63875C17.36 3.05875 16.55 2.71875 15.72 2.71875H11.89C10.05 2.71875 8.83 3.86875 8.75 5.66875H9.72C10.94 5.66875 12.14 6.16875 13 7.02875L15.39 9.40875C16.26 10.2787 16.75 11.4687 16.75 12.6887V16.7788V16.7788Z" fill="#292D32"/>
</svg>
