<svg width="24" height="24" viewBox="0 0 24 24" fill="none" xmlns="http://www.w3.org/2000/svg">
<path d="M4.29008 12.3694C3.98008 12.3694 3.69011 12.1794 3.58011 11.8694C2.57011 9.04935 3.03012 6.33937 4.84012 4.44937C6.69012 2.50937 9.65012 1.73935 12.2101 2.52935C14.5501 3.24935 16.2001 5.17934 16.8001 7.85934C18.6001 8.26934 20.1101 9.52934 20.8801 11.3293C21.0401 11.7093 20.8701 12.1494 20.4901 12.3194C20.1101 12.4794 19.6701 12.3093 19.5001 11.9293C18.8501 10.4293 17.6001 9.45937 16.0601 9.25937C15.7301 9.21937 15.4701 8.96937 15.4101 8.63937C15.0101 6.23937 13.7101 4.57937 11.7601 3.97937C9.74011 3.35937 7.39008 3.96936 5.92008 5.49936C4.49008 6.98936 4.16008 9.07936 4.98008 11.3794C5.12008 11.7694 4.92013 12.1994 4.53013 12.3394C4.46013 12.3494 4.37008 12.3694 4.29008 12.3694Z" fill="#292D32"/>
<path d="M14.5395 9.6817C14.2595 9.6817 13.9995 9.53172 13.8695 9.26172C13.6795 8.89172 13.8395 8.44171 14.2095 8.25171C14.8395 7.94171 15.5095 7.77172 16.1995 7.76172C16.6295 7.78172 16.9595 8.08171 16.9595 8.50171C16.9695 8.91171 16.6394 9.26172 16.2194 9.26172C15.7494 9.27172 15.2995 9.38171 14.8695 9.59171C14.7595 9.66171 14.6495 9.6817 14.5395 9.6817Z" fill="#292D32"/>
<path d="M20 15.7812H4C3.59 15.7812 3.25 15.4412 3.25 15.0312C3.25 14.6213 3.59 14.2812 4 14.2812H20C20.41 14.2812 20.75 14.6213 20.75 15.0312C20.75 15.4412 20.41 15.7812 20 15.7812Z" fill="#292D32"/>
<path d="M18 18.7812H6C5.59 18.7812 5.25 18.4412 5.25 18.0312C5.25 17.6213 5.59 17.2812 6 17.2812H18C18.41 17.2812 18.75 17.6213 18.75 18.0312C18.75 18.4412 18.41 18.7812 18 18.7812Z" fill="#292D32"/>
<path d="M15 21.7812H9C8.59 21.7812 8.25 21.4412 8.25 21.0312C8.25 20.6213 8.59 20.2812 9 20.2812H15C15.41 20.2812 15.75 20.6213 15.75 21.0312C15.75 21.4412 15.41 21.7812 15 21.7812Z" fill="#292D32"/>
</svg>
