<svg width="24" height="24" viewBox="0 0 24 24" fill="none" xmlns="http://www.w3.org/2000/svg">
<path d="M18.5 12.75C18.09 12.75 17.75 12.41 17.75 12C17.75 8.83 15.17 6.25 12 6.25C8.83 6.25 6.25 8.83 6.25 12C6.25 12.41 5.91 12.75 5.5 12.75C5.09 12.75 4.75 12.41 4.75 12C4.75 8 8 4.75 12 4.75C16 4.75 19.25 8 19.25 12C19.25 12.41 18.91 12.75 18.5 12.75Z" fill="#292D32"/>
<path d="M22 13H21.92C21.37 13 20.92 12.55 20.92 12C20.92 11.45 21.37 11 21.92 11C22.47 11 22.96 11.45 22.96 12C22.96 12.55 22.55 13 22 13ZM2.08002 13H2C1.45 13 1 12.55 1 12C1 11.45 1.45 11 2 11C2.55 11 3.03998 11.45 3.03998 12C3.03998 12.55 2.63002 13 2.08002 13ZM19.01 5.98999C18.75 5.98999 18.5 5.89001 18.3 5.70001C17.91 5.31001 17.91 4.68001 18.3 4.29001L18.43 4.16C18.82 3.77 19.45 3.77 19.84 4.16C20.23 4.55 20.23 5.18001 19.84 5.57001L19.71 5.70001C19.52 5.89001 19.27 5.98999 19.01 5.98999ZM4.98999 5.98999C4.72999 5.98999 4.48003 5.89001 4.28003 5.70001L4.15002 5.57001C3.76002 5.18001 3.76002 4.55 4.15002 4.16C4.54002 3.77 5.17 3.77 5.56 4.16L5.69 4.29001C6.08 4.68001 6.08 5.31001 5.69 5.70001C5.5 5.89001 5.23999 5.98999 4.98999 5.98999ZM12 3.04001C11.45 3.04001 11 2.62999 11 2.07999V2C11 1.45 11.45 1 12 1C12.55 1 13 1.45 13 2C13 2.55 12.55 3.04001 12 3.04001Z" fill="#292D32"/>
<path d="M20 15.75H4C3.59 15.75 3.25 15.41 3.25 15C3.25 14.59 3.59 14.25 4 14.25H20C20.41 14.25 20.75 14.59 20.75 15C20.75 15.41 20.41 15.75 20 15.75Z" fill="#292D32"/>
<path d="M18 18.75H6C5.59 18.75 5.25 18.41 5.25 18C5.25 17.59 5.59 17.25 6 17.25H18C18.41 17.25 18.75 17.59 18.75 18C18.75 18.41 18.41 18.75 18 18.75Z" fill="#292D32"/>
<path d="M15 21.75H9C8.59 21.75 8.25 21.41 8.25 21C8.25 20.59 8.59 20.25 9 20.25H15C15.41 20.25 15.75 20.59 15.75 21C15.75 21.41 15.41 21.75 15 21.75Z" fill="#292D32"/>
</svg>
