<svg width="24" height="24" viewBox="0 0 24 24" fill="none" xmlns="http://www.w3.org/2000/svg">
<path opacity="0.4" d="M12 22C6.48 22 2 17.52 2 12C2 6.48 6.48 2 12 2C17.52 2 22 6.48 22 12C22 17.52 17.52 22 12 22Z" fill="#292D32"/>
<path d="M8.98914 15.6189C6.98914 15.6189 5.36914 13.9989 5.36914 11.9989C5.36914 9.9989 6.98914 8.37891 8.98914 8.37891C9.86914 8.37891 10.7092 8.69893 11.3792 9.27893C11.6892 9.54893 11.7192 10.0289 11.4492 10.3389C11.1792 10.6489 10.6992 10.6789 10.3892 10.4089C9.99916 10.0689 9.50914 9.87891 8.98914 9.87891C7.81914 9.87891 6.86914 10.8289 6.86914 11.9989C6.86914 13.1689 7.81914 14.1189 8.98914 14.1189C9.49914 14.1189 9.99916 13.9289 10.3892 13.5889C10.6992 13.3189 11.1792 13.3489 11.4492 13.6589C11.7192 13.9689 11.6892 14.4489 11.3792 14.7189C10.7092 15.2989 9.85914 15.6189 8.98914 15.6189Z" fill="#292D32"/>
<path d="M15.9891 15.6189C13.9891 15.6189 12.3691 13.9989 12.3691 11.9989C12.3691 9.9989 13.9891 8.37891 15.9891 8.37891C16.8691 8.37891 17.7092 8.69893 18.3792 9.27893C18.6892 9.54893 18.7192 10.0289 18.4492 10.3389C18.1792 10.6489 17.6992 10.6789 17.3892 10.4089C16.9992 10.0689 16.5091 9.87891 15.9891 9.87891C14.8191 9.87891 13.8691 10.8289 13.8691 11.9989C13.8691 13.1689 14.8191 14.1189 15.9891 14.1189C16.4991 14.1189 16.9992 13.9289 17.3892 13.5889C17.6992 13.3189 18.1792 13.3489 18.4492 13.6589C18.7192 13.9689 18.6892 14.4489 18.3792 14.7189C17.7092 15.2989 16.8591 15.6189 15.9891 15.6189Z" fill="#292D32"/>
</svg>
