<svg width="24" height="24" viewBox="0 0 24 24" fill="none" xmlns="http://www.w3.org/2000/svg">
<path opacity="0.4" d="M20.5 10.19H17.61C15.24 10.19 13.31 8.26 13.31 5.89V3C13.31 2.45 12.86 2 12.31 2H8.07C4.99 2 2.5 4 2.5 7.57V16.43C2.5 20 4.99 22 8.07 22H15.93C19.01 22 21.5 20 21.5 16.43V11.19C21.5 10.64 21.05 10.19 20.5 10.19Z" fill="#292D32"/>
<path d="M15.7997 2.21048C15.3897 1.80048 14.6797 2.08048 14.6797 2.65048V6.14048C14.6797 7.60048 15.9197 8.81048 17.4297 8.81048C18.3797 8.82048 19.6997 8.82048 20.8297 8.82048C21.3997 8.82048 21.6997 8.15048 21.2997 7.75048C19.8597 6.30048 17.2797 3.69048 15.7997 2.21048Z" fill="#292D32"/>
<path d="M11.1592 12.729C10.5692 12.539 9.93922 12.649 9.49922 12.999C9.03922 12.649 8.42922 12.539 7.84922 12.729C6.57922 13.139 6.17922 14.589 6.52922 15.699C7.06922 17.399 8.85922 18.269 9.50922 18.269C10.1392 18.269 11.9592 17.369 12.4892 15.699C12.8292 14.589 12.4292 13.139 11.1592 12.729Z" fill="#292D32"/>
</svg>
