<svg width="24" height="24" viewBox="0 0 24 24" fill="none" xmlns="http://www.w3.org/2000/svg">
<path opacity="0.4" d="M21.9983 8.33945V15.6595C21.9983 17.1595 20.3683 18.0995 19.0683 17.3495L15.8983 15.5295L12.7283 13.6995C12.5283 13.5795 12.3683 13.4495 12.2383 13.2895V10.7295C12.3683 10.5695 12.5283 10.4395 12.7283 10.3195L15.8983 8.48945L19.0683 6.66947C20.3683 5.89947 21.9983 6.83945 21.9983 8.33945Z" stroke="#292D32" stroke-width="1.5" stroke-linecap="round" stroke-linejoin="round"/>
<path d="M12.2411 8.33945V15.6595C12.2411 17.1595 10.6111 18.0995 9.31109 17.3495L6.14111 15.5295L2.97109 13.6995C1.67109 12.9495 1.67109 11.0795 2.97109 10.3195L6.14111 8.48945L9.31109 6.66947C10.6111 5.89947 12.2411 6.83945 12.2411 8.33945Z" stroke="#292D32" stroke-width="1.5" stroke-linecap="round" stroke-linejoin="round"/>
</svg>
