<svg width="24" height="24" viewBox="0 0 24 24" fill="none" xmlns="http://www.w3.org/2000/svg">
<path opacity="0.4" d="M6 10H9" stroke="#292D32" stroke-width="1.5" stroke-linecap="round" stroke-linejoin="round"/>
<path opacity="0.4" d="M6.76172 22.0017H17.2417C20.0017 22.0017 21.1017 20.3117 21.2317 18.2517L21.7517 9.99172C21.8117 9.06172 21.5217 8.19172 21.0117 7.51172" stroke="#292D32" stroke-width="1.5" stroke-linecap="round" stroke-linejoin="round"/>
<path d="M18.0002 6C17.3902 6 16.8302 5.65 16.5502 5.11L15.8302 3.66C15.3702 2.75 14.1702 2 13.1502 2H10.8602C9.83017 2 8.63017 2.75 8.17017 3.66L7.45017 5.11C7.17017 5.65 6.61017 6 6.00017 6C3.83017 6 2.11017 7.83 2.25017 9.99L2.77017 18.25C2.82017 19.07 3.03017 19.84 3.44017 20.46" stroke="#292D32" stroke-width="1.5" stroke-linecap="round" stroke-linejoin="round"/>
<path opacity="0.4" d="M10 17.3095C10.55 17.7395 11.25 17.9995 12 17.9995C13.79 17.9995 15.25 16.5395 15.25 14.7495C15.25 14.1095 15.07 13.5195 14.75 13.0195" stroke="#292D32" stroke-width="1.5" stroke-linecap="round" stroke-linejoin="round"/>
<path d="M22 2L2 22" stroke="#292D32" stroke-width="1.5" stroke-linecap="round" stroke-linejoin="round"/>
</svg>
