<svg width="24" height="24" viewBox="0 0 24 24" fill="none" xmlns="http://www.w3.org/2000/svg">
<path d="M21.6809 16.9596L18.5509 9.64964C17.4909 7.16964 15.5409 7.06964 14.2309 9.42964L12.3409 12.8396C11.3809 14.5696 9.5909 14.7196 8.3509 13.1696L8.1309 12.8896C6.8409 11.2696 5.0209 11.4696 4.0909 13.3196L2.3709 16.7696C1.1609 19.1696 2.9109 21.9996 5.5909 21.9996H18.3509C20.9509 21.9996 22.7009 19.3496 21.6809 16.9596Z" stroke="#292D32" stroke-width="1.5" stroke-linecap="round" stroke-linejoin="round"/>
<path opacity="0.4" d="M6.96875 8C8.6256 8 9.96875 6.65685 9.96875 5C9.96875 3.34315 8.6256 2 6.96875 2C5.3119 2 3.96875 3.34315 3.96875 5C3.96875 6.65685 5.3119 8 6.96875 8Z" stroke="#292D32" stroke-width="1.5" stroke-linecap="round" stroke-linejoin="round"/>
</svg>
