<svg width="24" height="24" viewBox="0 0 24 24" fill="none" xmlns="http://www.w3.org/2000/svg">
<path d="M22 13V17C22 20.5 20 22 17 22H7C4 22 2 20.5 2 17V13C2 10.35 3.15 8.85003 5 8.28003C5.6 8.09003 6.27 8 7 8H17C17.73 8 18.4 8.09003 19 8.28003C20.85 8.85003 22 10.35 22 13Z" stroke="#292D32" stroke-width="1.5" stroke-miterlimit="10" stroke-linecap="round" stroke-linejoin="round"/>
<path d="M19 7V8.28003C18.4 8.09003 17.73 8 17 8H7C6.27 8 5.6 8.09003 5 8.28003V7C5 5.9 5.9 5 7 5H17C18.1 5 19 5.9 19 7Z" stroke="#292D32" stroke-width="1.5" stroke-miterlimit="10" stroke-linecap="round" stroke-linejoin="round"/>
<path d="M16 3.51001V5H8V3.51001C8 2.68001 8.68001 2 9.51001 2H14.49C15.32 2 16 2.68001 16 3.51001Z" stroke="#292D32" stroke-width="1.5" stroke-miterlimit="10" stroke-linecap="round" stroke-linejoin="round"/>
<g opacity="0.4">
<path d="M9.07001 19.4486C9.79902 19.4486 10.39 18.8576 10.39 18.1286C10.39 17.3996 9.79902 16.8086 9.07001 16.8086C8.34099 16.8086 7.75 17.3996 7.75 18.1286C7.75 18.8576 8.34099 19.4486 9.07001 19.4486Z" stroke="#292D32" stroke-width="1.5" stroke-linecap="round" stroke-linejoin="round"/>
<path d="M15.2484 17.2491V12.0791C15.2484 10.9791 14.5584 10.8191 13.8584 11.0191L11.2084 11.7391C10.7284 11.8691 10.3984 12.2491 10.3984 12.7991V13.7191V14.3392V18.1291" stroke="#292D32" stroke-width="1.5" stroke-linecap="round" stroke-linejoin="round"/>
<path d="M13.9294 18.5697C14.6584 18.5697 15.2494 17.9787 15.2494 17.2497C15.2494 16.5207 14.6584 15.9297 13.9294 15.9297C13.2004 15.9297 12.6094 16.5207 12.6094 17.2497C12.6094 17.9787 13.2004 18.5697 13.9294 18.5697Z" stroke="#292D32" stroke-width="1.5" stroke-linecap="round" stroke-linejoin="round"/>
<path d="M10.3984 14.3473L15.2484 13.0273" stroke="#292D32" stroke-width="1.5" stroke-linecap="round" stroke-linejoin="round"/>
</g>
</svg>
