<svg width="24" height="24" viewBox="0 0 24 24" fill="none" xmlns="http://www.w3.org/2000/svg">
<path d="M9 22H15C20 22 22 20 22 15V9C22 4 20 2 15 2H9C4 2 2 4 2 9V15C2 20 4 22 9 22Z" stroke="#292D32" stroke-width="1.5" stroke-linecap="round" stroke-linejoin="round"/>
<g opacity="0.4">
<path d="M8.41998 10.8986C9.48037 10.8986 10.34 10.039 10.34 8.97859C10.34 7.91821 9.48037 7.05859 8.41998 7.05859C7.3596 7.05859 6.5 7.91821 6.5 8.97859C6.5 10.039 7.3596 10.8986 8.41998 10.8986Z" stroke="#292D32" stroke-width="1.5" stroke-linecap="round" stroke-linejoin="round"/>
<path d="M8.41998 16.9377C9.48037 16.9377 10.34 16.078 10.34 15.0177C10.34 13.9573 9.48037 13.0977 8.41998 13.0977C7.3596 13.0977 6.5 13.9573 6.5 15.0177C6.5 16.078 7.3596 16.9377 8.41998 16.9377Z" stroke="#292D32" stroke-width="1.5" stroke-linecap="round" stroke-linejoin="round"/>
<path d="M17.5002 8.69922L10.1602 14.1892" stroke="#292D32" stroke-width="1.5" stroke-linecap="round" stroke-linejoin="round"/>
<path d="M17.5002 15.2791L10.1602 9.78906" stroke="#292D32" stroke-width="1.5" stroke-linecap="round" stroke-linejoin="round"/>
</g>
</svg>
