<svg width="24" height="24" viewBox="0 0 24 24" fill="none" xmlns="http://www.w3.org/2000/svg">
<path d="M12.1378 7.62109H6.86781C5.00781 7.62109 4.58782 8.55111 4.35782 9.70111L3.50781 13.7511H15.5078L14.6578 9.70111C14.4078 8.55111 13.9978 7.62109 12.1378 7.62109Z" stroke="#292D32" stroke-width="1.5" stroke-linecap="round" stroke-linejoin="round"/>
<path d="M16.9882 20.3622C17.0682 21.2422 16.3682 22.0022 15.4682 22.0022H14.0582C13.2482 22.0022 13.1382 21.6522 12.9882 21.2322L12.8382 20.7822C12.6282 20.1722 12.4882 19.7522 11.4082 19.7522H7.56818C6.48818 19.7522 6.32817 20.2222 6.13817 20.7822L5.98817 21.2322C5.84817 21.6622 5.73817 22.0022 4.91817 22.0022H3.50816C2.60816 22.0022 1.89817 21.2422 1.98817 20.3622L2.40817 15.7922C2.51817 14.6622 2.72817 13.7422 4.69817 13.7422H14.2682C16.2382 13.7422 16.4482 14.6622 16.5582 15.7922L16.9882 20.3622Z" stroke="#292D32" stroke-width="1.5" stroke-linecap="round" stroke-linejoin="round"/>
<path d="M3.5 11.5H2.75" stroke="#292D32" stroke-width="1.5" stroke-linecap="round" stroke-linejoin="round"/>
<path d="M16.25 11.5H15.5" stroke="#292D32" stroke-width="1.5" stroke-linecap="round" stroke-linejoin="round"/>
<path opacity="0.4" d="M5 16.75H7.25" stroke="#292D32" stroke-width="1.5" stroke-linecap="round" stroke-linejoin="round"/>
<path opacity="0.4" d="M11.75 16.75H14" stroke="#292D32" stroke-width="1.5" stroke-linecap="round" stroke-linejoin="round"/>
<path opacity="0.4" d="M18.7111 8.74016C18.9911 8.09016 18.8911 7.21017 18.3711 6.44017C17.8611 5.67017 17.0811 5.24017 16.3711 5.25017" stroke="#292D32" stroke-width="1.5" stroke-linecap="round" stroke-linejoin="round"/>
<path opacity="0.4" d="M21.8206 9.72998C22.2406 8.21998 21.9406 6.37002 20.8706 4.77002C19.8006 3.17002 18.2006 2.19 16.6406 2" stroke="#292D32" stroke-width="1.5" stroke-linecap="round" stroke-linejoin="round"/>
</svg>
