<svg width="24" height="24" viewBox="0 0 24 24" fill="none" xmlns="http://www.w3.org/2000/svg">
<g opacity="0.4">
<path d="M8 11.4002C8 12.1702 8.6 12.8002 9.33 12.8002H10.83C11.47 12.8002 11.99 12.2502 11.99 11.5802C11.99 10.8502 11.67 10.5902 11.2 10.4202L8.8 9.5802C8.32 9.4102 8 9.1502 8 8.4202C8 7.7502 8.52 7.2002 9.16 7.2002H10.66C11.4 7.2102 12 7.8302 12 8.6002" stroke="#292D32" stroke-width="1.5" stroke-linecap="round" stroke-linejoin="round"/>
<path d="M10 12.8496V13.5896" stroke="#292D32" stroke-width="1.5" stroke-linecap="round" stroke-linejoin="round"/>
<path d="M10 6.41016V7.19016" stroke="#292D32" stroke-width="1.5" stroke-linecap="round" stroke-linejoin="round"/>
</g>
<path d="M9.99 17.98C14.4028 17.98 17.98 14.4028 17.98 9.99C17.98 5.57724 14.4028 2 9.99 2C5.57724 2 2 5.57724 2 9.99C2 14.4028 5.57724 17.98 9.99 17.98Z" stroke="#292D32" stroke-width="1.5" stroke-linecap="round" stroke-linejoin="round"/>
<path opacity="0.4" d="M12.9805 19.88C13.8805 21.15 15.3505 21.98 17.0305 21.98C19.7605 21.98 21.9805 19.76 21.9805 17.03C21.9805 15.37 21.1605 13.9 19.9105 13" stroke="#292D32" stroke-width="1.5" stroke-linecap="round" stroke-linejoin="round"/>
</svg>
