<svg width="24" height="24" viewBox="0 0 24 24" fill="none" xmlns="http://www.w3.org/2000/svg">
<path opacity="0.4" d="M1.98047 13.0002H5.77047C6.53047 13.0002 7.22047 13.4302 7.56047 14.1102L8.45047 15.9002C9.00047 17.0002 10.0005 17.0002 10.2405 17.0002H13.7705C14.5305 17.0002 15.2205 16.5702 15.5605 15.8902L16.4505 14.1002C16.7905 13.4202 17.4805 12.9902 18.2405 12.9902H21.9805" stroke="#292D32" stroke-width="1.5" stroke-linecap="round" stroke-linejoin="round"/>
<path opacity="0.4" d="M19 8C20.6569 8 22 6.65685 22 5C22 3.34315 20.6569 2 19 2C17.3431 2 16 3.34315 16 5C16 6.65685 17.3431 8 19 8Z" stroke="#292D32" stroke-width="1.5" stroke-linecap="round" stroke-linejoin="round"/>
<path d="M14 2H9C4 2 2 4 2 9V15C2 20 4 22 9 22H15C20 22 22 20 22 15V10" stroke="#292D32" stroke-width="1.5" stroke-linecap="round" stroke-linejoin="round"/>
</svg>
