<svg width="24" height="24" viewBox="0 0 24 24" fill="none" xmlns="http://www.w3.org/2000/svg">
<path d="M13.0095 2.91982L18.9095 5.53982C20.6095 6.28982 20.6095 7.52982 18.9095 8.27982L13.0095 10.8998C12.3395 11.1998 11.2395 11.1998 10.5695 10.8998L4.66953 8.27982C2.96953 7.52982 2.96953 6.28982 4.66953 5.53982L10.5695 2.91982C11.2395 2.61982 12.3395 2.61982 13.0095 2.91982Z" stroke="#292D32" stroke-width="1.5" stroke-linecap="round" stroke-linejoin="round"/>
<path opacity="0.4" d="M3 11C3 11.84 3.63 12.81 4.4 13.15L11.19 16.17C11.71 16.4 12.3 16.4 12.81 16.17L19.6 13.15C20.37 12.81 21 11.84 21 11" stroke="#292D32" stroke-width="1.5" stroke-linecap="round" stroke-linejoin="round"/>
<path opacity="0.4" d="M3 16C3 16.93 3.55 17.77 4.4 18.15L11.19 21.17C11.71 21.4 12.3 21.4 12.81 21.17L19.6 18.15C20.45 17.77 21 16.93 21 16" stroke="#292D32" stroke-width="1.5" stroke-linecap="round" stroke-linejoin="round"/>
</svg>
