<svg width="24" height="24" viewBox="0 0 24 24" fill="none" xmlns="http://www.w3.org/2000/svg">
<path d="M9 22H15C20 22 22 20 22 15V9C22 4 20 2 15 2H9C4 2 2 4 2 9V15C2 20 4 22 9 22Z" stroke="#292D32" stroke-width="1.5" stroke-linecap="round" stroke-linejoin="round"/>
<g opacity="0.4">
<path d="M16.9989 11.8398H14.3189C13.6089 11.8398 13.1289 11.2998 13.1289 10.6498V9.15973C13.1289 8.50973 13.6089 7.96973 14.3189 7.96973H15.8089C16.4589 7.96973 16.9989 8.50973 16.9989 9.15973V11.8398Z" stroke="#292D32" stroke-width="1.5" stroke-linecap="round" stroke-linejoin="round"/>
<path d="M17.0002 11.8398C17.0002 14.6298 16.4802 15.0998 14.9102 16.0298" stroke="#292D32" stroke-width="1.5" stroke-linecap="round" stroke-linejoin="round"/>
<path d="M10.8602 11.8398H8.18023C7.47023 11.8398 6.99023 11.2998 6.99023 10.6498V9.15973C6.99023 8.50973 7.47023 7.96973 8.18023 7.96973H9.67023C10.3202 7.96973 10.8602 8.50973 10.8602 9.15973V11.8398Z" stroke="#292D32" stroke-width="1.5" stroke-linecap="round" stroke-linejoin="round"/>
<path d="M10.8595 11.8398C10.8595 14.6298 10.3395 15.0998 8.76953 16.0298" stroke="#292D32" stroke-width="1.5" stroke-linecap="round" stroke-linejoin="round"/>
</g>
</svg>
