<svg width="24" height="24" viewBox="0 0 24 24" fill="none" xmlns="http://www.w3.org/2000/svg">
<path d="M9 22H15C20 22 22 20 22 15V9C22 4 20 2 15 2H9C4 2 2 4 2 9V15C2 20 4 22 9 22Z" stroke="#292D32" stroke-width="1.5" stroke-linecap="round" stroke-linejoin="round"/>
<g opacity="0.4">
<path d="M13.67 7.51025C13.17 7.36025 12.62 7.26025 12 7.26025C9.24 7.26025 7 9.50025 7 12.2603C7 15.0203 9.24 17.2603 12 17.2603C14.76 17.2603 17 15.0203 17 12.2603C17 11.2303 16.69 10.2803 16.16 9.48026" stroke="#292D32" stroke-width="1.5" stroke-linecap="round" stroke-linejoin="round"/>
<path d="M14.3807 7.65024L12.7207 5.74023" stroke="#292D32" stroke-width="1.5" stroke-linecap="round" stroke-linejoin="round"/>
<path d="M14.3795 7.65039L12.4395 9.07039" stroke="#292D32" stroke-width="1.5" stroke-linecap="round" stroke-linejoin="round"/>
</g>
</svg>
