<svg width="24" height="24" viewBox="0 0 24 24" fill="none" xmlns="http://www.w3.org/2000/svg">
<path d="M9 22H15C20 22 22 20 22 15V9C22 4 20 2 15 2H9C4 2 2 4 2 9V15C2 20 4 22 9 22Z" stroke="#292D32" stroke-width="1.5" stroke-linecap="round" stroke-linejoin="round"/>
<g opacity="0.4">
<path d="M15.5703 18.4996V14.5996" stroke="#292D32" stroke-width="1.5" stroke-miterlimit="10" stroke-linecap="round" stroke-linejoin="round"/>
<path d="M15.5703 7.45V5.5" stroke="#292D32" stroke-width="1.5" stroke-miterlimit="10" stroke-linecap="round" stroke-linejoin="round"/>
<path d="M15.5697 12.6502C17.0057 12.6502 18.1697 11.4861 18.1697 10.0502C18.1697 8.61426 17.0057 7.4502 15.5697 7.4502C14.1338 7.4502 12.9697 8.61426 12.9697 10.0502C12.9697 11.4861 14.1338 12.6502 15.5697 12.6502Z" stroke="#292D32" stroke-width="1.5" stroke-miterlimit="10" stroke-linecap="round" stroke-linejoin="round"/>
<path d="M8.42969 18.4998V16.5498" stroke="#292D32" stroke-width="1.5" stroke-miterlimit="10" stroke-linecap="round" stroke-linejoin="round"/>
<path d="M8.42969 9.4V5.5" stroke="#292D32" stroke-width="1.5" stroke-miterlimit="10" stroke-linecap="round" stroke-linejoin="round"/>
<path d="M8.43008 16.5496C9.86602 16.5496 11.0301 15.3855 11.0301 13.9496C11.0301 12.5137 9.86602 11.3496 8.43008 11.3496C6.99414 11.3496 5.83008 12.5137 5.83008 13.9496C5.83008 15.3855 6.99414 16.5496 8.43008 16.5496Z" stroke="#292D32" stroke-width="1.5" stroke-miterlimit="10" stroke-linecap="round" stroke-linejoin="round"/>
</g>
</svg>
