<svg width="24" height="24" viewBox="0 0 24 24" fill="none" xmlns="http://www.w3.org/2000/svg">
<path d="M22 9V15C22 15.22 22 15.44 21.98 15.65C21.16 14.64 19.91 14 18.5 14C17.44 14 16.46 14.37 15.69 14.99C14.65 15.81 14 17.08 14 18.5C14 19.91 14.64 21.16 15.65 21.98C15.44 22 15.22 22 15 22H9C4 22 2 20 2 15V9C2 4 4 2 9 2H15C20 2 22 4 22 9Z" stroke="#292D32" stroke-width="1.5" stroke-linecap="round" stroke-linejoin="round"/>
<g opacity="0.4">
<path d="M2.51953 7.10986H21.4796" stroke="#292D32" stroke-width="1.5" stroke-linecap="round" stroke-linejoin="round"/>
<path d="M8.51953 2.10986V6.96985" stroke="#292D32" stroke-width="1.5" stroke-linecap="round" stroke-linejoin="round"/>
<path d="M15.4805 2.10986V6.5199" stroke="#292D32" stroke-width="1.5" stroke-linecap="round" stroke-linejoin="round"/>
</g>
<path d="M23 18.5C23 19.85 22.4 21.05 21.47 21.88C20.67 22.57 19.64 23 18.5 23C17.42 23 16.42 22.62 15.65 21.98C14.64 21.16 14 19.91 14 18.5C14 17.08 14.65 15.81 15.69 14.99C16.46 14.37 17.44 14 18.5 14C19.91 14 21.16 14.64 21.98 15.65C22.62 16.42 23 17.42 23 18.5Z" stroke="#292D32" stroke-width="1.5" stroke-miterlimit="10" stroke-linecap="round" stroke-linejoin="round"/>
<path opacity="0.4" d="M18.7809 17.0898V18.7798L17.3809 19.6198" stroke="#292D32" stroke-width="1.5" stroke-miterlimit="10" stroke-linecap="round" stroke-linejoin="round"/>
</svg>
