<svg width="24" height="24" viewBox="0 0 24 24" fill="none" xmlns="http://www.w3.org/2000/svg">
<path d="M12.3806 16.9203H10.0906C9.68061 16.9203 9.34061 16.5803 9.34061 16.1703C9.34061 15.7603 9.68061 15.4203 10.0906 15.4203H12.3806C12.8106 15.4203 13.1606 15.0703 13.1606 14.6403C13.1606 14.2103 12.8106 13.8603 12.3806 13.8603H10.0906C9.85061 13.8603 9.62062 13.7403 9.48062 13.5503C9.34062 13.3603 9.30062 13.1003 9.38062 12.8703L10.1406 10.5803C10.2406 10.2703 10.5306 10.0703 10.8506 10.0703H13.9106C14.3206 10.0703 14.6606 10.4103 14.6606 10.8203C14.6606 11.2303 14.3206 11.5703 13.9106 11.5703H11.3906L11.1306 12.3603H12.3806C13.6406 12.3603 14.6606 13.3803 14.6606 14.6403C14.6606 15.9003 13.6406 16.9203 12.3806 16.9203Z" fill="#292D32"/>
<path d="M10.0219 5.21847C9.85193 5.21847 9.69193 5.16848 9.55193 5.04848C9.23193 4.78848 9.18193 4.3185 9.43193 3.9985L11.4119 1.52853C11.6719 1.20853 12.1419 1.15847 12.4619 1.40847C12.7819 1.66847 12.8319 2.13852 12.5819 2.45852L10.6019 4.92849C10.4619 5.11849 10.2419 5.21847 10.0219 5.21847Z" fill="#292D32"/>
<path d="M11.9994 22.7488C6.68939 22.7488 2.35938 18.4288 2.35938 13.1088C2.35938 11.0388 3.02939 9.04875 4.30939 7.34875C4.55939 7.01875 5.02938 6.94879 5.35938 7.19879C5.68937 7.44879 5.7594 7.91878 5.5094 8.24878C4.4294 9.68878 3.85938 11.3688 3.85938 13.1088C3.85938 17.5988 7.50939 21.2488 11.9994 21.2488C16.4894 21.2488 20.1394 17.5988 20.1394 13.1088C20.1394 8.61876 16.4894 4.96875 11.9994 4.96875C11.4194 4.96875 10.8294 5.03878 10.1894 5.18878C9.78939 5.27878 9.3794 5.02878 9.2894 4.62878C9.1994 4.22878 9.4494 3.81876 9.8494 3.72876C10.5994 3.55876 11.3094 3.46875 11.9994 3.46875C17.3094 3.46875 21.6394 7.78876 21.6394 13.1088C21.6394 18.4288 17.3094 22.7488 11.9994 22.7488Z" fill="#292D32"/>
</svg>
