<svg width="24" height="24" viewBox="0 0 24 24" fill="none" xmlns="http://www.w3.org/2000/svg">
<path d="M9 10.75H6C5.59 10.75 5.25 10.41 5.25 10C5.25 9.59 5.59 9.25 6 9.25H9C9.41 9.25 9.75 9.59 9.75 10C9.75 10.41 9.41 10.75 9 10.75Z" fill="#292D32"/>
<path d="M17.2417 22.7481H6.76172C6.35172 22.7481 6.01172 22.4081 6.01172 21.9981C6.01172 21.5881 6.35172 21.2481 6.76172 21.2481H17.2417C19.2617 21.2481 20.3517 20.2181 20.4817 18.1981L21.0017 9.93809C21.0517 9.22809 20.8417 8.52809 20.4117 7.95809C20.1617 7.62809 20.2317 7.15809 20.5617 6.90809C20.8917 6.65809 21.3617 6.72809 21.6117 7.05809C22.2517 7.91809 22.5717 8.96809 22.5017 10.0381L21.9817 18.2981C21.8017 21.1281 20.0717 22.7481 17.2417 22.7481Z" fill="#292D32"/>
<path d="M3.44164 21.21C3.20164 21.21 2.96164 21.09 2.81164 20.87C2.35164 20.17 2.08164 19.3 2.02164 18.29L1.50164 10.04C1.42164 8.79 1.85164 7.59 2.71164 6.68C3.56164 5.77 4.76164 5.25 6.00164 5.25C6.32164 5.25 6.63164 5.06 6.78164 4.76L7.50164 3.33C8.09164 2.16 9.57164 1.25 10.8616 1.25H13.1516C14.4416 1.25 15.9116 2.16 16.5016 3.32L17.2216 4.78C17.3716 5.06 17.6716 5.25 18.0016 5.25C18.4116 5.25 18.7516 5.59 18.7516 6C18.7516 6.41 18.4116 6.75 18.0016 6.75C17.1116 6.75 16.3016 6.25 15.8816 5.46L15.1516 4C14.8216 3.34 13.8816 2.76 13.1416 2.76H10.8516C10.1116 2.76 9.17164 3.34 8.83164 4.01L8.12164 5.44C7.70164 6.25 6.89164 6.75 6.00164 6.75C5.16164 6.75 4.38164 7.09 3.80164 7.7C3.23164 8.31 2.94164 9.11 3.00164 9.94L3.52164 18.2C3.56164 18.93 3.75164 19.57 4.07164 20.04C4.30164 20.39 4.20164 20.85 3.86164 21.08C3.73164 21.17 3.58164 21.21 3.44164 21.21Z" fill="#292D32"/>
<path d="M12.0016 18.7482C11.1116 18.7482 10.2416 18.4482 9.54163 17.8982C9.21163 17.6382 9.16163 17.1682 9.41163 16.8482C9.67163 16.5182 10.1416 16.4682 10.4616 16.7182C10.9016 17.0582 11.4416 17.2482 12.0016 17.2482C13.3816 17.2482 14.5016 16.1282 14.5016 14.7482C14.5016 14.2682 14.3716 13.8082 14.1216 13.4182C13.9016 13.0682 14.0016 12.6082 14.3516 12.3782C14.7016 12.1582 15.1616 12.2582 15.3916 12.6082C15.7916 13.2382 16.0116 13.9782 16.0116 14.7382C16.0016 16.9582 14.2116 18.7482 12.0016 18.7482Z" fill="#292D32"/>
<path d="M2.00141 22.7514C1.81141 22.7514 1.62141 22.6814 1.47141 22.5314C1.18141 22.2414 1.18141 21.7614 1.47141 21.4714L21.4714 1.47141C21.7614 1.18141 22.2414 1.18141 22.5314 1.47141C22.8214 1.76141 22.8214 2.24141 22.5314 2.53141L2.53141 22.5314C2.38141 22.6814 2.19141 22.7514 2.00141 22.7514Z" fill="#292D32"/>
</svg>
