<svg width="24" height="24" viewBox="0 0 24 24" fill="none" xmlns="http://www.w3.org/2000/svg">
<path d="M12.0008 19.4206C10.4608 19.4206 8.92078 18.8306 7.75078 17.6606C5.40078 15.3106 5.40078 11.5006 7.75078 9.15063C8.89078 8.01063 10.4008 7.39062 12.0008 7.39062C13.6008 7.39062 15.1208 8.02063 16.2508 9.15063C18.6008 11.5006 18.6008 15.3106 16.2508 17.6606C15.0808 18.8306 13.5408 19.4206 12.0008 19.4206ZM12.0008 8.90063C10.8008 8.90063 9.66078 9.37058 8.81078 10.2206C7.05078 11.9806 7.05078 14.8406 8.81078 16.6006C10.5708 18.3606 13.4308 18.3506 15.1908 16.6006C16.9508 14.8406 16.9508 11.9806 15.1908 10.2206C14.3408 9.37058 13.2008 8.90063 12.0008 8.90063Z" fill="#292D32"/>
<path d="M10.4116 15.7498C10.2216 15.7498 10.0216 15.6799 9.88156 15.5299C9.59156 15.2399 9.59156 14.7599 9.88156 14.4599L11.4716 12.8698C11.7616 12.5798 12.2416 12.5798 12.5416 12.8698C12.8316 13.1598 12.8316 13.6399 12.5416 13.9399L10.9516 15.5299C10.7916 15.6799 10.6016 15.7498 10.4116 15.7498Z" fill="#292D32"/>
<path d="M18.7909 7.5105C18.5509 7.5105 18.3309 7.42049 18.1609 7.25049C17.8109 6.90049 17.8109 6.33048 18.1609 5.99048C18.3309 5.82048 18.5509 5.73047 18.7909 5.73047C19.0309 5.73047 19.2509 5.82048 19.4209 5.99048C19.5909 6.16048 19.6809 6.38048 19.6809 6.62048C19.6809 6.86048 19.5909 7.08049 19.4209 7.25049C19.2609 7.42049 19.0309 7.5105 18.7909 7.5105ZM18.7209 6.54047V6.69049C18.7409 6.71049 18.7709 6.72046 18.8009 6.72046C18.9209 6.65046 18.9209 6.58047 18.8709 6.54047H18.7209Z" fill="#292D32"/>
<path d="M18.7884 7.75879C18.4784 7.75879 18.1984 7.63876 17.9784 7.41876C17.5384 6.97876 17.5384 6.24877 17.9784 5.79877C18.1984 5.57877 18.4784 5.46875 18.7884 5.46875C19.0984 5.46875 19.3784 5.58878 19.5984 5.80878C19.8184 6.02878 19.9284 6.30877 19.9284 6.61877C19.9284 6.92877 19.8084 7.20877 19.5884 7.42877C19.3884 7.63877 19.0984 7.75879 18.7884 7.75879ZM18.5384 6.86877C18.6084 6.93877 18.6984 6.96875 18.7884 6.96875C18.8784 6.96875 18.9684 6.92877 19.0384 6.86877C19.1784 6.72877 19.1784 6.50877 19.0384 6.36877C18.9084 6.23877 18.6684 6.23877 18.5384 6.36877C18.4784 6.42877 18.4384 6.51877 18.4384 6.61877C18.4384 6.70877 18.4684 6.79877 18.5384 6.86877Z" fill="#292D32"/>
<path d="M5.2103 21.0886C4.9803 21.0886 4.75029 20.9986 4.58029 20.8286C4.41029 20.6586 4.32031 20.4286 4.32031 20.1986C4.32031 19.9586 4.41029 19.7386 4.58029 19.5686C4.75029 19.3986 4.9703 19.3086 5.2103 19.3086C5.4503 19.3086 5.6703 19.3986 5.8403 19.5686C6.1903 19.9186 6.1903 20.4886 5.8403 20.8286C5.6703 20.9986 5.4403 21.0886 5.2103 21.0886ZM5.19031 20.0986C5.17031 20.0986 5.15031 20.1086 5.13031 20.1286C5.09031 20.1686 5.09031 20.2386 5.13031 20.2786C5.15031 20.2986 5.18032 20.3086 5.20032 20.3086L5.30029 20.2086C5.27029 20.1186 5.23031 20.0986 5.19031 20.0986Z" fill="#292D32"/>
<path d="M5.20859 21.3386C4.91859 21.3386 4.61859 21.2286 4.39859 21.0086C4.17859 20.7886 4.05859 20.4986 4.05859 20.1986C4.05859 19.8886 4.17859 19.6086 4.39859 19.3886C4.60859 19.1786 4.89859 19.0586 5.20859 19.0586C5.51859 19.0586 5.79859 19.1786 6.01859 19.3986C6.46859 19.8486 6.46859 20.5686 6.01859 21.0186C5.79859 21.2286 5.49859 21.3386 5.20859 21.3386ZM5.20859 19.8386C5.11859 19.8386 5.02859 19.8686 4.95859 19.9386C4.81859 20.0786 4.81859 20.2986 4.95859 20.4386C5.02859 20.5086 5.11859 20.5386 5.20859 20.5386C5.29859 20.5386 5.39859 20.4986 5.45859 20.4286C5.51859 20.3686 5.55859 20.2786 5.55859 20.1786C5.55859 20.0886 5.51859 19.9886 5.45859 19.9286C5.38859 19.8786 5.29859 19.8386 5.20859 19.8386Z" fill="#292D32"/>
<path d="M21.5995 14.3017C21.3695 14.3017 21.1395 14.2117 20.9695 14.0417C20.6195 13.6917 20.6195 13.1217 20.9695 12.7717C21.1395 12.6017 21.3695 12.5617 21.5995 12.5117C21.8395 12.5117 22.0595 12.6017 22.2295 12.7717C22.5795 13.1217 22.5795 13.6917 22.2295 14.0417C22.0595 14.2117 21.8295 14.3017 21.5995 14.3017ZM21.5295 13.4817C21.5495 13.5017 21.5795 13.5117 21.6095 13.5117C21.7195 13.4417 21.7195 13.3717 21.6795 13.3317C21.6395 13.2917 21.5695 13.2917 21.5295 13.3317C21.4895 13.3717 21.4895 13.4417 21.5295 13.4817Z" fill="#292D32"/>
<path d="M21.6006 14.5517C21.3106 14.5517 21.0106 14.4417 20.7906 14.2217C20.3406 13.7717 20.3406 13.0517 20.7906 12.6017C21.0106 12.3817 21.2906 12.2617 21.6006 12.2617C21.9106 12.2617 22.1906 12.3817 22.4106 12.6017C22.8606 13.0517 22.8606 13.7717 22.4106 14.2217C22.1906 14.4417 21.9006 14.5517 21.6006 14.5517ZM21.3506 13.6617C21.4206 13.7317 21.5106 13.7617 21.6006 13.7617C21.6906 13.7617 21.7806 13.7217 21.8506 13.6617C21.9906 13.5217 21.9906 13.3017 21.8506 13.1617C21.7106 13.0217 21.4906 13.0217 21.3506 13.1617C21.2206 13.2917 21.2106 13.5217 21.3506 13.6617Z" fill="#292D32"/>
<path d="M2.40032 14.3003C2.17032 14.3003 1.94031 14.2103 1.77031 14.0403C1.42031 13.6903 1.42031 13.1203 1.77031 12.7703C2.12031 12.4203 2.69033 12.4203 3.04033 12.7703C3.39033 13.1203 3.39033 13.6903 3.04033 14.0403C2.85033 14.2103 2.62032 14.3003 2.40032 14.3003ZM2.32033 13.4803C2.36033 13.5203 2.43032 13.5203 2.47032 13.4803C2.51032 13.4403 2.51032 13.3703 2.47032 13.3303C2.43032 13.2903 2.36033 13.2903 2.32033 13.3303C2.28033 13.3703 2.28033 13.4403 2.32033 13.4803Z" fill="#292D32"/>
<path d="M2.4014 14.5494C2.1114 14.5494 1.81141 14.4394 1.59141 14.2194C1.14141 13.7694 1.14141 13.0494 1.59141 12.5994C2.04141 12.1494 2.7714 12.1594 3.2114 12.5994C3.6614 13.0494 3.6614 13.7694 3.2114 14.2194C2.9814 14.4394 2.6914 14.5494 2.4014 14.5494ZM2.14142 13.6594C2.28142 13.7994 2.50142 13.7994 2.64142 13.6594C2.78142 13.5194 2.78142 13.2894 2.64142 13.1594C2.50142 13.0194 2.28142 13.0194 2.14142 13.1594C2.01142 13.2894 2.01142 13.5194 2.14142 13.6594Z" fill="#292D32"/>
<path d="M18.7909 21.0894C18.5609 21.0894 18.3309 20.9994 18.1609 20.8294C17.8109 20.4794 17.8109 19.9094 18.1609 19.5594C18.5109 19.2094 19.0809 19.2094 19.4309 19.5594C19.6009 19.7294 19.6909 19.9494 19.6909 20.1894C19.6909 20.4294 19.6009 20.6494 19.4309 20.8194C19.2509 20.9994 19.0209 21.0894 18.7909 21.0894ZM18.7909 20.0894C18.7609 20.0894 18.7409 20.0994 18.7209 20.1194V20.2694C18.7609 20.3094 18.8309 20.3094 18.8709 20.2694C18.9109 20.2294 18.9109 20.1594 18.8709 20.1194C18.8409 20.0994 18.8209 20.0894 18.7909 20.0894Z" fill="#292D32"/>
<path d="M18.7881 21.3383C18.4981 21.3383 18.1981 21.2283 17.9781 21.0083C17.5281 20.5583 17.5281 19.8383 17.9781 19.3883C18.4281 18.9383 19.1481 18.9383 19.5981 19.3883C19.8181 19.6083 19.9381 19.8883 19.9381 20.1983C19.9381 20.5083 19.8181 20.7883 19.5981 21.0083C19.3781 21.2283 19.0781 21.3383 18.7881 21.3383ZM18.5381 20.4483C18.6781 20.5883 18.8981 20.5883 19.0381 20.4483C19.1781 20.3083 19.1781 20.0883 19.0381 19.9483C18.8981 19.8083 18.6781 19.8083 18.5381 19.9483C18.4681 20.0183 18.4381 20.1083 18.4381 20.1983C18.4381 20.2883 18.4681 20.3783 18.5381 20.4483Z" fill="#292D32"/>
<path d="M5.2103 7.5105C4.9703 7.5105 4.75029 7.42049 4.58029 7.25049C4.41029 7.08049 4.32031 6.86048 4.32031 6.62048C4.32031 6.38048 4.41029 6.16048 4.58029 5.99048C4.75029 5.82048 4.9703 5.73047 5.2103 5.73047C5.4503 5.73047 5.6703 5.82048 5.8403 5.99048C6.1903 6.34048 6.1903 6.9105 5.8403 7.2605C5.6703 7.4205 5.4503 7.5105 5.2103 7.5105ZM5.13031 6.69049C5.15031 6.71049 5.18032 6.72046 5.20032 6.72046L5.30029 6.62048L5.20032 6.52051C5.09032 6.58051 5.09031 6.65049 5.13031 6.69049Z" fill="#292D32"/>
<path d="M5.2103 7.75879C4.9003 7.75879 4.6203 7.63876 4.4003 7.41876C4.1903 7.20876 4.07031 6.91876 4.07031 6.60876C4.07031 6.29876 4.19031 6.01877 4.41031 5.79877C4.62031 5.58877 4.91031 5.46875 5.22031 5.46875C5.53031 5.46875 5.8103 5.58878 6.0303 5.80878C6.4703 6.25878 6.4703 6.97877 6.0303 7.42877C5.8003 7.63877 5.5203 7.75879 5.2103 7.75879ZM4.9603 6.86877C5.0303 6.93877 5.1203 6.97876 5.2103 6.97876C5.3003 6.97876 5.3903 6.93878 5.4603 6.87878C5.5303 6.81878 5.5603 6.71878 5.5603 6.62878C5.5603 6.53878 5.52032 6.43878 5.45032 6.37878C5.33032 6.24878 5.08032 6.24878 4.95032 6.37878C4.82032 6.49878 4.8203 6.72877 4.9603 6.86877Z" fill="#292D32"/>
<path d="M11.9994 4.70049C11.7594 4.70049 11.5394 4.61048 11.3694 4.44048C11.1994 4.27048 11.1094 4.05047 11.1094 3.81047C11.1094 3.57047 11.1994 3.35047 11.3694 3.18047C11.7194 2.83047 12.2894 2.83047 12.6394 3.18047C12.9894 3.53047 12.9894 4.10048 12.6394 4.44048C12.4694 4.60048 12.2394 4.70049 11.9994 4.70049ZM12.0694 3.73046L11.9194 3.88048C11.9594 3.92048 12.0294 3.92048 12.0694 3.88048V3.73046ZM11.9294 3.73046C11.8894 3.77046 11.8894 3.84048 11.9294 3.88048L12.0794 3.73046H11.9294Z" fill="#292D32"/>
<path d="M11.9994 4.94987C11.6894 4.94987 11.4094 4.82984 11.1894 4.60984C10.9794 4.39984 10.8594 4.10984 10.8594 3.79984C10.8594 3.48984 10.9794 3.20984 11.1994 2.98984C11.6494 2.53984 12.3694 2.53984 12.8194 2.98984C13.2594 3.43984 13.2594 4.15984 12.8194 4.60984C12.5994 4.82984 12.3094 4.94987 11.9994 4.94987ZM12.2494 3.54984L11.7494 4.04984C11.8894 4.18984 12.1094 4.18984 12.2494 4.04984C12.3194 3.97984 12.3494 3.88984 12.3494 3.79984C12.3494 3.70984 12.3194 3.61984 12.2494 3.54984ZM11.9994 3.44987C11.9094 3.44987 11.8094 3.48985 11.7494 3.55985C11.6094 3.69985 11.6094 3.91985 11.7494 4.05985L12.2494 3.55985C12.1894 3.48985 12.0994 3.44987 11.9994 3.44987Z" fill="#292D32"/>
</svg>
