<svg width="24" height="24" viewBox="0 0 24 24" fill="none" xmlns="http://www.w3.org/2000/svg">
<path d="M18.3608 22.7494H5.59084C4.07084 22.7494 2.68084 21.9794 1.88084 20.6794C1.08084 19.3794 1.01084 17.7994 1.69084 16.4294L3.41084 12.9794C3.97084 11.8594 4.87084 11.1594 5.88084 11.0494C6.89084 10.9394 7.92084 11.4394 8.70084 12.4094L8.92084 12.6894C9.36084 13.2294 9.87084 13.5194 10.3708 13.4694C10.8708 13.4294 11.3308 13.0694 11.6708 12.4594L13.5608 9.04944C14.3408 7.63944 15.3808 6.90944 16.5108 6.95944C17.6308 7.01944 18.5908 7.85944 19.2308 9.33944L22.3608 16.6494C22.9408 17.9994 22.8008 19.5394 21.9908 20.7694C21.1908 22.0194 19.8308 22.7494 18.3608 22.7494ZM6.16084 12.5494C6.12084 12.5494 6.08084 12.5494 6.04084 12.5594C5.54084 12.6094 5.08084 13.0094 4.75084 13.6594L3.03084 17.1094C2.58084 17.9994 2.63084 19.0494 3.15084 19.8994C3.67084 20.7494 4.59084 21.2594 5.59084 21.2594H18.3508C19.3308 21.2594 20.2008 20.7894 20.7408 19.9694C21.2808 19.1494 21.3708 18.1694 20.9808 17.2694L17.8508 9.95944C17.4708 9.05944 16.9408 8.50944 16.4308 8.48944C15.9608 8.45944 15.3508 8.95944 14.8708 9.80944L12.9808 13.2194C12.4008 14.2594 11.4908 14.9094 10.5008 14.9994C9.51084 15.0794 8.50084 14.5994 7.75084 13.6594L7.53084 13.3794C7.11084 12.8294 6.63084 12.5494 6.16084 12.5494Z" fill="#292D32"/>
<path d="M6.96875 8.75C4.90875 8.75 3.21875 7.07 3.21875 5C3.21875 2.93 4.89875 1.25 6.96875 1.25C9.03875 1.25 10.7188 2.93 10.7188 5C10.7188 7.07 9.03875 8.75 6.96875 8.75ZM6.96875 2.75C5.72875 2.75 4.71875 3.76 4.71875 5C4.71875 6.24 5.72875 7.25 6.96875 7.25C8.20875 7.25 9.21875 6.24 9.21875 5C9.21875 3.76 8.20875 2.75 6.96875 2.75Z" fill="#292D32"/>
</svg>
