<svg width="24" height="24" viewBox="0 0 24 24" fill="none" xmlns="http://www.w3.org/2000/svg">
<path d="M11 22.75H9C3.57 22.75 1.25 20.43 1.25 15V9C1.25 3.57 3.57 1.25 9 1.25H15C20.43 1.25 22.75 3.57 22.75 9V10C22.75 10.41 22.41 10.75 22 10.75C21.59 10.75 21.25 10.41 21.25 10V9C21.25 4.39 19.61 2.75 15 2.75H9C4.39 2.75 2.75 4.39 2.75 9V15C2.75 19.61 4.39 21.25 9 21.25H11C11.41 21.25 11.75 21.59 11.75 22C11.75 22.41 11.41 22.75 11 22.75Z" fill="#292D32"/>
<path d="M15.2681 22.7511C14.0581 22.7511 13.0781 21.7711 13.0781 20.5611C13.0781 19.3511 14.0581 18.3711 15.2681 18.3711C16.4781 18.3711 17.4581 19.3511 17.4581 20.5611C17.4581 21.7711 16.4781 22.7511 15.2681 22.7511ZM15.2681 19.8611C14.8881 19.8611 14.5781 20.1711 14.5781 20.5511C14.5781 20.9311 14.8881 21.2411 15.2681 21.2411C15.6481 21.2411 15.9581 20.9311 15.9581 20.5511C15.9581 20.1711 15.6481 19.8611 15.2681 19.8611Z" fill="#292D32"/>
<path d="M16.7109 21.3108C16.3009 21.3108 15.9609 20.9708 15.9609 20.5608V14.7408C15.9609 13.8308 16.5209 13.0908 17.4009 12.8608L20.2909 12.0708C21.1909 11.8208 21.7509 12.0608 22.0709 12.3008C22.3809 12.5408 22.7509 13.0208 22.7509 13.9508V19.5908C22.7509 20.0008 22.4109 20.3408 22.0009 20.3408C21.5909 20.3408 21.2509 20.0008 21.2509 19.5908V13.9508C21.2509 13.6308 21.1809 13.5108 21.1509 13.4908C21.1209 13.4708 20.9809 13.4308 20.6709 13.5108L17.7809 14.3008C17.4809 14.3808 17.4509 14.5908 17.4509 14.7408V20.5608C17.4609 20.9708 17.1209 21.3108 16.7109 21.3108Z" fill="#292D32"/>
<path d="M20.5611 21.7902C19.3511 21.7902 18.3711 20.8102 18.3711 19.6002C18.3711 18.3902 19.3511 17.4102 20.5611 17.4102C21.7711 17.4102 22.7511 18.3902 22.7511 19.6002C22.7511 20.8102 21.7711 21.7902 20.5611 21.7902ZM20.5611 18.9002C20.1811 18.9002 19.8711 19.2102 19.8711 19.5902C19.8711 19.9702 20.1811 20.2802 20.5611 20.2802C20.9411 20.2802 21.2511 19.9702 21.2511 19.5902C21.2511 19.2102 20.9411 18.9002 20.5611 18.9002Z" fill="#292D32"/>
<path d="M16.7116 17.1789C16.3816 17.1789 16.0816 16.9589 15.9916 16.6289C15.8816 16.2289 16.1216 15.8189 16.5216 15.7089L21.8116 14.2689C22.2116 14.1589 22.6216 14.3989 22.7316 14.7989C22.8416 15.1989 22.6016 15.6089 22.2016 15.7189L16.9116 17.1589C16.8416 17.1689 16.7716 17.1789 16.7116 17.1789Z" fill="#292D32"/>
</svg>
