<svg width="24" height="24" viewBox="0 0 24 24" fill="none" xmlns="http://www.w3.org/2000/svg">
<path d="M17 22.75H7C3.35 22.75 1.25 20.65 1.25 17V12C1.25 8.35 3.35 6.25 7 6.25H17C20.65 6.25 22.75 8.35 22.75 12V17C22.75 20.65 20.65 22.75 17 22.75ZM7 7.75C4.14 7.75 2.75 9.14 2.75 12V17C2.75 19.86 4.14 21.25 7 21.25H17C19.86 21.25 21.25 19.86 21.25 17V12C21.25 9.14 19.86 7.75 17 7.75H7Z" fill="#292D32"/>
<path d="M18 5.25H6C5.59 5.25 5.25 4.91 5.25 4.5C5.25 4.09 5.59 3.75 6 3.75H18C18.41 3.75 18.75 4.09 18.75 4.5C18.75 4.91 18.41 5.25 18 5.25Z" fill="#292D32"/>
<path d="M15 2.75H9C8.59 2.75 8.25 2.41 8.25 2C8.25 1.59 8.59 1.25 9 1.25H15C15.41 1.25 15.75 1.59 15.75 2C15.75 2.41 15.41 2.75 15 2.75Z" fill="#292D32"/>
<path d="M8.88953 19.8611C7.71953 19.8611 6.76953 18.9111 6.76953 17.7411C6.76953 16.5711 7.71953 15.6211 8.88953 15.6211C10.0595 15.6211 11.0095 16.5711 11.0095 17.7411C11.0095 18.9111 10.0595 19.8611 8.88953 19.8611ZM8.88953 17.1211C8.54953 17.1211 8.26953 17.4011 8.26953 17.7411C8.26953 18.0811 8.54953 18.3611 8.88953 18.3611C9.22953 18.3611 9.50952 18.0811 9.50952 17.7411C9.50952 17.4011 9.22953 17.1211 8.88953 17.1211Z" fill="#292D32"/>
<path d="M10.2578 18.4901C9.84781 18.4901 9.50781 18.1501 9.50781 17.7401V12.2301C9.50781 11.3501 10.0578 10.6401 10.8978 10.4101L13.6378 9.66011C14.5078 9.42011 15.0578 9.65015 15.3578 9.89015C15.6578 10.1201 16.0178 10.5901 16.0178 11.4801V16.8301C16.0178 17.2401 15.6778 17.5801 15.2678 17.5801C14.8578 17.5801 14.5178 17.2401 14.5178 16.8301V11.4801C14.5178 11.2001 14.4578 11.0901 14.4378 11.0801C14.4178 11.0701 14.2978 11.0301 14.0178 11.1101L11.2878 11.8601C11.0378 11.9301 10.9978 12.1001 10.9978 12.2401V17.7501C11.0078 18.1501 10.6678 18.4901 10.2578 18.4901Z" fill="#292D32"/>
<path d="M13.9091 18.9509C12.7391 18.9509 11.7891 18.0009 11.7891 16.8309C11.7891 15.6609 12.7391 14.7109 13.9091 14.7109C15.0791 14.7109 16.0291 15.6609 16.0291 16.8309C16.0291 18.0009 15.0791 18.9509 13.9091 18.9509ZM13.9091 16.2109C13.5691 16.2109 13.2891 16.4909 13.2891 16.8309C13.2891 17.1709 13.5691 17.4509 13.9091 17.4509C14.2491 17.4509 14.5291 17.1709 14.5291 16.8309C14.5291 16.4909 14.2491 16.2109 13.9091 16.2109Z" fill="#292D32"/>
<path d="M10.2585 14.5816C9.92847 14.5816 9.62843 14.3616 9.53843 14.0316C9.42843 13.6316 9.66846 13.2216 10.0685 13.1116L15.0785 11.7416C15.4885 11.6316 15.8885 11.8716 15.9985 12.2716C16.1085 12.6716 15.8684 13.0816 15.4684 13.1916L10.4585 14.5616C10.3885 14.5716 10.3285 14.5816 10.2585 14.5816Z" fill="#292D32"/>
</svg>
