<svg width="24" height="24" viewBox="0 0 24 24" fill="none" xmlns="http://www.w3.org/2000/svg">
<path d="M11.9688 22.75C6.04875 22.75 1.21875 17.93 1.21875 12C1.21875 6.07 6.04875 1.25 11.9688 1.25C17.8888 1.25 22.7188 6.07 22.7188 12C22.7188 17.93 17.8988 22.75 11.9688 22.75ZM11.9688 2.75C6.86875 2.75 2.71875 6.9 2.71875 12C2.71875 17.1 6.86875 21.25 11.9688 21.25C17.0688 21.25 21.2188 17.1 21.2188 12C21.2188 6.9 17.0688 2.75 11.9688 2.75Z" fill="#292D32"/>
<path d="M10.5583 16.9915C10.1183 16.9915 9.69828 16.8815 9.32828 16.6715C8.46828 16.1715 7.98828 15.1915 7.98828 13.9115V10.5615C7.98828 9.28146 8.45828 8.30146 9.31828 7.80146C10.1783 7.30146 11.2683 7.38146 12.3783 8.02146L15.2783 9.69146C16.3883 10.3315 16.9983 11.2315 16.9983 12.2315C16.9983 13.2215 16.3883 14.1315 15.2783 14.7715L12.3783 16.4415C11.7583 16.8115 11.1283 16.9915 10.5583 16.9915ZM10.5583 8.97146C10.3783 8.97146 10.2083 9.01146 10.0783 9.09146C9.69828 9.31146 9.48828 9.84146 9.48828 10.5615V13.9115C9.48828 14.6215 9.69828 15.1615 10.0783 15.3715C10.4483 15.5915 11.0183 15.5015 11.6383 15.1515L14.5383 13.4815C15.1583 13.1215 15.5083 12.6715 15.5083 12.2415C15.5083 11.8115 15.1483 11.3615 14.5383 11.0015L11.6383 9.33146C11.2383 9.09146 10.8683 8.97146 10.5583 8.97146Z" fill="#292D32"/>
</svg>
