<svg width="24" height="24" viewBox="0 0 24 24" fill="none" xmlns="http://www.w3.org/2000/svg">
<path d="M11.9688 22.75C6.04875 22.75 1.21875 17.93 1.21875 12C1.21875 6.07 6.04875 1.25 11.9688 1.25C17.8888 1.25 22.7188 6.07 22.7188 12C22.7188 17.93 17.8988 22.75 11.9688 22.75ZM11.9688 2.75C6.86875 2.75 2.71875 6.9 2.71875 12C2.71875 17.1 6.86875 21.25 11.9688 21.25C17.0688 21.25 21.2188 17.1 21.2188 12C21.2188 6.9 17.0688 2.75 11.9688 2.75Z" fill="#292D32"/>
<path d="M13.2695 16.9795H10.7295C8.19953 16.9795 7.01953 15.7995 7.01953 13.2695V10.7295C7.01953 8.19953 8.19953 7.01953 10.7295 7.01953H13.2695C15.7995 7.01953 16.9795 8.19953 16.9795 10.7295V13.2695C16.9795 15.7995 15.7995 16.9795 13.2695 16.9795ZM10.7295 8.51953C9.03953 8.51953 8.51953 9.03953 8.51953 10.7295V13.2695C8.51953 14.9595 9.03953 15.4795 10.7295 15.4795H13.2695C14.9595 15.4795 15.4795 14.9595 15.4795 13.2695V10.7295C15.4795 9.03953 14.9595 8.51953 13.2695 8.51953H10.7295Z" fill="#292D32"/>
</svg>
