<svg width="24" height="24" viewBox="0 0 24 24" fill="none" xmlns="http://www.w3.org/2000/svg">
<path d="M15 22.75H9C3.57 22.75 1.25 20.43 1.25 15V9C1.25 3.57 3.57 1.25 9 1.25H15C20.43 1.25 22.75 3.57 22.75 9V15C22.75 15.25 22.75 15.5 22.73 15.74C22.7 16.06 22.48 16.32 22.17 16.4C21.86 16.48 21.54 16.36 21.36 16.09C21.35 16.08 21.29 16.01 21.28 15.99C20.59 15.2 19.58 14.75 18.51 14.75C17.49 14.75 16.53 15.15 15.82 15.88C15.14 16.58 14.76 17.51 14.76 18.5C14.76 19.17 14.95 19.84 15.3 20.43C15.49 20.75 15.73 21.03 16 21.27L16.12 21.38C16.35 21.57 16.46 21.9 16.37 22.19C16.28 22.48 16.04 22.7 15.74 22.73C15.51 22.75 15.25 22.75 15 22.75ZM9 2.75C4.39 2.75 2.75 4.39 2.75 9V15C2.75 19.61 4.39 21.25 9 21.25H14.03C14.02 21.24 14.01 21.22 14 21.21C13.5 20.38 13.24 19.45 13.24 18.5C13.24 17.12 13.77 15.82 14.72 14.84C15.7 13.83 17.08 13.25 18.49 13.25C19.48 13.25 20.43 13.52 21.24 14.03V9C21.24 4.39 19.6 2.75 14.99 2.75H9Z" fill="#292D32"/>
<path d="M21.4795 7.85938H2.51953C2.10953 7.85938 1.76953 7.51937 1.76953 7.10938C1.76953 6.69938 2.10953 6.35938 2.51953 6.35938H21.4795C21.8895 6.35938 22.2295 6.69938 22.2295 7.10938C22.2295 7.51937 21.8995 7.85938 21.4795 7.85938Z" fill="#292D32"/>
<path d="M8.51953 7.71936C8.10953 7.71936 7.76953 7.37936 7.76953 6.96936V2.10938C7.76953 1.69938 8.10953 1.35938 8.51953 1.35938C8.92953 1.35938 9.26953 1.69938 9.26953 2.10938V6.96936C9.26953 7.37936 8.92953 7.71936 8.51953 7.71936Z" fill="#292D32"/>
<path d="M15.4805 7.26941C15.0705 7.26941 14.7305 6.92941 14.7305 6.51941V2.10938C14.7305 1.69938 15.0705 1.35938 15.4805 1.35938C15.8905 1.35938 16.2305 1.69938 16.2305 2.10938V6.51941C16.2305 6.93941 15.9005 7.26941 15.4805 7.26941Z" fill="#292D32"/>
<path d="M18.4978 23.75C17.3178 23.75 16.1678 23.35 15.2678 22.61C15.2378 22.59 15.2078 22.57 15.1878 22.55C15.0978 22.47 15.0378 22.43 14.9878 22.37C14.6378 22.07 14.2978 21.67 14.0178 21.21C13.5178 20.38 13.2578 19.45 13.2578 18.5C13.2578 17.12 13.7878 15.82 14.7378 14.84C15.7178 13.83 17.0978 13.25 18.5078 13.25C20.0178 13.25 21.4378 13.89 22.4178 15.01C22.4678 15.05 22.5478 15.15 22.6178 15.25C23.3378 16.12 23.7678 17.29 23.7678 18.5C23.7678 18.94 23.7178 19.35 23.6178 19.74C23.4978 20.24 23.2978 20.73 23.0178 21.2C22.0478 22.78 20.3278 23.75 18.4978 23.75ZM16.0878 21.35C16.1078 21.37 16.1378 21.38 16.1578 21.4C16.8178 21.95 17.6178 22.24 18.4978 22.24C19.8078 22.24 21.0278 21.54 21.7078 20.42C21.9078 20.09 22.0478 19.73 22.1378 19.36C22.2078 19.08 22.2478 18.8 22.2478 18.49C22.2478 17.63 21.9478 16.8 21.3978 16.14C21.3878 16.13 21.2778 16 21.2678 15.98C20.5778 15.19 19.5678 14.74 18.4978 14.74C17.4778 14.74 16.5178 15.14 15.8078 15.87C15.1278 16.57 14.7478 17.5 14.7478 18.49C14.7478 19.16 14.9378 19.83 15.2878 20.42C15.4778 20.74 15.7178 21.02 15.9878 21.26L16.0878 21.35Z" fill="#292D32"/>
<path d="M19.6978 20.4283C19.5078 20.4283 19.3178 20.3583 19.1678 20.2083L16.7878 17.8283C16.4978 17.5383 16.4978 17.0583 16.7878 16.7683C17.0778 16.4783 17.5578 16.4783 17.8478 16.7683L20.2278 19.1483C20.5178 19.4383 20.5178 19.9183 20.2278 20.2083C20.0878 20.3483 19.8878 20.4283 19.6978 20.4283Z" fill="#292D32"/>
<path d="M17.3022 20.4518C17.1122 20.4518 16.9222 20.3817 16.7722 20.2317C16.4822 19.9417 16.4822 19.4617 16.7722 19.1717L19.1522 16.7917C19.4422 16.5017 19.9222 16.5017 20.2122 16.7917C20.5022 17.0817 20.5022 17.5617 20.2122 17.8517L17.8322 20.2317C17.6822 20.3817 17.4922 20.4518 17.3022 20.4518Z" fill="#292D32"/>
</svg>
