<svg width="24" height="24" viewBox="0 0 24 24" fill="none" xmlns="http://www.w3.org/2000/svg">
<path d="M15 22.75H9C3.57 22.75 1.25 20.43 1.25 15V9C1.25 3.57 3.57 1.25 9 1.25H15C20.43 1.25 22.75 3.57 22.75 9V15C22.75 20.43 20.43 22.75 15 22.75ZM9 2.75C4.39 2.75 2.75 4.39 2.75 9V15C2.75 19.61 4.39 21.25 9 21.25H15C19.61 21.25 21.25 19.61 21.25 15V9C21.25 4.39 19.61 2.75 15 2.75H9Z" fill="#292D32"/>
<path d="M6.89062 22.2295C6.48063 22.2295 6.14062 21.8895 6.14062 21.4795V2.51953C6.14062 2.10953 6.48063 1.76953 6.89062 1.76953C7.30062 1.76953 7.64062 2.09953 7.64062 2.51953V21.4795C7.64062 21.8995 7.30062 22.2295 6.89062 22.2295Z" fill="#292D32"/>
<path d="M16.8906 22.2295C16.4806 22.2295 16.1406 21.8895 16.1406 21.4795V2.51953C16.1406 2.10953 16.4806 1.76953 16.8906 1.76953C17.3006 1.76953 17.6406 2.10953 17.6406 2.51953V21.4795C17.6406 21.8995 17.3006 22.2295 16.8906 22.2295Z" fill="#292D32"/>
<path d="M6.88906 7.71875H2.53906C2.12906 7.71875 1.78906 7.37875 1.78906 6.96875C1.78906 6.55875 2.12906 6.21875 2.53906 6.21875H6.88906C7.29906 6.21875 7.63906 6.55875 7.63906 6.96875C7.63906 7.37875 7.29906 7.71875 6.88906 7.71875Z" fill="#292D32"/>
<path d="M6.89125 12.75H2.03125C1.62125 12.75 1.28125 12.41 1.28125 12C1.28125 11.59 1.62125 11.25 2.03125 11.25H6.89125C7.30125 11.25 7.64125 11.59 7.64125 12C7.64125 12.41 7.30125 12.75 6.89125 12.75Z" fill="#292D32"/>
<path d="M6.89047 17.7188H2.48047C2.07047 17.7188 1.73047 17.3787 1.73047 16.9688C1.73047 16.5588 2.07047 16.2188 2.48047 16.2188H6.89047C7.30047 16.2188 7.64047 16.5588 7.64047 16.9688C7.64047 17.3787 7.30047 17.7188 6.89047 17.7188Z" fill="#292D32"/>
<path d="M21.8891 7.71875H17.5391C17.1291 7.71875 16.7891 7.37875 16.7891 6.96875C16.7891 6.55875 17.1291 6.21875 17.5391 6.21875H21.8891C22.2991 6.21875 22.6391 6.55875 22.6391 6.96875C22.6391 7.37875 22.2991 7.71875 21.8891 7.71875Z" fill="#292D32"/>
<path d="M21.8912 12.75H17.0312C16.6213 12.75 16.2812 12.41 16.2812 12C16.2812 11.59 16.6213 11.25 17.0312 11.25H21.8912C22.3012 11.25 22.6412 11.59 22.6412 12C22.6412 12.41 22.3012 12.75 21.8912 12.75Z" fill="#292D32"/>
<path d="M16.9688 12.75H5.96875C5.55875 12.75 5.21875 12.41 5.21875 12C5.21875 11.59 5.55875 11.25 5.96875 11.25H16.9688C17.3787 11.25 17.7188 11.59 17.7188 12C17.7188 12.41 17.3888 12.75 16.9688 12.75Z" fill="#292D32"/>
<path d="M21.8905 17.7188H17.4805C17.0705 17.7188 16.7305 17.3787 16.7305 16.9688C16.7305 16.5588 17.0705 16.2188 17.4805 16.2188H21.8905C22.3005 16.2188 22.6405 16.5588 22.6405 16.9688C22.6405 17.3787 22.3005 17.7188 21.8905 17.7188Z" fill="#292D32"/>
</svg>
