<svg width="24" height="24" viewBox="0 0 24 24" fill="none" xmlns="http://www.w3.org/2000/svg">
<path d="M24 0H0V24H24V0Z" fill="white"/>
<path d="M11.3994 2.35002L6.25938 7.50002C6.05938 7.70002 6.05938 8.01002 6.25938 8.21002L7.98937 9.94002C8.18937 10.14 8.49937 10.14 8.69937 9.94002L13.8494 4.79002C14.0494 4.59002 14.0494 4.28002 13.8494 4.08002L12.1194 2.35002C11.9094 2.16002 11.5994 2.16002 11.3994 2.35002Z" fill="#292D32"/>
<path opacity="0.4" d="M15.2994 6.26016L6.25938 15.3002C6.05938 15.5002 6.05938 15.8102 6.25938 16.0102L7.98937 17.7402C8.18937 17.9402 8.49937 17.9402 8.69937 17.7402L17.7494 8.69016C17.9494 8.49016 17.9494 8.18016 17.7494 7.98016L16.0194 6.25016C15.8194 6.06016 15.4994 6.06016 15.2994 6.26016Z" fill="#292D32"/>
<path d="M19.2098 10.1598L10.1598 19.2098C9.95977 19.4098 9.95977 19.7198 10.1598 19.9198L11.8898 21.6498C12.0898 21.8498 12.3998 21.8498 12.5998 21.6498L21.6498 12.5998C21.8498 12.3998 21.8498 12.0898 21.6498 11.8898L19.9198 10.1598C19.7198 9.95977 19.3998 9.95977 19.2098 10.1598Z" fill="#292D32"/>
<path opacity="0.4" d="M4.09094 13.84L2.36094 12.11C2.16094 11.91 2.16094 11.6 2.36094 11.4L4.09094 9.67002C4.29094 9.47002 4.60094 9.47002 4.80094 9.67002L6.53094 11.4C6.73094 11.6 6.73094 11.91 6.53094 12.11L4.80094 13.84C4.60094 14.04 4.28094 14.04 4.09094 13.84Z" fill="#292D32"/>
</svg>
