<svg width="24" height="24" viewBox="0 0 24 24" fill="none" xmlns="http://www.w3.org/2000/svg">
<path d="M24 0H0V24H24V0Z" fill="white"/>
<path opacity="0.4" d="M12 22C17.5228 22 22 17.5228 22 12C22 6.47715 17.5228 2 12 2C6.47715 2 2 6.47715 2 12C2 17.5228 6.47715 22 12 22Z" fill="#292D32"/>
<path d="M16.4908 11.61C16.8708 11.12 17.1108 10.5 17.1108 9.83C17.1108 8.28 15.7508 6.91 14.1908 6.91H13.3108V5.5C13.3108 5.09 12.9708 4.75 12.5608 4.75C12.1508 4.75 11.8108 5.09 11.8108 5.5V6.92H10.8308H10.6008V5.5C10.6008 5.09 10.2608 4.75 9.85078 4.75C9.44078 4.75 9.12078 5.09 9.12078 5.5V6.92H8.78078H7.05078C6.64078 6.92 6.30078 7.26 6.30078 7.67C6.30078 8.08 6.64078 8.42 7.05078 8.42H8.03078V12V15.58H7.05078C6.64078 15.58 6.30078 15.92 6.30078 16.33C6.30078 16.74 6.64078 17.08 7.05078 17.08H8.78078H9.11078V18.5C9.11078 18.91 9.45078 19.25 9.86078 19.25C10.2708 19.25 10.6108 18.91 10.6108 18.5V17.08H10.8408H11.8208V18.5C11.8208 18.91 12.1608 19.25 12.5708 19.25C12.9808 19.25 13.3208 18.91 13.3208 18.5V17.08H14.9708C16.7508 17.08 18.2008 15.77 18.2008 14.16C18.2008 13.06 17.5008 12.1 16.4908 11.61ZM10.8408 8.42H14.2008C15.0008 8.42 15.6208 9.18 15.6208 9.84C15.6208 10.62 14.9808 11.26 14.2008 11.26H9.53078V8.42H10.8408ZM14.9708 15.58H10.8408H9.53078V12.75H14.2008H14.9708C15.9208 12.75 16.7008 13.39 16.7008 14.17C16.7008 14.95 15.9208 15.58 14.9708 15.58Z" fill="#292D32"/>
</svg>
