<svg width="24" height="24" viewBox="0 0 24 24" fill="none" xmlns="http://www.w3.org/2000/svg">
<path opacity="0.58" d="M24 0H0V24H24V0Z" fill="white"/>
<path d="M14.2991 10.1301C14.5791 11.2301 14.0891 12.2501 13.2491 12.7701V14.7501C13.2491 15.4401 12.6891 16.0001 11.9991 16.0001C11.3091 16.0001 10.7491 15.4401 10.7491 14.7501V12.7701C10.0691 12.3501 9.61914 11.6001 9.61914 10.7501C9.61914 9.23006 11.0591 8.05006 12.6391 8.47006C13.4391 8.68006 14.0891 9.33006 14.2991 10.1301Z" fill="#292D32"/>
<path opacity="0.4" d="M12 22.75C6.07 22.75 1.25 17.93 1.25 12C1.25 6.07 6.07 1.25 12 1.25C16.74 1.25 20.86 4.29 22.27 8.8C22.39 9.2 22.17 9.62 21.78 9.74C21.38 9.86 20.96 9.64 20.84 9.25C19.63 5.36 16.08 2.75 12.01 2.75C6.90999 2.75 2.75999 6.9 2.75999 12C2.75999 17.1 6.90999 21.25 12.01 21.25C16.07 21.25 19.62 18.65 20.83 14.78C20.95 14.38 21.37 14.17 21.77 14.29C22.17 14.41 22.38 14.84 22.26 15.23C20.84 19.73 16.72 22.75 12 22.75Z" fill="#292D32"/>
</svg>
