<svg width="24" height="24" viewBox="0 0 24 24" fill="none" xmlns="http://www.w3.org/2000/svg">
<path opacity="0.58" d="M24 0H0V24H24V0Z" fill="white"/>
<path opacity="0.4" d="M16.1898 2H7.81978C4.17978 2 2.00977 4.17 2.00977 7.81V16.18C2.00977 19.82 4.17978 21.99 7.81978 21.99H16.1898C19.8298 21.99 21.9998 19.82 21.9998 16.18V7.81C21.9998 4.17 19.8298 2 16.1898 2Z" fill="#292D32"/>
<path d="M11 5.5V7.5C11 7.78 10.78 8 10.5 8H9C8.45 8 8 8.45 8 9V10.5C8 10.78 7.78 11 7.5 11H5.5C5.22 11 5 10.78 5 10.5V9C5 6.79 6.79 5 9 5H10.5C10.78 5 11 5.22 11 5.5Z" fill="#292D32"/>
<path d="M13 18.5V16.5C13 16.22 13.22 16 13.5 16H15C15.55 16 16 15.55 16 15V13.5C16 13.22 16.22 13 16.5 13H18.5C18.78 13 19 13.22 19 13.5V15C19 17.21 17.21 19 15 19H13.5C13.22 19 13 18.78 13 18.5Z" fill="#292D32"/>
</svg>
