<svg width="24" height="24" viewBox="0 0 24 24" fill="none" xmlns="http://www.w3.org/2000/svg">
<path opacity="0.58" d="M24 0H0V24H24V0Z" fill="white"/>
<path opacity="0.4" d="M21.3992 12.9498L16.8892 15.2098L13.6992 12.0198L16.9192 8.7998L21.3992 11.0498C22.1892 11.4398 22.1892 12.5598 21.3992 12.9498Z" fill="#292D32"/>
<path d="M16.9193 8.80009L13.6993 12.0201L4.0293 2.3501L16.9193 8.80009Z" fill="#292D32"/>
<path opacity="0.4" d="M13.7 12.0202L4.12 21.6003L3.55 21.8902C2.83 22.2402 2 21.7302 2 20.9302V3.07025C2 2.27025 2.83 1.76024 3.55 2.11024L4.03 2.35025L13.7 12.0202Z" fill="#292D32"/>
<path d="M16.8891 15.21L4.11914 21.6L13.6991 12.02L16.8891 15.21Z" fill="#292D32"/>
</svg>
