<svg width="24" height="24" viewBox="0 0 24 24" fill="none" xmlns="http://www.w3.org/2000/svg">
<path d="M7.5 17.4001V6.6001" stroke="#292D32" stroke-width="1.5" stroke-miterlimit="10" stroke-linecap="round" stroke-linejoin="round"/>
<path d="M7.5 9.75586H16.5" stroke="#292D32" stroke-width="1.5" stroke-miterlimit="10" stroke-linecap="round" stroke-linejoin="round"/>
<path opacity="0.4" d="M12 24C18.6274 24 24 18.6274 24 12C24 5.37258 18.6274 0 12 0C5.37258 0 0 5.37258 0 12C0 18.6274 5.37258 24 12 24Z" fill="#292D32"/>
<path d="M16.4996 18.3002C16.0076 18.3002 15.5996 17.8922 15.5996 17.4002V6.6002C15.5996 6.1082 16.0076 5.7002 16.4996 5.7002C16.9916 5.7002 17.3996 6.1082 17.3996 6.6002V17.4002C17.3996 17.8922 16.9916 18.3002 16.4996 18.3002Z" fill="#292D32"/>
<path d="M16.5001 15.1437H7.50013C7.00813 15.1437 7.60013 14.7357 7.60013 14.2437C7.60013 13.7517 7.00813 13.3438 7.50013 13.3438H16.5001C16.9921 13.3438 17.4001 13.7517 17.4001 14.2437C17.4001 14.7357 16.9921 15.1437 16.5001 15.1437Z" fill="#292D32"/>
</svg>
