<svg width="24" height="24" viewBox="0 0 24 24" fill="none" xmlns="http://www.w3.org/2000/svg">
<path opacity="0.58" d="M24 0H0V24H24V0Z" fill="white"/>
<path opacity="0.4" d="M10.99 2.59977L4.48999 6.41977C3.87999 6.77977 3.5 7.43977 3.5 8.13977V15.8498C3.5 16.5598 3.87999 17.2098 4.48999 17.5698L10.99 21.3898C11.62 21.7598 12.39 21.7598 13.02 21.3898L19.52 17.5698C20.13 17.2098 20.51 16.5498 20.51 15.8498V8.13977C20.51 7.42977 20.13 6.77977 19.52 6.41977L13.02 2.59977C12.39 2.22977 11.61 2.22977 10.99 2.59977Z" fill="#292D32"/>
<path d="M17.39 14.3601L14.78 12.7901L15.04 12.5301C15.33 12.2401 15.33 11.7601 15.04 11.4701C14.75 11.1801 14.27 11.1801 13.98 11.4701L13.46 11.9901L11.66 10.9101L12.04 10.5301C12.33 10.2401 12.33 9.76012 12.04 9.47012C11.75 9.18012 11.27 9.18012 10.98 9.47012L10.33 10.1201L8.46002 9.00012L12 6.87012L16.61 9.64012C16.97 9.85012 17.43 9.74012 17.64 9.38012C17.85 9.03012 17.74 8.56012 17.38 8.35012L12.38 5.35012C12.14 5.21012 11.84 5.21012 11.61 5.35012L6.60999 8.35012C6.37999 8.49012 6.25 8.73012 6.25 8.99012C6.25 9.25012 6.38999 9.50012 6.60999 9.63012L9.21997 11.2001L8.96002 11.4601C8.67002 11.7501 8.67002 12.2301 8.96002 12.5201C9.11002 12.6701 9.29999 12.7401 9.48999 12.7401C9.67999 12.7401 9.87002 12.6701 10.02 12.5201L10.54 12.0001L12.34 13.0801L11.96 13.4601C11.67 13.7501 11.67 14.2301 11.96 14.5201C12.11 14.6701 12.3 14.7401 12.49 14.7401C12.68 14.7401 12.87 14.6701 13.02 14.5201L13.67 13.8701L15.53 14.9901L12 17.1301L7.39001 14.3601C7.03001 14.1501 6.56999 14.2601 6.35999 14.6201C6.14999 14.9801 6.26 15.4401 6.62 15.6501L11.62 18.6501C11.74 18.7201 11.87 18.7601 12.01 18.7601C12.15 18.7601 12.28 18.7201 12.4 18.6501L17.4 15.6501C17.63 15.5101 17.76 15.2701 17.76 15.0101C17.76 14.7501 17.61 14.4901 17.39 14.3601Z" fill="#292D32"/>
</svg>
