<svg width="24" height="24" viewBox="0 0 24 24" fill="none" xmlns="http://www.w3.org/2000/svg">
<path d="M20.0297 2.48047L4.17969 18.3305" stroke="#292D32" stroke-width="1.5" stroke-linecap="round" stroke-linejoin="round"/>
<path d="M13.5996 2.17188C15.0596 2.49187 16.3596 3.27187 17.3596 4.35187" stroke="#292D32" stroke-width="1.5" stroke-linecap="round" stroke-linejoin="round"/>
<path d="M5.25008 13.0017C4.83008 12.0317 4.58008 10.9817 4.58008 9.90172C4.58008 6.52172 6.57008 3.64172 9.38008 2.51172" stroke="#292D32" stroke-width="1.5" stroke-linecap="round" stroke-linejoin="round"/>
<path d="M19.0602 7.30078C20.2802 11.1808 18.3102 15.0808 15.5202 16.8708V18.0308C15.5202 18.3208 15.6202 18.9908 14.6202 18.9908H9.42016C8.39016 18.9908 8.52016 18.5608 8.52016 18.0308V16.8708C8.04016 16.5708 7.59016 16.2008 7.16016 15.7708" stroke="#292D32" stroke-width="1.5" stroke-linecap="round" stroke-linejoin="round"/>
<path d="M8.5 21.9992C10.79 21.3492 13.21 21.3492 15.5 21.9992" stroke="#292D32" stroke-width="1.5" stroke-linecap="round" stroke-linejoin="round"/>
</svg>
