<svg width="24" height="24" viewBox="0 0 24 24" fill="none" xmlns="http://www.w3.org/2000/svg">
<path opacity="0.4" d="M20.68 6.32031V19.9503C20.68 21.7503 19.39 22.5103 17.82 21.6403L12.94 18.9203C12.42 18.6403 11.58 18.6403 11.06 18.9203L6.18 21.6403C5.76 21.8703 5.36 21.9903 5 22.0003L20.68 6.32031Z" fill="#292D32"/>
<path d="M20.1203 3.88L3.39031 20.61C3.34031 20.41 3.32031 20.19 3.32031 19.95V5.86C3.32031 3.74 5.05031 2 7.18031 2H16.8203C18.2203 2 19.4503 2.75 20.1203 3.88Z" fill="#292D32"/>
<path d="M21.7709 2.22891C21.4709 1.92891 20.9809 1.92891 20.6809 2.22891L2.23086 20.6889C1.93086 20.9889 1.93086 21.4789 2.23086 21.7789C2.38086 21.9189 2.57086 21.9989 2.77086 21.9989C2.97086 21.9989 3.16086 21.9189 3.31086 21.7689L21.7709 3.30891C22.0809 3.00891 22.0809 2.52891 21.7709 2.22891Z" fill="#292D32"/>
</svg>
