<svg width="24" height="24" viewBox="0 0 24 24" fill="none" xmlns="http://www.w3.org/2000/svg">
<path opacity="0.4" d="M12 5.30166V21.3317C12.17 21.3317 12.35 21.3016 12.49 21.2216L12.53 21.2017C14.45 20.1517 17.8 19.0517 19.97 18.7617L20.26 18.7216C21.22 18.6016 22 17.7017 22 16.7417V4.66164C22 3.47164 21.03 2.57165 19.84 2.67165C17.74 2.84165 14.56 3.90168 12.78 5.01168L12.53 5.16164C12.38 5.25164 12.19 5.30166 12 5.30166Z" fill="#292D32"/>
<path d="M2 4.66953V16.7395C2 17.6995 2.77999 18.5995 3.73999 18.7195L4.07001 18.7596C6.25001 19.0496 9.61003 20.1595 11.53 21.2195C11.66 21.2995 11.82 21.3296 12 21.3296V5.29954C11.81 5.29954 11.62 5.24952 11.47 5.15952L11.3 5.04954C9.51999 3.92954 6.32998 2.85954 4.22998 2.67954H4.16998C2.97998 2.57954 2 3.46953 2 4.66953Z" fill="#292D32"/>
<path d="M19 2.78125V7.07123C19 7.47123 18.56 7.71121 18.22 7.49121L17 6.68121L15.78 7.49121C15.45 7.71121 15 7.47123 15 7.07123V3.9212C16.31 3.4012 17.77 2.98125 19 2.78125Z" fill="#292D32"/>
</svg>
