<svg width="24" height="24" viewBox="0 0 24 24" fill="none" xmlns="http://www.w3.org/2000/svg">
<path d="M8.90024 16.5289C9.38024 16.0089 10.1203 16.0489 10.5403 16.6189L11.1403 17.4189C11.6103 18.0489 12.3902 18.0489 12.8602 17.4189L13.4503 16.6289C13.8703 16.0689 14.6102 16.0289 15.0902 16.5389C16.1402 17.6589 16.9902 17.2889 16.9902 15.7189V9.08891C16.9902 6.71891 16.4302 6.12891 14.2102 6.12891H9.77023C7.55023 6.12891 6.99023 6.71891 6.99023 9.08891V15.7189C7.00023 17.2689 7.86024 17.6389 8.90024 16.5289Z" fill="#292D32"/>
<path opacity="0.4" d="M16.1898 2H7.81976C4.17976 2 2.00977 4.17 2.00977 7.81V16.18C2.00977 19.82 4.17976 21.99 7.81976 21.99H16.1898C19.8298 21.99 21.9998 19.82 21.9998 16.18V7.81C21.9998 4.17 19.8298 2 16.1898 2Z" fill="#292D32"/>
</svg>
