<svg width="24" height="24" viewBox="0 0 24 24" fill="none" xmlns="http://www.w3.org/2000/svg">
<path d="M11.9997 8.9102C11.5097 8.9102 11.0296 8.7302 10.6596 8.3602L7.98964 5.6902C7.44964 5.1502 7.27967 4.34019 7.57967 3.62019C7.86967 2.91019 8.55967 2.4502 9.32967 2.4502H14.6796C15.4496 2.4502 16.1396 2.91019 16.4296 3.62019C16.7196 4.33019 16.5597 5.1402 16.0197 5.6902L13.3496 8.3602C12.9696 8.7202 12.4897 8.9102 11.9997 8.9102ZM9.04964 4.62019L11.7196 7.29019C11.8696 7.44019 12.1197 7.44019 12.2797 7.29019L14.9497 4.62019C15.1197 4.45019 15.0697 4.2602 15.0297 4.1902C14.9897 4.1202 14.8996 3.9502 14.6696 3.9502H9.31966C9.07966 3.9502 8.98967 4.1202 8.95967 4.1902C8.92967 4.2602 8.87964 4.45019 9.04964 4.62019Z" fill="black"/>
<path d="M14.6703 21.5599H9.32034C8.55034 21.5599 7.86034 21.0999 7.57034 20.3899C7.28034 19.6799 7.44032 18.8699 7.98032 18.3199L10.6504 15.6499C11.3704 14.9299 12.6104 14.9299 13.3304 15.6499L16.0003 18.3199C16.5403 18.8599 16.7103 19.6799 16.4103 20.3899C16.1303 21.0999 15.4403 21.5599 14.6703 21.5599ZM9.05032 19.3799C8.88032 19.5499 8.93031 19.7399 8.97031 19.8099C9.01031 19.8799 9.10035 20.0499 9.33035 20.0499H14.6803C14.9203 20.0499 15.0103 19.8799 15.0403 19.8099C15.0703 19.7399 15.1204 19.5499 14.9604 19.3799L12.2903 16.7099C12.1403 16.5599 11.8903 16.5599 11.7303 16.7099L9.05032 19.3799Z" fill="black"/>
<path d="M5.22965 17.2499C5.16965 17.2499 5.0997 17.2499 5.0297 17.2399C4.4897 17.1799 4.01965 16.8899 3.72965 16.4299L1.51969 12.9499C1.14969 12.3699 1.14969 11.6299 1.51969 11.0499L3.72965 7.56994C4.01965 7.11994 4.4897 6.81993 5.0297 6.75993C5.5597 6.69993 6.08964 6.88994 6.46964 7.26994L9.94968 10.7499C10.2797 11.0799 10.4696 11.5299 10.4696 11.9999C10.4696 12.4699 10.2897 12.9199 9.94968 13.2499L6.47965 16.7299C6.14965 17.0599 5.69965 17.2499 5.22965 17.2499ZM2.78965 11.8599C2.72965 11.9499 2.72965 12.0599 2.78965 12.1499L4.99967 15.6299C5.05967 15.7199 5.14968 15.7499 5.19968 15.7499C5.24968 15.7499 5.33965 15.7499 5.41965 15.6699L8.89969 12.1899C8.96969 12.1199 8.97965 12.0399 8.97965 11.9999C8.97965 11.9599 8.96969 11.8799 8.89969 11.8099L5.41965 8.32994C5.33965 8.24994 5.24968 8.24993 5.19968 8.24993C5.14968 8.25993 5.05967 8.27993 4.99967 8.36993L2.78965 11.8599Z" fill="black"/>
<path d="M18.7695 17.2499C18.2995 17.2499 17.8595 17.0699 17.5195 16.7299L14.0395 13.2499C13.7095 12.9199 13.5195 12.4699 13.5195 11.9999C13.5195 11.5299 13.6995 11.0799 14.0395 10.7499L17.5095 7.26994C17.8895 6.88994 18.4195 6.69993 18.9495 6.75993C19.4895 6.81993 19.9595 7.10994 20.2495 7.56994L22.4595 11.0499C22.8295 11.6299 22.8295 12.3699 22.4595 12.9499L20.2495 16.4299C19.9595 16.8899 19.4895 17.1799 18.9495 17.2399C18.8995 17.2399 18.8295 17.2499 18.7695 17.2499ZM18.7695 8.25993C18.7195 8.25993 18.6495 8.26993 18.5795 8.33993L15.0995 11.8199C15.0295 11.8899 15.0195 11.9699 15.0195 12.0099C15.0195 12.0499 15.0295 12.1299 15.0995 12.1999L18.5795 15.6799C18.6595 15.7599 18.7495 15.7599 18.7995 15.7599C18.8495 15.7499 18.9395 15.7299 18.9995 15.6399L21.2095 12.1599C21.2695 12.0699 21.2695 11.9599 21.2095 11.8699L18.9995 8.38993C18.9395 8.29993 18.8495 8.26994 18.7995 8.26994C18.7895 8.25994 18.7795 8.25993 18.7695 8.25993Z" fill="black"/>
</svg>
