<svg width="24" height="24" viewBox="0 0 24 24" fill="none" xmlns="http://www.w3.org/2000/svg">
<path d="M21 7.75H9C8.04 7.75 7.25 6.96 7.25 6V3C7.25 2.04 8.04 1.25 9 1.25H21C21.96 1.25 22.75 2.04 22.75 3V6C22.75 6.96 21.96 7.75 21 7.75ZM9 2.75C8.86 2.75 8.75 2.86 8.75 3V6C8.75 6.14 8.86 6.25 9 6.25H21C21.14 6.25 21.25 6.14 21.25 6V3C21.25 2.86 21.14 2.75 21 2.75H9Z" fill="black"/>
<path d="M12 22.75H7C6.59 22.75 6.25 22.41 6.25 22V17C6.25 16.59 6.59 16.25 7 16.25H12C12.41 16.25 12.75 16.59 12.75 17V22C12.75 22.41 12.41 22.75 12 22.75ZM7.75 21.25H11.25V17.75H7.75V21.25Z" fill="black"/>
<path d="M7 15.25H2C1.59 15.25 1.25 14.91 1.25 14.5V9.5C1.25 9.09 1.59 8.75 2 8.75H7C7.41 8.75 7.75 9.09 7.75 9.5V14.5C7.75 14.91 7.41 15.25 7 15.25ZM2.75 13.75H6.25V10.25H2.75V13.75Z" fill="black"/>
<path d="M18 15.1101H9.5C9.09 15.1101 8.75 14.7701 8.75 14.3601V9.64014C8.75 9.23014 9.09 8.89014 9.5 8.89014H18C18.41 8.89014 18.75 9.23014 18.75 9.64014V14.3601C18.75 14.7801 18.41 15.1101 18 15.1101ZM10.25 13.6101H17.25V10.3901H10.25V13.6101Z" fill="black"/>
</svg>
