<svg width="24" height="24" viewBox="0 0 24 24" fill="none" xmlns="http://www.w3.org/2000/svg">
<path d="M12.0005 22.71C11.8405 22.71 11.6805 22.69 11.5205 22.64L5.44049 20.9C4.75049 20.7 4.26049 20.12 4.18049 19.41L2.38049 3.19C2.33049 2.7 2.48049 2.19999 2.82049 1.82999C3.15049 1.45999 3.63049 1.25 4.12049 1.25H19.8905C20.3905 1.25 20.8605 1.45999 21.1905 1.82999C21.5205 2.19999 21.6805 2.7 21.6305 3.19L19.8305 19.41C19.7505 20.12 19.2605 20.7 18.5705 20.9L12.4905 22.64C12.3205 22.69 12.1605 22.71 12.0005 22.71ZM4.12049 2.75C4.02049 2.75 3.96049 2.79999 3.93049 2.82999C3.90049 2.85999 3.86049 2.92999 3.87049 3.01999L5.67049 19.24C5.68049 19.34 5.75049 19.43 5.85049 19.45L11.9305 21.19C11.9705 21.2 12.0205 21.2 12.0705 21.19L18.1505 19.45C18.2505 19.42 18.3205 19.34 18.3305 19.24L20.1305 3.01999C20.1405 2.91999 20.1005 2.85999 20.0705 2.82999C20.0405 2.79999 19.9805 2.75 19.8805 2.75H4.12049Z" fill="black"/>
<path d="M11.9998 17.75C11.9298 17.75 11.8598 17.74 11.7898 17.72L8.28977 16.72C8.02977 16.65 7.82977 16.44 7.76977 16.18L7.26977 14.18C7.16977 13.78 7.40977 13.37 7.81977 13.27C8.21977 13.17 8.62976 13.41 8.72976 13.82L9.12977 15.4L12.0098 16.22L14.8198 15.42L15.6698 7.74997L7.50977 7.72998C7.09977 7.72998 6.75977 7.38998 6.75977 6.97998C6.75977 6.56998 7.09977 6.22998 7.50977 6.22998L16.5098 6.24997C16.7198 6.24997 16.9298 6.33997 17.0698 6.49997C17.2098 6.65997 17.2798 6.86996 17.2598 7.07996L16.2598 16.08C16.2298 16.38 16.0098 16.63 15.7198 16.72L12.2198 17.72C12.1398 17.74 12.0698 17.75 11.9998 17.75Z" fill="black"/>
<path d="M16.06 11.75H8C7.59 11.75 7.25 11.41 7.25 11C7.25 10.59 7.59 10.25 8 10.25H16.06C16.47 10.25 16.81 10.59 16.81 11C16.81 11.41 16.47 11.75 16.06 11.75Z" fill="black"/>
</svg>
