<svg width="24" height="24" viewBox="0 0 24 24" fill="none" xmlns="http://www.w3.org/2000/svg">
<path d="M20.2598 5.25C19.4298 5.25 18.7598 4.58 18.7598 3.75C18.7598 2.92 19.4298 2.25 20.2598 2.25H20.2697C21.0997 2.25 21.7697 2.92 21.7697 3.75C21.7697 4.58 21.0898 5.25 20.2598 5.25Z" fill="black"/>
<path d="M3.75977 21.75C2.92977 21.75 2.25977 21.08 2.25977 20.25C2.25977 19.42 2.92977 18.75 3.75977 18.75H3.76974C4.59974 18.75 5.26974 19.42 5.26974 20.25C5.26974 21.08 4.58977 21.75 3.75977 21.75Z" fill="black"/>
<path d="M6.03 16.4C5.78 16.4 5.53001 16.27 5.39001 16.04C4.65001 14.83 4.25 13.43 4.25 12C4.25 7.73 7.73 4.25 12 4.25C13.41 4.25 14.79 4.63001 15.99 5.35001C16.34 5.56001 16.46 6.02 16.25 6.38C16.04 6.73 15.58 6.85 15.22 6.64C14.25 6.06 13.14 5.75 12.01 5.75C8.56001 5.75 5.76001 8.55 5.76001 12C5.76001 13.15 6.07999 14.28 6.67999 15.26C6.89999 15.61 6.78999 16.07 6.42999 16.29C6.29999 16.37 6.16 16.4 6.03 16.4Z" fill="black"/>
<path d="M12.0001 19.7498C10.5601 19.7498 9.16013 19.3498 7.95013 18.6098C7.60013 18.3898 7.49013 17.9298 7.70013 17.5798C7.92013 17.2298 8.38012 17.1198 8.73012 17.3298C9.71012 17.9298 10.8401 18.2498 12.0001 18.2498C15.4501 18.2498 18.2501 15.4498 18.2501 11.9998C18.2501 10.8498 17.9301 9.71979 17.3301 8.73979C17.1101 8.38979 17.2201 7.92979 17.5801 7.70979C17.9301 7.49979 18.3901 7.59979 18.6101 7.95979C19.3501 9.1798 19.7501 10.5698 19.7501 12.0098C19.7501 16.2698 16.2701 19.7498 12.0001 19.7498Z" fill="black"/>
</svg>
