<svg width="24" height="24" viewBox="0 0 24 24" fill="none" xmlns="http://www.w3.org/2000/svg">
<path d="M7.12954 20.75H5.17953C4.65953 20.75 4.17954 20.53 3.83954 20.13C3.50954 19.74 3.35955 19.22 3.44955 18.72L5.83954 4.39001C6.13954 2.57001 7.69955 1.25 9.53955 1.25H13.9995C17.1695 1.25 19.7495 3.83 19.7495 7C19.7495 7.21 19.7395 7.40999 19.7095 7.60999C19.5795 9.16999 18.8896 10.66 17.7596 11.78C16.4995 13.05 14.7995 13.76 12.9895 13.76H9.85953C9.73953 13.76 9.62953 13.85 9.60953 13.98L8.84955 19.26C8.74955 19.93 8.27953 20.48 7.64953 20.67C7.44953 20.74 7.25954 20.75 7.12954 20.75ZM9.53955 2.75C8.42955 2.75 7.49955 3.54 7.31955 4.63L4.92953 18.96C4.90953 19.06 4.95953 19.13 4.98953 19.16C5.01953 19.19 5.07953 19.25 5.17953 19.25H7.12954C7.29955 19.2 7.35954 19.12 7.37954 19.03L8.13955 13.76C8.25955 12.9 9.00953 12.26 9.86953 12.26H12.9995C14.4095 12.26 15.7195 11.71 16.7095 10.72C17.5895 9.85 18.1196 8.7 18.2296 7.47C18.2496 7.3 18.2596 7.16001 18.2596 7.01001C18.2596 4.67001 16.3496 2.76001 14.0096 2.76001H9.53955V2.75Z" fill="black"/>
<path d="M11.1496 22.75H8.21962C7.69962 22.75 7.20961 22.52 6.86961 22.11C6.52961 21.7 6.39961 21.17 6.49961 20.65L6.75962 19.34L7.20961 19.22C7.28961 19.2 7.35962 19.12 7.37962 19.02L8.13963 13.75C8.25963 12.89 9.00961 12.25 9.86961 12.25H12.9996C14.4096 12.25 15.7196 11.7 16.7096 10.71C17.5896 9.84002 18.1196 8.69002 18.2296 7.46002L18.3296 6.29004L19.3496 6.87003C20.8396 7.72003 21.7596 9.30003 21.7596 11C21.7596 12.53 21.1596 13.97 20.0796 15.07C18.9796 16.16 17.5396 16.75 16.0096 16.75H13.8596C13.7296 16.75 13.6296 16.84 13.6096 16.96L12.8896 21.28C12.7396 22.13 12.0096 22.75 11.1496 22.75ZM8.06962 20.47L7.96962 20.95C7.94962 21.05 7.99961 21.13 8.02961 21.16C8.05961 21.2 8.11962 21.25 8.21962 21.25H11.1496C11.2796 21.25 11.3796 21.16 11.3996 21.04L12.1196 16.72C12.2596 15.87 12.9896 15.25 13.8496 15.25H15.9996C17.1296 15.25 18.1996 14.81 19.0096 14.01C19.8096 13.21 20.2496 12.13 20.2496 11C20.2496 10.22 19.9696 9.48002 19.4696 8.90002C19.1596 9.98002 18.5696 10.98 17.7596 11.78C16.4996 13.05 14.7996 13.76 12.9896 13.76H9.8596C9.7396 13.76 9.6296 13.85 9.6096 13.98L8.84962 19.26C8.77962 19.76 8.48962 20.2 8.06962 20.47Z" fill="black"/>
</svg>
