<svg width="24" height="24" viewBox="0 0 24 24" fill="none" xmlns="http://www.w3.org/2000/svg">
<path d="M15.2504 15.9999C15.0604 15.9999 14.8704 15.9299 14.7204 15.7799L12.0004 13.0599L9.28043 15.7799C8.99043 16.0699 8.51043 16.0699 8.22043 15.7799L4.97043 12.5299C4.68043 12.2399 4.68043 11.7599 4.97043 11.4699L8.22043 8.21994C8.51043 7.92994 8.99043 7.92994 9.28043 8.21994L12.0004 10.9399L14.7204 8.21994C15.0104 7.92994 15.4904 7.92994 15.7804 8.21994L19.0304 11.4699C19.3204 11.7599 19.3204 12.2399 19.0304 12.5299L15.7804 15.7799C15.6304 15.9299 15.4404 15.9999 15.2504 15.9999ZM13.0604 11.9999L15.2504 14.1899L17.4404 11.9999L15.2504 9.80994L13.0604 11.9999ZM6.56043 11.9999L8.75043 14.1899L10.9404 11.9999L8.75043 9.80994L6.56043 11.9999Z" fill="black"/>
<path d="M12 22.75C6.07 22.75 1.25 17.93 1.25 12C1.25 6.07 6.07 1.25 12 1.25C17.93 1.25 22.75 6.07 22.75 12C22.75 17.93 17.93 22.75 12 22.75ZM12 2.75C6.9 2.75 2.75 6.9 2.75 12C2.75 17.1 6.9 21.25 12 21.25C17.1 21.25 21.25 17.1 21.25 12C21.25 6.9 17.1 2.75 12 2.75Z" fill="black"/>
</svg>
