<svg width="24" height="24" viewBox="0 0 24 24" fill="none" xmlns="http://www.w3.org/2000/svg">
<path d="M10.2302 21.8798C10.1602 21.8798 10.0903 21.8798 10.0203 21.8598C9.43026 21.7798 8.93022 21.3398 8.66022 20.6598L1.94025 3.85977C1.67025 3.18977 1.73027 2.53977 2.09027 2.06977C2.46027 1.59977 3.07022 1.37977 3.79022 1.47977L16.7603 3.20977C17.1103 3.25977 17.5203 3.45977 17.7703 3.70977L20.9003 6.83977C21.5103 7.45977 21.5802 8.46977 21.0402 9.15977L11.6602 21.0998C11.2602 21.6098 10.7502 21.8798 10.2302 21.8798ZM3.46027 2.95977C3.34027 2.95977 3.28026 2.98977 3.27026 2.99977C3.27026 3.00977 3.25026 3.11977 3.33026 3.30977L10.0502 20.1098C10.1302 20.3098 10.2202 20.3798 10.2302 20.3798C10.2402 20.3798 10.3402 20.3398 10.4702 20.1698L19.8502 8.22977C19.9202 8.14977 19.9103 7.96977 19.8303 7.89977L16.7003 4.76977C16.6803 4.74977 16.5902 4.70977 16.5502 4.69977L3.60022 2.96977C3.55022 2.95977 3.50027 2.95977 3.46027 2.95977Z" fill="black"/>
<path d="M10.0003 21.7498C9.98034 21.7498 9.95033 21.7498 9.93033 21.7498C9.52033 21.7098 9.21034 21.3498 9.25034 20.9398L10.2203 10.3198L2.51035 3.46976C2.20035 3.18976 2.17035 2.71976 2.45035 2.40976C2.73035 2.09976 3.20035 2.06976 3.51035 2.34976L11.5003 9.44976C11.6803 9.60976 11.7703 9.83976 11.7503 10.0798L10.7503 21.0798C10.7103 21.4598 10.3803 21.7498 10.0003 21.7498Z" fill="black"/>
<path d="M10.9998 10.7499C10.7298 10.7499 10.4699 10.5999 10.3399 10.3499C10.1799 10.0599 10.2398 9.69994 10.4698 9.46994L16.4698 3.46994C16.7598 3.17994 17.2399 3.17994 17.5299 3.46994C17.8199 3.75994 17.8199 4.23994 17.5299 4.52994L13.2799 8.77994L19.8898 7.45994C20.2998 7.37994 20.6899 7.63994 20.7699 8.04994C20.8499 8.45994 20.5898 8.84994 20.1798 8.92994L11.1398 10.7399C11.0998 10.7499 11.0498 10.7499 10.9998 10.7499Z" fill="black"/>
</svg>
