<svg width="24" height="24" viewBox="0 0 24 24" fill="none" xmlns="http://www.w3.org/2000/svg">
<path d="M11.1501 5.19063L10.3701 4.41061C9.90008 3.94061 9.90008 3.18065 10.3701 2.71065L11.1501 1.93062C11.6201 1.46062 12.3801 1.46062 12.8501 1.93062L13.6301 2.71065C14.1001 3.18065 14.1001 3.94061 13.6301 4.41061L12.8501 5.19063C12.3801 5.66063 11.6201 5.66063 11.1501 5.19063Z" fill="#292D32"/>
<path d="M11.9998 5.9111C11.5998 5.9111 11.1898 5.76114 10.8898 5.45114L10.1098 4.67111C9.49984 4.06111 9.49984 3.06113 10.1098 2.44113L10.8898 1.6611C11.4798 1.0611 12.5198 1.0711 13.1198 1.6611L13.8998 2.44113C14.5098 3.05113 14.5098 4.05111 13.8998 4.67111L13.1198 5.45114C12.8098 5.76114 12.3998 5.9111 11.9998 5.9111ZM11.9998 1.96115C11.7898 1.96115 11.5798 2.04114 11.4198 2.20114L10.6398 2.98111C10.3198 3.30111 10.3198 3.83115 10.6398 4.15115L11.4198 4.93112C11.7398 5.25112 12.2598 5.25112 12.5898 4.93112L13.3698 4.15115C13.6898 3.83115 13.6898 3.31111 13.3698 2.98111L12.5898 2.20114C12.4198 2.04114 12.2098 1.96115 11.9998 1.96115Z" fill="#292D32"/>
<path d="M19.45 9.80859H20.55C21.21 9.80859 21.75 10.3486 21.75 11.0086V12.1086C21.75 12.7686 21.21 13.3086 20.55 13.3086H19.45C18.79 13.3086 18.25 12.7686 18.25 12.1086V11.0086C18.25 10.3486 18.79 9.80859 19.45 9.80859Z" fill="#292D32"/>
<path d="M20.5491 13.6897H19.4491C18.5791 13.6897 17.8691 12.9797 17.8691 12.1097V11.0097C17.8691 10.1397 18.5791 9.42969 19.4491 9.42969H20.5491C21.4191 9.42969 22.1291 10.1397 22.1291 11.0097V12.1097C22.1191 12.9797 21.4191 13.6897 20.5491 13.6897ZM19.4491 10.1897C18.9891 10.1897 18.6191 10.5597 18.6191 11.0197V12.1197C18.6191 12.5797 18.9891 12.9497 19.4491 12.9497H20.5491C21.0091 12.9497 21.3791 12.5797 21.3791 12.1197V11.0197C21.3791 10.5597 21.0091 10.1897 20.5491 10.1897H19.4491Z" fill="#292D32"/>
<path d="M4.55 9.80859H3.45C2.79 9.80859 2.25 10.3486 2.25 11.0086V12.1086C2.25 12.7686 2.79 13.3086 3.45 13.3086H4.55C5.21 13.3086 5.75 12.7686 5.75 12.1086V11.0086C5.75 10.3486 5.21 9.80859 4.55 9.80859Z" fill="#292D32"/>
<path d="M4.54914 13.6897H3.44913C2.57913 13.6897 1.86914 12.9797 1.86914 12.1097V11.0097C1.86914 10.1397 2.57913 9.42969 3.44913 9.42969H4.54914C5.41914 9.42969 6.12914 10.1397 6.12914 11.0097V12.1097C6.11914 12.9797 5.41914 13.6897 4.54914 13.6897ZM3.44913 10.1897C2.98913 10.1897 2.61914 10.5597 2.61914 11.0197V12.1197C2.61914 12.5797 2.98913 12.9497 3.44913 12.9497H4.54914C5.00914 12.9497 5.37914 12.5797 5.37914 12.1197V11.0197C5.37914 10.5597 5.00914 10.1897 4.54914 10.1897H3.44913Z" fill="#292D32"/>
<path fill-rule="evenodd" clip-rule="evenodd" d="M12.7099 4.27045C13.0028 3.97756 13.4777 3.97756 13.7706 4.27045L19.0706 9.57044C19.3635 9.86333 19.3635 10.3382 19.0706 10.6311C18.7777 10.924 18.3028 10.924 18.0099 10.6311L12.7099 5.33111C12.417 5.03822 12.417 4.56335 12.7099 4.27045Z" fill="#292D32"/>
<path fill-rule="evenodd" clip-rule="evenodd" d="M11.2913 4.27045C11.5842 4.56335 11.5842 5.03822 11.2913 5.33111L5.99127 10.6311C5.69837 10.924 5.2235 10.924 4.93061 10.6311C4.63771 10.3382 4.63771 9.86333 4.93061 9.57044L10.2306 4.27045C10.5235 3.97756 10.9984 3.97756 11.2913 4.27045Z" fill="#292D32"/>
<path d="M13.2603 22.0072H10.7003C9.78029 22.0072 9.10029 21.2672 9.27029 20.4672L9.69029 18.6172H14.2803L14.7003 20.4672C14.8903 21.3172 14.2403 22.0072 13.2603 22.0072Z" fill="#292D32"/>
<path opacity="0.4" d="M16.0405 17.0489L14.2705 18.6189H9.68051L7.91051 17.0489C6.88051 16.2089 6.88051 15.5589 7.66051 14.5689L10.7805 10.6289C11.0005 10.3589 11.2505 10.1689 11.5205 10.0789C11.8105 9.97891 12.1305 9.97891 12.4205 10.0789C12.6905 10.1789 12.9405 10.3589 13.1605 10.6289L16.2805 14.5689C17.0705 15.5589 17.0305 16.1789 16.0405 17.0489Z" fill="#292D32"/>
</svg>
