<svg width="24" height="24" viewBox="0 0 24 24" fill="none" xmlns="http://www.w3.org/2000/svg">
<path d="M14.8387 10.8986L20.4987 7.10861C21.0687 6.72861 21.2187 5.94864 20.8387 5.38864L19.0187 2.67862C18.6387 2.10862 17.8587 1.95862 17.2987 2.33862L11.6387 6.12863L14.8387 10.8986Z" fill="#292D32"/>
<path d="M14.5197 10.4177L12.7597 11.5977L10.0897 13.3877L9.73969 13.6176L9.57969 13.3777L7.33968 10.0377L7.17969 9.79764L11.9597 6.59766L14.5197 10.4177Z" fill="#292D32"/>
<path d="M5.63912 16.019L9.58912 13.3791L7.34912 10.0391L3.39912 12.679C2.93912 12.989 2.81912 13.6091 3.12912 14.0691L4.25912 15.7491C4.55912 16.2091 5.17912 16.329 5.63912 16.019Z" fill="#292D32"/>
<path opacity="0.4" d="M16.5594 21.8116C16.4594 21.8516 16.3494 21.8816 16.2494 21.8816C15.9594 21.8816 15.6894 21.7115 15.5594 21.4315L11.8294 13.1916L8.04941 21.4416C7.91941 21.7116 7.64941 21.8816 7.35941 21.8816C7.25941 21.8816 7.14941 21.8516 7.04941 21.8116C6.67941 21.6316 6.50941 21.1916 6.67941 20.8116L10.0894 13.3916L12.7594 11.6016L16.9294 20.8216C17.0994 21.1916 16.9294 21.6416 16.5594 21.8116Z" fill="#292D32"/>
</svg>
