<svg width="24" height="24" viewBox="0 0 24 24" fill="none" xmlns="http://www.w3.org/2000/svg">
<path opacity="0.4" d="M2 9V8C2 5.24 4.24 3 7 3H17C19.76 3 22 5.24 22 8V16C22 18.76 19.76 21 17 21H16H7C4.24 21 2 18.76 2 16V9Z" fill="#292D32"/>
<path d="M16.1383 15.439C15.7683 15.439 15.4483 15.159 15.3983 14.789C14.9683 11.409 12.5083 8.94905 9.12827 8.51905C8.71827 8.46905 8.42826 8.08904 8.47826 7.67904C8.52826 7.26904 8.90827 6.97904 9.31827 7.02904C13.3883 7.54904 16.3583 10.5191 16.8883 14.5991C16.9383 15.0091 16.6483 15.389 16.2383 15.439C16.2083 15.439 16.1783 15.439 16.1383 15.439Z" fill="#292D32"/>
<path d="M13.4389 16.2983C13.0689 16.2983 12.7489 16.0183 12.6989 15.6483C12.3889 13.2683 10.6589 11.5283 8.2689 11.2183C7.8589 11.1683 7.56889 10.7883 7.61889 10.3783C7.66889 9.96827 8.0489 9.67826 8.4589 9.72826C11.5389 10.1283 13.7889 12.3683 14.1889 15.4583C14.2389 15.8683 13.9489 16.2483 13.5389 16.2983C13.5089 16.2983 13.4689 16.2983 13.4389 16.2983Z" fill="#292D32"/>
<path d="M10.3891 16.809C10.0191 16.809 9.69911 16.529 9.64911 16.159C9.51911 15.139 8.77912 14.399 7.75912 14.269C7.34912 14.219 7.05912 13.839 7.10912 13.429C7.15912 13.019 7.53912 12.729 7.94912 12.779C9.63912 12.999 10.9191 14.279 11.1391 15.969C11.1891 16.379 10.8991 16.759 10.4891 16.809C10.4591 16.809 10.4191 16.809 10.3891 16.809Z" fill="#292D32"/>
</svg>
