<svg width="24" height="24" viewBox="0 0 24 24" fill="none" xmlns="http://www.w3.org/2000/svg">
<path d="M21.9983 8.33945V15.6595C21.9983 17.1595 20.3683 18.0995 19.0683 17.3495L15.8983 15.5295L12.7283 13.6995C12.5283 13.5795 12.3683 13.4495 12.2383 13.2895V10.7295C12.3683 10.5695 12.5283 10.4395 12.7283 10.3195L15.8983 8.48945L19.0683 6.66947C20.3683 5.89947 21.9983 6.83945 21.9983 8.33945Z" stroke="#292D32" stroke-width="1.5" stroke-linecap="round" stroke-linejoin="round"/>
<path d="M9.3189 6.65032C10.6189 5.90032 12.2489 6.84032 12.2489 8.34032V15.6603C12.2489 17.1603 10.6189 18.1003 9.3189 17.3503L6.14889 15.5303L2.97891 13.7003C1.67891 12.9503 1.67891 11.0803 2.97891 10.3203L5.38891 8.93031" stroke="#292D32" stroke-width="1.5" stroke-linecap="round" stroke-linejoin="round"/>
</svg>
