<svg width="24" height="24" viewBox="0 0 24 24" fill="none" xmlns="http://www.w3.org/2000/svg">
<path d="M15.7194 9.68953C13.6694 7.62953 10.3294 7.62953 8.27937 9.68953C6.21938 11.7495 6.21938 15.0795 8.27937 17.1295C10.3394 19.1895 13.6694 19.1895 15.7194 17.1295C16.7494 16.0995 17.2594 14.7595 17.2594 13.4095" stroke="#292D32" stroke-width="1.5093" stroke-linecap="round" stroke-linejoin="round"/>
<path d="M12.0002 13.4102L10.4102 15.0002" stroke="#292D32" stroke-width="1.5093" stroke-linecap="round" stroke-linejoin="round"/>
<path d="M19.0708 6.33875C19.2208 6.48875 19.2208 6.73875 19.0708 6.89875C18.9208 7.04875 18.6708 7.04875 18.5108 6.89875C18.3508 6.74875 18.3608 6.49875 18.5108 6.33875C18.6608 6.17875 18.9208 6.17875 19.0708 6.33875Z" stroke="#292D32" stroke-miterlimit="10"/>
<path d="M19.0708 6.33875C19.2208 6.48875 19.2208 6.73875 19.0708 6.89875C18.9208 7.04875 18.6708 7.04875 18.5108 6.89875C18.3508 6.74875 18.3608 6.49875 18.5108 6.33875C18.6608 6.17875 18.9208 6.17875 19.0708 6.33875Z" stroke="#292D32" stroke-width="1.5" stroke-linecap="round" stroke-linejoin="round"/>
<path d="M5.4889 19.9208C5.6389 20.0708 5.6389 20.3208 5.4889 20.4808C5.3389 20.6408 5.08891 20.6308 4.92891 20.4808C4.77891 20.3308 4.77891 20.0808 4.92891 19.9208C5.07891 19.7608 5.3389 19.7608 5.4889 19.9208Z" stroke="#292D32" stroke-miterlimit="10"/>
<path d="M5.4889 19.9208C5.6389 20.0708 5.6389 20.3208 5.4889 20.4808C5.3389 20.6408 5.08891 20.6308 4.92891 20.4808C4.77891 20.3308 4.77891 20.0808 4.92891 19.9208C5.07891 19.7608 5.3389 19.7608 5.4889 19.9208Z" stroke="#292D32" stroke-width="1.5" stroke-linecap="round" stroke-linejoin="round"/>
<path d="M21.8794 13.1317C22.0294 13.2817 22.0294 13.5317 21.8794 13.6917C21.7294 13.8417 21.4794 13.8417 21.3194 13.6917C21.1594 13.5417 21.1694 13.2917 21.3194 13.1317C21.4694 12.9717 21.7294 12.9717 21.8794 13.1317Z" stroke="#292D32" stroke-miterlimit="10"/>
<path d="M21.8794 13.1317C22.0294 13.2817 22.0294 13.5317 21.8794 13.6917C21.7294 13.8417 21.4794 13.8417 21.3194 13.6917C21.1594 13.5417 21.1694 13.2917 21.3194 13.1317C21.4694 12.9717 21.7294 12.9717 21.8794 13.1317Z" stroke="#292D32" stroke-width="1.5" stroke-linecap="round" stroke-linejoin="round"/>
<path d="M2.66862 13.1317C2.81862 13.2817 2.81862 13.5317 2.66862 13.6917C2.51862 13.8517 2.26859 13.8417 2.10859 13.6917C1.95859 13.5417 1.95859 13.2917 2.10859 13.1317C2.26859 12.9717 2.51862 12.9717 2.66862 13.1317Z" stroke="#292D32" stroke-miterlimit="10"/>
<path d="M2.66862 13.1317C2.81862 13.2817 2.81862 13.5317 2.66862 13.6917C2.51862 13.8517 2.26859 13.8417 2.10859 13.6917C1.95859 13.5417 1.95859 13.2917 2.10859 13.1317C2.26859 12.9717 2.51862 12.9717 2.66862 13.1317Z" stroke="#292D32" stroke-width="1.5" stroke-linecap="round" stroke-linejoin="round"/>
<path d="M19.0708 19.9208C19.2208 20.0708 19.2208 20.3208 19.0708 20.4808C18.9208 20.6308 18.6708 20.6308 18.5108 20.4808C18.3508 20.3308 18.3608 20.0808 18.5108 19.9208C18.6708 19.7608 18.9208 19.7608 19.0708 19.9208Z" stroke="#292D32" stroke-miterlimit="10"/>
<path d="M19.0708 19.9208C19.2208 20.0708 19.2208 20.3208 19.0708 20.4808C18.9208 20.6308 18.6708 20.6308 18.5108 20.4808C18.3508 20.3308 18.3608 20.0808 18.5108 19.9208C18.6708 19.7608 18.9208 19.7608 19.0708 19.9208Z" stroke="#292D32" stroke-width="1.5" stroke-linecap="round" stroke-linejoin="round"/>
<path d="M5.4889 6.33875C5.6389 6.48875 5.6389 6.73875 5.4889 6.89875C5.3389 7.05875 5.08891 7.04875 4.92891 6.89875C4.77891 6.74875 4.77891 6.49875 4.92891 6.33875C5.07891 6.17875 5.3389 6.17875 5.4889 6.33875Z" stroke="#292D32" stroke-miterlimit="10"/>
<path d="M5.4889 6.33875C5.6389 6.48875 5.6389 6.73875 5.4889 6.89875C5.3389 7.05875 5.08891 7.04875 4.92891 6.89875C4.77891 6.74875 4.77891 6.49875 4.92891 6.33875C5.07891 6.17875 5.3389 6.17875 5.4889 6.33875Z" stroke="#292D32" stroke-width="1.5" stroke-linecap="round" stroke-linejoin="round"/>
<path d="M12.2817 3.51862C12.4317 3.66862 12.4317 3.91862 12.2817 4.07862C12.1317 4.23862 11.8817 4.22862 11.7217 4.07862C11.5617 3.92862 11.5717 3.67862 11.7217 3.51862C11.8717 3.35862 12.1317 3.36862 12.2817 3.51862Z" stroke="#292D32" stroke-miterlimit="10"/>
<path d="M12.2817 3.51862C12.4317 3.66862 12.4317 3.91862 12.2817 4.07862C12.1317 4.23862 11.8817 4.22862 11.7217 4.07862C11.5617 3.92862 11.5717 3.67862 11.7217 3.51862C11.8717 3.35862 12.1317 3.36862 12.2817 3.51862Z" stroke="#292D32" stroke-width="1.5" stroke-linecap="round" stroke-linejoin="round"/>
</svg>
