<svg width="24" height="24" viewBox="0 0 24 24" fill="none" xmlns="http://www.w3.org/2000/svg">
<path d="M2 12C2 8.5 4 7 7 7H17C20 7 22 8.5 22 12V17C22 20.5 20 22 17 22H7C4 22 2 20.5 2 17V16.17" stroke="#292D32" stroke-width="1.5" stroke-miterlimit="10" stroke-linecap="round" stroke-linejoin="round"/>
<path d="M16 4.5H18" stroke="#292D32" stroke-width="1.5" stroke-miterlimit="10" stroke-linecap="round" stroke-linejoin="round"/>
<path d="M6 4.5H13.17" stroke="#292D32" stroke-width="1.5" stroke-miterlimit="10" stroke-linecap="round" stroke-linejoin="round"/>
<path d="M9 2H15" stroke="#292D32" stroke-width="1.5" stroke-miterlimit="10" stroke-linecap="round" stroke-linejoin="round"/>
<path d="M8.88953 19.1111C9.64616 19.1111 10.2595 18.4977 10.2595 17.7411C10.2595 16.9845 9.64616 16.3711 8.88953 16.3711C8.1329 16.3711 7.51953 16.9845 7.51953 17.7411C7.51953 18.4977 8.1329 19.1111 8.88953 19.1111Z" stroke="#292D32" stroke-width="1.5" stroke-linecap="round" stroke-linejoin="round"/>
<path d="M15.2778 16.8319V11.4819C15.2778 10.3419 14.5678 10.1819 13.8378 10.3819L11.0978 11.1319C10.5978 11.2719 10.2578 11.6619 10.2578 12.2319V13.1819V13.8219V17.7419" stroke="#292D32" stroke-width="1.5" stroke-linecap="round" stroke-linejoin="round"/>
<path d="M13.9091 18.2009C14.6657 18.2009 15.2791 17.5876 15.2791 16.8309C15.2791 16.0743 14.6657 15.4609 13.9091 15.4609C13.1524 15.4609 12.5391 16.0743 12.5391 16.8309C12.5391 17.5876 13.1524 18.2009 13.9091 18.2009Z" stroke="#292D32" stroke-width="1.5" stroke-linecap="round" stroke-linejoin="round"/>
<path d="M10.2578 13.8309L15.2778 12.4609" stroke="#292D32" stroke-width="1.5" stroke-linecap="round" stroke-linejoin="round"/>
</svg>
