<svg width="24" height="24" viewBox="0 0 24 24" fill="none" xmlns="http://www.w3.org/2000/svg">
<path opacity="0.4" d="M21.9897 6.02094C22.0097 6.26094 21.9897 6.51093 21.9297 6.76093L18.5597 20.2909C18.3197 21.3009 17.4198 22.0009 16.3798 22.0009H3.23974C1.72974 22.0009 0.659756 20.5209 1.09976 19.0709L5.30975 5.54089C5.59975 4.60089 6.46976 3.96094 7.44976 3.96094H19.7498C20.7098 3.96094 21.4898 4.53093 21.8198 5.33093C21.9198 5.54093 21.9697 5.78094 21.9897 6.02094Z" fill="#292D32"/>
<path d="M22.9908 19.62C23.0908 20.91 22.0709 22 20.7809 22H16.3809C17.4209 22 18.3209 21.3 18.5609 20.29L21.9308 6.76001C21.9908 6.51001 22.0108 6.26002 21.9908 6.02002L22.0009 6L22.9908 19.62Z" fill="#292D32"/>
<path d="M9.67977 7.13135C9.61977 7.13135 9.55977 7.12133 9.49977 7.11133C9.09977 7.01133 8.84979 6.61136 8.94979 6.20136L9.98976 1.88135C10.0898 1.48135 10.4898 1.24137 10.8998 1.33137C11.2998 1.43137 11.5498 1.83134 11.4498 2.24134L10.4098 6.56135C10.3298 6.90135 10.0198 7.13135 9.67977 7.13135Z" fill="#292D32"/>
<path d="M16.3795 7.14175C16.3295 7.14175 16.2694 7.14174 16.2194 7.12174C15.8194 7.03174 15.5595 6.63172 15.6395 6.23172L16.5794 1.89175C16.6694 1.48175 17.0694 1.23174 17.4694 1.31174C17.8694 1.40174 18.1294 1.80175 18.0494 2.20175L17.1094 6.54172C17.0394 6.90172 16.7295 7.14175 16.3795 7.14175Z" fill="#292D32"/>
<path d="M15.6992 12.75H7.69922C7.28922 12.75 6.94922 12.41 6.94922 12C6.94922 11.59 7.28922 11.25 7.69922 11.25H15.6992C16.1092 11.25 16.4492 11.59 16.4492 12C16.4492 12.41 16.1092 12.75 15.6992 12.75Z" fill="#292D32"/>
<path d="M14.6992 16.75H6.69922C6.28922 16.75 5.94922 16.41 5.94922 16C5.94922 15.59 6.28922 15.25 6.69922 15.25H14.6992C15.1092 15.25 15.4492 15.59 15.4492 16C15.4492 16.41 15.1092 16.75 14.6992 16.75Z" fill="#292D32"/>
</svg>
