<svg width="24" height="24" viewBox="0 0 24 24" fill="none" xmlns="http://www.w3.org/2000/svg">
<path d="M12 18.9492C9.38 18.9492 7.25 16.8192 7.25 14.1992C7.25 11.5792 9.38 9.44922 12 9.44922C14.62 9.44922 16.75 11.5792 16.75 14.1992C16.75 16.8192 14.62 18.9492 12 18.9492ZM12 10.9492C10.21 10.9492 8.75 12.4092 8.75 14.1992C8.75 15.9892 10.21 17.4492 12 17.4492C13.79 17.4492 15.25 15.9892 15.25 14.1992C15.25 12.4092 13.79 10.9492 12 10.9492Z" fill="#292D32"/>
<path d="M11.4389 15.8306C11.1189 15.8306 10.7989 15.7106 10.5589 15.4706L9.90891 14.8206C9.61891 14.5306 9.61891 14.0506 9.90891 13.7606C10.1989 13.4706 10.6789 13.4706 10.9689 13.7606L11.4489 14.2406L13.0589 12.7606C13.3589 12.4806 13.8389 12.5006 14.1189 12.8006C14.3989 13.1006 14.3789 13.5806 14.0789 13.8606L12.2989 15.5006C12.0489 15.7206 11.7489 15.8306 11.4389 15.8306Z" fill="#292D32"/>
<path d="M15.9983 22.7517H7.99827C3.37827 22.7517 2.51827 20.6017 2.29827 18.5117L1.54827 10.5017C1.43827 9.45172 1.40827 7.90172 2.44827 6.74172C3.34827 5.74172 4.83827 5.26172 6.99827 5.26172H16.9983C19.1683 5.26172 20.6583 5.75172 21.5483 6.74172C22.5883 7.90172 22.5583 9.45172 22.4483 10.5117L21.6983 18.5017C21.4783 20.6017 20.6183 22.7517 15.9983 22.7517ZM6.99827 6.75172C5.30827 6.75172 4.14827 7.08172 3.55827 7.74172C3.06827 8.28172 2.90827 9.11172 3.03827 10.3517L3.78827 18.3617C3.95827 19.9417 4.38827 21.2517 7.99827 21.2517H15.9983C19.5983 21.2517 20.0383 19.9417 20.2083 18.3517L20.9583 10.3617C21.0883 9.11172 20.9283 8.28172 20.4383 7.74172C19.8483 7.08172 18.6883 6.75172 16.9983 6.75172H6.99827Z" fill="#292D32"/>
<path d="M16 6.75C15.59 6.75 15.25 6.41 15.25 6V5.2C15.25 3.42 15.25 2.75 12.8 2.75H11.2C8.75 2.75 8.75 3.42 8.75 5.2V6C8.75 6.41 8.41 6.75 8 6.75C7.59 6.75 7.25 6.41 7.25 6V5.2C7.25 3.44 7.25 1.25 11.2 1.25H12.8C16.75 1.25 16.75 3.44 16.75 5.2V6C16.75 6.41 16.41 6.75 16 6.75Z" fill="#292D32"/>
<path d="M16.0105 14.3918C15.6705 14.3918 15.3705 14.1618 15.2805 13.8218C15.1805 13.4218 15.4205 13.0118 15.8205 12.9118C17.7705 12.4218 19.5805 11.5718 21.2005 10.3918C21.5305 10.1518 22.0005 10.2218 22.2505 10.5618C22.4905 10.8918 22.4205 11.3618 22.0805 11.6118C20.3005 12.9018 18.3205 13.8318 16.1805 14.3718C16.1305 14.3818 16.0705 14.3918 16.0105 14.3918Z" fill="#292D32"/>
<path d="M8.00072 14.4192C7.94072 14.4192 7.88072 14.4092 7.82072 14.3992C5.81072 13.9092 3.92072 13.0592 2.19072 11.8792C1.85072 11.6492 1.76072 11.1792 1.99072 10.8392C2.22072 10.4992 2.69072 10.4092 3.03072 10.6392C4.61072 11.7192 6.33072 12.4892 8.17072 12.9392C8.57072 13.0392 8.82072 13.4392 8.72072 13.8492C8.65072 14.1892 8.34072 14.4192 8.00072 14.4192Z" fill="#292D32"/>
</svg>
