<svg width="24" height="24" viewBox="0 0 24 24" fill="none" xmlns="http://www.w3.org/2000/svg">
<path d="M15.8101 20.1786C15.5501 20.1786 15.2801 20.1685 14.9901 20.1385C14.4701 20.0985 13.8801 19.9986 13.2701 19.8486L11.5901 19.4486C6.98007 18.3586 5.47007 15.9186 6.55007 11.3186L7.53007 7.12855C7.75007 6.17855 8.01007 5.40855 8.33007 4.76855C10.0501 1.21855 13.3401 1.53855 15.6801 2.08855L17.3501 2.47855C19.6901 3.02855 21.1701 3.89855 22.0001 5.22855C22.8201 6.55855 22.9501 8.26855 22.4001 10.6086L21.4201 14.7886C20.5601 18.4486 18.7701 20.1786 15.8101 20.1786ZM13.1201 3.24855C11.4501 3.24855 10.3901 3.93855 9.68007 5.41855C9.42007 5.95855 9.19007 6.62855 8.99007 7.46855L8.01007 11.6586C7.12007 15.4386 8.15007 17.0886 11.9301 17.9886L13.6101 18.3885C14.1501 18.5185 14.6601 18.5985 15.1201 18.6385C17.8301 18.9085 19.1901 17.7186 19.9501 14.4486L20.9301 10.2686C21.3801 8.33855 21.3201 6.98855 20.7201 6.01855C20.1201 5.04855 18.9401 4.38855 17.0001 3.93855L15.3301 3.54855C14.5001 3.34855 13.7601 3.24855 13.1201 3.24855Z" fill="#292D32"/>
<path d="M8.32907 22.2516C5.75907 22.2516 4.11907 20.7116 3.06907 17.4616L1.78907 13.5116C0.369075 9.11164 1.63907 6.63164 6.01907 5.21164L7.59907 4.70164C8.11907 4.54164 8.50907 4.43164 8.85907 4.37164C9.13907 4.31164 9.42908 4.42164 9.59908 4.65164C9.76908 4.88164 9.79908 5.18164 9.67908 5.44164C9.41908 5.97164 9.18907 6.64164 8.99907 7.48164L8.01908 11.6716C7.12908 15.4516 8.15907 17.1016 11.9391 18.0016L13.6191 18.4016C14.1591 18.5316 14.6691 18.6116 15.1291 18.6516C15.4491 18.6816 15.7091 18.9016 15.7991 19.2116C15.8791 19.5216 15.7591 19.8416 15.4991 20.0216C14.8391 20.4716 14.0091 20.8516 12.9591 21.1916L11.3791 21.7116C10.2291 22.0716 9.22907 22.2516 8.32907 22.2516ZM7.77908 6.22164L6.48907 6.64164C2.91907 7.79164 2.06907 9.47164 3.21907 13.0516L4.49907 17.0016C5.65907 20.5716 7.33907 21.4316 10.9091 20.2816L12.4891 19.7616C12.5491 19.7416 12.5991 19.7216 12.6591 19.7016L11.5991 19.4516C6.98908 18.3616 5.47907 15.9216 6.55907 11.3216L7.53907 7.13164C7.60907 6.81164 7.68908 6.50164 7.77908 6.22164Z" fill="#292D32"/>
</svg>
