<svg width="24" height="24" viewBox="0 0 24 24" fill="none" xmlns="http://www.w3.org/2000/svg">
<path opacity="0.4" d="M16.9917 10.9297V13.0697C16.9917 14.9497 15.9517 16.5997 14.4117 17.4497C14.2417 17.5397 14.0617 17.6297 13.8717 17.7097C13.5917 17.8197 13.3017 17.9097 13.0017 17.9697C12.6817 18.0297 12.3517 18.0697 12.0117 18.0697C12.0017 18.0697 12.0017 18.0697 11.9917 18.0697C11.6517 18.0697 11.3217 18.0297 11.0017 17.9697C10.7117 17.9097 10.4217 17.8197 10.1417 17.7097L9.59171 17.4497C9.46171 17.3697 9.33172 17.2997 9.21172 17.2097C7.89172 16.3197 7.01172 14.7997 7.01172 13.0697V10.9297C7.01172 10.0697 7.23172 9.25968 7.61172 8.54968C7.69172 8.40968 7.77172 8.26971 7.86172 8.13971C7.95172 7.99971 8.05172 7.87969 8.15172 7.74969C8.25172 7.62969 8.36172 7.50969 8.47172 7.39969C8.70172 7.16969 8.95172 6.9697 9.21172 6.7897C9.35172 6.6997 9.48171 6.60969 9.63171 6.52969C9.75171 6.46969 9.88172 6.39969 10.0117 6.33969C10.1817 6.26969 10.3517 6.1997 10.5217 6.1597C10.6617 6.1097 10.8017 6.07968 10.9417 6.04968C10.9717 6.02968 11.0117 6.02968 11.0517 6.01968C11.3617 5.95968 11.6717 5.92969 11.9917 5.92969H12.0117C12.3317 5.92969 12.6517 5.95968 12.9617 6.01968C12.9717 6.02968 12.9917 6.02969 13.0017 6.02969C13.1617 6.06969 13.3217 6.1097 13.4817 6.1597C13.6417 6.1997 13.7917 6.2597 13.9417 6.3197C14.0917 6.3897 14.2417 6.45969 14.3817 6.52969C14.8017 6.76969 15.1917 7.05969 15.5317 7.39969C16.4317 8.29969 16.9917 9.54969 16.9917 10.9297Z" fill="#292D32"/>
<path d="M22 9.75C21.59 9.75 21.25 9.41 21.25 9V7C21.25 4.42 19.58 2.75 17 2.75H15C14.59 2.75 14.25 2.41 14.25 2C14.25 1.59 14.59 1.25 15 1.25H17C20.44 1.25 22.75 3.56 22.75 7V9C22.75 9.41 22.41 9.75 22 9.75Z" fill="#292D32"/>
<path d="M2 9.75C1.59 9.75 1.25 9.41 1.25 9V7C1.25 3.56 3.56 1.25 7 1.25H9C9.41 1.25 9.75 1.59 9.75 2C9.75 2.41 9.41 2.75 9 2.75H7C4.42 2.75 2.75 4.42 2.75 7V9C2.75 9.41 2.41 9.75 2 9.75Z" fill="#292D32"/>
<path d="M17 22.75H15C14.59 22.75 14.25 22.41 14.25 22C14.25 21.59 14.59 21.25 15 21.25H17C19.58 21.25 21.25 19.58 21.25 17V15C21.25 14.59 21.59 14.25 22 14.25C22.41 14.25 22.75 14.59 22.75 15V17C22.75 20.44 20.44 22.75 17 22.75Z" fill="#292D32"/>
<path d="M9 22.75H7C3.56 22.75 1.25 20.44 1.25 17V15C1.25 14.59 1.59 14.25 2 14.25C2.41 14.25 2.75 14.59 2.75 15V17C2.75 19.58 4.42 21.25 7 21.25H9C9.41 21.25 9.75 21.59 9.75 22C9.75 22.41 9.41 22.75 9 22.75Z" fill="#292D32"/>
<path d="M12.0016 15.6294C10.6816 15.6294 9.60156 14.5494 9.60156 13.2294V10.7594C9.60156 9.4394 10.6816 8.35938 12.0016 8.35938C13.3216 8.35938 14.4016 9.4394 14.4016 10.7594V13.2294C14.4016 14.5594 13.3216 15.6294 12.0016 15.6294ZM12.0016 9.86938C11.5116 9.86938 11.1016 10.2694 11.1016 10.7694V13.2394C11.1016 13.7394 11.5016 14.1394 12.0016 14.1394C12.5016 14.1394 12.9016 13.7394 12.9016 13.2394V10.7694C12.9016 10.2694 12.4916 9.86938 12.0016 9.86938Z" fill="#292D32"/>
</svg>
