<svg width="24" height="24" viewBox="0 0 24 24" fill="none" xmlns="http://www.w3.org/2000/svg">
<path d="M12 19.75C9.38 19.75 7.25 17.62 7.25 15C7.25 12.38 9.38 10.25 12 10.25C14.62 10.25 16.75 12.38 16.75 15C16.75 17.62 14.62 19.75 12 19.75ZM12 11.75C10.21 11.75 8.75 13.21 8.75 15C8.75 16.79 10.21 18.25 12 18.25C13.79 18.25 15.25 16.79 15.25 15C15.25 13.21 13.79 11.75 12 11.75Z" fill="#292D32"/>
<path d="M13.0704 16.8614C12.8804 16.8614 12.6904 16.7914 12.5404 16.6414L10.4304 14.5314C10.1404 14.2414 10.1404 13.7614 10.4304 13.4714C10.7204 13.1814 11.2004 13.1814 11.4904 13.4714L13.6004 15.5814C13.8904 15.8714 13.8904 16.3514 13.6004 16.6414C13.4504 16.7914 13.2604 16.8614 13.0704 16.8614Z" fill="#292D32"/>
<path d="M10.9291 16.8887C10.7391 16.8887 10.5491 16.8188 10.3991 16.6688C10.1091 16.3788 10.1091 15.8987 10.3991 15.6087L12.5091 13.4988C12.7991 13.2088 13.2791 13.2088 13.5691 13.4988C13.8591 13.7887 13.8591 14.2688 13.5691 14.5588L11.4591 16.6688C11.3091 16.8088 11.1191 16.8887 10.9291 16.8887Z" fill="#292D32"/>
<path d="M14.9998 22.75H8.99982C4.37982 22.75 3.51982 20.6 3.29982 18.51L2.54982 12.52C2.43982 11.44 2.39982 9.89 3.44982 8.73C4.34982 7.73 5.83982 7.25 7.99982 7.25H15.9998C18.1698 7.25 19.6598 7.74 20.5498 8.73C21.5898 9.89 21.5598 11.44 21.4498 12.5L20.6998 18.51C20.4798 20.6 19.6198 22.75 14.9998 22.75ZM7.99982 8.75C6.30982 8.75 5.14982 9.08 4.55982 9.74C4.06982 10.28 3.90982 11.11 4.03982 12.35L4.78982 18.34C4.95982 19.94 5.39982 21.26 8.99982 21.26H14.9998C18.5998 21.26 19.0398 19.95 19.2098 18.36L19.9598 12.35C20.0898 11.13 19.9298 10.3 19.4398 9.75C18.8498 9.08 17.6898 8.75 15.9998 8.75H7.99982Z" fill="#292D32"/>
<path d="M16.5 8.6303C16.09 8.6303 15.75 8.2903 15.75 7.8803V6.5003C15.75 5.4503 15.3 4.4303 14.52 3.7203C13.73 3.0003 12.7 2.6703 11.63 2.7703C9.83 2.9403 8.25 4.7803 8.25 6.7003V7.6703C8.25 8.0803 7.91 8.4203 7.5 8.4203C7.09 8.4203 6.75 8.0803 6.75 7.6703V6.6903C6.75 4.0003 8.92 1.5203 11.49 1.2703C12.99 1.1303 14.43 1.6003 15.53 2.6103C16.62 3.6003 17.25 5.0203 17.25 6.5003V7.8803C17.25 8.2903 16.91 8.6303 16.5 8.6303Z" fill="#292D32"/>
</svg>
