<svg width="24" height="24" viewBox="0 0 24 24" fill="none" xmlns="http://www.w3.org/2000/svg">
<path d="M6.18883 22.0618C5.18883 22.0618 4.21883 21.6718 3.44883 20.9218C2.19883 19.7018 1.89883 17.9018 2.67883 16.3418L4.29883 13.1018C4.63883 12.4218 4.63883 11.6018 4.29883 10.9118L2.67883 7.6618C1.89883 6.1018 2.19883 4.3018 3.44883 3.0818C4.69883 1.8618 6.49883 1.5918 8.04883 2.4118L19.6388 8.5118C20.9388 9.1918 21.7488 10.5318 21.7488 12.0018C21.7488 13.4718 20.9388 14.8118 19.6388 15.4918L8.04883 21.5918C7.44883 21.9118 6.81883 22.0618 6.18883 22.0618ZM6.19883 3.4418C5.50883 3.4418 4.90883 3.7618 4.49883 4.1618C3.87883 4.7618 3.43883 5.8318 4.01883 7.0018L5.63883 10.2418C6.18883 11.3518 6.18883 12.6618 5.63883 13.7718L4.01883 17.0118C3.42883 18.1818 3.87883 19.2518 4.49883 19.8518C5.11883 20.4518 6.18883 20.8818 7.34883 20.2718L18.9388 14.1718C19.7588 13.7418 20.2488 12.9318 20.2488 12.0118C20.2488 11.0918 19.7588 10.2818 18.9388 9.8518L7.34883 3.7318C6.94883 3.5218 6.55883 3.4418 6.19883 3.4418Z" fill="#292D32"/>
</svg>
