<svg width="24" height="24" viewBox="0 0 24 24" fill="none" xmlns="http://www.w3.org/2000/svg">
<path d="M3 4.96997C3 3.32997 4.34 2 6 2H18C19.66 2 21 3.32997 21 4.96997V15.88C21 17.52 19.66 18.85 18 18.85H17.24C16.44 18.85 15.68 19.16 15.12 19.72L13.41 21.41C12.63 22.18 11.36 22.18 10.58 21.41L8.87 19.72C8.31 19.16 7.54 18.85 6.75 18.85H6C4.34 18.85 3 17.52 3 15.88V9.06995" stroke="#292D32" stroke-width="1.5" stroke-miterlimit="10" stroke-linecap="round" stroke-linejoin="round"/>
<path d="M7 9.16272C7 8.23272 7.76 7.47266 8.69 7.47266C9.62 7.47266 10.38 8.23272 10.38 9.16272C10.38 11.0427 7.71 11.2427 7.12 13.0327C7 13.4027 7.31 13.7727 7.7 13.7727H10.38" stroke="#292D32" stroke-width="1.5" stroke-linecap="round" stroke-linejoin="round"/>
<path d="M16.0398 13.7608V8.05088C16.0398 7.79088 15.8698 7.56083 15.6198 7.49083C15.3698 7.42083 15.0998 7.52083 14.9598 7.74083C14.2398 8.90083 13.4598 10.2208 12.7798 11.3808C12.6698 11.5708 12.6698 11.8208 12.7798 12.0108C12.8898 12.2008 13.0998 12.3208 13.3298 12.3208H16.9998" stroke="#292D32" stroke-width="1.5" stroke-linecap="round" stroke-linejoin="round"/>
</svg>
