<svg width="24" height="24" viewBox="0 0 24 24" fill="none" xmlns="http://www.w3.org/2000/svg">
<path d="M2.51973 12.0508C2.01973 13.4508 2.91973 14.6508 4.41973 14.6508H8.41973C9.01973 14.6508 9.51973 15.1508 9.41973 15.8508L8.91973 19.0508C8.71973 19.9508 9.31973 20.9508 10.2197 21.2508C11.0197 21.5508 12.0197 21.1508 12.4197 20.5508L16.5197 14.4508" stroke="#292D32" stroke-width="1.5" stroke-miterlimit="10" stroke-linecap="round" stroke-linejoin="round"/>
<path d="M16.5193 5.64844L13.4193 3.24844C13.0193 2.84844 12.1193 2.64844 11.5193 2.64844H7.7193C6.5193 2.64844 5.2193 3.54844 4.9193 4.74844L3.7793 8.21844" stroke="#292D32" stroke-width="1.5" stroke-miterlimit="10" stroke-linecap="round" stroke-linejoin="round"/>
<path d="M21.6191 5.65V15.45C21.6191 16.85 21.0191 17.35 19.6191 17.35H18.6191C17.2191 17.35 16.6191 16.85 16.6191 15.45V5.65C16.6191 4.25 17.2191 3.75 18.6191 3.75H19.6191C21.0191 3.75 21.6191 4.25 21.6191 5.65Z" stroke="#292D32" stroke-width="1.5" stroke-linecap="round" stroke-linejoin="round"/>
</svg>
