<svg width="24" height="24" viewBox="0 0 24 24" fill="none" xmlns="http://www.w3.org/2000/svg">
<path d="M16.2683 9.10172L14.2983 8.25172C14.1383 8.18172 13.9983 7.97172 13.9983 7.79172V4.79172C13.9983 3.85172 13.3083 2.74172 12.4683 2.31172C12.1683 2.16172 11.8183 2.16172 11.5183 2.31172C10.6783 2.74172 9.98828 3.86172 9.98828 4.80172V7.80172C9.98828 7.98172 9.84828 8.19172 9.68828 8.26172L4.10828 10.6717C3.48828 10.9217 2.98828 11.6917 2.98828 12.3617V13.6517C2.98828 14.4917 3.61828 14.9017 4.38828 14.5717L9.29828 12.4517C9.67828 12.2817 9.99828 12.4917 9.99828 12.9117V15.7617C9.99828 15.9917 9.86828 16.3117 9.70828 16.4717L7.43828 18.7517C7.19828 18.9917 7.08828 19.4517 7.19828 19.7817L7.63828 21.1117C7.81828 21.6917 8.47828 21.9717 9.01828 21.6917L11.3483 19.7317C11.6983 19.4317 12.2783 19.4317 12.6283 19.7317L14.9583 21.6917C15.4983 21.9617 16.1583 21.6917 16.3583 21.1117L16.7983 19.7817C16.9083 19.4617 16.7983 18.9917 16.5583 18.7517L14.2883 16.4717C14.1183 16.3117 13.9883 15.9917 13.9883 15.7617V12.9117C13.9883 12.4917 14.2983 12.2917 14.6883 12.4517L19.5983 14.5717C20.3683 14.9017 20.9983 14.4917 20.9983 13.6517V12.3617C20.9983 11.6917 20.4983 10.9217 19.8783 10.6617" stroke="#292D32" stroke-width="1.5" stroke-linecap="round" stroke-linejoin="round"/>
</svg>
