<svg width="24" height="24" viewBox="0 0 24 24" fill="none" xmlns="http://www.w3.org/2000/svg">
<path opacity="0.4" d="M15 4H9C6.24 4 4 6.24 4 9V15C4 17.76 6.24 20 9 20H15C17.76 20 20 17.76 20 15V9C20 6.24 17.76 4 15 4ZM17.26 14.26C17.26 15.92 15.92 17.26 14.26 17.26H9.74C8.08 17.26 6.74 15.92 6.74 14.26V9.74C6.74 8.08 8.08 6.74 9.74 6.74H14.25C15.91 6.74 17.25 8.08 17.25 9.74V14.26H17.26Z" fill="#292D32"/>
<path d="M9.06055 2.75V4H9.00055C8.50055 4 8.02055 4.07 7.56055 4.21V2.75C7.56055 2.34 7.89055 2 8.31055 2C8.72055 2 9.06055 2.34 9.06055 2.75Z" fill="#292D32"/>
<path d="M12.75 2.75V4H11.25V2.75C11.25 2.34 11.59 2 12 2C12.41 2 12.75 2.34 12.75 2.75Z" fill="#292D32"/>
<path d="M16.4492 2.75V4.21C15.9892 4.07 15.4992 4 14.9992 4H14.9492V2.75C14.9492 2.34 15.2892 2 15.6992 2C16.1092 2 16.4492 2.34 16.4492 2.75Z" fill="#292D32"/>
<path d="M21.9991 8.30078C21.9991 8.72078 21.6691 9.05078 21.2491 9.05078H19.9991V9.00078C19.9991 8.50078 19.9291 8.01078 19.7891 7.55078H21.2491C21.6691 7.55078 21.9991 7.89078 21.9991 8.30078Z" fill="#292D32"/>
<path d="M22 12C22 12.41 21.67 12.75 21.25 12.75H20V11.25H21.25C21.67 11.25 22 11.58 22 12Z" fill="#292D32"/>
<path d="M21.9991 15.6992C21.9991 16.1092 21.6691 16.4492 21.2491 16.4492H19.7891C19.9291 15.9892 19.9991 15.4992 19.9991 14.9992V14.9492H21.2491C21.6691 14.9492 21.9991 15.2792 21.9991 15.6992Z" fill="#292D32"/>
<path d="M16.4492 19.7891V21.2491C16.4492 21.6591 16.1092 21.9991 15.6992 21.9991C15.2892 21.9991 14.9492 21.6591 14.9492 21.2491V19.9991H14.9992C15.4992 19.9991 15.9892 19.9291 16.4492 19.7891Z" fill="#292D32"/>
<path d="M12.7598 20V21.25C12.7598 21.66 12.4198 22 12.0098 22C11.5898 22 11.2598 21.66 11.2598 21.25V20H12.7598Z" fill="#292D32"/>
<path d="M9.06055 19.9991V21.2491C9.06055 21.6591 8.72055 21.9991 8.31055 21.9991C7.89055 21.9991 7.56055 21.6591 7.56055 21.2491V19.7891C8.02055 19.9291 8.50055 19.9991 9.00055 19.9991H9.06055Z" fill="#292D32"/>
<path d="M4.21 7.55078C4.07 8.01078 4 8.50078 4 9.00078V9.05078H2.75C2.34 9.05078 2 8.72078 2 8.30078C2 7.89078 2.34 7.55078 2.75 7.55078H4.21V7.55078Z" fill="#292D32"/>
<path d="M4 11.25V12.75H2.75C2.34 12.75 2 12.41 2 12C2 11.58 2.34 11.25 2.75 11.25H4Z" fill="#292D32"/>
<path d="M4.21 16.4492H2.75C2.34 16.4492 2 16.1092 2 15.6992C2 15.2792 2.34 14.9492 2.75 14.9492H4V14.9992C4 15.4992 4.07 15.9892 4.21 16.4492Z" fill="#292D32"/>
<path d="M14.2602 6.73828H9.74023C8.08023 6.73828 6.74023 8.07828 6.74023 9.73828V14.2483C6.74023 15.9083 8.08023 17.2483 9.74023 17.2483H14.2502C15.9102 17.2483 17.2502 15.9083 17.2502 14.2483V9.73828C17.2602 8.08828 15.9102 6.73828 14.2602 6.73828ZM13.5902 13.0383L12.6502 14.6783C12.5102 14.9183 12.2602 15.0583 12.0002 15.0583C11.8702 15.0583 11.7402 15.0283 11.6302 14.9583C11.2702 14.7483 11.1502 14.2883 11.3502 13.9383L12.0302 12.7583H11.4402C10.9602 12.7583 10.5702 12.5483 10.3602 12.1883C10.1502 11.8283 10.1702 11.3783 10.4002 10.9683L11.3402 9.32828C11.5502 8.96828 12.0102 8.84828 12.3602 9.04828C12.7202 9.25828 12.8402 9.71828 12.6402 10.0683L11.9602 11.2483H12.5502C13.0302 11.2483 13.4202 11.4583 13.6302 11.8183C13.8502 12.1783 13.8302 12.6183 13.5902 13.0383Z" fill="#292D32"/>
</svg>
