<svg width="24" height="24" viewBox="0 0 24 24" fill="none" xmlns="http://www.w3.org/2000/svg">
<path opacity="0.4" d="M16 2H6C2.8 2 2 2.8 2 6V11.9C2.03 14.93 2.87 15.7 6 15.7H8.25V19.25H4.95001C4.54001 19.25 4.20001 19.59 4.20001 20C4.20001 20.41 4.54001 20.75 4.95001 20.75H12.25C12.1 20.36 12.03 19.87 12.02 19.25H9.75V15.7H12.02V11.9V10.59C12.02 8.45003 12.73 7.73999 14.87 7.73999H19.15C19.46 7.73999 19.75 7.75998 20 7.78998V6C20 2.8 19.2 2 16 2Z" fill="#292D32"/>
<path d="M19.9995 7.78827C19.7495 7.75827 19.4595 7.73828 19.1495 7.73828H14.8695C12.7295 7.73828 12.0195 8.44832 12.0195 10.5883V19.2483C12.0295 19.8683 12.0995 20.3583 12.2495 20.7483C12.5995 21.6583 13.3895 21.9983 14.8695 21.9983H19.1495C21.2895 21.9983 21.9995 21.2883 21.9995 19.1483V10.5883C21.9995 8.75832 21.4795 7.97827 19.9995 7.78827ZM17.0096 10.0883C17.8796 10.0883 18.5795 10.7883 18.5795 11.6583C18.5795 12.5283 17.8796 13.2283 17.0096 13.2283C16.1396 13.2283 15.4395 12.5283 15.4395 11.6583C15.4395 10.7883 16.1396 10.0883 17.0096 10.0883ZM17.0096 19.1483C15.8296 19.1483 14.8695 18.1883 14.8695 17.0083C14.8695 16.5183 15.0395 16.0583 15.3195 15.6983C15.7095 15.1983 16.3196 14.8683 17.0096 14.8683C17.5496 14.8683 18.0395 15.0683 18.4095 15.3883C18.8595 15.7883 19.1495 16.3683 19.1495 17.0083C19.1495 18.1883 18.1896 19.1483 17.0096 19.1483Z" fill="#292D32"/>
<path opacity="0.4" d="M19.1491 17.0111C19.1491 18.1911 18.1892 19.1511 17.0092 19.1511C15.8292 19.1511 14.8691 18.1911 14.8691 17.0111C14.8691 16.5211 15.0392 16.0611 15.3192 15.7011C15.7092 15.2011 16.3192 14.8711 17.0092 14.8711C17.5492 14.8711 18.0391 15.0711 18.4091 15.3911C18.8591 15.7911 19.1491 16.3711 19.1491 17.0111Z" fill="#292D32"/>
<path opacity="0.4" d="M17.0095 13.2298C17.8765 13.2298 18.5794 12.5269 18.5794 11.6598C18.5794 10.7927 17.8765 10.0898 17.0095 10.0898C16.1424 10.0898 15.4395 10.7927 15.4395 11.6598C15.4395 12.5269 16.1424 13.2298 17.0095 13.2298Z" fill="#292D32"/>
</svg>
