<svg width="24" height="24" viewBox="0 0 24 24" fill="none" xmlns="http://www.w3.org/2000/svg">
<path d="M12 22.75C6.07 22.75 1.25 17.93 1.25 12C1.25 6.07 6.07 1.25 12 1.25C17.93 1.25 22.75 6.07 22.75 12C22.75 17.93 17.93 22.75 12 22.75ZM12 2.75C6.9 2.75 2.75 6.9 2.75 12C2.75 17.1 6.9 21.25 12 21.25C17.1 21.25 21.25 17.1 21.25 12C21.25 6.9 17.1 2.75 12 2.75Z" fill="#292D32"/>
<path d="M9.16937 15.5794C8.97937 15.5794 8.78938 15.5094 8.63938 15.3594C8.34938 15.0694 8.34938 14.5894 8.63938 14.2994L14.2994 8.63938C14.5894 8.34938 15.0694 8.34938 15.3594 8.63938C15.6494 8.92937 15.6494 9.40937 15.3594 9.69937L9.69937 15.3594C9.55937 15.5094 9.35937 15.5794 9.16937 15.5794Z" fill="#292D32"/>
<path d="M14.8294 15.5794C14.6394 15.5794 14.4494 15.5094 14.2994 15.3594L8.63938 9.69937C8.34938 9.40937 8.34938 8.92937 8.63938 8.63938C8.92937 8.34938 9.40937 8.34938 9.69937 8.63938L15.3594 14.2994C15.6494 14.5894 15.6494 15.0694 15.3594 15.3594C15.2094 15.5094 15.0194 15.5794 14.8294 15.5794Z" fill="#292D32"/>
</svg>
