<svg width="24" height="24" viewBox="0 0 24 24" fill="none" xmlns="http://www.w3.org/2000/svg">
<path d="M16.7004 19.7305H7.30042C6.56042 19.7305 5.81042 19.2005 5.56042 18.5105L1.42042 6.92047C0.910423 5.46047 1.28042 4.79047 1.68042 4.49047C2.08042 4.19047 2.83042 4.01047 4.09042 4.91047L7.99042 7.70047C8.11042 7.77047 8.22042 7.80047 8.30042 7.78047C8.39042 7.75047 8.46042 7.67047 8.51042 7.53047L10.2704 2.84047C10.8004 1.44047 11.5804 1.23047 12.0004 1.23047C12.4204 1.23047 13.2004 1.44047 13.7304 2.84047L15.4904 7.53047C15.5404 7.66047 15.6104 7.75047 15.7004 7.78047C15.7904 7.81047 15.9004 7.78047 16.0104 7.69047L19.6704 5.08047C21.0104 4.12047 21.7904 4.31047 22.2204 4.62047C22.6404 4.94047 23.0304 5.65047 22.4804 7.20047L18.4404 18.5105C18.1904 19.2005 17.4404 19.7305 16.7004 19.7305ZM2.68042 5.81047C2.70042 5.95047 2.74042 6.15047 2.84042 6.41047L6.98042 18.0005C7.02042 18.1005 7.20042 18.2305 7.30042 18.2305H16.7004C16.8104 18.2305 16.9904 18.1005 17.0204 18.0005L21.0604 6.70047C21.2004 6.32047 21.2404 6.06047 21.2504 5.91047C21.1004 5.96047 20.8704 6.07047 20.5404 6.31047L16.8804 8.92047C16.3804 9.27047 15.7904 9.38047 15.2604 9.22047C14.7304 9.06047 14.3004 8.64047 14.0804 8.07047L12.3204 3.38047C12.1904 3.03047 12.0704 2.86047 12.0004 2.78047C11.9304 2.86047 11.8104 3.03047 11.6804 3.37047L9.92042 8.06047C9.71042 8.63047 9.28042 9.05047 8.74042 9.21047C8.21042 9.37047 7.61042 9.26047 7.12042 8.91047L3.22042 6.12047C2.99042 5.96047 2.81042 5.86047 2.68042 5.81047Z" fill="#292D32"/>
<path d="M17.5 22.75H6.5C6.09 22.75 5.75 22.41 5.75 22C5.75 21.59 6.09 21.25 6.5 21.25H17.5C17.91 21.25 18.25 21.59 18.25 22C18.25 22.41 17.91 22.75 17.5 22.75Z" fill="#292D32"/>
<path d="M14.5 14.75H9.5C9.09 14.75 8.75 14.41 8.75 14C8.75 13.59 9.09 13.25 9.5 13.25H14.5C14.91 13.25 15.25 13.59 15.25 14C15.25 14.41 14.91 14.75 14.5 14.75Z" fill="#292D32"/>
</svg>
