<svg width="24" height="24" viewBox="0 0 24 24" fill="none" xmlns="http://www.w3.org/2000/svg">
<path d="M17 21.0416H7C3.83 21.0416 1.25 18.4616 1.25 15.2916V5.71156C1.25 4.41156 1.85 3.96156 2.21 3.81156C2.57 3.66156 3.31 3.55156 4.23 4.47156L6.82 7.06156C6.92 7.16156 7.08 7.16156 7.17 7.06156L10.76 3.47156C11.42 2.81156 12.58 2.81156 13.23 3.47156L16.82 7.06156C16.92 7.16156 17.08 7.16156 17.17 7.06156L19.76 4.47156C20.68 3.55156 21.42 3.67156 21.78 3.81156C22.14 3.96156 22.74 4.40156 22.74 5.71156V15.3016C22.75 18.7316 20.44 21.0416 17 21.0416ZM2.81 5.24156C2.78 5.32156 2.75 5.47156 2.75 5.71156V15.3016C2.75 17.6416 4.66 19.5516 7 19.5516H17C19.58 19.5516 21.25 17.8816 21.25 15.3016V5.71156C21.25 5.47156 21.22 5.33156 21.19 5.25156C21.11 5.29156 20.99 5.37156 20.82 5.54156L18.23 8.13156C17.57 8.79156 16.41 8.79156 15.76 8.13156L12.17 4.54156C12.07 4.44156 11.91 4.44156 11.82 4.54156L8.24 8.12156C7.58 8.78156 6.42 8.78156 5.77 8.12156L3.18 5.53156C3.01 5.36156 2.88 5.28156 2.81 5.24156Z" fill="#292D32"/>
</svg>
