<svg width="24" height="24" viewBox="0 0 24 24" fill="none" xmlns="http://www.w3.org/2000/svg">
<path d="M10.9308 22.7495C10.4508 22.7495 9.97082 22.6296 9.53082 22.3896C8.64082 21.8896 8.11078 20.9995 8.11078 19.9895V14.6396C8.11078 14.1296 7.78076 13.3795 7.47076 12.9895L3.67078 8.99954C3.04078 8.36954 2.55078 7.26953 2.55078 6.45953V4.13956C2.55078 2.52956 3.7708 1.26953 5.3208 1.26953H18.6608C20.1908 1.26953 21.4308 2.50955 21.4308 4.03955V6.25955C21.4308 7.30955 20.8008 8.51953 20.2008 9.10953C19.9108 9.39953 19.4308 9.39953 19.1408 9.10953C18.8508 8.81953 18.8508 8.33953 19.1408 8.04953C19.5108 7.67953 19.9308 6.84955 19.9308 6.25955V4.03955C19.9308 3.33955 19.3608 2.76953 18.6608 2.76953H5.3208C4.6108 2.76953 4.05078 3.36956 4.05078 4.13956V6.45953C4.05078 6.82953 4.35078 7.55955 4.74078 7.94955L8.59082 11.9995C9.10082 12.6295 9.60077 13.6896 9.60077 14.6396V19.9895C9.60077 20.6495 10.0508 20.9695 10.2508 21.0795C10.6808 21.3195 11.1908 21.3095 11.5908 21.0695L12.9908 20.1696C13.3408 19.9496 13.8008 20.0495 14.0308 20.3995C14.2508 20.7495 14.1508 21.2095 13.8108 21.4395L12.4008 22.3495C11.9508 22.6095 11.4408 22.7495 10.9308 22.7495Z" fill="#292D32"/>
<path d="M13.6907 18.8888C13.3107 18.8888 12.9507 18.7488 12.6907 18.4888C12.3807 18.1788 12.2407 17.7288 12.3107 17.2588L12.5007 15.9088C12.5507 15.5588 12.7607 15.1488 13.0107 14.8988L16.5506 11.3587C17.0306 10.8787 17.5007 10.6288 18.0107 10.5788C18.6307 10.5188 19.2507 10.7787 19.8307 11.3587C20.4107 11.9387 20.6706 12.5488 20.6106 13.1788C20.5606 13.6788 20.3007 14.1588 19.8307 14.6388L16.2906 18.1788C16.0406 18.4288 15.6207 18.6388 15.2707 18.6888L13.9206 18.8788C13.8406 18.8888 13.7707 18.8888 13.6907 18.8888ZM18.1807 12.0588C18.1707 12.0588 18.1607 12.0588 18.1507 12.0588C18.0107 12.0688 17.8206 12.1888 17.6106 12.4088L14.0707 15.9488C14.0407 15.9788 13.9907 16.0788 13.9907 16.1188L13.8107 17.3688L15.0607 17.1888C15.1007 17.1788 15.2006 17.1288 15.2306 17.0988L18.7707 13.5588C18.9807 13.3488 19.1107 13.1588 19.1207 13.0188C19.1407 12.8188 18.9407 12.5788 18.7707 12.4088C18.6107 12.2488 18.3807 12.0588 18.1807 12.0588Z" fill="#292D32"/>
<path d="M18.7897 15.3603C18.7197 15.3603 18.6498 15.3503 18.5898 15.3303C17.2698 14.9603 16.2197 13.9103 15.8497 12.5903C15.7397 12.1903 15.9697 11.7803 16.3697 11.6603C16.7697 11.5503 17.1797 11.7803 17.2897 12.1803C17.5197 13.0003 18.1697 13.6503 18.9897 13.8803C19.3897 13.9903 19.6198 14.4103 19.5098 14.8103C19.4198 15.1503 19.1197 15.3603 18.7897 15.3603Z" fill="#292D32"/>
</svg>
