<svg width="24" height="24" viewBox="0 0 24 24" fill="none" xmlns="http://www.w3.org/2000/svg">
<path d="M12.0091 22.7403C11.3791 22.7403 10.7591 22.5303 10.2691 22.1103L8.68914 20.7603C8.52914 20.6203 8.12914 20.4803 7.91914 20.4803H6.16914C4.68914 20.4803 3.48914 19.2803 3.48914 17.8003V16.0903C3.48914 15.8803 3.34914 15.4803 3.21914 15.3303L1.85914 13.7303C1.03914 12.7603 1.03914 11.2403 1.85914 10.2603L3.21914 8.66031C3.34914 8.51031 3.48914 8.11031 3.48914 7.90031V6.20031C3.48914 4.72031 4.68914 3.52031 6.16914 3.52031H7.89914C8.10914 3.52031 8.49914 3.37031 8.66914 3.23031L10.2491 1.88031C11.2291 1.05031 12.7591 1.05031 13.7391 1.88031L15.3191 3.23031C15.4791 3.37031 15.8891 3.51031 16.0991 3.51031H17.7991C19.2791 3.51031 20.4791 4.71031 20.4791 6.19031V7.89031C20.4791 8.10031 20.6291 8.49031 20.7691 8.66031L22.1191 10.2403C22.9591 11.2303 22.9491 12.7603 22.1191 13.7303L20.7691 15.3103C20.6291 15.4803 20.4891 15.8703 20.4891 16.0803V17.7803C20.4891 19.2603 19.2891 20.4603 17.8091 20.4603H16.1091C15.8991 20.4603 15.5091 20.6103 15.3291 20.7503L13.7491 22.1003C13.2591 22.5303 12.6291 22.7403 12.0091 22.7403ZM6.16914 5.02031C5.51914 5.02031 4.98914 5.55031 4.98914 6.20031V7.90031C4.98914 8.47031 4.72914 9.19031 4.35914 9.63031L2.99914 11.2303C2.65914 11.6403 2.65914 12.3603 2.99914 12.7603L4.34914 14.3503C4.70914 14.7603 4.97914 15.5103 4.97914 16.0803V17.7903C4.97914 18.4403 5.50914 18.9703 6.15914 18.9703H7.89914C8.45914 18.9703 9.19914 19.2403 9.63914 19.6103L11.2291 20.9703C11.6391 21.3203 12.3591 21.3203 12.7691 20.9703L14.3491 19.6203C14.7991 19.2403 15.5291 18.9803 16.0891 18.9803H17.7891C18.4391 18.9803 18.9691 18.4503 18.9691 17.8003V16.1003C18.9691 15.5403 19.2391 14.8103 19.6091 14.3603L20.9691 12.7703C21.3191 12.3603 21.3191 11.6403 20.9691 11.2303L19.6191 9.65031C19.2391 9.20031 18.9791 8.47031 18.9791 7.91031V6.20031C18.9791 5.55031 18.4491 5.02031 17.7991 5.02031H16.0991C15.5291 5.02031 14.7891 4.75031 14.3491 4.38031L12.7591 3.02031C12.3491 2.67031 11.6391 2.67031 11.2191 3.02031L9.64914 4.38031C9.19914 4.75031 8.46914 5.02031 7.89914 5.02031H6.16914Z" fill="#292D32"/>
<path d="M12 16.8711C11.45 16.8711 11 16.4211 11 15.8711C11 15.3211 11.44 14.8711 12 14.8711C12.55 14.8711 13 15.3211 13 15.8711C13 16.4211 12.56 16.8711 12 16.8711Z" fill="#292D32"/>
<path d="M12 13.7189C11.59 13.7189 11.25 13.3789 11.25 12.9689V8.12891C11.25 7.71891 11.59 7.37891 12 7.37891C12.41 7.37891 12.75 7.71891 12.75 8.12891V12.9589C12.75 13.3789 12.42 13.7189 12 13.7189Z" fill="#292D32"/>
</svg>
