<svg width="24" height="24" viewBox="0 0 24 24" fill="none" xmlns="http://www.w3.org/2000/svg">
<path d="M15 22.75H9C3.57 22.75 1.25 20.43 1.25 15V9C1.25 3.57 3.57 1.25 9 1.25H15C20.43 1.25 22.75 3.57 22.75 9V15C22.75 20.43 20.43 22.75 15 22.75ZM9 2.75C4.39 2.75 2.75 4.39 2.75 9V15C2.75 19.61 4.39 21.25 9 21.25H15C19.61 21.25 21.25 19.61 21.25 15V9C21.25 4.39 19.61 2.75 15 2.75H9Z" fill="#292D32"/>
<path d="M12 16.25C9.66 16.25 7.75 14.34 7.75 12C7.75 9.66 9.66 7.75 12 7.75C14.34 7.75 16.25 9.66 16.25 12C16.25 14.34 14.34 16.25 12 16.25ZM12 9.25C10.48 9.25 9.25 10.48 9.25 12C9.25 13.52 10.48 14.75 12 14.75C13.52 14.75 14.75 13.52 14.75 12C14.75 10.48 13.52 9.25 12 9.25Z" fill="#292D32"/>
<path d="M17 7.50088C16.87 7.50088 16.74 7.47088 16.62 7.42088C16.5 7.37088 16.39 7.30088 16.29 7.21088C16.2 7.11088 16.12 7.00088 16.07 6.88088C16.02 6.76088 16 6.63088 16 6.50088C16 6.37088 16.02 6.24088 16.07 6.12088C16.13 5.99088 16.2 5.89088 16.29 5.79088C16.34 5.75088 16.39 5.70088 16.44 5.67088C16.5 5.63088 16.56 5.60088 16.62 5.58088C16.68 5.55088 16.74 5.53088 16.81 5.52088C17.13 5.45088 17.47 5.56088 17.71 5.79088C17.8 5.89088 17.87 5.99088 17.92 6.12088C17.97 6.24088 18 6.37088 18 6.50088C18 6.63088 17.97 6.76088 17.92 6.88088C17.87 7.00088 17.8 7.11088 17.71 7.21088C17.61 7.30088 17.5 7.37088 17.38 7.42088C17.26 7.47088 17.13 7.50088 17 7.50088Z" fill="#292D32"/>
</svg>
