<svg width="24" height="24" viewBox="0 0 24 24" fill="none" xmlns="http://www.w3.org/2000/svg">
<path d="M20.6196 13.0703C20.2396 13.0703 19.9196 12.7803 19.8696 12.4003C19.6296 10.1403 18.4096 8.09035 16.5296 6.79035C16.1896 6.55035 16.1096 6.09035 16.3396 5.75035C16.5796 5.41035 17.0496 5.33035 17.3796 5.56035C19.6196 7.11035 21.0596 9.55035 21.3496 12.2403C21.3896 12.6503 21.0996 13.0203 20.6796 13.0703C20.6696 13.0703 20.6396 13.0703 20.6196 13.0703Z" fill="#292D32"/>
<path d="M3.48991 13.1193C3.45991 13.1193 3.43991 13.1193 3.40991 13.1193C2.99991 13.0693 2.69991 12.6993 2.73991 12.2893C3.00991 9.59928 4.43991 7.16928 6.64991 5.59928C6.98991 5.35928 7.45991 5.43928 7.69991 5.77928C7.93991 6.11928 7.85991 6.58928 7.51991 6.82928C5.65991 8.13928 4.45991 10.1893 4.22991 12.4493C4.19991 12.8293 3.86991 13.1193 3.48991 13.1193Z" fill="#292D32"/>
<path d="M12.06 22.61C10.58 22.61 9.16997 22.27 7.84997 21.61C7.47997 21.42 7.32997 20.97 7.51997 20.6C7.70997 20.23 8.15997 20.08 8.52997 20.27C10.69 21.36 13.29 21.38 15.47 20.33C15.84 20.15 16.29 20.31 16.47 20.68C16.65 21.05 16.49 21.5 16.12 21.68C14.84 22.3 13.48 22.61 12.06 22.61Z" fill="#292D32"/>
<path d="M12.0593 8.43891C10.1093 8.43891 8.5293 6.85891 8.5293 4.90891C8.5293 2.95891 10.1093 1.37891 12.0593 1.37891C14.0093 1.37891 15.5893 2.95891 15.5893 4.90891C15.5893 6.85891 13.9993 8.43891 12.0593 8.43891ZM12.0593 2.88891C10.9393 2.88891 10.0293 3.79891 10.0293 4.91891C10.0293 6.03891 10.9393 6.94891 12.0593 6.94891C13.1793 6.94891 14.0893 6.03891 14.0893 4.91891C14.0893 3.79891 13.1693 2.88891 12.0593 2.88891Z" fill="#292D32"/>
<path d="M4.83078 20.6694C2.88078 20.6694 1.30078 19.0894 1.30078 17.1394C1.30078 15.1994 2.88078 13.6094 4.83078 13.6094C6.78078 13.6094 8.36078 15.1894 8.36078 17.1394C8.36078 19.0794 6.78078 20.6694 4.83078 20.6694ZM4.83078 15.1094C3.71078 15.1094 2.80078 16.0194 2.80078 17.1394C2.80078 18.2594 3.71078 19.1694 4.83078 19.1694C5.95078 19.1694 6.86078 18.2594 6.86078 17.1394C6.86078 16.0194 5.95078 15.1094 4.83078 15.1094Z" fill="#292D32"/>
<path d="M19.1706 20.6694C17.2206 20.6694 15.6406 19.0894 15.6406 17.1394C15.6406 15.1994 17.2206 13.6094 19.1706 13.6094C21.1206 13.6094 22.7006 15.1894 22.7006 17.1394C22.6906 19.0794 21.1106 20.6694 19.1706 20.6694ZM19.1706 15.1094C18.0506 15.1094 17.1406 16.0194 17.1406 17.1394C17.1406 18.2594 18.0506 19.1694 19.1706 19.1694C20.2906 19.1694 21.2006 18.2594 21.2006 17.1394C21.1906 16.0194 20.2906 15.1094 19.1706 15.1094Z" fill="#292D32"/>
</svg>
