<svg width="24" height="24" viewBox="0 0 24 24" fill="none" xmlns="http://www.w3.org/2000/svg">
<path d="M11.9693 22.7511C11.3593 22.7511 10.7293 22.7011 10.0893 22.5911C5.68932 21.8411 2.09932 18.2411 1.36932 13.8211C0.789319 10.3111 1.87932 6.88113 4.36932 4.39113C6.85932 1.90113 10.2893 0.82113 13.7893 1.39113C18.1993 2.12113 21.8093 5.70113 22.5593 10.1011C22.7193 11.0711 22.7593 12.0211 22.6793 12.9211V12.9311C22.6593 13.1611 22.6193 13.3811 22.5593 13.6011C22.4893 13.8511 22.2993 14.0411 22.0593 14.1211C21.8193 14.2011 21.5493 14.1411 21.3493 13.9811C20.4093 13.1911 19.2093 12.7511 17.9693 12.7511C15.0693 12.7511 12.7193 15.1111 12.7193 18.0011C12.7193 19.2411 13.1593 20.4411 13.9493 21.3811C14.1193 21.5811 14.1693 21.8411 14.0893 22.0911C14.0093 22.3411 13.8193 22.5211 13.5693 22.5911C13.3493 22.6511 13.1293 22.6911 12.8993 22.7111C12.5993 22.7411 12.2893 22.7511 11.9693 22.7511ZM11.9693 2.75113C9.51932 2.75113 7.19932 3.70113 5.43932 5.46113C3.29932 7.60113 2.35932 10.5611 2.85932 13.5811C3.48932 17.3711 6.55932 20.4711 10.3493 21.1111C10.9493 21.2111 11.5193 21.2711 12.0693 21.2511C11.5293 20.2611 11.2393 19.1411 11.2393 18.0011C11.2393 14.2811 14.2693 11.2511 17.9893 11.2511C19.1293 11.2511 20.2493 11.5411 21.2393 12.0811C21.2493 11.5311 21.1993 10.9611 21.0993 10.3611C20.4593 6.58113 17.3593 3.50113 13.5693 2.88113C13.0193 2.79113 12.4893 2.75113 11.9693 2.75113Z" fill="#292D32"/>
<path d="M13.3807 22.61C13.1607 22.61 12.9507 22.52 12.8107 22.34C11.7907 21.13 11.2207 19.59 11.2207 18C11.2207 14.28 14.2507 11.25 17.9707 11.25C19.5607 11.25 21.1007 11.81 22.3107 12.84C22.5407 13.03 22.6307 13.34 22.5507 13.62C22.3707 14.24 22.0507 14.78 21.5907 15.24L15.2107 21.62C14.7507 22.08 14.2007 22.4 13.5907 22.58C13.5207 22.6 13.4507 22.61 13.3807 22.61ZM17.9707 12.75C15.0707 12.75 12.7207 15.11 12.7207 18C12.7207 19.06 13.0407 20.09 13.6307 20.95C13.8207 20.85 13.9907 20.72 14.1507 20.56L20.5307 14.18C20.6907 14.02 20.8207 13.85 20.9207 13.66C20.0607 13.07 19.0307 12.75 17.9707 12.75Z" fill="#292D32"/>
</svg>
