<svg width="24" height="24" viewBox="0 0 24 24" fill="none" xmlns="http://www.w3.org/2000/svg">
<path opacity="0.4" d="M20.6188 8.7C19.5788 4.07 15.5388 2 11.9988 2C11.9988 2 11.9988 2 11.9888 2C8.45877 2 4.42877 4.07 3.37877 8.69C2.19877 13.85 5.35877 18.22 8.21877 20.98C9.27877 22 10.6388 22.51 11.9988 22.51C13.3588 22.51 14.7188 22 15.7688 20.98C18.6288 18.22 21.7888 13.86 20.6188 8.7Z" fill="#292D32"/>
<path d="M10.7514 13.7514C10.5614 13.7514 10.3714 13.6814 10.2214 13.5314L8.72141 12.0314C8.43141 11.7414 8.43141 11.2614 8.72141 10.9714C9.01141 10.6814 9.49141 10.6814 9.78141 10.9714L10.7514 11.9414L14.2214 8.47141C14.5114 8.18141 14.9914 8.18141 15.2814 8.47141C15.5714 8.76141 15.5714 9.24141 15.2814 9.53141L11.2814 13.5314C11.1314 13.6814 10.9414 13.7514 10.7514 13.7514Z" fill="#292D32"/>
</svg>
