<svg width="24" height="24" viewBox="0 0 24 24" fill="none" xmlns="http://www.w3.org/2000/svg">
<path d="M17.8796 6.12156L3.9196 20.0816C3.4896 20.5116 2.7696 20.4716 2.4196 19.9816C1.9196 19.2916 1.8196 18.3316 2.3396 17.5016L5.0996 13.0716C5.4696 12.4816 5.4696 11.5216 5.0996 10.9316L2.3396 6.50156C1.4096 5.02156 2.4796 3.10156 4.2196 3.10156H15.6696C16.3496 3.10156 17.1896 3.57156 17.5496 4.14156L18.0196 4.88156C18.2596 5.28156 18.2096 5.79156 17.8796 6.12156Z" fill="#292D32"/>
<path d="M21.6299 13.1119L16.4499 20.0119C16.0899 20.5019 15.2899 20.9019 14.6699 20.9019H7.50987C6.61987 20.9019 6.16987 19.8219 6.79987 19.1919L18.3199 7.68195C18.7699 7.23195 19.5399 7.31195 19.8799 7.86195L21.7299 10.8319C22.1299 11.4719 22.0899 12.5019 21.6299 13.1119Z" fill="#292D32"/>
</svg>
