<svg width="24" height="24" viewBox="0 0 24 24" fill="none" xmlns="http://www.w3.org/2000/svg">
<path d="M21.6814 15.3206C20.7914 14.4306 19.6114 13.9806 18.4414 14.0006C17.3114 14.0106 16.1814 14.4606 15.3214 15.3206C14.7214 15.9106 14.3314 16.6506 14.1414 17.4206C14.0314 17.8406 13.9914 18.2707 14.0214 18.7007V18.7506C14.0214 18.8206 14.0314 18.8807 14.0414 18.9607C14.0414 18.9607 14.0414 18.9606 14.0514 18.9706V19.0006C14.1414 19.9806 14.5614 20.9306 15.3214 21.6806C16.4814 22.8406 18.1114 23.2306 19.5814 22.8606C20.0214 22.7506 20.4514 22.5707 20.8514 22.3307C21.1514 22.1607 21.4314 21.9406 21.6814 21.6806C22.4314 20.9306 22.8614 19.9806 22.9514 18.9906C22.9614 18.9906 22.9614 18.9707 22.9614 18.9607C22.9814 18.8907 22.9814 18.8106 22.9814 18.7406C22.9814 18.7306 22.9914 18.7106 22.9914 18.6906C23.0514 17.4806 22.6114 16.2406 21.6814 15.3206ZM20.2314 20.2107C19.9414 20.5007 19.4714 20.5007 19.1714 20.2107L18.5114 19.5506L17.8314 20.2306C17.5314 20.5306 17.0614 20.5306 16.7714 20.2306C16.4714 19.9406 16.4714 19.4706 16.7714 19.1706L17.4514 18.4906L16.7914 17.8307C16.5014 17.5307 16.5014 17.0607 16.7914 16.7707C17.0914 16.4707 17.5614 16.4707 17.8614 16.7707L18.5114 17.4306L19.1414 16.7906C19.4414 16.5006 19.9114 16.5006 20.2114 16.7906C20.5014 17.0906 20.5014 17.5606 20.2114 17.8606L19.5714 18.4906L20.2314 19.1407C20.5314 19.4407 20.5314 19.9107 20.2314 20.2107Z" fill="#292D32"/>
<path opacity="0.4" d="M19.3484 5.65995L13.0584 2.27C12.3984 1.91 11.5984 1.91 10.9284 2.27L4.63846 5.65995C4.17846 5.90995 3.89844 6.39998 3.89844 6.93998C3.89844 7.47998 4.17846 7.96995 4.63846 8.21995L10.9284 11.61C11.2584 11.79 11.6284 11.88 11.9884 11.88C12.3484 11.88 12.7184 11.79 13.0484 11.61L19.3384 8.21995C19.7984 7.96995 20.0784 7.47998 20.0784 6.93998C20.0984 6.39998 19.8084 5.90995 19.3484 5.65995Z" fill="#292D32"/>
<path opacity="0.4" d="M9.89874 12.7884L4.04874 9.85842C3.59874 9.62842 3.07874 9.65842 2.64874 9.91842C2.21874 10.1784 1.96875 10.6385 1.96875 11.1385V16.6684C1.96875 17.6284 2.49873 18.4884 3.35873 18.9184L9.20874 21.8385C9.40874 21.9385 9.62875 21.9884 9.84875 21.9884C10.1088 21.9884 10.3688 21.9185 10.5988 21.7685C11.0288 21.5085 11.2787 21.0484 11.2787 20.5484V15.0185C11.2887 14.0785 10.7587 13.2184 9.89874 12.7884Z" fill="#292D32"/>
<path opacity="0.4" d="M22.0309 11.1497V15.7396C22.0209 15.7296 22.0109 15.7097 22.0009 15.6997C22.0009 15.6897 21.991 15.6796 21.981 15.6696C21.941 15.6096 21.8909 15.5496 21.8409 15.4996C21.8309 15.4896 21.8209 15.4697 21.8109 15.4597C21.0009 14.5597 19.8109 13.9996 18.5009 13.9996C17.2409 13.9996 16.0909 14.5196 15.2709 15.3596C14.4809 16.1696 14.0009 17.2796 14.0009 18.4996C14.0009 19.3396 14.2409 20.1397 14.6509 20.8197C14.8209 21.1097 15.031 21.3696 15.261 21.6096L14.791 21.8496C14.591 21.9496 14.3709 21.9996 14.1509 21.9996C13.8909 21.9996 13.631 21.9297 13.391 21.7797C12.971 21.5197 12.7109 21.0596 12.7109 20.5596V15.0396C12.7109 14.0796 13.241 13.2196 14.101 12.7896L19.951 9.86964C20.401 9.63964 20.921 9.65964 21.351 9.92964C21.771 10.1896 22.0309 10.6497 22.0309 11.1497Z" fill="#292D32"/>
</svg>
