<svg width="24" height="24" viewBox="0 0 24 24" fill="none" xmlns="http://www.w3.org/2000/svg">
<path d="M14.3498 2H9.64977C8.60977 2 7.75977 2.84 7.75977 3.88V4.82C7.75977 5.86 8.59977 6.7 9.63977 6.7H14.3498C15.3898 6.7 16.2298 5.86 16.2298 4.82V3.88C16.2398 2.84 15.3898 2 14.3498 2Z" fill="#292D32"/>
<path d="M17.2391 4.81949C17.2391 6.40949 15.9391 7.70949 14.3491 7.70949H9.64906C8.05906 7.70949 6.75906 6.40949 6.75906 4.81949C6.75906 4.25949 6.15906 3.90949 5.65906 4.16949C4.24906 4.91949 3.28906 6.40949 3.28906 8.11949V17.5295C3.28906 19.9895 5.29906 21.9995 7.75906 21.9995H16.2391C18.6991 21.9995 20.7091 19.9895 20.7091 17.5295V8.11949C20.7091 6.40949 19.7491 4.91949 18.3391 4.16949C17.8391 3.90949 17.2391 4.25949 17.2391 4.81949ZM14.5291 16.6895C14.3791 16.8395 14.1891 16.9095 13.9991 16.9095C13.8091 16.9095 13.6191 16.8395 13.4691 16.6895L12.0191 15.2395L10.5291 16.7295C10.3791 16.8795 10.1891 16.9495 9.99906 16.9495C9.80906 16.9495 9.61906 16.8795 9.46906 16.7295C9.17906 16.4395 9.17906 15.9595 9.46906 15.6695L10.9591 14.1795L9.50906 12.7295C9.21906 12.4395 9.21906 11.9595 9.50906 11.6695C9.79906 11.3795 10.2791 11.3795 10.5691 11.6695L12.0191 13.1195L13.4191 11.7195C13.7091 11.4295 14.1891 11.4295 14.4791 11.7195C14.7691 12.0095 14.7691 12.4895 14.4791 12.7795L13.0791 14.1795L14.5291 15.6295C14.8191 15.9195 14.8191 16.3895 14.5291 16.6895Z" fill="#292D32"/>
</svg>
