<svg width="24" height="24" viewBox="0 0 24 24" fill="none" xmlns="http://www.w3.org/2000/svg">
<path d="M16 4.25C16 5.49 14.99 6.5 13.75 6.5H10.25C9.63 6.5 9.07 6.25 8.66 5.84C8.25 5.43 8 4.87 8 4.25C8 3.01 9.01 2 10.25 2H13.75C14.37 2 14.93 2.25 15.34 2.66C15.75 3.07 16 3.63 16 4.25Z" fill="#292D32"/>
<path d="M18.83 5.02874C18.6 4.83874 18.34 4.68874 18.06 4.57874C17.77 4.46874 17.48 4.69874 17.42 4.99874C17.08 6.70874 15.57 7.99874 13.75 7.99874H10.25C9.25 7.99874 8.31 7.60874 7.6 6.89874C7.08 6.37874 6.72 5.71874 6.58 5.00874C6.52 4.70874 6.22 4.46874 5.93 4.58874C4.77 5.05874 4 6.11874 4 8.24874V17.9987C4 20.9987 5.79 21.9987 8 21.9987H16C18.21 21.9987 20 20.9987 20 17.9987V8.24874C20 6.61874 19.55 5.61874 18.83 5.02874ZM8 12.2487H12C12.41 12.2487 12.75 12.5887 12.75 12.9987C12.75 13.4087 12.41 13.7487 12 13.7487H8C7.59 13.7487 7.25 13.4087 7.25 12.9987C7.25 12.5887 7.59 12.2487 8 12.2487ZM16 17.7487H8C7.59 17.7487 7.25 17.4087 7.25 16.9987C7.25 16.5887 7.59 16.2487 8 16.2487H16C16.41 16.2487 16.75 16.5887 16.75 16.9987C16.75 17.4087 16.41 17.7487 16 17.7487Z" fill="#292D32"/>
</svg>
