<svg width="24" height="24" viewBox="0 0 24 24" fill="none" xmlns="http://www.w3.org/2000/svg">
<path d="M12.5495 12.9201C10.9095 13.3101 9.4795 11.8801 9.8695 10.2401C10.0595 9.47008 10.6895 8.84011 11.4595 8.65011C12.8095 8.32011 14.0295 9.25009 14.1895 10.5001" stroke="#292D32" stroke-width="1.5" stroke-linecap="round" stroke-linejoin="round"/>
<path d="M7.64093 3.1499C4.99093 4.6599 3.21094 7.51986 3.21094 10.7899C3.21094 13.3299 4.29094 15.6198 6.02094 17.2198" stroke="#292D32" stroke-width="1.5" stroke-linecap="round" stroke-linejoin="round"/>
<path d="M18.01 17.19C19.72 15.59 20.79 13.32 20.79 10.79C20.79 5.92998 16.85 2 12 2" stroke="#292D32" stroke-width="1.5" stroke-linecap="round" stroke-linejoin="round"/>
<path d="M7.99977 14.55C7.07977 13.57 6.50977 12.25 6.50977 10.79C6.50977 7.76004 8.96977 5.30005 11.9998 5.30005C15.0298 5.30005 17.4898 7.76004 17.4898 10.79C17.4898 12.25 16.9198 13.56 15.9998 14.55" stroke="#292D32" stroke-width="1.5" stroke-linecap="round" stroke-linejoin="round"/>
<path d="M10.3007 16.66L8.86071 18.4501C7.72071 19.8801 8.73071 21.99 10.5607 21.99H13.4307C15.2607 21.99 16.2807 19.8701 15.1307 18.4501L13.6907 16.66C12.8307 15.57 11.1707 15.57 10.3007 16.66Z" stroke="#292D32" stroke-width="1.5" stroke-linecap="round" stroke-linejoin="round"/>
</svg>
