<svg width="24" height="24" viewBox="0 0 24 24" fill="none" xmlns="http://www.w3.org/2000/svg">
<path d="M7.56 3.09998C9.37 3.09998 10.99 3.98002 12 5.33002C13.01 3.98002 14.63 3.09998 16.44 3.09998C19.51 3.09998 22 5.6 22 8.69C22 10.66 21.49 12.4 20.69 13.91C19.81 12.98 18.57 12.4 17.2 12.4C14.55 12.4 12.4 14.55 12.4 17.2C12.4 18.43 12.87 19.55 13.63 20.4C13.26 20.57 12.92 20.71 12.62 20.81C12.28 20.93 11.72 20.93 11.38 20.81C8.48 19.82 2 15.69 2 8.69C2 7.14 2.62 5.73998 3.63 4.72998" stroke="#292D32" stroke-width="1.5" stroke-linecap="round" stroke-linejoin="round"/>
<path d="M22.0004 17.2C22.0004 18.1 21.7504 18.95 21.3004 19.67C20.4704 21.06 18.9504 22 17.2004 22C15.4504 22 13.9204 21.06 13.1004 19.67C12.6604 18.95 12.4004 18.1 12.4004 17.2C12.4004 14.55 14.5504 12.4 17.2004 12.4C19.8504 12.4 22.0004 14.55 22.0004 17.2Z" stroke="#292D32" stroke-width="1.5" stroke-miterlimit="10" stroke-linecap="round" stroke-linejoin="round"/>
<path d="M15.3301 17.2L16.5101 18.38L19.0701 16.02" stroke="#292D32" stroke-width="1.5" stroke-linecap="round" stroke-linejoin="round"/>
</svg>
