<svg width="24" height="24" viewBox="0 0 24 24" fill="none" xmlns="http://www.w3.org/2000/svg">
<path d="M7.56055 3.09998C9.38055 3.09998 10.9905 3.98003 12.0005 5.34003C13.0105 3.98003 14.6306 3.09998 16.4406 3.09998C17.5906 3.09998 18.6605 3.45 19.5505 4.06" stroke="#292D32" stroke-width="1.5" stroke-linecap="round" stroke-linejoin="round"/>
<path d="M6.10999 17.5C3.89999 15.43 2 12.48 2 8.67999C2 7.13999 2.62 5.73998 3.63 4.72998" stroke="#292D32" stroke-width="1.5" stroke-linecap="round" stroke-linejoin="round"/>
<path d="M21.7395 7C21.9095 7.53 21.9995 8.1 21.9995 8.69C21.9995 15.69 15.5195 19.82 12.6195 20.82C12.2795 20.94 11.7195 20.94 11.3795 20.82C10.7295 20.6 9.90953 20.22 9.01953 19.69" stroke="#292D32" stroke-width="1.5" stroke-linecap="round" stroke-linejoin="round"/>
<path d="M22 2L2 22" stroke="#292D32" stroke-width="1.5" stroke-linecap="round" stroke-linejoin="round"/>
</svg>
