<svg width="24" height="24" viewBox="0 0 24 24" fill="none" xmlns="http://www.w3.org/2000/svg">
<path d="M4.26906 5.48998L3.29906 6.04998C2.74906 6.36998 2.28906 7.14998 2.28906 7.78998V17.52C2.28906 19.42 3.63906 20.2 5.27906 19.26L7.62906 17.92C8.13906 17.63 8.98906 17.6 9.51906 17.87L14.7691 20.5C15.2991 20.76 16.1491 20.74 16.6591 20.45L20.9891 17.97C21.5391 17.65 21.9991 16.87 21.9991 16.23V6.48998C21.9991 4.58998 20.6491 3.80998 19.0091 4.74998L16.6591 6.08998C16.1491 6.37998 15.2991 6.40998 14.7691 6.13998L9.51906 3.51998C8.98906 3.25998 8.13906 3.27998 7.62906 3.56998" stroke="#292D32" stroke-width="1.5" stroke-linecap="round" stroke-linejoin="round"/>
<path d="M8.56055 4V17" stroke="#292D32" stroke-width="1.5" stroke-linecap="round" stroke-linejoin="round"/>
<path d="M15.7305 6.62012V20.0001" stroke="#292D32" stroke-width="1.5" stroke-linecap="round" stroke-linejoin="round"/>
</svg>
