<svg width="24" height="24" viewBox="0 0 24 24" fill="none" xmlns="http://www.w3.org/2000/svg">
<path d="M2 13.05V15C2 20 4 22 9 22H15C20 22 22 20 22 15V9C22 4 20 2 15 2H9C4 2 2 4 2 9" stroke="#292D32" stroke-width="1.5" stroke-linecap="round" stroke-linejoin="round"/>
<path d="M17.3509 9.05004L15.0109 16.59C14.4509 18.38 11.9409 18.41 11.3509 16.63L10.651 14.56C10.461 13.99 10.0109 13.53 9.44095 13.35L7.36095 12.65C5.59095 12.06 5.62095 9.53004 7.41095 8.99004L14.951 6.64003C16.431 6.19003 17.8209 7.58004 17.3509 9.05004Z" stroke="#292D32" stroke-width="1.5" stroke-linecap="round" stroke-linejoin="round"/>
</svg>
