<svg width="24" height="24" viewBox="0 0 24 24" fill="none" xmlns="http://www.w3.org/2000/svg">
<path d="M3 13.0801V14.8801C3 17.0001 3 17.0001 5 18.3501L10.5 21.5301C11.33 22.0101 12.68 22.0101 13.5 21.5301L19 18.3501C21 17.0001 21 17.0001 21 14.8901V9.11011C21 7.00011 21 7.00011 19 5.65011L13.5 2.47011C12.68 1.99011 11.33 1.99011 10.5 2.47011L5 5.65011C3 7.00011 3 7.00011 3 9.11011" stroke="#292D32" stroke-width="1.5" stroke-linecap="round" stroke-linejoin="round"/>
<path d="M15 12C15 10.34 13.66 9 12 9C10.34 9 9 10.34 9 12C9 13.66 10.34 15 12 15C12.41 15 12.81 14.92 13.17 14.76" stroke="#292D32" stroke-width="1.5" stroke-miterlimit="10" stroke-linecap="round" stroke-linejoin="round"/>
</svg>
