<svg width="24" height="24" viewBox="0 0 24 24" fill="none" xmlns="http://www.w3.org/2000/svg">
<path d="M7.83984 20.02L9.42984 21.21C10.8398 22.27 13.1598 22.27 14.5698 21.21L18.8698 18C19.8198 17.29 20.5998 15.74 20.5998 14.56V7.12" stroke="#292D32" stroke-width="1.5" stroke-linecap="round" stroke-linejoin="round"/>
<path d="M3.41016 11.04V14.56C3.41016 15.74 4.19016 17.29 5.14016 18L5.34016 18.15" stroke="#292D32" stroke-width="1.5" stroke-linecap="round" stroke-linejoin="round"/>
<path d="M18.9802 4.34006C18.8302 4.25006 18.6702 4.17006 18.5102 4.10006L13.5202 2.23006C12.6902 1.92006 11.3302 1.92006 10.5002 2.23006L5.50016 4.11006C4.35016 4.54006 3.41016 5.90006 3.41016 7.12006" stroke="#292D32" stroke-width="1.5" stroke-linecap="round" stroke-linejoin="round"/>
<path d="M22 2L2 22" stroke="#292D32" stroke-width="1.5" stroke-linecap="round" stroke-linejoin="round"/>
</svg>
