<svg width="24" height="24" viewBox="0 0 24 24" fill="none" xmlns="http://www.w3.org/2000/svg">
<path d="M8.38977 7.62H6.86977C5.00977 7.62 4.58977 8.55001 4.35977 9.70001L3.50977 13.75H15.5098L14.6598 9.70001C14.4198 8.56001 14.0098 7.62 12.1498 7.62" stroke="#292D32" stroke-width="1.5" stroke-linecap="round" stroke-linejoin="round"/>
<path d="M16.8899 19.19L16.9999 20.36C17.0799 21.24 16.3799 22 15.4799 22H14.0699C13.2599 22 13.1499 21.65 12.9999 21.23L12.8499 20.78C12.6399 20.17 12.4999 19.75 11.4199 19.75H7.5799C6.49989 19.75 6.33989 20.22 6.14989 20.78L5.99989 21.23C5.85989 21.66 5.74989 22 4.92989 22H3.5199C2.6199 22 1.90989 21.24 1.99989 20.36L2.41989 15.79C2.52989 14.66 2.7399 13.74 4.7099 13.74H14.2799C16.2499 13.74 16.4599 14.66 16.5699 15.79" stroke="#292D32" stroke-width="1.5" stroke-linecap="round" stroke-linejoin="round"/>
<path d="M3.5 11.5H2.75" stroke="#292D32" stroke-width="1.5" stroke-linecap="round" stroke-linejoin="round"/>
<path d="M16.25 11.5H15.5" stroke="#292D32" stroke-width="1.5" stroke-linecap="round" stroke-linejoin="round"/>
<path d="M5 16.75H7.25" stroke="#292D32" stroke-width="1.5" stroke-linecap="round" stroke-linejoin="round"/>
<path d="M11.75 16.75H14" stroke="#292D32" stroke-width="1.5" stroke-linecap="round" stroke-linejoin="round"/>
<path d="M18.7092 8.73992C18.9892 8.08992 18.8891 7.20993 18.3691 6.43993C17.8591 5.66993 17.0791 5.23993 16.3691 5.24993" stroke="#292D32" stroke-width="1.5" stroke-linecap="round" stroke-linejoin="round"/>
<path d="M18.3806 2.53998C17.8106 2.25998 17.2206 2.07 16.6406 2" stroke="#292D32" stroke-width="1.5" stroke-linecap="round" stroke-linejoin="round"/>
<path d="M21.8192 9.72998C22.2392 8.21998 21.9391 6.37002 20.8691 4.77002" stroke="#292D32" stroke-width="1.5" stroke-linecap="round" stroke-linejoin="round"/>
</svg>
