<svg width="24" height="24" viewBox="0 0 24 24" fill="none" xmlns="http://www.w3.org/2000/svg">
<path d="M4.84 19.4801C3.08 17.6801 2 15.2101 2 12.4901C2 8.8001 4 5.5801 6.97 3.8401C7.28 3.6601 7.6 3.4901 7.94 3.3501" stroke="#292D32" stroke-width="1.5" stroke-miterlimit="10" stroke-linecap="round" stroke-linejoin="round"/>
<path d="M19.14 19.5C20.91 17.7 22 15.22 22 12.5C22 6.98 17.52 2.5 12 2.5" stroke="#292D32" stroke-width="1.5" stroke-miterlimit="10" stroke-linecap="round" stroke-linejoin="round"/>
<path d="M8.61914 18.12C8.61914 19.98 10.1291 21.5 11.9991 21.5C13.8691 21.5 15.3792 19.99 15.3792 18.12C15.3792 16.25 13.8691 14.74 11.9991 14.74C11.0691 14.74 10.2191 15.12 9.60915 15.73C8.99915 16.35 8.61914 17.19 8.61914 18.12Z" stroke="#292D32" stroke-width="1.5" stroke-miterlimit="10" stroke-linecap="round" stroke-linejoin="round"/>
<path d="M15.25 12H16C16.82 12 17.5 11.33 17.5 10.5C17.5 9.68 16.82 9 16 9C15.18 9 14.5 9.67 14.5 10.5V11.25C14.5 11.66 14.84 12 15.25 12Z" stroke="#292D32" stroke-width="1.5" stroke-miterlimit="10" stroke-linecap="round" stroke-linejoin="round"/>
</svg>
