<svg width="24" height="24" viewBox="0 0 24 24" fill="none" xmlns="http://www.w3.org/2000/svg">
<path d="M20 11C20 15.97 15.97 20 11 20C6.03 20 2 15.97 2 11C2 6.03 6.03 2 11 2" stroke="#292D32" stroke-width="1.5" stroke-linecap="round" stroke-linejoin="round"/>
<path opacity="0.4" d="M13.4999 6.13106C13.1499 5.03106 13.5599 3.66106 14.7199 3.29106C15.3299 3.09106 16.0799 3.26106 16.5099 3.85106C16.9099 3.24106 17.6899 3.10106 18.2899 3.29106C19.4499 3.66106 19.8599 5.03106 19.5099 6.13106C18.9599 7.88106 17.0399 8.79106 16.5099 8.79106C15.9699 8.79106 14.0699 7.90106 13.4999 6.13106Z" stroke="#292D32" stroke-width="1.5" stroke-linecap="round" stroke-linejoin="round"/>
<path opacity="0.4" d="M18.9304 20.6888C19.4604 22.2888 20.6704 22.4488 21.6004 21.0488C22.4504 19.7688 21.8904 18.7188 20.3504 18.7188C19.2104 18.7088 18.5704 19.5988 18.9304 20.6888Z" stroke="#292D32" stroke-width="1.5" stroke-linecap="round" stroke-linejoin="round"/>
</svg>
