<svg width="24" height="24" viewBox="0 0 24 24" fill="none" xmlns="http://www.w3.org/2000/svg">
<path d="M12 22.75C6.07 22.75 1.25 17.93 1.25 12C1.25 6.07 6.07 1.25 12 1.25C17.93 1.25 22.75 6.07 22.75 12C22.75 17.93 17.93 22.75 12 22.75ZM12 2.75C6.9 2.75 2.75 6.9 2.75 12C2.75 17.1 6.9 21.25 12 21.25C17.1 21.25 21.25 17.1 21.25 12C21.25 6.9 17.1 2.75 12 2.75Z" fill="#292D32"/>
<path d="M15.5302 14.0119C15.3402 14.0119 15.1502 13.9419 15.0002 13.7919L12.0002 10.7919L9.00016 13.7919C8.71016 14.0819 8.23016 14.0819 7.94016 13.7919C7.65016 13.5019 7.65016 13.0219 7.94016 12.7319L11.4702 9.20188C11.7602 8.91188 12.2402 8.91188 12.5302 9.20188L16.0602 12.7319C16.3502 13.0219 16.3502 13.5019 16.0602 13.7919C15.9102 13.9419 15.7202 14.0119 15.5302 14.0119Z" fill="#292D32"/>
</svg>
