<svg width="24" height="24" viewBox="0 0 24 24" fill="none" xmlns="http://www.w3.org/2000/svg">
<path d="M12 22.75C6.07 22.75 1.25 17.93 1.25 12C1.25 6.07 6.07 1.25 12 1.25C17.93 1.25 22.75 6.07 22.75 12C22.75 17.93 17.93 22.75 12 22.75ZM12 2.75C6.9 2.75 2.75 6.9 2.75 12C2.75 17.1 6.9 21.25 12 21.25C17.1 21.25 21.25 17.1 21.25 12C21.25 6.9 17.1 2.75 12 2.75Z" fill="#292D32"/>
<path d="M12.0014 17.472C10.6014 17.472 9.20141 16.942 8.13141 15.872C7.85141 15.592 7.6014 15.282 7.3714 14.912C7.1514 14.562 7.26139 14.1021 7.61139 13.8821C7.96139 13.6621 8.42142 13.772 8.64142 14.122C8.81142 14.402 8.99141 14.6221 9.19141 14.8221C10.7414 16.3721 13.2614 16.3721 14.8114 14.8221C15.4114 14.2221 15.7914 13.4421 15.9214 12.5721C15.9814 12.1621 16.3614 11.862 16.7714 11.932C17.1814 11.992 17.4614 12.3721 17.4114 12.7821C17.2414 13.9721 16.7114 15.0421 15.8814 15.8821C14.8014 16.9421 13.4014 17.472 12.0014 17.472Z" fill="#292D32"/>
<path d="M7.3399 12.081C7.2999 12.081 7.26991 12.0809 7.22991 12.0709C6.81991 12.0109 6.5299 11.6309 6.5899 11.2209C6.7599 10.0309 7.2899 8.96094 8.1199 8.12094C10.2499 5.99094 13.7199 5.99094 15.8599 8.12094C16.1399 8.40094 16.3899 8.71097 16.6199 9.09097C16.8399 9.44097 16.7299 9.90094 16.3799 10.1209C16.0299 10.3409 15.5699 10.2309 15.3499 9.88095C15.1799 9.61095 14.9999 9.38094 14.7999 9.18094C13.2499 7.63094 10.7299 7.63094 9.17989 9.18094C8.57989 9.78094 8.19991 10.5609 8.06991 11.4309C8.02991 11.8109 7.7099 12.081 7.3399 12.081Z" fill="#292D32"/>
<path d="M7.82031 17.9317C7.41031 17.9317 7.07031 17.5917 7.07031 17.1817V14.5117C7.07031 14.1017 7.41031 13.7617 7.82031 13.7617H10.4903C10.9003 13.7617 11.2403 14.1017 11.2403 14.5117C11.2403 14.9217 10.9003 15.2617 10.4903 15.2617H8.57031V17.1817C8.57031 17.5917 8.24031 17.9317 7.82031 17.9317Z" fill="#292D32"/>
<path d="M16.1778 10.2403H13.5078C13.0978 10.2403 12.7578 9.9003 12.7578 9.4903C12.7578 9.0803 13.0978 8.7403 13.5078 8.7403H15.4278V6.82031C15.4278 6.41031 15.7678 6.07031 16.1778 6.07031C16.5878 6.07031 16.9278 6.41031 16.9278 6.82031V9.4903C16.9278 9.9103 16.5878 10.2403 16.1778 10.2403Z" fill="#292D32"/>
</svg>
