<svg width="24" height="24" viewBox="0 0 24 24" fill="none" xmlns="http://www.w3.org/2000/svg">
<path d="M16.5 12.4716C16.09 12.4716 15.75 12.1316 15.75 11.7216V9.9516C15.75 9.4816 15.37 9.10156 14.9 9.10156H7.5C7.09 9.10156 6.75 8.76156 6.75 8.35156C6.75 7.94156 7.09 7.60156 7.5 7.60156H14.9C16.2 7.60156 17.25 8.6616 17.25 9.9516V11.7216C17.25 12.1316 16.91 12.4716 16.5 12.4716Z" fill="#292D32"/>
<path d="M9.19141 10.7799C9.00141 10.7799 8.81141 10.7098 8.66141 10.5598L6.97141 8.86984C6.68141 8.57984 6.68141 8.09985 6.97141 7.80985L8.66141 6.11984C8.95141 5.82984 9.43141 5.82984 9.72141 6.11984C10.0114 6.40984 10.0114 6.88984 9.72141 7.17984L8.5614 8.33988L9.72141 9.49985C10.0114 9.78985 10.0114 10.2698 9.72141 10.5598C9.57141 10.7098 9.38141 10.7799 9.19141 10.7799Z" fill="#292D32"/>
<path d="M16.5 16.4091H9.10001C7.80001 16.4091 6.75 15.3491 6.75 14.0591V12.2891C6.75 11.8791 7.09 11.5391 7.5 11.5391C7.91 11.5391 8.25 11.8791 8.25 12.2891V14.0591C8.25 14.5291 8.63001 14.9091 9.10001 14.9091H16.5C16.91 14.9091 17.25 15.2491 17.25 15.6591C17.25 16.0691 16.91 16.4091 16.5 16.4091Z" fill="#292D32"/>
<path d="M14.81 18.0885C14.62 18.0885 14.43 18.0184 14.28 17.8684C13.99 17.5784 13.99 17.0984 14.28 16.8084L15.44 15.6485L14.28 14.4884C13.99 14.1984 13.99 13.7184 14.28 13.4284C14.57 13.1384 15.05 13.1384 15.34 13.4284L17.03 15.1184C17.32 15.4084 17.32 15.8884 17.03 16.1784L15.34 17.8684C15.2 18.0184 15 18.0885 14.81 18.0885Z" fill="#292D32"/>
<path d="M12 22.75C6.07 22.75 1.25 17.93 1.25 12C1.25 6.07 6.07 1.25 12 1.25C17.93 1.25 22.75 6.07 22.75 12C22.75 17.93 17.93 22.75 12 22.75ZM12 2.75C6.9 2.75 2.75 6.9 2.75 12C2.75 17.1 6.9 21.25 12 21.25C17.1 21.25 21.25 17.1 21.25 12C21.25 6.9 17.1 2.75 12 2.75Z" fill="#292D32"/>
</svg>
