<svg width="24" height="24" viewBox="0 0 24 24" fill="none" xmlns="http://www.w3.org/2000/svg">
<path opacity="0.4" d="M16.19 2H7.81C4.17 2 2 4.17 2 7.81V16.18C2 19.83 4.17 22 7.81 22H16.18C19.82 22 21.99 19.83 21.99 16.19V7.81C22 4.17 19.83 2 16.19 2Z" fill="#292D32"/>
<path d="M18.53 11.4684L14.24 7.17844C13.95 6.88844 13.47 6.88844 13.18 7.17844C12.89 7.46844 12.89 7.94844 13.18 8.23844L16.19 11.2484H6C5.59 11.2484 5.25 11.5884 5.25 11.9984C5.25 12.4084 5.59 12.7484 6 12.7484H16.19L13.18 15.7584C12.89 16.0484 12.89 16.5284 13.18 16.8184C13.33 16.9684 13.52 17.0384 13.71 17.0384C13.9 17.0384 14.09 16.9684 14.24 16.8184L18.53 12.5284C18.67 12.3884 18.75 12.1984 18.75 11.9984C18.75 11.7984 18.67 11.6084 18.53 11.4684Z" fill="#292D32"/>
</svg>
