<svg width="24" height="24" viewBox="0 0 24 24" fill="none" xmlns="http://www.w3.org/2000/svg">
<path opacity="0.4" d="M16.8 9H7.2C4 9 2 11 2 14.2V16.79C2 20 4 22 7.2 22H16.79C19.99 22 21.99 20 21.99 16.8V14.2C22 11 20 9 16.8 9Z" fill="#292D32"/>
<path d="M15.8798 5.57141L12.5298 2.22141C12.2398 1.93141 11.7598 1.93141 11.4698 2.22141L8.11984 5.57141C7.82984 5.86141 7.82984 6.34141 8.11984 6.63141C8.40984 6.92141 8.88984 6.92141 9.17984 6.63141L11.2498 4.56141V15.2514C11.2498 15.6614 11.5898 16.0014 11.9998 16.0014C12.4098 16.0014 12.7498 15.6614 12.7498 15.2514V4.56141L14.8198 6.63141C14.9698 6.78141 15.1598 6.85141 15.3498 6.85141C15.5398 6.85141 15.7298 6.78141 15.8798 6.63141C16.1798 6.34141 16.1798 5.87141 15.8798 5.57141Z" fill="#292D32"/>
</svg>
