<svg width="24" height="24" viewBox="0 0 24 24" fill="none" xmlns="http://www.w3.org/2000/svg">
<path opacity="0.4" d="M7.81 2H16.18C19.83 2 22 4.17 22 7.81V16.18C22 19.82 19.83 21.99 16.19 21.99H7.81C4.17 22 2 19.83 2 16.19V7.81C2 4.17 4.17 2 7.81 2Z" fill="#292D32"/>
<path d="M17.53 9.15859L15.96 7.58859C15.67 7.29859 15.19 7.29859 14.9 7.58859C14.61 7.87859 14.61 8.35859 14.9 8.64859L15.23 8.97859H10.08C7.97 8.97859 6.25 10.6986 6.25 12.8086C6.25 14.9186 7.97 16.6386 10.08 16.6386H15C15.41 16.6386 15.75 16.2986 15.75 15.8886C15.75 15.4786 15.41 15.1386 15 15.1386H10.08C8.8 15.1386 7.75 14.0986 7.75 12.8086C7.75 11.5186 8.79 10.4786 10.08 10.4786H15.16L14.9 10.7386C14.61 11.0286 14.61 11.5086 14.9 11.7986C15.05 11.9486 15.24 12.0186 15.43 12.0186C15.62 12.0186 15.81 11.9486 15.96 11.7986L17.53 10.2286C17.82 9.92859 17.82 9.45859 17.53 9.15859Z" fill="#292D32"/>
</svg>
