<svg width="24" height="24" viewBox="0 0 24 24" fill="none" xmlns="http://www.w3.org/2000/svg">
<path opacity="0.4" d="M20.03 6.82165L14.28 2.79165C12.71 1.69165 10.31 1.75165 8.8 2.92165L3.79 6.83165C2.78 7.61165 2 9.21165 2 10.4716V17.3716C2 19.9216 4.07 22.0016 6.61 22.0016H17.38C19.92 22.0016 21.99 19.9316 21.99 17.3816V10.6016C22 9.25165 21.13 7.59165 20.03 6.82165Z" fill="#292D32"/>
<path d="M13.3994 8.51172H10.5994C8.67938 8.51172 7.10938 10.0717 7.10938 12.0017V14.7917C7.10938 16.7117 8.67938 18.2817 10.5994 18.2817H13.3894C15.3094 18.2817 16.8794 16.7217 16.8794 14.7917V12.0017C16.8794 10.0817 15.3194 8.51172 13.3994 8.51172ZM15.4894 12.0017V12.7017H12.6994V9.91172H13.3994C14.5494 9.91172 15.4894 10.8517 15.4894 12.0017ZM10.5994 9.91172H11.2994V12.7017H8.50938V12.0017C8.50938 10.8517 9.44938 9.91172 10.5994 9.91172ZM8.50938 14.7917V14.0917H11.2994V16.8817H10.5994C9.44938 16.8817 8.50938 15.9417 8.50938 14.7917ZM13.3994 16.8817H12.6994V14.0917H15.4894V14.7917C15.4894 15.9417 14.5494 16.8817 13.3994 16.8817Z" fill="#292D32"/>
</svg>
