<svg width="24" height="24" viewBox="0 0 24 24" fill="none" xmlns="http://www.w3.org/2000/svg">
<path opacity="0.4" d="M16.19 2H7.81C4.17 2 2 4.17 2 7.81V16.18C2 19.83 4.17 22 7.81 22H16.18C19.82 22 21.99 19.83 21.99 16.19V7.81C22 4.17 19.83 2 16.19 2Z" fill="#292D32"/>
<path d="M16.8295 9.41047C16.7595 9.24047 16.6195 9.10047 16.4495 9.03047C16.3695 9.00047 16.2795 8.98047 16.1895 8.98047H14.3295C13.9395 8.98047 13.6295 9.29047 13.6295 9.68047C13.6295 10.0705 13.9395 10.3805 14.3295 10.3805H14.5095L12.3995 12.4905L11.3795 10.9705C11.2595 10.8005 11.0795 10.6805 10.8695 10.6605C10.6495 10.6405 10.4595 10.7105 10.3095 10.8605L7.32945 13.8405C7.05945 14.1105 7.05945 14.5505 7.32945 14.8305C7.46945 14.9705 7.63945 15.0305 7.81945 15.0305C7.99945 15.0305 8.17945 14.9605 8.30945 14.8305L10.6895 12.4505L11.7095 13.9705C11.8295 14.1405 12.0095 14.2605 12.2195 14.2805C12.4395 14.3005 12.6295 14.2305 12.7795 14.0805L15.4995 11.3605V11.5405C15.4995 11.9305 15.8095 12.2405 16.1995 12.2405C16.5895 12.2405 16.8995 11.9305 16.8995 11.5405V9.67047C16.8795 9.58047 16.8695 9.49047 16.8295 9.41047Z" fill="#292D32"/>
</svg>
