<svg width="24" height="24" viewBox="0 0 24 24" fill="none" xmlns="http://www.w3.org/2000/svg">
<path d="M9 22H15C20 22 22 20 22 15V9C22 4 20 2 15 2H9C4 2 2 4 2 9V15C2 20 4 22 9 22Z" stroke="#292D32" stroke-width="1.5" stroke-linecap="round" stroke-linejoin="round"/>
<g opacity="0.4">
<path d="M18.3811 15.2712V7.58121C18.3811 6.81121 17.7611 6.25122 17.0011 6.31122H16.9611C15.6211 6.42122 13.5911 7.11123 12.4511 7.82123L12.3411 7.89124C12.1611 8.00124 11.8511 8.00124 11.6611 7.89124L11.5011 7.79123C10.3711 7.08123 8.3411 6.41121 7.0011 6.30121C6.2411 6.24121 5.62109 6.81123 5.62109 7.57123V15.2712C5.62109 15.8812 6.12108 16.4612 6.73108 16.5312L6.91107 16.5612C8.29107 16.7412 10.4311 17.4512 11.6511 18.1212L11.6811 18.1312C11.8511 18.2312 12.1311 18.2312 12.2911 18.1312C13.5111 17.4512 15.6611 16.7512 17.0511 16.5612L17.2611 16.5312C17.8811 16.4612 18.3811 15.8912 18.3811 15.2712Z" stroke="#292D32" stroke-width="1.5" stroke-linecap="round" stroke-linejoin="round"/>
<path d="M12 8.10156V17.6616" stroke="#292D32" stroke-width="1.5" stroke-linecap="round" stroke-linejoin="round"/>
</g>
</svg>
