<svg width="24" height="24" viewBox="0 0 24 24" fill="none" xmlns="http://www.w3.org/2000/svg">
<path d="M16 8.98889V20.3489C16 21.7989 14.96 22.4089 13.69 21.7089L9.76001 19.5189C9.34001 19.2889 8.65999 19.2889 8.23999 19.5189L4.31 21.7089C3.04 22.4089 2 21.7989 2 20.3489V8.98889C2 7.27889 3.39999 5.87891 5.10999 5.87891H12.89C14.6 5.87891 16 7.27889 16 8.98889Z" stroke="#292D32" stroke-width="1.5" stroke-linecap="round" stroke-linejoin="round"/>
<path opacity="0.4" d="M22 5.10999V16.47C22 17.92 20.96 18.53 19.69 17.83L16 15.77V8.98999C16 7.27999 14.6 5.88 12.89 5.88H8V5.10999C8 3.39999 9.39999 2 11.11 2H18.89C20.6 2 22 3.39999 22 5.10999Z" stroke="#292D32" stroke-width="1.5" stroke-linecap="round" stroke-linejoin="round"/>
<path opacity="0.4" d="M7 12H11" stroke="#292D32" stroke-width="1.5" stroke-linecap="round" stroke-linejoin="round"/>
</svg>
