<svg width="24" height="24" viewBox="0 0 24 24" fill="none" xmlns="http://www.w3.org/2000/svg">
<path d="M8.32031 15.2704L14.8603 8.73047" stroke="#292D32" stroke-width="1.5" stroke-linecap="round" stroke-linejoin="round"/>
<path d="M8.73001 10.3701C9.40932 10.3701 9.95999 9.81948 9.95999 9.14017C9.95999 8.46086 9.40932 7.91016 8.73001 7.91016C8.0507 7.91016 7.5 8.46086 7.5 9.14017C7.5 9.81948 8.0507 10.3701 8.73001 10.3701Z" stroke="#292D32" stroke-width="1.5" stroke-linecap="round" stroke-linejoin="round"/>
<path d="M15.269 16.0889C15.9484 16.0889 16.4991 15.5382 16.4991 14.8589C16.4991 14.1796 15.9484 13.6289 15.269 13.6289C14.5897 13.6289 14.0391 14.1796 14.0391 14.8589C14.0391 15.5382 14.5897 16.0889 15.269 16.0889Z" stroke="#292D32" stroke-width="1.5" stroke-linecap="round" stroke-linejoin="round"/>
<path d="M4 6C2.75 7.67 2 9.75 2 12C2 17.52 6.48 22 12 22C17.52 22 22 17.52 22 12C22 6.48 17.52 2 12 2C10.57 2 9.2 2.30001 7.97 2.85001" stroke="#292D32" stroke-width="1.5" stroke-linecap="round" stroke-linejoin="round"/>
</svg>
