<svg width="24" height="24" viewBox="0 0 24 24" fill="none" xmlns="http://www.w3.org/2000/svg">
<path d="M1.99828 7.14159C1.99828 5.92159 2.92828 4.57159 4.06828 4.14159L9.04828 2.27156C9.86828 1.96156 11.2283 1.96156 12.0483 2.27156L17.0183 4.14159C17.9683 4.50159 18.7783 5.50156 19.0283 6.52156H11.7283C11.5083 6.52156 11.3083 6.53157 11.1183 6.53157C9.26827 6.64157 8.78827 7.31159 8.78827 9.42159V14.8516C8.78827 17.1616 9.37827 17.7516 11.7283 17.7516H17.6483C17.5583 17.8316 17.4683 17.9016 17.3783 17.9816L13.1083 21.1816C11.6983 22.2316 9.39827 22.2316 7.97827 21.1816L3.69827 17.9816C2.75827 17.2816 1.98828 15.7316 1.98828 14.5616V11.2416" stroke="#292D32" stroke-width="1.5" stroke-linecap="round" stroke-linejoin="round"/>
<path d="M8.79688 11.2227H21.9969" stroke="#292D32" stroke-width="1.5" stroke-miterlimit="10" stroke-linecap="round" stroke-linejoin="round"/>
<path d="M21.9969 9.42172V14.9717C21.9769 17.1917 21.3669 17.7417 19.0569 17.7417H11.7369C9.38688 17.7417 8.79688 17.1517 8.79688 14.8417V9.41171C8.79688 7.31171 9.27688 6.6417 11.1269 6.5217C11.3169 6.5217 11.5169 6.51172 11.7369 6.51172H19.0569C21.4069 6.52172 21.9969 7.10172 21.9969 9.42172Z" stroke="#292D32" stroke-width="1.5" stroke-linecap="round" stroke-linejoin="round"/>
<path d="M11.3164 15.2617H12.6464" stroke="#292D32" stroke-width="1.5" stroke-miterlimit="10" stroke-linecap="round" stroke-linejoin="round"/>
<path d="M14.75 15.2617H18.02" stroke="#292D32" stroke-width="1.5" stroke-miterlimit="10" stroke-linecap="round" stroke-linejoin="round"/>
</svg>
