<svg width="24" height="24" viewBox="0 0 24 24" fill="none" xmlns="http://www.w3.org/2000/svg">
<path d="M14.5 16H9.5" stroke="#292D32" stroke-width="1.5" stroke-miterlimit="10" stroke-linecap="round" stroke-linejoin="round"/>
<path d="M12.8992 2.51814L12.8692 2.58814L9.96922 9.31814H7.11922C6.43922 9.31814 5.78922 9.45814 5.19922 9.70814L6.94922 5.52814L6.98922 5.42814L7.05922 5.26814C7.07922 5.20814 7.09922 5.14814 7.12922 5.09814C8.43922 2.06814 9.91922 1.37814 12.8992 2.51814Z" stroke="#292D32" stroke-width="1.5" stroke-linecap="round" stroke-linejoin="round"/>
<path d="M18.2888 9.51953C17.8388 9.37953 17.3587 9.31953 16.8787 9.31953H9.96875L12.8687 2.58953L12.8987 2.51953C13.0487 2.56953 13.1887 2.63953 13.3387 2.69953L15.5487 3.62953C16.7787 4.13953 17.6387 4.66953 18.1587 5.30953C18.2587 5.42953 18.3387 5.53953 18.4087 5.66953C18.4987 5.80953 18.5688 5.94953 18.6088 6.09953C18.6488 6.18953 18.6788 6.27953 18.6988 6.35953C18.9688 7.19953 18.8088 8.22953 18.2888 9.51953Z" stroke="#292D32" stroke-width="1.5" stroke-linecap="round" stroke-linejoin="round"/>
<path d="M12 22.0003H8.1C7.86 22.0003 7.62 21.9803 7.39 21.9503C4.21 21.7403 2.51 20.0403 2.3 16.8603C2.27 16.6303 2.25 16.3903 2.25 16.1503V14.2003C2.25 12.1903 3.47 10.4603 5.21 9.71031C5.81 9.46031 6.45 9.32031 7.13 9.32031H16.89C17.38 9.32031 17.86 9.39031 18.3 9.52031C20.3 10.1203 21.76 11.9903 21.76 14.1903V16.1403C21.76 16.3403 21.75 16.5403 21.74 16.7403C21.55 20.2403 19.6 22.0003 15.9 22.0003" stroke="#292D32" stroke-width="1.5" stroke-linecap="round" stroke-linejoin="round"/>
<path d="M6.94828 5.53125L5.19828 9.71125C3.45828 10.4612 2.23828 12.1913 2.23828 14.2013V11.2713C2.23828 8.43125 4.25828 6.06125 6.94828 5.53125Z" stroke="#292D32" stroke-width="1.5" stroke-linecap="round" stroke-linejoin="round"/>
<path d="M21.7608 11.2716V14.2016C21.7608 12.0016 20.3008 10.1316 18.3008 9.53156C18.8208 8.23156 18.9708 7.21156 18.7208 6.36156C18.7008 6.27156 18.6708 6.18156 18.6308 6.10156C20.4908 7.06156 21.7608 9.03156 21.7608 11.2716Z" stroke="#292D32" stroke-width="1.5" stroke-linecap="round" stroke-linejoin="round"/>
</svg>
