<svg width="24" height="24" viewBox="0 0 24 24" fill="none" xmlns="http://www.w3.org/2000/svg">
<path d="M13 11.1484H7" stroke="#292D32" stroke-width="1.5" stroke-linecap="round" stroke-linejoin="round"/>
<path d="M11.3086 2.85156C13.3486 2.85156 14.9986 4.12156 14.9986 6.16156" stroke="#292D32" stroke-width="1.5" stroke-linecap="round" stroke-linejoin="round"/>
<path d="M2 10.1498V6.52985C2 4.48985 3.65 2.83984 5.69 2.83984H7.62" stroke="#292D32" stroke-width="1.5" stroke-linecap="round" stroke-linejoin="round"/>
<path d="M2 10.1484C2 7.93844 3.79 6.14844 6 6.14844H16C18.2 6.14844 20 7.94844 20 10.1484V11.5984H18.92C18.36 11.5984 17.85 11.8184 17.48 12.1984C16.98 12.6784 16.74 13.4184 16.94 14.1784C17.19 15.1084 18.11 15.6984 19.07 15.6984H20V17.1484C20 19.3584 18.21 21.1484 16 21.1484H6C3.79 21.1484 2 19.3584 2 17.1484V14.5184" stroke="#292D32" stroke-width="1.5" stroke-linecap="round" stroke-linejoin="round"/>
<path d="M22.0002 12.6216V14.6816C22.0002 15.2416 21.5402 15.7016 20.9702 15.7016H19.0402C17.9602 15.7016 16.9702 14.9116 16.8802 13.8316C16.8202 13.2016 17.0602 12.6116 17.4802 12.2016C17.8502 11.8216 18.3602 11.6016 18.9202 11.6016H20.9702C21.5402 11.6016 22.0002 12.0616 22.0002 12.6216Z" stroke="#292D32" stroke-width="1.5" stroke-linecap="round" stroke-linejoin="round"/>
</svg>
