<svg width="24" height="24" viewBox="0 0 24 24" fill="none" xmlns="http://www.w3.org/2000/svg">
<path d="M8 5.75C7.59 5.75 7.25 5.41 7.25 5V2C7.25 1.59 7.59 1.25 8 1.25C8.41 1.25 8.75 1.59 8.75 2V5C8.75 5.41 8.41 5.75 8 5.75Z" fill="#292D32"/>
<path d="M16 5.75C15.59 5.75 15.25 5.41 15.25 5V2C15.25 1.59 15.59 1.25 16 1.25C16.41 1.25 16.75 1.59 16.75 2V5C16.75 5.41 16.41 5.75 16 5.75Z" fill="#292D32"/>
<path d="M8.5 14.4992C8.24 14.4992 7.98 14.3892 7.79 14.2092C7.61 14.0192 7.5 13.7692 7.5 13.4992C7.5 13.3692 7.53 13.2392 7.58 13.1192C7.63 12.9992 7.7 12.8892 7.79 12.7892C8.16 12.4192 8.83 12.4192 9.21 12.7892C9.39 12.9792 9.5 13.2392 9.5 13.4992C9.5 13.5592 9.49 13.6292 9.48 13.6992C9.47 13.7592 9.45 13.8192 9.42 13.8792C9.4 13.9392 9.37 13.9992 9.33 14.0592C9.29 14.1092 9.25 14.1592 9.21 14.2092C9.02 14.3892 8.76 14.4992 8.5 14.4992Z" fill="#292D32"/>
<path d="M12 14.4984C11.87 14.4984 11.74 14.4684 11.62 14.4184C11.49 14.3684 11.39 14.2983 11.29 14.2083C11.11 14.0183 11 13.7684 11 13.4984C11 13.3684 11.03 13.2384 11.08 13.1184C11.13 12.9984 11.2 12.8884 11.29 12.7884C11.39 12.6984 11.49 12.6283 11.62 12.5783C11.99 12.4283 12.43 12.5084 12.71 12.7884C12.89 12.9784 13 13.2384 13 13.4984C13 13.5584 12.99 13.6284 12.98 13.6984C12.97 13.7584 12.95 13.8184 12.92 13.8784C12.9 13.9384 12.87 13.9984 12.83 14.0584C12.8 14.1084 12.75 14.1583 12.71 14.2083C12.52 14.3883 12.26 14.4984 12 14.4984Z" fill="#292D32"/>
<path d="M8.5 17.9988C8.37 17.9988 8.24 17.9688 8.12 17.9188C7.99 17.8688 7.88 17.7988 7.79 17.7088C7.7 17.6188 7.63 17.5088 7.58 17.3788C7.53 17.2588 7.5 17.1288 7.5 16.9988C7.5 16.8688 7.53 16.7388 7.58 16.6188C7.63 16.4888 7.7 16.3788 7.79 16.2888C7.88 16.1988 7.99 16.1288 8.12 16.0788C8.36 15.9788 8.64 15.9688 8.88 16.0788C9.01 16.1288 9.12 16.1988 9.21 16.2888C9.3 16.3788 9.37 16.4888 9.42 16.6188C9.47 16.7388 9.5 16.8688 9.5 16.9988C9.5 17.1288 9.47 17.2588 9.42 17.3788C9.37 17.5088 9.3 17.6188 9.21 17.7088C9.12 17.7988 9.01 17.8688 8.88 17.9188C8.76 17.9688 8.63 17.9988 8.5 17.9988Z" fill="#292D32"/>
<path d="M20.5 9.83984H3.5C3.09 9.83984 2.75 9.49984 2.75 9.08984C2.75 8.67984 3.09 8.33984 3.5 8.33984H20.5C20.91 8.33984 21.25 8.67984 21.25 9.08984C21.25 9.49984 20.91 9.83984 20.5 9.83984Z" fill="#292D32"/>
<path d="M18 23.75C16.83 23.75 15.72 23.33 14.87 22.56C14.51 22.26 14.19 21.88 13.93 21.44C13.49 20.72 13.25 19.87 13.25 19C13.25 16.38 15.38 14.25 18 14.25C19.36 14.25 20.66 14.84 21.56 15.86C22.33 16.74 22.75 17.85 22.75 19C22.75 19.87 22.51 20.72 22.06 21.45C21.22 22.87 19.66 23.75 18 23.75ZM18 15.75C16.21 15.75 14.75 17.21 14.75 19C14.75 19.59 14.91 20.17 15.22 20.67C15.39 20.97 15.61 21.22 15.85 21.43C16.45 21.97 17.2 22.25 18 22.25C19.15 22.25 20.19 21.66 20.78 20.68C21.09 20.17 21.25 19.6 21.25 19C21.25 18.22 20.96 17.46 20.44 16.85C19.82 16.15 18.93 15.75 18 15.75Z" fill="#292D32"/>
<path d="M17.4289 20.7415C17.2389 20.7415 17.0489 20.6715 16.8989 20.5215L15.9089 19.5315C15.6189 19.2415 15.6189 18.7615 15.9089 18.4715C16.1989 18.1815 16.6789 18.1815 16.9689 18.4715L17.4489 18.9515L19.0489 17.4715C19.3489 17.1915 19.8289 17.2115 20.1089 17.5115C20.3889 17.8115 20.3689 18.2915 20.0689 18.5715L17.9389 20.5415C17.7889 20.6715 17.6089 20.7415 17.4289 20.7415Z" fill="#292D32"/>
<path d="M15.37 22.75H8C4.35 22.75 2.25 20.65 2.25 17V8.5C2.25 4.85 4.35 2.75 8 2.75H16C19.65 2.75 21.75 4.85 21.75 8.5V16.36C21.75 16.67 21.56 16.95 21.26 17.06C20.97 17.17 20.64 17.09 20.43 16.85C19.81 16.15 18.92 15.75 17.99 15.75C16.2 15.75 14.74 17.21 14.74 19C14.74 19.59 14.9 20.17 15.21 20.67C15.38 20.97 15.6 21.22 15.84 21.43C16.08 21.63 16.17 21.96 16.06 22.26C15.97 22.55 15.69 22.75 15.37 22.75ZM8 4.25C5.14 4.25 3.75 5.64 3.75 8.5V17C3.75 19.86 5.14 21.25 8 21.25H13.82C13.45 20.57 13.25 19.8 13.25 19C13.25 16.38 15.38 14.25 18 14.25C18.79 14.25 19.57 14.45 20.25 14.82V8.5C20.25 5.64 18.86 4.25 16 4.25H8Z" fill="#292D32"/>
</svg>
