<svg width="24" height="24" viewBox="0 0 24 24" fill="none" xmlns="http://www.w3.org/2000/svg">
<path d="M8 5.75C7.59 5.75 7.25 5.41 7.25 5V2C7.25 1.59 7.59 1.25 8 1.25C8.41 1.25 8.75 1.59 8.75 2V5C8.75 5.41 8.41 5.75 8 5.75Z" fill="#292D32"/>
<path d="M16 5.75C15.59 5.75 15.25 5.41 15.25 5V2C15.25 1.59 15.59 1.25 16 1.25C16.41 1.25 16.75 1.59 16.75 2V5C16.75 5.41 16.41 5.75 16 5.75Z" fill="#292D32"/>
<path d="M8.5 14.4992C8.24 14.4992 7.97999 14.3892 7.78999 14.2092C7.74999 14.1592 7.7 14.1092 7.67 14.0592C7.63 13.9992 7.6 13.9392 7.58 13.8792C7.55 13.8192 7.53 13.7592 7.52 13.6992C7.51 13.6292 7.5 13.5592 7.5 13.4992C7.5 13.2392 7.60999 12.9792 7.78999 12.7892C8.15999 12.4192 8.83001 12.4192 9.21001 12.7892C9.39001 12.9792 9.5 13.2392 9.5 13.4992C9.5 13.5592 9.49 13.6292 9.48 13.6992C9.47 13.7592 9.45 13.8192 9.42 13.8792C9.4 13.9392 9.37 13.9992 9.33 14.0592C9.29 14.1092 9.25001 14.1592 9.21001 14.2092C9.02001 14.3892 8.76 14.4992 8.5 14.4992Z" fill="#292D32"/>
<path d="M12 14.4989C11.87 14.4989 11.74 14.4689 11.62 14.4189C11.49 14.3689 11.38 14.2989 11.29 14.2089C11.25 14.1589 11.2 14.1089 11.17 14.0589C11.13 13.9989 11.1 13.9389 11.08 13.8789C11.05 13.8189 11.03 13.7589 11.02 13.6989C11.01 13.6289 11 13.5589 11 13.4989C11 13.2389 11.11 12.9789 11.29 12.7889C11.38 12.6989 11.49 12.6289 11.62 12.5789C11.98 12.4189 12.43 12.5089 12.71 12.7889C12.89 12.9789 13 13.2389 13 13.4989C13 13.5589 12.99 13.6289 12.98 13.6989C12.97 13.7589 12.95 13.8189 12.92 13.8789C12.9 13.9389 12.87 13.9989 12.83 14.0589C12.79 14.1089 12.75 14.1589 12.71 14.2089C12.52 14.3889 12.26 14.4989 12 14.4989Z" fill="#292D32"/>
<path d="M8.5 18C8.23 18 7.97999 17.89 7.78999 17.71C7.60999 17.52 7.5 17.26 7.5 17C7.5 16.74 7.60999 16.48 7.78999 16.29C7.83999 16.25 7.89 16.2 7.94 16.17C8 16.13 8.06 16.1 8.12 16.08C8.18 16.05 8.24 16.03 8.3 16.02C8.5 15.98 8.7 16 8.88 16.08C9.01 16.13 9.11001 16.2 9.21001 16.29C9.39001 16.48 9.5 16.74 9.5 17C9.5 17.26 9.39001 17.52 9.21001 17.71C9.11001 17.8 9.01 17.87 8.88 17.92C8.76 17.97 8.63 18 8.5 18Z" fill="#292D32"/>
<path d="M20.5 9.83984H3.5C3.09 9.83984 2.75 9.49984 2.75 9.08984C2.75 8.67984 3.09 8.33984 3.5 8.33984H20.5C20.91 8.33984 21.25 8.67984 21.25 9.08984C21.25 9.49984 20.91 9.83984 20.5 9.83984Z" fill="#292D32"/>
<path d="M18 23.75C15.38 23.75 13.25 21.62 13.25 19C13.25 16.38 15.38 14.25 18 14.25C20.62 14.25 22.75 16.38 22.75 19C22.75 21.62 20.62 23.75 18 23.75ZM18 15.75C16.21 15.75 14.75 17.21 14.75 19C14.75 20.79 16.21 22.25 18 22.25C19.79 22.25 21.25 20.79 21.25 19C21.25 17.21 19.79 15.75 18 15.75Z" fill="#292D32"/>
<path d="M19.0704 20.8614C18.8804 20.8614 18.6904 20.7914 18.5404 20.6414L16.4304 18.5314C16.1404 18.2414 16.1404 17.7614 16.4304 17.4714C16.7204 17.1814 17.2004 17.1814 17.4904 17.4714L19.6004 19.5814C19.8904 19.8714 19.8904 20.3514 19.6004 20.6414C19.4504 20.7914 19.2604 20.8614 19.0704 20.8614Z" fill="#292D32"/>
<path d="M16.9311 20.8888C16.7411 20.8888 16.5511 20.8188 16.4011 20.6688C16.1111 20.3788 16.1111 19.8987 16.4011 19.6087L18.5111 17.4988C18.8011 17.2088 19.2811 17.2088 19.5711 17.4988C19.8611 17.7887 19.8611 18.2687 19.5711 18.5587L17.4611 20.6688C17.3111 20.8088 17.1211 20.8888 16.9311 20.8888Z" fill="#292D32"/>
<path d="M15.37 22.75H8C4.35 22.75 2.25 20.65 2.25 17V8.5C2.25 4.85 4.35 2.75 8 2.75H16C19.65 2.75 21.75 4.85 21.75 8.5V16.36C21.75 16.67 21.56 16.95 21.26 17.06C20.97 17.17 20.64 17.09 20.43 16.85C19.81 16.15 18.92 15.75 17.99 15.75C16.2 15.75 14.74 17.21 14.74 19C14.74 19.59 14.9 20.17 15.21 20.67C15.38 20.97 15.6 21.22 15.84 21.43C16.08 21.63 16.17 21.96 16.06 22.26C15.97 22.55 15.69 22.75 15.37 22.75ZM8 4.25C5.14 4.25 3.75 5.64 3.75 8.5V17C3.75 19.86 5.14 21.25 8 21.25H13.82C13.45 20.57 13.25 19.8 13.25 19C13.25 16.38 15.38 14.25 18 14.25C18.79 14.25 19.57 14.45 20.25 14.82V8.5C20.25 5.64 18.86 4.25 16 4.25H8Z" fill="#292D32"/>
</svg>
