<svg width="24" height="24" viewBox="0 0 24 24" fill="none" xmlns="http://www.w3.org/2000/svg">
<g opacity="0.4">
<path d="M9.40994 15.9496L7.01992 13.5598C6.21992 12.7598 6.21992 11.9597 7.01992 11.1697L11.0099 7.17969L15.3999 11.5697C15.6199 11.7897 15.6199 12.1497 15.3999 12.3697L11.8099 15.9597C11.0099 16.7497 10.2099 16.7496 9.40994 15.9496Z" stroke="#292D32" stroke-width="1.5" stroke-miterlimit="10" stroke-linecap="round" stroke-linejoin="round"/>
<path d="M10.2109 6.37891L11.011 7.17889" stroke="#292D32" stroke-width="1.5" stroke-miterlimit="10" stroke-linecap="round" stroke-linejoin="round"/>
<path d="M6.46094 12.3275L15.4909 11.9375" stroke="#292D32" stroke-width="1.5" stroke-miterlimit="10" stroke-linecap="round" stroke-linejoin="round"/>
<path d="M16.4711 14.168C16.4711 14.168 15.3711 15.3679 15.3711 16.0979C15.3711 16.7079 15.8711 17.1979 16.4711 17.1979C17.0811 17.1979 17.5711 16.6979 17.5711 16.0979C17.5811 15.3579 16.4711 14.168 16.4711 14.168Z" stroke="#292D32" stroke-width="1.5" stroke-linecap="round" stroke-linejoin="round"/>
</g>
<path d="M12 22C17.5228 22 22 17.5228 22 12C22 6.47715 17.5228 2 12 2C6.47715 2 2 6.47715 2 12C2 17.5228 6.47715 22 12 22Z" stroke="#292D32" stroke-width="1.5" stroke-linecap="round" stroke-linejoin="round"/>
</svg>
