<svg width="24" height="24" viewBox="0 0 24 24" fill="none" xmlns="http://www.w3.org/2000/svg">
<path opacity="0.4" d="M12.93 4.78906H7.35C3.25 4.78906 2 6.03906 2 10.1391V13.8591C2 17.9591 3.25 19.2091 7.35 19.2091H12.93C17.03 19.2091 18.28 17.9591 18.28 13.8591V10.1391C18.28 6.03906 17.03 4.78906 12.93 4.78906Z" fill="#292D32"/>
<path d="M20.4192 9.00047C20.2792 8.99047 20.0992 8.98047 19.8992 8.98047C19.5092 8.98047 19.1992 9.29047 19.1992 9.68047V14.3305C19.1992 14.7205 19.5092 15.0305 19.8992 15.0305C20.0992 15.0305 20.2692 15.0205 20.4392 15.0105C21.9992 14.8305 21.9992 13.7305 21.9992 12.9305V11.0705C21.9992 10.2705 21.9992 9.17047 20.4192 9.00047Z" fill="#292D32"/>
<path d="M10.0097 16.2403C9.83969 16.2403 9.65969 16.1803 9.51969 16.0603C9.20969 15.7903 9.16969 15.3203 9.43969 15.0003L11.2397 12.8903C11.2497 12.8603 11.2397 12.8303 11.2197 12.8003C11.1997 12.7603 11.1597 12.7403 11.1097 12.7403H9.11969C8.52969 12.7403 8.00969 12.4403 7.70969 11.9303C7.41969 11.4203 7.41969 10.8203 7.70969 10.3103L9.41969 8.05027C9.66969 7.72027 10.1397 7.65027 10.4697 7.90027C10.7997 8.15027 10.8697 8.62027 10.6197 8.95027L8.96969 11.1403C8.99969 11.1003 8.99969 11.1403 9.01969 11.1903C9.03969 11.2303 9.07969 11.2503 9.12969 11.2503H11.1397C11.7297 11.2503 12.2497 11.5503 12.5497 12.0603C12.8397 12.5703 12.8397 13.1703 12.5497 13.6803C12.5297 13.7203 12.4997 13.7603 12.4697 13.7903L10.5997 15.9803C10.4397 16.1603 10.2297 16.2403 10.0097 16.2403Z" fill="#292D32"/>
</svg>
