<svg width="24" height="24" viewBox="0 0 24 24" fill="none" xmlns="http://www.w3.org/2000/svg">
<path opacity="0.4" d="M20.7807 14.181V17.121C20.7807 18.221 19.8807 19.121 18.7807 19.121H5.2207C4.1207 19.121 3.2207 18.221 3.2207 17.121V14.181C3.2207 9.36096 7.1207 5.46096 11.9407 5.46096H12.0607C16.8807 5.45096 20.7807 9.36096 20.7807 14.181Z" fill="#292D32"/>
<path d="M12.75 2.53125V5.49125C12.52 5.47125 12.29 5.46125 12.06 5.46125H11.94C11.71 5.46125 11.48 5.47125 11.25 5.49125V2.53125C11.25 2.12125 11.59 1.78125 12 1.78125C12.41 1.78125 12.75 2.12125 12.75 2.53125Z" fill="#292D32"/>
<path d="M15.3197 19.1094C15.1997 20.8494 13.7597 22.2194 11.9997 22.2194C10.2397 22.2194 8.78969 20.8494 8.67969 19.1094H15.3197Z" fill="#292D32"/>
</svg>
