<svg width="24" height="24" viewBox="0 0 24 24" fill="none" xmlns="http://www.w3.org/2000/svg">
<path opacity="0.4" d="M19.53 5.53L5.53 19.53C5.51 19.55 5.5 19.56 5.48 19.57C5.1 19.25 4.75 18.9 4.43 18.52C2.91 16.77 2 14.49 2 12C2 6.48 6.48 2 12 2C14.49 2 16.77 2.91 18.52 4.43C18.9 4.75 19.25 5.1 19.57 5.48C19.56 5.5 19.55 5.51 19.53 5.53Z" fill="#292D32"/>
<path opacity="0.4" d="M21.9996 12.0016C21.9996 17.5216 17.5196 22.0016 11.9996 22.0016C10.0096 22.0016 8.15961 21.4216 6.59961 20.4016L20.3996 6.60156C21.4196 8.16156 21.9996 10.0116 21.9996 12.0016Z" fill="#292D32"/>
<path d="M21.7709 2.22891C21.4709 1.92891 20.9809 1.92891 20.6809 2.22891L2.23086 20.6889C1.93086 20.9889 1.93086 21.4789 2.23086 21.7789C2.38086 21.9189 2.57086 21.9989 2.77086 21.9989C2.97086 21.9989 3.16086 21.9189 3.31086 21.7689L21.7709 3.30891C22.0809 3.00891 22.0809 2.52891 21.7709 2.22891Z" fill="#292D32"/>
</svg>
