<svg width="24" height="24" viewBox="0 0 24 24" fill="none" xmlns="http://www.w3.org/2000/svg">
<path opacity="0.4" d="M13.9401 4.82812H6.83008C5.73008 4.82812 4.83008 5.72812 4.83008 6.82812V13.9381C4.83008 16.8281 7.17008 19.1681 10.0601 19.1681H17.1701C18.2701 19.1681 19.1701 18.2681 19.1701 17.1681V10.0581C19.1701 7.16813 16.8301 4.82812 13.9401 4.82812Z" fill="#292D32"/>
<path d="M5.53 2C5.11 2 4.78 2.34 4.78 2.75V4.78H2.75C2.34 4.78 2 5.11 2 5.53C2 5.95 2.34 6.28 2.75 6.28H5.53C5.94 6.28 6.28 5.94 6.28 5.53V2.75C6.28 2.34 5.94 2 5.53 2Z" fill="#292D32"/>
<path d="M21.2507 17.7188H18.4707C18.0607 17.7188 17.7207 18.0588 17.7207 18.4688V21.2488C17.7207 21.6588 18.0607 21.9988 18.4707 21.9988C18.8807 21.9988 19.2207 21.6588 19.2207 21.2488V19.2188H21.2507C21.6607 19.2188 22.0007 18.8787 22.0007 18.4688C22.0007 18.0588 21.6607 17.7188 21.2507 17.7188Z" fill="#292D32"/>
</svg>
