<svg width="24" height="24" viewBox="0 0 24 24" fill="none" xmlns="http://www.w3.org/2000/svg">
<path d="M8.38971 2.17188V8.62189H1.92969V7.94189C1.92969 4.33189 4.0797 2.18188 7.6897 2.18188H8.38971V2.17188Z" fill="#292D32"/>
<path d="M21.7698 7.93018C21.7698 8.31018 21.4598 8.61017 21.0898 8.61017H15.3398V2.16016H16.0099C19.1899 2.17016 21.7698 4.75018 21.7698 7.93018Z" fill="#292D32"/>
<path d="M8.38947 15.5508V21.3108C8.38947 21.6908 8.07944 21.9908 7.70944 21.9908H7.69946C4.51946 21.9908 1.93945 19.4108 1.93945 16.2308V15.5508H8.38947Z" fill="#292D32"/>
<path opacity="0.4" d="M8.39944 8.60938H1.93945V15.5494H8.39944V8.60938Z" fill="#292D32"/>
<path d="M15.3306 8.60938V14.8694C15.3306 15.2494 15.0206 15.5494 14.6506 15.5494H8.39062V8.60938H15.3306V8.60938Z" fill="#292D32"/>
<path opacity="0.4" d="M15.3306 2.17188H8.39062V8.62189H15.3306V2.17188Z" fill="#292D32"/>
<path opacity="0.4" d="M19.7998 20.7009L17.8998 22.6109C17.3798 23.1309 16.5198 23.1309 15.9798 22.6109L14.3998 21.0209C13.8798 20.4909 13.8798 19.6409 14.3998 19.1009L16.3098 17.2109L19.7998 20.7009Z" fill="#292D32"/>
<path d="M22.6105 17.9L19.8005 20.7L16.3105 17.21L19.1105 14.39C19.6405 13.87 20.5005 13.87 21.0305 14.39L22.6105 15.98C23.1305 16.51 23.1305 17.38 22.6105 17.9Z" fill="#292D32"/>
</svg>
