<svg width="24" height="24" viewBox="0 0 24 24" fill="none" xmlns="http://www.w3.org/2000/svg">
<path opacity="0.4" d="M16.1917 2H7.82173C4.18173 2 2.01172 4.17 2.01172 7.81V16.18C2.01172 19.82 4.18173 21.99 7.82173 21.99H16.1917C19.8317 21.99 22.0017 19.82 22.0017 16.18V7.81C22.0017 4.17 19.8317 2 16.1917 2Z" fill="#292D32"/>
<path d="M8.18155 16.7698C8.16155 16.7698 8.13156 16.7698 8.11156 16.7698C7.14156 16.6798 6.23156 16.2299 5.55156 15.5099C3.95156 13.8299 3.95156 11.0999 5.55156 9.41986L7.74156 7.11984C8.52156 6.29984 9.57156 5.83984 10.6916 5.83984C11.8116 5.83984 12.8616 6.28984 13.6416 7.11984C15.2416 8.79984 15.2416 11.5298 13.6416 13.2098L12.5516 14.3598C12.2616 14.6598 11.7916 14.6699 11.4916 14.3899C11.1916 14.0999 11.1816 13.6298 11.4616 13.3298L12.5516 12.1798C13.6116 11.0698 13.6116 9.25985 12.5516 8.15985C11.5616 7.11985 9.82157 7.11985 8.82157 8.15985L6.63156 10.4598C5.57156 11.5698 5.57156 13.3799 6.63156 14.4799C7.06156 14.9399 7.64156 15.2198 8.25156 15.2798C8.66156 15.3198 8.96156 15.6899 8.92156 16.0999C8.89156 16.4799 8.56155 16.7698 8.18155 16.7698Z" fill="#292D32"/>
<path d="M13.3102 18.1579C12.1902 18.1579 11.1402 17.7079 10.3602 16.8779C8.76016 15.1979 8.76016 12.468 10.3602 10.788L11.4502 9.63796C11.7402 9.33796 12.2102 9.32793 12.5102 9.60793C12.8102 9.89793 12.8201 10.368 12.5401 10.668L11.4502 11.818C10.3902 12.928 10.3902 14.7379 11.4502 15.8379C12.4402 16.8779 14.1801 16.8879 15.1801 15.8379L17.3702 13.538C18.4302 12.428 18.4302 10.6179 17.3702 9.51793C16.9402 9.05793 16.3602 8.77795 15.7502 8.71795C15.3402 8.67795 15.0402 8.30794 15.0802 7.89794C15.1202 7.48794 15.4801 7.17796 15.9001 7.22796C16.8701 7.32796 17.7802 7.76793 18.4602 8.48793C20.0602 10.1679 20.0602 12.8979 18.4602 14.5779L16.2702 16.8779C15.4802 17.7079 14.4302 18.1579 13.3102 18.1579Z" fill="#292D32"/>
</svg>
