<svg width="24" height="24" viewBox="0 0 24 24" fill="none" xmlns="http://www.w3.org/2000/svg">
<path opacity="0.4" d="M18.9386 8.05859L15.1086 11.8886C15.1186 11.9286 15.1186 11.9586 15.1186 11.9986C15.1186 13.7186 13.7186 15.1186 11.9986 15.1186C11.9586 15.1186 11.9286 15.1186 11.8886 15.1086L8.05859 18.9386C9.21859 19.6186 10.5686 19.9986 11.9986 19.9986C16.4086 19.9986 19.9986 16.4086 19.9986 11.9986C19.9986 10.5686 19.6186 9.21859 18.9386 8.05859Z" fill="#292D32"/>
<path opacity="0.4" d="M17.65 6.35L14.2 9.8C13.64 9.23 12.86 8.88 12 8.88C10.28 8.88 8.88 10.28 8.88 12C8.88 12.86 9.23 13.64 9.8 14.2L6.35 17.65C4.9 16.2 4 14.2 4 12C4 7.59 7.59 4 12 4C14.2 4 16.2 4.9 17.65 6.35Z" fill="#292D32"/>
<path d="M14.1989 9.79891L9.79891 14.1989C9.22891 13.6389 8.87891 12.8589 8.87891 11.9989C8.87891 10.2789 10.2789 8.87891 11.9989 8.87891C12.8589 8.87891 13.6389 9.22891 14.1989 9.79891Z" fill="#292D32"/>
<path d="M12.75 2V4.04H12.74C12.5 4.01 12.25 4 12 4C11.75 4 11.5 4.01 11.26 4.04H11.25V2C11.25 1.59 11.59 1.25 12 1.25C12.41 1.25 12.75 1.59 12.75 2Z" fill="#292D32"/>
<path d="M4 12C4 12.25 4.01 12.51 4.04 12.75H2C1.59 12.75 1.25 12.41 1.25 12C1.25 11.59 1.59 11.25 2 11.25H4.04C4.01 11.49 4 11.75 4 12Z" fill="#292D32"/>
<path d="M12.75 19.9609V22.0009C12.75 22.4109 12.41 22.7509 12 22.7509C11.59 22.7509 11.25 22.4109 11.25 22.0009V19.9609H11.26C11.5 19.9909 11.75 20.0009 12 20.0009C12.25 20.0009 12.5 19.9909 12.74 19.9609H12.75Z" fill="#292D32"/>
<path d="M22.7509 12C22.7509 12.41 22.4109 12.75 22.0009 12.75H19.9609C19.9909 12.51 20.0009 12.25 20.0009 12C20.0009 11.75 19.9909 11.49 19.9609 11.25H22.0009C22.4109 11.25 22.7509 11.59 22.7509 12Z" fill="#292D32"/>
<path d="M21.7689 2.22891C21.4689 1.92891 20.9789 1.92891 20.6789 2.22891L2.22891 20.6889C1.92891 20.9889 1.92891 21.4789 2.22891 21.7789C2.37891 21.9189 2.56891 21.9989 2.76891 21.9989C2.96891 21.9989 3.15891 21.9189 3.30891 21.7689L21.7689 3.30891C22.0789 3.00891 22.0789 2.52891 21.7689 2.22891Z" fill="#292D32"/>
</svg>
