<svg width="24" height="24" viewBox="0 0 24 24" fill="none" xmlns="http://www.w3.org/2000/svg">
<path d="M14.5314 12.4197L13.0814 10.9697L14.4814 9.56969C14.7714 9.27969 14.7714 8.79969 14.4814 8.50969C14.1914 8.21969 13.7114 8.21969 13.4214 8.50969L12.0214 9.90969L10.5714 8.45969C10.2814 8.16969 9.80141 8.16969 9.51141 8.45969C9.22141 8.74969 9.22141 9.22969 9.51141 9.51969L10.9614 10.9697L9.47141 12.4597C9.18141 12.7497 9.18141 13.2297 9.47141 13.5197C9.62141 13.6697 9.81141 13.7397 10.0014 13.7397C10.1914 13.7397 10.3814 13.6697 10.5314 13.5197L12.0214 12.0297L13.4714 13.4797C13.6214 13.6297 13.8114 13.6997 14.0014 13.6997C14.1914 13.6997 14.3814 13.6297 14.5314 13.4797C14.8214 13.1897 14.8214 12.7197 14.5314 12.4197Z" fill="#292D32"/>
<path opacity="0.4" d="M20.6188 8.7C19.5788 4.07 15.5388 2 11.9988 2C11.9988 2 11.9988 2 11.9888 2C8.45877 2 4.42877 4.07 3.37877 8.69C2.19877 13.85 5.35877 18.22 8.21877 20.98C9.27877 22 10.6388 22.51 11.9988 22.51C13.3588 22.51 14.7188 22 15.7688 20.98C18.6288 18.22 21.7888 13.86 20.6188 8.7Z" fill="#292D32"/>
</svg>
