<svg width="24" height="24" viewBox="0 0 24 24" fill="none" xmlns="http://www.w3.org/2000/svg">
<path d="M14.4595 19.8311C14.2295 19.8311 13.9995 19.7811 13.7895 19.6711C13.7395 19.6411 13.6895 19.6111 13.6495 19.5711L11.9795 18.1511L10.3395 19.5711C10.2895 19.6111 10.2395 19.6411 10.1895 19.6711C9.79953 19.8611 9.35953 19.8811 8.96953 19.7111C8.56953 19.5411 8.26953 19.2111 8.12953 18.8011L7.80953 17.8411C7.63953 17.3411 7.78953 16.7111 8.15953 16.3311L9.82953 14.6911L9.81953 13.2411L6.80953 14.5311C6.30953 14.7411 5.78953 14.7211 5.38953 14.4511C4.99953 14.2011 4.76953 13.7311 4.76953 13.1911V12.2611C4.76953 11.4811 5.30953 10.6511 6.02953 10.3411L9.81953 8.71109V6.80109C9.81953 5.82109 10.4695 4.76109 11.3395 4.34109C11.7695 4.13109 12.2595 4.13109 12.6895 4.34109C13.5595 4.79109 14.2095 5.85109 14.2095 6.80109V8.71109L17.9995 10.3411C18.7195 10.6411 19.2595 11.4711 19.2595 12.2611V13.1911C19.2595 13.7311 19.0295 14.2011 18.6195 14.4611C18.2095 14.7211 17.6995 14.7511 17.1995 14.5411L14.1995 13.2511V14.7211L15.8295 16.3511C16.1995 16.7211 16.3495 17.3611 16.1795 17.8611L15.8595 18.8111C15.7195 19.2211 15.4195 19.5511 15.0195 19.7111C14.8395 19.7911 14.6495 19.8311 14.4595 19.8311ZM11.9995 16.6711C12.3395 16.6711 12.6695 16.7811 12.9395 16.9911L14.4895 18.3111L14.7595 17.3811L13.1295 15.7611C12.8695 15.5111 12.6995 15.0911 12.6995 14.7211V12.8711C12.6995 12.4211 12.8895 12.0311 13.2295 11.8011C13.5695 11.5711 14.0095 11.5411 14.4295 11.7211L17.7495 13.1411L17.7595 12.2611C17.7595 12.0711 17.5795 11.7911 17.4095 11.7211L13.4595 10.0211C13.0295 9.84109 12.7095 9.36109 12.7095 8.87109V6.80109C12.7095 6.41109 12.3695 5.86109 12.0195 5.68109C11.6595 5.86109 11.3195 6.40109 11.3195 6.80109V8.87109C11.3195 9.34109 11.0095 9.83109 10.5695 10.0211L6.62953 11.7211C6.45953 11.7911 6.26953 12.0811 6.26953 12.2611V13.1411L9.57953 11.7311C9.98953 11.5511 10.4195 11.5711 10.7695 11.8011C11.1195 12.0311 11.3195 12.4211 11.3195 12.8811V14.7311C11.3195 15.0911 11.1495 15.5111 10.8895 15.7711L9.20953 17.4211L9.52953 18.3011L11.0395 17.0211C11.3195 16.7911 11.6595 16.6711 11.9995 16.6711ZM14.0495 8.64109L14.0595 8.65109C14.0595 8.64109 14.0495 8.64109 14.0495 8.64109Z" fill="#292D32"/>
<path d="M15 22.75H9C3.57 22.75 1.25 20.43 1.25 15V9C1.25 3.57 3.57 1.25 9 1.25H15C20.43 1.25 22.75 3.57 22.75 9V15C22.75 20.43 20.43 22.75 15 22.75ZM9 2.75C4.39 2.75 2.75 4.39 2.75 9V15C2.75 19.61 4.39 21.25 9 21.25H15C19.61 21.25 21.25 19.61 21.25 15V9C21.25 4.39 19.61 2.75 15 2.75H9Z" fill="#292D32"/>
</svg>
