<svg width="24" height="24" viewBox="0 0 24 24" fill="none" xmlns="http://www.w3.org/2000/svg">
<path d="M6 6.25V8.25" stroke="#292D32" stroke-width="1.5" stroke-linecap="round" stroke-linejoin="round"/>
<path d="M22 12V9C22 4 20 2 15 2H9C4 2 2 4 2 9V15C2 20 4 22 9 22H12" stroke="#292D32" stroke-width="1.5" stroke-linecap="round" stroke-linejoin="round"/>
<path d="M10 6.25V8.25" stroke="#292D32" stroke-width="1.5" stroke-linecap="round" stroke-linejoin="round"/>
<path d="M6 16V18" stroke="#292D32" stroke-width="1.5" stroke-linecap="round" stroke-linejoin="round"/>
<path d="M10 16V18" stroke="#292D32" stroke-width="1.5" stroke-linecap="round" stroke-linejoin="round"/>
<path d="M14 7.25H18" stroke="#292D32" stroke-width="1.5" stroke-linecap="round" stroke-linejoin="round"/>
<path d="M2 12H18" stroke="#292D32" stroke-width="1.5" stroke-linecap="round" stroke-linejoin="round"/>
<path d="M21.5594 20.33C20.9994 21.3 19.9494 21.95 18.7494 21.95C16.9594 21.95 15.8594 20.15 15.8594 20.15M15.9294 17.09C16.4894 16.11 17.5394 15.46 18.7494 15.46C20.9194 15.46 21.9994 17.26 21.9994 17.26M21.9994 15.25V17.25H19.9994M17.8594 20.14H15.8594V22" stroke="#292D32" stroke-width="1.5" stroke-linecap="round" stroke-linejoin="round"/>
</svg>
