<svg width="24" height="24" viewBox="0 0 24 24" fill="none" xmlns="http://www.w3.org/2000/svg">
<path d="M16.42 7.95109C18.86 10.3911 18.86 14.3511 16.42 16.7911C13.98 19.2311 10.02 19.2311 7.58 16.7911C5.14 14.3511 5.14 10.3911 7.58 7.95109C10.02 5.51109 13.98 5.51109 16.42 7.95109Z" fill="#292D32"/>
<path d="M8.24905 22.3889C8.15905 22.3889 8.05905 22.3689 7.96905 22.3389C5.71905 21.4389 3.89905 19.8489 2.67905 17.7489C1.49905 15.6989 1.02905 13.3789 1.33905 11.0189C1.38905 10.6089 1.77905 10.3189 2.17905 10.3689C2.58905 10.4189 2.87905 10.7989 2.82905 11.2089C2.56905 13.2389 2.96905 15.2389 3.97905 16.9989C5.01905 18.7989 6.58906 20.1689 8.51905 20.9389C8.89906 21.0989 9.08905 21.5289 8.93905 21.9189C8.82905 22.2089 8.53905 22.3889 8.24905 22.3889Z" fill="#292D32"/>
<path d="M5.84962 5.22937C5.62962 5.22937 5.40962 5.12937 5.25962 4.93937C4.99962 4.61937 5.05962 4.14938 5.38962 3.88938C7.28962 2.39938 9.57962 1.60938 11.9996 1.60938C14.3596 1.60938 16.6096 2.36937 18.4996 3.80937C18.8296 4.05937 18.8896 4.52938 18.6396 4.85938C18.3896 5.18937 17.9196 5.24937 17.5896 4.99937C15.9596 3.75937 14.0296 3.10937 11.9996 3.10937C9.91962 3.10937 7.94962 3.78938 6.30962 5.06938C6.16962 5.17937 6.00962 5.22937 5.84962 5.22937Z" fill="#292D32"/>
<path d="M15.7507 22.3906C15.4507 22.3906 15.1707 22.2106 15.0507 21.9206C14.9007 21.5406 15.0807 21.1006 15.4707 20.9406C17.4007 20.1606 18.9707 18.8006 20.0107 17.0006C21.0307 15.2406 21.4307 13.2406 21.1607 11.2206C21.1107 10.8106 21.4007 10.4306 21.8107 10.3806C22.2107 10.3306 22.6007 10.6206 22.6507 11.0306C22.9507 13.3806 22.4907 15.7106 21.3107 17.7606C20.1007 19.8606 18.2707 21.4406 16.0207 22.3506C15.9407 22.3706 15.8507 22.3906 15.7507 22.3906Z" fill="#292D32"/>
</svg>
