<svg width="24" height="24" viewBox="0 0 24 24" fill="none" xmlns="http://www.w3.org/2000/svg">
<path d="M10.9102 20H17.3802C21.0802 20 22.0002 19.08 22.0002 15.38C20.7202 15.38 19.6902 14.34 19.6902 13.07C19.6902 11.79 20.7202 10.75 22.0002 10.75V9.82996C22.0002 6.12996 21.0802 5.20996 17.3802 5.20996H11.0002V12" stroke="#292D32" stroke-width="1.5" stroke-linecap="round" stroke-linejoin="round"/>
<path d="M11.0014 16.9999V19.9999H8.23138C6.75138 19.9999 5.88138 18.9899 4.92138 16.6699L4.74138 16.2199C5.95138 15.7399 6.54138 14.3399 6.03138 13.1299C5.54138 11.9199 4.15138 11.3399 2.93138 11.8399L2.76138 11.4099C1.32138 7.88988 1.82138 6.65988 5.34138 5.20988L7.98138 4.12988L11.0014 11.4499V13.9999" stroke="#292D32" stroke-width="1.5" stroke-linecap="round" stroke-linejoin="round"/>
<path d="M8.17 20H8" stroke="#292D32" stroke-width="1.5" stroke-linecap="round" stroke-linejoin="round"/>
</svg>
