<svg width="24" height="24" viewBox="0 0 24 24" fill="none" xmlns="http://www.w3.org/2000/svg">
<path d="M19.0311 14.9698C19.0311 16.2598 20.0911 17.3098 21.3811 17.3098C21.3811 21.0598 20.4411 21.9998 16.6911 21.9998H7.31109C3.56109 21.9998 2.62109 21.0598 2.62109 17.3098V16.8498C3.91109 16.8498 4.97109 15.7898 4.97109 14.4998C4.97109 13.2098 3.91109 12.1498 2.62109 12.1498V11.6898C2.63109 7.93976 3.56109 6.99976 7.31109 6.99976H16.6811C20.4311 6.99976 21.3711 7.93976 21.3711 11.6898V12.6298C20.0811 12.6298 19.0311 13.6698 19.0311 14.9698Z" stroke="#292D32" stroke-width="1.5" stroke-linecap="round" stroke-linejoin="round"/>
<path d="M16.3322 6.99984H7.24219L10.1722 4.06984C12.5622 1.67984 13.7622 1.67984 16.1522 4.06984L16.7522 4.66984C16.1222 5.29984 15.9722 6.22984 16.3322 6.99984Z" stroke="#292D32" stroke-width="1.5" stroke-linecap="round" stroke-linejoin="round"/>
<path d="M10 7L10 22" stroke="#292D32" stroke-width="1.5" stroke-linecap="round" stroke-linejoin="round" stroke-dasharray="5 5"/>
</svg>
