<svg width="24" height="24" viewBox="0 0 24 24" fill="none" xmlns="http://www.w3.org/2000/svg">
<path d="M17.0017 4H7.00172C3.17172 4 2.10172 4.92 2.01172 8.5C3.94172 8.5 5.50172 10.07 5.50172 12C5.50172 13.93 3.94172 15.49 2.01172 15.5C2.10172 19.08 3.17172 20 7.00172 20H17.0017C21.0017 20 22.0017 19 22.0017 15V9C22.0017 5 21.0017 4 17.0017 4Z" stroke="#292D32" stroke-width="1.5" stroke-linecap="round" stroke-linejoin="round"/>
<path d="M9 4V7.5" stroke="#292D32" stroke-width="1.5" stroke-linecap="round" stroke-linejoin="round"/>
<path d="M9 16.5V20" stroke="#292D32" stroke-width="1.5" stroke-linecap="round" stroke-linejoin="round"/>
<path d="M15.0316 9.32991L15.6516 10.5799C15.7116 10.6999 15.8316 10.7899 15.9616 10.8099L17.3416 11.0099C17.6816 11.0599 17.8216 11.4799 17.5716 11.7199L16.5716 12.6899C16.4716 12.7799 16.4316 12.9199 16.4516 13.0599L16.6916 14.4299C16.7516 14.7699 16.3916 15.0299 16.0916 14.8699L14.8616 14.2199C14.7416 14.1599 14.5916 14.1599 14.4716 14.2199L13.2416 14.8699C12.9316 15.0299 12.5816 14.7699 12.6416 14.4299L12.8816 13.0599C12.9016 12.9199 12.8616 12.7899 12.7616 12.6899L11.7716 11.7199C11.5216 11.4799 11.6616 11.0599 12.0016 11.0099L13.3816 10.8099C13.5216 10.7899 13.6316 10.7099 13.6916 10.5799L14.3016 9.32991C14.4416 9.01991 14.8816 9.01991 15.0316 9.32991Z" stroke="#292D32" stroke-width="1.5" stroke-linecap="round" stroke-linejoin="round"/>
</svg>
