<svg width="24" height="24" viewBox="0 0 24 24" fill="none" xmlns="http://www.w3.org/2000/svg">
<path d="M12.0016 15.6294C10.6816 15.6294 9.60156 14.5494 9.60156 13.2294V10.7594C9.60156 9.4394 10.6816 8.35938 12.0016 8.35938C13.3216 8.35938 14.4016 9.4394 14.4016 10.7594V13.2294C14.4016 14.5594 13.3216 15.6294 12.0016 15.6294ZM12.0016 9.86938C11.5116 9.86938 11.1016 10.2694 11.1016 10.7694V13.2394C11.1016 13.7394 11.5016 14.1394 12.0016 14.1394C12.5016 14.1394 12.9016 13.7394 12.9016 13.2394V10.7694C12.9016 10.2694 12.4916 9.86938 12.0016 9.86938Z" fill="#292D32"/>
<path d="M12 18.8197C8.83 18.8197 6.25 16.2397 6.25 13.0697V10.9297C6.25 7.75969 8.83 5.17969 12 5.17969C14.96 5.17969 17.42 7.39972 17.72 10.3397C17.76 10.7497 17.46 11.1197 17.05 11.1597C16.64 11.2097 16.27 10.8997 16.23 10.4897C16.01 8.31968 14.19 6.67969 12 6.67969C9.66 6.67969 7.75 8.58969 7.75 10.9297V13.0697C7.75 15.4097 9.66 17.3197 12 17.3197C14.2 17.3197 16.06 15.5997 16.24 13.4097C16.27 12.9997 16.63 12.6897 17.05 12.7197C17.46 12.7497 17.77 13.1097 17.74 13.5297C17.5 16.4997 14.98 18.8197 12 18.8197Z" fill="#292D32"/>
<path d="M22 9.75C21.59 9.75 21.25 9.41 21.25 9V7C21.25 4.42 19.58 2.75 17 2.75H15C14.59 2.75 14.25 2.41 14.25 2C14.25 1.59 14.59 1.25 15 1.25H17C20.44 1.25 22.75 3.56 22.75 7V9C22.75 9.41 22.41 9.75 22 9.75Z" fill="#292D32"/>
<path d="M2 9.75C1.59 9.75 1.25 9.41 1.25 9V7C1.25 3.56 3.56 1.25 7 1.25H9C9.41 1.25 9.75 1.59 9.75 2C9.75 2.41 9.41 2.75 9 2.75H7C4.42 2.75 2.75 4.42 2.75 7V9C2.75 9.41 2.41 9.75 2 9.75Z" fill="#292D32"/>
<path d="M17 22.75H15C14.59 22.75 14.25 22.41 14.25 22C14.25 21.59 14.59 21.25 15 21.25H17C19.58 21.25 21.25 19.58 21.25 17V15C21.25 14.59 21.59 14.25 22 14.25C22.41 14.25 22.75 14.59 22.75 15V17C22.75 20.44 20.44 22.75 17 22.75Z" fill="#292D32"/>
<path d="M9 22.75H7C3.56 22.75 1.25 20.44 1.25 17V15C1.25 14.59 1.59 14.25 2 14.25C2.41 14.25 2.75 14.59 2.75 15V17C2.75 19.58 4.42 21.25 7 21.25H9C9.41 21.25 9.75 21.59 9.75 22C9.75 22.41 9.41 22.75 9 22.75Z" fill="#292D32"/>
</svg>
