<svg width="24" height="24" viewBox="0 0 24 24" fill="none" xmlns="http://www.w3.org/2000/svg">
<path d="M11.9984 22.7614C10.9084 22.7614 9.82844 22.4414 8.97844 21.8114L4.67844 18.6014C3.53844 17.7514 2.64844 15.9714 2.64844 14.5614V7.12141C2.64844 5.58141 3.77844 3.94141 5.22844 3.40141L10.2184 1.53141C11.2084 1.16141 12.7684 1.16141 13.7584 1.53141L18.7484 3.40141C20.1984 3.94141 21.3284 5.58141 21.3284 7.12141V14.5514C21.3284 15.9714 20.4384 17.7414 19.2984 18.5914L14.9984 21.8014C14.1684 22.4414 13.0884 22.7614 11.9984 22.7614ZM10.7484 2.94141L5.75844 4.81141C4.90844 5.13141 4.15844 6.21141 4.15844 7.13141V14.5614C4.15844 15.5114 4.82844 16.8414 5.57844 17.4014L9.87844 20.6114C11.0284 21.4714 12.9684 21.4714 14.1284 20.6114L18.4284 17.4014C19.1884 16.8314 19.8484 15.5114 19.8484 14.5614V7.12141C19.8484 6.21141 19.0984 5.13141 18.2484 4.80141L13.2584 2.93141C12.5784 2.69141 11.4184 2.69141 10.7484 2.94141Z" fill="#292D32"/>
<path d="M14.1498 14.1889C13.9598 14.1889 13.7698 14.1189 13.6198 13.9689L9.36984 9.71891C9.07984 9.42891 9.07984 8.94891 9.36984 8.65891C9.65984 8.36891 10.1398 8.36891 10.4298 8.65891L14.6798 12.9089C14.9698 13.1989 14.9698 13.6789 14.6798 13.9689C14.5298 14.1089 14.3398 14.1889 14.1498 14.1889Z" fill="#292D32"/>
<path d="M9.84906 14.2319C9.65906 14.2319 9.46906 14.1619 9.31906 14.0119C9.02906 13.7219 9.02906 13.2419 9.31906 12.9519L13.5691 8.70188C13.8591 8.41188 14.3391 8.41188 14.6291 8.70188C14.9191 8.99187 14.9191 9.47188 14.6291 9.76188L10.3791 14.0119C10.2391 14.1619 10.0391 14.2319 9.84906 14.2319Z" fill="#292D32"/>
</svg>
