<svg width="24" height="24" viewBox="0 0 24 24" fill="none" xmlns="http://www.w3.org/2000/svg">
<path d="M17 2C20 2 22 4 22 7V9" stroke="#292D32" stroke-width="1.5" stroke-miterlimit="10" stroke-linecap="round" stroke-linejoin="round"/>
<path d="M2 9V7C2 4 4 2 7 2H12.77" stroke="#292D32" stroke-width="1.5" stroke-miterlimit="10" stroke-linecap="round" stroke-linejoin="round"/>
<path d="M21.9987 15V17C21.9987 20 19.9987 22 16.9987 22H11.4688" stroke="#292D32" stroke-width="1.5" stroke-miterlimit="10" stroke-linecap="round" stroke-linejoin="round"/>
<path d="M2 15V17C2 20 4 22 7 22" stroke="#292D32" stroke-width="1.5" stroke-miterlimit="10" stroke-linecap="round" stroke-linejoin="round"/>
<path d="M6.69922 9.26172L11.9992 12.3317L17.2592 9.28174" stroke="#292D32" stroke-width="1.5" stroke-linecap="round" stroke-linejoin="round"/>
<path d="M12 17.7703V12.3203" stroke="#292D32" stroke-width="1.5" stroke-linecap="round" stroke-linejoin="round"/>
<path d="M10.7583 6.28859L7.55827 8.06862C6.83827 8.46862 6.23828 9.47861 6.23828 10.3086V13.6986C6.23828 14.5286 6.82827 15.5386 7.55827 15.9386L10.7583 17.7186C11.4383 18.0986 12.5583 18.0986 13.2483 17.7186L16.4483 15.9386C17.1683 15.5386 17.7683 14.5286 17.7683 13.6986V10.3086C17.7683 9.47861 17.1783 8.46862 16.4483 8.06862L13.2483 6.28859C12.5583 5.89859 11.4383 5.89859 10.7583 6.28859Z" stroke="#292D32" stroke-width="1.5" stroke-linecap="round" stroke-linejoin="round"/>
</svg>
