<svg width="24" height="24" viewBox="0 0 24 24" fill="none" xmlns="http://www.w3.org/2000/svg">
<path d="M6.69922 9.26172L11.9992 12.3317L17.2592 9.28172" stroke="#292D32" stroke-width="1.5" stroke-linecap="round" stroke-linejoin="round"/>
<path d="M12 17.7703V12.3203" stroke="#292D32" stroke-width="1.5" stroke-linecap="round" stroke-linejoin="round"/>
<path d="M6.23047 10.3011C6.23047 9.4711 6.82045 8.46109 7.55045 8.06109L10.7505 6.28109C11.4305 5.90109 12.5504 5.90109 13.2404 6.28109L16.4405 8.06109C17.1605 8.46109 17.7605 9.4711 17.7605 10.3011V13.6911C17.7605 14.5211 17.1705 15.5311 16.4405 15.9311L13.2404 17.7111C12.5604 18.0911 11.4405 18.0911 10.7505 17.7111L7.55045 15.9311C7.19045 15.7311 6.86045 15.3811 6.62045 14.9711" stroke="#292D32" stroke-width="1.5" stroke-linecap="round" stroke-linejoin="round"/>
<path d="M22 15C22 18.87 18.87 22 15 22L16.05 20.25" stroke="#292D32" stroke-width="1.5" stroke-linecap="round" stroke-linejoin="round"/>
<path d="M2 9C2 5.13 5.13 2 9 2L7.95001 3.75" stroke="#292D32" stroke-width="1.5" stroke-linecap="round" stroke-linejoin="round"/>
</svg>
