<svg width="24" height="24" viewBox="0 0 24 24" fill="none" xmlns="http://www.w3.org/2000/svg">
<path d="M22 15C22 18.87 18.87 22 15 22L16.05 20.25" stroke="#292D32" stroke-width="1.5" stroke-linecap="round" stroke-linejoin="round"/>
<path d="M2 9C2 5.13 5.13 2 9 2L7.95 3.75" stroke="#292D32" stroke-width="1.5" stroke-linecap="round" stroke-linejoin="round"/>
<path d="M13.7031 4.44922L17.6831 6.74921L21.6231 4.45923" stroke="#292D32" stroke-width="1.5" stroke-linecap="round" stroke-linejoin="round"/>
<path d="M17.6836 10.8183V6.73828" stroke="#292D32" stroke-width="1.5" stroke-linecap="round" stroke-linejoin="round"/>
<path d="M16.7416 2.21L14.3416 3.53996C13.8016 3.83996 13.3516 4.59995 13.3516 5.21995V7.75999C13.3516 8.37999 13.7916 9.13998 14.3416 9.43998L16.7416 10.77C17.2516 11.06 18.0916 11.06 18.6116 10.77L21.0116 9.43998C21.5516 9.13998 22.0016 8.37999 22.0016 7.75999V5.21995C22.0016 4.59995 21.5616 3.83996 21.0116 3.53996L18.6116 2.21C18.1016 1.93 17.2616 1.93 16.7416 2.21Z" stroke="#292D32" stroke-width="1.5" stroke-linecap="round" stroke-linejoin="round"/>
<path d="M2.35156 15.4531L6.32156 17.7531L10.2716 15.4631" stroke="#292D32" stroke-width="1.5" stroke-linecap="round" stroke-linejoin="round"/>
<path d="M6.32031 21.8222V17.7422" stroke="#292D32" stroke-width="1.5" stroke-linecap="round" stroke-linejoin="round"/>
<path d="M10.65 16.2314C10.65 15.6114 10.21 14.8514 9.66 14.5514L7.25999 13.2214C6.74999 12.9314 5.91 12.9314 5.39 13.2214L2.99001 14.5514C2.45001 14.8514 2 15.6114 2 16.2314V18.7715C2 19.3915 2.44001 20.1514 2.99001 20.4514L5.39 21.7815C5.9 22.0715 6.73999 22.0715 7.25999 21.7815L9.66 20.4514" stroke="#292D32" stroke-width="1.5" stroke-linecap="round" stroke-linejoin="round"/>
</svg>
