<svg width="24" height="24" viewBox="0 0 24 24" fill="none" xmlns="http://www.w3.org/2000/svg">
<g opacity="0.4">
<path d="M10.1103 11.1504H7.4603C6.8303 11.1504 6.32031 11.6603 6.32031 12.2903V17.4103H10.1103V11.1504V11.1504Z" stroke="#292D32" stroke-width="1.5" stroke-miterlimit="10" stroke-linecap="round" stroke-linejoin="round"/>
<path d="M12.7616 6.6001H11.2415C10.6115 6.6001 10.1016 7.11011 10.1016 7.74011V17.4001H13.8916V7.74011C13.8916 7.11011 13.3916 6.6001 12.7616 6.6001Z" stroke="#292D32" stroke-width="1.5" stroke-miterlimit="10" stroke-linecap="round" stroke-linejoin="round"/>
<path d="M16.5504 12.8501H13.9004V17.4001H17.6904V13.9901C17.6804 13.3601 17.1704 12.8501 16.5504 12.8501Z" stroke="#292D32" stroke-width="1.5" stroke-miterlimit="10" stroke-linecap="round" stroke-linejoin="round"/>
</g>
<path d="M9 22H15C20 22 22 20 22 15V9C22 4 20 2 15 2H9C4 2 2 4 2 9V15C2 20 4 22 9 22Z" stroke="#292D32" stroke-width="1.5" stroke-linecap="round" stroke-linejoin="round"/>
</svg>
