<svg width="24" height="24" viewBox="0 0 24 24" fill="none" xmlns="http://www.w3.org/2000/svg">
<path d="M9 22H15C20 22 22 20 22 15V9C22 4 20 2 15 2H9C4 2 2 4 2 9V15C2 20 4 22 9 22Z" stroke="#292D32" stroke-width="1.5" stroke-linecap="round" stroke-linejoin="round"/>
<g opacity="0.4">
<path d="M16.2792 13.6096C15.1492 14.7396 13.5292 15.0896 12.0992 14.6396L9.50922 17.2196C9.32922 17.4096 8.95922 17.5296 8.68922 17.4896L7.48922 17.3296C7.08922 17.2796 6.72922 16.8996 6.66922 16.5096L6.50922 15.3096C6.46922 15.0496 6.59922 14.6796 6.77922 14.4896L9.35922 11.9096C8.91922 10.4796 9.25922 8.85965 10.3892 7.72965C12.0092 6.10965 14.6492 6.10965 16.2792 7.72965C17.8992 9.33965 17.8992 11.9796 16.2792 13.6096Z" stroke="#292D32" stroke-width="1.5" stroke-miterlimit="10" stroke-linecap="round" stroke-linejoin="round"/>
<path d="M10.4496 16.2799L9.59961 15.4199" stroke="#292D32" stroke-width="1.5" stroke-miterlimit="10" stroke-linecap="round" stroke-linejoin="round"/>
<path d="M13.3949 10.7002H13.4039" stroke="#292D32" stroke-width="2" stroke-linecap="round" stroke-linejoin="round"/>
</g>
</svg>
