<svg width="24" height="24" viewBox="0 0 24 24" fill="none" xmlns="http://www.w3.org/2000/svg">
<path d="M20.0297 2.47998L4.17969 18.33" stroke="#292D32" stroke-width="1.5" stroke-linecap="round" stroke-linejoin="round"/>
<path d="M5.25008 13.0002C4.83008 12.0302 4.58008 10.9802 4.58008 9.90017C4.58008 4.99017 8.80008 1.12017 13.6001 2.17017C15.0601 2.49017 16.3601 3.27017 17.3601 4.35017" stroke="#292D32" stroke-width="1.5" stroke-linecap="round" stroke-linejoin="round"/>
<path opacity="0.4" d="M19.0602 7.2998C20.2802 11.1798 18.3102 15.0798 15.5202 16.8698V18.0298C15.5202 18.3198 15.6202 18.9898 14.6202 18.9898H9.42016C8.39016 18.9898 8.52016 18.5598 8.52016 18.0298V16.8698C8.04016 16.5698 7.59016 16.1998 7.16016 15.7698" stroke="#292D32" stroke-width="1.5" stroke-linecap="round" stroke-linejoin="round"/>
<path opacity="0.4" d="M8.5 22.0002C10.79 21.3502 13.21 21.3502 15.5 22.0002" stroke="#292D32" stroke-width="1.5" stroke-linecap="round" stroke-linejoin="round"/>
</svg>
