<svg width="24" height="24" viewBox="0 0 24 24" fill="none" xmlns="http://www.w3.org/2000/svg">
<path d="M10 16.9498H6.21C2.84 16.9498 2 16.1098 2 12.7398V6.73979C2 3.36979 2.84 2.52979 6.21 2.52979H16.74C20.11 2.52979 20.95 3.36979 20.95 6.73979" stroke="#292D32" stroke-width="1.5" stroke-linecap="round" stroke-linejoin="round"/>
<path d="M10 21.4702V16.9502" stroke="#292D32" stroke-width="1.5" stroke-linecap="round" stroke-linejoin="round"/>
<path opacity="0.4" d="M2 12.9502H10" stroke="#292D32" stroke-width="1.5" stroke-linecap="round" stroke-linejoin="round"/>
<path d="M6.74023 21.4702H10.0002" stroke="#292D32" stroke-width="1.5" stroke-linecap="round" stroke-linejoin="round"/>
<path d="M22.0003 12.7998V18.5098C22.0003 20.8798 21.4103 21.4698 19.0403 21.4698H15.4903C13.1203 21.4698 12.5303 20.8798 12.5303 18.5098V12.7998C12.5303 10.4298 13.1203 9.83984 15.4903 9.83984H19.0403C21.4103 9.83984 22.0003 10.4298 22.0003 12.7998Z" stroke="#292D32" stroke-width="1.5" stroke-linecap="round" stroke-linejoin="round"/>
<path opacity="0.4" d="M17.2445 18.25H17.2535" stroke="#292D32" stroke-width="2" stroke-linecap="round" stroke-linejoin="round"/>
</svg>
