<svg width="24" height="24" viewBox="0 0 24 24" fill="none" xmlns="http://www.w3.org/2000/svg">
<path d="M2 9.99979V13.9998C2 15.9998 3 16.9998 5 16.9998H6.43C6.8 16.9998 7.17 17.1098 7.49 17.2998L10.41 19.1298C12.93 20.7098 15 19.5598 15 16.5898V7.40979C15 4.42979 12.93 3.28979 10.41 4.86979L7.49 6.69979C7.17 6.88979 6.8 6.99979 6.43 6.99979H5C3 6.99979 2 7.99979 2 9.99979Z" stroke="#292D32" stroke-width="1.5"/>
<path opacity="0.4" d="M18 8C19.78 10.37 19.78 13.63 18 16" stroke="#292D32" stroke-width="1.5" stroke-linecap="round" stroke-linejoin="round"/>
<path opacity="0.4" d="M19.8301 5.5C22.7201 9.35 22.7201 14.65 19.8301 18.5" stroke="#292D32" stroke-width="1.5" stroke-linecap="round" stroke-linejoin="round"/>
</svg>
