<svg width="24" height="24" viewBox="0 0 24 24" fill="none" xmlns="http://www.w3.org/2000/svg">
<path d="M1.89844 10.0312H21.8984" stroke="#292D32" stroke-width="1.5" stroke-miterlimit="10" stroke-linecap="round" stroke-linejoin="round"/>
<path d="M11.4584 20.5291H6.34839C2.79839 20.5291 1.89844 19.6491 1.89844 16.1391V7.91907C1.89844 4.73907 2.63841 3.71907 5.42841 3.55907C5.70841 3.54907 6.01839 3.53906 6.34839 3.53906H17.4584C21.0084 3.53906 21.9084 4.41906 21.9084 7.92906V12.3391" stroke="#292D32" stroke-width="1.5" stroke-linecap="round" stroke-linejoin="round"/>
<path opacity="0.4" d="M17.8984 22.0312C20.1076 22.0312 21.8984 20.2404 21.8984 18.0312C21.8984 15.8221 20.1076 14.0312 17.8984 14.0312C15.6893 14.0312 13.8984 15.8221 13.8984 18.0312C13.8984 20.2404 15.6893 22.0312 17.8984 22.0312Z" stroke="#292D32" stroke-width="1.5" stroke-miterlimit="10" stroke-linecap="round" stroke-linejoin="round"/>
<g opacity="0.4">
<path d="M18.9694 19.1512L16.8594 17.0312" stroke="#292D32" stroke-width="1.5" stroke-miterlimit="10" stroke-linecap="round" stroke-linejoin="round"/>
<path d="M18.9481 17.0625L16.8281 19.1725" stroke="#292D32" stroke-width="1.5" stroke-miterlimit="10" stroke-linecap="round" stroke-linejoin="round"/>
</g>
<path opacity="0.4" d="M5.89844 16.0312H9.89844" stroke="#292D32" stroke-width="1.5" stroke-miterlimit="10" stroke-linecap="round" stroke-linejoin="round"/>
</svg>
