<svg width="24" height="24" viewBox="0 0 24 24" fill="none" xmlns="http://www.w3.org/2000/svg">
<path opacity="0.4" d="M11.74 17.7494H17.66C17.57 17.8294 17.48 17.8994 17.39 17.9794L13.12 21.1794C11.71 22.2294 9.41001 22.2294 7.99001 21.1794L3.71001 17.9794C2.77001 17.2794 2 15.7294 2 14.5594V7.14937C2 5.92937 2.93001 4.57937 4.07001 4.14937L9.05 2.27938C9.87 1.96937 11.23 1.96937 12.05 2.27938L17.02 4.14937C17.97 4.50937 18.78 5.50938 19.03 6.52938H11.73C11.51 6.52938 11.31 6.53938 11.12 6.53938C9.27 6.64938 8.78999 7.31937 8.78999 9.42937V14.8594C8.79999 17.1594 9.39001 17.7494 11.74 17.7494Z" stroke="#292D32" stroke-width="1.5" stroke-linecap="round" stroke-linejoin="round"/>
<path d="M8.80078 11.2188H22.0008" stroke="#292D32" stroke-width="1.5" stroke-miterlimit="10" stroke-linecap="round" stroke-linejoin="round"/>
<path d="M22.0008 9.42172V14.9717C21.9808 17.1917 21.3708 17.7417 19.0608 17.7417H11.7408C9.39078 17.7417 8.80078 17.1517 8.80078 14.8417V9.41171C8.80078 7.31171 9.28078 6.6417 11.1308 6.5217C11.3208 6.5217 11.5208 6.51172 11.7408 6.51172H19.0608C21.4108 6.52172 22.0008 7.10172 22.0008 9.42172Z" stroke="#292D32" stroke-width="1.5" stroke-linecap="round" stroke-linejoin="round"/>
<path d="M11.3203 15.2617H12.6503" stroke="#292D32" stroke-width="1.5" stroke-miterlimit="10" stroke-linecap="round" stroke-linejoin="round"/>
<path d="M14.75 15.2617H18.02" stroke="#292D32" stroke-width="1.5" stroke-miterlimit="10" stroke-linecap="round" stroke-linejoin="round"/>
</svg>
