<svg width="24" height="24" viewBox="0 0 24 24" fill="none" xmlns="http://www.w3.org/2000/svg">
<path d="M5.16024 17.79C5.42024 18.37 5.73023 18.95 6.09023 19.51C6.85023 20.68 7.87023 21.99 9.20023 22C9.75023 22.01 10.1202 21.84 10.5202 21.66C10.9802 21.46 11.4702 21.23 12.3302 21.23C13.1902 21.22 13.6802 21.45 14.1302 21.66C14.5202 21.84 14.8802 22 15.4202 22C16.7502 21.99 17.8302 20.53 18.5902 19.37C19.1402 18.53 19.3402 18.11 19.7602 17.17C16.6802 16 16.1802 11.61 19.2302 9.92999C18.3002 8.75999 16.9902 8.09 15.7602 8.09C14.8702 8.09 14.2602 8.32 13.7102 8.53C13.2502 8.71 12.8202 8.87 12.3102 8.87C11.7502 8.87 11.2602 8.69001 10.7402 8.51001C10.1702 8.31001 9.58023 8.09 8.84023 8.09C7.45023 8.09 5.98024 8.94 5.04024 10.38C4.59024 11.08 4.32023 12 4.24023 13.03M15.4102 2C15.5702 3.1 15.1202 4.19001 14.5302 4.95001C13.9002 5.77001 12.8002 6.41 11.7402 6.37C11.5502 5.31 12.0402 4.21999 12.6402 3.48999C13.3102 2.68999 14.4402 2.07 15.4102 2Z" stroke="black" stroke-width="1.5" stroke-miterlimit="10" stroke-linecap="round" stroke-linejoin="round"/>
</svg>
