<svg width="24" height="24" viewBox="0 0 24 24" fill="none" xmlns="http://www.w3.org/2000/svg">
<path d="M11.1307 15.8799C10.8807 15.8799 10.6307 15.7499 10.4907 15.5199C10.2807 15.1699 10.3907 14.6999 10.7507 14.4899L11.6407 13.9599V12.8799C11.6407 12.4699 11.9807 12.1299 12.3907 12.1299C12.8007 12.1299 13.1407 12.4699 13.1407 12.8799V14.3799C13.1407 14.6399 13.0007 14.8899 12.7807 15.0199L11.5307 15.7699C11.3907 15.8399 11.2607 15.8799 11.1307 15.8799Z" fill="#292D32"/>
<path opacity="0.4" d="M21.8504 11.4099L21.2304 18.1899C21.0204 20.1899 20.2004 22.2299 15.8004 22.2299H8.18039C3.78039 22.2299 2.96039 20.1899 2.76039 18.1999L2.15039 11.6899C2.16039 11.6999 2.17039 11.7099 2.19039 11.7199C2.53039 11.9399 2.86039 12.1599 3.22039 12.3599C3.36039 12.4499 3.51039 12.5299 3.66039 12.6099C4.79039 13.2299 6.00039 13.7199 7.25039 14.0599C7.75039 14.2099 8.26039 14.3199 8.78039 14.4099C8.98039 16.0099 10.3504 17.2499 12.0004 17.2499C13.6704 17.2499 15.0504 15.9799 15.2304 14.3499V14.3399C15.7404 14.2399 16.2504 14.1099 16.7504 13.9599C18.0004 13.5699 19.2104 13.0499 20.3404 12.3899C20.4004 12.3599 20.4504 12.3299 20.4904 12.2999C20.9504 12.0499 21.3904 11.7599 21.8104 11.4599C21.8304 11.4499 21.8404 11.4299 21.8504 11.4099Z" fill="#292D32"/>
<path d="M21.0891 6.98002C20.2391 6.04002 18.8291 5.57002 16.7591 5.57002H16.5191V5.53002C16.5191 3.85002 16.5191 1.77002 12.7591 1.77002H11.2391C7.47906 1.77002 7.47906 3.85002 7.47906 5.53002V5.57002H7.23906C5.16906 5.57002 3.74906 6.04002 2.90906 6.98002C1.91906 8.09002 1.94906 9.56002 2.04906 10.57L2.05906 10.64L2.14906 11.69C2.15906 11.7 2.17906 11.71 2.19906 11.72C2.53906 11.94 2.86906 12.16 3.22906 12.36C3.36906 12.45 3.51906 12.53 3.66906 12.61C4.79906 13.23 6.00906 13.72 7.24906 14.06C7.27906 16.65 9.39906 18.75 11.9991 18.75C14.6191 18.75 16.7491 16.62 16.7491 14V13.96C18.0091 13.58 19.2191 13.05 20.3491 12.39C20.4091 12.36 20.4491 12.33 20.4991 12.3C20.9591 12.05 21.3991 11.76 21.8191 11.46C21.8291 11.45 21.8491 11.43 21.8591 11.41L21.8991 11.05L21.9491 10.58C21.9591 10.52 21.9591 10.47 21.9691 10.4C22.0491 9.40002 22.0291 8.02002 21.0891 6.98002ZM8.90906 5.53002C8.90906 3.83002 8.90906 3.19002 11.2391 3.19002H12.7591C15.0891 3.19002 15.0891 3.83002 15.0891 5.53002V5.57002H8.90906V5.53002ZM11.9991 17.25C10.3491 17.25 8.97906 16.01 8.77906 14.41C8.75906 14.28 8.74906 14.14 8.74906 14C8.74906 12.21 10.2091 10.75 11.9991 10.75C13.7891 10.75 15.2491 12.21 15.2491 14C15.2491 14.12 15.2391 14.23 15.2291 14.34V14.35C15.0491 15.98 13.6691 17.25 11.9991 17.25Z" fill="#292D32"/>
</svg>
