<svg width="24" height="24" viewBox="0 0 24 24" fill="none" xmlns="http://www.w3.org/2000/svg">
<path opacity="0.4" d="M21.74 11.7401C21.13 9.74005 19.61 8.30005 17.7 7.87005C17.14 5.37005 15.6 3.58005 13.42 2.90005C11.04 2.17005 8.28 2.88005 6.55 4.69005C5.02 6.28005 4.52 8.47005 5.11 10.8001C2.98 11.3201 2 13.1801 2 14.8601C2 16.7401 3.23 18.8501 5.97 19.0401H8.5V16.4101C8.5 15.1401 9.26 14.3801 10.53 14.3801H13.47C14.74 14.3801 15.5 15.1401 15.5 16.4101V19.0401H16.31C16.32 19.0401 16.34 19.0401 16.35 19.0401C17.77 19.0401 19.13 18.5101 20.17 17.5601C21.8 16.1401 22.4 13.9101 21.74 11.7401Z" fill="#292D32"/>
<path d="M13.47 14.3899H10.53C9.26 14.3899 8.5 15.1499 8.5 16.4199V19.3599C8.5 20.6299 9.26 21.3899 10.53 21.3899H13.47C14.74 21.3899 15.5 20.6299 15.5 19.3599V16.4199C15.5 15.1499 14.74 14.3899 13.47 14.3899ZM13.71 18.4599H10.3C9.94 18.4599 9.65 18.1699 9.65 17.8099C9.65 17.4599 9.94 17.1699 10.3 17.1699H13.72C14.07 17.1699 14.36 17.4599 14.36 17.8099C14.35 18.1799 14.06 18.4599 13.71 18.4599Z" fill="#292D32"/>
</svg>
