<svg width="24" height="24" viewBox="0 0 24 24" fill="none" xmlns="http://www.w3.org/2000/svg">
<path d="M22.0005 13.9001V16.1901C22.0005 19.8301 19.8305 22.0001 16.1905 22.0001H7.81055C5.26055 22.0001 3.42055 20.9301 2.56055 19.0301L2.67055 18.9501L7.59055 15.6501C8.39055 15.1101 9.52055 15.1701 10.2305 15.7901L10.5705 16.0701C11.3505 16.7401 12.6105 16.7401 13.3905 16.0701L17.5505 12.5001C18.3305 11.8301 19.5905 11.8301 20.3705 12.5001L22.0005 13.9001Z" fill="#292D32"/>
<path opacity="0.4" d="M20.97 8H18.03C16.76 8 16 7.24 16 5.97V3.03C16 2.63 16.08 2.29 16.22 2C16.21 2 16.2 2 16.19 2H7.81C4.17 2 2 4.17 2 7.81V16.19C2 17.28 2.19 18.23 2.56 19.03L2.67 18.95L7.59 15.65C8.39 15.11 9.52 15.17 10.23 15.79L10.57 16.07C11.35 16.74 12.61 16.74 13.39 16.07L17.55 12.5C18.33 11.83 19.59 11.83 20.37 12.5L22 13.9V7.81C22 7.8 22 7.79 22 7.78C21.71 7.92 21.37 8 20.97 8Z" fill="#292D32"/>
<path d="M8.99914 10.3801C10.3136 10.3801 11.3791 9.31456 11.3791 8.00012C11.3791 6.68568 10.3136 5.62012 8.99914 5.62012C7.6847 5.62012 6.61914 6.68568 6.61914 8.00012C6.61914 9.31456 7.6847 10.3801 8.99914 10.3801Z" fill="#292D32"/>
<path d="M20.97 1H18.03C16.76 1 16 1.76 16 3.03V5.97C16 7.24 16.76 8 18.03 8H20.97C22.24 8 23 7.24 23 5.97V3.03C23 1.76 22.24 1 20.97 1ZM21.19 4.31C21.07 4.43 20.91 4.49 20.75 4.49C20.59 4.49 20.43 4.43 20.31 4.31L20.13 4.13V6.37C20.13 6.72 19.85 7 19.5 7C19.15 7 18.87 6.72 18.87 6.37V4.13L18.69 4.31C18.45 4.55 18.05 4.55 17.81 4.31C17.57 4.07 17.57 3.67 17.81 3.43L19.06 2.18C19.11 2.13 19.18 2.09 19.25 2.06C19.27 2.05 19.29 2.05 19.31 2.04C19.36 2.02 19.41 2.01 19.47 2.01C19.49 2.01 19.51 2.01 19.53 2.01C19.6 2.01 19.66 2.02 19.73 2.05C19.74 2.05 19.74 2.05 19.75 2.05C19.82 2.08 19.88 2.12 19.93 2.17C19.94 2.18 19.94 2.18 19.95 2.18L21.2 3.43C21.44 3.67 21.44 4.07 21.19 4.31Z" fill="#292D32"/>
</svg>
