<svg width="24" height="24" viewBox="0 0 24 24" fill="none" xmlns="http://www.w3.org/2000/svg">
<path d="M18.7304 14.6701L14.5804 18.8201C14.4204 18.9801 14.2704 19.2901 14.2304 19.5101L14.0004 21.1001C13.9204 21.6701 14.3204 22.0801 14.8904 21.9901L16.4804 21.7601C16.7004 21.7301 17.0104 21.5701 17.1704 21.4101L21.3204 17.2601C22.0304 16.5501 22.3704 15.7101 21.3204 14.6601C20.2804 13.6201 19.4504 13.9501 18.7304 14.6701Z" fill="#292D32"/>
<path d="M18.1406 15.2603C18.4906 16.5203 19.4806 17.5002 20.7406 17.8602L18.1406 15.2603Z" fill="#292D32"/>
<path opacity="0.4" d="M2.02977 14.6299C2.02977 14.6599 2.00977 14.6999 2.00977 14.7299C2.92977 16.5699 4.42978 18.0799 6.26978 18.9899C6.29978 18.9899 6.33977 18.9699 6.36977 18.9699C6.02977 17.8099 5.76977 16.6199 5.57977 15.4299C4.37977 15.2299 3.18977 14.9699 2.02977 14.6299Z" fill="#292D32"/>
<path opacity="0.4" d="M19.0701 6.42993C18.1301 4.45993 16.5401 2.86994 14.5801 1.93994C14.9401 3.12994 15.2401 4.34995 15.4401 5.56995C16.6601 5.76995 17.8801 6.05993 19.0701 6.42993Z" fill="#292D32"/>
<path opacity="0.4" d="M1.92969 6.43002C3.12969 6.07002 4.3497 5.77004 5.5697 5.57004C5.7697 4.38004 6.0197 3.20004 6.3597 2.04004C6.3297 2.04004 6.28969 2.02002 6.25969 2.02002C4.37969 2.95002 2.84969 4.52002 1.92969 6.43002Z" fill="#292D32"/>
<path opacity="0.4" d="M13.8197 5.36023C13.5797 4.06023 13.2797 2.76024 12.8497 1.50024C12.8297 1.43024 12.8297 1.37025 12.8197 1.29025C12.0797 1.11025 11.2997 0.990234 10.4997 0.990234C9.68969 0.990234 8.91969 1.10025 8.16969 1.29025C8.15969 1.36025 8.16969 1.42024 8.14969 1.50024C7.72969 2.76024 7.41969 4.06023 7.17969 5.36023C9.38969 5.12023 11.6097 5.12023 13.8197 5.36023Z" fill="#292D32"/>
<path opacity="0.4" d="M5.36023 7.18018C4.05023 7.42018 2.76023 7.72018 1.50023 8.15018C1.43023 8.17018 1.37022 8.17018 1.29022 8.18018C1.11022 8.92018 0.990234 9.70018 0.990234 10.5002C0.990234 11.3102 1.10022 12.0802 1.29022 12.8302C1.36022 12.8402 1.42023 12.8302 1.50023 12.8502C2.76023 13.2702 4.05023 13.5802 5.36023 13.8202C5.12023 11.6102 5.12023 9.39018 5.36023 7.18018Z" fill="#292D32"/>
<path opacity="0.4" d="M19.7009 8.18018C19.6309 8.18018 19.5709 8.17018 19.4909 8.15018C18.2309 7.73018 16.9309 7.42018 15.6309 7.18018C15.8809 9.39018 15.8809 11.6102 15.6309 13.8102C16.9309 13.5702 18.2309 13.2702 19.4909 12.8402C19.5609 12.8202 19.6209 12.8302 19.7009 12.8202C19.8809 12.0702 20.0009 11.3002 20.0009 10.4902C20.0009 9.70017 19.8909 8.93018 19.7009 8.18018Z" fill="#292D32"/>
<path opacity="0.4" d="M7.17969 15.6401C7.41969 16.9501 7.71969 18.2401 8.14969 19.5001C8.16969 19.5701 8.15969 19.6301 8.16969 19.7101C8.91969 19.8901 9.68969 20.0101 10.4997 20.0101C11.2997 20.0101 12.0797 19.9001 12.8197 19.7101C12.8297 19.6401 12.8297 19.5801 12.8497 19.5001C13.2697 18.2401 13.5797 16.9501 13.8197 15.6401C12.7197 15.7601 11.6097 15.8501 10.4997 15.8501C9.38969 15.8401 8.27969 15.7601 7.17969 15.6401Z" fill="#292D32"/>
<path opacity="0.4" d="M6.94961 6.9501C6.64961 9.3101 6.64961 11.6901 6.94961 14.0601C9.30961 14.3601 11.6896 14.3601 14.0596 14.0601C14.3596 11.7001 14.3596 9.3201 14.0596 6.9501C11.6896 6.6501 9.30961 6.6501 6.94961 6.9501Z" fill="#292D32"/>
</svg>
