<svg width="24" height="24" viewBox="0 0 24 24" fill="none" xmlns="http://www.w3.org/2000/svg">
<path d="M22.65 18.13C22.55 17.7299 22.15 17.4799 21.75 17.5799C21.35 17.6799 21.1 18.08 21.19 18.48C21.23 18.65 21.25 18.8199 21.25 18.9999C21.25 20.2399 20.24 21.2499 19 21.2499C17.76 21.2499 16.75 20.2399 16.75 18.9999C16.75 17.8999 17.54 16.99 18.59 16.79C18.49 17.02 18.5 17.2999 18.66 17.5199C18.81 17.7199 19.04 17.8299 19.27 17.8299C19.42 17.8299 19.58 17.7799 19.71 17.6899L20.88 16.8399C20.89 16.8299 20.89 16.82 20.9 16.82C20.91 16.81 20.92 16.8099 20.93 16.7999C20.96 16.7699 20.98 16.74 21 16.7C21.03 16.66 21.07 16.6299 21.09 16.5799C21.11 16.5399 21.12 16.49 21.14 16.45C21.15 16.4 21.17 16.3599 21.18 16.3099C21.19 16.2599 21.18 16.22 21.17 16.17C21.17 16.12 21.17 16.0699 21.15 16.0199C21.14 15.9699 21.11 15.93 21.09 15.89C21.07 15.85 21.06 15.8099 21.04 15.7799C21.03 15.7699 21.02 15.77 21.01 15.76C21 15.75 21 15.74 20.99 15.73L19.99 14.5799C19.72 14.2699 19.24 14.23 18.93 14.51C18.71 14.71 18.63 14.9999 18.71 15.2699C16.78 15.4199 15.25 17.0199 15.25 18.9899C15.25 21.0599 16.93 22.7399 19 22.7399C21.07 22.7399 22.75 21.0599 22.75 18.9899C22.75 18.7099 22.72 18.41 22.65 18.13Z" fill="#292D32"/>
<path opacity="0.4" d="M2.02975 14.6299C2.02975 14.6599 2.00977 14.6999 2.00977 14.7299C2.92977 16.5699 4.42974 18.0799 6.26974 18.9899C6.29975 18.9899 6.33975 18.9699 6.36975 18.9699C6.02975 17.8099 5.76974 16.6199 5.57974 15.4299C4.37974 15.2299 3.18975 14.9699 2.02975 14.6299Z" fill="#292D32"/>
<path opacity="0.4" d="M19.0701 6.42993C18.1301 4.45993 16.5401 2.86994 14.5801 1.93994C14.9401 3.12994 15.2401 4.34995 15.4401 5.56995C16.6601 5.76995 17.8801 6.05993 19.0701 6.42993Z" fill="#292D32"/>
<path opacity="0.4" d="M1.92969 6.43002C3.12969 6.07002 4.3497 5.77004 5.5697 5.57004C5.7697 4.38004 6.01968 3.20004 6.35968 2.04004C6.32968 2.04004 6.2897 2.02002 6.2597 2.02002C4.3797 2.95002 2.84969 4.52002 1.92969 6.43002Z" fill="#292D32"/>
<path opacity="0.4" d="M13.8197 5.36023C13.5797 4.06023 13.2797 2.76024 12.8497 1.50024C12.8297 1.43024 12.8297 1.37025 12.8197 1.29025C12.0797 1.11025 11.2997 0.990234 10.4997 0.990234C9.68969 0.990234 8.91971 1.10025 8.16971 1.29025C8.15971 1.36025 8.16969 1.42024 8.14969 1.50024C7.72969 2.76024 7.41969 4.06023 7.17969 5.36023C9.38969 5.12023 11.6097 5.12023 13.8197 5.36023Z" fill="#292D32"/>
<path opacity="0.4" d="M5.36023 7.18018C4.05023 7.42018 2.76024 7.72018 1.50024 8.15018C1.43024 8.17018 1.37025 8.17018 1.29025 8.18018C1.11025 8.92018 0.990234 9.70018 0.990234 10.5002C0.990234 11.3102 1.10025 12.0802 1.29025 12.8302C1.36025 12.8402 1.42024 12.8302 1.50024 12.8502C2.76024 13.2702 4.05023 13.5802 5.36023 13.8202C5.12023 11.6102 5.12023 9.39018 5.36023 7.18018Z" fill="#292D32"/>
<path opacity="0.4" d="M19.7009 8.18018C19.6309 8.18018 19.5708 8.17018 19.4908 8.15018C18.2308 7.73018 16.9309 7.42018 15.6309 7.18018C15.8809 9.39018 15.8809 11.6102 15.6309 13.8102C16.9309 13.5702 18.2308 13.2702 19.4908 12.8402C19.5608 12.8202 19.6209 12.8302 19.7009 12.8202C19.8809 12.0702 20.0009 11.3002 20.0009 10.4902C20.0009 9.70017 19.8909 8.93018 19.7009 8.18018Z" fill="#292D32"/>
<path opacity="0.4" d="M7.17969 15.6401C7.41969 16.9501 7.71969 18.2401 8.14969 19.5001C8.16969 19.5701 8.15971 19.6301 8.16971 19.7101C8.91971 19.8901 9.68969 20.0101 10.4997 20.0101C11.2997 20.0101 12.0797 19.9001 12.8197 19.7101C12.8297 19.6401 12.8297 19.5801 12.8497 19.5001C13.2697 18.2401 13.5797 16.9501 13.8197 15.6401C12.7197 15.7601 11.6097 15.8501 10.4997 15.8501C9.38969 15.8401 8.27969 15.7601 7.17969 15.6401Z" fill="#292D32"/>
<path opacity="0.4" d="M6.94961 6.9501C6.64961 9.3101 6.64961 11.6901 6.94961 14.0601C9.30961 14.3601 11.6896 14.3601 14.0596 14.0601C14.3596 11.7001 14.3596 9.3201 14.0596 6.9501C11.6896 6.6501 9.30961 6.6501 6.94961 6.9501Z" fill="#292D32"/>
</svg>
