<svg width="24" height="24" viewBox="0 0 24 24" fill="none" xmlns="http://www.w3.org/2000/svg">
<path d="M13.1807 11.8601C12.7807 11.8601 12.4207 11.6401 12.2507 11.2801L10.8007 8.39013L10.3807 9.17009C10.1507 9.60009 9.69071 9.87011 9.20071 9.87011H8.4707C8.0607 9.87011 7.7207 9.53011 7.7207 9.12011C7.7207 8.71011 8.0607 8.37011 8.4707 8.37011H9.11069L9.9007 6.91008C10.0907 6.57008 10.4707 6.3401 10.8307 6.3601C11.2207 6.3601 11.5707 6.5901 11.7507 6.9301L13.1807 9.79009L13.5207 9.10009C13.7507 8.64009 14.2007 8.3601 14.7207 8.3601H15.5307C15.9407 8.3601 16.2807 8.7001 16.2807 9.1101C16.2807 9.5201 15.9407 9.8601 15.5307 9.8601H14.8207L14.1107 11.2701C13.9307 11.6401 13.5807 11.8601 13.1807 11.8601Z" fill="#292D32"/>
<path opacity="0.4" d="M2.74982 18.6501C2.33982 18.6501 1.99982 18.3101 1.99982 17.9001V12.2001C1.94982 9.49007 2.95981 6.93007 4.83981 5.01007C6.71981 3.10007 9.23983 2.05005 11.9498 2.05005C17.4898 2.05005 21.9998 6.56004 21.9998 12.1V17.8C21.9998 18.21 21.6598 18.55 21.2498 18.55C20.8398 18.55 20.4998 18.21 20.4998 17.8V12.1C20.4998 7.39004 16.6698 3.55005 11.9498 3.55005C9.63983 3.55005 7.49982 4.44006 5.90982 6.06006C4.30982 7.69006 3.45982 9.86005 3.49982 12.1801V17.8901C3.49982 18.3101 3.16982 18.6501 2.74982 18.6501Z" fill="#292D32"/>
<path d="M5.94 12.4502H5.81C3.71 12.4502 2 14.1602 2 16.2602V18.1402C2 20.2402 3.71 21.9502 5.81 21.9502H5.94C8.04 21.9502 9.75 20.2402 9.75 18.1402V16.2602C9.75 14.1602 8.04 12.4502 5.94 12.4502Z" fill="#292D32"/>
<path d="M18.19 12.4502H18.06C15.96 12.4502 14.25 14.1602 14.25 16.2602V18.1402C14.25 20.2402 15.96 21.9502 18.06 21.9502H18.19C20.29 21.9502 22 20.2402 22 18.1402V16.2602C22 14.1602 20.29 12.4502 18.19 12.4502Z" fill="#292D32"/>
</svg>
