<svg width="24" height="24" viewBox="0 0 24 24" fill="none" xmlns="http://www.w3.org/2000/svg">
<path opacity="0.4" d="M8.88003 4.60022C8.08003 1.14022 2.87002 1.13022 2.07002 4.60022C1.60002 6.63022 2.89003 8.35022 4.01003 9.42022C4.83003 10.1902 6.12003 10.1902 6.94003 9.42022C8.06003 8.35022 9.34003 6.63022 8.88003 4.60022ZM5.51003 6.20022C4.96003 6.20022 4.51003 5.75022 4.51003 5.20022C4.51003 4.65022 4.95003 4.20022 5.50003 4.20022H5.51003C6.07003 4.20022 6.51003 4.65022 6.51003 5.20022C6.51003 5.75022 6.07003 6.20022 5.51003 6.20022Z" fill="#292D32"/>
<path d="M6.50977 5.2002C6.50977 5.7502 6.06977 6.2002 5.50977 6.2002C4.95977 6.2002 4.50977 5.7502 4.50977 5.2002C4.50977 4.6502 4.94977 4.2002 5.49977 4.2002H5.50977C6.06977 4.2002 6.50977 4.6502 6.50977 5.2002Z" fill="#292D32"/>
<path opacity="0.4" d="M21.91 16.6002C21.11 13.1402 15.88 13.1302 15.07 16.6002C14.6 18.6302 15.89 20.3502 17.02 21.4202C17.84 22.1902 19.14 22.1902 19.96 21.4202C21.09 20.3502 22.38 18.6302 21.91 16.6002ZM18.53 18.2002C17.98 18.2002 17.53 17.7502 17.53 17.2002C17.53 16.6502 17.97 16.2002 18.52 16.2002H18.53C19.08 16.2002 19.53 16.6502 19.53 17.2002C19.53 17.7502 19.08 18.2002 18.53 18.2002Z" fill="#292D32"/>
<path d="M19.5293 17.2002C19.5293 17.7502 19.0793 18.2002 18.5293 18.2002C17.9793 18.2002 17.5293 17.7502 17.5293 17.2002C17.5293 16.6502 17.9693 16.2002 18.5193 16.2002H18.5293C19.0793 16.2002 19.5293 16.6502 19.5293 17.2002Z" fill="#292D32"/>
<path d="M11.9995 19.75H9.31945C8.15945 19.75 7.14945 19.05 6.74945 17.97C6.33945 16.89 6.63945 15.7 7.50945 14.93L15.4995 7.94C15.9795 7.52 15.9895 6.95 15.8495 6.56C15.6995 6.17 15.3195 5.75 14.6795 5.75H11.9995C11.5895 5.75 11.2495 5.41 11.2495 5C11.2495 4.59 11.5895 4.25 11.9995 4.25H14.6795C15.8395 4.25 16.8495 4.95 17.2495 6.03C17.6595 7.11 17.3595 8.3 16.4895 9.07L8.49945 16.06C8.01945 16.48 8.00945 17.05 8.14945 17.44C8.29945 17.83 8.67945 18.25 9.31945 18.25H11.9995C12.4095 18.25 12.7495 18.59 12.7495 19C12.7495 19.41 12.4095 19.75 11.9995 19.75Z" fill="#292D32"/>
</svg>
