<svg width="24" height="24" viewBox="0 0 24 24" fill="none" xmlns="http://www.w3.org/2000/svg">
<path d="M8.58219 22.5503C8.36219 22.5503 8.13219 22.5103 7.92219 22.4203C7.45219 22.2203 7.09219 21.8303 6.93219 21.3403L6.49219 20.0203C6.29219 19.4203 6.47219 18.6703 6.91219 18.2203L9.18219 15.9403C9.21219 15.9103 9.25219 15.8003 9.25219 15.7503V13.2803L4.69219 15.2503C4.08219 15.5103 3.46219 15.4803 2.99219 15.1703C2.52219 14.8603 2.24219 14.3003 2.24219 13.6503V12.3603C2.24219 11.3803 2.94219 10.3303 3.83219 9.98031L9.24219 7.64031V4.80031C9.24219 3.59031 10.0922 2.20031 11.1722 1.64031C11.6922 1.38031 12.2922 1.38031 12.8022 1.64031C13.8922 2.20031 14.7422 3.58031 14.7422 4.79031V7.63031L20.1822 9.97031C21.0722 10.3503 21.7522 11.3703 21.7522 12.3603V13.6503C21.7522 14.3103 21.4822 14.8603 21.0022 15.1703C20.5222 15.4803 19.9122 15.5103 19.3022 15.2603L14.7422 13.2903V15.7603C14.7422 15.8003 14.7822 15.9003 14.8122 15.9303L17.0922 18.2203C17.5322 18.6603 17.7122 19.4303 17.5122 20.0203L17.0722 21.3403C16.9022 21.8303 16.5422 22.2203 16.0622 22.4103C15.5922 22.6003 15.0722 22.5803 14.6222 22.3603C14.5722 22.3303 14.5222 22.3003 14.4722 22.2603L12.1422 20.3003C12.0622 20.2303 11.9022 20.2403 11.8322 20.3003L9.50219 22.2603C9.46219 22.3003 9.41219 22.3303 9.36219 22.3503C9.12219 22.4903 8.85219 22.5503 8.58219 22.5503ZM9.56219 11.6403C9.79219 11.6403 10.0122 11.7003 10.2022 11.8303C10.5522 12.0603 10.7522 12.4503 10.7522 12.9103V15.7603C10.7522 16.1903 10.5422 16.7003 10.2422 17.0003L7.97219 19.2803C7.93219 19.3303 7.89219 19.4803 7.91219 19.5403L8.35219 20.8703C8.38219 20.9703 8.45219 21.0103 8.49219 21.0303C8.52219 21.0403 8.57219 21.0603 8.63219 21.0403L10.8722 19.1503C11.5022 18.6103 12.4922 18.6103 13.1222 19.1503L15.3522 21.0303C15.4222 21.0403 15.4722 21.0303 15.5022 21.0203C15.5422 21.0003 15.6222 20.9603 15.6522 20.8603L16.0922 19.5403C16.1122 19.4703 16.0722 19.3203 16.0322 19.2803L13.7622 17.0003C13.4622 16.7203 13.2422 16.2003 13.2422 15.7603V12.9103C13.2422 12.4603 13.4322 12.0703 13.7722 11.8403C14.1122 11.6103 14.5522 11.5803 14.9722 11.7603L19.8922 13.8803C20.0422 13.9403 20.1422 13.9403 20.1722 13.9203C20.2022 13.9003 20.2422 13.8103 20.2422 13.6503V12.3603C20.2422 11.9803 19.9222 11.4903 19.5822 11.3503L14.0022 8.94031C13.5622 8.75031 13.2522 8.27031 13.2522 7.79031V4.79031C13.2522 4.13031 12.7322 3.28031 12.1322 2.98031C12.0522 2.94031 11.9522 2.94031 11.8622 2.98031C11.2822 3.28031 10.7522 4.15031 10.7522 4.80031V7.80031C10.7522 8.27031 10.4422 8.76031 10.0022 8.95031L4.42219 11.3603C4.07219 11.5003 3.75219 11.9903 3.75219 12.3603V13.6503C3.75219 13.8103 3.79219 13.9003 3.82219 13.9203C3.85219 13.9403 3.95219 13.9403 4.10219 13.8803L9.01219 11.7603C9.19219 11.6803 9.38219 11.6403 9.56219 11.6403Z" fill="#292D32"/>
</svg>
