<svg width="24" height="24" viewBox="0 0 24 24" fill="none" xmlns="http://www.w3.org/2000/svg">
<path d="M12.3806 16.9203H10.0906C9.68062 16.9203 9.34062 16.5803 9.34062 16.1703C9.34062 15.7603 9.68062 15.4203 10.0906 15.4203H12.3806C12.8106 15.4203 13.1606 15.0703 13.1606 14.6403C13.1606 14.2103 12.8106 13.8603 12.3806 13.8603H10.0906C9.85062 13.8603 9.62062 13.7403 9.48062 13.5503C9.34062 13.3603 9.30062 13.1003 9.38062 12.8703L10.1406 10.5803C10.2406 10.2703 10.5306 10.0703 10.8506 10.0703H13.9106C14.3206 10.0703 14.6606 10.4103 14.6606 10.8203C14.6606 11.2303 14.3206 11.5703 13.9106 11.5703H11.3906L11.1306 12.3603H12.3806C13.6406 12.3603 14.6606 13.3803 14.6606 14.6403C14.6606 15.9003 13.6406 16.9203 12.3806 16.9203Z" fill="#292D32"/>
<path d="M12.0016 3.47945C11.9216 3.47945 11.8416 3.48945 11.7616 3.48945L12.5816 2.46945C12.8416 2.14945 12.7916 1.66945 12.4616 1.41945C12.1316 1.16945 11.6716 1.20945 11.4116 1.53945L9.44156 3.99945C9.43156 4.00945 9.43156 4.01945 9.42156 4.03945C9.39156 4.07945 9.37156 4.12945 9.35156 4.16945C9.33156 4.21945 9.31156 4.25945 9.30156 4.29945C9.29156 4.34945 9.29156 4.38945 9.29156 4.43945C9.29156 4.48945 9.29156 4.53945 9.29156 4.58945C9.29156 4.60945 9.29156 4.61945 9.29156 4.63945C9.30156 4.66945 9.32156 4.68945 9.33156 4.71945C9.35156 4.76945 9.37156 4.80945 9.39156 4.85945C9.42156 4.89945 9.45156 4.93945 9.49156 4.96945C9.51156 4.99945 9.52156 5.02945 9.55156 5.04945C9.57156 5.05945 9.58156 5.06945 9.60156 5.07945C9.63156 5.09945 9.65156 5.10945 9.68156 5.11945C9.73156 5.14945 9.79156 5.16945 9.85156 5.17945C9.88156 5.19945 9.91156 5.19945 9.94156 5.19945C9.97156 5.19945 9.99156 5.20945 10.0216 5.20945C10.0516 5.20945 10.0716 5.19945 10.0916 5.18945C10.1216 5.18945 10.1516 5.19945 10.1816 5.18945C10.8216 5.03945 11.4216 4.96945 11.9916 4.96945C16.4816 4.96945 20.1316 8.61945 20.1316 13.1095C20.1316 17.5994 16.4816 21.2495 11.9916 21.2495C7.50156 21.2495 3.85156 17.5994 3.85156 13.1095C3.85156 11.3695 4.42156 9.68945 5.50156 8.24945C5.75156 7.91945 5.68156 7.44945 5.35156 7.19945C5.02156 6.94945 4.55156 7.01945 4.30156 7.34945C3.02156 9.04945 2.35156 11.0395 2.35156 13.1095C2.35156 18.4195 6.67156 22.7495 11.9916 22.7495C17.3116 22.7495 21.6316 18.4295 21.6316 13.1095C21.6316 7.78945 17.3116 3.47945 12.0016 3.47945Z" fill="#292D32"/>
</svg>
