<svg width="24" height="24" viewBox="0 0 24 24" fill="none" xmlns="http://www.w3.org/2000/svg">
<path d="M18.0002 6C17.3902 6 16.8302 5.65 16.5502 5.11L15.8302 3.66C15.3702 2.75 14.1702 2 13.1502 2H10.8602C9.83017 2 8.63017 2.75 8.17017 3.66L7.45017 5.11C7.17017 5.65 6.61017 6 6.00017 6C3.83017 6 2.11017 7.83 2.25017 9.99L2.77017 18.25C2.89017 20.31 4.00017 22 6.76017 22H17.2402C20.0002 22 21.1002 20.31 21.2302 18.25L21.7502 9.99C21.8902 7.83 20.1702 6 18.0002 6ZM10.5002 7.25H13.5002C13.9102 7.25 14.2502 7.59 14.2502 8C14.2502 8.41 13.9102 8.75 13.5002 8.75H10.5002C10.0902 8.75 9.75017 8.41 9.75017 8C9.75017 7.59 10.0902 7.25 10.5002 7.25ZM12.0002 18.12C10.1402 18.12 8.62017 16.61 8.62017 14.74C8.62017 12.87 10.1302 11.36 12.0002 11.36C13.8702 11.36 15.3802 12.87 15.3802 14.74C15.3802 16.61 13.8602 18.12 12.0002 18.12Z" fill="#292D32"/>
</svg>
