<svg width="24" height="24" viewBox="0 0 24 24" fill="none" xmlns="http://www.w3.org/2000/svg">
<path d="M14.4314 16.9203H12.1414C11.7314 16.9203 11.3914 16.5803 11.3914 16.1703C11.3914 15.7603 11.7314 15.4203 12.1414 15.4203H14.4314C14.8614 15.4203 15.2114 15.0703 15.2114 14.6403C15.2114 14.2103 14.8614 13.8603 14.4314 13.8603H12.1414C11.9014 13.8603 11.6714 13.7403 11.5314 13.5503C11.3914 13.3603 11.3514 13.1003 11.4314 12.8703L12.1914 10.5803C12.2914 10.2703 12.5814 10.0703 12.9014 10.0703H15.9614C16.3714 10.0703 16.7114 10.4103 16.7114 10.8203C16.7114 11.2303 16.3714 11.5703 15.9614 11.5703H13.4414L13.1814 12.3603H14.4314C15.6914 12.3603 16.7114 13.3803 16.7114 14.6403C16.7114 15.9003 15.6814 16.9203 14.4314 16.9203Z" fill="#292D32"/>
<path d="M9.54041 16.9208C9.13041 16.9208 8.79041 16.5808 8.79041 16.1708V12.7808L8.60041 13.0008C8.32041 13.3108 7.85041 13.3308 7.54041 13.0608C7.24041 12.7808 7.21041 12.3108 7.49041 12.0008L8.99041 10.3308C9.20041 10.1008 9.53041 10.0208 9.82041 10.1308C10.1104 10.2408 10.3004 10.5208 10.3004 10.8308V16.1808C10.2904 16.5908 9.96041 16.9208 9.54041 16.9208Z" fill="#292D32"/>
<path d="M19.6916 7.3488C19.4416 7.0188 18.9716 6.9488 18.6416 7.1988C18.3116 7.4488 18.2416 7.9188 18.4916 8.2488C19.5716 9.6888 20.1416 11.3688 20.1416 13.1088C20.1416 17.5988 16.4916 21.2488 12.0016 21.2488C7.51156 21.2488 3.86156 17.5988 3.86156 13.1088C3.86156 8.6188 7.51156 4.9788 12.0016 4.9788C12.5816 4.9788 13.1716 5.0488 13.8116 5.1988C13.8416 5.2088 13.8716 5.1988 13.9016 5.1988C13.9316 5.1988 13.9516 5.2188 13.9716 5.2188C14.0016 5.2188 14.0216 5.2088 14.0516 5.2088C14.0816 5.2088 14.1116 5.1988 14.1516 5.1888C14.2116 5.1788 14.2616 5.1488 14.3116 5.1288C14.3416 5.1088 14.3716 5.0988 14.4016 5.0788C14.4116 5.0688 14.4316 5.0688 14.4416 5.0588C14.4716 5.0388 14.4816 5.0088 14.5016 4.9888C14.5416 4.9488 14.5716 4.9188 14.6016 4.8688C14.6316 4.8288 14.6416 4.7788 14.6616 4.7288C14.6716 4.6988 14.6916 4.6688 14.7016 4.6388C14.7016 4.6188 14.7016 4.6088 14.7016 4.5888C14.7116 4.5388 14.7116 4.4888 14.7016 4.4388C14.7016 4.3888 14.7016 4.3488 14.6916 4.2988C14.6816 4.2588 14.6616 4.2188 14.6416 4.1688C14.6216 4.1188 14.6016 4.0688 14.5716 4.0288C14.5716 4.0188 14.5716 4.0088 14.5616 3.9988L12.5816 1.5288C12.3216 1.2088 11.8516 1.1488 11.5316 1.4088C11.2116 1.6688 11.1616 2.1388 11.4116 2.4588L12.2316 3.4788C12.1516 3.4788 12.0716 3.4688 11.9916 3.4688C6.68156 3.4688 2.35156 7.7888 2.35156 13.1088C2.35156 18.4288 6.67156 22.7488 11.9916 22.7488C17.3116 22.7488 21.6316 18.4288 21.6316 13.1088C21.6416 11.0388 20.9616 9.0488 19.6916 7.3488Z" fill="#292D32"/>
</svg>
