<svg width="24" height="24" viewBox="0 0 24 24" fill="none" xmlns="http://www.w3.org/2000/svg">
<path d="M14.3498 2H9.64977C8.60977 2 7.75977 2.84 7.75977 3.88V4.82C7.75977 5.86 8.59977 6.7 9.63977 6.7H14.3498C15.3898 6.7 16.2298 5.86 16.2298 4.82V3.88C16.2398 2.84 15.3898 2 14.3498 2Z" fill="#292D32"/>
<path d="M17.2391 4.81949C17.2391 6.40949 15.9391 7.70949 14.3491 7.70949H9.64906C8.05906 7.70949 6.75906 6.40949 6.75906 4.81949C6.75906 4.25949 6.15906 3.90949 5.65906 4.16949C4.24906 4.91949 3.28906 6.40949 3.28906 8.11949V17.5295C3.28906 19.9895 5.29906 21.9995 7.75906 21.9995H16.2391C18.6991 21.9995 20.7091 19.9895 20.7091 17.5295V8.11949C20.7091 6.40949 19.7491 4.91949 18.3391 4.16949C17.8391 3.90949 17.2391 4.25949 17.2391 4.81949ZM15.3391 12.7295L11.3391 16.7295C11.1891 16.8795 10.9991 16.9495 10.8091 16.9495C10.6191 16.9495 10.4291 16.8795 10.2791 16.7295L8.77906 15.2295C8.48906 14.9395 8.48906 14.4595 8.77906 14.1695C9.06906 13.8795 9.54906 13.8795 9.83906 14.1695L10.8091 15.1395L14.2791 11.6695C14.5691 11.3795 15.0491 11.3795 15.3391 11.6695C15.6291 11.9595 15.6291 12.4395 15.3391 12.7295Z" fill="#292D32"/>
</svg>
