<svg width="24" height="24" viewBox="0 0 24 24" fill="none" xmlns="http://www.w3.org/2000/svg">
<path d="M19.9994 19.2611H10.9294C10.4794 19.2611 10.1094 18.8911 10.1094 18.4411C10.1094 17.9911 10.4794 17.6211 10.9294 17.6211H19.9994C20.4494 17.6211 20.8194 17.9911 20.8194 18.4411C20.8194 18.9011 20.4494 19.2611 19.9994 19.2611Z" fill="#292D32"/>
<path d="M19.9994 12.9681H10.9294C10.4794 12.9681 10.1094 12.5981 10.1094 12.1481C10.1094 11.6981 10.4794 11.3281 10.9294 11.3281H19.9994C20.4494 11.3281 20.8194 11.6981 20.8194 12.1481C20.8194 12.5981 20.4494 12.9681 19.9994 12.9681Z" fill="#292D32"/>
<path d="M19.9994 6.67125H10.9294C10.4794 6.67125 10.1094 6.30125 10.1094 5.85125C10.1094 5.40125 10.4794 5.03125 10.9294 5.03125H19.9994C20.4494 5.03125 20.8194 5.40125 20.8194 5.85125C20.8194 6.30125 20.4494 6.67125 19.9994 6.67125Z" fill="#292D32"/>
<path d="M4.90969 8.03187C4.68969 8.03187 4.47969 7.94187 4.32969 7.79187L3.41969 6.88188C3.09969 6.56188 3.09969 6.04187 3.41969 5.72187C3.73969 5.40187 4.25969 5.40187 4.57969 5.72187L4.90969 6.05188L7.04969 3.91187C7.36969 3.59188 7.88969 3.59188 8.20969 3.91187C8.52969 4.23188 8.52969 4.75188 8.20969 5.07188L5.48969 7.79187C5.32969 7.94187 5.12969 8.03187 4.90969 8.03187Z" fill="#292D32"/>
<path d="M4.90969 14.3287C4.69969 14.3287 4.48969 14.2487 4.32969 14.0887L3.41969 13.1788C3.09969 12.8588 3.09969 12.3388 3.41969 12.0188C3.73969 11.6988 4.25969 11.6988 4.57969 12.0188L4.90969 12.3488L7.04969 10.2087C7.36969 9.88875 7.88969 9.88875 8.20969 10.2087C8.52969 10.5288 8.52969 11.0487 8.20969 11.3687L5.48969 14.0887C5.32969 14.2487 5.11969 14.3287 4.90969 14.3287Z" fill="#292D32"/>
<path d="M4.90969 20.3288C4.69969 20.3288 4.48969 20.2488 4.32969 20.0888L3.41969 19.1788C3.09969 18.8588 3.09969 18.3388 3.41969 18.0188C3.73969 17.6988 4.25969 17.6988 4.57969 18.0188L4.90969 18.3488L7.04969 16.2087C7.36969 15.8888 7.88969 15.8888 8.20969 16.2087C8.52969 16.5288 8.52969 17.0488 8.20969 17.3688L5.48969 20.0888C5.32969 20.2488 5.11969 20.3288 4.90969 20.3288Z" fill="#292D32"/>
</svg>
