<svg width="24" height="24" viewBox="0 0 24 24" fill="none" xmlns="http://www.w3.org/2000/svg">
<path d="M6.92188 5.72844C8.60187 4.13844 11.1719 3.53844 13.3819 4.24844" stroke="#292D32" stroke-width="1.5" stroke-miterlimit="10" stroke-linecap="round" stroke-linejoin="round"/>
<path d="M21.9014 13.9611C22.1714 15.6311 21.7014 17.4211 20.2714 18.6811C19.2814 19.5911 17.9814 20.0911 16.6314 20.0811H5.54141C0.871407 19.7411 0.861407 12.9411 5.54141 12.6011H5.59141C5.20141 11.5211 5.06141 10.5211 5.11141 9.62109" stroke="#292D32" stroke-width="1.5" stroke-miterlimit="10" stroke-linecap="round" stroke-linejoin="round"/>
<path d="M7.25984 13.0116C6.73984 12.7516 6.16984 12.6116 5.58984 12.6016" stroke="#292D32" stroke-width="1.5" stroke-miterlimit="10" stroke-linecap="round" stroke-linejoin="round"/>
<path d="M21.9687 8.5C21.9687 9.6 21.4587 10.59 20.6487 11.23C20.0587 11.71 19.2887 12 18.4687 12C16.5387 12 14.9688 10.43 14.9688 8.5C14.9688 7.54 15.3587 6.67 15.9987 6.04V6.03C16.6287 5.39 17.5087 5 18.4687 5C20.3987 5 21.9687 6.57 21.9687 8.5Z" stroke="#292D32" stroke-width="1.5" stroke-miterlimit="10" stroke-linecap="round" stroke-linejoin="round"/>
</svg>
