<svg width="24" height="24" viewBox="0 0 24 24" fill="none" xmlns="http://www.w3.org/2000/svg">
<path d="M11.9998 22.0795C11.6998 22.0795 11.3998 22.0095 11.1498 21.8695C9.27978 20.8495 5.99976 19.7695 3.93976 19.4995L3.64978 19.4595C2.33978 19.2995 1.25977 18.0695 1.25977 16.7395V4.6595C1.25977 3.8695 1.56977 3.14953 2.13977 2.62953C2.70977 2.10953 3.44974 1.85952 4.22974 1.92952C6.41974 2.10952 9.73975 3.20953 11.6198 4.37953L11.8597 4.51955C11.9297 4.54955 12.0798 4.55955 12.1398 4.51955L12.2997 4.41951C12.9697 3.99951 13.8097 3.5895 14.7297 3.2195C14.9597 3.1295 15.2197 3.15951 15.4297 3.29951C15.6397 3.43951 15.7598 3.66951 15.7598 3.91951V6.5995L16.5898 6.04951C16.8398 5.87951 17.1697 5.87951 17.4197 6.04951L18.2498 6.5995V2.77956C18.2498 2.41956 18.5097 2.1095 18.8597 2.0395C19.1497 1.9895 19.4398 1.94952 19.6998 1.92952C19.7198 1.92952 19.7998 1.92952 19.8198 1.92952C20.5498 1.86952 21.2997 2.11954 21.8597 2.63954C22.4297 3.15954 22.7397 3.87951 22.7397 4.66951V16.7395C22.7397 18.0795 21.6598 19.2995 20.3398 19.4595L20.0098 19.4995C17.9498 19.7695 14.6498 20.8595 12.8198 21.8695C12.5998 22.0095 12.2998 22.0795 11.9998 22.0795ZM3.97974 3.4095C3.65974 3.4095 3.36977 3.51951 3.13977 3.72951C2.88977 3.95951 2.74976 4.2895 2.74976 4.6595V16.7395C2.74976 17.3295 3.25977 17.8995 3.82977 17.9795L4.12976 18.0195C6.37976 18.3195 9.82977 19.4495 11.8298 20.5495C11.9198 20.5895 12.0497 20.5995 12.0997 20.5795C14.1097 19.4695 17.5698 18.3296 19.8298 18.0296L20.1697 17.9895C20.7397 17.9195 21.2498 17.3395 21.2498 16.7495V4.67952C21.2498 4.30952 21.1097 3.98953 20.8597 3.74953C20.6097 3.51953 20.2598 3.40952 19.8998 3.42952C19.8698 3.42952 19.7798 3.42952 19.7598 3.42952V7.99953C19.7598 8.27953 19.6097 8.5295 19.3597 8.6595C19.1097 8.7895 18.8198 8.77952 18.5898 8.61952L17.0098 7.56953L15.4297 8.61952C15.1997 8.76952 14.9097 8.7895 14.6597 8.6595C14.4197 8.5295 14.2598 8.27953 14.2598 7.99953V5.06953C13.8298 5.27953 13.4397 5.48953 13.0997 5.68953L12.9398 5.7895C12.3898 6.1295 11.6098 6.12951 11.0798 5.79951L10.8398 5.64955C9.14978 4.58955 6.06974 3.5695 4.10974 3.4095C4.05974 3.4095 4.01974 3.4095 3.97974 3.4095Z" fill="#292D32"/>
<path d="M12 21.2383C11.59 21.2383 11.25 20.8983 11.25 20.4883V5.48828C11.25 5.07828 11.59 4.73828 12 4.73828C12.41 4.73828 12.75 5.07828 12.75 5.48828V20.4883C12.75 20.9083 12.41 21.2383 12 21.2383Z" fill="#292D32"/>
<path d="M19 8.74852C18.85 8.74852 18.71 8.70852 18.58 8.61852L17 7.56853L15.42 8.61852C15.19 8.76852 14.9 8.7885 14.65 8.6585C14.41 8.5285 14.25 8.27852 14.25 7.99852V3.91851C14.25 3.60851 14.44 3.33849 14.72 3.21849C16.1 2.66849 17.61 2.2385 18.88 2.0385C19.1 1.9985 19.32 2.06855 19.49 2.20855C19.66 2.34855 19.75 2.55855 19.75 2.77855V7.99852C19.75 8.27852 19.6 8.5285 19.35 8.6585C19.24 8.7185 19.12 8.74852 19 8.74852ZM17 5.91851C17.14 5.91851 17.29 5.95851 17.42 6.04851L18.25 6.5985V3.68853C17.45 3.86853 16.58 4.12853 15.75 4.43853V6.5985L16.58 6.04851C16.71 5.95851 16.86 5.91851 17 5.91851Z" fill="#292D32"/>
</svg>
