<svg width="24" height="24" viewBox="0 0 24 24" fill="none" xmlns="http://www.w3.org/2000/svg">
<path d="M3.30023 22.7511C2.94023 22.7511 2.59022 22.6611 2.29022 22.4811C1.62022 22.0911 1.24023 21.3111 1.24023 20.3411V8.98111C1.24023 6.85111 2.97022 5.12109 5.10022 5.12109H12.8802C15.0102 5.12109 16.7402 6.85111 16.7402 8.98111V20.3411C16.7402 21.3111 16.3602 22.0811 15.6902 22.4811C15.0202 22.8711 14.1602 22.8311 13.3102 22.3611L9.38025 20.1711C9.19025 20.0611 8.79022 20.0611 8.60022 20.1711L4.67023 22.3611C4.21023 22.6211 3.74023 22.7511 3.30023 22.7511ZM5.11023 6.6311C3.81023 6.6311 2.75024 7.69109 2.75024 8.99109V20.3511C2.75024 20.7611 2.87024 21.0811 3.06024 21.1911C3.25024 21.3011 3.59026 21.2511 3.95026 21.0511L7.88025 18.8611C8.52025 18.5111 9.48024 18.5111 10.1202 18.8611L14.0502 21.0511C14.4102 21.2511 14.7402 21.3011 14.9402 21.1911C15.1302 21.0811 15.2502 20.7611 15.2502 20.3511V8.99109C15.2502 7.69109 14.1903 6.6311 12.8903 6.6311H5.11023Z" fill="#292D32"/>
<path d="M14.69 22.7506C14.25 22.7506 13.79 22.6206 13.32 22.3706L9.39001 20.1806C9.20001 20.0806 8.78998 20.0806 8.59998 20.1806L4.67999 22.3706C3.82999 22.8406 2.95999 22.8806 2.29999 22.4906C1.62999 22.1006 1.25 21.3206 1.25 20.3606V9.00061C1.25 6.87061 2.97999 5.14062 5.10999 5.14062H12.89C15.02 5.14062 16.75 6.87061 16.75 9.00061V20.3606C16.75 21.3206 16.37 22.1006 15.7 22.4906C15.4 22.6606 15.06 22.7506 14.69 22.7506ZM9 18.6006C9.4 18.6006 9.79 18.6906 10.12 18.8706L14.05 21.0606C14.41 21.2606 14.75 21.3106 14.94 21.1906C15.13 21.0806 15.25 20.7606 15.25 20.3506V8.9906C15.25 7.6906 14.19 6.63062 12.89 6.63062H5.10999C3.80999 6.63062 2.75 7.6906 2.75 8.9906V20.3506C2.75 20.7606 2.87 21.0806 3.06 21.1906C3.25 21.3006 3.59001 21.2506 3.95001 21.0506L7.88 18.8606C8.2 18.6906 8.6 18.6006 9 18.6006Z" fill="#292D32"/>
<path d="M20.69 18.8717C20.25 18.8717 19.79 18.7417 19.32 18.4917L15.63 16.4317C15.39 16.3017 15.25 16.0517 15.25 15.7817V9.00171C15.25 7.70171 14.19 6.64172 12.89 6.64172H8C7.59 6.64172 7.25 6.30172 7.25 5.89172V5.1217C7.25 2.9917 8.97999 1.26172 11.11 1.26172H18.89C21.02 1.26172 22.75 2.9917 22.75 5.1217V16.4817C22.75 17.4417 22.37 18.2217 21.7 18.6117C21.4 18.7817 21.06 18.8717 20.69 18.8717ZM16.75 15.3317L20.05 17.1817C20.41 17.3817 20.74 17.4317 20.94 17.3117C21.14 17.1917 21.25 16.8817 21.25 16.4717V5.11169C21.25 3.81169 20.19 2.75171 18.89 2.75171H11.11C9.80999 2.75171 8.75 3.81169 8.75 5.11169V5.13171H12.89C15.02 5.13171 16.75 6.8617 16.75 8.9917V15.3317V15.3317Z" fill="#292D32"/>
</svg>
