<svg width="24" height="24" viewBox="0 0 24 24" fill="none" xmlns="http://www.w3.org/2000/svg">
<path d="M15.1199 22.75H8.87988C4.84988 22.75 2.43988 21.96 1.99988 17.91C1.91988 17.33 1.87988 16.64 1.87988 15.75V8.25C1.87988 7.39 1.91988 6.68 1.99988 6.08C2.45988 2.02 4.76988 1.25 8.88988 1.25H15.1399C19.2599 1.25 21.5799 2.02 22.0199 6.1C22.1199 6.77 22.1399 7.53 22.1399 8.25V15.75C22.1399 16.62 22.0999 17.31 22.0199 17.93C21.5599 21.98 19.2399 22.75 15.1199 22.75ZM8.87988 2.75C4.62988 2.75 3.76988 3.67 3.47988 6.26C3.39988 6.81 3.36988 7.46 3.36988 8.25V15.75C3.36988 16.57 3.40988 17.19 3.47988 17.72C3.76988 20.33 4.61988 21.25 8.87988 21.25H15.1199C19.3699 21.25 20.2299 20.33 20.5199 17.75C20.5899 17.2 20.6299 16.55 20.6299 15.75V8.25C20.6299 7.59 20.6199 6.89 20.5299 6.29C20.2399 3.67 19.3899 2.75 15.1299 2.75H8.87988Z" fill="#292D32"/>
<path d="M21.2299 9.66992H17.1299C16.7199 9.66992 16.3799 9.32992 16.3799 8.91992C16.3799 8.50992 16.7199 8.16992 17.1299 8.16992H21.2299C21.6399 8.16992 21.9799 8.50992 21.9799 8.91992C21.9799 9.32992 21.6399 9.66992 21.2299 9.66992Z" fill="#292D32"/>
<path d="M6.86953 9.66992H2.76953C2.35953 9.66992 2.01953 9.32992 2.01953 8.91992C2.01953 8.50992 2.35953 8.16992 2.76953 8.16992H6.86953C7.27953 8.16992 7.61953 8.50992 7.61953 8.91992C7.61953 9.32992 7.27953 9.66992 6.86953 9.66992Z" fill="#292D32"/>
<path d="M15.0801 11.7201H8.92012C8.17012 11.7201 7.45012 11.4201 6.93012 10.8801C6.41012 10.3801 6.12012 9.67012 6.12012 8.92012C6.12012 7.38012 7.38012 6.12012 8.92012 6.12012H15.0701C15.8201 6.12012 16.5401 6.43012 17.0601 6.96012C17.5801 7.47012 17.8801 8.17012 17.8801 8.92012C17.8801 10.4601 16.6201 11.7201 15.0801 11.7201ZM8.92012 7.62012C8.20012 7.62012 7.62012 8.20012 7.62012 8.92012C7.62012 9.27012 7.75012 9.59012 7.99012 9.82012C8.24012 10.0801 8.57012 10.2201 8.92012 10.2201H15.0801C15.8001 10.2201 16.3801 9.64012 16.3801 8.92012C16.3801 8.58012 16.2401 8.26012 16.0001 8.02012C15.7501 7.76012 15.4201 7.62012 15.0701 7.62012H8.92012Z" fill="#292D32"/>
</svg>
