<svg width="24" height="24" viewBox="0 0 24 24" fill="none" xmlns="http://www.w3.org/2000/svg">
<path d="M11.9998 10.2801C10.9798 10.2801 9.95976 10.1001 8.98976 9.75005C8.59976 9.61005 8.39976 9.18005 8.53976 8.79005C8.68976 8.40005 9.11976 8.20005 9.50976 8.34005C11.1198 8.92005 12.8898 8.92005 14.4998 8.34005C14.8898 8.20005 15.3198 8.40005 15.4598 8.79005C15.5998 9.18005 15.3998 9.61005 15.0098 9.75005C14.0398 10.1001 13.0198 10.2801 11.9998 10.2801Z" fill="#292D32"/>
<path d="M19.0703 22.75C18.5603 22.75 18.0003 22.6 17.4603 22.29L12.5803 19.58C12.2903 19.42 11.7203 19.42 11.4303 19.58L6.55031 22.29C5.56031 22.84 4.55031 22.9 3.78031 22.44C3.01031 21.99 2.57031 21.08 2.57031 19.95V5.86C2.57031 3.32 4.64031 1.25 7.18031 1.25H16.8303C19.3703 1.25 21.4403 3.32 21.4403 5.86V19.95C21.4403 21.08 21.0003 21.99 20.2303 22.44C19.8803 22.65 19.4803 22.75 19.0703 22.75ZM12.0003 17.96C12.4703 17.96 12.9303 18.06 13.3003 18.27L18.1803 20.98C18.6903 21.27 19.1603 21.33 19.4603 21.15C19.7603 20.97 19.9303 20.54 19.9303 19.95V5.86C19.9303 4.15 18.5303 2.75 16.8203 2.75H7.18031C5.47031 2.75 4.07031 4.15 4.07031 5.86V19.95C4.07031 20.54 4.24031 20.98 4.54031 21.15C4.84031 21.32 5.30031 21.27 5.82031 20.98L10.7003 18.27C11.0703 18.06 11.5303 17.96 12.0003 17.96Z" fill="#292D32"/>
<path d="M19.0703 22.75C18.5603 22.75 18.0003 22.6 17.4603 22.29L12.5803 19.58C12.2903 19.42 11.7203 19.42 11.4303 19.58L6.55031 22.29C5.56031 22.84 4.55031 22.9 3.78031 22.44C3.01031 21.99 2.57031 21.08 2.57031 19.95V5.86C2.57031 3.32 4.64031 1.25 7.18031 1.25H16.8303C19.3703 1.25 21.4403 3.32 21.4403 5.86V19.95C21.4403 21.08 21.0003 21.99 20.2303 22.44C19.8803 22.65 19.4803 22.75 19.0703 22.75ZM12.0003 17.96C12.4703 17.96 12.9303 18.06 13.3003 18.27L18.1803 20.98C18.6903 21.27 19.1603 21.33 19.4603 21.15C19.7603 20.97 19.9303 20.54 19.9303 19.95V5.86C19.9303 4.15 18.5303 2.75 16.8203 2.75H7.18031C5.47031 2.75 4.07031 4.15 4.07031 5.86V19.95C4.07031 20.54 4.24031 20.98 4.54031 21.15C4.84031 21.32 5.30031 21.27 5.82031 20.98L10.7003 18.27C11.0703 18.06 11.5303 17.96 12.0003 17.96Z" fill="#292D32"/>
</svg>
