<svg width="24" height="24" viewBox="0 0 24 24" fill="none" xmlns="http://www.w3.org/2000/svg">
<path d="M16.0002 23.72C15.7302 23.72 15.4802 23.57 15.3502 23.34C15.2202 23.11 15.2202 22.82 15.3602 22.59L16.4102 20.84C16.6202 20.48 17.0802 20.37 17.4402 20.58C17.8002 20.79 17.9102 21.25 17.7002 21.61L17.4302 22.06C20.1902 21.41 22.2602 18.93 22.2602 15.97C22.2602 15.56 22.6002 15.22 23.0102 15.22C23.4202 15.22 23.7602 15.56 23.7602 15.97C23.7502 20.24 20.2702 23.72 16.0002 23.72Z" fill="#292D32"/>
<path d="M1 8.71997C0.59 8.71997 0.25 8.37997 0.25 7.96997C0.25 3.69997 3.73 0.219971 8 0.219971C8.27 0.219971 8.52 0.369976 8.65 0.599976C8.78 0.829976 8.78 1.11998 8.64 1.34998L7.59 3.09998C7.38 3.45998 6.92 3.56999 6.56 3.35999C6.2 3.14999 6.09 2.69002 6.3 2.33002L6.57 1.88C3.81 2.53 1.74 5.00997 1.74 7.96997C1.75 8.37997 1.41 8.71997 1 8.71997Z" fill="#292D32"/>
<path d="M9.4311 16.0801H6.62109C6.21109 16.0801 5.87109 15.7401 5.87109 15.3301V13.0801C5.87109 12.6701 6.21109 12.3301 6.62109 12.3301H9.4311C10.4311 12.3301 11.3111 13.2101 11.3111 14.2101C11.3111 15.2301 10.4611 16.0801 9.4311 16.0801ZM7.37109 14.5801H9.4311C9.6411 14.5801 9.8111 14.4101 9.8111 14.2001C9.8111 14.0501 9.6411 13.8201 9.4311 13.8201H7.37109V14.5801Z" fill="#292D32"/>
<path d="M9.82938 18.3301H6.60938C6.19938 18.3301 5.85938 17.9901 5.85938 17.5801V15.3301C5.85938 14.9201 6.19938 14.5801 6.60938 14.5801H9.82938C10.9494 14.5801 11.8694 15.4201 11.8694 16.4601C11.8694 17.5001 10.9594 18.3301 9.82938 18.3301ZM7.36937 16.8301H9.83937C10.1594 16.8301 10.3794 16.6301 10.3794 16.4501C10.3794 16.2701 10.1594 16.0701 9.83937 16.0701H7.36937V16.8301Z" fill="#292D32"/>
<path d="M8.41992 19.4498C8.00992 19.4498 7.66992 19.1098 7.66992 18.6998V17.5698C7.66992 17.1598 8.00992 16.8198 8.41992 16.8198C8.82992 16.8198 9.16992 17.1598 9.16992 17.5698V18.6998C9.16992 19.1198 8.82992 19.4498 8.41992 19.4498Z" fill="#292D32"/>
<path d="M8.41992 13.8199C8.00992 13.8199 7.66992 13.4799 7.66992 13.0699V11.9399C7.66992 11.5299 8.00992 11.1899 8.41992 11.1899C8.82992 11.1899 9.16992 11.5299 9.16992 11.9399V13.0699C9.16992 13.4899 8.82992 13.8199 8.41992 13.8199Z" fill="#292D32"/>
<path d="M8.67 22.2499C4.85 22.2499 1.75 19.14 1.75 15.33C1.75 11.52 4.86 8.40991 8.67 8.40991C8.85 8.40991 9.01 8.41993 9.19 8.42993C12.58 8.68993 15.32 11.4299 15.57 14.7999C15.58 15.0199 15.59 15.17 15.59 15.33C15.6 19.14 12.49 22.2499 8.67 22.2499ZM8.67 9.89996C5.68 9.89996 3.25 12.3299 3.25 15.3199C3.25 18.3099 5.68 20.7399 8.67 20.7399C11.66 20.7399 14.1 18.3099 14.1 15.3199C14.1 15.1899 14.09 15.0599 14.08 14.9299C13.88 12.2499 11.73 10.1099 9.09 9.90991C8.96 9.90991 8.82 9.89996 8.67 9.89996Z" fill="#292D32"/>
<path d="M15.3302 15.6H14.8402C14.4502 15.6 14.1202 15.3 14.0902 14.91C13.8902 12.26 11.7502 10.12 9.10015 9.91998C8.71015 9.88998 8.41016 9.55998 8.41016 9.16998V8.67999C8.41016 4.85999 11.5202 1.76001 15.3402 1.76001C19.1602 1.76001 22.2602 4.86999 22.2602 8.67999C22.2602 12.49 19.1402 15.6 15.3302 15.6ZM9.90016 8.51001C12.7202 9.02001 14.9802 11.27 15.4902 14.1C18.4102 14.01 20.7502 11.61 20.7502 8.67999C20.7502 5.68999 18.3202 3.26001 15.3302 3.26001C12.3902 3.25001 9.99016 5.59001 9.90016 8.51001Z" fill="#292D32"/>
</svg>
