<svg width="24" height="24" viewBox="0 0 24 24" fill="none" xmlns="http://www.w3.org/2000/svg">
<path d="M10 16.75C9.59 16.75 9.25 16.41 9.25 16C9.25 14.33 9.25 12.25 13 12.25H17C19.25 12.25 19.25 11.95 19.25 10V8C19.25 6.05 19.25 5.75 17 5.75H16C15.59 5.75 15.25 5.41 15.25 5C15.25 4.59 15.59 4.25 16 4.25H17C20.5 4.25 20.75 5.67 20.75 8V10C20.75 12.33 20.5 13.75 17 13.75H13C10.75 13.75 10.75 14.36 10.75 16C10.75 16.41 10.41 16.75 10 16.75Z" fill="#292D32"/>
<path d="M12.0009 8.75H8.00094C7.68094 8.75 7.39094 8.54 7.29094 8.24C6.60094 6.15 6.60094 3.85 7.29094 1.77C7.39094 1.46 7.68094 1.25 8.00094 1.25H12.0009C12.3209 1.25 12.6109 1.46 12.7109 1.76C13.4109 3.85 13.4109 6.15 12.7109 8.23C12.6109 8.54 12.3309 8.75 12.0009 8.75ZM8.56094 7.25H11.4509C11.8409 5.78 11.8409 4.22 11.4509 2.75H8.56094C8.17094 4.22 8.17094 5.78 8.56094 7.25Z" fill="#292D32"/>
<path d="M8 8.75H7C4.58 8.75 3.25 7.42 3.25 5C3.25 2.58 4.58 1.25 7 1.25H8C8.26 1.25 8.5 1.38 8.64 1.61C8.78 1.83 8.79 2.11 8.67 2.34C7.77 4.13 7.77 5.88 8.67 7.67C8.79 7.9 8.77 8.18 8.64 8.4C8.5 8.62 8.26 8.75 8 8.75ZM6.88 2.75C5.39 2.79 4.75 3.46 4.75 5C4.75 6.53 5.39 7.21 6.87 7.25C6.37 5.75 6.37 4.25 6.88 2.75Z" fill="#292D32"/>
<path d="M12.9992 8.75H11.9992C11.7392 8.75 11.4992 8.62 11.3592 8.39C11.2192 8.17 11.2092 7.89 11.3292 7.66C12.2192 5.87 12.2192 4.12 11.3292 2.33C11.2092 2.1 11.2292 1.82 11.3592 1.6C11.4992 1.38 11.7392 1.25 11.9992 1.25H12.9992C15.4192 1.25 16.7492 2.58 16.7492 5C16.7492 7.42 15.4192 8.75 12.9992 8.75ZM13.1192 2.75C13.6192 4.25 13.6192 5.75 13.1192 7.25C14.6092 7.21 15.2392 6.54 15.2392 5C15.2492 3.46 14.6092 2.79 13.1192 2.75Z" fill="#292D32"/>
<path d="M10.5 22.75H9.5C8.47 22.75 7.25 22.36 7.25 20.5V17.5C7.25 15.64 8.47 15.25 9.5 15.25H10.5C11.53 15.25 12.75 15.64 12.75 17.5V20.5C12.75 22.36 11.53 22.75 10.5 22.75ZM9.5 16.75C8.75 16.75 8.75 16.97 8.75 17.5V20.5C8.75 21.03 8.75 21.25 9.5 21.25H10.5C11.25 21.25 11.25 21.03 11.25 20.5V17.5C11.25 16.97 11.25 16.75 10.5 16.75H9.5Z" fill="#292D32"/>
</svg>
