<svg width="24" height="24" viewBox="0 0 24 24" fill="none" xmlns="http://www.w3.org/2000/svg">
<path d="M3.92914 16.6301C3.73914 16.6301 3.54914 16.5601 3.39914 16.4101C3.10914 16.1201 3.10914 15.6401 3.39914 15.3501L15.3491 3.40012C15.6391 3.11012 16.1191 3.11012 16.4091 3.40012C16.6991 3.69012 16.6991 4.17012 16.4091 4.46012L4.45914 16.4201C4.31914 16.5601 4.11914 16.6301 3.92914 16.6301Z" fill="#292D32"/>
<path d="M11.0991 19.03C10.9091 19.03 10.7191 18.96 10.5691 18.81C10.2791 18.52 10.2791 18.04 10.5691 17.75L11.7691 16.55C12.0591 16.26 12.5391 16.26 12.8291 16.55C13.1191 16.84 13.1191 17.32 12.8291 17.61L11.6291 18.81C11.4891 18.95 11.2991 19.03 11.0991 19.03Z" fill="#292D32"/>
<path d="M13.7905 16.3401C13.6005 16.3401 13.4105 16.2701 13.2605 16.1201C12.9705 15.8301 12.9705 15.3501 13.2605 15.0601L15.6505 12.6701C15.9405 12.3801 16.4205 12.3801 16.7105 12.6701C17.0005 12.9601 17.0005 13.4401 16.7105 13.7301L14.3205 16.1201C14.1805 16.2601 13.9805 16.3401 13.7905 16.3401Z" fill="#292D32"/>
<path d="M11.1009 22.7499C10.1209 22.7499 9.14089 22.1499 7.95089 20.9599L3.04089 16.0499C0.650891 13.6599 0.660891 12.1199 3.07089 9.70991L9.71089 3.06991C12.1209 0.659914 13.6609 0.649914 16.0509 3.03991L20.9609 7.94991C23.3509 10.3399 23.3409 11.8799 20.9309 14.2899L14.2909 20.9299C13.0809 22.1399 12.0909 22.7499 11.1009 22.7499ZM12.9009 2.74991C12.3809 2.74991 11.7209 3.17991 10.7709 4.12991L4.13089 10.7699C3.18089 11.7199 2.75089 12.3799 2.75089 12.8899C2.75089 13.4099 3.15089 14.0399 4.10089 14.9899L9.01089 19.8999C9.96089 20.8499 10.5809 21.2499 11.1009 21.2499C11.1009 21.2499 11.1009 21.2499 11.1109 21.2499C11.6309 21.2499 12.2809 20.8199 13.2309 19.8699L19.8709 13.2299C20.8209 12.2799 21.2509 11.6199 21.2509 11.1099C21.2509 10.5899 20.8509 9.95991 19.9009 9.00991L14.9909 4.09991C14.0509 3.14991 13.4209 2.74991 12.9009 2.74991Z" fill="#292D32"/>
<path d="M22 22.75H2C1.59 22.75 1.25 22.41 1.25 22C1.25 21.59 1.59 21.25 2 21.25H22C22.41 21.25 22.75 21.59 22.75 22C22.75 22.41 22.41 22.75 22 22.75Z" fill="#292D32"/>
</svg>
