<svg width="24" height="24" viewBox="0 0 24 24" fill="none" xmlns="http://www.w3.org/2000/svg">
<path d="M10.1103 18.1501H6.32031C5.91031 18.1501 5.57031 17.8101 5.57031 17.4001V12.2802C5.57031 11.2402 6.4203 10.3901 7.4603 10.3901H10.1103C10.5203 10.3901 10.8603 10.7301 10.8603 11.1401V17.3901C10.8603 17.8101 10.5203 18.1501 10.1103 18.1501ZM7.07031 16.6501H9.36029V11.9001H7.4603C7.2503 11.9001 7.07031 12.0701 7.07031 12.2901V16.6501Z" fill="#292D32"/>
<path d="M13.8896 18.1501H10.0996C9.68961 18.1501 9.34961 17.8101 9.34961 17.4001V7.74011C9.34961 6.70011 10.1996 5.8501 11.2396 5.8501H12.7596C13.7996 5.8501 14.6496 6.70011 14.6496 7.74011V17.4001C14.6396 17.8101 14.3096 18.1501 13.8896 18.1501ZM10.8596 16.6501H13.1496V7.74011C13.1496 7.53011 12.9796 7.3501 12.7596 7.3501H11.2396C11.0296 7.3501 10.8496 7.52011 10.8496 7.74011V16.6501H10.8596Z" fill="#292D32"/>
<path d="M17.6806 18.1501H13.8906C13.4806 18.1501 13.1406 17.8101 13.1406 17.4001V12.8501C13.1406 12.4401 13.4806 12.1001 13.8906 12.1001H16.5406C17.5806 12.1001 18.4306 12.9501 18.4306 13.9901V17.4001C18.4306 17.8101 18.1006 18.1501 17.6806 18.1501ZM14.6406 16.6501H16.9306V13.9901C16.9306 13.7801 16.7606 13.6001 16.5406 13.6001H14.6406V16.6501Z" fill="#292D32"/>
<path d="M15 22.75H9C3.57 22.75 1.25 20.43 1.25 15V9C1.25 3.57 3.57 1.25 9 1.25H15C20.43 1.25 22.75 3.57 22.75 9V15C22.75 20.43 20.43 22.75 15 22.75ZM9 2.75C4.39 2.75 2.75 4.39 2.75 9V15C2.75 19.61 4.39 21.25 9 21.25H15C19.61 21.25 21.25 19.61 21.25 15V9C21.25 4.39 19.61 2.75 15 2.75H9Z" fill="#292D32"/>
</svg>
