<svg width="24" height="24" viewBox="0 0 24 24" fill="none" xmlns="http://www.w3.org/2000/svg">
<path d="M9.59998 18.7499C7.19998 18.7499 5.25 16.7999 5.25 14.3999C5.25 12.4399 6.57002 10.7099 8.46002 10.1999C8.83002 10.0999 9.20998 10.2899 9.34998 10.6499C9.67998 11.4799 10.39 12.1199 11.25 12.3499C11.72 12.4799 12.28 12.4799 12.75 12.3499C13.12 12.2499 13.51 12.4399 13.65 12.7899C13.85 13.2999 13.95 13.8399 13.95 14.3899C13.95 15.6299 13.42 16.8099 12.5 17.6299C11.71 18.3499 10.68 18.7499 9.59998 18.7499ZM8.28998 11.8699C7.35998 12.3499 6.75 13.3199 6.75 14.3999C6.75 15.9699 8.02998 17.2499 9.59998 17.2499C10.3 17.2499 10.98 16.9899 11.5 16.5199C12.11 15.9799 12.45 15.2099 12.45 14.3999C12.45 14.2399 12.44 14.0899 12.41 13.9299C11.88 13.9799 11.34 13.9299 10.85 13.7899C9.77998 13.4999 8.85998 12.7999 8.28998 11.8699Z" fill="#292D32"/>
<path d="M12.0002 13.9498C11.6002 13.9498 11.2102 13.8998 10.8502 13.7998C9.54016 13.4398 8.46021 12.4698 7.96021 11.2098C7.76021 10.6998 7.66016 10.1598 7.66016 9.60977C7.66016 7.20977 9.61019 5.25977 12.0102 5.25977C14.4102 5.25977 16.3602 7.20977 16.3602 9.60977C16.3602 10.1598 16.2602 10.6998 16.0602 11.2098C15.5602 12.4798 14.4702 13.4498 13.1602 13.7998C12.7902 13.8998 12.4002 13.9498 12.0002 13.9498ZM12.0002 6.74977C10.4302 6.74977 9.15021 8.02977 9.15021 9.59977C9.15021 9.95977 9.22016 10.3198 9.35016 10.6498C9.68016 11.4798 10.3902 12.1198 11.2502 12.3498C11.7202 12.4798 12.2802 12.4798 12.7502 12.3498C13.6202 12.1098 14.3302 11.4798 14.6502 10.6498C14.7802 10.3198 14.8502 9.95977 14.8502 9.59977C14.8502 8.02977 13.5702 6.74977 12.0002 6.74977Z" fill="#292D32"/>
<path d="M14.4 18.7501C13.32 18.7501 12.29 18.3501 11.5 17.6301C11.34 17.4901 11.25 17.2801 11.25 17.0701C11.25 16.8601 11.34 16.6501 11.5 16.5101C12.1 15.9801 12.45 15.2101 12.45 14.4001C12.45 14.0401 12.38 13.6801 12.25 13.3501C12.17 13.1501 12.18 12.9301 12.28 12.7401C12.37 12.5501 12.55 12.4101 12.75 12.3501C13.61 12.1101 14.32 11.4801 14.65 10.6501C14.79 10.3001 15.17 10.1001 15.54 10.2001C17.43 10.7101 18.75 12.4401 18.75 14.4001C18.75 16.8001 16.8 18.7501 14.4 18.7501ZM13.12 16.9501C13.51 17.1501 13.95 17.2501 14.4 17.2501C15.97 17.2501 17.25 15.9701 17.25 14.4001C17.25 13.3201 16.64 12.3501 15.71 11.8701C15.27 12.5901 14.62 13.1701 13.86 13.5301C13.92 13.8101 13.95 14.1001 13.95 14.4001C13.95 15.3201 13.66 16.2101 13.12 16.9501Z" fill="#292D32"/>
<path d="M15 22.75H9C3.57 22.75 1.25 20.43 1.25 15V9C1.25 3.57 3.57 1.25 9 1.25H15C20.43 1.25 22.75 3.57 22.75 9V15C22.75 20.43 20.43 22.75 15 22.75ZM9 2.75C4.39 2.75 2.75 4.39 2.75 9V15C2.75 19.61 4.39 21.25 9 21.25H15C19.61 21.25 21.25 19.61 21.25 15V9C21.25 4.39 19.61 2.75 15 2.75H9Z" fill="#292D32"/>
</svg>
