<svg width="24" height="24" viewBox="0 0 24 24" fill="none" xmlns="http://www.w3.org/2000/svg">
<path d="M22 6.31006H12C11.59 6.31006 11.25 5.97006 11.25 5.56006C11.25 5.15006 11.59 4.81006 12 4.81006H22C22.41 4.81006 22.75 5.15006 22.75 5.56006C22.75 5.98006 22.41 6.31006 22 6.31006Z" fill="#292D32"/>
<path d="M19.7798 11.25H14.2298C12.0398 11.25 11.2598 10.48 11.2598 8.3V4.2C11.2598 2.02 12.0398 1.25 14.2298 1.25H19.7798C21.9698 1.25 22.7498 2.02 22.7498 4.2V8.31C22.7498 10.48 21.9698 11.25 19.7798 11.25ZM14.2198 2.75C12.8598 2.75 12.7498 2.86 12.7498 4.2V8.31C12.7498 9.65 12.8598 9.76 14.2198 9.76H19.7697C21.1297 9.76 21.2397 9.65 21.2397 8.31V4.2C21.2397 2.86 21.1297 2.75 19.7697 2.75H14.2198Z" fill="#292D32"/>
<path d="M12 17.8101H2C1.59 17.8101 1.25 17.4701 1.25 17.0601C1.25 16.6501 1.59 16.3101 2 16.3101H12C12.41 16.3101 12.75 16.6501 12.75 17.0601C12.75 17.4801 12.41 17.8101 12 17.8101Z" fill="#292D32"/>
<path d="M9.77975 22.75H4.22977C2.03977 22.75 1.25977 21.98 1.25977 19.8V15.7C1.25977 13.52 2.03977 12.75 4.22977 12.75H9.77975C11.9698 12.75 12.7498 13.52 12.7498 15.7V19.81C12.7498 21.98 11.9698 22.75 9.77975 22.75ZM4.21976 14.25C2.85976 14.25 2.74976 14.36 2.74976 15.7V19.81C2.74976 21.15 2.85976 21.26 4.21976 21.26H9.76974C11.1297 21.26 11.2397 21.15 11.2397 19.81V15.7C11.2397 14.36 11.1297 14.25 9.76974 14.25H4.21976Z" fill="#292D32"/>
<path d="M15.0002 22.7502C14.7302 22.7502 14.4802 22.6002 14.3502 22.3702C14.2202 22.1302 14.2202 21.8502 14.3602 21.6102L15.4102 19.8602C15.6202 19.5102 16.0802 19.3902 16.4402 19.6002C16.8002 19.8102 16.9102 20.2702 16.7002 20.6302L16.4302 21.0802C19.1902 20.4302 21.2602 17.9502 21.2602 14.9902C21.2602 14.5802 21.6002 14.2402 22.0102 14.2402C22.4202 14.2402 22.7602 14.5802 22.7602 14.9902C22.7502 19.2702 19.2702 22.7502 15.0002 22.7502Z" fill="#292D32"/>
<path d="M2 9.75C1.59 9.75 1.25 9.41 1.25 9C1.25 4.73 4.73 1.25 9 1.25C9.27 1.25 9.51999 1.4 9.64999 1.63C9.77999 1.87 9.78001 2.15 9.64001 2.39L8.59 4.14C8.38 4.49 7.92 4.61 7.56 4.4C7.2 4.19 7.08999 3.73 7.29999 3.37L7.57001 2.92C4.81001 3.57 2.73999 6.05 2.73999 9.01C2.74999 9.41 2.41 9.75 2 9.75Z" fill="#292D32"/>
</svg>
