<svg width="24" height="24" viewBox="0 0 24 24" fill="none" xmlns="http://www.w3.org/2000/svg">
<path d="M12 22.75C6.07 22.75 1.25 17.93 1.25 12C1.25 6.07 6.07 1.25 12 1.25C17.93 1.25 22.75 6.07 22.75 12C22.75 17.93 17.93 22.75 12 22.75ZM12 2.75C6.9 2.75 2.75 6.9 2.75 12C2.75 17.1 6.9 21.25 12 21.25C17.1 21.25 21.25 17.1 21.25 12C21.25 6.9 17.1 2.75 12 2.75Z" fill="#292D32"/>
<path d="M15.0002 16C14.4402 16 13.9902 15.55 13.9902 15C13.9902 14.45 14.4402 14 14.9902 14C15.5402 14 15.9902 14.45 15.9902 15C15.9902 15.55 15.5502 16 15.0002 16Z" fill="#292D32"/>
<path d="M9.01001 10C8.45001 10 8 9.55 8 9C8 8.45 8.45 8 9 8C9.55 8 10 8.45 10 9C10 9.55 9.56001 10 9.01001 10Z" fill="#292D32"/>
<path d="M8.99948 15.75C8.80948 15.75 8.61945 15.68 8.46945 15.53C8.17945 15.24 8.17945 14.7599 8.46945 14.4699L14.4695 8.46994C14.7595 8.17994 15.2395 8.17994 15.5295 8.46994C15.8195 8.75994 15.8195 9.24 15.5295 9.53L9.52951 15.53C9.37951 15.68 9.18948 15.75 8.99948 15.75Z" fill="#292D32"/>
</svg>
