<svg width="24" height="24" viewBox="0 0 24 24" fill="none" xmlns="http://www.w3.org/2000/svg">
<path d="M11.38 18.8999C11.05 18.8999 10.72 18.8199 10.42 18.6499C9.81 18.3099 9.44 17.6899 9.44 16.9899V13.9099C9.44 13.7199 9.29 13.3499 9.14 13.1599L6.97 10.8799C6.56 10.4699 6.25 9.7499 6.25 9.1999V7.8699C6.25 6.7599 7.09 5.8999 8.16 5.8999H15.83C16.88 5.8999 17.74 6.7599 17.74 7.8099V9.0899C17.74 9.7899 17.34 10.5599 16.94 10.9599L14.41 13.1999C14.25 13.3399 14.08 13.6899 14.08 13.9799V16.4799C14.08 17.1099 13.7 17.8099 13.19 18.1099L12.4 18.6199C12.09 18.8099 11.74 18.8999 11.38 18.8999ZM8.16 7.3999C7.92 7.3999 7.75 7.5999 7.75 7.8699V9.1999C7.75 9.3299 7.89 9.6699 8.05 9.8299L10.27 12.1699C10.61 12.5999 10.94 13.2899 10.94 13.9099V16.9899C10.94 17.1899 11.07 17.2999 11.15 17.3399C11.26 17.3999 11.44 17.4399 11.6 17.3399L12.4 16.8199C12.48 16.7599 12.58 16.5599 12.58 16.4599V13.9599C12.58 13.2499 12.93 12.4599 13.43 12.0499L15.91 9.8499C16.04 9.7199 16.24 9.3199 16.24 9.0699V7.8099C16.24 7.5899 16.05 7.3999 15.83 7.3999H8.16Z" fill="#292D32"/>
<path d="M15 22.75H9C3.57 22.75 1.25 20.43 1.25 15V9C1.25 3.57 3.57 1.25 9 1.25H15C20.43 1.25 22.75 3.57 22.75 9V15C22.75 20.43 20.43 22.75 15 22.75ZM9 2.75C4.39 2.75 2.75 4.39 2.75 9V15C2.75 19.61 4.39 21.25 9 21.25H15C19.61 21.25 21.25 19.61 21.25 15V9C21.25 4.39 19.61 2.75 15 2.75H9Z" fill="#292D32"/>
</svg>
