<svg width="24" height="24" viewBox="0 0 24 24" fill="none" xmlns="http://www.w3.org/2000/svg">
<path d="M6.44922 22.75C6.03922 22.75 5.69922 22.41 5.69922 22V2C5.69922 1.59 6.03922 1.25 6.44922 1.25C6.85922 1.25 7.19922 1.59 7.19922 2V22C7.19922 22.41 6.85922 22.75 6.44922 22.75Z" fill="#292D32"/>
<path d="M6.94907 17.7501C6.66907 17.7501 6.40907 17.6001 6.27907 17.3301C6.09907 16.9601 6.24907 16.5101 6.61907 16.3301L14.9191 12.2301C16.1391 11.6001 16.8291 10.8401 16.7991 10.1301C16.7691 9.44011 16.0291 8.73011 14.7591 8.19011L6.65907 4.69011C6.26907 4.52011 6.09907 4.08011 6.25907 3.70011C6.41907 3.32011 6.86907 3.14011 7.24907 3.31011L15.3491 6.81011C17.8491 7.87011 18.2691 9.31011 18.2991 10.0701C18.3491 11.4001 17.3891 12.6401 15.5991 13.5601L7.28907 17.6701C7.17907 17.7301 7.05907 17.7501 6.94907 17.7501Z" fill="#292D32"/>
</svg>
