<svg width="24" height="24" viewBox="0 0 24 24" fill="none" xmlns="http://www.w3.org/2000/svg">
<path d="M9.98969 22.75C9.78969 22.75 9.62969 22.71 9.50969 22.66C9.10969 22.51 8.42969 22.02 8.42969 20.47V18.03C8.42969 17.62 8.76969 17.28 9.17969 17.28C9.58969 17.28 9.92969 17.62 9.92969 18.03V20.47C9.92969 20.97 10.0197 21.19 10.0597 21.25C10.0897 21.21 10.2997 21.11 10.6297 20.73L18.1997 12.13C18.4797 11.81 18.5197 11.61 18.5197 11.57C18.4997 11.56 18.3197 11.46 17.8997 11.46H16.9697C16.5597 11.46 16.2197 11.12 16.2197 10.71C16.2197 10.3 16.5597 9.95996 16.9697 9.95996H17.8997C19.2397 9.95996 19.7197 10.59 19.8897 10.96C20.0597 11.34 20.2097 12.11 19.3297 13.12L11.7597 21.72C11.0497 22.54 10.4297 22.75 9.98969 22.75Z" fill="#292D32"/>
<path d="M9.18057 15.2199C8.77057 15.2199 8.43057 14.8799 8.43057 14.4699V14.0399H6.09057C4.75057 14.0399 4.27057 13.4099 4.10057 13.0399C3.93057 12.6599 3.78057 11.8899 4.66057 10.8799L12.2306 2.2799C13.2506 1.1199 14.0806 1.1999 14.4806 1.3499C14.8806 1.4999 15.5606 1.9899 15.5606 3.5399V8.8499C15.5606 9.2599 15.2206 9.5999 14.8106 9.5999C14.4006 9.5999 14.0606 9.2599 14.0606 8.8499V3.5199C14.0606 3.0199 13.9706 2.7999 13.9306 2.7399C13.9006 2.7799 13.6906 2.8799 13.3606 3.2599L5.79057 11.8599C5.51057 12.1799 5.47057 12.3799 5.47057 12.4199C5.49057 12.4299 5.67057 12.5299 6.09057 12.5299H9.18057C9.59057 12.5299 9.93057 12.8699 9.93057 13.2799V14.4599C9.93057 14.8799 9.59057 15.2199 9.18057 15.2199Z" fill="#292D32"/>
<path d="M1.99945 22.7499C1.80945 22.7499 1.61945 22.6799 1.46945 22.5299C1.17945 22.2399 1.17945 21.7599 1.46945 21.4699L21.4695 1.46994C21.7595 1.17994 22.2395 1.17994 22.5295 1.46994C22.8195 1.75994 22.8195 2.23994 22.5295 2.52994L2.52945 22.5299C2.37945 22.6799 2.18945 22.7499 1.99945 22.7499Z" fill="#292D32"/>
</svg>
