<svg width="24" height="24" viewBox="0 0 24 24" fill="none" xmlns="http://www.w3.org/2000/svg">
<path d="M9 10.75C7.48 10.75 6.25 9.52 6.25 8C6.25 6.48 7.48 5.25 9 5.25C10.52 5.25 11.75 6.48 11.75 8C11.75 9.52 10.52 10.75 9 10.75ZM9 6.75C8.31 6.75 7.75 7.31 7.75 8C7.75 8.69 8.31 9.25 9 9.25C9.69 9.25 10.25 8.69 10.25 8C10.25 7.31 9.69 6.75 9 6.75Z" fill="#292D32"/>
<path d="M15 22.75H9C3.57 22.75 1.25 20.43 1.25 15V9C1.25 3.57 3.57 1.25 9 1.25H13C13.41 1.25 13.75 1.59 13.75 2C13.75 2.41 13.41 2.75 13 2.75H9C4.39 2.75 2.75 4.39 2.75 9V15C2.75 19.61 4.39 21.25 9 21.25H15C19.61 21.25 21.25 19.61 21.25 15V10C21.25 9.59 21.59 9.25 22 9.25C22.41 9.25 22.75 9.59 22.75 10V15C22.75 20.43 20.43 22.75 15 22.75Z" fill="#292D32"/>
<path d="M15.6709 9.74994C15.2809 9.74994 14.9209 9.60994 14.6609 9.33994C14.3509 9.02994 14.2009 8.56994 14.2709 8.09994L14.4709 6.70994C14.5209 6.35994 14.7309 5.92994 14.9909 5.67994L18.6209 2.04994C20.0709 0.599939 21.3309 1.42994 21.9509 2.04994C22.5409 2.63994 22.8109 3.25994 22.7509 3.89994C22.7009 4.40994 22.4409 4.89994 21.9509 5.37994L18.3209 9.00994C18.0709 9.25994 17.6409 9.46994 17.2909 9.52994L15.9009 9.72994C15.8209 9.74994 15.7409 9.74994 15.6709 9.74994ZM19.6709 3.11994L16.0409 6.74994C16.0109 6.77994 15.9609 6.88994 15.9509 6.93994L15.7609 8.23994L17.0709 8.05994C17.1109 8.04994 17.2209 7.99994 17.2609 7.95994L20.8909 4.32994C21.1109 4.10994 21.2409 3.90994 21.2509 3.75994C21.2709 3.54994 21.0609 3.28994 20.8909 3.11994C20.3709 2.59994 20.1309 2.65994 19.6709 3.11994Z" fill="#292D32"/>
<path d="M20.9003 6.12976C20.8303 6.12976 20.7603 6.11976 20.7003 6.09976C19.3603 5.71976 18.2903 4.64976 17.9103 3.30976C17.8003 2.90976 18.0303 2.49976 18.4303 2.38976C18.8303 2.27976 19.2403 2.50976 19.3503 2.90976C19.5903 3.74976 20.2603 4.42976 21.1103 4.66976C21.5103 4.77976 21.7403 5.19976 21.6303 5.58976C21.5203 5.90976 21.2203 6.12976 20.9003 6.12976Z" fill="#292D32"/>
<path d="M2.66932 19.7001C2.42932 19.7001 2.18932 19.5801 2.04932 19.3701C1.81932 19.0301 1.90932 18.5601 2.24932 18.3301L7.17932 15.0201C8.25932 14.3001 9.74932 14.3801 10.7293 15.2101L11.0593 15.5001C11.5593 15.9301 12.4093 15.9301 12.8993 15.5001L17.0593 11.9301C18.1193 11.0201 19.7893 11.0201 20.8593 11.9301L22.4893 13.3301C22.7993 13.6001 22.8393 14.0701 22.5693 14.3901C22.2993 14.7001 21.8293 14.7401 21.5093 14.4701L19.8793 13.0701C19.3793 12.6401 18.5293 12.6401 18.0393 13.0701L13.8793 16.6401C12.8193 17.5501 11.1493 17.5501 10.0793 16.6401L9.74932 16.3501C9.28932 15.9601 8.52932 15.9201 8.01932 16.2701L3.09932 19.5801C2.95932 19.6601 2.80932 19.7001 2.66932 19.7001Z" fill="#292D32"/>
</svg>
