<svg width="24" height="24" viewBox="0 0 24 24" fill="none" xmlns="http://www.w3.org/2000/svg">
<path d="M15.8393 22.75H8.15926C5.47926 22.75 4.25926 21.75 3.71926 20.92C2.92926 19.7 2.95926 18.03 3.80926 16.09L7.63926 7.39C7.10926 7.25 6.61926 6.97 6.22926 6.58C5.65926 6 5.31926 5.2 5.31926 4.37C5.31926 2.65 6.71926 1.25 8.43926 1.25H15.5493C16.3793 1.25 17.1693 1.58 17.7593 2.17C18.5393 2.95 18.8493 4.06 18.5893 5.13C18.3293 6.2 17.4493 7.05 16.3693 7.36L20.1893 16.1C21.0293 18.03 21.0593 19.7 20.2593 20.92C19.7193 21.75 18.4993 22.75 15.8393 22.75ZM8.43926 2.75C7.54926 2.75 6.81926 3.48 6.81926 4.37C6.81926 4.8 6.99926 5.22 7.28926 5.52C7.58926 5.82 8.00926 5.99 8.43926 5.99H8.73926C8.98926 5.99 9.22926 6.12 9.36926 6.33C9.50926 6.54 9.52926 6.81 9.42926 7.04L5.17926 16.69C4.54926 18.13 4.46926 19.34 4.96926 20.1C5.58926 21.05 7.03926 21.25 8.14926 21.25H15.8293C16.9293 21.25 18.3693 21.05 18.9993 20.1C19.4993 19.33 19.4293 18.13 18.8093 16.7L14.5993 7.04C14.4993 6.81 14.5193 6.54 14.6593 6.33C14.7993 6.12 15.0293 5.99 15.2893 5.99H15.4493C16.2493 5.99 16.9693 5.48 17.1393 4.77C17.2793 4.2 17.1193 3.64 16.7093 3.23C16.3993 2.92 15.9893 2.75 15.5593 2.75H8.43926Z" fill="#292D32"/>
<path d="M13.8406 15.0401C13.1806 15.0401 12.4706 14.9501 11.7606 14.7101C8.92055 13.7601 5.99055 13.8601 5.96055 13.8601C5.56055 13.9201 5.20055 13.5501 5.18055 13.1401C5.16055 12.7301 5.49055 12.3801 5.90055 12.3601C6.03055 12.3501 9.14055 12.2501 12.2306 13.2801C14.8306 14.1501 17.3806 12.5001 17.4106 12.4801C17.7506 12.2501 18.2206 12.3501 18.4506 12.6901C18.6806 13.0301 18.5906 13.5001 18.2406 13.7301C18.1506 13.8001 16.2506 15.0401 13.8406 15.0401Z" fill="#292D32"/>
</svg>
