<svg width="24" height="24" viewBox="0 0 24 24" fill="none" xmlns="http://www.w3.org/2000/svg">
<path d="M17.2004 22.7499C15.2604 22.7499 13.4404 21.7199 12.4504 20.0499C11.9304 19.2099 11.6504 18.2099 11.6504 17.1999C11.6504 14.1399 14.1404 11.6499 17.2004 11.6499C20.2604 11.6499 22.7504 14.1399 22.7504 17.1999C22.7504 18.2199 22.4704 19.2099 21.9404 20.0699C20.9604 21.7199 19.1404 22.7499 17.2004 22.7499ZM17.2004 13.1499C14.9704 13.1499 13.1504 14.9699 13.1504 17.1999C13.1504 17.9399 13.3504 18.6599 13.7304 19.2799C14.4704 20.5199 15.7604 21.2499 17.2004 21.2499C18.6404 21.2499 19.9304 20.5199 20.6604 19.2899C21.0504 18.6599 21.2504 17.9399 21.2504 17.1999C21.2504 14.9699 19.4304 13.1499 17.2004 13.1499Z" fill="#292D32"/>
<path d="M16.5095 19.13C16.3195 19.13 16.1295 19.06 15.9795 18.91L14.7995 17.73C14.5095 17.44 14.5095 16.96 14.7995 16.67C15.0895 16.38 15.5695 16.38 15.8595 16.67L16.5295 17.3401L18.5595 15.4601C18.8695 15.1801 19.3395 15.2 19.6195 15.5C19.8995 15.8 19.8795 16.28 19.5795 16.56L17.0195 18.92C16.8795 19.07 16.6895 19.13 16.5095 19.13Z" fill="#292D32"/>
<path d="M12 21.6501C11.69 21.6501 11.38 21.6101 11.13 21.5201C8.57 20.6501 1.25 16.4101 1.25 8.69012C1.25 5.19012 4.08 2.3501 7.56 2.3501C9.22 2.3501 10.83 3.02012 12 4.19012C13.17 3.02012 14.78 2.3501 16.44 2.3501C19.92 2.3501 22.75 5.19012 22.75 8.69012C22.75 10.6401 22.28 12.5101 21.35 14.2601C21.24 14.4701 21.03 14.6201 20.79 14.6501C20.55 14.6801 20.31 14.6001 20.14 14.4201C19.36 13.6001 18.32 13.1401 17.2 13.1401C14.97 13.1401 13.15 14.9601 13.15 17.1901C13.15 18.1801 13.52 19.1401 14.19 19.8901C14.35 20.0701 14.41 20.3101 14.36 20.5401C14.31 20.7701 14.15 20.9701 13.94 21.0701C13.54 21.2501 13.18 21.4001 12.85 21.5101C12.61 21.6101 12.31 21.6501 12 21.6501ZM7.56 3.8501C4.91 3.8501 2.75 6.02012 2.75 8.69012C2.75 15.5301 9.32 19.3101 11.62 20.1001C11.81 20.1701 12.19 20.1601 12.37 20.1001C12.4 20.0901 12.43 20.0801 12.46 20.0701C11.93 19.2101 11.65 18.2201 11.65 17.2001C11.65 14.1401 14.14 11.6501 17.2 11.6501C18.36 11.6501 19.5 12.0201 20.44 12.7001C20.98 11.4201 21.25 10.0801 21.25 8.69012C21.25 6.02012 19.09 3.8501 16.44 3.8501C14.94 3.8501 13.5 4.57015 12.6 5.78015C12.32 6.16015 11.68 6.16015 11.4 5.78015C10.5 4.57015 9.06 3.8501 7.56 3.8501Z" fill="#292D32"/>
</svg>
