<svg width="24" height="24" viewBox="0 0 24 24" fill="none" xmlns="http://www.w3.org/2000/svg">
<path d="M21 7.75C20.59 7.75 20.25 7.41 20.25 7V3.75H17C16.59 3.75 16.25 3.41 16.25 3C16.25 2.59 16.59 2.25 17 2.25H21C21.41 2.25 21.75 2.59 21.75 3V7C21.75 7.41 21.41 7.75 21 7.75Z" fill="#292D32"/>
<path d="M14.9995 9.74997C14.8095 9.74997 14.6195 9.68 14.4695 9.53C14.1795 9.24 14.1795 8.75994 14.4695 8.46994L20.4695 2.46994C20.7595 2.17994 21.2395 2.17994 21.5295 2.46994C21.8195 2.75994 21.8195 3.24 21.5295 3.53L15.5295 9.53C15.3795 9.68 15.1895 9.74997 14.9995 9.74997Z" fill="#292D32"/>
<path d="M7 21.75H3C2.59 21.75 2.25 21.41 2.25 21V17C2.25 16.59 2.59 16.25 3 16.25C3.41 16.25 3.75 16.59 3.75 17V20.25H7C7.41 20.25 7.75 20.59 7.75 21C7.75 21.41 7.41 21.75 7 21.75Z" fill="#292D32"/>
<path d="M2.99948 21.75C2.80948 21.75 2.61945 21.68 2.46945 21.53C2.17945 21.24 2.17945 20.7599 2.46945 20.4699L8.46945 14.4699C8.75945 14.1799 9.23951 14.1799 9.52951 14.4699C9.81951 14.7599 9.81951 15.24 9.52951 15.53L3.52951 21.53C3.37951 21.68 3.18948 21.75 2.99948 21.75Z" fill="#292D32"/>
<path d="M2.20001 14.75C1.85001 14.75 1.53997 14.5 1.46997 14.15C1.32997 13.45 1.25 12.72 1.25 12C1.25 6.07 6.07 1.25 12 1.25C12.73 1.25 13.46 1.31997 14.17 1.46997C14.58 1.54997 14.84 1.94998 14.76 2.34998C14.68 2.75998 14.27 3.01 13.88 2.94C13.27 2.82 12.64 2.75 12.01 2.75C6.91001 2.75 2.76001 6.9 2.76001 12C2.76001 12.62 2.82001 13.25 2.95001 13.85C3.03001 14.26 2.76999 14.65 2.35999 14.73C2.29999 14.75 2.25001 14.75 2.20001 14.75Z" fill="#292D32"/>
<path d="M12.001 22.7503C11.271 22.7503 10.541 22.6803 9.83103 22.5303C9.42103 22.4503 9.161 22.0503 9.241 21.6503C9.321 21.2403 9.73101 20.9903 10.121 21.0603C10.731 21.1803 11.361 21.2503 11.991 21.2503C17.091 21.2503 21.241 17.1003 21.241 12.0003C21.241 11.3803 21.181 10.7603 21.061 10.1503C20.981 9.74031 21.241 9.3503 21.651 9.2703C22.051 9.1903 22.451 9.45027 22.531 9.86027C22.671 10.5603 22.741 11.2803 22.741 12.0003C22.751 17.9303 17.931 22.7503 12.001 22.7503Z" fill="#292D32"/>
</svg>
