<svg width="24" height="24" viewBox="0 0 24 24" fill="none" xmlns="http://www.w3.org/2000/svg">
<path d="M12 15.75C7.86 15.75 4.5 12.5 4.5 8.5C4.5 4.5 7.86 1.25 12 1.25C16.14 1.25 19.5 4.5 19.5 8.5C19.5 12.5 16.14 15.75 12 15.75ZM12 2.75C8.69 2.75 6 5.33 6 8.5C6 11.67 8.69 14.25 12 14.25C15.31 14.25 18 11.67 18 8.5C18 5.33 15.31 2.75 12 2.75Z" fill="#292D32"/>
<path d="M15.62 22.7501C15.34 22.7501 15.06 22.6801 14.77 22.5501L12.08 21.2801C12.05 21.2701 11.94 21.2701 11.9 21.2801L9.23002 22.5401C8.64002 22.8201 8.02001 22.8101 7.54001 22.5001C7.04001 22.1801 6.75002 21.5901 6.76002 20.8901L6.77 13.5101C6.77 13.1001 7.09 12.7401 7.52 12.7601C7.93 12.7601 8.27 13.1001 8.27 13.5101L8.26002 20.8901C8.26002 21.1101 8.32001 21.2201 8.35001 21.2301C8.37001 21.2401 8.46001 21.2501 8.60001 21.1801L11.28 19.9101C11.71 19.7101 12.3 19.7101 12.73 19.9101L15.42 21.1801C15.56 21.2501 15.65 21.2401 15.67 21.2301C15.7 21.2101 15.76 21.1001 15.76 20.8901V13.3301C15.76 12.9201 16.1 12.5801 16.51 12.5801C16.92 12.5801 17.26 12.9201 17.26 13.3301V20.8901C17.26 21.6001 16.97 22.1801 16.47 22.5001C16.21 22.6701 15.92 22.7501 15.62 22.7501Z" fill="#292D32"/>
</svg>
