<svg width="24" height="24" viewBox="0 0 24 24" fill="none" xmlns="http://www.w3.org/2000/svg">
<path d="M16 22.75H3C2.04 22.75 1.25 21.96 1.25 21V8C1.25 3.58 3.58 1.25 8 1.25H16C20.42 1.25 22.75 3.58 22.75 8V16C22.75 20.42 20.42 22.75 16 22.75ZM8 2.75C4.42 2.75 2.75 4.42 2.75 8V21C2.75 21.14 2.86 21.25 3 21.25H16C19.58 21.25 21.25 19.58 21.25 16V8C21.25 4.42 19.58 2.75 16 2.75H8Z" fill="#292D32"/>
<path d="M17 10.25H7C6.59 10.25 6.25 9.91 6.25 9.5C6.25 9.09 6.59 8.75 7 8.75H17C17.41 8.75 17.75 9.09 17.75 9.5C17.75 9.91 17.41 10.25 17 10.25Z" fill="#292D32"/>
<path d="M14 15.25H7C6.59 15.25 6.25 14.91 6.25 14.5C6.25 14.09 6.59 13.75 7 13.75H14C14.41 13.75 14.75 14.09 14.75 14.5C14.75 14.91 14.41 15.25 14 15.25Z" fill="#292D32"/>
</svg>
