<svg width="24" height="24" viewBox="0 0 24 24" fill="none" xmlns="http://www.w3.org/2000/svg">
<path d="M6.28016 22.7498C4.15016 22.7498 2.41016 21.0098 2.41016 18.8798C2.41016 16.7498 4.15016 15.0098 6.28016 15.0098C8.41016 15.0098 10.1502 16.7498 10.1502 18.8798C10.1502 21.0098 8.41016 22.7498 6.28016 22.7498ZM6.28016 16.5098C4.97016 16.5098 3.91016 17.5698 3.91016 18.8798C3.91016 20.1898 4.97016 21.2498 6.28016 21.2498C7.59016 21.2498 8.65016 20.1898 8.65016 18.8798C8.65016 17.5698 7.59016 16.5098 6.28016 16.5098Z" fill="#292D32"/>
<path d="M9.40039 19.6301C8.99039 19.6301 8.65039 19.2901 8.65039 18.8801V6.30013C8.65039 4.72013 9.60039 3.48013 11.1204 3.07013L17.3604 1.37013C18.6304 1.02013 19.7004 1.15013 20.4504 1.73013C21.2104 2.31013 21.5904 3.28013 21.5904 4.61013V16.8101C21.5904 17.2201 21.2504 17.5601 20.8404 17.5601C20.4304 17.5601 20.0904 17.2201 20.0904 16.8101V4.60013C20.0904 4.02013 19.9904 3.26013 19.5404 2.92013C19.0504 2.54013 18.2104 2.69013 17.7504 2.82013L11.5104 4.52013C10.6404 4.76013 10.1504 5.41013 10.1504 6.31013V18.8901C10.1504 19.2901 9.81039 19.6301 9.40039 19.6301Z" fill="#292D32"/>
<path d="M17.7196 20.6702C15.5896 20.6702 13.8496 18.9302 13.8496 16.8002C13.8496 14.6702 15.5896 12.9302 17.7196 12.9302C19.8496 12.9302 21.5896 14.6702 21.5896 16.8002C21.5896 18.9302 19.8496 20.6702 17.7196 20.6702ZM17.7196 14.4302C16.4096 14.4302 15.3496 15.4902 15.3496 16.8002C15.3496 18.1102 16.4096 19.1702 17.7196 19.1702C19.0296 19.1702 20.0896 18.1102 20.0896 16.8002C20.0896 15.4902 19.0296 14.4302 17.7196 14.4302Z" fill="#292D32"/>
<path d="M9.3998 10.2698C9.0698 10.2698 8.7698 10.0498 8.6798 9.71978C8.5698 9.31978 8.7998 8.89978 9.1998 8.78978L20.6398 5.66978C21.0398 5.55978 21.4498 5.79978 21.5598 6.19978C21.6698 6.59978 21.4298 7.00978 21.0298 7.11978L9.5998 10.2398C9.5298 10.2598 9.4598 10.2698 9.3998 10.2698Z" fill="#292D32"/>
</svg>
