<svg width="24" height="24" viewBox="0 0 24 24" fill="none" xmlns="http://www.w3.org/2000/svg">
<path d="M18.2512 14.22C18.0612 14.22 17.8612 14.14 17.7212 14L12.0512 8.33001C11.8012 8.08001 11.7612 7.70001 11.9512 7.40001L13.7212 4.59996C14.2012 3.82996 14.9512 3.36 15.8112 3.26C16.7612 3.15 17.7712 3.54 18.5512 4.32L21.7312 7.49999C22.4812 8.24999 22.8512 9.24999 22.7412 10.25C22.6412 11.12 22.1812 11.8699 21.4612 12.3299L18.6612 14.1C18.5312 14.18 18.3912 14.22 18.2512 14.22ZM13.5412 7.7L18.3612 12.52L20.6512 11.07C20.9912 10.86 21.2012 10.51 21.2412 10.09C21.3012 9.56002 21.0812 8.99 20.6612 8.57L17.4812 5.39C17.0212 4.93 16.4712 4.7 15.9712 4.76C15.5712 4.8 15.2312 5.02996 14.9912 5.40996L13.5412 7.7Z" fill="#292D32"/>
<path d="M6.62912 22.75C5.68912 22.75 4.8591 22.4201 4.2391 21.8001C3.5191 21.0801 3.1991 20.07 3.3291 18.95L4.30911 10.67C4.35911 10.26 4.72913 9.97003 5.13913 10.01C5.54913 10.06 5.8491 10.43 5.7991 10.84L4.81912 19.12C4.73912 19.77 4.9091 20.34 5.2991 20.73C5.6891 21.12 6.26911 21.3 6.92911 21.22L15.6491 20.19C17.5091 19.97 17.9191 19.47 17.7391 17.65L17.4991 13.5C17.4791 13.09 17.7891 12.73 18.2091 12.71C18.6191 12.69 18.9791 13.0001 18.9991 13.4201L19.2391 17.5401C19.4991 20.1201 18.4791 21.37 15.8291 21.69L7.1091 22.72C6.9491 22.74 6.78912 22.75 6.62912 22.75Z" fill="#292D32"/>
<path d="M12.5801 8.56023C12.5601 8.56023 12.5501 8.56023 12.5301 8.56023L10.7801 8.45025C10.3701 8.42025 10.0501 8.07026 10.0801 7.65026C10.1101 7.23026 10.4601 6.92025 10.8801 6.95025L12.6301 7.06023C13.0401 7.09023 13.3601 7.44022 13.3301 7.86022C13.3001 8.25022 12.9701 8.56023 12.5801 8.56023Z" fill="#292D32"/>
<path d="M5.2807 21.5301C5.0907 21.5301 4.9007 21.4602 4.7507 21.3102C4.4607 21.0202 4.4607 20.5401 4.7507 20.2501L7.9307 17.07C8.2207 16.78 8.70069 16.78 8.99069 17.07C9.28069 17.36 9.28069 17.8401 8.99069 18.1301L5.8107 21.3102C5.6607 21.4602 5.4707 21.5301 5.2807 21.5301Z" fill="#292D32"/>
<path d="M6.5 11.75C5.91 11.75 5.34 11.65 4.81 11.47C3.65 11.08 2.65001 10.28 2.01001 9.21002C1.51001 8.39002 1.25 7.45 1.25 6.5C1.25 4.88 1.97001 3.39002 3.23001 2.40002C4.15001 1.66002 5.31 1.25 6.5 1.25C9.4 1.25 11.75 3.61 11.75 6.5C11.75 6.97 11.68 7.45997 11.55 7.90997C11.42 8.36997 11.24 8.79002 10.99 9.21002C10.7 9.69002 10.35 10.1 9.94 10.45C9 11.29 7.78 11.75 6.5 11.75ZM6.5 2.75C5.65 2.75 4.82 3.04001 4.16 3.57001C3.26 4.28001 2.75 5.34 2.75 6.5C2.75 7.17 2.94001 7.83999 3.29001 8.42999C3.75001 9.18999 4.46001 9.76998 5.29001 10.04C6.51001 10.47 7.94999 10.2 8.95999 9.31C9.24999 9.06 9.49999 8.75999 9.70999 8.42999C9.88999 8.12999 10.02 7.83 10.11 7.5C10.2 7.17 10.25 6.83 10.25 6.5C10.25 4.43 8.57 2.75 6.5 2.75Z" fill="#292D32"/>
<path d="M8.1608 7.25H4.80078C4.39078 7.25 4.05078 6.91 4.05078 6.5C4.05078 6.09 4.39078 5.75 4.80078 5.75H8.1608C8.5708 5.75 8.9108 6.09 8.9108 6.5C8.9108 6.91 8.5808 7.25 8.1608 7.25Z" fill="#292D32"/>
</svg>
