<svg width="24" height="24" viewBox="0 0 24 24" fill="none" xmlns="http://www.w3.org/2000/svg">
<path d="M18.0003 7.91002C17.9703 7.91002 17.9503 7.91002 17.9203 7.91002H17.8703C15.9803 7.85002 14.5703 6.39001 14.5703 4.59001C14.5703 2.75001 16.0703 1.26001 17.9003 1.26001C19.7303 1.26001 21.2303 2.76001 21.2303 4.59001C21.2203 6.40001 19.8103 7.86001 18.0103 7.92001C18.0103 7.91001 18.0103 7.91002 18.0003 7.91002ZM17.9003 2.75002C16.8903 2.75002 16.0703 3.57002 16.0703 4.58002C16.0703 5.57002 16.8403 6.37002 17.8303 6.41002C17.8403 6.40002 17.9203 6.40002 18.0103 6.41002C18.9803 6.36002 19.7303 5.56002 19.7403 4.58002C19.7403 3.57002 18.9203 2.75002 17.9003 2.75002Z" fill="#292D32"/>
<path d="M18.0105 15.2801C17.6205 15.2801 17.2305 15.2501 16.8405 15.1801C16.4305 15.1101 16.1605 14.7201 16.2305 14.3101C16.3005 13.9001 16.6905 13.6301 17.1005 13.7001C18.3305 13.9101 19.6305 13.6802 20.5005 13.1002C20.9705 12.7902 21.2205 12.4001 21.2205 12.0101C21.2205 11.6201 20.9605 11.2401 20.5005 10.9301C19.6305 10.3501 18.3105 10.1201 17.0705 10.3401C16.6605 10.4201 16.2705 10.1401 16.2005 9.73015C16.1305 9.32015 16.4005 8.93015 16.8105 8.86015C18.4405 8.57015 20.1305 8.88014 21.3305 9.68014C22.2105 10.2701 22.7205 11.1101 22.7205 12.0101C22.7205 12.9001 22.2205 13.7502 21.3305 14.3502C20.4205 14.9502 19.2405 15.2801 18.0105 15.2801Z" fill="#292D32"/>
<path d="M5.97047 7.91C5.96047 7.91 5.95047 7.91 5.95047 7.91C4.15047 7.85 2.74047 6.39 2.73047 4.59C2.73047 2.75 4.23047 1.25 6.06047 1.25C7.89047 1.25 9.39047 2.75 9.39047 4.58C9.39047 6.39 7.98047 7.85 6.18047 7.91L5.97047 7.16L6.04047 7.91C6.02047 7.91 5.99047 7.91 5.97047 7.91ZM6.07047 6.41C6.13047 6.41 6.18047 6.41 6.24047 6.42C7.13047 6.38 7.91047 5.58 7.91047 4.59C7.91047 3.58 7.09047 2.75999 6.08047 2.75999C5.07047 2.75999 4.25047 3.58 4.25047 4.59C4.25047 5.57 5.01047 6.36 5.98047 6.42C5.99047 6.41 6.03047 6.41 6.07047 6.41Z" fill="#292D32"/>
<path d="M5.96 15.2801C4.73 15.2801 3.55 14.9502 2.64 14.3502C1.76 13.7602 1.25 12.9101 1.25 12.0101C1.25 11.1201 1.76 10.2701 2.64 9.68014C3.84 8.88014 5.53 8.57015 7.16 8.86015C7.57 8.93015 7.84 9.32015 7.77 9.73015C7.7 10.1401 7.31 10.4201 6.9 10.3401C5.66 10.1201 4.35 10.3501 3.47 10.9301C3 11.2401 2.75 11.6201 2.75 12.0101C2.75 12.4001 3.01 12.7902 3.47 13.1002C4.34 13.6802 5.64 13.9101 6.87 13.7001C7.28 13.6301 7.67 13.9101 7.74 14.3101C7.81 14.7201 7.54 15.1101 7.13 15.1801C6.74 15.2501 6.35 15.2801 5.96 15.2801Z" fill="#292D32"/>
<path d="M12.0003 15.38C11.9703 15.38 11.9503 15.38 11.9203 15.38H11.8703C9.98031 15.32 8.57031 13.86 8.57031 12.06C8.57031 10.22 10.0703 8.72998 11.9003 8.72998C13.7303 8.72998 15.2303 10.23 15.2303 12.06C15.2203 13.87 13.8103 15.33 12.0103 15.39C12.0103 15.38 12.0103 15.38 12.0003 15.38ZM11.9003 10.22C10.8903 10.22 10.0703 11.04 10.0703 12.05C10.0703 13.04 10.8403 13.84 11.8303 13.88C11.8403 13.87 11.9203 13.87 12.0103 13.88C12.9803 13.83 13.7303 13.03 13.7403 12.05C13.7403 11.05 12.9203 10.22 11.9003 10.22Z" fill="#292D32"/>
<path d="M11.9993 22.76C10.7993 22.76 9.5993 22.45 8.6693 21.82C7.7893 21.23 7.2793 20.39 7.2793 19.49C7.2793 18.6 7.7793 17.74 8.6693 17.15C10.5393 15.91 13.4693 15.91 15.3293 17.15C16.2093 17.74 16.7193 18.58 16.7193 19.48C16.7193 20.37 16.2193 21.23 15.3293 21.82C14.3993 22.44 13.1993 22.76 11.9993 22.76ZM9.4993 18.41C9.0293 18.72 8.7793 19.11 8.7793 19.5C8.7793 19.89 9.0393 20.27 9.4993 20.58C10.8493 21.49 13.1393 21.49 14.4893 20.58C14.9593 20.27 15.2093 19.88 15.2093 19.49C15.2093 19.1 14.9493 18.72 14.4893 18.41C13.1493 17.5 10.8593 17.51 9.4993 18.41Z" fill="#292D32"/>
</svg>
