<svg width="24" height="24" viewBox="0 0 24 24" fill="none" xmlns="http://www.w3.org/2000/svg">
<path d="M10.5396 21.94C10.3096 21.94 10.0895 21.84 9.93954 21.64L8.92953 20.29C8.71953 20.01 8.43956 19.85 8.13956 19.83C7.82956 19.81 7.53953 19.95 7.29953 20.2C5.84953 21.75 4.74954 21.62 4.21954 21.42C3.67954 21.21 2.76953 20.52 2.76953 18.3V7.04001C2.76953 2.60001 4.04953 1.25 8.23953 1.25H15.7896C19.9796 1.25 21.2596 2.60001 21.2596 7.04001V11.3C21.2596 11.71 20.9196 12.05 20.5096 12.05C20.0996 12.05 19.7596 11.71 19.7596 11.3V7.04001C19.7596 3.43001 19.1296 2.75 15.7896 2.75H8.23953C4.89953 2.75 4.26953 3.43001 4.26953 7.04001V18.3C4.26953 19.35 4.52953 19.93 4.76953 20.02C4.94953 20.09 5.43955 19.99 6.19955 19.18C6.74955 18.6 7.46954 18.29 8.21954 18.33C8.95954 18.37 9.65955 18.76 10.1295 19.39L11.1495 20.74C11.3995 21.07 11.3295 21.54 10.9995 21.79C10.8495 21.9 10.6896 21.94 10.5396 21.94Z" fill="#292D32"/>
<path d="M16 7.75H8C7.59 7.75 7.25 7.41 7.25 7C7.25 6.59 7.59 6.25 8 6.25H16C16.41 6.25 16.75 6.59 16.75 7C16.75 7.41 16.41 7.75 16 7.75Z" fill="#292D32"/>
<path d="M15 11.75H9C8.59 11.75 8.25 11.41 8.25 11C8.25 10.59 8.59 10.25 9 10.25H15C15.41 10.25 15.75 10.59 15.75 11C15.75 11.41 15.41 11.75 15 11.75Z" fill="#292D32"/>
<path d="M14.8196 21.7801C14.4396 21.7801 14.0796 21.6401 13.8196 21.3801C13.5096 21.0701 13.3696 20.6201 13.4396 20.1501L13.6296 18.8001C13.6796 18.4501 13.8896 18.0301 14.1396 17.7801L17.6796 14.2401C18.1596 13.7601 18.6296 13.5101 19.1396 13.4601C19.7596 13.4001 20.3796 13.6601 20.9596 14.2401C21.5396 14.8201 21.7996 15.4301 21.7396 16.0601C21.6896 16.5601 21.4296 17.0401 20.9596 17.5201L17.4196 21.0601C17.1696 21.3101 16.7496 21.5201 16.3996 21.5701L15.0495 21.7601C14.9695 21.7701 14.8996 21.7801 14.8196 21.7801ZM19.3096 14.9501C19.2996 14.9501 19.2896 14.9501 19.2796 14.9501C19.1396 14.9601 18.9496 15.0901 18.7396 15.3001L15.1996 18.8401C15.1696 18.8701 15.1196 18.9701 15.1196 19.0101L14.9396 20.2601L16.1896 20.0801C16.2296 20.0701 16.3295 20.0201 16.3595 19.9901L19.8996 16.4501C20.1096 16.2301 20.2396 16.0501 20.2496 15.9101C20.2696 15.7101 20.0696 15.4701 19.8996 15.3001C19.7396 15.1401 19.5096 14.9501 19.3096 14.9501Z" fill="#292D32"/>
<path d="M19.9206 18.2499C19.8506 18.2499 19.7806 18.2399 19.7206 18.2199C18.4006 17.8499 17.3506 16.7999 16.9806 15.4799C16.8706 15.0799 17.1006 14.6699 17.5006 14.5499C17.9006 14.4399 18.3106 14.6699 18.4206 15.0699C18.6506 15.8899 19.3006 16.5399 20.1206 16.7699C20.5206 16.8799 20.7506 17.2999 20.6406 17.6999C20.5506 18.0299 20.2506 18.2499 19.9206 18.2499Z" fill="#292D32"/>
</svg>
