<svg width="24" height="24" viewBox="0 0 24 24" fill="none" xmlns="http://www.w3.org/2000/svg">
<path d="M18.9707 22.75H4.9707C1.2207 22.75 1.2207 20.67 1.2207 19V18C1.2207 17.04 2.0107 16.25 2.9707 16.25H20.9707C21.9307 16.25 22.7207 17.04 22.7207 18V19C22.7207 20.67 22.7207 22.75 18.9707 22.75ZM2.9707 17.75C2.8307 17.75 2.7207 17.86 2.7207 18V19C2.7207 20.64 2.7207 21.25 4.9707 21.25H18.9707C21.2207 21.25 21.2207 20.64 21.2207 19V18C21.2207 17.86 21.1107 17.75 20.9707 17.75H2.9707Z" fill="#292D32"/>
<path d="M20.7195 17.75H3.26953C2.85953 17.75 2.51953 17.41 2.51953 17V13C2.51953 8.9 5.42953 5.3 9.42953 4.45C10.0195 4.32 10.6395 4.25 11.2695 4.25H12.7195C13.3595 4.25 13.9795 4.32 14.5695 4.45C18.5695 5.31 21.4695 8.91 21.4695 13V17C21.4695 17.41 21.1395 17.75 20.7195 17.75ZM4.01953 16.25H19.9695V13C19.9695 9.61 17.5695 6.63 14.2495 5.91C13.7595 5.8 13.2495 5.75 12.7195 5.75H11.2695C10.7495 5.75 10.2395 5.8 9.74953 5.91C6.42953 6.62 4.01953 9.6 4.01953 13V16.25Z" fill="#292D32"/>
<path d="M9.59 5.93C9.26 5.93 8.96 5.71 8.87 5.38C8.79 5.09 8.75 4.8 8.75 4.5C8.75 2.71 10.21 1.25 12 1.25C13.79 1.25 15.25 2.71 15.25 4.5C15.25 4.8 15.21 5.09 15.13 5.38C15.03 5.76 14.65 6 14.25 5.91C13.76 5.8 13.25 5.75 12.72 5.75H11.27C10.75 5.75 10.24 5.8 9.75 5.91C9.7 5.92 9.65 5.93 9.59 5.93ZM11.27 4.25H12.72C13.06 4.25 13.41 4.27 13.74 4.31C13.65 3.43 12.9 2.75 12 2.75C11.1 2.75 10.36 3.43 10.26 4.31C10.6 4.27 10.93 4.25 11.27 4.25Z" fill="#292D32"/>
<path d="M15 11.75H9C8.59 11.75 8.25 11.41 8.25 11C8.25 10.59 8.59 10.25 9 10.25H15C15.41 10.25 15.75 10.59 15.75 11C15.75 11.41 15.41 11.75 15 11.75Z" fill="#292D32"/>
</svg>
