<svg width="24" height="24" viewBox="0 0 24 24" fill="none" xmlns="http://www.w3.org/2000/svg">
<path d="M12.0001 22.7501C6.80008 22.7501 2.58008 18.5201 2.58008 13.3301C2.58008 11.4601 3.13008 9.65014 4.17008 8.09014C4.40008 7.75014 4.87008 7.65014 5.21008 7.88014C5.55008 8.11014 5.65008 8.58014 5.42008 8.92014C4.55008 10.2201 4.09008 11.7501 4.09008 13.3201C4.09008 17.6901 7.64008 21.2401 12.0101 21.2401C16.3801 21.2401 19.9301 17.6901 19.9301 13.3201C19.9301 8.95014 16.3701 5.40014 12.0001 5.40014C11.0801 5.40014 10.1801 5.53014 9.33008 5.79014C8.93008 5.91014 8.51008 5.69014 8.39008 5.29014C8.27008 4.89014 8.49008 4.47014 8.89008 4.35014C9.89008 4.05014 10.9301 3.89014 12.0001 3.89014C17.2001 3.89014 21.4201 8.12014 21.4201 13.3101C21.4201 18.5001 17.2001 22.7501 12.0001 22.7501Z" fill="#292D32"/>
<path d="M7.87036 6.07012C7.70036 6.07012 7.52036 6.01012 7.38036 5.89012C7.06036 5.61012 7.03036 5.14012 7.30036 4.83012L10.1904 1.51012C10.4604 1.20012 10.9404 1.16012 11.2504 1.44012C11.5604 1.71012 11.5904 2.19012 11.3204 2.50012L8.43036 5.81012C8.28036 5.98012 8.07036 6.07012 7.87036 6.07012Z" fill="#292D32"/>
<path d="M11.2396 8.53013C11.0896 8.53013 10.9296 8.48013 10.7996 8.39013L7.41959 5.92013C7.08959 5.68013 7.01959 5.21013 7.25959 4.88013C7.49959 4.54013 7.96959 4.47013 8.30959 4.71013L11.6796 7.17013C12.0096 7.41013 12.0896 7.88013 11.8396 8.22013C11.6996 8.43013 11.4696 8.53013 11.2396 8.53013Z" fill="#292D32"/>
</svg>
