<svg width="24" height="24" viewBox="0 0 24 24" fill="none" xmlns="http://www.w3.org/2000/svg">
<path d="M18.4707 22.75H14.4707C12.0507 22.75 10.7207 21.42 10.7207 19V5C10.7207 2.58 12.0507 1.25 14.4707 1.25H18.4707C20.8907 1.25 22.2207 2.58 22.2207 5V19C22.2207 21.42 20.8807 22.75 18.4707 22.75ZM14.4707 2.75C12.8907 2.75 12.2207 3.42 12.2207 5V19C12.2207 20.58 12.8907 21.25 14.4707 21.25H18.4707C20.0507 21.25 20.7207 20.58 20.7207 19V5C20.7207 3.42 20.0507 2.75 18.4707 2.75H14.4707Z" fill="#292D32"/>
<path d="M16.4707 6.75H11.4707C11.0607 6.75 10.7207 6.41 10.7207 6C10.7207 5.59 11.0607 5.25 11.4707 5.25H16.4707C16.8807 5.25 17.2207 5.59 17.2207 6C17.2207 6.41 16.8807 6.75 16.4707 6.75Z" fill="#292D32"/>
<path d="M15.4707 18.75H11.4707C11.0607 18.75 10.7207 18.41 10.7207 18C10.7207 17.59 11.0607 17.25 11.4707 17.25H15.4707C15.8807 17.25 16.2207 17.59 16.2207 18C16.2207 18.41 15.8807 18.75 15.4707 18.75Z" fill="#292D32"/>
<path d="M16.4709 14.7502C16.4609 14.7502 16.4609 14.7502 16.4709 14.7502L11.4609 14.7002C11.0509 14.7002 10.7109 14.3602 10.7209 13.9402C10.7209 13.5302 11.0609 13.2002 11.4709 13.2002C11.4709 13.2002 11.4709 13.2002 11.4809 13.2002L16.4809 13.2502C16.8909 13.2502 17.2309 13.5902 17.2209 14.0102C17.2109 14.4202 16.8809 14.7502 16.4709 14.7502Z" fill="#292D32"/>
<path d="M14.4707 10.75H11.4707C11.0607 10.75 10.7207 10.41 10.7207 10C10.7207 9.59 11.0607 9.25 11.4707 9.25H14.4707C14.8807 9.25 15.2207 9.59 15.2207 10C15.2207 10.41 14.8807 10.75 14.4707 10.75Z" fill="#292D32"/>
<path d="M5.4893 22.72C4.5793 22.72 3.7193 22.16 3.1293 21.18L2.3093 19.82C2.0093 19.32 1.7793 18.5 1.7793 17.92V4.95C1.7793 2.91 3.4393 1.25 5.4793 1.25C7.5193 1.25 9.1793 2.91 9.1793 4.95V17.91C9.1793 18.49 8.9493 19.31 8.6493 19.81L7.8293 21.17C7.2593 22.16 6.3993 22.72 5.4893 22.72ZM5.4893 2.75C4.2793 2.75 3.2893 3.74 3.2893 4.95V17.91C3.2893 18.22 3.4393 18.77 3.5993 19.04L4.4193 20.4C4.7293 20.92 5.1193 21.21 5.4893 21.21C5.8593 21.21 6.2493 20.91 6.5593 20.4L7.3793 19.04C7.5393 18.77 7.6893 18.22 7.6893 17.91V4.95C7.6893 3.74 6.6993 2.75 5.4893 2.75Z" fill="#292D32"/>
<path d="M8.4393 7.75H2.5293C2.1193 7.75 1.7793 7.41 1.7793 7C1.7793 6.59 2.1193 6.25 2.5293 6.25H8.4393C8.8493 6.25 9.1893 6.59 9.1893 7C9.1893 7.41 8.8493 7.75 8.4393 7.75Z" fill="#292D32"/>
</svg>
