<svg width="24" height="24" viewBox="0 0 24 24" fill="none" xmlns="http://www.w3.org/2000/svg">
<path d="M12.0004 22.7599C10.9104 22.7599 9.83039 22.4399 8.98039 21.8099L4.68039 18.5999C3.54039 17.7499 2.65039 15.9699 2.65039 14.5599V7.11994C2.65039 5.57994 3.78039 3.93994 5.23039 3.39994L10.2204 1.52994C11.2104 1.15994 12.7704 1.15994 13.7604 1.52994L18.7504 3.39994C20.2004 3.93994 21.3304 5.57994 21.3304 7.11994V14.5499C21.3304 15.9699 20.4404 17.7399 19.3004 18.5899L15.0004 21.7999C14.1704 22.4399 13.0904 22.7599 12.0004 22.7599ZM10.7504 2.93994L5.76039 4.80994C4.91039 5.12994 4.16039 6.20994 4.16039 7.12994V14.5599C4.16039 15.5099 4.83039 16.8399 5.58039 17.3999L9.88039 20.6099C11.0304 21.4699 12.9704 21.4699 14.1304 20.6099L18.4304 17.3999C19.1904 16.8299 19.8504 15.5099 19.8504 14.5599V7.11994C19.8504 6.20994 19.1004 5.12994 18.2504 4.79994L13.2604 2.92994C12.5804 2.68994 11.4204 2.68994 10.7504 2.93994Z" fill="#292D32"/>
<path d="M10.6602 14.2301C10.4702 14.2301 10.2802 14.1601 10.1302 14.0101L8.52023 12.4001C8.23023 12.1101 8.23023 11.6301 8.52023 11.3401C8.81023 11.0501 9.29023 11.0501 9.58023 11.3401L10.6602 12.4201L14.4302 8.65012C14.7202 8.36012 15.2002 8.36012 15.4902 8.65012C15.7802 8.94012 15.7802 9.42012 15.4902 9.71012L11.1902 14.0101C11.0402 14.1601 10.8502 14.2301 10.6602 14.2301Z" fill="#292D32"/>
</svg>
