<svg width="24" height="24" viewBox="0 0 24 24" fill="none" xmlns="http://www.w3.org/2000/svg">
<path d="M17.6601 22.6701C17.1301 22.6701 16.4501 22.5001 15.6001 22.0001L12.6101 20.2301C12.3001 20.0501 11.7001 20.0501 11.4001 20.2301L8.40012 22.0001C6.63012 23.0501 5.59012 22.6301 5.12012 22.2901C4.66012 21.9501 3.94012 21.0801 4.41012 19.0801L5.12012 16.0101C5.20012 15.6901 5.04012 15.1401 4.80012 14.9001L2.32012 12.4201C1.08012 11.1801 1.18012 10.1201 1.35012 9.60007C1.52012 9.08007 2.06012 8.16007 3.78012 7.87007L6.97012 7.34007C7.27012 7.29007 7.70012 6.97007 7.83012 6.70007L9.60012 3.17007C10.4001 1.56007 11.4501 1.32007 12.0001 1.32007C12.5501 1.32007 13.6001 1.56007 14.4001 3.17007L16.1601 6.69007C16.3001 6.96007 16.7301 7.28007 17.0301 7.33007L20.2201 7.86007C21.9501 8.15007 22.4901 9.07007 22.6501 9.59007C22.8101 10.1101 22.9101 11.1701 21.6801 12.4101L19.2001 14.9001C18.9601 15.1401 18.8101 15.6801 18.8801 16.0101L19.5901 19.0801C20.0501 21.0801 19.3401 21.9501 18.8801 22.2901C18.6301 22.4701 18.2301 22.6701 17.6601 22.6701ZM12.0001 18.5901C12.4901 18.5901 12.9801 18.7101 13.3701 18.9401L16.3601 20.7101C17.2301 21.2301 17.7801 21.2301 17.9901 21.0801C18.2001 20.9301 18.3501 20.4001 18.1301 19.4201L17.4201 16.3501C17.2301 15.5201 17.5401 14.4501 18.1401 13.8401L20.6201 11.3601C21.1101 10.8701 21.3301 10.3901 21.2301 10.0601C21.1201 9.73007 20.6601 9.46007 19.9801 9.35007L16.7901 8.82007C16.0201 8.69007 15.1801 8.07007 14.8301 7.37007L13.0701 3.85007C12.7501 3.21007 12.3501 2.83007 12.0001 2.83007C11.6501 2.83007 11.2501 3.21007 10.9401 3.85007L9.17012 7.37007C8.82012 8.07007 7.98012 8.69007 7.21012 8.82007L4.03012 9.35007C3.35012 9.46007 2.89012 9.73007 2.78012 10.0601C2.67012 10.3901 2.90012 10.8801 3.39012 11.3601L5.87012 13.8401C6.47012 14.4401 6.78012 15.5201 6.59012 16.3501L5.88012 19.4201C5.65012 20.4101 5.81012 20.9301 6.02012 21.0801C6.23012 21.2301 6.77012 21.2201 7.65012 20.7101L10.6401 18.9401C11.0201 18.7101 11.5101 18.5901 12.0001 18.5901Z" fill="#292D32"/>
</svg>
