<svg width="24" height="24" viewBox="0 0 24 24" fill="none" xmlns="http://www.w3.org/2000/svg">
<path d="M14 22.75H10C4.57 22.75 2.25 20.43 2.25 15V9C2.25 3.57 4.57 1.25 10 1.25H14C19.43 1.25 21.75 3.57 21.75 9V15C21.75 20.43 19.43 22.75 14 22.75ZM10 2.75C5.39 2.75 3.75 4.39 3.75 9V15C3.75 19.61 5.39 21.25 10 21.25H14C18.61 21.25 20.25 19.61 20.25 15V9C20.25 4.39 18.61 2.75 14 2.75H10Z" fill="#292D32"/>
<path d="M15.0696 12.5401C14.8896 12.5401 14.7096 12.4701 14.5696 12.3501C13.1096 11.0501 10.8896 11.0501 9.42963 12.3501C9.26963 12.5001 9.04962 12.5601 8.81962 12.5301C8.59962 12.5001 8.40962 12.3701 8.28962 12.1801L6.10963 8.6801C5.91963 8.3701 5.97962 7.9701 6.24962 7.7201C9.52962 4.8101 14.4696 4.8101 17.7496 7.7201C18.0196 7.9601 18.0796 8.3701 17.8896 8.6801L15.7096 12.1801C15.5896 12.3701 15.3996 12.4901 15.1796 12.5301C15.1396 12.5301 15.0996 12.5401 15.0696 12.5401ZM11.9996 9.8701C12.9996 9.8701 13.9896 10.1501 14.8596 10.7001L16.2596 8.4501C13.7296 6.5701 10.2596 6.5701 7.72962 8.4501L9.12963 10.7001C10.0096 10.1401 10.9996 9.8701 11.9996 9.8701Z" fill="#292D32"/>
</svg>
