<svg width="24" height="24" viewBox="0 0 24 24" fill="none" xmlns="http://www.w3.org/2000/svg">
<path d="M18.209 15.44H5.78903C4.75903 15.44 3.84903 15.02 3.28903 14.29C2.72903 13.56 2.56903 12.57 2.83903 11.58L5.03903 3.5C5.37903 2.24 6.67903 1.25 7.98903 1.25H15.999C17.309 1.25 18.599 2.24 18.949 3.5L21.149 11.58C21.419 12.57 21.259 13.56 20.699 14.29C20.139 15.02 19.239 15.44 18.209 15.44ZM7.98903 2.75C7.35903 2.75 6.64903 3.29 6.48903 3.9L4.28903 11.98C4.13903 12.52 4.20903 13.02 4.48903 13.39C4.76903 13.76 5.22903 13.95 5.78903 13.95H18.209C18.769 13.95 19.239 13.75 19.509 13.39C19.779 13.03 19.859 12.53 19.709 11.98L17.509 3.9C17.339 3.29 16.639 2.75 16.009 2.75H7.98903V2.75Z" fill="#292D32"/>
<path d="M12 22.75C11.59 22.75 11.25 22.41 11.25 22V15C11.25 14.59 11.59 14.25 12 14.25C12.41 14.25 12.75 14.59 12.75 15V22C12.75 22.41 12.41 22.75 12 22.75Z" fill="#292D32"/>
<path d="M16 22.75H8C7.59 22.75 7.25 22.41 7.25 22C7.25 21.59 7.59 21.25 8 21.25H16C16.41 21.25 16.75 21.59 16.75 22C16.75 22.41 16.41 22.75 16 22.75Z" fill="#292D32"/>
</svg>
