<svg width="24" height="24" viewBox="0 0 24 24" fill="none" xmlns="http://www.w3.org/2000/svg">
<path d="M15.0311 11.5197C14.7911 11.5197 14.5511 11.3997 14.4111 11.1897L11.2111 6.40969C11.1011 6.23969 11.0611 6.0397 11.1011 5.8497C11.1411 5.6597 11.2511 5.47969 11.4211 5.36969L17.0811 1.57968C17.5211 1.27968 18.0511 1.17969 18.5711 1.27969C19.0911 1.37969 19.5411 1.67969 19.8411 2.11969L21.6611 4.82968C22.2711 5.73968 22.0311 6.97969 21.1111 7.58969L15.4611 11.3797C15.3211 11.4797 15.1811 11.5197 15.0311 11.5197ZM12.8811 6.1997L15.2411 9.7297L20.2711 6.35968C20.5011 6.20968 20.5611 5.89968 20.4011 5.67968L18.5811 2.96969C18.5111 2.85969 18.4011 2.7897 18.2711 2.7597C18.1411 2.7297 18.0111 2.75968 17.9011 2.82968L12.8811 6.1997Z" fill="#292D32"/>
<path d="M9.93973 14.2417C9.69973 14.2417 9.45973 14.1217 9.31973 13.9117L6.75973 10.0917C6.52973 9.75173 6.61973 9.28172 6.96973 9.05172L11.7497 5.85174C11.9197 5.74174 12.1197 5.70172 12.3097 5.74172C12.5097 5.78172 12.6797 5.89173 12.7897 6.06173L15.3497 9.88173C15.5797 10.2217 15.4897 10.6917 15.1397 10.9217L10.3597 14.1217C10.2297 14.2017 10.0797 14.2417 9.93973 14.2417ZM8.41973 9.88173L10.1397 12.4517L13.6697 10.0917L11.9497 7.51174L8.41973 9.88173Z" fill="#292D32"/>
<path d="M5.28039 16.8188C4.72039 16.8188 4.16039 16.5488 3.82039 16.0388L2.69039 14.3588C2.43039 13.9688 2.34039 13.5088 2.43039 13.0488C2.52039 12.5888 2.78039 12.1988 3.17039 11.9388L7.12039 9.29879C7.46039 9.06879 7.9304 9.15881 8.1604 9.50881L10.4004 12.8488C10.6304 13.1888 10.5404 13.6588 10.1904 13.8888L6.24039 16.5288C5.95039 16.7188 5.61039 16.8188 5.28039 16.8188ZM7.33039 10.9488L4.01039 13.1688C3.90039 13.2488 3.86039 13.3988 3.94039 13.5188L5.07039 15.1988C5.15039 15.3088 5.30039 15.3488 5.42039 15.2688L8.74039 13.0488L7.33039 10.9488Z" fill="#292D32"/>
<path d="M7.56019 22.7508C7.46019 22.7508 7.3502 22.7308 7.2502 22.6808C6.8702 22.5108 6.71019 22.0608 6.88019 21.6908L11.3702 11.8908C11.5402 11.5108 11.9902 11.3508 12.3602 11.5208C12.7402 11.6908 12.9002 12.1408 12.7302 12.5108L8.24019 22.3108C8.11019 22.5908 7.84019 22.7508 7.56019 22.7508Z" fill="#292D32"/>
<path d="M16.44 22.7493C16.15 22.7493 15.88 22.5893 15.76 22.3093L11.32 12.5093C11.15 12.1293 11.32 11.6892 11.69 11.5192C12.06 11.3492 12.51 11.5193 12.68 11.8893L17.12 21.6893C17.29 22.0693 17.12 22.5093 16.75 22.6793C16.65 22.7293 16.55 22.7493 16.44 22.7493Z" fill="#292D32"/>
</svg>
