<svg width="24" height="24" viewBox="0 0 24 24" fill="none" xmlns="http://www.w3.org/2000/svg">
<path d="M15 22.75H9C3.57 22.75 1.25 20.43 1.25 15V9C1.25 3.57 3.57 1.25 9 1.25H15C20.43 1.25 22.75 3.57 22.75 9V15C22.75 20.43 20.43 22.75 15 22.75ZM9 2.75C4.39 2.75 2.75 4.39 2.75 9V15C2.75 19.61 4.39 21.25 9 21.25H15C19.61 21.25 21.25 19.61 21.25 15V9C21.25 4.39 19.61 2.75 15 2.75H9Z" fill="#292D32"/>
<path d="M8.80974 18.2503C8.73974 18.2503 8.65974 18.2503 8.58974 18.2303L7.39974 18.0703C6.67974 17.9703 6.04974 17.3503 5.93974 16.6103L5.76974 15.4003C5.69974 14.9203 5.89974 14.3103 6.24974 13.9503L8.52974 11.6703C8.18974 10.0503 8.67974 8.37031 9.86974 7.19031C11.7797 5.28031 14.8997 5.28031 16.8097 7.19031C17.7397 8.12031 18.2497 9.35031 18.2497 10.6603C18.2497 11.9703 17.7397 13.2103 16.8097 14.1303C15.6197 15.3103 13.9397 15.8003 12.3297 15.4603L10.0397 17.7403C9.74974 18.0503 9.25974 18.2503 8.80974 18.2503ZM13.3397 7.25031C12.4697 7.25031 11.5897 7.58031 10.9297 8.25031C10.0297 9.15031 9.70974 10.4603 10.0797 11.6803C10.1597 11.9503 10.0897 12.2303 9.88974 12.4303L7.30974 15.0103C7.28974 15.0403 7.24974 15.1503 7.24974 15.1903L7.41974 16.3903C7.42974 16.4503 7.53974 16.5603 7.59974 16.5703L8.79974 16.7403C8.84974 16.7303 8.94974 16.7103 8.97974 16.6803L11.5697 14.0903C11.7697 13.8903 12.0597 13.8303 12.3197 13.9103C13.5297 14.2903 14.8397 13.9703 15.7397 13.0703C16.3797 12.4303 16.7397 11.5703 16.7397 10.6603C16.7397 9.75031 16.3897 8.89031 15.7397 8.25031C15.0897 7.59031 14.2097 7.25031 13.3397 7.25031Z" fill="#292D32"/>
<path d="M10.4493 17.0294C10.2593 17.0294 10.0693 16.9594 9.9193 16.8094L9.0593 15.9494C8.7693 15.6594 8.7693 15.1794 9.0593 14.8894C9.3493 14.5994 9.8293 14.5994 10.1193 14.8894L10.9793 15.7494C11.2693 16.0394 11.2693 16.5194 10.9793 16.8094C10.8393 16.9594 10.6493 17.0294 10.4493 17.0294Z" fill="#292D32"/>
<path d="M13.3791 11.8016C13.2391 11.8016 13.1091 11.7816 12.9891 11.7316C12.8691 11.6816 12.7591 11.6016 12.6691 11.5116C12.4791 11.3216 12.3691 11.0716 12.3691 10.8016C12.3691 10.5416 12.4791 10.2816 12.6691 10.1016C12.8991 9.86158 13.2491 9.75158 13.5691 9.82158C13.6291 9.84158 13.6991 9.85158 13.7591 9.88158C13.8191 9.91158 13.8791 9.94158 13.9291 9.97158C13.9791 10.0116 14.0391 10.0516 14.0791 10.1016C14.2691 10.2816 14.3791 10.5416 14.3791 10.8016C14.3791 10.9416 14.3491 11.0616 14.2991 11.1916C14.2491 11.3116 14.1791 11.4216 14.0791 11.5116C13.8891 11.7016 13.6391 11.8016 13.3791 11.8016Z" fill="#292D32"/>
</svg>
