<svg width="24" height="24" viewBox="0 0 24 24" fill="none" xmlns="http://www.w3.org/2000/svg">
<path d="M12 14.75C10.48 14.75 9.25 13.52 9.25 12C9.25 10.48 10.48 9.25 12 9.25C13.52 9.25 14.75 10.48 14.75 12C14.75 13.52 13.52 14.75 12 14.75ZM12 10.75C11.31 10.75 10.75 11.31 10.75 12C10.75 12.69 11.31 13.25 12 13.25C12.69 13.25 13.25 12.69 13.25 12C13.25 11.31 12.69 10.75 12 10.75Z" fill="#292D32"/>
<path d="M20.0003 18.7503C19.8403 18.7503 19.6903 18.7003 19.5503 18.6003C19.2203 18.3503 19.1503 17.8803 19.4003 17.5503C20.6103 15.9403 21.2503 14.0203 21.2503 12.0003C21.2503 9.98028 20.6103 8.06029 19.4003 6.45029C19.1503 6.12029 19.2203 5.65028 19.5503 5.40028C19.8803 5.15028 20.3503 5.22027 20.6003 5.55027C22.0103 7.42027 22.7503 9.65028 22.7503 12.0003C22.7503 14.3503 22.0103 16.5803 20.6003 18.4503C20.4503 18.6503 20.2303 18.7503 20.0003 18.7503Z" fill="#292D32"/>
<path d="M4 18.7503C3.77 18.7503 3.54999 18.6503 3.39999 18.4503C1.98999 16.5803 1.25 14.3503 1.25 12.0003C1.25 9.65028 1.98999 7.42027 3.39999 5.55027C3.64999 5.22027 4.12001 5.15028 4.45001 5.40028C4.78001 5.65028 4.85001 6.12029 4.60001 6.45029C3.39001 8.06029 2.75 9.98028 2.75 12.0003C2.75 14.0203 3.39001 15.9403 4.60001 17.5503C4.85001 17.8803 4.78001 18.3503 4.45001 18.6003C4.32001 18.7003 4.16 18.7503 4 18.7503Z" fill="#292D32"/>
<path d="M16.801 16.3487C16.641 16.3487 16.4911 16.2987 16.3511 16.1987C16.0211 15.9487 15.9511 15.4787 16.2011 15.1487C16.8911 14.2387 17.251 13.1487 17.251 11.9987C17.251 10.8487 16.8911 9.75872 16.2011 8.84872C15.9511 8.51872 16.0211 8.0487 16.3511 7.7987C16.6811 7.5487 17.151 7.61873 17.401 7.94873C18.281 9.12873 18.751 10.5287 18.751 11.9987C18.751 13.4687 18.281 14.8787 17.401 16.0487C17.251 16.2487 17.031 16.3487 16.801 16.3487Z" fill="#292D32"/>
<path d="M7.20001 16.3487C6.97001 16.3487 6.75001 16.2487 6.60001 16.0487C5.72001 14.8687 5.25 13.4687 5.25 11.9987C5.25 10.5287 5.72001 9.11873 6.60001 7.94873C6.85001 7.61873 7.31999 7.5487 7.64999 7.7987C7.97999 8.0487 8.04999 8.51872 7.79999 8.84872C7.10999 9.75872 6.75 10.8487 6.75 11.9987C6.75 13.1487 7.10999 14.2387 7.79999 15.1487C8.04999 15.4787 7.97999 15.9487 7.64999 16.1987C7.51999 16.2987 7.36001 16.3487 7.20001 16.3487Z" fill="#292D32"/>
</svg>
