<svg width="24" height="24" viewBox="0 0 24 24" fill="none" xmlns="http://www.w3.org/2000/svg">
<path d="M12.0001 22.7611C10.9101 22.7611 9.83012 22.4411 8.98012 21.8111L7.39012 20.6211C7.06012 20.3711 6.99012 19.9011 7.24012 19.5711C7.49012 19.2411 7.96012 19.1711 8.29012 19.4211L9.88012 20.6111C11.0301 21.4711 12.9801 21.4711 14.1301 20.6111L18.4301 17.4011C19.1901 16.8311 19.8501 15.5011 19.8501 14.5611V7.12109C19.8501 6.71109 20.1901 6.37109 20.6001 6.37109C21.0101 6.37109 21.3501 6.71109 21.3501 7.12109V14.5511C21.3501 15.9711 20.4601 17.7411 19.3201 18.5911L15.0201 21.8011C14.1701 22.4411 13.0901 22.7611 12.0001 22.7611Z" fill="#292D32"/>
<path d="M5.32844 18.9014C5.16844 18.9014 5.01844 18.8514 4.87844 18.7514L4.67844 18.6014C3.53844 17.7514 2.64844 15.9714 2.64844 14.5614V7.12141C2.64844 5.58141 3.77844 3.94141 5.22844 3.40141L10.2184 1.53141C11.2084 1.16141 12.7684 1.16141 13.7584 1.53141L18.7584 3.40141C18.9684 3.48141 19.1684 3.58141 19.3684 3.70141C19.7184 3.92141 19.8284 4.38141 19.6084 4.73141C19.3884 5.08141 18.9284 5.19141 18.5784 4.97141C18.4684 4.90141 18.3584 4.84141 18.2384 4.80141L13.2384 2.93141C12.5784 2.68141 11.4084 2.68141 10.7484 2.93141L5.75844 4.81141C4.89844 5.13141 4.14844 6.21141 4.14844 7.13141V14.5614C4.14844 15.5114 4.81844 16.8414 5.56844 17.4014L5.76844 17.5514C6.09844 17.8014 6.16844 18.2714 5.91844 18.6014C5.78844 18.7914 5.55844 18.9014 5.32844 18.9014Z" fill="#292D32"/>
<path d="M2.00141 22.7514C1.81141 22.7514 1.62141 22.6814 1.47141 22.5314C1.18141 22.2414 1.18141 21.7614 1.47141 21.4714L21.4714 1.47141C21.7614 1.18141 22.2414 1.18141 22.5314 1.47141C22.8214 1.76141 22.8214 2.24141 22.5314 2.53141L2.53141 22.5314C2.38141 22.6814 2.19141 22.7514 2.00141 22.7514Z" fill="#292D32"/>
</svg>
