<svg width="24" height="24" viewBox="0 0 24 24" fill="none" xmlns="http://www.w3.org/2000/svg">
<path d="M13.47 14.3906H10.53C9.26 14.3906 8.5 15.1506 8.5 16.4206V19.3606C8.5 20.6306 9.26 21.3906 10.53 21.3906H13.47C14.74 21.3906 15.5 20.6306 15.5 19.3606V16.4206C15.5 15.1506 14.74 14.3906 13.47 14.3906ZM14.41 18.3206C14.31 18.4206 14.16 18.4906 14 18.5006H12.59L12.6 19.8906C12.59 20.0606 12.53 20.2006 12.41 20.3206C12.31 20.4206 12.16 20.4906 12 20.4906C11.67 20.4906 11.4 20.2206 11.4 19.8906V18.4906L10 18.5006C9.67 18.5006 9.4 18.2206 9.4 17.8906C9.4 17.5606 9.67 17.2906 10 17.2906L11.4 17.3006V15.9006C11.4 15.5706 11.67 15.2906 12 15.2906C12.33 15.2906 12.6 15.5706 12.6 15.9006L12.59 17.2906H14C14.33 17.2906 14.6 17.5606 14.6 17.8906C14.59 18.0606 14.52 18.2006 14.41 18.3206Z" fill="#292D32"/>
<path opacity="0.4" d="M21.74 11.7405C21.13 9.74054 19.61 8.30054 17.7 7.87054C17.14 5.37054 15.6 3.58054 13.42 2.90054C11.04 2.17054 8.28 2.88054 6.55 4.69054C5.02 6.28054 4.52 8.47054 5.11 10.8005C2.98 11.3205 2 13.1805 2 14.8605C2 16.7405 3.23 18.8505 5.97 19.0405H8.5V16.4105C8.5 15.1405 9.26 14.3805 10.53 14.3805H13.47C14.74 14.3805 15.5 15.1405 15.5 16.4105V19.0405H16.31C16.32 19.0405 16.34 19.0405 16.35 19.0405C17.77 19.0405 19.13 18.5105 20.17 17.5605C21.8 16.1405 22.4 13.9105 21.74 11.7405Z" fill="#292D32"/>
</svg>
