<svg width="24" height="24" viewBox="0 0 24 24" fill="none" xmlns="http://www.w3.org/2000/svg">
<path d="M10 22.75H9C3.57 22.75 1.25 20.43 1.25 15V9C1.25 3.57 3.57 1.25 9 1.25H15C20.43 1.25 22.75 3.57 22.75 9V11C22.75 11.41 22.41 11.75 22 11.75C21.59 11.75 21.25 11.41 21.25 11V9C21.25 4.39 19.61 2.75 15 2.75H9C4.39 2.75 2.75 4.39 2.75 9V15C2.75 19.61 4.39 21.25 9 21.25H10C10.41 21.25 10.75 21.59 10.75 22C10.75 22.41 10.41 22.75 10 22.75Z" fill="#292D32"/>
<path d="M22.0013 9.25H2.03125C1.62125 9.25 1.28125 8.91 1.28125 8.5C1.28125 8.09 1.62125 7.75 2.03125 7.75H22.0013C22.4113 7.75 22.7513 8.09 22.7513 8.5C22.7513 8.91 22.4113 9.25 22.0013 9.25Z" fill="#292D32"/>
<path d="M12.0013 16.25H2.03125C1.62125 16.25 1.28125 15.91 1.28125 15.5C1.28125 15.09 1.62125 14.75 2.03125 14.75H12.0013C12.4113 14.75 12.7513 15.09 12.7513 15.5C12.7513 15.91 12.4113 16.25 12.0013 16.25Z" fill="#292D32"/>
<path d="M8.50977 22.7395C8.09977 22.7395 7.75977 22.3995 7.75977 21.9895V2.01953C7.75977 1.60953 8.09977 1.26953 8.50977 1.26953C8.91977 1.26953 9.25977 1.60953 9.25977 2.01953V21.9895C9.25977 22.3995 8.92977 22.7395 8.50977 22.7395Z" fill="#292D32"/>
<path d="M15.5098 12.7395C15.0998 12.7395 14.7598 12.3995 14.7598 11.9895V2.01953C14.7598 1.60953 15.0998 1.26953 15.5098 1.26953C15.9198 1.26953 16.2598 1.60953 16.2598 2.01953V11.9895C16.2598 12.3995 15.9298 12.7395 15.5098 12.7395Z" fill="#292D32"/>
<path d="M20.3996 17.95C19.9896 17.95 19.6496 17.61 19.6496 17.2V16.4C19.6496 15.28 19.3996 14.75 17.9996 14.75C16.5996 14.75 16.3496 15.28 16.3496 16.4V17.2C16.3496 17.61 16.0096 17.95 15.5996 17.95C15.1896 17.95 14.8496 17.61 14.8496 17.2V16.4C14.8496 14.31 15.9096 13.25 17.9996 13.25C20.0896 13.25 21.1496 14.31 21.1496 16.4V17.2C21.1496 17.61 20.8096 17.95 20.3996 17.95Z" fill="#292D32"/>
<path d="M20 22.7493H16C14 22.7493 13.25 21.9993 13.25 19.9993V19.1992C13.25 17.1992 14 16.4492 16 16.4492H20C22 16.4492 22.75 17.1992 22.75 19.1992V19.9993C22.75 21.9993 22 22.7493 20 22.7493ZM16 17.9492C14.81 17.9492 14.75 18.0092 14.75 19.1992V19.9993C14.75 21.1793 14.82 21.2493 16 21.2493H20C21.18 21.2493 21.25 21.1793 21.25 19.9993V19.1992C21.25 18.0092 21.19 17.9492 20 17.9492H16Z" fill="#292D32"/>
</svg>
