<svg width="24" height="24" viewBox="0 0 24 24" fill="none" xmlns="http://www.w3.org/2000/svg">
<path d="M15 22.75H14C13.59 22.75 13.25 22.41 13.25 22C13.25 21.59 13.59 21.25 14 21.25H15C19.61 21.25 21.25 19.61 21.25 15V9C21.25 4.39 19.61 2.75 15 2.75H9C4.39 2.75 2.75 4.39 2.75 9V9.98C2.75 10.39 2.41 10.73 2 10.73C1.59 10.73 1.25 10.39 1.25 9.98V9C1.25 3.57 3.57 1.25 9 1.25H15C20.43 1.25 22.75 3.57 22.75 9V15C22.75 20.43 20.43 22.75 15 22.75Z" fill="#292D32"/>
<path d="M12.9995 11.7488C12.8095 11.7488 12.6195 11.6787 12.4695 11.5287C12.1795 11.2387 12.1795 10.7588 12.4695 10.4688L16.2095 6.71875H13.9995C13.5895 6.71875 13.2495 6.37875 13.2495 5.96875C13.2495 5.55875 13.5795 5.21875 13.9995 5.21875H18.0095C18.3095 5.21875 18.5895 5.39875 18.6995 5.67875C18.8195 5.95875 18.7495 6.27875 18.5395 6.49875L13.5295 11.5287C13.3795 11.6787 13.1895 11.7488 12.9995 11.7488Z" fill="#292D32"/>
<path d="M18.0098 10.7387C17.5998 10.7387 17.2598 10.3987 17.2598 9.98875V5.96875C17.2598 5.55875 17.5998 5.21875 18.0098 5.21875C18.4198 5.21875 18.7598 5.55875 18.7598 5.96875V9.97875C18.7598 10.3987 18.4198 10.7387 18.0098 10.7387Z" fill="#292D32"/>
<path d="M7.85 22.75H5.15C2.49 22.75 1.25 21.51 1.25 18.85V16.15C1.25 13.49 2.49 12.25 5.15 12.25H7.85C10.51 12.25 11.75 13.49 11.75 16.15V18.85C11.75 21.51 10.51 22.75 7.85 22.75ZM5.15 13.75C3.31 13.75 2.75 14.31 2.75 16.15V18.85C2.75 20.69 3.31 21.25 5.15 21.25H7.85C9.69 21.25 10.25 20.69 10.25 18.85V16.15C10.25 14.31 9.69 13.75 7.85 13.75H5.15V13.75Z" fill="#292D32"/>
</svg>
