<svg width="24" height="24" viewBox="0 0 24 24" fill="none" xmlns="http://www.w3.org/2000/svg">
<path opacity="0.4" d="M20.7117 17.5195C20.3417 18.7395 19.6117 19.6795 18.5717 20.2595C18.5317 20.0995 18.5117 19.9295 18.5117 19.7595C18.5117 18.5395 19.5017 17.5395 20.7117 17.5195Z" fill="#292D32"/>
<path d="M21 7.52V9.48397C21 10.0065 20.586 10.4294 20.08 10.56L17.13 11.38C15.57 11.78 14.53 13.13 14.53 14.74V16.2849C14.53 16.7595 14.1873 17.1556 13.7612 17.3644C12.7457 17.8619 11.9698 18.8714 11.677 20.0107C11.5395 20.5456 11.1023 21 10.55 21H7.52C4.07 21 2 18.94 2 15.48V7.52C2 4.06 4.07 2 7.52 2H15.48C18.93 2 21 4.06 21 7.52Z" fill="#292D32"/>
<path d="M22.3091 12.251C22.0491 12.061 21.6291 11.861 20.9991 11.921C20.8391 11.931 20.6691 11.961 20.4791 12.011L17.4991 12.831C16.6091 13.061 16.0291 13.811 16.0291 14.741V18.651C15.7991 18.571 15.5491 18.521 15.2891 18.521C14.0491 18.521 13.0391 19.521 13.0391 20.761C13.0391 20.841 13.0391 20.921 13.0491 21.001C13.1691 22.121 14.1291 23.001 15.2891 23.001C16.5091 23.001 17.4991 22.011 17.5191 20.801C17.5191 20.781 17.5291 20.771 17.5291 20.761V17.071L20.9791 16.121L21.4991 15.981V17.661C21.2691 17.581 21.0191 17.521 20.7491 17.521H20.7091C19.4991 17.541 18.5091 18.541 18.5091 19.761C18.5091 19.931 18.5291 20.101 18.5691 20.261C18.7991 21.261 19.6891 22.011 20.7491 22.011C21.9791 22.011 22.9691 21.021 22.9891 19.801C22.9891 19.791 22.9991 19.781 22.9991 19.761V13.931C22.9991 13.171 22.7691 12.611 22.3091 12.251ZM15.2891 21.501C14.9591 21.501 14.6791 21.291 14.5891 21.001C14.5491 20.931 14.5391 20.841 14.5391 20.761C14.5391 20.351 14.8791 20.021 15.2891 20.021C15.6891 20.021 16.0291 20.351 16.0291 20.761C16.0291 20.841 16.0191 20.911 15.9891 20.981C15.8991 21.281 15.6191 21.501 15.2891 21.501ZM20.7491 20.511C20.3491 20.511 20.0091 20.171 20.0091 19.761C20.0091 19.361 20.3491 19.021 20.7491 19.021C21.1591 19.021 21.4991 19.361 21.4991 19.761C21.4991 20.171 21.1591 20.511 20.7491 20.511Z" fill="#292D32"/>
</svg>
