<svg width="24" height="24" viewBox="0 0 24 24" fill="none" xmlns="http://www.w3.org/2000/svg">
<path d="M2 13.05V15C2 20 4 22 9 22H15C20 22 22 20 22 15V9C22 4 20 2 15 2H9C4 2 2 4 2 9" stroke="#292D32" stroke-width="1.5" stroke-linecap="round" stroke-linejoin="round"/>
<path d="M17.3509 9.05077L15.0109 16.5908C14.4509 18.3808 11.9409 18.4108 11.3509 16.6308L10.651 14.5608C10.461 13.9908 10.0109 13.5308 9.44095 13.3508L7.36095 12.6508C5.59095 12.0608 5.62095 9.53077 7.41095 8.99077L14.951 6.64077C16.431 6.19077 17.8209 7.58077 17.3509 9.05077Z" stroke="#292D32" stroke-width="1.5" stroke-linecap="round" stroke-linejoin="round"/>
</svg>
