<svg width="24" height="24" viewBox="0 0 24 24" fill="none" xmlns="http://www.w3.org/2000/svg">
<path d="M15 22.75H9C3.57 22.75 1.25 20.43 1.25 15V9C1.25 3.57 3.57 1.25 9 1.25H15C20.43 1.25 22.75 3.57 22.75 9V15C22.75 20.43 20.43 22.75 15 22.75ZM9 2.75C4.39 2.75 2.75 4.39 2.75 9V15C2.75 19.61 4.39 21.25 9 21.25H15C19.61 21.25 21.25 19.61 21.25 15V9C21.25 4.39 19.61 2.75 15 2.75H9Z" fill="#292D32"/>
<path d="M12 18.6294C11.44 18.6294 10.91 18.3494 10.54 17.8594L9.94 17.0594C9.87 16.9694 9.79001 16.9194 9.70001 16.9094C9.61001 16.9094 9.53001 16.9494 9.45001 17.0294L8.89999 16.5194L9.45001 17.0294C8.48001 18.0694 7.68999 17.9694 7.29999 17.8194C6.90999 17.6594 6.25 17.1794 6.25 15.6994V9.06938C6.25 6.28938 7.14 5.35938 9.78 5.35938H14.23C16.87 5.35938 17.76 6.29938 17.76 9.06938V15.6994C17.76 17.1794 17.1 17.6694 16.71 17.8194C16.33 17.9694 15.54 18.0694 14.56 17.0294C14.48 16.9494 14.39 16.9094 14.3 16.9094C14.21 16.9094 14.13 16.9694 14.06 17.0594L13.47 17.8494C13.09 18.3494 12.56 18.6294 12 18.6294ZM9.69 15.4094C9.72 15.4094 9.75 15.4094 9.78 15.4094C10.31 15.4394 10.8 15.7094 11.13 16.1594L11.73 16.9594C11.9 17.1794 12.09 17.1794 12.25 16.9594L12.84 16.1694C13.17 15.7194 13.67 15.4494 14.2 15.4194C14.72 15.3794 15.25 15.6094 15.63 16.0194C15.91 16.3194 16.09 16.3994 16.16 16.4194C16.15 16.3694 16.24 16.1694 16.24 15.7094V9.07938C16.24 7.02938 15.93 6.86937 14.21 6.86937H9.76001C8.04001 6.86937 7.73001 7.02938 7.73001 9.07938V15.7094C7.73001 16.1694 7.82001 16.3694 7.85001 16.4294C7.88001 16.3894 8.05999 16.3094 8.32999 16.0094C8.32999 15.9994 8.34001 15.9994 8.35001 15.9894C8.72001 15.6294 9.2 15.4094 9.69 15.4094Z" fill="#292D32"/>
</svg>
