<svg width="24" height="24" viewBox="0 0 24 24" fill="none" xmlns="http://www.w3.org/2000/svg">
<path opacity="0.4" d="M13.89 2.87819L9.19999 2.13819C5.28999 1.52819 3.47999 2.84819 2.85999 6.75819L2.11999 11.4482C1.71999 14.0082 2.13999 15.6682 3.58999 16.6782C4.34999 17.2182 5.38999 17.5782 6.73999 17.7882L11.43 18.5282C15.34 19.1382 17.15 17.8182 17.77 13.9082L18.5 9.21819C18.62 8.44819 18.67 7.75819 18.63 7.14819C18.5 4.64819 17.03 3.36819 13.89 2.87819ZM8.23999 9.34819C7.06999 9.34819 6.11999 8.39819 6.11999 7.23819C6.11999 6.06819 7.06999 5.11819 8.23999 5.11819C9.39999 5.11819 10.35 6.06819 10.35 7.23819C10.35 8.39819 9.39999 9.34819 8.23999 9.34819Z" fill="#292D32"/>
<path d="M20.4998 13.4684L18.9998 17.9784C17.7498 21.7384 15.7498 22.7384 11.9898 21.4884L7.47984 19.9884C5.20984 19.2384 3.94984 18.1984 3.58984 16.6784C4.34984 17.2184 5.38984 17.5784 6.73984 17.7884L11.4298 18.5284C15.3398 19.1384 17.1498 17.8184 17.7698 13.9084L18.4998 9.21844C18.6198 8.44844 18.6698 7.75844 18.6298 7.14844C21.0198 8.41844 21.5398 10.3384 20.4998 13.4684Z" fill="#292D32"/>
<path d="M10.3511 7.24109C10.3511 8.40109 9.40109 9.35109 8.24109 9.35109C7.07109 9.35109 6.12109 8.40109 6.12109 7.24109C6.12109 6.07109 7.07109 5.12109 8.24109 5.12109C9.40109 5.12109 10.3511 6.07109 10.3511 7.24109Z" fill="#292D32"/>
</svg>
