<svg width="24" height="24" viewBox="0 0 24 24" fill="none" xmlns="http://www.w3.org/2000/svg">
<path d="M10.6091 17.3115C10.0191 17.3115 9.42908 17.0414 8.87908 16.4914L6.48906 14.1014C5.38906 13.0014 5.38906 11.7414 6.48906 10.6514L10.4791 6.66138C10.6191 6.52138 10.8091 6.44141 11.0091 6.44141C11.2091 6.44141 11.3991 6.52138 11.5391 6.66138L15.9291 11.0514C16.1791 11.3014 16.3091 11.6314 16.3091 11.9814C16.3091 12.3314 16.1691 12.6614 15.9191 12.9114L12.3291 16.5014C11.7891 17.0314 11.1991 17.3115 10.6091 17.3115ZM11.0091 8.24139L7.54906 11.7014C7.37906 11.8714 7.16909 12.1314 7.16909 12.3714C7.16909 12.6114 7.37906 12.8614 7.54906 13.0414L9.93907 15.4315C10.1091 15.6015 10.3691 15.8115 10.6091 15.8115C10.8491 15.8115 11.0991 15.6015 11.2791 15.4315L14.7391 11.9714L11.0091 8.24139Z" fill="#292D32"/>
<path d="M11.0104 7.93033C10.8204 7.93033 10.6304 7.86036 10.4804 7.71036L9.68039 6.91031C9.39039 6.62031 9.39039 6.14031 9.68039 5.85031C9.97039 5.56031 10.4504 5.56031 10.7404 5.85031L11.5404 6.65036C11.8304 6.94036 11.8304 7.42036 11.5404 7.71036C11.3904 7.86036 11.2004 7.93033 11.0104 7.93033Z" fill="#292D32"/>
<path d="M6.45987 13.0793C6.05987 13.0793 5.72987 12.7694 5.70987 12.3594C5.68987 11.9494 6.00987 11.5994 6.42987 11.5794L15.4599 11.1894C15.8699 11.1594 16.2199 11.4894 16.2399 11.9094C16.2599 12.3294 15.9399 12.6693 15.5199 12.6893L6.48987 13.0793C6.47987 13.0793 6.46987 13.0793 6.45987 13.0793Z" fill="#292D32"/>
<path d="M16.4711 17.9482C15.4511 17.9482 14.6211 17.1182 14.6211 16.0982C14.6211 15.1482 15.6211 13.9883 15.9211 13.6583C16.2011 13.3483 16.7411 13.3483 17.0211 13.6583C17.3211 13.9883 18.3211 15.1482 18.3211 16.0982C18.3311 17.1182 17.5011 17.9482 16.4711 17.9482ZM16.4711 15.3783C16.2611 15.6883 16.1211 15.9682 16.1211 16.0982C16.1211 16.2882 16.2811 16.4482 16.4711 16.4482C16.6611 16.4482 16.8211 16.2882 16.8211 16.0982C16.8311 15.9682 16.6811 15.6883 16.4711 15.3783Z" fill="#292D32"/>
<path d="M12 22.75C6.07 22.75 1.25 17.93 1.25 12C1.25 6.07 6.07 1.25 12 1.25C17.93 1.25 22.75 6.07 22.75 12C22.75 17.93 17.93 22.75 12 22.75ZM12 2.75C6.9 2.75 2.75 6.9 2.75 12C2.75 17.1 6.9 21.25 12 21.25C17.1 21.25 21.25 17.1 21.25 12C21.25 6.9 17.1 2.75 12 2.75Z" fill="#292D32"/>
</svg>
