<svg width="24" height="24" viewBox="0 0 24 24" fill="none" xmlns="http://www.w3.org/2000/svg">
<path d="M9.59998 18.7484C7.19998 18.7484 5.25 16.7984 5.25 14.3984C5.25 12.4384 6.57002 10.7084 8.46002 10.1984C8.83002 10.0984 9.20998 10.2884 9.34998 10.6484C9.67998 11.4784 10.39 12.1184 11.25 12.3484C11.72 12.4784 12.28 12.4784 12.75 12.3484C13.12 12.2484 13.51 12.4384 13.65 12.7884C13.85 13.2984 13.95 13.8384 13.95 14.3884C13.95 15.6284 13.42 16.8084 12.5 17.6284C11.71 18.3484 10.68 18.7484 9.59998 18.7484ZM8.28998 11.8684C7.35998 12.3484 6.75 13.3184 6.75 14.3984C6.75 15.9684 8.02998 17.2484 9.59998 17.2484C10.3 17.2484 10.98 16.9884 11.5 16.5184C12.11 15.9784 12.45 15.2084 12.45 14.3984C12.45 14.2384 12.44 14.0884 12.41 13.9284C11.88 13.9784 11.34 13.9284 10.85 13.7884C9.77998 13.4984 8.85998 12.7984 8.28998 11.8684Z" fill="#292D32"/>
<path d="M12.0002 13.9517C11.6002 13.9517 11.2102 13.9017 10.8502 13.8017C9.54016 13.4417 8.46021 12.4717 7.96021 11.2117C7.76021 10.7017 7.66016 10.1617 7.66016 9.61172C7.66016 7.21172 9.61019 5.26172 12.0102 5.26172C14.4102 5.26172 16.3602 7.21172 16.3602 9.61172C16.3602 10.1617 16.2602 10.7017 16.0602 11.2117C15.5602 12.4817 14.4702 13.4517 13.1602 13.8017C12.7902 13.9017 12.4002 13.9517 12.0002 13.9517ZM12.0002 6.75172C10.4302 6.75172 9.15021 8.03172 9.15021 9.60172C9.15021 9.96172 9.22016 10.3217 9.35016 10.6517C9.68016 11.4817 10.3902 12.1217 11.2502 12.3517C11.7202 12.4817 12.2802 12.4817 12.7502 12.3517C13.6202 12.1117 14.3302 11.4817 14.6502 10.6517C14.7802 10.3217 14.8502 9.96172 14.8502 9.60172C14.8502 8.03172 13.5702 6.75172 12.0002 6.75172Z" fill="#292D32"/>
<path d="M14.4 18.7515C13.32 18.7515 12.29 18.3515 11.5 17.6315C11.34 17.4915 11.25 17.2815 11.25 17.0715C11.25 16.8615 11.34 16.6515 11.5 16.5115C12.1 15.9815 12.45 15.2115 12.45 14.4015C12.45 14.0415 12.38 13.6815 12.25 13.3515C12.17 13.1515 12.18 12.9315 12.28 12.7415C12.37 12.5515 12.55 12.4115 12.75 12.3515C13.61 12.1115 14.32 11.4815 14.65 10.6515C14.79 10.3015 15.17 10.1015 15.54 10.2015C17.43 10.7115 18.75 12.4415 18.75 14.4015C18.75 16.8015 16.8 18.7515 14.4 18.7515ZM13.12 16.9515C13.51 17.1515 13.95 17.2515 14.4 17.2515C15.97 17.2515 17.25 15.9715 17.25 14.4015C17.25 13.3215 16.64 12.3515 15.71 11.8715C15.27 12.5915 14.62 13.1715 13.86 13.5315C13.92 13.8115 13.95 14.1015 13.95 14.4015C13.95 15.3215 13.66 16.2115 13.12 16.9515Z" fill="#292D32"/>
<path d="M15 22.75H9C3.57 22.75 1.25 20.43 1.25 15V9C1.25 3.57 3.57 1.25 9 1.25H15C20.43 1.25 22.75 3.57 22.75 9V15C22.75 20.43 20.43 22.75 15 22.75ZM9 2.75C4.39 2.75 2.75 4.39 2.75 9V15C2.75 19.61 4.39 21.25 9 21.25H15C19.61 21.25 21.25 19.61 21.25 15V9C21.25 4.39 19.61 2.75 15 2.75H9Z" fill="#292D32"/>
</svg>
