<svg width="24" height="24" viewBox="0 0 24 24" fill="none" xmlns="http://www.w3.org/2000/svg">
<path d="M11.9998 22.7495C10.8298 22.7495 9.73977 22.2995 8.91977 21.4795L2.52975 15.0895C1.70975 14.2695 1.25977 13.1695 1.25977 12.0095C1.25977 10.8495 1.70975 9.7495 2.52975 8.9295L8.91977 2.53949C9.73977 1.71949 10.8398 1.26953 11.9998 1.26953C13.1598 1.26953 14.2597 1.71949 15.0797 2.53949L21.4698 8.9295C22.2898 9.7495 22.7397 10.8495 22.7397 12.0095C22.7397 13.1695 22.2898 14.2695 21.4698 15.0895L15.0797 21.4795C14.2597 22.2995 13.1698 22.7495 11.9998 22.7495ZM11.9998 2.74951C11.2298 2.74951 10.5098 3.04953 9.97977 3.57953L3.58975 9.96948C3.04975 10.5095 2.75977 11.2295 2.75977 11.9895C2.75977 12.7495 3.05975 13.4795 3.58975 14.0095L9.97977 20.3995C11.0498 21.4695 12.9497 21.4695 14.0197 20.3995L20.4098 14.0095C20.9498 13.4695 21.2397 12.7595 21.2397 11.9895C21.2397 11.2195 20.9398 10.4995 20.4098 9.96948L14.0197 3.57953C13.4897 3.04953 12.7698 2.74951 11.9998 2.74951Z" fill="#292D32"/>
<path d="M17.7495 18.5014C17.5595 18.5014 17.3695 18.4315 17.2195 18.2815L5.71945 6.78146C5.42945 6.49146 5.42945 6.01141 5.71945 5.72141C6.00945 5.43141 6.48945 5.43141 6.77945 5.72141L18.2795 17.2214C18.5695 17.5114 18.5695 17.9915 18.2795 18.2815C18.1295 18.4315 17.9395 18.5014 17.7495 18.5014Z" fill="#292D32"/>
<path d="M6.24945 18.5014C6.05945 18.5014 5.86945 18.4315 5.71945 18.2815C5.42945 17.9915 5.42945 17.5114 5.71945 17.2214L17.2195 5.72141C17.5095 5.43141 17.9895 5.43141 18.2795 5.72141C18.5695 6.01141 18.5695 6.49146 18.2795 6.78146L6.77945 18.2815C6.62945 18.4315 6.43945 18.5014 6.24945 18.5014Z" fill="#292D32"/>
</svg>
