<svg width="24" height="24" viewBox="0 0 24 24" fill="none" xmlns="http://www.w3.org/2000/svg">
<path d="M4.92999 19.82C4.72999 19.82 4.54002 19.74 4.40002 19.6C2.37002 17.57 1.25 14.87 1.25 12C1.25 6.07 6.07 1.25 12 1.25C14.87 1.25 17.57 2.37 19.6 4.4C19.74 4.54 19.82 4.73 19.82 4.93C19.82 5.13 19.74 5.32 19.6 5.46L5.46002 19.6C5.32002 19.74 5.12999 19.82 4.92999 19.82ZM12 2.75C6.9 2.75 2.75 6.9 2.75 12C2.75 14.22 3.53001 16.32 4.95001 17.99L17.99 4.95C16.32 3.53 14.22 2.75 12 2.75Z" fill="#292D32"/>
<path d="M11.9997 22.7511C9.12969 22.7511 6.42972 21.6311 4.39972 19.6011C4.25972 19.4611 4.17969 19.2711 4.17969 19.0711C4.17969 18.8711 4.25972 18.6811 4.39972 18.5411L18.5397 4.40109C18.8297 4.11109 19.3097 4.11109 19.5997 4.40109C21.6297 6.43109 22.7497 9.13109 22.7497 12.0011C22.7497 17.9311 17.9297 22.7511 11.9997 22.7511ZM6.0097 19.0511C7.6797 20.4711 9.77969 21.2511 11.9997 21.2511C17.0997 21.2511 21.2497 17.1011 21.2497 12.0011C21.2497 9.78109 20.4697 7.68109 19.0497 6.01109L6.0097 19.0511Z" fill="#292D32"/>
<path d="M13.4095 22.6497C13.2195 22.6497 13.0295 22.5797 12.8795 22.4297L7.21945 16.7697C6.92945 16.4797 6.92945 15.9997 7.21945 15.7097C7.50945 15.4197 7.98951 15.4197 8.27951 15.7097L13.9395 21.3697C14.2295 21.6597 14.2295 22.1397 13.9395 22.4297C13.7995 22.5797 13.6095 22.6497 13.4095 22.6497Z" fill="#292D32"/>
<path d="M17.8705 20.0306C17.6805 20.0306 17.4905 19.9606 17.3405 19.8106L10.7605 13.2306C10.4705 12.9406 10.4705 12.4606 10.7605 12.1706C11.0505 11.8806 11.5305 11.8806 11.8205 12.1706L18.4005 18.7506C18.6905 19.0406 18.6905 19.5206 18.4005 19.8106C18.2505 19.9606 18.0605 20.0306 17.8705 20.0306Z" fill="#292D32"/>
<path d="M21.1195 16.2211C20.9295 16.2211 20.7396 16.1511 20.5896 16.0011L14.2995 9.71109C14.0095 9.42109 14.0095 8.94109 14.2995 8.65109C14.5895 8.36109 15.0695 8.36109 15.3595 8.65109L21.6496 14.9411C21.9396 15.2311 21.9396 15.7111 21.6496 16.0011C21.5096 16.1411 21.3195 16.2211 21.1195 16.2211Z" fill="#292D32"/>
</svg>
