<svg width="24" height="24" viewBox="0 0 24 24" fill="none" xmlns="http://www.w3.org/2000/svg">
<path d="M13 22.75H9C3.57 22.75 1.25 20.43 1.25 15V9C1.25 3.57 3.57 1.25 9 1.25H15C20.43 1.25 22.75 3.57 22.75 9V13C22.75 13.41 22.41 13.75 22 13.75C21.59 13.75 21.25 13.41 21.25 13V9C21.25 4.39 19.61 2.75 15 2.75H9C4.39 2.75 2.75 4.39 2.75 9V15C2.75 19.61 4.39 21.25 9 21.25H13C13.41 21.25 13.75 21.59 13.75 22C13.75 22.41 13.41 22.75 13 22.75Z" fill="#292D32"/>
<path d="M13 22.75H9C3.57 22.75 1.25 20.43 1.25 15V9C1.25 3.57 3.57 1.25 9 1.25H15C20.43 1.25 22.75 3.57 22.75 9V13C22.75 13.41 22.41 13.75 22 13.75C21.59 13.75 21.25 13.41 21.25 13V9C21.25 4.39 19.61 2.75 15 2.75H9C4.39 2.75 2.75 4.39 2.75 9V15C2.75 19.61 4.39 21.25 9 21.25H13C13.41 21.25 13.75 21.59 13.75 22C13.75 22.41 13.41 22.75 13 22.75Z" fill="#292D32"/>
<path d="M7 14.6905C6.59 14.6905 6.25 14.3505 6.25 13.9405V10.7305C6.25 10.3205 6.59 9.98047 7 9.98047C7.41 9.98047 7.75 10.3205 7.75 10.7305V13.9405C7.75 14.3605 7.41 14.6905 7 14.6905Z" fill="#292D32"/>
<path d="M17 14.6905C16.59 14.6905 16.25 14.3505 16.25 13.9405V10.7305C16.25 10.3205 16.59 9.98047 17 9.98047C17.41 9.98047 17.75 10.3205 17.75 10.7305V13.9405C17.75 14.3605 17.41 14.6905 17 14.6905Z" fill="#292D32"/>
<path d="M13 22.75H9C3.57 22.75 1.25 20.43 1.25 15V9C1.25 3.57 3.57 1.25 9 1.25H15C20.43 1.25 22.75 3.57 22.75 9V13C22.75 13.41 22.41 13.75 22 13.75C21.59 13.75 21.25 13.41 21.25 13V9C21.25 4.39 19.61 2.75 15 2.75H9C4.39 2.75 2.75 4.39 2.75 9V15C2.75 19.61 4.39 21.25 9 21.25H13C13.41 21.25 13.75 21.59 13.75 22C13.75 22.41 13.41 22.75 13 22.75Z" fill="#292D32"/>
<path d="M17.5793 21.7493C17.3793 21.7493 17.1893 21.6693 17.0493 21.5293L15.4693 19.9593C15.1793 19.6693 15.1693 19.1893 15.4693 18.8993C15.7593 18.6093 16.2393 18.5993 16.5293 18.8993L17.5393 19.8993L20.4393 16.5093C20.7093 16.1893 21.1793 16.1593 21.4993 16.4293C21.8093 16.6993 21.8493 17.1693 21.5793 17.4893L18.1593 21.4893C18.0193 21.6493 17.8293 21.7393 17.6193 21.7493C17.5993 21.7493 17.5893 21.7493 17.5793 21.7493Z" fill="#292D32"/>
<path d="M12 14.25C11.59 14.25 11.25 13.91 11.25 13.5V10.5C11.25 10.09 11.59 9.75 12 9.75C12.41 9.75 12.75 10.09 12.75 10.5V13.5C12.75 13.91 12.41 14.25 12 14.25Z" fill="#292D32"/>
</svg>
