<svg width="24" height="24" viewBox="0 0 24 24" fill="none" xmlns="http://www.w3.org/2000/svg">
<path d="M13 22.75H9C3.57 22.75 1.25 20.43 1.25 15V9C1.25 3.57 3.57 1.25 9 1.25H15C20.43 1.25 22.75 3.57 22.75 9V13C22.75 13.41 22.41 13.75 22 13.75C21.59 13.75 21.25 13.41 21.25 13V9C21.25 4.39 19.61 2.75 15 2.75H9C4.39 2.75 2.75 4.39 2.75 9V15C2.75 19.61 4.39 21.25 9 21.25H13C13.41 21.25 13.75 21.59 13.75 22C13.75 22.41 13.41 22.75 13 22.75Z" fill="#292D32"/>
<path d="M7.33009 15.242C7.17009 15.242 7.0101 15.192 6.8701 15.082C6.5401 14.832 6.48012 14.362 6.73012 14.032L9.11009 10.942C9.40009 10.572 9.81011 10.332 10.2801 10.272C10.7501 10.212 11.2101 10.342 11.5801 10.632L13.4101 12.072C13.4801 12.132 13.5501 12.122 13.6001 12.122C13.6401 12.122 13.7101 12.102 13.7701 12.022L16.0801 9.04195C16.3301 8.71195 16.8001 8.65196 17.1301 8.91196C17.4601 9.16196 17.5201 9.63197 17.2601 9.96197L14.9501 12.942C14.6601 13.312 14.2501 13.552 13.7801 13.602C13.3201 13.662 12.8501 13.532 12.4901 13.242L10.6601 11.802C10.5901 11.742 10.5101 11.742 10.4701 11.752C10.4301 11.752 10.3601 11.772 10.3001 11.852L7.92012 14.942C7.78012 15.142 7.56009 15.242 7.33009 15.242Z" fill="#292D32"/>
<path d="M20.2605 22.7483C19.9105 22.7483 19.4604 22.6383 18.9304 22.3183L18.6804 22.1683C18.6104 22.1283 18.4004 22.1283 18.3304 22.1683L18.0804 22.3183C16.9304 23.0083 16.2005 22.7183 15.8805 22.4783C15.5505 22.2383 15.0404 21.6383 15.3404 20.3183L15.3905 20.1083C15.4105 20.0283 15.3504 19.8383 15.3004 19.7783L14.9505 19.4283C14.3605 18.8283 14.1304 18.1283 14.3304 17.4983C14.5304 16.8783 15.1205 16.4383 15.9505 16.2983L16.3304 16.2383C16.4004 16.2183 16.5404 16.1183 16.5804 16.0483L16.8604 15.4783C17.2504 14.6883 17.8505 14.2383 18.5105 14.2383C19.1705 14.2383 19.7705 14.6883 20.1605 15.4783L20.4405 16.0383C20.4805 16.1083 20.6205 16.2083 20.6905 16.2283L21.0705 16.2883C21.9005 16.4283 22.4905 16.8683 22.6905 17.4883C22.8905 18.1083 22.6705 18.8083 22.0705 19.4183L21.7205 19.7683C21.6705 19.8283 21.6105 20.0183 21.6305 20.0983L21.6804 20.3083C21.9804 21.6283 21.4705 22.2283 21.1405 22.4683C20.9605 22.6083 20.6705 22.7483 20.2605 22.7483ZM18.4904 15.7483C18.4804 15.7583 18.3405 15.8583 18.2005 16.1483L17.9205 16.7183C17.6805 17.2083 17.1104 17.6283 16.5804 17.7183L16.2005 17.7783C15.8805 17.8283 15.7705 17.9383 15.7605 17.9583C15.7605 17.9783 15.7904 18.1383 16.0204 18.3683L16.3704 18.7183C16.7804 19.1383 16.9904 19.8583 16.8604 20.4283L16.8104 20.6383C16.7204 21.0283 16.7604 21.1983 16.7804 21.2583C16.8104 21.2383 16.9804 21.2183 17.3104 21.0183L17.5604 20.8683C18.1104 20.5383 18.9005 20.5383 19.4505 20.8683L19.7005 21.0183C20.1105 21.2683 20.2805 21.2383 20.2905 21.2383C20.2505 21.2383 20.3004 21.0383 20.2104 20.6383L20.1605 20.4283C20.0305 19.8483 20.2404 19.1383 20.6504 18.7183L21.0004 18.3683C21.2304 18.1383 21.2605 17.9783 21.2605 17.9483C21.2505 17.9283 21.1405 17.8283 20.8205 17.7683L20.4405 17.7083C19.9005 17.6183 19.3405 17.1983 19.1005 16.7083L18.8205 16.1483C18.6605 15.8483 18.5204 15.7583 18.4904 15.7483Z" fill="#292D32"/>
</svg>
