<svg width="24" height="24" viewBox="0 0 24 24" fill="none" xmlns="http://www.w3.org/2000/svg">
<path d="M14.9707 22.75H8.9707C3.5407 22.75 1.2207 20.43 1.2207 15V9C1.2207 3.57 3.5407 1.25 8.9707 1.25H14.9707C20.4007 1.25 22.7207 3.57 22.7207 9V15C22.7207 20.43 20.4107 22.75 14.9707 22.75ZM8.9707 2.75C4.3607 2.75 2.7207 4.39 2.7207 9V15C2.7207 19.61 4.3607 21.25 8.9707 21.25H14.9707C19.5807 21.25 21.2207 19.61 21.2207 15V9C21.2207 4.39 19.5807 2.75 14.9707 2.75H8.9707Z" fill="#292D32"/>
<path d="M11.4502 18.0609C11.2102 18.0609 10.6302 17.9709 10.2902 17.1009L9.15023 14.2209C8.99023 13.8109 8.42023 13.4309 7.99023 13.4309L1.99023 13.4509C1.58023 13.4509 1.24023 13.1209 1.24023 12.7009C1.24023 12.2909 1.57023 11.9509 1.99023 11.9509L7.99023 11.9309H8.00023C9.05023 11.9309 10.1702 12.6909 10.5602 13.6709L11.4702 15.9709L13.5302 10.7509C13.8402 9.97086 14.3902 9.86086 14.6202 9.84086C14.8502 9.83086 15.4102 9.88086 15.8002 10.6209L16.8402 12.5909C17.0202 12.9309 17.5602 13.2609 17.9502 13.2609H22.0102C22.4202 13.2609 22.7602 13.6009 22.7602 14.0109C22.7602 14.4209 22.4202 14.7609 22.0102 14.7609H17.9502C17.0002 14.7609 15.9602 14.1309 15.5202 13.2909L14.7402 11.8109L12.6402 17.1009C12.2702 17.9609 11.6802 18.0609 11.4502 18.0609Z" fill="#292D32"/>
</svg>
