<svg width="24" height="24" viewBox="0 0 24 24" fill="none" xmlns="http://www.w3.org/2000/svg">
<path d="M18.1 17.75H5.89999C3.57999 17.75 2.25 16.42 2.25 14.1V2C2.25 1.59 2.59 1.25 3 1.25H21C21.41 1.25 21.75 1.59 21.75 2V14.1C21.75 16.42 20.42 17.75 18.1 17.75ZM3.75 2.75V14.1C3.75 15.59 4.40999 16.25 5.89999 16.25H18.09C19.58 16.25 20.24 15.59 20.24 14.1V2.75H3.75Z" fill="#292D32"/>
<path d="M22 2.75H2C1.59 2.75 1.25 2.41 1.25 2C1.25 1.59 1.59 1.25 2 1.25H22C22.41 1.25 22.75 1.59 22.75 2C22.75 2.41 22.41 2.75 22 2.75Z" fill="#292D32"/>
<path d="M8.00027 22.75C7.72027 22.75 7.46025 22.6 7.33025 22.34C7.14025 21.97 7.29028 21.52 7.67028 21.33L11.2503 19.54V17C11.2503 16.59 11.5903 16.25 12.0003 16.25C12.4103 16.25 12.7503 16.59 12.7503 17V20C12.7503 20.28 12.5903 20.54 12.3303 20.67L8.33025 22.67C8.23025 22.72 8.11027 22.75 8.00027 22.75Z" fill="#292D32"/>
<path d="M15.9999 22.7482C15.8899 22.7482 15.77 22.7182 15.67 22.6682L11.67 20.6682C11.3 20.4782 11.1499 20.0282 11.3299 19.6582C11.5199 19.2882 11.9699 19.1382 12.3399 19.3182L16.3399 21.3182C16.7099 21.5082 16.8599 21.9582 16.6799 22.3282C16.5399 22.5982 16.2699 22.7482 15.9999 22.7482Z" fill="#292D32"/>
<path d="M7.5009 11.7507C7.2909 11.7507 7.07092 11.6607 6.92092 11.4807C6.65092 11.1607 6.70089 10.6907 7.02089 10.4207L10.1709 7.79067C10.4609 7.55067 10.8309 7.45067 11.1809 7.51067C11.5409 7.57067 11.8509 7.79065 12.0409 8.11065L13.0909 9.86065L16.0209 7.42067C16.3409 7.16067 16.8109 7.20065 17.0809 7.52065C17.3509 7.84065 17.3009 8.31065 16.9809 8.58065L13.8309 11.2107C13.5409 11.4507 13.1709 11.5507 12.8209 11.4907C12.4609 11.4307 12.1509 11.2107 11.9609 10.8907L10.9109 9.14067L7.98091 11.5806C7.84091 11.6906 7.6709 11.7507 7.5009 11.7507Z" fill="#292D32"/>
</svg>
