<svg width="24" height="24" viewBox="0 0 24 24" fill="none" xmlns="http://www.w3.org/2000/svg">
<path opacity="0.4" d="M15.9606 10.8281H12.9006L12.1406 13.1181H14.4306C15.2706 13.1181 15.9606 13.7981 15.9606 14.6481C15.9606 15.4881 15.2806 16.1781 14.4306 16.1781H12.1406" stroke="#292D32" stroke-width="1.5" stroke-linecap="round" stroke-linejoin="round"/>
<path opacity="0.4" d="M9.53906 16.1681V10.8281L8.03906 12.4981" stroke="#292D32" stroke-width="1.5" stroke-linecap="round" stroke-linejoin="round"/>
<path d="M10.0195 4.46997L11.9995 2" stroke="#292D32" stroke-width="1.5" stroke-linecap="round" stroke-linejoin="round"/>
<path d="M4.90936 7.79877C3.79936 9.27877 3.10938 11.1088 3.10938 13.1088C3.10938 18.0188 7.08939 21.9988 11.9994 21.9988C16.9094 21.9988 20.8894 18.0188 20.8894 13.1088C20.8894 8.19876 16.9094 4.21875 11.9994 4.21875C11.3194 4.21875 10.6594 4.3088 10.0194 4.4588" stroke="#292D32" stroke-width="1.5" stroke-linecap="round" stroke-linejoin="round"/>
</svg>
