<svg width="24" height="24" viewBox="0 0 24 24" fill="none" xmlns="http://www.w3.org/2000/svg">
<path d="M2 3H22" stroke="#292D32" stroke-width="1.5" stroke-miterlimit="10" stroke-linecap="round" stroke-linejoin="round"/>
<path d="M2 9H11" stroke="#292D32" stroke-width="1.5" stroke-miterlimit="10" stroke-linecap="round" stroke-linejoin="round"/>
<path d="M2 15H8" stroke="#292D32" stroke-width="1.5" stroke-miterlimit="10" stroke-linecap="round" stroke-linejoin="round"/>
<path d="M2 21H6" stroke="#292D32" stroke-width="1.5" stroke-miterlimit="10" stroke-linecap="round" stroke-linejoin="round"/>
<g opacity="0.4">
<path d="M11.8402 22.0006C13.0441 22.0006 14.0202 21.0246 14.0202 19.8206C14.0202 18.6166 13.0441 17.6406 11.8402 17.6406C10.6362 17.6406 9.66016 18.6166 9.66016 19.8206C9.66016 21.0246 10.6362 22.0006 11.8402 22.0006Z" stroke="#292D32" stroke-width="1.5" stroke-linecap="round" stroke-linejoin="round"/>
<path d="M21.9995 18.369V9.85896C21.9995 8.04896 20.8595 7.79895 19.7095 8.10895L15.3595 9.29896C14.5695 9.51896 14.0195 10.139 14.0195 11.049V12.569V13.589V19.819" stroke="#292D32" stroke-width="1.5" stroke-linecap="round" stroke-linejoin="round"/>
<path d="M19.8206 20.5475C21.0246 20.5475 22.0006 19.5715 22.0006 18.3675C22.0006 17.1635 21.0246 16.1875 19.8206 16.1875C18.6166 16.1875 17.6406 17.1635 17.6406 18.3675C17.6406 19.5715 18.6166 20.5475 19.8206 20.5475Z" stroke="#292D32" stroke-width="1.5" stroke-linecap="round" stroke-linejoin="round"/>
<path d="M14.0195 13.598L21.9995 11.418" stroke="#292D32" stroke-width="1.5" stroke-linecap="round" stroke-linejoin="round"/>
</g>
</svg>
