<svg width="22" height="22" viewBox="0 0 22 22" fill="none" xmlns="http://www.w3.org/2000/svg">
<path d="M14 7.37174V6.41174C14 3.43174 11.93 2.29174 9.41 3.87174L6.49 5.70174C6.17 5.89174 5.8 6.00174 5.43 6.00174H4C2 6.00174 1 7.00174 1 9.00174V13.0017C1 15.0017 2 16.0017 4 16.0017H6" stroke="#292D32" stroke-width="1.5" stroke-linecap="round" stroke-linejoin="round"/>
<path opacity="0.4" d="M9.41016 18.1292C11.9302 19.7092 14.0002 18.5592 14.0002 15.5892V11.9492" stroke="#292D32" stroke-width="1.5" stroke-linecap="round" stroke-linejoin="round"/>
<path opacity="0.4" d="M17.81 8.42188C18.71 10.5719 18.44 13.0819 17 15.0019" stroke="#292D32" stroke-width="1.5" stroke-linecap="round" stroke-linejoin="round"/>
<path opacity="0.4" d="M20.1481 6.80078C21.6181 10.2908 21.1781 14.3708 18.8281 17.5008" stroke="#292D32" stroke-width="1.5" stroke-linecap="round" stroke-linejoin="round"/>
<path d="M21 1L1 21" stroke="#292D32" stroke-width="1.5" stroke-linecap="round" stroke-linejoin="round"/>
</svg>
