<svg width="24" height="24" viewBox="0 0 24 24" fill="none" xmlns="http://www.w3.org/2000/svg">
<path d="M17.79 22.7383H6.21C3.47 22.7383 1.25 20.5083 1.25 17.7683V10.3583C1.25 8.99826 2.09 7.28826 3.17 6.44826L8.56 2.24826C10.18 0.988255 12.77 0.928255 14.45 2.10826L20.63 6.43826C21.82 7.26826 22.75 9.04826 22.75 10.4983V17.7783C22.75 20.5083 20.53 22.7383 17.79 22.7383ZM9.48 3.42826L4.09 7.62826C3.38 8.18826 2.75 9.45826 2.75 10.3583V17.7683C2.75 19.6783 4.3 21.2383 6.21 21.2383H17.79C19.7 21.2383 21.25 19.6883 21.25 17.7783V10.4983C21.25 9.53826 20.56 8.20826 19.77 7.66826L13.59 3.33826C12.45 2.53826 10.57 2.57826 9.48 3.42826Z" fill="#292D32"/>
<path d="M7.49945 17.2514C7.30945 17.2514 7.11945 17.1814 6.96945 17.0314C6.67945 16.7414 6.67945 16.2614 6.96945 15.9714L10.1695 12.7714C10.3295 12.6114 10.5395 12.5314 10.7695 12.5514C10.9895 12.5714 11.1895 12.6914 11.3195 12.8814L12.4095 14.5214L15.9595 10.9714C16.2495 10.6814 16.7295 10.6814 17.0195 10.9714C17.3095 11.2614 17.3095 11.7414 17.0195 12.0314L12.8195 16.2314C12.6595 16.3914 12.4495 16.4714 12.2195 16.4514C11.9995 16.4314 11.7995 16.3114 11.6695 16.1214L10.5795 14.4814L8.02945 17.0314C7.87945 17.1814 7.68945 17.2514 7.49945 17.2514Z" fill="#292D32"/>
<path d="M16.5 14.25C16.09 14.25 15.75 13.91 15.75 13.5V12.25H14.5C14.09 12.25 13.75 11.91 13.75 11.5C13.75 11.09 14.09 10.75 14.5 10.75H16.5C16.91 10.75 17.25 11.09 17.25 11.5V13.5C17.25 13.91 16.91 14.25 16.5 14.25Z" fill="#292D32"/>
</svg>
