<svg width="24" height="24" viewBox="0 0 24 24" fill="none" xmlns="http://www.w3.org/2000/svg">
<path d="M10.7996 22.0984C10.5096 22.0984 10.2196 22.0484 9.94955 21.9484C8.69955 21.5384 7.89955 20.1584 8.17955 18.8784L8.66955 15.7284C8.67955 15.6584 8.67955 15.5584 8.60955 15.4784C8.55955 15.4284 8.48955 15.3984 8.40955 15.3984H4.40955C3.42955 15.3984 2.57955 14.9884 2.07955 14.2784C1.58955 13.5884 1.48955 12.6784 1.80955 11.7984L4.19955 4.51844C4.56955 3.06844 6.11955 1.89844 7.71955 1.89844H11.5196C12.0796 1.89844 13.2996 2.06844 13.9496 2.71844L16.9796 5.05844L16.0596 6.24844L12.9596 3.84844C12.7096 3.59844 12.0796 3.39844 11.5196 3.39844H7.71955C6.81955 3.39844 5.84955 4.11844 5.64955 4.92844L3.22955 12.2784C3.06955 12.7184 3.09955 13.1184 3.30955 13.4084C3.52955 13.7184 3.92955 13.8984 4.41955 13.8984H8.41955C8.93955 13.8984 9.41955 14.1184 9.74955 14.4984C10.0896 14.8884 10.2396 15.4084 10.1596 15.9484L9.65955 19.1584C9.53955 19.7184 9.91955 20.3484 10.4596 20.5284C10.9396 20.7084 11.5796 20.4484 11.7996 20.1284L15.8996 14.0284L17.1396 14.8684L13.0396 20.9684C12.5696 21.6684 11.6796 22.0984 10.7996 22.0984Z" fill="#292D32"/>
<path d="M19.6191 18.1H18.6191C16.7691 18.1 15.8691 17.23 15.8691 15.45V5.65C15.8691 3.87 16.7691 3 18.6191 3H19.6191C21.4691 3 22.3691 3.87 22.3691 5.65V15.45C22.3691 17.23 21.4691 18.1 19.6191 18.1ZM18.6191 4.5C17.5291 4.5 17.3691 4.76 17.3691 5.65V15.45C17.3691 16.34 17.5291 16.6 18.6191 16.6H19.6191C20.7091 16.6 20.8691 16.34 20.8691 15.45V5.65C20.8691 4.76 20.7091 4.5 19.6191 4.5H18.6191Z" fill="#292D32"/>
</svg>
