<svg width="24" height="24" viewBox="0 0 24 24" fill="none" xmlns="http://www.w3.org/2000/svg">
<path d="M11.5022 22.7517C10.7122 22.7517 9.9622 22.3417 9.4422 21.6417L8.42218 20.3017C8.21218 20.0217 7.9322 19.8617 7.6322 19.8417C7.3422 19.8217 7.03223 19.9617 6.78223 20.2117C5.92223 21.1317 5.08218 21.5717 4.29218 21.5517C3.75218 21.5317 3.28218 21.2917 2.92218 20.8517C2.88218 20.8017 2.84219 20.7317 2.81219 20.6617C2.42219 19.8217 2.24219 18.6817 2.24219 16.9717V7.05172C2.24219 5.34172 2.42219 4.21172 2.81219 3.36172C2.84219 3.30172 2.87218 3.24172 2.92218 3.19172C3.27218 2.74172 3.74223 2.50172 4.28223 2.47172C5.08223 2.44172 5.93222 2.90172 6.77222 3.80172C7.02222 4.07172 7.32219 4.20172 7.62219 4.18172C7.92219 4.16172 8.20217 4.00172 8.41217 3.72172L9.43219 2.37172C9.95219 1.67172 10.7022 1.26172 11.4922 1.26172C12.2822 1.26172 13.0322 1.67172 13.5522 2.37172L14.5622 3.71172C14.7722 4.00172 15.0622 4.16172 15.3722 4.18172C15.6622 4.20172 15.9722 4.06172 16.2222 3.80172C17.0422 2.92172 17.8522 2.47172 18.6322 2.47172C19.1922 2.47172 19.7122 2.72172 20.0722 3.19172C20.1122 3.24172 20.1522 3.30172 20.1822 3.37172C20.5722 4.21172 20.7522 5.35172 20.7522 7.06172V16.9817C20.7522 18.6917 20.5722 19.8217 20.1822 20.6717C20.1422 20.7617 20.0922 20.8417 20.0222 20.9117C19.7122 21.3117 19.2022 21.5617 18.6322 21.5617C17.8522 21.5617 17.0422 21.1117 16.2222 20.2317C15.9822 19.9717 15.6522 19.8317 15.3722 19.8517C15.0622 19.8717 14.7822 20.0317 14.5622 20.3217L13.5522 21.6617C13.0422 22.3417 12.2922 22.7517 11.5022 22.7517ZM7.58221 18.3317C7.62221 18.3317 7.67222 18.3317 7.71222 18.3317C8.45222 18.3717 9.14218 18.7617 9.61218 19.3917L10.6322 20.7417C11.1222 21.4017 11.8622 21.4017 12.3522 20.7517L13.3622 19.4117C13.8422 18.7717 14.5422 18.3917 15.2822 18.3517C16.0222 18.3117 16.7622 18.6217 17.3022 19.2017C18.0422 19.9917 18.4922 20.0517 18.6122 20.0517C18.6922 20.0517 18.7622 20.0317 18.8322 19.9717C19.1122 19.3417 19.2322 18.3917 19.2322 16.9717V7.05172C19.2322 5.65172 19.1022 4.70172 18.8322 4.07172C18.7522 3.98172 18.6722 3.97172 18.6122 3.97172C18.4922 3.97172 18.0422 4.03172 17.3022 4.82172C16.7622 5.40172 16.0222 5.71172 15.2822 5.67172C14.5322 5.63172 13.8322 5.24172 13.3522 4.61172L12.3422 3.27172C11.8522 2.61172 11.1122 2.61172 10.6222 3.27172L9.60217 4.63172C9.13217 5.26172 8.44221 5.64172 7.70221 5.68172C6.96221 5.72172 6.22219 5.41172 5.68219 4.84172C5.07219 4.18172 4.60222 3.96172 4.34222 3.97172C4.28222 3.97172 4.2122 3.99172 4.1322 4.07172C3.8622 4.70172 3.73218 5.65172 3.73218 7.05172V16.9717C3.73218 18.3817 3.8622 19.3317 4.1322 19.9617C4.2222 20.0417 4.28222 20.0517 4.34222 20.0617C4.59222 20.0717 5.06218 19.8517 5.67218 19.2017C6.20218 18.6317 6.89221 18.3317 7.58221 18.3317Z" fill="#292D32"/>
<path d="M16 11H8C7.59 11 7.25 10.66 7.25 10.25C7.25 9.84 7.59 9.5 8 9.5H16C16.41 9.5 16.75 9.84 16.75 10.25C16.75 10.66 16.41 11 16 11Z" fill="#292D32"/>
<path d="M14 14.5H8C7.59 14.5 7.25 14.16 7.25 13.75C7.25 13.34 7.59 13 8 13H14C14.41 13 14.75 13.34 14.75 13.75C14.75 14.16 14.41 14.5 14 14.5Z" fill="#292D32"/>
</svg>
