<svg width="24" height="24" viewBox="0 0 24 24" fill="none" xmlns="http://www.w3.org/2000/svg">
<path d="M10.5578 22.7087C9.47782 22.7087 8.38782 22.3987 7.54782 21.7687L3.26782 18.5688C2.13782 17.7288 1.25781 15.9588 1.25781 14.5388V7.12876C1.25781 5.59876 2.37783 3.96874 3.81783 3.42875L8.79782 1.55875C9.78782 1.18875 11.3378 1.18875 12.3278 1.55875L17.2978 3.42875C18.4678 3.86875 19.4578 5.03875 19.7778 6.33875C19.8278 6.55875 19.7778 6.79876 19.6378 6.97876C19.4978 7.15876 19.2778 7.26874 19.0478 7.26874L11.1378 7.27875C9.86782 7.35875 9.55782 7.56877 9.55782 9.41877V14.8488C9.55782 16.7588 9.80782 16.9988 11.7478 16.9988H17.6678C17.9778 16.9988 18.2578 17.1888 18.3678 17.4788C18.4778 17.7688 18.3978 18.0988 18.1678 18.3088C18.0578 18.3988 17.9678 18.4888 17.8578 18.5688L13.5778 21.7788C12.7178 22.3988 11.6378 22.7087 10.5578 22.7087ZM10.5578 2.78876C10.1078 2.78876 9.64783 2.84876 9.31783 2.97876L4.33781 4.84876C3.49781 5.16876 2.74782 6.23875 2.74782 7.14875V14.5588C2.74782 15.4987 3.40782 16.8188 4.15782 17.3788L8.43782 20.5787C9.58782 21.4287 11.5178 21.4287 12.6678 20.5787L15.4378 18.5088H11.7378C8.97782 18.5088 8.04782 17.5887 8.04782 14.8587V9.42875C8.04782 7.29875 8.55781 5.94876 11.0878 5.78876L11.7378 5.77875H17.8878C17.5878 5.34875 17.1878 5.00876 16.7678 4.84876L11.7978 2.97876C11.4578 2.84876 11.0078 2.78876 10.5578 2.78876Z" fill="#292D32"/>
<path d="M22.0008 11.9688H8.80078C8.39078 11.9688 8.05078 11.6287 8.05078 11.2188C8.05078 10.8088 8.39078 10.4688 8.80078 10.4688H22.0008C22.4108 10.4688 22.7508 10.8088 22.7508 11.2188C22.7508 11.6287 22.4108 11.9688 22.0008 11.9688Z" fill="#292D32"/>
<path d="M19.0608 18.4995H11.7408C8.98078 18.4995 8.05078 17.5795 8.05078 14.8495V9.41956C8.05078 7.28956 8.56077 5.93954 11.0908 5.77954L11.7408 5.76953H19.0608C21.8208 5.76953 22.7508 6.68956 22.7508 9.41956V14.9695C22.7308 17.6095 21.8008 18.4995 19.0608 18.4995ZM11.7408 7.26953L11.1308 7.27954C9.86078 7.35954 9.55078 7.56956 9.55078 9.41956V14.8495C9.55078 16.7595 9.80078 16.9995 11.7408 16.9995H19.0608C20.9708 16.9995 21.2308 16.7495 21.2508 14.9695V9.42953C21.2508 7.51953 21.0008 7.27954 19.0608 7.27954H11.7408V7.26953Z" fill="#292D32"/>
<path d="M12.6486 16.0117H11.3086C10.8986 16.0117 10.5586 15.6717 10.5586 15.2617C10.5586 14.8517 10.8986 14.5117 11.3086 14.5117H12.6486C13.0586 14.5117 13.3986 14.8517 13.3986 15.2617C13.3986 15.6717 13.0686 16.0117 12.6486 16.0117Z" fill="#292D32"/>
<path d="M18.02 16.0117H14.75C14.34 16.0117 14 15.6717 14 15.2617C14 14.8517 14.34 14.5117 14.75 14.5117H18.02C18.43 14.5117 18.77 14.8517 18.77 15.2617C18.77 15.6717 18.44 16.0117 18.02 16.0117Z" fill="#292D32"/>
</svg>
