<svg width="24" height="24" viewBox="0 0 24 24" fill="none" xmlns="http://www.w3.org/2000/svg">
<path d="M12.0691 21.9813C10.6591 21.9813 9.23911 21.4413 8.16911 20.3713L3.63911 15.8413C2.53911 14.7413 1.95911 13.2213 2.02911 11.6713L2.26911 6.6613C2.37911 4.2713 4.26911 2.3813 6.66911 2.2613L11.6691 2.0213C13.2291 1.9513 14.7391 2.5313 15.8391 3.6313L20.3691 8.1613C22.5191 10.3113 22.5191 13.8213 20.3691 15.9713L15.9791 20.3613C14.8991 21.4413 13.4891 21.9813 12.0691 21.9813ZM4.69911 14.7713L9.22911 19.3013C10.7991 20.8713 13.3491 20.8713 14.9191 19.3013L19.3091 14.9113C20.8791 13.3413 20.8791 10.7913 19.3091 9.2213L14.7691 4.7013C13.9691 3.9013 12.8791 3.4813 11.7291 3.5313L6.72911 3.7713C5.10911 3.8413 3.83911 5.1113 3.75911 6.7313L3.51911 11.7413C3.46911 12.8613 3.89911 13.9713 4.69911 14.7713Z" fill="#292D32"/>
<path d="M9.5 12.75C7.71 12.75 6.25 11.29 6.25 9.5C6.25 7.71 7.71 6.25 9.5 6.25C11.29 6.25 12.75 7.71 12.75 9.5C12.75 11.29 11.29 12.75 9.5 12.75ZM9.5 7.75C8.54 7.75 7.75 8.54 7.75 9.5C7.75 10.46 8.54 11.25 9.5 11.25C10.46 11.25 11.25 10.46 11.25 9.5C11.25 8.54 10.46 7.75 9.5 7.75Z" fill="#292D32"/>
<path d="M13.0014 17.7514C12.8114 17.7514 12.6214 17.6814 12.4714 17.5314C12.1814 17.2414 12.1814 16.7614 12.4714 16.4714L16.4714 12.4714C16.7614 12.1814 17.2414 12.1814 17.5314 12.4714C17.8214 12.7614 17.8214 13.2414 17.5314 13.5314L13.5314 17.5314C13.3814 17.6814 13.1914 17.7514 13.0014 17.7514Z" fill="#292D32"/>
</svg>
