<svg width="24" height="24" viewBox="0 0 24 24" fill="none" xmlns="http://www.w3.org/2000/svg">
<path opacity="0.34" d="M12 15C13.6569 15 15 13.6569 15 12C15 10.3431 13.6569 9 12 9C10.3431 9 9 10.3431 9 12C9 13.6569 10.3431 15 12 15Z" stroke="#292D32" stroke-width="1.5" stroke-miterlimit="10" stroke-linecap="round" stroke-linejoin="round"/>
<path d="M2 12.8814V11.1214C2 10.0814 2.85 9.2214 3.9 9.2214C5.71 9.2214 6.45 7.9414 5.54 6.3714C5.02 5.4714 5.33 4.3014 6.24 3.7814L7.97 2.7914C8.76 2.3214 9.78 2.6014 10.25 3.3914L10.36 3.5814C11.26 5.1514 12.74 5.1514 13.65 3.5814L13.76 3.3914C14.23 2.6014 15.25 2.3214 16.04 2.7914L17.77 3.7814C18.68 4.3014 18.99 5.4714 18.47 6.3714C17.56 7.9414 18.3 9.2214 20.11 9.2214C21.15 9.2214 22.01 10.0714 22.01 11.1214V12.8814C22.01 13.9214 21.16 14.7814 20.11 14.7814C18.3 14.7814 17.56 16.0614 18.47 17.6314C18.99 18.5414 18.68 19.7014 17.77 20.2214L16.04 21.2114C15.25 21.6814 14.23 21.4014 13.76 20.6114L13.65 20.4214C12.75 18.8514 11.27 18.8514 10.36 20.4214L10.25 20.6114C9.78 21.4014 8.76 21.6814 7.97 21.2114L6.24 20.2214C5.33 19.7014 5.02 18.5314 5.54 17.6314C6.45 16.0614 5.71 14.7814 3.9 14.7814C2.85 14.7814 2 13.9214 2 12.8814Z" stroke="#292D32" stroke-width="1.5" stroke-miterlimit="10" stroke-linecap="round" stroke-linejoin="round"/>
</svg>
