<svg width="24" height="24" viewBox="0 0 24 24" fill="none" xmlns="http://www.w3.org/2000/svg">
<path d="M12 20.2483C10.85 20.2483 9.74002 20.0183 8.70002 19.5583C8.32002 19.3883 8.15002 18.9483 8.31002 18.5683C8.48002 18.1883 8.92002 18.0183 9.30002 18.1783C10.15 18.5483 11.06 18.7383 12 18.7383C15.72 18.7383 18.75 15.7083 18.75 11.9883C18.75 11.0483 18.56 10.1383 18.19 9.2883C18.02 8.9083 18.2 8.4683 18.58 8.2983C18.96 8.1383 19.4 8.3083 19.57 8.6883C20.03 9.7283 20.26 10.8383 20.26 11.9883C20.25 16.5483 16.55 20.2483 12 20.2483Z" fill="#292D32"/>
<path d="M6.58 17.94C6.38 17.94 6.19 17.86 6.04 17.71C4.56 16.16 3.75 14.14 3.75 12C3.75 7.45 7.45 3.75 12 3.75C14.15 3.75 16.18 4.57 17.73 6.06C18.03 6.35 18.04 6.82 17.75 7.12C17.46 7.42 16.99 7.43 16.69 7.14C15.42 5.92 13.76 5.25 12 5.25C8.28 5.25 5.25 8.28 5.25 12C5.25 13.75 5.92 15.41 7.13 16.67C7.42 16.97 7.41 17.44 7.11 17.73C6.96 17.87 6.77 17.94 6.58 17.94Z" fill="#292D32"/>
<path d="M12 4.75C11.59 4.75 11.25 4.41 11.25 4V2C11.25 1.59 11.59 1.25 12 1.25C12.41 1.25 12.75 1.59 12.75 2V4C12.75 4.41 12.41 4.75 12 4.75Z" fill="#292D32"/>
<path d="M4 12.75H2C1.59 12.75 1.25 12.41 1.25 12C1.25 11.59 1.59 11.25 2 11.25H4C4.41 11.25 4.75 11.59 4.75 12C4.75 12.41 4.41 12.75 4 12.75Z" fill="#292D32"/>
<path d="M12 22.75C11.59 22.75 11.25 22.41 11.25 22V20C11.25 19.59 11.59 19.25 12 19.25C12.41 19.25 12.75 19.59 12.75 20V22C12.75 22.41 12.41 22.75 12 22.75Z" fill="#292D32"/>
<path d="M22 12.75H20C19.59 12.75 19.25 12.41 19.25 12C19.25 11.59 19.59 11.25 20 11.25H22C22.41 11.25 22.75 11.59 22.75 12C22.75 12.41 22.41 12.75 22 12.75Z" fill="#292D32"/>
<path d="M9.88 14.87C9.69 14.87 9.5 14.8 9.35 14.65C8.64 13.94 8.25 13 8.25 12C8.25 9.93 9.93 8.25 12 8.25C13 8.25 13.94 8.64 14.65 9.35C14.94 9.64 14.94 10.12 14.65 10.41L10.41 14.65C10.26 14.8 10.07 14.87 9.88 14.87ZM12 9.75C10.76 9.75 9.75 10.76 9.75 12C9.75 12.34 9.83 12.67 9.97 12.97L12.97 9.97C12.67 9.83 12.34 9.75 12 9.75Z" fill="#292D32"/>
<path d="M2.00141 22.7514C1.81141 22.7514 1.62141 22.6814 1.47141 22.5314C1.18141 22.2414 1.18141 21.7614 1.47141 21.4714L21.4714 1.47141C21.7614 1.18141 22.2414 1.18141 22.5314 1.47141C22.8214 1.76141 22.8214 2.24141 22.5314 2.53141L2.53141 22.5314C2.38141 22.6814 2.19141 22.7514 2.00141 22.7514Z" fill="#292D32"/>
</svg>
