<svg width="24" height="24" viewBox="0 0 24 24" fill="none" xmlns="http://www.w3.org/2000/svg">
<path opacity="0.4" d="M12 22C17.5228 22 22 17.5228 22 12C22 6.47715 17.5228 2 12 2C6.47715 2 2 6.47715 2 12C2 17.5228 6.47715 22 12 22Z" fill="#292D32"/>
<path d="M17.25 10.1795V12.8095C17.25 12.9795 17.24 13.1395 17.22 13.2995C17.07 15.0695 16.02 15.9496 14.1 15.9496H13.84C13.68 15.9496 13.52 16.0295 13.42 16.1595L12.63 17.2095C12.28 17.6795 11.72 17.6795 11.37 17.2095L10.58 16.1595C10.49 16.0495 10.3 15.9496 10.16 15.9496H9.89999C7.79999 15.9496 6.75 15.4295 6.75 12.7995V10.1696C6.75 8.24956 7.63999 7.19953 9.39999 7.04953C9.55999 7.02953 9.72001 7.01953 9.89001 7.01953H14.09C16.2 7.03953 17.25 8.08953 17.25 10.1795Z" fill="#292D32"/>
</svg>
