<svg width="24" height="24" viewBox="0 0 24 24" fill="none" xmlns="http://www.w3.org/2000/svg">
<path d="M11.3993 21.81H17.5993C19.0293 21.81 20.3993 20.6499 20.6393 19.2399L21.9693 11.2799C22.1293 10.2999 21.6293 8.98989 20.8593 8.36989L13.9293 2.82985C12.8593 1.96985 11.1293 1.96984 10.0693 2.81984L3.1393 8.36989C2.3593 8.98989 1.85929 10.2999 2.02929 11.2799L2.30929 12.9599" stroke="#292D32" stroke-width="1.5" stroke-linecap="round" stroke-linejoin="round"/>
<path opacity="0.4" d="M2 19C3.76 19.04 4.96 20.24 5 22" stroke="#292D32" stroke-width="1.5" stroke-linecap="round" stroke-linejoin="round"/>
<path opacity="0.4" d="M8 22C7.99 21.24 7.86 20.53 7.63 19.88C7.04 18.21 5.78 16.96 4.12 16.37C3.47 16.14 2.76 16.01 2 16" stroke="#292D32" stroke-width="1.5" stroke-linecap="round" stroke-linejoin="round"/>
<path opacity="0.4" d="M1.9955 22H2.0045" stroke="#292D32" stroke-width="2" stroke-linecap="round" stroke-linejoin="round"/>
</svg>
