<svg width="24" height="24" viewBox="0 0 24 24" fill="none" xmlns="http://www.w3.org/2000/svg">
<path d="M3 9.75C1.48 9.75 0.25 8.52 0.25 7C0.25 5.48 1.48 4.25 3 4.25C4.52 4.25 5.75 5.48 5.75 7C5.75 8.52 4.52 9.75 3 9.75ZM3 5.75C2.31 5.75 1.75 6.31 1.75 7C1.75 7.69 2.31 8.25 3 8.25C3.69 8.25 4.25 7.69 4.25 7C4.25 6.31 3.69 5.75 3 5.75Z" fill="#292D32"/>
<path d="M21 9.75C19.48 9.75 18.25 8.52 18.25 7C18.25 5.48 19.48 4.25 21 4.25C22.52 4.25 23.75 5.48 23.75 7C23.75 8.52 22.52 9.75 21 9.75ZM21 5.75C20.31 5.75 19.75 6.31 19.75 7C19.75 7.69 20.31 8.25 21 8.25C21.69 8.25 22.25 7.69 22.25 7C22.25 6.31 21.69 5.75 21 5.75Z" fill="#292D32"/>
<path d="M19 7.75H15C14.59 7.75 14.25 7.41 14.25 7C14.25 6.59 14.59 6.25 15 6.25H19C19.41 6.25 19.75 6.59 19.75 7C19.75 7.41 19.41 7.75 19 7.75Z" fill="#292D32"/>
<path d="M9 7.75H5C4.59 7.75 4.25 7.41 4.25 7C4.25 6.59 4.59 6.25 5 6.25H9C9.41 6.25 9.75 6.59 9.75 7C9.75 7.41 9.41 7.75 9 7.75Z" fill="#292D32"/>
<path d="M6 20.75H4C2.76 20.75 1.75 19.74 1.75 18.5V16.5C1.75 15.26 2.76 14.25 4 14.25H6C7.24 14.25 8.25 15.26 8.25 16.5V18.5C8.25 19.4 7.72 20.2 6.9 20.55C6.63 20.68 6.32 20.75 6 20.75ZM4 15.75C3.59 15.75 3.25 16.09 3.25 16.5V18.5C3.25 18.91 3.59 19.25 4 19.25H6C6.1 19.25 6.19 19.2301 6.29 19.1801C6.58 19.0601 6.75 18.79 6.75 18.5V16.5C6.75 16.09 6.41 15.75 6 15.75H4Z" fill="#292D32"/>
<path d="M20 20.75H18C17.68 20.75 17.37 20.68 17.07 20.54C16.28 20.21 15.75 19.4 15.75 18.5V16.5C15.75 15.26 16.76 14.25 18 14.25H20C21.24 14.25 22.25 15.26 22.25 16.5V18.5C22.25 19.74 21.24 20.75 20 20.75ZM18 15.75C17.59 15.75 17.25 16.09 17.25 16.5V18.5C17.25 18.79 17.42 19.06 17.68 19.17C17.81 19.23 17.9 19.25 18 19.25H20C20.41 19.25 20.75 18.91 20.75 18.5V16.5C20.75 16.09 20.41 15.75 20 15.75H18Z" fill="#292D32"/>
<path d="M13.5 10.75H10.5C9.26 10.75 8.25 9.74 8.25 8.5V5.5C8.25 4.26 9.26 3.25 10.5 3.25H13.5C14.74 3.25 15.75 4.26 15.75 5.5V8.5C15.75 9.74 14.74 10.75 13.5 10.75ZM10.5 4.75C10.09 4.75 9.75 5.09 9.75 5.5V8.5C9.75 8.91 10.09 9.25 10.5 9.25H13.5C13.91 9.25 14.25 8.91 14.25 8.5V5.5C14.25 5.09 13.91 4.75 13.5 4.75H10.5Z" fill="#292D32"/>
<path d="M18.9707 15.7507C18.9407 15.7507 18.9107 15.7507 18.8807 15.7507C18.4707 15.7007 18.1707 15.3308 18.2207 14.9208C18.2407 14.7808 18.2407 14.6507 18.2407 14.5107C18.2407 11.9107 16.8307 9.51071 14.6507 8.41071C14.2807 8.22071 14.1307 7.77076 14.3207 7.40076C14.5107 7.03076 14.9607 6.88074 15.3307 7.07074C18.0107 8.43074 19.7407 11.3507 19.7407 14.5107C19.7407 14.7107 19.7307 14.9007 19.7007 15.1007C19.6707 15.4707 19.3507 15.7507 18.9707 15.7507Z" fill="#292D32"/>
<path d="M5.03 15.749C4.65 15.749 4.33 15.469 4.29 15.089C4.27 14.889 4.25 14.699 4.25 14.499C4.25 11.339 5.98 8.41902 8.66 7.05902C9.03 6.86902 9.48 7.01904 9.67 7.38904C9.86 7.75904 9.71 8.20905 9.34 8.39905C7.16 9.49905 5.75 11.899 5.75 14.499C5.75 14.639 5.76 14.7691 5.77 14.9091C5.82 15.3191 5.52 15.689 5.11 15.739C5.09 15.749 5.06 15.749 5.03 15.749Z" fill="#292D32"/>
</svg>
