<svg width="24" height="24" viewBox="0 0 24 24" fill="none" xmlns="http://www.w3.org/2000/svg">
<path d="M13.6211 18.1294H10.3911C7.26109 18.1294 5.87109 16.7394 5.87109 13.6094V10.3794C5.87109 7.24939 7.26109 5.85938 10.3911 5.85938H13.6211C16.7511 5.85938 18.1411 7.24939 18.1411 10.3794V13.6094C18.1311 16.7394 16.7411 18.1294 13.6211 18.1294ZM10.3811 7.36938C8.0911 7.36938 7.3611 8.0994 7.3611 10.3894V13.6194C7.3611 15.9094 8.0911 16.6394 10.3811 16.6394H13.6111C15.9011 16.6394 16.6311 15.9094 16.6311 13.6194V10.3894C16.6311 8.0994 15.9011 7.36938 13.6111 7.36938H10.3811Z" fill="#292D32"/>
<path d="M18.2305 13.52H17.3805C16.9705 13.52 16.6305 13.18 16.6305 12.77V10.39C16.6305 8.10001 15.9005 7.37 13.6105 7.37H11.2305C10.8205 7.37 10.4805 7.03 10.4805 6.62V5.76999C10.4805 2.63999 11.8705 1.25 15.0005 1.25H18.2305C21.3605 1.25 22.7505 2.63999 22.7505 5.76999V9C22.7505 12.13 21.3605 13.52 18.2305 13.52ZM18.1305 12.02H18.2305C20.5205 12.02 21.2505 11.29 21.2505 9V5.76999C21.2505 3.47999 20.5205 2.75 18.2305 2.75H15.0005C12.7105 2.75 11.9805 3.47999 11.9805 5.76999V5.87H13.6105C16.7405 5.87 18.1305 7.26001 18.1305 10.39V12.02V12.02Z" fill="#292D32"/>
<path d="M9 22.7505H5.77C2.64 22.7505 1.25 21.3605 1.25 18.2305V15.0005C1.25 11.8705 2.64 10.4805 5.77 10.4805H6.62C7.03 10.4805 7.37 10.8205 7.37 11.2305V13.6104C7.37 15.9004 8.1 16.6305 10.39 16.6305H12.77C13.18 16.6305 13.52 16.9705 13.52 17.3805V18.2305C13.52 21.3605 12.13 22.7505 9 22.7505ZM5.77 11.9805C3.48 11.9805 2.75 12.7105 2.75 15.0005V18.2305C2.75 20.5205 3.48 21.2505 5.77 21.2505H9C11.29 21.2505 12.02 20.5205 12.02 18.2305V18.1305H10.39C7.26 18.1305 5.87 16.7404 5.87 13.6104V11.9805H5.77Z" fill="#292D32"/>
</svg>
