<svg width="24" height="24" viewBox="0 0 24 24" fill="none" xmlns="http://www.w3.org/2000/svg">
<path d="M10.0605 21.5797C9.06049 21.5797 8.05049 20.8997 6.70049 19.5597L3.24049 16.0997C0.300494 13.1597 0.600494 12.0297 3.24049 9.37971L8.81049 3.79971C10.7805 1.82971 12.4105 0.679708 15.5305 3.79971L18.9905 7.25971C21.8005 10.0697 21.1205 11.8497 18.9905 13.9797L13.4205 19.5497C12.0705 20.8997 11.0705 21.5797 10.0605 21.5797ZM4.30049 15.0297L7.76049 18.4897C9.88049 20.6097 10.2305 20.6197 12.3605 18.4897L17.9305 12.9197C19.6005 11.2497 20.0305 10.4197 17.9305 8.31971L14.4705 4.85971C12.2805 2.66971 11.6205 3.11971 9.87049 4.85971L4.30049 10.4297C2.18049 12.5597 2.00049 12.7297 4.30049 15.0297Z" fill="#292D32"/>
<path d="M20.1409 21.4584C19.0009 21.4584 18.1009 21.0184 17.6609 20.2484C17.2209 19.4784 17.3109 18.4784 17.9009 17.4984L18.5609 16.4084C18.9509 15.7684 19.5209 15.3984 20.1409 15.3984C20.7609 15.3984 21.3409 15.7684 21.7209 16.4084L22.3809 17.4984C22.9709 18.4784 23.0509 19.4784 22.6209 20.2484C22.1909 21.0184 21.2709 21.4584 20.1409 21.4584ZM20.1409 16.8984C20.0909 16.8984 19.9709 16.9784 19.8409 17.1784L19.1809 18.2684C18.8809 18.7684 18.8009 19.2184 18.9609 19.5084C19.1209 19.7984 19.5509 19.9584 20.1309 19.9584C20.7109 19.9584 21.1409 19.7984 21.3009 19.5084C21.4609 19.2184 21.3809 18.7784 21.0809 18.2684L20.4209 17.1784C20.3109 16.9684 20.1909 16.8984 20.1409 16.8984Z" fill="#292D32"/>
<path d="M2.00062 12.9891C1.67062 12.9891 1.37062 12.7691 1.28062 12.4391C1.17062 12.0391 1.41062 11.6291 1.81062 11.5191C7.48062 9.97914 13.4906 9.92914 19.1906 11.3891L19.6906 11.5191C20.0906 11.6191 20.3306 12.0291 20.2306 12.4291C20.1306 12.8291 19.7206 13.0691 19.3206 12.9691L18.8206 12.8391C13.3706 11.4391 7.63062 11.4891 2.21062 12.9691C2.13062 12.9891 2.06062 12.9891 2.00062 12.9891Z" fill="#292D32"/>
</svg>
