<svg width="24" height="24" viewBox="0 0 24 24" fill="none" xmlns="http://www.w3.org/2000/svg">
<path d="M11.7207 22.75H7.2207C3.0707 22.75 1.2207 20.9 1.2207 16.75V12.25C1.2207 8.1 3.0707 6.25 7.2207 6.25H11.7207C15.8707 6.25 17.7207 8.1 17.7207 12.25V16.75C17.7207 20.9 15.8707 22.75 11.7207 22.75ZM7.2207 7.75C3.9007 7.75 2.7207 8.93 2.7207 12.25V16.75C2.7207 20.07 3.9007 21.25 7.2207 21.25H11.7207C15.0407 21.25 16.2207 20.07 16.2207 16.75V12.25C16.2207 8.93 15.0407 7.75 11.7207 7.75H7.2207Z" fill="#292D32"/>
<path d="M16.9692 13.7217C16.7792 13.7217 16.5992 13.6517 16.4592 13.5217C16.2992 13.3817 16.2192 13.1817 16.2192 12.9717V12.2517C16.2192 8.93172 15.0392 7.75172 11.7192 7.75172H10.9992C10.7892 7.75172 10.5892 7.66172 10.4492 7.51172C10.3092 7.35172 10.2392 7.15172 10.2592 6.94172C10.5492 3.70172 13.2192 1.26172 16.4792 1.26172C19.5992 1.26172 22.2592 3.59172 22.6592 6.68172C22.6992 6.92172 22.7292 7.21172 22.7292 7.51172C22.7292 10.7717 20.2892 13.4417 17.0492 13.7317C17.0192 13.7217 16.9992 13.7217 16.9692 13.7217ZM11.8892 6.25172C15.8592 6.30172 17.6692 8.10172 17.7192 12.0817C19.7592 11.5417 21.2192 9.69172 21.2192 7.50172C21.2192 7.29172 21.1992 7.09172 21.1692 6.90172C20.8592 4.52172 18.8392 2.75172 16.4692 2.75172C14.2792 2.75172 12.4392 4.21172 11.8892 6.25172Z" fill="#292D32"/>
</svg>
