<svg width="24" height="24" viewBox="0 0 24 24" fill="none" xmlns="http://www.w3.org/2000/svg">
<path d="M15.9978 22.3214C15.6578 22.3214 15.3278 22.2214 15.0378 22.0314L10.7778 19.1914H8.88782C8.65782 19.1914 8.43779 19.0814 8.29779 18.9014C8.15779 18.7114 8.10782 18.4714 8.16782 18.2514C8.22782 18.0114 8.25781 17.7714 8.25781 17.5114C8.25781 16.7114 7.95782 15.9414 7.41782 15.3414C6.80782 14.6514 5.93781 14.2614 5.00781 14.2614C4.11781 14.2614 3.2878 14.6114 2.6778 15.2414C2.4878 15.4414 2.19781 15.5214 1.93781 15.4414C1.67781 15.3614 1.46781 15.1514 1.40781 14.8814C1.30781 14.4414 1.25781 13.9614 1.25781 13.4414V7.44141C1.25781 4.00141 3.56781 1.69141 7.00781 1.69141H17.0078C20.4478 1.69141 22.7578 4.00141 22.7578 7.44141V13.4414C22.7578 15.1114 22.2078 16.5514 21.1578 17.6014C20.2778 18.4814 19.1078 19.0114 17.7578 19.1514V20.5714C17.7578 21.2214 17.3978 21.8114 16.8278 22.1214C16.5578 22.2514 16.2778 22.3214 15.9978 22.3214ZM9.7478 17.6814H10.9978C11.1478 17.6814 11.2878 17.7214 11.4178 17.8114L15.8678 20.7814C15.9678 20.8514 16.0678 20.8214 16.1178 20.7914C16.1678 20.7614 16.2578 20.7014 16.2578 20.5614V18.4314C16.2578 18.0214 16.5978 17.6814 17.0078 17.6814C18.2778 17.6814 19.3478 17.2814 20.0978 16.5314C20.8578 15.7714 21.2578 14.7014 21.2578 13.4314V7.4314C21.2578 4.8514 19.5878 3.1814 17.0078 3.1814H7.00781C4.42781 3.1814 2.75781 4.8514 2.75781 7.4314V13.3114C3.43781 12.9414 4.20781 12.7514 5.00781 12.7514C6.36781 12.7514 7.65781 13.3314 8.53781 14.3314C9.31781 15.2014 9.75781 16.3314 9.75781 17.5014C9.74781 17.5614 9.7478 17.6214 9.7478 17.6814Z" fill="#292D32"/>
<path d="M5 22.25C3.82 22.25 2.69999 21.81 1.82999 21.02C1.47999 20.72 1.16999 20.35 0.929993 19.94C0.489993 19.22 0.25 18.37 0.25 17.5C0.25 16.25 0.729996 15.08 1.59 14.19C2.49 13.26 3.7 12.75 5 12.75C6.36 12.75 7.65 13.33 8.53 14.33C9.31 15.2 9.75 16.33 9.75 17.5C9.75 17.88 9.70001 18.26 9.60001 18.62C9.50001 19.07 9.30999 19.54 9.04999 19.95C8.21999 21.37 6.66 22.25 5 22.25ZM5 14.25C4.11 14.25 3.28001 14.6 2.67001 15.23C2.08001 15.84 1.75 16.64 1.75 17.5C1.75 18.09 1.91 18.67 2.22 19.17C2.38 19.45 2.58999 19.7 2.82999 19.91C3.42999 20.46 4.2 20.76 5 20.76C6.15 20.76 7.19 20.17 7.78 19.19C7.96 18.91 8.07999 18.6 8.14999 18.28C8.21999 18.02 8.25 17.77 8.25 17.51C8.25 16.71 7.95 15.94 7.41 15.34C6.81 14.64 5.93 14.25 5 14.25Z" fill="#292D32"/>
<path d="M6.48999 18.2305H3.5C3.09 18.2305 2.75 17.8905 2.75 17.4805C2.75 17.0705 3.09 16.7305 3.5 16.7305H6.48999C6.89999 16.7305 7.23999 17.0705 7.23999 17.4805C7.23999 17.8905 6.90999 18.2305 6.48999 18.2305Z" fill="#292D32"/>
<path d="M5 19.7595C4.59 19.7595 4.25 19.4195 4.25 19.0095V16.0195C4.25 15.6095 4.59 15.2695 5 15.2695C5.41 15.2695 5.75 15.6095 5.75 16.0195V19.0095C5.75 19.4295 5.41 19.7595 5 19.7595Z" fill="#292D32"/>
<path d="M15.5 11.25H8.5C8.09 11.25 7.75 10.91 7.75 10.5C7.75 10.09 8.09 9.75 8.5 9.75H15.5C15.91 9.75 16.25 10.09 16.25 10.5C16.25 10.91 15.91 11.25 15.5 11.25Z" fill="#292D32"/>
</svg>
