<svg width="24" height="24" viewBox="0 0 24 24" fill="none" xmlns="http://www.w3.org/2000/svg">
<path opacity="0.4" d="M12.0011 17.3498C12.9013 17.3498 13.6311 16.6201 13.6311 15.7198C13.6311 14.8196 12.9013 14.0898 12.0011 14.0898C11.1009 14.0898 10.3711 14.8196 10.3711 15.7198C10.3711 16.6201 11.1009 17.3498 12.0011 17.3498Z" fill="#292D32"/>
<path d="M16.65 9.44141H7.35C3.25 9.44141 2 10.6914 2 14.7914V16.6514C2 20.7514 3.25 22.0014 7.35 22.0014H16.65C20.75 22.0014 22 20.7514 22 16.6514V14.7914C22 10.6914 20.75 9.44141 16.65 9.44141ZM12 18.7414C10.33 18.7414 8.98 17.3814 8.98 15.7214C8.98 14.0614 10.33 12.7014 12 12.7014C13.67 12.7014 15.02 14.0614 15.02 15.7214C15.02 17.3814 13.67 18.7414 12 18.7414Z" fill="#292D32"/>
<path opacity="0.4" d="M7.11875 9.45V8.28C7.11875 5.35 7.94875 3.4 11.9988 3.4C16.0488 3.4 16.8787 5.35 16.8787 8.28V9.45C17.3887 9.46 17.8488 9.48 18.2788 9.54V8.28C18.2788 5.58 17.6288 2 11.9988 2C6.36875 2 5.71875 5.58 5.71875 8.28V9.53C6.13875 9.48 6.60875 9.45 7.11875 9.45Z" fill="#292D32"/>
</svg>
