<svg width="24" height="24" viewBox="0 0 24 24" fill="none" xmlns="http://www.w3.org/2000/svg">
<path d="M15 22C14.59 22 14.25 21.66 14.25 21.25V2.75C14.25 2.34 14.59 2 15 2C15.41 2 15.75 2.34 15.75 2.75V21.25C15.75 21.66 15.41 22 15 22Z" fill="#292D32"/>
<path opacity="0.4" d="M6.5 20H12.5V4H6.5C4.29 4 2.5 5.79 2.5 8V16C2.5 18.21 4.29 20 6.5 20Z" fill="#292D32"/>
<path opacity="0.4" d="M18 20H15V4H18C20.21 4 22 5.79 22 8V16C22 18.21 20.21 20 18 20Z" fill="#292D32"/>
<path d="M5.75 13.0009C5.62 13.0009 5.49 12.9709 5.37 12.9209C5.25 12.8709 5.14 12.8009 5.04 12.7109C4.95 12.6109 4.88 12.5009 4.82 12.3809C4.77 12.2609 4.75 12.1309 4.75 12.0009C4.75 11.7409 4.86 11.4809 5.04 11.2909C5.09 11.2509 5.14 11.2109 5.19 11.1709C5.25 11.1309 5.31 11.1009 5.37 11.0809C5.43 11.0509 5.49 11.0309 5.55 11.0209C5.89 10.9509 6.23 11.0609 6.46 11.2909C6.64 11.4809 6.75 11.7409 6.75 12.0009C6.75 12.1309 6.72 12.2609 6.67 12.3809C6.62 12.5009 6.55 12.6109 6.46 12.7109C6.36 12.8009 6.25 12.8709 6.13 12.9209C6.01 12.9709 5.88 13.0009 5.75 13.0009Z" fill="#292D32"/>
<path d="M9.25 12.9992C9.12 12.9992 8.99 12.9692 8.87 12.9192C8.75 12.8692 8.64 12.7992 8.54 12.7092C8.35 12.5192 8.25 12.2692 8.25 11.9992C8.25 11.8692 8.28 11.7392 8.33 11.6192C8.38 11.4892 8.45 11.3892 8.54 11.2892C8.91 10.9192 9.58 10.9192 9.96 11.2892C10.14 11.4792 10.25 11.7392 10.25 11.9992C10.25 12.1292 10.22 12.2592 10.17 12.3792C10.12 12.4992 10.05 12.6092 9.96 12.7092C9.86 12.7992 9.75 12.8692 9.63 12.9192C9.51 12.9692 9.38 12.9992 9.25 12.9992Z" fill="#292D32"/>
</svg>
