<svg width="24" height="24" viewBox="0 0 24 24" fill="none" xmlns="http://www.w3.org/2000/svg">
<path opacity="0.4" d="M10.9608 2.05862L5.46078 4.11862C4.41078 4.51862 3.55078 5.75862 3.55078 6.88862V14.9886C3.55078 15.7986 4.08078 16.8686 4.73078 17.3486L10.2308 21.4586C11.2008 22.1886 12.7908 22.1886 13.7608 21.4586L19.2608 17.3486C19.9108 16.8586 20.4408 15.7986 20.4408 14.9886V6.88862C20.4408 5.76862 19.5808 4.51862 18.5308 4.12862L13.0308 2.06862C12.4708 1.84862 11.5308 1.84862 10.9608 2.05862Z" fill="#292D32"/>
<path d="M10.6583 14.2311C10.4683 14.2311 10.2783 14.1611 10.1283 14.0111L8.51828 12.4011C8.22828 12.1111 8.22828 11.6311 8.51828 11.3411C8.80828 11.0511 9.28828 11.0511 9.57828 11.3411L10.6583 12.4211L14.4283 8.65109C14.7183 8.36109 15.1983 8.36109 15.4883 8.65109C15.7783 8.94109 15.7783 9.42109 15.4883 9.71109L11.1883 14.0111C11.0383 14.1611 10.8483 14.2311 10.6583 14.2311Z" fill="#292D32"/>
</svg>
