<svg width="24" height="24" viewBox="0 0 24 24" fill="none" xmlns="http://www.w3.org/2000/svg">
<path d="M19.43 7.75984C20.19 7.34984 20.19 6.17984 19.43 5.76984L12.92 2.25984C12.34 1.94984 11.66 1.94984 11.08 2.25984L4.57 5.76984C3.81 6.17984 3.81 7.34984 4.57 7.75984L11.08 11.2698C11.66 11.5798 12.34 11.5798 12.92 11.2698L15.26 10.0098" stroke="#292D32" stroke-width="1.5" stroke-linecap="round" stroke-linejoin="round"/>
<path d="M2 11.1216C2 10.2916 2.87 9.76164 3.61 10.1316L9.66 13.1616C10.41 13.5416 10.89 14.3116 10.89 15.1516V20.8716C10.89 21.7016 10.02 22.2316 9.28 21.8616L3.23 18.8316C2.48 18.4516 2 17.6816 2 16.8416V14.9616" stroke="#292D32" stroke-width="1.5" stroke-linecap="round" stroke-linejoin="round"/>
<path d="M20.3894 10.1316L14.3394 13.1616C13.5894 13.5416 13.1094 14.3116 13.1094 15.1516V20.8716C13.1094 21.7016 13.9794 22.2316 14.7194 21.8616L20.7694 18.8316C21.5194 18.4516 21.9994 17.6816 21.9994 16.8416V11.1216C21.9994 10.2916 21.1294 9.76164 20.3894 10.1316Z" stroke="#292D32" stroke-width="1.5" stroke-linecap="round" stroke-linejoin="round"/>
</svg>
