<svg width="24" height="24" viewBox="0 0 24 24" fill="none" xmlns="http://www.w3.org/2000/svg">
<path d="M6 9V15C6 17 7 18 9 18H15C17 18 18 17 18 15V12C18 11.4 17.6 11 17 11C16.4 11 16 10.6 16 10V9C16 7 15 6 13 6H9C7 6 6 7 6 9Z" stroke="#17191C" stroke-width="1.5" stroke-miterlimit="10"/>
<path d="M10 10H12" stroke="#17191C" stroke-width="1.5" stroke-miterlimit="10" stroke-linecap="round" stroke-linejoin="round"/>
<path d="M10 14H14" stroke="#17191C" stroke-width="1.5" stroke-miterlimit="10" stroke-linecap="round" stroke-linejoin="round"/>
<path d="M15 22H9C4 22 2 20 2 15V9C2 4 4 2 9 2H15C20 2 22 4 22 9V15C22 20 20 22 15 22Z" stroke="#17191C" stroke-width="1.5" stroke-linecap="round" stroke-linejoin="round"/>
</svg>
