<svg width="24" height="24" viewBox="0 0 24 24" fill="none" xmlns="http://www.w3.org/2000/svg">
<path d="M10.5 11.5V14.3L8 15.8L5.5 14.3V11.5L8 10L9.2 10.7L10.5 11.5Z" stroke="#17191C" stroke-width="1.5" stroke-miterlimit="10" stroke-linejoin="round"/>
<path d="M18.5 11.5V14.3L16 15.8L13.5 14.3V11.5L14.8 10.7L16 10L18.5 11.5Z" stroke="#17191C" stroke-width="1.5" stroke-miterlimit="10" stroke-linejoin="round"/>
<path d="M14.8002 9.30005V10.7L13.5002 11.5V13.2L12.0002 14.1L10.5002 13.2V11.5L9.2002 10.7V9.30005L12.0002 7.80005L14.8002 9.30005Z" stroke="#17191C" stroke-width="1.5" stroke-miterlimit="10" stroke-linejoin="round"/>
<path d="M12 22C17.5228 22 22 17.5228 22 12C22 6.47715 17.5228 2 12 2C6.47715 2 2 6.47715 2 12C2 17.5228 6.47715 22 12 22Z" stroke="#17191C" stroke-width="1.5" stroke-miterlimit="10" stroke-linejoin="round"/>
</svg>
