<svg width="24" height="24" viewBox="0 0 24 24" fill="none" xmlns="http://www.w3.org/2000/svg">
<path opacity="0.4" d="M12 22C17.5228 22 22 17.5228 22 12C22 6.47715 17.5228 2 12 2C6.47715 2 2 6.47715 2 12C2 17.5228 6.47715 22 12 22Z" fill="#292D32"/>
<path d="M15.5014 11.2514H10.3114L12.0314 9.53141C12.3214 9.24141 12.3214 8.76141 12.0314 8.47141C11.7414 8.18141 11.2614 8.18141 10.9714 8.47141L7.97141 11.4714C7.68141 11.7614 7.68141 12.2414 7.97141 12.5314L10.9714 15.5314C11.1214 15.6814 11.3114 15.7514 11.5014 15.7514C11.6914 15.7514 11.8814 15.6814 12.0314 15.5314C12.3214 15.2414 12.3214 14.7614 12.0314 14.4714L10.3114 12.7514H15.5014C15.9114 12.7514 16.2514 12.4114 16.2514 12.0014C16.2514 11.5914 15.9114 11.2514 15.5014 11.2514Z" fill="#292D32"/>
</svg>
