<svg width="24" height="24" viewBox="0 0 24 24" fill="none" xmlns="http://www.w3.org/2000/svg">
<path opacity="0.4" d="M7.81 2H16.18C19.83 2 22 4.17 22 7.81V16.18C22 19.82 19.83 21.99 16.19 21.99H7.81C4.17 22 2 19.83 2 16.19V7.81C2 4.17 4.17 2 7.81 2Z" fill="#292D32"/>
<path d="M17.69 13.4817C17.61 13.3017 17.47 13.1517 17.28 13.0717C17.19 13.0317 17.09 13.0117 16.99 13.0117H7C6.59 13.0117 6.25 13.3517 6.25 13.7617C6.25 14.1717 6.59 14.5117 7 14.5117H15.19L13.52 16.1817C13.23 16.4717 13.23 16.9517 13.52 17.2417C13.67 17.3917 13.86 17.4617 14.05 17.4617C14.24 17.4617 14.43 17.3917 14.58 17.2417L17.53 14.2917C17.6 14.2217 17.65 14.1417 17.69 14.0517C17.77 13.8617 17.77 13.6617 17.69 13.4817Z" fill="#292D32"/>
<path d="M6.31 10.5205C6.39 10.7005 6.53 10.8505 6.72 10.9305C6.81 10.9705 6.9 10.9905 7 10.9905H17C17.41 10.9905 17.75 10.6505 17.75 10.2405C17.75 9.83047 17.41 9.49047 17 9.49047H8.81L10.48 7.82047C10.77 7.53047 10.77 7.05047 10.48 6.76047C10.19 6.47047 9.71 6.47047 9.42 6.76047L6.47 9.71047C6.4 9.78047 6.35 9.86047 6.31 9.95047C6.23 10.1405 6.23 10.3405 6.31 10.5205Z" fill="#292D32"/>
</svg>
