<svg width="24" height="24" viewBox="0 0 24 24" fill="none" xmlns="http://www.w3.org/2000/svg">
<path opacity="0.4" d="M12 22C17.5228 22 22 17.5228 22 12C22 6.47715 17.5228 2 12 2C6.47715 2 2 6.47715 2 12C2 17.5228 6.47715 22 12 22Z" fill="#292D32"/>
<path d="M12.0002 15.0119C11.8102 15.0119 11.6202 14.9419 11.4702 14.7919L7.94016 11.2619C7.65016 10.9719 7.65016 10.4919 7.94016 10.2019C8.23016 9.91188 8.71016 9.91188 9.00016 10.2019L12.0002 13.2019L15.0002 10.2019C15.2902 9.91188 15.7702 9.91188 16.0602 10.2019C16.3502 10.4919 16.3502 10.9719 16.0602 11.2619L12.5302 14.7919C12.3802 14.9419 12.1902 15.0119 12.0002 15.0119Z" fill="#292D32"/>
</svg>
