<svg width="24" height="24" viewBox="0 0 24 24" fill="none" xmlns="http://www.w3.org/2000/svg">
<path opacity="0.4" d="M7.81 2H16.18C19.83 2 22 4.17 22 7.81V16.18C22 19.82 19.83 21.99 16.19 21.99H7.81C4.17 22 2 19.83 2 16.19V7.81C2 4.17 4.17 2 7.81 2Z" fill="#292D32"/>
<path d="M13.9214 8.97859H8.77141L9.10141 8.64859C9.39141 8.35859 9.39141 7.87859 9.10141 7.58859C8.81141 7.29859 8.33141 7.29859 8.04141 7.58859L6.47141 9.15859C6.18141 9.44859 6.18141 9.92859 6.47141 10.2186L8.04141 11.7886C8.19141 11.9386 8.38141 12.0086 8.57141 12.0086C8.76141 12.0086 8.95141 11.9386 9.10141 11.7886C9.39141 11.4986 9.39141 11.0186 9.10141 10.7286L8.84141 10.4686H13.9214C15.2014 10.4686 16.2514 11.5086 16.2514 12.7986C16.2514 14.0886 15.2114 15.1286 13.9214 15.1286H9.00141C8.59141 15.1286 8.25141 15.4686 8.25141 15.8786C8.25141 16.2886 8.59141 16.6286 9.00141 16.6286H13.9214C16.0314 16.6286 17.7514 14.9086 17.7514 12.7986C17.7514 10.6886 16.0314 8.97859 13.9214 8.97859Z" fill="#292D32"/>
</svg>
