<svg width="24" height="24" viewBox="0 0 24 24" fill="none" xmlns="http://www.w3.org/2000/svg">
<path d="M9 9.00155L8.98999 16.9315C8.98999 18.4515 7.35002 19.4215 6.02002 18.6815L3.51001 17.2916C3.19001 17.1116 3 16.7816 3 16.4216V7.60156C3 7.24156 3.20001 6.90157 3.51001 6.73156L11.51 2.29156C11.81 2.12156 12.18 2.12156 12.48 2.29156L20.48 6.73156C20.8 6.91157 20.99 7.24156 20.99 7.60156V16.4216C20.99 16.7816 20.79 17.1216 20.48 17.2916L12.48 21.7316C12.18 21.9016 11.81 21.9016 11.51 21.7316L10 21.0016" stroke="black" stroke-width="1.5" stroke-miterlimit="10" stroke-linecap="round" stroke-linejoin="round"/>
<path opacity="0.4" d="M17 10.75C17 9.78 16.22 9 15.25 9H13.5C12.53 9 11.75 9.78 11.75 10.75C11.75 11.72 12.53 12.5 13.5 12.5H15.25C16.22 12.5 17 13.28 17 14.25C17 15.22 16.22 16 15.25 16H13.5C12.53 16 11.75 15.22 11.75 14.25" stroke="black" stroke-width="1.5" stroke-miterlimit="10" stroke-linecap="round" stroke-linejoin="round"/>
</svg>
