<svg width="24" height="24" viewBox="0 0 24 24" fill="none" xmlns="http://www.w3.org/2000/svg">
<path d="M14 16.0009C14 17.7709 13.23 19.3709 12 20.4609C10.94 21.4209 9.54 22.0009 8 22.0009C4.69 22.0009 2 19.3109 2 16.0009C2 13.2409 3.88 10.9009 6.42 10.2109C7.11 11.9509 8.59 13.2909 10.42 13.7909C10.92 13.9309 11.45 14.0009 12 14.0009C12.55 14.0009 13.08 13.9309 13.58 13.7909C13.85 14.4709 14 15.2209 14 16.0009Z" stroke="#292D32" stroke-width="1.5" stroke-linecap="round" stroke-linejoin="round"/>
<path d="M18 8C18 8.78 17.85 9.53 17.58 10.21C16.89 11.95 15.41 13.29 13.58 13.79C13.08 13.93 12.55 14 12 14C11.45 14 10.92 13.93 10.42 13.79C8.59 13.29 7.11 11.95 6.42 10.21C6.15 9.53 6 8.78 6 8C6 4.69 8.69 2 12 2C15.31 2 18 4.69 18 8Z" stroke="#292D32" stroke-width="1.5" stroke-linecap="round" stroke-linejoin="round"/>
<path opacity="0.4" d="M22 16.0009C22 19.3109 19.31 22.0009 16 22.0009C14.46 22.0009 13.06 21.4209 12 20.4609C13.23 19.3709 14 17.7709 14 16.0009C14 15.2209 13.85 14.4709 13.58 13.7909C15.41 13.2909 16.89 11.9509 17.58 10.2109C20.12 10.9009 22 13.2409 22 16.0009Z" stroke="#292D32" stroke-width="1.5" stroke-linecap="round" stroke-linejoin="round"/>
</svg>
