<svg width="22" height="22" viewBox="0 0 22 22" fill="none" xmlns="http://www.w3.org/2000/svg">
<path d="M14.97 8C14.97 11.87 11.84 15 7.97 15C7.65 15 7.34 14.98 7.04 14.93C3.61 14.48 0.970001 11.55 0.970001 8C0.970001 4.13 4.1 1 7.97 1C11.52 1 14.45 3.64 14.9 7.07C14.95 7.37 14.97 7.68 14.97 8Z" stroke="#292D32" stroke-width="1.5" stroke-linecap="round" stroke-linejoin="round"/>
<path d="M20.97 14.0001C20.97 17.8701 17.84 21.0001 13.97 21.0001C10.42 21.0001 7.49 18.3601 7.04 14.9301C7.34 14.9801 7.65 15.0001 7.97 15.0001C11.84 15.0001 14.97 11.8701 14.97 8.00007C14.97 7.68007 14.95 7.37007 14.9 7.07007C18.33 7.52007 20.97 10.4501 20.97 14.0001Z" stroke="#292D32" stroke-width="1.5" stroke-linecap="round" stroke-linejoin="round"/>
<path d="M13.12 13.1201L14.43 14.4101" stroke="#292D32" stroke-width="1.5" stroke-linecap="round" stroke-linejoin="round"/>
<path d="M15.97 11L14.97 10" stroke="#292D32" stroke-width="1.5" stroke-linecap="round" stroke-linejoin="round"/>
<path d="M10.97 16L9.97 15" stroke="#292D32" stroke-width="1.5" stroke-linecap="round" stroke-linejoin="round"/>
</svg>
