<svg width="24" height="24" viewBox="0 0 24 24" fill="none" xmlns="http://www.w3.org/2000/svg">
<path d="M17.8 2.1L7.86997 4.59C6.41997 4.95 4.94997 6.42 4.58997 7.87L2.09997 17.8C1.34997 20.8 3.18997 22.65 6.19997 21.9L16.13 19.42C17.57 19.06 19.05 17.58 19.41 16.14L21.9 6.2C22.65 3.2 20.8 1.35 17.8 2.1Z" stroke="#292D32" stroke-width="1.5" stroke-linecap="round" stroke-linejoin="round"/>
<path d="M12 15.5C13.933 15.5 15.5 13.933 15.5 12C15.5 10.067 13.933 8.5 12 8.5C10.067 8.5 8.5 10.067 8.5 12C8.5 13.933 10.067 15.5 12 15.5Z" stroke="#292D32" stroke-width="1.5" stroke-linecap="round" stroke-linejoin="round"/>
</svg>
