<svg width="24" height="24" viewBox="0 0 24 24" fill="none" xmlns="http://www.w3.org/2000/svg">
<path d="M7.80005 10.2V14.3999" stroke="#292D32" stroke-width="1.5" stroke-linecap="round" stroke-linejoin="round"/>
<path d="M7.95001 9.89999C9.02697 9.89999 9.90002 9.02697 9.90002 7.95001C9.90002 6.87306 9.02697 6 7.95001 6C6.87306 6 6 6.87306 6 7.95001C6 9.02697 6.87306 9.89999 7.95001 9.89999Z" stroke="#292D32" stroke-width="1.5" stroke-linecap="round" stroke-linejoin="round"/>
<path d="M7.79999 17.9999C8.7941 17.9999 9.59998 17.194 9.59998 16.1999C9.59998 15.2058 8.7941 14.3999 7.79999 14.3999C6.80588 14.3999 6 15.2058 6 16.1999C6 17.194 6.80588 17.9999 7.79999 17.9999Z" stroke="#292D32" stroke-width="1.5" stroke-linecap="round" stroke-linejoin="round"/>
<path d="M16.2 17.9999C17.1941 17.9999 18 17.194 18 16.1999C18 15.2058 17.1941 14.3999 16.2 14.3999C15.2059 14.3999 14.4 15.2058 14.4 16.1999C14.4 17.194 15.2059 17.9999 16.2 17.9999Z" stroke="#292D32" stroke-width="1.5" stroke-linecap="round" stroke-linejoin="round"/>
<path d="M7.88 10.2C8.15 11.25 9.10999 12.0299 10.24 12.0199L12.3 12.0099C13.87 11.9999 15.21 13.01 15.7 14.42" stroke="#292D32" stroke-width="1.5" stroke-linecap="round" stroke-linejoin="round"/>
<path d="M9 22H15C20 22 22 20 22 15V9C22 4 20 2 15 2H9C4 2 2 4 2 9V15C2 20 4 22 9 22Z" stroke="#292D32" stroke-width="1.5" stroke-linecap="round" stroke-linejoin="round"/>
</svg>
