<svg width="24" height="24" viewBox="0 0 24 24" fill="none" xmlns="http://www.w3.org/2000/svg">
<path d="M10.02 17.52C10.48 18.11 11.2 18.5 12 18.5C13.38 18.5 14.5 17.38 14.5 16C14.5 15.43 14.31 14.9 13.99 14.48" stroke="#292D32" stroke-width="1.5" stroke-linecap="round" stroke-linejoin="round"/>
<path d="M2.82 20.8C2.21 20.04 2 18.83 2 17V15C2 11 3 10 7 10H17C17.36 10 17.69 10.01 18 10.03C21.17 10.21 22 11.36 22 15V17C22 21 21 22 17 22H7C6.64 22 6.31 21.99 6 21.97" stroke="#292D32" stroke-width="1.5" stroke-linecap="round" stroke-linejoin="round"/>
<path d="M6 10V8C6 4.69 7 2 12 2C16.15 2 17.54 3.38 17.9 5.56" stroke="#292D32" stroke-width="1.5" stroke-linecap="round" stroke-linejoin="round"/>
<path d="M22 2L2 22" stroke="#292D32" stroke-width="1.5" stroke-linecap="round" stroke-linejoin="round"/>
</svg>
