<svg width="24" height="24" viewBox="0 0 24 24" fill="none" xmlns="http://www.w3.org/2000/svg">
<path d="M16.9999 11.84H14.3199C13.6099 11.84 13.1299 11.3 13.1299 10.65V9.15997C13.1299 8.50997 13.6099 7.96997 14.3199 7.96997H15.8099C16.4599 7.96997 16.9999 8.50997 16.9999 9.15997V11.84Z" stroke="#292D32" stroke-width="1.5" stroke-linecap="round" stroke-linejoin="round"/>
<path d="M16.9999 11.8401C16.9999 14.6301 16.4799 15.1001 14.9099 16.0301" stroke="#292D32" stroke-width="1.5" stroke-linecap="round" stroke-linejoin="round"/>
<path d="M10.86 11.84H8.17998C7.46998 11.84 6.98999 11.3 6.98999 10.65V9.15997C6.98999 8.50997 7.46998 7.96997 8.17998 7.96997H9.66998C10.32 7.96997 10.86 8.50997 10.86 9.15997V11.84Z" stroke="#292D32" stroke-width="1.5" stroke-linecap="round" stroke-linejoin="round"/>
<path d="M10.86 11.8401C10.86 14.6301 10.34 15.1001 8.77002 16.0301" stroke="#292D32" stroke-width="1.5" stroke-linecap="round" stroke-linejoin="round"/>
<path d="M12 22C17.5228 22 22 17.5228 22 12C22 6.47715 17.5228 2 12 2C6.47715 2 2 6.47715 2 12C2 17.5228 6.47715 22 12 22Z" stroke="#292D32" stroke-width="1.5" stroke-linecap="round" stroke-linejoin="round"/>
</svg>
