<svg width="24" height="24" viewBox="0 0 24 24" fill="none" xmlns="http://www.w3.org/2000/svg">
<path d="M9 22H15C20 22 22 20 22 15V9C22 4 20 2 15 2H9C4 2 2 4 2 9V15C2 20 4 22 9 22Z" stroke="#292D32" stroke-width="1.5" stroke-linecap="round" stroke-linejoin="round"/>
<path d="M8.89999 16.5299C9.37999 16.0099 10.12 16.0499 10.54 16.6199L11.14 17.4199C11.61 18.0499 12.39 18.0499 12.86 17.4199L13.45 16.6299C13.87 16.0699 14.61 16.0299 15.09 16.5399C16.14 17.6599 16.99 17.2899 16.99 15.7199V9.08987C16.99 6.71987 16.43 6.12988 14.21 6.12988H9.76999C7.54999 6.12988 6.98999 6.71987 6.98999 9.08987V15.7199C6.99999 17.2699 7.85999 17.6399 8.89999 16.5299Z" stroke="#292D32" stroke-width="1.5" stroke-linecap="round" stroke-linejoin="round"/>
</svg>
