<svg width="24" height="24" viewBox="0 0 24 24" fill="none" xmlns="http://www.w3.org/2000/svg">
<path d="M8.38086 11.9981L10.7909 14.4181L15.6209 9.57812" stroke="#292D32" stroke-width="1.5" stroke-linecap="round" stroke-linejoin="round"/>
<path d="M4.24086 6.19812C4.24086 5.13812 5.11086 4.26812 6.17086 4.26812H7.90086C8.30086 4.26812 8.86086 4.05812 9.16086 3.80812L10.7409 2.45812C11.4409 1.86813 12.5709 1.86813 13.2509 2.45812L14.8309 3.80812C15.1309 4.05812 15.7009 4.26812 16.1009 4.26812H17.8009C18.8609 4.26812 19.7309 5.13812 19.7309 6.19812V7.89813C19.7309 8.29813 19.9409 8.85812 20.1909 9.15812L21.5409 10.7381C22.1309 11.4381 22.1309 12.5681 21.5409 13.2481L20.1909 14.8281C19.9409 15.1281 19.7309 15.6881 19.7309 16.0881V17.7881C19.7309 18.8481 18.8609 19.7181 17.8009 19.7181H16.1009C15.7009 19.7181 15.1409 19.9281 14.8409 20.1781L13.2609 21.5281C12.5609 22.1181 11.4309 22.1181 10.7509 21.5281L9.17086 20.1781C8.87086 19.9281 8.30086 19.7181 7.91086 19.7181H6.17086C5.11086 19.7181 4.24086 18.8481 4.24086 17.7881V16.0781C4.24086 15.6881 4.04086 15.1181 3.79086 14.8281L2.44086 13.2381C1.86086 12.5481 1.86086 11.4281 2.44086 10.7381L3.00086 10.0781" stroke="#292D32" stroke-width="1.5" stroke-linecap="round" stroke-linejoin="round"/>
</svg>
