<svg width="24" height="24" viewBox="0 0 24 24" fill="none" xmlns="http://www.w3.org/2000/svg">
<path d="M14.5319 9.47188L9.47188 14.5319C8.82188 13.8819 8.42188 12.9919 8.42188 12.0019C8.42188 10.0219 10.0219 8.42188 12.0019 8.42188C12.9919 8.42188 13.8819 8.82188 14.5319 9.47188Z" stroke="#292D32" stroke-width="1.5" stroke-linecap="round" stroke-linejoin="round"/>
<path d="M5.59984 17.7589C4.59984 16.8989 3.68984 15.8389 2.88984 14.5889C1.98984 13.1789 1.98984 10.8089 2.88984 9.39891C4.06984 7.54891 5.50984 6.09891 7.11984 5.12891" stroke="#292D32" stroke-width="1.5" stroke-linecap="round" stroke-linejoin="round"/>
<path d="M17.82 5.77047C16.07 4.45047 14.07 3.73047 12 3.73047" stroke="#292D32" stroke-width="1.5" stroke-linecap="round" stroke-linejoin="round"/>
<path d="M8.42188 19.5297C9.56187 20.0097 10.7719 20.2697 12.0019 20.2697C15.5319 20.2697 18.8219 18.1897 21.1119 14.5897C22.0119 13.1797 22.0119 10.8097 21.1119 9.39969C20.7819 8.87969 20.4219 8.38969 20.0519 7.92969" stroke="#292D32" stroke-width="1.5" stroke-linecap="round" stroke-linejoin="round"/>
<path d="M15.5114 12.6992C15.2514 14.1092 14.1014 15.2592 12.6914 15.5192" stroke="#292D32" stroke-width="1.5" stroke-linecap="round" stroke-linejoin="round"/>
<path d="M9.47 14.5312L2 22.0013" stroke="#292D32" stroke-width="1.5" stroke-linecap="round" stroke-linejoin="round"/>
<path d="M22.0013 2L14.5312 9.47" stroke="#292D32" stroke-width="1.5" stroke-linecap="round" stroke-linejoin="round"/>
</svg>
