<svg width="24" height="24" viewBox="0 0 24 24" fill="none" xmlns="http://www.w3.org/2000/svg">
<path d="M12.9887 2.14972C15.3687 1.68972 17.9387 2.37972 19.7887 4.21972C22.7387 7.16972 22.7387 11.9797 19.7887 14.9197C17.7287 16.9697 14.7787 17.5997 12.1887 16.7897L7.47868 21.4897C7.13868 21.8397 6.46868 22.0497 5.98868 21.9797L3.80868 21.6797C3.08868 21.5797 2.41868 20.8997 2.30868 20.1797L2.00868 17.9997C1.93868 17.5197 2.16868 16.8497 2.49868 16.5097L3.61868 15.3897L7.18868 11.8197C6.38868 9.21972 7.00868 6.26972 9.06868 4.21972" stroke="#292D32" stroke-width="1.5" stroke-miterlimit="10" stroke-linecap="round" stroke-linejoin="round"/>
<path d="M6.89062 17.4883L9.19062 19.7883" stroke="#292D32" stroke-width="1.5" stroke-miterlimit="10" stroke-linecap="round" stroke-linejoin="round"/>
<path d="M14.5 11C15.3284 11 16 10.3284 16 9.5C16 8.67157 15.3284 8 14.5 8C13.6716 8 13 8.67157 13 9.5C13 10.3284 13.6716 11 14.5 11Z" stroke="#292D32" stroke-width="1.5" stroke-linecap="round" stroke-linejoin="round"/>
</svg>
