<svg width="24" height="24" viewBox="0 0 24 24" fill="none" xmlns="http://www.w3.org/2000/svg">
<path d="M18.8699 18.0003C19.8199 17.2903 20.5999 15.7403 20.5999 14.5603V7.13033C20.5999 5.90033 19.6599 4.54031 18.5099 4.11031L13.5199 2.24031C12.6899 1.93031 11.3299 1.93031 10.4999 2.24031L5.50992 4.11031C4.35992 4.54031 3.41992 5.90033 3.41992 7.13033V14.5603C3.41992 15.7403 4.1999 17.2903 5.1499 18.0003L9.44992 21.2103C10.8599 22.2703 13.1799 22.2703 14.5899 21.2103L15.3299 20.6503" stroke="#292D32" stroke-width="1.5" stroke-linecap="round" stroke-linejoin="round"/>
<path d="M11.9997 10.9185C11.9597 10.9185 11.9097 10.9185 11.8697 10.9185C10.9297 10.8885 10.1797 10.1084 10.1797 9.15845C10.1797 8.18845 10.9697 7.39844 11.9397 7.39844C12.9097 7.39844 13.6997 8.18845 13.6997 9.15845C13.6897 10.1184 12.9397 10.8885 11.9997 10.9185Z" stroke="#292D32" stroke-width="1.5" stroke-linecap="round" stroke-linejoin="round"/>
<path d="M10.0091 13.7194C9.04906 14.3594 9.04906 15.4094 10.0091 16.0494C11.0991 16.7794 12.8891 16.7794 13.9791 16.0494C14.9391 15.4094 14.9391 14.3594 13.9791 13.7194C12.8991 12.9894 11.1091 12.9894 10.0091 13.7194Z" stroke="#292D32" stroke-width="1.5" stroke-linecap="round" stroke-linejoin="round"/>
</svg>
