<svg width="24" height="24" viewBox="0 0 24 24" fill="none" xmlns="http://www.w3.org/2000/svg">
<path d="M7.83984 20.0211L9.42984 21.2111C10.8398 22.2711 13.1598 22.2711 14.5698 21.2111L18.8698 18.0011C19.8198 17.2911 20.5998 15.7411 20.5998 14.5611V7.12109" stroke="#292D32" stroke-width="1.5" stroke-linecap="round" stroke-linejoin="round"/>
<path d="M3.41016 11.0391V14.5591C3.41016 15.7391 4.19016 17.2891 5.14016 17.9991L5.34016 18.1491" stroke="#292D32" stroke-width="1.5" stroke-linecap="round" stroke-linejoin="round"/>
<path d="M18.9802 4.33859C18.8302 4.24859 18.6702 4.16859 18.5102 4.09859L13.5202 2.22859C12.6902 1.91859 11.3302 1.91859 10.5002 2.22859L5.50016 4.10859C4.35016 4.53859 3.41016 5.89859 3.41016 7.11859" stroke="#292D32" stroke-width="1.5" stroke-linecap="round" stroke-linejoin="round"/>
<path d="M22 2L2 22" stroke="#292D32" stroke-width="1.5" stroke-linecap="round" stroke-linejoin="round"/>
</svg>
