<svg width="24" height="24" viewBox="0 0 24 24" fill="none" xmlns="http://www.w3.org/2000/svg">
<path d="M22 12V9C22 4 20 2 15 2H9C4 2 2 4 2 9V15C2 20 4 22 9 22H12" stroke="#292D32" stroke-width="1.5" stroke-linecap="round" stroke-linejoin="round"/>
<path opacity="0.4" d="M20.9597 17.8385L19.3297 18.3885C18.8797 18.5385 18.5197 18.8885 18.3697 19.3485L17.8197 20.9785C17.3497 22.3885 15.3697 22.3585 14.9297 20.9485L13.0797 14.9985C12.7197 13.8185 13.8097 12.7185 14.9797 13.0885L20.9397 14.9385C22.3397 15.3785 22.3597 17.3685 20.9597 17.8385Z" stroke="#292D32" stroke-width="1.5" stroke-linecap="round" stroke-linejoin="round"/>
</svg>
