<svg width="24" height="24" viewBox="0 0 24 24" fill="none" xmlns="http://www.w3.org/2000/svg">
<path opacity="0.4" d="M19.14 19.5C20.91 17.7 22 15.22 22 12.5C22 6.98 17.52 2.5 12 2.5C6.48 2.5 2 6.98 2 12.5C2 15.22 3.08 17.68 4.84 19.49" stroke="#292D32" stroke-width="1.5" stroke-miterlimit="10" stroke-linecap="round" stroke-linejoin="round"/>
<path d="M11.9991 21.4983C13.8659 21.4983 15.3792 19.985 15.3792 18.1183C15.3792 16.2516 13.8659 14.7383 11.9991 14.7383C10.1324 14.7383 8.61914 16.2516 8.61914 18.1183C8.61914 19.985 10.1324 21.4983 11.9991 21.4983Z" stroke="#292D32" stroke-width="1.5" stroke-miterlimit="10" stroke-linecap="round" stroke-linejoin="round"/>
<path d="M15.25 12H16C16.82 12 17.5 11.33 17.5 10.5C17.5 9.68 16.82 9 16 9C15.18 9 14.5 9.67 14.5 10.5V11.25C14.5 11.66 14.84 12 15.25 12Z" stroke="#292D32" stroke-width="1.5" stroke-miterlimit="10" stroke-linecap="round" stroke-linejoin="round"/>
</svg>
