<svg width="24" height="24" viewBox="0 0 24 24" fill="none" xmlns="http://www.w3.org/2000/svg">
<path d="M20.9602 5.09854C22.0402 6.29854 22.2302 8.01854 21.6602 10.4385L20.6802 14.6185C19.8402 18.2285 18.1802 19.6885 15.0602 19.3885C14.5602 19.3485 14.0202 19.2585 13.4402 19.1185L11.7602 18.7185C7.59018 17.7285 6.30018 15.6685 7.28018 11.4885L8.26018 7.29854C8.46018 6.44854 8.70018 5.70854 9.00018 5.09854C10.1702 2.67854 12.1602 2.02854 15.5002 2.81854L17.1702 3.20854" stroke="#292D32" stroke-width="1.5" stroke-linecap="round" stroke-linejoin="round"/>
<path d="M15.0603 19.3916C14.4403 19.8116 13.6603 20.1616 12.7103 20.4716L11.1303 20.9916C7.16034 22.2716 5.07034 21.2016 3.78034 17.2316L2.50034 13.2816C1.22034 9.31156 2.28034 7.21156 6.25034 5.93156L7.83034 5.41156C8.24034 5.28156 8.63034 5.17156 9.00034 5.10156C8.70034 5.71156 8.46034 6.45156 8.26034 7.30156L7.28034 11.4916C6.30034 15.6716 7.59034 17.7316 11.7603 18.7216L13.4403 19.1216C14.0203 19.2616 14.5603 19.3516 15.0603 19.3916Z" stroke="#292D32" stroke-width="1.5" stroke-linecap="round" stroke-linejoin="round"/>
</svg>
