<svg width="24" height="24" viewBox="0 0 24 24" fill="none" xmlns="http://www.w3.org/2000/svg">
<path d="M15 7.06984C15 6.39984 14.67 5.77984 14.11 5.40984L10.11 2.73984C9.44 2.28984 8.56 2.28984 7.89 2.73984L3.89 5.40984C3.34 5.77984 3 6.39984 3 7.06984V12.7498C3 13.0298 3.22 13.2498 3.5 13.2498H14.5C14.78 13.2498 15 13.0298 15 12.7498V7.06984ZM9 10.7498C8.04 10.7498 7.25 9.95984 7.25 8.99984C7.25 8.03984 8.04 7.24984 9 7.24984C9.96 7.24984 10.75 8.03984 10.75 8.99984C10.75 9.95984 9.96 10.7498 9 10.7498Z" fill="#292D32"/>
<path d="M22 21.2511H20.73V18.2511C21.68 17.9411 22.37 17.0511 22.37 16.0011V14.0011C22.37 12.6911 21.3 11.6211 19.99 11.6211C18.68 11.6211 17.61 12.6911 17.61 14.0011V16.0011C17.61 17.0411 18.29 17.9211 19.22 18.2411V21.2511H15V15.2511C15 14.9711 14.78 14.7511 14.5 14.7511H3.5C3.22 14.7511 3 14.9711 3 15.2511V21.2511H2C1.59 21.2511 1.25 21.5911 1.25 22.0011C1.25 22.4111 1.59 22.7511 2 22.7511H19.93C19.95 22.7511 19.96 22.7611 19.98 22.7611C20 22.7611 20.01 22.7511 20.03 22.7511H22C22.41 22.7511 22.75 22.4111 22.75 22.0011C22.75 21.5911 22.41 21.2511 22 21.2511ZM8.25 18.2511C8.25 17.8411 8.59 17.5011 9 17.5011C9.41 17.5011 9.75 17.8411 9.75 18.2511V21.2511H8.25V18.2511Z" fill="#292D32"/>
</svg>
