<svg width="24" height="24" viewBox="0 0 24 24" fill="none" xmlns="http://www.w3.org/2000/svg">
<path d="M10 15.5C9.59 15.5 9.25 15.84 9.25 16.25V17.75C9.25 18.16 9.59 18.5 10 18.5C10.41 18.5 10.75 18.16 10.75 17.75V16.25C10.75 15.84 10.41 15.5 10 15.5Z" fill="#292D32"/>
<path d="M22 21.2488H21V9.97875C21 9.35875 20.72 8.77875 20.23 8.39875L13.23 2.95875C12.51 2.38875 11.49 2.38875 10.77 2.95875L3.77 8.39875C3.28 8.77875 3 9.35875 3 9.96875L2.95 21.2488H2C1.59 21.2488 1.25 21.5788 1.25 21.9988C1.25 22.4088 1.59 22.7488 2 22.7488H22C22.41 22.7488 22.75 22.4088 22.75 21.9988C22.75 21.5788 22.41 21.2488 22 21.2488ZM10.5 6.74875H13.5C13.91 6.74875 14.25 7.08875 14.25 7.49875C14.25 7.90875 13.91 8.24875 13.5 8.24875H10.5C10.09 8.24875 9.75 7.90875 9.75 7.49875C9.75 7.08875 10.09 6.74875 10.5 6.74875ZM17 21.2488H7V12.4987C7 11.6687 7.67 10.9987 8.5 10.9987H15.5C16.33 10.9987 17 11.6687 17 12.4987V21.2488Z" fill="#292D32"/>
</svg>
