<svg width="24" height="24" viewBox="0 0 24 24" fill="none" xmlns="http://www.w3.org/2000/svg">
<path d="M7 2H6C3 2 2 3.79 2 6V7V21C2 21.83 2.94 22.3 3.6 21.8L5.31 20.52C5.71 20.22 6.27 20.26 6.63 20.62L8.29 22.29C8.68 22.68 9.32 22.68 9.71 22.29L11.39 20.61C11.74 20.26 12.3 20.22 12.69 20.52L14.4 21.8C15.06 22.29 16 21.82 16 21V4C16 2.9 16.9 2 18 2H7ZM5.97 14.01C5.42 14.01 4.97 13.56 4.97 13.01C4.97 12.46 5.42 12.01 5.97 12.01C6.52 12.01 6.97 12.46 6.97 13.01C6.97 13.56 6.52 14.01 5.97 14.01ZM5.97 10.01C5.42 10.01 4.97 9.56 4.97 9.01C4.97 8.46 5.42 8.01 5.97 8.01C6.52 8.01 6.97 8.46 6.97 9.01C6.97 9.56 6.52 10.01 5.97 10.01ZM12 13.76H9C8.59 13.76 8.25 13.42 8.25 13.01C8.25 12.6 8.59 12.26 9 12.26H12C12.41 12.26 12.75 12.6 12.75 13.01C12.75 13.42 12.41 13.76 12 13.76ZM12 9.76H9C8.59 9.76 8.25 9.42 8.25 9.01C8.25 8.6 8.59 8.26 9 8.26H12C12.41 8.26 12.75 8.6 12.75 9.01C12.75 9.42 12.41 9.76 12 9.76Z" fill="#292D32"/>
<path d="M18.01 2V3.5C18.67 3.5 19.3 3.77 19.76 4.22C20.24 4.71 20.5 5.34 20.5 6V8.42C20.5 9.16 20.17 9.5 19.42 9.5H17.5V4.01C17.5 3.73 17.73 3.5 18.01 3.5V2ZM18.01 2C16.9 2 16 2.9 16 4.01V11H19.42C21 11 22 10 22 8.42V6C22 4.9 21.55 3.9 20.83 3.17C20.1 2.45 19.11 2.01 18.01 2C18.02 2 18.01 2 18.01 2Z" fill="#292D32"/>
</svg>
