<svg width="24" height="24" viewBox="0 0 24 24" fill="none" xmlns="http://www.w3.org/2000/svg">
<path d="M1.22986 21.6817L1.98986 20.9217C1.58986 20.3217 1.35986 19.6017 1.35986 18.8317C1.35986 16.7217 3.06986 15.0117 5.17986 15.0117C7.28986 15.0117 8.99986 16.7117 8.99986 18.8217C8.99986 20.9317 7.28986 22.6417 5.17986 22.6417C4.40986 22.6417 3.68986 22.4117 3.08986 22.0117L2.32986 22.7717C2.16986 22.9217 1.96986 23.0017 1.76986 23.0017C1.56986 23.0017 1.36986 22.9217 1.21986 22.7717C0.919859 22.4717 0.919859 21.9817 1.22986 21.6817Z" fill="#292D32"/>
<path d="M21.5 12.5H19C17.9 12.5 17 13.4 17 14.5C17 15.6 17.9 16.5 19 16.5H21.5C21.78 16.5 22 16.28 22 16V13C22 12.72 21.78 12.5 21.5 12.5Z" fill="#292D32"/>
<path d="M16.5292 5.40016C16.8292 5.69016 16.5792 6.14016 16.1592 6.14016L7.87923 6.13016C7.39923 6.13016 7.15923 5.55016 7.49923 5.21016L9.24923 3.45016C10.7292 1.98016 13.1192 1.98016 14.5992 3.45016L16.4892 5.36016C16.4992 5.37016 16.5192 5.39016 16.5292 5.40016Z" fill="#292D32"/>
<path d="M21.8694 18.66C21.2594 20.72 19.4994 22 17.0994 22H10.5994C10.2094 22 9.95938 21.57 10.1194 21.21C10.4194 20.51 10.6094 19.72 10.6094 19C10.6094 15.97 8.13938 13.5 5.10938 13.5C4.34938 13.5 3.60938 13.66 2.92938 13.96C2.55938 14.12 2.10938 13.87 2.10938 13.47V12C2.10938 9.28 3.74938 7.38 6.29938 7.06C6.54938 7.02 6.81937 7 7.09937 7H17.0994C17.3594 7 17.6094 7.01 17.8494 7.05C19.8694 7.28 21.3294 8.51 21.8694 10.34C21.9694 10.67 21.7294 11 21.3894 11H19.0994C16.9294 11 15.2094 12.98 15.6794 15.23C16.0094 16.87 17.5294 18 19.1994 18H21.3894C21.7394 18 21.9694 18.34 21.8694 18.66Z" fill="#292D32"/>
</svg>
