<svg width="24" height="24" viewBox="0 0 24 24" fill="none" xmlns="http://www.w3.org/2000/svg">
<path d="M19 13.3594H2C1.59 13.3594 1.25 13.0194 1.25 12.6094C1.25 12.1994 1.59 11.8594 2 11.8594H19C19.41 11.8594 19.75 12.1994 19.75 12.6094C19.75 13.0194 19.41 13.3594 19 13.3594Z" fill="#292D32"/>
<path d="M15.22 21.7508H5.78003C2.35003 21.7508 1.25 20.6608 1.25 17.2708V10.2808C1.25 7.59078 1.86002 6.00078 4.96002 5.82078C5.22002 5.81078 5.49003 5.80078 5.78003 5.80078H15.22C18.65 5.80078 19.75 6.89078 19.75 10.2808V17.4308C19.71 20.7008 18.61 21.7508 15.22 21.7508ZM5.78003 7.30078C5.51003 7.30078 5.26003 7.31078 5.03003 7.32078C3.24003 7.43078 2.75 7.81078 2.75 10.2808V17.2708C2.75 19.8308 3.17003 20.2508 5.78003 20.2508H15.22C17.8 20.2508 18.22 19.8508 18.25 17.4208V10.2808C18.25 7.72078 17.83 7.30078 15.22 7.30078H5.78003Z" fill="#292D32"/>
<path d="M19 18.18C18.81 18.18 18.62 18.11 18.49 17.98C18.34 17.84 18.25 17.64 18.25 17.43V10.28C18.25 7.72 17.83 7.3 15.22 7.3H5.78003C5.51003 7.3 5.26003 7.31 5.03003 7.32C4.83003 7.33 4.62998 7.25 4.47998 7.11C4.32998 6.97 4.25 6.77 4.25 6.56C4.29 3.3 5.39003 2.25 8.78003 2.25H18.22C21.65 2.25 22.75 3.34 22.75 6.73V13.72C22.75 16.41 22.14 18 19.04 18.18C19.03 18.18 19.01 18.18 19 18.18ZM5.78003 5.8H15.22C18.65 5.8 19.75 6.89 19.75 10.28V16.6C20.91 16.39 21.25 15.79 21.25 13.72V6.73C21.25 4.17 20.83 3.75 18.22 3.75H8.78003C6.50003 3.75 5.91003 4.06 5.78003 5.8Z" fill="#292D32"/>
<path d="M6.96222 18.5586H5.24219C4.83219 18.5586 4.49219 18.2186 4.49219 17.8086C4.49219 17.3986 4.83219 17.0586 5.24219 17.0586H6.96222C7.37222 17.0586 7.71222 17.3986 7.71222 17.8086C7.71222 18.2186 7.38222 18.5586 6.96222 18.5586Z" fill="#292D32"/>
<path d="M12.5494 18.5586H9.10938C8.69938 18.5586 8.35938 18.2186 8.35938 17.8086C8.35938 17.3986 8.69938 17.0586 9.10938 17.0586H12.5494C12.9594 17.0586 13.2994 17.3986 13.2994 17.8086C13.2994 18.2186 12.9694 18.5586 12.5494 18.5586Z" fill="#292D32"/>
</svg>
