<svg width="24" height="24" viewBox="0 0 24 24" fill="none" xmlns="http://www.w3.org/2000/svg">
<path d="M13.5 9.25H2C1.59 9.25 1.25 8.91 1.25 8.5C1.25 8.09 1.59 7.75 2 7.75H13.5C13.91 7.75 14.25 8.09 14.25 8.5C14.25 8.91 13.91 9.25 13.5 9.25Z" fill="#292D32"/>
<path d="M8 17.25H6C5.59 17.25 5.25 16.91 5.25 16.5C5.25 16.09 5.59 15.75 6 15.75H8C8.41 15.75 8.75 16.09 8.75 16.5C8.75 16.91 8.41 17.25 8 17.25Z" fill="#292D32"/>
<path d="M14.5 17.25H10.5C10.09 17.25 9.75 16.91 9.75 16.5C9.75 16.09 10.09 15.75 10.5 15.75H14.5C14.91 15.75 15.25 16.09 15.25 16.5C15.25 16.91 14.91 17.25 14.5 17.25Z" fill="#292D32"/>
<path d="M17.56 21.25H6.44C2.46 21.25 1.25 20.05 1.25 16.11V7.89C1.25 3.95 2.46 2.75 6.44 2.75H13.5C13.91 2.75 14.25 3.09 14.25 3.5C14.25 3.91 13.91 4.25 13.5 4.25H6.44C3.3 4.25 2.75 4.79 2.75 7.89V16.1C2.75 19.2 3.3 19.74 6.44 19.74H17.55C20.69 19.74 21.24 19.2 21.24 16.1V11.02C21.24 10.61 21.58 10.27 21.99 10.27C22.4 10.27 22.74 10.61 22.74 11.02V16.1C22.75 20.05 21.54 21.25 17.56 21.25Z" fill="#292D32"/>
<path d="M18.0014 8.25141C17.8114 8.25141 17.6214 8.18141 17.4714 8.03141L15.9714 6.53141C15.6814 6.24141 15.6814 5.76141 15.9714 5.47141C16.2614 5.18141 16.7414 5.18141 17.0314 5.47141L18.0014 6.44141L21.4714 2.97141C21.7614 2.68141 22.2414 2.68141 22.5314 2.97141C22.8214 3.26141 22.8214 3.74141 22.5314 4.03141L18.5314 8.03141C18.3814 8.18141 18.1914 8.25141 18.0014 8.25141Z" fill="#292D32"/>
</svg>
