<svg width="24" height="24" viewBox="0 0 24 24" fill="none" xmlns="http://www.w3.org/2000/svg">
<path d="M21.8984 10.7812H1.89844C1.48844 10.7812 1.14844 10.4412 1.14844 10.0312C1.14844 9.62125 1.48844 9.28125 1.89844 9.28125H21.8984C22.3084 9.28125 22.6484 9.62125 22.6484 10.0312C22.6484 10.4412 22.3184 10.7812 21.8984 10.7812Z" fill="#292D32"/>
<path d="M11.4584 21.2791H6.34839C2.36839 21.2791 1.14844 20.0791 1.14844 16.1391V7.91907C1.14844 4.76907 1.81843 3.01907 5.38843 2.80907C5.69843 2.79907 6.00839 2.78906 6.34839 2.78906H17.4584C21.4384 2.78906 22.6584 3.98906 22.6584 7.92906V12.3391C22.6584 12.7491 22.3184 13.0891 21.9084 13.0891C21.4984 13.0891 21.1584 12.7491 21.1584 12.3391V7.92906C21.1584 4.83906 20.6084 4.28906 17.4584 4.28906H6.34839C6.02839 4.28906 5.73844 4.29907 5.45844 4.30907C3.28843 4.43907 2.64844 4.92906 2.64844 7.92906V16.1491C2.64844 19.2391 3.19839 19.7891 6.34839 19.7891H11.4584C11.8684 19.7891 12.2084 20.1291 12.2084 20.5391C12.2084 20.9491 11.8684 21.2791 11.4584 21.2791Z" fill="#292D32"/>
<path d="M17.8984 22.7812C15.2784 22.7812 13.1484 20.6512 13.1484 18.0312C13.1484 15.4113 15.2784 13.2812 17.8984 13.2812C20.5184 13.2812 22.6484 15.4113 22.6484 18.0312C22.6484 20.6512 20.5184 22.7812 17.8984 22.7812ZM17.8984 14.7812C16.1084 14.7812 14.6484 16.2413 14.6484 18.0312C14.6484 19.8212 16.1084 21.2812 17.8984 21.2812C19.6884 21.2812 21.1484 19.8212 21.1484 18.0312C21.1484 16.2413 19.6884 14.7812 17.8984 14.7812Z" fill="#292D32"/>
<path d="M18.9707 19.9005C18.7807 19.9005 18.5908 19.8305 18.4408 19.6805L16.3308 17.5705C16.0408 17.2805 16.0408 16.8005 16.3308 16.5105C16.6208 16.2205 17.1008 16.2205 17.3908 16.5105L19.5008 18.6205C19.7908 18.9105 19.7908 19.3905 19.5008 19.6805C19.3608 19.8205 19.1607 19.9005 18.9707 19.9005Z" fill="#292D32"/>
<path d="M16.8296 19.92C16.6396 19.92 16.4495 19.85 16.2995 19.7C16.0095 19.41 16.0095 18.93 16.2995 18.64L18.4095 16.53C18.6995 16.24 19.1795 16.24 19.4695 16.53C19.7595 16.82 19.7595 17.3 19.4695 17.59L17.3595 19.7C17.2195 19.85 17.0296 19.92 16.8296 19.92Z" fill="#292D32"/>
<path d="M9.89844 16.7812H5.89844C5.48844 16.7812 5.14844 16.4412 5.14844 16.0312C5.14844 15.6213 5.48844 15.2812 5.89844 15.2812H9.89844C10.3084 15.2812 10.6484 15.6213 10.6484 16.0312C10.6484 16.4412 10.3184 16.7812 9.89844 16.7812Z" fill="#292D32"/>
</svg>
