<svg width="24" height="24" viewBox="0 0 24 24" fill="none" xmlns="http://www.w3.org/2000/svg">
<path d="M14.5 9.25H2C1.59 9.25 1.25 8.91 1.25 8.5C1.25 8.09 1.59 7.75 2 7.75H14.5C14.91 7.75 15.25 8.09 15.25 8.5C15.25 8.91 14.91 9.25 14.5 9.25Z" fill="#292D32"/>
<path d="M8 17.25H6C5.59 17.25 5.25 16.91 5.25 16.5C5.25 16.09 5.59 15.75 6 15.75H8C8.41 15.75 8.75 16.09 8.75 16.5C8.75 16.91 8.41 17.25 8 17.25Z" fill="#292D32"/>
<path d="M14.5 17.25H10.5C10.09 17.25 9.75 16.91 9.75 16.5C9.75 16.09 10.09 15.75 10.5 15.75H14.5C14.91 15.75 15.25 16.09 15.25 16.5C15.25 16.91 14.91 17.25 14.5 17.25Z" fill="#292D32"/>
<path d="M17.56 21.25H6.44C2.46 21.25 1.25 20.05 1.25 16.11V7.89C1.25 3.95 2.46 2.75 6.44 2.75H14.5C14.91 2.75 15.25 3.09 15.25 3.5C15.25 3.91 14.91 4.25 14.5 4.25H6.44C3.3 4.25 2.75 4.79 2.75 7.89V16.1C2.75 19.2 3.3 19.74 6.44 19.74H17.55C20.69 19.74 21.24 19.2 21.24 16.1V14.02C21.24 13.61 21.58 13.27 21.99 13.27C22.4 13.27 22.74 13.61 22.74 14.02V16.1C22.75 20.05 21.54 21.25 17.56 21.25Z" fill="#292D32"/>
<path d="M20 10.2519C19.59 10.2519 19.25 9.91189 19.25 9.50189V3.50189C19.25 3.20189 19.43 2.92189 19.71 2.81189C19.99 2.70189 20.31 2.76189 20.53 2.97189L22.53 4.97189C22.82 5.26189 22.82 5.74189 22.53 6.03189C22.24 6.32189 21.76 6.32189 21.47 6.03189L20.75 5.31189V9.50189C20.75 9.91189 20.41 10.2519 20 10.2519Z" fill="#292D32"/>
<path d="M18.0014 6.25141C17.8114 6.25141 17.6214 6.18141 17.4714 6.03141C17.1814 5.74141 17.1814 5.26141 17.4714 4.97141L19.4714 2.97141C19.7614 2.68141 20.2414 2.68141 20.5314 2.97141C20.8214 3.26141 20.8214 3.74141 20.5314 4.03141L18.5314 6.03141C18.3814 6.18141 18.1914 6.25141 18.0014 6.25141Z" fill="#292D32"/>
</svg>
