<svg width="24" height="24" viewBox="0 0 24 24" fill="none" xmlns="http://www.w3.org/2000/svg">
<path d="M10.1103 18.1506H6.32031C5.91031 18.1506 5.57031 17.8106 5.57031 17.4006V12.2806C5.57031 11.2406 6.4203 10.3906 7.4603 10.3906H10.1103C10.5203 10.3906 10.8603 10.7306 10.8603 11.1406V17.3906C10.8603 17.8106 10.5203 18.1506 10.1103 18.1506ZM7.07031 16.6506H9.36029V11.9006H7.4603C7.2503 11.9006 7.07031 12.0706 7.07031 12.2906V16.6506Z" fill="#292D32"/>
<path d="M13.8916 18.1516H10.1016C9.69156 18.1516 9.35156 17.8116 9.35156 17.4016V7.74158C9.35156 6.70158 10.2015 5.85156 11.2415 5.85156H12.7616C13.8016 5.85156 14.6516 6.70158 14.6516 7.74158V17.4016C14.6416 17.8116 14.3116 18.1516 13.8916 18.1516ZM10.8615 16.6516H13.1516V7.74158C13.1516 7.53158 12.9816 7.35156 12.7616 7.35156H11.2415C11.0315 7.35156 10.8516 7.52158 10.8516 7.74158V16.6516H10.8615Z" fill="#292D32"/>
<path d="M17.6806 18.1516H13.8906C13.4806 18.1516 13.1406 17.8116 13.1406 17.4016V12.8516C13.1406 12.4416 13.4806 12.1016 13.8906 12.1016H16.5406C17.5806 12.1016 18.4306 12.9516 18.4306 13.9916V17.4016C18.4306 17.8116 18.1006 18.1516 17.6806 18.1516ZM14.6406 16.6516H16.9306V13.9916C16.9306 13.7816 16.7606 13.6016 16.5406 13.6016H14.6406V16.6516Z" fill="#292D32"/>
<path d="M15 22.75H9C3.57 22.75 1.25 20.43 1.25 15V9C1.25 3.57 3.57 1.25 9 1.25H15C20.43 1.25 22.75 3.57 22.75 9V15C22.75 20.43 20.43 22.75 15 22.75ZM9 2.75C4.39 2.75 2.75 4.39 2.75 9V15C2.75 19.61 4.39 21.25 9 21.25H15C19.61 21.25 21.25 19.61 21.25 15V9C21.25 4.39 19.61 2.75 15 2.75H9Z" fill="#292D32"/>
</svg>
