<svg width="24" height="24" viewBox="0 0 24 24" fill="none" xmlns="http://www.w3.org/2000/svg">
<path d="M14.8892 18.2217H6.09921C5.57921 18.2217 5.0892 18.1717 4.6492 18.0717C4.4192 18.0417 4.13921 17.9617 3.84921 17.8517C2.51921 17.3517 0.949219 16.1217 0.949219 13.0617V7.91168C0.949219 4.64168 2.82921 2.76172 6.09921 2.76172H14.8892C17.6492 2.76172 19.4292 4.08169 19.9092 6.48169C19.9992 6.92169 20.0392 7.39168 20.0392 7.91168V13.0617C20.0392 16.3517 18.1692 18.2217 14.8892 18.2217ZM6.10919 4.28174C3.64919 4.28174 2.4592 5.4717 2.4592 7.9317V13.0817C2.4592 14.8717 3.08921 15.9717 4.37921 16.4617C4.57921 16.5317 4.76922 16.5817 4.94922 16.6117C5.32922 16.6917 5.69919 16.7317 6.10919 16.7317H14.8992C17.3592 16.7317 18.5492 15.5417 18.5492 13.0817V7.9317C18.5492 7.5117 18.5192 7.1417 18.4492 6.8017C18.1092 5.1017 16.9492 4.28174 14.8992 4.28174H6.10919Z" fill="#292D32"/>
<path d="M17.8911 21.2203H9.10107C8.25107 21.2203 7.49106 21.1003 6.84106 20.8503C5.37106 20.3003 4.41105 19.1403 4.08105 17.4803C4.03105 17.2303 4.11107 16.9703 4.29107 16.8003C4.47107 16.6203 4.73107 16.5503 4.98107 16.6103C5.31107 16.6803 5.68107 16.7203 6.10107 16.7203H14.8911C17.3511 16.7203 18.5411 15.5304 18.5411 13.0704V7.92033C18.5411 7.50033 18.5111 7.13033 18.4411 6.79033C18.3911 6.54033 18.4711 6.29033 18.6411 6.11033C18.8211 5.93033 19.0711 5.85032 19.3211 5.91032C21.7211 6.40032 23.0411 8.18033 23.0411 10.9203V16.0704C23.0411 19.3504 21.1711 21.2203 17.8911 21.2203ZM5.92107 18.2203C6.24107 18.8003 6.72107 19.2104 7.38107 19.4504C7.86107 19.6304 8.44105 19.7203 9.11105 19.7203H17.9011C20.3611 19.7203 21.551 18.5304 21.551 16.0704V10.9203C21.551 9.34033 21.061 8.29034 20.051 7.74034C20.051 7.80034 20.051 7.86033 20.051 7.92033V13.0704C20.051 16.3404 18.1711 18.2203 14.9011 18.2203H6.11105C6.04105 18.2203 5.98107 18.2203 5.92107 18.2203Z" fill="#292D32"/>
<path d="M10.4994 13.8894C8.62939 13.8894 7.10938 12.3694 7.10938 10.4994C7.10938 8.62939 8.62939 7.10938 10.4994 7.10938C12.3694 7.10938 13.8894 8.62939 13.8894 10.4994C13.8894 12.3694 12.3694 13.8894 10.4994 13.8894ZM10.4994 8.60938C9.45939 8.60938 8.60938 9.45939 8.60938 10.4994C8.60938 11.5394 9.45939 12.3894 10.4994 12.3894C11.5394 12.3894 12.3894 11.5394 12.3894 10.4994C12.3894 9.45939 11.5394 8.60938 10.4994 8.60938Z" fill="#292D32"/>
<path d="M4.78125 13.4508C4.37125 13.4508 4.03125 13.1108 4.03125 12.7008V8.30078C4.03125 7.89078 4.37125 7.55078 4.78125 7.55078C5.19125 7.55078 5.53125 7.89078 5.53125 8.30078V12.7008C5.53125 13.1108 5.20125 13.4508 4.78125 13.4508Z" fill="#292D32"/>
<path d="M16.2109 13.4508C15.8009 13.4508 15.4609 13.1108 15.4609 12.7008V8.30078C15.4609 7.89078 15.8009 7.55078 16.2109 7.55078C16.6209 7.55078 16.9609 7.89078 16.9609 8.30078V12.7008C16.9609 13.1108 16.6309 13.4508 16.2109 13.4508Z" fill="#292D32"/>
</svg>
