<svg width="24" height="24" viewBox="0 0 24 24" fill="none" xmlns="http://www.w3.org/2000/svg">
<path d="M8.56781 16.0201C8.37781 16.0201 8.18781 15.9501 8.03781 15.8001C7.74781 15.5101 7.74781 15.0301 8.03781 14.7401L14.5878 8.19016C14.8778 7.90016 15.3578 7.90016 15.6478 8.19016C15.9378 8.48016 15.9378 8.96015 15.6478 9.25015L9.09781 15.8001C8.94781 15.9501 8.75781 16.0201 8.56781 16.0201Z" fill="#292D32"/>
<path d="M8.98001 11.1084C7.89001 11.1084 7 10.2184 7 9.12845C7 8.03845 7.89001 7.14844 8.98001 7.14844C10.07 7.14844 10.96 8.03845 10.96 9.12845C10.96 10.2184 10.07 11.1084 8.98001 11.1084ZM8.98001 8.65845C8.72001 8.65845 8.5 8.86846 8.5 9.13846C8.5 9.40846 8.71001 9.61844 8.98001 9.61844C9.25001 9.61844 9.45999 9.40846 9.45999 9.13846C9.45999 8.86846 9.24001 8.65845 8.98001 8.65845Z" fill="#292D32"/>
<path d="M15.519 16.8389C14.429 16.8389 13.5391 15.9489 13.5391 14.8589C13.5391 13.7689 14.429 12.8789 15.519 12.8789C16.609 12.8789 17.4991 13.7689 17.4991 14.8589C17.4991 15.9489 16.609 16.8389 15.519 16.8389ZM15.519 14.3889C15.259 14.3889 15.0391 14.5989 15.0391 14.8689C15.0391 15.1389 15.249 15.3489 15.519 15.3489C15.789 15.3489 15.9991 15.1389 15.9991 14.8689C15.9991 14.5989 15.789 14.3889 15.519 14.3889Z" fill="#292D32"/>
<path d="M12 22.75C6.07 22.75 1.25 17.93 1.25 12C1.25 6.07 6.07 1.25 12 1.25C17.93 1.25 22.75 6.07 22.75 12C22.75 17.93 17.93 22.75 12 22.75ZM12 2.75C6.9 2.75 2.75 6.9 2.75 12C2.75 17.1 6.9 21.25 12 21.25C17.1 21.25 21.25 17.1 21.25 12C21.25 6.9 17.1 2.75 12 2.75Z" fill="#292D32"/>
</svg>
