<svg width="24" height="24" viewBox="0 0 24 24" fill="none" xmlns="http://www.w3.org/2000/svg">
<path d="M17 22.75H12C11.59 22.75 11.25 22.41 11.25 22C11.25 21.59 11.59 21.25 12 21.25H17C19.58 21.25 21.25 19.58 21.25 17V12C21.25 9.71 19.83 8 17.71 7.75H17H7C6.72 7.75 6.62 7.75 6.44 7.81C6.39 7.83 6.34 7.84003 6.29 7.84003C4.08 8.10003 2.75 9.65 2.75 12V13C2.75 13.41 2.41 13.75 2 13.75C1.59 13.75 1.25 13.41 1.25 13V12C1.25 8.94 3.13 6.72999 6.04 6.35999C6.42 6.24999 6.7 6.25 7 6.25H17.8C20.8 6.6 22.75 8.91 22.75 12V17C22.75 20.44 20.44 22.75 17 22.75Z" fill="#292D32"/>
<path d="M6.20179 7.85094C6.00179 7.85094 5.81179 7.77097 5.67179 7.63097C5.47179 7.43097 5.40179 7.13095 5.49179 6.86095C5.65179 6.39095 5.94179 6.10098 6.27179 5.77098L9.46179 2.48095C11.1118 0.830945 13.8918 0.830935 15.5318 2.47094L17.3318 4.27098C17.9918 4.93098 18.4118 5.84094 18.5418 6.91094C18.5718 7.12094 18.5018 7.34096 18.3618 7.50096C18.2218 7.66096 18.0118 7.75096 17.8018 7.75096H7.00179C6.72179 7.75096 6.62179 7.75096 6.44179 7.81096C6.36179 7.84096 6.28179 7.85094 6.20179 7.85094ZM7.89179 6.25096H16.8518C16.7318 5.93096 16.5418 5.61098 16.2718 5.33098L14.4718 3.53099C13.4018 2.46099 11.6018 2.46099 10.5318 3.53099L7.89179 6.25096Z" fill="#292D32"/>
<path d="M22 17.25H19C17.48 17.25 16.25 16.02 16.25 14.5C16.25 12.98 17.48 11.75 19 11.75H22C22.41 11.75 22.75 12.09 22.75 12.5C22.75 12.91 22.41 13.25 22 13.25H19C18.31 13.25 17.75 13.81 17.75 14.5C17.75 15.19 18.31 15.75 19 15.75H22C22.41 15.75 22.75 16.09 22.75 16.5C22.75 16.91 22.41 17.25 22 17.25Z" fill="#292D32"/>
<path d="M5.80157 22.15C3.62157 22.15 1.85156 20.38 1.85156 18.2C1.85156 16.02 3.62157 14.25 5.80157 14.25C7.98157 14.25 9.75156 16.02 9.75156 18.2C9.75156 20.38 7.98157 22.15 5.80157 22.15ZM5.80157 15.75C4.45157 15.75 3.35156 16.85 3.35156 18.2C3.35156 19.55 4.45157 20.65 5.80157 20.65C7.15157 20.65 8.25156 19.55 8.25156 18.2C8.25156 16.85 7.15157 15.75 5.80157 15.75Z" fill="#292D32"/>
<path d="M2.00141 22.7514C1.81141 22.7514 1.62141 22.6815 1.47141 22.5315C1.18141 22.2415 1.18141 21.7614 1.47141 21.4714L2.47141 20.4714C2.76141 20.1814 3.2414 20.1814 3.5314 20.4714C3.8214 20.7614 3.8214 21.2415 3.5314 21.5315L2.5314 22.5315C2.3814 22.6815 2.1914 22.7514 2.00141 22.7514Z" fill="#292D32"/>
</svg>
