<svg width="24" height="24" viewBox="0 0 24 24" fill="none" xmlns="http://www.w3.org/2000/svg">
<path d="M5.20165 10.4599C5.01165 10.4599 4.81165 10.3799 4.67165 10.2399C4.46165 10.0199 4.39165 9.69988 4.51165 9.41988L6.37165 4.97988C6.41165 4.88988 6.43165 4.82988 6.46165 4.77988C7.94165 1.36988 9.83165 0.539877 13.1716 1.81988C13.3616 1.88988 13.5116 2.03988 13.5916 2.22988C13.6716 2.41988 13.6716 2.62988 13.5916 2.81988L10.6616 9.61988C10.5416 9.89988 10.2716 10.0699 9.97165 10.0699H7.12165C6.55165 10.0699 6.01165 10.1799 5.49165 10.3999C5.40165 10.4399 5.30165 10.4599 5.20165 10.4599ZM10.6116 2.74988C9.37165 2.74988 8.61165 3.55988 7.82165 5.39988C7.81165 5.42988 7.79165 5.45988 7.78165 5.48988L6.47165 8.59988C6.69165 8.57988 6.90165 8.56988 7.12165 8.56988H9.47165L11.8816 2.96988C11.4116 2.81988 10.9916 2.74988 10.6116 2.74988Z" fill="#292D32"/>
<path d="M18.2883 10.2683C18.2183 10.2683 18.1383 10.2583 18.0683 10.2383C17.6883 10.1283 17.2883 10.0683 16.8683 10.0683H9.96827C9.71827 10.0683 9.47827 9.93828 9.33827 9.72828C9.20827 9.51828 9.17827 9.24829 9.27827 9.01829L12.1783 2.28828C12.3283 1.92828 12.7683 1.67828 13.1383 1.80828C13.2583 1.84828 13.3683 1.89828 13.4883 1.94828L15.8483 2.93828C17.2283 3.50828 18.1483 4.10828 18.7483 4.82828C18.8683 4.96828 18.9683 5.11828 19.0683 5.27829C19.1783 5.44829 19.2783 5.64828 19.3483 5.85828C19.3783 5.92829 19.4283 6.05828 19.4583 6.19828C19.7383 7.14828 19.5983 8.30828 18.9983 9.80828C18.8683 10.0883 18.5883 10.2683 18.2883 10.2683ZM11.1083 8.56828H16.8783C17.1983 8.56828 17.5083 8.59828 17.8183 8.64828C18.0983 7.77828 18.1583 7.10828 17.9983 6.56828C17.9783 6.47828 17.9583 6.43828 17.9483 6.39828C17.8883 6.23829 17.8483 6.14828 17.7983 6.06828C17.7283 5.95828 17.6783 5.86829 17.5983 5.77829C17.1683 5.25829 16.4083 4.77828 15.2683 4.30828L13.2983 3.48828L11.1083 8.56828Z" fill="#292D32"/>
<path d="M15.9 22.7503H8.1C7.82 22.7503 7.56 22.7303 7.3 22.7003C3.79 22.4703 1.79 20.4603 1.55 16.9103C1.52 16.6903 1.5 16.4203 1.5 16.1503V14.2003C1.5 11.9503 2.84 9.92031 4.91 9.02031C5.62 8.72031 6.36 8.57031 7.13 8.57031H16.89C17.46 8.57031 18.01 8.65031 18.52 8.81031C20.87 9.52031 22.52 11.7403 22.52 14.2003V16.1503C22.52 16.3703 22.51 16.5803 22.5 16.7803C22.28 20.6903 20 22.7503 15.9 22.7503ZM7.12 10.0703C6.55 10.0703 6.01 10.1803 5.49 10.4003C3.97 11.0603 2.99 12.5503 2.99 14.2003V16.1503C2.99 16.3603 3.01 16.5703 3.03 16.7703C3.22 19.6203 4.62 21.0203 7.43 21.2103C7.68 21.2403 7.88 21.2603 8.09 21.2603H15.89C19.19 21.2603 20.81 19.8103 20.97 16.7103C20.98 16.5303 20.99 16.3503 20.99 16.1503V14.2003C20.99 12.3903 19.78 10.7703 18.06 10.2403C17.68 10.1303 17.28 10.0703 16.86 10.0703H7.12Z" fill="#292D32"/>
<path d="M2.23828 14.9518C1.82828 14.9518 1.48828 14.6118 1.48828 14.2018V11.2718C1.48828 8.12175 3.71828 5.40175 6.79828 4.80175C7.06828 4.75175 7.34828 4.85175 7.52828 5.06175C7.69828 5.27175 7.74828 5.57175 7.63828 5.82175L5.88828 10.0018C5.80828 10.1818 5.66828 10.3218 5.49828 10.4018C3.97828 11.0618 2.99828 12.5518 2.99828 14.2018C2.98828 14.6118 2.65828 14.9518 2.23828 14.9518ZM5.59828 6.82175C4.31828 7.54175 3.38828 8.80175 3.09828 10.2718C3.53828 9.82175 4.04828 9.44175 4.62828 9.16175L5.59828 6.82175Z" fill="#292D32"/>
<path d="M21.7611 14.9498C21.3511 14.9498 21.0111 14.6098 21.0111 14.1998C21.0111 12.3898 19.8011 10.7698 18.0811 10.2398C17.8811 10.1798 17.7111 10.0398 17.6211 9.84978C17.5311 9.65978 17.5211 9.43978 17.6011 9.24978C18.0711 8.07978 18.1911 7.22978 18.0011 6.56978C17.9811 6.47978 17.9611 6.43978 17.9511 6.39978C17.8211 6.10978 17.8911 5.76978 18.1211 5.54978C18.3511 5.32978 18.7011 5.27978 18.9811 5.42978C21.1611 6.56978 22.5111 8.80978 22.5111 11.2698V14.1998C22.5111 14.6098 22.1711 14.9498 21.7611 14.9498ZM19.2511 9.08978C19.8811 9.37978 20.4411 9.78978 20.9111 10.2798C20.7211 9.29978 20.2511 8.40978 19.5611 7.70978C19.5111 8.12978 19.4111 8.58978 19.2511 9.08978Z" fill="#292D32"/>
</svg>
