<svg width="24" height="24" viewBox="0 0 24 24" fill="none" xmlns="http://www.w3.org/2000/svg">
<path d="M13 11.8984H7C6.59 11.8984 6.25 11.5584 6.25 11.1484C6.25 10.7384 6.59 10.3984 7 10.3984H13C13.41 10.3984 13.75 10.7384 13.75 11.1484C13.75 11.5584 13.41 11.8984 13 11.8984Z" fill="#292D32"/>
<path d="M2 11.8998C1.59 11.8998 1.25 11.5598 1.25 11.1498V6.52985C1.25 4.07985 3.24 2.08984 5.69 2.08984H11.31C13.88 2.08984 15.75 3.79984 15.75 6.14984C15.75 6.55984 15.41 6.89984 15 6.89984C14.59 6.89984 14.25 6.55984 14.25 6.14984C14.25 4.38984 12.72 3.58984 11.31 3.58984H5.69C4.07 3.58984 2.75 4.90985 2.75 6.52985V11.1498C2.75 11.5698 2.41 11.8998 2 11.8998Z" fill="#292D32"/>
<path d="M16 21.8984H6C3.38 21.8984 1.25 19.7684 1.25 17.1484V10.1484C1.25 7.52844 3.38 5.39844 6 5.39844H16C18.62 5.39844 20.75 7.52844 20.75 10.1484V11.5984C20.75 12.0084 20.41 12.3484 20 12.3484H18.92C18.57 12.3484 18.25 12.4784 18.02 12.7184L18.01 12.7284C17.68 13.0584 17.55 13.5184 17.67 13.9684C17.82 14.5284 18.41 14.9384 19.07 14.9384H20C20.41 14.9384 20.75 15.2784 20.75 15.6884V17.1384C20.75 19.7684 18.62 21.8984 16 21.8984ZM6 6.89844C4.21 6.89844 2.75 8.35844 2.75 10.1484V17.1484C2.75 18.9384 4.21 20.3984 6 20.3984H16C17.79 20.3984 19.25 18.9384 19.25 17.1484V16.4484H19.07C17.72 16.4484 16.55 15.5984 16.22 14.3684C15.96 13.3984 16.24 12.3684 16.95 11.6684C17.47 11.1384 18.17 10.8484 18.92 10.8484H19.25V10.1484C19.25 8.35844 17.79 6.89844 16 6.89844H6Z" fill="#292D32"/>
<path d="M20.9699 16.4516H19.0399C17.5299 16.4516 16.2499 15.3316 16.1299 13.8916C16.0499 13.0616 16.3499 12.2516 16.9499 11.6616C17.4499 11.1416 18.1599 10.8516 18.9099 10.8516H20.9599C21.9399 10.8516 22.7399 11.6416 22.7399 12.6216V14.6816C22.7499 15.6616 21.9499 16.4516 20.9699 16.4516ZM18.9199 12.3516C18.5699 12.3516 18.2499 12.4816 18.0199 12.7216C17.7299 13.0016 17.5899 13.3816 17.6299 13.7616C17.6799 14.4216 18.3199 14.9516 19.0399 14.9516H20.9699C21.1199 14.9516 21.2499 14.8316 21.2499 14.6816V12.6216C21.2499 12.4716 21.1199 12.3516 20.9699 12.3516H18.9199Z" fill="#292D32"/>
</svg>
