<svg width="24" height="24" viewBox="0 0 24 24" fill="none" xmlns="http://www.w3.org/2000/svg">
<path d="M9 6C7.9 6 7 6.9 7 8C7 9.1 7.9 10 9 10C10.1 10 11 9.1 11 8" stroke="#292D32" stroke-width="1.5" stroke-linecap="round" stroke-linejoin="round"/>
<path d="M2 12.89V15C2 20 4 22 9 22H15C20 22 22 20 22 15V10" stroke="#292D32" stroke-width="1.5" stroke-linecap="round" stroke-linejoin="round"/>
<path d="M13 2H9C4 2 2 4 2 9" stroke="#292D32" stroke-width="1.5" stroke-linecap="round" stroke-linejoin="round"/>
<path d="M19.1389 2.58869L15.5089 6.21869C15.3689 6.35869 15.2289 6.62869 15.2089 6.82869L15.0089 8.21869C14.9389 8.71869 15.2889 9.06869 15.7889 8.99869L17.1789 8.79869C17.3689 8.76869 17.6489 8.63869 17.7889 8.49869L21.4189 4.86869C22.0489 4.23869 22.3389 3.51869 21.4189 2.59869C20.4889 1.65869 19.7689 1.95869 19.1389 2.58869Z" stroke="#292D32" stroke-width="1.5" stroke-miterlimit="10" stroke-linecap="round" stroke-linejoin="round"/>
<path d="M18.6211 3.10938C18.9311 4.20938 19.7911 5.06938 20.8911 5.37938" stroke="#292D32" stroke-width="1.5" stroke-miterlimit="10" stroke-linecap="round" stroke-linejoin="round"/>
<path d="M2.67188 18.9486L7.60187 15.6386C8.39187 15.1086 9.53187 15.1686 10.2419 15.7786L10.5719 16.0686C11.3519 16.7386 12.6119 16.7386 13.3919 16.0686L17.5519 12.4986C18.3319 11.8286 19.5919 11.8286 20.3719 12.4986L22.0019 13.8986" stroke="#292D32" stroke-width="1.5" stroke-linecap="round" stroke-linejoin="round"/>
</svg>
