<svg width="24" height="24" viewBox="0 0 24 24" fill="none" xmlns="http://www.w3.org/2000/svg">
<path d="M2 12.9805V15.0005C2 20.0005 4 22.0005 9 22.0005H11" stroke="#292D32" stroke-width="1.5" stroke-linecap="round" stroke-linejoin="round"/>
<path d="M22 10V9C22 4 20 2 15 2H9C4 2 2 4 2 9" stroke="#292D32" stroke-width="1.5" stroke-linecap="round" stroke-linejoin="round"/>
<path d="M15.2681 22.0011C16.0634 22.0011 16.7081 21.3564 16.7081 20.5611C16.7081 19.7658 16.0634 19.1211 15.2681 19.1211C14.4728 19.1211 13.8281 19.7658 13.8281 20.5611C13.8281 21.3564 14.4728 22.0011 15.2681 22.0011Z" stroke="#292D32" stroke-width="1.5" stroke-linecap="round" stroke-linejoin="round"/>
<path d="M21.9992 19.5993V13.9594C21.9992 12.7594 21.2492 12.5893 20.4792 12.7993L17.5892 13.5894C17.0692 13.7294 16.6992 14.1494 16.6992 14.7494V15.7594V16.4394V20.5694" stroke="#292D32" stroke-width="1.5" stroke-linecap="round" stroke-linejoin="round"/>
<path d="M20.5572 21.0402C21.3525 21.0402 21.9972 20.3954 21.9972 19.6002C21.9972 18.8049 21.3525 18.1602 20.5572 18.1602C19.7619 18.1602 19.1172 18.8049 19.1172 19.6002C19.1172 20.3954 19.7619 21.0402 20.5572 21.0402Z" stroke="#292D32" stroke-width="1.5" stroke-linecap="round" stroke-linejoin="round"/>
<path d="M16.707 16.4283L21.997 14.9883" stroke="#292D32" stroke-width="1.5" stroke-linecap="round" stroke-linejoin="round"/>
</svg>
