<svg width="24" height="24" viewBox="0 0 24 24" fill="none" xmlns="http://www.w3.org/2000/svg">
<path d="M17.5401 9.06063C15.7701 9.06063 14.3301 7.62062 14.3301 5.85062C14.3301 4.08062 15.7701 2.64062 17.5401 2.64062C19.3101 2.64062 20.7501 4.08062 20.7501 5.85062C20.7501 7.62062 19.3101 9.06063 17.5401 9.06063ZM17.5401 4.13063C16.6001 4.13063 15.8301 4.90063 15.8301 5.84063C15.8301 6.78063 16.6001 7.55062 17.5401 7.55062C18.4801 7.55062 19.2501 6.78063 19.2501 5.84063C19.2501 4.90063 18.4801 4.13063 17.5401 4.13063Z" fill="#292D32"/>
<path d="M6.46001 9.06063C4.69001 9.06063 3.25 7.62062 3.25 5.85062C3.25 4.08062 4.69001 2.64062 6.46001 2.64062C8.23001 2.64062 9.67 4.08062 9.67 5.85062C9.67 7.62062 8.23001 9.06063 6.46001 9.06063ZM6.46001 4.13063C5.52001 4.13063 4.75 4.90063 4.75 5.84063C4.75 6.78063 5.52001 7.55062 6.46001 7.55062C7.40001 7.55062 8.17 6.78063 8.17 5.84063C8.17 4.90063 7.41001 4.13063 6.46001 4.13063Z" fill="#292D32"/>
<path d="M17.5401 21.3692C15.7701 21.3692 14.3301 19.9292 14.3301 18.1592C14.3301 16.3892 15.7701 14.9492 17.5401 14.9492C19.3101 14.9492 20.7501 16.3892 20.7501 18.1592C20.7501 19.9292 19.3101 21.3692 17.5401 21.3692ZM17.5401 16.4392C16.6001 16.4392 15.8301 17.2092 15.8301 18.1492C15.8301 19.0892 16.6001 19.8592 17.5401 19.8592C18.4801 19.8592 19.2501 19.0892 19.2501 18.1492C19.2501 17.2092 18.4801 16.4392 17.5401 16.4392Z" fill="#292D32"/>
<path d="M6.46001 21.3692C4.69001 21.3692 3.25 19.9292 3.25 18.1592C3.25 16.3892 4.69001 14.9492 6.46001 14.9492C8.23001 14.9492 9.67 16.3892 9.67 18.1592C9.67 19.9292 8.23001 21.3692 6.46001 21.3692ZM6.46001 16.4392C5.52001 16.4392 4.75 17.2092 4.75 18.1492C4.75 19.0892 5.52001 19.8592 6.46001 19.8592C7.40001 19.8592 8.17 19.0892 8.17 18.1492C8.17 17.2092 7.41001 16.4392 6.46001 16.4392Z" fill="#292D32"/>
</svg>
