<svg width="24" height="24" viewBox="0 0 24 24" fill="none" xmlns="http://www.w3.org/2000/svg">
<path d="M9.40994 15.9496L7.01992 13.5598C6.21992 12.7598 6.21992 11.9597 7.01992 11.1697L11.0099 7.17969L15.3999 11.5697C15.6199 11.7897 15.6199 12.1497 15.3999 12.3697L11.8099 15.9597C11.0099 16.7497 10.2099 16.7496 9.40994 15.9496Z" stroke="#292D32" stroke-width="1.5" stroke-miterlimit="10" stroke-linecap="round" stroke-linejoin="round"/>
<path d="M10.209 6.37891L11.009 7.17889" stroke="#292D32" stroke-width="1.5" stroke-miterlimit="10" stroke-linecap="round" stroke-linejoin="round"/>
<path d="M6.45898 12.3275L15.489 11.9375" stroke="#292D32" stroke-width="1.5" stroke-miterlimit="10" stroke-linecap="round" stroke-linejoin="round"/>
<path d="M16.4691 14.168C16.4691 14.168 15.3691 15.3679 15.3691 16.0979C15.3691 16.7079 15.8691 17.1979 16.4691 17.1979C17.0791 17.1979 17.5692 16.6979 17.5692 16.0979C17.5792 15.3579 16.4691 14.168 16.4691 14.168Z" stroke="#292D32" stroke-width="1.5" stroke-linecap="round" stroke-linejoin="round"/>
<path d="M4 6C2.75 7.67 2 9.75 2 12C2 17.52 6.48 22 12 22C17.52 22 22 17.52 22 12C22 6.48 17.52 2 12 2C10.57 2 9.2 2.29998 7.97 2.84998" stroke="#292D32" stroke-width="1.5" stroke-linecap="round" stroke-linejoin="round"/>
</svg>
