<svg width="24" height="24" viewBox="0 0 24 24" fill="none" xmlns="http://www.w3.org/2000/svg">
<path d="M22 13V9C22 4 20 2 15 2H9C4 2 2 4 2 9V15C2 20 4 22 9 22H13" stroke="#292D32" stroke-width="1.5" stroke-linecap="round" stroke-linejoin="round"/>
<path d="M7.33008 14.4917L9.71008 11.4017C10.0501 10.9617 10.6801 10.8817 11.1201 11.2217L12.9501 12.6617C13.3901 13.0017 14.0201 12.9217 14.3601 12.4917L16.6701 9.51172" stroke="#292D32" stroke-width="1.5" stroke-linecap="round" stroke-linejoin="round"/>
<path d="M20.5492 16.9797C20.2492 16.9297 19.8892 16.6597 19.7492 16.3797L19.4692 15.8097C18.9292 14.7197 18.0492 14.7197 17.5192 15.8097L17.2392 16.3797C17.0992 16.6597 16.7492 16.9197 16.4392 16.9797L16.0592 17.0397C14.9192 17.2297 14.6492 18.0697 15.4692 18.8997L15.8192 19.2497C16.0492 19.4897 16.1792 19.9497 16.1092 20.2697L16.0592 20.4797C15.7492 21.8597 16.4792 22.3897 17.6792 21.6697L17.9392 21.5197C18.2492 21.3397 18.7492 21.3397 19.0592 21.5197L19.3192 21.6697C20.5292 22.3997 21.2592 21.8597 20.9392 20.4797L20.8892 20.2697" stroke="#292D32" stroke-width="1.5" stroke-linecap="round" stroke-linejoin="round"/>
</svg>
