<svg width="24" height="24" viewBox="0 0 24 24" fill="none" xmlns="http://www.w3.org/2000/svg">
<path d="M21.9986 13.8986V16.1886C21.9986 19.8286 19.8286 21.9986 16.1886 21.9986H7.80859C5.25859 21.9986 3.41859 20.9286 2.55859 19.0286L2.66859 18.9486L7.58859 15.6486C8.38859 15.1086 9.51859 15.1686 10.2286 15.7886L10.5686 16.0686C11.3486 16.7386 12.6086 16.7386 13.3886 16.0686L17.5486 12.4986C18.3286 11.8286 19.5886 11.8286 20.3686 12.4986L21.9986 13.8986Z" fill="#292D32"/>
<path opacity="0.4" d="M20.97 8H18.03C16.76 8 16 7.24 16 5.97V3.03C16 2.63 16.08 2.29 16.22 2C16.21 2 16.2 2 16.19 2H7.81C4.17 2 2 4.17 2 7.81V16.19C2 17.28 2.19 18.23 2.56 19.03L2.67 18.95L7.59 15.65C8.39 15.11 9.52 15.17 10.23 15.79L10.57 16.07C11.35 16.74 12.61 16.74 13.39 16.07L17.55 12.5C18.33 11.83 19.59 11.83 20.37 12.5L22 13.9V7.81C22 7.8 22 7.79 22 7.78C21.71 7.92 21.37 8 20.97 8Z" fill="#292D32"/>
<path d="M9.00109 10.3811C10.3155 10.3811 11.3811 9.31553 11.3811 8.00109C11.3811 6.68666 10.3155 5.62109 9.00109 5.62109C7.68666 5.62109 6.62109 6.68666 6.62109 8.00109C6.62109 9.31553 7.68666 10.3811 9.00109 10.3811Z" fill="#292D32"/>
<path d="M20.97 1H18.03C16.76 1 16 1.76 16 3.03V5.97C16 7.24 16.76 8 18.03 8H20.97C22.24 8 23 7.24 23 5.97V3.03C23 1.76 22.24 1 20.97 1ZM21.91 4.93C21.81 5.03 21.66 5.1 21.5 5.11H20.09L20.1 6.5C20.09 6.67 20.03 6.81 19.91 6.93C19.81 7.03 19.66 7.1 19.5 7.1C19.17 7.1 18.9 6.83 18.9 6.5V5.1L17.5 5.11C17.17 5.11 16.9 4.83 16.9 4.5C16.9 4.17 17.17 3.9 17.5 3.9L18.9 3.91V2.51C18.9 2.18 19.17 1.9 19.5 1.9C19.83 1.9 20.1 2.18 20.1 2.51L20.09 3.9H21.5C21.83 3.9 22.1 4.17 22.1 4.5C22.09 4.67 22.02 4.81 21.91 4.93Z" fill="#292D32"/>
</svg>
