<svg width="24" height="24" viewBox="0 0 24 24" fill="none" xmlns="http://www.w3.org/2000/svg">
<path opacity="0.4" d="M20.46 3.54L3.54 20.46C2.54 19.46 2 18.01 2 16.19V7.81C2 4.17 4.17 2 7.81 2H16.19C18.01 2 19.46 2.54 20.46 3.54Z" fill="#292D32"/>
<path opacity="0.4" d="M22.0013 7.81063V13.9006L20.3713 12.5006C19.5913 11.8306 18.3312 11.8306 17.5512 12.5006L13.3913 16.0706C12.6813 16.6806 11.5612 16.7406 10.7812 16.2206L21.6113 5.39062C21.7513 5.77062 21.8512 6.17063 21.9113 6.60063C21.9713 6.98063 22.0013 7.39062 22.0013 7.81063Z" fill="#292D32"/>
<path d="M22.0006 13.8986V16.1886C22.0006 19.8286 19.8306 21.9986 16.1906 21.9986H7.81063C7.39062 21.9986 6.98063 21.9686 6.60063 21.9086C6.17063 21.8486 5.77062 21.7486 5.39062 21.6086L10.7806 16.2186C11.5606 16.7386 12.6806 16.6786 13.3906 16.0686L17.5506 12.4986C18.3306 11.8286 19.5906 11.8286 20.3706 12.4986L22.0006 13.8986Z" fill="#292D32"/>
<path d="M21.7689 2.22891C21.4689 1.92891 20.9789 1.92891 20.6789 2.22891L2.22891 20.6889C1.92891 20.9889 1.92891 21.4789 2.22891 21.7789C2.37891 21.9189 2.56891 21.9989 2.76891 21.9989C2.96891 21.9989 3.15891 21.9189 3.30891 21.7689L21.7689 3.30891C22.0789 3.00891 22.0789 2.52891 21.7689 2.22891Z" fill="#292D32"/>
<path d="M8.00109 10.3811C9.31553 10.3811 10.3811 9.31553 10.3811 8.00109C10.3811 6.68666 9.31553 5.62109 8.00109 5.62109C6.68666 5.62109 5.62109 6.68666 5.62109 8.00109C5.62109 9.31553 6.68666 10.3811 8.00109 10.3811Z" fill="#292D32"/>
</svg>
