<svg width="24" height="24" viewBox="0 0 24 24" fill="none" xmlns="http://www.w3.org/2000/svg">
<path d="M16.4181 6.4216V7.5816L9.13813 14.8616C8.17813 13.9916 7.57812 12.7116 7.57812 11.3416V6.4216C7.57812 4.3616 8.97813 2.6516 10.8781 2.1616C11.0681 2.1116 11.2481 2.2716 11.2481 2.4616V4.0016C11.2481 4.4116 11.5881 4.7516 11.9981 4.7516C12.4081 4.7516 12.7481 4.4116 12.7481 4.0016V2.4616C12.7481 2.2716 12.9281 2.1116 13.1181 2.1616C15.0181 2.6516 16.4181 4.3616 16.4181 6.4216Z" fill="#292D32"/>
<path opacity="0.4" d="M7.78141 16.2211L6.79141 17.2111C5.20141 15.7811 4.19141 13.7111 4.19141 11.4011V9.81109C4.19141 9.43109 4.50141 9.12109 4.88141 9.12109C5.27141 9.12109 5.58141 9.43109 5.58141 9.81109V11.4011C5.58141 13.3211 6.43141 15.0511 7.78141 16.2211Z" fill="#292D32"/>
<path opacity="0.4" d="M19.8117 9.81109V11.4011C19.8117 15.4711 16.6817 18.8211 12.7017 19.1711V21.3011C12.7017 21.6911 12.3917 22.0011 12.0017 22.0011C11.6117 22.0011 11.3017 21.6911 11.3017 21.3011V19.1711C10.2117 19.0711 9.18172 18.7511 8.26172 18.2411L9.29172 17.2111C10.1117 17.5911 11.0317 17.8111 12.0017 17.8111C15.5417 17.8111 18.4217 14.9311 18.4217 11.4011V9.81109C18.4217 9.43109 18.7317 9.12109 19.1217 9.12109C19.5017 9.12109 19.8117 9.43109 19.8117 9.81109Z" fill="#292D32"/>
<path opacity="0.4" d="M16.4183 10.0781V11.5281C16.4183 14.1081 14.1983 16.1781 11.5583 15.9281C11.2783 15.8981 10.9983 15.8481 10.7383 15.7581L16.4183 10.0781Z" fill="#292D32"/>
<path d="M21.7689 2.22891C21.4689 1.92891 20.9789 1.92891 20.6789 2.22891L2.22891 20.6889C1.92891 20.9889 1.92891 21.4789 2.22891 21.7789C2.37891 21.9189 2.56891 21.9989 2.76891 21.9989C2.96891 21.9989 3.15891 21.9189 3.30891 21.7689L21.7689 3.30891C22.0789 3.00891 22.0789 2.52891 21.7689 2.22891Z" fill="#292D32"/>
</svg>
