<svg width="24" height="24" viewBox="0 0 24 24" fill="none" xmlns="http://www.w3.org/2000/svg">
<path opacity="0.4" d="M16.1917 2H7.82172C4.18172 2 2.01172 4.17 2.01172 7.81V16.18C2.01172 19.82 4.18172 21.99 7.82172 21.99H16.1917C19.8317 21.99 22.0017 19.82 22.0017 16.18V7.81C22.0017 4.17 19.8317 2 16.1917 2Z" fill="#292D32"/>
<path d="M16.1388 6.71136C15.7988 6.45136 15.1988 6.20136 14.2388 6.46136L11.2488 7.28137C10.3188 7.53137 9.7088 8.32132 9.7088 9.29132V11.0413V13.0714C9.4988 13.0114 9.28878 12.9713 9.05878 12.9713C7.76878 12.9713 6.71875 14.0213 6.71875 15.3113C6.71875 16.6013 7.76878 17.6514 9.05878 17.6514C10.3388 17.6514 11.3788 16.6114 11.3988 15.3414C11.3988 15.3314 11.4088 15.3213 11.4088 15.3113V11.6913L15.1888 10.6613V12.0814C14.9788 12.0214 14.7688 11.9813 14.5388 11.9813C13.2488 11.9813 12.1988 13.0314 12.1988 14.3214C12.1988 15.6114 13.2488 16.6613 14.5388 16.6613C15.8288 16.6613 16.8788 15.6114 16.8788 14.3214V9.56134V8.49133C16.8788 7.49133 16.4688 6.97136 16.1388 6.71136ZM9.05878 15.9614C8.69878 15.9614 8.40875 15.6713 8.40875 15.3113C8.40875 14.9513 8.69878 14.6613 9.05878 14.6613C9.41878 14.6613 9.7088 14.9513 9.7088 15.3113C9.7088 15.6713 9.41878 15.9614 9.05878 15.9614ZM14.5388 14.9614C14.1788 14.9614 13.8888 14.6713 13.8888 14.3113C13.8888 13.9513 14.1788 13.6613 14.5388 13.6613C14.8988 13.6613 15.1888 13.9513 15.1888 14.3113C15.1788 14.6713 14.8888 14.9614 14.5388 14.9614Z" fill="#292D32"/>
</svg>
