<svg width="24" height="24" viewBox="0 0 24 24" fill="none" xmlns="http://www.w3.org/2000/svg">
<path d="M22.79 21.76L22.07 21.04C22.44 20.48 22.66 19.8 22.66 19.08C22.66 17.1 21.06 15.5 19.08 15.5C17.1 15.5 15.5 17.1 15.5 19.08C15.5 21.06 17.1 22.66 19.08 22.66C19.81 22.66 20.48 22.44 21.04 22.07L21.76 22.79C21.9 22.93 22.09 23 22.27 23C22.46 23 22.64 22.93 22.78 22.79C23.07 22.5 23.07 22.04 22.79 21.76Z" fill="#292D32"/>
<path opacity="0.4" d="M16.1917 2H7.82173C4.18173 2 2.01172 4.17 2.01172 7.81V16.18C2.01172 19.82 4.18173 21.99 7.82173 21.99H16.1917C19.8317 21.99 22.0017 19.82 22.0017 16.18V7.81C22.0017 4.17 19.8317 2 16.1917 2Z" fill="#292D32"/>
<path d="M13.7812 5.29878C13.4613 5.04878 12.8813 4.80879 11.9613 5.05879L8.98125 5.8788C8.09125 6.1088 7.51125 6.85878 7.51125 7.79878V9.54878V11.7088C7.28125 11.6288 7.03126 11.5688 6.77126 11.5688C5.53126 11.5688 4.53125 12.5788 4.53125 13.8088C4.53125 15.0388 5.54126 16.0488 6.77126 16.0488C7.99126 16.0488 8.99125 15.0588 9.01125 13.8488C9.01125 13.8388 9.02126 13.8288 9.02126 13.8188V10.1188L12.9913 9.03877V10.7188C12.7613 10.6388 12.5113 10.5788 12.2413 10.5788C11.0013 10.5788 10.0013 11.5888 10.0013 12.8188C10.0013 14.0588 11.0113 15.0588 12.2413 15.0588C13.4613 15.0588 14.4612 14.0688 14.4812 12.8488C14.4812 12.8388 14.4913 12.8288 14.4913 12.8088V8.04878V6.97877C14.4813 6.21877 14.2413 5.64878 13.7812 5.29878ZM6.76125 14.5488C6.35125 14.5488 6.02126 14.2188 6.02126 13.8088C6.02126 13.3988 6.35125 13.0688 6.76125 13.0688C7.17125 13.0688 7.50125 13.3988 7.50125 13.8088C7.50125 14.2188 7.17125 14.5488 6.76125 14.5488ZM12.2312 13.5488C11.8212 13.5488 11.4913 13.2188 11.4913 12.8088C11.4913 12.3988 11.8212 12.0688 12.2312 12.0688C12.6412 12.0688 12.9713 12.3988 12.9713 12.8088C12.9713 13.2188 12.6412 13.5488 12.2312 13.5488Z" fill="#292D32"/>
</svg>
