<svg width="24" height="24" viewBox="0 0 24 24" fill="none" xmlns="http://www.w3.org/2000/svg">
<path d="M15 22.75H9C3.57 22.75 1.25 20.43 1.25 15V9C1.25 3.57 3.57 1.25 9 1.25H14C14.41 1.25 14.75 1.59 14.75 2C14.75 2.41 14.41 2.75 14 2.75H9C4.39 2.75 2.75 4.39 2.75 9V15C2.75 19.61 4.39 21.25 9 21.25H15C19.61 21.25 21.25 19.61 21.25 15V10C21.25 9.59 21.59 9.25 22 9.25C22.41 9.25 22.75 9.59 22.75 10V15C22.75 20.43 20.43 22.75 15 22.75Z" fill="#292D32"/>
<path d="M22 10.7485H18C14.58 10.7485 13.25 9.41852 13.25 5.99852V1.99852C13.25 1.69852 13.43 1.41852 13.71 1.30852C13.99 1.18852 14.31 1.25852 14.53 1.46852L22.53 9.46852C22.74 9.67852 22.81 10.0085 22.69 10.2885C22.57 10.5685 22.3 10.7485 22 10.7485ZM14.75 3.80852V5.99852C14.75 8.57852 15.42 9.24852 18 9.24852H20.19L14.75 3.80852Z" fill="#292D32"/>
<path d="M9.41938 18.9486C8.54938 18.9486 6.52938 17.8886 5.90938 15.9486C5.47938 14.6086 5.97938 12.8586 7.52938 12.3586C8.17938 12.1486 8.86938 12.2386 9.41938 12.5786C9.95938 12.2386 10.6594 12.1486 11.3194 12.3586C12.8694 12.8586 13.3694 14.6086 12.9394 15.9486C12.3094 17.9286 10.1894 18.9486 9.41938 18.9486ZM7.32938 15.4986C7.74938 16.8086 9.16938 17.4286 9.42938 17.4486C9.70938 17.4186 11.1094 16.7286 11.4994 15.4986C11.7094 14.8386 11.4994 13.9986 10.8494 13.7886C10.5794 13.6986 10.2094 13.7486 10.0394 14.0086C9.89938 14.2186 9.67938 14.3386 9.42938 14.3486C9.15938 14.3486 8.94938 14.2386 8.80938 14.0386C8.59938 13.7486 8.23938 13.7086 7.97938 13.7986C7.33938 13.9986 7.11938 14.8386 7.32938 15.4986Z" fill="#292D32"/>
</svg>
