<svg width="24" height="24" viewBox="0 0 24 24" fill="none" xmlns="http://www.w3.org/2000/svg">
<path d="M22 22.75H2C1.59 22.75 1.25 22.41 1.25 22C1.25 21.59 1.59 21.25 2 21.25H22C22.41 21.25 22.75 21.59 22.75 22C22.75 22.41 22.41 22.75 22 22.75Z" fill="#292D32"/>
<path d="M21 22.75H3C2.59 22.75 2.25 22.41 2.25 22V6C2.25 2.98 3.98 1.25 7 1.25H17C20.02 1.25 21.75 2.98 21.75 6V22C21.75 22.41 21.41 22.75 21 22.75ZM3.75 21.25H20.25V6C20.25 3.78 19.22 2.75 17 2.75H7C4.78 2.75 3.75 3.78 3.75 6V21.25Z" fill="#292D32"/>
<path d="M15 22.75H9C8.59 22.75 8.25 22.41 8.25 22V15.94C8.25 15.01 9.01 14.25 9.94 14.25H14.07C15 14.25 15.76 15.01 15.76 15.94V22C15.75 22.41 15.41 22.75 15 22.75ZM9.75 21.25H14.25V15.94C14.25 15.84 14.17 15.75 14.06 15.75H9.92999C9.82999 15.75 9.74001 15.83 9.74001 15.94V21.25H9.75Z" fill="#292D32"/>
<path d="M12 11.75C11.59 11.75 11.25 11.41 11.25 11V6C11.25 5.59 11.59 5.25 12 5.25C12.41 5.25 12.75 5.59 12.75 6V11C12.75 11.41 12.41 11.75 12 11.75Z" fill="#292D32"/>
<path d="M14.5 9.25H9.5C9.09 9.25 8.75 8.91 8.75 8.5C8.75 8.09 9.09 7.75 9.5 7.75H14.5C14.91 7.75 15.25 8.09 15.25 8.5C15.25 8.91 14.91 9.25 14.5 9.25Z" fill="#292D32"/>
</svg>
