<svg width="24" height="24" viewBox="0 0 24 24" fill="none" xmlns="http://www.w3.org/2000/svg">
<path opacity="0.4" d="M19.8816 20.9386C18.9316 21.6386 17.6816 21.9986 16.1916 21.9986H7.81155C7.57155 21.9986 7.33156 21.9886 7.10156 21.9586L14.0016 15.0586L19.8816 20.9386Z" fill="#292D32"/>
<path opacity="0.4" d="M21.9986 7.81156V16.1916C21.9986 17.6816 21.6386 18.9316 20.9386 19.8816L15.0586 14.0016L21.9586 7.10156C21.9886 7.33156 21.9986 7.57156 21.9986 7.81156Z" fill="#292D32"/>
<path opacity="0.4" d="M15.06 14L20.94 19.88C20.65 20.3 20.3 20.65 19.88 20.94L14 15.06L7.10001 21.96C6.46001 21.92 5.88001 21.79 5.35001 21.59C3.21001 20.81 2 18.91 2 16.19V7.81C2 4.17 4.17 2 7.81 2H16.19C18.91 2 20.81 3.21 21.59 5.35C21.79 5.88 21.92 6.46 21.96 7.1L15.06 14Z" fill="#292D32"/>
<path d="M15.0616 14.0016L20.9416 19.8816C20.6516 20.3016 20.3016 20.6516 19.8816 20.9416L14.0016 15.0616L7.10156 21.9616C6.46156 21.9216 5.88156 21.7916 5.35156 21.5916L5.74155 21.2016L21.5916 5.35156C21.7916 5.88156 21.9215 6.46156 21.9615 7.10156L15.0616 14.0016Z" fill="#292D32"/>
<path d="M12.2408 7.93125C11.8608 6.28125 10.4008 5.54125 9.12078 5.53125C7.84078 5.53125 6.38079 6.27125 6.00079 7.92125C5.58079 9.75125 6.70078 11.2812 7.71078 12.2412C8.11078 12.6212 8.61078 12.8013 9.12078 12.8013C9.63078 12.8013 10.1308 12.6112 10.5308 12.2412C11.5408 11.2812 12.6608 9.75125 12.2408 7.93125ZM9.15078 9.49125C8.60078 9.49125 8.15078 9.04125 8.15078 8.49125C8.15078 7.94125 8.59078 7.49125 9.15078 7.49125H9.16079C9.71079 7.49125 10.1608 7.94125 10.1608 8.49125C10.1608 9.04125 9.70078 9.49125 9.15078 9.49125Z" fill="#292D32"/>
</svg>
