<svg width="24" height="24" viewBox="0 0 24 24" fill="none" xmlns="http://www.w3.org/2000/svg">
<path opacity="0.4" d="M22 7.81V14H17.92C17.25 14 16.46 13.52 16.15 12.93L15.11 10.96C14.83 10.43 14.43 10.46 14.21 11.01L11.91 16.82C11.66 17.47 11.24 17.47 10.98 16.82L9.84 13.94C9.57 13.24 8.73 12.67 7.98 12.67L2 12.7V7.81C2 4.17 4.17 2 7.81 2H16.19C19.83 2 22 4.17 22 7.81Z" fill="#292D32"/>
<path d="M22 16.1887V13.9987H17.92C17.25 13.9987 16.46 13.5187 16.15 12.9287L15.11 10.9587C14.83 10.4287 14.43 10.4587 14.21 11.0087L11.91 16.8187C11.66 17.4687 11.24 17.4687 10.98 16.8187L9.84 13.9387C9.57 13.2387 8.73 12.6687 7.98 12.6687L2 12.6987V16.1887C2 19.7687 4.1 21.9287 7.63 21.9887C7.74 21.9987 7.86 21.9987 7.97 21.9987H15.97C16.12 21.9987 16.27 21.9987 16.41 21.9887C19.92 21.9087 22 19.7587 22 16.1887Z" fill="#292D32"/>
<path d="M2.0007 12.6992V16.0092C1.9807 15.6892 1.9707 15.3492 1.9707 14.9992V12.6992H2.0007Z" fill="#292D32"/>
</svg>
