<svg width="24" height="24" viewBox="0 0 24 24" fill="none" xmlns="http://www.w3.org/2000/svg">
<path opacity="0.4" d="M16.19 2H7.81C4.17 2 2 4.17 2 7.81V16.18C2 19.83 4.17 22 7.81 22H16.18C19.82 22 21.99 19.83 21.99 16.19V7.81C22 4.17 19.83 2 16.19 2Z" fill="#292D32"/>
<path d="M16.8797 12.4691C16.8797 12.0791 16.5697 11.7691 16.1797 11.7691C15.7897 11.7691 15.4797 12.0791 15.4797 12.4691V12.6491L12.7597 9.92906C12.6097 9.77906 12.4097 9.70906 12.1997 9.72906C11.9897 9.74906 11.7997 9.85906 11.6897 10.0391L10.6697 11.5591L8.30969 9.17906C8.03969 8.90906 7.59969 8.90906 7.31969 9.17906C7.04969 9.44906 7.04969 9.88906 7.31969 10.1691L10.2997 13.1491C10.4497 13.2991 10.6497 13.3691 10.8597 13.3491C11.0697 13.3291 11.2597 13.2191 11.3697 13.0391L12.3897 11.5191L14.4997 13.6291H14.3197C13.9297 13.6291 13.6197 13.9391 13.6197 14.3291C13.6197 14.7191 13.9297 15.0291 14.3197 15.0291H16.1797C16.2697 15.0291 16.3597 15.0091 16.4497 14.9791C16.6197 14.9091 16.7597 14.7691 16.8297 14.5991C16.8697 14.5091 16.8797 14.4191 16.8797 14.3291V12.4691Z" fill="#292D32"/>
</svg>
