<svg width="24" height="24" viewBox="0 0 24 24" fill="none" xmlns="http://www.w3.org/2000/svg">
<path d="M12.001 18.75C10.581 18.75 9.28098 17.85 8.34098 16.22L5.67098 11.59C4.72098 9.96 4.60098 8.39 5.31098 7.16C6.02098 5.93 7.45098 5.25 9.33098 5.25H14.671C16.551 5.25 17.981 5.93 18.691 7.16C19.401 8.39 19.271 9.97 18.331 11.6L15.661 16.23C14.721 17.85 13.421 18.75 12.001 18.75ZM9.33098 6.75C8.00098 6.75 7.04098 7.16 6.61098 7.91C6.17098 8.66 6.30098 9.7 6.96098 10.84L9.63098 15.47C10.291 16.62 11.131 17.25 11.991 17.25C12.851 17.25 13.691 16.62 14.351 15.47L17.021 10.84C17.681 9.69 17.811 8.65 17.381 7.9C16.951 7.15 15.981 6.74 14.661 6.74H9.33098V6.75Z" fill="#292D32"/>
</svg>
