<svg width="24" height="24" viewBox="0 0 24 24" fill="none" xmlns="http://www.w3.org/2000/svg">
<path d="M12 22.75C6.07 22.75 1.25 17.93 1.25 12C1.25 6.07 6.07 1.25 12 1.25C17.93 1.25 22.75 6.07 22.75 12C22.75 17.93 17.93 22.75 12 22.75ZM12 2.75C6.9 2.75 2.75 6.9 2.75 12C2.75 17.1 6.9 21.25 12 21.25C17.1 21.25 21.25 17.1 21.25 12C21.25 6.9 17.1 2.75 12 2.75Z" fill="#292D32"/>
<path d="M13.2619 16.2802C13.0719 16.2802 12.8819 16.2102 12.7319 16.0602L9.20188 12.5302C8.91188 12.2402 8.91188 11.7602 9.20188 11.4702L12.7319 7.94016C13.0219 7.65016 13.5019 7.65016 13.7919 7.94016C14.0819 8.23016 14.0819 8.71016 13.7919 9.00016L10.7919 12.0002L13.7919 15.0002C14.0819 15.2902 14.0819 15.7702 13.7919 16.0602C13.6519 16.2102 13.4619 16.2802 13.2619 16.2802Z" fill="#292D32"/>
</svg>
