<svg width="24" height="24" viewBox="0 0 24 24" fill="none" xmlns="http://www.w3.org/2000/svg">
<path d="M10.4493 7.46997C10.2593 7.46997 10.0692 7.4 9.91922 7.25L6.72922 4.06L3.53922 7.25C3.24922 7.54 2.76922 7.54 2.47922 7.25C2.18922 6.96 2.18922 6.48 2.47922 6.19L6.19925 2.46997C6.33925 2.32997 6.52922 2.25 6.72922 2.25C6.92922 2.25 7.11925 2.32997 7.25925 2.46997L10.9792 6.19C11.2692 6.48 11.2692 6.96 10.9792 7.25C10.8292 7.4 10.6392 7.46997 10.4493 7.46997Z" fill="#292D32"/>
<path d="M6.73047 21.75C6.32047 21.75 5.98047 21.41 5.98047 21V3C5.98047 2.59 6.32047 2.25 6.73047 2.25C7.14047 2.25 7.48047 2.59 7.48047 3V21C7.48047 21.41 7.14047 21.75 6.73047 21.75Z" fill="#292D32"/>
<path d="M17.28 21.7488C17.08 21.7488 16.89 21.6688 16.75 21.5288L13.03 17.8087C12.74 17.5187 12.74 17.0387 13.03 16.7488C13.32 16.4588 13.8 16.4588 14.09 16.7488L17.28 19.9388L20.4699 16.7488C20.7599 16.4588 21.24 16.4588 21.53 16.7488C21.82 17.0387 21.82 17.5187 21.53 17.8087L17.81 21.5288C17.67 21.6688 17.47 21.7488 17.28 21.7488Z" fill="#292D32"/>
<path d="M17.2695 21.75C16.8595 21.75 16.5195 21.41 16.5195 21V3C16.5195 2.59 16.8595 2.25 17.2695 2.25C17.6795 2.25 18.0195 2.59 18.0195 3V21C18.0195 21.41 17.6895 21.75 17.2695 21.75Z" fill="#292D32"/>
</svg>
