<svg width="24" height="24" viewBox="0 0 24 24" fill="none" xmlns="http://www.w3.org/2000/svg">
<path d="M9.01141 21.2497C8.82141 21.2497 8.63141 21.1797 8.48141 21.0297L3.47141 16.0197C3.18141 15.7297 3.18141 15.2497 3.47141 14.9597C3.76141 14.6697 4.24141 14.6697 4.53141 14.9597L9.54141 19.9697C9.83141 20.2597 9.83141 20.7397 9.54141 21.0297C9.39141 21.1697 9.20141 21.2497 9.01141 21.2497Z" fill="#292D32"/>
<path d="M9.01172 21.25C8.60172 21.25 8.26172 20.91 8.26172 20.5V3.5C8.26172 3.09 8.60172 2.75 9.01172 2.75C9.42172 2.75 9.76172 3.09 9.76172 3.5V20.5C9.76172 20.91 9.42172 21.25 9.01172 21.25Z" fill="#292D32"/>
<path d="M20.0114 9.26141C19.8214 9.26141 19.6314 9.19141 19.4814 9.04141L14.4714 4.03141C14.1814 3.74141 14.1814 3.26141 14.4714 2.97141C14.7614 2.68141 15.2414 2.68141 15.5314 2.97141L20.5414 7.98141C20.8314 8.27141 20.8314 8.75141 20.5414 9.04141C20.3914 9.19141 20.2014 9.26141 20.0114 9.26141Z" fill="#292D32"/>
<path d="M14.9883 21.25C14.5783 21.25 14.2383 20.91 14.2383 20.5V3.5C14.2383 3.09 14.5783 2.75 14.9883 2.75C15.3983 2.75 15.7383 3.09 15.7383 3.5V20.5C15.7383 20.91 15.4083 21.25 14.9883 21.25Z" fill="#292D32"/>
</svg>
