<svg width="24" height="24" viewBox="0 0 24 24" fill="none" xmlns="http://www.w3.org/2000/svg">
<path d="M12.005 22.7326C6.08732 22.7326 1.27734 17.9227 1.27734 12.005C1.27734 6.08732 6.08732 1.27734 12.005 1.27734C17.9227 1.27734 22.7326 6.08732 22.7326 12.005C22.7326 17.9227 17.9127 22.7326 12.005 22.7326ZM12.005 2.77423C6.9156 2.77423 2.77423 6.9156 2.77423 12.005C2.77423 17.0944 6.9156 21.2358 12.005 21.2358C17.0944 21.2358 21.2358 17.0944 21.2358 12.005C21.2358 6.9156 17.0944 2.77423 12.005 2.77423Z" fill="#292D32"/>
<path d="M14.2996 12.9547C14.1 12.9547 13.9104 12.8749 13.7707 12.7351L5.60767 4.55219C5.31828 4.26279 5.31828 3.78379 5.60767 3.49439C5.89707 3.20499 6.37607 3.20499 6.66547 3.49439L13.5611 10.4L13.5711 7.6657C13.5711 7.25655 13.9104 6.91726 14.3195 6.91726C14.7287 6.88732 15.068 7.25655 15.068 7.6657L15.058 12.2062C15.058 12.5056 14.8784 12.785 14.5989 12.8948C14.4991 12.9347 14.3994 12.9547 14.2996 12.9547Z" fill="#292D32"/>
<path d="M17.8611 20.7252C17.6715 20.7252 17.4819 20.6554 17.3322 20.5057L10.4365 13.6001L10.4266 16.3344C10.4266 16.7435 10.0873 17.0828 9.67813 17.0828C9.26898 17.0828 8.92969 16.7435 8.92969 16.3344L8.93967 11.7938C8.93967 11.4945 9.11929 11.215 9.39871 11.1053C9.67813 10.9855 9.99746 11.0554 10.217 11.2649L18.38 19.4479C18.6694 19.7373 18.6694 20.2163 18.38 20.5057C18.2503 20.6554 18.0507 20.7252 17.8611 20.7252Z" fill="#292D32"/>
</svg>
