<svg width="24" height="24" viewBox="0 0 24 24" fill="none" xmlns="http://www.w3.org/2000/svg">
<path d="M11.6811 15.3714C11.4911 15.3714 11.3011 15.3014 11.1511 15.1514C10.8611 14.8614 10.8611 14.3814 11.1511 14.0914L13.1811 12.0614L11.1511 10.0314C10.8611 9.74141 10.8611 9.26141 11.1511 8.97141C11.4411 8.68141 11.9211 8.68141 12.2111 8.97141L14.7711 11.5314C15.0611 11.8214 15.0611 12.3014 14.7711 12.5914L12.2111 15.1514C12.0711 15.3014 11.8711 15.3714 11.6811 15.3714Z" fill="#292D32"/>
<path d="M14.17 12.8086H4C3.59 12.8086 3.25 12.4686 3.25 12.0586C3.25 11.6486 3.59 11.3086 4 11.3086H14.17C14.58 11.3086 14.92 11.6486 14.92 12.0586C14.92 12.4686 14.58 12.8086 14.17 12.8086Z" fill="#292D32"/>
<path d="M12 20.75C11.59 20.75 11.25 20.41 11.25 20C11.25 19.59 11.59 19.25 12 19.25C16.27 19.25 19.25 16.27 19.25 12C19.25 7.73 16.27 4.75 12 4.75C11.59 4.75 11.25 4.41 11.25 4C11.25 3.59 11.59 3.25 12 3.25C17.15 3.25 20.75 6.85 20.75 12C20.75 17.15 17.15 20.75 12 20.75Z" fill="#292D32"/>
</svg>
