<svg width="24" height="24" viewBox="0 0 24 24" fill="none" xmlns="http://www.w3.org/2000/svg">
<path d="M15 22.75H9C3.57 22.75 1.25 20.43 1.25 15V9C1.25 3.57 3.57 1.25 9 1.25H15C20.43 1.25 22.75 3.57 22.75 9V15C22.75 20.43 20.43 22.75 15 22.75ZM9 2.75C4.39 2.75 2.75 4.39 2.75 9V15C2.75 19.61 4.39 21.25 9 21.25H15C19.61 21.25 21.25 19.61 21.25 15V9C21.25 4.39 19.61 2.75 15 2.75H9Z" fill="#292D32"/>
<path d="M12.0014 15.2592C11.8114 15.2592 11.6214 15.1892 11.4714 15.0392L8.47141 12.0392C8.18141 11.7492 8.18141 11.2692 8.47141 10.9792C8.76141 10.6892 9.2414 10.6892 9.5314 10.9792L12.0014 13.4492L14.4714 10.9792C14.7614 10.6892 15.2414 10.6892 15.5314 10.9792C15.8214 11.2692 15.8214 11.7492 15.5314 12.0392L12.5314 15.0392C12.3814 15.1892 12.1914 15.2592 12.0014 15.2592Z" fill="#292D32"/>
<path d="M12 15.2617C11.59 15.2617 11.25 14.9217 11.25 14.5117V6.51172C11.25 6.10172 11.59 5.76172 12 5.76172C12.41 5.76172 12.75 6.10172 12.75 6.51172V14.5117C12.75 14.9317 12.41 15.2617 12 15.2617Z" fill="#292D32"/>
<path d="M11.9985 18.2302C9.88848 18.2302 7.76848 17.8902 5.75848 17.2202C5.36848 17.0902 5.15848 16.6602 5.28848 16.2702C5.41848 15.8802 5.83848 15.6602 6.23848 15.8002C9.95848 17.0402 14.0485 17.0402 17.7685 15.8002C18.1585 15.6702 18.5885 15.8802 18.7185 16.2702C18.8485 16.6602 18.6385 17.0902 18.2485 17.2202C16.2285 17.9002 14.1085 18.2302 11.9985 18.2302Z" fill="#292D32"/>
</svg>
