<svg width="24" height="24" viewBox="0 0 24 24" fill="none" xmlns="http://www.w3.org/2000/svg">
<path d="M12 18.01C8.83 18.01 6.25 15.43 6.25 12.26C6.25 11.12 6.58 10.01 7.22 9.07C7.45 8.73 7.91999 8.63 8.25999 8.86C8.59999 9.09 8.7 9.56 8.47 9.9C8 10.6 7.75999 11.42 7.75999 12.26C7.75999 14.6 9.66999 16.51 12.01 16.51C14.35 16.51 16.26 14.6 16.26 12.26C16.26 9.92 14.35 8.01 12.01 8.01C11.51 8.01 11.03 8.08 10.56 8.22C10.17 8.34 9.75 8.12 9.62 7.72C9.5 7.32 9.72 6.9 10.12 6.78C10.73 6.59 11.36 6.5 12.01 6.5C15.18 6.5 17.76 9.08 17.76 12.25C17.76 15.42 15.17 18.01 12 18.01Z" fill="#292D32"/>
<path d="M9.61911 8.40036C9.44911 8.40036 9.26912 8.34036 9.12912 8.22036C8.81912 7.95036 8.78911 7.47036 9.05911 7.16036L10.7291 5.25035C10.9991 4.94035 11.4791 4.90036 11.7891 5.18036C12.0991 5.45036 12.1291 5.93035 11.8591 6.24035L10.1891 8.15036C10.0291 8.31036 9.82911 8.40036 9.61911 8.40036Z" fill="#292D32"/>
<path d="M11.5617 9.81907C11.4117 9.81907 11.2517 9.76907 11.1217 9.67907L9.18172 8.25907C8.85172 8.01907 8.77173 7.54906 9.02173 7.20906C9.26173 6.87906 9.73173 6.79907 10.0717 7.04907L12.0117 8.46907C12.3417 8.70907 12.4217 9.17906 12.1717 9.51906C12.0217 9.70906 11.7917 9.81907 11.5617 9.81907Z" fill="#292D32"/>
<path d="M15 22.75H9C3.57 22.75 1.25 20.43 1.25 15V9C1.25 3.57 3.57 1.25 9 1.25H15C20.43 1.25 22.75 3.57 22.75 9V15C22.75 20.43 20.43 22.75 15 22.75ZM9 2.75C4.39 2.75 2.75 4.39 2.75 9V15C2.75 19.61 4.39 21.25 9 21.25H15C19.61 21.25 21.25 19.61 21.25 15V9C21.25 4.39 19.61 2.75 15 2.75H9Z" fill="#292D32"/>
</svg>
