<svg width="24" height="24" viewBox="0 0 24 24" fill="none" xmlns="http://www.w3.org/2000/svg">
<path d="M15 22.75H9C3.57 22.75 1.25 20.43 1.25 15V9C1.25 3.57 3.57 1.25 9 1.25H15C20.43 1.25 22.75 3.57 22.75 9V15C22.75 20.43 20.43 22.75 15 22.75ZM9 2.75C4.39 2.75 2.75 4.39 2.75 9V15C2.75 19.61 4.39 21.25 9 21.25H15C19.61 21.25 21.25 19.61 21.25 15V9C21.25 4.39 19.61 2.75 15 2.75H9Z" fill="#292D32"/>
<path d="M12 18.0117C8.83 18.0117 6.25 15.4317 6.25 12.2617C6.25 9.09172 8.83 6.51172 12 6.51172C12.64 6.51172 13.28 6.60172 13.89 6.79172C14.29 6.91172 14.51 7.33172 14.39 7.73172C14.27 8.13172 13.85 8.35172 13.45 8.23172C12.99 8.09172 12.5 8.02171 12 8.02171C9.66 8.02171 7.75 9.93171 7.75 12.2717C7.75 14.6117 9.66 16.5217 12 16.5217C14.34 16.5217 16.25 14.6117 16.25 12.2717C16.25 11.4217 16 10.6117 15.54 9.91172C15.31 9.57172 15.4 9.10172 15.75 8.87172C16.09 8.64172 16.56 8.73172 16.79 9.08172C17.42 10.0317 17.76 11.1317 17.76 12.2717C17.75 15.4417 15.17 18.0117 12 18.0117Z" fill="#292D32"/>
<path d="M14.3811 8.39849C14.1711 8.39849 13.9611 8.30849 13.8111 8.13849L12.1411 6.2285C11.8711 5.9185 11.9012 5.43849 12.2112 5.16849C12.5212 4.89849 13.0011 4.92849 13.2711 5.23849L14.9411 7.14849C15.2111 7.45849 15.1811 7.93849 14.8711 8.20849C14.7311 8.33849 14.5611 8.39849 14.3811 8.39849Z" fill="#292D32"/>
<path d="M12.4399 9.82084C12.2099 9.82084 11.9799 9.71084 11.8299 9.51084C11.5899 9.18084 11.6599 8.71084 11.9899 8.46084L13.9299 7.04084C14.2599 6.80084 14.7299 6.87083 14.9799 7.20083C15.2199 7.53083 15.1499 8.00084 14.8199 8.25084L12.8799 9.67084C12.7499 9.77084 12.5899 9.82084 12.4399 9.82084Z" fill="#292D32"/>
</svg>
