<svg width="24" height="24" viewBox="0 0 24 24" fill="none" xmlns="http://www.w3.org/2000/svg">
<path d="M20.4182 12.2184C20.0082 12.2184 19.6682 11.8784 19.6682 11.4684V8.14844C19.6682 6.90844 18.6582 5.89844 17.4182 5.89844H3.57812C3.16813 5.89844 2.82812 5.55844 2.82812 5.14844C2.82812 4.73844 3.16813 4.39844 3.57812 4.39844H17.4182C19.4882 4.39844 21.1682 6.07844 21.1682 8.14844V11.4684C21.1682 11.8884 20.8282 12.2184 20.4182 12.2184Z" fill="#292D32"/>
<path d="M6.73813 9.07144C6.54813 9.07144 6.35813 9.00141 6.20813 8.85141L3.04813 5.69144C2.90813 5.55144 2.82812 5.36141 2.82812 5.16141C2.82812 4.96141 2.90813 4.77144 3.04813 4.63144L6.20813 1.47141C6.49813 1.18141 6.97813 1.18141 7.26813 1.47141C7.55813 1.76141 7.55813 2.24146 7.26813 2.53146L4.63815 5.16141L7.26813 7.79141C7.55813 8.08141 7.55813 8.56141 7.26813 8.85141C7.11813 8.99141 6.92813 9.07144 6.73813 9.07144Z" fill="#292D32"/>
<path d="M20.4182 19.5895H6.57812C4.50813 19.5895 2.82812 17.9095 2.82812 15.8395V12.5195C2.82812 12.1095 3.16813 11.7695 3.57812 11.7695C3.98812 11.7695 4.32812 12.1095 4.32812 12.5195V15.8395C4.32812 17.0795 5.33812 18.0895 6.57812 18.0895H20.4182C20.8282 18.0895 21.1682 18.4295 21.1682 18.8395C21.1682 19.2495 20.8282 19.5895 20.4182 19.5895Z" fill="#292D32"/>
<path d="M17.2592 22.7511C17.0692 22.7511 16.8792 22.6811 16.7292 22.5311C16.4392 22.2411 16.4392 21.761 16.7292 21.471L19.3592 18.8411L16.7292 16.2111C16.4392 15.9211 16.4392 15.4411 16.7292 15.1511C17.0192 14.8611 17.4992 14.8611 17.7892 15.1511L20.9492 18.3111C21.0892 18.4511 21.1692 18.6411 21.1692 18.8411C21.1692 19.0411 21.0892 19.2311 20.9492 19.3711L17.7892 22.5311C17.6492 22.6811 17.4592 22.7511 17.2592 22.7511Z" fill="#292D32"/>
</svg>
