<svg width="24" height="24" viewBox="0 0 24 24" fill="none" xmlns="http://www.w3.org/2000/svg">
<path d="M11.9981 22.7506C6.79813 22.7506 2.57812 18.5206 2.57812 13.3306C2.57812 11.4606 3.12813 9.65062 4.16813 8.09062C4.39813 7.75062 4.86813 7.65062 5.20813 7.88063C5.54813 8.11062 5.64813 8.58062 5.41813 8.92062C4.54813 10.2206 4.08813 11.7506 4.08813 13.3206C4.08813 17.6906 7.63813 21.2406 12.0081 21.2406C16.3781 21.2406 19.9281 17.6906 19.9281 13.3206C19.9281 8.95062 16.3681 5.40062 11.9981 5.40062C11.0781 5.40062 10.1781 5.53062 9.32812 5.79062C8.92812 5.91062 8.50813 5.69062 8.38813 5.29062C8.26813 4.89062 8.48813 4.47062 8.88813 4.35062C9.88813 4.05062 10.9281 3.89062 11.9981 3.89062C17.1981 3.89062 21.4181 8.12063 21.4181 13.3106C21.4181 18.5006 17.1981 22.7506 11.9981 22.7506Z" fill="#292D32"/>
<path d="M7.87036 6.06817C7.70036 6.06817 7.52036 6.00817 7.38036 5.88817C7.06036 5.60817 7.03036 5.13817 7.30036 4.82817L10.1904 1.50817C10.4604 1.19817 10.9404 1.15817 11.2504 1.43817C11.5604 1.70817 11.5904 2.18817 11.3204 2.49817L8.43036 5.80817C8.28036 5.97817 8.07036 6.06817 7.87036 6.06817Z" fill="#292D32"/>
<path d="M11.2396 8.52817C11.0896 8.52817 10.9296 8.47817 10.7996 8.38817L7.41959 5.91817C7.08959 5.67817 7.01959 5.20817 7.25959 4.87817C7.49959 4.53817 7.96959 4.46817 8.30959 4.70817L11.6796 7.16817C12.0096 7.40817 12.0896 7.87817 11.8396 8.21817C11.6996 8.42817 11.4696 8.52817 11.2396 8.52817Z" fill="#292D32"/>
</svg>
