<svg width="24" height="24" viewBox="0 0 24 24" fill="none" xmlns="http://www.w3.org/2000/svg">
<path d="M14 6.75H10C9.04 6.75 7.25 6.75 7.25 4C7.25 1.25 9.04 1.25 10 1.25H14C14.96 1.25 16.75 1.25 16.75 4C16.75 4.96 16.75 6.75 14 6.75ZM10 2.75C9.01 2.75 8.75 2.75 8.75 4C8.75 5.25 9.01 5.25 10 5.25H14C15.25 5.25 15.25 4.99 15.25 4C15.25 2.75 14.99 2.75 14 2.75H10Z" fill="#292D32"/>
<path d="M14 22.7483H9C3.38 22.7483 2.25 20.1683 2.25 15.9983V9.99826C2.25 5.43826 3.9 3.48826 7.96 3.27826C8.36 3.25826 8.73 3.56826 8.75 3.98826C8.77 4.40826 8.45 4.74826 8.04 4.76826C5.2 4.92826 3.75 5.77826 3.75 9.99826V15.9983C3.75 19.6983 4.48 21.2483 9 21.2483H14C14.41 21.2483 14.75 21.5883 14.75 21.9983C14.75 22.4083 14.41 22.7483 14 22.7483Z" fill="#292D32"/>
<path d="M21.0009 15.7504C20.5909 15.7504 20.2509 15.4104 20.2509 15.0004V10.0004C20.2509 5.78042 18.8009 4.93042 15.9609 4.77042C15.5509 4.75042 15.2309 4.39042 15.2509 3.98042C15.2709 3.57042 15.6409 3.25042 16.0409 3.27042C20.1009 3.49042 21.7509 5.44042 21.7509 9.99042V14.9904C21.7509 15.4104 21.4109 15.7504 21.0009 15.7504Z" fill="#292D32"/>
<path d="M21 22.75H18C17.59 22.75 17.25 22.41 17.25 22C17.25 21.59 17.59 21.25 18 21.25H20.25V19C20.25 18.59 20.59 18.25 21 18.25C21.41 18.25 21.75 18.59 21.75 19V22C21.75 22.41 21.41 22.75 21 22.75Z" fill="#292D32"/>
<path d="M20.9595 22.7114C20.7695 22.7114 20.5795 22.6414 20.4295 22.4914L14.4695 16.5314C14.1795 16.2414 14.1795 15.7614 14.4695 15.4714C14.7595 15.1814 15.2395 15.1814 15.5295 15.4714L21.4895 21.4314C21.7795 21.7214 21.7795 22.2014 21.4895 22.4914C21.3395 22.6314 21.1495 22.7114 20.9595 22.7114Z" fill="#292D32"/>
</svg>
