<svg width="24" height="24" viewBox="0 0 24 24" fill="none" xmlns="http://www.w3.org/2000/svg">
<path d="M15 22.75H9C3.57 22.75 1.25 20.43 1.25 15V9C1.25 3.57 3.57 1.25 9 1.25H14C14.41 1.25 14.75 1.59 14.75 2C14.75 2.41 14.41 2.75 14 2.75H9C4.39 2.75 2.75 4.39 2.75 9V15C2.75 19.61 4.39 21.25 9 21.25H15C19.61 21.25 21.25 19.61 21.25 15V10C21.25 9.59 21.59 9.25 22 9.25C22.41 9.25 22.75 9.59 22.75 10V15C22.75 20.43 20.43 22.75 15 22.75Z" fill="#292D32"/>
<path d="M22 10.7485H18C14.58 10.7485 13.25 9.41852 13.25 5.99852V1.99852C13.25 1.69852 13.43 1.41852 13.71 1.30852C13.99 1.18852 14.31 1.25852 14.53 1.46852L22.53 9.46852C22.74 9.67852 22.81 10.0085 22.69 10.2885C22.58 10.5685 22.3 10.7485 22 10.7485ZM14.75 3.80852V5.99852C14.75 8.57852 15.42 9.24852 18 9.24852H20.19L14.75 3.80852Z" fill="#292D32"/>
<path d="M9.65064 18.7083C9.21064 18.7083 8.79064 18.5383 8.48064 18.2283L6.02064 15.7683C5.48064 15.2283 5.39064 14.3183 5.81064 13.6783L6.94064 11.9783C7.22064 11.5483 7.80064 11.2383 8.32064 11.2383H10.9706C11.4806 11.2383 12.0606 11.5483 12.3506 11.9783L13.4806 13.6683C13.9006 14.2983 13.8106 15.2183 13.2706 15.7583L10.8106 18.2183C10.5106 18.5383 10.0906 18.7083 9.65064 18.7083ZM8.33064 12.7483C8.29064 12.7583 8.21064 12.7983 8.19064 12.8283L7.07064 14.5183C7.04064 14.5583 7.05064 14.6783 7.09064 14.7183L9.55064 17.1783C9.60064 17.2283 9.72064 17.2283 9.77064 17.1783L12.2306 14.7183C12.2706 14.6783 12.2806 14.5683 12.2506 14.5183L11.1206 12.8283C11.1006 12.8083 11.0206 12.7683 10.9806 12.7583L8.33064 12.7483Z" fill="#292D32"/>
</svg>
