<svg width="24" height="24" viewBox="0 0 24 24" fill="none" xmlns="http://www.w3.org/2000/svg">
<path d="M12 14.75H7C6.59 14.75 6.25 14.41 6.25 14C6.25 13.59 6.59 13.25 7 13.25H12C12.41 13.25 12.75 13.59 12.75 14C12.75 14.41 12.41 14.75 12 14.75Z" fill="#292D32"/>
<path d="M6.99945 6.70844C6.80945 6.70844 6.61945 6.63844 6.46945 6.48844L2.71945 2.73844C2.42945 2.44844 2.42945 1.96844 2.71945 1.67844C3.00945 1.38844 3.48945 1.38844 3.77945 1.67844L7.52945 5.42844C7.81945 5.71844 7.81945 6.19844 7.52945 6.48844C7.37945 6.62844 7.18945 6.70844 6.99945 6.70844Z" fill="#292D32"/>
<path d="M3.21039 6.75141C3.02039 6.75141 2.83039 6.68141 2.68039 6.53141C2.39039 6.24141 2.39039 5.76141 2.68039 5.47141L6.43039 1.72141C6.72039 1.43141 7.20039 1.43141 7.49039 1.72141C7.78039 2.01141 7.78039 2.49141 7.49039 2.78141L3.74039 6.53141C3.60039 6.68141 3.40039 6.75141 3.21039 6.75141Z" fill="#292D32"/>
<path d="M15 10.75H7C6.59 10.75 6.25 10.41 6.25 10C6.25 9.59 6.59 9.25 7 9.25H15C15.41 9.25 15.75 9.59 15.75 10C15.75 10.41 15.41 10.75 15 10.75Z" fill="#292D32"/>
<path d="M21 16.75C20.59 16.75 20.25 16.41 20.25 16V7.99C20.25 3.76 18.81 2.9 15.96 2.75H10C9.59 2.75 9.25 2.41 9.25 2C9.25 1.59 9.59 1.25 10 1.25H16C20.1 1.47 21.75 3.42 21.75 7.99V16C21.75 16.41 21.41 16.75 21 16.75Z" fill="#292D32"/>
<path d="M15 22.7517H9C3.38 22.7517 2.25 20.1617 2.25 15.9817V9.01172C2.25 8.60172 2.59 8.26172 3 8.26172C3.41 8.26172 3.75 8.60172 3.75 9.01172V15.9817C3.75 19.7017 4.48 21.2517 9 21.2517H15C15.41 21.2517 15.75 21.5917 15.75 22.0017C15.75 22.4117 15.41 22.7517 15 22.7517Z" fill="#292D32"/>
<path d="M15 22.75C14.9 22.75 14.81 22.73 14.71 22.69C14.43 22.57 14.25 22.3 14.25 22V19C14.25 16.58 15.58 15.25 18 15.25H21C21.3 15.25 21.58 15.43 21.69 15.71C21.8 15.99 21.74 16.31 21.53 16.53L15.53 22.53C15.39 22.67 15.19 22.75 15 22.75ZM18 16.75C16.42 16.75 15.75 17.42 15.75 19V20.19L19.19 16.75H18Z" fill="#292D32"/>
</svg>
