<svg width="24" height="24" viewBox="0 0 24 24" fill="none" xmlns="http://www.w3.org/2000/svg">
<path opacity="0.4" d="M16.1894 8.85844C15.7994 8.85844 15.4894 8.54844 15.4894 8.15844V6.87844C15.4894 5.89844 15.0694 4.95844 14.3494 4.29844C13.6094 3.62844 12.6594 3.31844 11.6594 3.40844C9.97937 3.56844 8.50938 5.27844 8.50938 7.05844V7.95844C8.50938 8.34844 8.19937 8.65844 7.80937 8.65844C7.41937 8.65844 7.10938 8.34844 7.10938 7.95844V7.05844C7.10938 4.55844 9.12938 2.24844 11.5194 2.01844C12.9094 1.88844 14.2494 2.32844 15.2794 3.26844C16.2994 4.18844 16.8794 5.50844 16.8794 6.87844V8.15844C16.8794 8.54844 16.5694 8.85844 16.1894 8.85844Z" fill="#292D32"/>
<path d="M19.9597 8.95813C19.1197 8.02813 17.7397 7.57812 15.7197 7.57812H8.27975C6.25975 7.57812 4.87975 8.02813 4.03975 8.95813C3.06975 10.0381 3.09975 11.4781 3.20975 12.4781L3.90975 18.0481C4.11975 19.9981 4.90975 21.9981 9.20975 21.9981H14.7897C19.0897 21.9981 19.8797 19.9981 20.0897 18.0581L20.7897 12.4681C20.8997 11.4781 20.9297 10.0381 19.9597 8.95813ZM11.9997 18.5781C9.90975 18.5781 8.20975 16.8781 8.20975 14.7881C8.20975 12.6981 9.90975 10.9981 11.9997 10.9981C14.0897 10.9981 15.7897 12.6981 15.7897 14.7881C15.7897 16.8781 14.0897 18.5781 11.9997 18.5781Z" fill="#292D32"/>
<path opacity="0.4" d="M12.0009 18.58C14.0941 18.58 15.7909 16.8832 15.7909 14.79C15.7909 12.6968 14.0941 11 12.0009 11C9.90778 11 8.21094 12.6968 8.21094 14.79C8.21094 16.8832 9.90778 18.58 12.0009 18.58Z" fill="#292D32"/>
<path d="M11.4309 16.64C11.2409 16.64 11.0509 16.57 10.9009 16.42L9.91086 15.43C9.62086 15.14 9.62086 14.66 9.91086 14.37C10.2009 14.08 10.6809 14.08 10.9709 14.37L11.4509 14.85L13.0509 13.37C13.3509 13.09 13.8309 13.11 14.1109 13.41C14.3909 13.71 14.3709 14.19 14.0709 14.47L11.9409 16.44C11.7909 16.57 11.6109 16.64 11.4309 16.64Z" fill="#292D32"/>
</svg>
