<svg width="24" height="24" viewBox="0 0 24 24" fill="none" xmlns="http://www.w3.org/2000/svg">
<path opacity="0.4" d="M16.1894 8.85844C15.7994 8.85844 15.4894 8.54844 15.4894 8.15844V6.87844C15.4894 5.89844 15.0694 4.95844 14.3494 4.29844C13.6094 3.62844 12.6594 3.31844 11.6594 3.40844C9.97937 3.56844 8.50938 5.27844 8.50938 7.05844V7.95844C8.50938 8.34844 8.19937 8.65844 7.80937 8.65844C7.41937 8.65844 7.10938 8.34844 7.10938 7.95844V7.05844C7.10938 4.55844 9.12938 2.24844 11.5194 2.01844C12.9094 1.88844 14.2494 2.32844 15.2794 3.26844C16.2994 4.18844 16.8794 5.50844 16.8794 6.87844V8.15844C16.8794 8.54844 16.5694 8.85844 16.1894 8.85844Z" fill="#292D32"/>
<path d="M19.9597 8.95813C19.1197 8.02813 17.7397 7.57812 15.7197 7.57812H8.27975C6.25975 7.57812 4.87975 8.02813 4.03975 8.95813C3.06975 10.0381 3.09975 11.4781 3.20975 12.4781L3.90975 18.0481C4.11975 19.9981 4.90975 21.9981 9.20975 21.9981H14.7897C19.0897 21.9981 19.8797 19.9981 20.0897 18.0581L20.7897 12.4681C20.8997 11.4781 20.9297 10.0381 19.9597 8.95813ZM11.9997 18.5781C9.90975 18.5781 8.20975 16.8781 8.20975 14.7881C8.20975 12.6981 9.90975 10.9981 11.9997 10.9981C14.0897 10.9981 15.7897 12.6981 15.7897 14.7881C15.7897 16.8781 14.0897 18.5781 11.9997 18.5781Z" fill="#292D32"/>
<path opacity="0.4" d="M15.7909 14.79C15.7909 16.88 14.0909 18.58 12.0009 18.58C9.91094 18.58 8.21094 16.88 8.21094 14.79C8.21094 12.7 9.91094 11 12.0009 11C14.0909 11 15.7909 12.7 15.7909 14.79Z" fill="#292D32"/>
<path d="M10.9999 16.5781C10.7499 16.5781 10.4999 16.4481 10.3599 16.2181C10.1499 15.8681 10.2599 15.3981 10.6199 15.1881L11.5099 14.6581V13.5781C11.5099 13.1681 11.8499 12.8281 12.2599 12.8281C12.6699 12.8281 12.9999 13.1581 12.9999 13.5781V15.0781C12.9999 15.3381 12.8599 15.5881 12.6399 15.7181L11.3899 16.4681C11.2699 16.5381 11.1299 16.5781 10.9999 16.5781Z" fill="#292D32"/>
</svg>
