<svg id="figma-1" xmlns="http://www.w3.org/2000/svg" width="57.481" height="86.222" viewBox="0 0 57.481 86.222">
  <path id="Trazado_42" data-name="Trazado 42" d="M14.37,228.741a14.376,14.376,0,0,0,14.37-14.37V200H14.37a14.37,14.37,0,1,0,0,28.741Z" transform="translate(0 -142.519)" fill="#0acf83"/>
  <path id="Trazado_43" data-name="Trazado 43" d="M0,114.37A14.376,14.376,0,0,1,14.37,100h14.37v28.741H14.37A14.376,14.376,0,0,1,0,114.37Z" transform="translate(0 -71.259)" fill="#a259ff"/>
  <path id="Trazado_45" data-name="Trazado 45" d="M100,0h14.575A14.479,14.479,0,0,1,129.15,14.37a14.479,14.479,0,0,1-14.575,14.37H100Z" transform="translate(-71.668)" fill="#ff7262"/>
  <path id="Trazado_46" data-name="Trazado 46" d="M128.741,114.37A14.37,14.37,0,1,1,114.37,100,14.376,14.376,0,0,1,128.741,114.37Z" transform="translate(-71.259 -71.259)" fill="#1abcfe"/>
  <path id="Trazado_44" data-name="Trazado 44" d="M0,14.37A14.376,14.376,0,0,1,14.37,0h14.37V28.741H14.37A14.376,14.376,0,0,1,0,14.37Z" fill="#f24e1e"/>
</svg>
