<svg width="24" height="24" viewBox="0 0 24 24" fill="none" xmlns="http://www.w3.org/2000/svg">
<path opacity="0.4" d="M16.19 2H7.81C4.17 2 2 4.17 2 7.81V16.18C2 19.83 4.17 22 7.81 22H16.18C19.82 22 21.99 19.83 21.99 16.19V7.81C22 4.17 19.83 2 16.19 2Z" fill="#292D32"/>
<path d="M18 11.25H12.75V6C12.75 5.59 12.41 5.25 12 5.25C11.59 5.25 11.25 5.59 11.25 6V11.25H6C5.59 11.25 5.25 11.59 5.25 12C5.25 12.41 5.59 12.75 6 12.75H11.25V18C11.25 18.41 11.59 18.75 12 18.75C12.41 18.75 12.75 18.41 12.75 18V12.75H18C18.41 12.75 18.75 12.41 18.75 12C18.75 11.59 18.41 11.25 18 11.25Z" fill="#292D32"/>
</svg>
