<svg width="24" height="24" viewBox="0 0 24 24" fill="none" xmlns="http://www.w3.org/2000/svg">
<path d="M11.9995 13.7397C11.2195 13.7397 10.4795 13.4398 9.90946 12.8798C9.17946 12.1498 8.88946 11.0998 9.12946 10.0698C9.37946 9.01976 10.2195 8.17975 11.2695 7.92975C12.2895 7.67975 13.3395 7.96978 14.0795 8.70978C14.8195 9.44978 15.0995 10.4898 14.8595 11.5198C14.6095 12.5698 13.7695 13.4097 12.7195 13.6597C12.4795 13.7097 12.2395 13.7397 11.9995 13.7397ZM11.9995 9.33978C11.8795 9.33978 11.7495 9.35977 11.6295 9.38977C11.1295 9.50977 10.7195 9.91974 10.5995 10.4197C10.4695 10.9397 10.6095 11.4498 10.9795 11.8098C11.3495 12.1798 11.8495 12.3098 12.3795 12.1898C12.8795 12.0698 13.2895 11.6597 13.4095 11.1597C13.5395 10.6397 13.3995 10.1298 13.0295 9.76978C12.7495 9.48978 12.3895 9.33978 11.9995 9.33978Z" fill="#292D32"/>
<path d="M6.01996 17.97C5.83996 17.97 5.64995 17.9 5.50995 17.77C3.56995 15.97 2.45996 13.43 2.45996 10.79C2.45996 5.52998 6.73995 1.25 12 1.25C17.26 1.25 21.5399 5.52998 21.5399 10.79C21.5399 13.45 20.47 15.91 18.53 17.74C18.23 18.02 17.75 18.01 17.47 17.71C17.19 17.41 17.2 16.93 17.5 16.65C19.14 15.11 20.0399 13.04 20.0399 10.8C20.0399 6.36999 16.43 2.76001 12 2.76001C7.56995 2.76001 3.95996 6.36999 3.95996 10.8C3.95996 13.06 4.86995 15.14 6.52995 16.68C6.82995 16.96 6.84996 17.44 6.56996 17.74C6.41996 17.89 6.21996 17.97 6.01996 17.97Z" fill="#292D32"/>
<path d="M15.9995 15.3C15.8195 15.3 15.6295 15.23 15.4895 15.1C15.1895 14.82 15.1695 14.34 15.4595 14.04C16.2895 13.16 16.7495 12 16.7495 10.8C16.7495 8.18005 14.6195 6.06006 12.0095 6.06006C9.39952 6.06006 7.26953 8.19005 7.26953 10.8C7.26953 12.01 7.72952 13.16 8.55952 14.04C8.83952 14.34 8.82953 14.82 8.52953 15.1C8.22953 15.38 7.74953 15.3701 7.46953 15.0701C6.37953 13.9101 5.76953 12.39 5.76953 10.8C5.76953 7.36005 8.56952 4.56006 12.0095 4.56006C15.4495 4.56006 18.2495 7.36005 18.2495 10.8C18.2495 12.39 17.6495 13.9101 16.5495 15.0701C16.3995 15.2201 16.1995 15.3 15.9995 15.3Z" fill="#292D32"/>
<path d="M13.4397 22.7501H10.5697C9.42969 22.7501 8.41968 22.1101 7.92968 21.0901C7.43968 20.0701 7.56968 18.8801 8.27968 17.9901L9.71969 16.2001C10.2797 15.5001 11.1097 15.1001 12.0097 15.1001C12.9097 15.1001 13.7397 15.5001 14.2997 16.2001L15.7397 17.9901C16.4497 18.8801 16.5897 20.0701 16.0897 21.0901C15.5797 22.1101 14.5697 22.7501 13.4397 22.7501ZM10.8797 17.1301L9.43969 18.9201C9.08969 19.3601 9.01969 19.9301 9.26969 20.4301C9.50969 20.9401 9.99968 21.2401 10.5597 21.2401H13.4297C13.9897 21.2401 14.4797 20.9401 14.7197 20.4301C14.9597 19.9201 14.8997 19.3601 14.5497 18.9201L13.1097 17.1301C12.5697 16.4501 11.4297 16.4501 10.8797 17.1301Z" fill="#292D32"/>
</svg>
