<svg width="24" height="24" viewBox="0 0 24 24" fill="none" xmlns="http://www.w3.org/2000/svg">
<path d="M14.1108 17.6097C13.9208 17.6097 13.7308 17.5398 13.5808 17.3898C13.2908 17.0998 13.2908 16.6197 13.5808 16.3297L16.6208 13.2898C16.9108 12.9998 17.3908 12.9998 17.6808 13.2898C17.9708 13.5798 17.9708 14.0598 17.6808 14.3498L14.6408 17.3898C14.5008 17.5298 14.3108 17.6097 14.1108 17.6097Z" fill="#292D32"/>
<path d="M17.1498 14.5698H6.83984C6.42984 14.5698 6.08984 14.2298 6.08984 13.8198C6.08984 13.4098 6.42984 13.0698 6.83984 13.0698H17.1498C17.5598 13.0698 17.8998 13.4098 17.8998 13.8198C17.8998 14.2298 17.5698 14.5698 17.1498 14.5698Z" fill="#292D32"/>
<path d="M6.84906 10.9301C6.65906 10.9301 6.46906 10.8601 6.31906 10.7101C6.02906 10.4201 6.02906 9.94009 6.31906 9.65009L9.35904 6.61008C9.64904 6.32008 10.1291 6.32008 10.4191 6.61008C10.7091 6.90008 10.7091 7.38011 10.4191 7.67011L7.37906 10.7101C7.22906 10.8601 7.03906 10.9301 6.84906 10.9301Z" fill="#292D32"/>
<path d="M17.1498 10.9297H6.83984C6.42984 10.9297 6.08984 10.5897 6.08984 10.1797C6.08984 9.76969 6.42984 9.42969 6.83984 9.42969H17.1498C17.5598 9.42969 17.8998 9.76969 17.8998 10.1797C17.8998 10.5897 17.5698 10.9297 17.1498 10.9297Z" fill="#292D32"/>
<path d="M12 22.75C6.07 22.75 1.25 17.93 1.25 12C1.25 6.07 6.07 1.25 12 1.25C17.93 1.25 22.75 6.07 22.75 12C22.75 17.93 17.93 22.75 12 22.75ZM12 2.75C6.9 2.75 2.75 6.9 2.75 12C2.75 17.1 6.9 21.25 12 21.25C17.1 21.25 21.25 17.1 21.25 12C21.25 6.9 17.1 2.75 12 2.75Z" fill="#292D32"/>
</svg>
