<svg width="24" height="24" viewBox="0 0 24 24" fill="none" xmlns="http://www.w3.org/2000/svg">
<path d="M10.0195 4.46997L11.9995 2" stroke="#292D32" stroke-width="1.5" stroke-linecap="round" stroke-linejoin="round"/>
<path d="M3.99023 16.9598C5.42023 19.9398 8.47024 21.9998 12.0002 21.9998C16.9102 21.9998 20.8903 18.0197 20.8903 13.1097C20.8903 8.19974 16.9102 4.21973 12.0002 4.21973C11.3202 4.21973 10.6602 4.30978 10.0202 4.45978" stroke="#292D32" stroke-width="1.5" stroke-linecap="round" stroke-linejoin="round"/>
<path d="M4.90939 7.7998C3.79939 9.2798 3.10938 11.1098 3.10938 13.1098" stroke="#292D32" stroke-width="1.5" stroke-linecap="round" stroke-linejoin="round"/>
<path d="M9.53906 15.92V10.5801L8.03906 12.2501" stroke="#292D32" stroke-width="1.5" stroke-linecap="round" stroke-linejoin="round"/>
<path d="M14 10.5801C15.1 10.5801 16 11.4801 16 12.5801V13.9301C16 15.0301 15.1 15.9301 14 15.9301C12.9 15.9301 12 15.0301 12 13.9301V12.5801C12 11.4701 12.9 10.5801 14 10.5801Z" stroke="#292D32" stroke-width="1.5" stroke-linecap="round" stroke-linejoin="round"/>
</svg>
