<svg width="24" height="24" viewBox="0 0 24 24" fill="none" xmlns="http://www.w3.org/2000/svg">
<path opacity="0.4" d="M20.5 7V15H6.35C4.78 15 3.5 16.28 3.5 17.85V7C3.5 3 4.5 2 8.5 2H15.5C19.5 2 20.5 3 20.5 7Z" fill="#292D32"/>
<path d="M20.5 15V18.5C20.5 20.43 18.93 22 17 22H7C5.07 22 3.5 20.43 3.5 18.5V17.85C3.5 16.28 4.78 15 6.35 15H20.5Z" fill="#292D32"/>
<path d="M16 7.75H8C7.59 7.75 7.25 7.41 7.25 7C7.25 6.59 7.59 6.25 8 6.25H16C16.41 6.25 16.75 6.59 16.75 7C16.75 7.41 16.41 7.75 16 7.75Z" fill="#292D32"/>
<path d="M13 11.25H8C7.59 11.25 7.25 10.91 7.25 10.5C7.25 10.09 7.59 9.75 8 9.75H13C13.41 9.75 13.75 10.09 13.75 10.5C13.75 10.91 13.41 11.25 13 11.25Z" fill="#292D32"/>
</svg>
