<svg width="24" height="24" viewBox="0 0 24 24" fill="none" xmlns="http://www.w3.org/2000/svg">
<path d="M20 8C20 6 20 5 17 5H16" stroke="#292D32" stroke-width="1.5" stroke-linecap="round" stroke-linejoin="round"/>
<path d="M10 15.9999C10 14.3399 10 12.9999 13 12.9999H17C19.03 12.9999 19.68 12.5399 19.9 11.6299" stroke="#292D32" stroke-width="1.5" stroke-linecap="round" stroke-linejoin="round"/>
<path d="M11.9992 2H7.99922C7.34922 3.95 7.34922 6.05 7.99922 8H11.9992C12.6492 6.05 12.6492 3.95 11.9992 2Z" stroke="#292D32" stroke-width="1.5" stroke-linecap="round" stroke-linejoin="round"/>
<path d="M8 2H7C5 2 4 3 4 5C4 7 5 8 7 8H8C7 6 7 4 8 2Z" stroke="#292D32" stroke-width="1.5" stroke-linecap="round" stroke-linejoin="round"/>
<path d="M13 2H12C13 4 13 6 12 8H13C15 8 16 7 16 5C16 3 15 2 13 2Z" stroke="#292D32" stroke-width="1.5" stroke-linecap="round" stroke-linejoin="round"/>
<path d="M9.5 22H10.5C12 22 12 21 12 20.5V17.5C12 17 12 16 10.5 16H9.5C8 16 8 17 8 17.5V20.5C8 21 8 22 9.5 22Z" stroke="#292D32" stroke-width="1.5" stroke-linecap="round" stroke-linejoin="round"/>
</svg>
