<svg width="24" height="24" viewBox="0 0 24 24" fill="none" xmlns="http://www.w3.org/2000/svg">
<path d="M12.9698 18.3599C12.7798 18.3599 12.5898 18.2899 12.4398 18.1399L10.3298 16.0299C10.0398 15.7399 10.0398 15.2599 10.3298 14.9699C10.6198 14.6799 11.0998 14.6799 11.3898 14.9699L13.4998 17.0799C13.7898 17.3699 13.7898 17.8499 13.4998 18.1399C13.3598 18.2899 13.1598 18.3599 12.9698 18.3599Z" fill="#292D32"/>
<path d="M10.8295 18.3897C10.6395 18.3897 10.4495 18.3197 10.2995 18.1697C10.0095 17.8797 10.0095 17.3997 10.2995 17.1097L12.4095 14.9997C12.6995 14.7097 13.1795 14.7097 13.4695 14.9997C13.7595 15.2897 13.7595 15.7697 13.4695 16.0597L11.3595 18.1697C11.2195 18.3097 11.0295 18.3897 10.8295 18.3897Z" fill="#292D32"/>
<path d="M7.4593 19.3401H5.5393C2.5993 19.1301 1.2793 16.8701 1.2793 14.8501C1.2793 12.8301 2.5993 10.5701 5.4893 10.3701C5.8893 10.3301 6.2593 10.6501 6.2893 11.0701C6.3193 11.4901 6.0093 11.8401 5.5893 11.8701C3.6493 12.0101 2.7793 13.4701 2.7793 14.8601C2.7793 16.2501 3.6493 17.7101 5.5893 17.8501H7.4593C7.8693 17.8501 8.2093 18.1901 8.2093 18.6001C8.2093 19.0101 7.8693 19.3401 7.4593 19.3401Z" fill="#292D32"/>
<path d="M16.6699 19.34C16.6499 19.34 16.6399 19.34 16.6199 19.34C16.2099 19.34 15.8299 19 15.8299 18.59C15.8299 18.16 16.1599 17.84 16.5699 17.84C17.8099 17.84 18.8999 17.41 19.7599 16.64C21.3199 15.28 21.4199 13.32 20.9999 11.94C20.5799 10.57 19.4099 9 17.3699 8.75C17.0399 8.71 16.7799 8.46001 16.7199 8.13001C16.3199 5.73001 15.0299 4.07 13.0699 3.47C11.0399 2.84 8.68992 3.46 7.21992 5C5.78992 6.49 5.45992 8.58001 6.28992 10.88C6.42992 11.27 6.22992 11.7 5.83992 11.84C5.44992 11.98 5.01992 11.78 4.87992 11.39C3.86992 8.57 4.32992 5.87 6.13992 3.97C7.98992 2.03 10.9599 1.26 13.5099 2.04C15.8499 2.76 17.4999 4.69 18.0999 7.37C20.1499 7.83 21.7799 9.38001 22.4299 11.52C23.1399 13.85 22.4999 16.25 20.7599 17.77C19.6399 18.77 18.1899 19.34 16.6699 19.34Z" fill="#292D32"/>
<path d="M12 22.2803C9.99 22.2803 8.11 21.2103 7.08 19.4803C6.97 19.3103 6.86 19.1003 6.77 18.8903C6.43 18.1803 6.25 17.3803 6.25 16.5303C6.25 13.3603 8.83 10.7803 12 10.7803C15.17 10.7803 17.75 13.3603 17.75 16.5303C17.75 17.3803 17.57 18.1803 17.22 18.9203C17.14 19.1103 17.03 19.3103 16.91 19.5003C15.89 21.2103 14.01 22.2803 12 22.2803ZM12 12.2803C9.66 12.2803 7.75 14.1903 7.75 16.5303C7.75 17.1503 7.88 17.7403 8.13 18.2603C8.21 18.4303 8.28 18.5703 8.36 18.7003C9.12 19.9903 10.51 20.7803 11.99 20.7803C13.47 20.7803 14.86 19.9903 15.61 18.7203C15.7 18.5703 15.77 18.4403 15.84 18.2903C16.11 17.7403 16.24 17.1603 16.24 16.5303C16.25 14.1903 14.34 12.2803 12 12.2803Z" fill="#292D32"/>
</svg>
