<svg width="24" height="24" viewBox="0 0 24 24" fill="none" xmlns="http://www.w3.org/2000/svg">
<path d="M13.58 22.7498H6.21C3.47 22.7498 1.25 20.5198 1.25 17.7898V10.4698C1.25 7.72977 3.48 5.50977 6.21 5.50977H13.58C16.32 5.50977 18.54 7.73977 18.54 10.4698V17.7898C18.54 20.5198 16.31 22.7498 13.58 22.7498ZM6.21 7.00977C4.3 7.00977 2.75 8.55977 2.75 10.4698V17.7898C2.75 19.6998 4.3 21.2498 6.21 21.2498H13.58C15.49 21.2498 17.04 19.6998 17.04 17.7898V10.4698C17.04 8.55977 15.49 7.00977 13.58 7.00977H6.21Z" fill="#292D32"/>
<path d="M5.5 4.75C5.09 4.75 4.75 4.41 4.75 4V2.25C4.75 1.84 5.09 1.5 5.5 1.5C5.91 1.5 6.25 1.84 6.25 2.25V4C6.25 4.41 5.91 4.75 5.5 4.75Z" fill="#292D32"/>
<path d="M9.5 4.75C9.09 4.75 8.75 4.41 8.75 4V2.25C8.75 1.84 9.09 1.5 9.5 1.5C9.91 1.5 10.25 1.84 10.25 2.25V4C10.25 4.41 9.91 4.75 9.5 4.75Z" fill="#292D32"/>
<path d="M13.5 4.75C13.09 4.75 12.75 4.41 12.75 4V2.25C12.75 1.84 13.09 1.5 13.5 1.5C13.91 1.5 14.25 1.84 14.25 2.25V4C14.25 4.41 13.91 4.75 13.5 4.75Z" fill="#292D32"/>
<path d="M17.7891 18.1202C17.3791 18.1202 17.0391 17.7802 17.0391 17.3702V8.9502C17.0391 8.5402 17.3791 8.2002 17.7891 8.2002C20.5291 8.2002 22.7491 10.4302 22.7491 13.1602C22.7491 15.8902 20.5191 18.1202 17.7891 18.1202ZM18.5391 9.7802V16.5402C20.0891 16.2002 21.2491 14.8102 21.2491 13.1602C21.2491 11.5102 20.0891 10.1202 18.5391 9.7802Z" fill="#292D32"/>
<path d="M17.51 12.75H2C1.59 12.75 1.25 12.41 1.25 12C1.25 11.59 1.59 11.25 2 11.25H17.51C17.92 11.25 18.26 11.59 18.26 12C18.26 12.41 17.92 12.75 17.51 12.75Z" fill="#292D32"/>
</svg>
