<svg width="24" height="24" viewBox="0 0 24 24" fill="none" xmlns="http://www.w3.org/2000/svg">
<path d="M10.84 13.5402H9.34C8.19 13.5402 7.26 12.5802 7.26 11.3902C7.26 10.9802 7.6 10.6402 8.01 10.6402C8.42 10.6402 8.76 10.9802 8.76 11.3902C8.76 11.7502 9.02 12.0402 9.34 12.0402H10.84C11.07 12.0402 11.25 11.8302 11.25 11.5702C11.25 11.2202 11.19 11.2002 10.96 11.1202L8.55 10.2802C7.68 9.9802 7.25 9.3702 7.25 8.4202C7.25 7.3402 8.11 6.4502 9.16 6.4502H10.66C11.81 6.4502 12.74 7.4102 12.74 8.6002C12.74 9.0102 12.4 9.3502 11.99 9.3502C11.58 9.3502 11.24 9.0102 11.24 8.6002C11.24 8.2402 10.98 7.9502 10.66 7.9502H9.16C8.93 7.9502 8.75 8.1602 8.75 8.4202C8.75 8.7702 8.81 8.7902 9.04 8.8702L11.45 9.7102C12.32 10.0202 12.74 10.6302 12.74 11.5702C12.75 12.6602 11.89 13.5402 10.84 13.5402Z" fill="#292D32"/>
<path d="M10 14.3406C9.59 14.3406 9.25 14.0006 9.25 13.5906V12.8506C9.25 12.4406 9.59 12.1006 10 12.1006C10.41 12.1006 10.75 12.4406 10.75 12.8506V13.5906C10.75 14.0106 10.41 14.3406 10 14.3406Z" fill="#292D32"/>
<path d="M10 7.94016C9.59 7.94016 9.25 7.60016 9.25 7.19016V6.41016C9.25 6.00016 9.59 5.66016 10 5.66016C10.41 5.66016 10.75 6.00016 10.75 6.41016V7.19016C10.75 7.60016 10.41 7.94016 10 7.94016Z" fill="#292D32"/>
<path d="M9.99 18.7202C5.17 18.7202 1.25 14.8002 1.25 9.98023C1.25 5.16023 5.17 1.24023 9.99 1.24023C14.81 1.24023 18.73 5.16023 18.73 9.98023C18.73 14.8002 14.8 18.7202 9.99 18.7202ZM9.99 2.75023C6 2.75023 2.75 6.00023 2.75 9.99023C2.75 13.9802 6 17.2202 9.99 17.2202C13.98 17.2202 17.23 13.9702 17.23 9.98023C17.23 5.99023 13.98 2.75023 9.99 2.75023Z" fill="#292D32"/>
<path d="M17.019 22.7203C15.169 22.7203 13.429 21.8203 12.359 20.3003C12.119 19.9603 12.199 19.4903 12.539 19.2503C12.879 19.0103 13.349 19.0903 13.589 19.4303C14.379 20.5503 15.659 21.2103 17.019 21.2103C19.339 21.2103 21.219 19.3303 21.219 17.0103C21.219 15.6603 20.559 14.3803 19.459 13.5903C19.119 13.3503 19.049 12.8803 19.289 12.5403C19.529 12.2003 19.999 12.1303 20.339 12.3703C21.829 13.4403 22.719 15.1703 22.719 17.0103C22.719 20.1703 20.169 22.7203 17.019 22.7203Z" fill="#292D32"/>
</svg>
