<svg width="24" height="24" viewBox="0 0 24 24" fill="none" xmlns="http://www.w3.org/2000/svg">
<path d="M9.59998 18.7503C7.19998 18.7503 5.25 16.8003 5.25 14.4003C5.25 12.4403 6.57002 10.7103 8.46002 10.2003C8.83002 10.1003 9.20998 10.2903 9.34998 10.6503C9.67998 11.4803 10.39 12.1203 11.25 12.3503C11.72 12.4803 12.28 12.4803 12.75 12.3503C13.12 12.2503 13.51 12.4403 13.65 12.7903C13.85 13.3003 13.95 13.8403 13.95 14.3903C13.95 15.6303 13.42 16.8103 12.5 17.6303C11.71 18.3503 10.68 18.7503 9.59998 18.7503ZM8.28998 11.8703C7.35998 12.3503 6.75 13.3203 6.75 14.4003C6.75 15.9703 8.02998 17.2503 9.59998 17.2503C10.3 17.2503 10.98 16.9903 11.5 16.5203C12.11 15.9803 12.45 15.2103 12.45 14.4003C12.45 14.2403 12.44 14.0903 12.41 13.9303C11.88 13.9803 11.34 13.9303 10.85 13.7903C9.77998 13.5003 8.85998 12.8003 8.28998 11.8703Z" fill="#292D32"/>
<path d="M12.0002 13.9498C11.6002 13.9498 11.2102 13.8998 10.8502 13.7998C9.54016 13.4398 8.46021 12.4698 7.96021 11.2098C7.76021 10.6998 7.66016 10.1598 7.66016 9.60977C7.66016 7.20977 9.61019 5.25977 12.0102 5.25977C14.4102 5.25977 16.3602 7.20977 16.3602 9.60977C16.3602 10.1598 16.2602 10.6998 16.0602 11.2098C15.5602 12.4798 14.4702 13.4498 13.1602 13.7998C12.7902 13.8998 12.4002 13.9498 12.0002 13.9498ZM12.0002 6.74977C10.4302 6.74977 9.15021 8.02977 9.15021 9.59977C9.15021 9.95977 9.22016 10.3198 9.35016 10.6498C9.68016 11.4798 10.3902 12.1198 11.2502 12.3498C11.7202 12.4798 12.2802 12.4798 12.7502 12.3498C13.6202 12.1098 14.3302 11.4798 14.6502 10.6498C14.7802 10.3198 14.8502 9.95977 14.8502 9.59977C14.8502 8.02977 13.5702 6.74977 12.0002 6.74977Z" fill="#292D32"/>
<path d="M14.4 18.7496C13.32 18.7496 12.29 18.3496 11.5 17.6296C11.34 17.4896 11.25 17.2796 11.25 17.0696C11.25 16.8596 11.34 16.6496 11.5 16.5096C12.1 15.9796 12.45 15.2096 12.45 14.3996C12.45 14.0396 12.38 13.6796 12.25 13.3496C12.17 13.1496 12.18 12.9296 12.28 12.7396C12.37 12.5496 12.55 12.4096 12.75 12.3496C13.61 12.1096 14.32 11.4796 14.65 10.6496C14.79 10.2996 15.17 10.0996 15.54 10.1996C17.43 10.7096 18.75 12.4396 18.75 14.3996C18.75 16.7996 16.8 18.7496 14.4 18.7496ZM13.12 16.9496C13.51 17.1496 13.95 17.2496 14.4 17.2496C15.97 17.2496 17.25 15.9696 17.25 14.3996C17.25 13.3196 16.64 12.3496 15.71 11.8696C15.27 12.5896 14.62 13.1696 13.86 13.5296C13.92 13.8096 13.95 14.0996 13.95 14.3996C13.95 15.3196 13.66 16.2096 13.12 16.9496Z" fill="#292D32"/>
<path d="M15 22.75H9C3.57 22.75 1.25 20.43 1.25 15V9C1.25 3.57 3.57 1.25 9 1.25H15C20.43 1.25 22.75 3.57 22.75 9V15C22.75 20.43 20.43 22.75 15 22.75ZM9 2.75C4.39 2.75 2.75 4.39 2.75 9V15C2.75 19.61 4.39 21.25 9 21.25H15C19.61 21.25 21.25 19.61 21.25 15V9C21.25 4.39 19.61 2.75 15 2.75H9Z" fill="#292D32"/>
</svg>
