<svg width="24" height="24" viewBox="0 0 24 24" fill="none" xmlns="http://www.w3.org/2000/svg">
<path d="M15.0002 22.75C14.7302 22.75 14.4802 22.6 14.3502 22.37C14.2202 22.14 14.2202 21.85 14.3602 21.62L15.4102 19.87C15.6202 19.51 16.0802 19.4 16.4402 19.61C16.8002 19.82 16.9102 20.28 16.7002 20.64L16.4302 21.09C19.1902 20.44 21.2602 17.96 21.2602 15C21.2602 14.59 21.6002 14.25 22.0102 14.25C22.4202 14.25 22.7602 14.59 22.7602 15C22.7502 19.27 19.2702 22.75 15.0002 22.75Z" fill="#292D32"/>
<path d="M2 9.75C1.59 9.75 1.25 9.41 1.25 9C1.25 4.73 4.73 1.25 9 1.25C9.27 1.25 9.51999 1.4 9.64999 1.63C9.77999 1.86 9.78 2.15 9.64 2.38L8.59 4.13C8.38 4.49001 7.92 4.60001 7.56 4.39001C7.2 4.18001 7.09 3.71999 7.3 3.35999L7.57001 2.90997C4.81001 3.55997 2.74001 6.04 2.74001 9C2.75001 9.41 2.41 9.75 2 9.75Z" fill="#292D32"/>
<path d="M17.6804 7.49963C17.5504 7.49963 17.4204 7.46965 17.3004 7.39965L13.3304 5.09961C12.9704 4.88961 12.8504 4.42964 13.0604 4.06964C13.2704 3.70964 13.7304 3.58962 14.0804 3.79962L17.6804 5.87963L21.2504 3.80963C21.6104 3.59963 22.0704 3.72965 22.2704 4.07965C22.4804 4.43965 22.3504 4.89961 22.0004 5.10961L18.0504 7.38964C17.9404 7.45964 17.8104 7.49963 17.6804 7.49963Z" fill="#292D32"/>
<path d="M17.6797 11.5698C17.2697 11.5698 16.9297 11.2298 16.9297 10.8198V6.73975C16.9297 6.32975 17.2697 5.98975 17.6797 5.98975C18.0897 5.98975 18.4297 6.32975 18.4297 6.73975V10.8198C18.4297 11.2398 18.0897 11.5698 17.6797 11.5698Z" fill="#292D32"/>
<path d="M17.6794 11.7502C17.2194 11.7502 16.7494 11.6502 16.3794 11.4402L13.9794 10.1102C13.1994 9.68017 12.6094 8.67022 12.6094 7.78022V5.24018C12.6094 4.34018 13.1994 3.34021 13.9894 2.90021L16.3894 1.5702C17.1294 1.1602 18.2394 1.1602 18.9894 1.5702L21.3894 2.90021C22.1694 3.33021 22.7594 4.34017 22.7594 5.23017V7.77021C22.7594 8.67021 22.1694 9.67016 21.3894 10.1002L18.9894 11.4302C18.5994 11.6502 18.1394 11.7502 17.6794 11.7502ZM17.1094 2.87018L14.7094 4.2002C14.4094 4.3702 14.1094 4.88016 14.1094 5.22016V7.7602C14.1094 8.1102 14.4094 8.62022 14.7094 8.78022L17.1094 10.1202C17.3994 10.2802 17.9594 10.2802 18.2494 10.1202L20.6494 8.79017C20.9494 8.62017 21.2494 8.11021 21.2494 7.77021V5.23017C21.2494 4.88017 20.9494 4.37021 20.6494 4.21021L18.2494 2.88019C17.9594 2.71019 17.3894 2.71018 17.1094 2.87018Z" fill="#292D32"/>
<path d="M6.321 18.4996C6.191 18.4996 6.06099 18.4697 5.94099 18.3997L1.97099 16.0996C1.61099 15.8896 1.49099 15.4296 1.70099 15.0696C1.91099 14.7096 2.37099 14.5896 2.72099 14.7996L6.321 16.8796L9.89099 14.8096C10.251 14.5996 10.711 14.7296 10.911 15.0796C11.121 15.4396 10.991 15.8996 10.641 16.1096L6.69099 18.3896C6.58099 18.4596 6.451 18.4996 6.321 18.4996Z" fill="#292D32"/>
<path d="M6.32031 22.5698C5.91031 22.5698 5.57031 22.2298 5.57031 21.8198V17.7397C5.57031 17.3297 5.91031 16.9897 6.32031 16.9897C6.73031 16.9897 7.07031 17.3297 7.07031 17.7397V21.8198C7.07031 22.2398 6.74031 22.5698 6.32031 22.5698Z" fill="#292D32"/>
<path d="M6.32001 22.7499C5.86001 22.7499 5.39 22.6499 5.02 22.4399L2.62 21.1099C1.84 20.6799 1.25 19.67 1.25 18.78V16.2399C1.25 15.3399 1.84 14.3399 2.62 13.9099L5.02 12.58C5.76 12.17 6.88 12.17 7.62 12.58L10.02 13.9099C10.8 14.3399 11.39 15.3499 11.39 16.2399V18.78C11.39 19.68 10.8 20.6799 10.01 21.1199L7.61 22.45C7.25 22.65 6.79001 22.7499 6.32001 22.7499ZM5.75 13.8699L3.35001 15.2C3.05001 15.37 2.75 15.8799 2.75 16.2199V18.76C2.75 19.11 3.05001 19.62 3.35001 19.78L5.75 21.1099C6.04 21.2699 6.6 21.2699 6.89 21.1099L9.28999 19.78C9.58999 19.61 9.89 19.1 9.89 18.76V16.2199C9.89 15.8699 9.58999 15.36 9.28999 15.2L6.89 13.8599C6.61 13.7099 6.04 13.7099 5.75 13.8699Z" fill="#292D32"/>
</svg>
