<svg width="24" height="24" viewBox="0 0 24 24" fill="none" xmlns="http://www.w3.org/2000/svg">
<path d="M15.7997 2.21048C15.3897 1.80048 14.6797 2.08048 14.6797 2.65048V6.14048C14.6797 7.60048 15.9197 8.81048 17.4297 8.81048C18.3797 8.82048 19.6997 8.82048 20.8297 8.82048C21.3997 8.82048 21.6997 8.15048 21.2997 7.75048C19.8597 6.30048 17.2797 3.69048 15.7997 2.21048Z" fill="#292D32"/>
<path d="M20.5 10.19H17.61C15.24 10.19 13.31 8.26 13.31 5.89V3C13.31 2.45 12.86 2 12.31 2H8.07C4.99 2 2.5 4 2.5 7.57V16.43C2.5 20 4.99 22 8.07 22H15.93C19.01 22 21.5 20 21.5 16.43V11.19C21.5 10.64 21.05 10.19 20.5 10.19ZM13 15.75H8.81L9.53 16.47C9.82 16.76 9.82 17.24 9.53 17.53C9.38 17.68 9.19 17.75 9 17.75C8.81 17.75 8.62 17.68 8.47 17.53L6.47 15.53C6.4 15.46 6.36 15.39 6.32 15.31C6.31 15.29 6.3 15.26 6.29 15.24C6.27 15.18 6.26 15.12 6.25 15.06C6.25 15.03 6.25 15.01 6.25 14.98C6.25 14.9 6.27 14.82 6.3 14.74C6.3 14.73 6.3 14.73 6.31 14.72C6.34 14.64 6.4 14.56 6.46 14.5C6.47 14.49 6.47 14.48 6.48 14.48L8.48 12.48C8.77 12.19 9.25 12.19 9.54 12.48C9.83 12.77 9.83 13.25 9.54 13.54L8.82 14.26H13C13.41 14.26 13.75 14.6 13.75 15.01C13.75 15.42 13.41 15.75 13 15.75Z" fill="#292D32"/>
</svg>
