<svg width="24" height="24" viewBox="0 0 24 24" fill="none" xmlns="http://www.w3.org/2000/svg">
<path d="M16.5904 7.41L6.31044 17.69C5.83044 18.17 5.01044 18.06 4.72044 17.45C4.20044 16.38 3.90044 15.17 3.90044 13.9C3.88044 8.38 9.48044 3.66 11.3804 2.21C11.7504 1.93 12.2504 1.93 12.6104 2.21C13.4804 2.87 15.1104 4.24 16.6404 6.04C16.9804 6.44 16.9604 7.04 16.5904 7.41Z" fill="#292D32"/>
<path opacity="0.4" d="M20.1 13.9098C20.1 18.3698 16.47 21.9998 12 21.9998C10.21 21.9998 8.53996 21.4198 7.18996 20.4198C6.69996 20.0598 6.65996 19.3398 7.08996 18.9098L17.16 8.83977C17.63 8.36977 18.42 8.46978 18.74 9.04978C19.56 10.5598 20.11 12.1998 20.1 13.9098Z" fill="#292D32"/>
</svg>
