<svg width="24" height="24" viewBox="0 0 24 24" fill="none" xmlns="http://www.w3.org/2000/svg">
<path d="M15.2605 22.2498H8.74047C3.83047 22.2498 1.73047 20.1498 1.73047 15.2398V15.1098C1.73047 10.6698 3.48047 8.52978 7.40047 8.15978C7.80047 8.12978 8.18047 8.42978 8.22047 8.83978C8.26047 9.24978 7.96047 9.61978 7.54047 9.65978C4.40047 9.94978 3.23047 11.4298 3.23047 15.1198V15.2498C3.23047 19.3198 4.67047 20.7598 8.74047 20.7598H15.2605C19.3305 20.7598 20.7705 19.3198 20.7705 15.2498V15.1198C20.7705 11.4098 19.5805 9.92978 16.3805 9.65978C15.9705 9.61978 15.6605 9.25978 15.7005 8.84978C15.7405 8.43978 16.0905 8.12978 16.5105 8.16978C20.4905 8.50978 22.2705 10.6598 22.2705 15.1298V15.2598C22.2705 20.1498 20.1705 22.2498 15.2605 22.2498Z" fill="#292D32"/>
<path d="M12 15.7501C11.59 15.7501 11.25 15.4101 11.25 15.0001V3.62012C11.25 3.21012 11.59 2.87012 12 2.87012C12.41 2.87012 12.75 3.21012 12.75 3.62012V15.0001C12.75 15.4101 12.41 15.7501 12 15.7501Z" fill="#292D32"/>
<path d="M15.3498 6.59994C15.1598 6.59994 14.9698 6.52994 14.8198 6.37994L11.9998 3.55994L9.17984 6.37994C8.88984 6.66994 8.40984 6.66994 8.11984 6.37994C7.82984 6.08994 7.82984 5.60994 8.11984 5.31994L11.4698 1.96994C11.7598 1.67994 12.2398 1.67994 12.5298 1.96994L15.8798 5.31994C16.1698 5.60994 16.1698 6.08994 15.8798 6.37994C15.7398 6.52994 15.5398 6.59994 15.3498 6.59994Z" fill="#292D32"/>
</svg>
