<svg width="24" height="24" viewBox="0 0 24 24" fill="none" xmlns="http://www.w3.org/2000/svg">
<path d="M13 22.75H9C3.57 22.75 1.25 20.43 1.25 15V9C1.25 3.57 3.57 1.25 9 1.25H15C20.43 1.25 22.75 3.57 22.75 9V13C22.75 13.41 22.41 13.75 22 13.75C21.59 13.75 21.25 13.41 21.25 13V9C21.25 4.39 19.61 2.75 15 2.75H9C4.39 2.75 2.75 4.39 2.75 9V15C2.75 19.61 4.39 21.25 9 21.25H13C13.41 21.25 13.75 21.59 13.75 22C13.75 22.41 13.41 22.75 13 22.75Z" fill="#292D32"/>
<path d="M7.33009 15.24C7.17009 15.24 7.0101 15.19 6.8701 15.08C6.5401 14.83 6.48012 14.36 6.73012 14.03L9.11009 10.94C9.40009 10.57 9.81011 10.33 10.2801 10.27C10.7501 10.21 11.2101 10.34 11.5801 10.63L13.4101 12.07C13.4801 12.13 13.5501 12.12 13.6001 12.12C13.6401 12.12 13.7101 12.1 13.7701 12.02L16.0801 9.04C16.3301 8.71 16.8001 8.65001 17.1301 8.91001C17.4601 9.16001 17.5201 9.63001 17.2601 9.96001L14.9501 12.94C14.6601 13.31 14.2501 13.55 13.7801 13.6C13.3201 13.66 12.8501 13.53 12.4901 13.24L10.6601 11.8C10.5901 11.74 10.5101 11.74 10.4701 11.75C10.4301 11.75 10.3601 11.77 10.3001 11.85L7.92012 14.94C7.78012 15.14 7.56009 15.24 7.33009 15.24Z" fill="#292D32"/>
<path d="M20.2605 22.7502C19.9105 22.7502 19.4604 22.6402 18.9304 22.3202L18.6804 22.1702C18.6104 22.1302 18.4004 22.1302 18.3304 22.1702L18.0804 22.3202C16.9304 23.0102 16.2005 22.7202 15.8805 22.4802C15.5505 22.2402 15.0404 21.6402 15.3404 20.3202L15.3905 20.1102C15.4105 20.0302 15.3504 19.8402 15.3004 19.7802L14.9505 19.4302C14.3605 18.8302 14.1304 18.1302 14.3304 17.5002C14.5304 16.8802 15.1205 16.4402 15.9505 16.3002L16.3304 16.2402C16.4004 16.2202 16.5404 16.1202 16.5804 16.0502L16.8604 15.4802C17.2504 14.6902 17.8505 14.2402 18.5105 14.2402C19.1705 14.2402 19.7705 14.6902 20.1605 15.4802L20.4405 16.0402C20.4805 16.1102 20.6205 16.2102 20.6905 16.2302L21.0705 16.2902C21.9005 16.4302 22.4905 16.8702 22.6905 17.4902C22.8905 18.1102 22.6705 18.8102 22.0705 19.4202L21.7205 19.7702C21.6705 19.8302 21.6105 20.0202 21.6305 20.1002L21.6804 20.3102C21.9804 21.6302 21.4705 22.2302 21.1405 22.4702C20.9605 22.6102 20.6705 22.7502 20.2605 22.7502ZM18.4904 15.7502C18.4804 15.7602 18.3405 15.8602 18.2005 16.1502L17.9205 16.7202C17.6805 17.2102 17.1104 17.6302 16.5804 17.7202L16.2005 17.7802C15.8805 17.8302 15.7705 17.9402 15.7605 17.9602C15.7605 17.9802 15.7904 18.1402 16.0204 18.3702L16.3704 18.7202C16.7804 19.1402 16.9904 19.8602 16.8604 20.4302L16.8104 20.6402C16.7204 21.0302 16.7604 21.2002 16.7804 21.2602C16.8104 21.2402 16.9804 21.2202 17.3104 21.0202L17.5604 20.8702C18.1104 20.5402 18.9005 20.5402 19.4505 20.8702L19.7005 21.0202C20.1105 21.2702 20.2805 21.2402 20.2905 21.2402C20.2505 21.2402 20.3004 21.0402 20.2104 20.6402L20.1605 20.4302C20.0305 19.8502 20.2404 19.1402 20.6504 18.7202L21.0004 18.3702C21.2304 18.1402 21.2605 17.9802 21.2605 17.9502C21.2505 17.9302 21.1405 17.8302 20.8205 17.7702L20.4405 17.7102C19.9005 17.6202 19.3405 17.2002 19.1005 16.7102L18.8205 16.1502C18.6605 15.8502 18.5204 15.7602 18.4904 15.7502Z" fill="#292D32"/>
</svg>
