<svg width="24" height="24" viewBox="0 0 24 24" fill="none" xmlns="http://www.w3.org/2000/svg">
<path d="M6.44922 22.75C6.03922 22.75 5.69922 22.41 5.69922 22V2C5.69922 1.59 6.03922 1.25 6.44922 1.25C6.85922 1.25 7.19922 1.59 7.19922 2V22C7.19922 22.41 6.85922 22.75 6.44922 22.75Z" fill="#292D32"/>
<path d="M6.94907 17.7499C6.66907 17.7499 6.40907 17.5999 6.27907 17.3299C6.09907 16.9599 6.24907 16.5099 6.61907 16.3299L14.9191 12.2299C16.1391 11.5999 16.8291 10.8399 16.7991 10.1299C16.7691 9.43987 16.0291 8.72987 14.7591 8.18987L6.65907 4.68987C6.26907 4.51987 6.09907 4.07987 6.25907 3.69987C6.41907 3.31987 6.86907 3.13987 7.24907 3.30987L15.3491 6.80987C17.8491 7.86987 18.2691 9.30987 18.2991 10.0699C18.3491 11.3999 17.3891 12.6399 15.5991 13.5599L7.28907 17.6699C7.17907 17.7299 7.05907 17.7499 6.94907 17.7499Z" fill="#292D32"/>
</svg>
