<svg width="24" height="24" viewBox="0 0 24 24" fill="none" xmlns="http://www.w3.org/2000/svg">
<path d="M9 10.75C7.48 10.75 6.25 9.52 6.25 8C6.25 6.48 7.48 5.25 9 5.25C10.52 5.25 11.75 6.48 11.75 8C11.75 9.52 10.52 10.75 9 10.75ZM9 6.75C8.31 6.75 7.75 7.31 7.75 8C7.75 8.69 8.31 9.25 9 9.25C9.69 9.25 10.25 8.69 10.25 8C10.25 7.31 9.69 6.75 9 6.75Z" fill="#292D32"/>
<path d="M15 22.75H9C3.57 22.75 1.25 20.43 1.25 15V9C1.25 3.57 3.57 1.25 9 1.25H13C13.41 1.25 13.75 1.59 13.75 2C13.75 2.41 13.41 2.75 13 2.75H9C4.39 2.75 2.75 4.39 2.75 9V15C2.75 19.61 4.39 21.25 9 21.25H15C19.61 21.25 21.25 19.61 21.25 15V10C21.25 9.59 21.59 9.25 22 9.25C22.41 9.25 22.75 9.59 22.75 10V15C22.75 20.43 20.43 22.75 15 22.75Z" fill="#292D32"/>
<path d="M18 8.74994C17.59 8.74994 17.25 8.40994 17.25 7.99994V1.99994C17.25 1.69994 17.43 1.41994 17.71 1.30994C17.99 1.19994 18.31 1.25994 18.53 1.46994L20.53 3.46994C20.82 3.75994 20.82 4.23994 20.53 4.52994C20.24 4.81994 19.76 4.81994 19.47 4.52994L18.75 3.80994V7.99994C18.75 8.40994 18.41 8.74994 18 8.74994Z" fill="#292D32"/>
<path d="M15.9995 4.75043C15.8095 4.75043 15.6195 4.68043 15.4695 4.53043C15.1795 4.24043 15.1795 3.76043 15.4695 3.47043L17.4695 1.47043C17.7595 1.18043 18.2395 1.18043 18.5295 1.47043C18.8195 1.76043 18.8195 2.24043 18.5295 2.53043L16.5295 4.53043C16.3795 4.68043 16.1895 4.75043 15.9995 4.75043Z" fill="#292D32"/>
<path d="M2.66932 19.6996C2.42932 19.6996 2.18932 19.5796 2.04932 19.3696C1.81932 19.0296 1.90932 18.5596 2.24932 18.3296L7.17932 15.0196C8.25932 14.2996 9.74932 14.3796 10.7293 15.2096L11.0593 15.4996C11.5593 15.9296 12.4093 15.9296 12.8993 15.4996L17.0593 11.9296C18.1193 11.0196 19.7893 11.0196 20.8593 11.9296L22.4893 13.3296C22.7993 13.5996 22.8393 14.0696 22.5693 14.3896C22.2993 14.6996 21.8193 14.7396 21.5093 14.4696L19.8793 13.0696C19.3793 12.6396 18.5393 12.6396 18.0393 13.0696L13.8793 16.6396C12.8193 17.5496 11.1493 17.5496 10.0793 16.6396L9.74932 16.3496C9.28932 15.9596 8.52932 15.9196 8.01932 16.2696L3.09932 19.5796C2.95932 19.6596 2.80932 19.6996 2.66932 19.6996Z" fill="#292D32"/>
</svg>
