<svg width="24" height="24" viewBox="0 0 24 24" fill="none" xmlns="http://www.w3.org/2000/svg">
<path opacity="0.4" d="M17 22H7C4.8 22 3 20.2 3 18V6C3 3.8 4.8 2 7 2H17C19.2 2 21 3.8 21 6V18C21 20.2 19.2 22 17 22Z" fill="#292D32"/>
<path d="M16.25 11H7.75C6.79 11 6 10.21 6 9.25V6.75C6 5.79 6.79 5 7.75 5H16.25C17.21 5 18 5.79 18 6.75V9.25C18 10.21 17.21 11 16.25 11Z" fill="#292D32"/>
<path d="M10.8594 17.0797L10.2094 16.4297L10.8294 15.8097C11.1194 15.5197 11.1194 15.0397 10.8294 14.7497C10.5394 14.4597 10.0594 14.4597 9.76944 14.7497L9.14945 15.3697L8.55945 14.7798C8.26945 14.4898 7.78945 14.4898 7.49945 14.7798C7.20945 15.0698 7.20945 15.5498 7.49945 15.8398L8.08945 16.4297L7.46945 17.0497C7.17945 17.3397 7.17945 17.8197 7.46945 18.1097C7.61945 18.2597 7.80945 18.3297 7.99945 18.3297C8.18945 18.3297 8.37945 18.2597 8.52945 18.1097L9.14945 17.4897L9.79944 18.1397C9.94944 18.2897 10.1394 18.3597 10.3294 18.3597C10.5194 18.3597 10.7094 18.2897 10.8594 18.1397C11.1494 17.8497 11.1494 17.3697 10.8594 17.0797Z" fill="#292D32"/>
<path d="M16.51 16.3301C15.96 16.3301 15.5 15.8801 15.5 15.3301C15.5 14.7801 15.94 14.3301 16.49 14.3301H16.51C17.06 14.3301 17.51 14.7801 17.51 15.3301C17.51 15.8801 17.06 16.3301 16.51 16.3301Z" fill="#292D32"/>
<path d="M14.4902 18.49C13.9402 18.49 13.4902 18.05 13.4902 17.5V17.48C13.4902 16.93 13.9402 16.48 14.4902 16.48C15.0402 16.48 15.4902 16.93 15.4902 17.48C15.4902 18.03 15.0402 18.49 14.4902 18.49Z" fill="#292D32"/>
</svg>
