<svg width="24" height="24" viewBox="0 0 24 24" fill="none" xmlns="http://www.w3.org/2000/svg">
<path opacity="0.4" d="M22.0009 8.69008C22.0009 9.88008 21.8108 10.9801 21.4808 12.0001C19.9008 17.0001 15.0309 19.9901 12.6209 20.8101C12.2809 20.9301 11.7209 20.9301 11.3809 20.8101C10.7409 20.5901 9.93085 20.2201 9.06085 19.7001C8.50085 19.3701 8.41085 18.5901 8.87085 18.1301L20.1509 6.85008C20.6909 6.31008 21.6409 6.54007 21.8309 7.28007C21.9409 7.73007 22.0009 8.20008 22.0009 8.69008Z" fill="#292D32"/>
<path d="M22.5295 1.46994C22.2395 1.17994 21.7595 1.17994 21.4695 1.46994L19.1295 3.80994C18.3395 3.35994 17.4195 3.09995 16.4395 3.09995C14.6295 3.09995 13.0095 3.97993 11.9995 5.32993C10.9895 3.97993 9.36948 3.09995 7.55948 3.09995C4.48948 3.09995 1.99948 5.59994 1.99948 8.68994C1.99948 9.87994 2.1895 10.9799 2.5195 11.9999C3.1695 14.0699 4.3895 15.8 5.7695 17.17L1.46945 21.4699C1.17945 21.7599 1.17945 22.2399 1.46945 22.5299C1.61945 22.6799 1.80948 22.7499 1.99948 22.7499C2.18948 22.7499 2.37951 22.6799 2.52951 22.5299L22.5295 2.52994C22.8195 2.23994 22.8195 1.75994 22.5295 1.46994Z" fill="#292D32"/>
</svg>
