<svg width="24" height="24" viewBox="0 0 24 24" fill="none" xmlns="http://www.w3.org/2000/svg">
<path d="M7.80078 15.1502C7.39078 15.1502 7.05078 14.8102 7.05078 14.4002V10.2002C7.05078 9.7902 7.39078 9.4502 7.80078 9.4502C8.21078 9.4502 8.55078 9.7902 8.55078 10.2002V14.4002C8.55078 14.8102 8.21078 15.1502 7.80078 15.1502Z" fill="#292D32"/>
<path d="M7.95001 10.65C6.46001 10.65 5.25 9.44001 5.25 7.95001C5.25 6.46001 6.46001 5.25 7.95001 5.25C9.44001 5.25 10.65 6.46001 10.65 7.95001C10.65 9.44001 9.44001 10.65 7.95001 10.65ZM7.95001 6.75C7.29001 6.75 6.75 7.29001 6.75 7.95001C6.75 8.61001 7.29001 9.14999 7.95001 9.14999C8.61001 9.14999 9.15002 8.61001 9.15002 7.95001C9.15002 7.29001 8.61001 6.75 7.95001 6.75Z" fill="#292D32"/>
<path d="M7.79999 18.7499C6.38999 18.7499 5.25 17.6099 5.25 16.1999C5.25 14.7899 6.38999 13.6499 7.79999 13.6499C9.20999 13.6499 10.35 14.7899 10.35 16.1999C10.35 17.6099 9.20999 18.7499 7.79999 18.7499ZM7.79999 15.1499C7.21999 15.1499 6.75 15.6199 6.75 16.1999C6.75 16.7799 7.21999 17.2499 7.79999 17.2499C8.37999 17.2499 8.84998 16.7799 8.84998 16.1999C8.84998 15.6199 8.37999 15.1499 7.79999 15.1499Z" fill="#292D32"/>
<path d="M16.2004 18.7499C14.7904 18.7499 13.6504 17.6099 13.6504 16.1999C13.6504 14.7899 14.7904 13.6499 16.2004 13.6499C17.6104 13.6499 18.7504 14.7899 18.7504 16.1999C18.7504 17.6099 17.6104 18.7499 16.2004 18.7499ZM16.2004 15.1499C15.6204 15.1499 15.1504 15.6199 15.1504 16.1999C15.1504 16.7799 15.6204 17.2499 16.2004 17.2499C16.7804 17.2499 17.2504 16.7799 17.2504 16.1999C17.2504 15.6199 16.7804 15.1499 16.2004 15.1499Z" fill="#292D32"/>
<path d="M15.6996 15.17C15.3896 15.17 15.0996 14.98 14.9896 14.67C14.5896 13.53 13.5196 12.77 12.3096 12.77H12.2996L10.2396 12.78H10.2296C8.77958 12.78 7.50962 11.8 7.14962 10.4C7.04962 9.99996 7.2896 9.58995 7.6896 9.48995C8.0796 9.38995 8.49957 9.62996 8.59957 10.03C8.78957 10.77 9.45958 11.29 10.2296 11.29C10.2296 11.29 10.2296 11.29 10.2396 11.29L12.2996 11.28C12.3096 11.28 12.3096 11.28 12.3196 11.28C14.1596 11.28 15.8096 12.45 16.4196 14.19C16.5596 14.58 16.3496 15.01 15.9596 15.15C15.8696 15.16 15.7796 15.17 15.6996 15.17Z" fill="#292D32"/>
<path d="M15 22.75H9C3.57 22.75 1.25 20.43 1.25 15V9C1.25 3.57 3.57 1.25 9 1.25H15C20.43 1.25 22.75 3.57 22.75 9V15C22.75 20.43 20.43 22.75 15 22.75ZM9 2.75C4.39 2.75 2.75 4.39 2.75 9V15C2.75 19.61 4.39 21.25 9 21.25H15C19.61 21.25 21.25 19.61 21.25 15V9C21.25 4.39 19.61 2.75 15 2.75H9Z" fill="#292D32"/>
</svg>
