<svg width="24" height="24" viewBox="0 0 24 24" fill="none" xmlns="http://www.w3.org/2000/svg">
<path opacity="0.4" d="M19.2107 6.35952C18.1707 4.25952 16.1607 2.70952 13.8307 2.19952C11.3907 1.65952 8.8907 2.23952 6.9807 3.77952C5.0607 5.30952 3.9707 7.59952 3.9707 10.0495C3.9707 12.6395 5.5207 15.3495 7.8607 16.9195V17.7495C7.8507 18.0295 7.8407 18.4595 8.1807 18.8095C8.5307 19.1695 9.0507 19.2095 9.4607 19.2095H14.5907C15.1307 19.2095 15.5407 19.0595 15.8207 18.7795C16.2007 18.3895 16.1907 17.8895 16.1807 17.6195V16.9195C19.2807 14.8295 21.2307 10.4195 19.2107 6.35952Z" fill="#292D32"/>
<path d="M15.2611 21.9994C15.2011 21.9994 15.1311 21.9894 15.0711 21.9694C13.0611 21.3994 10.9511 21.3994 8.94113 21.9694C8.57113 22.0694 8.18113 21.8594 8.08113 21.4894C7.97113 21.1194 8.19113 20.7294 8.56113 20.6294C10.8211 19.9894 13.2011 19.9894 15.4611 20.6294C15.8311 20.7394 16.0511 21.1194 15.9411 21.4894C15.8411 21.7994 15.5611 21.9994 15.2611 21.9994Z" fill="#292D32"/>
</svg>
