<svg width="24" height="24" viewBox="0 0 24 24" fill="none" xmlns="http://www.w3.org/2000/svg">
<path d="M19.0712 14.2401C18.7812 14.5301 18.3212 14.5301 18.0413 14.2401C17.7513 13.9501 17.7513 13.4901 18.0413 13.2101C20.0413 11.2101 20.0413 7.9601 18.0413 5.9701C16.0413 3.9801 12.7912 3.9701 10.8012 5.9701C8.81125 7.9701 8.80125 11.2201 10.8012 13.2101C11.0912 13.5001 11.0912 13.9601 10.8012 14.2401C10.5112 14.5301 10.0512 14.5301 9.77125 14.2401C7.20125 11.6701 7.20125 7.4901 9.77125 4.9301C12.3412 2.3701 16.5212 2.3601 19.0812 4.9301C21.6412 7.5001 21.6412 11.6701 19.0712 14.2401Z" fill="#292D32"/>
<path opacity="0.4" d="M19.0715 4.92994C21.6415 7.49994 21.6415 11.6699 19.0715 14.2399C18.1915 15.1199 17.1115 15.6999 15.9815 15.9799C16.5115 13.8199 15.9315 11.4499 14.2415 9.75994C12.5515 8.06994 10.1815 7.48994 8.02148 8.01994C8.30148 6.88994 8.87148 5.80994 9.76148 4.92994C12.3315 2.35994 16.5015 2.35994 19.0715 4.92994Z" fill="#292D32"/>
<path d="M4.9307 9.75998C5.2207 9.46998 5.68071 9.46998 5.96071 9.75998C6.25071 10.05 6.25071 10.51 5.96071 10.79C3.96071 12.79 3.96071 16.04 5.96071 18.03C7.9607 20.02 11.2107 20.03 13.2007 18.03C15.1907 16.03 15.2007 12.78 13.2007 10.79C12.9107 10.5 12.9107 10.04 13.2007 9.75998C13.4907 9.46998 13.9507 9.46998 14.2307 9.75998C16.8007 12.33 16.8007 16.51 14.2307 19.07C11.6607 21.63 7.48071 21.64 4.92071 19.07C2.36071 16.5 2.3607 12.33 4.9307 9.75998Z" fill="#292D32"/>
<path opacity="0.5" d="M14.2414 9.75988C15.9314 11.4499 16.5114 13.8199 15.9814 15.9799C15.7014 17.1099 15.1214 18.1899 14.2414 19.0699C11.6714 21.6399 7.50141 21.6399 4.93141 19.0699C2.36141 16.4999 2.36141 12.3299 4.93141 9.75988C5.81141 8.86988 6.89141 8.29988 8.02141 8.01988C10.1814 7.48988 12.5514 8.06988 14.2414 9.75988Z" fill="#292D32"/>
</svg>
