<svg width="24" height="24" viewBox="0 0 24 24" fill="none" xmlns="http://www.w3.org/2000/svg">
<path d="M19.4998 7.49988L18.0098 8.98988L15.0098 5.98988L16.4998 4.49988C16.9198 4.07988 17.4598 3.87988 17.9998 3.87988C18.5398 3.87988 19.0798 4.07988 19.4998 4.49988C20.3298 5.32988 20.3298 6.66988 19.4998 7.49988Z" fill="#292D32"/>
<path opacity="0.4" d="M18.0114 8.98926L6.50141 20.4993C5.67141 21.3293 4.33141 21.3293 3.50141 20.4993C2.67141 19.6693 2.67141 18.3293 3.50141 17.4993L15.0114 5.98926L18.0114 8.98926Z" fill="#292D32"/>
<path d="M9.95051 3.49953L10.3605 2.10953C10.4005 1.97953 10.3605 1.83953 10.2705 1.73953C10.1805 1.63953 10.0205 1.59953 9.89051 1.63953L8.50051 2.04953L7.11051 1.63953C6.98051 1.59953 6.84051 1.63953 6.74051 1.72953C6.64051 1.82953 6.61051 1.96953 6.65051 2.09953L7.05051 3.49953L6.64051 4.88953C6.60051 5.01953 6.64051 5.15953 6.73051 5.25953C6.83051 5.35953 6.97051 5.38953 7.10051 5.34953L8.50051 4.94953L9.89051 5.35953C9.93051 5.36953 9.96051 5.37953 10.0005 5.37953C10.1005 5.37953 10.1905 5.33953 10.2705 5.26953C10.3705 5.16953 10.4005 5.02953 10.3605 4.89953L9.95051 3.49953Z" fill="#292D32"/>
<path d="M5.95051 9.49953L6.36051 8.10953C6.40051 7.97953 6.36051 7.83953 6.27051 7.73953C6.17051 7.63953 6.03051 7.60953 5.90051 7.64953L4.50051 8.04953L3.1105 7.63953C2.9805 7.59953 2.84051 7.63953 2.74051 7.72953C2.64051 7.82953 2.61051 7.96953 2.65051 8.09953L3.05051 9.49953L2.64051 10.8895C2.60051 11.0195 2.64051 11.1595 2.73051 11.2595C2.83051 11.3595 2.9705 11.3895 3.1005 11.3495L4.4905 10.9395L5.88051 11.3495C5.91051 11.3595 5.95051 11.3595 5.9905 11.3595C6.0905 11.3595 6.18051 11.3195 6.26051 11.2495C6.36051 11.1495 6.39051 11.0095 6.35051 10.8795L5.95051 9.49953Z" fill="#292D32"/>
<path d="M20.9497 14.5L21.3597 13.11C21.3997 12.98 21.3597 12.84 21.2697 12.74C21.1697 12.64 21.0297 12.61 20.8997 12.65L19.5097 13.06L18.1197 12.65C17.9897 12.61 17.8497 12.65 17.7497 12.74C17.6497 12.84 17.6197 12.98 17.6597 13.11L18.0697 14.5L17.6597 15.89C17.6197 16.02 17.6597 16.16 17.7497 16.26C17.8497 16.36 17.9897 16.39 18.1197 16.35L19.5097 15.94L20.8997 16.35C20.9297 16.36 20.9697 16.36 21.0097 16.36C21.1097 16.36 21.1997 16.32 21.2797 16.25C21.3797 16.15 21.4097 16.01 21.3697 15.88L20.9497 14.5Z" fill="#292D32"/>
</svg>
