<svg width="24" height="24" viewBox="0 0 24 24" fill="none" xmlns="http://www.w3.org/2000/svg">
<path d="M16.25 3.44C17.92 4.72 19 6.73 19 9C19 10.45 18.57 11.78 17.83 12.89C16.75 14.49 15.04 15.62 13.05 15.91C12.71 15.97 12.36 16 12 16C11.64 16 11.29 15.97 10.95 15.91C8.96 15.62 7.25 14.49 6.17 12.89C5.43 11.78 5 10.45 5 9C5 5.13 8.13 2 12 2" stroke="#292D32" stroke-width="1.5" stroke-linecap="round" stroke-linejoin="round"/>
<path d="M21.2491 18.4704L19.5991 18.8604C19.2291 18.9504 18.9391 19.2304 18.8591 19.6004L18.5091 21.0704C18.3191 21.8704 17.2991 22.1104 16.7691 21.4804L11.9991 16.0004L7.2291 21.4904C6.6991 22.1204 5.6791 21.8804 5.4891 21.0804L5.1391 19.6104C5.0491 19.2404 4.7591 18.9504 4.3991 18.8704L2.7491 18.4804C1.9891 18.3004 1.7191 17.3504 2.2691 16.8004L6.1691 12.9004C7.2491 14.5004 8.9591 15.6304 10.9491 15.9204C11.2891 15.9804 11.6391 16.0104 11.9991 16.0104C12.3591 16.0104 12.7091 15.9804 13.0491 15.9204C15.0391 15.6304 16.7491 14.5004 17.8291 12.9004L21.7291 16.8004C22.2791 17.3404 22.0091 18.2904 21.2491 18.4704Z" stroke="#292D32" stroke-width="1.5" stroke-linecap="round" stroke-linejoin="round"/>
<path d="M12.58 5.98L13.17 7.15999C13.25 7.31999 13.46 7.48 13.65 7.51L14.72 7.68999C15.4 7.79999 15.56 8.3 15.07 8.79L14.24 9.61998C14.1 9.75998 14.02 10.03 14.07 10.23L14.31 11.26C14.5 12.07 14.07 12.39 13.35 11.96L12.35 11.37C12.17 11.26 11.87 11.26 11.69 11.37L10.69 11.96C9.96997 12.38 9.53997 12.07 9.72997 11.26L9.96997 10.23C10.01 10.04 9.93997 9.75998 9.79997 9.61998L8.96997 8.79C8.47997 8.3 8.63997 7.80999 9.31997 7.68999L10.39 7.51C10.57 7.48 10.78 7.31999 10.86 7.15999L11.45 5.98C11.74 5.34 12.26 5.34 12.58 5.98Z" stroke="#292D32" stroke-width="1.5" stroke-linecap="round" stroke-linejoin="round"/>
</svg>
