<svg width="24" height="24" viewBox="0 0 24 24" fill="none" xmlns="http://www.w3.org/2000/svg">
<path opacity="0.4" d="M16 2H8C4 2 2 4 2 8V21C2 21.55 2.45 22 3 22H16C20 22 22 20 22 16V8C22 4 20 2 16 2Z" fill="#292D32"/>
<path d="M16.5514 7.46019C15.2914 6.20019 14.0714 6.17019 12.7814 7.46019L11.9914 8.25019C11.9214 8.32019 11.9014 8.42019 11.9214 8.51019C12.4114 10.2302 13.7814 11.6002 15.5014 12.0902C15.5214 12.1002 15.5514 12.1002 15.5814 12.1002C15.6514 12.1002 15.7214 12.0702 15.7714 12.0202L16.5514 11.2402C17.1914 10.6002 17.5014 9.99019 17.5014 9.37019C17.5014 8.72019 17.1914 8.10019 16.5514 7.46019Z" fill="#292D32"/>
<path d="M14.3404 12.6701C14.1504 12.5801 13.9704 12.4901 13.8004 12.3801C13.6604 12.3001 13.5204 12.2101 13.3904 12.1101C13.2804 12.0401 13.1504 11.9401 13.0204 11.8301C13.0004 11.8201 12.9604 11.7901 12.9104 11.7301C12.7004 11.5501 12.4604 11.3101 12.2404 11.0601C12.2204 11.0501 12.1904 11.0001 12.1504 10.9401C12.0804 10.8601 11.9804 10.7301 11.8804 10.5901C11.8004 10.4901 11.7104 10.3501 11.6304 10.2101C11.5304 10.0401 11.4304 9.86012 11.3504 9.68012C11.2604 9.48012 11.1904 9.30012 11.1204 9.12012L7.35044 12.8901C7.10044 13.1401 6.87044 13.6001 6.82044 13.9401L6.53043 16.0201C6.46043 16.4601 6.59042 16.8701 6.86042 17.1501C7.09042 17.3801 7.41044 17.5001 7.76044 17.5001C7.84044 17.5001 7.91042 17.4901 7.99042 17.4801L10.0704 17.1901C10.4104 17.1401 10.8704 16.9101 11.1204 16.6601L14.8904 12.8901C14.7104 12.8201 14.5304 12.7501 14.3404 12.6701Z" fill="#292D32"/>
</svg>
