<svg width="24" height="24" viewBox="0 0 24 24" fill="none" xmlns="http://www.w3.org/2000/svg">
<path d="M12 16.25C9.38 16.25 7.25 14.12 7.25 11.5V6C7.25 3.38 9.38 1.25 12 1.25C14.62 1.25 16.75 3.38 16.75 6V11.5C16.75 14.12 14.62 16.25 12 16.25ZM12 2.75C10.21 2.75 8.75 4.21 8.75 6V11.5C8.75 13.29 10.21 14.75 12 14.75C13.79 14.75 15.25 13.29 15.25 11.5V6C15.25 4.21 13.79 2.75 12 2.75Z" fill="#292D32"/>
<path d="M11.9996 19.7504C7.36961 19.7504 3.59961 15.9804 3.59961 11.3504V9.65039C3.59961 9.24039 3.93961 8.90039 4.34961 8.90039C4.75961 8.90039 5.09961 9.24039 5.09961 9.65039V11.3504C5.09961 15.1504 8.19961 18.2504 11.9996 18.2504C15.7996 18.2504 18.8996 15.1504 18.8996 11.3504V9.65039C18.8996 9.24039 19.2396 8.90039 19.6496 8.90039C20.0596 8.90039 20.3996 9.24039 20.3996 9.65039V11.3504C20.3996 15.9804 16.6296 19.7504 11.9996 19.7504Z" fill="#292D32"/>
<path d="M13.3899 7.18031C13.3099 7.18031 13.2199 7.17031 13.1299 7.14031C12.3999 6.87031 11.5999 6.87031 10.8699 7.14031C10.4799 7.28031 10.0499 7.08031 9.90988 6.69031C9.76988 6.30031 9.96988 5.87031 10.3599 5.73031C11.4199 5.35031 12.5899 5.35031 13.6499 5.73031C14.0399 5.87031 14.2399 6.30031 14.0999 6.69031C13.9799 6.99031 13.6899 7.18031 13.3899 7.18031Z" fill="#292D32"/>
<path d="M12.8001 9.30031C12.7301 9.30031 12.6701 9.29031 12.6001 9.27031C12.2001 9.16031 11.7901 9.16031 11.3901 9.27031C10.9901 9.38031 10.5801 9.14031 10.4701 8.74031C10.3601 8.35031 10.6001 7.94031 11.0001 7.83031C11.6501 7.65031 12.3501 7.65031 13.0001 7.83031C13.4001 7.94031 13.6401 8.35031 13.5301 8.75031C13.4401 9.08031 13.1301 9.30031 12.8001 9.30031Z" fill="#292D32"/>
<path d="M12 22.75C11.59 22.75 11.25 22.41 11.25 22V19C11.25 18.59 11.59 18.25 12 18.25C12.41 18.25 12.75 18.59 12.75 19V22C12.75 22.41 12.41 22.75 12 22.75Z" fill="#292D32"/>
</svg>
