<svg width="24" height="24" viewBox="0 0 24 24" fill="none" xmlns="http://www.w3.org/2000/svg">
<path d="M14.8387 10.9001L20.4987 7.11007C21.0687 6.73007 21.2187 5.9501 20.8387 5.3901L19.0187 2.68008C18.6387 2.11008 17.8587 1.96009 17.2987 2.34009L11.6387 6.13009L14.8387 10.9001Z" fill="#292D32"/>
<path d="M14.5197 10.4201L12.7597 11.6001L10.0897 13.3901L9.73969 13.6201L9.57969 13.3801L7.33968 10.0401L7.17969 9.80008L11.9597 6.6001L14.5197 10.4201Z" fill="#292D32"/>
<path d="M5.63912 16.02L9.58912 13.38L7.34912 10.04L3.39912 12.68C2.93912 12.99 2.81912 13.61 3.12912 14.07L4.25912 15.75C4.55912 16.21 5.17912 16.33 5.63912 16.02Z" fill="#292D32"/>
<path opacity="0.4" d="M16.5594 21.8101C16.4594 21.8501 16.3494 21.8801 16.2494 21.8801C15.9594 21.8801 15.6894 21.7101 15.5594 21.4301L11.8294 13.1901L8.04941 21.4401C7.91941 21.7101 7.64941 21.8801 7.35941 21.8801C7.25941 21.8801 7.14941 21.8501 7.04941 21.8101C6.67941 21.6301 6.50941 21.1901 6.67941 20.8101L10.0894 13.3901L12.7594 11.6001L16.9294 20.8201C17.0994 21.1901 16.9294 21.6401 16.5594 21.8101Z" fill="#292D32"/>
</svg>
