<svg width="24" height="24" viewBox="0 0 24 24" fill="none" xmlns="http://www.w3.org/2000/svg">
<path d="M10 17.6998H6.21C2.41 17.6998 1.25 16.5398 1.25 12.7398V6.73979C1.25 2.93979 2.41 1.77979 6.21 1.77979H16.74C20.54 1.77979 21.7 2.93979 21.7 6.73979C21.7 7.14979 21.36 7.48979 20.95 7.48979C20.54 7.48979 20.2 7.14979 20.2 6.73979C20.2 3.79979 19.68 3.27979 16.74 3.27979H6.21C3.27 3.27979 2.75 3.79979 2.75 6.73979V12.7398C2.75 15.6798 3.27 16.1998 6.21 16.1998H10C10.41 16.1998 10.75 16.5398 10.75 16.9498C10.75 17.3598 10.41 17.6998 10 17.6998Z" fill="#292D32"/>
<path d="M10 22.2199C9.59 22.2199 9.25 21.8799 9.25 21.4699V16.9399C9.25 16.5299 9.59 16.1899 10 16.1899C10.41 16.1899 10.75 16.5299 10.75 16.9399V21.4699C10.75 21.8899 10.41 22.2199 10 22.2199Z" fill="#292D32"/>
<path d="M10 13.6997H2C1.59 13.6997 1.25 13.3597 1.25 12.9497C1.25 12.5397 1.59 12.1997 2 12.1997H10C10.41 12.1997 10.75 12.5397 10.75 12.9497C10.75 13.3597 10.41 13.6997 10 13.6997Z" fill="#292D32"/>
<path d="M10.0002 22.2197H6.74023C6.33023 22.2197 5.99023 21.8797 5.99023 21.4697C5.99023 21.0597 6.33023 20.7197 6.74023 20.7197H10.0002C10.4102 20.7197 10.7502 21.0597 10.7502 21.4697C10.7502 21.8797 10.4102 22.2197 10.0002 22.2197Z" fill="#292D32"/>
<path d="M19.0403 22.2198H15.4903C12.7203 22.2198 11.7803 21.2798 11.7803 18.5098V12.7998C11.7803 10.0298 12.7203 9.08984 15.4903 9.08984H19.0403C21.8103 9.08984 22.7503 10.0298 22.7503 12.7998V18.5098C22.7503 21.2898 21.8103 22.2198 19.0403 22.2198ZM15.4903 10.5898C13.5303 10.5898 13.2803 10.8398 13.2803 12.7998V18.5098C13.2803 20.4698 13.5303 20.7198 15.4903 20.7198H19.0403C21.0003 20.7198 21.2503 20.4698 21.2503 18.5098V12.7998C21.2503 10.8398 21.0003 10.5898 19.0403 10.5898H15.4903Z" fill="#292D32"/>
<path d="M17.2998 18.9698C17.0398 18.9698 16.7798 18.8698 16.5898 18.6798C16.4998 18.5898 16.4298 18.4798 16.3798 18.3598C16.3298 18.2298 16.2998 18.0998 16.2998 17.9698C16.2998 17.7098 16.4098 17.4498 16.5898 17.2698C16.8198 17.0398 17.1698 16.9298 17.4998 16.9898C17.5598 17.0098 17.6198 17.0298 17.6798 17.0498C17.7398 17.0798 17.7998 17.1098 17.8498 17.1398C17.9098 17.1798 17.9598 17.2198 18.0098 17.2698C18.1898 17.4498 18.2998 17.7098 18.2998 17.9698C18.2998 18.0998 18.2698 18.2298 18.2198 18.3598C18.1698 18.4798 18.0998 18.5898 18.0098 18.6798C17.9598 18.7298 17.9098 18.7698 17.8498 18.7998C17.7998 18.8398 17.7398 18.8698 17.6798 18.8998C17.6198 18.9198 17.5598 18.9398 17.4998 18.9498C17.4298 18.9698 17.3698 18.9698 17.2998 18.9698Z" fill="#292D32"/>
</svg>
