<svg width="24" height="24" viewBox="0 0 24 24" fill="none" xmlns="http://www.w3.org/2000/svg">
<path d="M2 3H5" stroke="#292D32" stroke-width="1.5" stroke-miterlimit="10" stroke-linecap="round" stroke-linejoin="round"/>
<path d="M8 3H22" stroke="#292D32" stroke-width="1.5" stroke-miterlimit="10" stroke-linecap="round" stroke-linejoin="round"/>
<path d="M2 9H11" stroke="#292D32" stroke-width="1.5" stroke-miterlimit="10" stroke-linecap="round" stroke-linejoin="round"/>
<path d="M2 15H8" stroke="#292D32" stroke-width="1.5" stroke-miterlimit="10" stroke-linecap="round" stroke-linejoin="round"/>
<path d="M2 21H6" stroke="#292D32" stroke-width="1.5" stroke-miterlimit="10" stroke-linecap="round" stroke-linejoin="round"/>
<path d="M11.8402 21.9996C13.0441 21.9996 14.0202 21.0236 14.0202 19.8196C14.0202 18.6157 13.0441 17.6396 11.8402 17.6396C10.6362 17.6396 9.66016 18.6157 9.66016 19.8196C9.66016 21.0236 10.6362 21.9996 11.8402 21.9996Z" stroke="#292D32" stroke-width="1.5" stroke-linecap="round" stroke-linejoin="round"/>
<path d="M21.9995 18.3699V9.85993C21.9995 8.04993 20.8595 7.79993 19.7095 8.10993L15.3595 9.29993C14.5695 9.51993 14.0195 10.1399 14.0195 11.0499V12.57V13.59V19.82" stroke="#292D32" stroke-width="1.5" stroke-linecap="round" stroke-linejoin="round"/>
<path d="M19.8206 20.5494C21.0246 20.5494 22.0006 19.5734 22.0006 18.3694C22.0006 17.1655 21.0246 16.1895 19.8206 16.1895C18.6166 16.1895 17.6406 17.1655 17.6406 18.3694C17.6406 19.5734 18.6166 20.5494 19.8206 20.5494Z" stroke="#292D32" stroke-width="1.5" stroke-linecap="round" stroke-linejoin="round"/>
<path d="M20.3711 11.8699L22.0011 11.4199" stroke="#292D32" stroke-width="1.5" stroke-linecap="round" stroke-linejoin="round"/>
<path d="M14.0195 13.5999L16.3695 12.96" stroke="#292D32" stroke-width="1.5" stroke-linecap="round" stroke-linejoin="round"/>
</svg>
