<svg width="24" height="24" viewBox="0 0 24 24" fill="none" xmlns="http://www.w3.org/2000/svg">
<path d="M15.8081 20.18C15.5481 20.18 15.2781 20.17 14.9881 20.14C14.4681 20.1 13.8781 20 13.2681 19.85L11.5881 19.45C6.97812 18.36 5.46812 15.92 6.54812 11.32L7.52812 7.13001C7.74812 6.18002 8.00812 5.41002 8.32812 4.77002C10.0481 1.22002 13.3381 1.54001 15.6781 2.09001L17.3481 2.48001C19.6881 3.03001 21.1681 3.90001 21.9981 5.23002C22.8181 6.56002 22.9481 8.27001 22.3981 10.61L21.4181 14.79C20.5581 18.45 18.7681 20.18 15.8081 20.18ZM13.1181 3.25001C11.4481 3.25001 10.3881 3.94002 9.67812 5.42002C9.41812 5.96002 9.18812 6.63001 8.98812 7.47001L8.00812 11.66C7.11812 15.44 8.14812 17.09 11.9281 17.99L13.6081 18.39C14.1481 18.52 14.6581 18.6 15.1181 18.64C17.8281 18.91 19.1881 17.72 19.9481 14.45L20.9281 10.27C21.3781 8.34002 21.3181 6.99002 20.7181 6.02001C20.1181 5.05001 18.9381 4.39002 16.9981 3.94002L15.3281 3.55001C14.4981 3.35001 13.7581 3.25001 13.1181 3.25001Z" fill="#292D32"/>
<path d="M8.32907 22.2502C5.75908 22.2502 4.11907 20.7102 3.06907 17.4602L1.78907 13.5102C0.369075 9.11017 1.63907 6.63017 6.01907 5.21017L7.59907 4.70017C8.11907 4.54017 8.50907 4.43017 8.85907 4.37017C9.13907 4.31017 9.42908 4.42017 9.59908 4.65017C9.76908 4.88017 9.79908 5.18017 9.67908 5.44017C9.41908 5.97017 9.18907 6.64017 8.99907 7.48017L8.01908 11.6702C7.12908 15.4502 8.15907 17.1002 11.9391 18.0002L13.6191 18.4002C14.1591 18.5302 14.6691 18.6102 15.1291 18.6502C15.4491 18.6802 15.7091 18.9002 15.7991 19.2102C15.8791 19.5202 15.7591 19.8402 15.4991 20.0202C14.8391 20.4702 14.0091 20.8502 12.9591 21.1902L11.3791 21.7102C10.2291 22.0702 9.22907 22.2502 8.32907 22.2502ZM7.77908 6.22017L6.48907 6.64017C2.91907 7.79017 2.06907 9.47017 3.21907 13.0502L4.49907 17.0002C5.65907 20.5702 7.33908 21.4302 10.9091 20.2802L12.4891 19.7602C12.5491 19.7402 12.5991 19.7202 12.6591 19.7002L11.5991 19.4502C6.98908 18.3602 5.47907 15.9202 6.55907 11.3202L7.53907 7.13017C7.60908 6.81017 7.68907 6.50017 7.77908 6.22017Z" fill="#292D32"/>
</svg>
