<svg width="24" height="24" viewBox="0 0 24 24" fill="none" xmlns="http://www.w3.org/2000/svg">
<path d="M17.6896 20.0902C17.1196 20.0902 16.5596 19.9402 16.0396 19.6402L7.7496 14.8602C6.7196 14.2602 6.09961 13.1902 6.09961 12.0002C6.09961 10.8102 6.7196 9.74019 7.7496 9.14019L16.0396 4.36016C17.0696 3.76016 18.2996 3.76016 19.3396 4.36016C20.3796 4.96016 20.9896 6.02017 20.9896 7.22017V16.7902C20.9896 17.9802 20.3696 19.0502 19.3396 19.6502C18.8196 19.9402 18.2596 20.0902 17.6896 20.0902ZM17.6896 5.41017C17.3796 5.41017 17.0696 5.49016 16.7896 5.65016L8.4996 10.4302C7.9396 10.7602 7.59961 11.3402 7.59961 11.9902C7.59961 12.6402 7.9396 13.2202 8.4996 13.5502L16.7896 18.3302C17.3496 18.6602 18.0296 18.6602 18.5896 18.3302C19.1496 18.0002 19.4896 17.4202 19.4896 16.7702V7.20018C19.4896 6.55018 19.1496 5.97019 18.5896 5.64019C18.3096 5.50019 17.9996 5.41017 17.6896 5.41017Z" fill="#292D32"/>
<path d="M3.75977 18.9303C3.34977 18.9303 3.00977 18.5903 3.00977 18.1803V5.82031C3.00977 5.41031 3.34977 5.07031 3.75977 5.07031C4.16977 5.07031 4.50977 5.41031 4.50977 5.82031V18.1803C4.50977 18.5903 4.16977 18.9303 3.75977 18.9303Z" fill="#292D32"/>
</svg>
