<svg width="24" height="24" viewBox="0 0 24 24" fill="none" xmlns="http://www.w3.org/2000/svg">
<path d="M16.75 7.75H7.25C6.84 7.75 6.5 7.41 6.5 7V5C6.5 2.44 7.69 1.25 10.25 1.25H13.75C16.31 1.25 17.5 2.44 17.5 5V7C17.5 7.41 17.16 7.75 16.75 7.75ZM8 6.25H16V5C16 3.3 15.45 2.75 13.75 2.75H10.25C8.55 2.75 8 3.3 8 5V6.25Z" fill="#292D32"/>
<path d="M13.0007 22.75H11.0007C8.9607 22.75 7.6607 21.77 7.3307 19.99C7.2607 19.58 7.5207 19.19 7.9307 19.12C8.3307 19.04 8.7307 19.31 8.8007 19.72C8.9307 20.43 9.3007 21.25 10.9907 21.25H12.9907C14.5707 21.25 15.2407 20.58 15.2407 19V15.75H12.9607C12.5507 15.75 12.2107 15.41 12.2107 15C12.2107 14.59 12.5507 14.25 12.9607 14.25H16.0007C16.4107 14.25 16.7507 14.59 16.7507 15V19C16.7507 21.42 15.4207 22.75 13.0007 22.75Z" fill="#292D32"/>
<path d="M6 18.75C3.58 18.75 2.25 17.42 2.25 15V10C2.25 7.58 3.58 6.25 6 6.25H16.59C17 6.25 17.34 6.59 17.34 7C17.34 7.41 17 7.75 16.59 7.75H6C4.42 7.75 3.75 8.42 3.75 10V15C3.75 16.58 4.42 17.25 6 17.25C6.41 17.25 6.75 17.59 6.75 18C6.75 18.41 6.41 18.75 6 18.75Z" fill="#292D32"/>
<path d="M18 18.7498H16C15.59 18.7498 15.25 18.4098 15.25 17.9998V15.7498H13C12.59 15.7498 12.25 15.4098 12.25 14.9998C12.25 14.5898 12.59 14.2498 13 14.2498H16C16.41 14.2498 16.75 14.5898 16.75 14.9998V17.2498H18C19.58 17.2498 20.25 16.5798 20.25 14.9998V9.99983C20.25 9.07983 20.02 8.46983 19.54 8.12983C19.2 7.88983 19.12 7.41983 19.36 7.08983C19.6 6.74983 20.07 6.66983 20.41 6.90983C21.3 7.53983 21.75 8.57983 21.75 9.99983V14.9998C21.75 17.4198 20.42 18.7498 18 18.7498Z" fill="#292D32"/>
<path d="M17 15.75H15.79C15.38 15.75 15.04 15.41 15.04 15C15.04 14.59 15.38 14.25 15.79 14.25H17C17.41 14.25 17.75 14.59 17.75 15C17.75 15.41 17.41 15.75 17 15.75Z" fill="#292D32"/>
<path d="M9 11.75H7C6.59 11.75 6.25 11.41 6.25 11C6.25 10.59 6.59 10.25 7 10.25H9C9.41 10.25 9.75 10.59 9.75 11C9.75 11.41 9.41 11.75 9 11.75Z" fill="#292D32"/>
<path d="M2.00043 22.7499C1.81043 22.7499 1.62043 22.6799 1.47043 22.5299C1.18043 22.2399 1.18043 21.7599 1.47043 21.4699L21.4704 1.46994C21.7604 1.17994 22.2404 1.17994 22.5304 1.46994C22.8204 1.75994 22.8204 2.23994 22.5304 2.52994L2.53043 22.5299C2.38043 22.6799 2.19043 22.7499 2.00043 22.7499Z" fill="#292D32"/>
</svg>
