<svg width="24" height="24" viewBox="0 0 24 24" fill="none" xmlns="http://www.w3.org/2000/svg">
<path d="M17.0009 11.8398H14.3209C13.6109 11.8398 13.1309 11.2998 13.1309 10.6498V9.15973C13.1309 8.50973 13.6109 7.96973 14.3209 7.96973H15.8109C16.4609 7.96973 17.0009 8.50973 17.0009 9.15973V11.8398Z" stroke="#292D32" stroke-width="1.5" stroke-linecap="round" stroke-linejoin="round"/>
<path d="M17.0002 11.8398C17.0002 14.6298 16.4802 15.0998 14.9102 16.0298" stroke="#292D32" stroke-width="1.5" stroke-linecap="round" stroke-linejoin="round"/>
<path d="M10.8602 11.8398H8.18022C7.47022 11.8398 6.99023 11.2998 6.99023 10.6498V9.15973C6.99023 8.50973 7.47022 7.96973 8.18022 7.96973H9.67023C10.3202 7.96973 10.8602 8.50973 10.8602 9.15973V11.8398Z" stroke="#292D32" stroke-width="1.5" stroke-linecap="round" stroke-linejoin="round"/>
<path d="M10.8595 11.8398C10.8595 14.6298 10.3395 15.0998 8.76953 16.0298" stroke="#292D32" stroke-width="1.5" stroke-linecap="round" stroke-linejoin="round"/>
<path d="M4 6C2.75 7.67 2 9.75 2 12C2 17.52 6.48 22 12 22C17.52 22 22 17.52 22 12C22 6.48 17.52 2 12 2C10.57 2 9.2 2.29998 7.97 2.84998" stroke="#292D32" stroke-width="1.5" stroke-linecap="round" stroke-linejoin="round"/>
</svg>
