<svg width="24" height="24" viewBox="0 0 24 24" fill="none" xmlns="http://www.w3.org/2000/svg">
<path opacity="0.4" d="M21.4687 5V19C21.4687 20.66 20.1187 22 18.4687 22H14.4688C12.8088 22 11.4688 20.66 11.4688 19V5C11.4688 3.34 12.8088 2 14.4688 2H18.4687C20.1187 2 21.4687 3.34 21.4687 5Z" fill="#292D32"/>
<path d="M17.2187 6C17.2187 6.41 16.8787 6.75 16.4687 6.75H11.4688V5.25H16.4687C16.8787 5.25 17.2187 5.59 17.2187 6Z" fill="#292D32"/>
<path d="M16.1188 18C16.1188 18.41 15.7887 18.75 15.3687 18.75H11.4688V17.25H15.3687C15.7887 17.25 16.1188 17.59 16.1188 18Z" fill="#292D32"/>
<path d="M17.2187 14.0102C17.2087 14.4202 16.8787 14.7502 16.4687 14.7502C16.4587 14.7502 16.4587 14.7502 16.4587 14.7502L11.4688 14.7002V13.2002L16.4687 13.2502C16.8887 13.2502 17.2187 13.5902 17.2187 14.0102Z" fill="#292D32"/>
<path d="M15.0287 10C15.0287 10.41 14.6887 10.75 14.2787 10.75H11.4688V9.25H14.2787C14.6887 9.25 15.0287 9.59 15.0287 10Z" fill="#292D32"/>
<path opacity="0.4" d="M8.4393 4.95V17.91C8.4393 18.36 8.2493 19.05 8.0193 19.43L7.1993 20.79C6.2593 22.37 4.7193 22.37 3.7693 20.79L2.9593 19.43C2.7193 19.05 2.5293 18.36 2.5293 17.91V4.95C2.5293 3.33 3.8593 2 5.4893 2C7.1093 2 8.4393 3.33 8.4393 4.95Z" fill="#292D32"/>
<path d="M8.4393 6.25H2.5293V7.75H8.4393V6.25Z" fill="#292D32"/>
</svg>
