<svg width="24" height="24" viewBox="0 0 24 24" fill="none" xmlns="http://www.w3.org/2000/svg">
<path d="M2 12.94V15C2 20 4 22 9 22H15C20 22 22 20 22 15V9C22 4 20 2 15 2H9C4 2 2 4 2 9" stroke="#292D32" stroke-width="1.5" stroke-linecap="round" stroke-linejoin="round"/>
<path d="M8.41998 10.8996C9.48037 10.8996 10.34 10.04 10.34 8.97957C10.34 7.91918 9.48037 7.05957 8.41998 7.05957C7.3596 7.05957 6.5 7.91918 6.5 8.97957C6.5 10.04 7.3596 10.8996 8.41998 10.8996Z" stroke="#292D32" stroke-width="1.5" stroke-linecap="round" stroke-linejoin="round"/>
<path d="M8.41998 16.9396C9.48037 16.9396 10.34 16.08 10.34 15.0196C10.34 13.9592 9.48037 13.0996 8.41998 13.0996C7.3596 13.0996 6.5 13.9592 6.5 15.0196C6.5 16.08 7.3596 16.9396 8.41998 16.9396Z" stroke="#292D32" stroke-width="1.5" stroke-linecap="round" stroke-linejoin="round"/>
<path d="M17.5002 8.69922L10.1602 14.1892" stroke="#292D32" stroke-width="1.5" stroke-linecap="round" stroke-linejoin="round"/>
<path d="M17.5002 15.28L10.1602 9.79004" stroke="#292D32" stroke-width="1.5" stroke-linecap="round" stroke-linejoin="round"/>
</svg>
