<svg width="24" height="24" viewBox="0 0 24 24" fill="none" xmlns="http://www.w3.org/2000/svg">
<path opacity="0.4" d="M2 7.81V16.19C2 19.83 4.17 22 7.81 22H16.19C16.39 22 16.59 21.99 16.78 21.98C18.01 21.9 19.05 21.55 19.87 20.95C20.29 20.66 20.66 20.29 20.95 19.87C21.64 18.92 22 17.68 22 16.19V7.81C22 4.37 20.06 2.24 16.78 2.03C16.59 2.01 16.39 2 16.19 2H7.81C6.32 2 5.08 2.36 4.13 3.05C3.71 3.34 3.34 3.71 3.05 4.13C2.36 5.08 2 6.32 2 7.81Z" fill="#292D32"/>
<path d="M15.2793 2V22H16.1893C16.3893 22 16.5893 21.99 16.7793 21.98V2.03C16.5893 2.01 16.3893 2 16.1893 2H15.2793Z" fill="#292D32"/>
<path d="M9.0307 15.3099C9.2207 15.3099 9.4107 15.2399 9.5607 15.0899L12.1207 12.5299C12.4107 12.2399 12.4107 11.7599 12.1207 11.4699L9.5607 8.90988C9.2707 8.61988 8.7907 8.61988 8.5007 8.90988C8.2107 9.19988 8.2107 9.67988 8.5007 9.96988L10.5207 11.9999L8.5007 14.0299C8.2107 14.3199 8.2107 14.7999 8.5007 15.0899C8.6407 15.2399 8.8307 15.3099 9.0307 15.3099Z" fill="#292D32"/>
</svg>
