<svg width="24" height="24" viewBox="0 0 24 24" fill="none" xmlns="http://www.w3.org/2000/svg">
<path d="M12.11 22.7204H5.89C3.16 22.7204 1.25 20.8104 1.25 18.0804V10.3104C1.25 7.58041 3.16 5.67041 5.89 5.67041H9.72C10.94 5.67041 12.14 6.17041 13 7.03041L15.39 9.41041C16.26 10.2804 16.75 11.4704 16.75 12.6904V18.0804C16.75 20.8104 14.84 22.7204 12.11 22.7204ZM5.89 7.17041C3.98 7.17041 2.75 8.40041 2.75 10.3104V18.0804C2.75 19.9904 3.98 21.2204 5.89 21.2204H12.11C14.02 21.2204 15.25 19.9904 15.25 18.0804V12.6904C15.25 11.8604 14.91 11.0604 14.33 10.4704L11.94 8.09041C11.35 7.50041 10.54 7.17041 9.72 7.17041H5.89Z" fill="#292D32"/>
<path d="M18.11 18.2802H16C15.59 18.2802 15.25 17.9402 15.25 17.5302V12.6902C15.25 11.8602 14.91 11.0602 14.33 10.4702L11.94 8.09021C11.35 7.50021 10.54 7.17021 9.72 7.17021H8C7.59 7.17021 7.25 6.83021 7.25 6.42021V5.86022C7.25 3.13022 9.16 1.22021 11.89 1.22021H15.72C16.94 1.22021 18.14 1.72021 19 2.58021L21.39 4.97021C22.27 5.85021 22.75 7.01021 22.75 8.25021V13.6402C22.75 16.3702 20.84 18.2802 18.11 18.2802ZM16.75 16.7802H18.11C20.02 16.7802 21.25 15.5502 21.25 13.6402V8.25021C21.25 7.41021 20.92 6.62022 20.33 6.03022L17.94 3.64021C17.36 3.06021 16.55 2.72021 15.72 2.72021H11.89C10.05 2.72021 8.83 3.87021 8.75 5.67021H9.72C10.94 5.67021 12.14 6.17022 13 7.03022L15.39 9.41021C16.26 10.2802 16.75 11.4702 16.75 12.6902V16.7802Z" fill="#292D32"/>
</svg>
