<svg width="24" height="24" viewBox="0 0 24 24" fill="none" xmlns="http://www.w3.org/2000/svg">
<path d="M11.9707 22.75C6.0507 22.75 1.2207 17.93 1.2207 12C1.2207 6.07 6.0507 1.25 11.9707 1.25C17.8907 1.25 22.7207 6.07 22.7207 12C22.7207 17.93 17.9007 22.75 11.9707 22.75ZM11.9707 2.75C6.8707 2.75 2.7207 6.9 2.7207 12C2.7207 17.1 6.8707 21.25 11.9707 21.25C17.0707 21.25 21.2207 17.1 21.2207 12C21.2207 6.9 17.0707 2.75 11.9707 2.75Z" fill="#292D32"/>
<path d="M13.2715 16.9795H10.7315C8.20148 16.9795 7.02148 15.7995 7.02148 13.2695V10.7295C7.02148 8.19953 8.20148 7.01953 10.7315 7.01953H13.2715C15.8015 7.01953 16.9815 8.19953 16.9815 10.7295V13.2695C16.9815 15.7995 15.8015 16.9795 13.2715 16.9795ZM10.7315 8.51953C9.04148 8.51953 8.52148 9.03953 8.52148 10.7295V13.2695C8.52148 14.9595 9.04148 15.4795 10.7315 15.4795H13.2715C14.9615 15.4795 15.4815 14.9595 15.4815 13.2695V10.7295C15.4815 9.03953 14.9615 8.51953 13.2715 8.51953H10.7315Z" fill="#292D32"/>
</svg>
