<svg width="24" height="24" viewBox="0 0 24 24" fill="none" xmlns="http://www.w3.org/2000/svg">
<path opacity="0.4" d="M10.9102 20H17.3802C21.0802 20 22.0002 19.08 22.0002 15.38C20.7202 15.38 19.6902 14.34 19.6902 13.07C19.6902 11.79 20.7202 10.75 22.0002 10.75V9.82996C22.0002 6.12996 21.0802 5.20996 17.3802 5.20996H11.0002V12" stroke="#292D32" stroke-width="1.5" stroke-linecap="round" stroke-linejoin="round"/>
<path d="M10.9994 16.9999V19.9999H8.22942C6.74942 19.9999 5.87942 18.9899 4.91942 16.6699L4.73942 16.2199C5.94942 15.7399 6.53942 14.3399 6.02942 13.1299C5.53942 11.9199 4.14942 11.3399 2.92942 11.8399L2.75942 11.4099C1.31942 7.88988 1.81942 6.65988 5.33942 5.20988L7.97942 4.12988L10.9994 11.4499V13.9999" stroke="#292D32" stroke-width="1.5" stroke-linecap="round" stroke-linejoin="round"/>
</svg>
