<svg width="24" height="24" viewBox="0 0 24 24" fill="none" xmlns="http://www.w3.org/2000/svg">
<path opacity="0.4" d="M21.0901 21.5C21.0901 21.78 20.8701 22 20.5901 22H3.41016C3.13016 22 2.91016 21.78 2.91016 21.5C2.91016 17.36 6.99015 14 12.0002 14C13.0302 14 14.0302 14.14 14.9502 14.41C14.3602 15.11 14.0002 16.02 14.0002 17C14.0002 17.75 14.2101 18.46 14.5801 19.06C14.7801 19.4 15.0401 19.71 15.3401 19.97C16.0401 20.61 16.9702 21 18.0002 21C19.1202 21 20.1302 20.54 20.8502 19.8C21.0102 20.34 21.0901 20.91 21.0901 21.5Z" fill="#292D32"/>
<path d="M21.8807 16.0398C21.7807 15.6498 21.6207 15.2598 21.4007 14.9098C21.2507 14.6498 21.0507 14.3998 20.8307 14.1698C20.1107 13.4498 19.1707 13.0598 18.2107 13.0098C17.1207 12.9398 16.0107 13.3398 15.1707 14.1698C14.3807 14.9598 13.9807 16.0098 14.0007 17.0598C14.0107 18.0598 14.4107 19.0598 15.1707 19.8298C15.7007 20.3598 16.3507 20.7098 17.0407 20.8698C17.4207 20.9698 17.8207 21.0098 18.2207 20.9798C19.1707 20.9398 20.1007 20.5598 20.8307 19.8298C21.8607 18.7998 22.2107 17.3498 21.8807 16.0398ZM19.6007 18.5998C19.3107 18.8898 18.8307 18.8898 18.5407 18.5998L17.9907 18.0498L17.4607 18.5798C17.1707 18.8698 16.6907 18.8698 16.4007 18.5798C16.1107 18.2798 16.1107 17.8098 16.4007 17.5198L16.9307 16.9898L16.4207 16.4898C16.1307 16.1898 16.1307 15.7198 16.4207 15.4198C16.7207 15.1298 17.1907 15.1298 17.4907 15.4198L17.9907 15.9298L18.5207 15.3998C18.8107 15.1098 19.2807 15.1098 19.5807 15.3998C19.8707 15.6898 19.8707 16.1698 19.5807 16.4598L19.0507 16.9898L19.6007 17.5398C19.8907 17.8298 19.8907 18.3098 19.6007 18.5998Z" fill="#292D32"/>
<path d="M12 12C14.7614 12 17 9.76142 17 7C17 4.23858 14.7614 2 12 2C9.23858 2 7 4.23858 7 7C7 9.76142 9.23858 12 12 12Z" fill="#292D32"/>
</svg>
