<svg width="24" height="24" viewBox="0 0 24 24" fill="none" xmlns="http://www.w3.org/2000/svg">
<path d="M18.0003 16.7493C17.8403 16.7493 17.6903 16.6993 17.5503 16.5993C17.2203 16.3493 17.1503 15.8793 17.4003 15.5493C18.9703 13.4593 18.9703 10.5393 17.4003 8.4493C17.1503 8.1193 17.2203 7.6493 17.5503 7.3993C17.8803 7.1493 18.3503 7.2193 18.6003 7.5493C20.5603 10.1693 20.5603 13.8293 18.6003 16.4493C18.4503 16.6493 18.2303 16.7493 18.0003 16.7493Z" fill="#292D32"/>
<path d="M19.8304 19.2493C19.6704 19.2493 19.5204 19.1993 19.3804 19.0993C19.0504 18.8493 18.9804 18.3793 19.2304 18.0493C21.9004 14.4893 21.9004 9.5093 19.2304 5.9493C18.9804 5.6193 19.0504 5.1493 19.3804 4.8993C19.7104 4.6493 20.1804 4.7193 20.4304 5.0493C23.5004 9.1393 23.5004 14.8593 20.4304 18.9493C20.2904 19.1493 20.0604 19.2493 19.8304 19.2493Z" fill="#292D32"/>
<path opacity="0.4" d="M15.75 7.40972V16.5897C15.75 18.3097 15.13 19.5997 14.02 20.2197C13.57 20.4697 13.07 20.5897 12.55 20.5897C11.75 20.5897 10.89 20.3197 10.01 19.7697L7.09 17.9397C6.89 17.8197 6.66 17.7497 6.43 17.7497H5.5V6.24972H6.43C6.66 6.24972 6.89 6.17972 7.09 6.05972L10.01 4.22972C11.47 3.31972 12.9 3.15972 14.02 3.77972C15.13 4.39972 15.75 5.68972 15.75 7.40972Z" fill="#292D32"/>
<path d="M5.5 6.25V17.75H5C2.58 17.75 1.25 16.42 1.25 14V10C1.25 7.58 2.58 6.25 5 6.25H5.5Z" fill="#292D32"/>
</svg>
