<svg width="24" height="24" viewBox="0 0 24 24" fill="none" xmlns="http://www.w3.org/2000/svg">
<g opacity="0.4">
<path d="M14.5 15.4399H9.5" stroke="#292D32" stroke-width="1.5" stroke-miterlimit="10" stroke-linecap="round" stroke-linejoin="round"/>
<path d="M12 13V18" stroke="#292D32" stroke-width="1.5" stroke-miterlimit="10" stroke-linecap="round" stroke-linejoin="round"/>
</g>
<path d="M12.9012 2.52009L12.8712 2.59009L9.97117 9.32009H7.12117C6.44117 9.32009 5.79117 9.46009 5.20117 9.71009L6.95117 5.53009L6.99117 5.43009L7.06117 5.27009C7.08117 5.21009 7.10117 5.15009 7.13117 5.10009C8.44117 2.07009 9.92117 1.38009 12.9012 2.52009Z" stroke="#292D32" stroke-width="1.5" stroke-linecap="round" stroke-linejoin="round"/>
<path d="M18.2907 9.52002C17.8407 9.38002 17.3607 9.32002 16.8807 9.32002H9.9707L12.8707 2.59002L12.9007 2.52002C13.0507 2.57002 13.1907 2.64002 13.3407 2.70002L15.5507 3.63002C16.7807 4.14002 17.6407 4.67002 18.1607 5.31002C18.2607 5.43002 18.3407 5.54002 18.4107 5.67002C18.5007 5.81002 18.5707 5.95002 18.6107 6.10002C18.6507 6.19002 18.6807 6.28002 18.7007 6.36002C18.9707 7.20002 18.8107 8.23002 18.2907 9.52002Z" stroke="#292D32" stroke-width="1.5" stroke-linecap="round" stroke-linejoin="round"/>
<path d="M21.76 14.2003V16.1503C21.76 16.3503 21.75 16.5503 21.74 16.7503C21.55 20.2403 19.6 22.0003 15.9 22.0003H8.1C7.86 22.0003 7.62 21.9803 7.39 21.9503C4.21 21.7403 2.51 20.0403 2.3 16.8603C2.27 16.6303 2.25 16.3903 2.25 16.1503V14.2003C2.25 12.1903 3.47 10.4603 5.21 9.71031C5.81 9.46031 6.45 9.32031 7.13 9.32031H16.89C17.38 9.32031 17.86 9.39031 18.3 9.52031C20.29 10.1303 21.76 11.9903 21.76 14.2003Z" stroke="#292D32" stroke-width="1.5" stroke-linecap="round" stroke-linejoin="round"/>
<path d="M6.95023 5.53027L5.20023 9.71027C3.46023 10.4603 2.24023 12.1903 2.24023 14.2003V11.2703C2.24023 8.43027 4.26023 6.06027 6.95023 5.53027Z" stroke="#292D32" stroke-width="1.5" stroke-linecap="round" stroke-linejoin="round"/>
<path d="M21.7608 11.2701V14.2001C21.7608 12.0001 20.3008 10.1301 18.3008 9.5301C18.8208 8.2301 18.9708 7.2101 18.7208 6.3601C18.7008 6.2701 18.6708 6.1801 18.6308 6.1001C20.4908 7.0601 21.7608 9.0301 21.7608 11.2701Z" stroke="#292D32" stroke-width="1.5" stroke-linecap="round" stroke-linejoin="round"/>
</svg>
