<svg width="24" height="24" viewBox="0 0 24 24" fill="none" xmlns="http://www.w3.org/2000/svg">
<path opacity="0.4" d="M11.5 21C16.7467 21 21 16.7467 21 11.5C21 6.25329 16.7467 2 11.5 2C6.25329 2 2 6.25329 2 11.5C2 16.7467 6.25329 21 11.5 21Z" fill="#292D32"/>
<path d="M21.3005 21.9986C21.1205 21.9986 20.9405 21.9286 20.8105 21.7986L18.9505 19.9386C18.6805 19.6686 18.6805 19.2286 18.9505 18.9486C19.2205 18.6786 19.6605 18.6786 19.9405 18.9486L21.8005 20.8086C22.0705 21.0786 22.0705 21.5186 21.8005 21.7986C21.6605 21.9286 21.4805 21.9986 21.3005 21.9986Z" fill="#292D32"/>
<path d="M13.2699 8.88897C12.6399 8.68897 11.9699 8.80897 11.4899 9.17897C10.9999 8.80897 10.3499 8.68897 9.71993 8.88897C8.35993 9.32897 7.92993 10.879 8.30993 12.059C8.88993 13.869 10.7999 14.809 11.4899 14.809C12.1599 14.809 14.1099 13.849 14.6699 12.059C15.0599 10.879 14.6299 9.32897 13.2699 8.88897Z" fill="#292D32"/>
</svg>
