<svg width="24" height="24" viewBox="0 0 24 24" fill="none" xmlns="http://www.w3.org/2000/svg">
<path opacity="0.4" d="M12 22C17.5228 22 22 17.5228 22 12C22 6.47715 17.5228 2 12 2C6.47715 2 2 6.47715 2 12C2 17.5228 6.47715 22 12 22Z" fill="#292D32"/>
<path d="M12.3296 17.0014C12.1496 17.0614 11.8396 17.0614 11.6596 17.0014C10.0996 16.4714 6.59961 14.2414 6.59961 10.4614C6.59961 8.7914 7.93961 7.44141 9.59961 7.44141C10.5796 7.44141 11.4496 7.9114 11.9996 8.6514C12.5396 7.9214 13.4196 7.44141 14.3996 7.44141C16.0596 7.44141 17.3996 8.7914 17.3996 10.4614C17.3996 14.2414 13.8996 16.4714 12.3296 17.0014Z" fill="#292D32"/>
</svg>
