<svg width="24" height="24" viewBox="0 0 24 24" fill="none" xmlns="http://www.w3.org/2000/svg">
<path opacity="0.4" d="M14 5V10H13C11.35 10 10 11.35 10 13V14H5C3.34 14 2 12.66 2 11V5C2 3.34 3.34 2 5 2H11C12.66 2 14 3.34 14 5Z" fill="#292D32"/>
<path d="M5.19952 6.62868C4.96952 6.62868 4.72952 6.51867 4.58952 6.30867C4.34952 5.96867 4.42952 5.49868 4.76952 5.25868C5.54952 4.70868 6.59951 4.69866 7.38951 5.23866C7.72951 5.46866 7.81952 5.9387 7.58952 6.2787C7.35952 6.6187 6.88951 6.70865 6.54951 6.47865C6.27951 6.29865 5.91952 6.29866 5.64952 6.48866C5.49952 6.58866 5.34952 6.62868 5.19952 6.62868Z" fill="#292D32"/>
<path d="M9.19952 6.62868C8.96952 6.62868 8.72952 6.51867 8.58952 6.30867C8.34952 5.96867 8.42952 5.49868 8.76952 5.25868C9.54952 4.70868 10.5995 4.69866 11.3895 5.23866C11.7295 5.46866 11.8195 5.9387 11.5895 6.2787C11.3595 6.6187 10.8895 6.70865 10.5495 6.47865C10.2795 6.29865 9.91952 6.29866 9.64952 6.48866C9.49952 6.58866 9.34952 6.62868 9.19952 6.62868Z" fill="#292D32"/>
<path d="M8.16078 12.1697H5.84078C5.13078 12.1697 4.55078 11.5897 4.55078 10.8797C4.55078 8.9797 6.10078 7.42969 8.00078 7.42969C8.78078 7.42969 9.55078 7.6997 10.1608 8.1897C10.4808 8.4497 10.5408 8.91969 10.2808 9.23969C10.0208 9.55969 9.55078 9.61968 9.23078 9.35968C8.88078 9.07968 8.46078 8.92969 8.01078 8.92969C7.01078 8.92969 6.18078 9.68968 6.07078 10.6697H8.17078C8.58078 10.6697 8.92078 11.0097 8.92078 11.4197C8.92078 11.8297 8.57078 12.1697 8.16078 12.1697Z" fill="#292D32"/>
<path d="M18.2207 16.6786C18.1507 16.5986 18.0507 16.5586 17.9407 16.5586H14.0607C13.9507 16.5586 13.8507 16.5986 13.7807 16.6786C13.7107 16.7586 13.6707 16.8686 13.6907 16.9686C13.8207 18.1486 14.8107 19.0486 16.0007 19.0486C17.1907 19.0486 18.1807 18.1586 18.3107 16.9686C18.3207 16.8586 18.2907 16.7586 18.2207 16.6786Z" fill="#292D32"/>
<path d="M19 10H13C11.35 10 10 11.35 10 13V19C10 20.65 11.35 22 13 22H19C20.65 22 22 20.65 22 19V13C22 11.35 20.65 10 19 10ZM12.59 13.17C12.83 12.83 13.3 12.75 13.64 12.99C13.91 13.18 14.27 13.18 14.54 13C14.88 12.76 15.35 12.85 15.58 13.2C15.81 13.54 15.73 14.01 15.38 14.24C14.99 14.5 14.54 14.64 14.09 14.64C13.62 14.64 13.16 14.5 12.77 14.22C12.43 13.97 12.35 13.5 12.59 13.17ZM16 20.17C14.1 20.17 12.55 18.62 12.55 16.72C12.55 16.01 13.13 15.43 13.84 15.43H18.16C18.87 15.43 19.45 16.01 19.45 16.72C19.45 18.62 17.9 20.17 16 20.17ZM19.38 14.23C18.99 14.49 18.54 14.63 18.09 14.63C17.62 14.63 17.16 14.49 16.77 14.21C16.43 13.97 16.35 13.5 16.59 13.16C16.83 12.82 17.3 12.74 17.64 12.98C17.91 13.17 18.27 13.17 18.54 12.99C18.88 12.75 19.35 12.84 19.58 13.19C19.81 13.54 19.72 14 19.38 14.23Z" fill="#292D32"/>
</svg>
