<svg width="24" height="24" viewBox="0 0 24 24" fill="none" xmlns="http://www.w3.org/2000/svg">
<path opacity="0.4" d="M16.19 2H7.81C4.17 2 2 4.17 2 7.81V16.18C2 19.83 4.17 22 7.81 22H16.18C19.82 22 21.99 19.83 21.99 16.19V7.81C22 4.17 19.83 2 16.19 2Z" fill="#292D32"/>
<path d="M15.5801 19.2516C15.1701 19.2516 14.8301 18.9116 14.8301 18.5016V14.6016C14.8301 14.1916 15.1701 13.8516 15.5801 13.8516C15.9901 13.8516 16.3301 14.1916 16.3301 14.6016V18.5016C16.3301 18.9116 15.9901 19.2516 15.5801 19.2516Z" fill="#292D32"/>
<path d="M15.5801 8.2C15.1701 8.2 14.8301 7.86 14.8301 7.45V5.5C14.8301 5.09 15.1701 4.75 15.5801 4.75C15.9901 4.75 16.3301 5.09 16.3301 5.5V7.45C16.3301 7.86 15.9901 8.2 15.5801 8.2Z" fill="#292D32"/>
<path d="M8.41992 19.2508C8.00992 19.2508 7.66992 18.9108 7.66992 18.5008V16.5508C7.66992 16.1408 8.00992 15.8008 8.41992 15.8008C8.82992 15.8008 9.16992 16.1408 9.16992 16.5508V18.5008C9.16992 18.9108 8.83992 19.2508 8.41992 19.2508Z" fill="#292D32"/>
<path d="M8.41992 10.15C8.00992 10.15 7.66992 9.81 7.66992 9.4V5.5C7.66992 5.09 8.00992 4.75 8.41992 4.75C8.82992 4.75 9.16992 5.09 9.16992 5.5V9.4C9.16992 9.81 8.83992 10.15 8.41992 10.15Z" fill="#292D32"/>
<path d="M15.5796 7.32812C14.0796 7.32812 12.8496 8.54813 12.8496 10.0481C12.8496 11.5481 14.0696 12.7781 15.5796 12.7781C17.0796 12.7781 18.2996 11.5581 18.2996 10.0481C18.2996 8.53813 17.0796 7.32812 15.5796 7.32812Z" fill="#292D32"/>
<path d="M8.41922 11.2305C6.91922 11.2305 5.69922 12.4505 5.69922 13.9605C5.69922 15.4705 6.91922 16.6805 8.41922 16.6805C9.91922 16.6805 11.1492 15.4605 11.1492 13.9605C11.1492 12.4605 9.92922 11.2305 8.41922 11.2305Z" fill="#292D32"/>
</svg>
