<svg width="24" height="24" viewBox="0 0 24 24" fill="none" xmlns="http://www.w3.org/2000/svg">
<path d="M13.75 10C14.3023 10 14.75 9.55228 14.75 9C14.75 8.44772 14.3023 8 13.75 8C13.1977 8 12.75 8.44772 12.75 9C12.75 9.55228 13.1977 10 13.75 10Z" stroke="black" stroke-miterlimit="10"/>
<path d="M10.25 10C10.8023 10 11.25 9.55228 11.25 9C11.25 8.44772 10.8023 8 10.25 8C9.69772 8 9.25 8.44772 9.25 9C9.25 9.55228 9.69772 10 10.25 10Z" stroke="black" stroke-miterlimit="10"/>
<path d="M15.5 13C16.0523 13 16.5 12.5523 16.5 12C16.5 11.4477 16.0523 11 15.5 11C14.9477 11 14.5 11.4477 14.5 12C14.5 12.5523 14.9477 13 15.5 13Z" stroke="black" stroke-miterlimit="10"/>
<path opacity="0.4" d="M17.1504 9.75C17.5646 9.75 17.9004 9.41421 17.9004 9C17.9004 8.58579 17.5646 8.25 17.1504 8.25C16.7362 8.25 16.4004 8.58579 16.4004 9C16.4004 9.41421 16.7362 9.75 17.1504 9.75Z" stroke="black" stroke-miterlimit="10"/>
<path opacity="0.4" d="M17.1504 15.75C17.5646 15.75 17.9004 15.4142 17.9004 15C17.9004 14.5858 17.5646 14.25 17.1504 14.25C16.7362 14.25 16.4004 14.5858 16.4004 15C16.4004 15.4142 16.7362 15.75 17.1504 15.75Z" stroke="black" stroke-miterlimit="10"/>
<path opacity="0.4" d="M19.75 12.75C20.1642 12.75 20.5 12.4142 20.5 12C20.5 11.5858 20.1642 11.25 19.75 11.25C19.3358 11.25 19 11.5858 19 12C19 12.4142 19.3358 12.75 19.75 12.75Z" stroke="black" stroke-miterlimit="10"/>
<path opacity="0.4" d="M6.7998 9.75C7.21402 9.75 7.5498 9.41421 7.5498 9C7.5498 8.58579 7.21402 8.25 6.7998 8.25C6.38559 8.25 6.0498 8.58579 6.0498 9C6.0498 9.41421 6.38559 9.75 6.7998 9.75Z" stroke="black" stroke-miterlimit="10"/>
<path opacity="0.4" d="M6.7998 15.75C7.21402 15.75 7.5498 15.4142 7.5498 15C7.5498 14.5858 7.21402 14.25 6.7998 14.25C6.38559 14.25 6.0498 14.5858 6.0498 15C6.0498 15.4142 6.38559 15.75 6.7998 15.75Z" stroke="black" stroke-miterlimit="10"/>
<path opacity="0.4" d="M4.2002 12.75C4.61441 12.75 4.9502 12.4142 4.9502 12C4.9502 11.5858 4.61441 11.25 4.2002 11.25C3.78598 11.25 3.4502 11.5858 3.4502 12C3.4502 12.4142 3.78598 12.75 4.2002 12.75Z" stroke="black" stroke-miterlimit="10"/>
<path opacity="0.4" d="M15.9004 5.9502C16.3146 5.9502 16.6504 5.61441 16.6504 5.2002C16.6504 4.78598 16.3146 4.4502 15.9004 4.4502C15.4862 4.4502 15.1504 4.78598 15.1504 5.2002C15.1504 5.61441 15.4862 5.9502 15.9004 5.9502Z" stroke="black" stroke-miterlimit="10"/>
<path opacity="0.4" d="M8.09961 5.9502C8.51382 5.9502 8.84961 5.61441 8.84961 5.2002C8.84961 4.78598 8.51382 4.4502 8.09961 4.4502C7.6854 4.4502 7.34961 4.78598 7.34961 5.2002C7.34961 5.61441 7.6854 5.9502 8.09961 5.9502Z" stroke="black" stroke-miterlimit="10"/>
<path opacity="0.4" d="M12.0498 6.75C12.464 6.75 12.7998 6.41421 12.7998 6C12.7998 5.58579 12.464 5.25 12.0498 5.25C11.6356 5.25 11.2998 5.58579 11.2998 6C11.2998 6.41421 11.6356 6.75 12.0498 6.75Z" stroke="black" stroke-miterlimit="10"/>
<path opacity="0.4" d="M15.9004 19.75C16.3146 19.75 16.6504 19.4142 16.6504 19C16.6504 18.5858 16.3146 18.25 15.9004 18.25C15.4862 18.25 15.1504 18.5858 15.1504 19C15.1504 19.4142 15.4862 19.75 15.9004 19.75Z" stroke="black" stroke-miterlimit="10"/>
<path opacity="0.4" d="M8.09961 19.75C8.51382 19.75 8.84961 19.4142 8.84961 19C8.84961 18.5858 8.51382 18.25 8.09961 18.25C7.6854 18.25 7.34961 18.5858 7.34961 19C7.34961 19.4142 7.6854 19.75 8.09961 19.75Z" stroke="black" stroke-miterlimit="10"/>
<path opacity="0.4" d="M12.0498 18.9502C12.464 18.9502 12.7998 18.6144 12.7998 18.2002C12.7998 17.786 12.464 17.4502 12.0498 17.4502C11.6356 17.4502 11.2998 17.786 11.2998 18.2002C11.2998 18.6144 11.6356 18.9502 12.0498 18.9502Z" stroke="black" stroke-miterlimit="10"/>
<path d="M8.5 13C9.05228 13 9.5 12.5523 9.5 12C9.5 11.4477 9.05228 11 8.5 11C7.94772 11 7.5 11.4477 7.5 12C7.5 12.5523 7.94772 13 8.5 13Z" stroke="black" stroke-miterlimit="10"/>
<path d="M10.25 16C10.8023 16 11.25 15.5523 11.25 15C11.25 14.4477 10.8023 14 10.25 14C9.69772 14 9.25 14.4477 9.25 15C9.25 15.5523 9.69772 16 10.25 16Z" stroke="black" stroke-miterlimit="10"/>
<path d="M13.75 16C14.3023 16 14.75 15.5523 14.75 15C14.75 14.4477 14.3023 14 13.75 14C13.1977 14 12.75 14.4477 12.75 15C12.75 15.5523 13.1977 16 13.75 16Z" stroke="black" stroke-miterlimit="10"/>
<path opacity="0.4" d="M12 2.4502V2.4502" stroke="black" stroke-width="2" stroke-linecap="round" stroke-linejoin="round"/>
<path opacity="0.4" d="M17.5 2.8501V2.8501" stroke="black" stroke-width="1.5" stroke-linecap="round" stroke-linejoin="round"/>
<path opacity="0.4" d="M17.5 21.2002V21.2002" stroke="black" stroke-width="1.5" stroke-linecap="round" stroke-linejoin="round"/>
<path opacity="0.4" d="M20 16.5V16.5" stroke="black" stroke-width="1.5" stroke-linecap="round" stroke-linejoin="round"/>
<path opacity="0.4" d="M20 7V7" stroke="black" stroke-width="1.5" stroke-linecap="round" stroke-linejoin="round"/>
<path opacity="0.4" d="M4 16.5V16.5" stroke="black" stroke-width="1.5" stroke-linecap="round" stroke-linejoin="round"/>
<path opacity="0.4" d="M4 7V7" stroke="black" stroke-width="1.5" stroke-linecap="round" stroke-linejoin="round"/>
<path opacity="0.4" d="M6.5 2.8501V2.8501" stroke="black" stroke-width="1.5" stroke-linecap="round" stroke-linejoin="round"/>
<path opacity="0.4" d="M6.5 21.2002V21.2002" stroke="black" stroke-width="1.5" stroke-linecap="round" stroke-linejoin="round"/>
<path opacity="0.4" d="M12 21.5V21.5" stroke="black" stroke-width="2" stroke-linecap="round" stroke-linejoin="round"/>
<path opacity="0.4" d="M1.5498 12V12" stroke="black" stroke-width="2" stroke-linecap="round" stroke-linejoin="round"/>
<path opacity="0.4" d="M22.5 12V12" stroke="black" stroke-width="2" stroke-linecap="round" stroke-linejoin="round"/>
</svg>
