<svg width="24" height="24" viewBox="0 0 24 24" fill="none" xmlns="http://www.w3.org/2000/svg">
<path d="M14.5397 2.25977C13.5097 2.25977 12.6797 3.08975 12.6797 4.11975V8.75977C12.6797 9.78977 13.5097 10.6198 14.5397 10.6198C15.5697 10.6198 16.3997 9.78977 16.3997 8.75977V4.11975C16.3997 3.08975 15.5697 2.25977 14.5397 2.25977Z" stroke="black" stroke-width="1.5" stroke-miterlimit="10" stroke-linecap="round" stroke-linejoin="round"/>
<path opacity="0.4" d="M18.6201 10.62H20.1901C21.0601 10.62 21.7601 9.91996 21.7601 9.04996C21.7601 8.17996 21.0601 7.47998 20.1901 7.47998C19.3201 7.47998 18.6201 8.17996 18.6201 9.04996V10.62Z" stroke="black" stroke-width="1.5" stroke-miterlimit="10" stroke-linecap="round" stroke-linejoin="round"/>
<path d="M2 9.23013C2 10.2601 2.83 11.0901 3.86 11.0901H8.5C9.53 11.0901 10.36 10.2601 10.36 9.23013C10.36 8.20013 9.53 7.37012 8.5 7.37012H3.86C2.83 7.37012 2 8.20013 2 9.23013Z" stroke="black" stroke-width="1.5" stroke-miterlimit="10" stroke-linecap="round" stroke-linejoin="round"/>
<path opacity="0.4" d="M10.3597 5.13025V3.56024C10.3597 2.69024 9.65972 1.99023 8.78972 1.99023C7.91972 1.99023 7.21973 2.69024 7.21973 3.56024C7.21973 4.43024 7.91972 5.13025 8.78972 5.13025H10.3597Z" stroke="black" stroke-width="1.5" stroke-miterlimit="10" stroke-linecap="round" stroke-linejoin="round"/>
<path d="M9.4303 21.7701C10.4603 21.7701 11.2903 20.9402 11.2903 19.9102V15.2701C11.2903 14.2401 10.4603 13.4102 9.4303 13.4102C8.4003 13.4102 7.57031 14.2401 7.57031 15.2701V19.9102C7.57031 20.9302 8.4003 21.7701 9.4303 21.7701Z" stroke="black" stroke-width="1.5" stroke-miterlimit="10" stroke-linecap="round" stroke-linejoin="round"/>
<path opacity="0.4" d="M5.35973 13.4102H3.78972C2.91972 13.4102 2.21973 14.1102 2.21973 14.9802C2.21973 15.8502 2.91972 16.5501 3.78972 16.5501C4.65972 16.5501 5.35973 15.8502 5.35973 14.9802V13.4102Z" stroke="black" stroke-width="1.5" stroke-miterlimit="10" stroke-linecap="round" stroke-linejoin="round"/>
<path d="M21.9704 14.7999C21.9704 13.7699 21.1404 12.9399 20.1104 12.9399H15.4704C14.4404 12.9399 13.6104 13.7699 13.6104 14.7999C13.6104 15.8299 14.4404 16.6599 15.4704 16.6599H20.1104C21.1404 16.6599 21.9704 15.8299 21.9704 14.7999Z" stroke="black" stroke-width="1.5" stroke-miterlimit="10" stroke-linecap="round" stroke-linejoin="round"/>
<path opacity="0.4" d="M13.6104 18.8398V20.4099C13.6104 21.2799 14.3103 21.9799 15.1803 21.9799C16.0503 21.9799 16.7504 21.2799 16.7504 20.4099C16.7504 19.5399 16.0503 18.8398 15.1803 18.8398H13.6104Z" stroke="black" stroke-width="1.5" stroke-miterlimit="10" stroke-linecap="round" stroke-linejoin="round"/>
</svg>
