<svg width="24" height="24" viewBox="0 0 24 24" fill="none" xmlns="http://www.w3.org/2000/svg">
<path d="M6.94 20.63C8.42 21.5 10.15 22 12 22C17.52 22 22 17.52 22 12C22 6.48 17.52 2 12 2C6.48 2 2 6.48 2 12C2 13.82 2.49003 15.53 3.34003 17L2 22L6.94 20.63Z" stroke="black" stroke-width="1.5" stroke-miterlimit="10" stroke-linecap="round" stroke-linejoin="round"/>
<path opacity="0.4" d="M17 15.17C17 15.35 16.96 15.54 16.87 15.72C16.78 15.9 16.67 16.07 16.53 16.23C16.28 16.5 16.01 16.7 15.71 16.82C15.41 16.95 15.08 17.01 14.73 17.01C14.22 17.01 13.67 16.89 13.1 16.64C12.52 16.39 11.95 16.06 11.38 15.65C10.8 15.23 10.26 14.76 9.73999 14.25C9.21999 13.73 8.76003 13.18 8.34003 12.61C7.93003 12.04 7.59999 11.47 7.35999 10.9C7.11999 10.33 7 9.77998 7 9.25998C7 8.91998 7.05999 8.58998 7.17999 8.28998C7.29999 7.97998 7.49001 7.69998 7.76001 7.44998C8.08001 7.12998 8.42999 6.97998 8.79999 6.97998C8.93999 6.97998 9.08002 7.00998 9.21002 7.06998C9.34002 7.12998 9.45999 7.21998 9.54999 7.34998L10.71 8.98996C10.8 9.11996 10.87 9.22997 10.91 9.33997C10.96 9.44997 10.98 9.54996 10.98 9.64996C10.98 9.76996 10.94 9.88998 10.87 10.01C10.8 10.13 10.71 10.25 10.59 10.37L10.21 10.77C10.15 10.83 10.13 10.89 10.13 10.97C10.13 11.01 10.14 11.05 10.15 11.09C10.17 11.13 10.18 11.16 10.19 11.19C10.28 11.36 10.44 11.57 10.66 11.83C10.89 12.09 11.13 12.36 11.39 12.62C11.66 12.89 11.92 13.13 12.19 13.36C12.45 13.58 12.67 13.73 12.84 13.82C12.87 13.83 12.9 13.85 12.93 13.86C12.97 13.88 13.01 13.88 13.06 13.88C13.15 13.88 13.21 13.85 13.27 13.79L13.65 13.41C13.78 13.28 13.9 13.19 14.01 13.13C14.13 13.06 14.24 13.02 14.37 13.02C14.47 13.02 14.57 13.04 14.68 13.09C14.79 13.14 14.91 13.2 15.03 13.29L16.69 14.47C16.82 14.56 16.91 14.67 16.97 14.79C16.97 14.91 17 15.03 17 15.17Z" stroke="black" stroke-width="1.5" stroke-miterlimit="10"/>
</svg>
