<svg width="24" height="24" viewBox="0 0 24 24" fill="none" xmlns="http://www.w3.org/2000/svg">
<path d="M19.0311 14.97C19.0311 16.26 20.0911 17.31 21.3811 17.31C21.3811 21.06 20.4411 22 16.6911 22H7.31109C3.56109 22 2.62109 21.06 2.62109 17.31V16.85C3.91109 16.85 4.97109 15.79 4.97109 14.5C4.97109 13.21 3.91109 12.15 2.62109 12.15V11.69C2.63109 7.94 3.56109 7 7.31109 7H16.6811C20.4311 7 21.3711 7.94 21.3711 11.69V12.63" stroke="#292D32" stroke-width="1.5" stroke-linecap="round" stroke-linejoin="round"/>
<path d="M16.3283 6.99984H7.23828L10.1683 4.06984C12.5583 1.67984 13.7583 1.67984 16.1483 4.06984L16.7483 4.66984C16.1183 5.29984 15.9683 6.22984 16.3283 6.99984Z" stroke="#292D32" stroke-width="1.5" stroke-linecap="round" stroke-linejoin="round"/>
<path d="M10 7L10 22" stroke="#292D32" stroke-width="1.5" stroke-linecap="round" stroke-linejoin="round" stroke-dasharray="5 5"/>
</svg>
