<svg width="24" height="24" viewBox="0 0 24 24" fill="none" xmlns="http://www.w3.org/2000/svg">
<path d="M22 11V9C22 4 20 2 15 2H9C4 2 2 4 2 9V15C2 20 4 22 9 22H10" stroke="#292D32" stroke-width="1.5" stroke-linecap="round" stroke-linejoin="round"/>
<path d="M5.0293 8.5H21.9993" stroke="#292D32" stroke-width="1.5" stroke-linecap="round" stroke-linejoin="round"/>
<path d="M2.0293 15.5H11.9993" stroke="#292D32" stroke-width="1.5" stroke-linecap="round" stroke-linejoin="round"/>
<path d="M8.50977 21.9917V2.01172" stroke="#292D32" stroke-width="1.5" stroke-linecap="round" stroke-linejoin="round"/>
<path d="M15.5098 11.9917V2.01172" stroke="#292D32" stroke-width="1.5" stroke-linecap="round" stroke-linejoin="round"/>
<path d="M18.7995 19.7009L16.8995 21.601C16.3795 22.121 15.5195 22.121 14.9895 21.601L13.4095 20.011C12.8895 19.491 12.8895 18.631 13.4095 18.101L15.3095 16.2109L18.7995 19.7009Z" stroke="#292D32" stroke-width="1.5" stroke-linecap="round" stroke-linejoin="round"/>
<path d="M21.6108 16.9L18.8008 19.7099L15.3008 16.2099L18.1108 13.39C18.6308 12.87 19.5008 12.87 20.0208 13.39L21.6008 14.98C22.1308 15.51 22.1308 16.38 21.6108 16.9Z" stroke="#292D32" stroke-width="1.5" stroke-linecap="round" stroke-linejoin="round"/>
</svg>
