<svg width="24" height="24" viewBox="0 0 24 24" fill="none" xmlns="http://www.w3.org/2000/svg">
<path opacity="0.6" d="M17.79 10.4717V12.0017H2V10.4717C2 8.15172 3.89 6.26172 6.21 6.26172H13.58C15.9 6.26172 17.79 8.15172 17.79 10.4717Z" fill="#292D32"/>
<path opacity="0.4" d="M17.79 12V17.79C17.79 20.11 15.9 22 13.58 22H6.21C3.89 22 2 20.11 2 17.79V12H17.79Z" fill="#292D32"/>
<path d="M5.5 5.12109C5.09 5.12109 4.75 4.78109 4.75 4.37109V2.62109C4.75 2.21109 5.09 1.87109 5.5 1.87109C5.91 1.87109 6.25 2.21109 6.25 2.62109V4.37109C6.25 4.79109 5.91 5.12109 5.5 5.12109Z" fill="#292D32"/>
<path d="M9.5 5.12109C9.09 5.12109 8.75 4.78109 8.75 4.37109V2.62109C8.75 2.21109 9.09 1.87109 9.5 1.87109C9.91 1.87109 10.25 2.21109 10.25 2.62109V4.37109C10.25 4.79109 9.91 5.12109 9.5 5.12109Z" fill="#292D32"/>
<path d="M13.5 5.12109C13.09 5.12109 12.75 4.78109 12.75 4.37109V2.62109C12.75 2.21109 13.09 1.87109 13.5 1.87109C13.91 1.87109 14.25 2.21109 14.25 2.62109V4.37109C14.25 4.79109 13.91 5.12109 13.5 5.12109Z" fill="#292D32"/>
<path d="M21.6498 14.3219C21.6498 16.4719 19.9098 18.2119 17.7598 18.2119V10.4219C19.8998 10.4219 21.6498 12.1719 21.6498 14.3219Z" fill="#292D32"/>
</svg>
