<svg width="24" height="24" viewBox="0 0 24 24" fill="none" xmlns="http://www.w3.org/2000/svg">
<path opacity="0.4" d="M20.9808 3.02084C20.1108 2.15084 18.8808 1.81084 17.6908 2.11084L7.89084 4.56084C6.24084 4.97084 4.97084 6.25084 4.56084 7.89084L2.11084 17.7008C1.81084 18.8908 2.15084 20.1208 3.02084 20.9908C3.68084 21.6408 4.55084 22.0008 5.45084 22.0008C5.73084 22.0008 6.02084 21.9708 6.30084 21.8908L16.1108 19.4408C17.7508 19.0308 19.0308 17.7608 19.4408 16.1108L21.8908 6.30084C22.1908 5.11084 21.8508 3.88084 20.9808 3.02084Z" fill="#292D32"/>
<path d="M11.9991 15.8811C14.142 15.8811 15.8791 14.144 15.8791 12.0011C15.8791 9.85823 14.142 8.12109 11.9991 8.12109C9.85628 8.12109 8.11914 9.85823 8.11914 12.0011C8.11914 14.144 9.85628 15.8811 11.9991 15.8811Z" fill="#292D32"/>
</svg>
