<svg width="24" height="24" viewBox="0 0 24 24" fill="none" xmlns="http://www.w3.org/2000/svg">
<path opacity="0.4" d="M16.19 2H7.81C4.17 2 2 4.17 2 7.81V16.18C2 19.83 4.17 22 7.81 22H16.18C19.82 22 21.99 19.83 21.99 16.19V7.81C22 4.17 19.83 2 16.19 2Z" fill="#292D32"/>
<path d="M8.81945 9.75141C7.96945 9.75141 7.11945 9.43141 6.46945 8.78141C6.17945 8.49141 6.17945 8.01141 6.46945 7.72141C6.75945 7.43141 7.23945 7.43141 7.52945 7.72141C8.23945 8.43141 9.39945 8.43141 10.1095 7.72141C10.3995 7.43141 10.8795 7.43141 11.1695 7.72141C11.4595 8.01141 11.4595 8.49141 11.1695 8.78141C10.5195 9.42141 9.66945 9.75141 8.81945 9.75141Z" fill="#292D32"/>
<path d="M15.1808 9.75141C14.3308 9.75141 13.4808 9.43141 12.8308 8.78141C12.5408 8.49141 12.5408 8.01141 12.8308 7.72141C13.1208 7.43141 13.6008 7.43141 13.8908 7.72141C14.6008 8.43141 15.7608 8.43141 16.4708 7.72141C16.7608 7.43141 17.2408 7.43141 17.5308 7.72141C17.8208 8.01141 17.8208 8.49141 17.5308 8.78141C16.8808 9.42141 16.0308 9.75141 15.1808 9.75141Z" fill="#292D32"/>
<path d="M15.6009 12.6211H8.40086C7.70086 12.6211 7.13086 13.1911 7.13086 13.9011C7.13086 16.5911 9.32086 18.7811 12.0109 18.7811C14.7009 18.7811 16.8909 16.5911 16.8909 13.9011C16.8809 13.2011 16.3009 12.6211 15.6009 12.6211Z" fill="#292D32"/>
</svg>
