<svg width="24" height="24" viewBox="0 0 24 24" fill="none" xmlns="http://www.w3.org/2000/svg">
<path d="M12.0011 21.2511C11.8111 21.2511 11.6211 21.1811 11.4711 21.0311L5.40109 14.9611C5.11109 14.6711 5.11109 14.1911 5.40109 13.9011C5.69109 13.6111 6.17109 13.6111 6.46109 13.9011L12.0011 19.4411L17.5411 13.9011C17.8311 13.6111 18.3111 13.6111 18.6011 13.9011C18.8911 14.1911 18.8911 14.6711 18.6011 14.9611L12.5311 21.0311C12.3811 21.1811 12.1911 21.2511 12.0011 21.2511Z" fill="#292D32"/>
<path d="M12 21.08C11.59 21.08 11.25 20.74 11.25 20.33V3.5C11.25 3.09 11.59 2.75 12 2.75C12.41 2.75 12.75 3.09 12.75 3.5V20.33C12.75 20.74 12.41 21.08 12 21.08Z" fill="#292D32"/>
</svg>
