<svg width="24" height="24" viewBox="0 0 24 24" fill="none" xmlns="http://www.w3.org/2000/svg">
<path d="M15 22.75H9C3.57 22.75 1.25 20.43 1.25 15V9C1.25 3.57 3.57 1.25 9 1.25H15C20.43 1.25 22.75 3.57 22.75 9V15C22.75 20.43 20.43 22.75 15 22.75ZM9 2.75C4.39 2.75 2.75 4.39 2.75 9V15C2.75 19.61 4.39 21.25 9 21.25H15C19.61 21.25 21.25 19.61 21.25 15V9C21.25 4.39 19.61 2.75 15 2.75H9Z" fill="#292D32"/>
<path d="M15 16.1287H10.08C7.97 16.1287 6.25 14.4088 6.25 12.2988C6.25 10.1888 7.97 8.46875 10.08 8.46875H16.85C17.26 8.46875 17.6 8.80875 17.6 9.21875C17.6 9.62875 17.26 9.96875 16.85 9.96875H10.08C8.8 9.96875 7.75 11.0088 7.75 12.2988C7.75 13.5888 8.79 14.6287 10.08 14.6287H15C15.41 14.6287 15.75 14.9687 15.75 15.3787C15.75 15.7887 15.41 16.1287 15 16.1287Z" fill="#292D32"/>
<path d="M15.4311 11.5203C15.2411 11.5203 15.0511 11.4503 14.9011 11.3003C14.6111 11.0103 14.6111 10.5303 14.9011 10.2403L15.9411 9.20031L14.9011 8.16032C14.6111 7.87032 14.6111 7.39031 14.9011 7.10031C15.1911 6.81031 15.6711 6.81031 15.9611 7.10031L17.5311 8.67031C17.8211 8.96031 17.8211 9.44032 17.5311 9.73032L15.9611 11.3003C15.8111 11.4403 15.6211 11.5203 15.4311 11.5203Z" fill="#292D32"/>
</svg>
