<svg width="24" height="24" viewBox="0 0 24 24" fill="none" xmlns="http://www.w3.org/2000/svg">
<path d="M5.00141 18.2514C4.81141 18.2514 4.62141 18.1814 4.47141 18.0314C4.18141 17.7414 4.18141 17.2614 4.47141 16.9714L18.4714 2.97141C18.7614 2.68141 19.2414 2.68141 19.5314 2.97141C19.8214 3.26141 19.8214 3.74141 19.5314 4.03141L5.53141 18.0314C5.38141 18.1814 5.19141 18.2514 5.00141 18.2514Z" fill="#292D32"/>
<path d="M15.27 18.2505H5C4.59 18.2505 4.25 17.9105 4.25 17.5005V7.23047C4.25 6.82047 4.59 6.48047 5 6.48047C5.41 6.48047 5.75 6.82047 5.75 7.23047V16.7505H15.27C15.68 16.7505 16.02 17.0905 16.02 17.5005C16.02 17.9105 15.68 18.2505 15.27 18.2505Z" fill="#292D32"/>
<path d="M20.5 22.75H3.5C3.09 22.75 2.75 22.41 2.75 22C2.75 21.59 3.09 21.25 3.5 21.25H20.5C20.91 21.25 21.25 21.59 21.25 22C21.25 22.41 20.91 22.75 20.5 22.75Z" fill="#292D32"/>
</svg>
