<svg width="24" height="24" viewBox="0 0 24 24" fill="none" xmlns="http://www.w3.org/2000/svg">
<path d="M17.0298 19.7501H15.9898C13.9798 19.7501 13.0098 18.8201 13.0098 16.9001V5.1001C13.0098 4.6901 13.3498 4.3501 13.7598 4.3501C14.1698 4.3501 14.5098 4.6901 14.5098 5.1001V16.9001C14.5098 17.9101 14.7198 18.2501 15.9898 18.2501H17.0298C18.2998 18.2501 18.5098 17.9101 18.5098 16.9001V5.1001C18.5098 4.6901 18.8498 4.3501 19.2598 4.3501C19.6698 4.3501 20.0098 4.6901 20.0098 5.1001V16.9001C20.0098 18.8201 19.0398 19.7501 17.0298 19.7501Z" fill="#292D32"/>
<path d="M8.52977 14.7501H7.48977C5.47977 14.7501 4.50977 13.8201 4.50977 11.9001V5.1001C4.50977 4.6901 4.84977 4.3501 5.25977 4.3501C5.66977 4.3501 6.00977 4.6901 6.00977 5.1001V11.9001C6.00977 12.9101 6.21977 13.2501 7.48977 13.2501H8.52977C9.79977 13.2501 10.0098 12.9101 10.0098 11.9001V5.1001C10.0098 4.6901 10.3498 4.3501 10.7598 4.3501C11.1698 4.3501 11.5098 4.6901 11.5098 5.1001V11.9001C11.5098 13.8201 10.5398 14.7501 8.52977 14.7501Z" fill="#292D32"/>
<path d="M22 5.75H2C1.58 5.75 1.25 5.41 1.25 5C1.25 4.59 1.58 4.25 2 4.25H22C22.41 4.25 22.75 4.59 22.75 5C22.75 5.41 22.42 5.75 22 5.75Z" fill="#292D32"/>
</svg>
