<svg width="24" height="24" viewBox="0 0 24 24" fill="none" xmlns="http://www.w3.org/2000/svg">
<path d="M14.5 11.3999H9.5C9.09 11.3999 8.75 11.0599 8.75 10.6499C8.75 10.2399 9.09 9.8999 9.5 9.8999H14.5C14.91 9.8999 15.25 10.2399 15.25 10.6499C15.25 11.0599 14.91 11.3999 14.5 11.3999Z" fill="#292D32"/>
<path d="M4.92957 22.75C4.50957 22.75 4.11957 22.65 3.76957 22.45C2.99957 22 2.55957 21.09 2.55957 19.96V5.86C2.55957 3.32 4.62957 1.25 7.16957 1.25H16.8196C19.3596 1.25 21.4296 3.32 21.4296 5.86V19.95C21.4296 21.08 20.9896 21.99 20.2196 22.44C19.4496 22.89 18.4396 22.84 17.4496 22.29L12.5696 19.58C12.2796 19.42 11.7096 19.42 11.4196 19.58L6.53957 22.29C5.99957 22.59 5.44957 22.75 4.92957 22.75ZM7.17957 2.75C5.46957 2.75 4.06957 4.15 4.06957 5.86V19.95C4.06957 20.54 4.23957 20.98 4.53957 21.15C4.83957 21.33 5.30957 21.27 5.81957 20.98L10.6996 18.27C11.4396 17.86 12.5596 17.86 13.2996 18.27L18.1796 20.98C18.6896 21.27 19.1596 21.33 19.4596 21.15C19.7596 20.97 19.9296 20.53 19.9296 19.95V5.86C19.9296 4.15 18.5296 2.75 16.8196 2.75H7.17957Z" fill="#292D32"/>
</svg>
