<svg width="24" height="24" viewBox="0 0 24 24" fill="none" xmlns="http://www.w3.org/2000/svg">
<path d="M15.1 19.1498C14.26 19.1498 13.34 18.8798 12.41 18.3398L7.78 15.6698C6.15 14.7198 5.25 13.4198 5.25 11.9998C5.25 10.5798 6.15 9.2798 7.78 8.3398L12.41 5.6698C14.04 4.7298 15.61 4.5998 16.85 5.3098C18.08 6.0198 18.76 7.4498 18.76 9.3298V14.6698C18.76 16.5498 18.08 17.9798 16.85 18.6898C16.32 18.9998 15.73 19.1498 15.1 19.1498ZM15.1 6.3598C14.52 6.3598 13.86 6.5598 13.16 6.9698L8.53 9.6398C7.38 10.2998 6.75 11.1398 6.75 11.9998C6.75 12.8598 7.38 13.6998 8.53 14.3598L13.16 17.0298C14.31 17.6898 15.35 17.8198 16.1 17.3898C16.85 16.9598 17.26 15.9898 17.26 14.6698V9.3298C17.26 8.0098 16.85 7.0398 16.1 6.6098C15.8 6.4398 15.46 6.3598 15.1 6.3598Z" fill="#292D32"/>
</svg>
