<svg width="24" height="24" viewBox="0 0 24 24" fill="none" xmlns="http://www.w3.org/2000/svg">
<path d="M12 19.75C9.38 19.75 7.25 17.62 7.25 15C7.25 12.38 9.38 10.25 12 10.25C14.62 10.25 16.75 12.38 16.75 15C16.75 17.62 14.62 19.75 12 19.75ZM12 11.75C10.21 11.75 8.75 13.21 8.75 15C8.75 16.79 10.21 18.25 12 18.25C13.79 18.25 15.25 16.79 15.25 15C15.25 13.21 13.79 11.75 12 11.75Z" fill="#292D32"/>
<path d="M13.0704 16.8599C12.8804 16.8599 12.6904 16.7899 12.5404 16.6399L10.4304 14.5299C10.1404 14.2399 10.1404 13.7599 10.4304 13.4699C10.7204 13.1799 11.2004 13.1799 11.4904 13.4699L13.6004 15.5799C13.8904 15.8699 13.8904 16.3499 13.6004 16.6399C13.4504 16.7899 13.2604 16.8599 13.0704 16.8599Z" fill="#292D32"/>
<path d="M10.9291 16.89C10.7391 16.89 10.5491 16.82 10.3991 16.67C10.1091 16.38 10.1091 15.9 10.3991 15.61L12.5091 13.5C12.7991 13.21 13.2791 13.21 13.5691 13.5C13.8591 13.79 13.8591 14.27 13.5691 14.56L11.4591 16.67C11.3091 16.81 11.1191 16.89 10.9291 16.89Z" fill="#292D32"/>
<path d="M14.9998 22.75H8.99982C4.37982 22.75 3.51982 20.6 3.29982 18.51L2.54982 12.52C2.43982 11.44 2.39982 9.89 3.44982 8.73C4.34982 7.73 5.83982 7.25 7.99982 7.25H15.9998C18.1698 7.25 19.6598 7.74 20.5498 8.73C21.5898 9.89 21.5598 11.44 21.4498 12.5L20.6998 18.51C20.4798 20.6 19.6198 22.75 14.9998 22.75ZM7.99982 8.75C6.30982 8.75 5.14982 9.08 4.55982 9.74C4.06982 10.28 3.90982 11.11 4.03982 12.35L4.78982 18.34C4.95982 19.94 5.39982 21.26 8.99982 21.26H14.9998C18.5998 21.26 19.0398 19.95 19.2098 18.36L19.9598 12.35C20.0898 11.13 19.9298 10.3 19.4398 9.75C18.8498 9.08 17.6898 8.75 15.9998 8.75H7.99982Z" fill="#292D32"/>
<path d="M16.5 8.63005C16.09 8.63005 15.75 8.29005 15.75 7.88005V6.50005C15.75 5.45006 15.3 4.43005 14.52 3.72005C13.73 3.00005 12.7 2.67005 11.63 2.77005C9.83 2.94005 8.25 4.78005 8.25 6.70005V7.67005C8.25 8.08005 7.91 8.42005 7.5 8.42005C7.09 8.42005 6.75 8.08005 6.75 7.67005V6.69005C6.75 4.00005 8.92 1.52005 11.49 1.27005C12.99 1.13005 14.43 1.60005 15.53 2.61005C16.62 3.60005 17.25 5.02005 17.25 6.50005V7.88005C17.25 8.29005 16.91 8.63005 16.5 8.63005Z" fill="#292D32"/>
</svg>
