<svg width="24" height="24" viewBox="0 0 24 24" fill="none" xmlns="http://www.w3.org/2000/svg">
<path d="M15.9707 18.75C14.3007 18.75 12.7007 18.13 11.4707 17.02C11.3107 16.88 11.2207 16.67 11.2207 16.46C11.2207 16.25 11.3107 16.04 11.4707 15.9C12.5807 14.92 13.2207 13.5 13.2207 12C13.2207 10.5 12.5807 9.08 11.4707 8.1C11.3107 7.96 11.2207 7.76 11.2207 7.54C11.2207 7.33 11.3107 7.12 11.4707 6.98C12.7107 5.86 14.3007 5.25 15.9707 5.25C19.6907 5.25 22.7207 8.28 22.7207 12C22.7207 15.72 19.7007 18.75 15.9707 18.75ZM13.1007 16.39C13.9507 16.95 14.9407 17.25 15.9807 17.25C18.8707 17.25 21.2307 14.89 21.2307 12C21.2307 9.11 18.8707 6.75 15.9807 6.75C14.9507 6.75 13.9507 7.05 13.1007 7.61C14.1407 8.82 14.7307 10.37 14.7307 12C14.7307 13.63 14.1407 15.18 13.1007 16.39Z" fill="#292D32"/>
<path d="M7.9707 18.75C4.2507 18.75 1.2207 15.72 1.2207 12C1.2207 8.28 4.2507 5.25 7.9707 5.25C9.6407 5.25 11.2407 5.87 12.4707 6.98C13.8907 8.24 14.7207 10.07 14.7207 12C14.7207 13.93 13.9007 15.75 12.4707 17.02C11.2407 18.13 9.6407 18.75 7.9707 18.75ZM7.9707 6.75C5.0807 6.75 2.7207 9.11 2.7207 12C2.7207 14.89 5.0807 17.25 7.9707 17.25C9.2707 17.25 10.5107 16.77 11.4707 15.9C12.5907 14.91 13.2207 13.49 13.2207 12C13.2207 10.51 12.5807 9.08 11.4707 8.1C10.5107 7.23 9.2707 6.75 7.9707 6.75Z" fill="#292D32"/>
</svg>
