<svg width="24" height="24" viewBox="0 0 24 24" fill="none" xmlns="http://www.w3.org/2000/svg">
<path d="M6.44977 8.50008C6.38977 8.50008 6.32978 8.49006 6.26978 8.48006C6.07978 8.43006 5.90977 8.3101 5.80977 8.1401L4.24978 5.5801C3.86978 4.9601 3.74977 4.22008 3.92977 3.50008C4.09977 2.79008 4.53977 2.18007 5.16977 1.80007C5.78977 1.42007 6.52978 1.30006 7.24978 1.48006C7.96978 1.65006 8.56977 2.09005 8.94977 2.72005L10.5098 5.28011C10.7298 5.63011 10.6098 6.09008 10.2598 6.31008L6.83977 8.3901C6.71977 8.4601 6.58977 8.50008 6.44977 8.50008ZM6.58977 2.90011C6.35977 2.90011 6.13977 2.9601 5.94977 3.0801C5.66977 3.2501 5.46978 3.53006 5.38978 3.85006C5.30977 4.18006 5.35977 4.51006 5.52977 4.79006L6.69977 6.7101L8.83977 5.41005L7.66977 3.49007C7.49977 3.21007 7.21977 3.01007 6.89977 2.93007C6.78977 2.91007 6.68977 2.90011 6.58977 2.90011Z" fill="#292D32"/>
<path d="M11.4194 22.61C11.1194 22.61 10.8194 22.57 10.5294 22.48C9.64936 22.22 8.93936 21.6201 8.52936 20.7701L6.47936 16.5901C5.38936 14.3701 6.15937 11.7301 8.26937 10.4401L11.4294 8.52007C13.5394 7.23008 16.2494 7.76006 17.7194 9.75006L20.4894 13.49C21.0494 14.25 21.2594 15.16 21.0894 16.05C20.9194 16.94 20.3794 17.7101 19.5694 18.2001L13.1394 22.11C12.5994 22.44 12.0094 22.61 11.4194 22.61ZM13.8994 9.32006C13.3194 9.32006 12.7394 9.48004 12.1994 9.80004L9.03935 11.72C7.58935 12.6 7.06936 14.41 7.80936 15.93L9.85936 20.11C10.0894 20.57 10.4694 20.9 10.9394 21.04C11.4094 21.18 11.9094 21.1001 12.3394 20.8401L18.7694 16.93C19.2094 16.66 19.4994 16.2501 19.5994 15.7701C19.6894 15.2901 19.5794 14.8001 19.2694 14.3901L16.4994 10.6501C15.8694 9.78008 14.8994 9.32006 13.8994 9.32006Z" fill="#292D32"/>
<path d="M7.68041 12.4299C7.62041 12.4299 7.56042 12.4199 7.50042 12.4099C7.31042 12.3599 7.14041 12.2399 7.04041 12.0699L4.96043 8.64995C4.74043 8.29995 4.86043 7.83993 5.21043 7.61993L10.3304 4.49993C10.6804 4.28993 11.1504 4.39993 11.3604 4.74993L13.4404 8.16991C13.5404 8.33991 13.5804 8.53992 13.5304 8.73992C13.4804 8.92992 13.3604 9.09994 13.1904 9.19994L8.07043 12.3199C7.95043 12.3999 7.81041 12.4299 7.68041 12.4299ZM6.63042 8.51995L7.93041 10.6599L11.7704 8.31994L10.4704 6.17992L6.63042 8.51995Z" fill="#292D32"/>
<path d="M15.9594 20.2699C15.7094 20.2699 15.4594 20.1398 15.3194 19.9098L13.6694 17.1999C13.4494 16.8499 13.5694 16.3899 13.9194 16.1699C14.2694 15.9599 14.7394 16.0699 14.9494 16.4199L16.5994 19.1299C16.8194 19.4799 16.6994 19.9398 16.3494 20.1598C16.2294 20.2298 16.0894 20.2699 15.9594 20.2699Z" fill="#292D32"/>
<path d="M13.4008 21.8299C13.1508 21.8299 12.9008 21.6999 12.7608 21.4699L11.1108 18.7599C10.8908 18.4099 11.0108 17.9499 11.3608 17.7299C11.7108 17.5199 12.1808 17.6299 12.3908 17.9799L14.0408 20.6899C14.2608 21.0399 14.1408 21.4999 13.7908 21.7199C13.6708 21.7899 13.5308 21.8299 13.4008 21.8299Z" fill="#292D32"/>
<path d="M18.52 18.7101C18.27 18.7101 18.02 18.58 17.88 18.35L16.23 15.6401C16.01 15.2901 16.13 14.83 16.48 14.61C16.83 14.4 17.3 14.51 17.51 14.86L19.16 17.5701C19.38 17.9201 19.26 18.38 18.91 18.6C18.79 18.67 18.66 18.7101 18.52 18.7101Z" fill="#292D32"/>
</svg>
