<svg width="24" height="24" viewBox="0 0 24 24" fill="none" xmlns="http://www.w3.org/2000/svg">
<path d="M16.6791 20.8301C16.6691 20.8301 16.6491 20.8301 16.6391 20.8301H5.54906C2.60906 20.6201 1.28906 18.3601 1.28906 16.3401C1.28906 14.5401 2.33906 12.5401 4.62906 11.9901C3.98906 9.49008 4.52906 7.14008 6.15906 5.44008C8.00906 3.50008 10.9791 2.73008 13.5291 3.52008C15.8691 4.24008 17.5191 6.17008 18.1191 8.85008C20.1691 9.31008 21.7991 10.8601 22.4591 13.0001C23.1691 15.3301 22.5291 17.7201 20.7791 19.2501C19.6591 20.2601 18.1991 20.8301 16.6791 20.8301ZM5.56906 13.3501C5.55906 13.3501 5.55906 13.3501 5.54906 13.3501C3.64906 13.4901 2.77906 14.9501 2.77906 16.3401C2.77906 17.7301 3.64906 19.1901 5.58906 19.3301H16.6291C17.7891 19.3101 18.8991 18.9101 19.7591 18.1301C21.3191 16.7601 21.4291 14.8101 21.0091 13.4401C20.5891 12.0601 19.4191 10.5001 17.3791 10.2401C17.0491 10.2001 16.7891 9.95008 16.7291 9.62008C16.3291 7.22008 15.0291 5.56008 13.0791 4.96008C11.0491 4.34008 8.70906 4.95008 7.23906 6.48008C5.90906 7.87008 5.52906 9.79008 6.14906 11.9001C6.65906 11.9701 7.14906 12.1201 7.59906 12.3501C7.96906 12.5401 8.11906 12.9901 7.92906 13.3601C7.73906 13.7301 7.28906 13.8801 6.91906 13.6901C6.50906 13.4801 6.05906 13.3701 5.60906 13.3701C5.59906 13.3501 5.58906 13.3501 5.56906 13.3501Z" fill="#292D32"/>
<path d="M15.85 10.67C15.57 10.67 15.31 10.52 15.18 10.25C14.99 9.87998 15.15 9.42998 15.52 9.23998C16.14 8.92998 16.83 8.75998 17.51 8.74998C17.91 8.73998 18.27 9.06998 18.27 9.48998C18.28 9.89998 17.95 10.25 17.53 10.25C17.07 10.26 16.6 10.37 16.18 10.58C16.07 10.64 15.96 10.67 15.85 10.67Z" fill="#292D32"/>
</svg>
