<svg width="24" height="24" viewBox="0 0 24 24" fill="none" xmlns="http://www.w3.org/2000/svg">
<path d="M12.005 22.7326C6.08732 22.7326 1.27734 17.9227 1.27734 12.005C1.27734 6.08732 6.08732 1.27734 12.005 1.27734C17.9227 1.27734 22.7326 6.08732 22.7326 12.005C22.7326 17.9227 17.9127 22.7326 12.005 22.7326ZM12.005 2.77423C6.9156 2.77423 2.77423 6.9156 2.77423 12.005C2.77423 17.0944 6.9156 21.2358 12.005 21.2358C17.0944 21.2358 21.2358 17.0944 21.2358 12.005C21.2358 6.9156 17.0944 2.77423 12.005 2.77423Z" fill="#292D32"/>
<path d="M14.2996 12.9532C14.1 12.9532 13.9104 12.8734 13.7707 12.7337L5.60767 4.55072C5.31828 4.26133 5.31828 3.78232 5.60767 3.49293C5.89707 3.20353 6.37607 3.20353 6.66547 3.49293L13.5611 10.3985L13.5711 7.66424C13.5711 7.25509 13.9104 6.9158 14.3195 6.9158C14.7287 6.88586 15.068 7.25509 15.068 7.66424L15.058 12.2048C15.058 12.5042 14.8784 12.7836 14.5989 12.8933C14.4991 12.9333 14.3994 12.9532 14.2996 12.9532Z" fill="#292D32"/>
<path d="M17.863 20.7267C17.6734 20.7267 17.4838 20.6568 17.3341 20.5072L10.4385 13.6015L10.4285 16.3358C10.4285 16.745 10.0892 17.0843 9.68008 17.0843C9.27093 17.0843 8.93164 16.745 8.93164 16.3358L8.94162 11.7953C8.94162 11.4959 9.12125 11.2165 9.40066 11.1067C9.68008 10.987 9.99942 11.0568 10.219 11.2664L18.382 19.4494C18.6714 19.7388 18.6714 20.2178 18.382 20.5072C18.2522 20.6568 18.0526 20.7267 17.863 20.7267Z" fill="#292D32"/>
</svg>
