<svg width="24" height="24" viewBox="0 0 24 24" fill="none" xmlns="http://www.w3.org/2000/svg">
<path d="M9.6 20.75C5.21 20.75 3.25 18.79 3.25 14.4V9.6C3.25 5.21 5.21 3.25 9.6 3.25H14.4C18.79 3.25 20.75 5.21 20.75 9.6C20.75 10.01 20.41 10.35 20 10.35C19.59 10.35 19.25 10.01 19.25 9.6C19.25 6.02 17.98 4.75 14.4 4.75H9.6C6.02 4.75 4.75 6.02 4.75 9.6V14.4C4.75 17.98 6.02 19.25 9.6 19.25C10.01 19.25 10.35 19.59 10.35 20C10.35 20.41 10.01 20.75 9.6 20.75Z" fill="#292D32"/>
<path d="M7.99023 17.1C7.83023 17.1 7.66023 17.05 7.52023 16.94C6.65023 16.25 6.24023 15.15 6.24023 13.5V10.5C6.24023 7.6 7.59023 6.25 10.4902 6.25H13.4902C15.1402 6.25 16.2302 6.66 16.9302 7.53C17.1902 7.85 17.1302 8.33 16.8102 8.58C16.4902 8.84 16.0102 8.79 15.7602 8.46C15.5202 8.15 15.0202 7.75 13.5002 7.75H10.5002C8.42023 7.75 7.75023 8.42 7.75023 10.5V13.5C7.75023 15.02 8.16023 15.52 8.46023 15.76C8.78023 16.02 8.84023 16.49 8.58023 16.81C8.43023 17 8.21023 17.1 7.99023 17.1Z" fill="#292D32"/>
<path d="M8.00977 4.75C7.58977 4.75 7.25977 4.41 7.25977 4V2C7.25977 1.59 7.59977 1.25 8.00977 1.25C8.41977 1.25 8.75977 1.59 8.75977 2V4C8.75977 4.41 8.41977 4.75 8.00977 4.75Z" fill="#292D32"/>
<path d="M12 4.75C11.59 4.75 11.25 4.41 11.25 4V2C11.25 1.59 11.59 1.25 12 1.25C12.41 1.25 12.75 1.59 12.75 2V4C12.75 4.41 12.41 4.75 12 4.75Z" fill="#292D32"/>
<path d="M16 4.75C15.59 4.75 15.25 4.41 15.25 4V2C15.25 1.59 15.59 1.25 16 1.25C16.41 1.25 16.75 1.59 16.75 2V4C16.75 4.41 16.41 4.75 16 4.75Z" fill="#292D32"/>
<path d="M22 8.75H20C19.59 8.75 19.25 8.41 19.25 8C19.25 7.59 19.59 7.25 20 7.25H22C22.41 7.25 22.75 7.59 22.75 8C22.75 8.41 22.42 8.75 22 8.75Z" fill="#292D32"/>
<path d="M8.00977 22.75C7.59977 22.75 7.25977 22.41 7.25977 22V20C7.25977 19.59 7.59977 19.25 8.00977 19.25C8.41977 19.25 8.75977 19.59 8.75977 20V22C8.75977 22.41 8.41977 22.75 8.00977 22.75Z" fill="#292D32"/>
<path d="M4 8.75H2C1.59 8.75 1.25 8.42 1.25 8C1.25 7.58 1.59 7.25 2 7.25H4C4.41 7.25 4.75 7.59 4.75 8C4.75 8.41 4.42 8.75 4 8.75Z" fill="#292D32"/>
<path d="M4 12.75H2C1.59 12.75 1.25 12.41 1.25 12C1.25 11.59 1.59 11.25 2 11.25H4C4.41 11.25 4.75 11.59 4.75 12C4.75 12.41 4.42 12.75 4 12.75Z" fill="#292D32"/>
<path d="M4 16.75H2C1.59 16.75 1.25 16.41 1.25 16C1.25 15.59 1.59 15.25 2 15.25H4C4.41 15.25 4.75 15.59 4.75 16C4.75 16.41 4.42 16.75 4 16.75Z" fill="#292D32"/>
<path d="M16.7101 19.3399C15.4201 19.3399 14.3701 18.2899 14.3701 16.9999C14.3701 15.7099 15.4201 14.6599 16.7101 14.6599C18.0001 14.6599 19.0501 15.7099 19.0501 16.9999C19.0401 18.2899 18.0001 19.3399 16.7101 19.3399ZM16.7101 16.1599C16.2501 16.1599 15.8701 16.5399 15.8701 16.9999C15.8701 17.4599 16.2501 17.8399 16.7101 17.8399C17.1701 17.8399 17.5501 17.4599 17.5501 16.9999C17.5401 16.5399 17.1701 16.1599 16.7101 16.1599Z" fill="#292D32"/>
<path d="M18.4004 22.7499C17.8404 22.7499 17.2904 22.4599 16.9904 21.9399L16.9204 21.8299C16.8104 21.6399 16.7204 21.5899 16.7004 21.5799C16.6904 21.5799 16.5904 21.6399 16.4804 21.8299L16.4204 21.9299C15.9604 22.7199 14.9504 22.9799 14.1804 22.5199L13.2804 21.9999C12.8704 21.7699 12.5804 21.3899 12.4604 20.9299C12.3404 20.4799 12.4004 19.9999 12.6304 19.5999C12.7404 19.4099 12.7404 19.2999 12.7304 19.2799C12.7204 19.2699 12.6304 19.2199 12.4104 19.2199C11.4404 19.2199 10.6504 18.4299 10.6504 17.4699V16.5399C10.6504 15.5699 11.4404 14.7899 12.4004 14.7899C12.6204 14.7899 12.7104 14.7299 12.7304 14.7199C12.7304 14.7099 12.7304 14.5999 12.6204 14.4099C12.3904 13.9999 12.3204 13.5299 12.4504 13.0799C12.5704 12.6299 12.8604 12.2499 13.2704 12.0099L14.1804 11.4799C14.9404 11.0299 15.9504 11.2899 16.4004 12.0699L16.4604 12.1799C16.5704 12.3699 16.6604 12.4199 16.6804 12.4299C16.6904 12.4299 16.7904 12.3699 16.9004 12.1799L16.9604 12.0799C17.4304 11.2899 18.4304 11.0299 19.2004 11.4899L20.1304 11.9999C20.5404 12.2299 20.8304 12.6099 20.9504 13.0699C21.0704 13.5199 21.0104 13.9999 20.7804 14.3999C20.6704 14.5899 20.6704 14.6999 20.6804 14.7199C20.6904 14.7299 20.7804 14.7799 21.0004 14.7799C21.9704 14.7799 22.7604 15.5699 22.7604 16.5299V17.4599C22.7604 18.4299 21.9704 19.2099 21.0104 19.2099C20.7904 19.2099 20.7004 19.2699 20.6804 19.2799C20.6804 19.2899 20.6804 19.3999 20.7904 19.5899C21.0204 19.9999 21.0904 20.4699 20.9604 20.9199C20.8404 21.3699 20.5504 21.7499 20.1404 21.9899L19.2304 22.5199C18.9604 22.6699 18.6804 22.7499 18.4004 22.7499ZM16.7104 20.0799C17.3104 20.0799 17.8604 20.4399 18.2304 21.0799L18.2904 21.1899C18.3204 21.2399 18.4004 21.2699 18.4604 21.2299L19.3804 20.6999C19.4604 20.6599 19.4904 20.5799 19.5004 20.5399C19.5104 20.4999 19.5204 20.4299 19.4804 20.3499C19.1104 19.7199 19.0804 19.0599 19.3804 18.5399C19.6804 18.0199 20.2704 17.7199 21.0004 17.7199C21.1404 17.7199 21.2604 17.5999 21.2604 17.4699V16.5399C21.2604 16.3999 21.1404 16.2899 21.0104 16.2899C20.2804 16.2899 19.6804 15.9899 19.3904 15.4699C19.0904 14.9499 19.1304 14.2899 19.4904 13.6599C19.5404 13.5799 19.5304 13.4999 19.5104 13.4699C19.5004 13.4299 19.4704 13.3599 19.3904 13.3099L18.4804 12.7799C18.4104 12.7399 18.3304 12.7699 18.2904 12.8299L18.2404 12.9199C17.8704 13.5599 17.3204 13.9199 16.7204 13.9199C16.1204 13.9199 15.5704 13.5599 15.2004 12.9199L15.1404 12.8199C15.1104 12.7599 15.0204 12.7399 14.9704 12.7699L14.0504 13.2999C13.9704 13.3399 13.9404 13.4199 13.9304 13.4599C13.9204 13.4999 13.9104 13.5699 13.9504 13.6499C14.3204 14.2799 14.3504 14.9399 14.0504 15.4599C13.7504 15.9799 13.1604 16.2799 12.4304 16.2799C12.2904 16.2799 12.1704 16.3999 12.1704 16.5299V17.4599C12.1704 17.5999 12.2904 17.7099 12.4204 17.7099C13.1504 17.7099 13.7504 18.0099 14.0404 18.5299C14.3404 19.0499 14.3004 19.7099 13.9404 20.3399C13.9004 20.4199 13.9104 20.4899 13.9204 20.5299C13.9304 20.5699 13.9604 20.6399 14.0404 20.6899L14.9504 21.2199C15.0204 21.2599 15.1004 21.2299 15.1404 21.1699L15.1904 21.0699C15.5504 20.4399 16.1104 20.0799 16.7104 20.0799Z" fill="#292D32"/>
</svg>
