<svg width="24" height="24" viewBox="0 0 24 24" fill="none" xmlns="http://www.w3.org/2000/svg">
<path d="M12.0008 19.4201C10.4608 19.4201 8.92078 18.8301 7.75078 17.6601C5.40078 15.3101 5.40078 11.5001 7.75078 9.15015C8.89078 8.01015 10.4008 7.39014 12.0008 7.39014C13.6008 7.39014 15.1208 8.02015 16.2508 9.15015C18.6008 11.5001 18.6008 15.3101 16.2508 17.6601C15.0808 18.8301 13.5408 19.4201 12.0008 19.4201ZM12.0008 8.90015C10.8008 8.90015 9.66078 9.37009 8.81078 10.2201C7.05078 11.9801 7.05078 14.8401 8.81078 16.6001C10.5708 18.3601 13.4308 18.3501 15.1908 16.6001C16.9508 14.8401 16.9508 11.9801 15.1908 10.2201C14.3408 9.37009 13.2008 8.90015 12.0008 8.90015Z" fill="#292D32"/>
<path d="M10.4096 15.7498C10.2196 15.7498 10.0196 15.6799 9.87961 15.5299C9.58961 15.2399 9.58961 14.7599 9.87961 14.4599L11.4696 12.8698C11.7596 12.5798 12.2396 12.5798 12.5396 12.8698C12.8296 13.1598 12.8296 13.6399 12.5396 13.9399L10.9496 15.5299C10.7896 15.6799 10.5996 15.7498 10.4096 15.7498Z" fill="#292D32"/>
<path d="M18.7909 7.51001C18.5509 7.51001 18.3309 7.42 18.1609 7.25C17.8109 6.9 17.8109 6.32999 18.1609 5.98999C18.3309 5.81999 18.5509 5.72998 18.7909 5.72998C19.0309 5.72998 19.2509 5.81999 19.4209 5.98999C19.5909 6.15999 19.6809 6.38 19.6809 6.62C19.6809 6.86 19.5909 7.08 19.4209 7.25C19.2609 7.42 19.0309 7.51001 18.7909 7.51001ZM18.7209 6.53998V6.69C18.7409 6.71 18.7709 6.71997 18.8009 6.71997C18.9209 6.64997 18.9209 6.57998 18.8709 6.53998H18.7209Z" fill="#292D32"/>
<path d="M18.7904 7.75977C18.4804 7.75977 18.2004 7.63974 17.9804 7.41974C17.5404 6.97974 17.5404 6.24974 17.9804 5.79974C18.2004 5.57974 18.4804 5.46973 18.7904 5.46973C19.1004 5.46973 19.3804 5.58975 19.6004 5.80975C19.8204 6.02975 19.9304 6.30975 19.9304 6.61975C19.9304 6.92975 19.8104 7.20975 19.5904 7.42975C19.3904 7.63975 19.1004 7.75977 18.7904 7.75977ZM18.5404 6.86975C18.6104 6.93975 18.7004 6.96973 18.7904 6.96973C18.8804 6.96973 18.9704 6.92975 19.0404 6.86975C19.1804 6.72975 19.1804 6.50975 19.0404 6.36975C18.9104 6.23975 18.6704 6.23975 18.5404 6.36975C18.4804 6.42975 18.4404 6.51975 18.4404 6.61975C18.4404 6.70975 18.4704 6.79975 18.5404 6.86975Z" fill="#292D32"/>
<path d="M5.2103 21.0901C4.9803 21.0901 4.75029 21.0001 4.58029 20.8301C4.41029 20.6601 4.32031 20.4301 4.32031 20.2001C4.32031 19.9601 4.41029 19.7401 4.58029 19.5701C4.75029 19.4001 4.9703 19.3101 5.2103 19.3101C5.4503 19.3101 5.6703 19.4001 5.8403 19.5701C6.1903 19.9201 6.1903 20.4901 5.8403 20.8301C5.6703 21.0001 5.4403 21.0901 5.2103 21.0901ZM5.19031 20.1C5.17031 20.1 5.15031 20.1101 5.13031 20.1301C5.09031 20.1701 5.09031 20.2401 5.13031 20.2801C5.15031 20.3001 5.18032 20.3101 5.20032 20.3101L5.30029 20.2101C5.27029 20.1201 5.23031 20.1 5.19031 20.1Z" fill="#292D32"/>
<path d="M5.21054 21.3401C4.92054 21.3401 4.62054 21.2301 4.40054 21.0101C4.18054 20.7901 4.06055 20.5001 4.06055 20.2001C4.06055 19.8901 4.18054 19.6101 4.40054 19.3901C4.61054 19.1801 4.90054 19.0601 5.21054 19.0601C5.52054 19.0601 5.80054 19.1801 6.02054 19.4001C6.47054 19.8501 6.47054 20.5701 6.02054 21.0201C5.80054 21.2301 5.50054 21.3401 5.21054 21.3401ZM5.21054 19.8401C5.12054 19.8401 5.03054 19.8701 4.96054 19.9401C4.82054 20.0801 4.82054 20.3001 4.96054 20.4401C5.03054 20.5101 5.12054 20.54 5.21054 20.54C5.30054 20.54 5.40054 20.5001 5.46054 20.4301C5.52054 20.3701 5.56055 20.2801 5.56055 20.1801C5.56055 20.0901 5.52054 19.9901 5.46054 19.9301C5.39054 19.8801 5.30054 19.8401 5.21054 19.8401Z" fill="#292D32"/>
<path d="M21.5995 14.2997C21.3695 14.2997 21.1395 14.2097 20.9695 14.0397C20.6195 13.6897 20.6195 13.1198 20.9695 12.7698C21.1395 12.5998 21.3695 12.5598 21.5995 12.5098C21.8395 12.5098 22.0595 12.5998 22.2295 12.7698C22.5795 13.1198 22.5795 13.6897 22.2295 14.0397C22.0595 14.2097 21.8295 14.2997 21.5995 14.2997ZM21.5295 13.4797C21.5495 13.4997 21.5795 13.5098 21.6095 13.5098C21.7195 13.4398 21.7195 13.3698 21.6795 13.3298C21.6395 13.2898 21.5695 13.2898 21.5295 13.3298C21.4895 13.3698 21.4895 13.4397 21.5295 13.4797Z" fill="#292D32"/>
<path d="M21.6006 14.5497C21.3106 14.5497 21.0106 14.4397 20.7906 14.2197C20.3406 13.7697 20.3406 13.0497 20.7906 12.5997C21.0106 12.3797 21.2906 12.2598 21.6006 12.2598C21.9106 12.2598 22.1906 12.3797 22.4106 12.5997C22.8606 13.0497 22.8606 13.7697 22.4106 14.2197C22.1906 14.4397 21.9006 14.5497 21.6006 14.5497ZM21.3506 13.6597C21.4206 13.7297 21.5106 13.7598 21.6006 13.7598C21.6906 13.7598 21.7806 13.7197 21.8506 13.6597C21.9906 13.5197 21.9906 13.2997 21.8506 13.1597C21.7106 13.0197 21.4906 13.0197 21.3506 13.1597C21.2206 13.2897 21.2106 13.5197 21.3506 13.6597Z" fill="#292D32"/>
<path d="M2.40032 14.3003C2.17032 14.3003 1.94031 14.2103 1.77031 14.0403C1.42031 13.6903 1.42031 13.1203 1.77031 12.7703C2.12031 12.4203 2.69033 12.4203 3.04033 12.7703C3.39033 13.1203 3.39033 13.6903 3.04033 14.0403C2.85033 14.2103 2.62032 14.3003 2.40032 14.3003ZM2.32033 13.4803C2.36033 13.5203 2.43032 13.5203 2.47032 13.4803C2.51032 13.4403 2.51032 13.3703 2.47032 13.3303C2.43032 13.2903 2.36033 13.2903 2.32033 13.3303C2.28033 13.3703 2.28033 13.4403 2.32033 13.4803Z" fill="#292D32"/>
<path d="M2.39945 14.5499C2.10945 14.5499 1.80945 14.4399 1.58945 14.2199C1.13945 13.7699 1.13945 13.0499 1.58945 12.5999C2.03945 12.1499 2.76945 12.1599 3.20945 12.5999C3.65945 13.0499 3.65945 13.7699 3.20945 14.2199C2.97945 14.4399 2.68945 14.5499 2.39945 14.5499ZM2.13947 13.6599C2.27947 13.7999 2.49947 13.7999 2.63947 13.6599C2.77947 13.5199 2.77947 13.2899 2.63947 13.1599C2.49947 13.0199 2.27947 13.0199 2.13947 13.1599C2.00947 13.2899 2.00947 13.5199 2.13947 13.6599Z" fill="#292D32"/>
<path d="M18.7909 21.0899C18.5609 21.0899 18.3309 20.9999 18.1609 20.8299C17.8109 20.4799 17.8109 19.9099 18.1609 19.5599C18.5109 19.2099 19.0809 19.2099 19.4309 19.5599C19.6009 19.7299 19.6909 19.9499 19.6909 20.1899C19.6909 20.4299 19.6009 20.6499 19.4309 20.8199C19.2509 20.9999 19.0209 21.0899 18.7909 21.0899ZM18.7909 20.0899C18.7609 20.0899 18.7409 20.0999 18.7209 20.1199V20.2699C18.7609 20.3099 18.8309 20.3099 18.8709 20.2699C18.9109 20.2299 18.9109 20.1599 18.8709 20.1199C18.8409 20.0999 18.8209 20.0899 18.7909 20.0899Z" fill="#292D32"/>
<path d="M18.7901 21.3402C18.5001 21.3402 18.2001 21.2302 17.9801 21.0102C17.5301 20.5602 17.5301 19.8402 17.9801 19.3902C18.4301 18.9402 19.1501 18.9402 19.6001 19.3902C19.8201 19.6102 19.9401 19.8902 19.9401 20.2002C19.9401 20.5102 19.8201 20.7902 19.6001 21.0102C19.3801 21.2302 19.0801 21.3402 18.7901 21.3402ZM18.5401 20.4502C18.6801 20.5902 18.9001 20.5902 19.0401 20.4502C19.1801 20.3102 19.1801 20.0902 19.0401 19.9502C18.9001 19.8102 18.6801 19.8102 18.5401 19.9502C18.4701 20.0202 18.4401 20.1102 18.4401 20.2002C18.4401 20.2902 18.4701 20.3802 18.5401 20.4502Z" fill="#292D32"/>
<path d="M5.2103 7.51001C4.9703 7.51001 4.75029 7.42 4.58029 7.25C4.41029 7.08 4.32031 6.86 4.32031 6.62C4.32031 6.38 4.41029 6.15999 4.58029 5.98999C4.75029 5.81999 4.9703 5.72998 5.2103 5.72998C5.4503 5.72998 5.6703 5.81999 5.8403 5.98999C6.1903 6.33999 6.1903 6.91001 5.8403 7.26001C5.6703 7.42001 5.4503 7.51001 5.2103 7.51001ZM5.13031 6.69C5.15031 6.71 5.18032 6.71997 5.20032 6.71997L5.30029 6.62L5.20032 6.52002C5.09032 6.58002 5.09031 6.65 5.13031 6.69Z" fill="#292D32"/>
<path d="M5.2103 7.75977C4.9003 7.75977 4.6203 7.63974 4.4003 7.41974C4.1903 7.20974 4.07031 6.91974 4.07031 6.60974C4.07031 6.29974 4.19031 6.01974 4.41031 5.79974C4.62031 5.58974 4.91031 5.46973 5.22031 5.46973C5.53031 5.46973 5.8103 5.58975 6.0303 5.80975C6.4703 6.25975 6.4703 6.97975 6.0303 7.42975C5.8003 7.63975 5.5203 7.75977 5.2103 7.75977ZM4.9603 6.86975C5.0303 6.93975 5.1203 6.97974 5.2103 6.97974C5.3003 6.97974 5.3903 6.93976 5.4603 6.87976C5.5303 6.81976 5.5603 6.71976 5.5603 6.62976C5.5603 6.53976 5.52032 6.43976 5.45032 6.37976C5.33032 6.24976 5.08032 6.24976 4.95032 6.37976C4.82032 6.49976 4.8203 6.72975 4.9603 6.86975Z" fill="#292D32"/>
<path d="M11.9994 4.7C11.7594 4.7 11.5394 4.60999 11.3694 4.43999C11.1994 4.26999 11.1094 4.04999 11.1094 3.80999C11.1094 3.56999 11.1994 3.34998 11.3694 3.17998C11.7194 2.82998 12.2894 2.82998 12.6394 3.17998C12.9894 3.52998 12.9894 4.09999 12.6394 4.43999C12.4694 4.59999 12.2394 4.7 11.9994 4.7ZM12.0694 3.72997L11.9194 3.87999C11.9594 3.91999 12.0294 3.91999 12.0694 3.87999V3.72997ZM11.9294 3.72997C11.8894 3.76997 11.8894 3.83999 11.9294 3.87999L12.0794 3.72997H11.9294Z" fill="#292D32"/>
<path d="M11.9994 4.94987C11.6894 4.94987 11.4094 4.82984 11.1894 4.60984C10.9794 4.39984 10.8594 4.10984 10.8594 3.79984C10.8594 3.48984 10.9794 3.20984 11.1994 2.98984C11.6494 2.53984 12.3694 2.53984 12.8194 2.98984C13.2594 3.43984 13.2594 4.15984 12.8194 4.60984C12.5994 4.82984 12.3094 4.94987 11.9994 4.94987ZM12.2494 3.54984L11.7494 4.04984C11.8894 4.18984 12.1094 4.18984 12.2494 4.04984C12.3194 3.97984 12.3494 3.88984 12.3494 3.79984C12.3494 3.70984 12.3194 3.61984 12.2494 3.54984ZM11.9994 3.44987C11.9094 3.44987 11.8094 3.48985 11.7494 3.55985C11.6094 3.69985 11.6094 3.91985 11.7494 4.05985L12.2494 3.55985C12.1894 3.48985 12.0994 3.44987 11.9994 3.44987Z" fill="#292D32"/>
</svg>
