<svg width="24" height="24" viewBox="0 0 24 24" fill="none" xmlns="http://www.w3.org/2000/svg">
<path d="M17.74 22.7498H7.63C7.31 22.7498 7.03 22.5498 6.92 22.2598C6.81 21.9598 6.9 21.6297 7.14 21.4297C7.38 21.2297 7.6 20.9698 7.76 20.6898C8.08 20.1798 8.24 19.5998 8.24 19.0098C8.24 17.2198 6.78 15.7598 4.99 15.7598C4.25 15.7598 3.55 16.0097 2.96 16.4797C2.73 16.6597 2.43 16.6898 2.17 16.5698C1.91 16.4498 1.75 16.1798 1.75 15.8898V11.5198C1.75 9.02978 3.77 7.00977 6.26 7.00977H17.74C20.23 7.00977 22.25 9.02978 22.25 11.5198V12.9598C22.25 13.3698 21.91 13.7098 21.5 13.7098H19.48C19.13 13.7098 18.81 13.8398 18.58 14.0798L18.57 14.0898C18.29 14.3598 18.16 14.7297 18.19 15.1097C18.25 15.7697 18.88 16.2997 19.6 16.2997H21.5C21.91 16.2997 22.25 16.6397 22.25 17.0497V18.2397C22.25 20.7297 20.23 22.7498 17.74 22.7498ZM9.18 21.2498H17.74C19.4 21.2498 20.75 19.8997 20.75 18.2397V17.7997H19.6C18.09 17.7997 16.81 16.6797 16.69 15.2397C16.61 14.4197 16.91 13.6098 17.51 13.0198C18.03 12.4898 18.73 12.1998 19.48 12.1998H20.75V11.5098C20.75 9.84977 19.4 8.49976 17.74 8.49976H6.26C4.6 8.49976 3.25 9.84977 3.25 11.5098V14.5898C3.81 14.3698 4.4 14.2498 5 14.2498C7.62 14.2498 9.75 16.3798 9.75 18.9998C9.75 19.7898 9.55 20.5698 9.18 21.2498Z" fill="#292D32"/>
<path d="M2.5 13.16C2.09 13.16 1.75 12.82 1.75 12.41V7.84006C1.75 6.35006 2.69 5.00001 4.08 4.47001L12.02 1.47001C12.83 1.16001 13.75 1.27005 14.46 1.77005C15.18 2.27005 15.6 3.08005 15.6 3.95005V7.75003C15.6 8.16003 15.26 8.50003 14.85 8.50003C14.44 8.50003 14.1 8.16003 14.1 7.75003V3.95005C14.1 3.57005 13.92 3.22003 13.6 3.00003C13.28 2.78003 12.9 2.73003 12.54 2.87003L4.6 5.87003C3.79 6.18003 3.24 6.97006 3.24 7.84006V12.41C3.25 12.83 2.91 13.16 2.5 13.16Z" fill="#292D32"/>
<path d="M19.6005 17.8002C18.0905 17.8002 16.8105 16.6802 16.6905 15.2402C16.6105 14.4102 16.9105 13.6002 17.5105 13.0102C18.0205 12.4902 18.7205 12.2002 19.4705 12.2002H21.5505C22.5405 12.2302 23.3005 13.0102 23.3005 13.9702V16.0302C23.3005 16.9902 22.5405 17.7702 21.5805 17.8002H19.6005ZM21.5305 13.7002H19.4805C19.1305 13.7002 18.8105 13.8302 18.5805 14.0702C18.2905 14.3502 18.1505 14.7302 18.1905 15.1102C18.2505 15.7702 18.8805 16.3002 19.6005 16.3002H21.5605C21.6905 16.3002 21.8105 16.1802 21.8105 16.0302V13.9702C21.8105 13.8202 21.6905 13.7102 21.5305 13.7002Z" fill="#292D32"/>
<path d="M14 12.75H7C6.59 12.75 6.25 12.41 6.25 12C6.25 11.59 6.59 11.25 7 11.25H14C14.41 11.25 14.75 11.59 14.75 12C14.75 12.41 14.41 12.75 14 12.75Z" fill="#292D32"/>
<path d="M5 23.75C3.34 23.75 1.78 22.87 0.940002 21.44C0.490002 20.72 0.25 19.87 0.25 19C0.25 17.54 0.899999 16.19 2.03 15.29C2.87 14.62 3.93 14.25 5 14.25C7.62 14.25 9.75 16.38 9.75 19C9.75 19.87 9.51 20.72 9.06 21.45C8.82 21.87 8.49 22.25 8.11 22.57C7.28 23.33 6.17 23.75 5 23.75ZM5 15.75C4.26 15.75 3.56 16 2.97 16.47C2.2 17.08 1.75 18.01 1.75 19C1.75 19.59 1.91 20.17 2.22 20.67C2.81 21.67 3.85 22.25 5 22.25C5.79 22.25 6.55 21.96 7.13 21.44C7.39 21.22 7.61 20.96 7.77 20.68C8.09 20.17 8.25 19.59 8.25 19C8.25 17.21 6.79 15.75 5 15.75Z" fill="#292D32"/>
<path d="M6.49 19.73H3.5C3.09 19.73 2.75 19.39 2.75 18.98C2.75 18.57 3.09 18.23 3.5 18.23H6.49C6.9 18.23 7.24 18.57 7.24 18.98C7.24 19.39 6.91 19.73 6.49 19.73Z" fill="#292D32"/>
<path d="M5 21.26C4.59 21.26 4.25 20.92 4.25 20.51V17.52C4.25 17.11 4.59 16.77 5 16.77C5.41 16.77 5.75 17.11 5.75 17.52V20.51C5.75 20.93 5.41 21.26 5 21.26Z" fill="#292D32"/>
</svg>
