<svg width="24" height="24" viewBox="0 0 24 24" fill="none" xmlns="http://www.w3.org/2000/svg">
<path d="M10.9308 22.75C10.4508 22.75 9.97082 22.63 9.53082 22.39C8.64082 21.89 8.11078 21 8.11078 19.99V14.64C8.11078 14.13 7.78076 13.38 7.47076 12.99L3.67078 9.00003C3.04078 8.37003 2.55078 7.27002 2.55078 6.46002V4.14005C2.55078 2.53005 3.7708 1.27002 5.3208 1.27002H18.6608C20.1908 1.27002 21.4308 2.51004 21.4308 4.04004V6.26004C21.4308 7.31004 20.8008 8.52002 20.2008 9.11002C19.9108 9.40002 19.4308 9.40002 19.1408 9.11002C18.8508 8.82002 18.8508 8.34002 19.1408 8.05002C19.5108 7.68002 19.9308 6.85004 19.9308 6.26004V4.04004C19.9308 3.34004 19.3608 2.77002 18.6608 2.77002H5.3208C4.6108 2.77002 4.05078 3.37005 4.05078 4.14005V6.46002C4.05078 6.83002 4.35078 7.56004 4.74078 7.95004L8.59082 12C9.10082 12.63 9.60077 13.69 9.60077 14.64V19.99C9.60077 20.65 10.0508 20.97 10.2508 21.08C10.6808 21.32 11.1908 21.31 11.5908 21.07L12.9908 20.17C13.2808 20 13.5608 19.45 13.5608 19.08C13.5608 18.67 13.9008 18.33 14.3108 18.33C14.7208 18.33 15.0608 18.67 15.0608 19.08C15.0608 19.98 14.5008 21.01 13.7908 21.44L12.4008 22.34C11.9508 22.61 11.4408 22.75 10.9308 22.75Z" fill="#292D32"/>
<path d="M16.0711 17.2701C13.8911 17.2701 12.1211 15.5001 12.1211 13.3201C12.1211 11.1401 13.8911 9.37012 16.0711 9.37012C18.2511 9.37012 20.0211 11.1401 20.0211 13.3201C20.0211 15.5001 18.2511 17.2701 16.0711 17.2701ZM16.0711 10.8701C14.7211 10.8701 13.6211 11.9701 13.6211 13.3201C13.6211 14.6701 14.7211 15.7701 16.0711 15.7701C17.4211 15.7701 18.5211 14.6701 18.5211 13.3201C18.5211 11.9701 17.4211 10.8701 16.0711 10.8701Z" fill="#292D32"/>
<path d="M19.8705 17.8701C19.6805 17.8701 19.4905 17.8001 19.3405 17.6501L18.3405 16.6501C18.0505 16.3601 18.0505 15.8801 18.3405 15.5901C18.6305 15.3001 19.1105 15.3001 19.4005 15.5901L20.4005 16.5901C20.6905 16.8801 20.6905 17.3601 20.4005 17.6501C20.2605 17.7901 20.0605 17.8701 19.8705 17.8701Z" fill="#292D32"/>
</svg>
