<svg width="24" height="24" viewBox="0 0 24 24" fill="none" xmlns="http://www.w3.org/2000/svg">
<path d="M11.0693 18.1701C10.8993 18.1701 10.7393 18.1401 10.5693 18.0801C10.0193 17.8701 9.65934 17.3601 9.65934 16.7701V13.4701H8.67934C8.11934 13.4701 7.62934 13.1501 7.39934 12.6501C7.16934 12.1401 7.25934 11.5701 7.62934 11.1501L11.8893 6.31012C12.2793 5.87012 12.8793 5.72012 13.4293 5.93012C13.9793 6.14012 14.3393 6.65012 14.3393 7.24012V10.5401H15.3293C15.8893 10.5401 16.3793 10.8601 16.6093 11.3601C16.8393 11.8701 16.7493 12.4401 16.3793 12.8601L12.1193 17.7001C11.8393 18.0001 11.4593 18.1701 11.0693 18.1701ZM8.89934 11.9701H10.4093C10.8193 11.9701 11.1593 12.3101 11.1593 12.7201V16.5001L15.0993 12.0301H13.5893C13.1793 12.0301 12.8393 11.6901 12.8393 11.2801V7.50012L8.89934 11.9701Z" fill="#292D32"/>
<path d="M11.9707 22.75C6.0507 22.75 1.2207 17.93 1.2207 12C1.2207 6.07 6.0507 1.25 11.9707 1.25C17.8907 1.25 22.7207 6.07 22.7207 12C22.7207 17.93 17.9007 22.75 11.9707 22.75ZM11.9707 2.75C6.8707 2.75 2.7207 6.9 2.7207 12C2.7207 17.1 6.8707 21.25 11.9707 21.25C17.0707 21.25 21.2207 17.1 21.2207 12C21.2207 6.9 17.0707 2.75 11.9707 2.75Z" fill="#292D32"/>
</svg>
