<svg width="24" height="24" viewBox="0 0 24 24" fill="none" xmlns="http://www.w3.org/2000/svg">
<path d="M9.99057 22.7499C9.79057 22.7499 9.63057 22.7099 9.51057 22.6599C9.11057 22.5099 8.43057 22.0199 8.43057 20.4699V14.0199H6.09057C4.75057 14.0199 4.27057 13.3899 4.10057 13.0199C3.93057 12.6399 3.78057 11.8699 4.66057 10.8599L12.2306 2.25988C13.2506 1.09988 14.0806 1.17988 14.4806 1.32988C14.8806 1.47988 15.5606 1.96988 15.5606 3.51988V9.96988H17.9006C19.2406 9.96988 19.7206 10.5999 19.8906 10.9699C20.0606 11.3499 20.2106 12.1199 19.3306 13.1299L11.7606 21.7299C11.0506 22.5399 10.4306 22.7499 9.99057 22.7499ZM13.9306 2.73988C13.9006 2.77988 13.6906 2.87988 13.3606 3.25988L5.79057 11.8599C5.51057 12.1799 5.47057 12.3799 5.47057 12.4199C5.49057 12.4299 5.67057 12.5299 6.09057 12.5299H9.18057C9.59057 12.5299 9.93057 12.8699 9.93057 13.2799V20.4799C9.93057 20.9799 10.0206 21.1999 10.0606 21.2599C10.0906 21.2199 10.3006 21.1199 10.6306 20.7399L18.2006 12.1399C18.4806 11.8199 18.5206 11.6199 18.5206 11.5799C18.5006 11.5699 18.3206 11.4699 17.9006 11.4699H14.8106C14.4006 11.4699 14.0606 11.1299 14.0606 10.7199V3.51988C14.0706 3.01988 13.9706 2.80988 13.9306 2.73988Z" fill="#292D32"/>
</svg>
