<svg width="24" height="24" viewBox="0 0 24 24" fill="none" xmlns="http://www.w3.org/2000/svg">
<path d="M13.8109 16.4799C13.6209 16.4799 13.4309 16.4099 13.2809 16.2599L9.74094 12.7199C9.45094 12.4299 9.45094 11.9499 9.74094 11.6599C10.0309 11.3699 10.5109 11.3699 10.8009 11.6599L14.3409 15.1999C14.6309 15.4899 14.6309 15.9699 14.3409 16.2599C14.1909 16.3999 14.0009 16.4799 13.8109 16.4799Z" fill="#292D32"/>
<path d="M10.2299 16.5199C10.0399 16.5199 9.84992 16.4499 9.69992 16.2999C9.40992 16.0099 9.40992 15.5299 9.69992 15.2399L13.2399 11.6999C13.5299 11.4099 14.0099 11.4099 14.2999 11.6999C14.5899 11.9899 14.5899 12.4699 14.2999 12.7599L10.7599 16.2999C10.6199 16.4399 10.4199 16.5199 10.2299 16.5199Z" fill="#292D32"/>
<path d="M17 22.75H7C2.59 22.75 1.25 21.41 1.25 17V7C1.25 2.59 2.59 1.25 7 1.25H8.5C10.25 1.25 10.8 1.82 11.5 2.75L13 4.75C13.33 5.19 13.38 5.25 14 5.25H17C21.41 5.25 22.75 6.59 22.75 11V17C22.75 21.41 21.41 22.75 17 22.75ZM7 2.75C3.43 2.75 2.75 3.43 2.75 7V17C2.75 20.57 3.43 21.25 7 21.25H17C20.57 21.25 21.25 20.57 21.25 17V11C21.25 7.43 20.57 6.75 17 6.75H14C12.72 6.75 12.3 6.31 11.8 5.65L10.3 3.65C9.78 2.96 9.63 2.75 8.5 2.75H7Z" fill="#292D32"/>
</svg>
