<svg width="24" height="24" viewBox="0 0 24 24" fill="none" xmlns="http://www.w3.org/2000/svg">
<path d="M9 10.75C7.48 10.75 6.25 9.52 6.25 8C6.25 6.48 7.48 5.25 9 5.25C10.52 5.25 11.75 6.48 11.75 8C11.75 9.52 10.52 10.75 9 10.75ZM9 6.75C8.31 6.75 7.75 7.31 7.75 8C7.75 8.69 8.31 9.25 9 9.25C9.69 9.25 10.25 8.69 10.25 8C10.25 7.31 9.69 6.75 9 6.75Z" fill="#292D32"/>
<path d="M15 22.75H9C3.57 22.75 1.25 20.43 1.25 15V9C1.25 3.57 3.57 1.25 9 1.25H12C12.41 1.25 12.75 1.59 12.75 2C12.75 2.41 12.41 2.75 12 2.75H9C4.39 2.75 2.75 4.39 2.75 9V15C2.75 19.61 4.39 21.25 9 21.25H15C19.61 21.25 21.25 19.61 21.25 15V11C21.25 10.59 21.59 10.25 22 10.25C22.41 10.25 22.75 10.59 22.75 11V15C22.75 20.43 20.43 22.75 15 22.75Z" fill="#292D32"/>
<path d="M18.9395 8.35994C18.0695 8.35994 16.0295 7.28994 15.3995 5.33994C14.9695 3.98994 15.4695 2.21994 17.0295 1.71994C17.6895 1.50994 18.3795 1.59994 18.9295 1.93994C19.4695 1.59994 20.1795 1.49994 20.8495 1.71994C22.4095 2.21994 22.9095 3.98994 22.4795 5.33994C21.8495 7.32994 19.7095 8.35994 18.9395 8.35994ZM16.8295 4.87994C17.2595 6.20994 18.6995 6.82994 18.9595 6.85994C19.2495 6.82994 20.6595 6.12994 21.0495 4.87994C21.2595 4.20994 21.0495 3.35994 20.3895 3.13994C20.1095 3.04994 19.7395 3.09994 19.5695 3.35994C19.4295 3.56994 19.1995 3.69994 18.9595 3.69994C18.7295 3.69994 18.4795 3.58994 18.3395 3.38994C18.1295 3.09994 17.7595 3.05994 17.4995 3.13994C16.8295 3.35994 16.6195 4.20994 16.8295 4.87994Z" fill="#292D32"/>
<path d="M2.67075 19.7001C2.43075 19.7001 2.19075 19.5801 2.05075 19.3701C1.82075 19.0301 1.91075 18.5601 2.26075 18.3301L7.19075 15.0201C8.27075 14.2901 9.76075 14.3801 10.7407 15.2101L11.0707 15.5001C11.5707 15.9301 12.4207 15.9301 12.9107 15.5001L17.0707 11.9301C18.1307 11.0201 19.8007 11.0201 20.8707 11.9301L22.5007 13.3301C22.8107 13.6001 22.8507 14.0701 22.5807 14.3901C22.3107 14.7001 21.8407 14.7401 21.5207 14.4701L19.8907 13.0701C19.3907 12.6401 18.5407 12.6401 18.0407 13.0701L13.8807 16.6401C12.8207 17.5501 11.1507 17.5501 10.0807 16.6401L9.75075 16.3501C9.29075 15.9601 8.53075 15.9201 8.02075 16.2701L3.09075 19.5801C2.96075 19.6601 2.81075 19.7001 2.67075 19.7001Z" fill="#292D32"/>
</svg>
