<svg width="24" height="24" viewBox="0 0 24 24" fill="none" xmlns="http://www.w3.org/2000/svg">
<path d="M6.51996 16.2599C6.32996 16.2599 6.13996 16.1899 5.98996 16.0399C5.69996 15.7499 5.69996 15.2699 5.98996 14.9799L9.03996 11.9299C9.32996 11.6399 9.80996 11.6399 10.1 11.9299C10.39 12.2199 10.39 12.6999 10.1 12.9899L7.04996 16.0399C6.89996 16.1799 6.70996 16.2599 6.51996 16.2599Z" fill="#292D32"/>
<path d="M9.60023 16.2899C9.41023 16.2899 9.22023 16.2199 9.07023 16.0699L6.02023 13.0199C5.73023 12.7299 5.73023 12.2499 6.02023 11.9599C6.31023 11.6699 6.79023 11.6699 7.08023 11.9599L10.1302 15.0099C10.4202 15.2999 10.4202 15.7799 10.1302 16.0699C9.98023 16.2199 9.79023 16.2899 9.60023 16.2899Z" fill="#292D32"/>
<path d="M13.5403 15C12.9903 15 12.5303 14.55 12.5303 14C12.5303 13.45 12.9703 13 13.5203 13H13.5403C14.0903 13 14.5403 13.45 14.5403 14C14.5403 14.55 14.1003 15 13.5403 15Z" fill="#292D32"/>
<path d="M17.4797 15C16.9297 15 16.4697 14.55 16.4697 14C16.4697 13.45 16.9097 13 17.4597 13H17.4797C18.0297 13 18.4797 13.45 18.4797 14C18.4797 14.55 18.0297 15 17.4797 15Z" fill="#292D32"/>
<path d="M15.5 16.97C14.95 16.97 14.5 16.53 14.5 15.98V15.96C14.5 15.41 14.95 14.96 15.5 14.96C16.05 14.96 16.5 15.41 16.5 15.96C16.5 16.51 16.06 16.97 15.5 16.97Z" fill="#292D32"/>
<path d="M15.5 13.03C14.95 13.03 14.5 12.59 14.5 12.04V12.02C14.5 11.47 14.95 11.02 15.5 11.02C16.05 11.02 16.5 11.47 16.5 12.02C16.5 12.57 16.06 13.03 15.5 13.03Z" fill="#292D32"/>
<path d="M15 22.75H9C3.57 22.75 1.25 20.43 1.25 15V13C1.25 7.57 3.57 5.25 9 5.25H15C20.43 5.25 22.75 7.57 22.75 13V15C22.75 20.43 20.43 22.75 15 22.75ZM9 6.75C4.39 6.75 2.75 8.39 2.75 13V15C2.75 19.61 4.39 21.25 9 21.25H15C19.61 21.25 21.25 19.61 21.25 15V13C21.25 8.39 19.61 6.75 15 6.75H9Z" fill="#292D32"/>
<path d="M12.9902 6.75H11.9902C11.0302 6.75 10.2402 5.96 10.2402 5C10.2402 4.04 11.0202 3.25 11.9802 3.25C12.1402 3.25 12.2502 3.14 12.2602 3L12.2702 1.99C12.2802 1.58 12.6102 1.25 13.0202 1.25H13.0302C13.4402 1.26 13.7802 1.6 13.7702 2.01L13.7602 3.02C13.7502 3.97 12.9602 4.75 12.0102 4.75C11.8502 4.75 11.7502 4.86 11.7502 5C11.7502 5.14 11.8602 5.25 12.0002 5.25H13.0002C13.4102 5.25 13.7502 5.59 13.7502 6C13.7502 6.41 13.4002 6.75 12.9902 6.75Z" fill="#292D32"/>
</svg>
