<svg width="24" height="24" viewBox="0 0 24 24" fill="none" xmlns="http://www.w3.org/2000/svg">
<path d="M6.10999 18.2501C5.92999 18.2501 5.73998 18.1801 5.59998 18.0501C3.61998 16.1901 1.25 13.0601 1.25 8.69012C1.25 5.19012 4.08 2.3501 7.56 2.3501C9.25 2.3501 10.83 3.01012 12 4.19012C13.17 3.01012 14.75 2.3501 16.44 2.3501C17.7 2.3501 18.92 2.73011 19.97 3.43011C20.31 3.66011 20.4 4.13009 20.17 4.47009C19.94 4.81009 19.47 4.9001 19.13 4.6701C18.34 4.13011 17.41 3.84015 16.45 3.84015C14.93 3.84015 13.52 4.55015 12.61 5.78015C12.33 6.16015 11.69 6.16015 11.41 5.78015C10.49 4.55015 9.09001 3.84015 7.57001 3.84015C4.92001 3.84015 2.76001 6.01011 2.76001 8.68011C2.76001 12.5201 4.87001 15.2901 6.64001 16.9501C6.94001 17.2301 6.95999 17.7101 6.67999 18.0101C6.50999 18.1701 6.30999 18.2501 6.10999 18.2501Z" fill="#292D32"/>
<path d="M11.9994 21.6501C11.6894 21.6501 11.3894 21.6101 11.1394 21.5201C10.3894 21.2601 9.49942 20.8401 8.63942 20.3301C8.27942 20.1201 8.16941 19.66 8.37941 19.3C8.58941 18.95 9.04938 18.83 9.40938 19.04C10.1894 19.5 10.9794 19.88 11.6294 20.1C11.8094 20.16 12.1994 20.16 12.3794 20.1C14.6794 19.31 21.2594 15.52 21.2594 8.68005C21.2594 8.18005 21.1794 7.69002 21.0394 7.22002C20.9194 6.82002 21.1294 6.40008 21.5294 6.28008C21.9294 6.16008 22.3494 6.38007 22.4694 6.77007C22.6594 7.39007 22.7594 8.03005 22.7594 8.68005C22.7594 15.56 16.6894 20.2001 12.8694 21.5101C12.6094 21.6101 12.3094 21.6501 11.9994 21.6501Z" fill="#292D32"/>
<path d="M1.99948 22.75C1.80948 22.75 1.61945 22.68 1.46945 22.53C1.17945 22.24 1.17945 21.7599 1.46945 21.4699L21.4695 1.46994C21.7595 1.17994 22.2395 1.17994 22.5295 1.46994C22.8195 1.75994 22.8195 2.24 22.5295 2.53L2.52951 22.53C2.37951 22.68 2.18948 22.75 1.99948 22.75Z" fill="#292D32"/>
</svg>
