<svg width="24" height="24" viewBox="0 0 24 24" fill="none" xmlns="http://www.w3.org/2000/svg">
<path d="M15 22.75H9C3.57 22.75 1.25 20.43 1.25 15V9C1.25 3.57 3.57 1.25 9 1.25H15C20.43 1.25 22.75 3.57 22.75 9V15C22.75 20.43 20.43 22.75 15 22.75ZM9 2.75C4.39 2.75 2.75 4.39 2.75 9V15C2.75 19.61 4.39 21.25 9 21.25H15C19.61 21.25 21.25 19.61 21.25 15V9C21.25 4.39 19.61 2.75 15 2.75H9Z" fill="#292D32"/>
<path d="M8.80974 18.2501C8.73974 18.2501 8.65974 18.2501 8.58974 18.2301L7.39974 18.0701C6.67974 17.9701 6.04974 17.3501 5.93974 16.6101L5.76974 15.4001C5.69974 14.9201 5.89974 14.3101 6.24974 13.9501L8.52974 11.6701C8.18974 10.0501 8.67974 8.37007 9.86974 7.19007C11.7797 5.28007 14.8997 5.28007 16.8097 7.19007C17.7397 8.12007 18.2497 9.35007 18.2497 10.6601C18.2497 11.9701 17.7397 13.2101 16.8097 14.1301C15.6197 15.3101 13.9397 15.8001 12.3297 15.4601L10.0397 17.7401C9.74974 18.0501 9.25974 18.2501 8.80974 18.2501ZM13.3397 7.25007C12.4697 7.25007 11.5897 7.58007 10.9297 8.25007C10.0297 9.15007 9.70974 10.4601 10.0797 11.6801C10.1597 11.9501 10.0897 12.2301 9.88974 12.4301L7.30974 15.0101C7.28974 15.0401 7.24974 15.1501 7.24974 15.1901L7.41974 16.3901C7.42974 16.4501 7.53974 16.5601 7.59974 16.5701L8.79974 16.7401C8.84974 16.7301 8.94974 16.7101 8.97974 16.6801L11.5697 14.0901C11.7697 13.8901 12.0597 13.8301 12.3197 13.9101C13.5297 14.2901 14.8397 13.9701 15.7397 13.0701C16.3797 12.4301 16.7397 11.5701 16.7397 10.6601C16.7397 9.75007 16.3897 8.89007 15.7397 8.25007C15.0897 7.59007 14.2097 7.25007 13.3397 7.25007Z" fill="#292D32"/>
<path d="M10.4493 17.0301C10.2593 17.0301 10.0693 16.9601 9.9193 16.8101L9.0593 15.9501C8.7693 15.6601 8.7693 15.1801 9.0593 14.8901C9.3493 14.6001 9.8293 14.6001 10.1193 14.8901L10.9793 15.7501C11.2693 16.0401 11.2693 16.5201 10.9793 16.8101C10.8393 16.9601 10.6493 17.0301 10.4493 17.0301Z" fill="#292D32"/>
<path d="M13.3791 11.8001C13.2391 11.8001 13.1091 11.7801 12.9891 11.7301C12.8691 11.6801 12.7591 11.6001 12.6691 11.5101C12.4791 11.3201 12.3691 11.0701 12.3691 10.8001C12.3691 10.5401 12.4791 10.2801 12.6691 10.1001C12.8991 9.86012 13.2491 9.75012 13.5691 9.82012C13.6291 9.84012 13.6991 9.85012 13.7591 9.88012C13.8191 9.91012 13.8791 9.94012 13.9291 9.97012C13.9791 10.0101 14.0391 10.0501 14.0791 10.1001C14.2691 10.2801 14.3791 10.5401 14.3791 10.8001C14.3791 10.9401 14.3491 11.0601 14.2991 11.1901C14.2491 11.3101 14.1791 11.4201 14.0791 11.5101C13.8891 11.7001 13.6391 11.8001 13.3791 11.8001Z" fill="#292D32"/>
</svg>
