<svg width="24" height="24" viewBox="0 0 24 24" fill="none" xmlns="http://www.w3.org/2000/svg">
<path d="M14.75 11.75H9.25C8.84 11.75 8.5 11.41 8.5 11C8.5 10.59 8.84 10.25 9.25 10.25H14.75C15.16 10.25 15.5 10.59 15.5 11C15.5 11.41 15.16 11.75 14.75 11.75Z" fill="#292D32"/>
<path d="M12 14.5C11.59 14.5 11.25 14.16 11.25 13.75V8.25C11.25 7.84 11.59 7.5 12 7.5C12.41 7.5 12.75 7.84 12.75 8.25V13.75C12.75 14.16 12.41 14.5 12 14.5Z" fill="#292D32"/>
<path d="M11.9997 22.76C10.5197 22.76 9.02969 22.2 7.86969 21.09C4.91969 18.25 1.65969 13.72 2.88969 8.33C3.99969 3.44 8.26969 1.25 11.9997 1.25C11.9997 1.25 11.9997 1.25 12.0097 1.25C15.7397 1.25 20.0097 3.44 21.1197 8.34C22.3397 13.73 19.0797 18.25 16.1297 21.09C14.9697 22.2 13.4797 22.76 11.9997 22.76ZM11.9997 2.75C9.08969 2.75 5.34969 4.3 4.35969 8.66C3.27969 13.37 6.23969 17.43 8.91969 20C10.6497 21.67 13.3597 21.67 15.0897 20C17.7597 17.43 20.7197 13.37 19.6597 8.66C18.6597 4.3 14.9097 2.75 11.9997 2.75Z" fill="#292D32"/>
</svg>
