<svg width="24" height="24" viewBox="0 0 24 24" fill="none" xmlns="http://www.w3.org/2000/svg">
<path d="M12 22.7797C11.31 22.7797 10.66 22.4297 10.2 21.8197L8.70001 19.8197C8.67001 19.7797 8.54999 19.7197 8.48999 19.7197H8C3.83 19.7197 1.25 18.5897 1.25 12.9697V7.96973C1.25 3.54973 3.58 1.21973 8 1.21973H16C20.42 1.21973 22.75 3.54973 22.75 7.96973V12.9697C22.75 13.3797 22.41 13.7197 22 13.7197C21.59 13.7197 21.25 13.3797 21.25 12.9697V7.96973C21.25 4.38973 19.58 2.71973 16 2.71973H8C4.42 2.71973 2.75 4.38973 2.75 7.96973V12.9697C2.75 17.4897 4.3 18.2197 8 18.2197H8.5C9.01 18.2197 9.59999 18.5097 9.89999 18.9197L11.4 20.9197C11.75 21.3797 12.25 21.3797 12.6 20.9197C12.85 20.5897 13.32 20.5197 13.65 20.7697C13.98 21.0197 14.05 21.4897 13.8 21.8197C13.34 22.4297 12.69 22.7797 12 22.7797Z" fill="#292D32"/>
<path d="M12 11.9697C11.44 11.9697 11 11.5197 11 10.9697C11 10.4197 11.45 9.96973 12 9.96973C12.55 9.96973 13 10.4197 13 10.9697C13 11.5197 12.56 11.9697 12 11.9697Z" fill="#292D32"/>
<path d="M16 11.9697C15.44 11.9697 15 11.5197 15 10.9697C15 10.4197 15.45 9.96973 16 9.96973C16.55 9.96973 17 10.4197 17 10.9697C17 11.5197 16.56 11.9697 16 11.9697Z" fill="#292D32"/>
<path d="M8 11.9697C7.44 11.9697 7 11.5197 7 10.9697C7 10.4197 7.45 9.96973 8 9.96973C8.55 9.96973 9 10.4197 9 10.9697C9 11.5197 8.56 11.9697 8 11.9697Z" fill="#292D32"/>
<path d="M18.2 22.15C16.02 22.15 14.25 20.38 14.25 18.2C14.25 16.02 16.02 14.25 18.2 14.25C20.38 14.25 22.15 16.02 22.15 18.2C22.15 20.38 20.38 22.15 18.2 22.15ZM18.2 15.75C16.85 15.75 15.75 16.85 15.75 18.2C15.75 19.55 16.85 20.65 18.2 20.65C19.55 20.65 20.65 19.55 20.65 18.2C20.65 16.85 19.55 15.75 18.2 15.75Z" fill="#292D32"/>
<path d="M21.9995 22.7499C21.8095 22.7499 21.6195 22.6799 21.4695 22.5299L20.4695 21.5299C20.1795 21.2399 20.1795 20.7599 20.4695 20.4699C20.7595 20.1799 21.2395 20.1799 21.5295 20.4699L22.5295 21.4699C22.8195 21.7599 22.8195 22.2399 22.5295 22.5299C22.3795 22.6799 22.1895 22.7499 21.9995 22.7499Z" fill="#292D32"/>
</svg>
