<svg width="24" height="24" viewBox="0 0 24 24" fill="none" xmlns="http://www.w3.org/2000/svg">
<path d="M15.0301 11.5199C14.7901 11.5199 14.5501 11.3999 14.4101 11.1899L11.2101 6.40994C11.1001 6.23994 11.0601 6.03994 11.1001 5.84994C11.1401 5.65994 11.2501 5.47993 11.4201 5.36993L17.0801 1.57992C17.5201 1.27992 18.0501 1.17993 18.5701 1.27993C19.0901 1.37993 19.5401 1.67993 19.8401 2.11993L21.6601 4.82992C22.2701 5.73992 22.0301 6.97993 21.1101 7.58993L15.4601 11.3799C15.3201 11.4799 15.1801 11.5199 15.0301 11.5199ZM12.8801 6.19995L15.2401 9.72995L20.2701 6.35992C20.5001 6.20992 20.5601 5.89993 20.4001 5.67993L18.5801 2.96994C18.5101 2.85994 18.4001 2.78994 18.2701 2.75994C18.1401 2.72994 18.0101 2.75992 17.9001 2.82992L12.8801 6.19995Z" fill="#292D32"/>
<path d="M9.93973 14.24C9.69973 14.24 9.45973 14.12 9.31973 13.91L6.75973 10.09C6.52973 9.75002 6.61973 9.28001 6.96973 9.05001L11.7497 5.85003C11.9197 5.74003 12.1197 5.70001 12.3097 5.74001C12.5097 5.78001 12.6797 5.89002 12.7897 6.06002L15.3497 9.88003C15.5797 10.22 15.4897 10.69 15.1397 10.92L10.3597 14.12C10.2297 14.2 10.0797 14.24 9.93973 14.24ZM8.41973 9.88003L10.1397 12.45L13.6697 10.09L11.9497 7.51003L8.41973 9.88003Z" fill="#292D32"/>
<path d="M5.28039 16.82C4.72039 16.82 4.16039 16.55 3.82039 16.04L2.69039 14.36C2.43039 13.97 2.34039 13.51 2.43039 13.05C2.52039 12.59 2.78039 12.2 3.17039 11.94L7.12039 9.30001C7.46039 9.07001 7.9304 9.16003 8.1604 9.51003L10.4004 12.85C10.6304 13.19 10.5404 13.66 10.1904 13.89L6.24039 16.53C5.95039 16.72 5.61039 16.82 5.28039 16.82ZM7.33039 10.95L4.01039 13.17C3.90039 13.25 3.86039 13.4 3.94039 13.52L5.07039 15.2C5.15039 15.31 5.30039 15.35 5.42039 15.27L8.74039 13.05L7.33039 10.95Z" fill="#292D32"/>
<path d="M7.56019 22.7498C7.46019 22.7498 7.3502 22.7298 7.2502 22.6798C6.8702 22.5098 6.71019 22.0599 6.88019 21.6899L11.3702 11.8899C11.5402 11.5099 11.9902 11.3498 12.3602 11.5198C12.7402 11.6898 12.9002 12.1399 12.7302 12.5099L8.24019 22.3098C8.11019 22.5898 7.84019 22.7498 7.56019 22.7498Z" fill="#292D32"/>
<path d="M16.44 22.75C16.15 22.75 15.88 22.59 15.76 22.31L11.32 12.51C11.15 12.13 11.32 11.69 11.69 11.52C12.06 11.35 12.51 11.52 12.68 11.89L17.12 21.69C17.29 22.07 17.12 22.51 16.75 22.68C16.65 22.73 16.55 22.75 16.44 22.75Z" fill="#292D32"/>
</svg>
