<svg width="24" height="24" viewBox="0 0 24 24" fill="none" xmlns="http://www.w3.org/2000/svg">
<path d="M14.35 21.75H8.65C3.46 21.75 1.25 19.54 1.25 14.35V8.65002C1.25 3.46002 3.46 1.25 8.65 1.25H14.35C19.54 1.25 21.75 3.46002 21.75 8.65002V14.35C21.75 14.71 21.74 15.05 21.72 15.38C21.7 15.68 21.5 15.94 21.21 16.04C20.92 16.14 20.61 16.05 20.4 15.83C19.8 15.15 18.92 14.75 17.99 14.75C16.2 14.75 14.74 16.21 14.74 18C14.74 18.59 14.9 19.17 15.21 19.67C15.37 19.95 15.58 20.2 15.82 20.41C16.05 20.61 16.14 20.93 16.04 21.21C15.94 21.5 15.68 21.7 15.38 21.72C15.06 21.74 14.72 21.75 14.35 21.75ZM8.65 2.75C4.29 2.75 2.75 4.29002 2.75 8.65002V14.35C2.75 18.71 4.29 20.25 8.65 20.25H13.82C13.45 19.57 13.25 18.8 13.25 18C13.25 15.38 15.38 13.25 18 13.25C18.8 13.25 19.57 13.45 20.25 13.81V8.65002C20.25 4.29002 18.71 2.75 14.35 2.75H8.65Z" fill="#292D32"/>
<path d="M6.71954 15.17C5.50954 15.17 4.51953 14.18 4.51953 12.97C4.51953 11.76 5.50954 10.77 6.71954 10.77C7.92954 10.77 8.91953 11.76 8.91953 12.97C8.91953 14.18 7.92954 15.17 6.71954 15.17ZM6.71954 12.27C6.33954 12.27 6.01953 12.58 6.01953 12.97C6.01953 13.35 6.32954 13.67 6.71954 13.67C7.10954 13.67 7.41953 13.36 7.41953 12.97C7.41953 12.58 7.10954 12.27 6.71954 12.27Z" fill="#292D32"/>
<path d="M8.16992 13.7199C7.75992 13.7199 7.41992 13.3799 7.41992 12.9699V7.13993C7.41992 6.22993 7.98992 5.48992 8.85992 5.24992L11.7599 4.45994C12.6599 4.20994 13.2299 4.44992 13.5399 4.68992C13.8499 4.92992 14.2299 5.40994 14.2299 6.33994V11.9999C14.2299 12.4099 13.8899 12.7499 13.4799 12.7499C13.0699 12.7499 12.7299 12.4099 12.7299 11.9999V6.33994C12.7299 6.01994 12.6599 5.89992 12.6299 5.87992C12.5999 5.85992 12.4499 5.81994 12.1499 5.89994L9.25993 6.68992C8.95993 6.76992 8.91992 6.97992 8.91992 7.12992V12.9599C8.91992 13.3799 8.57992 13.7199 8.16992 13.7199Z" fill="#292D32"/>
<path d="M12.0301 14.1998C10.8201 14.1998 9.83008 13.2098 9.83008 11.9998C9.83008 10.7898 10.8201 9.7998 12.0301 9.7998C13.2401 9.7998 14.2301 10.7898 14.2301 11.9998C14.2301 13.2198 13.2401 14.1998 12.0301 14.1998ZM12.0301 11.3098C11.6501 11.3098 11.3301 11.6198 11.3301 12.0098C11.3301 12.3898 11.6401 12.7098 12.0301 12.7098C12.4201 12.7098 12.7301 12.3998 12.7301 12.0098C12.7301 11.6198 12.4101 11.3098 12.0301 11.3098Z" fill="#292D32"/>
<path d="M8.17055 9.58008C7.84055 9.58008 7.54055 9.36009 7.45055 9.03009C7.34055 8.63009 7.58055 8.22005 7.98055 8.11005L13.2905 6.66003C13.6905 6.56003 14.1005 6.79006 14.2105 7.19006C14.3205 7.59006 14.0805 8.00005 13.6805 8.11005L8.37055 9.56006C8.30055 9.57006 8.23055 9.58008 8.17055 9.58008Z" fill="#292D32"/>
<path d="M18 22.75C16.82 22.75 15.7 22.31 14.83 21.52C14.48 21.22 14.17 20.85 13.93 20.44C13.49 19.72 13.25 18.87 13.25 18C13.25 15.38 15.38 13.25 18 13.25C19.36 13.25 20.65 13.83 21.53 14.83C22.31 15.7 22.75 16.82 22.75 18C22.75 18.87 22.51 19.72 22.06 20.45C21.22 21.87 19.66 22.75 18 22.75ZM18 14.75C16.21 14.75 14.75 16.21 14.75 18C14.75 18.59 14.91 19.17 15.22 19.67C15.38 19.95 15.59 20.2 15.83 20.41C16.43 20.96 17.2 21.26 18 21.26C19.15 21.26 20.19 20.67 20.78 19.69C21.09 19.18 21.25 18.61 21.25 18.01C21.25 17.21 20.95 16.44 20.41 15.84C19.81 15.14 18.93 14.75 18 14.75Z" fill="#292D32"/>
<path d="M19.0704 19.7901C18.8804 19.7901 18.6904 19.7201 18.5404 19.5701L16.4304 17.4601C16.1404 17.1701 16.1404 16.6901 16.4304 16.4001C16.7204 16.1101 17.2004 16.1101 17.4904 16.4001L19.6004 18.5101C19.8904 18.8001 19.8904 19.2801 19.6004 19.5701C19.4504 19.7201 19.2604 19.7901 19.0704 19.7901Z" fill="#292D32"/>
<path d="M16.9311 19.8199C16.7411 19.8199 16.5511 19.7499 16.4011 19.5999C16.1111 19.3099 16.1111 18.8299 16.4011 18.5399L18.5111 16.4299C18.8011 16.1399 19.2811 16.1399 19.5711 16.4299C19.8611 16.7199 19.8611 17.1999 19.5711 17.4899L17.4611 19.5999C17.3111 19.7499 17.1211 19.8199 16.9311 19.8199Z" fill="#292D32"/>
</svg>
