<svg width="24" height="24" viewBox="0 0 24 24" fill="none" xmlns="http://www.w3.org/2000/svg">
<path d="M2.57962 9.42023C2.49962 9.42023 2.40962 9.41025 2.32962 9.38025C1.93962 9.24025 1.73963 8.81023 1.86963 8.42023C2.53963 6.54023 3.69964 4.89026 5.24964 3.64026C5.56964 3.38026 6.03962 3.43025 6.29962 3.75025C6.55962 4.07025 6.50964 4.54025 6.18964 4.81025C4.85964 5.88025 3.85964 7.30023 3.28964 8.92023C3.17964 9.23023 2.88962 9.42023 2.57962 9.42023Z" fill="#292D32"/>
<path d="M2.57999 16.08C2.26999 16.08 1.98 15.89 1.87 15.58C1.46 14.41 1.25 13.21 1.25 12C1.25 11.59 1.59 11.25 2 11.25C2.41 11.25 2.75 11.59 2.75 12C2.75 13.04 2.93001 14.08 3.29001 15.08C3.43001 15.47 3.21999 15.9 2.82999 16.04C2.74999 16.07 2.65999 16.08 2.57999 16.08Z" fill="#292D32"/>
<path d="M12.0006 22.7501C10.9406 22.7501 9.89059 22.5901 8.87059 22.2801C8.47059 22.1601 8.25059 21.7401 8.37059 21.3401C8.49059 20.9401 8.9106 20.7201 9.3106 20.8401C10.1806 21.1101 11.0906 21.24 12.0006 21.24C17.1006 21.24 21.2506 17.09 21.2506 11.99C21.2506 11.47 21.2006 10.93 21.1006 10.36C21.0306 9.95004 21.3006 9.56004 21.7106 9.49004C22.1206 9.42004 22.5106 9.69003 22.5806 10.1C22.7006 10.76 22.7606 11.3801 22.7606 12.0001C22.7506 17.9301 17.9306 22.7501 12.0006 22.7501Z" fill="#292D32"/>
<path d="M5.72022 20.5001C5.55022 20.5001 5.39022 20.4501 5.25022 20.3301C4.68022 19.8701 4.22021 19.43 3.83021 18.98C3.56021 18.67 3.60022 18.19 3.91022 17.92C4.22022 17.65 4.70022 17.6901 4.97022 18.0001C5.30022 18.3801 5.70022 18.76 6.19022 19.16C6.51022 19.42 6.56021 19.8901 6.30021 20.2101C6.16021 20.4001 5.94022 20.5001 5.72022 20.5001Z" fill="#292D32"/>
<path d="M20.2404 7.09003C20.0004 7.09003 19.7704 6.98001 19.6204 6.76001C17.8904 4.24001 15.0404 2.73999 12.0004 2.73999C11.0904 2.73999 10.1804 2.87001 9.3104 3.14001C8.9204 3.26001 8.5004 3.04001 8.3704 2.64001C8.2404 2.24001 8.4704 1.82001 8.8704 1.70001C9.8904 1.39001 10.9404 1.22998 12.0004 1.22998C15.5404 1.22998 18.8504 2.98002 20.8604 5.90002C21.0904 6.24002 21.0104 6.71 20.6704 6.94C20.5404 7.05 20.3904 7.09003 20.2404 7.09003Z" fill="#292D32"/>
<path d="M8.59 17.8597C7.3 17.8597 6.25 16.8097 6.25 15.5197C6.25 14.2297 7.3 13.1797 8.59 13.1797C9.88 13.1797 10.93 14.2297 10.93 15.5197C10.93 16.8097 9.88 17.8597 8.59 17.8597ZM8.59 14.6797C8.13 14.6797 7.75 15.0597 7.75 15.5197C7.75 15.9797 8.13 16.3597 8.59 16.3597C9.05 16.3597 9.42999 15.9797 9.42999 15.5197C9.42999 15.0597 9.05 14.6797 8.59 14.6797Z" fill="#292D32"/>
<path d="M10.1797 16.2697C9.76969 16.2697 9.42969 15.9297 9.42969 15.5197V9.11972C9.42969 8.15972 10.0297 7.36972 10.9597 7.11972L14.1397 6.24972C15.0997 5.98972 15.6997 6.23971 16.0297 6.48971C16.5097 6.85971 16.7497 7.44972 16.7497 8.24972V14.4597C16.7497 14.8697 16.4097 15.2097 15.9997 15.2097C15.5897 15.2097 15.2497 14.8697 15.2497 14.4597V8.24972C15.2497 7.90972 15.1797 7.72972 15.1097 7.68972C15.0397 7.63972 14.8297 7.61973 14.5197 7.69973L11.3397 8.56973C11.0597 8.64973 10.9197 8.82972 10.9197 9.11972V15.5197C10.9297 15.9297 10.5897 16.2697 10.1797 16.2697Z" fill="#292D32"/>
<path d="M14.4103 16.8001C13.1203 16.8001 12.0703 15.7501 12.0703 14.4601C12.0703 13.1701 13.1203 12.1201 14.4103 12.1201C15.7003 12.1201 16.7503 13.1701 16.7503 14.4601C16.7503 15.7501 15.7003 16.8001 14.4103 16.8001ZM14.4103 13.6201C13.9503 13.6201 13.5703 14.0001 13.5703 14.4601C13.5703 14.9201 13.9503 15.3001 14.4103 15.3001C14.8703 15.3001 15.2503 14.9201 15.2503 14.4601C15.2503 14.0001 14.8703 13.6201 14.4103 13.6201Z" fill="#292D32"/>
<path d="M10.1803 11.4998C9.85031 11.4998 9.55031 11.2798 9.46031 10.9498C9.35031 10.5498 9.59031 10.1398 9.99031 10.0298L15.8103 8.43981C16.2103 8.32981 16.6203 8.56977 16.7303 8.96977C16.8403 9.36977 16.6003 9.77982 16.2003 9.88982L10.3803 11.4798C10.3103 11.4998 10.2403 11.4998 10.1803 11.4998Z" fill="#292D32"/>
</svg>
