<svg width="24" height="24" viewBox="0 0 24 24" fill="none" xmlns="http://www.w3.org/2000/svg">
<path d="M19.42 11.75H16C15.59 11.75 15.25 11.41 15.25 11V4.01C15.25 3.27 15.54 2.58 16.06 2.06C16.58 1.54 17.27 1.25 18.01 1.25H18.02C19.27 1.26 20.45 1.75 21.35 2.64C22.25 3.55 22.74 4.75 22.74 6V8.42C22.75 10.41 21.41 11.75 19.42 11.75ZM16.75 10.25H19.42C20.58 10.25 21.25 9.58 21.25 8.42V6C21.25 5.14 20.91 4.32 20.3 3.7C19.69 3.1 18.87 2.76 18.02 2.75C18.02 2.75 18.02 2.75 18.01 2.75C17.68 2.75 17.36 2.88 17.12 3.12C16.88 3.36 16.75 3.67 16.75 4.01V10.25Z" fill="#292D32"/>
<path d="M8.99977 23.33C8.52977 23.33 8.08977 23.15 7.75977 22.81L6.09977 21.14C6.00977 21.05 5.86977 21.04 5.76977 21.12L4.05977 22.4C3.52977 22.8 2.82977 22.87 2.22977 22.57C1.62977 22.27 1.25977 21.67 1.25977 21V6C1.25977 2.98 2.98977 1.25 6.00977 1.25H18.0098C18.4198 1.25 18.7598 1.59 18.7598 2C18.7598 2.41 18.4198 2.75 18.0098 2.75C17.3198 2.75 16.7598 3.31 16.7598 4V21C16.7598 21.67 16.3898 22.27 15.7898 22.57C15.1898 22.87 14.4898 22.81 13.9598 22.41L12.2498 21.13C12.1498 21.05 12.0098 21.07 11.9298 21.15L10.2498 22.83C9.90977 23.15 9.46977 23.33 8.99977 23.33ZM5.90977 19.57C6.36977 19.57 6.81977 19.74 7.15977 20.09L8.81977 21.76C8.87977 21.82 8.95977 21.83 8.99977 21.83C9.03977 21.83 9.11977 21.82 9.17977 21.76L10.8598 20.08C11.4798 19.46 12.4598 19.4 13.1498 19.93L14.8498 21.2C14.9598 21.28 15.0598 21.25 15.1098 21.22C15.1598 21.19 15.2498 21.13 15.2498 21V4C15.2498 3.55 15.3598 3.12 15.5498 2.75H5.99977C3.77977 2.75 2.74977 3.78 2.74977 6V21C2.74977 21.14 2.83977 21.2 2.88977 21.23C2.94977 21.26 3.04977 21.28 3.14977 21.2L4.85977 19.92C5.16977 19.69 5.53977 19.57 5.90977 19.57Z" fill="#292D32"/>
<path d="M11.4297 14.0801C10.8697 14.0801 10.4297 13.6301 10.4297 13.0801C10.4297 12.5301 10.8797 12.0801 11.4297 12.0801C11.9797 12.0801 12.4297 12.5301 12.4297 13.0801C12.4297 13.6301 11.9797 14.0801 11.4297 14.0801Z" fill="#292D32"/>
<path d="M6.57031 10.0303C6.01031 10.0303 5.57031 9.58027 5.57031 9.03027C5.57031 8.48027 6.02031 8.03027 6.57031 8.03027C7.12031 8.03027 7.57031 8.48027 7.57031 9.03027C7.57031 9.58027 7.12031 10.0303 6.57031 10.0303Z" fill="#292D32"/>
<path d="M6.27094 14.48C6.08094 14.48 5.89094 14.41 5.74094 14.26C5.45094 13.97 5.45094 13.49 5.74094 13.2L11.2009 7.73996C11.4909 7.44996 11.9709 7.44996 12.2609 7.73996C12.5509 8.02996 12.5509 8.50996 12.2609 8.79996L6.80094 14.26C6.66094 14.4 6.46094 14.48 6.27094 14.48Z" fill="#292D32"/>
</svg>
