<svg width="24" height="24" viewBox="0 0 24 24" fill="none" xmlns="http://www.w3.org/2000/svg">
<path d="M11.9707 22.75C6.0507 22.75 1.2207 17.93 1.2207 12C1.2207 6.07 6.0507 1.25 11.9707 1.25C17.8907 1.25 22.7207 6.07 22.7207 12C22.7207 17.93 17.9007 22.75 11.9707 22.75ZM11.9707 2.75C6.8707 2.75 2.7207 6.9 2.7207 12C2.7207 17.1 6.8707 21.25 11.9707 21.25C17.0707 21.25 21.2207 17.1 21.2207 12C21.2207 6.9 17.0707 2.75 11.9707 2.75Z" fill="#292D32"/>
<path d="M11.9995 16.98C9.24953 16.98 7.01953 14.75 7.01953 12C7.01953 9.25002 9.24953 7.02002 11.9995 7.02002C14.7495 7.02002 16.9795 9.25002 16.9795 12C16.9795 14.75 14.7495 16.98 11.9995 16.98ZM11.9995 8.52002C10.0795 8.52002 8.51953 10.08 8.51953 12C8.51953 13.92 10.0795 15.48 11.9995 15.48C13.9195 15.48 15.4795 13.92 15.4795 12C15.4795 10.08 13.9195 8.52002 11.9995 8.52002Z" fill="#292D32"/>
</svg>
