<svg width="24" height="24" viewBox="0 0 24 24" fill="none" xmlns="http://www.w3.org/2000/svg">
<path d="M14.2002 12.45H9.2002C8.7902 12.45 8.4502 12.11 8.4502 11.7C8.4502 11.29 8.7902 10.95 9.2002 10.95H14.2002C14.6102 10.95 14.9502 11.29 14.9502 11.7C14.9502 12.11 14.6102 12.45 14.2002 12.45Z" fill="#292D32"/>
<path d="M11.7002 14.95C11.2902 14.95 10.9502 14.61 10.9502 14.2V9.19995C10.9502 8.78995 11.2902 8.44995 11.7002 8.44995C12.1102 8.44995 12.4502 8.78995 12.4502 9.19995V14.2C12.4502 14.61 12.1102 14.95 11.7002 14.95Z" fill="#292D32"/>
<path d="M11.5 21.75C5.85 21.75 1.25 17.15 1.25 11.5C1.25 5.85 5.85 1.25 11.5 1.25C17.15 1.25 21.75 5.85 21.75 11.5C21.75 17.15 17.15 21.75 11.5 21.75ZM11.5 2.75C6.67 2.75 2.75 6.68 2.75 11.5C2.75 16.32 6.67 20.25 11.5 20.25C16.33 20.25 20.25 16.32 20.25 11.5C20.25 6.68 16.33 2.75 11.5 2.75Z" fill="#292D32"/>
<path d="M22.0004 22.7499C21.8104 22.7499 21.6204 22.6799 21.4704 22.5299L19.4704 20.5299C19.1804 20.2399 19.1804 19.7599 19.4704 19.4699C19.7604 19.1799 20.2404 19.1799 20.5304 19.4699L22.5304 21.4699C22.8204 21.7599 22.8204 22.2399 22.5304 22.5299C22.3804 22.6799 22.1904 22.7499 22.0004 22.7499Z" fill="#292D32"/>
</svg>
