<svg width="24" height="24" viewBox="0 0 24 24" fill="none" xmlns="http://www.w3.org/2000/svg">
<path d="M10.5598 22.7097C9.47977 22.7097 8.38977 22.3997 7.54977 21.7697L3.26978 18.5697C2.13978 17.7297 1.25977 15.9597 1.25977 14.5397V7.12973C1.25977 5.59973 2.37978 3.96972 3.81978 3.42972L8.79977 1.55973C9.78977 1.18973 11.3398 1.18973 12.3298 1.55973L17.2998 3.42972C18.4698 3.86972 19.4598 5.03973 19.7798 6.33973C19.8298 6.55973 19.7798 6.79974 19.6398 6.97974C19.4998 7.15974 19.2798 7.26972 19.0498 7.26972L11.1398 7.27973C9.86977 7.35973 9.55977 7.56974 9.55977 9.41974V14.8497C9.55977 16.7597 9.80977 16.9997 11.7498 16.9997H17.6698C17.9798 16.9997 18.2598 17.1897 18.3698 17.4797C18.4798 17.7697 18.3998 18.0997 18.1698 18.3097C18.0598 18.3997 17.9698 18.4897 17.8598 18.5697L13.5798 21.7797C12.7198 22.3997 11.6398 22.7097 10.5598 22.7097ZM10.5598 2.78974C10.1098 2.78974 9.64978 2.84974 9.31978 2.97974L4.33977 4.84974C3.49977 5.16973 2.74977 6.23972 2.74977 7.14972V14.5597C2.74977 15.4997 3.40977 16.8197 4.15977 17.3797L8.43977 20.5797C9.58977 21.4297 11.5198 21.4297 12.6698 20.5797L15.4398 18.5097H11.7398C8.97978 18.5097 8.04977 17.5897 8.04977 14.8597V9.42972C8.04977 7.29972 8.55977 5.94974 11.0898 5.78974L11.7398 5.77973H17.8898C17.5898 5.34973 17.1898 5.00974 16.7698 4.84974L11.7998 2.97974C11.4598 2.84974 11.0098 2.78974 10.5598 2.78974Z" fill="#292D32"/>
<path d="M22.0008 11.9697H8.80078C8.39078 11.9697 8.05078 11.6297 8.05078 11.2197C8.05078 10.8097 8.39078 10.4697 8.80078 10.4697H22.0008C22.4108 10.4697 22.7508 10.8097 22.7508 11.2197C22.7508 11.6297 22.4108 11.9697 22.0008 11.9697Z" fill="#292D32"/>
<path d="M19.0608 18.5H11.7408C8.98078 18.5 8.05078 17.58 8.05078 14.85V9.42004C8.05078 7.29004 8.56077 5.94003 11.0908 5.78003L11.7408 5.77002H19.0608C21.8208 5.77002 22.7508 6.69004 22.7508 9.42004V14.97C22.7308 17.61 21.8008 18.5 19.0608 18.5ZM11.7408 7.27002L11.1308 7.28003C9.86078 7.36003 9.55078 7.57004 9.55078 9.42004V14.85C9.55078 16.76 9.80078 17 11.7408 17H19.0608C20.9708 17 21.2308 16.75 21.2508 14.97V9.43002C21.2508 7.52002 21.0008 7.28003 19.0608 7.28003H11.7408V7.27002Z" fill="#292D32"/>
<path d="M12.6505 16.0098H11.3105C10.9005 16.0098 10.5605 15.6698 10.5605 15.2598C10.5605 14.8498 10.9005 14.5098 11.3105 14.5098H12.6505C13.0605 14.5098 13.4005 14.8498 13.4005 15.2598C13.4005 15.6698 13.0705 16.0098 12.6505 16.0098Z" fill="#292D32"/>
<path d="M18.02 16.0098H14.75C14.34 16.0098 14 15.6698 14 15.2598C14 14.8498 14.34 14.5098 14.75 14.5098H18.02C18.43 14.5098 18.77 14.8498 18.77 15.2598C18.77 15.6698 18.44 16.0098 18.02 16.0098Z" fill="#292D32"/>
</svg>
