<svg width="24" height="24" viewBox="0 0 24 24" fill="none" xmlns="http://www.w3.org/2000/svg">
<path d="M12.0001 22.7601C10.9101 22.7601 9.83012 22.4401 8.98012 21.8101L7.39012 20.6201C7.06012 20.3701 6.99012 19.9001 7.24012 19.5701C7.49012 19.2401 7.96012 19.1701 8.29012 19.4201L9.88012 20.6101C11.0301 21.4701 12.9801 21.4701 14.1301 20.6101L18.4301 17.4001C19.1901 16.8301 19.8501 15.5001 19.8501 14.5601V7.12012C19.8501 6.71012 20.1901 6.37012 20.6001 6.37012C21.0101 6.37012 21.3501 6.71012 21.3501 7.12012V14.5501C21.3501 15.9701 20.4601 17.7401 19.3201 18.5901L15.0201 21.8001C14.1701 22.4401 13.0901 22.7601 12.0001 22.7601Z" fill="#292D32"/>
<path d="M5.33039 18.8999C5.17039 18.8999 5.02039 18.8499 4.88039 18.7499L4.68039 18.5999C3.54039 17.7499 2.65039 15.9699 2.65039 14.5599V7.11994C2.65039 5.57994 3.78039 3.93994 5.23039 3.39994L10.2204 1.52994C11.2104 1.15994 12.7704 1.15994 13.7604 1.52994L18.7604 3.39994C18.9704 3.47994 19.1704 3.57994 19.3704 3.69994C19.7204 3.91994 19.8304 4.37994 19.6104 4.72994C19.3904 5.07994 18.9304 5.18994 18.5804 4.96994C18.4704 4.89994 18.3604 4.83994 18.2404 4.79994L13.2404 2.92994C12.5804 2.67994 11.4104 2.67994 10.7504 2.92994L5.76039 4.80994C4.90039 5.12994 4.15039 6.20994 4.15039 7.12994V14.5599C4.15039 15.5099 4.82039 16.8399 5.57039 17.3999L5.77039 17.5499C6.10039 17.7999 6.17039 18.2699 5.92039 18.5999C5.79039 18.7899 5.56039 18.8999 5.33039 18.8999Z" fill="#292D32"/>
<path d="M1.99945 22.7499C1.80945 22.7499 1.61945 22.6799 1.46945 22.5299C1.17945 22.2399 1.17945 21.7599 1.46945 21.4699L21.4695 1.46994C21.7595 1.17994 22.2395 1.17994 22.5295 1.46994C22.8195 1.75994 22.8195 2.23994 22.5295 2.52994L2.52945 22.5299C2.37945 22.6799 2.18945 22.7499 1.99945 22.7499Z" fill="#292D32"/>
</svg>
