<svg width="24" height="24" viewBox="0 0 24 24" fill="none" xmlns="http://www.w3.org/2000/svg">
<path d="M11.9707 22.75C6.0507 22.75 1.2207 17.93 1.2207 12C1.2207 6.07 6.0507 1.25 11.9707 1.25C17.8907 1.25 22.7207 6.07 22.7207 12C22.7207 17.93 17.9007 22.75 11.9707 22.75ZM11.9707 2.75C6.8707 2.75 2.7207 6.9 2.7207 12C2.7207 17.1 6.8707 21.25 11.9707 21.25C17.0707 21.25 21.2207 17.1 21.2207 12C21.2207 6.9 17.0707 2.75 11.9707 2.75Z" fill="#292D32"/>
<path d="M13.2695 16.98H10.7295C8.19953 16.98 7.01953 15.8 7.01953 13.27V10.73C7.01953 8.20002 8.19953 7.02002 10.7295 7.02002H13.2695C15.7995 7.02002 16.9795 8.20002 16.9795 10.73V13.27C16.9795 15.8 15.7995 16.98 13.2695 16.98ZM10.7295 8.52002C9.03953 8.52002 8.51953 9.04002 8.51953 10.73V13.27C8.51953 14.96 9.03953 15.48 10.7295 15.48H13.2695C14.9595 15.48 15.4795 14.96 15.4795 13.27V10.73C15.4795 9.04002 14.9595 8.52002 13.2695 8.52002H10.7295Z" fill="#292D32"/>
</svg>
