<svg width="24" height="24" viewBox="0 0 24 24" fill="none" xmlns="http://www.w3.org/2000/svg">
<path d="M12 9.25C11.59 9.25 11.25 8.91 11.25 8.5V3C11.25 2.59 11.59 2.25 12 2.25C12.41 2.25 12.75 2.59 12.75 3V8.5C12.75 8.91 12.41 9.25 12 9.25Z" fill="#292D32"/>
<path d="M12 21.75C11.59 21.75 11.25 21.41 11.25 21V15.5C11.25 15.09 11.59 14.75 12 14.75C12.41 14.75 12.75 15.09 12.75 15.5V21C12.75 21.41 12.41 21.75 12 21.75Z" fill="#292D32"/>
<path d="M14 3.75H10C9.59 3.75 9.25 3.41 9.25 3C9.25 2.59 9.59 2.25 10 2.25H14C14.41 2.25 14.75 2.59 14.75 3C14.75 3.41 14.41 3.75 14 3.75Z" fill="#292D32"/>
<path d="M14 21.75H10C9.59 21.75 9.25 21.41 9.25 21C9.25 20.59 9.59 20.25 10 20.25H14C14.41 20.25 14.75 20.59 14.75 21C14.75 21.41 14.41 21.75 14 21.75Z" fill="#292D32"/>
<path d="M8.97013 10.9999C8.84013 10.9999 8.71013 10.9699 8.60013 10.8999L3.84013 8.14992C3.48013 7.93992 3.36013 7.47993 3.57013 7.12993C3.78013 6.76993 4.24013 6.64992 4.59013 6.85992L9.35013 9.60992C9.71013 9.81992 9.83013 10.2799 9.62013 10.6299C9.48013 10.8699 9.23013 10.9999 8.97013 10.9999Z" fill="#292D32"/>
<path d="M19.7904 17.2499C19.6604 17.2499 19.5304 17.2199 19.4204 17.1499L14.6604 14.3999C14.3004 14.1899 14.1804 13.7299 14.3904 13.3799C14.6004 13.0199 15.0604 12.8999 15.4104 13.1099L20.1704 15.8599C20.5304 16.0699 20.6504 16.5299 20.4404 16.8799C20.3004 17.1199 20.0504 17.2499 19.7904 17.2499Z" fill="#292D32"/>
<path d="M3.21013 9.97994C3.08013 9.97994 2.95013 9.94995 2.84013 9.87995C2.48013 9.66995 2.36013 9.20994 2.57013 8.85994L4.57013 5.39994C4.78013 5.03994 5.24013 4.91995 5.59013 5.12995C5.95013 5.33995 6.07013 5.79994 5.86013 6.14994L3.86013 9.60994C3.72013 9.84994 3.46013 9.97994 3.21013 9.97994Z" fill="#292D32"/>
<path d="M18.7902 18.9799C18.6602 18.9799 18.5302 18.9499 18.4202 18.8799C18.0602 18.6699 17.9402 18.2099 18.1502 17.8599L20.1502 14.3999C20.3602 14.0399 20.8202 13.9199 21.1702 14.1299C21.5302 14.3399 21.6502 14.7999 21.4402 15.1499L19.4402 18.6099C19.3102 18.8499 19.0502 18.9799 18.7902 18.9799Z" fill="#292D32"/>
<path d="M12 16.25C10.49 16.25 9.08 15.44 8.32 14.13C7.94 13.47 7.75 12.76 7.75 12C7.75 11.24 7.94 10.53 8.32 9.88002C9.08 8.57002 10.49 7.76001 12 7.76001C13.51 7.76001 14.92 8.57002 15.68 9.88002C16.06 10.54 16.25 11.25 16.25 12.01C16.25 12.77 16.06 13.48 15.68 14.13C14.92 15.44 13.51 16.25 12 16.25ZM12 9.25002C11.02 9.25002 10.11 9.78002 9.62 10.63C9.38 11.05 9.25 11.52 9.25 12C9.25 12.48 9.37 12.95 9.62 13.38C10.11 14.23 11.02 14.76 12 14.76C12.98 14.76 13.89 14.23 14.38 13.38C14.62 12.96 14.75 12.49 14.75 12.01C14.75 11.53 14.63 11.06 14.38 10.63C13.89 9.78002 12.98 9.25002 12 9.25002Z" fill="#292D32"/>
<path d="M15.0304 11.0002C14.7704 11.0002 14.5204 10.8702 14.3804 10.6202C14.1704 10.2602 14.3004 9.80017 14.6504 9.60017L19.4104 6.85017C19.7704 6.64017 20.2304 6.77015 20.4304 7.12015C20.6404 7.48015 20.5104 7.94016 20.1604 8.14016L15.4004 10.8902C15.2904 10.9702 15.1604 11.0002 15.0304 11.0002Z" fill="#292D32"/>
<path d="M4.21012 17.2502C3.95012 17.2502 3.70012 17.1202 3.56012 16.8702C3.35012 16.5102 3.48012 16.0502 3.83012 15.8502L8.59012 13.1002C8.95012 12.8902 9.41012 13.0202 9.61012 13.3702C9.82012 13.7302 9.69012 14.1902 9.34012 14.3902L4.58012 17.1402C4.47012 17.2202 4.34012 17.2502 4.21012 17.2502Z" fill="#292D32"/>
<path d="M20.7902 9.97994C20.5302 9.97994 20.2802 9.84995 20.1402 9.59995L18.1402 6.13994C17.9302 5.77994 18.0602 5.31994 18.4102 5.11994C18.7702 4.90994 19.2302 5.03994 19.4302 5.38994L21.4302 8.84995C21.6402 9.20995 21.5102 9.66994 21.1602 9.86994C21.0502 9.94994 20.9202 9.97994 20.7902 9.97994Z" fill="#292D32"/>
<path d="M5.21012 18.9799C4.95012 18.9799 4.70012 18.8499 4.56012 18.5999L2.56012 15.1399C2.35012 14.7799 2.48012 14.3199 2.83012 14.1199C3.19012 13.9099 3.65012 14.0399 3.85012 14.3899L5.85012 17.8499C6.06012 18.2099 5.93012 18.6699 5.58012 18.8699C5.46012 18.9499 5.33012 18.9799 5.21012 18.9799Z" fill="#292D32"/>
</svg>
