<svg width="24" height="24" viewBox="0 0 24 24" fill="none" xmlns="http://www.w3.org/2000/svg">
<path d="M12.0691 21.9798C10.6591 21.9798 9.23911 21.4398 8.16911 20.3698L3.63911 15.8398C2.53911 14.7398 1.95911 13.2198 2.02911 11.6698L2.26911 6.65983C2.37911 4.26983 4.26911 2.37983 6.66911 2.25983L11.6691 2.01983C13.2291 1.94983 14.7391 2.52983 15.8391 3.62983L20.3691 8.15983C22.5191 10.3098 22.5191 13.8198 20.3691 15.9698L15.9791 20.3598C14.8991 21.4398 13.4891 21.9798 12.0691 21.9798ZM4.69911 14.7698L9.22911 19.2998C10.7991 20.8698 13.3491 20.8698 14.9191 19.2998L19.3091 14.9098C20.8791 13.3398 20.8791 10.7898 19.3091 9.21983L14.7691 4.69983C13.9691 3.89983 12.8791 3.47983 11.7291 3.52983L6.72911 3.76983C5.10911 3.83983 3.83911 5.10983 3.75911 6.72983L3.51911 11.7398C3.46911 12.8598 3.89911 13.9698 4.69911 14.7698Z" fill="#292D32"/>
<path d="M9.5 12.75C7.71 12.75 6.25 11.29 6.25 9.5C6.25 7.71 7.71 6.25 9.5 6.25C11.29 6.25 12.75 7.71 12.75 9.5C12.75 11.29 11.29 12.75 9.5 12.75ZM9.5 7.75C8.54 7.75 7.75 8.54 7.75 9.5C7.75 10.46 8.54 11.25 9.5 11.25C10.46 11.25 11.25 10.46 11.25 9.5C11.25 8.54 10.46 7.75 9.5 7.75Z" fill="#292D32"/>
<path d="M12.9995 17.7499C12.8095 17.7499 12.6195 17.6799 12.4695 17.5299C12.1795 17.2399 12.1795 16.7599 12.4695 16.4699L16.4695 12.4699C16.7595 12.1799 17.2395 12.1799 17.5295 12.4699C17.8195 12.7599 17.8195 13.2399 17.5295 13.5299L13.5295 17.5299C13.3795 17.6799 13.1895 17.7499 12.9995 17.7499Z" fill="#292D32"/>
</svg>
