<svg width="24" height="24" viewBox="0 0 24 24" fill="none" xmlns="http://www.w3.org/2000/svg">
<path d="M16.5002 15.2499C16.3102 15.2499 16.1202 15.1799 15.9702 15.0299L12.4202 11.4799L11.3302 13.1199C11.2102 13.3099 11.0002 13.4299 10.7802 13.4499C10.5502 13.4699 10.3302 13.3899 10.1802 13.2299L6.9802 10.0299C6.6902 9.73994 6.6902 9.25994 6.9802 8.96994C7.2702 8.67994 7.7502 8.67994 8.0402 8.96994L10.5902 11.5199L11.6802 9.87994C11.8002 9.69994 12.0002 9.57994 12.2302 9.54994C12.4602 9.52994 12.6802 9.60994 12.8302 9.76994L17.0302 13.9699C17.3202 14.2599 17.3202 14.7399 17.0302 15.0299C16.8802 15.1799 16.6902 15.2499 16.5002 15.2499Z" fill="#292D32"/>
<path d="M16.5 15.25H14.5C14.09 15.25 13.75 14.91 13.75 14.5C13.75 14.09 14.09 13.75 14.5 13.75H15.75V12.5C15.75 12.09 16.09 11.75 16.5 11.75C16.91 11.75 17.25 12.09 17.25 12.5V14.5C17.25 14.91 16.91 15.25 16.5 15.25Z" fill="#292D32"/>
<path d="M15 22.75H9C3.57 22.75 1.25 20.43 1.25 15V9C1.25 3.57 3.57 1.25 9 1.25H15C20.43 1.25 22.75 3.57 22.75 9V15C22.75 20.43 20.43 22.75 15 22.75ZM9 2.75C4.39 2.75 2.75 4.39 2.75 9V15C2.75 19.61 4.39 21.25 9 21.25H15C19.61 21.25 21.25 19.61 21.25 15V9C21.25 4.39 19.61 2.75 15 2.75H9Z" fill="#292D32"/>
</svg>
