<svg width="24" height="24" viewBox="0 0 24 24" fill="none" xmlns="http://www.w3.org/2000/svg">
<path d="M16.05 20.5901C15.26 20.5901 14.39 20.3101 13.52 19.7601L10.6 17.9301C10.4 17.8101 10.17 17.7401 9.94 17.7401H8.5C6.08 17.7401 4.75 16.4101 4.75 13.9901V9.99011C4.75 7.57011 6.08 6.24011 8.5 6.24011H9.93C10.16 6.24011 10.39 6.17011 10.59 6.05011L13.51 4.22011C14.97 3.31011 16.39 3.14011 17.51 3.76011C18.63 4.38011 19.24 5.67011 19.24 7.40011V16.5701C19.24 18.2901 18.62 19.5901 17.51 20.2101C17.07 20.4701 16.57 20.5901 16.05 20.5901ZM8.5 7.75011C6.92 7.75011 6.25 8.42011 6.25 10.0001V14.0001C6.25 15.5801 6.92 16.2501 8.5 16.2501H9.93C10.45 16.2501 10.95 16.3901 11.39 16.6701L14.31 18.5001C15.28 19.1001 16.18 19.2601 16.79 18.9201C17.4 18.5801 17.75 17.7301 17.75 16.6001V7.41011C17.75 6.27011 17.4 5.42011 16.79 5.09011C16.18 4.75011 15.28 4.90011 14.31 5.51011L11.39 7.34011C10.95 7.61011 10.45 7.76011 9.93 7.76011H8.5V7.75011Z" fill="#292D32"/>
</svg>
