<svg width="24" height="24" viewBox="0 0 24 24" fill="none" xmlns="http://www.w3.org/2000/svg">
<path d="M14.5 16.1899H9.5C9.09 16.1899 8.75 15.8499 8.75 15.4399C8.75 15.0299 9.09 14.6899 9.5 14.6899H14.5C14.91 14.6899 15.25 15.0299 15.25 15.4399C15.25 15.8499 14.91 16.1899 14.5 16.1899Z" fill="#292D32"/>
<path d="M12 18.75C11.59 18.75 11.25 18.41 11.25 18V13C11.25 12.59 11.59 12.25 12 12.25C12.41 12.25 12.75 12.59 12.75 13V18C12.75 18.41 12.41 18.75 12 18.75Z" fill="#292D32"/>
<path d="M5.1997 10.4599C5.0097 10.4599 4.8197 10.3799 4.6697 10.2399C4.4597 10.0299 4.3897 9.69988 4.5097 9.41988L6.3697 4.97988C6.4097 4.88988 6.4297 4.82988 6.4597 4.77988C7.9397 1.36988 9.8297 0.539877 13.1697 1.81988C13.3597 1.88988 13.5097 2.03988 13.5897 2.22988C13.6697 2.41988 13.6697 2.62988 13.5897 2.81988L10.6597 9.61988C10.5397 9.88988 10.2697 10.0699 9.9697 10.0699H7.1197C6.5497 10.0699 6.0097 10.1799 5.4897 10.3999C5.3997 10.4399 5.2997 10.4599 5.1997 10.4599ZM10.6097 2.74988C9.3697 2.74988 8.6097 3.55988 7.8197 5.39988C7.8097 5.42988 7.7897 5.45988 7.7797 5.48988L6.4697 8.59988C6.6897 8.57988 6.8997 8.56988 7.1197 8.56988H9.4697L11.8797 2.96988C11.4097 2.81988 10.9897 2.74988 10.6097 2.74988Z" fill="#292D32"/>
<path d="M18.2902 10.27C18.2202 10.27 18.1402 10.26 18.0702 10.24C17.7002 10.13 17.2902 10.07 16.8702 10.07H9.97023C9.72023 10.07 9.48023 9.94002 9.34023 9.73002C9.21023 9.52002 9.18023 9.25002 9.28023 9.02002L12.1802 2.29002C12.3302 1.93002 12.7702 1.69002 13.1402 1.81002C13.2602 1.85002 13.3702 1.90002 13.4902 1.95002L15.8502 2.94002C17.2302 3.51002 18.1502 4.11002 18.7502 4.83002C18.8702 4.97002 18.9702 5.12002 19.0602 5.27002C19.1702 5.44002 19.2702 5.65002 19.3402 5.86002C19.3702 5.93002 19.4202 6.06002 19.4502 6.20002C19.7302 7.14002 19.5902 8.31002 18.9902 9.81002C18.8702 10.09 18.5902 10.27 18.2902 10.27ZM11.1102 8.57002H16.8802C17.2002 8.57002 17.5102 8.60002 17.8202 8.65002C18.1002 7.78002 18.1602 7.11002 18.0002 6.57002C17.9802 6.48002 17.9602 6.44002 17.9502 6.40002C17.8902 6.24002 17.8502 6.15002 17.8002 6.07002C17.7302 5.96002 17.6802 5.87002 17.6002 5.78002C17.1702 5.26002 16.4102 4.78002 15.2802 4.32002L13.3002 3.49002L11.1102 8.57002Z" fill="#292D32"/>
<path d="M15.9 22.7498H8.1C7.82 22.7498 7.56 22.7298 7.3 22.6998C3.79 22.4598 1.79 20.4598 1.55 16.9098C1.52 16.6898 1.5 16.4198 1.5 16.1498V14.1998C1.5 11.9498 2.84 9.91982 4.91 9.01982C5.61 8.71982 6.36 8.56982 7.13 8.56982H16.89C17.46 8.56982 18.01 8.64982 18.52 8.80982C20.87 9.51982 22.52 11.7398 22.52 14.1998V16.1498C22.52 16.3698 22.51 16.5798 22.5 16.7798C22.28 20.6898 20 22.7498 15.9 22.7498ZM7.12 10.0698C6.55 10.0698 6.01 10.1798 5.49 10.3998C3.97 11.0598 2.99 12.5498 2.99 14.1998V16.1498C2.99 16.3598 3.01 16.5698 3.03 16.7698C3.22 19.6198 4.62 21.0198 7.43 21.2098C7.68 21.2398 7.88 21.2598 8.09 21.2598H15.89C19.19 21.2598 20.81 19.8098 20.97 16.7098C20.98 16.5298 20.99 16.3498 20.99 16.1498V14.1998C20.99 12.3898 19.78 10.7698 18.06 10.2398C17.69 10.1298 17.28 10.0698 16.86 10.0698H7.12Z" fill="#292D32"/>
<path d="M2.24023 14.9498C1.83023 14.9498 1.49023 14.6098 1.49023 14.1998V11.2698C1.49023 8.1198 3.72023 5.3998 6.80023 4.7998C7.07023 4.7498 7.35023 4.8498 7.53023 5.0598C7.70023 5.2698 7.75023 5.5698 7.64023 5.8198L5.89023 9.9998C5.81023 10.1798 5.67023 10.3198 5.50023 10.3998C3.98023 11.0598 3.00023 12.5498 3.00023 14.1998C2.99023 14.6098 2.66023 14.9498 2.24023 14.9498ZM5.60023 6.8198C4.32023 7.5398 3.39023 8.7998 3.10023 10.2698C3.54023 9.8198 4.05023 9.4398 4.63023 9.1598L5.60023 6.8198Z" fill="#292D32"/>
<path d="M21.7592 14.9498C21.3492 14.9498 21.0092 14.6098 21.0092 14.1998C21.0092 12.3898 19.7992 10.7698 18.0792 10.2398C17.8792 10.1798 17.7092 10.0398 17.6192 9.84978C17.5292 9.65978 17.5192 9.43978 17.5992 9.24978C18.0692 8.07978 18.1892 7.22978 17.9992 6.56978C17.9792 6.47978 17.9592 6.43978 17.9492 6.39978C17.8192 6.10978 17.8892 5.76978 18.1192 5.54978C18.3492 5.32978 18.6992 5.27978 18.9792 5.42978C21.1592 6.56978 22.5092 8.80978 22.5092 11.2698V14.1998C22.5092 14.6098 22.1692 14.9498 21.7592 14.9498ZM19.2492 9.08978C19.8792 9.37978 20.4392 9.78978 20.9092 10.2798C20.7192 9.29978 20.2492 8.40978 19.5592 7.70978C19.5092 8.12978 19.4092 8.58978 19.2492 9.08978Z" fill="#292D32"/>
</svg>
