<svg width="24" height="24" viewBox="0 0 24 24" fill="none" xmlns="http://www.w3.org/2000/svg">
<path d="M21.9999 13.85C21.8699 13.85 21.7399 13.82 21.6199 13.74L19.1199 12.24C17.8199 11.46 16.1999 11.46 14.8899 12.24C13.1099 13.31 10.8999 13.31 9.11989 12.24C7.81989 11.46 6.19991 11.46 4.88991 12.24L2.38991 13.74C2.02991 13.95 1.56988 13.84 1.35988 13.48C1.14988 13.12 1.25989 12.66 1.61989 12.45L4.11989 10.95C5.89989 9.87996 8.10991 9.87996 9.88991 10.95C11.1899 11.73 12.8099 11.73 14.1199 10.95C15.8999 9.87996 18.1099 9.87996 19.8899 10.95L22.3899 12.45C22.7499 12.66 22.8599 13.12 22.6499 13.48C22.4999 13.72 22.2499 13.85 21.9999 13.85Z" fill="#292D32"/>
<path d="M7.00012 6.85003C6.00012 6.85003 5.0001 6.58003 4.1101 6.05003L1.6101 4.55003C1.2501 4.34003 1.14012 3.88003 1.35012 3.52003C1.56012 3.17003 2.02012 3.05003 2.38012 3.26003L4.88012 4.76003C6.18012 5.54003 7.8001 5.54003 9.1101 4.76003C10.8901 3.69003 13.1001 3.69003 14.8801 4.76003C16.1801 5.54003 17.8001 5.54003 19.1101 4.76003L21.6101 3.26003C21.9701 3.05003 22.4301 3.16003 22.6401 3.52003C22.8501 3.87003 22.7401 4.34003 22.3801 4.55003L19.8801 6.05003C18.1001 7.12003 15.8901 7.12003 14.1101 6.05003C12.8101 5.27003 11.1901 5.27003 9.88012 6.05003C9.00012 6.58003 8.00012 6.85003 7.00012 6.85003Z" fill="#292D32"/>
<path d="M21.9999 20.85C21.8699 20.85 21.7399 20.82 21.6199 20.74L19.1199 19.24C17.8199 18.46 16.1999 18.46 14.8899 19.24C13.1099 20.31 10.8999 20.31 9.11989 19.24C7.81989 18.46 6.19991 18.46 4.88991 19.24L2.38991 20.74C2.02991 20.95 1.56988 20.84 1.35988 20.48C1.14988 20.12 1.25989 19.66 1.61989 19.45L4.11989 17.95C5.89989 16.88 8.10991 16.88 9.88991 17.95C11.1899 18.73 12.8099 18.73 14.1199 17.95C15.8999 16.88 18.1099 16.88 19.8899 17.95L22.3899 19.45C22.7499 19.66 22.8599 20.12 22.6499 20.48C22.4999 20.72 22.2499 20.85 21.9999 20.85Z" fill="#292D32"/>
</svg>
