<svg width="24" height="24" viewBox="0 0 24 24" fill="none" xmlns="http://www.w3.org/2000/svg">
<path d="M21 8.99908C18.08 8.02908 15.04 7.53906 12 7.53906" stroke="#292D32" stroke-width="1.5" stroke-linecap="round" stroke-linejoin="round"/>
<path d="M3 8.99982C4.59 8.46982 6.21001 8.08984 7.85001 7.83984" stroke="#292D32" stroke-width="1.5" stroke-linecap="round" stroke-linejoin="round"/>
<path d="M22 12C22 6.48 17.52 2 12 2C6.48 2 2 6.48 2 12C2 17.52 6.48 22 12 22" stroke="#292D32" stroke-width="1.5" stroke-linecap="round" stroke-linejoin="round"/>
<path d="M8.00156 3H9.00156C7.05156 8.84 7.05156 15.16 9.00156 21H8.00156" stroke="#292D32" stroke-width="1.5" stroke-linecap="round" stroke-linejoin="round"/>
<path d="M15 3C15.97 5.92 16.46 8.96 16.46 12" stroke="#292D32" stroke-width="1.5" stroke-linecap="round" stroke-linejoin="round"/>
<path d="M3 16V15C5.92 15.97 8.96 16.46 12 16.46" stroke="#292D32" stroke-width="1.5" stroke-linecap="round" stroke-linejoin="round"/>
<path d="M19.5017 14.6995C19.1317 14.5895 18.7117 14.5195 18.2517 14.5195C16.1817 14.5195 14.5117 16.1995 14.5117 18.2595C14.5117 20.3295 16.1917 21.9995 18.2517 21.9995C20.3117 21.9995 21.9917 20.3195 21.9917 18.2595C21.9917 17.4895 21.7617 16.7695 21.3617 16.1795" stroke="#292D32" stroke-width="1.5" stroke-linecap="round" stroke-linejoin="round"/>
<path d="M20.043 14.8011L18.793 13.3711" stroke="#292D32" stroke-width="1.5" stroke-linecap="round" stroke-linejoin="round"/>
<path d="M20.0421 14.8008L18.582 15.8608" stroke="#292D32" stroke-width="1.5" stroke-linecap="round" stroke-linejoin="round"/>
</svg>
