<svg width="24" height="24" viewBox="0 0 24 24" fill="none" xmlns="http://www.w3.org/2000/svg">
<path d="M19.0712 14.2416C18.7812 14.5316 18.3212 14.5316 18.0413 14.2416C17.7513 13.9516 17.7513 13.4916 18.0413 13.2116C20.0413 11.2116 20.0413 7.96156 18.0413 5.97156C16.0413 3.98156 12.7912 3.97156 10.8012 5.97156C8.81125 7.97156 8.80125 11.2216 10.8012 13.2116C11.0912 13.5016 11.0912 13.9616 10.8012 14.2416C10.5112 14.5316 10.0512 14.5316 9.77125 14.2416C7.20125 11.6716 7.20125 7.49156 9.77125 4.93156C12.3412 2.37156 16.5212 2.36156 19.0812 4.93156C21.6412 7.50156 21.6412 11.6716 19.0712 14.2416Z" fill="#292D32"/>
<path opacity="0.4" d="M19.0695 4.93141C21.6395 7.50141 21.6395 11.6714 19.0695 14.2414C18.1895 15.1214 17.1095 15.7014 15.9795 15.9814C16.5095 13.8214 15.9295 11.4514 14.2395 9.76141C12.5495 8.07141 10.1795 7.49141 8.01953 8.02141C8.29953 6.89141 8.86953 5.81141 9.75953 4.93141C12.3295 2.36141 16.4995 2.36141 19.0695 4.93141Z" fill="#292D32"/>
<path d="M4.92875 9.76047C5.21875 9.47047 5.67875 9.47047 5.95875 9.76047C6.24875 10.0505 6.24875 10.5105 5.95875 10.7905C3.95875 12.7905 3.95875 16.0405 5.95875 18.0305C7.95875 20.0205 11.2088 20.0305 13.1988 18.0305C15.1888 16.0305 15.1988 12.7805 13.1988 10.7905C12.9088 10.5005 12.9088 10.0405 13.1988 9.76047C13.4888 9.47047 13.9488 9.47047 14.2288 9.76047C16.7988 12.3305 16.7988 16.5105 14.2288 19.0705C11.6588 21.6305 7.47875 21.6405 4.91875 19.0705C2.35875 16.5005 2.35875 12.3305 4.92875 9.76047Z" fill="#292D32"/>
<path opacity="0.5" d="M14.2414 9.76183C15.9314 11.4518 16.5114 13.8218 15.9814 15.9818C15.7014 17.1118 15.1214 18.1918 14.2414 19.0718C11.6714 21.6418 7.50141 21.6418 4.93141 19.0718C2.36141 16.5018 2.36141 12.3318 4.93141 9.76183C5.81141 8.87183 6.89141 8.30183 8.02141 8.02183C10.1814 7.49183 12.5514 8.07183 14.2414 9.76183Z" fill="#292D32"/>
</svg>
