<svg width="24" height="24" viewBox="0 0 24 24" fill="none" xmlns="http://www.w3.org/2000/svg">
<path opacity="0.4" d="M12 22C17.5228 22 22 17.5228 22 12C22 6.47715 17.5228 2 12 2C6.47715 2 2 6.47715 2 12C2 17.5228 6.47715 22 12 22Z" fill="#292D32"/>
<path d="M15.8089 7.21875H14.3189C13.2289 7.21875 12.3789 8.06875 12.3789 9.15875V10.6488C12.3789 11.7388 13.2289 12.5888 14.3189 12.5888H16.2289C16.1489 14.3988 15.7289 14.6688 14.5189 15.3788C14.1589 15.5888 14.0489 16.0488 14.2589 16.4088C14.3989 16.6488 14.6489 16.7788 14.9089 16.7788C15.0389 16.7788 15.1689 16.7488 15.2889 16.6788C17.0789 15.6188 17.7489 14.9288 17.7489 11.8488V9.17877C17.7489 8.08877 16.8789 7.21875 15.8089 7.21875Z" fill="#292D32"/>
<path d="M9.67999 7.21875H8.19C7.1 7.21875 6.25 8.06875 6.25 9.15875V10.6488C6.25 11.7388 7.1 12.5888 8.19 12.5888H10.1C10.02 14.3988 9.6 14.6688 8.39 15.3788C8.03 15.5888 7.92 16.0488 8.13 16.4088C8.27 16.6488 8.52 16.7788 8.78 16.7788C8.91 16.7788 9.04 16.7488 9.16 16.6788C10.95 15.6188 11.62 14.9288 11.62 11.8488V9.17877C11.61 8.08877 10.74 7.21875 9.67999 7.21875Z" fill="#292D32"/>
</svg>
