<svg width="24" height="24" viewBox="0 0 24 24" fill="none" xmlns="http://www.w3.org/2000/svg">
<path opacity="0.4" d="M22 7.81V16.19C22 19.83 19.83 22 16.19 22H7.81C7.61 22 7.41 21.99 7.22 21.98C5.99 21.9 4.95 21.55 4.13 20.95C3.71 20.66 3.34 20.29 3.05 19.87C2.36 18.92 2 17.68 2 16.19V7.81C2 4.37 3.94 2.24 7.22 2.03C7.41 2.01 7.61 2 7.81 2H16.19C17.68 2 18.92 2.36 19.87 3.05C20.29 3.34 20.66 3.71 20.95 4.13C21.64 5.08 22 6.32 22 7.81Z" fill="#292D32"/>
<path d="M11.39 14.3784H11.02V7.90844H13.59C13.7 7.90844 13.79 7.99844 13.79 8.10844V8.88844C13.79 9.29844 14.13 9.63844 14.54 9.63844C14.95 9.63844 15.29 9.29844 15.29 8.88844V8.09844C15.29 7.15844 14.53 6.39844 13.59 6.39844H6.95C6.01 6.39844 5.25 7.15844 5.25 8.09844V8.87844C5.25 9.29844 5.59 9.62844 6 9.62844C6.41 9.62844 6.75 9.29844 6.75 8.87844V8.09844C6.75 7.98844 6.84 7.89844 6.95 7.89844H9.52V14.3784H8.52C8.11 14.3784 7.77 14.7184 7.77 15.1284C7.77 15.5384 8.11 15.8784 8.52 15.8784H11.38C11.79 15.8784 12.13 15.5384 12.13 15.1284C12.13 14.7184 11.8 14.3784 11.39 14.3784Z" fill="#292D32"/>
<path d="M17.3187 10.3984H13.7188C13.3088 10.3984 12.9688 10.7384 12.9688 11.1484C12.9688 11.5584 13.3088 11.8984 13.7188 11.8984H14.1987V16.0984H13.8488C13.4388 16.0984 13.0988 16.4384 13.0988 16.8484C13.0988 17.2584 13.4388 17.5984 13.8488 17.5984H16.0487C16.4587 17.5984 16.7987 17.2584 16.7987 16.8484C16.7987 16.4384 16.4587 16.0984 16.0487 16.0984H15.6987V11.8984H17.2487V12.2384C17.2487 12.6484 17.5887 12.9884 17.9987 12.9884C18.4087 12.9884 18.7487 12.6484 18.7487 12.2384V11.8284C18.7487 11.0384 18.1087 10.3984 17.3187 10.3984Z" fill="#292D32"/>
</svg>
