<svg width="24" height="24" viewBox="0 0 24 24" fill="none" xmlns="http://www.w3.org/2000/svg">
<path d="M22 13V9C22 4 20 2 15 2H9C4 2 2 4 2 9V15C2 20 4 22 9 22H13" stroke="#292D32" stroke-width="1.5" stroke-linecap="round" stroke-linejoin="round"/>
<path opacity="0.4" d="M7.33008 14.4917L9.71008 11.4017C10.0501 10.9617 10.6801 10.8817 11.1201 11.2217L12.9501 12.6617C13.3901 13.0017 14.0201 12.9217 14.3601 12.4917L16.6701 9.51172" stroke="#292D32" stroke-width="1.5" stroke-linecap="round" stroke-linejoin="round"/>
<path d="M19.4792 15.8214L19.7592 16.3914C19.8992 16.6714 20.2492 16.9314 20.5592 16.9914L20.9392 17.0514C22.0792 17.2414 22.3492 18.0814 21.5292 18.9114L21.1792 19.2614C20.9492 19.5014 20.8192 19.9614 20.8892 20.2814L20.9392 20.4914C21.2492 21.8714 20.5192 22.4014 19.3192 21.6814L19.0592 21.5314C18.7492 21.3514 18.2492 21.3514 17.9392 21.5314L17.6792 21.6814C16.4692 22.4114 15.7392 21.8714 16.0592 20.4914L16.1092 20.2814C16.1792 19.9614 16.0492 19.5014 15.8192 19.2614L15.4692 18.9114C14.6492 18.0814 14.9192 17.2414 16.0592 17.0514L16.4392 16.9914C16.7392 16.9414 17.0992 16.6714 17.2392 16.3914L17.5192 15.8214C18.0592 14.7314 18.9392 14.7314 19.4792 15.8214Z" stroke="#292D32" stroke-width="1.5" stroke-linecap="round" stroke-linejoin="round"/>
</svg>
