<svg width="24" height="24" viewBox="0 0 24 24" fill="none" xmlns="http://www.w3.org/2000/svg">
<path opacity="0.58" d="M24 0H0V24H24V0Z" fill="white"/>
<path opacity="0.4" d="M12 22C17.5228 22 22 17.5228 22 12C22 6.47715 17.5228 2 12 2C6.47715 2 2 6.47715 2 12C2 17.5228 6.47715 22 12 22Z" fill="#292D32"/>
<path d="M12.0005 12.0005L9.46047 9.46047C9.07047 9.07047 8.44047 9.07047 8.05047 9.46047L6.21047 11.3005C5.82047 11.6905 5.82047 12.3205 6.21047 12.7105L8.05047 14.5505C8.44047 14.9405 9.07047 14.9405 9.46047 14.5505L14.5505 9.46047C14.9405 9.07047 15.5705 9.07047 15.9605 9.46047L17.8005 11.3005C18.1905 11.6905 18.1905 12.3205 17.8005 12.7105L15.9605 14.5505C15.5705 14.9405 14.9405 14.9405 14.5505 14.5505L12.0005 12.0005Z" fill="#292D32"/>
</svg>
