<svg width="24" height="24" viewBox="0 0 24 24" fill="none" xmlns="http://www.w3.org/2000/svg">
<path opacity="0.58" d="M24 0H0V24H24V0Z" fill="white"/>
<path opacity="0.4" d="M19 9.86844V16.7284C19 17.5084 18.55 18.2084 17.85 18.5384L11.35 21.5984C10.81 21.8484 10.19 21.8484 9.64999 21.5984L3.14999 18.5384C2.44999 18.2084 2 17.5084 2 16.7284V9.26843C2 8.48843 2.44999 7.78844 3.14999 7.45844L9.64999 4.39844C10.19 4.14844 10.81 4.14844 11.35 4.39844L14.02 5.65844C14 5.76844 14 5.88844 14 5.99844C14 8.20844 15.79 9.99844 18 9.99844C18.35 9.99844 18.68 9.95844 19 9.86844Z" fill="#292D32"/>
<path d="M9 16.25C7.48 16.25 6.25 15.02 6.25 13.5V10.5C6.25 10.09 6.59 9.75 7 9.75C7.41 9.75 7.75 10.09 7.75 10.5V13.5C7.75 14.19 8.31 14.75 9 14.75C9.69 14.75 10.25 14.19 10.25 13.5V10.5C10.25 10.09 10.59 9.75 11 9.75C11.41 9.75 11.75 10.09 11.75 10.5V13.5C11.75 15.02 10.52 16.25 9 16.25Z" fill="#292D32"/>
<path d="M14 16.19C13.59 16.19 13.25 15.85 13.25 15.44V10.5C13.25 10.09 13.59 9.75 14 9.75C14.41 9.75 14.75 10.09 14.75 10.5V15.44C14.75 15.86 14.41 16.19 14 16.19Z" fill="#292D32"/>
<path d="M17.9999 6.33984C17.8599 6.33984 17.4199 6.36985 17.4199 6.78985C17.4199 7.07985 17.6399 7.24985 17.9999 7.24985C18.3599 7.24985 18.5799 7.07985 18.5799 6.78985C18.5799 6.45985 18.2799 6.33984 17.9999 6.33984Z" fill="#292D32"/>
<path d="M18.0005 5.51172C18.2705 5.51172 18.4406 5.36171 18.4406 5.13171C18.4406 4.85171 18.2105 4.76172 18.0005 4.76172C17.7905 4.76172 17.5605 4.86171 17.5605 5.13171C17.5605 5.36171 17.7305 5.51172 18.0005 5.51172Z" fill="#292D32"/>
<path d="M18 2C15.9 2 14.19 3.61 14.02 5.66C14 5.77 14 5.89 14 6C14 8.21 15.79 10 18 10C18.35 10 18.68 9.96 19 9.87C20.73 9.43 22 7.86 22 6C22 3.79 20.21 2 18 2ZM18 8.2C17.01 8.2 16.4 7.7 16.4 6.89C16.4 6.5 16.58 6.15 16.9 5.91C16.66 5.7 16.53 5.41 16.53 5.08C16.53 4.31 17.12 3.8 17.99 3.8C18.86 3.8 19.45 4.32 19.45 5.08C19.45 5.41 19.33 5.7 19.08 5.91C19.41 6.14 19.59 6.49 19.59 6.89C19.6 7.7 18.99 8.2 18 8.2Z" fill="#292D32"/>
</svg>
