<svg width="24" height="24" viewBox="0 0 24 24" fill="none" xmlns="http://www.w3.org/2000/svg">
<path d="M24 0H0V24H24V0Z" fill="white"/>
<path d="M21 3.14844H3C2.59 3.14844 2.25 3.48844 2.25 3.89844C2.25 4.30844 2.59 4.64844 3 4.64844H21C21.41 4.64844 21.75 4.30844 21.75 3.89844C21.75 3.48844 21.41 3.14844 21 3.14844Z" fill="#292D32"/>
<path d="M4.03909 6.23828H19.9691C20.8491 6.23828 21.3791 7.20828 20.8991 7.94828L12.9391 20.3383C12.4991 21.0183 11.5091 21.0183 11.0691 20.3383L3.09909 7.94828C2.62909 7.20828 3.15909 6.23828 4.03909 6.23828Z" fill="#292D32"/>
</svg>
