<svg width="24" height="24" viewBox="0 0 24 24" fill="none" xmlns="http://www.w3.org/2000/svg">
<path opacity="0.4" d="M15 2H9C7.34 2 6 3.34 6 5V19C6 20.66 7.34 22 9 22H15C16.66 22 18 20.66 18 19V5C18 3.34 16.66 2 15 2Z" fill="#292D32"/>
<path d="M18.6705 5.32812H18.3305C18.2105 5.32812 18.1005 5.32813 17.9805 5.33813C17.9905 5.38813 18.0005 5.43813 18.0005 5.49813V6.99813V16.9981V18.4981C18.0005 18.5581 17.9905 18.6081 17.9805 18.6581C18.0905 18.6681 18.2005 18.6681 18.3305 18.6681H18.6705C21.3305 18.6681 22.0005 17.9981 22.0005 15.3281V8.66813C22.0005 5.99813 21.3305 5.32812 18.6705 5.32812Z" fill="#292D32"/>
<path d="M6 18.4981V16.9981V6.99813V5.49813C6 5.43813 6.01 5.38813 6.02 5.33813C5.9 5.32813 5.79 5.32812 5.67 5.32812H5.33C2.67 5.32812 2 5.99813 2 8.66813V15.3281C2 17.9981 2.67 18.6681 5.33 18.6681H5.67C5.79 18.6681 5.9 18.6681 6.02 18.6581C6.01 18.6081 6 18.5581 6 18.4981Z" fill="#292D32"/>
</svg>
