<svg width="24" height="24" viewBox="0 0 24 24" fill="none" xmlns="http://www.w3.org/2000/svg">
<path d="M3.5 5.05859V18.9386C3.5 19.3486 3.16 19.6886 2.75 19.6886C2.34 19.6886 2 19.3486 2 18.9386V5.05859C2 4.64859 2.34 4.30859 2.75 4.30859C3.16 4.30859 3.5 4.64859 3.5 5.05859Z" fill="#292D32"/>
<path d="M22 5.05859V18.9386C22 19.3486 21.66 19.6886 21.25 19.6886C20.84 19.6886 20.5 19.3486 20.5 18.9386V5.05859C20.5 4.64859 20.84 4.30859 21.25 4.30859C21.66 4.30859 22 4.64859 22 5.05859Z" fill="#292D32"/>
<path opacity="0.4" d="M7.59961 21.25H16.3996C18.0596 21.25 19.3996 19.91 19.3996 18.25V5.75C19.3996 4.09 18.0596 2.75 16.3996 2.75H7.59961C5.93961 2.75 4.59961 4.09 4.59961 5.75V18.25C4.59961 19.91 5.93961 21.25 7.59961 21.25Z" fill="#292D32"/>
</svg>
