<svg width="24" height="24" viewBox="0 0 24 24" fill="none" xmlns="http://www.w3.org/2000/svg">
<g opacity="0.4">
<path d="M21.9999 13.8509C21.8699 13.8509 21.7399 13.8209 21.6199 13.7409L19.1199 12.2409C17.8199 11.4609 16.1999 11.4609 14.8899 12.2409C13.1099 13.3109 10.8999 13.3109 9.11988 12.2409C7.81988 11.4609 6.19988 11.4609 4.88988 12.2409L2.38988 13.7409C2.02988 13.9509 1.56988 13.8409 1.35988 13.4809C1.14988 13.1309 1.25988 12.6609 1.61988 12.4509L4.11988 10.9509C5.89988 9.88094 8.10988 9.88094 9.88988 10.9509C11.1899 11.7309 12.8099 11.7309 14.1199 10.9509C15.8999 9.88094 18.1099 9.88094 19.8899 10.9509L22.3899 12.4509C22.7499 12.6609 22.8599 13.1209 22.6499 13.4809C22.4999 13.7209 22.2499 13.8509 21.9999 13.8509Z" fill="#292D32"/>
</g>
<path d="M6.99816 6.84832C5.99816 6.84832 4.99817 6.57832 4.10817 6.04832L1.60816 4.54832C1.24816 4.33832 1.13816 3.87832 1.34816 3.51832C1.55816 3.15832 2.01817 3.04832 2.37817 3.25832L4.87817 4.75832C6.17817 5.53832 7.79816 5.53832 9.10816 4.75832C10.8882 3.68832 13.0982 3.68832 14.8782 4.75832C16.1782 5.53832 17.7982 5.53832 19.1082 4.75832L21.6082 3.25832C21.9682 3.04832 22.4282 3.15832 22.6382 3.51832C22.8482 3.86832 22.7382 4.33832 22.3782 4.54832L19.8782 6.04832C18.0982 7.11832 15.8882 7.11832 14.1082 6.04832C12.8082 5.26832 11.1882 5.26832 9.87817 6.04832C8.99817 6.57832 7.99816 6.84832 6.99816 6.84832Z" fill="#292D32"/>
<path d="M21.9999 20.8509C21.8699 20.8509 21.7399 20.8209 21.6199 20.7409L19.1199 19.2409C17.8199 18.4609 16.1999 18.4609 14.8899 19.2409C13.1099 20.3109 10.8999 20.3109 9.11988 19.2409C7.81988 18.4609 6.19988 18.4609 4.88988 19.2409L2.38988 20.7409C2.02988 20.9509 1.56988 20.8409 1.35988 20.4809C1.14988 20.1309 1.25988 19.6609 1.61988 19.4509L4.11988 17.9509C5.89988 16.8809 8.10988 16.8809 9.88988 17.9509C11.1899 18.7309 12.8099 18.7309 14.1199 17.9509C15.8999 16.8809 18.1099 16.8809 19.8899 17.9509L22.3899 19.4509C22.7499 19.6609 22.8599 20.1209 22.6499 20.4809C22.4999 20.7209 22.2499 20.8509 21.9999 20.8509Z" fill="#292D32"/>
</svg>
