<svg width="24" height="24" viewBox="0 0 24 24" fill="none" xmlns="http://www.w3.org/2000/svg">
<path d="M12.073 8.95078C12.033 8.95078 11.973 8.95078 11.923 8.95078C10.873 8.91078 10.043 8.06078 10.043 7.00078C10.043 5.92078 10.913 5.05078 11.993 5.05078C13.073 5.05078 13.943 5.93078 13.943 7.00078C13.953 8.06078 13.123 8.92078 12.073 8.95078Z" fill="#292D32"/>
<path d="M9.25141 11.9609C7.92141 12.8509 7.92141 14.3009 9.25141 15.1909C10.7614 16.2009 13.2414 16.2009 14.7514 15.1909C16.0814 14.3009 16.0814 12.8509 14.7514 11.9609C13.2414 10.9609 10.7714 10.9609 9.25141 11.9609Z" fill="#292D32"/>
<path opacity="0.4" d="M18 2H6C4.34 2 3 3.33 3 4.97V15.88C3 17.52 4.34 18.85 6 18.85H6.76C7.56 18.85 8.32 19.16 8.88 19.72L10.59 21.41C11.37 22.18 12.64 22.18 13.42 21.41L15.13 19.72C15.69 19.16 16.46 18.85 17.25 18.85H18C19.66 18.85 21 17.52 21 15.88V4.97C21 3.33 19.66 2 18 2ZM12 5.05C13.08 5.05 13.95 5.93 13.95 7C13.95 8.06 13.11 8.91 12.07 8.95C12.03 8.95 11.97 8.95 11.92 8.95C10.87 8.91 10.04 8.06 10.04 7C10.05 5.93 10.92 5.05 12 5.05ZM14.75 15.19C13.24 16.2 10.76 16.2 9.25 15.19C7.92 14.31 7.92 12.85 9.25 11.96C10.77 10.95 13.25 10.95 14.75 11.96C16.08 12.85 16.08 14.3 14.75 15.19Z" fill="#292D32"/>
</svg>
