<svg width="24" height="24" viewBox="0 0 24 24" fill="none" xmlns="http://www.w3.org/2000/svg">
<path opacity="0.4" d="M18 18.8617H17.24C16.44 18.8617 15.68 19.1717 15.12 19.7317L13.41 21.4217C12.63 22.1917 11.36 22.1917 10.58 21.4217L8.87 19.7317C8.31 19.1717 7.54 18.8617 6.75 18.8617H6C4.34 18.8617 3 17.5317 3 15.8917V4.98169C3 3.34169 4.34 2.01172 6 2.01172H18C19.66 2.01172 21 3.34169 21 4.98169V15.8917C21 17.5217 19.66 18.8617 18 18.8617Z" fill="#292D32"/>
<path d="M12.0019 10.41C13.2887 10.41 14.3319 9.36684 14.3319 8.08002C14.3319 6.79319 13.2887 5.75 12.0019 5.75C10.7151 5.75 9.67188 6.79319 9.67188 8.08002C9.67188 9.36684 10.7151 10.41 12.0019 10.41Z" fill="#292D32"/>
<path d="M14.6811 15.0608C15.4911 15.0608 15.9612 14.1608 15.5112 13.4908C14.8312 12.4808 13.5111 11.8008 12.0011 11.8008C10.4911 11.8008 9.17114 12.4808 8.49114 13.4908C8.04114 14.1608 8.51115 15.0608 9.32115 15.0608H14.6811Z" fill="#292D32"/>
</svg>
