<svg width="24" height="24" viewBox="0 0 24 24" fill="none" xmlns="http://www.w3.org/2000/svg">
<path opacity="0.58" d="M24 0H0V24H24V0Z" fill="white"/>
<path opacity="0.4" d="M12 22C17.5228 22 22 17.5228 22 12C22 6.47715 17.5228 2 12 2C6.47715 2 2 6.47715 2 12C2 17.5228 6.47715 22 12 22Z" fill="#292D32"/>
<path d="M11.7901 6.20984L9.66012 9.75984C9.56012 9.92984 9.68014 10.1398 9.87014 10.1398H14.1301C14.3201 10.1398 14.4402 9.92984 14.3402 9.75984L12.2102 6.20984C12.1202 6.04984 11.8801 6.04984 11.7901 6.20984Z" fill="#292D32"/>
<path d="M8.35946 12.2098L6.22945 15.7598C6.12945 15.9298 6.24947 16.1398 6.43947 16.1398H10.6995C10.8895 16.1398 11.0094 15.9298 10.9094 15.7598L8.7795 12.2098C8.6895 12.0498 8.44946 12.0498 8.35946 12.2098Z" fill="#292D32"/>
<path d="M15.2101 12.2098L13.08 15.7598C12.98 15.9298 13.1 16.1398 13.29 16.1398H17.55C17.74 16.1398 17.86 15.9298 17.76 15.7598L15.63 12.2098C15.55 12.0498 15.3101 12.0498 15.2101 12.2098Z" fill="#292D32"/>
</svg>
