<svg width="24" height="24" viewBox="0 0 24 24" fill="none" xmlns="http://www.w3.org/2000/svg">
<path d="M24 0H0V24H24V0Z" fill="white"/>
<path opacity="0.4" d="M7.11945 3.5H15.9995C19.9995 3.5 21.9995 6 21.9995 9.5V12C21.9995 17 18.9995 20.5 13.4995 20.5H3.93945L4.99945 16.25H12.4395C15.9995 16.25 17.7495 14 17.7495 10.94V10.75C17.7495 9 16.9995 7.75 14.7495 7.75H6.05945L7.11945 3.5Z" fill="#292D32"/>
<path d="M12.4095 10.23H4.69952C3.61952 10.23 2.67952 10.97 2.40952 12.01L2.15952 13.03C2.06952 13.4 2.34952 13.76 2.72952 13.76H10.4395C11.5195 13.76 12.4595 13.02 12.7295 11.98L12.9795 10.96C13.0795 10.59 12.7895 10.23 12.4095 10.23Z" fill="#292D32"/>
</svg>
