<svg width="24" height="24" viewBox="0 0 24 24" fill="none" xmlns="http://www.w3.org/2000/svg">
<path opacity="0.58" d="M24 0H0V24H24V0Z" fill="white"/>
<path opacity="0.4" d="M12 22C17.5228 22 22 17.5228 22 12C22 6.47715 17.5228 2 12 2C6.47715 2 2 6.47715 2 12C2 17.5228 6.47715 22 12 22Z" fill="#292D32"/>
<path d="M16.8399 13.2701L15.3799 12.4301C15.0499 12.2401 15.0499 11.7601 15.3799 11.5601L16.8399 10.7201C17.4699 10.3601 17.6799 9.5501 17.3199 8.9201C16.9599 8.2901 16.1499 8.0801 15.5199 8.4401L14.0599 9.2801C13.7299 9.4701 13.3099 9.2301 13.3099 8.8501V7.1701C13.3099 6.4501 12.7199 5.8501 11.9899 5.8501C11.2599 5.8501 10.6699 6.4401 10.6699 7.1701V8.8501C10.6699 9.2301 10.2499 9.4801 9.91994 9.2801L8.45994 8.4401C7.82994 8.0801 7.01995 8.2901 6.65995 8.9201C6.29995 9.5501 6.50994 10.3601 7.13994 10.7201L8.59994 11.5601C8.92994 11.7501 8.92994 12.2301 8.59994 12.4301L7.13994 13.2701C6.50994 13.6301 6.29995 14.4401 6.65995 15.0701C7.01995 15.7001 7.82994 15.9101 8.45994 15.5501L9.91994 14.7101C10.2499 14.5201 10.6699 14.7601 10.6699 15.1401V16.8201C10.6699 17.5401 11.2599 18.1401 11.9899 18.1401C12.7199 18.1401 13.3099 17.5501 13.3099 16.8201V15.1401C13.3099 14.7601 13.7299 14.5101 14.0599 14.7101L15.5199 15.5501C16.1499 15.9101 16.9599 15.7001 17.3199 15.0701C17.6899 14.4501 17.4699 13.6401 16.8399 13.2701Z" fill="#292D32"/>
</svg>
