<svg width="24" height="24" viewBox="0 0 24 24" fill="none" xmlns="http://www.w3.org/2000/svg">
<path opacity="0.58" d="M24 0H0V24H24V0Z" fill="white"/>
<path opacity="0.4" d="M7.93005 5.47994L11.0601 8.60994C11.5801 9.12994 12.4301 9.12994 12.9501 8.60994L16.0801 5.47994C16.9201 4.63994 16.3301 3.18994 15.1301 3.18994H8.87006C7.68006 3.18994 7.08005 4.63994 7.93005 5.47994Z" fill="#292D32"/>
<path opacity="0.4" d="M7.93005 18.52L11.0601 15.39C11.5801 14.87 12.4301 14.87 12.9501 15.39L16.0801 18.52C16.9201 19.36 16.3301 20.81 15.1301 20.81H8.87006C7.68006 20.81 7.08005 19.36 7.93005 18.52Z" fill="#292D32"/>
<path d="M2.15945 11.4301L4.44949 7.83008C4.80949 7.26008 5.60951 7.17008 6.08951 7.65008L9.68948 11.2501C10.0995 11.6601 10.0995 12.3301 9.68948 12.7401L6.08951 16.3401C5.60951 16.8201 4.81949 16.7301 4.44949 16.1601L2.15945 12.5601C1.94945 12.2201 1.94945 11.7801 2.15945 11.4301Z" fill="#292D32"/>
<path d="M21.8395 11.4301L19.5494 7.83008C19.1894 7.26008 18.3894 7.17008 17.9094 7.65008L14.3095 11.2501C13.8995 11.6601 13.8995 12.3301 14.3095 12.7401L17.9094 16.3401C18.3894 16.8201 19.1794 16.7301 19.5494 16.1601L21.8395 12.5601C22.0495 12.2201 22.0495 11.7801 21.8395 11.4301Z" fill="#292D32"/>
</svg>
