<svg width="24" height="24" viewBox="0 0 24 24" fill="none" xmlns="http://www.w3.org/2000/svg">
<path d="M24 0H0V24H24V0Z" fill="white"/>
<path d="M16.9795 8.09006L16.8095 8.52006L12.0895 21.7501H11.9095L7.17953 8.50006L7.01953 8.10006C7.07953 7.95006 7.15953 7.81006 7.23953 7.71006L10.8495 3.38006C11.4795 2.62006 12.5195 2.62006 13.1495 3.38006L16.7595 7.71006C16.8395 7.80006 16.9195 7.95006 16.9795 8.09006Z" fill="#292D32"/>
<path opacity="0.4" d="M11.9091 21.7501C11.6691 21.7401 11.4391 21.6801 11.2591 21.5701L5.93911 18.5401C5.41911 18.2401 5.09911 17.5201 5.20911 16.9401L6.92911 8.3701C6.94911 8.2901 6.97911 8.2001 7.01911 8.1001L7.17911 8.5001L11.9091 21.7501Z" fill="#292D32"/>
<path opacity="0.4" d="M18.0598 18.5398L12.7398 21.5698C12.5598 21.6798 12.3298 21.7398 12.0898 21.7498L16.8098 8.51984L16.9798 8.08984C17.0198 8.18984 17.0498 8.28984 17.0698 8.36984L18.7898 16.9398C18.8998 17.5198 18.5798 18.2398 18.0598 18.5398Z" fill="#292D32"/>
</svg>
