<svg width="24" height="24" viewBox="0 0 24 24" fill="none" xmlns="http://www.w3.org/2000/svg">
<path d="M24 0H0V24H24V0Z" fill="white"/>
<path opacity="0.4" d="M6.89958 9.10012L11.6696 6.98012C11.8796 6.89012 12.1196 6.89012 12.3196 6.98012L17.0996 9.10012C17.5196 9.29012 17.9096 8.78012 17.6196 8.42012L12.6196 2.31012C12.2796 1.89012 11.7196 1.89012 11.3796 2.31012L6.37958 8.42012C6.08958 8.78012 6.47958 9.29012 6.89958 9.10012Z" fill="#292D32"/>
<path opacity="0.4" d="M6.89957 14.9L11.6796 17.02C11.8896 17.11 12.1296 17.11 12.3296 17.02L17.1096 14.9C17.5296 14.71 17.9196 15.22 17.6296 15.58L12.6296 21.69C12.2896 22.11 11.7296 22.11 11.3896 21.69L6.38957 15.58C6.08957 15.22 6.46957 14.71 6.89957 14.9Z" fill="#292D32"/>
<path d="M11.7796 9.49L7.64957 11.55C7.27957 11.73 7.27957 12.26 7.64957 12.44L11.7796 14.5C11.9196 14.57 12.0896 14.57 12.2296 14.5L16.3596 12.44C16.7296 12.26 16.7296 11.73 16.3596 11.55L12.2296 9.49C12.0796 9.42 11.9196 9.42 11.7796 9.49Z" fill="#292D32"/>
</svg>
