<svg width="24" height="24" viewBox="0 0 24 24" fill="none" xmlns="http://www.w3.org/2000/svg">
<path opacity="0.58" d="M24 0H0V24H24V0Z" fill="white"/>
<path opacity="0.4" d="M12 22C17.5228 22 22 17.5228 22 12C22 6.47715 17.5228 2 12 2C6.47715 2 2 6.47715 2 12C2 17.5228 6.47715 22 12 22Z" fill="#292D32"/>
<path d="M11.9991 11.8801C13.3136 11.8801 14.3792 10.8146 14.3792 9.50012C14.3792 8.18568 13.3136 7.12012 11.9991 7.12012C10.6847 7.12012 9.61914 8.18568 9.61914 9.50012C9.61914 10.8146 10.6847 11.8801 11.9991 11.8801Z" fill="#292D32"/>
<path d="M14.5908 16.0303L13.3908 14.5203C13.7208 14.4303 14.0507 14.3103 14.3607 14.1603C14.7207 13.9603 14.8507 13.5203 14.6607 13.1603C14.4707 12.8003 14.0207 12.6603 13.6607 12.8403C12.6207 13.3603 11.3808 13.3603 10.3408 12.8403C9.97079 12.6503 9.52078 12.8003 9.33078 13.1703C9.14078 13.5403 9.29073 13.9903 9.66073 14.1803C9.96073 14.3303 10.2807 14.4503 10.6007 14.5303L9.41073 16.0403C9.15073 16.3703 9.21079 16.8403 9.53079 17.0903C9.86079 17.3503 10.3308 17.2903 10.5808 16.9703L11.9908 15.1903L13.4008 16.9703C13.5508 17.1603 13.7708 17.2503 13.9908 17.2503C14.1508 17.2503 14.3208 17.2003 14.4508 17.0903C14.7908 16.8303 14.8408 16.3603 14.5908 16.0303Z" fill="#292D32"/>
</svg>
