<svg width="24" height="24" viewBox="0 0 24 24" fill="none" xmlns="http://www.w3.org/2000/svg">
<path d="M24 0H0V24H24V0Z" fill="white"/>
<path d="M21 2H9C8.45 2 8 2.45 8 3V6C8 6.55 8.45 7 9 7H21C21.55 7 22 6.55 22 6V3C22 2.45 21.55 2 21 2Z" fill="#292D32"/>
<path d="M11 17H8C7.45 17 7 17.45 7 18V21C7 21.55 7.45 22 8 22H11C11.55 22 12 21.55 12 21V18C12 17.45 11.55 17 11 17Z" fill="#292D32"/>
<path opacity="0.4" d="M6 9.5H3C2.45 9.5 2 9.95 2 10.5V13.5C2 14.05 2.45 14.5 3 14.5H6C6.55 14.5 7 14.05 7 13.5V10.5C7 9.95 6.55 9.5 6 9.5Z" fill="#292D32"/>
<path opacity="0.4" d="M17 9.64014H10.5C9.95 9.64014 9.5 10.0901 9.5 10.6401V13.3601C9.5 13.9101 9.95 14.3601 10.5 14.3601H17C17.55 14.3601 18 13.9101 18 13.3601V10.6401C18 10.0901 17.55 9.64014 17 9.64014Z" fill="#292D32"/>
</svg>
