<svg width="24" height="24" viewBox="0 0 24 24" fill="none" xmlns="http://www.w3.org/2000/svg">
<path d="M24 0H0V24H24V0Z" fill="white"/>
<path d="M21.3802 11.4502L16.8802 8.85023C16.6502 8.72023 16.3602 8.72023 16.1302 8.85023L11.6302 11.4502C11.6302 11.4502 11.6302 11.4602 11.6202 11.4602L7.50023 13.8402L3.75023 11.6702V7.33023L7.50023 5.16023L11.2502 7.33023V8.47023C11.2502 8.88023 11.5902 9.22023 12.0002 9.22023C12.4102 9.22023 12.7502 8.88023 12.7502 8.47023V6.90023C12.7502 6.63023 12.6102 6.38023 12.3702 6.25023L7.87022 3.65023C7.64022 3.52023 7.35022 3.52023 7.12022 3.65023L2.62022 6.25023C2.39022 6.38023 2.24023 6.63023 2.24023 6.90023V12.1002C2.24023 12.3702 2.38022 12.6202 2.62022 12.7502L7.12022 15.3502C7.24022 15.4202 7.37023 15.4502 7.50023 15.4502C7.63023 15.4502 7.76023 15.4202 7.88023 15.3502L12.3802 12.7502C12.3802 12.7502 12.3802 12.7402 12.3902 12.7402L16.5102 10.3602L20.2602 12.5302V16.8602L16.5102 19.0302L12.7602 16.8602V15.6402C12.7602 15.2302 12.4202 14.8902 12.0102 14.8902C11.6002 14.8902 11.2602 15.2302 11.2602 15.6402V17.2902C11.2602 17.5602 11.4002 17.8102 11.6402 17.9402L16.1402 20.5402C16.2602 20.6102 16.3902 20.6402 16.5202 20.6402C16.6502 20.6402 16.7802 20.6102 16.9002 20.5402L21.4002 17.9402C21.6302 17.8102 21.7802 17.5602 21.7802 17.2902V12.0902C21.7502 11.8302 21.6102 11.5802 21.3802 11.4502Z" fill="#292D32"/>
<path opacity="0.4" d="M4.5 8.34982V10.6598C4.5 11.0198 4.69 11.3498 5 11.5298L7 12.6798C7.31 12.8598 7.69 12.8598 8 12.6798L10 11.5298C10.31 11.3498 10.5 11.0198 10.5 10.6598V8.34982C10.5 7.98982 10.31 7.65982 10 7.47982L8 6.32982C7.69 6.14982 7.31 6.14982 7 6.32982L5 7.47982C4.69 7.65982 4.5 7.98982 4.5 8.34982Z" fill="#292D32"/>
<path opacity="0.4" d="M13.5 13.55V15.86C13.5 16.22 13.69 16.55 14 16.73L16 17.88C16.31 18.06 16.69 18.06 17 17.88L19 16.73C19.31 16.55 19.5 16.22 19.5 15.86V13.55C19.5 13.19 19.31 12.86 19 12.68L17 11.53C16.69 11.35 16.31 11.35 16 11.53L14 12.68C13.69 12.86 13.5 13.19 13.5 13.55Z" fill="#292D32"/>
</svg>
