<svg width="24" height="24" viewBox="0 0 24 24" fill="none" xmlns="http://www.w3.org/2000/svg">
<path d="M24 0H0V24H24V0Z" fill="white"/>
<path opacity="0.4" d="M16.19 2H7.82001C4.17001 2 2 4.17 2 7.81V16.18C2 19.82 4.17 21.99 7.81 21.99H16.18C19.82 21.99 21.99 19.82 21.99 16.18V7.81C22 4.17 19.83 2 16.19 2Z" fill="#292D32"/>
<path d="M15.15 6H8.84998C7.82998 6 7 6.83 7 7.85V16.15C7 17.17 7.82998 18 8.84998 18H15.15C16.17 18 17 17.17 17 16.15V7.85C17 6.83 16.17 6 15.15 6ZM14 14.25H12.75V15.5C12.75 15.91 12.41 16.25 12 16.25C11.59 16.25 11.25 15.91 11.25 15.5V14.25H10C9.59 14.25 9.25 13.91 9.25 13.5C9.25 13.09 9.59 12.75 10 12.75H14C14.41 12.75 14.75 13.09 14.75 13.5C14.75 13.91 14.41 14.25 14 14.25ZM14 11.25H10C9.59 11.25 9.25 10.91 9.25 10.5C9.25 10.09 9.59 9.75 10 9.75H11.25V8.5C11.25 8.09 11.59 7.75 12 7.75C12.41 7.75 12.75 8.09 12.75 8.5V9.75H14C14.41 9.75 14.75 10.09 14.75 10.5C14.75 10.91 14.41 11.25 14 11.25Z" fill="#292D32"/>
</svg>
