<svg width="24" height="24" viewBox="0 0 24 24" fill="none" xmlns="http://www.w3.org/2000/svg">
<path opacity="0.58" d="M24 0H0V24H24V0Z" fill="white"/>
<path opacity="0.4" d="M16.1898 2H7.81976C4.17976 2 2.00977 4.17 2.00977 7.81V16.18C2.00977 19.82 4.17976 21.99 7.81976 21.99H16.1898C19.8298 21.99 21.9998 19.82 21.9998 16.18V7.81C21.9998 4.17 19.8298 2 16.1898 2Z" fill="#292D32"/>
<path d="M9.54987 17.7203H7.09985C6.42985 17.7203 5.87988 17.1703 5.87988 16.5003V7.52029C5.87988 6.85029 6.42985 6.30029 7.09985 6.30029H9.54987C10.2199 6.30029 10.7699 6.85029 10.7699 7.52029V16.5003C10.7699 17.1703 10.2199 17.7203 9.54987 17.7203Z" fill="#292D32"/>
<path d="M17.1398 13.6303H14.1998C13.6598 13.6303 13.2197 13.1903 13.2197 12.6503V7.26028C13.2197 6.72028 13.6598 6.28027 14.1998 6.28027H17.1398C17.6798 6.28027 18.1198 6.72028 18.1198 7.26028V12.6503C18.1198 13.1903 17.6798 13.6303 17.1398 13.6303Z" fill="#292D32"/>
</svg>
