<svg width="24" height="24" viewBox="0 0 24 24" fill="none" xmlns="http://www.w3.org/2000/svg">
<path opacity="0.58" d="M24 0H0V24H24V0Z" fill="white"/>
<path opacity="0.4" d="M19 9.8699V16.7299C19 17.5099 18.55 18.2099 17.85 18.5399L11.35 21.5999C10.81 21.8499 10.19 21.8499 9.64999 21.5999L3.14999 18.5399C2.44999 18.2099 2 17.5099 2 16.7299V9.2699C2 8.4899 2.44999 7.7899 3.14999 7.4599L9.64999 4.3999C10.19 4.1499 10.81 4.1499 11.35 4.3999L14.02 5.6599C14 5.7699 14 5.8899 14 5.9999C14 8.2099 15.79 9.9999 18 9.9999C18.35 9.9999 18.68 9.9599 19 9.8699Z" fill="#292D32"/>
<path d="M9 16.25C7.48 16.25 6.25 15.02 6.25 13.5V10.5C6.25 10.09 6.59 9.75 7 9.75C7.41 9.75 7.75 10.09 7.75 10.5V13.5C7.75 14.19 8.31 14.75 9 14.75C9.69 14.75 10.25 14.19 10.25 13.5V10.5C10.25 10.09 10.59 9.75 11 9.75C11.41 9.75 11.75 10.09 11.75 10.5V13.5C11.75 15.02 10.52 16.25 9 16.25Z" fill="#292D32"/>
<path d="M14 16.19C13.59 16.19 13.25 15.85 13.25 15.44V10.5C13.25 10.09 13.59 9.75 14 9.75C14.41 9.75 14.75 10.09 14.75 10.5V15.44C14.75 15.86 14.41 16.19 14 16.19Z" fill="#292D32"/>
<path d="M17.9999 6.33984C17.8599 6.33984 17.4199 6.36985 17.4199 6.78985C17.4199 7.07985 17.6399 7.24985 17.9999 7.24985C18.3599 7.24985 18.5799 7.07985 18.5799 6.78985C18.5799 6.45985 18.2799 6.33984 17.9999 6.33984Z" fill="#292D32"/>
<path d="M18.0005 5.50977C18.2705 5.50977 18.4406 5.35976 18.4406 5.12976C18.4406 4.84976 18.2105 4.75977 18.0005 4.75977C17.7905 4.75977 17.5605 4.85976 17.5605 5.12976C17.5605 5.35976 17.7305 5.50977 18.0005 5.50977Z" fill="#292D32"/>
<path d="M18 2C15.9 2 14.19 3.61 14.02 5.66C14 5.77 14 5.89 14 6C14 8.21 15.79 10 18 10C18.35 10 18.68 9.96 19 9.87C20.73 9.43 22 7.86 22 6C22 3.79 20.21 2 18 2ZM18 8.2C17.01 8.2 16.4 7.7 16.4 6.89C16.4 6.5 16.58 6.15 16.9 5.91C16.66 5.7 16.53 5.41 16.53 5.08C16.53 4.31 17.12 3.8 17.99 3.8C18.86 3.8 19.45 4.32 19.45 5.08C19.45 5.41 19.33 5.7 19.08 5.91C19.41 6.14 19.59 6.49 19.59 6.89C19.6 7.7 18.99 8.2 18 8.2Z" fill="#292D32"/>
</svg>
