<svg width="24" height="24" viewBox="0 0 24 24" fill="none" xmlns="http://www.w3.org/2000/svg">
<path opacity="0.58" d="M24 0H0V24H24V0Z" fill="white"/>
<path opacity="0.4" d="M12 22C17.5228 22 22 17.5228 22 12C22 6.47715 17.5228 2 12 2C6.47715 2 2 6.47715 2 12C2 17.5228 6.47715 22 12 22Z" fill="#292D32"/>
<path d="M13.5 15.75C13.09 15.75 12.75 15.41 12.75 15V11C12.75 10.31 12.19 9.75 11.5 9.75H8.25V15C8.25 15.41 7.91 15.75 7.5 15.75C7.09 15.75 6.75 15.41 6.75 15V9C6.75 8.59 7.09 8.25 7.5 8.25H11.5C13.02 8.25 14.25 9.48 14.25 11V15C14.25 15.41 13.91 15.75 13.5 15.75Z" fill="#292D32"/>
<path d="M10.5 15.75C10.09 15.75 9.75 15.41 9.75 15V12C9.75 11.59 10.09 11.25 10.5 11.25C10.91 11.25 11.25 11.59 11.25 12V15C11.25 15.41 10.91 15.75 10.5 15.75Z" fill="#292D32"/>
<path d="M16.5 15.75C16.09 15.75 15.75 15.41 15.75 15V9C15.75 8.59 16.09 8.25 16.5 8.25C16.91 8.25 17.25 8.59 17.25 9V15C17.25 15.41 16.91 15.75 16.5 15.75Z" fill="#292D32"/>
</svg>
