<svg width="24" height="24" viewBox="0 0 24 24" fill="none" xmlns="http://www.w3.org/2000/svg">
<path d="M15.5909 13.01C12.3509 13.01 9.71094 10.37 9.71094 7.13C9.71094 3.89 12.3509 1.25 15.5909 1.25C18.8309 1.25 21.4709 3.89 21.4709 7.13C21.4709 10.37 18.8309 13.01 15.5909 13.01ZM15.5909 2.75C13.1809 2.75 11.2109 4.71 11.2109 7.13C11.2109 9.55 13.1709 11.51 15.5909 11.51C18.0109 11.51 19.9709 9.55 19.9709 7.13C19.9709 4.71 18.0009 2.75 15.5909 2.75Z" fill="#292D32"/>
<path d="M6.36124 20.1913C4.25124 20.1913 2.53125 18.4713 2.53125 16.3613C2.53125 14.2513 4.25124 12.5312 6.36124 12.5312C8.47124 12.5312 10.1913 14.2513 10.1913 16.3613C10.1913 18.4713 8.47124 20.1913 6.36124 20.1913ZM6.36124 14.0312C5.08124 14.0312 4.03125 15.0713 4.03125 16.3613C4.03125 17.6413 5.07124 18.6913 6.36124 18.6913C7.64124 18.6913 8.69125 17.6513 8.69125 16.3613C8.69125 15.0813 7.64124 14.0312 6.36124 14.0312Z" fill="#292D32"/>
<path d="M16.6205 22.7489C14.7905 22.7489 13.3105 21.2589 13.3105 19.4389C13.3105 17.6089 14.8005 16.1289 16.6205 16.1289C18.4405 16.1289 19.9305 17.6189 19.9305 19.4389C19.9305 21.2589 18.4405 22.7489 16.6205 22.7489ZM16.6205 17.6189C15.6205 17.6189 14.8105 18.4289 14.8105 19.4289C14.8105 20.4289 15.6205 21.2389 16.6205 21.2389C17.6205 21.2389 18.4305 20.4289 18.4305 19.4289C18.4305 18.4389 17.6205 17.6189 16.6205 17.6189Z" fill="#292D32"/>
</svg>
