<svg width="24" height="24" viewBox="0 0 24 24" fill="none" xmlns="http://www.w3.org/2000/svg">
<path d="M14.2209 21.6293C13.0409 21.6293 11.3709 20.7993 10.0509 16.8293L9.33086 14.6693L7.17086 13.9493C3.21086 12.6293 2.38086 10.9593 2.38086 9.77934C2.38086 8.60934 3.21086 6.92934 7.17086 5.59934L15.6609 2.76934C17.7809 2.05934 19.5509 2.26934 20.6409 3.34934C21.7309 4.42934 21.9409 6.20934 21.2309 8.32934L18.4009 16.8193C17.0709 20.7993 15.4009 21.6293 14.2209 21.6293ZM7.64086 7.02934C4.86086 7.95934 3.87086 9.05934 3.87086 9.77934C3.87086 10.4993 4.86086 11.5993 7.64086 12.5193L10.1609 13.3593C10.3809 13.4293 10.5609 13.6093 10.6309 13.8293L11.4709 16.3493C12.3909 19.1293 13.5009 20.1193 14.2209 20.1193C14.9409 20.1193 16.0409 19.1293 16.9709 16.3493L19.8009 7.85934C20.3109 6.31934 20.2209 5.05934 19.5709 4.40934C18.9209 3.75934 17.6609 3.67934 16.1309 4.18934L7.64086 7.02934Z" fill="#292D32"/>
<path d="M10.1108 14.4C9.92078 14.4 9.73078 14.33 9.58078 14.18C9.29078 13.89 9.29078 13.41 9.58078 13.12L13.1608 9.53C13.4508 9.24 13.9308 9.24 14.2208 9.53C14.5108 9.82 14.5108 10.3 14.2208 10.59L10.6408 14.18C10.5008 14.33 10.3008 14.4 10.1108 14.4Z" fill="#292D32"/>
</svg>
