<svg width="24" height="24" viewBox="0 0 24 24" fill="none" xmlns="http://www.w3.org/2000/svg">
<path d="M14.6694 21.6516H4.21943C3.11943 21.6516 2.14945 21.0816 1.61945 20.1216C1.08945 19.1616 1.11947 18.0316 1.69947 17.1016L4.46943 12.6716C4.68943 12.3216 4.68943 11.6716 4.46943 11.3316L1.69947 6.90156C1.11947 5.97156 1.08945 4.84156 1.61945 3.88156C2.14945 2.92156 3.12943 2.35156 4.21943 2.35156H15.6594C16.5994 2.35156 17.6894 2.95156 18.1794 3.75156L22.3594 10.4316C22.9194 11.3316 22.8694 12.7116 22.2294 13.5616L17.0494 20.4616C16.5394 21.1416 15.5194 21.6516 14.6694 21.6516ZM4.21943 3.85156C3.67943 3.85156 3.18945 4.13156 2.92945 4.61156C2.66945 5.09156 2.67943 5.65156 2.96943 6.11156L5.73945 10.5416C6.25945 11.3816 6.25945 12.6416 5.73945 13.4816L2.96943 17.9116C2.67943 18.3716 2.66945 18.9316 2.92945 19.4116C3.18945 19.8916 3.67943 20.1716 4.21943 20.1716H14.6694C15.0494 20.1716 15.6194 19.8816 15.8494 19.5816L21.0295 12.6816C21.2995 12.3216 21.3295 11.6316 21.0895 11.2516L16.9094 4.57156C16.6894 4.21156 16.0794 3.88156 15.6594 3.88156H4.21943V3.85156Z" fill="#292D32"/>
</svg>
