<svg width="24" height="24" viewBox="0 0 24 24" fill="none" xmlns="http://www.w3.org/2000/svg">
<path d="M17.1797 18.75C15.4697 18.75 13.4297 18.1 13.4297 15V9C13.4297 5.9 15.4697 5.25 17.1797 5.25C18.8897 5.25 20.9297 5.9 20.9297 9V15C20.9297 18.1 18.8897 18.75 17.1797 18.75ZM17.1797 6.75C15.5597 6.75 14.9297 7.38 14.9297 9V15C14.9297 16.62 15.5597 17.25 17.1797 17.25C18.7997 17.25 19.4297 16.62 19.4297 15V9C19.4297 7.38 18.7997 6.75 17.1797 6.75Z" fill="#292D32"/>
<path d="M6.82031 18.75C5.11031 18.75 3.07031 18.1 3.07031 15V9C3.07031 5.9 5.11031 5.25 6.82031 5.25C8.53031 5.25 10.5703 5.9 10.5703 9V15C10.5703 18.1 8.53031 18.75 6.82031 18.75ZM6.82031 6.75C5.20031 6.75 4.57031 7.38 4.57031 9V15C4.57031 16.62 5.20031 17.25 6.82031 17.25C8.44031 17.25 9.07031 16.62 9.07031 15V9C9.07031 7.38 8.44031 6.75 6.82031 6.75Z" fill="#292D32"/>
<path d="M14.1803 12.75H9.82031C9.41031 12.75 9.07031 12.41 9.07031 12C9.07031 11.59 9.41031 11.25 9.82031 11.25H14.1803C14.5903 11.25 14.9303 11.59 14.9303 12C14.9303 12.41 14.6003 12.75 14.1803 12.75Z" fill="#292D32"/>
<path d="M22.5 15.25C22.09 15.25 21.75 14.91 21.75 14.5V9.5C21.75 9.09 22.09 8.75 22.5 8.75C22.91 8.75 23.25 9.09 23.25 9.5V14.5C23.25 14.91 22.91 15.25 22.5 15.25Z" fill="#292D32"/>
<path d="M1.5 15.25C1.09 15.25 0.75 14.91 0.75 14.5V9.5C0.75 9.09 1.09 8.75 1.5 8.75C1.91 8.75 2.25 9.09 2.25 9.5V14.5C2.25 14.91 1.91 15.25 1.5 15.25Z" fill="#292D32"/>
</svg>
