<svg width="24" height="24" viewBox="0 0 24 24" fill="none" xmlns="http://www.w3.org/2000/svg">
<path opacity="0.4" d="M16.65 3.85938H7.35C3.25 3.85938 2 5.10938 2 9.20938V14.7894C2 18.8894 3.25 20.1394 7.35 20.1394H16.65C20.75 20.1394 22 18.8894 22 14.7894V9.20938C22 5.10938 20.75 3.85938 16.65 3.85938Z" fill="#292D32"/>
<path d="M10.7898 7.57812H8.55977C6.30977 7.57812 5.25977 8.62813 5.25977 10.8781V13.1081C5.25977 15.3581 6.30977 16.4081 8.55977 16.4081H10.7898C13.0398 16.4081 14.0898 15.3581 14.0898 13.1081V10.8781C14.0898 8.62813 13.0398 7.57812 10.7898 7.57812Z" fill="#292D32"/>
</svg>
