<svg width="24" height="24" viewBox="0 0 24 24" fill="none" xmlns="http://www.w3.org/2000/svg">
<path opacity="0.4" d="M10.9608 2.1094L5.46078 4.1694C4.41078 4.5694 3.55078 5.8094 3.55078 6.9394V15.0394C3.55078 15.8494 4.08078 16.9194 4.73078 17.3994L10.2308 21.5094C11.2008 22.2394 12.7908 22.2394 13.7608 21.5094L19.2608 17.3994C19.9108 16.9094 20.4408 15.8494 20.4408 15.0394V6.9394C20.4408 5.8194 19.5808 4.5694 18.5308 4.1794L13.0308 2.1194C12.4708 1.8994 11.5308 1.8994 10.9608 2.1094Z" fill="#292D32"/>
<path d="M12 16.25C9.38 16.25 7.25 14.12 7.25 11.5C7.25 8.88 9.38 6.75 12 6.75C14.62 6.75 16.75 8.88 16.75 11.5C16.75 14.12 14.62 16.25 12 16.25ZM12 8.25C10.21 8.25 8.75 9.71 8.75 11.5C8.75 13.29 10.21 14.75 12 14.75C13.79 14.75 15.25 13.29 15.25 11.5C15.25 9.71 13.79 8.25 12 8.25Z" fill="#292D32"/>
<path d="M10.9999 13.2517C10.7499 13.2517 10.4999 13.1217 10.3599 12.8917C10.1499 12.5317 10.2599 12.0717 10.6199 11.8617L11.3799 11.4017C11.4599 11.3517 11.4999 11.2717 11.4999 11.1917V10.2617C11.4999 9.85172 11.8399 9.51172 12.2499 9.51172C12.6599 9.51172 12.9999 9.84172 12.9999 10.2517V11.1817C12.9999 11.7917 12.6699 12.3717 12.1499 12.6817L11.3799 13.1417C11.2699 13.2217 11.1299 13.2517 10.9999 13.2517Z" fill="#292D32"/>
</svg>
