<svg width="24" height="24" viewBox="0 0 24 24" fill="none" xmlns="http://www.w3.org/2000/svg">
<path d="M4.27028 6.41926C3.68028 4.51926 4.74027 3.46924 6.63027 4.08924L9.58028 5.05924C10.0803 5.21924 10.8303 5.10923 11.2503 4.79923L14.3303 2.57923C16.0003 1.37923 17.3302 2.07925 17.2902 4.12925L17.2202 7.91926C17.2102 8.43926 17.5403 9.12925 17.9603 9.43925L20.4403 11.3193C22.0303 12.5193 21.7703 13.9892 19.8703 14.5892L16.6403 15.5993C16.1003 15.7693 15.5303 16.3593 15.3903 16.9093L14.6203 19.8493C14.0103 22.1693 12.4902 22.3992 11.2302 20.3592L9.47024 17.5093C9.15024 16.9893 8.39024 16.5993 7.79024 16.6293L4.45028 16.7992C2.06028 16.9192 1.38027 15.5392 2.94027 13.7192L4.92025 11.4193C5.11025 11.1993 5.24026 10.8992 5.31026 10.5792" stroke="#292D32" stroke-width="1.5" stroke-linecap="round" stroke-linejoin="round"/>
<path d="M21.9108 21.9987L18.8809 18.9688" stroke="#292D32" stroke-width="1.5" stroke-linecap="round" stroke-linejoin="round"/>
</svg>
