<svg width="24" height="24" viewBox="0 0 24 24" fill="none" xmlns="http://www.w3.org/2000/svg">
<path d="M12.0014 9.74852C11.5914 9.74852 11.2514 9.40852 11.2514 8.99852V3.80852L10.5314 4.52852C10.2414 4.81852 9.76141 4.81852 9.47141 4.52852C9.18141 4.23852 9.18141 3.75852 9.47141 3.46852L11.4714 1.46852C11.6814 1.25852 12.0114 1.18852 12.2914 1.30852C12.5714 1.41852 12.7514 1.69852 12.7514 1.99852V8.99852C12.7514 9.40852 12.4114 9.74852 12.0014 9.74852Z" fill="#292D32"/>
<path d="M14.0014 4.75141C13.8114 4.75141 13.6214 4.68141 13.4714 4.53141L11.4714 2.53141C11.1814 2.24141 11.1814 1.76141 11.4714 1.47141C11.7614 1.18141 12.2414 1.18141 12.5314 1.47141L14.5314 3.47141C14.8214 3.76141 14.8214 4.24141 14.5314 4.53141C14.3814 4.68141 14.1914 4.75141 14.0014 4.75141Z" fill="#292D32"/>
<path d="M13.7605 17.75H10.2305C9.18047 17.75 8.24047 17.17 7.77047 16.23L6.60047 13.89C6.56047 13.8 6.47047 13.75 6.38047 13.75H1.98047C1.57047 13.75 1.23047 13.41 1.23047 13C1.23047 12.59 1.57047 12.25 1.98047 12.25H6.39047C7.06047 12.25 7.66047 12.62 7.96047 13.22L9.13047 15.56C9.34047 15.99 9.77047 16.25 10.2505 16.25H13.7805C14.2605 16.25 14.6905 15.99 14.9005 15.56L16.0705 13.22C16.3705 12.62 16.9705 12.25 17.6405 12.25H22.0005C22.4105 12.25 22.7505 12.59 22.7505 13C22.7505 13.41 22.4105 13.75 22.0005 13.75H17.6405C17.5405 13.75 17.4605 13.8 17.4205 13.89L16.2505 16.23C15.7505 17.17 14.8105 17.75 13.7605 17.75Z" fill="#292D32"/>
<path d="M15 22.7509H9C3.57 22.7509 1.25 20.4309 1.25 15.0009V12.0009C1.25 7.3109 2.99 4.9609 6.89 4.3909C7.31 4.3309 7.68 4.6109 7.74 5.0209C7.8 5.4309 7.52 5.8109 7.11 5.8709C3.97 6.3309 2.75 8.0509 2.75 12.0009V15.0009C2.75 19.6109 4.39 21.2509 9 21.2509H15C19.61 21.2509 21.25 19.6109 21.25 15.0009V12.0009C21.25 8.0509 20.03 6.3309 16.89 5.8709C16.48 5.8109 16.2 5.4309 16.26 5.0209C16.32 4.6109 16.7 4.3309 17.11 4.3909C21.01 4.9609 22.75 7.3109 22.75 12.0009V15.0009C22.75 20.4309 20.43 22.7509 15 22.7509Z" fill="#292D32"/>
</svg>
