<svg width="24" height="24" viewBox="0 0 24 24" fill="none" xmlns="http://www.w3.org/2000/svg">
<path d="M15.9978 22.3214C15.6578 22.3214 15.3278 22.2214 15.0378 22.0314L10.7778 19.1914H8.88782C8.65782 19.1914 8.43779 19.0814 8.29779 18.9014C8.15779 18.7114 8.10782 18.4714 8.16782 18.2514C8.22782 18.0114 8.25781 17.7714 8.25781 17.5114C8.25781 16.7114 7.95782 15.9414 7.41782 15.3414C6.80782 14.6514 5.93781 14.2614 5.00781 14.2614C4.11781 14.2614 3.2978 14.6114 2.6778 15.2414C2.4878 15.4414 2.19781 15.5114 1.93781 15.4414C1.67781 15.3614 1.46781 15.1514 1.40781 14.8814C1.30781 14.4414 1.25781 13.9614 1.25781 13.4414V7.44141C1.25781 4.00141 3.56781 1.69141 7.00781 1.69141H17.0078C20.4478 1.69141 22.7578 4.00141 22.7578 7.44141V13.4414C22.7578 15.1114 22.2078 16.5514 21.1578 17.6014C20.2778 18.4814 19.1078 19.0114 17.7578 19.1514V20.5714C17.7578 21.2214 17.3978 21.8114 16.8278 22.1214C16.5578 22.2514 16.2778 22.3214 15.9978 22.3214ZM9.7478 17.6814H10.9978C11.1478 17.6814 11.2878 17.7214 11.4178 17.8114L15.8678 20.7814C15.9778 20.8514 16.0678 20.8214 16.1178 20.7914C16.1678 20.7614 16.2578 20.7014 16.2578 20.5614V18.4314C16.2578 18.0214 16.5978 17.6814 17.0078 17.6814C18.2778 17.6814 19.3478 17.2814 20.0978 16.5314C20.8578 15.7714 21.2578 14.7014 21.2578 13.4314V7.4314C21.2578 4.8514 19.5878 3.1814 17.0078 3.1814H7.00781C4.42781 3.1814 2.75781 4.8514 2.75781 7.4314V13.3114C3.43781 12.9414 4.20781 12.7514 5.00781 12.7514C6.36781 12.7514 7.65781 13.3314 8.53781 14.3314C9.31781 15.2014 9.75781 16.3214 9.75781 17.5014C9.74781 17.5614 9.7478 17.6214 9.7478 17.6814Z" fill="#292D32"/>
<path d="M5 22.25C2.38 22.25 0.25 20.12 0.25 17.5C0.25 16.04 0.899999 14.69 2.03 13.79C2.87 13.12 3.93 12.75 5 12.75C7.62 12.75 9.75 14.88 9.75 17.5C9.75 18.86 9.16 20.16 8.13 21.06C7.26 21.83 6.15 22.25 5 22.25ZM5 14.25C4.26 14.25 3.56 14.5 2.97 14.97C2.2 15.58 1.75 16.51 1.75 17.5C1.75 19.29 3.21 20.75 5 20.75C5.78 20.75 6.53999 20.46 7.14999 19.94C7.84999 19.32 8.25 18.44 8.25 17.5C8.25 15.71 6.79 14.25 5 14.25Z" fill="#292D32"/>
<path d="M3.99989 19.25C3.74989 19.25 3.49988 19.12 3.35988 18.89C3.14988 18.53 3.25989 18.07 3.61989 17.86L4.5099 17.33V16.25C4.5099 15.84 4.8499 15.5 5.2599 15.5C5.6699 15.5 6.0099 15.84 6.0099 16.25V17.75C6.0099 18.01 5.86989 18.26 5.64989 18.39L4.39989 19.14C4.25989 19.22 4.12989 19.25 3.99989 19.25Z" fill="#292D32"/>
<path d="M15.5 11.25H8.5C8.09 11.25 7.75 10.91 7.75 10.5C7.75 10.09 8.09 9.75 8.5 9.75H15.5C15.91 9.75 16.25 10.09 16.25 10.5C16.25 10.91 15.91 11.25 15.5 11.25Z" fill="#292D32"/>
</svg>
