<svg width="24" height="24" viewBox="0 0 24 24" fill="none" xmlns="http://www.w3.org/2000/svg">
<path d="M12 21.25H7C3.35 21.25 1.25 19.15 1.25 15.5V8.5C1.25 4.85 3.35 2.75 7 2.75H17C20.65 2.75 22.75 4.85 22.75 8.5V11.5C22.75 11.91 22.41 12.25 22 12.25C21.59 12.25 21.25 11.91 21.25 11.5V8.5C21.25 5.64 19.86 4.25 17 4.25H7C4.14 4.25 2.75 5.64 2.75 8.5V15.5C2.75 18.36 4.14 19.75 7 19.75H12C12.41 19.75 12.75 20.09 12.75 20.5C12.75 20.91 12.41 21.25 12 21.25Z" fill="#292D32"/>
<path d="M11.9988 12.868C11.1588 12.868 10.3088 12.608 9.6588 12.078L6.5288 9.578C6.2088 9.318 6.14881 8.84802 6.4088 8.52802C6.6688 8.20802 7.13879 8.15802 7.45879 8.40802L10.5888 10.908C11.3488 11.518 12.6388 11.518 13.3988 10.908L16.5288 8.40802C16.8488 8.14802 17.3188 8.19802 17.5788 8.52802C17.8388 8.84802 17.7888 9.328 17.4588 9.578L14.3288 12.078C13.6888 12.608 12.8388 12.868 11.9988 12.868Z" fill="#292D32"/>
<path d="M18.2 22.15C16.02 22.15 14.25 20.38 14.25 18.2C14.25 16.02 16.02 14.25 18.2 14.25C20.38 14.25 22.15 16.02 22.15 18.2C22.15 20.38 20.38 22.15 18.2 22.15ZM18.2 15.75C16.85 15.75 15.75 16.85 15.75 18.2C15.75 19.55 16.85 20.65 18.2 20.65C19.55 20.65 20.65 19.55 20.65 18.2C20.65 16.85 19.55 15.75 18.2 15.75Z" fill="#292D32"/>
<path d="M22.0014 22.7514C21.8114 22.7514 21.6214 22.6814 21.4714 22.5314L20.4714 21.5314C20.1814 21.2414 20.1814 20.7614 20.4714 20.4714C20.7614 20.1814 21.2414 20.1814 21.5314 20.4714L22.5314 21.4714C22.8214 21.7614 22.8214 22.2414 22.5314 22.5314C22.3814 22.6814 22.1914 22.7514 22.0014 22.7514Z" fill="#292D32"/>
</svg>
