<svg width="24" height="24" viewBox="0 0 24 24" fill="none" xmlns="http://www.w3.org/2000/svg">
<path d="M17 21.25H7C3.35 21.25 1.25 19.15 1.25 15.5V8.5C1.25 4.85 3.35 2.75 7 2.75H12C12.41 2.75 12.75 3.09 12.75 3.5C12.75 3.91 12.41 4.25 12 4.25H7C4.14 4.25 2.75 5.64 2.75 8.5V15.5C2.75 18.36 4.14 19.75 7 19.75H17C19.86 19.75 21.25 18.36 21.25 15.5V11.5C21.25 11.09 21.59 10.75 22 10.75C22.41 10.75 22.75 11.09 22.75 11.5V15.5C22.75 19.15 20.65 21.25 17 21.25Z" fill="#292D32"/>
<path d="M11.9988 12.8688C11.1588 12.8688 10.3088 12.6088 9.6588 12.0788L6.5288 9.5788C6.2088 9.3188 6.14881 8.8488 6.4088 8.5288C6.6688 8.2088 7.13879 8.14881 7.45879 8.4088L10.5888 10.9088C11.3488 11.5188 12.6388 11.5188 13.3988 10.9088C13.7188 10.6488 14.1888 10.6988 14.4488 11.0288C14.7088 11.3488 14.6588 11.8288 14.3288 12.0788C13.6888 12.6088 12.8388 12.8688 11.9988 12.8688Z" fill="#292D32"/>
<path d="M16.7407 9.74828C16.3307 9.74828 16.0507 9.60827 15.8707 9.47827C15.5407 9.23827 15.0307 8.63828 15.3307 7.31828L15.3807 7.10828C15.4007 7.02828 15.3407 6.83827 15.2907 6.77827L14.9407 6.42827C14.3507 5.82827 14.1207 5.12828 14.3207 4.49828C14.5207 3.87828 15.1107 3.43828 15.9407 3.29828L16.3207 3.23828C16.3907 3.21828 16.5307 3.11828 16.5707 3.04828L16.8507 2.47827C17.2407 1.68827 17.8407 1.23828 18.5007 1.23828C19.1607 1.23828 19.7607 1.68827 20.1507 2.47827L20.4307 3.04828C20.4607 3.10828 20.6107 3.21828 20.6807 3.23828L21.0607 3.29828C21.8907 3.43828 22.4807 3.87828 22.6807 4.49828C22.8807 5.11828 22.6607 5.81827 22.0607 6.42827L21.7107 6.77827C21.6607 6.83827 21.6007 7.02828 21.6207 7.10828L21.6707 7.31828C21.9707 8.63828 21.4607 9.23827 21.1307 9.47827C20.8007 9.71827 20.0807 10.0083 18.9307 9.31828L18.6807 9.16827C18.6107 9.12827 18.4107 9.12827 18.3407 9.16827L18.0807 9.31828C17.5407 9.63828 17.0907 9.74828 16.7407 9.74828ZM18.4907 2.74828C18.4807 2.75828 18.3407 2.85827 18.2007 3.14827L17.9207 3.71828C17.6807 4.20828 17.1107 4.62828 16.5807 4.71828L16.2007 4.77827C15.8807 4.82827 15.7707 4.93828 15.7607 4.95828C15.7607 4.97828 15.7907 5.13827 16.0207 5.36827L16.3707 5.71828C16.7807 6.13828 16.9907 6.85827 16.8607 7.42827L16.8107 7.63828C16.7307 7.99828 16.7607 8.18827 16.7807 8.25827C16.8007 8.23827 16.9807 8.21828 17.3107 8.01828L17.5707 7.86827C18.1207 7.53827 18.9107 7.53827 19.4607 7.86827L19.7107 8.01828C20.0407 8.21828 20.2107 8.23828 20.2707 8.23828C20.2607 8.20828 20.3007 8.02828 20.2107 7.63828L20.1607 7.42827C20.0307 6.84827 20.2407 6.13828 20.6507 5.71828L21.0007 5.36827C21.2307 5.13827 21.2607 4.97827 21.2607 4.94827C21.2507 4.92827 21.1407 4.82828 20.8207 4.76828L20.4407 4.70828C19.9007 4.61828 19.3407 4.19828 19.1007 3.70828L18.8207 3.14827C18.6607 2.84827 18.5307 2.75828 18.4907 2.74828Z" fill="#292D32"/>
</svg>
