<svg width="24" height="24" viewBox="0 0 24 24" fill="none" xmlns="http://www.w3.org/2000/svg">
<path d="M20.4192 9.00047C20.2792 8.99047 20.0992 8.98047 19.8992 8.98047C19.5092 8.98047 19.1992 9.29047 19.1992 9.68047V14.3305C19.1992 14.7205 19.5092 15.0305 19.8992 15.0305C20.0992 15.0305 20.2692 15.0205 20.4392 15.0105C21.9992 14.8305 21.9992 13.7305 21.9992 12.9305V11.0705C21.9992 10.2705 21.9992 9.17047 20.4192 9.00047Z" fill="#292D32"/>
<path d="M12.93 4.78906H7.35C3.25 4.78906 2 6.03906 2 10.1391V13.8591C2 17.9591 3.25 19.2091 7.35 19.2091H12.93C17.03 19.2091 18.28 17.9591 18.28 13.8591V10.1391C18.28 6.03906 17.03 4.78906 12.93 4.78906ZM12.53 13.6791C12.51 13.7191 12.48 13.7591 12.45 13.7891L10.58 15.9791C10.43 16.1491 10.22 16.2391 10.01 16.2391C9.84 16.2391 9.66 16.1791 9.52 16.0591C9.21 15.7891 9.17 15.3191 9.44 14.9991L11.24 12.8891C11.25 12.8591 11.24 12.8291 11.22 12.7991C11.2 12.7591 11.16 12.7391 11.11 12.7391H9.12C8.53 12.7391 8.01 12.4391 7.71 11.9291C7.42 11.4191 7.42 10.8191 7.71 10.3091L9.42 8.04906C9.67 7.71906 10.14 7.64906 10.47 7.89906C10.8 8.14906 10.87 8.61906 10.62 8.94906L8.97 11.1391C9 11.0991 9 11.1391 9.02 11.1891C9.04 11.2291 9.08 11.2491 9.13 11.2491H11.14C11.73 11.2491 12.25 11.5491 12.55 12.0591C12.82 12.5691 12.82 13.1691 12.53 13.6791Z" fill="#292D32"/>
</svg>
