<svg width="24" height="24" viewBox="0 0 24 24" fill="none" xmlns="http://www.w3.org/2000/svg">
<path d="M16.6494 4.79H16.3694C16.2694 4 15.9794 3.37 15.5194 2.9C14.9194 2.3 14.0494 2 12.9294 2H7.34938C5.09938 2 3.85938 3.24 3.85938 5.49C3.85938 6.61 4.15938 7.48 4.75938 8.08C5.35938 8.68 6.22937 8.98 7.34938 8.98H12.9294C14.9294 8.98 16.1294 7.99 16.3694 6.19H16.6494C18.7394 6.19 18.7394 6.47 18.7394 8.28V10.14C18.7394 11.95 18.7394 12.23 16.6494 12.23H12.9294C9.93938 12.23 9.50938 13.65 9.44938 15.03C8.54938 15.09 7.57938 15.51 7.57938 17.11V19.9C7.57938 21.63 8.71938 21.99 9.66938 21.99H10.5994C11.5494 21.99 12.6894 21.63 12.6894 19.9V17.11C12.6894 15.53 11.7394 15.09 10.8394 15.03C10.8894 14.02 11.1794 13.62 12.9194 13.62H16.6394C19.8894 13.62 20.1294 12.3 20.1294 10.13V8.28C20.1394 6.11 19.8994 4.79 16.6494 4.79Z" fill="#292D32"/>
</svg>
