<svg width="24" height="24" viewBox="0 0 24 24" fill="none" xmlns="http://www.w3.org/2000/svg">
<path d="M19.27 3.64844L14.17 8.74844H3.2C2.54 8.74844 2 8.20844 2 7.54844V7.53844C2 5.24844 3.85 3.39844 6.14 3.39844H17.85C18.35 3.39844 18.83 3.48844 19.27 3.64844Z" fill="#292D32"/>
<path d="M12.67 10.25L7.17 15.75H6C5.59 15.75 5.25 16.09 5.25 16.5C5.25 16.81 5.45 17.09 5.73 17.19L3.38 19.54C2.53 18.79 2 17.69 2 16.46V11.45C2 10.79 2.54 10.25 3.2 10.25H12.67Z" fill="#292D32"/>
<path d="M21.9987 11V16.46C21.9987 18.75 20.1487 20.6 17.8587 20.6H8.8087C7.9187 20.6 7.4687 19.52 8.0987 18.89L9.4487 17.54C9.6387 17.35 9.8887 17.25 10.1587 17.25H14.4987C14.9087 17.25 15.2487 16.91 15.2487 16.5C15.2487 16.09 14.9087 15.75 14.4987 15.75H13.6587C12.7687 15.75 12.3187 14.67 12.9487 14.04L16.4087 10.58C16.7887 10.21 17.2987 10 17.8287 10H20.9987C21.5487 10 21.9987 10.45 21.9987 11Z" fill="#292D32"/>
<path d="M21.7689 2.22891C21.4689 1.92891 20.9789 1.92891 20.6789 2.22891L2.22891 20.6889C1.92891 20.9889 1.92891 21.4789 2.22891 21.7789C2.37891 21.9189 2.56891 21.9989 2.76891 21.9989C2.96891 21.9989 3.15891 21.9189 3.30891 21.7689L21.7689 3.30891C22.0789 3.00891 22.0789 2.52891 21.7689 2.22891Z" fill="#292D32"/>
<path d="M21.7686 3.30859L20.6086 4.46859L16.3286 8.74859L3.30859 21.7686C3.15859 21.9186 2.96859 21.9986 2.76859 21.9986C2.56859 21.9986 2.37859 21.9186 2.22859 21.7686C1.91859 21.4686 1.91859 20.9886 2.22859 20.6886L3.37859 19.5386L5.72859 17.1886L19.2686 3.64859L20.6886 2.22859C20.9886 1.91859 21.4686 1.91859 21.7686 2.22859C22.0786 2.52859 22.0786 3.00859 21.7686 3.30859Z" fill="#292D32"/>
<path d="M22.0005 7.41026C22.0005 6.52026 20.9205 6.07026 20.2905 6.70026L20.0005 7.00026L19.7105 7.29026C19.0805 7.92026 19.5205 9.00026 20.4105 9.00026H21.0005C21.5505 9.00026 22.0005 8.55026 22.0005 8.00026V7.41026Z" fill="#292D32"/>
</svg>
