<svg width="24" height="24" viewBox="0 0 24 24" fill="none" xmlns="http://www.w3.org/2000/svg">
<path d="M14.3498 2H9.64977C8.60977 2 7.75977 2.84 7.75977 3.88V4.82C7.75977 5.86 8.59977 6.7 9.63977 6.7H14.3498C15.3898 6.7 16.2298 5.86 16.2298 4.82V3.88C16.2398 2.84 15.3898 2 14.3498 2Z" fill="#292D32"/>
<path d="M17.2391 4.81949C17.2391 6.40949 15.9391 7.70949 14.3491 7.70949H9.64906C8.05906 7.70949 6.75906 6.40949 6.75906 4.81949C6.75906 4.25949 6.15906 3.90949 5.65906 4.16949C4.24906 4.91949 3.28906 6.40949 3.28906 8.11949V17.5295C3.28906 19.9895 5.29906 21.9995 7.75906 21.9995H16.2391C18.6991 21.9995 20.7091 19.9895 20.7091 17.5295V8.11949C20.7091 6.40949 19.7491 4.91949 18.3391 4.16949C17.8391 3.90949 17.2391 4.25949 17.2391 4.81949ZM15.5291 17.5295C15.3791 17.6795 15.1891 17.7495 14.9991 17.7495C14.8091 17.7495 14.6191 17.6795 14.4691 17.5295L9.74906 12.8095V13.9995C9.74906 14.4095 9.40906 14.7495 8.99906 14.7495C8.58906 14.7495 8.24906 14.4095 8.24906 13.9995V10.9995C8.24906 10.5895 8.58906 10.2495 8.99906 10.2495H11.9991C12.4091 10.2495 12.7491 10.5895 12.7491 10.9995C12.7491 11.4095 12.4091 11.7495 11.9991 11.7495H10.8091L15.5291 16.4695C15.8191 16.7595 15.8191 17.2395 15.5291 17.5295Z" fill="#292D32"/>
</svg>
