<svg width="24" height="24" viewBox="0 0 24 24" fill="none" xmlns="http://www.w3.org/2000/svg">
<path d="M12 11.5312C9.24 11.5312 7 13.7713 7 16.5313C7 17.2713 7.16 17.9713 7.46 18.5913C7.54 18.7713 7.63 18.9413 7.73 19.1013C8.59 20.5513 10.18 21.5313 12 21.5313C13.82 21.5313 15.41 20.5513 16.27 19.1013C16.37 18.9413 16.46 18.7713 16.54 18.5913C16.84 17.9713 17 17.2713 17 16.5313C17 13.7713 14.76 11.5312 12 11.5312ZM14.07 16.1013L11.94 18.0712C11.8 18.2013 11.61 18.2713 11.43 18.2713C11.24 18.2713 11.05 18.2012 10.9 18.0512L9.91 17.0612C9.62 16.7712 9.62 16.2913 9.91 16.0013C10.2 15.7113 10.68 15.7113 10.97 16.0013L11.45 16.4812L13.05 15.0013C13.36 14.7213 13.83 14.7413 14.11 15.0413C14.39 15.3413 14.37 15.8113 14.07 16.1013Z" fill="#292D32"/>
<path d="M20.1993 17.0715C19.8393 17.3915 19.4493 17.6615 19.0293 17.8815C18.6693 18.0615 18.3093 17.7115 18.3693 17.3115C18.4093 17.0215 18.4293 16.7215 18.4293 16.4115C18.4293 12.8315 15.5093 9.91149 11.9293 9.91149C8.34934 9.91149 5.42934 12.8315 5.42934 16.4115C5.42934 16.8715 5.47934 17.3115 5.56934 17.7415C5.63934 18.0915 5.36934 18.4415 5.01934 18.3515C1.06934 17.3915 1.04934 11.3115 5.46934 11.0015H5.51934C2.30934 2.07149 15.8493 -1.49851 17.3993 7.88149C21.7293 8.43149 23.4793 14.2015 20.1993 17.0715Z" fill="#292D32"/>
</svg>
