<svg width="24" height="24" viewBox="0 0 24 24" fill="none" xmlns="http://www.w3.org/2000/svg">
<path d="M10.7584 2C10.2784 2 9.89844 2.38 9.89844 2.86V11.32H13.5684L11.9984 9.75C11.7084 9.46 11.7084 8.98 11.9984 8.69C12.2884 8.4 12.7684 8.4 13.0584 8.69L15.8984 11.54C16.1884 11.83 16.1884 12.31 15.8984 12.6L13.0584 15.45C12.9084 15.6 12.7184 15.67 12.5284 15.67C12.3384 15.67 12.1484 15.6 11.9984 15.45C11.7084 15.16 11.7084 14.68 11.9984 14.39L13.5584 12.83H9.89844V21.16C9.89844 21.63 10.2784 22.02 10.7584 22.02C16.6484 22.02 20.7584 17.91 20.7584 12.02C20.7584 6.13 16.6384 2 10.7584 2Z" fill="#292D32"/>
<path d="M3.98828 11.3203C3.57828 11.3203 3.23828 11.6603 3.23828 12.0703C3.23828 12.4803 3.57828 12.8203 3.98828 12.8203H9.88828V11.3203H3.98828Z" fill="#292D32"/>
</svg>
