<svg width="24" height="24" viewBox="0 0 24 24" fill="none" xmlns="http://www.w3.org/2000/svg">
<path d="M14.8406 10.8986L20.5006 7.10862C21.0706 6.72862 21.2206 5.94862 20.8406 5.38862L19.0206 2.67862C18.6406 2.10862 17.8606 1.95862 17.3006 2.33862L11.6406 6.12862L14.8406 10.8986Z" fill="#292D32"/>
<path d="M14.5197 10.4216L12.7597 11.6016L10.0897 13.3916L9.73969 13.6216L9.57969 13.3816L7.33969 10.0416L7.17969 9.80156L11.9597 6.60156L14.5197 10.4216Z" fill="#292D32"/>
<path d="M5.63912 16.0191L9.58912 13.3791L7.34912 10.0391L3.39912 12.6791C2.93912 12.9891 2.81912 13.6091 3.12912 14.0691L4.25912 15.7491C4.55912 16.2091 5.17912 16.3291 5.63912 16.0191Z" fill="#292D32"/>
<path d="M16.5594 21.8116C16.4594 21.8516 16.3494 21.8816 16.2494 21.8816C15.9594 21.8816 15.6894 21.7116 15.5594 21.4316L11.8294 13.1916L8.04941 21.4416C7.91941 21.7116 7.64941 21.8816 7.35941 21.8816C7.25941 21.8816 7.14941 21.8516 7.04941 21.8116C6.67941 21.6316 6.50941 21.1916 6.67941 20.8116L10.0894 13.3916L12.7594 11.6016L16.9294 20.8216C17.0994 21.1916 16.9294 21.6416 16.5594 21.8116Z" fill="#292D32"/>
</svg>
