<svg width="24" height="24" viewBox="0 0 24 24" fill="none" xmlns="http://www.w3.org/2000/svg">
<path d="M21.9707 18V19C21.9707 20.65 21.9707 22 18.9707 22H4.9707C1.9707 22 1.9707 20.65 1.9707 19V18C1.9707 17.45 2.4207 17 2.9707 17H20.9707C21.5207 17 21.9707 17.45 21.9707 18Z" fill="#292D32"/>
<path d="M14.4095 5.17977C14.4595 4.97977 14.4895 4.78977 14.4995 4.57977C14.5295 3.41977 13.8195 2.39977 12.6995 2.09977C11.0195 1.63977 9.49953 2.89977 9.49953 4.49977C9.49953 4.73977 9.52953 4.95977 9.58953 5.17977C5.97953 5.94977 3.26953 9.15977 3.26953 12.9998V14.4998C3.26953 15.0498 3.71953 15.4998 4.26953 15.4998H19.7195C20.2695 15.4998 20.7195 15.0498 20.7195 14.4998V12.9998C20.7195 9.15977 18.0195 5.95977 14.4095 5.17977ZM14.9995 11.7498H8.99953C8.58953 11.7498 8.24953 11.4098 8.24953 10.9998C8.24953 10.5898 8.58953 10.2498 8.99953 10.2498H14.9995C15.4095 10.2498 15.7495 10.5898 15.7495 10.9998C15.7495 11.4098 15.4095 11.7498 14.9995 11.7498Z" fill="#292D32"/>
</svg>
