<svg width="24" height="24" viewBox="0 0 24 24" fill="none" xmlns="http://www.w3.org/2000/svg">
<path d="M17.1888 4.96C17.1888 4.97 17.1888 4.97 17.1888 4.98C16.9388 4.97 16.6887 4.96 16.4187 4.96H8.71875L9.78875 3.9C10.7687 2.91 11.8488 2 13.0988 2C14.3588 2 15.4387 2.91 16.4187 3.9L16.9787 4.46C17.1187 4.59 17.1888 4.77 17.1888 4.96Z" fill="#292D32"/>
<path d="M20.8409 13.1692C21.2309 13.1692 21.5409 12.8492 21.5409 12.4492V11.5692C21.5409 7.63922 20.3409 6.44922 16.4209 6.44922H10.1209H7.58094C3.66094 6.44922 2.46094 7.64922 2.46094 11.5692V11.9992C2.46094 12.3992 2.77094 12.7092 3.16094 12.7092C4.00094 12.7092 4.67094 13.3892 4.67094 14.2192C4.67094 15.0492 4.00094 15.7392 3.16094 15.7392C2.77094 15.7392 2.46094 16.0492 2.46094 16.4492V16.8792C2.46094 20.8092 3.66094 21.9992 7.58094 21.9992H10.1109H16.4109C20.3309 21.9992 21.5309 20.7992 21.5309 16.8792C21.5309 16.4892 21.2209 16.1692 20.8309 16.1692C19.9909 16.1692 19.3209 15.4992 19.3209 14.6692C19.3309 13.8392 20.0009 13.1692 20.8409 13.1692ZM10.8209 18.8592C10.8209 19.2492 10.5009 19.5692 10.1109 19.5692C9.72094 19.5692 9.40094 19.2492 9.40094 18.8592V16.1792C9.40094 15.7892 9.72094 15.4692 10.1109 15.4692C10.5009 15.4692 10.8209 15.7892 10.8209 16.1792V18.8592ZM10.8209 12.2692C10.8209 12.6592 10.5009 12.9792 10.1109 12.9792C9.72094 12.9792 9.40094 12.6592 9.40094 12.2692V9.58922C9.40094 9.19922 9.72094 8.87922 10.1109 8.87922C10.5009 8.87922 10.8209 9.19922 10.8209 9.58922V12.2692Z" fill="#292D32"/>
</svg>
