<svg width="24" height="24" viewBox="0 0 24 24" fill="none" xmlns="http://www.w3.org/2000/svg">
<path d="M16.0608 16.7482C16.0508 16.7482 16.0408 16.7482 16.0208 16.7482H6.36078C3.73078 16.5682 2.55078 14.5482 2.55078 12.7482C2.55078 11.1682 3.4608 9.41824 5.4408 8.89824C4.9208 6.72824 5.40079 4.69818 6.81079 3.21818C8.45079 1.49818 11.0708 0.818231 13.3408 1.51823C15.4008 2.14823 16.8508 3.82818 17.3908 6.15818C19.1808 6.58818 20.6108 7.94823 21.1808 9.82823C21.8108 11.8882 21.2308 13.9982 19.6808 15.3482C18.7108 16.2482 17.4208 16.7482 16.0608 16.7482ZM6.40079 10.2582C4.79079 10.3882 4.0708 11.5982 4.0708 12.7482C4.0708 13.9082 4.80079 15.1282 6.43079 15.2482H16.0408C16.0508 15.2482 16.0608 15.2482 16.0708 15.2482C17.0508 15.2482 17.9908 14.8882 18.7008 14.2282C20.0208 13.0782 20.1108 11.4282 19.7608 10.2582C19.4008 9.08822 18.4108 7.7682 16.6708 7.5482C16.3408 7.5082 16.0808 7.2582 16.0208 6.9282C15.6808 4.8782 14.5708 3.46823 12.9108 2.95823C11.2008 2.43823 9.1508 2.96823 7.9108 4.26823C6.7008 5.53823 6.42079 7.30823 7.12079 9.26823C7.26079 9.65823 7.06081 10.0882 6.67081 10.2282C6.58081 10.2482 6.50079 10.2682 6.40079 10.2582Z" fill="#292D32"/>
<path d="M12 19.75C11.59 19.75 11.25 19.41 11.25 19V16C11.25 15.59 11.59 15.25 12 15.25C12.41 15.25 12.75 15.59 12.75 16V19C12.75 19.41 12.41 19.75 12 19.75Z" fill="#292D32"/>
<path d="M12 23.75C10.48 23.75 9.25 22.52 9.25 21C9.25 19.48 10.48 18.25 12 18.25C13.52 18.25 14.75 19.48 14.75 21C14.75 22.52 13.52 23.75 12 23.75ZM12 19.75C11.31 19.75 10.75 20.31 10.75 21C10.75 21.69 11.31 22.25 12 22.25C12.69 22.25 13.25 21.69 13.25 21C13.25 20.31 12.69 19.75 12 19.75Z" fill="#292D32"/>
<path d="M18 21.75H14C13.59 21.75 13.25 21.41 13.25 21C13.25 20.59 13.59 20.25 14 20.25H18C18.41 20.25 18.75 20.59 18.75 21C18.75 21.41 18.41 21.75 18 21.75Z" fill="#292D32"/>
<path d="M10 21.75H6C5.59 21.75 5.25 21.41 5.25 21C5.25 20.59 5.59 20.25 6 20.25H10C10.41 20.25 10.75 20.59 10.75 21C10.75 21.41 10.41 21.75 10 21.75Z" fill="#292D32"/>
</svg>
