<svg width="24" height="24" viewBox="0 0 24 24" fill="none" xmlns="http://www.w3.org/2000/svg">
<path d="M17.56 17.97H6.44C2.46 17.97 1.25 16.76 1.25 12.78V6.44C1.25 2.46 2.46 1.25 6.44 1.25H8C8.41 1.25 8.75 1.59 8.75 2C8.75 2.41 8.41 2.75 8 2.75H6.44C3.3 2.75 2.75 3.3 2.75 6.44V12.77C2.75 15.91 3.3 16.46 6.44 16.46H17.55C20.69 16.46 21.24 15.91 21.24 12.77V11.88C21.24 11.47 21.58 11.13 21.99 11.13C22.4 11.13 22.74 11.47 22.74 11.88V12.77C22.75 16.76 21.54 17.97 17.56 17.97Z" fill="#292D32"/>
<path d="M12 22.7488C11.59 22.7488 11.25 22.4088 11.25 21.9988V17.2188C11.25 16.8088 11.59 16.4688 12 16.4688C12.41 16.4688 12.75 16.8088 12.75 17.2188V21.9988C12.75 22.4088 12.41 22.7488 12 22.7488Z" fill="#292D32"/>
<path d="M22 13.75H2C1.59 13.75 1.25 13.41 1.25 13C1.25 12.59 1.59 12.25 2 12.25H22C22.41 12.25 22.75 12.59 22.75 13C22.75 13.41 22.41 13.75 22 13.75Z" fill="#292D32"/>
<path d="M16.5 22.75H7.5C7.09 22.75 6.75 22.41 6.75 22C6.75 21.59 7.09 21.25 7.5 21.25H16.5C16.91 21.25 17.25 21.59 17.25 22C17.25 22.41 16.91 22.75 16.5 22.75Z" fill="#292D32"/>
<path d="M17.8598 10.1217H13.0998C11.5298 10.1217 10.5098 9.10172 10.5098 7.53172V4.01172C10.5098 2.49172 11.7398 1.26172 13.2598 1.26172H17.8598C19.2898 1.26172 20.4498 2.42172 20.4498 3.85172V7.53172C20.4498 8.96172 19.2898 10.1217 17.8598 10.1217ZM13.2598 2.76172C12.5698 2.76172 12.0098 3.32172 12.0098 4.01172V7.53172C12.0098 8.51172 12.6298 8.62172 13.0998 8.62172H17.8598C18.4598 8.62172 18.9498 8.13172 18.9498 7.53172V3.85172C18.9498 3.25172 18.4598 2.76172 17.8598 2.76172H13.2598Z" fill="#292D32"/>
<path d="M21.4492 8.87166C21.1292 8.87166 20.7992 8.76166 20.4792 8.53166L19.2692 7.68166C19.0692 7.54166 18.9492 7.31166 18.9492 7.07166V4.31166C18.9492 4.07166 19.0692 3.84166 19.2692 3.70166L20.4792 2.85166C20.9992 2.48166 21.5592 2.41166 22.0192 2.65166C22.4792 2.89166 22.7392 3.39166 22.7392 4.03166V7.36166C22.7392 8.00166 22.4792 8.50166 22.0192 8.74166C21.8492 8.83166 21.6592 8.87166 21.4492 8.87166ZM20.4492 6.68166L21.2492 7.24166V4.14166L20.4492 4.70166V6.68166Z" fill="#292D32"/>
</svg>
