<svg width="24" height="24" viewBox="0 0 24 24" fill="none" xmlns="http://www.w3.org/2000/svg">
<path d="M8.5 11.9988V7.21875" stroke="#292D32" stroke-width="1.5" stroke-miterlimit="10" stroke-linecap="round" stroke-linejoin="round"/>
<path d="M8.5 22V19" stroke="#292D32" stroke-width="1.5" stroke-miterlimit="10" stroke-linecap="round" stroke-linejoin="round"/>
<path d="M15.5 9.99878V7.21875" stroke="#292D32" stroke-width="1.5" stroke-miterlimit="10" stroke-linecap="round" stroke-linejoin="round"/>
<path d="M15.5 22V13" stroke="#292D32" stroke-width="1.5" stroke-miterlimit="10" stroke-linecap="round" stroke-linejoin="round"/>
<path d="M10.1008 5.29999C10.1008 5.78999 9.9008 6.25001 9.5708 6.57001C9.2508 6.90001 8.80078 7.09998 8.30078 7.09998H6.05078C6.33078 6.72998 6.50079 6.25 6.50079 5.75V4.84998C6.50079 4.34998 6.33078 3.87 6.05078 3.5H8.30078C9.29078 3.5 10.1008 4.30999 10.1008 5.29999Z" stroke="#292D32" stroke-width="1.5" stroke-miterlimit="10" stroke-linecap="round" stroke-linejoin="round"/>
<path d="M6.5 4.85051V5.75054C6.5 6.25054 6.32999 6.73051 6.04999 7.10051C5.28999 8.11051 3.73 8.45051 2.28 7.16051C2.12 7.02051 2 6.72054 2 6.50054V4.16051C2 3.97051 2.10001 3.69052 2.23001 3.55052C3.49001 2.23052 5.01 2.42054 5.84 3.25054C5.91 3.32054 5.97999 3.40053 6.04999 3.49053C6.32999 3.87053 6.5 4.35051 6.5 4.85051Z" stroke="#292D32" stroke-width="1.5" stroke-miterlimit="10" stroke-linecap="round" stroke-linejoin="round"/>
<path d="M13.9004 5.29999C13.9004 5.78999 14.1004 6.25001 14.4304 6.57001C14.7504 6.90001 15.2004 7.09998 15.7004 7.09998H17.9504C17.6704 6.72998 17.5004 6.25 17.5004 5.75V4.84998C17.5004 4.34998 17.6704 3.87 17.9504 3.5H15.7004C14.7104 3.5 13.9004 4.30999 13.9004 5.29999Z" stroke="#292D32" stroke-width="1.5" stroke-miterlimit="10" stroke-linecap="round" stroke-linejoin="round"/>
<path d="M17.5 4.85051V5.75054C17.5 6.25054 17.67 6.73051 17.95 7.10051C18.71 8.11051 20.27 8.45051 21.72 7.16051C21.88 7.02051 22 6.72054 22 6.50054V4.16051C22 3.97051 21.9 3.69052 21.77 3.55052C20.51 2.23052 18.99 2.42054 18.16 3.25054C18.09 3.32054 18.02 3.40053 17.95 3.49053C17.67 3.87053 17.5 4.35051 17.5 4.85051Z" stroke="#292D32" stroke-width="1.5" stroke-miterlimit="10" stroke-linecap="round" stroke-linejoin="round"/>
<path d="M10 13.5V17.5C10 18.33 9.33 19 8.5 19C7.67 19 7 18.33 7 17.5V13.5C7 12.67 7.67 12 8.5 12C9.33 12 10 12.67 10 13.5Z" stroke="#292D32" stroke-width="1.5" stroke-miterlimit="10" stroke-linecap="round" stroke-linejoin="round"/>
</svg>
