<svg width="24" height="24" viewBox="0 0 24 24" fill="none" xmlns="http://www.w3.org/2000/svg">
<path d="M12.0014 8.74852C11.5914 8.74852 11.2514 8.40852 11.2514 7.99852V3.80852L10.5314 4.52852C10.2414 4.81852 9.76141 4.81852 9.47141 4.52852C9.18141 4.23852 9.18141 3.75852 9.47141 3.46852L11.4714 1.46852C11.6814 1.25852 12.0114 1.18852 12.2914 1.30852C12.5714 1.41852 12.7514 1.69852 12.7514 1.99852V7.99852C12.7514 8.40852 12.4114 8.74852 12.0014 8.74852Z" fill="#292D32"/>
<path d="M14.0014 4.75141C13.8114 4.75141 13.6214 4.68141 13.4714 4.53141L11.4714 2.53141C11.1814 2.24141 11.1814 1.76141 11.4714 1.47141C11.7614 1.18141 12.2414 1.18141 12.5314 1.47141L14.5314 3.47141C14.8214 3.76141 14.8214 4.24141 14.5314 4.53141C14.3814 4.68141 14.1914 4.75141 14.0014 4.75141Z" fill="#292D32"/>
<path d="M16 22.75H8C2.25 22.75 2.25 19.7 2.25 17V16C2.25 13.77 2.25 11.25 7 11.25C8.19 11.25 8.63 11.54 9.25 12C9.28 12.03 9.32 12.05 9.35 12.09L10.37 13.17C11.23 14.08 12.79 14.08 13.65 13.17L14.67 12.09C14.7 12.06 14.73 12.03 14.77 12C15.39 11.53 15.83 11.25 17.02 11.25C21.77 11.25 21.77 13.77 21.77 16V17C21.75 20.82 19.82 22.75 16 22.75ZM7 12.75C3.75 12.75 3.75 13.77 3.75 16V17C3.75 19.74 3.75 21.25 8 21.25H16C18.98 21.25 20.25 19.98 20.25 17V16C20.25 13.77 20.25 12.75 17 12.75C16.28 12.75 16.13 12.84 15.7 13.16L14.73 14.19C14.01 14.95 13.04 15.37 12 15.37C10.96 15.37 9.99 14.95 9.27 14.19L8.3 13.16C7.87 12.84 7.72 12.75 7 12.75Z" fill="#292D32"/>
<path d="M5 12.7483C4.59 12.7483 4.25 12.4083 4.25 11.9983V9.99826C4.25 8.05826 4.25 5.64826 7.93 5.29826C8.33 5.24826 8.71 5.55826 8.75 5.97826C8.79 6.38826 8.49 6.75826 8.07 6.79826C5.75 7.00826 5.75 7.94826 5.75 9.99826V11.9983C5.75 12.4083 5.41 12.7483 5 12.7483Z" fill="#292D32"/>
<path d="M19.0014 12.7483C18.5914 12.7483 18.2514 12.4083 18.2514 11.9983V9.99827C18.2514 7.94827 18.2514 7.00827 15.9314 6.78827C15.5214 6.74827 15.2214 6.37827 15.2614 5.96827C15.3014 5.55827 15.6614 5.24827 16.0814 5.29827C19.7614 5.64827 19.7614 8.05827 19.7614 9.99827V11.9983C19.7514 12.4083 19.4114 12.7483 19.0014 12.7483Z" fill="#292D32"/>
</svg>
