<svg width="24" height="24" viewBox="0 0 24 24" fill="none" xmlns="http://www.w3.org/2000/svg">
<path d="M17.8681 21.8717C17.5581 21.8717 17.2481 21.7917 16.9681 21.6217L12.9581 19.2417C12.5381 19.2317 12.1181 19.2017 11.7181 19.1417C11.4481 19.1017 11.2181 18.9217 11.1181 18.6617C11.0181 18.4017 11.0681 18.1217 11.2481 17.9117C11.9081 17.1417 12.2481 16.2217 12.2481 15.2417C12.2481 12.8217 10.1181 10.8517 7.49812 10.8517C6.51812 10.8517 5.57812 11.1217 4.78812 11.6417C4.56812 11.7817 4.29812 11.8017 4.05812 11.6917C3.82812 11.5817 3.65813 11.3617 3.62813 11.1017C3.59813 10.8217 3.57812 10.5417 3.57812 10.2517C3.57812 5.29171 7.87813 1.26172 13.1581 1.26172C18.4381 1.26172 22.7381 5.29171 22.7381 10.2517C22.7381 12.9717 21.4781 15.4717 19.2581 17.1817L19.5981 19.9017C19.6781 20.5817 19.3781 21.2217 18.8081 21.5917C18.5281 21.7717 18.1981 21.8717 17.8681 21.8717ZM13.1481 17.7317C13.2881 17.7217 13.4281 17.7617 13.5481 17.8417L17.7381 20.3317C17.8481 20.4017 17.9381 20.3717 17.9981 20.3317C18.0481 20.3017 18.1281 20.2217 18.1081 20.0817L17.7181 16.9217C17.6881 16.6417 17.8081 16.3717 18.0281 16.2117C20.0681 14.7817 21.2381 12.6017 21.2381 10.2317C21.2381 6.10169 17.6181 2.7417 13.1581 2.7417C8.86813 2.7417 5.34812 5.86174 5.08812 9.78174C5.83812 9.49174 6.64813 9.33173 7.48813 9.33173C10.9381 9.33173 13.7381 11.9717 13.7381 15.2217C13.7481 16.1017 13.5381 16.9517 13.1481 17.7317Z" fill="#292D32"/>
<path d="M4.57782 22.7498C4.31782 22.7498 4.06781 22.6798 3.83781 22.5298C3.38781 22.2398 3.14782 21.7398 3.20782 21.2098L3.40782 19.6698C2.05782 18.5698 1.25781 16.9398 1.25781 15.2298C1.25781 13.2798 2.27782 11.4598 3.98782 10.3698C5.01782 9.69981 6.23781 9.33984 7.50781 9.33984C10.9578 9.33984 13.7578 11.9798 13.7578 15.2298C13.7578 16.5498 13.2778 17.8498 12.3978 18.8798C11.2678 20.2498 9.57782 21.0498 7.71782 21.1098L5.27782 22.5598C5.05782 22.6898 4.81782 22.7498 4.57782 22.7498ZM7.49782 10.8398C6.51782 10.8398 5.57781 11.1098 4.78781 11.6298C3.50781 12.4498 2.74782 13.7898 2.74782 15.2298C2.74782 16.6198 3.42782 17.8898 4.62782 18.7098C4.85782 18.8698 4.97781 19.1398 4.94781 19.4198L4.72781 21.1298L7.11781 19.7098C7.23781 19.6398 7.36782 19.5998 7.49782 19.5998C8.96782 19.5998 10.3578 18.9698 11.2378 17.8998C11.8978 17.1198 12.2478 16.1998 12.2478 15.2198C12.2478 12.8098 10.1178 10.8398 7.49782 10.8398Z" fill="#292D32"/>
</svg>
