<svg width="24" height="24" viewBox="0 0 24 24" fill="none" xmlns="http://www.w3.org/2000/svg">
<path opacity="0.4" d="M21.74 9.44H2V6.42C2 3.98 3.98 2 6.42 2H8.75C10.38 2 10.89 2.53 11.54 3.4L12.94 5.26C13.25 5.67 13.29 5.73 13.87 5.73H16.66C19.03 5.72 21.05 7.28 21.74 9.44Z" fill="#292D32"/>
<path d="M21.99 10.8414C21.97 10.3514 21.89 9.89141 21.74 9.44141H2V16.6514C2 19.6014 4.4 22.0014 7.35 22.0014H16.65C19.6 22.0014 22 19.6014 22 16.6514V11.0714C22 11.0014 22 10.9114 21.99 10.8414ZM14.54 15.9714L12.39 17.8514C12.28 17.9514 12.14 18.0014 12 18.0014C11.86 18.0014 11.72 17.9514 11.61 17.8514L9.46 15.9714C8.78 15.3714 8.69 14.3514 9.25 13.6414C9.83 12.9214 10.85 12.7914 11.59 13.3414L11.99 13.6414L12.39 13.3414C13.13 12.7914 14.15 12.9214 14.73 13.6414C15.31 14.3514 15.22 15.3714 14.54 15.9714Z" fill="#292D32"/>
</svg>
