<svg width="24" height="24" viewBox="0 0 24 24" fill="none" xmlns="http://www.w3.org/2000/svg">
<path opacity="0.4" d="M21.9984 9V16.46C21.9984 18.75 20.1384 20.6 17.8484 20.6H6.39844L9.96844 17.03L11.2484 15.75L17.9984 9H21.9984Z" fill="#292D32"/>
<path opacity="0.4" d="M15 9L4 20C2.8 19.28 2 17.96 2 16.46V9H15Z" fill="#292D32"/>
<path d="M22 7.54125V9.00125H18L21.47 5.53125C21.81 6.12125 22 6.81125 22 7.54125Z" fill="#292D32"/>
<path d="M20 3.99844L15 8.99844H2V7.53844C2 5.24844 3.86 3.39844 6.15 3.39844H17.85C18.64 3.39844 19.37 3.61844 20 3.99844Z" fill="#292D32"/>
<path d="M8.21 15.79L6.75 17.25H6C5.59 17.25 5.25 16.91 5.25 16.5C5.25 16.09 5.59 15.75 6 15.75H8C8.07 15.75 8.14 15.76 8.21 15.79Z" fill="#292D32"/>
<path d="M15.2487 16.5C15.2487 16.91 14.9087 17.25 14.4987 17.25H10.4987C10.2987 17.25 10.1088 17.16 9.96875 17.03L11.2487 15.75H14.4987C14.9087 15.75 15.2487 16.09 15.2487 16.5Z" fill="#292D32"/>
<path d="M21.7689 2.22891C21.4689 1.92891 20.9789 1.92891 20.6789 2.22891L2.22891 20.6889C1.92891 20.9889 1.92891 21.4789 2.22891 21.7789C2.37891 21.9189 2.56891 21.9989 2.76891 21.9989C2.96891 21.9989 3.15891 21.9189 3.30891 21.7689L21.7689 3.30891C22.0789 3.00891 22.0789 2.52891 21.7689 2.22891Z" fill="#292D32"/>
</svg>
