<svg width="24" height="24" viewBox="0 0 24 24" fill="none" xmlns="http://www.w3.org/2000/svg">
<path opacity="0.4" d="M19.48 12.95H21.5V11.51C21.5 9.44001 19.81 7.75 17.74 7.75H6.26C4.19 7.75 2.5 9.44001 2.5 11.51V18.24C2.5 20.31 4.19 22 6.26 22H17.74C19.81 22 21.5 20.31 21.5 18.24V17.05H19.6C18.52 17.05 17.53 16.26 17.44 15.18C17.38 14.55 17.62 13.96 18.04 13.55C18.41 13.17 18.92 12.95 19.48 12.95ZM6.6 20.58C6.45 20.72 6.26 20.79 6.07 20.79C5.88 20.79 5.69 20.72 5.54 20.58L5.01 20.05L4.46 20.6C4.31 20.75 4.12 20.82 3.93 20.82C3.74 20.82 3.55 20.75 3.4 20.6C3.11 20.31 3.11 19.83 3.4 19.54L3.95 18.99L3.42 18.46C3.13 18.17 3.13 17.69 3.42 17.4C3.72 17.11 4.19 17.11 4.49 17.4L5.01 17.93L5.51 17.42C5.81 17.13 6.28 17.13 6.58 17.42C6.87 17.72 6.87 18.19 6.58 18.49L6.07 18.99L6.6 19.51C6.89 19.81 6.89 20.28 6.6 20.58Z" fill="#292D32"/>
<path d="M14.85 3.95159V7.75158H6.26C4.19 7.75158 2.5 9.44159 2.5 11.5116V7.8416C2.5 6.6516 3.23 5.59156 4.34 5.17156L12.28 2.17156C13.52 1.71156 14.85 2.62159 14.85 3.95159Z" fill="#292D32"/>
<path d="M22.5588 13.9692V16.0292C22.5588 16.5792 22.1188 17.0292 21.5588 17.0492H19.5988C18.5188 17.0492 17.5288 16.2592 17.4388 15.1792C17.3788 14.5492 17.6188 13.9592 18.0388 13.5492C18.4088 13.1692 18.9188 12.9492 19.4788 12.9492H21.5588C22.1188 12.9692 22.5588 13.4192 22.5588 13.9692Z" fill="#292D32"/>
<path d="M14 12.75H7C6.59 12.75 6.25 12.41 6.25 12C6.25 11.59 6.59 11.25 7 11.25H14C14.41 11.25 14.75 11.59 14.75 12C14.75 12.41 14.41 12.75 14 12.75Z" fill="#292D32"/>
<path d="M5 15C4.06 15 3.19 15.33 2.5 15.88C1.58 16.61 1 17.74 1 19C1 19.75 1.21 20.46 1.58 21.06C2.27 22.22 3.54 23 5 23C6.01 23 6.93 22.63 7.63 22C7.94 21.74 8.21 21.42 8.42 21.06C8.79 20.46 9 19.75 9 19C9 16.79 7.21 15 5 15ZM3.42 18.46C3.13 18.17 3.13 17.69 3.42 17.4C3.72 17.11 4.19 17.11 4.49 17.4L5.01 17.93L5.51 17.42C5.81 17.13 6.28 17.13 6.58 17.42C6.87 17.72 6.87 18.19 6.58 18.49L6.07 18.99L6.6 19.51C6.89 19.81 6.89 20.28 6.6 20.58C6.45 20.72 6.26 20.79 6.07 20.79C5.88 20.79 5.69 20.72 5.54 20.58L5.01 20.05L4.46 20.6C4.31 20.75 4.12 20.82 3.93 20.82C3.74 20.82 3.55 20.75 3.4 20.6C3.11 20.31 3.11 19.83 3.4 19.54L3.95 18.99L3.42 18.46Z" fill="#292D32"/>
</svg>
