<svg width="24" height="24" viewBox="0 0 24 24" fill="none" xmlns="http://www.w3.org/2000/svg">
<path opacity="0.4" d="M16.1917 2H7.82172C4.18172 2 2.01172 4.17 2.01172 7.81V16.18C2.01172 19.82 4.18172 21.99 7.82172 21.99H16.1917C19.8317 21.99 22.0017 19.82 22.0017 16.18V7.81C22.0017 4.17 19.8317 2 16.1917 2Z" fill="#292D32"/>
<path d="M22 10.1604H14.33C14.32 10.0904 14.32 10.0104 14.3 9.9404C14.09 9.1404 13.44 8.4904 12.64 8.2804C11.2 7.9004 9.89001 8.8404 9.67001 10.1604H2V11.6604H9.91C10.11 12.0404 10.39 12.3604 10.75 12.5804V14.5604C10.75 15.2504 11.31 15.8104 12 15.8104C12.69 15.8104 13.25 15.2504 13.25 14.5604V12.5804C13.61 12.3604 13.89 12.0404 14.09 11.6604H22V10.1604Z" fill="#292D32"/>
</svg>
