<svg width="24" height="24" viewBox="0 0 24 24" fill="none" xmlns="http://www.w3.org/2000/svg">
<path d="M15.0301 10.7697L20.6901 6.97973C21.2601 6.59973 21.4101 5.81973 21.0301 5.25973L19.2101 2.54971C18.8301 1.97971 18.0501 1.82971 17.4901 2.20971L11.8301 5.99972L15.0301 10.7697Z" stroke="#292D32" stroke-width="1.5" stroke-linecap="round" stroke-linejoin="round"/>
<path d="M12.1742 6.47981L7.39648 9.67969L9.95639 13.5018L14.7341 10.302L12.1742 6.47981Z" stroke="#292D32" stroke-width="1.5" stroke-linecap="round" stroke-linejoin="round"/>
<path d="M5.83053 15.8979L9.78053 13.258L7.54053 9.91797L3.59053 12.558C3.13053 12.868 3.01053 13.488 3.32053 13.948L4.45053 15.628C4.75053 16.078 5.37053 16.1979 5.83053 15.8979Z" stroke="#292D32" stroke-width="1.5" stroke-linecap="round" stroke-linejoin="round"/>
<path opacity="0.4" d="M12.0506 12.1992L7.56055 21.9992" stroke="#292D32" stroke-width="1.5" stroke-linecap="round" stroke-linejoin="round"/>
<path opacity="0.4" d="M12 12.1992L16.44 21.9992" stroke="#292D32" stroke-width="1.5" stroke-linecap="round" stroke-linejoin="round"/>
</svg>
