<svg width="24" height="24" viewBox="0 0 24 24" fill="none" xmlns="http://www.w3.org/2000/svg">
<path d="M12.0001 16.75C10.9001 16.75 10.0001 15.85 10.0001 14.75V13.15C9.29012 12.56 8.87012 11.69 8.87012 10.75C8.87012 9.78002 9.31012 8.88002 10.0901 8.28002C10.8701 7.68002 11.8701 7.48003 12.8401 7.74003C13.9001 8.02003 14.7601 8.88003 15.0301 9.94003C15.3401 11.15 14.9301 12.39 14.0001 13.15V14.75C14.0001 15.85 13.1001 16.75 12.0001 16.75ZM12.0001 9.13003C11.6401 9.13003 11.3001 9.25003 11.0101 9.47003C10.6101 9.78003 10.3801 10.25 10.3801 10.75C10.3801 11.32 10.6701 11.83 11.1501 12.13L11.5101 12.35V14.75C11.5101 15.03 11.7301 15.25 12.0101 15.25C12.2901 15.25 12.5101 15.03 12.5101 14.75V12.35L12.8701 12.13C13.4901 11.75 13.7701 11.03 13.5901 10.31C13.4501 9.78002 13.0001 9.33003 12.4701 9.19003C12.3001 9.15003 12.1501 9.13003 12.0001 9.13003Z" fill="black"/>
<path d="M12 22.75C6.07 22.75 1.25 17.93 1.25 12C1.25 6.07 6.07 1.25 12 1.25C16.74 1.25 20.86 4.29 22.27 8.8C22.39 9.2 22.17 9.62001 21.78 9.74001C21.38 9.86001 20.96 9.64 20.84 9.25C19.63 5.36 16.08 2.75 12.01 2.75C6.90999 2.75 2.75999 6.9 2.75999 12C2.75999 17.1 6.90999 21.25 12.01 21.25C16.07 21.25 19.62 18.65 20.83 14.78C20.95 14.38 21.37 14.17 21.77 14.29C22.17 14.41 22.38 14.84 22.26 15.23C20.84 19.73 16.72 22.75 12 22.75Z" fill="black"/>
</svg>
