<svg width="24" height="24" viewBox="0 0 24 24" fill="none" xmlns="http://www.w3.org/2000/svg">
<path d="M12.2004 22.75C8.16042 22.75 4.52043 20.52 2.66043 16.93C2.63043 16.9 2.61042 16.86 2.59042 16.82C1.83042 15.3 1.44043 13.68 1.44043 12C1.44043 10.32 1.83042 8.69999 2.59042 7.17999C4.43042 3.51999 8.11043 1.25 12.1904 1.25C14.9304 1.25 17.4204 2.21999 19.3904 4.04999C19.5404 4.18999 19.6304 4.38 19.6304 4.59C19.6304 4.8 19.5504 4.99001 19.4004 5.14001L16.5804 7.89999C16.2904 8.17999 15.8404 8.19 15.5404 7.91C14.9104 7.32 13.8204 6.62 12.1904 6.62C10.1304 6.62 8.24043 7.86001 7.39043 9.79001C7.32043 9.95001 7.26042 10.1 7.20042 10.27C7.01042 10.85 6.92043 11.44 6.92043 12.01C6.92043 12.58 7.02042 13.15 7.20042 13.72C7.20042 13.73 7.21043 13.74 7.21043 13.76C7.93043 15.94 9.93043 17.4 12.1904 17.4C13.3804 17.4 14.4004 17.11 15.2304 16.53C15.9904 16 16.4704 15.29 16.7304 14.65H12.2004C11.7904 14.65 11.4504 14.31 11.4504 13.9V10.19C11.4504 9.78 11.7904 9.44 12.2004 9.44H21.5904C21.9404 9.44 22.2404 9.67999 22.3204 10.02C22.4804 10.72 22.5504 11.38 22.5504 12.23C22.5504 15.41 21.4104 18.22 19.3304 20.14C17.4804 21.84 15.0104 22.75 12.2004 22.75ZM3.88042 16.05C3.91042 16.09 3.94043 16.14 3.96043 16.19C5.53043 19.3 8.69042 21.25 12.2004 21.25C14.6304 21.25 16.7404 20.48 18.3104 19.03C20.0804 17.4 21.0504 14.98 21.0504 12.22C21.0504 11.72 21.0304 11.32 20.9704 10.93H12.9504V13.14H17.7104C17.9204 13.14 18.1304 13.23 18.2704 13.39C18.4104 13.55 18.4804 13.77 18.4504 13.98C18.3204 15.1 17.6204 16.68 16.0904 17.75C15.0104 18.5 13.7004 18.89 12.1904 18.89C9.30043 18.89 6.74043 17.03 5.80043 14.25C5.80043 14.24 5.79043 14.23 5.79043 14.22C5.54043 13.49 5.42043 12.75 5.42043 12.01C5.42043 11.28 5.54043 10.54 5.78043 9.79999C5.85043 9.57999 5.93042 9.37999 6.02042 9.17999C7.12042 6.70999 9.54043 5.12 12.1904 5.12C13.9004 5.12 15.1604 5.72001 16.0204 6.35001L17.7704 4.64001C16.1904 3.40001 14.2704 2.75 12.1904 2.75C8.68043 2.75 5.51043 4.70001 3.93043 7.85001C3.28043 9.16001 2.94043 10.56 2.94043 12C2.95043 13.41 3.26042 14.77 3.88042 16.05Z" fill="black"/>
</svg>
