<svg width="24" height="24" viewBox="0 0 24 24" fill="none" xmlns="http://www.w3.org/2000/svg">
<path d="M8.25 17.25C7.84 17.25 7.5 16.91 7.5 16.5V7.5C7.5 7.09 7.84 6.75 8.25 6.75C8.66 6.75 9 7.09 9 7.5V16.5C9 16.91 8.66 17.25 8.25 17.25Z" fill="black"/>
<path d="M15.75 17.25C15.34 17.25 15 16.91 15 16.5V7.5C15 7.09 15.34 6.75 15.75 6.75C16.16 6.75 16.5 7.09 16.5 7.5V16.5C16.5 16.91 16.16 17.25 15.75 17.25Z" fill="black"/>
<path d="M15.75 10.8799H8.25C7.84 10.8799 7.5 10.5399 7.5 10.1299C7.5 9.71988 7.84 9.37988 8.25 9.37988H15.75C16.16 9.37988 16.5 9.71988 16.5 10.1299C16.5 10.5399 16.16 10.8799 15.75 10.8799Z" fill="black"/>
<path d="M15.75 14.6201H8.25C7.84 14.6201 7.5 14.2801 7.5 13.8701C7.5 13.4601 7.84 13.1201 8.25 13.1201H15.75C16.16 13.1201 16.5 13.4601 16.5 13.8701C16.5 14.2801 16.16 14.6201 15.75 14.6201Z" fill="black"/>
<path d="M12 22.75C6.07 22.75 1.25 17.93 1.25 12C1.25 6.07 6.07 1.25 12 1.25C17.93 1.25 22.75 6.07 22.75 12C22.75 17.93 17.93 22.75 12 22.75ZM12 2.75C6.9 2.75 2.75 6.9 2.75 12C2.75 17.1 6.9 21.25 12 21.25C17.1 21.25 21.25 17.1 21.25 12C21.25 6.9 17.1 2.75 12 2.75Z" fill="black"/>
</svg>
