<svg width="24" height="24" viewBox="0 0 24 24" fill="none" xmlns="http://www.w3.org/2000/svg">
<path d="M17.4299 21.4099H6.55988L1.12988 11.9998L6.55988 2.58984H17.4299L22.8599 11.9998L17.4299 21.4099ZM7.42987 19.9099H16.5599L21.1299 11.9998L16.5599 4.08984H7.42987L2.86987 11.9998L7.42987 19.9099Z" fill="black"/>
<path d="M11.3102 21.41H6.60025L4.24023 17.33L6.60025 13.25H11.3102L13.6703 17.33L11.3102 21.41ZM7.46024 19.91H10.4402L11.9302 17.33L10.4402 14.75H7.46024L5.97025 17.33L7.46024 19.91Z" fill="black"/>
<path d="M14.7798 21.41H6.59976L2.50977 14.33L6.59976 7.25H14.7798L18.8698 14.33L14.7798 21.41ZM7.46976 19.91H13.9098L17.1298 14.33L13.9098 8.75H7.46976L4.24976 14.33L7.46976 19.91Z" fill="black"/>
</svg>
