<svg width="24" height="24" viewBox="0 0 24 24" fill="none" xmlns="http://www.w3.org/2000/svg">
<path d="M12.8202 16.72C12.5102 16.72 12.2102 16.52 12.1102 16.21L10.0802 10.11L7.34024 16.28C7.17024 16.66 6.73024 16.83 6.35024 16.66C5.97024 16.49 5.80024 16.05 5.97024 15.67L9.50024 7.73999C9.63024 7.45999 9.90024 7.26999 10.2202 7.29999C10.5302 7.30999 10.8002 7.52 10.9002 7.81L13.5402 15.74C13.6702 16.13 13.4602 16.56 13.0702 16.69C12.9802 16.7 12.9002 16.72 12.8202 16.72Z" fill="black"/>
<path d="M11.9403 12.5698H7.53027V14.0698H11.9403V12.5698Z" fill="black"/>
<path d="M16.3496 16.7202C15.9396 16.7202 15.5996 16.3802 15.5996 15.9702V10.6802C15.5996 10.2702 15.9396 9.93018 16.3496 9.93018C16.7596 9.93018 17.0996 10.2702 17.0996 10.6802V15.9702C17.0996 16.3802 16.7596 16.7202 16.3496 16.7202Z" fill="black"/>
<path d="M16.3496 9.03002C16.0796 9.03002 15.8296 8.93001 15.6396 8.74001C15.5496 8.65001 15.4696 8.54003 15.4196 8.42003C15.3696 8.29003 15.3496 8.17002 15.3496 8.03002C15.3496 7.90002 15.3696 7.77001 15.4196 7.65001C15.4796 7.53001 15.5496 7.42 15.6396 7.33C15.7296 7.23 15.8396 7.16 15.9596 7.11C16.3296 6.96 16.7796 7.05 17.0496 7.33C17.1496 7.42 17.2196 7.53001 17.2696 7.65001C17.3196 7.77001 17.3496 7.90002 17.3496 8.03002C17.3496 8.17002 17.3196 8.30003 17.2696 8.42003C17.2196 8.54003 17.1496 8.65001 17.0496 8.74001C16.9596 8.83001 16.8496 8.91001 16.7296 8.96001C16.6096 9.01001 16.4796 9.03002 16.3496 9.03002Z" fill="black"/>
<path d="M15 22.75H9C3.57 22.75 1.25 20.43 1.25 15V9C1.25 3.57 3.57 1.25 9 1.25H15C20.43 1.25 22.75 3.57 22.75 9V15C22.75 20.43 20.43 22.75 15 22.75ZM9 2.75C4.39 2.75 2.75 4.39 2.75 9V15C2.75 19.61 4.39 21.25 9 21.25H15C19.61 21.25 21.25 19.61 21.25 15V9C21.25 4.39 19.61 2.75 15 2.75H9Z" fill="black"/>
</svg>
