<svg width="24" height="24" viewBox="0 0 24 24" fill="none" xmlns="http://www.w3.org/2000/svg">
<path d="M12 22.2898C11.44 22.2898 10.88 22.1198 10.4 21.7798L5.40002 18.2098C4.68002 17.6998 4.25 16.8598 4.25 15.9698V7.1598C4.25 6.1798 4.78001 5.25981 5.64001 4.76981L10.64 1.9098C11.48 1.4298 12.53 1.4298 13.37 1.9098L18.37 4.76981C19.22 5.25981 19.76 6.1698 19.76 7.1598V15.9698C19.76 16.8598 19.33 17.6898 18.61 18.2098L13.61 21.7798C13.12 22.1198 12.56 22.2898 12 22.2898ZM11.38 3.2198L6.38 6.0798C5.99 6.2998 5.75 6.7198 5.75 7.1598V15.9698C5.75 16.3698 5.95002 16.7498 6.27002 16.9898L11.27 20.5598C11.71 20.8698 12.29 20.8698 12.72 20.5598L17.72 16.9898C18.05 16.7598 18.24 16.3798 18.24 15.9698V7.1598C18.24 6.70981 18 6.2998 17.61 6.0798L12.61 3.2198C12.24 2.9998 11.76 2.9998 11.38 3.2198Z" fill="black"/>
<path d="M11.8498 21.9798C11.4998 21.9798 11.1899 21.7298 11.1199 21.3798L9.26988 12.1498C9.24988 12.0498 9.24988 11.9398 9.26988 11.8398L11.2699 2.83978C11.3599 2.43978 11.7498 2.17978 12.1698 2.26979C12.5698 2.35979 12.8299 2.75978 12.7399 3.15978L10.7699 12.0098L12.5899 21.0898C12.6699 21.4998 12.4099 21.8898 11.9999 21.9698C11.9399 21.9798 11.8898 21.9798 11.8498 21.9798Z" fill="black"/>
<path d="M18.1605 17.6598C18.0305 17.6598 17.9005 17.6298 17.7705 17.5498L9.61049 12.6398C9.38049 12.4998 9.2405 12.2498 9.2505 11.9798C9.2505 11.7098 9.40052 11.4698 9.64052 11.3398L18.1805 6.59976C18.5405 6.39976 19.0005 6.52976 19.2005 6.88976C19.4005 7.24976 19.2705 7.70976 18.9105 7.90976L11.5005 12.0198L18.5505 16.2598C18.9005 16.4698 19.0205 16.9298 18.8105 17.2898C18.6605 17.5298 18.4205 17.6598 18.1605 17.6598Z" fill="black"/>
</svg>
