<svg width="24" height="24" viewBox="0 0 24 24" fill="none" xmlns="http://www.w3.org/2000/svg">
<path d="M5.67999 22.75C5.54999 22.75 5.41999 22.72 5.29999 22.65C5.06999 22.52 4.92999 22.27 4.92999 22V18.8C2.57999 16.89 1.25 14.17 1.25 11.26C1.25 5.74001 6.07 1.25 12 1.25C17.93 1.25 22.75 5.74001 22.75 11.26C22.75 16.78 17.93 21.27 12 21.27C11.03 21.27 10.07 21.15 9.14001 20.91L6.04999 22.65C5.93999 22.72 5.80999 22.75 5.67999 22.75ZM12 2.75C6.9 2.75 2.75 6.57001 2.75 11.26C2.75 13.82 3.98001 16.22 6.14001 17.84C6.33001 17.98 6.44 18.2 6.44 18.44V20.72L8.67999 19.46C8.84999 19.36 9.06 19.34 9.25 19.39C10.14 19.64 11.07 19.77 12 19.77C17.1 19.77 21.25 15.95 21.25 11.26C21.25 6.57001 17.1 2.75 12 2.75Z" fill="black"/>
<path d="M7.50019 14.5002C7.25019 14.5002 7.00017 14.3702 6.86017 14.1502C6.69017 13.8702 6.71017 13.5202 6.92017 13.2702L10.7002 8.77019C10.9302 8.50019 11.3102 8.42019 11.6202 8.59019L13.0702 9.36018L16.3002 8.5302C16.6202 8.4502 16.9502 8.58018 17.1202 8.86018C17.2902 9.14018 17.2702 9.49019 17.0602 9.74019L13.3002 14.2402C13.0702 14.5202 12.6602 14.5902 12.3502 14.4102L11.0602 13.6602L7.66016 14.4902C7.62016 14.4902 7.56019 14.5002 7.50019 14.5002ZM11.1902 12.1002C11.3202 12.1002 11.4502 12.1302 11.5702 12.2002L12.5702 12.7802L14.4302 10.5502L13.1702 10.8702C12.9902 10.9202 12.8002 10.8902 12.6302 10.8102L11.4602 10.1902L9.54017 12.4702L11.0002 12.1102C11.0702 12.1102 11.1302 12.1002 11.1902 12.1002Z" fill="black"/>
</svg>
