<svg width="24" height="24" viewBox="0 0 24 24" fill="none" xmlns="http://www.w3.org/2000/svg">
<path d="M17 21.7501C16.87 21.7501 16.73 21.7101 16.61 21.6401L6.61 15.6401C6.38 15.5001 6.25 15.2601 6.25 15.0001V9.00014C6.25 8.73014 6.4 8.48015 6.63 8.35015C6.87 8.22015 7.15 8.22014 7.39 8.36014L16.25 13.6801V9.43013L11.61 6.65014C11.38 6.51014 11.25 6.27014 11.25 6.01014C11.25 5.75014 11.39 5.50014 11.61 5.37014L16.61 2.37014C16.85 2.23014 17.14 2.23014 17.38 2.37014L22.38 5.37014C22.61 5.51014 22.74 5.75014 22.74 6.01014V18.0101C22.74 18.2701 22.6 18.5201 22.38 18.6501L17.38 21.6501C17.27 21.7101 17.13 21.7501 17 21.7501ZM7.75 14.5801L17 20.1301L21.25 17.5801V6.43013L17 3.88015L13.46 6.01014L17.39 8.37014C17.62 8.51014 17.75 8.75014 17.75 9.01014V15.0101C17.75 15.2801 17.6 15.5301 17.37 15.6601C17.14 15.7901 16.85 15.7901 16.61 15.6501L7.75 10.3301V14.5801Z" fill="black"/>
<path d="M7 21.7499C6.87 21.7499 6.73 21.7099 6.61 21.6399L1.61 18.6399C1.38 18.4999 1.25 18.2599 1.25 17.9999V5.99988C1.25 5.73988 1.39 5.48988 1.61 5.35988L6.61 2.35988C6.85 2.21988 7.14001 2.21988 7.38 2.35988L12.38 5.35988C12.74 5.56988 12.85 6.02988 12.64 6.38988C12.43 6.74988 11.97 6.85988 11.61 6.64988L7 3.87989L2.75 6.42987V17.5799L6.98 20.1199L11.29 17.2499C11.63 17.0199 12.1 17.1099 12.33 17.4599C12.56 17.8099 12.47 18.2699 12.12 18.4999L7.42 21.6299C7.29 21.7099 7.15 21.7499 7 21.7499Z" fill="black"/>
</svg>
