<svg width="24" height="24" viewBox="0 0 24 24" fill="none" xmlns="http://www.w3.org/2000/svg">
<path d="M14.5 18H3.5C3.09 18 2.75 17.66 2.75 17.25C2.75 16.84 3.09 16.5 3.5 16.5H14.5C17.95 16.5 20.75 13.7 20.75 10.25C20.75 6.8 17.95 4 14.5 4H9.5C9.09 4 8.75 3.66 8.75 3.25C8.75 2.84 9.09 2.5 9.5 2.5H14.5C18.77 2.5 22.25 5.98 22.25 10.25C22.25 14.52 18.77 18 14.5 18Z" fill="black"/>
<path d="M13.8099 14.8898H7.99994C7.58994 14.8898 7.24994 14.5498 7.24994 14.1398C7.24994 13.7298 7.58994 13.3898 7.99994 13.3898H13.8099C15.4299 13.3898 16.7499 12.0698 16.7499 10.4498C16.7499 8.82977 15.4299 7.50977 13.8099 7.50977H3.16992C2.75992 7.50977 2.41992 7.16977 2.41992 6.75977C2.41992 6.34977 2.75992 6.00977 3.16992 6.00977H13.8099C16.2599 6.00977 18.2499 7.99977 18.2499 10.4498C18.2499 12.8998 16.2599 14.8898 13.8099 14.8898Z" fill="black"/>
<path d="M8.5 11.5H5.5C5.09 11.5 4.75 11.16 4.75 10.75C4.75 10.34 5.09 10 5.5 10H8.5C8.91 10 9.25 10.34 9.25 10.75C9.25 11.16 8.91 11.5 8.5 11.5Z" fill="black"/>
<path d="M6.5 21.5H2.5C2.09 21.5 1.75 21.16 1.75 20.75C1.75 20.34 2.09 20 2.5 20H6.5C6.91 20 7.25 20.34 7.25 20.75C7.25 21.16 6.91 21.5 6.5 21.5Z" fill="black"/>
</svg>
