<svg width="24" height="24" viewBox="0 0 24 24" fill="none" xmlns="http://www.w3.org/2000/svg">
<path d="M12 22.75C10.95 22.75 9.90002 22.67 8.86002 22.51C7.67002 22.33 6.81002 21.32 6.80002 20.12V14.22C6.80002 12.58 8.13002 11.25 9.77002 11.25H14.21C15.02 11.25 15.68 10.59 15.68 9.78001V3.89002C15.68 3.43002 15.35 3.05002 14.89 2.98002C12.96 2.68002 11.01 2.68002 9.08002 2.98002C8.63002 3.05002 8.29004 3.44 8.29004 3.9V7.57002C8.29004 7.98002 7.95004 8.32002 7.54004 8.32002C7.13004 8.32002 6.79004 7.98002 6.79004 7.57002V3.9C6.80004 2.7 7.66004 1.69002 8.85004 1.51002C10.93 1.19002 13.04 1.19002 15.12 1.51002C16.31 1.69002 17.17 2.7 17.18 3.9V9.8C17.18 11.44 15.85 12.77 14.21 12.77H9.77002C8.96002 12.77 8.30002 13.43 8.30002 14.24V20.13C8.30002 20.59 8.63003 20.97 9.09003 21.04C11.02 21.34 12.97 21.34 14.9 21.04C15.35 20.97 15.69 20.58 15.69 20.12V16.45C15.69 16.04 16.03 15.7 16.44 15.7C16.85 15.7 17.19 16.04 17.19 16.45V20.12C17.18 21.32 16.32 22.33 15.13 22.51C14.1 22.67 13.05 22.75 12 22.75Z" fill="black"/>
<path d="M12 17.1898C11.59 17.1898 11.25 16.8498 11.25 16.4398C11.25 16.0298 11.59 15.6898 12 15.6898H20.12C20.58 15.6898 20.96 15.3598 21.03 14.8998C21.33 12.9698 21.33 11.0198 21.03 9.08981C20.96 8.62981 20.58 8.2998 20.12 8.2998H16.45C16.04 8.2998 15.7 7.9598 15.7 7.5498C15.7 7.1398 16.04 6.7998 16.45 6.7998H20.12C21.32 6.8098 22.33 7.6698 22.51 8.8598C22.83 10.9398 22.83 13.0498 22.51 15.1298C22.33 16.3198 21.32 17.1798 20.12 17.1898H12Z" fill="black"/>
<path d="M7.55976 17.1898H3.88978C2.68978 17.1798 1.67977 16.3198 1.49977 15.1298C1.17977 13.0498 1.17977 10.9398 1.49977 8.8598C1.67977 7.6698 2.68978 6.8098 3.88978 6.7998H11.9998C12.4098 6.7998 12.7498 7.1398 12.7498 7.5498C12.7498 7.9598 12.4098 8.2998 11.9998 8.2998H3.87977C3.41977 8.2998 3.03977 8.62981 2.96977 9.08981C2.66977 11.0198 2.66977 12.9698 2.96977 14.8998C3.03977 15.3598 3.41977 15.6898 3.87977 15.6898H7.54975C7.95975 15.6898 8.29975 16.0298 8.29975 16.4398C8.29975 16.8498 7.96976 17.1898 7.55976 17.1898Z" fill="black"/>
<path d="M10.3295 5.5802C9.91953 5.5802 9.51953 5.1902 9.51953 4.7702C9.51953 4.3502 9.90953 3.97021 10.3295 3.97021C10.5195 3.97021 10.7496 4.06022 10.8896 4.19022C11.0396 4.33022 11.1396 4.5702 11.1396 4.7702C11.1396 5.1902 10.7495 5.5802 10.3295 5.5802Z" fill="black"/>
<path d="M13.6704 20.0302C13.2604 20.0302 12.8604 19.6402 12.8604 19.2202C12.8604 18.8002 13.2504 18.4102 13.6704 18.4102C13.8604 18.4102 14.0904 18.5002 14.2304 18.6302C14.3804 18.7702 14.4804 19.0101 14.4804 19.2101C14.4704 19.6401 14.0804 20.0302 13.6704 20.0302Z" fill="black"/>
</svg>
