<svg width="24" height="24" viewBox="0 0 24 24" fill="none" xmlns="http://www.w3.org/2000/svg">
<path d="M10.4998 22.5402C10.0998 22.5402 9.70977 22.4502 9.33977 22.2802L2.83977 19.2202C1.87977 18.7702 1.25977 17.7902 1.25977 16.7302V9.27018C1.25977 8.21018 1.87977 7.23019 2.83977 6.78019L9.33977 3.72019C10.0798 3.37019 10.9298 3.38019 11.6698 3.72019L14.3398 4.9802C14.6498 5.1302 14.8198 5.4602 14.7598 5.7902C14.7498 5.8602 14.7498 5.93019 14.7498 6.00019C14.7498 7.79019 16.2098 9.25019 17.9998 9.25019C18.2898 9.25019 18.5498 9.22018 18.7998 9.15018C19.0198 9.08018 19.2698 9.13018 19.4598 9.27018C19.6498 9.41018 19.7598 9.63018 19.7598 9.87018V16.7302C19.7598 17.7902 19.1398 18.7702 18.1798 19.2202L11.6798 22.2802C11.2998 22.4502 10.8998 22.5402 10.4998 22.5402ZM10.4998 4.96018C10.3198 4.96018 10.1298 5.00017 9.95978 5.08017L3.45978 8.1402C3.01978 8.3502 2.73978 8.78018 2.73978 9.27018V16.7302C2.73978 17.2202 3.01978 17.6502 3.45978 17.8602L9.95978 20.9202C10.2998 21.0702 10.6898 21.0802 11.0298 20.9202L17.5298 17.8602C17.9698 17.6502 18.2498 17.2202 18.2498 16.7302V10.7402C18.1698 10.7402 18.0798 10.7502 17.9998 10.7502C15.4198 10.7502 13.3198 8.69019 13.2498 6.13019L11.0298 5.08017C10.8598 5.00017 10.6798 4.96018 10.4998 4.96018Z" fill="black"/>
<path d="M9 16.25C7.48 16.25 6.25 15.02 6.25 13.5V10.5C6.25 10.09 6.59 9.75 7 9.75C7.41 9.75 7.75 10.09 7.75 10.5V13.5C7.75 14.19 8.31 14.75 9 14.75C9.69 14.75 10.25 14.19 10.25 13.5V10.5C10.25 10.09 10.59 9.75 11 9.75C11.41 9.75 11.75 10.09 11.75 10.5V13.5C11.75 15.02 10.52 16.25 9 16.25Z" fill="black"/>
<path d="M14 16.19C13.59 16.19 13.25 15.85 13.25 15.44V10.5C13.25 10.09 13.59 9.75 14 9.75C14.41 9.75 14.75 10.09 14.75 10.5V15.44C14.75 15.86 14.41 16.19 14 16.19Z" fill="black"/>
<path d="M18 10.75C15.38 10.75 13.25 8.62 13.25 6C13.25 5.85 13.25 5.68 13.28 5.53C13.48 3.12 15.51 1.25 18 1.25C20.62 1.25 22.75 3.38 22.75 6C22.75 8.17 21.28 10.06 19.19 10.6C18.82 10.7 18.43 10.75 18 10.75ZM18 2.75C16.3 2.75 14.91 4.03 14.77 5.72C14.75 5.86 14.75 5.93 14.75 6C14.75 7.79 16.21 9.25 18 9.25C18.29 9.25 18.55 9.21999 18.8 9.14999C20.25 8.77999 21.25 7.49 21.25 6C21.25 4.21 19.79 2.75 18 2.75Z" fill="black"/>
<path d="M19.0901 5.90982C19.3301 5.69982 19.4602 5.4198 19.4602 5.0798C19.4602 4.3098 18.8802 3.7998 18.0002 3.7998C17.1202 3.7998 16.5401 4.3198 16.5401 5.0798C16.5401 5.4098 16.6702 5.69982 16.9102 5.90982C16.5902 6.14982 16.4102 6.49983 16.4102 6.88983C16.4102 7.69983 17.0201 8.19983 18.0101 8.19983C19.0001 8.19983 19.6102 7.69983 19.6102 6.88983C19.6002 6.48983 19.4201 6.13982 19.0901 5.90982ZM18.0002 5.50983C17.7302 5.50983 17.5602 5.35982 17.5602 5.12982C17.5602 4.84982 17.7902 4.75983 18.0002 4.75983C18.2102 4.75983 18.4402 4.85982 18.4402 5.12982C18.4402 5.35982 18.2702 5.50983 18.0002 5.50983ZM18.0002 6.33981C18.2802 6.33981 18.5802 6.45983 18.5802 6.78983C18.5802 7.07983 18.3602 7.24982 18.0002 7.24982C17.6402 7.24982 17.4202 7.07983 17.4202 6.78983C17.4202 6.37983 17.8602 6.33981 18.0002 6.33981Z" fill="black"/>
</svg>
