<svg width="24" height="24" viewBox="0 0 24 24" fill="none" xmlns="http://www.w3.org/2000/svg">
<path d="M22 11.7498H12C11.59 11.7498 11.25 11.4098 11.25 10.9998V3.9998C11.25 3.6398 11.5 3.32981 11.85 3.25981L21.85 1.25981C22.07 1.21981 22.3 1.26981 22.47 1.41981C22.64 1.55981 22.74 1.7798 22.74 1.9998V10.9998C22.75 11.4098 22.41 11.7498 22 11.7498ZM12.75 10.2498H21.25V2.91981L12.75 4.61979V10.2498Z" fill="black"/>
<path d="M22 22.75C21.95 22.75 21.9 22.75 21.85 22.74L11.85 20.74C11.5 20.67 11.25 20.36 11.25 20V13C11.25 12.59 11.59 12.25 12 12.25H22C22.41 12.25 22.75 12.59 22.75 13V22C22.75 22.22 22.65 22.44 22.48 22.58C22.34 22.69 22.17 22.75 22 22.75ZM12.75 19.38L21.25 21.08V13.75H12.75V19.38Z" fill="black"/>
<path d="M10 11.7501H2C1.59 11.7501 1.25 11.4101 1.25 11.0001V6.00014C1.25 5.65014 1.50003 5.34013 1.84003 5.27013L9.84003 3.57015C10.06 3.52015 10.29 3.58014 10.47 3.72014C10.65 3.86014 10.75 4.08013 10.75 4.30013V11.0001C10.75 11.4101 10.41 11.7501 10 11.7501ZM2.75 10.2501H9.25V5.23015L2.75 6.61013V10.2501Z" fill="black"/>
<path d="M10 20.45C9.95 20.45 9.90003 20.44 9.84003 20.43L1.84003 18.73C1.49003 18.66 1.25 18.35 1.25 18V13C1.25 12.59 1.59 12.25 2 12.25H10C10.41 12.25 10.75 12.59 10.75 13V19.7C10.75 19.93 10.65 20.14 10.47 20.28C10.34 20.39 10.17 20.45 10 20.45ZM2.75 17.39L9.25 18.77V13.75H2.75V17.39Z" fill="black"/>
</svg>
