<svg width="24" height="24" viewBox="0 0 24 24" fill="none" xmlns="http://www.w3.org/2000/svg">
<path d="M7.08002 16.0983C6.72002 16.0983 6.36003 16.0083 6.03003 15.8183C5.36003 15.4383 4.96002 14.7583 4.96002 13.9983V10.4283C4.96002 10.1683 4.79002 9.7283 4.58002 9.4783L2.06 6.82828C1.59 6.36828 1.25 5.56828 1.25 4.95828V3.40829C1.25 2.19829 2.16998 1.23828 3.34998 1.23828H12.25C13.41 1.23828 14.35 2.17829 14.35 3.33829V4.8183C14.35 5.5983 13.9 6.45828 13.46 6.89828L10.53 9.48828C10.3 9.67828 10.11 10.1383 10.11 10.4783V13.3783C10.11 14.0683 9.69001 14.8383 9.14001 15.1683L8.21997 15.7683C7.85997 15.9883 7.47002 16.0983 7.08002 16.0983ZM3.34998 2.74829C3.00998 2.74829 2.75 3.0383 2.75 3.4183V4.96829C2.75 5.13829 2.92001 5.5683 3.14001 5.7883L5.71997 8.49829C6.09997 8.96829 6.46997 9.73828 6.46997 10.4283V13.9983C6.46997 14.2983 6.66003 14.4483 6.78003 14.5083C6.94003 14.5983 7.19998 14.6483 7.41998 14.5083L8.34998 13.9083C8.46998 13.8383 8.60999 13.5583 8.60999 13.3883V10.4883C8.60999 9.69828 8.99999 8.82828 9.54999 8.35828L12.43 5.80829C12.61 5.62829 12.85 5.1383 12.85 4.8183V3.33829C12.85 3.00829 12.58 2.73828 12.25 2.73828H3.34998V2.74829Z" fill="#292D32"/>
<path d="M15 22.749H9C3.57 22.749 1.25 20.429 1.25 14.999V11.999C1.25 11.589 1.59 11.249 2 11.249C2.41 11.249 2.75 11.589 2.75 11.999V14.999C2.75 19.609 4.39 21.249 9 21.249H15C19.61 21.249 21.25 19.609 21.25 14.999V8.99901C21.25 6.09901 20.57 4.419 19.04 3.549C18.88 3.459 18.35 3.21902 16.83 2.97902C16.42 2.91902 16.14 2.52901 16.21 2.11901C16.28 1.70901 16.67 1.42901 17.07 1.49901C18.38 1.70901 19.27 1.949 19.78 2.239C21.8 3.389 22.75 5.53901 22.75 8.99901V14.999C22.75 20.429 20.43 22.749 15 22.749Z" fill="#292D32"/>
<path d="M18 13.75H13C12.59 13.75 12.25 13.41 12.25 13C12.25 12.59 12.59 12.25 13 12.25H18C18.41 12.25 18.75 12.59 18.75 13C18.75 13.41 18.41 13.75 18 13.75Z" fill="#292D32"/>
<path d="M18 17.75H11C10.59 17.75 10.25 17.41 10.25 17C10.25 16.59 10.59 16.25 11 16.25H18C18.41 16.25 18.75 16.59 18.75 17C18.75 17.41 18.41 17.75 18 17.75Z" fill="#292D32"/>
</svg>
