<svg width="24" height="24" viewBox="0 0 24 24" fill="none" xmlns="http://www.w3.org/2000/svg">
<path d="M17.6191 9.62109H12.3691C11.9591 9.62109 11.6191 9.28109 11.6191 8.87109C11.6191 8.46109 11.9591 8.12109 12.3691 8.12109H17.6191C18.0291 8.12109 18.3691 8.46109 18.3691 8.87109C18.3691 9.28109 18.0391 9.62109 17.6191 9.62109Z" fill="#292D32"/>
<path d="M7.12055 10.3803C6.93055 10.3803 6.74055 10.3103 6.59055 10.1603L5.84055 9.41031C5.55055 9.12031 5.55055 8.64031 5.84055 8.35031C6.13055 8.06031 6.61055 8.06031 6.90055 8.35031L7.12055 8.57031L8.84055 6.85031C9.13055 6.56031 9.61055 6.56031 9.90055 6.85031C10.1905 7.14031 10.1905 7.62031 9.90055 7.91031L7.65055 10.1603C7.51055 10.3003 7.32055 10.3803 7.12055 10.3803Z" fill="#292D32"/>
<path d="M17.6191 16.6211H12.3691C11.9591 16.6211 11.6191 16.2811 11.6191 15.8711C11.6191 15.4611 11.9591 15.1211 12.3691 15.1211H17.6191C18.0291 15.1211 18.3691 15.4611 18.3691 15.8711C18.3691 16.2811 18.0391 16.6211 17.6191 16.6211Z" fill="#292D32"/>
<path d="M7.12055 17.3803C6.93055 17.3803 6.74055 17.3103 6.59055 17.1603L5.84055 16.4103C5.55055 16.1203 5.55055 15.6403 5.84055 15.3503C6.13055 15.0603 6.61055 15.0603 6.90055 15.3503L7.12055 15.5703L8.84055 13.8503C9.13055 13.5603 9.61055 13.5603 9.90055 13.8503C10.1905 14.1403 10.1905 14.6203 9.90055 14.9103L7.65055 17.1603C7.51055 17.3003 7.32055 17.3803 7.12055 17.3803Z" fill="#292D32"/>
<path d="M15 22.75H9C3.57 22.75 1.25 20.43 1.25 15V9C1.25 3.57 3.57 1.25 9 1.25H15C20.43 1.25 22.75 3.57 22.75 9V15C22.75 20.43 20.43 22.75 15 22.75ZM9 2.75C4.39 2.75 2.75 4.39 2.75 9V15C2.75 19.61 4.39 21.25 9 21.25H15C19.61 21.25 21.25 19.61 21.25 15V9C21.25 4.39 19.61 2.75 15 2.75H9Z" fill="#292D32"/>
</svg>
