<svg width="24" height="24" viewBox="0 0 24 24" fill="none" xmlns="http://www.w3.org/2000/svg">
<path d="M2.61914 15.75V8.25C2.61914 7.48 2.64914 6.79 2.72914 6.18C3.09914 2.89 4.64914 2 8.87914 2H15.1291C19.3491 2 20.9091 2.89 21.2691 6.18C21.3591 6.79 21.3791 7.48 21.3791 8.25V15.75C21.3791 16.52 21.3491 17.21 21.2691 17.83C20.8991 21.11 19.3491 22 15.1191 22H8.87914C4.65914 22 3.09914 21.11 2.73914 17.83C2.64914 17.21 2.61914 16.52 2.61914 15.75Z" stroke="#292D32" stroke-width="1.5" stroke-linecap="round" stroke-linejoin="round"/>
<g opacity="0.4">
<path d="M21.2289 8.92188H17.1289" stroke="#292D32" stroke-width="1.5" stroke-linecap="round" stroke-linejoin="round"/>
<path d="M6.86953 8.92188H2.76953" stroke="#292D32" stroke-width="1.5" stroke-linecap="round" stroke-linejoin="round"/>
<path d="M17.1311 8.92109C17.1311 10.0511 16.2111 10.9711 15.0811 10.9711H8.92109C8.36109 10.9711 7.84109 10.7411 7.47109 10.3611C7.10109 10.0011 6.87109 9.49109 6.87109 8.92109C6.87109 7.79109 7.79109 6.87109 8.92109 6.87109H15.0711C15.6311 6.87109 16.1511 7.10109 16.5211 7.48109C16.9011 7.85109 17.1311 8.36109 17.1311 8.92109Z" stroke="#292D32" stroke-width="1.5" stroke-linecap="round" stroke-linejoin="round"/>
</g>
</svg>
