<svg width="24" height="24" viewBox="0 0 24 24" fill="none" xmlns="http://www.w3.org/2000/svg">
<g opacity="0.4">
<path d="M5.5393 11.1172C0.859297 11.4472 0.859297 18.2572 5.5393 18.5872H7.45934" stroke="#292D32" stroke-width="1.5" stroke-miterlimit="10" stroke-linecap="round" stroke-linejoin="round"/>
<path d="M5.59003 11.1187C2.38003 2.18868 15.92 -1.38132 17.47 7.99868C21.8 8.54868 23.55 14.3187 20.27 17.1887C19.27 18.0987 17.98 18.5987 16.63 18.5887H16.54" stroke="#292D32" stroke-width="1.5" stroke-miterlimit="10" stroke-linecap="round" stroke-linejoin="round"/>
</g>
<path d="M17 16.5312C17 17.2713 16.84 17.9712 16.54 18.5912C16.46 18.7712 16.37 18.9413 16.27 19.1013C15.41 20.5513 13.82 21.5312 12 21.5312C10.18 21.5312 8.58998 20.5513 7.72998 19.1013C7.62998 18.9413 7.54002 18.7712 7.46002 18.5912C7.16002 17.9712 7 17.2713 7 16.5312C7 13.7713 9.24 11.5312 12 11.5312C14.76 11.5312 17 13.7713 17 16.5312Z" stroke="#292D32" stroke-width="1.5" stroke-miterlimit="10" stroke-linecap="round" stroke-linejoin="round"/>
<path d="M10.4395 16.5308L11.4294 17.5208L13.5594 15.5508" stroke="#292D32" stroke-width="1.5" stroke-linecap="round" stroke-linejoin="round"/>
</svg>
