<svg width="24" height="24" viewBox="0 0 24 24" fill="none" xmlns="http://www.w3.org/2000/svg">
<path d="M22 11.89V12.78C22 16.34 21.11 17.22 17.56 17.22H6.44C2.89 17.22 2 16.33 2 12.78V6.44C2 2.89 2.89 2 6.44 2H8" stroke="#292D32" stroke-width="1.5" stroke-linecap="round" stroke-linejoin="round"/>
<path opacity="0.4" d="M12 17.2188V21.9988" stroke="#292D32" stroke-width="1.5" stroke-linecap="round" stroke-linejoin="round"/>
<path opacity="0.4" d="M2 13H22" stroke="#292D32" stroke-width="1.5" stroke-linecap="round" stroke-linejoin="round"/>
<path d="M7.5 22H16.5" stroke="#292D32" stroke-width="1.5" stroke-linecap="round" stroke-linejoin="round"/>
<path d="M17.8598 9.37172H13.0998C11.7198 9.37172 11.2598 8.45172 11.2598 7.53172V4.01172C11.2598 2.91172 12.1598 2.01172 13.2598 2.01172H17.8598C18.8798 2.01172 19.6998 2.83172 19.6998 3.85172V7.53172C19.6998 8.55172 18.8798 9.37172 17.8598 9.37172Z" stroke="#292D32" stroke-width="1.5" stroke-linecap="round" stroke-linejoin="round"/>
<path d="M20.9092 7.91851L19.6992 7.06851V4.30851L20.9092 3.45851C21.5092 3.04851 21.9992 3.29851 21.9992 4.02851V7.35851C21.9992 8.08851 21.5092 8.33851 20.9092 7.91851Z" stroke="#292D32" stroke-width="1.5" stroke-linecap="round" stroke-linejoin="round"/>
</svg>
