<svg width="24" height="24" viewBox="0 0 24 24" fill="none" xmlns="http://www.w3.org/2000/svg">
<path d="M16 12.6919V18.0819C16 20.4219 14.44 21.9719 12.11 21.9719H5.89C3.56 21.9719 2 20.4219 2 18.0819V10.3119C2 7.97188 3.56 6.42188 5.89 6.42188H9.72C10.75 6.42188 11.74 6.83187 12.47 7.56187L14.86 9.94187C15.59 10.6719 16 11.6619 16 12.6919Z" stroke="#292D32" stroke-width="1.5" stroke-linecap="round" stroke-linejoin="round"/>
<path opacity="0.4" d="M22 8.24875V13.6388C22 15.9688 20.44 17.5288 18.11 17.5288H16V12.6887C16 11.6587 15.59 10.6687 14.86 9.93875L12.47 7.55875C11.74 6.82875 10.75 6.41875 9.72 6.41875H8V5.85875C8 3.52875 9.56 1.96875 11.89 1.96875H15.72C16.75 1.96875 17.74 2.37875 18.47 3.10875L20.86 5.49875C21.59 6.22875 22 7.21875 22 8.24875Z" stroke="#292D32" stroke-width="1.5" stroke-linecap="round" stroke-linejoin="round"/>
</svg>
