<svg width="24" height="24" viewBox="0 0 24 24" fill="none" xmlns="http://www.w3.org/2000/svg">
<path d="M24 0H0V24H24V0Z" fill="white"/>
<path opacity="0.4" d="M12 22C17.5228 22 22 17.5228 22 12C22 6.47715 17.5228 2 12 2C6.47715 2 2 6.47715 2 12C2 17.5228 6.47715 22 12 22Z" fill="#292D32"/>
<path d="M16.6901 15.7019L12.6901 6.70188C12.4501 6.16188 11.5601 6.16188 11.3201 6.70188L9.30007 11.2519H8.00008C7.59008 11.2519 7.25008 11.5919 7.25008 12.0019C7.25008 12.4119 7.59008 12.7519 8.00008 12.7519H8.62008L7.31008 15.7019C7.14008 16.0819 7.31009 16.5219 7.69009 16.6919C8.07009 16.8619 8.51008 16.6919 8.68008 16.3119L10.2601 12.7619H12.0001C12.4101 12.7619 12.7501 12.4219 12.7501 12.0119C12.7501 11.6019 12.4101 11.2619 12.0001 11.2619H10.9301L12.0001 8.86187L15.3101 16.3219C15.4301 16.6019 15.7101 16.7719 16.0001 16.7719C16.1001 16.7719 16.2101 16.7519 16.3001 16.7119C16.6801 16.5219 16.8501 16.0719 16.6901 15.7019Z" fill="#292D32"/>
</svg>
