<svg width="24" height="24" viewBox="0 0 24 24" fill="none" xmlns="http://www.w3.org/2000/svg">
<path opacity="0.58" d="M24 0H0V24H24V0Z" fill="white"/>
<path opacity="0.4" d="M12 22C17.5228 22 22 17.5228 22 12C22 6.47715 17.5228 2 12 2C6.47715 2 2 6.47715 2 12C2 17.5228 6.47715 22 12 22Z" fill="#292D32"/>
<path d="M16.8399 13.2716L15.3799 12.4316C15.0499 12.2416 15.0499 11.7616 15.3799 11.5616L16.8399 10.7216C17.4699 10.3616 17.6799 9.55156 17.3199 8.92156C16.9599 8.29156 16.1499 8.08156 15.5199 8.44156L14.0599 9.28156C13.7299 9.47156 13.3099 9.23156 13.3099 8.85156V7.17156C13.3099 6.45156 12.7199 5.85156 11.9899 5.85156C11.2599 5.85156 10.6699 6.44156 10.6699 7.17156V8.85156C10.6699 9.23156 10.2499 9.48156 9.91994 9.28156L8.45994 8.44156C7.82994 8.08156 7.01995 8.29156 6.65995 8.92156C6.29995 9.55156 6.50994 10.3616 7.13994 10.7216L8.59994 11.5616C8.92994 11.7516 8.92994 12.2316 8.59994 12.4316L7.13994 13.2716C6.50994 13.6316 6.29995 14.4416 6.65995 15.0716C7.01995 15.7016 7.82994 15.9116 8.45994 15.5516L9.91994 14.7116C10.2499 14.5216 10.6699 14.7616 10.6699 15.1416V16.8216C10.6699 17.5416 11.2599 18.1416 11.9899 18.1416C12.7199 18.1416 13.3099 17.5516 13.3099 16.8216V15.1416C13.3099 14.7616 13.7299 14.5116 14.0599 14.7116L15.5199 15.5516C16.1499 15.9116 16.9599 15.7016 17.3199 15.0716C17.6899 14.4516 17.4699 13.6416 16.8399 13.2716Z" fill="#292D32"/>
</svg>
