<svg width="24" height="24" viewBox="0 0 24 24" fill="none" xmlns="http://www.w3.org/2000/svg">
<path opacity="0.58" d="M24 0H0V24H24V0Z" fill="white"/>
<path d="M4.5 10.4881V16.4281C4.5 16.7381 4.64 17.0381 4.87 17.2381L10.23 21.8281C10.93 22.4281 12 21.9281 12 21.0181V16.9181H16.91C17.86 16.9181 18.34 15.7681 17.67 15.0881L12 9.41812H5.57001C4.98001 9.40812 4.5 9.88813 4.5 10.4881Z" fill="#292D32"/>
<path opacity="0.4" d="M18.4298 1.91016H7.0898C6.1398 1.91016 5.65979 3.06016 6.32979 3.74016L11.9998 9.41016H18.4298C19.0198 9.41016 19.4998 8.93015 19.4998 8.34015V2.98015C19.4998 2.39015 19.0198 1.91016 18.4298 1.91016Z" fill="#292D32"/>
</svg>
