<svg width="24" height="24" viewBox="0 0 24 24" fill="none" xmlns="http://www.w3.org/2000/svg">
<path opacity="0.58" d="M24 0H0V24H24V0Z" fill="white"/>
<path opacity="0.4" d="M16.1898 2H7.81978C4.17978 2 2.00977 4.17 2.00977 7.81V16.18C2.00977 19.82 4.17978 21.99 7.81978 21.99H16.1898C19.8298 21.99 21.9998 19.82 21.9998 16.18V7.81C21.9998 4.17 19.8298 2 16.1898 2Z" fill="#292D32"/>
<path d="M17.9599 7.71875C17.5499 7.71875 17.2099 8.05875 17.2099 8.46875V11.2487H16.1899C14.7999 11.2487 13.6699 12.3788 13.6699 13.7688C13.6699 15.1588 14.7999 16.2887 16.1899 16.2887H17.9599C18.3699 16.2887 18.7099 15.9487 18.7099 15.5387V8.47874C18.7099 8.04874 18.3699 7.71875 17.9599 7.71875ZM17.2099 14.7787H16.1899C15.6299 14.7787 15.1699 14.3187 15.1699 13.7587C15.1699 13.1987 15.6299 12.7388 16.1899 12.7388H17.2099V14.7787Z" fill="#292D32"/>
<path d="M12.1608 7.88068C11.8408 7.62068 11.3607 7.67067 11.1107 8.00067L8.87074 10.8007L6.63075 8.00067C6.37075 7.68067 5.90075 7.62068 5.58075 7.88068C5.26075 8.14068 5.20075 8.61066 5.46075 8.93066L7.91075 11.9907L5.46075 15.0507C5.20075 15.3707 5.25075 15.8507 5.58075 16.1007C5.72075 16.2107 5.88075 16.2607 6.05075 16.2607C6.27075 16.2607 6.49075 16.1607 6.64075 15.9807L8.88075 13.1807L11.1207 15.9807C11.2707 16.1607 11.4908 16.2607 11.7108 16.2607C11.8708 16.2607 12.0407 16.2107 12.1807 16.1007C12.5007 15.8407 12.5608 15.3707 12.3008 15.0507L9.85075 11.9907L12.3008 8.93066C12.5408 8.61066 12.4908 8.14068 12.1608 7.88068Z" fill="#292D32"/>
</svg>
