<svg width="24" height="24" viewBox="0 0 24 24" fill="none" xmlns="http://www.w3.org/2000/svg">
<path d="M17 2C20 2 22 4 22 7V9" stroke="#292D32" stroke-width="1.5" stroke-miterlimit="10" stroke-linecap="round" stroke-linejoin="round"/>
<path d="M2 9V7C2 4 4 2 7 2H12.77" stroke="#292D32" stroke-width="1.5" stroke-miterlimit="10" stroke-linecap="round" stroke-linejoin="round"/>
<path d="M22.0007 15V17C22.0007 20 20.0007 22 17.0007 22H11.4707" stroke="#292D32" stroke-width="1.5" stroke-miterlimit="10" stroke-linecap="round" stroke-linejoin="round"/>
<path d="M2 15V17C2 20 4 22 7 22" stroke="#292D32" stroke-width="1.5" stroke-miterlimit="10" stroke-linecap="round" stroke-linejoin="round"/>
<path d="M6.69922 9.26001L11.9992 12.33L17.2592 9.28003" stroke="#292D32" stroke-width="1.5" stroke-linecap="round" stroke-linejoin="round"/>
<path d="M12 17.7701V12.3201" stroke="#292D32" stroke-width="1.5" stroke-linecap="round" stroke-linejoin="round"/>
<path d="M10.7602 6.29006L7.56023 8.07009C6.84023 8.47009 6.24023 9.48008 6.24023 10.3101V13.7001C6.24023 14.5301 6.83023 15.5401 7.56023 15.9401L10.7602 17.7201C11.4402 18.1001 12.5602 18.1001 13.2502 17.7201L16.4502 15.9401C17.1702 15.5401 17.7702 14.5301 17.7702 13.7001V10.3101C17.7702 9.48008 17.1802 8.47009 16.4502 8.07009L13.2502 6.29006C12.5602 5.90006 11.4402 5.90006 10.7602 6.29006Z" stroke="#292D32" stroke-width="1.5" stroke-linecap="round" stroke-linejoin="round"/>
</svg>
