<svg width="24" height="24" viewBox="0 0 24 24" fill="none" xmlns="http://www.w3.org/2000/svg">
<path d="M13.3906 17.3601L10.6406 14.6101" stroke="#292D32" stroke-width="1.5" stroke-miterlimit="10" stroke-linecap="round" stroke-linejoin="round"/>
<path d="M13.3594 14.6399L10.6094 17.3899" stroke="#292D32" stroke-width="1.5" stroke-miterlimit="10" stroke-linecap="round" stroke-linejoin="round"/>
<path d="M8.80945 2L5.18945 5.63" stroke="#292D32" stroke-width="1.5" stroke-miterlimit="10" stroke-linecap="round" stroke-linejoin="round"/>
<path d="M15.1895 2L18.8095 5.63" stroke="#292D32" stroke-width="1.5" stroke-miterlimit="10" stroke-linecap="round" stroke-linejoin="round"/>
<path d="M2 7.8501C2 6.0001 2.99 5.8501 4.22 5.8501H19.78C21.01 5.8501 22 6.0001 22 7.8501C22 10.0001 21.01 9.8501 19.78 9.8501H4.22C2.99 9.8501 2 10.0001 2 7.8501Z" stroke="#292D32" stroke-width="1.5"/>
<path d="M4.91016 18.64C5.23016 20.58 6.00016 22 8.86016 22H14.8902C18.0002 22 18.4602 20.64 18.8202 18.76L20.5002 10" stroke="#292D32" stroke-width="1.5" stroke-linecap="round"/>
<path d="M3.5 10L4.19 14.25" stroke="#292D32" stroke-width="1.5" stroke-linecap="round"/>
</svg>
