<svg width="24" height="24" viewBox="0 0 24 24" fill="none" xmlns="http://www.w3.org/2000/svg">
<path d="M5.5393 11.1199C0.859297 11.4499 0.859297 18.2599 5.5393 18.5899H7.4593" stroke="#292D32" stroke-width="1.5" stroke-miterlimit="10" stroke-linecap="round" stroke-linejoin="round"/>
<path d="M17.4691 8C21.7991 8.55 23.5491 14.32 20.2691 17.19C19.2691 18.1 17.9791 18.6 16.6291 18.59H16.5391" stroke="#292D32" stroke-width="1.5" stroke-miterlimit="10" stroke-linecap="round" stroke-linejoin="round"/>
<path d="M5.58881 11.12C3.05881 4.08998 10.9188 0.379982 15.1288 3.69998" stroke="#292D32" stroke-width="1.5" stroke-miterlimit="10" stroke-linecap="round" stroke-linejoin="round"/>
<path d="M12.9694 17.61L10.8594 15.5" stroke="#292D32" stroke-width="1.5" stroke-miterlimit="10" stroke-linecap="round" stroke-linejoin="round"/>
<path d="M12.9501 15.52L10.8301 17.64" stroke="#292D32" stroke-width="1.5" stroke-miterlimit="10" stroke-linecap="round" stroke-linejoin="round"/>
<path d="M17 16.53C17 17.27 16.84 17.97 16.54 18.59C16.46 18.77 16.37 18.94 16.27 19.1C15.41 20.55 13.82 21.53 12 21.53C10.18 21.53 8.59 20.55 7.73 19.1C7.63 18.94 7.54 18.77 7.46 18.59C7.16 17.97 7 17.27 7 16.53C7 13.77 9.24 11.53 12 11.53C14.76 11.53 17 13.77 17 16.53Z" stroke="#292D32" stroke-width="1.5" stroke-miterlimit="10" stroke-linecap="round" stroke-linejoin="round"/>
</svg>
