<svg width="24" height="24" viewBox="0 0 24 24" fill="none" xmlns="http://www.w3.org/2000/svg">
<path d="M2 13.02V15C2 20 4 22 9 22H15C20 22 22 20 22 15V9C22 4 20 2 15 2H9C4 2 2 4 2 9" stroke="#292D32" stroke-width="1.5" stroke-linecap="round" stroke-linejoin="round"/>
<path d="M7.80078 10.2V14.3999" stroke="#292D32" stroke-width="1.5" stroke-linecap="round" stroke-linejoin="round"/>
<path d="M7.95001 9.89999C9.02697 9.89999 9.90002 9.02697 9.90002 7.95001C9.90002 6.87306 9.02697 6 7.95001 6C6.87306 6 6 6.87306 6 7.95001C6 9.02697 6.87306 9.89999 7.95001 9.89999Z" stroke="#292D32" stroke-width="1.5" stroke-linecap="round" stroke-linejoin="round"/>
<path d="M7.79999 17.9999C8.7941 17.9999 9.59998 17.194 9.59998 16.1999C9.59998 15.2058 8.7941 14.3999 7.79999 14.3999C6.80588 14.3999 6 15.2058 6 16.1999C6 17.194 6.80588 17.9999 7.79999 17.9999Z" stroke="#292D32" stroke-width="1.5" stroke-linecap="round" stroke-linejoin="round"/>
<path d="M16.2004 17.9999C17.1945 17.9999 18.0004 17.194 18.0004 16.1999C18.0004 15.2058 17.1945 14.3999 16.2004 14.3999C15.2063 14.3999 14.4004 15.2058 14.4004 16.1999C14.4004 17.194 15.2063 17.9999 16.2004 17.9999Z" stroke="#292D32" stroke-width="1.5" stroke-linecap="round" stroke-linejoin="round"/>
<path d="M7.88086 10.2C8.15086 11.25 9.11084 12.0299 10.2408 12.0199L12.3008 12.0099C13.8708 11.9999 15.2109 13.01 15.7009 14.42" stroke="#292D32" stroke-width="1.5" stroke-linecap="round" stroke-linejoin="round"/>
</svg>
