<svg width="24" height="24" viewBox="0 0 24 24" fill="none" xmlns="http://www.w3.org/2000/svg">
<path d="M9.83984 7.16C9.83984 8.35 10.8098 9.32 11.9998 9.32C13.1898 9.32 14.1598 8.35 14.1598 7.16C14.1598 5.97 13.1898 5 11.9998 5" stroke="#292D32" stroke-width="1.5" stroke-linecap="round" stroke-linejoin="round"/>
<path d="M6.79086 18.9999C7.98086 18.9999 8.95086 18.0299 8.95086 16.8399C8.95086 15.6499 7.98086 14.6799 6.79086 14.6799C5.60086 14.6799 4.63086 15.6499 4.63086 16.8399C4.63086 18.0299 5.59086 18.9999 6.79086 18.9999Z" stroke="#292D32" stroke-width="1.5" stroke-linecap="round" stroke-linejoin="round"/>
<path d="M17.2108 18.9999C18.4008 18.9999 19.3708 18.0299 19.3708 16.8399C19.3708 15.6499 18.4008 14.6799 17.2108 14.6799C16.0208 14.6799 15.0508 15.6499 15.0508 16.8399C15.0508 18.0299 16.0208 18.9999 17.2108 18.9999Z" stroke="#292D32" stroke-width="1.5" stroke-linecap="round" stroke-linejoin="round"/>
</svg>
