<svg width="24" height="24" viewBox="0 0 24 24" fill="none" xmlns="http://www.w3.org/2000/svg">
<path d="M2 9C2 4 4 2 9 2H15C20 2 22 4 22 9V15C22 20 20 22 15 22H9C4 22 2 20 2 15V13.59" stroke="#292D32" stroke-width="1.5" stroke-linecap="round" stroke-linejoin="round"/>
<path d="M7 2.5V21.5" stroke="#292D32" stroke-width="1.5" stroke-linecap="round" stroke-linejoin="round"/>
<path d="M11.4705 16.8C12.2934 16.8 12.9605 16.133 12.9605 15.3101C12.9605 14.4872 12.2934 13.8201 11.4705 13.8201C10.6476 13.8201 9.98047 14.4872 9.98047 15.3101C9.98047 16.133 10.6476 16.8 11.4705 16.8Z" stroke="#292D32" stroke-width="1.5" stroke-linecap="round" stroke-linejoin="round"/>
<path d="M18.4309 14.31V8.48002C18.4309 7.24002 17.6509 7.07007 16.8609 7.28007L13.8809 8.09006C13.3409 8.24006 12.9609 8.67001 12.9609 9.29001V10.3301V11.0301V15.3" stroke="#292D32" stroke-width="1.5" stroke-linecap="round" stroke-linejoin="round"/>
<path d="M16.9314 15.8C17.7543 15.8 18.4214 15.133 18.4214 14.3101C18.4214 13.4872 17.7543 12.8201 16.9314 12.8201C16.1085 12.8201 15.4414 13.4872 15.4414 14.3101C15.4414 15.133 16.1085 15.8 16.9314 15.8Z" stroke="#292D32" stroke-width="1.5" stroke-linecap="round" stroke-linejoin="round"/>
<path d="M12.9609 11.04L18.4309 9.55005" stroke="#292D32" stroke-width="1.5" stroke-linecap="round" stroke-linejoin="round"/>
</svg>
