<svg width="24" height="24" viewBox="0 0 24 24" fill="none" xmlns="http://www.w3.org/2000/svg">
<path d="M21.0391 13.2789L20.1191 12.3789L12.3691 20.1189L13.2991 21.0489C14.0791 21.8289 14.8891 22.2189 15.6891 22.2189C16.4891 22.2189 17.2991 21.8289 18.0791 21.0489L21.0391 18.0889C22.6291 16.4889 22.6291 14.8789 21.0391 13.2789Z" fill="#292D32"/>
<path d="M10.6898 2.93141C9.11976 1.36141 7.46977 1.36141 5.89977 2.93141L2.92977 5.89141C1.36977 7.46141 1.36977 9.11141 2.92977 10.6814L3.84977 11.6014L11.5998 3.85141L10.6898 2.93141Z" fill="#292D32"/>
<path opacity="0.4" d="M21.8098 3.93814C20.4998 7.20814 17.5098 11.4781 14.6598 14.2681C14.2498 11.6881 12.1898 9.66814 9.58984 9.30814C12.3898 6.44814 16.6898 3.41814 19.9698 2.09814C20.5498 1.87814 21.1298 2.04814 21.4898 2.40814C21.8698 2.78814 22.0498 3.35814 21.8098 3.93814Z" fill="#292D32"/>
<path d="M14.6595 14.2686C14.1595 14.7586 13.6595 15.2086 13.1795 15.5886L11.2095 17.1686C10.9595 17.3486 10.7095 17.4986 10.4295 17.6186C10.4295 17.4286 10.4095 17.2386 10.3895 17.0386C10.2795 16.2086 9.89953 15.4186 9.22953 14.7486C8.53953 14.0686 7.71953 13.6786 6.86953 13.5686C6.66953 13.5486 6.45953 13.5386 6.26953 13.5486C6.37953 13.2386 6.54953 12.9486 6.75953 12.7086L8.31953 10.7386C8.68953 10.2686 9.11953 9.78859 9.58953 9.30859C12.1895 9.66859 14.2495 11.6886 14.6595 14.2686Z" fill="#292D32"/>
<path opacity="0.4" d="M10.4298 17.6208C10.4298 18.7208 10.0098 19.7708 9.20976 20.5608C8.59976 21.1808 7.77977 21.6008 6.77977 21.7208L4.32976 21.9908C2.98976 22.1408 1.83976 20.9908 1.98976 19.6408L2.25976 17.1808C2.49976 14.9908 4.32976 13.5908 6.26976 13.5508C6.45976 13.5408 6.66976 13.5508 6.86976 13.5708C7.71976 13.6808 8.53976 14.0708 9.22976 14.7508C9.89976 15.4208 10.2798 16.2108 10.3898 17.0408C10.4098 17.2408 10.4298 17.4308 10.4298 17.6208Z" fill="#292D32"/>
</svg>
