<svg width="24" height="24" viewBox="0 0 24 24" fill="none" xmlns="http://www.w3.org/2000/svg">
<path opacity="0.4" d="M16.9 22H7.10001C5.40001 22 4 20.61 4 18.9V5.10001C4 3.40001 5.39001 2 7.10001 2H16.9C18.6 2 20 3.39001 20 5.10001V18.9C20 20.61 18.61 22 16.9 22Z" fill="#292D32"/>
<path d="M20 8H4V13H20V8Z" fill="#292D32"/>
<path d="M8 18.7484C7.92 18.7484 7.83999 18.7384 7.75999 18.7284C7.67999 18.7084 7.6 18.6884 7.52 18.6484C7.45 18.6184 7.37 18.5784 7.31 18.5384C7.24 18.4884 7.17 18.4384 7.12 18.3784C6.88 18.1484 6.75 17.8284 6.75 17.4984C6.75 17.1684 6.88 16.8484 7.12 16.6184C7.17 16.5584 7.24 16.5084 7.31 16.4584C7.37 16.4184 7.45 16.3784 7.52 16.3484C7.6 16.3084 7.67999 16.2884 7.75999 16.2684C8.15999 16.1884 8.59 16.3284 8.88 16.6184C9.12 16.8484 9.25 17.1684 9.25 17.4984C9.25 17.8284 9.12 18.1484 8.88 18.3784C8.65 18.6184 8.33 18.7484 8 18.7484Z" fill="#292D32"/>
<path d="M16 18.7486C15.92 18.7486 15.84 18.7386 15.76 18.7286C15.68 18.7086 15.6 18.6886 15.52 18.6486C15.45 18.6186 15.37 18.5786 15.31 18.5386C15.24 18.4886 15.17 18.4386 15.12 18.3786C14.88 18.1486 14.75 17.8286 14.75 17.4986C14.75 17.1686 14.88 16.8486 15.12 16.6186C15.17 16.5586 15.24 16.5086 15.31 16.4586C15.37 16.4186 15.45 16.3786 15.52 16.3486C15.6 16.3086 15.68 16.2886 15.76 16.2686C15.92 16.2386 16.08 16.2386 16.25 16.2686C16.32 16.2886 16.4 16.3086 16.48 16.3486C16.55 16.3786 16.63 16.4186 16.69 16.4586C16.76 16.5086 16.83 16.5586 16.88 16.6186C17.12 16.8486 17.25 17.1686 17.25 17.4986C17.25 17.8286 17.12 18.1486 16.88 18.3786C16.83 18.4386 16.76 18.4886 16.69 18.5386C16.63 18.5786 16.55 18.6186 16.48 18.6486C16.4 18.6886 16.32 18.7086 16.25 18.7286C16.16 18.7386 16.08 18.7486 16 18.7486Z" fill="#292D32"/>
<path d="M14.5 5.75H9.5C9.09 5.75 8.75 5.41 8.75 5C8.75 4.59 9.09 4.25 9.5 4.25H14.5C14.91 4.25 15.25 4.59 15.25 5C15.25 5.41 14.91 5.75 14.5 5.75Z" fill="#292D32"/>
</svg>
