<svg width="24" height="24" viewBox="0 0 24 24" fill="none" xmlns="http://www.w3.org/2000/svg">
<path d="M12 18.75C11.59 18.75 11.25 18.41 11.25 18V17C11.25 16.59 11.59 16.25 12 16.25C12.41 16.25 12.75 16.59 12.75 17V18C12.75 18.41 12.41 18.75 12 18.75Z" fill="#292D32"/>
<path d="M12 22.75C11.59 22.75 11.25 22.41 11.25 22V21C11.25 20.59 11.59 20.25 12 20.25C12.41 20.25 12.75 20.59 12.75 21V22C12.75 22.41 12.41 22.75 12 22.75Z" fill="#292D32"/>
<path d="M1.99814 22.7481C1.93814 22.7481 1.87815 22.7381 1.81815 22.7281C1.41815 22.6281 1.16814 22.2181 1.26814 21.8181L2.26814 17.8181C2.36814 17.4181 2.76813 17.1681 3.17813 17.2681C3.57813 17.3681 3.82814 17.7781 3.72814 18.1781L2.72814 22.1781C2.63814 22.5181 2.33814 22.7481 1.99814 22.7481Z" fill="#292D32"/>
<path d="M21.9987 22.7487C21.6587 22.7487 21.3587 22.5187 21.2687 22.1787L20.2687 18.1787C20.1687 17.7787 20.4087 17.3687 20.8187 17.2687C21.2187 17.1687 21.6287 17.4087 21.7287 17.8187L22.7287 21.8187C22.8287 22.2187 22.5887 22.6287 22.1787 22.7287C22.1187 22.7387 22.0587 22.7487 21.9987 22.7487Z" fill="#292D32"/>
<path opacity="0.4" d="M19.2602 9.51984C19.1502 8.33984 18.8402 7.08984 16.5502 7.08984H7.45024C5.16024 7.08984 4.85024 8.34984 4.74024 9.51984L4.34024 13.8598C4.29024 14.3998 4.47024 14.9398 4.84024 15.3498C5.22024 15.7598 5.76025 15.9998 6.32025 15.9998H7.66024C8.81024 15.9998 9.03023 15.3398 9.18023 14.8998L9.32025 14.4698C9.48025 13.9798 9.52024 13.8598 10.1702 13.8598H13.8202C14.4602 13.8598 14.4802 13.9298 14.6702 14.4698L14.8102 14.8998C14.9602 15.3398 15.1802 15.9998 16.3302 15.9998H17.6702C18.2302 15.9998 18.7702 15.7598 19.1502 15.3498C19.5202 14.9498 19.7002 14.3998 19.6502 13.8598L19.2602 9.51984Z" fill="#292D32"/>
<path d="M18.4208 4.94H17.7108C17.7008 4.94 17.7008 4.94 17.7008 4.94L17.4308 3.65002C17.1708 2.40002 16.6408 1.25 14.5108 1.25H12.5408H11.4708H9.50078C7.37078 1.25 6.84078 2.40002 6.58078 3.65002L6.31078 4.94C6.30078 4.94 6.30078 4.94 6.30078 4.94H5.59077C5.29077 4.94 5.05078 5.17998 5.05078 5.47998C5.05078 5.77998 5.29077 6.02002 5.59077 6.02002H6.10078L5.80078 7.45001C6.19078 7.23001 6.72078 7.09003 7.46078 7.09003H16.5608C17.3008 7.09003 17.8408 7.23001 18.2208 7.45001L17.9208 6.02002H18.4308C18.7308 6.02002 18.9708 5.77998 18.9708 5.47998C18.9608 5.17998 18.7208 4.94 18.4208 4.94Z" fill="#292D32"/>
<path d="M9.8597 11.0097H7.7197C7.4197 11.0097 7.17969 10.7697 7.17969 10.4697C7.17969 10.1697 7.4197 9.92969 7.7197 9.92969H9.8597C10.1597 9.92969 10.3997 10.1697 10.3997 10.4697C10.3897 10.7697 10.1497 11.0097 9.8597 11.0097Z" fill="#292D32"/>
<path d="M16.2816 11.0097H14.1416C13.8416 11.0097 13.6016 10.7697 13.6016 10.4697C13.6016 10.1697 13.8416 9.92969 14.1416 9.92969H16.2816C16.5816 9.92969 16.8216 10.1697 16.8216 10.4697C16.8216 10.7697 16.5816 11.0097 16.2816 11.0097Z" fill="#292D32"/>
</svg>
