<svg width="24" height="24" viewBox="0 0 24 24" fill="none" xmlns="http://www.w3.org/2000/svg">
<path d="M18.7111 9.49048C18.6111 9.49048 18.5111 9.47049 18.4111 9.43049C18.0311 9.26049 17.8611 8.8205 18.0211 8.4405C18.2111 8.0105 18.1011 7.38048 17.7511 6.86048C17.4011 6.33048 16.8711 5.98049 16.3811 6.00049C15.9411 6.00049 15.6311 5.6705 15.6211 5.2605C15.6211 4.8405 15.9511 4.51049 16.3611 4.50049C17.3911 4.48049 18.3611 5.07051 18.9911 6.02051C19.6311 6.98051 19.7811 8.13052 19.3911 9.03052C19.2811 9.32052 19.0011 9.49048 18.7111 9.49048Z" fill="#292D32"/>
<path d="M21.8201 10.4793C21.7501 10.4793 21.6901 10.4694 21.6201 10.4494C21.2201 10.3394 20.9901 9.92938 21.1001 9.52938C21.4801 8.16938 21.1601 6.54935 20.2501 5.18935C19.3401 3.82935 17.9601 2.91935 16.5501 2.74935C16.1401 2.69935 15.8501 2.32933 15.9001 1.91933C15.9501 1.50933 16.3301 1.20937 16.7301 1.26937C18.5601 1.48937 20.3401 2.64935 21.4901 4.36935C22.6401 6.08935 23.0301 8.16936 22.5401 9.94936C22.4501 10.2594 22.1501 10.4793 21.8201 10.4793Z" fill="#292D32"/>
<path opacity="0.4" d="M17.5183 15.8386C17.4083 14.6186 17.0783 13.3086 14.6983 13.3086H5.22833C2.84833 13.3086 2.52834 14.6186 2.40834 15.8386L1.98834 20.3586C1.93834 20.9186 2.12833 21.4886 2.50833 21.9086C2.89833 22.3386 3.45834 22.5886 4.04834 22.5886H5.43834C6.63834 22.5886 6.86834 21.8986 7.01834 21.4486L7.16833 21.0086C7.33833 20.4986 7.37834 20.3686 8.04834 20.3686H11.8483C12.5083 20.3686 12.5383 20.4386 12.7283 21.0086L12.8783 21.4586C13.0283 21.9086 13.2583 22.5986 14.4583 22.5986H15.8483C16.4383 22.5986 16.9983 22.3486 17.3883 21.9186C17.7683 21.4986 17.9583 20.9286 17.9083 20.3686L17.5183 15.8386Z" fill="#292D32"/>
<path d="M16.6483 11.09H15.9083C15.8983 11.09 15.8983 11.09 15.8883 11.09L15.6083 9.73999C15.3383 8.43999 14.7883 7.25 12.5783 7.25H10.5283H9.41827H7.36827C5.15827 7.25 4.59827 8.43999 4.33827 9.73999L4.05827 11.09C4.04827 11.09 4.04827 11.09 4.03827 11.09H3.29828C2.98828 11.09 2.73828 11.34 2.73828 11.65C2.73828 11.96 2.98828 12.21 3.29828 12.21H3.82828L3.51828 13.69C3.91828 13.46 4.47828 13.32 5.24828 13.32H14.7183C15.4883 13.32 16.0483 13.46 16.4483 13.69L16.1383 12.21H16.6683C16.9783 12.21 17.2283 11.96 17.2283 11.65C17.2083 11.34 16.9583 11.09 16.6483 11.09Z" fill="#292D32"/>
<path d="M7.74702 17.3895H5.51703C5.20703 17.3895 4.95703 17.1395 4.95703 16.8295C4.95703 16.5195 5.20703 16.2695 5.51703 16.2695H7.74702C8.05702 16.2695 8.30702 16.5195 8.30702 16.8295C8.29702 17.1395 8.05702 17.3895 7.74702 17.3895Z" fill="#292D32"/>
<path d="M14.4267 17.3895H12.1967C11.8867 17.3895 11.6367 17.1395 11.6367 16.8295C11.6367 16.5195 11.8867 16.2695 12.1967 16.2695H14.4267C14.7367 16.2695 14.9867 16.5195 14.9867 16.8295C14.9767 17.1395 14.7267 17.3895 14.4267 17.3895Z" fill="#292D32"/>
</svg>
