<svg width="24" height="24" viewBox="0 0 24 24" fill="none" xmlns="http://www.w3.org/2000/svg">
<path d="M14 22.75H10C4.57 22.75 2.25 20.43 2.25 15V9C2.25 3.57 4.57 1.25 10 1.25H14C19.43 1.25 21.75 3.57 21.75 9V15C21.75 20.43 19.43 22.75 14 22.75ZM10 2.75C5.39 2.75 3.75 4.39 3.75 9V15C3.75 19.61 5.39 21.25 10 21.25H14C18.61 21.25 20.25 19.61 20.25 15V9C20.25 4.39 18.61 2.75 14 2.75H10Z" fill="#292D32"/>
<path d="M15 10.8281H9C7.76 10.8281 6.75 9.81813 6.75 8.57812V7.57812C6.75 6.33812 7.76 5.32812 9 5.32812H15C16.24 5.32812 17.25 6.33812 17.25 7.57812V8.57812C17.25 9.81813 16.24 10.8281 15 10.8281ZM9 6.82812C8.59 6.82812 8.25 7.16813 8.25 7.57812V8.57812C8.25 8.98812 8.59 9.32812 9 9.32812H15C15.41 9.32812 15.75 8.98812 15.75 8.57812V7.57812C15.75 7.16813 15.41 6.82812 15 6.82812H9Z" fill="#292D32"/>
<path d="M8.15016 14.9188C8.02016 14.9188 7.89016 14.8889 7.77016 14.8389C7.65016 14.7889 7.54016 14.7188 7.45016 14.6288C7.26016 14.4388 7.16016 14.1888 7.16016 13.9188C7.16016 13.7888 7.18016 13.6588 7.23016 13.5388C7.28016 13.4088 7.35016 13.3088 7.45016 13.2088C7.49016 13.1688 7.54016 13.1188 7.60016 13.0888C7.65016 13.0488 7.71016 13.0188 7.77016 12.9988C7.83016 12.9688 7.90016 12.9488 7.96016 12.9388C8.28016 12.8688 8.63016 12.9788 8.86016 13.2088C8.95016 13.2988 9.03016 13.4088 9.08016 13.5388C9.13016 13.6588 9.16016 13.7888 9.16016 13.9188C9.16016 14.1888 9.05016 14.4388 8.86016 14.6288C8.67016 14.8188 8.42016 14.9188 8.15016 14.9188Z" fill="#292D32"/>
<path d="M12.1602 14.9219C11.8902 14.9219 11.6402 14.8219 11.4502 14.6319C11.2602 14.4419 11.1602 14.1919 11.1602 13.9219C11.1602 13.7919 11.1802 13.6619 11.2302 13.5419C11.2802 13.4119 11.3502 13.3119 11.4502 13.2119C11.4902 13.1719 11.5402 13.1219 11.6002 13.0919C11.6502 13.0519 11.7102 13.0219 11.7702 13.0019C11.8302 12.9719 11.9002 12.9519 11.9602 12.9419C12.1502 12.9019 12.3502 12.9219 12.5402 13.0019C12.6602 13.0519 12.7702 13.1219 12.8602 13.2119C12.9502 13.3119 13.0302 13.4119 13.0802 13.5419C13.1302 13.6619 13.1602 13.7919 13.1602 13.9219C13.1602 14.1919 13.0502 14.4419 12.8602 14.6319C12.6702 14.8219 12.4202 14.9219 12.1602 14.9219Z" fill="#292D32"/>
<path d="M16.1502 14.9211C16.0202 14.9211 15.8902 14.8911 15.7702 14.8411C15.6502 14.7911 15.5402 14.7211 15.4502 14.6311C15.3502 14.5311 15.2802 14.4211 15.2302 14.3011C15.1802 14.1811 15.1602 14.0511 15.1602 13.9211C15.1602 13.7911 15.1802 13.6611 15.2302 13.5411C15.2802 13.4111 15.3502 13.3111 15.4502 13.2111C15.8202 12.8411 16.4902 12.8411 16.8602 13.2111C17.0502 13.4011 17.1602 13.6611 17.1602 13.9211C17.1602 14.1911 17.0502 14.4411 16.8602 14.6311C16.6802 14.8111 16.4302 14.9211 16.1502 14.9211Z" fill="#292D32"/>
<path d="M8.15844 18.919C7.88844 18.919 7.63844 18.819 7.44844 18.629C7.25844 18.439 7.14844 18.189 7.14844 17.919C7.14844 17.659 7.25844 17.399 7.44844 17.209C7.48844 17.169 7.54844 17.119 7.59844 17.089C7.64844 17.049 7.70844 17.019 7.76844 16.999C7.82844 16.969 7.89844 16.949 7.95844 16.939C8.28844 16.879 8.62844 16.979 8.85844 17.209C8.90844 17.259 8.94844 17.309 8.98844 17.359C9.01844 17.419 9.04844 17.479 9.07844 17.539C9.09844 17.599 9.11844 17.659 9.13844 17.719C9.14844 17.789 9.15844 17.849 9.15844 17.919C9.15844 18.189 9.04844 18.439 8.85844 18.629C8.66844 18.819 8.41844 18.919 8.15844 18.919Z" fill="#292D32"/>
<path d="M12.1584 18.919C11.8884 18.919 11.6384 18.819 11.4484 18.629C11.2584 18.439 11.1484 18.189 11.1484 17.919C11.1484 17.659 11.2584 17.399 11.4484 17.209C11.6784 16.979 12.0284 16.879 12.3484 16.939C12.4084 16.949 12.4784 16.969 12.5384 16.999C12.5984 17.019 12.6584 17.049 12.7084 17.089C12.7584 17.119 12.8084 17.169 12.8584 17.209C13.0484 17.399 13.1484 17.659 13.1484 17.919C13.1484 18.189 13.0484 18.439 12.8584 18.629C12.6684 18.819 12.4184 18.919 12.1584 18.919Z" fill="#292D32"/>
<path d="M16.1502 18.9202C15.8902 18.9202 15.6402 18.8202 15.4502 18.6302C15.2602 18.4402 15.1602 18.1902 15.1602 17.9202C15.1602 17.6602 15.2602 17.4002 15.4502 17.2102C15.5402 17.1202 15.6502 17.0502 15.7702 17.0002C16.1402 16.8502 16.5902 16.9302 16.8602 17.2102C17.0502 17.4002 17.1502 17.6602 17.1502 17.9202C17.1502 18.1902 17.0502 18.4402 16.8602 18.6302C16.7702 18.7202 16.6602 18.7902 16.5402 18.8402C16.4202 18.8902 16.2902 18.9202 16.1502 18.9202Z" fill="#292D32"/>
</svg>
