<svg width="24" height="24" viewBox="0 0 24 24" fill="none" xmlns="http://www.w3.org/2000/svg">
<path opacity="0.4" d="M19.24 5.57859H18.84L15.46 2.19859C15.19 1.92859 14.75 1.92859 14.47 2.19859C14.2 2.46859 14.2 2.90859 14.47 3.18859L16.86 5.57859H7.14L9.53 3.18859C9.8 2.91859 9.8 2.47859 9.53 2.19859C9.26 1.92859 8.82 1.92859 8.54 2.19859L5.17 5.57859H4.77C3.87 5.57859 2 5.57859 2 8.13859C2 9.10859 2.2 9.74859 2.62 10.1686C2.86 10.4186 3.15 10.5486 3.46 10.6186C3.75 10.6886 4.06 10.6986 4.36 10.6986H19.64C19.95 10.6986 20.24 10.6786 20.52 10.6186C21.36 10.4186 22 9.81859 22 8.13859C22 5.57859 20.13 5.57859 19.24 5.57859Z" fill="#292D32"/>
<path d="M19.6509 10.7011H4.36094C4.06094 10.7011 3.75094 10.6911 3.46094 10.6211L4.72094 18.3011C5.00094 20.0211 5.75094 22.0011 9.08094 22.0011H14.6909C18.0609 22.0011 18.6609 20.3111 19.0209 18.4211L20.5309 10.6211C20.2509 10.6811 19.9509 10.7011 19.6509 10.7011ZM10.6109 17.1611C10.6109 17.5511 10.3009 17.8611 9.91094 17.8611C9.52094 17.8611 9.21094 17.5511 9.21094 17.1611V13.8611C9.21094 13.4711 9.52094 13.1611 9.91094 13.1611C10.3009 13.1611 10.6109 13.4711 10.6109 13.8611V17.1611ZM14.8909 17.1611C14.8909 17.5511 14.5809 17.8611 14.1909 17.8611C13.8009 17.8611 13.4909 17.5511 13.4909 17.1611V13.8611C13.4909 13.4711 13.8009 13.1611 14.1909 13.1611C14.5809 13.1611 14.8909 13.4711 14.8909 13.8611V17.1611Z" fill="#292D32"/>
</svg>
