<svg xmlns="http://www.w3.org/2000/svg" width="193.832" height="193.83" viewBox="0 0 193.832 193.83">
  <g id="Grupo_331" data-name="Grupo 331" transform="translate(-342 -2488)">
    <g id="Grupo_310" data-name="Grupo 310" transform="translate(342 2488)" opacity="0.18">
      <path id="Trazado_726" data-name="Trazado 726" d="M8400.764,401.225H8274.182a31.812,31.812,0,0,0-31.812,31.813V559.617a31.811,31.811,0,0,0,31.812,31.813h126.582a31.812,31.812,0,0,0,31.813-31.813V433.038A31.813,31.813,0,0,0,8400.764,401.225Zm-126.582-1.339a33.151,33.151,0,0,0-33.15,33.152V559.617a33.153,33.153,0,0,0,33.15,33.154h126.582a33.153,33.153,0,0,0,33.151-33.154V433.038a33.151,33.151,0,0,0-33.151-33.152Z" transform="translate(-8240.557 -399.412)" fill="#a5a7b5" fill-rule="evenodd"/>
      <path id="Trazado_727" data-name="Trazado 727" d="M8432.114,591.918,8239.23,399.035l.949-.947,192.883,192.884Z" transform="translate(-8239.23 -398.088)" fill="#a5a7b5" fill-rule="evenodd"/>
      <path id="Trazado_728" data-name="Trazado 728" d="M8239.23,590.972l192.884-192.884.948.947L8240.18,591.918Z" transform="translate(-8239.23 -398.088)" fill="#a5a7b5" fill-rule="evenodd"/>
      <path id="Trazado_729" data-name="Trazado 729" d="M8276.791,592.771V399.886h1.339V592.771Z" transform="translate(-8266.894 -399.412)" fill="#a5a7b5" fill-rule="evenodd"/>
      <path id="Trazado_730" data-name="Trazado 730" d="M8491.689,592.771V399.886h1.338V592.771Z" transform="translate(-8425.16 -399.412)" fill="#a5a7b5" fill-rule="evenodd"/>
      <path id="Trazado_731" data-name="Trazado 731" d="M8717.23,592.771V399.886h1.339V592.771Z" transform="translate(-8591.267 -399.412)" fill="#a5a7b5" fill-rule="evenodd"/>
      <path id="Trazado_732" data-name="Trazado 732" d="M8932.131,592.771V399.886h1.339V592.771Z" transform="translate(-8749.535 -399.412)" fill="#a5a7b5" fill-rule="evenodd"/>
      <path id="Trazado_733" data-name="Trazado 733" d="M8433.915,436.983H8241.031v-1.34h192.884Z" transform="translate(-8240.557 -425.746)" fill="#a5a7b5" fill-rule="evenodd"/>
      <path id="Trazado_734" data-name="Trazado 734" d="M8433.915,651.883H8241.031v-1.339h192.884Z" transform="translate(-8240.557 -584.016)" fill="#a5a7b5" fill-rule="evenodd"/>
      <path id="Trazado_735" data-name="Trazado 735" d="M8433.915,877.424H8241.031v-1.34h192.884Z" transform="translate(-8240.557 -750.121)" fill="#a5a7b5" fill-rule="evenodd"/>
      <path id="Trazado_736" data-name="Trazado 736" d="M8433.915,1092.329H8241.031v-1.339h192.884Z" transform="translate(-8240.557 -908.394)" fill="#a5a7b5" fill-rule="evenodd"/>
      <path id="Trazado_737" data-name="Trazado 737" d="M8399.587,631.463a72.875,72.875,0,1,0-72.874-72.875A72.874,72.874,0,0,0,8399.587,631.463Zm0,1.341a74.216,74.216,0,1,0-74.216-74.216A74.216,74.216,0,0,0,8399.587,632.8Z" transform="translate(-8302.672 -461.635)" fill="#a5a7b5" fill-rule="evenodd"/>
      <path id="Trazado_738" data-name="Trazado 738" d="M8523.949,711.182A28.378,28.378,0,1,0,8495.57,682.8,28.379,28.379,0,0,0,8523.949,711.182Zm0,1.339a29.718,29.718,0,1,0-29.718-29.718A29.718,29.718,0,0,0,8523.949,712.521Z" transform="translate(-8427.032 -585.888)" fill="#a5a7b5" fill-rule="evenodd"/>
      <path id="Trazado_739" data-name="Trazado 739" d="M8473.8,678.979a46.321,46.321,0,1,0-46.318-46.321A46.319,46.319,0,0,0,8473.8,678.979Zm0,1.339a47.66,47.66,0,1,0-47.661-47.66A47.66,47.66,0,0,0,8473.8,680.319Z" transform="translate(-8376.884 -535.743)" fill="#a5a7b5" fill-rule="evenodd"/>
    </g>
    <path id="Vector" d="M127.892,51.035V70.173q0,38.276-38.367,38.276h-3.2A6.488,6.488,0,0,0,81.211,111L71.619,123.76c-4.22,5.614-11.127,5.614-15.347,0L46.68,111a7.234,7.234,0,0,0-5.116-2.552h-3.2C12.789,108.45,0,102.07,0,70.173v-31.9Q0,0,38.367,0H76.735" transform="translate(376.142 2529.322)" fill="none" stroke="#131315" stroke-linecap="round" stroke-linejoin="round" stroke-width="10"/>
    <path id="Vector-2" data-name="Vector" d="M30.066,15.033A15.033,15.033,0,1,1,15.033,0,15.033,15.033,0,0,1,30.066,15.033Z" transform="translate(470.077 2531.906)" fill="none" stroke="#131315" stroke-linecap="round" stroke-linejoin="round" stroke-width="10"/>
    <path id="Vector-3" data-name="Vector" d="M.495.5H.506" transform="translate(461.784 2587.221)" fill="none" stroke="#131315" stroke-linecap="round" stroke-linejoin="round" stroke-width="12"/>
    <path id="Vector-4" data-name="Vector" d="M.495.5H.506" transform="translate(439.587 2587.221)" fill="none" stroke="#131315" stroke-linecap="round" stroke-linejoin="round" stroke-width="12"/>
    <path id="Vector-5" data-name="Vector" d="M.495.5H.506" transform="translate(417.389 2587.221)" fill="none" stroke="#131315" stroke-linecap="round" stroke-linejoin="round" stroke-width="12"/>
  </g>
</svg>
