<svg xmlns="http://www.w3.org/2000/svg" width="20.733" height="20.215" viewBox="0 0 20.733 20.215">
  <path id="Icon_awesome-github" data-name="Icon awesome-github" d="M6.935,16.84c0,.084-.1.15-.217.15-.138.013-.234-.054-.234-.15s.1-.15.217-.15S6.935,16.744,6.935,16.84Zm-1.3-.188c-.029.084.054.18.18.2a.2.2,0,0,0,.259-.084c.025-.084-.054-.18-.18-.217A.215.215,0,0,0,5.635,16.652Zm1.848-.071c-.121.029-.2.109-.192.2s.121.138.247.109.2-.109.192-.192S7.6,16.568,7.482,16.581ZM10.233.562A10.023,10.023,0,0,0,0,10.762a10.48,10.48,0,0,0,7.085,10c.535.1.723-.234.723-.506S7.8,18.566,7.8,17.688c0,0-2.926.627-3.541-1.246,0,0-.477-1.216-1.162-1.53,0,0-.957-.656.067-.644a2.207,2.207,0,0,1,1.614,1.078,2.21,2.21,0,0,0,3.047.874,2.323,2.323,0,0,1,.669-1.409c-2.337-.259-4.694-.6-4.694-4.619a3.168,3.168,0,0,1,.987-2.462,3.949,3.949,0,0,1,.109-2.838c.874-.272,2.884,1.129,2.884,1.129a9.875,9.875,0,0,1,5.25,0s2.011-1.4,2.884-1.129a3.948,3.948,0,0,1,.109,2.838A3.249,3.249,0,0,1,17.1,10.193c0,4.034-2.462,4.356-4.8,4.619a2.472,2.472,0,0,1,.711,1.94c0,1.409-.013,3.152-.013,3.495,0,.272.192.6.723.506a10.383,10.383,0,0,0,7.014-9.99A10.249,10.249,0,0,0,10.233.562ZM4.063,14.98c-.054.042-.042.138.029.217s.163.1.217.042.042-.138-.029-.217S4.117,14.925,4.063,14.98Zm-.451-.339c-.029.054.013.121.1.163a.124.124,0,0,0,.18-.029c.029-.054-.013-.121-.1-.163C3.708,14.587,3.641,14.6,3.612,14.641Zm1.354,1.488c-.067.054-.042.18.054.259.1.1.217.109.272.042s.029-.18-.054-.259C5.146,16.075,5.02,16.062,4.966,16.129Zm-.477-.614c-.067.042-.067.15,0,.247s.18.138.234.1a.191.191,0,0,0,0-.259C4.665,15.5,4.556,15.46,4.489,15.515Z" transform="translate(0 -0.563)"/>
</svg>
