<svg width="24" height="24" viewBox="0 0 24 24" fill="none" xmlns="http://www.w3.org/2000/svg">
<path d="M6.06033 15.58L11.6703 5.96995C11.8303 5.68995 12.2303 5.66995 12.4203 5.92995L13.9803 8.01995C14.4303 8.61995 14.4603 9.42995 14.0703 10.0699L10.7303 15.4199C10.4003 15.9499 9.82034 16.2699 9.19034 16.2699H6.45035C6.10035 16.2599 5.88033 15.88 6.06033 15.58Z" stroke="black" stroke-width="1.5" stroke-miterlimit="10" stroke-linecap="round" stroke-linejoin="round"/>
<path d="M15.2401 12.3701L13.3201 15.5701C13.1401 15.8701 13.3601 16.2601 13.7101 16.2601H17.5501C17.9001 16.2601 18.1201 15.8801 17.9401 15.5701L16.0201 12.3701C15.8501 12.0801 15.4201 12.0801 15.2401 12.3701Z" stroke="black" stroke-width="1.5" stroke-miterlimit="10" stroke-linecap="round" stroke-linejoin="round"/>
<path d="M4 6C2.75 7.67 2 9.75 2 12C2 17.52 6.48 22 12 22C17.52 22 22 17.52 22 12C22 6.48 17.52 2 12 2C10.57 2 9.19997 2.3 7.96997 2.85" stroke="#17191C" stroke-width="1.5" stroke-linecap="round" stroke-linejoin="round"/>
</svg>
