<svg width="24" height="24" viewBox="0 0 24 24" fill="none" xmlns="http://www.w3.org/2000/svg">
<path d="M11.9997 18.1501C11.2797 18.1501 10.6797 17.5601 10.6797 16.8301V7.17009C10.6797 6.45009 11.2697 5.8501 11.9997 5.8501C12.7197 5.8501 13.3197 6.44009 13.3197 7.17009V16.8301C13.3197 17.5601 12.7197 18.1501 11.9997 18.1501Z" stroke="black" stroke-width="1.5" stroke-miterlimit="10"/>
<path d="M6.68001 8.92998C7.04001 8.29998 7.85002 8.08999 8.48002 8.44999L16.85 13.28C17.48 13.64 17.69 14.45 17.33 15.08C16.97 15.71 16.16 15.92 15.53 15.56L7.16002 10.73C6.53002 10.36 6.31001 9.54998 6.68001 8.92998Z" stroke="black" stroke-width="1.5" stroke-miterlimit="10"/>
<path d="M6.67948 15.07C6.31948 14.44 6.52948 13.63 7.15948 13.27L15.5295 8.43998C16.1595 8.07998 16.9695 8.28997 17.3295 8.91997C17.6895 9.54997 17.4795 10.36 16.8495 10.72L8.47948 15.55C7.84948 15.92 7.03948 15.7 6.67948 15.07Z" stroke="black" stroke-width="1.5" stroke-miterlimit="10"/>
<path d="M4 6C2.75 7.67 2 9.75 2 12C2 17.52 6.48 22 12 22C17.52 22 22 17.52 22 12C22 6.48 17.52 2 12 2C10.57 2 9.2 2.30001 7.97 2.85001" stroke="#17191C" stroke-width="1.5" stroke-linecap="round" stroke-linejoin="round"/>
</svg>
