<svg width="24" height="24" viewBox="0 0 24 24" fill="none" xmlns="http://www.w3.org/2000/svg">
<path d="M16.3 21.03C15 21.65 13.54 22 12 22C6.48 22 2 17.52 2 12C2 10.59 2.29001 9.24002 2.82001 8.02002" stroke="black" stroke-width="1.5" stroke-miterlimit="10" stroke-linecap="round" stroke-linejoin="round"/>
<path d="M7.9707 2.84C9.2007 2.3 10.5607 2 12.0007 2C17.5207 2 22.0007 6.48 22.0007 12C22.0007 14.29 21.2307 16.4 19.9407 18.08" stroke="black" stroke-width="1.5" stroke-miterlimit="10" stroke-linecap="round" stroke-linejoin="round"/>
<path d="M16 16.25V12C16 9.65 14.1 7.75 11.75 7.75C9.4 7.75 7.5 9.65 7.5 12C7.5 14.35 9.4 16.25 11.75 16.25H16Z" stroke="black" stroke-width="1.5" stroke-miterlimit="10" stroke-linecap="round" stroke-linejoin="round"/>
<path d="M5 6.5C5.82843 6.5 6.5 5.82843 6.5 5C6.5 4.17157 5.82843 3.5 5 3.5C4.17157 3.5 3.5 4.17157 3.5 5C3.5 5.82843 4.17157 6.5 5 6.5Z" stroke="black" stroke-width="1.5" stroke-miterlimit="10" stroke-linecap="round" stroke-linejoin="round"/>
</svg>
