<svg width="24" height="24" viewBox="0 0 24 24" fill="none" xmlns="http://www.w3.org/2000/svg">
<path d="M14.5397 2.26001C13.5097 2.26001 12.6797 3.09 12.6797 4.12V8.76001C12.6797 9.79001 13.5097 10.62 14.5397 10.62C15.5697 10.62 16.3997 9.79001 16.3997 8.76001V4.12C16.3997 3.09 15.5697 2.26001 14.5397 2.26001Z" stroke="black" stroke-width="1.5" stroke-miterlimit="10" stroke-linecap="round" stroke-linejoin="round"/>
<path d="M18.6191 10.62H20.1891C21.0591 10.62 21.7591 9.91996 21.7591 9.04996C21.7591 8.17996 21.0591 7.47998 20.1891 7.47998C19.3191 7.47998 18.6191 8.17996 18.6191 9.04996V10.62Z" stroke="black" stroke-width="1.5" stroke-miterlimit="10" stroke-linecap="round" stroke-linejoin="round"/>
<path d="M3.86 7.37012C2.83 7.37012 2 8.20013 2 9.23013C2 10.2601 2.83 11.0901 3.86 11.0901H8.5C9.53 11.0901 10.36 10.2601 10.36 9.23013C10.36 8.20013 9.53 7.37012 8.5 7.37012H7.75" stroke="black" stroke-width="1.5" stroke-miterlimit="10" stroke-linecap="round" stroke-linejoin="round"/>
<path d="M10.3607 5.13V3.56C10.3607 2.69 9.6607 1.98999 8.7907 1.98999C7.9207 1.98999 7.2207 2.69 7.2207 3.56C7.2207 4.43 7.9207 5.13 8.7907 5.13H10.3607Z" stroke="black" stroke-width="1.5" stroke-miterlimit="10" stroke-linecap="round" stroke-linejoin="round"/>
<path d="M9.4303 21.7699C10.4603 21.7699 11.2903 20.9399 11.2903 19.9099V15.2699C11.2903 14.2399 10.4603 13.4099 9.4303 13.4099C8.4003 13.4099 7.57031 14.2399 7.57031 15.2699V19.9099C7.57031 20.9299 8.4003 21.7699 9.4303 21.7699Z" stroke="black" stroke-width="1.5" stroke-miterlimit="10" stroke-linecap="round" stroke-linejoin="round"/>
<path d="M5.3607 13.4099H3.7907C2.9207 13.4099 2.2207 14.1099 2.2207 14.9799C2.2207 15.8499 2.9207 16.5499 3.7907 16.5499C4.6607 16.5499 5.3607 15.8499 5.3607 14.9799V13.4099Z" stroke="black" stroke-width="1.5" stroke-miterlimit="10" stroke-linecap="round" stroke-linejoin="round"/>
<path d="M21.9694 14.7999C21.9694 13.7699 21.1394 12.9399 20.1094 12.9399H15.4694C14.4394 12.9399 13.6094 13.7699 13.6094 14.7999C13.6094 15.8299 14.4394 16.6599 15.4694 16.6599H20.1094C21.1394 16.6599 21.9694 15.8299 21.9694 14.7999Z" stroke="black" stroke-width="1.5" stroke-miterlimit="10" stroke-linecap="round" stroke-linejoin="round"/>
<path d="M13.6094 18.8401V20.4101C13.6094 21.2801 14.3094 21.9801 15.1794 21.9801C16.0494 21.9801 16.7494 21.2801 16.7494 20.4101C16.7494 19.5401 16.0494 18.8401 15.1794 18.8401H13.6094Z" stroke="black" stroke-width="1.5" stroke-miterlimit="10" stroke-linecap="round" stroke-linejoin="round"/>
</svg>
