<svg width="24" height="24" viewBox="0 0 24 24" fill="none" xmlns="http://www.w3.org/2000/svg">
<path d="M9.55084 17.7201H7.10083C6.43083 17.7201 5.88086 17.1701 5.88086 16.5001V7.52005C5.88086 6.85005 6.43083 6.30005 7.10083 6.30005H9.55084C10.2208 6.30005 10.7709 6.85005 10.7709 7.52005V16.5001C10.7709 17.1701 10.2208 17.7201 9.55084 17.7201Z" stroke="black" stroke-width="1.5" stroke-miterlimit="10"/>
<path d="M17.1407 13.63H14.2007C13.6607 13.63 13.2207 13.19 13.2207 12.65V7.26004C13.2207 6.72004 13.6607 6.28003 14.2007 6.28003H17.1407C17.6807 6.28003 18.1207 6.72004 18.1207 7.26004V12.65C18.1207 13.19 17.6807 13.63 17.1407 13.63Z" stroke="black" stroke-width="1.5" stroke-miterlimit="10"/>
<path d="M2 12.83V15C2 20 4 22 9 22H15C20 22 22 20 22 15V9C22 4 20 2 15 2H9C4 2 2 4 2 9" stroke="black" stroke-width="1.5" stroke-linecap="round" stroke-linejoin="round"/>
</svg>
