<svg width="24" height="24" viewBox="0 0 24 24" fill="none" xmlns="http://www.w3.org/2000/svg">
<path opacity="0.4" d="M16.1917 2H7.82172C4.18172 2 2.01172 4.17 2.01172 7.81V16.18C2.01172 19.82 4.18172 21.99 7.82172 21.99H16.1917C19.8317 21.99 22.0017 19.82 22.0017 16.18V7.81C22.0017 4.17 19.8317 2 16.1917 2Z" fill="#292D32"/>
<path d="M15.6211 7.09947L13.3311 6.33952C12.7511 6.13952 12.1611 6.21947 11.7111 6.53947C11.2611 6.85947 11.0111 7.39951 11.0111 8.00951V8.61949V12.7995C10.6111 12.5795 10.1611 12.4495 9.67108 12.4495C8.13108 12.4495 6.87109 13.7095 6.87109 15.2495C6.87109 16.7895 8.13108 18.0495 9.67108 18.0495C11.2111 18.0495 12.4711 16.7895 12.4711 15.2495V10.6995C12.4811 10.7095 12.5011 10.7095 12.5111 10.7195L14.8011 11.4795C15.0111 11.5495 15.2311 11.5895 15.4411 11.5895C15.8011 11.5895 16.1411 11.4895 16.4211 11.2795C16.8711 10.9595 17.1211 10.4195 17.1211 9.80949V9.19951C17.1211 8.28951 16.4811 7.38947 15.6211 7.09947ZM9.67108 16.5895C8.93108 16.5895 8.34113 15.9895 8.34113 15.2595C8.34113 14.5195 8.94108 13.9195 9.67108 13.9195C10.4111 13.9195 11.0111 14.5195 11.0111 15.2595C11.0111 15.9895 10.4111 16.5895 9.67108 16.5895Z" fill="#292D32"/>
</svg>
