<svg width="24" height="24" viewBox="0 0 24 24" fill="none" xmlns="http://www.w3.org/2000/svg">
<path d="M9.5415 16.6691C9.1315 16.6691 8.7915 16.3291 8.7915 15.9191V12.5291L8.6015 12.7391C8.3215 13.0491 7.8515 13.0691 7.5415 12.7991C7.2315 12.5191 7.2115 12.0491 7.4815 11.7391L8.9815 10.0691C9.1915 9.8391 9.52149 9.75909 9.81149 9.86909C10.1015 9.97909 10.2915 10.2591 10.2915 10.5691V15.9191C10.2915 16.3391 9.9615 16.6691 9.5415 16.6691Z" fill="#292D32"/>
<path opacity="0.4" d="M12.0016 3.47974C11.9216 3.47974 11.8416 3.48975 11.7616 3.48975L12.5815 2.46973C12.8415 2.14973 12.7915 1.66974 12.4615 1.41974C12.1415 1.15974 11.6716 1.20973 11.4116 1.53973L9.43155 4.00977C9.42155 4.01977 9.42156 4.03974 9.41156 4.04974C9.38156 4.08974 9.36155 4.13976 9.34155 4.18976C9.32155 4.22976 9.30157 4.26976 9.29156 4.31976C9.28156 4.36976 9.28156 4.40978 9.28156 4.45978C9.28156 4.50978 9.28156 4.55974 9.28156 4.60974C9.28156 4.62974 9.28156 4.63973 9.28156 4.65973C9.29156 4.68973 9.31156 4.71976 9.32156 4.74976C9.34156 4.79976 9.35156 4.83976 9.38156 4.87976C9.41156 4.91976 9.44157 4.95976 9.48157 4.99976C9.50157 5.01976 9.51156 5.04976 9.54156 5.06976C9.55157 5.07976 9.57154 5.07978 9.58154 5.08978C9.61154 5.10978 9.64155 5.12977 9.68155 5.13977C9.73155 5.16977 9.78154 5.18977 9.83154 5.19977C9.86154 5.20977 9.90155 5.20973 9.93155 5.21973C9.96155 5.21973 9.98157 5.22974 10.0116 5.22974C10.0316 5.22974 10.0615 5.21978 10.0815 5.20978C10.1115 5.20978 10.1415 5.20978 10.1815 5.20978C10.8215 5.05978 11.4215 4.98975 11.9915 4.98975C16.4815 4.98975 20.1316 8.63976 20.1316 13.1298C20.1316 17.6198 16.4815 21.2698 11.9915 21.2698C7.50155 21.2698 3.85156 17.6198 3.85156 13.1298C3.85156 11.3898 4.42156 9.70978 5.50156 8.26978C5.75156 7.93978 5.68156 7.46973 5.35156 7.21973C5.02156 6.96973 4.55154 7.03975 4.30154 7.36975C3.02154 9.06975 2.35156 11.0598 2.35156 13.1298C2.35156 18.4398 6.67155 22.7698 11.9915 22.7698C17.3115 22.7698 21.6316 18.4498 21.6316 13.1298C21.6316 7.80976 17.3116 3.47974 12.0016 3.47974Z" fill="#292D32"/>
<path d="M14 16.6703C12.48 16.6703 11.25 15.4403 11.25 13.9203V12.5703C11.25 11.0503 12.48 9.82031 14 9.82031C15.52 9.82031 16.75 11.0503 16.75 12.5703V13.9203C16.75 15.4403 15.52 16.6703 14 16.6703ZM14 11.3303C13.31 11.3303 12.75 11.8903 12.75 12.5803V13.9303C12.75 14.6203 13.31 15.1803 14 15.1803C14.69 15.1803 15.25 14.6203 15.25 13.9303V12.5803C15.25 11.8903 14.69 11.3303 14 11.3303Z" fill="#292D32"/>
</svg>
