<svg width="24" height="24" viewBox="0 0 24 24" fill="none" xmlns="http://www.w3.org/2000/svg">
<path d="M14.4314 16.9203H12.1414C11.7314 16.9203 11.3914 16.5803 11.3914 16.1703C11.3914 15.7603 11.7314 15.4203 12.1414 15.4203H14.4314C14.8614 15.4203 15.2114 15.0703 15.2114 14.6403C15.2114 14.2103 14.8614 13.8603 14.4314 13.8603H12.1414C11.9014 13.8603 11.6714 13.7403 11.5314 13.5503C11.3914 13.3603 11.3514 13.1003 11.4314 12.8703L12.1914 10.5803C12.2914 10.2703 12.5814 10.0703 12.9014 10.0703H15.9614C16.3714 10.0703 16.7114 10.4103 16.7114 10.8203C16.7114 11.2303 16.3714 11.5703 15.9614 11.5703H13.4414L13.1814 12.3603H14.4314C15.6914 12.3603 16.7114 13.3803 16.7114 14.6403C16.7114 15.9003 15.6814 16.9203 14.4314 16.9203Z" fill="#292D32"/>
<path d="M9.5415 16.9208C9.1315 16.9208 8.7915 16.5808 8.7915 16.1708V12.7808L8.6015 13.0008C8.3215 13.3108 7.8515 13.3308 7.5415 13.0608C7.2315 12.7808 7.2115 12.3108 7.4815 12.0008L8.9815 10.3308C9.1915 10.1008 9.52152 10.0208 9.81152 10.1308C10.1015 10.2408 10.2915 10.5208 10.2915 10.8308V16.1808C10.2915 16.5908 9.9615 16.9208 9.5415 16.9208Z" fill="#292D32"/>
<path opacity="0.4" d="M11.9998 3.47945C11.9198 3.47945 11.8398 3.48946 11.7598 3.48946L12.5798 2.46944C12.8398 2.14944 12.7898 1.66945 12.4598 1.41945C12.1298 1.16945 11.6698 1.20945 11.4098 1.53945L9.42981 4.00948C9.41981 4.01948 9.41979 4.03946 9.40979 4.04946C9.37979 4.08946 9.35984 4.13947 9.33984 4.18947C9.31984 4.22947 9.2998 4.26948 9.28979 4.31948C9.27979 4.36948 9.27985 4.40949 9.27985 4.45949C9.27985 4.50949 9.27985 4.55945 9.27985 4.60945C9.27985 4.62945 9.27985 4.63944 9.27985 4.65944C9.28985 4.68944 9.30982 4.71947 9.31982 4.74947C9.33982 4.79947 9.35982 4.83948 9.37982 4.88948C9.40982 4.92948 9.4398 4.96947 9.4798 4.99947C9.4998 5.01947 9.51979 5.04949 9.53979 5.07949C9.5498 5.08949 9.56983 5.08945 9.57983 5.09945C9.60983 5.11945 9.6398 5.12949 9.6698 5.14949C9.7198 5.17949 9.77983 5.19949 9.82983 5.20949C9.85983 5.21949 9.88981 5.21945 9.92981 5.22945C9.95981 5.22945 9.97983 5.23946 10.0098 5.23946C10.0398 5.23946 10.0598 5.22944 10.0798 5.21944C10.1098 5.21944 10.1398 5.22944 10.1698 5.21944C10.8098 5.06944 11.4098 4.99947 11.9798 4.99947C16.4698 4.99947 20.1198 8.64948 20.1198 13.1395C20.1198 17.6295 16.4698 21.2795 11.9798 21.2795C7.4898 21.2795 3.83984 17.6295 3.83984 13.1395C3.83984 11.3995 4.40981 9.7195 5.48981 8.2795C5.73981 7.9495 5.66984 7.47945 5.33984 7.22945C5.00984 6.97945 4.53979 7.04947 4.28979 7.37947C3.00979 9.07947 2.33984 11.0695 2.33984 13.1395C2.33984 18.4495 6.6598 22.7795 11.9798 22.7795C17.2998 22.7795 21.6198 18.4595 21.6198 13.1395C21.6198 7.81948 17.3098 3.47945 11.9998 3.47945Z" fill="#292D32"/>
</svg>
