<svg width="24" height="24" viewBox="0 0 24 24" fill="none" xmlns="http://www.w3.org/2000/svg">
<path opacity="0.4" d="M19.4807 7.08884C19.2207 6.76884 18.7507 6.71879 18.4307 6.97879C18.1107 7.23879 18.0608 7.70884 18.3208 8.02884C19.4508 9.42884 20.0808 11.0888 20.1408 12.8288C20.3008 17.3088 16.7807 21.0888 12.2907 21.2388C7.81073 21.3988 4.03076 17.8788 3.88076 13.3888C3.73076 8.89882 7.24073 5.12879 11.7307 4.97879C12.3007 4.95879 12.9007 5.00882 13.5507 5.13882C13.5907 5.14882 13.6307 5.13882 13.6707 5.13882C13.7707 5.18882 13.8908 5.21878 14.0008 5.21878C14.1708 5.21878 14.3307 5.1688 14.4707 5.0488C14.7907 4.7888 14.8408 4.31881 14.5908 3.99881L12.6107 1.52884C12.3507 1.20884 11.8807 1.14878 11.5607 1.40878C11.2407 1.66878 11.1908 2.13883 11.4408 2.45883L12.2708 3.4888C12.0808 3.4788 11.8808 3.46879 11.6908 3.47879C6.38075 3.65879 2.21077 8.13882 2.40077 13.4488C2.59077 18.7588 7.06075 22.9288 12.3707 22.7388C17.6807 22.5488 21.8507 18.0788 21.6607 12.7688C21.5607 10.7088 20.8207 8.73884 19.4807 7.08884Z" fill="#292D32"/>
<path d="M12.3806 16.9203H10.0906C9.68065 16.9203 9.34065 16.5803 9.34065 16.1703C9.34065 15.7603 9.68065 15.4203 10.0906 15.4203H12.3806C12.8106 15.4203 13.1606 15.0703 13.1606 14.6403C13.1606 14.2103 12.8106 13.8603 12.3806 13.8603H10.0906C9.85065 13.8603 9.6206 13.7403 9.4806 13.5503C9.3406 13.3603 9.30062 13.1003 9.38062 12.8703L10.1406 10.5803C10.2406 10.2703 10.5306 10.0703 10.8506 10.0703H13.9106C14.3206 10.0703 14.6606 10.4103 14.6606 10.8203C14.6606 11.2303 14.3206 11.5703 13.9106 11.5703H11.3906L11.1306 12.3603H12.3806C13.6406 12.3603 14.6606 13.3803 14.6606 14.6403C14.6606 15.9003 13.6406 16.9203 12.3806 16.9203Z" fill="#292D32"/>
</svg>
