<svg width="22" height="22" viewBox="0 0 22 22" fill="none" xmlns="http://www.w3.org/2000/svg">
<path d="M13.6 11.5799V14.3099C13.6 16.5899 12.69 17.4999 10.41 17.4999H7.69C5.42 17.4999 4.5 16.5899 4.5 14.3099V11.5799C4.5 9.3099 5.41 8.3999 7.69 8.3999H10.42C12.69 8.3999 13.6 9.3099 13.6 11.5799Z" stroke="#292D32" stroke-width="1.5" stroke-linecap="round" stroke-linejoin="round"/>
<path d="M17.5 7.68V10.41C17.5 12.69 16.59 13.6 14.31 13.6H13.6V11.58C13.6 9.31 12.69 8.4 10.41 8.4H8.39999V7.68C8.39999 5.4 9.30999 4.5 11.59 4.5H14.32C16.59 4.5 17.5 5.41 17.5 7.68Z" stroke="#292D32" stroke-width="1.5" stroke-linecap="round" stroke-linejoin="round"/>
<path d="M21 14C21 17.87 17.87 21 14 21L15.05 19.25" stroke="#292D32" stroke-width="1.5" stroke-linecap="round" stroke-linejoin="round"/>
<path d="M1 8C1 4.13 4.13 1 8 1L6.95 2.75" stroke="#292D32" stroke-width="1.5" stroke-linecap="round" stroke-linejoin="round"/>
</svg>
