<svg width="24" height="24" viewBox="0 0 24 24" fill="none" xmlns="http://www.w3.org/2000/svg">
<path d="M7.80078 14.5515C7.39078 14.5515 7.05078 14.2115 7.05078 13.8015V9.60156C7.05078 9.19156 7.39078 8.85156 7.80078 8.85156C8.21078 8.85156 8.55078 9.19156 8.55078 9.60156V13.8015C8.55078 14.2115 8.21078 14.5515 7.80078 14.5515Z" fill="#292D32"/>
<path d="M7.95001 18.7516C6.46001 18.7516 5.25 17.5415 5.25 16.0515C5.25 14.5615 6.46001 13.3516 7.95001 13.3516C9.44001 13.3516 10.65 14.5615 10.65 16.0515C10.65 17.5415 9.44001 18.7516 7.95001 18.7516ZM7.95001 14.8516C7.29001 14.8516 6.75 15.3915 6.75 16.0515C6.75 16.7115 7.29001 17.2516 7.95001 17.2516C8.61001 17.2516 9.15002 16.7115 9.15002 16.0515C9.15002 15.3915 8.61001 14.8516 7.95001 14.8516Z" fill="#292D32"/>
<path d="M7.79999 10.35C6.38999 10.35 5.25 9.20999 5.25 7.79999C5.25 6.38999 6.38999 5.25 7.79999 5.25C9.20999 5.25 10.35 6.38999 10.35 7.79999C10.35 9.20999 9.20999 10.35 7.79999 10.35ZM7.79999 6.75C7.21999 6.75 6.75 7.21999 6.75 7.79999C6.75 8.37999 7.21999 8.85001 7.79999 8.85001C8.37999 8.85001 8.84998 8.37999 8.84998 7.79999C8.84998 7.21999 8.37999 6.75 7.79999 6.75Z" fill="#292D32"/>
<path d="M16.2004 10.35C14.7904 10.35 13.6504 9.20999 13.6504 7.79999C13.6504 6.38999 14.7904 5.25 16.2004 5.25C17.6104 5.25 18.7504 6.38999 18.7504 7.79999C18.7504 9.20999 17.6104 10.35 16.2004 10.35ZM16.2004 6.75C15.6204 6.75 15.1504 7.21999 15.1504 7.79999C15.1504 8.37999 15.6204 8.85001 16.2004 8.85001C16.7804 8.85001 17.2504 8.37999 17.2504 7.79999C17.2504 7.21999 16.7804 6.75 16.2004 6.75Z" fill="#292D32"/>
<path d="M7.8796 14.5511C7.8196 14.5511 7.7496 14.5411 7.6896 14.5311C7.2896 14.4311 7.04962 14.0211 7.14962 13.6211C7.50962 12.2111 8.77958 11.2411 10.2296 11.2411H10.2396L12.2996 11.2511H12.3096C13.5196 11.2511 14.5896 10.4911 14.9896 9.35112C15.1296 8.96112 15.5596 8.75113 15.9396 8.89113C16.3296 9.03113 16.5396 9.45112 16.3996 9.85112C15.7896 11.6011 14.1496 12.7711 12.2896 12.7611L10.2296 12.7511C10.2296 12.7511 10.2296 12.7511 10.2196 12.7511C9.44957 12.7511 8.77962 13.2711 8.58962 14.0111C8.51962 14.3311 8.2096 14.5511 7.8796 14.5511Z" fill="#292D32"/>
<path d="M15 22.75H9C3.57 22.75 1.25 20.43 1.25 15V9C1.25 3.57 3.57 1.25 9 1.25H15C20.43 1.25 22.75 3.57 22.75 9V15C22.75 20.43 20.43 22.75 15 22.75ZM9 2.75C4.39 2.75 2.75 4.39 2.75 9V15C2.75 19.61 4.39 21.25 9 21.25H15C19.61 21.25 21.25 19.61 21.25 15V9C21.25 4.39 19.61 2.75 15 2.75H9Z" fill="#292D32"/>
</svg>
