<svg width="24" height="24" viewBox="0 0 24 24" fill="none" xmlns="http://www.w3.org/2000/svg">
<path d="M12 22.7788C11.31 22.7788 10.66 22.4288 10.2 21.8188L8.70001 19.8188C8.67001 19.7788 8.55 19.7287 8.5 19.7188H8C3.83 19.7188 1.25 18.5887 1.25 12.9688V7.96875C1.25 3.54875 3.58 1.21875 8 1.21875H16C20.42 1.21875 22.75 3.54875 22.75 7.96875V12.9688C22.75 17.3888 20.42 19.7188 16 19.7188H15.5C15.42 19.7188 15.35 19.7588 15.3 19.8188L13.8 21.8188C13.34 22.4288 12.69 22.7788 12 22.7788ZM8 2.71875C4.42 2.71875 2.75 4.38875 2.75 7.96875V12.9688C2.75 17.4887 4.3 18.2188 8 18.2188H8.5C9.01 18.2188 9.58999 18.5088 9.89999 18.9188L11.4 20.9188C11.75 21.3788 12.25 21.3788 12.6 20.9188L14.1 18.9188C14.43 18.4788 14.95 18.2188 15.5 18.2188H16C19.58 18.2188 21.25 16.5487 21.25 12.9688V7.96875C21.25 4.38875 19.58 2.71875 16 2.71875H8Z" fill="#292D32"/>
<path d="M7.99945 13.4507C7.80945 13.4507 7.61945 13.3806 7.46945 13.2306L5.46945 11.2306C5.17945 10.9406 5.17945 10.4606 5.46945 10.1706L7.46945 8.17063C7.75945 7.88063 8.23945 7.88063 8.52945 8.17063C8.81945 8.46062 8.81945 8.94062 8.52945 9.23062L7.05945 10.7007L8.52945 12.1706C8.81945 12.4606 8.81945 12.9406 8.52945 13.2306C8.37945 13.3806 8.18945 13.4507 7.99945 13.4507Z" fill="#292D32"/>
<path d="M15.9995 13.4507C15.8095 13.4507 15.6195 13.3806 15.4695 13.2306C15.1795 12.9406 15.1795 12.4606 15.4695 12.1706L16.9395 10.7007L15.4695 9.23062C15.1795 8.94062 15.1795 8.46062 15.4695 8.17063C15.7595 7.88063 16.2395 7.88063 16.5295 8.17063L18.5295 10.1706C18.8195 10.4606 18.8195 10.9406 18.5295 11.2306L16.5295 13.2306C16.3795 13.3806 16.1895 13.4507 15.9995 13.4507Z" fill="#292D32"/>
<path d="M11.0004 13.7798C10.9004 13.7798 10.8004 13.7597 10.7004 13.7197C10.3204 13.5597 10.1404 13.1197 10.3104 12.7297L12.3104 8.05975C12.4704 7.67975 12.9103 7.49973 13.3003 7.66973C13.6803 7.82973 13.8604 8.26972 13.6904 8.65972L11.6904 13.3298C11.5704 13.6098 11.2904 13.7798 11.0004 13.7798Z" fill="#292D32"/>
</svg>
