<svg width="24" height="24" viewBox="0 0 24 24" fill="none" xmlns="http://www.w3.org/2000/svg">
<path d="M13.4994 5.74829H10.4794C9.25944 5.74829 8.24944 4.75827 8.22944 3.53827L8.19944 2.0083C8.18944 1.5983 8.51942 1.24828 8.92942 1.23828C8.93942 1.23828 8.93944 1.23828 8.94944 1.23828C9.35944 1.23828 9.68944 1.56826 9.69944 1.96826L9.72944 3.49829C9.73944 3.89829 10.0794 4.23828 10.4794 4.23828H13.4994C13.9194 4.23828 14.2494 3.89828 14.2494 3.48828V1.99829C14.2494 1.58829 14.5894 1.24829 14.9994 1.24829C15.4094 1.24829 15.7494 1.58829 15.7494 1.99829V3.49829C15.7494 4.73829 14.7394 5.74829 13.4994 5.74829Z" fill="#292D32"/>
<path d="M16.9995 21.7514C16.8095 21.7514 16.6195 21.6815 16.4695 21.5315L14.4695 19.5315C14.1795 19.2415 14.1795 18.7614 14.4695 18.4714L16.4695 16.4714C16.7595 16.1814 17.2395 16.1814 17.5295 16.4714C17.8195 16.7614 17.8195 17.2415 17.5295 17.5315L16.0594 19.0014L17.5295 20.4714C17.8195 20.7614 17.8195 21.2415 17.5295 21.5315C17.3795 21.6815 17.1895 21.7514 16.9995 21.7514Z" fill="#292D32"/>
<path d="M19.9995 21.7514C19.8095 21.7514 19.6195 21.6815 19.4695 21.5315C19.1795 21.2415 19.1795 20.7614 19.4695 20.4714L20.9395 19.0014L19.4695 17.5315C19.1795 17.2415 19.1795 16.7614 19.4695 16.4714C19.7595 16.1814 20.2395 16.1814 20.5295 16.4714L22.5295 18.4714C22.8195 18.7614 22.8195 19.2415 22.5295 19.5315L20.5295 21.5315C20.3795 21.6815 20.1895 21.7514 19.9995 21.7514Z" fill="#292D32"/>
<path d="M13 22.75H8C4.35 22.75 2.25 20.65 2.25 17V7C2.25 3.35 4.35 1.25 8 1.25H16C19.65 1.25 21.75 3.35 21.75 7V14C21.75 14.41 21.41 14.75 21 14.75C20.59 14.75 20.25 14.41 20.25 14V7C20.25 4.14 18.86 2.75 16 2.75H8C5.14 2.75 3.75 4.14 3.75 7V17C3.75 19.86 5.14 21.25 8 21.25H13C13.41 21.25 13.75 21.59 13.75 22C13.75 22.41 13.41 22.75 13 22.75Z" fill="#292D32"/>
</svg>
