<svg width="24" height="24" viewBox="0 0 24 24" fill="none" xmlns="http://www.w3.org/2000/svg">
<path opacity="0.4" d="M18.2106 14.69H5.7906C4.1306 14.69 3.1306 13.38 3.5706 11.78L5.7706 3.7C6.0206 2.77 7.0306 2 7.9906 2H16.0106C16.9706 2 17.9806 2.77 18.2306 3.7L20.4306 11.78C20.8706 13.38 19.8706 14.69 18.2106 14.69Z" fill="#292D32"/>
<path d="M16.75 21.2514C16.75 21.6614 16.41 22.0014 16 22.0014H8C7.59 22.0014 7.25 21.6614 7.25 21.2514C7.25 20.8414 7.59 20.5014 8 20.5014H11.25V14.6914H12.75V20.5014H16C16.41 20.5014 16.75 20.8414 16.75 21.2514Z" fill="#292D32"/>
</svg>
