<svg width="24" height="24" viewBox="0 0 24 24" fill="none" xmlns="http://www.w3.org/2000/svg">
<path opacity="0.4" d="M12.5007 7.41035V22.0003H4.0807C2.9207 22.0003 1.9707 21.0703 1.9707 19.9303V5.09035C1.9707 2.47035 3.9307 1.28035 6.3207 2.45035L10.7507 4.64035C11.7107 5.11035 12.5007 6.36035 12.5007 7.41035Z" fill="#292D32"/>
<path d="M8.97 9.75H5.5C5.09 9.75 4.75 9.41 4.75 9C4.75 8.59 5.09 8.25 5.5 8.25H8.97C9.38 8.25 9.72 8.59 9.72 9C9.72 9.41 9.39 9.75 8.97 9.75Z" fill="#292D32"/>
<path d="M8.97 13.75H5.5C5.09 13.75 4.75 13.41 4.75 13C4.75 12.59 5.09 12.25 5.5 12.25H8.97C9.38 12.25 9.72 12.59 9.72 13C9.72 13.41 9.39 13.75 8.97 13.75Z" fill="#292D32"/>
<path opacity="0.6" d="M22 15.0519V19.5019C22 20.8819 20.88 22.0019 19.5 22.0019H12.5V10.4219L12.97 10.5219L17.01 11.4219L17.49 11.5319L19.53 11.9919C20.02 12.0919 20.47 12.2619 20.86 12.5119C20.86 12.5219 20.87 12.5219 20.87 12.5219C20.97 12.5919 21.07 12.6719 21.16 12.7619C21.62 13.2219 21.92 13.8919 21.99 14.8719C21.99 14.9319 22 14.9919 22 15.0519Z" fill="#292D32"/>
<path d="M12.5 10.4219V16.4219C12.96 17.0319 13.68 17.4219 14.5 17.4219C15.89 17.4219 17.01 16.3019 17.01 14.9219V11.4319L12.97 10.5319L12.5 10.4219Z" fill="#292D32"/>
<path d="M21.9898 14.8719C21.9198 13.8919 21.6198 13.2219 21.1598 12.7619C21.0698 12.6719 20.9698 12.5919 20.8698 12.5219C20.8698 12.5219 20.8598 12.5219 20.8598 12.5119C20.4698 12.2619 20.0198 12.0919 19.5298 11.9919L17.4898 11.5319L17.0098 11.4219V14.9219C17.0098 16.2919 18.1198 17.4219 19.5098 17.4219C20.8498 17.4219 21.9198 16.3719 21.9998 15.0619V15.0519C21.9998 14.9919 21.9898 14.9319 21.9898 14.8719Z" fill="#292D32"/>
</svg>
