<svg width="24" height="24" viewBox="0 0 24 24" fill="none" xmlns="http://www.w3.org/2000/svg">
<path d="M21.6602 10.4385L20.6802 14.6185C19.8402 18.2285 18.1802 19.6885 15.0602 19.3885C14.5602 19.3485 14.0202 19.2585 13.4402 19.1185L11.7602 18.7185C7.59018 17.7285 6.30018 15.6685 7.28018 11.4885L8.26018 7.29854C8.46018 6.44854 8.70018 5.70854 9.00018 5.09854C10.1702 2.67854 12.1602 2.02854 15.5002 2.81854L17.1702 3.20854C21.3602 4.18854 22.6402 6.25854 21.6602 10.4385Z" stroke="#292D32" stroke-width="1.5" stroke-linecap="round" stroke-linejoin="round"/>
<path opacity="0.4" d="M15.0584 19.3916C14.4384 19.8116 13.6584 20.1616 12.7084 20.4716L11.1284 20.9916C7.15839 22.2716 5.06839 21.2016 3.77839 17.2316L2.49839 13.2816C1.21839 9.31156 2.27839 7.21156 6.24839 5.93156L7.82839 5.41156C8.23839 5.28156 8.62839 5.17156 8.99839 5.10156C8.69839 5.71156 8.45839 6.45156 8.25839 7.30156L7.27839 11.4916C6.29839 15.6716 7.58839 17.7316 11.7584 18.7216L13.4384 19.1216C14.0184 19.2616 14.5584 19.3516 15.0584 19.3916Z" stroke="#292D32" stroke-width="1.5" stroke-linecap="round" stroke-linejoin="round"/>
<path opacity="0.4" d="M12.6406 8.53125L17.4906 9.76125" stroke="#292D32" stroke-width="1.5" stroke-linecap="round" stroke-linejoin="round"/>
<path opacity="0.4" d="M11.6602 12.3984L14.5602 13.1384" stroke="#292D32" stroke-width="1.5" stroke-linecap="round" stroke-linejoin="round"/>
</svg>
