<svg width="24" height="24" viewBox="0 0 24 24" fill="none" xmlns="http://www.w3.org/2000/svg">
<path d="M5.32914 19.4213C5.21914 19.4213 5.09914 19.3913 4.99914 19.3413L2.77914 18.2312C2.52914 18.1012 2.36914 17.8412 2.36914 17.5612V14.7812C2.36914 14.3713 2.70914 14.0312 3.11914 14.0312C3.52914 14.0312 3.86914 14.3713 3.86914 14.7812V17.0913L5.66914 18.0013C6.03914 18.1813 6.18914 18.6313 5.99914 19.0013C5.86914 19.2613 5.60914 19.4213 5.32914 19.4213Z" fill="#292D32"/>
<path d="M11.9995 22.7488C11.9395 22.7488 11.8795 22.7388 11.8295 22.7288C11.7695 22.7188 11.7095 22.6888 11.6495 22.6588L9.43947 21.5588C9.06947 21.3688 8.91947 20.9187 9.09947 20.5487C9.28947 20.1787 9.73947 20.0287 10.1095 20.2087L11.2495 20.7788V19.2188C11.2495 18.8088 11.5895 18.4688 11.9995 18.4688C12.4095 18.4688 12.7495 18.8088 12.7495 19.2188V20.7788L13.8895 20.2087C14.2595 20.0287 14.7095 20.1787 14.8995 20.5487C15.0895 20.9187 14.9395 21.3688 14.5595 21.5588L12.3495 22.6588C12.2895 22.6888 12.2295 22.7088 12.1695 22.7288C12.1095 22.7388 12.0595 22.7488 11.9995 22.7488Z" fill="#292D32"/>
<path d="M18.6702 19.4191C18.4002 19.4191 18.1302 19.2691 18.0002 19.0091C17.8102 18.6391 17.9602 18.1891 18.3402 17.9991L20.1502 17.0991V14.7891C20.1502 14.3791 20.4902 14.0391 20.9002 14.0391C21.3102 14.0391 21.6502 14.3791 21.6502 14.7891V17.5691C21.6502 17.8491 21.4902 18.1091 21.2402 18.2391L19.0002 19.3391C18.8902 19.3891 18.7802 19.4191 18.6702 19.4191Z" fill="#292D32"/>
<path d="M11.9995 14.4191C11.5895 14.4191 11.2495 14.0791 11.2495 13.6691V11.3591L9.43947 10.4591C9.06947 10.2691 8.91947 9.81907 9.09947 9.44907C9.28947 9.07907 9.73947 8.92907 10.1095 9.10907L11.9995 10.0491L13.8895 9.10907C14.2595 8.92907 14.7095 9.06907 14.8995 9.44907C15.0895 9.81907 14.9395 10.2691 14.5595 10.4591L12.7495 11.3591V13.6691C12.7495 14.0791 12.4095 14.4191 11.9995 14.4191Z" fill="#292D32"/>
<path d="M3.10938 9.96807C2.69938 9.96807 2.35938 9.62807 2.35938 9.21807V6.45807V6.44807C2.35938 6.38807 2.36938 6.32807 2.37938 6.27807C2.39938 6.18807 2.42938 6.11807 2.46938 6.04807C2.49938 5.99807 2.53938 5.95807 2.57938 5.91807C2.61938 5.87807 2.66938 5.83807 2.71938 5.80807C2.73938 5.79807 2.76938 5.77807 2.78938 5.76807L4.99938 4.65807C5.36938 4.47807 5.81938 4.62807 5.99938 4.99807C6.18938 5.36807 6.03938 5.81807 5.66938 5.99807L4.78938 6.43807L5.66938 6.87807C6.03938 7.06807 6.18938 7.51807 5.99938 7.88807C5.81938 8.25807 5.36938 8.40807 4.99938 8.22807L3.85938 7.65807V9.21807C3.85938 9.63807 3.52937 9.96807 3.10938 9.96807Z" fill="#292D32"/>
<path d="M14.2198 3.85859C14.1098 3.85859 13.9898 3.82859 13.8898 3.77859L11.9998 2.83859L10.1098 3.77859C9.73981 3.96859 9.28981 3.81859 9.10981 3.44859C8.91981 3.07859 9.06981 2.62859 9.43981 2.43859L11.6598 1.32859C11.8698 1.21859 12.1198 1.21859 12.3298 1.32859L14.5498 2.43859C14.9198 2.62859 15.0698 3.07859 14.8898 3.44859C14.7598 3.70859 14.4998 3.85859 14.2198 3.85859Z" fill="#292D32"/>
<path d="M20.8904 9.96807C20.4804 9.96807 20.1404 9.62807 20.1404 9.21807V7.65807L19.0004 8.22807C18.6304 8.40807 18.1804 8.25807 18.0004 7.88807C17.8104 7.51807 17.9604 7.06807 18.3404 6.87807L19.2204 6.43807L18.3304 5.99807C17.9604 5.81807 17.8104 5.36807 18.0004 4.99807C18.1904 4.62807 18.6304 4.47807 19.0004 4.65807L21.2104 5.75807C21.2304 5.76807 21.2604 5.77807 21.2804 5.79807C21.3404 5.82807 21.3904 5.87807 21.4404 5.92807C21.4704 5.96807 21.5004 6.00807 21.5304 6.04807C21.5704 6.11807 21.6004 6.18807 21.6204 6.26807C21.6304 6.32807 21.6404 6.38807 21.6404 6.43807V6.44807V9.20807C21.6404 9.63807 21.3004 9.96807 20.8904 9.96807Z" fill="#292D32"/>
</svg>
