<svg width="24" height="24" viewBox="0 0 24 24" fill="none" xmlns="http://www.w3.org/2000/svg">
<path d="M19.21 15.0117C18.12 14.9417 17 15.3417 16.17 16.1717C14.61 17.7317 14.61 20.2617 16.17 21.8317C16.7 22.3617 17.35 22.7117 18.04 22.8817C18.42 22.9817 18.82 23.0117 19.22 22.9917C20.17 22.9517 21.1 22.5718 21.83 21.8418C22.86 20.8118 23.21 19.3617 22.88 18.0517C22.72 17.3617 22.36 16.7117 21.83 16.1817C21.11 15.4517 20.17 15.0617 19.21 15.0117ZM21.24 18.9817C21.24 19.1917 21.16 19.3717 21.02 19.5117C20.88 19.6517 20.7 19.7317 20.49 19.7317H19.75V20.5117C19.75 20.7217 19.67 20.9017 19.53 21.0417C19.39 21.1817 19.21 21.2617 19 21.2617C18.59 21.2617 18.25 20.9217 18.25 20.5117V19.7317H17.5C17.09 19.7317 16.75 19.3917 16.75 18.9817C16.75 18.5717 17.09 18.2317 17.5 18.2317H18.25V17.5218C18.25 17.1118 18.59 16.7718 19 16.7718C19.41 16.7718 19.75 17.1118 19.75 17.5218V18.2317H20.49C20.91 18.2317 21.24 18.5717 21.24 18.9817Z" fill="#292D32"/>
<path opacity="0.4" d="M16.34 21.97C16.04 21.71 15.78 21.4 15.58 21.06C15.21 20.46 15 19.75 15 19C15 16.79 16.79 15 19 15C20.18 15 21.25 15.51 21.97 16.33C21.98 16.34 21.98 16.35 21.99 16.35C21.99 16.29 22 16.24 22 16.19V7.81C22 4.17 19.83 2 16.19 2H7.81C7.53 2 7.26 2.00999 7 2.04999C3.85 2.33999 2 4.45 2 7.81V16.19C2 19.55 3.85 21.66 7 21.95C7.26 21.99 7.53 22 7.81 22H16.19C16.25 22 16.3 21.99 16.36 21.99C16.36 21.98 16.35 21.98 16.34 21.97Z" fill="#292D32"/>
<path d="M13.7812 5.29878C13.4613 5.04878 12.8813 4.80879 11.9613 5.05879L8.98125 5.8788C8.09125 6.1088 7.51125 6.85878 7.51125 7.79878V9.54878V11.7088C7.28125 11.6288 7.03126 11.5688 6.77126 11.5688C5.53126 11.5688 4.53125 12.5788 4.53125 13.8088C4.53125 15.0388 5.54126 16.0488 6.77126 16.0488C7.99126 16.0488 8.99125 15.0588 9.01125 13.8488C9.01125 13.8388 9.02126 13.8288 9.02126 13.8188V10.1188L12.9913 9.03877V10.7188C12.7613 10.6388 12.5113 10.5788 12.2413 10.5788C11.0013 10.5788 10.0013 11.5888 10.0013 12.8188C10.0013 14.0588 11.0113 15.0588 12.2413 15.0588C13.4613 15.0588 14.4612 14.0688 14.4812 12.8488C14.4812 12.8388 14.4913 12.8288 14.4913 12.8088V8.04878V6.97877C14.4813 6.21877 14.2413 5.64878 13.7812 5.29878ZM6.76125 14.5488C6.35125 14.5488 6.02126 14.2188 6.02126 13.8088C6.02126 13.3988 6.35125 13.0688 6.76125 13.0688C7.17125 13.0688 7.50125 13.3988 7.50125 13.8088C7.50125 14.2188 7.17125 14.5488 6.76125 14.5488ZM12.2312 13.5488C11.8212 13.5488 11.4913 13.2188 11.4913 12.8088C11.4913 12.3988 11.8212 12.0688 12.2312 12.0688C12.6412 12.0688 12.9713 12.3988 12.9713 12.8088C12.9713 13.2188 12.6412 13.5488 12.2312 13.5488Z" fill="#292D32"/>
</svg>
