<svg width="24" height="24" viewBox="0 0 24 24" fill="none" xmlns="http://www.w3.org/2000/svg">
<path opacity="0.4" d="M21.7507 17.9809C21.7507 17.9609 21.7407 17.9409 21.7407 17.9209C21.7307 17.8409 21.7207 17.7609 21.6907 17.6909C21.6507 17.6009 21.6007 17.5309 21.5407 17.4609C21.5407 17.4609 21.5407 17.4509 21.5307 17.4509C21.4607 17.3809 21.3807 17.3309 21.2907 17.2909C21.2007 17.2509 21.1007 17.2309 21.0007 17.2309L16.3307 17.2509C16.3307 17.2509 16.3307 17.2509 16.3207 17.2509C15.7207 17.2509 15.1407 16.9709 14.7807 16.4909L13.5607 14.9209C13.3107 14.5909 12.8407 14.5309 12.5107 14.7909C12.1807 15.0509 12.1207 15.5109 12.3807 15.8409L13.6007 17.4109C14.2507 18.2509 15.2707 18.7509 16.3307 18.7509H16.3407L19.1907 18.7409L18.4807 19.4509C18.1907 19.7409 18.1907 20.2209 18.4807 20.5109C18.6307 20.6609 18.8207 20.7309 19.0107 20.7309C19.2007 20.7309 19.3907 20.6609 19.5407 20.5109L21.5407 18.5109C21.6107 18.4409 21.6607 18.3609 21.7007 18.2709C21.7307 18.1709 21.7507 18.0709 21.7507 17.9809Z" fill="#292D32"/>
<path opacity="0.4" d="M8.4183 6.69171C7.7683 5.79171 6.72829 5.26172 5.61829 5.26172C5.60829 5.26172 5.6083 5.26172 5.5983 5.26172L2.98828 5.27173C2.57828 5.27173 2.23828 5.61173 2.23828 6.02173C2.23828 6.43173 2.57828 6.77173 2.98828 6.77173L5.5983 6.76172H5.60828C6.23828 6.76172 6.82829 7.06172 7.18829 7.57172L8.26828 9.07172C8.41828 9.27172 8.6483 9.38171 8.8783 9.38171C9.0283 9.38171 9.1883 9.3317 9.3183 9.2417C9.6583 9.0017 9.72828 8.53171 9.48828 8.19171L8.4183 6.69171Z" fill="#292D32"/>
<path d="M21.7383 6.07877C21.7383 6.05877 21.7483 6.03878 21.7483 6.02878C21.7483 5.92878 21.7283 5.82874 21.6883 5.73874C21.6483 5.64874 21.5983 5.56875 21.5283 5.49875L19.5283 3.49875C19.2383 3.20875 18.7583 3.20875 18.4683 3.49875C18.1783 3.78875 18.1783 4.26875 18.4683 4.55875L19.1783 5.26877L16.4483 5.25876C16.4383 5.25876 16.4383 5.25876 16.4283 5.25876C15.2783 5.25876 14.1983 5.82874 13.5583 6.79874L7.1683 16.3788C6.8083 16.9188 6.19828 17.2487 5.54828 17.2487H5.5383L2.98828 17.2387C2.57828 17.2387 2.23828 17.5687 2.23828 17.9887C2.23828 18.3987 2.56828 18.7387 2.98828 18.7387L5.5383 18.7487C5.5483 18.7487 5.54829 18.7487 5.55829 18.7487C6.71829 18.7487 7.78828 18.1788 8.42828 17.2088L14.8183 7.62876C15.1783 7.08876 15.7883 6.75876 16.4383 6.75876H16.4483L20.9983 6.77878C21.0983 6.77878 21.1883 6.75872 21.2883 6.71872C21.3783 6.67872 21.4583 6.62875 21.5283 6.55875C21.5283 6.55875 21.5283 6.54874 21.5383 6.54874C21.5983 6.47874 21.6583 6.40876 21.6883 6.31876C21.7183 6.23876 21.7283 6.15877 21.7383 6.07877Z" fill="#292D32"/>
</svg>
