<svg width="24" height="24" viewBox="0 0 24 24" fill="none" xmlns="http://www.w3.org/2000/svg">
<path d="M15.9601 10.8301H12.9001L12.1401 13.1201H14.4301C15.2701 13.1201 15.9601 13.8001 15.9601 14.6501C15.9601 15.4901 15.2801 16.1801 14.4301 16.1801H12.1401" stroke="#292D32" stroke-width="1.5" stroke-linecap="round" stroke-linejoin="round"/>
<path d="M9.54004 16.17V10.8301L8.04004 12.5001" stroke="#292D32" stroke-width="1.5" stroke-linecap="round" stroke-linejoin="round"/>
<path d="M13.98 4.46997L12 2" stroke="#292D32" stroke-width="1.5" stroke-linecap="round" stroke-linejoin="round"/>
<path d="M19.0899 7.79999C20.1999 9.27999 20.8899 11.11 20.8899 13.11C20.8899 18.02 16.9099 22 11.9999 22C7.08988 22 3.10986 18.02 3.10986 13.11C3.10986 8.19999 7.08988 4.21997 11.9999 4.21997C12.6799 4.21997 13.3399 4.31002 13.9799 4.46002" stroke="#292D32" stroke-width="1.5" stroke-linecap="round" stroke-linejoin="round"/>
</svg>
