<svg width="24" height="24" viewBox="0 0 24 24" fill="none" xmlns="http://www.w3.org/2000/svg">
<path d="M16 6.3V6C16 3.79 14.21 2 12 2C9.79 2 8 3.79 8 6V11" stroke="#292D32" stroke-width="1.5" stroke-linecap="round" stroke-linejoin="round"/>
<path d="M9.04004 14.19C9.77004 15 10.83 15.5 12 15.5C14.21 15.5 16 13.71 16 11.5V11" stroke="#292D32" stroke-width="1.5" stroke-linecap="round" stroke-linejoin="round"/>
<path d="M6.78003 16.9499C8.15003 18.2199 9.98003 18.9999 12 18.9999C16.22 18.9999 19.65 15.5699 19.65 11.3499V9.6499" stroke="#292D32" stroke-width="1.5" stroke-linecap="round" stroke-linejoin="round"/>
<path d="M4.34998 9.6499V11.3499C4.34998 12.4099 4.55998 13.4099 4.94998 14.3299" stroke="#292D32" stroke-width="1.5" stroke-linecap="round" stroke-linejoin="round"/>
<path d="M20.0701 2.84009L3.93005 18.9901" stroke="#292D32" stroke-width="1.5" stroke-linecap="round" stroke-linejoin="round"/>
<path d="M11 3V6" stroke="#292D32" stroke-width="1.5" stroke-linecap="round" stroke-linejoin="round"/>
<path d="M12 19V22" stroke="#292D32" stroke-width="1.5" stroke-linecap="round" stroke-linejoin="round"/>
</svg>
