<svg width="24" height="24" viewBox="0 0 24 24" fill="none" xmlns="http://www.w3.org/2000/svg">
<path d="M2.06999 4.59988C2.86999 1.13988 8.07999 1.13988 8.86999 4.59988C9.33999 6.62988 8.04999 8.34988 6.92999 9.41988C6.10999 10.1999 4.81999 10.1899 3.99999 9.41988C2.88999 8.34988 1.59999 6.62988 2.06999 4.59988Z" stroke="#292D32" stroke-width="1.5"/>
<path d="M15.07 16.5999C15.87 13.1399 21.11 13.1399 21.91 16.5999C22.38 18.6299 21.09 20.3499 19.96 21.4199C19.14 22.1999 17.84 22.1899 17.02 21.4199C15.89 20.3499 14.6 18.6299 15.07 16.5999Z" stroke="#292D32" stroke-width="1.5"/>
<path d="M12 5H14.68C16.53 5 17.39 7.29 16 8.51L8.01001 15.5C6.62001 16.71 7.48001 19 9.32001 19H12" stroke="#292D32" stroke-width="1.5" stroke-linecap="round" stroke-linejoin="round"/>
<path d="M5.48622 5.5H5.49777" stroke="#292D32" stroke-width="2" stroke-linecap="round" stroke-linejoin="round"/>
<path d="M18.4862 17.5H18.4978" stroke="#292D32" stroke-width="2" stroke-linecap="round" stroke-linejoin="round"/>
</svg>
