<svg width="24" height="24" viewBox="0 0 24 24" fill="none" xmlns="http://www.w3.org/2000/svg">
<path d="M12.14 7.62H6.87001C5.01001 7.62 4.59002 8.55001 4.36002 9.70001L3.51001 13.75H15.51L14.66 9.70001C14.41 8.55001 14 7.62 12.14 7.62Z" stroke="#292D32" stroke-width="1.5" stroke-linecap="round" stroke-linejoin="round"/>
<path d="M16.99 20.36C17.07 21.24 16.37 22 15.47 22H14.06C13.25 22 13.14 21.65 12.99 21.23L12.84 20.78C12.63 20.17 12.49 19.75 11.41 19.75H7.57001C6.49001 19.75 6.33 20.22 6.14 20.78L5.99001 21.23C5.85001 21.66 5.74 22 4.92 22H3.50999C2.60999 22 1.90001 21.24 1.99001 20.36L2.41 15.79C2.52 14.66 2.73 13.74 4.7 13.74H14.27C16.24 13.74 16.45 14.66 16.56 15.79L16.99 20.36Z" stroke="#292D32" stroke-width="1.5" stroke-linecap="round" stroke-linejoin="round"/>
<path d="M3.5 11.5H2.75" stroke="#292D32" stroke-width="1.5" stroke-linecap="round" stroke-linejoin="round"/>
<path d="M16.25 11.5H15.5" stroke="#292D32" stroke-width="1.5" stroke-linecap="round" stroke-linejoin="round"/>
<path d="M5 16.75H7.25" stroke="#292D32" stroke-width="1.5" stroke-linecap="round" stroke-linejoin="round"/>
<path d="M11.75 16.75H14" stroke="#292D32" stroke-width="1.5" stroke-linecap="round" stroke-linejoin="round"/>
<path d="M18.71 8.73992C18.99 8.08992 18.89 7.20993 18.37 6.43993C17.86 5.66993 17.08 5.23993 16.37 5.24993" stroke="#292D32" stroke-width="1.5" stroke-linecap="round" stroke-linejoin="round"/>
<path d="M21.82 9.72998C22.24 8.21998 21.94 6.37002 20.87 4.77002C19.8 3.17002 18.2 2.19 16.64 2" stroke="#292D32" stroke-width="1.5" stroke-linecap="round" stroke-linejoin="round"/>
</svg>
