<svg width="24" height="24" viewBox="0 0 24 24" fill="none" xmlns="http://www.w3.org/2000/svg">
<path d="M12 2L6 8L8 10L12 6L16 10L18 8L12 2Z" stroke="black" stroke-width="1.5" stroke-miterlimit="10" stroke-linecap="round" stroke-linejoin="round"/>
<path d="M12 22L6 16L8 14L12 18L16 14L18 16L12 22Z" stroke="black" stroke-width="1.5" stroke-miterlimit="10" stroke-linecap="round" stroke-linejoin="round"/>
<path opacity="0.4" d="M19.7486 9.7524L17.5 12.001L19.7486 14.2496L21.9972 12.001L19.7486 9.7524Z" stroke="black" stroke-width="1.5" stroke-miterlimit="10" stroke-linecap="round" stroke-linejoin="round"/>
<path opacity="0.4" d="M4.24857 9.7524L2 12.001L4.24858 14.2496L6.49715 12.001L4.24857 9.7524Z" stroke="black" stroke-width="1.5" stroke-miterlimit="10" stroke-linecap="round" stroke-linejoin="round"/>
<path opacity="0.4" d="M11.9993 9.52613L9.52441 12.001L11.9993 14.4758L14.4741 12.001L11.9993 9.52613Z" stroke="black" stroke-width="1.5" stroke-miterlimit="10" stroke-linecap="round" stroke-linejoin="round"/>
</svg>
