<svg width="24" height="24" viewBox="0 0 24 24" fill="none" xmlns="http://www.w3.org/2000/svg">
<path opacity="0.4" d="M16.1604 10C16.1604 10 16.0104 11 12.9104 15C10.0004 18.77 14.2104 21.64 14.7104 21.97C14.7404 21.99 14.7704 21.99 14.8104 21.97C15.4904 21.55 23.0604 16.68 16.1604 10Z" stroke="black" stroke-width="1.5" stroke-miterlimit="10" stroke-linecap="round" stroke-linejoin="round"/>
<path d="M13.7598 7.79006C13.7598 5.49006 12.8598 3.39006 11.9598 2.19006C11.6598 1.89006 11.1598 1.99006 11.0598 2.39006C10.6598 3.89006 9.45977 7.09006 6.55977 10.8901C2.85977 15.6901 6.25978 20.8901 9.75978 21.8901C11.6598 22.3901 9.25979 20.8901 8.95979 17.7901C8.65979 13.8901 13.7598 10.9901 13.7598 7.79006Z" stroke="black" stroke-width="1.5" stroke-miterlimit="10" stroke-linecap="round" stroke-linejoin="round"/>
</svg>
