<svg width="24" height="24" viewBox="0 0 24 24" fill="none" xmlns="http://www.w3.org/2000/svg">
<path d="M15 22H9C4 22 2 20 2 15V9C2 4 4 2 9 2H15C20 2 22 4 22 9V15C22 20 20 22 15 22Z" stroke="black" stroke-width="1.5" stroke-linecap="round" stroke-linejoin="round"/>
<path opacity="0.4" d="M7.5 16V8H9.5C10.6 8 11.5 8.9 11.5 10C11.5 11.1 10.6 12 9.5 12H7.5" stroke="black" stroke-width="1.5" stroke-miterlimit="10" stroke-linecap="round" stroke-linejoin="round"/>
<path opacity="0.4" d="M16.5 11H15.25C14.56 11 14 11.56 14 12.25C14 12.94 14.56 13.5 15.25 13.5C15.94 13.5 16.5 14.06 16.5 14.75C16.5 15.44 15.94 16 15.25 16H14" stroke="black" stroke-width="1.5" stroke-miterlimit="10" stroke-linecap="round" stroke-linejoin="round"/>
</svg>
