<svg width="24" height="24" viewBox="0 0 24 24" fill="none" xmlns="http://www.w3.org/2000/svg">
<path d="M8.5209 5.14928L11.1909 7.81929C11.6409 8.26929 12.3609 8.26929 12.8109 7.81929L15.4809 5.14928C16.2009 4.42928 15.6909 3.19928 14.6709 3.19928H9.32089C8.31089 3.18928 7.8009 4.42928 8.5209 5.14928Z" stroke="black" stroke-width="1.5" stroke-miterlimit="10" stroke-linecap="round" stroke-linejoin="round"/>
<path d="M8.5209 18.8513L11.1909 16.1812C11.6409 15.7312 12.3609 15.7312 12.8109 16.1812L15.4809 18.8513C16.2009 19.5713 15.6909 20.8013 14.6709 20.8013H9.32089C8.31089 20.8113 7.8009 19.5713 8.5209 18.8513Z" stroke="black" stroke-width="1.5" stroke-miterlimit="10" stroke-linecap="round" stroke-linejoin="round"/>
<path opacity="0.4" d="M2.15945 11.4495L4.36948 7.96953C4.71948 7.41953 5.48949 7.33954 5.94949 7.79954L9.42947 11.2795C9.82947 11.6795 9.82947 12.3195 9.42947 12.7195L5.94949 16.1995C5.48949 16.6595 4.71948 16.5795 4.36948 16.0295L2.15945 12.5495C1.94945 12.2095 1.94945 11.7895 2.15945 11.4495Z" stroke="black" stroke-width="1.5" stroke-miterlimit="10" stroke-linecap="round" stroke-linejoin="round"/>
<path opacity="0.4" d="M21.8396 11.4495L19.6295 7.96953C19.2795 7.41953 18.5095 7.33954 18.0495 7.79954L14.5695 11.2795C14.1695 11.6795 14.1695 12.3195 14.5695 12.7195L18.0495 16.1995C18.5095 16.6595 19.2795 16.5795 19.6295 16.0295L21.8396 12.5495C22.0496 12.2095 22.0496 11.7895 21.8396 11.4495Z" stroke="black" stroke-width="1.5" stroke-miterlimit="10" stroke-linecap="round" stroke-linejoin="round"/>
</svg>
