<svg width="24" height="24" viewBox="0 0 24 24" fill="none" xmlns="http://www.w3.org/2000/svg">
<path d="M15 22H9C4 22 2 20 2 15V9C2 4 4 2 9 2H15C20 2 22 4 22 9V15C22 20 20 22 15 22Z" stroke="black" stroke-width="1.5" stroke-linecap="round" stroke-linejoin="round"/>
<path opacity="0.4" d="M9.55084 17.7208H7.10083C6.43083 17.7208 5.88086 17.1708 5.88086 16.5008V7.52078C5.88086 6.85078 6.43083 6.30078 7.10083 6.30078H9.55084C10.2208 6.30078 10.7709 6.85078 10.7709 7.52078V16.5008C10.7709 17.1708 10.2208 17.7208 9.55084 17.7208Z" stroke="black" stroke-width="1.5" stroke-miterlimit="10"/>
<path opacity="0.4" d="M17.1407 13.6313H14.2007C13.6607 13.6313 13.2207 13.1912 13.2207 12.6512V7.26126C13.2207 6.72126 13.6607 6.28125 14.2007 6.28125H17.1407C17.6807 6.28125 18.1207 6.72126 18.1207 7.26126V12.6512C18.1207 13.1912 17.6807 13.6313 17.1407 13.6313Z" stroke="black" stroke-width="1.5" stroke-miterlimit="10"/>
</svg>
