<svg width="24" height="24" viewBox="0 0 24 24" fill="none" xmlns="http://www.w3.org/2000/svg">
<path d="M9.23105 19.1613H10.2311V21.4913C10.2311 21.8313 10.6611 22.0013 10.8811 21.7413L13.3311 18.9513C13.6311 18.6113 13.5011 18.3313 13.0511 18.3313H12.0511V16.0013C12.0511 15.6613 11.6211 15.4913 11.4011 15.7513L8.95105 18.5413C8.65105 18.8813 8.78105 19.1613 9.23105 19.1613Z" stroke="#292D32" stroke-width="1.5" stroke-miterlimit="10" stroke-linecap="round" stroke-linejoin="round"/>
<path d="M11.9981 3.98007C8.00811 3.64007 3.65811 7.09007 5.61811 12.5601" stroke="#292D32" stroke-width="1.5" stroke-miterlimit="10" stroke-linecap="round" stroke-linejoin="round"/>
<path d="M16.6109 19.9995C17.9509 20.0095 19.2409 19.5095 20.2309 18.6095C23.5009 15.7495 21.7509 10.0095 17.4409 9.46953C17.2009 8.01953 16.6709 6.87953 15.9609 6.01953" stroke="#292D32" stroke-width="1.5" stroke-miterlimit="10" stroke-linecap="round" stroke-linejoin="round"/>
<path d="M7.27938 12.9708C6.74938 12.7008 6.15938 12.5608 5.56938 12.5708C0.909376 12.9008 0.919376 19.6808 5.56938 20.0108" stroke="#292D32" stroke-width="1.5" stroke-miterlimit="10" stroke-linecap="round" stroke-linejoin="round"/>
<path d="M15.8203 9.89047C16.3403 9.63047 16.9003 9.49047 17.4803 9.48047" stroke="#292D32" stroke-width="1.5" stroke-miterlimit="10" stroke-linecap="round" stroke-linejoin="round"/>
</svg>
