<svg width="24" height="24" viewBox="0 0 24 24" fill="none" xmlns="http://www.w3.org/2000/svg">
<path opacity="0.4" d="M19.3484 5.65995L13.0584 2.27C12.3984 1.91 11.5984 1.91 10.9284 2.27L4.63846 5.65995C4.17846 5.90995 3.89844 6.39998 3.89844 6.93998C3.89844 7.47998 4.17846 7.96995 4.63846 8.21995L10.9284 11.61C11.2584 11.79 11.6284 11.88 11.9884 11.88C12.3484 11.88 12.7184 11.79 13.0484 11.61L19.3384 8.21995C19.7984 7.96995 20.0784 7.47998 20.0784 6.93998C20.0984 6.39998 19.8084 5.90995 19.3484 5.65995Z" fill="#292D32"/>
<path opacity="0.4" d="M9.89874 12.7884L4.04874 9.85842C3.59874 9.62842 3.07874 9.65842 2.64874 9.91842C2.21874 10.1784 1.96875 10.6385 1.96875 11.1385V16.6684C1.96875 17.6284 2.49873 18.4884 3.35873 18.9184L9.20874 21.8385C9.40874 21.9385 9.62875 21.9884 9.84875 21.9884C10.1088 21.9884 10.3688 21.9185 10.5988 21.7685C11.0288 21.5085 11.2787 21.0484 11.2787 20.5484V15.0185C11.2887 14.0785 10.7587 13.2184 9.89874 12.7884Z" fill="#292D32"/>
<path opacity="0.4" d="M22.0309 11.1497V15.7396C22.0209 15.7296 22.0109 15.7097 22.0009 15.6997C22.0009 15.6897 21.991 15.6796 21.981 15.6696C21.941 15.6096 21.8909 15.5496 21.8409 15.4996C21.8309 15.4896 21.8209 15.4697 21.8109 15.4597C21.0009 14.5597 19.8109 13.9996 18.5009 13.9996C17.2409 13.9996 16.0909 14.5196 15.2709 15.3596C14.4809 16.1696 14.0009 17.2796 14.0009 18.4996C14.0009 19.3396 14.2409 20.1397 14.6509 20.8197C14.8209 21.1097 15.031 21.3696 15.261 21.6096L14.791 21.8496C14.591 21.9496 14.3709 21.9996 14.1509 21.9996C13.8909 21.9996 13.631 21.9297 13.391 21.7797C12.971 21.5197 12.7109 21.0596 12.7109 20.5596V15.0396C12.7109 14.0796 13.241 13.2196 14.101 12.7896L19.951 9.86964C20.401 9.63964 20.921 9.65964 21.351 9.92964C21.771 10.1896 22.0309 10.6497 22.0309 11.1497Z" fill="#292D32"/>
<path d="M21.98 15.6695C21.16 14.6595 19.91 14.0195 18.5 14.0195C17.44 14.0195 16.46 14.3895 15.69 15.0095C14.65 15.8295 14 17.0995 14 18.5195C14 19.3595 14.24 20.1595 14.65 20.8395C14.92 21.2895 15.26 21.6795 15.66 21.9995H15.67C16.44 22.6395 17.43 23.0195 18.5 23.0195C19.64 23.0195 20.67 22.5995 21.46 21.8995C21.81 21.5995 22.11 21.2395 22.35 20.8395C22.76 20.1595 23 19.3595 23 18.5195C23 17.4395 22.62 16.4395 21.98 15.6695ZM20.76 17.9595L18.36 20.1795C18.22 20.3095 18.03 20.3795 17.85 20.3795C17.66 20.3795 17.47 20.3095 17.32 20.1595L16.21 19.0495C15.92 18.7595 15.92 18.2795 16.21 17.9895C16.5 17.6995 16.98 17.6995 17.27 17.9895L17.87 18.5895L19.74 16.8595C20.04 16.5795 20.52 16.5995 20.8 16.8995C21.09 17.2095 21.07 17.6795 20.76 17.9595Z" fill="#292D32"/>
</svg>
