<svg width="24" height="24" viewBox="0 0 24 24" fill="none" xmlns="http://www.w3.org/2000/svg">
<path d="M21.01 11.22V15.71C21.01 20.2 19.22 22 14.72 22H9.33002C8.75002 22 8.21998 21.97 7.72998 21.9" stroke="#292D32" stroke-width="1.5" stroke-linecap="round" stroke-linejoin="round"/>
<path d="M3.03998 15.52V11.22" stroke="#292D32" stroke-width="1.5" stroke-linecap="round" stroke-linejoin="round"/>
<path d="M12.03 12C13.86 12 15.21 10.5101 15.03 8.68005L14.36 2H9.69001L9.02003 8.68005C8.84003 10.5101 10.2 12 12.03 12Z" stroke="#292D32" stroke-width="1.5" stroke-linecap="round" stroke-linejoin="round"/>
<path d="M18.33 12C20.35 12 21.83 10.36 21.63 8.34998L21.35 5.59998C20.99 2.99998 19.99 2 17.37 2H14.32L15.02 9.01001C15.2 10.66 16.68 12 18.33 12Z" stroke="#292D32" stroke-width="1.5" stroke-linecap="round" stroke-linejoin="round"/>
<path d="M5.66998 12C7.31998 12 8.80996 10.66 8.96996 9.01001L9.19 6.80005L9.66998 2H6.61999C3.99999 2 3.00001 2.99998 2.64001 5.59998L2.35998 8.34998C2.15998 10.36 3.64998 12 5.66998 12Z" stroke="#292D32" stroke-width="1.5" stroke-linecap="round" stroke-linejoin="round"/>
<path d="M9 19C9 19.75 8.78998 20.4601 8.41998 21.0601C8.22998 21.3801 7.99998 21.67 7.72998 21.9C7.69998 21.94 7.67 21.97 7.63 22C6.93 22.63 6.01 23 5 23C3.78 23 2.68997 22.45 1.96997 21.59C1.94997 21.56 1.92002 21.54 1.90002 21.51C1.78002 21.37 1.67002 21.2201 1.58002 21.0601C1.21002 20.4601 1 19.75 1 19C1 17.74 1.58 16.61 2.5 15.88C2.67 15.74 2.84998 15.62 3.03998 15.52C3.61998 15.19 4.29 15 5 15C6 15 6.89998 15.36 7.59998 15.97C7.71998 16.06 7.82999 16.17 7.92999 16.28C8.58999 17 9 17.95 9 19Z" stroke="#292D32" stroke-width="1.5" stroke-miterlimit="10" stroke-linecap="round" stroke-linejoin="round"/>
<path d="M6.48999 18.98H3.51001" stroke="#292D32" stroke-width="1.5" stroke-miterlimit="10" stroke-linecap="round" stroke-linejoin="round"/>
</svg>
