<svg width="24" height="24" viewBox="0 0 24 24" fill="none" xmlns="http://www.w3.org/2000/svg">
<path d="M21.8095 3.94183C20.2695 7.78183 16.4095 13.0018 13.1795 15.5918L11.2095 17.1718C10.9595 17.3518 10.7095 17.5118 10.4295 17.6218C10.4295 17.4418 10.4195 17.2418 10.3895 17.0518C10.2795 16.2118 9.89953 15.4318 9.22953 14.7618C8.54953 14.0818 7.71953 13.6818 6.86953 13.5718C6.66953 13.5618 6.46953 13.5418 6.26953 13.5618C6.37953 13.2518 6.54953 12.9618 6.75953 12.7218L8.31953 10.7518C10.8995 7.52183 16.1395 3.64183 19.9695 2.11183C20.5595 1.89183 21.1295 2.05183 21.4895 2.42183C21.8695 2.79183 22.0495 3.36183 21.8095 3.94183Z" stroke="#292D32" stroke-width="1.5" stroke-linecap="round" stroke-linejoin="round"/>
<path d="M10.4293 17.6188C10.4293 18.7188 10.0093 19.7688 9.2193 20.5688C8.6093 21.1788 7.7793 21.5988 6.7893 21.7288L4.3293 21.9988C2.9893 22.1488 1.8393 21.0088 1.9993 19.6488L2.2693 17.1888C2.5093 14.9988 4.3393 13.5988 6.2793 13.5588C6.4793 13.5488 6.6893 13.5588 6.8793 13.5688C7.7293 13.6788 8.5593 14.0688 9.2393 14.7588C9.9093 15.4288 10.2893 16.2088 10.3993 17.0488C10.4093 17.2388 10.4293 17.4288 10.4293 17.6188Z" stroke="#292D32" stroke-width="1.5" stroke-linecap="round" stroke-linejoin="round"/>
<path opacity="0.4" d="M14.2398 14.4683C14.2398 11.8583 12.1198 9.73828 9.50977 9.73828" stroke="#292D32" stroke-width="1.5" stroke-linecap="round" stroke-linejoin="round"/>
</svg>
