<svg width="22" height="22" viewBox="0 0 22 22" fill="none" xmlns="http://www.w3.org/2000/svg">
<path d="M13.6 11.5784V14.3084C13.6 16.5884 12.69 17.4984 10.41 17.4984H7.69C5.42 17.4984 4.5 16.5884 4.5 14.3084V11.5784C4.5 9.30844 5.41 8.39844 7.69 8.39844H10.42C12.69 8.39844 13.6 9.30844 13.6 11.5784Z" stroke="#292D32" stroke-width="1.5" stroke-linecap="round" stroke-linejoin="round"/>
<path d="M17.5004 7.68V10.41C17.5004 12.69 16.5904 13.6 14.3104 13.6H13.6004V11.58C13.6004 9.31 12.6904 8.4 10.4104 8.4H8.40039V7.68C8.40039 5.4 9.31039 4.5 11.5904 4.5H14.3204C16.5904 4.5 17.5004 5.41 17.5004 7.68Z" stroke="#292D32" stroke-width="1.5" stroke-linecap="round" stroke-linejoin="round"/>
<path opacity="0.4" d="M21 14C21 17.87 17.87 21 14 21L15.05 19.25" stroke="#292D32" stroke-width="1.5" stroke-linecap="round" stroke-linejoin="round"/>
<path opacity="0.4" d="M1 8C1 4.13 4.13 1 8 1L6.95 2.75" stroke="#292D32" stroke-width="1.5" stroke-linecap="round" stroke-linejoin="round"/>
</svg>
