<svg width="24" height="24" viewBox="0 0 24 24" fill="none" xmlns="http://www.w3.org/2000/svg">
<path opacity="0.4" d="M16.2391 3.64844H7.75906C5.28906 3.64844 3.28906 5.65844 3.28906 8.11844V17.5284C3.28906 19.9884 5.29906 21.9984 7.75906 21.9984H16.2291C18.6991 21.9984 20.6991 19.9884 20.6991 17.5284V8.11844C20.7091 5.64844 18.6991 3.64844 16.2391 3.64844Z" fill="#292D32"/>
<path d="M14.3498 2H9.64977C8.60977 2 7.75977 2.84 7.75977 3.88V4.82C7.75977 5.86 8.59977 6.7 9.63977 6.7H14.3498C15.3898 6.7 16.2298 5.86 16.2298 4.82V3.88C16.2398 2.84 15.3898 2 14.3498 2Z" fill="#292D32"/>
<path d="M14.9995 13.2514C14.5895 13.2514 14.2495 13.5914 14.2495 14.0014V15.1914L9.52945 10.4714C9.23945 10.1814 8.75945 10.1814 8.46945 10.4714C8.17945 10.7614 8.17945 11.2414 8.46945 11.5314L13.1895 16.2514H11.9995C11.5895 16.2514 11.2495 16.5914 11.2495 17.0014C11.2495 17.4114 11.5895 17.7514 11.9995 17.7514H14.9995C15.4095 17.7514 15.7495 17.4114 15.7495 17.0014V14.0014C15.7495 13.5914 15.4095 13.2514 14.9995 13.2514Z" fill="#292D32"/>
</svg>
