<svg width="24" height="24" viewBox="0 0 24 24" fill="none" xmlns="http://www.w3.org/2000/svg">
<path d="M12 22.75C6.07 22.75 1.25 17.93 1.25 12C1.25 6.07 6.07 1.25 12 1.25C17.93 1.25 22.75 6.07 22.75 12C22.75 17.93 17.93 22.75 12 22.75ZM12 2.75C6.9 2.75 2.75 6.9 2.75 12C2.75 17.1 6.9 21.25 12 21.25C17.1 21.25 21.25 17.1 21.25 12C21.25 6.9 17.1 2.75 12 2.75Z" fill="#292D32"/>
<path d="M9.71003 17.8405C9.42003 17.8405 9.20005 17.7405 9.07005 17.6405C8.80005 17.4605 8.39004 17.0005 8.65004 15.9705L9.42006 12.8605L8.50004 12.6305C7.57004 12.4005 7.36005 11.8105 7.32005 11.5705C7.28005 11.3305 7.26005 10.7005 8.04005 10.1505L13.22 6.56052C14.09 5.96052 14.66 6.18051 14.93 6.36051C15.2 6.54051 15.61 7.00055 15.35 8.03055L14.58 11.1405L15.5 11.3705C16.43 11.6005 16.64 12.1905 16.68 12.4405C16.72 12.6905 16.74 13.3105 15.96 13.8605L10.78 17.4505C10.35 17.7405 10 17.8405 9.71003 17.8405ZM9.11003 11.2405L10.5101 11.5906C10.9101 11.6906 11.16 12.1005 11.06 12.5005L10.18 16.0406L14.8901 12.7705L13.49 12.4206C13.09 12.3206 12.84 11.9105 12.94 11.5105L13.8201 7.9705L9.11003 11.2405Z" fill="#292D32"/>
</svg>
