<svg width="24" height="24" viewBox="0 0 24 24" fill="none" xmlns="http://www.w3.org/2000/svg">
<path d="M5.00086 21.8689C4.26086 21.8689 3.53086 21.5889 2.97086 21.0289C2.43086 20.4889 2.13086 19.7689 2.13086 18.9989C2.13086 18.2289 2.43086 17.5089 2.97086 16.9689L15.9709 3.96891C17.0909 2.84891 18.9109 2.84891 20.0309 3.96891C20.5709 4.50891 20.8709 5.22891 20.8709 5.99891C20.8709 6.76891 20.5709 7.48891 20.0309 8.02891L7.03086 21.0289C6.47086 21.5889 5.74086 21.8689 5.00086 21.8689ZM18.0009 4.62891C17.6509 4.62891 17.3009 4.75891 17.0309 5.02891L4.03086 18.0289C3.77086 18.2889 3.63086 18.6289 3.63086 18.9989C3.63086 19.3689 3.77086 19.7089 4.03086 19.9689C4.56086 20.4989 5.44086 20.4989 5.97086 19.9689L18.9709 6.96891C19.2309 6.70891 19.3709 6.36891 19.3709 5.99891C19.3709 5.62891 19.2309 5.28891 18.9709 5.02891C18.7009 4.75891 18.3509 4.62891 18.0009 4.62891Z" fill="#292D32"/>
<path d="M18.0092 9.73969C17.8192 9.73969 17.6292 9.66969 17.4792 9.51969L14.4792 6.51969C14.1892 6.22969 14.1892 5.74969 14.4792 5.45969C14.7692 5.16969 15.2492 5.16969 15.5392 5.45969L18.5392 8.45969C18.8292 8.74969 18.8292 9.22969 18.5392 9.51969C18.3892 9.66969 18.1992 9.73969 18.0092 9.73969Z" fill="#292D32"/>
<path d="M9.99907 5.49907C9.94907 5.49907 9.90907 5.48907 9.85907 5.47907L8.49907 5.07907L7.13907 5.47907C6.95907 5.52907 6.76907 5.47907 6.64907 5.34907C6.51907 5.21907 6.46907 5.03908 6.51907 4.85908L6.91907 3.49907L6.51907 2.13907C6.46907 1.95907 6.51907 1.76907 6.64907 1.64907C6.77907 1.51907 6.96907 1.46907 7.13907 1.51907L8.49907 1.91907L9.85907 1.51907C10.0391 1.46907 10.2191 1.51907 10.3491 1.64907C10.4791 1.77907 10.5291 1.96907 10.4791 2.13907L10.0791 3.49907L10.4791 4.85908C10.5291 5.03908 10.4791 5.22907 10.3491 5.34907C10.2591 5.44907 10.1291 5.49907 9.99907 5.49907ZM8.49907 4.05907C8.54907 4.05907 8.58908 4.06907 8.63908 4.07907L9.25908 4.25908L9.07907 3.63908C9.04907 3.54908 9.04907 3.44907 9.07907 3.35907L9.25908 2.73907L8.63908 2.91907C8.54908 2.94907 8.44907 2.94907 8.35907 2.91907L7.73907 2.73907L7.91907 3.35907C7.94907 3.44907 7.94907 3.54908 7.91907 3.63908L7.73907 4.25908L8.35907 4.07907C8.40907 4.06907 8.44907 4.05907 8.49907 4.05907Z" fill="#292D32"/>
<path d="M5.99907 11.4991C5.94907 11.4991 5.90908 11.4891 5.85908 11.4791L4.49907 11.0791L3.13907 11.4791C2.95907 11.5291 2.77907 11.4791 2.64907 11.3491C2.51907 11.2191 2.46907 11.0291 2.51907 10.8591L2.91907 9.49907L2.51907 8.13908C2.46907 7.95908 2.51907 7.76907 2.64907 7.64907C2.77907 7.52907 2.96907 7.46907 3.13907 7.51907L4.49907 7.91907L5.85908 7.51907C6.02908 7.46907 6.21907 7.51907 6.34907 7.64907C6.47907 7.77907 6.52907 7.96908 6.47907 8.13908L6.07907 9.49907L6.47907 10.8591C6.52907 11.0391 6.47907 11.2291 6.34907 11.3491C6.25907 11.4491 6.12907 11.4991 5.99907 11.4991ZM4.49907 10.0591C4.54907 10.0591 4.58907 10.0691 4.63907 10.0791L5.25908 10.2591L5.07907 9.63908C5.04907 9.54908 5.04907 9.44907 5.07907 9.35907L5.25908 8.73907L4.63907 8.91907C4.54907 8.94907 4.44907 8.94907 4.35907 8.91907L3.73907 8.73907L3.91907 9.35907C3.94907 9.44907 3.94907 9.54908 3.91907 9.63908L3.73907 10.2591L4.35907 10.0791C4.40907 10.0691 4.44907 10.0591 4.49907 10.0591Z" fill="#292D32"/>
<path d="M20.9991 16.4991C20.9491 16.4991 20.9091 16.4891 20.8591 16.4791L19.4991 16.0791L18.1391 16.4791C17.9591 16.5291 17.7791 16.4791 17.6491 16.3491C17.5191 16.2191 17.4691 16.0291 17.5191 15.8591L17.9191 14.4991L17.5191 13.1391C17.4691 12.9591 17.5191 12.7691 17.6491 12.6491C17.7791 12.5291 17.9691 12.4691 18.1391 12.5191L19.4991 12.9191L20.8591 12.5191C21.0291 12.4691 21.2191 12.5191 21.3491 12.6491C21.4791 12.7791 21.5291 12.9691 21.4791 13.1391L21.0791 14.4991L21.4791 15.8591C21.5291 16.0391 21.4791 16.2291 21.3491 16.3491C21.2591 16.4491 21.1291 16.4991 20.9991 16.4991ZM19.4991 15.0591C19.5491 15.0591 19.5891 15.0691 19.6391 15.0791L20.2591 15.2591L20.0791 14.6391C20.0491 14.5491 20.0491 14.4491 20.0791 14.3591L20.2591 13.7391L19.6391 13.9191C19.5491 13.9491 19.4491 13.9491 19.3591 13.9191L18.7391 13.7391L18.9191 14.3591C18.9491 14.4491 18.9491 14.5491 18.9191 14.6391L18.7391 15.2591L19.3591 15.0791C19.4091 15.0691 19.4491 15.0591 19.4991 15.0591Z" fill="#292D32"/>
</svg>
