<svg width="24" height="24" viewBox="0 0 24 24" fill="none" xmlns="http://www.w3.org/2000/svg">
<path d="M15.9007 8.07C15.4507 4.64 12.5207 2 8.9707 2C5.1007 2 1.9707 5.13 1.9707 9C1.9707 12.55 4.6107 15.48 8.0407 15.93C8.3407 15.98 8.6507 16 8.9707 16C9.08708 16 9.20194 15.997 9.31589 15.991C9.53626 15.9793 9.62675 15.716 9.4707 15.56C9.1807 15.26 9.1807 14.79 9.4707 14.5C9.7607 14.2 10.2407 14.2 10.5307 14.5L11.3102 15.2795C11.4503 15.4196 11.6606 15.4653 11.8416 15.3847C12.2241 15.2145 12.5859 15.0103 12.9271 14.7743C13.1713 14.6053 13.1868 14.2581 12.9756 14.0493L12.4707 13.55C12.1807 13.26 12.1707 12.79 12.4707 12.49C12.7607 12.2 13.2307 12.19 13.5307 12.48L14.0393 12.9829C14.2491 13.1904 14.5936 13.1728 14.7616 12.9302C14.9924 12.5969 15.1932 12.2431 15.3582 11.869C15.4376 11.689 15.3913 11.4806 15.2522 11.3415L14.4707 10.56C14.1807 10.26 14.1807 9.79 14.4707 9.5C14.7607 9.2 15.2407 9.2 15.5307 9.5C15.6867 9.65604 15.95 9.56556 15.9617 9.34519C15.9677 9.23124 15.9707 9.11637 15.9707 9C15.9707 8.68 15.9507 8.37 15.9007 8.07Z" fill="#292D32"/>
<path d="M21.9698 14.9991C21.9698 18.8691 18.8398 21.9991 14.9698 21.9991C12.0396 21.9991 9.52548 20.1991 8.49135 17.6319C8.36614 17.321 8.63465 16.9991 8.96977 16.9991C9.31977 16.9991 9.64977 16.9791 9.98977 16.9291L10.4948 16.8617C10.6492 16.8411 10.8044 16.8937 10.9145 17.0038L11.4398 17.5291C11.5898 17.6791 11.7798 17.7491 11.9698 17.7491C12.1698 17.7491 12.3598 17.6791 12.4998 17.5291C12.7998 17.2391 12.7998 16.7591 12.4998 16.4691C12.4034 16.3727 12.4337 16.2094 12.5556 16.1486C12.9546 15.9498 13.3634 15.6963 13.7314 15.4229C13.9392 15.2685 14.2309 15.2784 14.4151 15.4603L14.8998 15.9391C15.0498 16.0791 15.2398 16.1591 15.4298 16.1591C15.6198 16.1591 15.8198 16.0791 15.9598 15.9291C16.2498 15.6391 16.2498 15.1591 15.9498 14.8691L15.4717 14.397C15.2889 14.2165 15.2738 13.9276 15.4251 13.7201C15.6885 13.3588 15.9359 12.9657 16.1326 12.5808C16.1918 12.4649 16.3477 12.437 16.4398 12.5291C16.5898 12.6791 16.7798 12.7491 16.9698 12.7491C17.1698 12.7491 17.3598 12.6791 17.4998 12.5291C17.7998 12.2391 17.7998 11.7591 17.4998 11.4691L16.9745 10.9438C16.8644 10.8337 16.8118 10.6785 16.8324 10.5241L16.8998 10.0191C16.9498 9.67906 16.9698 9.34906 16.9698 8.99906C16.9698 8.6641 17.2917 8.39584 17.6023 8.52135C20.1621 9.55592 21.9698 12.0696 21.9698 14.9991Z" fill="#292D32"/>
</svg>
