<svg width="24" height="24" viewBox="0 0 24 24" fill="none" xmlns="http://www.w3.org/2000/svg">
<path d="M11.25 18.2509H9C7.9 18.2509 7 19.1509 7 20.2509V20.5009H6C5.59 20.5009 5.25 20.8409 5.25 21.2509C5.25 21.6609 5.59 22.0009 6 22.0009H18C18.41 22.0009 18.75 21.6609 18.75 21.2509C18.75 20.8409 18.41 20.5009 18 20.5009H17V20.2509C17 19.1509 16.1 18.2509 15 18.2509H12.75V15.9609C12.5 15.9909 12.25 16.0009 12 16.0009C11.75 16.0009 11.5 15.9909 11.25 15.9609V18.2509Z" fill="#292D32"/>
<path d="M18.4793 11.64C19.1393 11.39 19.7193 10.98 20.1793 10.52C21.1093 9.49 21.7193 8.26 21.7193 6.82C21.7193 5.38 20.5893 4.25 19.1493 4.25H18.5893C17.9393 2.92 16.5793 2 14.9993 2H8.9993C7.4193 2 6.0593 2.92 5.4093 4.25H4.8493C3.4093 4.25 2.2793 5.38 2.2793 6.82C2.2793 8.26 2.8893 9.49 3.8193 10.52C4.2793 10.98 4.8593 11.39 5.5193 11.64C6.5593 14.2 9.0593 16 11.9993 16C14.9393 16 17.4393 14.2 18.4793 11.64ZM14.8393 8.45L14.2193 9.21C14.1193 9.32 14.0493 9.54 14.0593 9.69L14.1193 10.67C14.1593 11.27 13.7293 11.58 13.1693 11.36L12.2593 11C12.1193 10.95 11.8793 10.95 11.7393 11L10.8293 11.36C10.2693 11.58 9.8393 11.27 9.8793 10.67L9.9393 9.69C9.9493 9.54 9.8793 9.32 9.7793 9.21L9.1593 8.45C8.7693 7.99 8.9393 7.48 9.5193 7.33L10.4693 7.09C10.6193 7.05 10.7993 6.91 10.8793 6.78L11.4093 5.96C11.7393 5.45 12.2593 5.45 12.5893 5.96L13.1193 6.78C13.1993 6.91 13.3793 7.05 13.5293 7.09L14.4793 7.33C15.0593 7.48 15.2293 7.99 14.8393 8.45Z" fill="#292D32"/>
</svg>
