<svg width="24" height="24" viewBox="0 0 24 24" fill="none" xmlns="http://www.w3.org/2000/svg">
<path d="M20.6009 4.10156V6.30156C20.6009 7.10156 20.1009 8.10156 19.6009 8.60156L15.3009 12.4016C14.7009 12.9016 14.3009 13.9016 14.3009 14.7016V19.0016C14.3009 19.6016 13.9009 20.4016 13.4009 20.7016L12.0009 21.6016C10.7009 22.4016 8.90086 21.5016 8.90086 19.9016V14.6016C8.90086 13.9016 8.50086 13.0016 8.10086 12.5016L7.63086 12.0116C7.32086 11.6816 7.26086 11.1816 7.51086 10.7916L12.6309 2.57156C12.8109 2.28156 13.1309 2.10156 13.4809 2.10156H18.6009C19.7009 2.10156 20.6009 3.00156 20.6009 4.10156Z" fill="#292D32"/>
<path d="M10.3504 3.63156L6.80039 9.32156C6.46039 9.87156 5.68039 9.95156 5.23039 9.48156L4.30039 8.50156C3.80039 8.00156 3.40039 7.10156 3.40039 6.50156V4.20156C3.40039 3.00156 4.30039 2.10156 5.40039 2.10156H9.50039C10.2804 2.10156 10.7604 2.96156 10.3504 3.63156Z" fill="#292D32"/>
</svg>
