<svg width="24" height="24" viewBox="0 0 24 24" fill="none" xmlns="http://www.w3.org/2000/svg">
<path d="M17.7098 2H16.7598C16.3698 2 16.0498 2.32 16.0498 2.71C16.0498 3.11 16.3698 3.43 16.7598 3.43H17.7098C19.4198 3.43 20.8098 4.82 20.8098 6.52V12.4C20.4498 12.21 20.0498 12.11 19.6198 12.11H15.8098C14.3698 12.11 13.1898 13.28 13.1898 14.73V16.29H10.8098V14.73C10.8098 13.28 9.62977 12.11 8.18976 12.11H4.37977C3.94977 12.11 3.54977 12.21 3.18977 12.4V6.52C3.18977 4.82 4.57977 3.43 6.28977 3.43H7.23977C7.62977 3.43 7.94977 3.11 7.94977 2.71C7.94977 2.32 7.62977 2 7.23977 2H6.28977C3.78977 2 1.75977 4.03 1.75977 6.52V14.73V19.38C1.75977 20.83 2.93977 22 4.37977 22H8.18976C9.62977 22 10.8098 20.83 10.8098 19.38V17.71H13.1898V19.38C13.1898 20.83 14.3698 22 15.8098 22H19.6198C21.0598 22 22.2398 20.83 22.2398 19.38V14.73V6.52C22.2398 4.03 20.2098 2 17.7098 2Z" fill="#292D32"/>
</svg>
