<svg width="24" height="24" viewBox="0 0 24 24" fill="none" xmlns="http://www.w3.org/2000/svg">
<path d="M20.0402 6.82165L14.2802 2.79165C12.7102 1.69165 10.3002 1.75165 8.79023 2.92165L3.78023 6.83165C2.78023 7.61165 1.99023 9.21165 1.99023 10.4716V17.3716C1.99023 19.9216 4.06023 22.0016 6.61023 22.0016H17.3902C19.9402 22.0016 22.0102 19.9316 22.0102 17.3816V10.6016C22.0102 9.25165 21.1402 7.59165 20.0402 6.82165ZM16.8802 13.4016C16.8802 13.7916 16.5702 14.1016 16.1802 14.1016C15.7902 14.1016 15.4802 13.7916 15.4802 13.4016V13.2216L12.7602 15.9416C12.6102 16.0916 12.4102 16.1616 12.2002 16.1416C12.0002 16.1216 11.8102 16.0016 11.7002 15.8316L10.6802 14.3116L8.30023 16.6916C8.16023 16.8316 7.99023 16.8916 7.81023 16.8916C7.63023 16.8916 7.45023 16.8216 7.32023 16.6916C7.05023 16.4216 7.05023 15.9816 7.32023 15.7016L10.3002 12.7216C10.4502 12.5716 10.6502 12.5016 10.8602 12.5216C11.0702 12.5416 11.2602 12.6516 11.3702 12.8316L12.3902 14.3516L14.5002 12.2416H14.3202C13.9302 12.2416 13.6202 11.9316 13.6202 11.5416C13.6202 11.1516 13.9302 10.8416 14.3202 10.8416H16.1802C16.2702 10.8416 16.3602 10.8616 16.4502 10.8916C16.6202 10.9616 16.7602 11.1016 16.8302 11.2716C16.8702 11.3616 16.8802 11.4516 16.8802 11.5416V13.4016Z" fill="#292D32"/>
</svg>
