<svg width="24" height="24" viewBox="0 0 24 24" fill="none" xmlns="http://www.w3.org/2000/svg">
<path d="M19.7887 4.22031C16.8287 1.27031 12.0287 1.27031 9.08868 4.22031C7.01868 6.27031 6.39868 9.22031 7.19868 11.8203L2.49868 16.5203C2.16868 16.8603 1.93868 17.5303 2.00868 18.0103L2.30868 20.1903C2.41868 20.9103 3.08868 21.5903 3.80868 21.6903L5.98868 21.9903C6.46868 22.0603 7.13868 21.8403 7.47868 21.4903L8.29868 20.6703C8.49868 20.4803 8.49868 20.1603 8.29868 19.9603L6.35868 18.0203C6.06868 17.7303 6.06868 17.2503 6.35868 16.9603C6.64868 16.6703 7.12868 16.6703 7.41868 16.9603L9.36868 18.9103C9.55868 19.1003 9.87868 19.1003 10.0687 18.9103L12.1887 16.8003C14.7787 17.6103 17.7287 16.9803 19.7887 14.9303C22.7387 11.9803 22.7387 7.17031 19.7887 4.22031ZM14.4987 12.0003C13.1187 12.0003 11.9987 10.8803 11.9987 9.50031C11.9987 8.12031 13.1187 7.00031 14.4987 7.00031C15.8787 7.00031 16.9987 8.12031 16.9987 9.50031C16.9987 10.8803 15.8787 12.0003 14.4987 12.0003Z" fill="#292D32"/>
</svg>
