<svg width="24" height="24" viewBox="0 0 24 24" fill="none" xmlns="http://www.w3.org/2000/svg">
<path d="M15.2592 21.9984C15.1992 21.9984 15.1292 21.9884 15.0692 21.9684C13.0592 21.3984 10.9492 21.3984 8.93918 21.9684C8.56918 22.0684 8.17918 21.8584 8.07918 21.4884C7.96918 21.1184 8.18918 20.7284 8.55918 20.6284C10.8192 19.9884 13.1992 19.9884 15.4592 20.6284C15.8292 20.7384 16.0492 21.1184 15.9392 21.4884C15.8392 21.7984 15.5592 21.9984 15.2592 21.9984Z" fill="#292D32"/>
<path d="M19.2107 6.36148C18.1707 4.26148 16.1607 2.71148 13.8307 2.20148C11.3907 1.66148 8.8907 2.24148 6.9807 3.78148C5.0607 5.31148 3.9707 7.60148 3.9707 10.0515C3.9707 12.6415 5.5207 15.3515 7.8607 16.9215V17.7515C7.8507 18.0315 7.8407 18.4615 8.1807 18.8115C8.5307 19.1715 9.0507 19.2115 9.4607 19.2115H14.5907C15.1307 19.2115 15.5407 19.0615 15.8207 18.7815C16.2007 18.3915 16.1907 17.8915 16.1807 17.6215V16.9215C19.2807 14.8315 21.2307 10.4215 19.2107 6.36148ZM13.7207 11.6215L12.6507 13.4815C12.5107 13.7215 12.2607 13.8615 12.0007 13.8615C11.8707 13.8615 11.7407 13.8315 11.6307 13.7615C11.2707 13.5515 11.1507 13.0915 11.3507 12.7415L12.2007 11.2615H11.3607C10.8607 11.2615 10.4507 11.0415 10.2307 10.6715C10.0107 10.2915 10.0307 9.83148 10.2807 9.39148L11.3507 7.53148C11.5607 7.17148 12.0207 7.05148 12.3707 7.25148C12.7307 7.46148 12.8507 7.92148 12.6507 8.27148L11.8007 9.75148H12.6407C13.1407 9.75148 13.5507 9.97148 13.7707 10.3415C13.9907 10.7215 13.9707 11.1915 13.7207 11.6215Z" fill="#292D32"/>
</svg>
