<svg width="24" height="24" viewBox="0 0 24 24" fill="none" xmlns="http://www.w3.org/2000/svg">
<path d="M15.7007 4.34909L6.4007 13.6491C5.9307 14.1191 5.1107 14.0191 4.8107 13.4191C4.2707 12.3491 3.9707 11.1791 3.9707 10.0491C3.9707 7.59909 5.0607 5.30909 6.9707 3.76909C8.8807 2.22909 11.3807 1.65909 13.8307 2.19909C14.3707 2.31909 14.9007 2.48909 15.4007 2.71909C16.0407 3.00909 16.2007 3.84909 15.7007 4.34909Z" fill="#292D32"/>
<path d="M15.4494 20.6284C13.1894 19.9884 10.8094 19.9884 8.54941 20.6284C8.17941 20.7384 7.95941 21.1184 8.06941 21.4884C8.17941 21.8584 8.55941 22.0684 8.92941 21.9684C10.9394 21.3984 13.0494 21.3984 15.0594 21.9684C15.1194 21.9884 15.1894 21.9984 15.2494 21.9984C15.5494 21.9984 15.8294 21.7984 15.9194 21.4884C16.0294 21.1184 15.8194 20.7384 15.4494 20.6284Z" fill="#292D32"/>
<path d="M20.5591 1.95188C20.2691 1.66188 19.7891 1.66188 19.4991 1.95188L3.64914 17.8019C3.35914 18.0919 3.35914 18.5719 3.64914 18.8619C3.79914 19.0119 3.98914 19.0819 4.17914 19.0819C4.36914 19.0819 4.55914 19.0119 4.70914 18.8619L7.16914 16.4019C7.38914 16.5819 7.61914 16.7619 7.85914 16.9219V17.7519C7.84914 18.0319 7.83914 18.4619 8.16914 18.8119C8.51914 19.1619 9.03914 19.2119 9.44914 19.2119H14.5791C15.1191 19.2119 15.5291 19.0619 15.8091 18.7819C16.1991 18.3819 16.1791 17.8819 16.1691 17.6219V16.9219C19.2791 14.8319 21.2291 10.4219 19.2091 6.36188C18.9891 5.93188 18.7191 5.52187 18.4191 5.14187L20.5491 3.01187C20.8491 2.72187 20.8491 2.24187 20.5591 1.95188Z" fill="#292D32"/>
</svg>
