<svg width="24" height="24" viewBox="0 0 24 24" fill="none" xmlns="http://www.w3.org/2000/svg">
<path d="M20.95 4.13C20.66 3.71 20.29 3.34 19.87 3.05C18.92 2.36 17.68 2 16.19 2H7.81C7.61 2 7.41 2.01 7.22 2.03C3.94 2.24 2 4.37 2 7.81V16.19C2 17.68 2.36 18.92 3.05 19.87C3.34 20.29 3.71 20.66 4.13 20.95C4.95 21.55 5.99 21.9 7.22 21.98C7.41 21.99 7.61 22 7.81 22H16.19C19.83 22 22 19.83 22 16.19V7.81C22 6.32 21.64 5.08 20.95 4.13ZM18.75 10C18.75 10.41 18.41 10.75 18 10.75C17.59 10.75 17.25 10.41 17.25 10V7.81L13.06 12L17.25 16.19V14C17.25 13.59 17.59 13.25 18 13.25C18.41 13.25 18.75 13.59 18.75 14V18C18.75 18.1 18.73 18.19 18.69 18.29C18.61 18.47 18.47 18.62 18.28 18.7C18.19 18.74 18.09 18.76 17.99 18.76H13.99C13.58 18.76 13.24 18.42 13.24 18.01C13.24 17.6 13.58 17.26 13.99 17.26H16.18L12 13.06L7.81 17.25H10C10.41 17.25 10.75 17.59 10.75 18C10.75 18.41 10.41 18.75 10 18.75H6C5.9 18.75 5.8 18.73 5.71 18.69C5.53 18.61 5.38 18.47 5.3 18.28C5.27 18.19 5.25 18.1 5.25 18V14C5.25 13.59 5.59 13.25 6 13.25C6.41 13.25 6.75 13.59 6.75 14V16.19L10.94 12L6.75 7.81V10C6.75 10.41 6.41 10.75 6 10.75C5.59 10.75 5.25 10.41 5.25 10V6C5.25 5.9 5.27 5.81 5.31 5.71C5.39 5.53 5.53 5.38 5.72 5.3C5.81 5.27 5.9 5.25 6 5.25H10C10.41 5.25 10.75 5.59 10.75 6C10.75 6.41 10.41 6.75 10 6.75H7.81L12 10.94L16.19 6.75H14C13.59 6.75 13.25 6.41 13.25 6C13.25 5.59 13.59 5.25 14 5.25H18C18.1 5.25 18.19 5.27 18.29 5.31C18.47 5.39 18.62 5.53 18.7 5.72C18.73 5.81 18.75 5.9 18.75 6V10Z" fill="#292D32"/>
</svg>
