<svg width="24" height="24" viewBox="0 0 24 24" fill="none" xmlns="http://www.w3.org/2000/svg">
<path d="M10.25 10.03C10.25 10.57 10.4 10.65 10.74 10.77L11.25 10.95V9.25H10.95C10.57 9.25 10.25 9.6 10.25 10.03Z" fill="#292D32"/>
<path d="M12.75 14.7508H13.05C13.44 14.7508 13.75 14.4008 13.75 13.9708C13.75 13.4308 13.6 13.3508 13.26 13.2308L12.75 13.0508V14.7508Z" fill="#292D32"/>
<path d="M19.58 5.48L17.53 7.53C17.38 7.68 17.19 7.75 17 7.75C16.81 7.75 16.62 7.68 16.47 7.53C16.18 7.24 16.18 6.76 16.47 6.47L18.52 4.42C16.76 2.92 14.49 2 12 2C6.48 2 2 6.48 2 12C2 17.52 6.48 22 12 22C17.52 22 22 17.52 22 12C22 9.51 21.08 7.24 19.58 5.48ZM13.75 11.82C14.39 12.05 15.25 12.51 15.25 13.98C15.25 15.23 14.26 16.26 13.05 16.26H12.75V16.51C12.75 16.92 12.41 17.26 12 17.26C11.59 17.26 11.25 16.92 11.25 16.51V16.26H11.17C9.84 16.26 8.75 15.14 8.75 13.76C8.75 13.34 9.09 13 9.5 13C9.91 13 10.25 13.34 10.25 13.75C10.25 14.3 10.66 14.75 11.17 14.75H11.25V12.53L10.25 12.18C9.61 11.95 8.75 11.49 8.75 10.02C8.75 8.77 9.74 7.74 10.95 7.74H11.25V7.5C11.25 7.09 11.59 6.75 12 6.75C12.41 6.75 12.75 7.09 12.75 7.5V7.75H12.83C14.16 7.75 15.25 8.87 15.25 10.25C15.25 10.66 14.91 11 14.5 11C14.09 11 13.75 10.66 13.75 10.25C13.75 9.7 13.34 9.25 12.83 9.25H12.75V11.47L13.75 11.82Z" fill="#292D32"/>
<path d="M22.69 1.71C22.61 1.53 22.47 1.38 22.28 1.3C22.19 1.27 22.1 1.25 22 1.25H18C17.59 1.25 17.25 1.59 17.25 2C17.25 2.41 17.59 2.75 18 2.75H20.19L18.52 4.42C18.9 4.75 19.25 5.1 19.58 5.48L21.25 3.81V6C21.25 6.41 21.59 6.75 22 6.75C22.41 6.75 22.75 6.41 22.75 6V2C22.75 1.9 22.73 1.81 22.69 1.71Z" fill="#292D32"/>
</svg>
