<svg width="24" height="24" viewBox="0 0 24 24" fill="none" xmlns="http://www.w3.org/2000/svg">
<path d="M20.8894 5.1786V16.4786C20.8894 18.4586 19.2794 20.0686 17.2994 20.0686C15.3294 20.0686 13.7094 18.4586 13.7094 16.4786C13.7094 14.5086 15.3294 12.8986 17.2994 12.8986C18.1394 12.8986 18.8894 13.1886 19.4994 13.6686V7.7186L10.2894 10.3386V18.4086C10.2894 20.3886 8.66937 21.9986 6.69937 21.9986C4.71937 21.9986 3.10938 20.3886 3.10938 18.4086C3.10938 16.4386 4.71937 14.8286 6.69937 14.8286C7.52938 14.8286 8.27938 15.1186 8.88938 15.5886V6.7486C8.88938 5.2786 9.77938 4.1386 11.1894 3.7586L16.9694 2.1786C18.1394 1.8586 19.1294 1.9686 19.8294 2.5086C20.5394 3.0386 20.8894 3.9386 20.8894 5.1786Z" fill="#292D32"/>
</svg>
