<svg width="24" height="24" viewBox="0 0 24 24" fill="none" xmlns="http://www.w3.org/2000/svg">
<path d="M2.58158 9.41928C2.50158 9.41928 2.41158 9.40928 2.33158 9.37928C1.94158 9.23928 1.74158 8.80928 1.87158 8.41928C2.54158 6.53928 3.70158 4.88928 5.25158 3.63928C5.57158 3.37928 6.04158 3.42928 6.30158 3.74928C6.56158 4.06928 6.51158 4.53928 6.19158 4.80928C4.87158 5.87928 3.86158 7.29928 3.29158 8.91928C3.18158 9.22928 2.89158 9.41928 2.58158 9.41928Z" fill="#292D32"/>
<path d="M2.58 16.08C2.27 16.08 1.98 15.89 1.87 15.58C1.46 14.42 1.25 13.21 1.25 12C1.25 11.59 1.59 11.25 2 11.25C2.41 11.25 2.75 11.59 2.75 12C2.75 13.04 2.93 14.08 3.29 15.08C3.43 15.47 3.22 15.9 2.83 16.04C2.75 16.07 2.66 16.08 2.58 16.08Z" fill="#292D32"/>
<path d="M11.9986 22.7515C10.9386 22.7515 9.88864 22.5915 8.86864 22.2815C8.46864 22.1615 8.24864 21.7415 8.36864 21.3415C8.48864 20.9415 8.90864 20.7215 9.30864 20.8415C10.1786 21.1115 11.0886 21.2415 11.9986 21.2415C17.0986 21.2415 21.2486 17.0915 21.2486 11.9915C21.2486 11.4715 21.1986 10.9315 21.0986 10.3615C21.0286 9.95151 21.2986 9.56151 21.7086 9.49151C22.1086 9.42151 22.5086 9.69151 22.5786 10.1015C22.6986 10.7615 22.7586 11.3815 22.7586 12.0015C22.7486 17.9315 17.9286 22.7515 11.9986 22.7515Z" fill="#292D32"/>
<path d="M5.71826 20.4981C5.54826 20.4981 5.38826 20.4481 5.24826 20.3281C4.67826 19.8681 4.21826 19.4281 3.82826 18.9781C3.55826 18.6681 3.59826 18.1881 3.90826 17.9181C4.22826 17.6481 4.69826 17.6881 4.96826 17.9981C5.29826 18.3781 5.69826 18.7581 6.18826 19.1581C6.50826 19.4181 6.55826 19.8881 6.29826 20.2081C6.15826 20.3981 5.93826 20.4981 5.71826 20.4981Z" fill="#292D32"/>
<path d="M20.2384 7.09C19.9984 7.09 19.7684 6.98 19.6184 6.76C17.8984 4.25 15.0384 2.75 11.9984 2.75C11.0884 2.75 10.1784 2.88 9.30845 3.15C8.91845 3.27 8.49845 3.05 8.36845 2.65C8.23845 2.25 8.46845 1.83 8.86845 1.71C9.88845 1.41 10.9384 1.25 11.9984 1.25C15.5384 1.25 18.8484 3 20.8584 5.92C21.0884 6.26 21.0084 6.73 20.6684 6.96C20.5384 7.05 20.3884 7.09 20.2384 7.09Z" fill="#292D32"/>
<path d="M16.03 6.49851C15.7 6.24851 15.1 5.99851 14.14 6.25851L10.95 7.11851C10.03 7.37851 9.43 8.15851 9.43 9.11851V10.7585V13.3385C9.17 13.2385 8.89 13.1785 8.59 13.1785C7.3 13.1785 6.25 14.2285 6.25 15.5185C6.25 16.8085 7.3 17.8585 8.59 17.8585C9.87 17.8585 10.9 16.8285 10.92 15.5585C10.92 15.5485 10.93 15.5385 10.93 15.5185V11.3285L15.25 10.1485V12.2785C14.99 12.1785 14.71 12.1185 14.41 12.1185C13.12 12.1185 12.07 13.1685 12.07 14.4585C12.07 15.7485 13.12 16.7985 14.41 16.7985C15.7 16.7985 16.75 15.7485 16.75 14.4585V9.16851V8.24851C16.75 7.44851 16.51 6.85851 16.03 6.49851ZM8.59 16.3585C8.13 16.3585 7.75 15.9785 7.75 15.5185C7.75 15.0585 8.13 14.6785 8.59 14.6785C9.05 14.6785 9.43 15.0585 9.43 15.5185C9.43 15.9785 9.05 16.3585 8.59 16.3585ZM14.41 15.2985C13.95 15.2985 13.57 14.9185 13.57 14.4585C13.57 13.9985 13.95 13.6185 14.41 13.6185C14.87 13.6185 15.25 13.9985 15.25 14.4585C15.25 14.9185 14.87 15.2985 14.41 15.2985Z" fill="#292D32"/>
</svg>
