<svg width="24" height="24" viewBox="0 0 24 24" fill="none" xmlns="http://www.w3.org/2000/svg">
<path d="M18.7089 9.49049C18.6089 9.49049 18.5089 9.47049 18.4089 9.43049C18.0289 9.26049 17.8589 8.82049 18.0189 8.44049C18.2089 8.01049 18.0989 7.38049 17.7489 6.86049C17.3989 6.33049 16.8689 5.97049 16.3889 6.00049C15.9489 6.00049 15.6389 5.67049 15.6289 5.26049C15.6289 4.84049 15.9589 4.51049 16.3689 4.50049C17.3989 4.48049 18.3689 5.07049 18.9989 6.02049C19.6389 6.98049 19.7889 8.13049 19.3989 9.03049C19.2789 9.32049 18.9989 9.49049 18.7089 9.49049Z" fill="#292D32"/>
<path d="M21.8201 10.4794C21.7501 10.4794 21.6901 10.4694 21.6201 10.4494C21.2201 10.3394 20.9901 9.92937 21.1001 9.52937C21.4801 8.16937 21.1601 6.54937 20.2501 5.18937C19.3401 3.82937 17.9601 2.91937 16.5501 2.74937C16.1401 2.69937 15.8501 2.32937 15.9001 1.91937C15.9501 1.50937 16.3301 1.20937 16.7301 1.26937C18.5601 1.48937 20.3401 2.64937 21.4901 4.36937C22.6401 6.08937 23.0301 8.16937 22.5401 9.94937C22.4501 10.2594 22.1501 10.4794 21.8201 10.4794Z" fill="#292D32"/>
<path d="M17.1189 11.7809C17.1189 12.0809 16.8689 12.3309 16.5689 12.3309H3.42891C3.12891 12.3309 2.87891 12.0809 2.87891 11.7809C2.87891 11.4809 3.12891 11.2309 3.42891 11.2309H4.16891L4.44891 9.91094C4.70891 8.63094 5.25891 7.46094 7.43891 7.46094H12.5689C14.7489 7.46094 15.2889 8.64094 15.5589 9.91094L15.8389 11.2309H16.5789C16.8689 11.2309 17.1189 11.4809 17.1189 11.7809Z" fill="#292D32"/>
<path d="M17.4305 15.9119C17.3205 14.7119 17.0005 13.4219 14.6605 13.4219H5.34053C3.00054 13.4219 2.68053 14.7119 2.57053 15.9119L2.16053 20.3619C2.11053 20.9119 2.29053 21.4719 2.67053 21.8919C3.06053 22.3119 3.60053 22.5519 4.19053 22.5519H5.56053C6.74053 22.5519 6.97053 21.8719 7.12053 21.4319L7.27053 20.9919C7.44054 20.4919 7.48054 20.3619 8.14054 20.3619H11.8805C12.5405 20.3619 12.5605 20.4319 12.7505 20.9919L12.9005 21.4319C13.0505 21.8819 13.2705 22.5519 14.4605 22.5519H15.8305C16.4105 22.5519 16.9605 22.3119 17.3505 21.8919C17.7305 21.4719 17.9105 20.9219 17.8605 20.3619L17.4305 15.9119ZM7.81053 17.4319H5.62053C5.32053 17.4319 5.07053 17.1819 5.07053 16.8819C5.07053 16.5819 5.32053 16.3319 5.62053 16.3319H7.81053C8.11054 16.3319 8.36053 16.5819 8.36053 16.8819C8.36053 17.1819 8.11054 17.4319 7.81053 17.4319ZM14.3805 17.4319H12.1905C11.8905 17.4319 11.6405 17.1819 11.6405 16.8819C11.6405 16.5819 11.8905 16.3319 12.1905 16.3319H14.3805C14.6805 16.3319 14.9305 16.5819 14.9305 16.8819C14.9305 17.1819 14.6805 17.4319 14.3805 17.4319Z" fill="#292D32"/>
</svg>
