<svg width="24" height="24" viewBox="0 0 24 24" fill="none" xmlns="http://www.w3.org/2000/svg">
<path d="M16.1693 10.0603H7.82934C6.64934 10.0603 6.23934 9.27031 6.92934 8.31031L11.0993 2.47031C11.5893 1.77031 12.4093 1.77031 12.8993 2.47031L17.0693 8.31031C17.7593 9.27031 17.3493 10.0603 16.1693 10.0603Z" fill="#292D32"/>
<path d="M17.5896 17.9986H6.4096C4.8296 17.9986 4.2896 16.9486 5.2196 15.6686L9.2096 10.0586H14.7896L18.7796 15.6686C19.7096 16.9486 19.1696 17.9986 17.5896 17.9986Z" fill="#292D32"/>
<path d="M12.75 18V22C12.75 22.41 12.41 22.75 12 22.75C11.59 22.75 11.25 22.41 11.25 22V18H12.75Z" fill="#292D32"/>
</svg>
