<svg width="24" height="24" viewBox="0 0 24 24" fill="none" xmlns="http://www.w3.org/2000/svg">
<path opacity="0.4" d="M16.44 3.10156C14.63 3.10156 13.01 3.98154 12 5.33154C10.99 3.98154 9.37 3.10156 7.56 3.10156C4.49 3.10156 2 5.60156 2 8.69156C2 9.88156 2.19 10.9816 2.52 12.0016C4.1 17.0016 8.97 19.9916 11.38 20.8116C11.72 20.9316 12.28 20.9316 12.62 20.8116C15.03 19.9916 19.9 17.0016 21.48 12.0016C21.81 10.9816 22 9.88156 22 8.69156C22 5.60156 19.51 3.10156 16.44 3.10156Z" fill="#292D32"/>
<path d="M21.77 20.6817L21.01 19.9217C21.41 19.3217 21.64 18.6017 21.64 17.8317C21.64 15.7217 19.93 14.0117 17.82 14.0117C15.71 14.0117 14 15.7217 14 17.8317C14 19.9417 15.71 21.6517 17.82 21.6517C18.59 21.6517 19.31 21.4217 19.91 21.0217L20.67 21.7817C20.82 21.9317 21.02 22.0117 21.22 22.0117C21.42 22.0117 21.62 21.9317 21.77 21.7817C22.08 21.4717 22.08 20.9817 21.77 20.6817Z" fill="#292D32"/>
</svg>
