<svg width="24" height="24" viewBox="0 0 24 24" fill="none" xmlns="http://www.w3.org/2000/svg">
<path opacity="0.4" d="M19.86 8.09155C19.86 8.24155 19.86 8.39156 19.85 8.53156C18.32 7.96156 16.52 8.31156 15.32 9.39156C14.51 8.66156 13.46 8.25156 12.34 8.25156C9.88 8.25156 7.88 10.2616 7.88 12.7416C7.88 15.5716 9.3 17.6416 10.66 18.9816C10.55 18.9716 10.46 18.9516 10.38 18.9216C7.79 18.0316 2 14.3516 2 8.09155C2 5.33155 4.21999 3.10156 6.95999 3.10156C8.58999 3.10156 10.03 3.88155 10.93 5.09155C11.84 3.88155 13.28 3.10156 14.9 3.10156C17.64 3.10156 19.86 5.33155 19.86 8.09155Z" fill="#292D32"/>
<path d="M17.9999 9.58984C16.9299 9.58984 15.9599 10.1099 15.3599 10.9099C14.7599 10.1099 13.7999 9.58984 12.7199 9.58984C10.8999 9.58984 9.41992 11.0699 9.41992 12.9099C9.41992 13.6199 9.52992 14.2698 9.72992 14.8698C10.6699 17.8398 13.5599 19.6099 14.9899 20.0999C15.1899 20.1699 15.5199 20.1699 15.7299 20.0999C17.1599 19.6099 20.0499 17.8398 20.9899 14.8698C21.1899 14.2598 21.2999 13.6099 21.2999 12.9099C21.2999 11.0699 19.8199 9.58984 17.9999 9.58984Z" fill="#292D32"/>
</svg>
