<svg width="24" height="24" viewBox="0 0 24 24" fill="none" xmlns="http://www.w3.org/2000/svg">
<path d="M17.2902 4.14096L17.2202 7.93095C17.2102 8.45095 17.5403 9.14096 17.9603 9.45096L20.4403 11.331C22.0303 12.531 21.7703 14.001 19.8703 14.601L16.6403 15.611C16.1003 15.781 15.5303 16.371 15.3903 16.921L14.6203 19.861C14.0103 22.181 12.4902 22.411 11.2302 20.371L9.47024 17.521C9.15024 17.001 8.39024 16.611 7.79024 16.641L4.45028 16.811C2.06028 16.931 1.38027 15.551 2.94027 13.731L4.92025 11.431C5.29025 11.001 5.46024 10.201 5.29024 9.66096L4.28029 6.43095C3.69029 4.53095 4.75028 3.48097 6.64028 4.10097L9.59029 5.07097C10.0903 5.23097 10.8403 5.12096 11.2603 4.81096L14.3403 2.59096C16.0003 1.39096 17.3302 2.09096 17.2902 4.14096Z" fill="#292D32"/>
<path opacity="0.4" d="M21.4403 20.4702L18.4103 17.4402C18.1203 17.1502 17.6403 17.1502 17.3503 17.4402C17.0603 17.7302 17.0603 18.2102 17.3503 18.5002L20.3803 21.5302C20.5303 21.6802 20.7203 21.7502 20.9103 21.7502C21.1003 21.7502 21.2903 21.6802 21.4403 21.5302C21.7303 21.2402 21.7303 20.7602 21.4403 20.4702Z" fill="#292D32"/>
</svg>
