<svg width="24" height="24" viewBox="0 0 24 24" fill="none" xmlns="http://www.w3.org/2000/svg">
<path opacity="0.4" d="M17.4503 17.3018C15.7703 17.3018 14.2202 16.5119 13.2102 15.1219C12.9702 14.7919 13.0402 14.3219 13.3702 14.0719C13.7002 13.8219 14.1703 13.9019 14.4203 14.2319C15.1503 15.2219 16.2503 15.7919 17.4503 15.7919C19.5403 15.7919 21.2502 14.0919 21.2502 11.9919C21.2502 9.89185 19.5503 8.19186 17.4503 8.19186C16.0303 8.19186 14.6902 8.95187 13.9602 10.1619L11.3102 14.5719C10.3102 16.2419 8.48025 17.2719 6.54025 17.2719C3.62025 17.2719 1.24023 14.8919 1.24023 11.9719C1.24023 9.05186 3.62025 6.67188 6.54025 6.67188C8.22025 6.67188 9.77024 7.46187 10.7802 8.85187C11.0202 9.18187 10.9502 9.65186 10.6202 9.90186C10.2802 10.1519 9.82025 10.0719 9.57025 9.74185C8.84025 8.75185 7.74025 8.18185 6.54025 8.18185C4.45025 8.18185 2.74023 9.88187 2.74023 11.9819C2.74023 14.0819 4.44025 15.7819 6.54025 15.7819C7.96025 15.7819 9.30024 15.0219 10.0302 13.8119L12.6802 9.40186C13.6802 7.73186 15.5103 6.70187 17.4503 6.70187C20.3703 6.70187 22.7502 9.08186 22.7502 12.0019C22.7502 14.9219 20.3703 17.3018 17.4503 17.3018Z" fill="#292D32"/>
<path d="M6.5 14C7.60457 14 8.5 13.1046 8.5 12C8.5 10.8954 7.60457 10 6.5 10C5.39543 10 4.5 10.8954 4.5 12C4.5 13.1046 5.39543 14 6.5 14Z" fill="#292D32"/>
<path d="M17.5 14C18.6046 14 19.5 13.1046 19.5 12C19.5 10.8954 18.6046 10 17.5 10C16.3954 10 15.5 10.8954 15.5 12C15.5 13.1046 16.3954 14 17.5 14Z" fill="#292D32"/>
</svg>
