<svg width="24" height="24" viewBox="0 0 24 24" fill="none" xmlns="http://www.w3.org/2000/svg">
<path d="M19.3297 5.68003L13.0597 2.30003C12.3997 1.94003 11.5997 1.94003 10.9397 2.30003L4.66969 5.68003C4.20969 5.93003 3.92969 6.41003 3.92969 6.96003C3.92969 7.50003 4.20969 7.99003 4.66969 8.24003L10.9397 11.62C11.2697 11.8 11.6397 11.89 11.9997 11.89C12.3597 11.89 12.7297 11.8 13.0597 11.62L19.3297 8.24003C19.7897 7.99003 20.0697 7.51003 20.0697 6.96003C20.0697 6.41003 19.7897 5.93003 19.3297 5.68003Z" fill="#292D32"/>
<path opacity="0.4" d="M9.91 12.79L4.07 9.87C3.62 9.65 3.1 9.67 2.68 9.93C2.25 10.2 2 10.65 2 11.15V16.66C2 17.61 2.53 18.47 3.38 18.9L9.21 21.82C9.41 21.92 9.63 21.97 9.85 21.97C10.11 21.97 10.37 21.9 10.6 21.76C11.03 21.5 11.28 21.04 11.28 20.54V15.03C11.29 14.07 10.76 13.21 9.91 12.79Z" fill="#292D32"/>
<path opacity="0.4" d="M21.3207 9.9299C20.8907 9.6699 20.3707 9.6399 19.9307 9.8699L14.1007 12.7899C13.2507 13.2199 12.7207 14.0699 12.7207 15.0299V20.5399C12.7207 21.0399 12.9707 21.4999 13.4007 21.7599C13.6307 21.8999 13.8907 21.9699 14.1507 21.9699C14.3707 21.9699 14.5907 21.9199 14.7907 21.8199L20.6207 18.8999C21.4707 18.4699 22.0007 17.6199 22.0007 16.6599V11.1499C22.0007 10.6499 21.7507 10.1999 21.3207 9.9299Z" fill="#292D32"/>
</svg>
