<svg width="24" height="24" viewBox="0 0 24 24" fill="none" xmlns="http://www.w3.org/2000/svg">
<path d="M21.0891 6.98002C20.2391 6.04002 18.8191 5.57002 16.7591 5.57002H16.5191V5.53002C16.5191 3.85002 16.5191 1.77002 12.7591 1.77002H11.2391C7.47906 1.77002 7.47906 3.86002 7.47906 5.53002V5.58002H7.23906C5.16906 5.58002 3.75906 6.05002 2.90906 6.99002C1.91906 8.09002 1.94906 9.57002 2.04906 10.58L2.05906 10.65L2.15906 11.7C2.16906 11.71 2.18906 11.73 2.20906 11.74C2.53906 11.96 2.87906 12.18 3.23906 12.38C3.37906 12.47 3.52906 12.55 3.67906 12.63C5.38906 13.57 7.26906 14.2 9.17906 14.51C9.26906 15.45 9.67906 16.55 11.8691 16.55C14.0591 16.55 14.4891 15.46 14.5591 14.49C16.5991 14.16 18.5691 13.45 20.3491 12.41C20.4091 12.38 20.4491 12.35 20.4991 12.32C20.9591 12.06 21.3891 11.78 21.8091 11.47C21.8291 11.46 21.8491 11.44 21.8591 11.42L21.8991 11.06L21.9491 10.59C21.9591 10.53 21.9591 10.48 21.9691 10.41C22.0491 9.40002 22.0291 8.02002 21.0891 6.98002ZM13.0891 13.83C13.0891 14.89 13.0891 15.05 11.8591 15.05C10.6291 15.05 10.6291 14.86 10.6291 13.84V12.58H13.0891V13.83ZM8.90906 5.57002V5.53002C8.90906 3.83002 8.90906 3.20002 11.2391 3.20002H12.7591C15.0891 3.20002 15.0891 3.84002 15.0891 5.53002V5.58002H8.90906V5.57002Z" fill="#292D32"/>
<path opacity="0.4" d="M20.5002 12.2999C20.4502 12.3299 20.4002 12.3599 20.3502 12.3899C18.5702 13.4299 16.6002 14.1299 14.5602 14.4699C14.4802 15.4299 14.0602 16.5299 11.8702 16.5299C9.68016 16.5299 9.26016 15.4399 9.18016 14.4899C7.27016 14.1899 5.39016 13.5599 3.68016 12.6099C3.53016 12.5299 3.38016 12.4499 3.24016 12.3599C2.88016 12.1599 2.54016 11.9399 2.21016 11.7199C2.19016 11.7099 2.17016 11.6899 2.16016 11.6799L2.77016 18.1899C2.98016 20.1799 3.80016 22.2299 8.20016 22.2299H15.8202C20.2202 22.2299 21.0402 20.1799 21.2502 18.1799L21.8802 11.3999C21.8702 11.4199 21.8502 11.4399 21.8302 11.4499C21.4002 11.7599 20.9602 12.0499 20.5002 12.2999Z" fill="#292D32"/>
</svg>
