<svg width="24" height="24" viewBox="0 0 24 24" fill="none" xmlns="http://www.w3.org/2000/svg">
<path opacity="0.4" d="M21.74 11.7401C21.13 9.74005 19.61 8.30005 17.7 7.87005C17.14 5.37005 15.6 3.58005 13.42 2.90005C11.04 2.17005 8.28 2.88005 6.55 4.69005C5.02 6.28005 4.52 8.47005 5.11 10.8001C2.98 11.3201 2 13.1801 2 14.8601C2 16.7401 3.23 18.8501 5.97 19.0401H8.5V16.4101C8.5 15.1401 9.26 14.3801 10.53 14.3801H13.47C14.74 14.3801 15.5 15.1401 15.5 16.4101V19.0401H16.31C16.32 19.0401 16.34 19.0401 16.35 19.0401C17.77 19.0401 19.13 18.5101 20.17 17.5601C21.8 16.1401 22.4 13.9101 21.74 11.7401Z" fill="#292D32"/>
<path d="M13.47 14.3899H10.53C9.26 14.3899 8.5 15.1499 8.5 16.4199V19.3599C8.5 20.6299 9.26 21.3899 10.53 21.3899H13.47C14.74 21.3899 15.5 20.6299 15.5 19.3599V16.4199C15.5 15.1499 14.74 14.3899 13.47 14.3899ZM11.71 18.8399L10.47 20.0699C10.38 20.1599 10.26 20.2099 10.15 20.2099C10.02 20.2099 9.91 20.1599 9.82 20.0699C9.64 19.8899 9.64 19.5999 9.82 19.4199L11.05 18.1799C11.24 17.9999 11.53 17.9999 11.71 18.1799C11.89 18.3599 11.89 18.6599 11.71 18.8399ZM11.71 16.3599L10.47 17.5999C10.38 17.6899 10.26 17.7399 10.15 17.7399C10.02 17.7399 9.91 17.6899 9.82 17.5999C9.64 17.4199 9.64 17.1199 9.82 16.9399L11.05 15.7099C11.24 15.5299 11.53 15.5299 11.71 15.7099C11.89 15.8899 11.89 16.1799 11.71 16.3599ZM14.18 18.8399L12.95 20.0699C12.85 20.1599 12.74 20.2099 12.62 20.2099C12.5 20.2099 12.38 20.1599 12.29 20.0699C12.11 19.8899 12.11 19.5999 12.29 19.4199L13.53 18.1799C13.71 17.9999 14 17.9999 14.18 18.1799C14.36 18.3599 14.36 18.6599 14.18 18.8399ZM14.18 16.3599L12.95 17.5999C12.85 17.6899 12.74 17.7399 12.62 17.7399C12.5 17.7399 12.38 17.6899 12.29 17.5999C12.11 17.4199 12.11 17.1199 12.29 16.9399L13.53 15.7099C13.71 15.5299 14 15.5299 14.18 15.7099C14.36 15.8899 14.36 16.1799 14.18 16.3599Z" fill="#292D32"/>
</svg>
