<svg width="24" height="24" viewBox="0 0 24 24" fill="none" xmlns="http://www.w3.org/2000/svg">
<path d="M13.1905 16.29H10.8105V17.71H13.1905V16.29Z" fill="#292D32"/>
<path d="M7.94977 2.71C7.94977 3.11 7.62977 3.43 7.23977 3.43H6.28977C4.57977 3.43 3.18977 4.82 3.18977 6.52V12.4C2.33977 12.83 1.75977 13.71 1.75977 14.73V6.52C1.75977 4.03 3.78977 2 6.28977 2H7.23977C7.62977 2 7.94977 2.32 7.94977 2.71Z" fill="#292D32"/>
<path d="M22.2408 6.52V14.73C22.2408 13.71 21.6608 12.83 20.8108 12.4V6.52C20.8108 4.82 19.4208 3.43 17.7108 3.43H16.7608C16.3708 3.43 16.0508 3.11 16.0508 2.71C16.0508 2.32 16.3708 2 16.7608 2H17.7108C20.2108 2 22.2408 4.03 22.2408 6.52Z" fill="#292D32"/>
<path opacity="0.4" d="M10.8098 14.7301V19.3801C10.8098 20.8301 9.62977 22.0001 8.18976 22.0001H4.37977C2.93977 22.0001 1.75977 20.8301 1.75977 19.3801V14.7301C1.75977 13.7101 2.33977 12.8301 3.18977 12.4001C3.54977 12.2101 3.94977 12.1101 4.37977 12.1101H8.18976C9.62977 12.1101 10.8098 13.2801 10.8098 14.7301Z" fill="#292D32"/>
<path opacity="0.4" d="M22.2395 14.7301V19.3801C22.2395 20.8301 21.0595 22.0001 19.6195 22.0001H15.8095C14.3695 22.0001 13.1895 20.8301 13.1895 19.3801V14.7301C13.1895 13.2801 14.3695 12.1101 15.8095 12.1101H19.6195C20.0495 12.1101 20.4495 12.2101 20.8095 12.4001C21.6595 12.8301 22.2395 13.7101 22.2395 14.7301Z" fill="#292D32"/>
</svg>
