<svg width="24" height="24" viewBox="0 0 24 24" fill="none" xmlns="http://www.w3.org/2000/svg">
<path opacity="0.4" d="M19.2107 6.36001C18.1707 4.26001 16.1607 2.71001 13.8307 2.20001C11.3907 1.66001 8.8907 2.24001 6.9807 3.78001C5.0607 5.31001 3.9707 7.60001 3.9707 10.05C3.9707 12.64 5.5207 15.35 7.8607 16.92V17.75C7.8507 18.03 7.8407 18.46 8.1807 18.81C8.5307 19.17 9.0507 19.21 9.4607 19.21H14.5907C15.1307 19.21 15.5407 19.06 15.8207 18.78C16.2007 18.39 16.1907 17.89 16.1807 17.62V16.92C19.2807 14.83 21.2307 10.42 19.2107 6.36001Z" fill="#292D32"/>
<path d="M15.2592 21.9999C15.1992 21.9999 15.1292 21.9899 15.0692 21.9699C13.0592 21.3999 10.9492 21.3999 8.93918 21.9699C8.56918 22.0699 8.17918 21.8599 8.07918 21.4899C7.96918 21.1199 8.18918 20.7299 8.55918 20.6299C10.8192 19.9899 13.1992 19.9899 15.4592 20.6299C15.8292 20.7399 16.0492 21.1199 15.9392 21.4899C15.8392 21.7999 15.5592 21.9999 15.2592 21.9999Z" fill="#292D32"/>
<path d="M12.0004 13.8499C11.8704 13.8499 11.7404 13.8199 11.6304 13.7499C11.2704 13.5399 11.1504 13.0799 11.3504 12.7299L12.2004 11.2499H11.3604C10.8604 11.2499 10.4504 11.0299 10.2304 10.6599C10.0104 10.2799 10.0304 9.8199 10.2804 9.3799L11.3504 7.5199C11.5604 7.1599 12.0204 7.0399 12.3704 7.2399C12.7304 7.4499 12.8504 7.9099 12.6504 8.2599L11.8004 9.7499H12.6404C13.1404 9.7499 13.5504 9.9699 13.7704 10.3399C13.9904 10.7199 13.9704 11.1799 13.7204 11.6199L12.6504 13.4799C12.5104 13.7199 12.2604 13.8499 12.0004 13.8499Z" fill="#292D32"/>
</svg>
