<svg width="24" height="24" viewBox="0 0 24 24" fill="none" xmlns="http://www.w3.org/2000/svg">
<path opacity="0.4" d="M10.7509 2.45007C11.4409 1.86007 12.5708 1.86007 13.2708 2.45007L14.8509 3.81005C15.1509 4.07005 15.7108 4.28009 16.1108 4.28009H17.8109C18.8709 4.28009 19.7408 5.15008 19.7408 6.21008V7.91003C19.7408 8.30003 19.9508 8.87004 20.2108 9.17004L21.5709 10.7501C22.1609 11.4401 22.1609 12.5701 21.5709 13.2701L20.2108 14.85C19.9508 15.15 19.7408 15.71 19.7408 16.11V17.8101C19.7408 18.8701 18.8709 19.74 17.8109 19.74H16.1108C15.7208 19.74 15.1509 19.9501 14.8509 20.2101L13.2708 21.5701C12.5808 22.1601 11.4509 22.1601 10.7509 21.5701L9.17087 20.2101C8.87087 19.9501 8.31086 19.74 7.91086 19.74H6.18085C5.12085 19.74 4.25086 18.8701 4.25086 17.8101V16.1C4.25086 15.71 4.04087 15.15 3.79087 14.85L2.44086 13.2601C1.86086 12.5701 1.86086 11.4501 2.44086 10.7601L3.79087 9.17004C4.04087 8.87004 4.25086 8.31004 4.25086 7.92004V6.21008C4.25086 5.15008 5.12085 4.28009 6.18085 4.28009H7.91086C8.30086 4.28009 8.87087 4.07005 9.17087 3.81005L10.7509 2.45007Z" fill="#292D32"/>
<path d="M16.5804 11.07C16.3904 10.8 16.0705 10.65 15.6905 10.65H13.7404C13.6104 10.65 13.4905 10.6 13.4105 10.5C13.3305 10.4 13.2905 10.27 13.3105 10.13L13.5504 8.56998C13.6504 8.10998 13.3405 7.57997 12.8805 7.42997C12.4505 7.26997 11.9404 7.48995 11.7404 7.78995L9.80045 10.67V10.31C9.80045 9.60997 9.50047 9.31998 8.76047 9.31998H8.27045C7.53045 9.31998 7.23047 9.60997 7.23047 10.31V15.09C7.23047 15.79 7.53045 16.08 8.27045 16.08H8.76047C9.46047 16.08 9.76047 15.81 9.79047 15.17L11.2605 16.3C11.4605 16.5 11.9105 16.61 12.2305 16.61H14.0804C14.7204 16.61 15.3605 16.13 15.5005 15.54L16.6705 11.98C16.8005 11.66 16.7704 11.33 16.5804 11.07Z" fill="#292D32"/>
</svg>
