<svg width="24" height="24" viewBox="0 0 24 24" fill="none" xmlns="http://www.w3.org/2000/svg">
<path d="M19.0693 14.2401C18.7793 14.5301 18.3193 14.5301 18.0393 14.2401C17.7493 13.9501 17.7493 13.4901 18.0393 13.2101C20.0393 11.2101 20.0393 7.9601 18.0393 5.9701C16.0393 3.9801 12.7893 3.9701 10.7993 5.9701C8.8093 7.9701 8.7993 11.2201 10.7993 13.2101C11.0893 13.5001 11.0893 13.9601 10.7993 14.2401C10.5093 14.5301 10.0493 14.5301 9.7693 14.2401C7.1993 11.6701 7.1993 7.4901 9.7693 4.9301C12.3393 2.3701 16.5193 2.3601 19.0793 4.9301C21.6393 7.5001 21.6393 11.6701 19.0693 14.2401Z" fill="#292D32"/>
<path opacity="0.4" d="M19.0695 4.92994C21.6395 7.49994 21.6395 11.6699 19.0695 14.2399C18.1895 15.1199 17.1095 15.6999 15.9795 15.9799C16.5095 13.8199 15.9295 11.4499 14.2395 9.75994C12.5495 8.06994 10.1795 7.48994 8.01953 8.01994C8.29953 6.88994 8.86953 5.80994 9.75953 4.92994C12.3295 2.35994 16.4995 2.35994 19.0695 4.92994Z" fill="#292D32"/>
<path d="M4.9307 9.75998C5.2207 9.46998 5.68071 9.46998 5.96071 9.75998C6.25071 10.05 6.25071 10.51 5.96071 10.79C3.96071 12.79 3.96071 16.04 5.96071 18.03C7.9607 20.02 11.2107 20.03 13.2007 18.03C15.1907 16.03 15.2007 12.78 13.2007 10.79C12.9107 10.5 12.9107 10.04 13.2007 9.75998C13.4907 9.46998 13.9507 9.46998 14.2307 9.75998C16.8007 12.33 16.8007 16.51 14.2307 19.07C11.6607 21.63 7.48071 21.64 4.92071 19.07C2.36071 16.5 2.3607 12.33 4.9307 9.75998Z" fill="#292D32"/>
<path opacity="0.5" d="M14.2395 9.75988C15.9295 11.4499 16.5095 13.8199 15.9795 15.9799C15.6995 17.1099 15.1195 18.1899 14.2395 19.0699C11.6695 21.6399 7.49945 21.6399 4.92945 19.0699C2.35945 16.4999 2.35945 12.3299 4.92945 9.75988C5.80945 8.86988 6.88945 8.29988 8.01945 8.01988C10.1795 7.48988 12.5495 8.06988 14.2395 9.75988Z" fill="#292D32"/>
</svg>
