<svg width="24" height="24" viewBox="0 0 24 24" fill="none" xmlns="http://www.w3.org/2000/svg">
<path opacity="0.4" d="M2.57962 9.42023C2.49962 9.42023 2.40962 9.41025 2.32962 9.38025C1.93962 9.24025 1.73963 8.81023 1.86963 8.42023C2.53963 6.54023 3.69964 4.89026 5.24964 3.64026C5.56964 3.38026 6.03962 3.43025 6.29962 3.75025C6.55962 4.07025 6.50964 4.54025 6.18964 4.81025C4.85964 5.88025 3.85964 7.30023 3.28964 8.92023C3.17964 9.23023 2.88962 9.42023 2.57962 9.42023Z" fill="#292D32"/>
<path opacity="0.4" d="M2.57999 16.08C2.26999 16.08 1.98 15.89 1.87 15.58C1.46 14.41 1.25 13.21 1.25 12C1.25 11.59 1.59 11.25 2 11.25C2.41 11.25 2.75 11.59 2.75 12C2.75 13.04 2.93001 14.08 3.29001 15.08C3.43001 15.47 3.21999 15.9 2.82999 16.04C2.74999 16.07 2.65999 16.08 2.57999 16.08Z" fill="#292D32"/>
<path opacity="0.4" d="M12.0006 22.7501C10.9406 22.7501 9.89059 22.5901 8.87059 22.2801C8.47059 22.1601 8.25059 21.7401 8.37059 21.3401C8.49059 20.9401 8.9106 20.7201 9.3106 20.8401C10.1806 21.1101 11.0906 21.24 12.0006 21.24C17.1006 21.24 21.2506 17.09 21.2506 11.99C21.2506 11.47 21.2006 10.93 21.1006 10.36C21.0306 9.95004 21.3006 9.56004 21.7106 9.49004C22.1106 9.42004 22.5106 9.69003 22.5806 10.1C22.7006 10.76 22.7606 11.3801 22.7606 12.0001C22.7506 17.9301 17.9306 22.7501 12.0006 22.7501Z" fill="#292D32"/>
<path opacity="0.4" d="M5.72022 20.5001C5.55022 20.5001 5.39022 20.4501 5.25022 20.3301C4.68022 19.8701 4.22021 19.43 3.83021 18.98C3.56021 18.67 3.60022 18.19 3.91022 17.92C4.23022 17.65 4.70022 17.6901 4.97022 18.0001C5.30022 18.3801 5.70022 18.76 6.19022 19.16C6.51022 19.42 6.56021 19.8901 6.30021 20.2101C6.16021 20.4001 5.94022 20.5001 5.72022 20.5001Z" fill="#292D32"/>
<path opacity="0.4" d="M20.2404 7.09003C20.0004 7.09003 19.7704 6.98001 19.6204 6.76001C17.8904 4.24001 15.0404 2.73999 12.0004 2.73999C11.0904 2.73999 10.1804 2.87001 9.3104 3.14001C8.9204 3.26001 8.5004 3.04001 8.3704 2.64001C8.2404 2.24001 8.4704 1.82001 8.8704 1.70001C9.8904 1.39001 10.9404 1.22998 12.0004 1.22998C15.5404 1.22998 18.8504 2.98002 20.8604 5.90002C21.0904 6.24002 21.0104 6.71 20.6704 6.94C20.5404 7.05 20.3904 7.09003 20.2404 7.09003Z" fill="#292D32"/>
<path d="M16.03 6.49996C15.7 6.24996 15.1 5.99997 14.14 6.25997L10.95 7.11996C10.03 7.37996 9.42999 8.15996 9.42999 9.11996V10.76V13.34C9.16999 13.24 8.89 13.18 8.59 13.18C7.3 13.18 6.25 14.23 6.25 15.52C6.25 16.81 7.3 17.86 8.59 17.86C9.87 17.86 10.9 16.83 10.92 15.56C10.92 15.55 10.93 15.54 10.93 15.52V11.33L15.25 10.15V12.28C14.99 12.18 14.71 12.12 14.41 12.12C13.12 12.12 12.07 13.17 12.07 14.46C12.07 15.75 13.12 16.8 14.41 16.8C15.7 16.8 16.75 15.75 16.75 14.46V9.16995V8.24996C16.75 7.44996 16.51 6.85996 16.03 6.49996ZM8.59 16.36C8.13 16.36 7.75 15.98 7.75 15.52C7.75 15.06 8.13 14.68 8.59 14.68C9.05 14.68 9.42999 15.06 9.42999 15.52C9.42999 15.98 9.05 16.36 8.59 16.36ZM14.41 15.3C13.95 15.3 13.57 14.92 13.57 14.46C13.57 14 13.95 13.62 14.41 13.62C14.87 13.62 15.25 14 15.25 14.46C15.25 14.92 14.87 15.3 14.41 15.3Z" fill="#292D32"/>
</svg>
