<svg width="24" height="24" viewBox="0 0 24 24" fill="none" xmlns="http://www.w3.org/2000/svg">
<path opacity="0.4" d="M16.19 2H7.82C4.17 2 2 4.17 2 7.81V16.18C2 19.82 4.17 21.99 7.81 21.99H16.18C19.82 21.99 21.99 19.82 21.99 16.18V7.81C22 4.17 19.83 2 16.19 2Z" fill="#292D32"/>
<path d="M17.3509 9.04979L15.0109 16.5898C14.4509 18.3798 11.9409 18.4098 11.3509 16.6298L10.651 14.5598C10.461 13.9898 10.0109 13.5298 9.44095 13.3498L7.36095 12.6498C5.59095 12.0598 5.62095 9.52979 7.41095 8.98979L14.951 6.63979C16.431 6.18979 17.8209 7.57979 17.3509 9.04979Z" fill="#292D32"/>
</svg>
