<svg width="24" height="24" viewBox="0 0 24 24" fill="none" xmlns="http://www.w3.org/2000/svg">
<path opacity="0.4" d="M22 7.81V16.19C22 19.83 19.83 22 16.19 22H7.81C4.17 22 2 19.83 2 16.19V7.81C2 7.3 2.04 6.81 2.13 6.36C2.64 3.61 4.67 2.01 7.77 2H16.23C19.33 2.01 21.36 3.61 21.87 6.36C21.96 6.81 22 7.3 22 7.81Z" fill="#292D32"/>
<path d="M22 7.81V7.86H2V7.81C2 7.3 2.04 6.81 2.13 6.36H7.77V2H9.27V6.36H14.73V2H16.23V6.36H21.87C21.96 6.81 22 7.3 22 7.81Z" fill="#292D32"/>
<path d="M14.4391 12.7198L12.3591 11.5198C11.5891 11.0798 10.8491 11.0198 10.2691 11.3498C9.68914 11.6798 9.36914 12.3598 9.36914 13.2398V15.6398C9.36914 16.5198 9.68914 17.1998 10.2691 17.5298C10.5191 17.6698 10.7991 17.7398 11.0891 17.7398C11.4891 17.7398 11.9191 17.6098 12.3591 17.3598L14.4391 16.1598C15.2091 15.7198 15.6291 15.0998 15.6291 14.4298C15.6291 13.7598 15.1991 13.1698 14.4391 12.7198Z" fill="#292D32"/>
</svg>
