<svg xmlns="http://www.w3.org/2000/svg" width="15.64" height="20" viewBox="0 0 15.64 20">
  <g id="_51" data-name="51" transform="translate(-4.18 -2)">
    <path id="Vector" d="M14.94.01a.7.7,0,0,0-.7.7V2.29a6.42,6.42,0,1,1-12.84,0V.7A.7.7,0,1,0,0,.7V2.28a7.826,7.826,0,0,0,7.12,7.78v2.13a.7.7,0,0,0,1.4,0V10.06a7.827,7.827,0,0,0,7.12-7.78V.7a.707.707,0,0,0-.7-.69Z" transform="translate(4.18 9.11)" fill="#292d32"/>
    <path id="Vector-2" data-name="Vector" d="M4.42,0A4.421,4.421,0,0,0,0,4.419V9.54a4.42,4.42,0,1,0,8.84,0V4.42A4.421,4.421,0,0,0,4.421,0ZM5.73,6.95a.576.576,0,0,1-.56.43.772.772,0,0,1-.15-.02,2.187,2.187,0,0,0-1.19,0,.58.58,0,0,1-.3-1.12,3.435,3.435,0,0,1,1.8,0A.582.582,0,0,1,5.73,6.95Zm.53-1.94a.58.58,0,0,1-.55.38.693.693,0,0,1-.2-.03,3.144,3.144,0,0,0-2.18,0,.59.59,0,0,1-.75-.35.575.575,0,0,1,.35-.74,4.36,4.36,0,0,1,2.98,0,.579.579,0,0,1,.35.74Z" transform="translate(7.58 2)" fill="#292d32"/>
  </g>
</svg>
