<svg xmlns="http://www.w3.org/2000/svg" width="20.01" height="17.831" viewBox="0 0 20.01 17.831">
  <g id="_65" data-name="65" transform="translate(-1.99 -2.68)">
    <path id="Vector" d="M9.25,2.17V14.06a2.056,2.056,0,0,1-1.76,1.98l-.31.04a25.606,25.606,0,0,0-5.81,1.68A1,1,0,0,1,0,16.83V2.92a1.02,1.02,0,0,1,.54-.89A19.189,19.189,0,0,1,7.02,0h.06A2.168,2.168,0,0,1,9.25,2.17Z" transform="translate(12.75 2.68)" fill="#292d32"/>
    <path id="Vector-2" data-name="Vector" d="M8.72,2.03A19.189,19.189,0,0,0,2.24,0H2.17A2.168,2.168,0,0,0,0,2.17V14.06a2.056,2.056,0,0,0,1.76,1.98l.31.04a25.606,25.606,0,0,1,5.81,1.68,1,1,0,0,0,1.37-.93V2.92a1,1,0,0,0-.53-.89ZM3.01,5.06H5.26a.75.75,0,0,1,0,1.5H3.01a.75.75,0,1,1,0-1.5Zm3,4.5h-3a.75.75,0,0,1,0-1.5h3a.75.75,0,1,1,0,1.5Z" transform="translate(1.99 2.68)" fill="#292d32"/>
  </g>
</svg>
