<svg width="24" height="24" viewBox="0 0 24 24" fill="none" xmlns="http://www.w3.org/2000/svg">
<path d="M9 22H15C20 22 22 20 22 15V9C22 4 20 2 15 2H9C4 2 2 4 2 9V15C2 20 4 22 9 22Z" stroke="#292D32" stroke-width="1.5" stroke-linecap="round" stroke-linejoin="round"/>
<g opacity="0.4">
<path d="M13.67 7.50781C13.17 7.35781 12.62 7.25781 12 7.25781C9.24 7.25781 7 9.49781 7 12.2578C7 15.0178 9.24 17.2578 12 17.2578C14.76 17.2578 17 15.0178 17 12.2578C17 11.2278 16.69 10.2778 16.16 9.47781" stroke="#292D32" stroke-width="1.5" stroke-linecap="round" stroke-linejoin="round"/>
<path d="M14.3788 7.64828L12.7188 5.73828" stroke="#292D32" stroke-width="1.5" stroke-linecap="round" stroke-linejoin="round"/>
<path d="M14.3814 7.64844L12.4414 9.06844" stroke="#292D32" stroke-width="1.5" stroke-linecap="round" stroke-linejoin="round"/>
</g>
</svg>
