<svg width="24" height="24" viewBox="0 0 24 24" fill="none" xmlns="http://www.w3.org/2000/svg">
<path opacity="0.4" d="M17.9516 7.71156L17.8116 7.63156L16.4216 6.83156L13.5516 5.17156C12.6716 4.66156 11.3316 4.66156 10.4516 5.17156L7.58156 6.83156L6.19156 7.64156L6.01156 7.74156C4.22156 8.94156 4.10156 9.16156 4.10156 11.0916V15.7016C4.10156 17.6316 4.22156 17.8516 6.05156 19.0816L10.4516 21.6216C10.8916 21.8816 11.4416 22.0016 12.0016 22.0016C12.5516 22.0016 13.1116 21.8816 13.5516 21.6216L17.9916 19.0516C19.7816 17.8516 19.9016 17.6316 19.9016 15.7016V11.0916C19.9016 9.16156 19.7816 8.94156 17.9516 7.71156Z" fill="#292D32"/>
<path d="M6.19141 7.64L7.58141 6.83L10.3214 5.25L10.4514 5.17C11.3314 4.66 12.6714 4.66 13.5514 5.17L13.6814 5.25L16.4214 6.83L17.8114 7.63V5.49C17.8114 3.24 16.5714 2 14.3214 2H9.67141C7.42141 2 6.19141 3.24 6.19141 5.49V7.64Z" fill="#292D32"/>
<path d="M14.8397 13.3412L14.2197 14.1012C14.1197 14.2112 14.0497 14.4312 14.0597 14.5812L14.1197 15.5613C14.1597 16.1613 13.7297 16.4712 13.1697 16.2512L12.2597 15.8913C12.1197 15.8413 11.8797 15.8413 11.7397 15.8913L10.8297 16.2512C10.2697 16.4712 9.83975 16.1613 9.87975 15.5613L9.93975 14.5812C9.94975 14.4312 9.87975 14.2112 9.77975 14.1012L9.15975 13.3412C8.76975 12.8812 8.93975 12.3712 9.51975 12.2212L10.4697 11.9812C10.6197 11.9412 10.7997 11.8012 10.8797 11.6712L11.4097 10.8512C11.7397 10.3413 12.2597 10.3413 12.5897 10.8512L13.1197 11.6712C13.1997 11.8012 13.3797 11.9412 13.5297 11.9812L14.4797 12.2212C15.0597 12.3712 15.2297 12.8812 14.8397 13.3412Z" fill="#292D32"/>
</svg>
