<svg width="24" height="24" viewBox="0 0 24 24" fill="none" xmlns="http://www.w3.org/2000/svg">
<path opacity="0.4" d="M8 22H16C18.76 22 21 19.76 21 17V7C21 4.24 18.76 2 16 2H8C5.24 2 3 4.24 3 7V17C3 19.76 5.24 22 8 22Z" fill="#292D32"/>
<path d="M15.0011 5.71094H9.00109C7.97109 5.71094 7.12109 6.55094 7.12109 7.59094V8.59094C7.12109 9.62094 7.96109 10.4709 9.00109 10.4709H15.0011C16.0311 10.4709 16.8811 9.63094 16.8811 8.59094V7.59094C16.8811 6.55094 16.0411 5.71094 15.0011 5.71094Z" fill="#292D32"/>
<path d="M8.15844 14.9188C8.01844 14.9188 7.88844 14.8889 7.76844 14.8389C7.64844 14.7889 7.53844 14.7188 7.44844 14.6288C7.25844 14.4388 7.14844 14.1888 7.14844 13.9188C7.14844 13.7888 7.17844 13.6588 7.22844 13.5388C7.27844 13.4088 7.34844 13.3088 7.44844 13.2088C7.67844 12.9788 8.02844 12.8688 8.34844 12.9388C8.40844 12.9488 8.47844 12.9688 8.53844 12.9988C8.59844 13.0188 8.65844 13.0488 8.70844 13.0888C8.76844 13.1188 8.81844 13.1688 8.85844 13.2088C8.94844 13.3088 9.02844 13.4088 9.07844 13.5388C9.12844 13.6588 9.14844 13.7888 9.14844 13.9188C9.14844 14.1888 9.04844 14.4388 8.85844 14.6288C8.66844 14.8188 8.41844 14.9188 8.15844 14.9188Z" fill="#292D32"/>
<path d="M12.1484 14.9211C11.8884 14.9211 11.6384 14.8211 11.4484 14.6311C11.2584 14.4411 11.1484 14.1911 11.1484 13.9211C11.1484 13.6611 11.2584 13.4011 11.4484 13.2111C11.8184 12.8411 12.4884 12.8411 12.8584 13.2111C12.9484 13.3111 13.0284 13.4111 13.0784 13.5411C13.1284 13.6611 13.1484 13.7911 13.1484 13.9211C13.1484 14.1911 13.0484 14.4411 12.8584 14.6311C12.6684 14.8211 12.4184 14.9211 12.1484 14.9211Z" fill="#292D32"/>
<path d="M16.1484 14.9211C15.8884 14.9211 15.6384 14.8211 15.4484 14.6311C15.2584 14.4411 15.1484 14.1911 15.1484 13.9211C15.1484 13.6611 15.2584 13.4011 15.4484 13.2111C15.8184 12.8411 16.4884 12.8411 16.8584 13.2111C17.0484 13.4011 17.1584 13.6611 17.1584 13.9211C17.1584 14.0511 17.1284 14.1811 17.0784 14.3011C17.0284 14.4211 16.9584 14.5311 16.8584 14.6311C16.6684 14.8211 16.4184 14.9211 16.1484 14.9211Z" fill="#292D32"/>
<path d="M8.15844 18.9208C7.88844 18.9208 7.63844 18.8208 7.44844 18.6308C7.25844 18.4408 7.14844 18.1908 7.14844 17.9208C7.14844 17.6608 7.25844 17.4008 7.44844 17.2108C7.53844 17.1208 7.64844 17.0508 7.76844 17.0008C8.01844 16.9008 8.28844 16.9008 8.53844 17.0008C8.59844 17.0208 8.65844 17.0508 8.70844 17.0908C8.76844 17.1208 8.81844 17.1708 8.85844 17.2108C9.04844 17.4008 9.15844 17.6608 9.15844 17.9208C9.15844 18.1908 9.04844 18.4408 8.85844 18.6308C8.66844 18.8208 8.41844 18.9208 8.15844 18.9208Z" fill="#292D32"/>
<path d="M12.1484 18.9202C11.8884 18.9202 11.6384 18.8202 11.4484 18.6302C11.2584 18.4402 11.1484 18.1902 11.1484 17.9202C11.1484 17.8502 11.1584 17.7902 11.1684 17.7202C11.1884 17.6602 11.2084 17.6002 11.2284 17.5402C11.2584 17.4802 11.2884 17.4202 11.3184 17.3602C11.3584 17.3102 11.3984 17.2602 11.4484 17.2102C11.5384 17.1202 11.6484 17.0502 11.7684 17.0002C12.1384 16.8502 12.5784 16.9302 12.8584 17.2102C13.0484 17.4002 13.1484 17.6602 13.1484 17.9202C13.1484 18.1902 13.0484 18.4402 12.8584 18.6302C12.7684 18.7202 12.6584 18.7902 12.5384 18.8402C12.4184 18.8902 12.2884 18.9202 12.1484 18.9202Z" fill="#292D32"/>
<path d="M16.1502 18.9202C16.0202 18.9202 15.8902 18.8902 15.7702 18.8402C15.6502 18.7902 15.5402 18.7202 15.4502 18.6302C15.2602 18.4402 15.1602 18.1902 15.1602 17.9202C15.1602 17.6602 15.2602 17.4002 15.4502 17.2102C15.7202 16.9302 16.1702 16.8502 16.5402 17.0002C16.6602 17.0502 16.7702 17.1202 16.8602 17.2102C17.0502 17.4002 17.1502 17.6602 17.1502 17.9202C17.1502 18.1902 17.0502 18.4402 16.8602 18.6302C16.6702 18.8202 16.4202 18.9202 16.1502 18.9202Z" fill="#292D32"/>
</svg>
