<svg width="24" height="24" viewBox="0 0 24 24" fill="none" xmlns="http://www.w3.org/2000/svg">
<path opacity="0.4" d="M21.6602 10.4385L20.6802 14.6185C19.8402 18.2285 18.1802 19.6885 15.0602 19.3885C14.5602 19.3485 14.0202 19.2585 13.4402 19.1185L11.7602 18.7185C7.59018 17.7285 6.30018 15.6685 7.28018 11.4885L8.26018 7.29854C8.46018 6.44854 8.70018 5.70854 9.00018 5.09854C10.1702 2.67854 12.1602 2.02854 15.5002 2.81854L17.1702 3.20854C21.3602 4.18854 22.6402 6.25854 21.6602 10.4385Z" fill="#292D32"/>
<path d="M15.0584 19.3916C14.4384 19.8116 13.6584 20.1616 12.7084 20.4716L11.1284 20.9916C7.15839 22.2716 5.06839 21.2016 3.77839 17.2316L2.49839 13.2816C1.21839 9.31156 2.27839 7.21156 6.24839 5.93156L7.82839 5.41156C8.23839 5.28156 8.62839 5.17156 8.99839 5.10156C8.69839 5.71156 8.45839 6.45156 8.25839 7.30156L7.27839 11.4916C6.29839 15.6716 7.58839 17.7316 11.7584 18.7216L13.4384 19.1216C14.0184 19.2616 14.5584 19.3516 15.0584 19.3916Z" fill="#292D32"/>
<path d="M17.4894 10.5117C17.4294 10.5117 17.3694 10.5017 17.2994 10.4917L12.4494 9.26173C12.0494 9.16173 11.8094 8.75173 11.9094 8.35173C12.0094 7.95173 12.4194 7.71173 12.8194 7.81173L17.6694 9.04173C18.0694 9.14173 18.3094 9.55173 18.2094 9.95173C18.1294 10.2817 17.8194 10.5117 17.4894 10.5117Z" fill="#292D32"/>
<path d="M14.5611 13.8889C14.5011 13.8889 14.4411 13.8789 14.3711 13.8689L11.4611 13.1289C11.0611 13.0289 10.8211 12.6189 10.9211 12.2189C11.0211 11.8189 11.4311 11.5789 11.8311 11.6789L14.7411 12.4189C15.1411 12.5189 15.3811 12.9289 15.2811 13.3289C15.2011 13.6689 14.9011 13.8889 14.5611 13.8889Z" fill="#292D32"/>
</svg>
