<svg width="24" height="24" viewBox="0 0 24 24" fill="none" xmlns="http://www.w3.org/2000/svg">
<path d="M15 22.75H9C3.57 22.75 1.25 20.43 1.25 15V9C1.25 3.57 3.57 1.25 9 1.25H15C20.43 1.25 22.75 3.57 22.75 9V15C22.75 20.43 20.43 22.75 15 22.75ZM9 2.75C4.39 2.75 2.75 4.39 2.75 9V15C2.75 19.61 4.39 21.25 9 21.25H15C19.61 21.25 21.25 19.61 21.25 15V9C21.25 4.39 19.61 2.75 15 2.75H9Z" fill="#292D32"/>
<path d="M12.0011 18.9491C11.7611 18.9491 11.5211 18.8891 11.3211 18.7791C10.1611 18.1491 8.11111 17.4691 6.82111 17.2991L6.6311 17.2691C5.6511 17.1491 4.87109 16.2691 4.87109 15.2591V7.55911C4.87109 6.98911 5.11112 6.43911 5.52112 6.05911C5.94112 5.67911 6.4811 5.48912 7.0611 5.53912C8.5211 5.65912 10.6411 6.35913 11.8911 7.13913L11.9911 7.19912L12.0311 7.16913C13.2911 6.37913 15.4111 5.66912 16.8811 5.53912C16.9011 5.53912 16.9611 5.53912 16.9811 5.53912C17.5011 5.48912 18.0611 5.68911 18.4711 6.05911C18.8911 6.43911 19.1211 6.9691 19.1211 7.5491V15.2391C19.1211 16.2391 18.3411 17.1191 17.3511 17.2491L17.1411 17.2791C15.8611 17.4491 13.8011 18.1291 12.6611 18.7591C12.4711 18.8991 12.2411 18.9491 12.0011 18.9491ZM6.89111 7.0491C6.75111 7.0491 6.63108 7.0991 6.54108 7.1791C6.43108 7.2791 6.3811 7.41912 6.3811 7.56912V15.2691C6.3811 15.5091 6.60112 15.7591 6.83112 15.7891L7.02112 15.8191C8.48112 16.0191 10.7211 16.7491 12.0211 17.4591C13.2311 16.7591 15.4811 16.0091 16.9511 15.8191L17.1711 15.7891C17.4011 15.7591 17.6211 15.5091 17.6211 15.2691V7.5791C17.6211 7.4191 17.5611 7.28911 17.4611 7.18911C17.3511 7.08911 17.2111 7.04911 17.0511 7.05911C17.0311 7.05911 16.9711 7.05911 16.9511 7.05911C15.7911 7.15911 13.8811 7.7991 12.8411 8.4591L12.7411 8.5191C12.3011 8.7891 11.6811 8.78911 11.2611 8.52911L11.1111 8.43911C10.0611 7.77911 8.1511 7.1491 6.9411 7.0491C6.9211 7.0491 6.91111 7.0491 6.89111 7.0491Z" fill="#292D32"/>
<path d="M12 18.4116C11.59 18.4116 11.25 18.0716 11.25 17.6616V8.10156C11.25 7.69156 11.59 7.35156 12 7.35156C12.41 7.35156 12.75 7.69156 12.75 8.10156V17.6616C12.75 18.0816 12.41 18.4116 12 18.4116Z" fill="#292D32"/>
</svg>
