<svg width="24" height="24" viewBox="0 0 24 24" fill="none" xmlns="http://www.w3.org/2000/svg">
<path d="M15 22.75H9C3.57 22.75 1.25 20.43 1.25 15V9C1.25 3.57 3.57 1.25 9 1.25H15C20.43 1.25 22.75 3.57 22.75 9V15C22.75 20.43 20.43 22.75 15 22.75ZM9 2.75C4.39 2.75 2.75 4.39 2.75 9V15C2.75 19.61 4.39 21.25 9 21.25H15C19.61 21.25 21.25 19.61 21.25 15V9C21.25 4.39 19.61 2.75 15 2.75H9Z" fill="#292D32"/>
<path d="M9.62 18.0486C8.04 18.0486 6.75 16.7586 6.75 15.1786C6.75 13.5986 8.04 12.3086 9.62 12.3086C11.2 12.3086 12.49 13.5986 12.49 15.1786C12.49 16.7586 11.2 18.0486 9.62 18.0486ZM9.62 13.8186C8.87 13.8186 8.25 14.4286 8.25 15.1886C8.25 15.9386 8.86 16.5586 9.62 16.5586C10.37 16.5586 10.99 15.9486 10.99 15.1886C10.99 14.4286 10.37 13.8186 9.62 13.8186Z" fill="#292D32"/>
<path d="M11.7422 15.9295C11.3322 15.9295 10.9922 15.5895 10.9922 15.1795V7.76953C10.9922 7.35953 11.3322 7.01953 11.7422 7.01953C12.1522 7.01953 12.4922 7.35953 12.4922 7.76953V15.1795C12.4922 15.5995 12.1522 15.9295 11.7422 15.9295Z" fill="#292D32"/>
<path d="M15.5222 11.4317C15.3122 11.4317 15.0922 11.3917 14.8722 11.3217L12.5322 10.5416C11.6522 10.2516 10.9922 9.3317 10.9922 8.4017V7.7817C10.9922 7.1517 11.2522 6.60169 11.7122 6.27169C12.1722 5.94169 12.7722 5.86167 13.3722 6.06167L15.7122 6.8417C16.5922 7.1317 17.2522 8.05165 17.2522 8.98165V9.60165C17.2522 10.2316 16.9922 10.7817 16.5322 11.1117C16.2422 11.3217 15.8922 11.4317 15.5222 11.4317ZM12.7122 7.45168C12.6622 7.45168 12.6122 7.46165 12.5822 7.48165C12.5222 7.52165 12.4822 7.63169 12.4822 7.77169V8.39169C12.4822 8.67169 12.7422 9.02166 13.0022 9.11166L15.3422 9.89169C15.4722 9.93169 15.5922 9.93169 15.6522 9.89169C15.7122 9.85169 15.7522 9.74165 15.7522 9.60165V8.98165C15.7522 8.70165 15.4922 8.35168 15.2322 8.26168L12.8922 7.48165C12.8322 7.46165 12.7622 7.45168 12.7122 7.45168Z" fill="#292D32"/>
</svg>
