<svg width="24" height="24" viewBox="0 0 24 24" fill="none" xmlns="http://www.w3.org/2000/svg">
<path d="M12 22.75C6.07 22.75 1.25 17.93 1.25 12C1.25 6.07 6.07 1.25 12 1.25C17.93 1.25 22.75 6.07 22.75 12C22.75 13.4 22.49 14.74 21.97 16C21.88 16.21 21.71 16.37 21.49 16.43C21.27 16.5 21.04 16.46 20.85 16.33C19.67 15.52 18.07 15.58 16.96 16.46C16.19 17.07 15.74 18 15.74 18.99C15.74 19.58 15.9 20.16 16.21 20.66C16.24 20.71 16.26 20.74 16.29 20.77C16.45 20.95 16.51 21.2 16.46 21.44C16.41 21.68 16.24 21.87 16.01 21.96C14.74 22.49 13.39 22.75 12 22.75ZM12 2.75C6.9 2.75 2.75 6.9 2.75 12C2.75 17.1 6.9 21.25 12 21.25C12.9 21.25 13.78 21.12 14.63 20.86C14.38 20.28 14.25 19.65 14.25 19C14.25 17.54 14.9 16.19 16.03 15.29C17.38 14.21 19.3 13.96 20.86 14.63C21.11 13.79 21.24 12.9 21.24 11.99C21.25 6.89999 17.1 2.75 12 2.75Z" fill="#292D32"/>
<path d="M10.8789 16.0686C10.4889 16.0686 10.1189 15.9786 9.79889 15.7886C9.05889 15.3586 8.62891 14.4886 8.62891 13.3886V10.6086C8.62891 9.50861 9.05889 8.63865 9.79889 8.20865C10.5489 7.77865 11.5189 7.84865 12.4689 8.39865L14.8689 9.7886C15.8189 10.3386 16.3589 11.1486 16.3589 11.9986C16.3589 12.8486 15.8189 13.6686 14.8689 14.2086L12.4689 15.5986C11.9289 15.9086 11.3889 16.0686 10.8789 16.0686ZM10.8889 9.42862C10.7589 9.42862 10.6489 9.45864 10.5489 9.50864C10.2789 9.66864 10.1289 10.0686 10.1289 10.6086V13.3886C10.1289 13.9286 10.2789 14.3386 10.5489 14.4886C10.8189 14.6386 11.2389 14.5786 11.7189 14.2986L14.1189 12.9086C14.5889 12.6386 14.8589 12.2986 14.8589 11.9886C14.8589 11.6786 14.5889 11.3486 14.1189 11.0686L11.7189 9.67862C11.4089 9.51862 11.1289 9.42862 10.8889 9.42862Z" fill="#292D32"/>
<path d="M19 23.75C17.43 23.75 15.98 22.98 15.11 21.69C15.07 21.66 14.99 21.54 14.93 21.43C14.49 20.72 14.25 19.87 14.25 19C14.25 17.54 14.9 16.19 16.03 15.29C17.64 14.01 20.01 13.92 21.7 15.1C22.98 15.99 23.74 17.44 23.74 19C23.74 19.87 23.5 20.7201 23.05 21.4501C22.8 21.8701 22.48 22.25 22.1 22.57C21.28 23.33 20.17 23.75 19 23.75ZM19 15.75C18.26 15.75 17.56 16 16.97 16.47C16.2 17.08 15.75 18.01 15.75 19C15.75 19.59 15.91 20.17 16.22 20.67C16.25 20.72 16.27 20.7501 16.3 20.7801C16.95 21.7301 17.94 22.25 19.01 22.25C19.8 22.25 20.56 21.96 21.14 21.44C21.4 21.22 21.62 20.96 21.78 20.68C22.1 20.17 22.26 19.59 22.26 19C22.26 17.94 21.74 16.9401 20.86 16.3401C20.3 15.9501 19.66 15.75 19 15.75Z" fill="#292D32"/>
<path d="M20.0685 20.791C19.8785 20.791 19.6885 20.7211 19.5385 20.5711L17.4284 18.4611C17.1384 18.1711 17.1384 17.6911 17.4284 17.4011C17.7184 17.1111 18.1984 17.1111 18.4884 17.4011L20.5985 19.5111C20.8885 19.8011 20.8885 20.2811 20.5985 20.5711C20.4485 20.7211 20.2585 20.791 20.0685 20.791Z" fill="#292D32"/>
<path d="M17.9311 20.8185C17.7411 20.8185 17.5511 20.7484 17.4011 20.5984C17.1111 20.3084 17.1111 19.8284 17.4011 19.5384L19.5111 17.4284C19.8011 17.1384 20.2811 17.1384 20.5711 17.4284C20.8611 17.7184 20.8611 18.1984 20.5711 18.4884L18.4611 20.5984C18.3111 20.7484 18.1211 20.8185 17.9311 20.8185Z" fill="#292D32"/>
</svg>
