<svg width="24" height="24" viewBox="0 0 24 24" fill="none" xmlns="http://www.w3.org/2000/svg">
<path d="M12.0002 22.7511C11.3302 22.7511 10.6501 22.5811 10.0501 22.2311L4.11014 18.8011C2.91014 18.1011 2.16016 16.8111 2.16016 15.4211V8.58109C2.16016 7.19109 2.91014 5.90109 4.11014 5.20109L10.0501 1.77109C11.2501 1.07109 12.7402 1.07109 13.9502 1.77109L19.8902 5.20109C21.0902 5.90109 21.8401 7.19109 21.8401 8.58109V15.4211C21.8401 16.8111 21.0902 18.1011 19.8902 18.8011L13.9502 22.2311C13.3502 22.5811 12.6702 22.7511 12.0002 22.7511ZM12.0002 2.75107C11.5902 2.75107 11.1701 2.86108 10.8001 3.07108L4.86014 6.50107C4.12014 6.93107 3.66016 7.72109 3.66016 8.58109V15.4211C3.66016 16.2711 4.12014 17.0711 4.86014 17.5011L10.8001 20.9311C11.5401 21.3611 12.4602 21.3611 13.2002 20.9311L19.1402 17.5011C19.8802 17.0711 20.3401 16.2811 20.3401 15.4211V8.58109C20.3401 7.73109 19.8802 6.93107 19.1402 6.50107L13.2002 3.07108C12.8302 2.86108 12.4102 2.75107 12.0002 2.75107Z" fill="#292D32"/>
<path d="M11.0922 15.6703C10.7322 15.6703 10.3922 15.5803 10.0822 15.4103C9.39218 15.0103 8.99219 14.2003 8.99219 13.1903V10.7903C8.99219 9.78027 9.39218 8.9703 10.0822 8.5703C10.7722 8.1703 11.6722 8.23028 12.5422 8.74028L14.6222 9.94029C15.4922 10.4403 16.0022 11.1903 16.0022 11.9903C16.0022 12.7903 15.5022 13.5303 14.6222 14.0403L12.5422 15.2403C12.0622 15.5303 11.5622 15.6703 11.0922 15.6703ZM11.1022 9.8203C11.0022 9.8203 10.9122 9.8403 10.8422 9.8803C10.6322 10.0003 10.5022 10.3403 10.5022 10.8003V13.2003C10.5022 13.6503 10.6322 13.9903 10.8422 14.1203C11.0522 14.2403 11.4122 14.1803 11.8022 13.9503L13.8822 12.7503C14.2722 12.5203 14.5022 12.2403 14.5022 12.0003C14.5022 11.7603 14.2722 11.4803 13.8822 11.2503L11.8022 10.0503C11.5422 9.90028 11.2922 9.8203 11.1022 9.8203Z" fill="#292D32"/>
</svg>
