<svg width="24" height="24" viewBox="0 0 24 24" fill="none" xmlns="http://www.w3.org/2000/svg">
<path d="M15 22.75H9C3.57 22.75 1.25 20.43 1.25 15V9C1.25 3.57 3.57 1.25 9 1.25H15C20.43 1.25 22.75 3.57 22.75 9V15C22.75 20.43 20.43 22.75 15 22.75ZM9 2.75C4.39 2.75 2.75 4.39 2.75 9V15C2.75 19.61 4.39 21.25 9 21.25H15C19.61 21.25 21.25 19.61 21.25 15V9C21.25 4.39 19.61 2.75 15 2.75H9Z" fill="#292D32"/>
<path d="M10.7598 16.3683C10.3398 16.3683 9.94984 16.2683 9.59984 16.0683C8.79984 15.6083 8.33984 14.6683 8.33984 13.4783V10.5183C8.33984 9.33834 8.79984 8.38834 9.59984 7.92834C10.3998 7.46834 11.4398 7.53834 12.4698 8.13834L15.0398 9.61834C16.0598 10.2083 16.6498 11.0783 16.6498 11.9983C16.6498 12.9183 16.0598 13.7883 15.0398 14.3783L12.4698 15.8583C11.8898 16.1983 11.2998 16.3683 10.7598 16.3683ZM10.7698 9.12834C10.6098 9.12834 10.4698 9.15834 10.3598 9.22834C10.0398 9.41834 9.84984 9.88834 9.84984 10.5183V13.4783C9.84984 14.1083 10.0298 14.5783 10.3598 14.7683C10.6798 14.9583 11.1798 14.8783 11.7298 14.5583L14.2998 13.0783C14.8498 12.7583 15.1598 12.3683 15.1598 11.9983C15.1598 11.6283 14.8498 11.2283 14.2998 10.9183L11.7298 9.43834C11.3698 9.22834 11.0398 9.12834 10.7698 9.12834Z" fill="#292D32"/>
</svg>
