<svg width="24" height="24" viewBox="0 0 24 24" fill="none" xmlns="http://www.w3.org/2000/svg">
<path d="M16.05 20.5886C15.26 20.5886 14.39 20.3086 13.52 19.7586L10.6 17.9286C10.4 17.8086 10.17 17.7386 9.94 17.7386H8.5C6.08 17.7386 4.75 16.4086 4.75 13.9886V9.98864C4.75 7.56864 6.08 6.23864 8.5 6.23864H9.93C10.16 6.23864 10.39 6.16864 10.59 6.04864L13.51 4.21864C14.97 3.30864 16.39 3.13864 17.51 3.75864C18.63 4.37864 19.24 5.66864 19.24 7.39864V16.5686C19.24 18.2886 18.62 19.5886 17.51 20.2086C17.07 20.4686 16.57 20.5886 16.05 20.5886ZM8.5 7.74864C6.92 7.74864 6.25 8.41864 6.25 9.99864V13.9986C6.25 15.5786 6.92 16.2486 8.5 16.2486H9.93C10.45 16.2486 10.95 16.3886 11.39 16.6686L14.31 18.4986C15.28 19.0986 16.18 19.2586 16.79 18.9186C17.4 18.5786 17.75 17.7286 17.75 16.5986V7.40864C17.75 6.26864 17.4 5.41864 16.79 5.08864C16.18 4.74864 15.28 4.89864 14.31 5.50864L11.39 7.33864C10.95 7.60864 10.45 7.75864 9.93 7.75864H8.5V7.74864Z" fill="#292D32"/>
</svg>
