<svg width="24" height="24" viewBox="0 0 24 24" fill="none" xmlns="http://www.w3.org/2000/svg">
<path d="M17.81 22.0613C17.18 22.0613 16.55 21.9113 15.95 21.5913L4.36 15.4913C3.06 14.8113 2.25 13.4713 2.25 12.0013C2.25 10.5313 3.06 9.19134 4.36 8.51134L15.95 2.41134C17.5 1.60134 19.3 1.86134 20.55 3.08134C21.8 4.30134 22.1 6.10134 21.32 7.66134L19.7 10.9013C19.36 11.5813 19.36 12.4013 19.7 13.0913L21.32 16.3313C22.1 17.8913 21.8 19.6913 20.55 20.9113C19.78 21.6713 18.81 22.0613 17.81 22.0613ZM17.8 3.44134C17.44 3.44134 17.05 3.53134 16.65 3.74134L5.06 9.84134C4.24 10.2713 3.75 11.0813 3.75 12.0013C3.75 12.9213 4.24 13.7313 5.06 14.1613L16.65 20.2613C17.81 20.8713 18.89 20.4513 19.5 19.8413C20.12 19.2413 20.56 18.1713 19.98 17.0013L18.36 13.7613C17.81 12.6513 17.81 11.3413 18.36 10.2313L19.98 6.99134C20.57 5.82134 20.12 4.75134 19.5 4.15134C19.1 3.76134 18.5 3.44134 17.8 3.44134Z" fill="#292D32"/>
</svg>
