<svg width="24" height="24" viewBox="0 0 24 24" fill="none" xmlns="http://www.w3.org/2000/svg">
<path d="M18.1218 21.75C17.5218 21.75 16.9118 21.61 16.3318 21.32L13.0918 19.7C12.4118 19.36 11.5918 19.36 10.9018 19.7L7.6618 21.32C6.1018 22.1 4.3018 21.8 3.0818 20.55C1.8618 19.3 1.5918 17.5 2.4118 15.95L8.5118 4.36C9.1918 3.06 10.5318 2.25 12.0018 2.25C13.4718 2.25 14.8118 3.06 15.4918 4.36L21.5918 15.95C22.4018 17.5 22.1418 19.3 20.9218 20.55C20.1518 21.34 19.1518 21.75 18.1218 21.75ZM12.0018 17.94C12.6118 17.94 13.2118 18.08 13.7618 18.35L17.0018 19.97C18.1718 20.56 19.2418 20.11 19.8418 19.49C20.4418 18.87 20.8718 17.8 20.2618 16.64L14.1618 5.05C13.7318 4.24 12.9218 3.75 12.0018 3.75C11.0818 3.75 10.2718 4.24 9.8418 5.06L3.7418 16.65C3.1318 17.81 3.5518 18.89 4.1618 19.5C4.7718 20.11 5.8318 20.56 7.0018 19.98L10.2418 18.36C10.7918 18.08 11.3918 17.94 12.0018 17.94Z" fill="#292D32"/>
</svg>
