<svg width="24" height="24" viewBox="0 0 24 24" fill="none" xmlns="http://www.w3.org/2000/svg">
<path d="M14.75 11.75H9.25C8.84 11.75 8.5 11.41 8.5 11C8.5 10.59 8.84 10.25 9.25 10.25H14.75C15.16 10.25 15.5 10.59 15.5 11C15.5 11.41 15.16 11.75 14.75 11.75Z" fill="#292D32"/>
<path d="M12 14.5C11.59 14.5 11.25 14.16 11.25 13.75V8.25C11.25 7.84 11.59 7.5 12 7.5C12.41 7.5 12.75 7.84 12.75 8.25V13.75C12.75 14.16 12.41 14.5 12 14.5Z" fill="#292D32"/>
<path d="M12.0016 22.76C10.5216 22.76 9.03164 22.2 7.87164 21.09C4.92164 18.25 1.66164 13.72 2.89164 8.33C4.00164 3.44 8.27164 1.25 12.0016 1.25C12.0016 1.25 12.0016 1.25 12.0116 1.25C15.7416 1.25 20.0116 3.44 21.1216 8.34C22.3416 13.73 19.0816 18.25 16.1316 21.09C14.9716 22.2 13.4816 22.76 12.0016 22.76ZM12.0016 2.75C9.09164 2.75 5.35164 4.3 4.36164 8.66C3.28164 13.37 6.24164 17.43 8.92164 20C10.6516 21.67 13.3616 21.67 15.0916 20C17.7616 17.43 20.7216 13.37 19.6616 8.66C18.6616 4.3 14.9116 2.75 12.0016 2.75Z" fill="#292D32"/>
</svg>
