<svg width="24" height="24" viewBox="0 0 24 24" fill="none" xmlns="http://www.w3.org/2000/svg">
<path d="M12 22.7483C6.07 22.7483 1.25 17.9283 1.25 11.9983C1.25 10.1183 1.73999 8.26831 2.67999 6.63831C2.88999 6.27831 3.34001 6.15828 3.70001 6.35828L12.37 11.3383C12.73 11.5483 12.85 11.9983 12.65 12.3583C12.44 12.7183 11.99 12.8383 11.63 12.6383L3.63 8.04828C3.05 9.27828 2.75 10.6183 2.75 11.9883C2.75 17.0883 6.9 21.2383 12 21.2383C17.1 21.2383 21.25 17.0883 21.25 11.9883C21.25 6.88828 17.1 2.73828 12 2.73828C9.98 2.73828 8.06001 3.37829 6.45001 4.58829C6.12001 4.83829 5.64999 4.76829 5.39999 4.43829C5.14999 4.10829 5.21999 3.63831 5.54999 3.38831C7.41999 1.98831 9.65 1.23828 12 1.23828C17.93 1.23828 22.75 6.05828 22.75 11.9883C22.75 17.9183 17.93 22.7483 12 22.7483Z" fill="#292D32"/>
<path d="M12 18.75C8.28 18.75 5.25 15.72 5.25 12C5.25 10.8 5.56999 9.60999 6.17999 8.57999C6.38999 8.21999 6.84999 8.1 7.20999 8.31C7.56999 8.52 7.69001 8.98 7.48001 9.34C7.01001 10.14 6.76001 11.06 6.76001 12C6.76001 14.9 9.12001 17.25 12.01 17.25C14.9 17.25 17.26 14.9 17.26 12C17.26 9.1 14.9 6.75 12.01 6.75C11.23 6.75 10.48 6.92 9.76999 7.25C9.38999 7.42 8.94999 7.26001 8.76999 6.89001C8.58999 6.51001 8.75 6.07001 9.13 5.89001C10.03 5.47001 11 5.25 12 5.25C15.72 5.25 18.75 8.28 18.75 12C18.75 15.72 15.72 18.75 12 18.75Z" fill="#292D32"/>
</svg>
