<svg width="24" height="24" viewBox="0 0 24 24" fill="none" xmlns="http://www.w3.org/2000/svg">
<path d="M12 22.7483C6.07 22.7483 1.25 17.9283 1.25 11.9983C1.25 10.1183 1.73999 8.26831 2.67999 6.63831C2.88999 6.27831 3.34001 6.15828 3.70001 6.35828L12.37 11.3383C12.73 11.5483 12.85 11.9983 12.65 12.3583C12.44 12.7183 11.99 12.8383 11.63 12.6383L3.63 8.04828C3.05 9.27828 2.75 10.6183 2.75 11.9883C2.75 17.0883 6.9 21.2383 12 21.2383C17.1 21.2383 21.25 17.0883 21.25 11.9883C21.25 6.88828 17.1 2.73828 12 2.73828C9.98 2.73828 8.06001 3.37829 6.45001 4.58829C6.12001 4.83829 5.64999 4.76829 5.39999 4.43829C5.14999 4.10829 5.21999 3.63831 5.54999 3.38831C7.41999 1.98831 9.65 1.23828 12 1.23828C17.93 1.23828 22.75 6.05828 22.75 11.9883C22.75 17.9183 17.93 22.7483 12 22.7483Z" fill="#292D32"/>
</svg>
