<svg width="24" height="24" viewBox="0 0 24 24" fill="none" xmlns="http://www.w3.org/2000/svg">
<path opacity="0.4" d="M16.19 2H7.82C4.17 2 2 4.17 2 7.81V16.18C2 19.82 4.17 21.99 7.81 21.99H16.18C19.82 21.99 21.99 19.82 21.99 16.18V7.81C22 4.17 19.83 2 16.19 2Z" fill="#292D32"/>
<path d="M13.9214 8.47859H8.7714L9.1014 8.14859C9.3914 7.85859 9.3914 7.37859 9.1014 7.08859C8.8114 6.79859 8.33141 6.79859 8.04141 7.08859L6.47141 8.65859C6.18141 8.94859 6.18141 9.42859 6.47141 9.71859L8.04141 11.2886C8.19141 11.4386 8.3814 11.5086 8.5714 11.5086C8.7614 11.5086 8.9514 11.4386 9.1014 11.2886C9.3914 10.9986 9.3914 10.5186 9.1014 10.2286L8.8414 9.96859H13.9214C15.2014 9.96859 16.2514 11.0086 16.2514 12.2986C16.2514 13.5886 15.2114 14.6286 13.9214 14.6286H9.00141C8.5914 14.6286 8.25141 14.9686 8.25141 15.3786C8.25141 15.7886 8.5914 16.1286 9.00141 16.1286H13.9214C16.0314 16.1286 17.7514 14.4086 17.7514 12.2986C17.7514 10.1886 16.0314 8.47859 13.9214 8.47859Z" fill="#292D32"/>
</svg>
