<svg width="24" height="24" viewBox="0 0 24 24" fill="none" xmlns="http://www.w3.org/2000/svg">
<path opacity="0.4" d="M22 10.7584C22 10.2884 21.62 9.89844 21.14 9.89844H2.86C2.38 9.89844 2 10.2784 2 10.7584C2 16.6484 6.11 20.7584 12 20.7584C17.89 20.7584 22 16.6384 22 10.7584Z" fill="#292D32"/>
<path d="M12.5284 3.45845L15.3784 6.29845C15.6684 6.58845 15.6684 7.06845 15.3784 7.35845C15.0884 7.64845 14.6084 7.64845 14.3184 7.35845L12.7484 5.79845V15.3685C12.7484 15.7785 12.4084 16.1185 11.9984 16.1185C11.5884 16.1185 11.2484 15.7785 11.2484 15.3685V5.79845L9.68844 7.36845C9.39844 7.65845 8.91844 7.65845 8.62844 7.36845C8.47844 7.21845 8.39844 7.02845 8.39844 6.83845C8.39844 6.64845 8.46844 6.45845 8.61844 6.30845L11.4684 3.46845C11.7584 3.16845 12.2384 3.16845 12.5284 3.45845Z" fill="#292D32"/>
</svg>
