<svg width="24" height="24" viewBox="0 0 24 24" fill="none" xmlns="http://www.w3.org/2000/svg">
<path opacity="0.4" d="M16.8 9H7.2C4 9 2 11 2 14.2V16.79C2 20 4 22 7.2 22H16.79C19.99 22 21.99 20 21.99 16.8V14.2C22 11 20 9 16.8 9Z" fill="#292D32"/>
<path d="M15.8798 12.43L12.5298 15.78C12.2398 16.07 11.7598 16.07 11.4698 15.78L8.11984 12.43C7.82984 12.14 7.82984 11.66 8.11984 11.37C8.40984 11.08 8.88984 11.08 9.17984 11.37L11.2498 13.44V2.75C11.2498 2.34 11.5898 2 11.9998 2C12.4098 2 12.7498 2.34 12.7498 2.75V13.44L14.8198 11.37C14.9698 11.22 15.1598 11.15 15.3498 11.15C15.5398 11.15 15.7298 11.22 15.8798 11.37C16.1798 11.66 16.1798 12.13 15.8798 12.43Z" fill="#292D32"/>
</svg>
