<svg width="24" height="24" viewBox="0 0 24 24" fill="none" xmlns="http://www.w3.org/2000/svg">
<path opacity="0.4" d="M9 7.2V16.79C9 20 11 22 14.2 22H16.79C19.99 22 21.99 20 21.99 16.8V7.2C22 4 20 2 16.8 2H14.2C11 2 9 4 9 7.2Z" fill="#292D32"/>
<path d="M12.43 8.11953L15.78 11.4695C16.07 11.7595 16.07 12.2395 15.78 12.5295L12.43 15.8795C12.14 16.1695 11.66 16.1695 11.37 15.8795C11.08 15.5895 11.08 15.1095 11.37 14.8195L13.44 12.7495H2.75C2.34 12.7495 2 12.4095 2 11.9995C2 11.5895 2.34 11.2495 2.75 11.2495H13.44L11.37 9.17953C11.22 9.02953 11.15 8.83953 11.15 8.64953C11.15 8.45953 11.22 8.26953 11.37 8.11953C11.66 7.81953 12.13 7.81953 12.43 8.11953Z" fill="#292D32"/>
</svg>
