<svg width="24" height="24" viewBox="0 0 24 24" fill="none" xmlns="http://www.w3.org/2000/svg">
<path opacity="0.4" d="M10.7584 2C10.2784 2 9.89844 2.38 9.89844 2.86V21.15C9.89844 21.62 10.2784 22.01 10.7584 22.01C16.6484 22.01 20.7584 17.9 20.7584 12.01C20.7584 6.12 16.6384 2 10.7584 2Z" fill="#292D32"/>
<path d="M15.8983 11.5402L13.0583 8.69016C12.7683 8.40016 12.2883 8.40016 11.9983 8.69016C11.7083 8.98016 11.7083 9.46016 11.9983 9.75016L13.5583 11.3102H3.98828C3.57828 11.3102 3.23828 11.6502 3.23828 12.0602C3.23828 12.4702 3.57828 12.8102 3.98828 12.8102H13.5583L11.9983 14.3802C11.7083 14.6702 11.7083 15.1502 11.9983 15.4402C12.1483 15.5902 12.3383 15.6602 12.5283 15.6602C12.7183 15.6602 12.9083 15.5902 13.0583 15.4402L15.8983 12.5902C16.1983 12.3002 16.1983 11.8302 15.8983 11.5402Z" fill="#292D32"/>
</svg>
