<svg width="24" height="24" viewBox="0 0 24 24" fill="none" xmlns="http://www.w3.org/2000/svg">
<path opacity="0.4" d="M13.2383 2C13.7083 2 14.0983 2.38 14.0983 2.86V21.15C14.0983 21.62 13.7183 22.01 13.2383 22.01C7.34828 22.01 3.23828 17.9 3.23828 12.01C3.23828 6.12 7.35828 2 13.2383 2Z" fill="#292D32"/>
<path d="M20.5389 11.5402L17.6989 8.69016C17.4089 8.40016 16.9289 8.40016 16.6389 8.69016C16.3489 8.98016 16.3489 9.46016 16.6389 9.75016L18.1989 11.3102H8.62891C8.21891 11.3102 7.87891 11.6502 7.87891 12.0602C7.87891 12.4702 8.21891 12.8102 8.62891 12.8102H18.1989L16.6389 14.3702C16.3489 14.6602 16.3489 15.1402 16.6389 15.4302C16.7889 15.5802 16.9789 15.6502 17.1689 15.6502C17.3589 15.6502 17.5489 15.5802 17.6989 15.4302L20.5389 12.5802C20.8289 12.3002 20.8289 11.8302 20.5389 11.5402Z" fill="#292D32"/>
</svg>
