<svg width="24" height="24" viewBox="0 0 24 24" fill="none" xmlns="http://www.w3.org/2000/svg">
<path d="M13.47 7.41158L15.93 6.20158C16.23 6.05158 16.31 5.66158 16.08 5.42158C15.19 4.44158 14.29 3.62158 13.57 3.00158C13.24 2.72158 12.75 2.95158 12.75 3.38158V6.96158C12.75 7.33158 13.14 7.57158 13.47 7.41158Z" fill="#292D32"/>
<path d="M12.75 19.7384V21.3884C12.75 21.6884 13.02 21.9384 13.32 21.8884C16.05 21.4384 18.33 19.6084 19.41 17.1484C19.6 16.7284 19.14 16.3084 18.72 16.5084L13.03 19.2984C12.86 19.3784 12.75 19.5484 12.75 19.7384Z" fill="#292D32"/>
<path d="M11.2505 3.36159C11.2505 2.93159 10.7605 2.70159 10.4305 2.97159C8.07046 4.95159 3.88046 9.12158 3.90046 13.9016C3.90046 17.9216 6.84046 21.2516 10.6805 21.8916C10.9805 21.9416 11.2505 21.6916 11.2505 21.3916V3.36159Z" fill="#292D32"/>
<path d="M13.4402 12.4714L18.7302 10.2514C19.0002 10.1314 19.1302 9.82141 19.0002 9.56141C18.6302 8.83141 18.2002 8.12141 17.7302 7.46141C17.5902 7.26141 17.3302 7.20141 17.1102 7.30141L13.0202 9.29141C12.8502 9.37141 12.7402 9.55141 12.7402 9.74141V12.0114C12.7502 12.3614 13.1102 12.6114 13.4402 12.4714Z" fill="#292D32"/>
<path d="M19.83 14.3107C19.99 14.2307 20.09 14.0807 20.09 13.9107C20.09 13.2707 20.01 12.6407 19.87 12.0207C19.8 11.7207 19.47 11.5607 19.19 11.6807L13.05 14.3007C12.87 14.3807 12.75 14.5607 12.75 14.7607V16.9607C12.75 17.3307 13.14 17.5707 13.47 17.4107L19.37 14.5407L19.83 14.3107Z" fill="#292D32"/>
</svg>
