<svg width="24" height="24" viewBox="0 0 24 24" fill="none" xmlns="http://www.w3.org/2000/svg">
<path d="M17 2H7C4.8 2 3 3.8 3 6V18C3 20.2 4.8 22 7 22H17C19.2 22 21 20.2 21 18V6C21 3.8 19.2 2 17 2ZM10.86 18.14C10.71 18.29 10.52 18.36 10.33 18.36C10.14 18.36 9.95 18.29 9.8 18.14L9.15 17.49L8.53 18.11C8.38 18.26 8.19 18.33 8 18.33C7.81 18.33 7.62 18.26 7.47 18.11C7.18 17.82 7.18 17.34 7.47 17.05L8.09 16.43L7.5 15.84C7.21 15.55 7.21 15.07 7.5 14.78C7.79 14.49 8.27 14.49 8.56 14.78L9.15 15.37L9.77 14.75C10.06 14.46 10.54 14.46 10.83 14.75C11.12 15.04 11.12 15.52 10.83 15.81L10.21 16.43L10.86 17.08C11.15 17.37 11.15 17.85 10.86 18.14ZM14.49 18.49C13.94 18.49 13.49 18.05 13.49 17.5V17.48C13.49 16.93 13.94 16.48 14.49 16.48C15.04 16.48 15.49 16.93 15.49 17.48C15.49 18.03 15.04 18.49 14.49 18.49ZM16.51 16.33C15.96 16.33 15.5 15.88 15.5 15.33C15.5 14.78 15.94 14.33 16.49 14.33H16.51C17.06 14.33 17.51 14.78 17.51 15.33C17.51 15.88 17.06 16.33 16.51 16.33ZM18 9.25C18 10.21 17.21 11 16.25 11H7.75C6.79 11 6 10.21 6 9.25V6.75C6 5.79 6.79 5 7.75 5H16.25C17.21 5 18 5.79 18 6.75V9.25Z" fill="#292D32"/>
</svg>
