<svg width="24" height="24" viewBox="0 0 24 24" fill="none" xmlns="http://www.w3.org/2000/svg">
<path d="M21 22.75H3C2.59 22.75 2.25 22.41 2.25 22C2.25 21.59 2.59 21.25 3 21.25H21C21.41 21.25 21.75 21.59 21.75 22C21.75 22.41 21.41 22.75 21 22.75Z" fill="#292D32"/>
<path d="M21 2.75H3C2.59 2.75 2.25 2.41 2.25 2C2.25 1.59 2.59 1.25 3 1.25H21C21.41 1.25 21.75 1.59 21.75 2C21.75 2.41 21.41 2.75 21 2.75Z" fill="#292D32"/>
<path d="M14.2994 15.3584L12.7494 16.9084V6.69844L14.2994 8.24844C14.4494 8.39844 14.6394 8.46844 14.8294 8.46844C15.0194 8.46844 15.2094 8.39844 15.3594 8.24844C15.6494 7.95844 15.6494 7.47844 15.3594 7.18844L12.5294 4.35844C12.2494 4.07844 11.7494 4.07844 11.4694 4.35844L8.63938 7.18844C8.34938 7.47844 8.34938 7.95844 8.63938 8.24844C8.92937 8.53844 9.40937 8.53844 9.69937 8.24844L11.2494 6.69844V16.9084L9.69937 15.3584C9.40937 15.0684 8.92937 15.0684 8.63938 15.3584C8.34938 15.6484 8.34938 16.1284 8.63938 16.4184L11.4694 19.2484C11.6094 19.3884 11.7994 19.4684 11.9994 19.4684C12.1994 19.4684 12.3894 19.3884 12.5294 19.2484L15.3594 16.4184C15.6494 16.1284 15.6494 15.6484 15.3594 15.3584C15.0694 15.0684 14.5894 15.0684 14.2994 15.3584Z" fill="#292D32"/>
</svg>
