<svg width="24" height="24" viewBox="0 0 24 24" fill="none" xmlns="http://www.w3.org/2000/svg">
<path d="M19.5 9C20.05 9 20.5 8.55 20.5 8V7C20.5 4 18.97 2 15.5 2H8.5C4.97 2 3.5 4 3.5 7V17C3.5 19.3139 4.37827 21.0255 6.39493 21.6836C6.69648 21.782 6.98895 21.5422 6.98783 21.2249L6.98 19C6.98 17.34 8.33 16 9.98 16H13.99C15.63 16 16.98 17.34 16.99 18.98L17.0057 21.227C17.0079 21.5435 17.3017 21.7801 17.6018 21.6794C19.5899 21.0126 20.5 19.3027 20.5 17V15.83C20.5 15.3 20.29 14.79 19.91 14.41L19.09 13.59C18.71 13.21 18.5 12.7 18.5 12.17V10C18.5 9.45 18.95 9 19.5 9ZM13.97 8.53H7.97C7.56 8.53 7.22 8.19 7.22 7.78C7.22 7.37 7.56 7.03 7.97 7.03H13.97C14.38 7.03 14.72 7.37 14.72 7.78C14.72 8.19 14.39 8.53 13.97 8.53Z" fill="#292D32"/>
<path d="M16.0103 20.97C16.0159 21.5261 15.5666 21.98 15.0104 21.98H8.99374C8.44406 21.98 7.99743 21.5364 7.99376 20.9867L7.98047 19C7.98047 17.9 8.87047 17 9.98047 17H13.9905C15.0905 17 15.9805 17.89 15.9905 18.99L16.0103 20.97Z" fill="#292D32"/>
</svg>
