<svg width="24" height="24" viewBox="0 0 24 24" fill="none" xmlns="http://www.w3.org/2000/svg">
<path d="M18.4707 2H14.4707C12.9779 2 11.7439 3.28581 11.5105 4.75204C11.467 5.02475 11.6946 5.25 11.9707 5.25H16.4707C16.8807 5.25 17.2207 5.59 17.2207 6C17.2207 6.41 16.8807 6.75 16.4707 6.75H11.9707C11.6946 6.75 11.4707 6.97386 11.4707 7.25V8.75C11.4707 9.02614 11.6946 9.25 11.9707 9.25H14.2807C14.6907 9.25 15.0307 9.59 15.0307 10C15.0307 10.41 14.6907 10.75 14.2807 10.75H11.9707C11.6946 10.75 11.4707 10.9739 11.4707 11.25V12.705C11.4707 12.9792 11.6915 13.2022 11.9657 13.2049L16.4707 13.25C16.8907 13.25 17.2207 13.59 17.2207 14.01C17.2107 14.42 16.8807 14.75 16.4707 14.75C16.4607 14.75 16.4607 14.75 16.4607 14.75L11.9757 14.7051C11.6976 14.7023 11.4707 14.9269 11.4707 15.205V16.75C11.4707 17.0261 11.6946 17.25 11.9707 17.25H15.3707C15.7907 17.25 16.1207 17.59 16.1207 18C16.1207 18.41 15.7907 18.75 15.3707 18.75H11.9707C11.6946 18.75 11.467 18.9753 11.5105 19.248C11.7439 20.7142 12.9779 22 14.4707 22H18.4707C20.1207 22 21.4707 20.66 21.4707 19V5C21.4707 3.34 20.1207 2 18.4707 2Z" fill="#292D32"/>
<path d="M8.4393 4.95V5.75C8.4393 6.02614 8.21544 6.25 7.9393 6.25H3.0293C2.75315 6.25 2.5293 6.02614 2.5293 5.75V4.95C2.5293 3.33 3.8593 2 5.4893 2C7.1093 2 8.4393 3.33 8.4393 4.95Z" fill="#292D32"/>
<path d="M2.5293 17.91C2.5293 18.36 2.7193 19.05 2.9593 19.43L3.7693 20.79C4.7193 22.37 6.2593 22.37 7.1993 20.79L8.0193 19.43C8.2493 19.05 8.4393 18.36 8.4393 17.91V8.25C8.4393 7.97386 8.21544 7.75 7.9393 7.75H3.0293C2.75315 7.75 2.5293 7.97386 2.5293 8.25V17.91Z" fill="#292D32"/>
</svg>
