<svg width="24" height="24" viewBox="0 0 24 24" fill="none" xmlns="http://www.w3.org/2000/svg">
<path d="M21 9.75C20.59 9.75 20.25 9.41 20.25 9V3.75H15C14.59 3.75 14.25 3.41 14.25 3C14.25 2.59 14.59 2.25 15 2.25H21C21.41 2.25 21.75 2.59 21.75 3V9C21.75 9.41 21.41 9.75 21 9.75Z" fill="#292D32"/>
<path d="M9 21.75H3C2.59 21.75 2.25 21.41 2.25 21V15C2.25 14.59 2.59 14.25 3 14.25C3.41 14.25 3.75 14.59 3.75 15V20.25H9C9.41 20.25 9.75 20.59 9.75 21C9.75 21.41 9.41 21.75 9 21.75Z" fill="#292D32"/>
<path d="M13.4995 11.2514C13.3095 11.2514 13.1195 11.1814 12.9695 11.0314C12.6795 10.7414 12.6795 10.2614 12.9695 9.97141L20.4695 2.47141C20.7595 2.18141 21.2395 2.18141 21.5295 2.47141C21.8195 2.76141 21.8195 3.24141 21.5295 3.53141L14.0295 11.0314C13.8795 11.1814 13.6895 11.2514 13.4995 11.2514Z" fill="#292D32"/>
<path d="M2.99945 21.7514C2.80945 21.7514 2.61945 21.6814 2.46945 21.5314C2.17945 21.2414 2.17945 20.7614 2.46945 20.4714L9.96945 12.9714C10.2595 12.6814 10.7395 12.6814 11.0295 12.9714C11.3195 13.2614 11.3195 13.7414 11.0295 14.0314L3.52945 21.5314C3.37945 21.6814 3.18945 21.7514 2.99945 21.7514Z" fill="#292D32"/>
</svg>
