<svg width="24" height="24" viewBox="0 0 24 24" fill="none" xmlns="http://www.w3.org/2000/svg">
<path d="M15.3005 4.1698C14.3505 3.2198 13.0405 2.7098 11.7005 2.7798L6.70046 3.0198C4.70046 3.1098 3.11046 4.6998 3.01046 6.6898L2.77046 11.6898C2.71046 13.0298 3.21046 14.3398 4.16046 15.2898L8.69046 19.8198C10.5505 21.6798 13.5705 21.6798 15.4405 19.8198L19.8305 15.4298C21.6905 13.5698 21.6905 10.5498 19.8305 8.67981L18.7005 7.54981" stroke="#292D32" stroke-width="1.5" stroke-linecap="round" stroke-linejoin="round"/>
<path d="M8.51 11.8C8.81 11.93 9.15 12 9.5 12C10.88 12 12 10.88 12 9.5C12 8.12 10.88 7 9.5 7C8.12 7 7 8.12 7 9.5" stroke="#292D32" stroke-width="1.5" stroke-linecap="round"/>
<path d="M13 17L17 13" stroke="#292D32" stroke-width="1.5" stroke-miterlimit="10" stroke-linecap="round" stroke-linejoin="round"/>
</svg>
