<svg xmlns="http://www.w3.org/2000/svg" width="24" height="24" viewBox="0 0 24 24">
  <g id="_32" data-name="32" transform="translate(-684 -252)">
    <g id="medal-star">
      <path id="Vector" d="M0,0H24V24H0Z" transform="translate(684 252)" fill="none" opacity="0"/>
      <path id="Vector-2" data-name="Vector" d="M7.592,4.251l-1.65.39a.981.981,0,0,0-.74.74l-.35,1.47a1,1,0,0,1-1.74.42L.122,3.831a.5.5,0,0,1,.25-.81A8.492,8.492,0,0,0,4.9.191a.5.5,0,0,1,.74-.05l2.22,2.22C8.622,3.121,8.352,4.071,7.592,4.251Z" transform="translate(697.658 266.219)" fill="#292d32"/>
      <path id="Vector-3" data-name="Vector" d="M.723,4.251l1.65.39a.981.981,0,0,1,.74.74l.35,1.47a1,1,0,0,0,1.74.42l2.99-3.44a.5.5,0,0,0-.25-.81A8.492,8.492,0,0,1,3.413.191a.5.5,0,0,0-.74-.05L.453,2.361C-.307,3.121-.037,4.071.723,4.251Z" transform="translate(685.977 266.219)" fill="#292d32"/>
      <path id="Vector-4" data-name="Vector" d="M7,0A6.993,6.993,0,0,0,5.95,13.91a6.17,6.17,0,0,0,2.1,0A6.994,6.994,0,0,0,7,0Zm3.06,6.78-.83.83a.709.709,0,0,0-.17.61L9.3,9.25c.19.81-.24,1.13-.96.7l-1-.59a.7.7,0,0,0-.66,0l-1,.59c-.72.42-1.15.11-.96-.7l.24-1.03a.751.751,0,0,0-.17-.61l-.85-.83c-.49-.49-.33-.98.35-1.09l1.07-.18a.729.729,0,0,0,.47-.35l.59-1.18c.32-.64.84-.64,1.16,0l.59,1.18a.724.724,0,0,0,.48.35l1.07.18c.67.11.83.6.34,1.09Z" transform="translate(689 254)" fill="#292d32"/>
    </g>
  </g>
</svg>
