<svg xmlns="http://www.w3.org/2000/svg" width="21.495" height="20.01" viewBox="0 0 21.495 20.01">
  <g id="_39" data-name="39" transform="translate(-1.244 -1.81)">
    <path id="Vector" d="M21.066,10.06q-.915-.4-1.83-.72l-1.56-6.25c-.36-1.45-.77-3.09-3.96-3.09H7.8C4.61,0,4.2,1.64,3.84,3.09L2.276,9.34c-.62.22-1.23.45-1.83.72a.747.747,0,0,0-.38.99.739.739,0,0,0,.68.44.7.7,0,0,0,.31-.07,23.761,23.761,0,0,1,16.45-1.08,20.475,20.475,0,0,1,2.92,1.08.824.824,0,0,0,.31.07.745.745,0,0,0,.68-.44.722.722,0,0,0-.35-.99Z" transform="translate(1.244 1.81)" fill="#292d32"/>
    <path id="Vector-2" data-name="Vector" d="M13.71,0a3.71,3.71,0,0,0-3.63,2.96H7.34a3.71,3.71,0,1,0,0,1.5h2.74A3.708,3.708,0,1,0,13.71,0Z" transform="translate(3.29 14.4)" fill="#292d32"/>
  </g>
</svg>
