<svg xmlns="http://www.w3.org/2000/svg" width="20" height="20" viewBox="0 0 20 20">
  <g id="_66" data-name="66" transform="translate(-2 -2)">
    <path id="Vector" d="M17.78,3V4h-.87a1.342,1.342,0,0,0-1.34,1.35v.3a1.345,1.345,0,0,1-2.69,0v-.3a1.345,1.345,0,1,0-2.69,0v.3a1.35,1.35,0,1,1-2.7,0v-.3a1.345,1.345,0,0,0-2.69,0v.3a1.345,1.345,0,0,1-2.69,0V5.33A1.345,1.345,0,0,0,.79,3.98H0V3A3.064,3.064,0,0,1,2.45.11,3.6,3.6,0,0,1,3.33,0H14.45a3.6,3.6,0,0,1,.88.11A3.064,3.064,0,0,1,17.78,3Z" transform="translate(3.11 10)" fill="#292d32"/>
    <path id="Vector-2" data-name="Vector" d="M12.88,2.17V3.58A4.3,4.3,0,0,0,12,3.5H.88A4.308,4.308,0,0,0,0,3.59V2.17A2.3,2.3,0,0,1,2.42,0h8.04a2.3,2.3,0,0,1,2.42,2.17Z" transform="translate(5.56 5)" fill="#292d32"/>
    <path id="Vector-3" data-name="Vector" d="M1.5.65V2.11H.73A2.863,2.863,0,0,0,0,2.2V.65A.714.714,0,0,1,.75,0,.714.714,0,0,1,1.5.65Z" transform="translate(7.25 2.9)" fill="#292d32"/>
    <path id="Vector-4" data-name="Vector" d="M1.5.75V2.52a2.477,2.477,0,0,0-.73-.1H0V.75A.755.755,0,0,1,.75,0,.755.755,0,0,1,1.5.75Z" transform="translate(15.25 2.58)" fill="#292d32"/>
    <path id="Vector-5" data-name="Vector" d="M1.5.82V3H0V.82A.792.792,0,0,1,.75,0,.792.792,0,0,1,1.5.82Z" transform="translate(11.25 2)" fill="#292d32"/>
    <path id="Vector-6" data-name="Vector" d="M20,5.77a.755.755,0,0,1-.75.75H.75a.75.75,0,1,1,0-1.5h.36V0h.61V.07A2.9,2.9,0,0,0,3.91,2.94,2.822,2.822,0,0,0,6.56,2.2a.978.978,0,0,1,1.38-.01,2.869,2.869,0,0,0,2.01.83,2.827,2.827,0,0,0,2.01-.83.987.987,0,0,1,1.38.01,2.807,2.807,0,0,0,2.65.74A2.9,2.9,0,0,0,18.18.07V.02h.71v5h.36A.755.755,0,0,1,20,5.77Z" transform="translate(2 15.48)" fill="#292d32"/>
  </g>
</svg>
