<svg xmlns="http://www.w3.org/2000/svg" width="24" height="24" viewBox="0 0 24 24">
  <g id="_68" data-name="68" transform="translate(-684 -188)">
    <g id="global-search">
      <path id="Vector" d="M0,0H24V24H0Z" transform="translate(708 212) rotate(180)" fill="none" opacity="0"/>
      <path id="Vector-2" data-name="Vector" d="M7.29,6.26l-.72-.72A3.576,3.576,0,1,0,3.58,7.16a3.537,3.537,0,0,0,1.96-.59l.72.72a.728.728,0,0,0,.51.21.711.711,0,0,0,.51-.21A.727.727,0,0,0,7.29,6.26Z" transform="translate(698.5 202.5)" fill="#292d32"/>
      <path id="Vector-3" data-name="Vector" d="M.02,0C.02.03,0,.07,0,.1A9.494,9.494,0,0,0,4.26,4.36c.03,0,.07-.02.1-.02A28.7,28.7,0,0,1,3.57.8,30.392,30.392,0,0,1,.02,0Z" transform="translate(686.01 202.63)" fill="#292d32"/>
      <path id="Vector-4" data-name="Vector" d="M4.49,4.49A9.5,9.5,0,0,0,0,0,28.558,28.558,0,0,1,.86,3.63,26.949,26.949,0,0,1,4.49,4.49Z" transform="translate(698.58 189.94)" fill="#292d32"/>
      <path id="Vector-5" data-name="Vector" d="M0,4.41a29.117,29.117,0,0,1,3.64-.86A30.491,30.491,0,0,1,4.43.02C4.4.02,4.36,0,4.33,0A9.54,9.54,0,0,0,0,4.41Z" transform="translate(685.93 190.02)" fill="#292d32"/>
      <path id="Vector-6" data-name="Vector" d="M6.64,4.36A27.251,27.251,0,0,0,5.67.5,1.327,1.327,0,0,1,5.64.29,9.827,9.827,0,0,0,3.32,0,9.416,9.416,0,0,0,.99.3,1.646,1.646,0,0,1,.97.51,28.542,28.542,0,0,0,0,4.36,30.708,30.708,0,0,1,6.64,4.36Z" transform="translate(691.18 189)" fill="#292d32"/>
      <path id="Vector-7" data-name="Vector" d="M4.36,0A28.681,28.681,0,0,0,.5.97,1.38,1.38,0,0,1,.3,1,9.336,9.336,0,0,0,0,3.32,9.416,9.416,0,0,0,.3,5.65a1.646,1.646,0,0,1,.21.02,28.308,28.308,0,0,0,3.86.97A30.085,30.085,0,0,1,4.36,0Z" transform="translate(685 195.18)" fill="#292d32"/>
      <path id="Vector-8" data-name="Vector" d="M4.07,1A.818.818,0,0,1,3.86.97,28.681,28.681,0,0,0,0,0,29.4,29.4,0,0,1,0,6.63a27.251,27.251,0,0,0,3.86-.97,1.361,1.361,0,0,1,.21-.02,9.914,9.914,0,0,0,.3-2.33A9.38,9.38,0,0,0,4.07,1Z" transform="translate(699.63 195.18)" fill="#292d32"/>
      <path id="Vector-9" data-name="Vector" d="M0,.01A26.914,26.914,0,0,0,.97,3.87a1.361,1.361,0,0,1,.02.21,9.912,9.912,0,0,0,2.33.29,9.336,9.336,0,0,0,2.32-.3,1.767,1.767,0,0,1,.03-.21A28.308,28.308,0,0,0,6.64,0,30.663,30.663,0,0,1,3.32.21,30.653,30.653,0,0,1,0,.01Z" transform="translate(691.18 203.63)" fill="#292d32"/>
      <path id="Vector-10" data-name="Vector" d="M.225.225a28.2,28.2,0,0,0,0,7.11,28.2,28.2,0,0,0,7.11,0,28.2,28.2,0,0,0,0-7.11A28.2,28.2,0,0,0,.225.225Z" transform="translate(690.725 194.725)" fill="#292d32"/>
    </g>
  </g>
</svg>
