<svg width="24" height="24" viewBox="0 0 24 24" fill="none" xmlns="http://www.w3.org/2000/svg">
<path d="M12 22.75C11.59 22.75 11.25 22.41 11.25 22V20C11.25 19.59 11.59 19.25 12 19.25C12.41 19.25 12.75 19.59 12.75 20V22C12.75 22.41 12.41 22.75 12 22.75Z" fill="#292D32"/>
<path d="M12 18.75C11.59 18.75 11.25 18.41 11.25 18V16C11.25 15.59 11.59 15.25 12 15.25C12.41 15.25 12.75 15.59 12.75 16V18C12.75 18.41 12.41 18.75 12 18.75Z" fill="#292D32"/>
<path d="M12 14.75C11.59 14.75 11.25 14.41 11.25 14V11C11.25 6.73 14.73 3.25 19 3.25H22C22.41 3.25 22.75 3.59 22.75 4C22.75 4.41 22.41 4.75 22 4.75H19C15.55 4.75 12.75 7.55 12.75 11V14C12.75 14.41 12.41 14.75 12 14.75Z" fill="#292D32"/>
<path d="M12 14.75C11.59 14.75 11.25 14.41 11.25 14V11C11.25 7.55 8.45 4.75 5 4.75H2C1.59 4.75 1.25 4.41 1.25 4C1.25 3.59 1.59 3.25 2 3.25H5C9.27 3.25 12.75 6.73 12.75 11V14C12.75 14.41 12.41 14.75 12 14.75Z" fill="#292D32"/>
<path d="M4.00144 6.75141C3.81144 6.75141 3.62141 6.6814 3.47141 6.5314L1.47141 4.5314C1.18141 4.2414 1.18141 3.76141 1.47141 3.47141L3.47141 1.47141C3.76141 1.18141 4.24146 1.18141 4.53146 1.47141C4.82146 1.76141 4.82146 2.2414 4.53146 2.5314L3.06143 4.00141L4.53146 5.47141C4.82146 5.76141 4.82146 6.2414 4.53146 6.5314C4.38146 6.6814 4.19144 6.75141 4.00144 6.75141Z" fill="#292D32"/>
<path d="M20.0014 6.75141C19.8114 6.75141 19.6214 6.6814 19.4714 6.5314C19.1814 6.2414 19.1814 5.76141 19.4714 5.47141L20.9414 4.00141L19.4714 2.5314C19.1814 2.2414 19.1814 1.76141 19.4714 1.47141C19.7614 1.18141 20.2415 1.18141 20.5315 1.47141L22.5315 3.47141C22.8215 3.76141 22.8215 4.2414 22.5315 4.5314L20.5315 6.5314C20.3815 6.6814 20.1914 6.75141 20.0014 6.75141Z" fill="#292D32"/>
</svg>
