<svg width="24" height="24" viewBox="0 0 24 24" fill="none" xmlns="http://www.w3.org/2000/svg">
<path d="M12 22.75C6.07 22.75 1.25 17.93 1.25 12C1.25 6.07 6.07 1.25 12 1.25C17.93 1.25 22.75 6.07 22.75 12C22.75 12.41 22.41 12.75 22 12.75C21.59 12.75 21.25 12.41 21.25 12C21.25 6.9 17.1 2.75 12 2.75C6.9 2.75 2.75 6.9 2.75 12C2.75 17.1 6.9 21.25 12 21.25C12.41 21.25 12.75 21.59 12.75 22C12.75 22.41 12.41 22.75 12 22.75Z" fill="#292D32"/>
<path d="M9.00219 21.75H8.00219C7.59219 21.75 7.25219 21.41 7.25219 21C7.25219 20.59 7.57219 20.26 7.98219 20.25C6.41219 14.89 6.41219 9.11 7.98219 3.75C7.58219 3.74 7.25219 3.41 7.25219 3C7.25219 2.59 7.59219 2.25 8.00219 2.25H9.00219C9.24219 2.25 9.47219 2.37 9.61219 2.56C9.75219 2.76 9.7922 3.00999 9.7122 3.23999C7.8322 8.88999 7.8322 15.12 9.7122 20.77C9.7922 21 9.75219 21.25 9.61219 21.45C9.47219 21.65 9.24219 21.75 9.00219 21.75Z" fill="#292D32"/>
<path d="M16.4585 12.7485C16.0485 12.7485 15.7085 12.4085 15.7085 11.9985C15.7085 9.0185 15.2285 6.06849 14.2885 3.23849C14.1585 2.84849 14.3685 2.41848 14.7585 2.28848C15.1485 2.15848 15.5785 2.36851 15.7085 2.75851C16.6985 5.73851 17.2085 8.8485 17.2085 11.9985C17.2085 12.4085 16.8685 12.7485 16.4585 12.7485Z" fill="#292D32"/>
<path d="M12 17.2108C9.2 17.2108 6.43 16.8108 3.75 16.0208C3.74 16.4208 3.41 16.7508 3 16.7508C2.59 16.7508 2.25 16.4108 2.25 16.0008V15.0008C2.25 14.7608 2.37 14.5308 2.56 14.3908C2.76 14.2508 3.01001 14.2108 3.24001 14.2908C6.07001 15.2308 9.02 15.7108 12 15.7108C12.41 15.7108 12.75 16.0508 12.75 16.4608C12.75 16.8708 12.41 17.2108 12 17.2108Z" fill="#292D32"/>
<path d="M21.0007 9.7494C20.9207 9.7494 20.8407 9.73942 20.7607 9.70942C15.1107 7.82942 8.88066 7.82942 3.23066 9.70942C2.84066 9.83942 2.41067 9.62939 2.28067 9.23939C2.15067 8.84939 2.36067 8.41938 2.75067 8.28938C8.71067 6.29938 15.2707 6.29938 21.2207 8.28938C21.6107 8.41938 21.8207 8.84939 21.6907 9.23939C21.6107 9.54939 21.3107 9.7494 21.0007 9.7494Z" fill="#292D32"/>
<path d="M18.2 22.15C16.02 22.15 14.25 20.38 14.25 18.2C14.25 16.02 16.02 14.25 18.2 14.25C20.38 14.25 22.15 16.02 22.15 18.2C22.15 20.38 20.38 22.15 18.2 22.15ZM18.2 15.75C16.85 15.75 15.75 16.85 15.75 18.2C15.75 19.55 16.85 20.65 18.2 20.65C19.55 20.65 20.65 19.55 20.65 18.2C20.65 16.85 19.55 15.75 18.2 15.75Z" fill="#292D32"/>
<path d="M22.0014 22.7514C21.8114 22.7514 21.6214 22.6815 21.4714 22.5315L20.4714 21.5315C20.1814 21.2415 20.1814 20.7614 20.4714 20.4714C20.7614 20.1814 21.2414 20.1814 21.5314 20.4714L22.5314 21.4714C22.8214 21.7614 22.8214 22.2415 22.5314 22.5315C22.3814 22.6815 22.1914 22.7514 22.0014 22.7514Z" fill="#292D32"/>
</svg>
