<svg width="24" height="24" viewBox="0 0 24 24" fill="none" xmlns="http://www.w3.org/2000/svg">
<path d="M13.1807 18.7009C12.0107 18.7009 11.0207 17.9809 10.6507 16.8709L9.95072 14.8009C9.84072 14.4409 9.56072 14.1709 9.22072 14.0609L7.14072 13.3609C6.02072 12.9809 5.30072 11.9709 5.32072 10.7909C5.34072 9.6109 6.08072 8.62091 7.21072 8.27091L14.7407 5.9309C15.6907 5.6409 16.7207 5.89091 17.4207 6.60091C18.1207 7.31091 18.3707 8.33091 18.0807 9.28091L15.7407 16.8209C15.3907 17.9509 14.4007 18.6909 13.2107 18.7109C13.2007 18.7009 13.1907 18.7009 13.1807 18.7009ZM15.5207 7.30091C15.4007 7.30091 15.2907 7.32091 15.1707 7.35091L7.63072 9.7009C7.02072 9.8909 6.80072 10.3909 6.80072 10.8109C6.79072 11.2209 7.00072 11.7409 7.60072 11.9409L9.68072 12.6309C10.4807 12.8909 11.1107 13.5209 11.3707 14.3309L12.0607 16.3909C12.2607 16.9909 12.7307 17.1809 13.1907 17.2009C13.6007 17.2009 14.1107 16.9809 14.3007 16.3709L16.6407 8.83091C16.7707 8.41091 16.6607 7.97091 16.3507 7.66091C16.1207 7.42091 15.8307 7.30091 15.5207 7.30091Z" fill="#292D32"/>
<path d="M15 22.75H9C3.57 22.75 1.25 20.43 1.25 15V9C1.25 3.57 3.57 1.25 9 1.25H15C20.43 1.25 22.75 3.57 22.75 9V15C22.75 20.43 20.43 22.75 15 22.75ZM9 2.75C4.39 2.75 2.75 4.39 2.75 9V15C2.75 19.61 4.39 21.25 9 21.25H15C19.61 21.25 21.25 19.61 21.25 15V9C21.25 4.39 19.61 2.75 15 2.75H9Z" fill="#292D32"/>
</svg>
