<svg width="24" height="24" viewBox="0 0 24 24" fill="none" xmlns="http://www.w3.org/2000/svg">
<path opacity="0.34" d="M12.1504 16.5V18.6" stroke="#292D32" stroke-width="1.5" stroke-linecap="round" stroke-linejoin="round"/>
<path d="M7.15039 22H17.1504V21C17.1504 19.9 16.2504 19 15.1504 19H9.15039C8.05039 19 7.15039 19.9 7.15039 21V22V22Z" stroke="#292D32" stroke-width="1.5" stroke-miterlimit="10"/>
<path d="M6.15039 22H18.1504" stroke="#292D32" stroke-width="1.5" stroke-linecap="round" stroke-linejoin="round"/>
<path d="M12 16C8.13 16 5 12.87 5 9V6C5 3.79 6.79 2 9 2H15C17.21 2 19 3.79 19 6V9C19 12.87 15.87 16 12 16Z" stroke="#292D32" stroke-width="1.5" stroke-linecap="round" stroke-linejoin="round"/>
<path opacity="0.34" d="M5.46906 11.6516C4.71906 11.4116 4.05906 10.9716 3.53906 10.4516C2.63906 9.45156 2.03906 8.25156 2.03906 6.85156C2.03906 5.45156 3.13906 4.35156 4.53906 4.35156H5.18906C4.98906 4.81156 4.88906 5.32156 4.88906 5.85156V8.85156C4.88906 9.85156 5.09906 10.7916 5.46906 11.6516Z" stroke="#292D32" stroke-width="1.5" stroke-linecap="round" stroke-linejoin="round"/>
<path opacity="0.34" d="M18.5293 11.6516C19.2793 11.4116 19.9393 10.9716 20.4593 10.4516C21.3593 9.45156 21.9593 8.25156 21.9593 6.85156C21.9593 5.45156 20.8593 4.35156 19.4593 4.35156H18.8093C19.0093 4.81156 19.1093 5.32156 19.1093 5.85156V8.85156C19.1093 9.85156 18.8993 10.7916 18.5293 11.6516Z" stroke="#292D32" stroke-width="1.5" stroke-linecap="round" stroke-linejoin="round"/>
</svg>
