<svg width="24" height="24" viewBox="0 0 24 24" fill="none" xmlns="http://www.w3.org/2000/svg">
<path opacity="0.4" d="M14.3206 19.0717C14.3206 19.6817 13.9205 20.4817 13.4105 20.7917L12.0005 21.7017C10.6905 22.5117 8.87054 21.6017 8.87054 19.9817V14.6317C8.87054 13.9217 8.47055 13.0117 8.06055 12.5117L4.22052 8.47171C3.71052 7.96171 3.31055 7.06172 3.31055 6.45172V4.13171C3.31055 2.92171 4.22057 2.01172 5.33057 2.01172H18.6705C19.7805 2.01172 20.6906 2.92171 20.6906 4.03171V6.25171C20.6906 7.06171 20.1805 8.07172 19.6805 8.57172" stroke="#292D32" stroke-width="1.5" stroke-miterlimit="10" stroke-linecap="round" stroke-linejoin="round"/>
<path d="M16.0692 16.5211C17.8365 16.5211 19.2692 15.0884 19.2692 13.3211C19.2692 11.5538 17.8365 10.1211 16.0692 10.1211C14.3018 10.1211 12.8691 11.5538 12.8691 13.3211C12.8691 15.0884 14.3018 16.5211 16.0692 16.5211Z" stroke="#292D32" stroke-width="1.5" stroke-linecap="round" stroke-linejoin="round"/>
<path d="M19.8691 17.1211L18.8691 16.1211" stroke="#292D32" stroke-width="1.5" stroke-linecap="round" stroke-linejoin="round"/>
</svg>
