<svg width="24" height="24" viewBox="0 0 24 24" fill="none" xmlns="http://www.w3.org/2000/svg">
<path d="M10.0693 2.81984L3.13929 8.36983C2.35929 8.98983 1.85929 10.2999 2.02929 11.2799L3.35929 19.2398C3.59929 20.6598 4.95928 21.8098 6.39928 21.8098H17.5993C19.0293 21.8098 20.3993 20.6498 20.6393 19.2398L21.9693 11.2799C22.1293 10.2999 21.6293 8.98983 20.8593 8.36983L13.9293 2.82985C12.8593 1.96985 11.1293 1.96984 10.0693 2.81984Z" stroke="#292D32" stroke-width="1.5" stroke-linecap="round" stroke-linejoin="round"/>
<path opacity="0.4" d="M12 15.5C13.3807 15.5 14.5 14.3807 14.5 13C14.5 11.6193 13.3807 10.5 12 10.5C10.6193 10.5 9.5 11.6193 9.5 13C9.5 14.3807 10.6193 15.5 12 15.5Z" stroke="#292D32" stroke-width="1.5" stroke-linecap="round" stroke-linejoin="round"/>
</svg>
