<svg width="24" height="24" viewBox="0 0 24 24" fill="none" xmlns="http://www.w3.org/2000/svg">
<path d="M22.9998 15.3715V17.5615C22.9998 20.0015 21.2198 22.3014 18.7998 22.9714C18.6298 23.0114 18.4499 23.0114 18.2899 22.9714C17.1099 22.6514 16.0698 21.9315 15.3398 21.0015C14.5498 20.0215 14.0898 18.8115 14.0898 17.5615V15.3715C14.0898 14.9515 14.3998 14.4914 14.7798 14.3314L17.5598 13.1914C18.1898 12.9414 18.8898 12.9414 19.5198 13.1914L20.5198 13.6014L22.3098 14.3314C22.6898 14.4914 22.9998 14.9515 22.9998 15.3715Z" stroke="#292D32" stroke-width="1.5" stroke-linecap="round" stroke-linejoin="round"/>
<path opacity="0.4" d="M20.9493 11.0113L20.5193 13.6012L19.5193 13.1912C18.8893 12.9412 18.1893 12.9412 17.5593 13.1912L14.7793 14.3312C14.3993 14.4912 14.0893 14.9513 14.0893 15.3713V17.5613C14.0893 18.8113 14.5493 20.0213 15.3393 21.0013H6.1793C4.8093 21.0013 3.51931 19.9113 3.28931 18.5613L2.0293 11.0113C1.8693 10.0813 2.33929 8.83126 3.07929 8.24126L9.65931 2.98125C10.6693 2.17125 12.3093 2.17126 13.3193 2.99126L19.8993 8.24126C20.6293 8.83126 21.1093 10.0813 20.9493 11.0113Z" stroke="#292D32" stroke-width="1.5" stroke-linecap="round" stroke-linejoin="round"/>
</svg>
