<svg width="24" height="24" viewBox="0 0 24 24" fill="none" xmlns="http://www.w3.org/2000/svg">
<path opacity="0.4" d="M23 15.9688C23 19.8387 19.87 22.9688 16 22.9688L17.05 21.2188" stroke="#292D32" stroke-width="1.5" stroke-linecap="round" stroke-linejoin="round"/>
<path opacity="0.4" d="M1 7.96875C1 4.09875 4.13 0.96875 8 0.96875L6.95 2.71875" stroke="#292D32" stroke-width="1.5" stroke-linecap="round" stroke-linejoin="round"/>
<path d="M6.61914 13.0703H9.42914C10.0491 13.0703 10.5591 13.6303 10.5591 14.2003C10.5591 14.8203 10.0591 15.3303 9.42914 15.3303H6.61914V13.0703Z" stroke="#292D32" stroke-width="1.5" stroke-miterlimit="10" stroke-linecap="round" stroke-linejoin="round"/>
<path d="M6.61914 15.3281H9.83914C10.5491 15.3281 11.1291 15.8281 11.1291 16.4581C11.1291 17.0781 10.5491 17.5881 9.83914 17.5881H6.61914V15.3281Z" stroke="#292D32" stroke-width="1.5" stroke-miterlimit="10" stroke-linecap="round" stroke-linejoin="round"/>
<path d="M8.41992 17.5781V18.6981" stroke="#292D32" stroke-width="1.5" stroke-miterlimit="10" stroke-linecap="round" stroke-linejoin="round"/>
<path d="M8.41992 11.9492V13.0692" stroke="#292D32" stroke-width="1.5" stroke-miterlimit="10" stroke-linecap="round" stroke-linejoin="round"/>
<path d="M14.8498 15.3302C14.8498 18.7402 12.0898 21.5002 8.67977 21.5002C5.26977 21.5002 2.50977 18.7402 2.50977 15.3302C2.50977 11.9202 5.26977 9.16016 8.67977 9.16016C8.83977 9.16016 8.98977 9.17018 9.15977 9.18018C12.1898 9.41018 14.6098 11.8302 14.8398 14.8602C14.8398 15.0102 14.8498 15.1602 14.8498 15.3302Z" stroke="#292D32" stroke-width="1.5" stroke-miterlimit="10" stroke-linecap="round" stroke-linejoin="round"/>
<path d="M21.5002 8.66998C21.5002 12.08 18.7402 14.84 15.3302 14.84H14.8402C14.6102 11.81 12.1902 9.38997 9.16016 9.15997V8.66998C9.16016 5.25998 11.9202 2.5 15.3302 2.5C18.7402 2.5 21.5002 5.25998 21.5002 8.66998Z" stroke="#292D32" stroke-width="1.5" stroke-miterlimit="10" stroke-linecap="round" stroke-linejoin="round"/>
</svg>
