<?xml version="1.0" standalone="no"?>
<!DOCTYPE svg PUBLIC "-//W3C//DTD SVG 1.1//EN" "http://www.w3.org/Graphics/SVG/1.1/DTD/svg11.dtd" >
<svg xmlns="http://www.w3.org/2000/svg">
<metadata>Generated by IcoMoon</metadata>
<defs>
<font id="isax-bulk" horiz-adv-x="1024">
<font-face units-per-em="1024" ascent="960" descent="-64" />
<missing-glyph horiz-adv-x="1024" />
<glyph unicode="&#x20;" horiz-adv-x="512" d="" />
<glyph unicode="&#xe900;" d="M512-0c235.639 0 426.667 191.027 426.667 426.667 0 235.642-191.027 426.667-426.667 426.667-235.642 0-426.667-191.025-426.667-426.667 0-235.639 191.025-426.667 426.667-426.667z" />
<glyph unicode="&#xe901;" d="M712.111 268.805l-170.667 383.999c-10.24 23.040-48.213 23.040-58.453 0l-86.188-194.132h-55.466c-17.493 0-32-14.507-32-32s14.507-32 32-32h26.453l-55.893-125.867c-7.253-16.213 0-34.987 16.214-42.24s34.986 0 42.24 16.213l67.414 151.467h74.24c17.493 0 32 14.507 32 32s-14.507 32-32 32h-45.653l45.653 102.399 141.227-318.292c5.12-11.947 17.067-19.2 29.44-19.2 4.267 0 8.96 0.853 12.8 2.56 16.213 8.107 23.467 27.307 16.64 43.093z" />
<glyph unicode="&#xe902;" d="M690.773 853.334h-357.547c-155.307 0-247.893-92.587-247.893-247.893v-357.12c0-155.733 92.587-248.32 247.893-248.32h357.12c155.307 0 247.893 92.587 247.893 247.893v357.547c0.427 155.307-92.16 247.893-247.467 247.893z" />
<glyph unicode="&#xe903;" d="M312.751 288.427c-6.827 0-13.653 2.133-19.627 6.827-14.080 10.667-16.64 30.72-5.973 44.8l101.547 131.84c12.373 15.787 29.867 26.027 49.92 28.587 19.627 2.56 39.68-2.987 55.467-15.36l78.080-61.44c2.987-2.56 5.973-2.56 8.107-2.133 1.707 0 4.693 0.853 7.253 4.267l98.56 127.146c10.667 14.080 31.147 16.64 44.8 5.547 14.080-10.667 16.64-30.72 5.547-44.8l-98.56-127.146c-12.373-15.787-29.867-26.027-49.92-28.16-20.053-2.56-39.68 2.987-55.467 15.36l-78.080 61.44c-2.987 2.56-6.4 2.56-8.107 2.133-1.707 0-4.693-0.853-7.253-4.267l-101.546-131.84c-5.547-8.533-14.933-12.8-24.747-12.8z" />
<glyph unicode="&#xe904;" d="M731.665 512c23.565 0 42.667 19.103 42.667 42.667s-19.102 42.667-42.667 42.667c-23.561 0-42.667-19.103-42.667-42.667s19.106-42.667 42.667-42.667z" />
<glyph unicode="&#xe905;" d="M731.665 256c23.565 0 42.667 19.102 42.667 42.667s-19.102 42.667-42.667 42.667c-23.561 0-42.667-19.102-42.667-42.667s19.106-42.667 42.667-42.667z" />
<glyph unicode="&#xe906;" d="M842.667 384c23.565 0 42.667 19.102 42.667 42.667s-19.102 42.667-42.667 42.667c-23.565 0-42.667-19.102-42.667-42.667s19.102-42.667 42.667-42.667z" />
<glyph unicode="&#xe907;" d="M290.083 512c23.564 0 42.667 19.103 42.667 42.667s-19.103 42.667-42.667 42.667c-23.564 0-42.667-19.103-42.667-42.667s19.102-42.667 42.667-42.667z" />
<glyph unicode="&#xe908;" d="M290.083 256c23.564 0 42.667 19.102 42.667 42.667s-19.103 42.667-42.667 42.667c-23.564 0-42.667-19.102-42.667-42.667s19.102-42.667 42.667-42.667z" />
<glyph unicode="&#xe909;" d="M179.167 384c23.564 0 42.667 19.102 42.667 42.667s-19.103 42.667-42.667 42.667c-23.564 0-42.667-19.102-42.667-42.667s19.102-42.667 42.667-42.667z" />
<glyph unicode="&#xe90a;" d="M678.332 674.125c23.565 0 42.667 19.103 42.667 42.667s-19.102 42.667-42.667 42.667c-23.561 0-42.667-19.102-42.667-42.667s19.106-42.667 42.667-42.667z" />
<glyph unicode="&#xe90b;" d="M345.583 674.125c23.564 0 42.667 19.103 42.667 42.667s-19.103 42.667-42.667 42.667c-23.564 0-42.667-19.102-42.667-42.667s19.103-42.667 42.667-42.667z" />
<glyph unicode="&#xe90c;" d="M514.082 640c23.565 0 42.667 19.103 42.667 42.667s-19.102 42.667-42.667 42.667c-23.565 0-42.667-19.103-42.667-42.667s19.102-42.667 42.667-42.667z" />
<glyph unicode="&#xe90d;" d="M678.332 85.334c23.565 0 42.667 19.102 42.667 42.667s-19.102 42.667-42.667 42.667c-23.561 0-42.667-19.102-42.667-42.667s19.106-42.667 42.667-42.667z" />
<glyph unicode="&#xe90e;" d="M345.583 85.334c23.564 0 42.667 19.102 42.667 42.667s-19.103 42.667-42.667 42.667c-23.564 0-42.667-19.102-42.667-42.667s19.103-42.667 42.667-42.667z" />
<glyph unicode="&#xe90f;" d="M514.082 119.458c23.565 0 42.667 19.102 42.667 42.667s-19.102 42.667-42.667 42.667c-23.565 0-42.667-19.102-42.667-42.667s19.102-42.667 42.667-42.667z" />
<glyph unicode="&#xe910;" d="M586.667 501.334c29.457 0 53.333 23.878 53.333 53.333s-23.876 53.333-53.333 53.333c-29.457 0-53.333-23.878-53.333-53.333s23.876-53.333 53.333-53.333z" />
<glyph unicode="&#xe911;" d="M437.333 501.334c29.457 0 53.333 23.878 53.333 53.333s-23.876 53.333-53.333 53.333c-29.455 0-53.333-23.878-53.333-53.333s23.878-53.333 53.333-53.333z" />
<glyph unicode="&#xe912;" d="M661.333 373.334c29.457 0 53.333 23.876 53.333 53.333s-23.876 53.333-53.333 53.333c-29.457 0-53.333-23.876-53.333-53.333s23.876-53.333 53.333-53.333z" />
<glyph unicode="&#xe913;" d="M362.667 373.334c29.455 0 53.333 23.876 53.333 53.333s-23.878 53.333-53.333 53.333c-29.455 0-53.333-23.876-53.333-53.333s23.878-53.333 53.333-53.333z" />
<glyph unicode="&#xe914;" d="M437.333 245.334c29.457 0 53.333 23.876 53.333 53.333s-23.876 53.333-53.333 53.333c-29.455 0-53.333-23.876-53.333-53.333s23.878-53.333 53.333-53.333z" />
<glyph unicode="&#xe915;" d="M586.667 245.334c29.457 0 53.333 23.876 53.333 53.333s-23.876 53.333-53.333 53.333c-29.457 0-53.333-23.876-53.333-53.333s23.876-53.333 53.333-53.333z" />
<glyph unicode="&#xe916;" d="M511.962 796.584c-20.907 0-37.547 16.64-37.547 37.547s16.64 37.12 37.547 37.12c20.907 0 37.547-16.64 37.547-37.547s-16.64-37.12-37.547-37.12z" />
<glyph unicode="&#xe917;" d="M736.009 785.063c-17.92 0-32.427 14.507-32.427 32s14.507 32 32 32c17.493 0 32.427-14.507 32.427-32s-14.080-32-32-32z" />
<glyph unicode="&#xe918;" d="M288 785.063c-17.493 0-32 14.507-32 32s14.080 32 32 32h0.427c17.493 0 32-14.507 32-32s-14.507-32-32.427-32z" />
<glyph unicode="&#xe919;" d="M511.962-16.217c-20.907 0-37.547 16.64-37.547 37.547s16.64 37.547 37.547 37.547c20.907 0 37.547-16.64 37.547-37.547s-16.64-37.547-37.547-37.547z" />
<glyph unicode="&#xe91a;" d="M736.009 6.396c-17.92 0-32.427 14.507-32.427 32s14.507 32 32 32c17.493 0 32.427-14.507 32.427-32s-14.080-32-32-32z" />
<glyph unicode="&#xe91b;" d="M288 6.396c-17.493 0-32 14.507-32 32s14.080 32 32 32h0.427c17.493 0 32-14.507 32-32s-14.507-32-32.427-32z" />
<glyph unicode="&#xe91c;" d="M66.13 389.116c-20.48 0-37.547 16.64-37.547 37.12v0.427c0 20.48 16.64 37.547 37.547 37.547s37.12-16.64 37.12-37.547c0-20.907-16.64-37.547-37.12-37.547z" />
<glyph unicode="&#xe91d;" d="M160 181.325c-17.493 0-32 14.507-32 32v0.427c0 17.493 14.507 32 32 32s32-14.507 32-32c0-17.493-14.507-32.427-32-32.427z" />
<glyph unicode="&#xe91e;" d="M160 607.583c-17.493 0-32 14.507-32 32s14.507 32 32 32c17.493 0 32-14.080 32-31.573v-0.427c0-17.493-14.507-32-32-32z" />
<glyph unicode="&#xe91f;" d="M959.962 389.116c-20.48 0-37.547 16.64-37.547 37.12v0.427c0 20.48 16.64 37.547 37.547 37.547s37.547-16.64 37.547-37.547c0-20.907-17.067-37.547-37.547-37.547z" />
<glyph unicode="&#xe920;" d="M866.167 181.325c-17.493 0-32 14.080-32 32v0.427c0 17.493 14.507 32 32 32s32-14.507 32-32c0-17.493-14.507-32.427-32-32.427z" />
<glyph unicode="&#xe921;" d="M866.167 607.583c-17.493 0-32 14.507-32 32s14.507 32 32 32c17.493 0 32-14.080 32-31.573v-0.427c0-17.493-14.507-32-32-32z" />
<glyph unicode="&#xe922;" d="M690.773 853.334h-357.547c-155.307 0-247.893-92.587-247.893-247.893v-357.12c0-155.733 92.587-248.32 247.893-248.32h357.12c155.307 0 247.893 92.587 247.893 247.893v357.547c0.427 155.307-92.16 247.893-247.467 247.893z" />
<glyph unicode="&#xe923;" d="M768 458.667h-224v224c0 17.493-14.507 32-32 32s-32-14.507-32-32v-224h-224c-17.493 0-32-14.507-32-32s14.507-32 32-32h224v-224c0-17.493 14.507-32 32-32s32 14.507 32 32v224h224c17.493 0 32 14.507 32 32s-14.507 32-32 32z" />
<glyph unicode="&#xe924;" d="M512-0c235.639 0 426.667 191.027 426.667 426.667 0 235.642-191.027 426.667-426.667 426.667-235.642 0-426.667-191.025-426.667-426.667 0-235.639 191.025-426.667 426.667-426.667z" />
<glyph unicode="&#xe925;" d="M682.667 458.667h-138.667v138.667c0 17.493-14.507 32-32 32s-32-14.507-32-32v-138.667h-138.667c-17.493 0-32-14.507-32-32s14.507-32 32-32h138.667v-138.667c0-17.493 14.507-32 32-32s32 14.507 32 32v138.667h138.667c17.493 0 32 14.507 32 32s-14.507 32-32 32z" />
<glyph unicode="&#xe926;" d="M792.333-0h-194.987c-97.707 0-146.347 48.64-146.347 146.347v304.64c0 97.707 48.64 146.347 146.347 146.347h194.987c97.707 0 146.347-48.64 146.347-146.347v-304.64c0-97.707-48.64-146.347-146.347-146.347z" />
<glyph unicode="&#xe927;" d="M573.013 706.987v-57.173c-111.787-8.96-175.36-80.64-175.36-198.827v-194.987h-165.973c-97.707 0-146.347 48.64-146.347 146.347v304.64c0 97.707 48.64 146.347 146.347 146.347h194.987c97.707 0 146.347-48.64 146.347-146.347z" />
<glyph unicode="&#xe928;" d="M773.508 330.663h-37.547v37.547c0 17.493-14.507 32-32 32s-32-14.507-32-32v-37.547h-37.547c-17.493 0-32-14.507-32-32s14.507-32 32-32h37.547v-37.547c0-17.493 14.507-32 32-32s32 14.507 32 32v37.547h37.547c17.493 0 32 14.507 32 32s-14.507 32-32 32z" />
<glyph unicode="&#xe929;" d="M690.773 853.334h-357.547c-155.307 0-247.893-92.587-247.893-247.893v-357.12c0-155.733 92.587-248.32 247.893-248.32h357.12c155.307 0 247.893 92.587 247.893 247.893v357.547c0.427 155.307-92.16 247.893-247.467 247.893z" />
<glyph unicode="&#xe92a;" d="M682.667 458.667h-138.667v138.667c0 17.493-14.507 32-32 32s-32-14.507-32-32v-138.667h-138.667c-17.493 0-32-14.507-32-32s14.507-32 32-32h138.667v-138.667c0-17.493 14.507-32 32-32s32 14.507 32 32v138.667h138.667c17.493 0 32 14.507 32 32s-14.507 32-32 32z" />
<glyph unicode="&#xe92b;" d="M602.867 454.823c16.64 69.974-44.373 130.99-114.347 114.35-32.853-8.107-59.733-34.988-67.838-67.843-16.64-69.973 44.372-130.982 114.345-114.342 33.28 8.107 60.16 34.982 67.84 67.836z" />
<glyph unicode="&#xe92c;" d="M256.893 171.947c-7.68 0-15.787 2.987-21.76 8.533-82.773 76.8-130.133 185.173-130.133 297.813 0 224.428 182.613 407.040 407.038 407.040 224.427 0 407.040-182.612 407.040-407.040 0-113.493-45.653-218.453-128.427-296.533-12.8-11.947-33.28-11.52-45.227 1.28s-11.52 33.28 1.28 45.227c69.973 65.707 108.373 154.027 108.373 249.6 0 189.014-154.027 343.040-343.040 343.040s-343.038-154.026-343.038-343.040c0-96.427 38.826-185.173 109.653-250.88 12.8-11.947 13.654-32.427 1.707-45.227-6.4-6.4-14.933-9.813-23.467-9.813z" />
<glyph unicode="&#xe92d;" d="M682.645 285.867c-7.68 0-15.787 2.987-21.76 8.533-12.8 11.947-13.653 32.427-1.28 45.227 35.413 37.547 55.040 87.040 55.040 138.24 0 111.785-90.88 202.237-202.24 202.237s-202.239-90.88-202.239-202.237c0-51.627 19.626-100.693 55.040-138.24 11.947-12.8 11.52-33.28-1.28-45.227-12.8-12.373-33.28-11.524-45.227 1.276-46.507 49.493-72.533 114.351-72.533 182.191 0 146.771 119.466 266.237 266.239 266.237s266.24-119.466 266.24-266.237c0-67.84-25.6-132.698-72.533-182.191-6.4-6.4-14.933-9.809-23.467-9.809z" />
<glyph unicode="&#xe92e;" d="M439.497 227.84l-61.44-76.378c-48.64-61.013-5.547-151.036 72.533-151.036h122.453c78.080 0 121.6 90.449 72.533 151.036l-61.44 76.378c-36.693 46.507-107.52 46.507-144.64 0z" />
<glyph unicode="&#xe92f;" d="M424.983 339.623v47.36c0 18.347-13.653 27.307-30.293 20.053l-213.76-92.16c-33.707-14.507-61.013 3.413-61.013 39.68v56.32c0 29.013 21.76 62.72 48.64 73.813l243.2 104.535c6.827 3.413 12.8 12.373 12.8 20.053v130.56c0 40.96 30.291 90.027 66.558 108.8 12.8 6.4 28.16 6.4 40.96 0 36.693-18.773 66.987-67.413 66.987-108.373v-130.56c0-7.68 5.973-16.64 12.8-20.053l44.373-18.773-231.251-231.255z" />
<glyph unicode="&#xe930;" d="M904.073 410.876v-56.32c0-36.267-27.307-54.187-61.013-39.68l-213.76 92.16c-17.067 6.827-30.293-1.707-30.293-20.053v-124.16c0-9.813 5.547-23.893 12.8-30.72l98.987-99.413c10.24-10.24 14.933-30.72 10.24-44.8l-19.2-58.027c-8.533-25.173-37.12-36.693-60.587-25.173l-101.547 85.333c-15.36 13.227-40.533 13.227-55.893 0l-101.548-85.333c-23.467-11.947-52.053 0-59.733 25.173l-19.2 58.027c-4.693 14.507 0 34.56 10.24 44.8l98.987 99.413c6.827 6.827 12.373 20.907 12.373 30.72v76.8l231.254 231.252 199.253-85.759c26.88-11.52 48.64-45.227 48.64-74.24z" />
<glyph unicode="&#xe931;" d="M690.773 853.334h-357.547c-155.307 0-247.893-92.587-247.893-247.893v-357.12c0-155.733 92.587-248.32 247.893-248.32h357.12c155.307 0 247.893 92.587 247.893 247.893v357.547c0.427 155.307-92.16 247.893-247.467 247.893z" />
<glyph unicode="&#xe932;" d="M420.673 128l71.679 60.587c10.667 8.96 28.587 8.96 39.68 0l71.253-60.587c16.64-8.533 37.12 0 43.093 17.92l13.653 40.96c3.413 9.813 0 24.32-7.253 31.573l-69.973 70.4c-5.12 5.12-8.96 14.933-8.96 21.76v78.933c0 17.92 13.227 26.453 29.867 19.627l142.933-61.44c23.467-10.24 43.093 2.56 43.093 28.16v39.68c0 20.48-15.36 44.373-34.56 52.48l-168.107 72.534c-7.253 2.987-12.8 11.947-12.8 19.627v88.32c0 29.013-21.333 63.147-46.933 76.373-9.387 4.693-20.053 4.693-29.44 0-26.027-12.8-46.933-47.36-46.933-76.373v-88.32c0-7.68-5.973-16.64-12.8-19.627l-168.105-72.534c-18.773-8.107-34.56-32-34.56-52.48v-39.68c0-25.6 19.2-38.4 43.093-28.16l142.933 61.44c16.212 7.253 29.865-1.707 29.865-19.627v-78.933c0-7.253-4.267-17.067-8.96-21.76l-71.252-69.973c-7.253-7.253-10.667-21.76-7.253-31.573l13.653-40.96c5.973-18.347 26.027-26.88 43.093-18.347z" />
<glyph unicode="&#xe933;" d="M917.333 661.334v-469.333c0-106.24-85.76-192-192-192h-426.667c-106.24 0-192 85.76-192 192v469.333c0 106.24 85.76 192 192 192h426.667c106.24 0 192-85.76 192-192z" />
<glyph unicode="&#xe934;" d="M917.333 590.080v-64h-176.213c-13.227-41.387-52.053-71.253-97.707-71.253h-262.827c-27.307 0-54.187 11.093-73.387 30.72-11.52 11.093-19.627 25.173-24.747 40.533h-175.787v64h176.213c13.227 41.387 52.053 71.253 97.707 71.253h262.4c27.733 0 54.187-11.093 73.387-30.72 11.52-11.52 20.053-25.173 24.747-40.533h176.213z" />
<glyph unicode="&#xe935;" d="M448 732.586v-523.946c0-34.987-22.187-64.427-53.333-75.52-8.533-3.413-17.92-5.12-27.307-5.12-13.227 0-26.026 3.413-36.693 9.387-26.027 13.227-43.947 40.107-43.947 71.253v322.133h-40.107c-88.747 0-161.28 72.532-161.28 161.279 0 44.373 17.92 84.482 47.36 113.922s69.547 47.36 113.92 47.36h80.64c66.133 0 120.746-54.614 120.746-120.748z" />
<glyph unicode="&#xe936;" d="M246.607 619.946c-39.68 0-72.107 32.425-72.107 72.531s32.427 72.107 72.107 72.107c17.493 0 32-14.507 32-32s-14.507-32-32-32c-4.693 0-8.107-3.84-8.107-8.107s3.84-8.531 8.107-8.531c17.493 0 32-14.507 32-32s-14.507-32-32-32z" />
<glyph unicode="&#xe937;" d="M938.667 692.052c0-88.747-72.533-161.279-161.28-161.279h-40.107v-322.133c0-31.147-17.92-58.027-43.947-71.253-10.667-5.973-23.467-9.387-36.693-9.387-9.387 0-18.773 1.707-27.307 5.12-31.147 11.093-53.333 40.533-53.333 75.52v523.946c0 66.133 54.187 120.748 120.747 120.748h80.64c44.373 0 84.48-17.92 113.92-47.36s47.36-69.548 47.36-113.922z" />
<glyph unicode="&#xe938;" d="M777.417 619.946c-17.493 0-32 14.507-32 32s14.507 32 32 32c4.693 0 8.107 3.838 8.107 8.531s-3.84 8.107-8.107 8.107c-17.493 0-32 14.507-32 32s14.507 32 32 32c39.68 0 72.107-32.427 72.107-72.107s-32-72.531-72.107-72.531z" />
<glyph unicode="&#xe939;" d="M394.667 133.12v-133.12c0-17.493-14.507-32-32-32s-32 14.507-32 32v137.387c10.667-5.973 23.466-9.387 36.693-9.387 9.387 0 18.774 1.707 27.307 5.12z" />
<glyph unicode="&#xe93a;" d="M693.333 137.387v-137.387c0-17.493-14.507-32-32-32s-32 14.507-32 32v133.12c8.533-3.413 17.92-5.12 27.307-5.12 13.227 0 26.027 3.413 36.693 9.387z" />
<glyph unicode="&#xe93b;" d="M970.667-0c0-17.493-14.507-32-32-32h-853.333c-17.493 0-32 14.507-32 32s14.507 32 32 32h853.333c17.493 0 32-14.507 32-32z" />
<glyph unicode="&#xe93c;" d="M896 298.667v-266.667h-768v266.667c0 212.053 171.947 384 384 384s384-171.947 384-384z" />
<glyph unicode="&#xe93d;" d="M512 778.667c-17.493 0-32 14.507-32 32v42.667c0 17.493 14.507 32 32 32s32-14.507 32-32v-42.667c0-17.493-14.507-32-32-32z" />
<glyph unicode="&#xe93e;" d="M213.31 693.336c-8.107 0-16.213 2.987-22.613 9.387l-42.667 42.667c-12.373 12.373-12.373 32.853 0 45.227s32.853 12.373 45.227 0l42.667-42.667c12.373-12.373 12.373-32.853 0-45.227-6.4-6.4-14.507-9.387-22.613-9.387z" />
<glyph unicode="&#xe93f;" d="M810.645 693.336c-8.107 0-16.213 2.987-22.613 9.387-12.373 12.373-12.373 32.853 0 45.227l42.667 42.667c12.373 12.373 32.853 12.373 45.227 0s12.373-32.853 0-45.227l-42.667-42.667c-6.4-6.4-14.507-9.387-22.613-9.387z" />
<glyph unicode="&#xe940;" d="M681.813 111.791h44.373c67.84 0 95.147 25.6 95.147 90.453v506.881h-234.667v-506.881c0.427-64.853 27.733-90.453 95.147-90.453z" />
<glyph unicode="&#xe941;" d="M319.147 325.125h44.373c67.84 0 95.147 26.027 95.147 90.453v293.548h-234.667v-293.548c0.427-64.427 27.733-90.453 95.147-90.453z" />
<glyph unicode="&#xe942;" d="M906.667 677.552h-789.333c-17.493 0-32 14.080-32 31.573s14.507 32 32 32h789.333c17.493 0 32-14.507 32-32s-14.507-31.573-32-31.573z" />
<glyph unicode="&#xe943;" d="M202.667 196.267v460.8c0 64 27.307 89.6 95.147 89.6h44.373c67.84 0 95.147-25.6 95.147-89.6v-460.8c0-64-27.307-89.6-95.147-89.6h-44.373c-67.84 0-95.147 25.6-95.147 89.6z" />
<glyph unicode="&#xe944;" d="M202.667 394.667h-85.333c-17.493 0-32 14.507-32 32s14.507 32 32 32h85.333v-64z" />
<glyph unicode="&#xe945;" d="M565.333 458.667h-128v-64h128v64z" />
<glyph unicode="&#xe946;" d="M906.667 394.667h-106.667v64h106.667c17.493 0 32-14.507 32-32s-14.507-32-32-32z" />
<glyph unicode="&#xe947;" d="M565.333 281.6v290.133c0 64 27.307 89.6 95.147 89.6h44.373c67.84 0 95.147-25.6 95.147-89.6v-290.133c0-64-27.307-89.6-95.147-89.6h-44.373c-67.84 0-95.147 25.6-95.147 89.6z" />
<glyph unicode="&#xe948;" d="M826.918 256.854v-44.373c0-67.84-25.6-95.147-90.453-95.147h-506.882v234.667h506.882c64.853 0 90.453-27.307 90.453-95.147z" />
<glyph unicode="&#xe949;" d="M613.585 619.52v-44.373c0-67.84-26.027-95.147-90.453-95.147h-293.548v234.667h293.548c64.427 0 90.453-27.307 90.453-95.147z" />
<glyph unicode="&#xe94a;" d="M229.509-0c-17.493 0-32 14.507-32 32v789.333c-0.427 17.92 14.080 32 32 32s32-14.507 32-32v-789.333c-0.427-17.493-14.507-32-32-32z" />
<glyph unicode="&#xe94b;" d="M197.083 256.854v-44.373c0-67.84 25.6-95.147 90.453-95.147h506.878v234.667h-506.878c-64.853 0-90.453-27.307-90.453-95.147z" />
<glyph unicode="&#xe94c;" d="M410.417 619.52v-44.373c0-67.84 26.025-95.147 90.452-95.147h293.547v234.667h-293.547c-64.427 0-90.452-27.307-90.452-95.147z" />
<glyph unicode="&#xe94d;" d="M794.415-0c-17.493 0-32 14.507-32 32v789.333c0 17.493 14.507 32 32 32s32-14.507 32-32v-789.333c0.427-17.493-14.080-32-32-32z" />
<glyph unicode="&#xe94e;" d="M742.4 117.334h-460.8c-64 0-89.6 27.307-89.6 95.147v44.373c0 67.84 25.6 95.147 89.6 95.147h460.8c64 0 89.6-27.307 89.6-95.147v-44.373c0-67.84-25.6-95.147-89.6-95.147z" />
<glyph unicode="&#xe94f;" d="M544 117.334v-85.333c0-17.493-14.507-32-32-32s-32 14.507-32 32v85.333h64z" />
<glyph unicode="&#xe950;" d="M544 480h-64v-128h64v128z" />
<glyph unicode="&#xe951;" d="M544 821.334v-106.667h-64v106.667c0 17.493 14.507 32 32 32s32-14.507 32-32z" />
<glyph unicode="&#xe952;" d="M657.067 480h-290.133c-64 0-89.6 27.307-89.6 95.147v44.373c0 67.84 25.6 95.147 89.6 95.147h290.133c64 0 89.6-27.307 89.6-95.147v-44.373c0-67.84-25.6-95.147-89.6-95.147z" />
<glyph unicode="&#xe953;" d="M469.333 170.667v-128c0-23.467-19.2-42.667-42.667-42.667s-42.667 19.2-42.667 42.667v128h85.333z" />
<glyph unicode="&#xe954;" d="M640 170.667v-128c0-23.467-19.2-42.667-42.667-42.667s-42.667 19.2-42.667 42.667v128h85.333z" />
<glyph unicode="&#xe955;" d="M725.333 469.334v-213.333c0-46.933-38.4-85.333-85.333-85.333h-256c-46.933 0-85.333 38.4-85.333 85.333v213.333c0 46.933 38.4 85.333 85.333 85.333h256c46.933 0 85.333-38.4 85.333-85.333z" />
<glyph unicode="&#xe956;" d="M213.333 469.334v-170.667c0-23.467-19.2-42.667-42.667-42.667s-42.667 19.2-42.667 42.667v170.667c0 23.467 19.2 42.667 42.667 42.667s42.667-19.2 42.667-42.667z" />
<glyph unicode="&#xe957;" d="M896 469.334v-170.667c0-23.467-19.2-42.667-42.667-42.667s-42.667 19.2-42.667 42.667v170.667c0 23.467 19.2 42.667 42.667 42.667s42.667-19.2 42.667-42.667z" />
<glyph unicode="&#xe958;" d="M409.599 614.4h204.801c37.547 0 68.267 30.72 68.267 68.267 0 94.293-76.373 170.667-170.667 170.667s-170.667-76.373-170.667-170.667c0-37.547 30.719-68.267 68.266-68.267z" />
<glyph unicode="&#xe959;" d="M891.324 489.383c-17.493 0-32 14.507-32 32.002v122.453l-347.307 173.653-347.309-173.653v-122.453c0-17.495-14.507-32.002-32-32.002s-32 14.507-32 32.002v142.507c0 11.947 6.829 23.040 17.922 28.587l379.302 189.44c8.96 4.693 19.631 4.693 28.591 0l379.302-189.44c10.667-5.547 17.924-16.64 17.924-28.587v-142.080c-0.427-17.922-14.933-32.428-32.427-32.428z" />
<glyph unicode="&#xe95a;" d="M512.017-32c-5.12 0-9.818 1.28-14.084 3.413l-379.302 189.44c-10.667 5.547-17.922 16.64-17.922 28.587v142.080c0 17.493 14.507 32 32 32s32-14.507 32-32v-122.453l347.309-173.653 347.307 173.653v122.453c0 17.493 14.507 32 32 32s32-14.507 32-32v-142.080c0-11.947-6.831-23.040-17.924-28.587l-379.302-189.44c-4.267-2.133-8.96-3.413-14.080-3.413z" />
<glyph unicode="&#xe95b;" d="M701.466 426.663c0 104.535-84.911 189.442-189.444 189.442-104.531 0-189.438-84.907-189.438-189.442 0-93.867 68.694-171.52 158.295-186.453 0-1.28-0.427-2.133-0.427-2.987v-237.227c0-17.493 14.507-32 32-32s32 14.507 32 32v237.227c0 1.28-0.431 2.133-0.431 2.987 89.173 14.933 157.444 92.587 157.444 186.453z" />
<glyph unicode="&#xe95c;" d="M814.925 121.174c25.173 38.4 34.56 58.027 53.76 101.12-141.653 53.76-164.267 255.573-24.32 332.8-42.667 53.76-102.827 84.907-159.573 84.907-40.96 0-69.12-10.667-94.293-20.48-21.333-8.107-40.533-15.36-64.427-15.36-25.6 0-48.213 8.107-72.107 16.64-25.6 9.387-52.905 19.2-87.039 19.2-63.573 0-131.413-38.827-174.507-105.387-60.587-93.867-49.92-269.653 47.787-419.84 34.987-53.76 81.92-113.92 142.934-114.773 25.6-0.427 42.24 7.253 60.585 15.36 20.907 9.387 43.52 19.627 83.2 19.627 39.68 0.427 61.867-10.24 82.773-19.627 17.92-8.107 34.133-15.787 59.307-15.36 61.44 0.853 110.933 67.413 145.92 121.173z" />
<glyph unicode="&#xe95d;" d="M675.857 853.334c6.827-46.933-12.373-93.44-37.547-125.867-26.88-34.987-73.813-62.293-119.040-60.587-8.107 45.227 12.8 91.733 38.4 122.88 28.587 34.133 76.8 60.587 118.187 63.573z" />
<glyph unicode="&#xe95e;" d="M842.667 554.667c0 182.187-148.48 330.667-330.667 330.667s-330.667-148.48-330.667-330.667c0-17.493 14.507-32 32-32s32 14.507 32 32c0 147.2 119.467 266.667 266.667 266.667s266.667-119.467 266.667-266.667c0-147.2-119.467-266.667-266.667-266.667-17.493 0-32-14.507-32-32v-256c0-17.493 14.507-32 32-32s32 14.507 32 32v225.707c167.253 16.213 298.667 157.44 298.667 328.96z" />
<glyph unicode="&#xe95f;" d="M640 96h-256c-17.493 0-32 14.507-32 32s14.507 32 32 32h256c17.493 0 32-14.507 32-32s-14.507-32-32-32z" />
<glyph unicode="&#xe960;" d="M832 513.282v-385.281c0-85.333-21.333-128-128-128h-384c-106.667 0-128 42.667-128 128v385.281c6.827-0.853 14.080-1.28 21.333-1.28h597.333c7.253 0 14.507 0.427 21.333 1.28z" />
<glyph unicode="&#xe961;" d="M938.667 725.334v-85.333c0-78.080-35.413-120.32-106.667-126.72-6.827-0.853-14.080-1.28-21.333-1.28h-597.333c-7.253 0-14.507 0.427-21.333 1.28-71.253 6.4-106.667 48.64-106.667 126.72v85.333c0 85.333 42.667 128 128 128h597.333c85.333 0 128-42.667 128-128z" />
<glyph unicode="&#xe962;" d="M589.641 309.334h-155.307c-17.494 0-32 14.507-32 32s14.507 32 32 32h155.307c17.493 0 32-14.507 32-32s-14.507-32-32-32z" />
<glyph unicode="&#xe963;" d="M717.666 853.334h-411.306c-90.88 0-164.693-74.24-164.693-164.693v-601.173c0-76.8 55.040-109.227 122.453-72.107l208.213 115.627c22.187 12.373 58.027 12.373 79.787 0l208.213-115.627c67.413-37.547 122.453-5.12 122.453 72.107v601.173c-0.427 90.453-74.24 164.693-165.12 164.693z" />
<glyph unicode="&#xe964;" d="M512.030 500.049c-43.52 0-87.038 7.68-128.425 22.615-16.64 5.973-25.173 24.32-19.2 40.96 6.4 16.64 24.747 25.173 41.387 19.2 68.692-24.747 144.212-24.747 212.905 0 16.64 5.973 34.987-2.56 40.96-19.2s-2.56-34.987-19.2-40.96c-41.387-14.935-84.907-22.615-128.427-22.615z" />
<glyph unicode="&#xe965;" d="M690.765 853.334h-357.122c-155.307 0-247.893-92.587-247.893-247.893v-357.12c0-155.307 92.586-247.893 247.893-247.893h357.122c155.307 0 247.893 92.587 247.893 247.893v357.12c0 155.307-92.587 247.893-247.893 247.893z" />
<glyph unicode="&#xe966;" d="M810.667 298.667h-10.667v309.333c0 64.853-52.48 117.333-117.333 117.333h-341.333c-64.853 0-117.333-52.48-117.333-117.333v-309.333h-10.667c-17.493 0-32-14.507-32-32s14.507-32 32-32h163.841c14.507-61.013 69.545-106.667 134.825-106.667s120.32 45.653 134.827 106.667h163.84c17.493 0 32 14.507 32 32s-14.507 32-32 32zM716.373 431.787c-2.56 0.853-5.12 1.707-8.107 2.56-8.533 1.707-17.067 2.987-26.027 2.987h-341.334c-8.96 0-17.493-1.28-26.026-2.987-2.56-0.427-5.12-1.707-8.107-2.56-5.547-1.707-11.093-3.413-16.213-5.973-1.28-0.427-2.561-0.853-3.414-1.28v44.8c0 29.44 23.893 53.333 53.333 53.333h341.334c29.44 0 53.333-23.893 53.333-53.333v-44.8c-1.28 0.427-2.133 0.853-3.413 1.28-4.267 2.56-9.813 4.267-15.36 5.973zM341.333 661.334h341.333c29.44 0 53.333-23.893 53.333-53.333v-34.56c-16.213 8.107-34.133 13.227-53.333 13.227h-341.333c-19.2 0-37.12-5.12-53.333-13.227v34.56c0 29.44 23.893 53.333 53.333 53.333zM618.667 298.667c-17.493 0-32-14.507-32-32 0-40.96-33.707-74.667-74.667-74.667s-74.667 33.707-74.667 74.667c0 17.493-14.507 32-32 32h-117.333v21.333c0 29.44 23.893 53.333 53.333 53.333h341.333c29.44 0 53.333-23.893 53.333-53.333v-21.333h-117.333z" />
<glyph unicode="&#xe967;" d="M717.666 853.334h-411.306c-90.88 0-164.693-74.24-164.693-164.693v-601.173c0-76.8 55.040-109.227 122.453-72.107l208.213 115.627c22.187 12.373 58.027 12.373 79.787 0l208.213-115.627c67.413-37.547 122.453-5.12 122.453 72.107v601.173c-0.427 90.453-74.24 164.693-165.12 164.693z" />
<glyph unicode="&#xe968;" d="M618.667 516.269h-74.667v72.107c0 17.493-14.507 32-32 32s-32-14.507-32-32v-72.107h-74.667c-17.493 0-32-14.508-32-32.002s14.507-32 32-32h74.667v-77.227c0-17.493 14.507-32 32-32s32 14.507 32 32v77.227h74.667c17.493 0 32 14.507 32 32s-14.507 32.002-32 32.002z" />
<glyph unicode="&#xe969;" d="M896 640v-426.667c0-128-64-213.333-213.333-213.333h-341.333c-149.333 0-213.333 85.333-213.333 213.333v426.667c0 128 64 213.333 213.333 213.333h341.333c149.333 0 213.333-85.333 213.333-213.333z" />
<glyph unicode="&#xe96a;" d="M661.333 853.334v-335.36c0-18.774-22.187-28.16-35.84-15.787l-98.987 91.307c-8.107 7.68-20.907 7.68-29.013 0l-98.985-91.307c-13.653-12.8-35.841-2.987-35.841 15.787v335.36h298.667z" />
<glyph unicode="&#xe96b;" d="M746.667 309.334h-181.333c-17.493 0-32 14.507-32 32s14.507 32 32 32h181.333c17.493 0 32-14.507 32-32s-14.507-32-32-32z" />
<glyph unicode="&#xe96c;" d="M746.667 138.667h-362.667c-17.493 0-32 14.507-32 32s14.507 32 32 32h362.667c17.493 0 32-14.507 32-32s-14.507-32-32-32z" />
<glyph unicode="&#xe96d;" d="M717.666 853.334h-411.306c-90.88 0-164.693-74.24-164.693-164.693v-601.173c0-76.8 55.040-109.227 122.453-72.107l208.213 115.627c22.187 12.373 58.027 12.373 79.787 0l208.213-115.627c67.413-37.547 122.453-5.12 122.453 72.107v601.173c-0.427 90.453-74.24 164.693-165.12 164.693z" />
<glyph unicode="&#xe96e;" d="M618.667 452.271h-213.333c-17.493 0-32 14.507-32 32s14.507 32 32 32h213.333c17.493 0 32-14.507 32-32s-14.507-32-32-32z" />
<glyph unicode="&#xe96f;" d="M882.347 669.021v-581.546c0-76.8-55.040-109.227-122.027-72.107l-208.213 116.053c-22.187 11.947-58.027 11.947-80.213 0l-208.213-116.053c-17.92-9.813-34.987-14.933-50.347-15.36l669.013 669.012z" />
<glyph unicode="&#xe970;" d="M858.466 773.12l-713.813-713.813c-2.133 8.533-2.987 17.92-2.987 28.16v601.173c0 90.453 73.813 164.693 164.693 164.693h411.306c59.733 0 112.213-32 140.8-80.213z" />
<glyph unicode="&#xe971;" d="M928.892 843.525c-12.8 12.8-33.707 12.8-46.507 0l-787.202-787.628c-12.8-12.8-12.8-33.707 0-46.507 6.4-5.973 14.507-9.387 23.040-9.387s16.64 3.413 23.040 9.813l787.628 787.628c13.227 12.8 13.227 33.28 0 46.080z" />
<glyph unicode="&#xe972;" d="M717.666 857.167h-411.306c-90.453 0-164.693-74.24-164.693-164.693v-601.175c0-76.8 55.040-109.227 122.453-72.107l208.213 115.627c22.187 12.373 58.027 12.373 79.787 0l208.213-115.627c67.413-37.547 122.453-5.12 122.453 72.107v601.175c-0.427 90.453-74.24 164.693-165.12 164.693z" />
<glyph unicode="&#xe973;" d="M473.143 373.338c-8.107 0-16.213 2.987-22.613 9.387l-64 64c-12.373 12.373-12.373 32.853 0 45.227s32.853 12.373 45.227 0l41.387-41.387 148.053 148.052c12.373 12.373 32.853 12.373 45.227 0s12.373-32.853 0-45.227l-170.667-170.665c-6.4-6.4-14.507-9.387-22.613-9.387z" />
<glyph unicode="&#xe974;" d="M512-0c235.639 0 426.667 191.027 426.667 426.667 0 235.642-191.027 426.667-426.667 426.667-235.642 0-426.667-191.025-426.667-426.667 0-235.639 191.025-426.667 426.667-426.667z" />
<glyph unicode="&#xe975;" d="M741.986 543.575l-129.707 129.706c-2.987 2.987-6.4 5.12-10.24 6.827-7.68 3.413-16.64 3.413-24.32 0s-14.080-9.387-17.493-17.493c-1.707-3.84-2.56-8.106-2.56-12.372v-439.894c0-17.493 14.507-32 32-32s32 14.507 32 32v362.666l75.093-75.093c6.4-6.4 14.507-9.387 22.613-9.387s16.213 2.987 22.613 9.387c12.373 13.227 12.373 33.281 0 45.654z" />
<glyph unicode="&#xe976;" d="M466.351 650.667c0 17.493-14.507 32-32 32s-32-14.507-32-32v-362.667l-75.092 75.093c-12.373 12.373-32.855 12.373-45.228 0s-12.373-32.853 0-45.227l129.707-129.707c2.987-2.987 6.401-5.12 10.241-6.827s8.106-2.56 12.373-2.56c4.267 0 8.107 0.853 12.373 2.56 7.68 3.413 14.080 9.387 17.493 17.493 1.707 3.84 2.56 8.107 2.56 12.373v439.467h-0.427z" />
<glyph unicode="&#xe977;" d="M512-0c235.639 0 426.667 191.027 426.667 426.667 0 235.642-191.027 426.667-426.667 426.667-235.642 0-426.667-191.025-426.667-426.667 0-235.639 191.025-426.667 426.667-426.667z" />
<glyph unicode="&#xe978;" d="M761.596 361.383c-3.413 7.68-9.391 14.080-17.498 17.493-3.84 1.707-8.107 2.56-12.373 2.56h-439.892c-17.493 0-32-14.507-32-32s14.507-32 32-32h362.665l-75.093-75.093c-12.373-12.373-12.373-32.853 0-45.227 6.4-6.4 14.507-9.387 22.613-9.387s16.218 2.987 22.618 9.387l129.702 129.707c2.987 2.987 5.12 6.4 6.827 10.24 3.413 7.68 3.418 16.64 0.431 24.32z" />
<glyph unicode="&#xe979;" d="M731.725 536.316h-362.665l75.096 75.092c12.373 12.373 12.373 32.855 0 45.228s-32.855 12.373-45.228 0l-129.707-129.707c-2.987-2.987-5.12-6.401-6.827-10.241-3.413-7.68-3.413-16.64 0-24.32s9.387-14.080 17.494-17.493c3.84-1.707 8.107-2.56 12.374-2.56h439.895c17.493 0 32 14.507 32 32s-14.511 32-32.431 32z" />
<glyph unicode="&#xe97a;" d="M690.773 853.334h-357.547c-155.307 0-247.893-92.587-247.893-247.893v-357.12c0-155.733 92.587-248.32 247.893-248.32h357.12c155.307 0 247.893 92.587 247.893 247.893v357.547c0.427 155.307-92.16 247.893-247.467 247.893z" />
<glyph unicode="&#xe97b;" d="M761.583 361.383c-3.413 7.68-9.387 14.080-17.493 17.493-3.84 1.707-8.107 2.56-12.373 2.56h-439.466c-17.493 0-32-14.507-32-32s14.507-32 32-32h362.666l-75.093-75.093c-12.373-12.373-12.373-32.853 0-45.227 6.4-6.4 14.507-9.387 22.613-9.387s16.213 2.987 22.613 9.387l129.707 129.707c2.987 2.987 5.12 6.4 6.827 10.24 2.987 7.68 2.987 16.64 0 24.32z" />
<glyph unicode="&#xe97c;" d="M262.407 491.943c3.413-7.68 9.387-14.080 17.493-17.493 3.84-1.707 8.107-2.56 12.373-2.56h439.895c17.493 0 32 14.507 32 32s-14.507 32-32 32h-362.668l75.095 75.093c12.373 12.373 12.373 32.853 0 45.227s-32.855 12.373-45.228 0l-129.707-129.28c-2.987-2.987-5.547-6.827-7.253-10.667-2.987-7.68-2.987-16.64 0-24.32z" />
<glyph unicode="&#xe97d;" d="M690.773 853.334h-357.12c-155.733 0-248.32-92.587-248.32-247.893v-357.12c0-155.307 92.587-247.893 247.893-247.893h357.12c155.307 0 247.893 92.587 247.893 247.893v357.12c0.427 155.307-92.16 247.893-247.467 247.893z" />
<glyph unicode="&#xe97e;" d="M434.351 678.396c-17.494 0-32.001-14.507-32.001-32v-362.667l-75.093 75.093c-12.373 12.373-32.853 12.373-45.227 0s-12.373-32.853 0-45.227l129.707-129.707c2.987-2.987 6.4-5.12 10.24-6.827s8.108-2.56 12.374-2.56c4.267 0 8.107 0.853 12.373 2.56 7.68 3.413 14.080 9.387 17.493 17.493 1.707 3.84 2.56 8.107 2.56 12.373v439.467c-0.427 17.92-14.507 32-32.427 32z" />
<glyph unicode="&#xe97f;" d="M741.986 539.303l-129.707 129.707c-2.987 2.987-6.4 5.12-10.24 6.827-7.68 3.413-16.64 3.413-24.32 0s-14.080-9.387-17.493-17.493c-1.707-3.84-2.56-8.107-2.56-12.373v-439.893c0-17.493 14.507-32 32-32s32 14.507 32 32v362.667l75.093-75.093c6.4-6.4 14.507-9.387 22.613-9.387s16.213 2.987 22.613 9.387c12.373 13.227 12.373 33.28 0 45.653z" />
<glyph unicode="&#xe980;" d="M512-32c-17.493 0-32 14.507-32 32v85.333c0 17.493 14.507 32 32 32s32-14.507 32-32v-85.333c0-17.493-14.507-32-32-32z" />
<glyph unicode="&#xe981;" d="M512 138.667c-17.493 0-32 14.507-32 32v85.333c0 17.493 14.507 32 32 32s32-14.507 32-32v-85.333c0-17.493-14.507-32-32-32z" />
<glyph unicode="&#xe982;" d="M512 309.334c-17.493 0-32 14.507-32 32v128c0 182.187 148.48 330.667 330.667 330.667h128c17.493 0 32-14.507 32-32s-14.507-32-32-32h-128c-147.2 0-266.667-119.467-266.667-266.667v-128c0-17.493-14.507-32-32-32z" />
<glyph unicode="&#xe983;" d="M512 309.334c-17.493 0-32 14.507-32 32v128c0 147.2-119.467 266.667-266.667 266.667h-128c-17.493 0-32 14.507-32 32s14.507 32 32 32h128c182.187 0 330.667-148.48 330.667-330.667v-128c0-17.493-14.507-32-32-32z" />
<glyph unicode="&#xe984;" d="M170.644 650.67c-8.107 0-16.215 2.987-22.615 9.387l-85.333 85.333c-12.373 12.373-12.373 32.853 0 45.227l85.333 85.333c12.373 12.373 32.856 12.373 45.229 0s12.373-32.853 0-45.227l-62.721-62.72 62.721-62.72c12.373-12.373 12.373-32.853 0-45.227-6.4-6.4-14.508-9.387-22.615-9.387z" />
<glyph unicode="&#xe985;" d="M853.312 650.67c-8.107 0-16.213 2.987-22.613 9.387-12.373 12.373-12.373 32.853 0 45.227l62.72 62.72-62.72 62.72c-12.373 12.373-12.373 32.853 0 45.227s32.853 12.373 45.227 0l85.333-85.333c12.373-12.373 12.373-32.853 0-45.227l-85.333-85.333c-6.4-6.4-14.507-9.387-22.613-9.387z" />
<glyph unicode="&#xe986;" d="M928 651.512c0 8.533-3.413 16.639-9.387 22.612l-158.72 158.721c-12.373 12.373-32.853 12.373-45.227 0s-12.373-32.853 0-45.226l104.533-104.534h-691.2c-17.493 0-32-14.507-32-32s14.507-32 32-32h690.773l-104.107-104.107c-12.373-12.373-12.373-32.853 0-45.226 6.4-6.4 14.507-9.387 22.613-9.387s16.213 2.987 22.613 9.387l158.293 158.292c2.987 2.987 5.547 6.827 7.253 11.094 0 0.427 0 0.854 0.427 1.281 1.28 3.84 2.133 7.254 2.133 11.094z" />
<glyph unicode="&#xe987;" d="M896 233.805h-690.773l104.107 104.107c12.373 12.373 12.373 32.853 0 45.227s-32.853 12.373-45.227 0l-158.294-158.293c-2.987-2.987-5.546-6.827-7.252-11.093 0-0.427 0-0.853-0.427-1.28-1.28-3.413-2.133-7.253-2.133-11.093 0-8.533 3.412-16.64 9.385-22.613l158.721-158.72c6.4-6.4 14.505-9.387 22.612-9.387s16.215 2.987 22.615 9.387c12.373 12.373 12.373 32.853 0 45.227l-104.534 104.533h691.2c17.493 0 32 14.507 32 32s-14.507 32-32 32z" />
<glyph unicode="&#xe988;" d="M468.459 674.56l-158.293 158.294c-2.987 2.987-6.827 5.546-11.094 7.252-0.427 0-0.855 0-1.281 0.427-3.413 1.28-7.254 2.133-11.094 2.133-8.533 0-16.639-3.412-22.612-9.385l-158.721-158.721c-12.373-12.373-12.373-32.853 0-45.227s32.856-12.373 45.229 0l104.531 104.534v-691.2c0-17.493 14.507-32 32-32s32 14.507 32 32v690.773l104.107-104.107c6.401-6.4 14.508-9.385 22.615-9.385s16.213 2.985 22.613 9.385c12.373 12.373 12.373 32.427 0 45.227z" />
<glyph unicode="&#xe989;" d="M918.622 224c-12.373 12.373-32.853 12.373-45.227 0l-104.533-104.533v691.2c0 17.493-14.507 32-32 32s-32-14.507-32-32v-690.773l-104.107 104.107c-12.373 12.373-32.853 12.373-45.227 0s-12.373-32.853 0-45.227l158.293-158.293c2.987-2.987 6.827-5.547 11.093-7.253 0.427 0 0.853 0 1.28-0.427 3.413-1.28 7.253-2.133 11.093-2.133 8.533 0 16.64 3.413 22.613 9.387l158.72 158.72c12.373 12.8 12.373 32.853 0 45.227z" />
<glyph unicode="&#xe98a;" d="M512-0c235.639 0 426.667 191.027 426.667 426.667 0 235.642-191.027 426.667-426.667 426.667-235.642 0-426.667-191.025-426.667-426.667 0-235.639 191.025-426.667 426.667-426.667z" />
<glyph unicode="&#xe98b;" d="M512.009 298.245c-8.107 0-16.213 2.987-22.613 9.387l-150.615 150.613c-12.373 12.373-12.373 32.853 0 45.227s32.853 12.372 45.227 0l128.002-128 128 128c12.373 12.372 32.853 12.372 45.227 0s12.373-32.853 0-45.227l-150.613-150.613c-6.4-6.4-14.507-9.387-22.613-9.387z" />
<glyph unicode="&#xe98c;" d="M512-0c235.639 0 426.667 191.027 426.667 426.667 0 235.642-191.027 426.667-426.667 426.667-235.642 0-426.667-191.025-426.667-426.667 0-235.639 191.025-426.667 426.667-426.667z" />
<glyph unicode="&#xe98d;" d="M565.756 244.045c-8.107 0-16.213 2.987-22.613 9.387l-150.612 150.613c-12.373 12.373-12.373 32.853 0 45.227l150.612 150.615c12.373 12.373 32.853 12.373 45.227 0s12.373-32.853 0-45.227l-128-128.002 128-128c12.373-12.373 12.373-32.853 0-45.227-5.973-6.4-14.080-9.387-22.613-9.387z" />
<glyph unicode="&#xe98e;" d="M512-0c235.639 0 426.667 191.027 426.667 426.667 0 235.642-191.027 426.667-426.667 426.667-235.642 0-426.667-191.025-426.667-426.667 0-235.639 191.025-426.667 426.667-426.667z" />
<glyph unicode="&#xe98f;" d="M458.227 244.045c-8.107 0-16.213 2.987-22.613 9.387-12.374 12.373-12.374 32.853 0 45.227l128 128-128 128.002c-12.374 12.373-12.374 32.853 0 45.227s32.853 12.373 45.227 0l150.613-150.615c12.373-12.373 12.373-32.853 0-45.227l-150.613-150.613c-6.4-6.4-14.507-9.387-22.613-9.387z" />
<glyph unicode="&#xe990;" d="M512-0c235.639 0 426.667 191.027 426.667 426.667 0 235.642-191.027 426.667-426.667 426.667-235.642 0-426.667-191.025-426.667-426.667 0-235.639 191.025-426.667 426.667-426.667z" />
<glyph unicode="&#xe991;" d="M662.622 340.911c-8.107 0-16.213 2.987-22.613 9.387l-128 128-128.002-128c-12.373-12.373-32.853-12.373-45.227 0s-12.373 32.853 0 45.227l150.615 150.612c12.373 12.373 32.853 12.373 45.227 0l150.613-150.612c12.373-12.373 12.373-32.853 0-45.227-6.4-6.4-14.507-9.387-22.613-9.387z" />
<glyph unicode="&#xe992;" d="M85.333 247.894v357.547c0 155.307 92.587 247.893 247.893 247.893h357.12c155.733 0 248.32-92.587 248.32-247.893v-357.12c0-155.307-92.587-247.893-247.893-247.893h-357.547c-155.307-0.427-247.893 92.16-247.893 247.467z" />
<glyph unicode="&#xe993;" d="M489.404 148.054l-183.040 183.040c-12.373 12.373-12.373 32.853 0 45.227s32.853 12.373 45.227 0l128.427-128.427v434.773c0 17.493 14.507 32 32 32s32-14.507 32-32v-434.773l128.427 128.427c12.373 12.373 32.853 12.373 45.227 0 6.4-6.4 9.387-14.507 9.387-22.613s-2.987-16.213-9.387-22.613l-183.040-183.040c-5.973-5.973-14.080-9.387-22.613-9.387s-16.64 3.413-22.613 9.387z" />
<glyph unicode="&#xe994;" d="M512-0c235.639 0 426.667 191.027 426.667 426.667 0 235.642-191.027 426.667-426.667 426.667-235.642 0-426.667-191.025-426.667-426.667 0-235.639 191.025-426.667 426.667-426.667z" />
<glyph unicode="&#xe995;" d="M662.592 427.947c-12.373 12.373-32.853 12.373-45.227 0l-73.387-73.387v221.44c0 17.493-14.507 32-32 32s-32-14.507-32-32v-221.44l-73.389 73.387c-12.373 12.373-32.853 12.373-45.227 0s-12.373-32.853 0-45.227l128.002-128c6.4-6.4 14.507-9.387 22.613-9.387s16.213 2.987 22.613 9.387l128 128c12.373 12.373 12.373 32.853 0 45.227z" />
<glyph unicode="&#xe996;" d="M660.51 374.178l-161.707 215.468h-239.359c-40.96 0-61.44-49.493-32.426-78.508l221.012-221.013c35.413-35.413 93.013-35.413 128.427 0l84.053 84.053z" />
<glyph unicode="&#xe997;" d="M764.565 589.646h-265.813l161.707-215.468 136.96 136.96c28.587 29.014 8.107 78.508-32.853 78.508z" />
<glyph unicode="&#xe998;" d="M398.045 682.667h227.84c141.653 0 199.253-100.267 128.853-222.72l-31.573-54.613c-7.68-13.227-21.76-21.333-37.12-21.333h-348.16c-15.36 0-29.44 8.107-37.12 21.333l-31.573 54.613c-70.4 122.453-12.8 222.72 128.853 222.72z" />
<glyph unicode="&#xe999;" d="M375.022 341.334h274.348c16.64 0 26.88-17.92 18.347-32l-27.307-46.933c-70.4-122.453-186.453-122.453-256.855 0l-27.307 46.933c-8.107 14.080 2.133 32 18.773 32z" />
<glyph unicode="&#xe99a;" d="M333.227 853.334h357.12c155.733 0 248.32-92.587 248.32-247.893v-357.12c0-155.307-92.587-247.893-247.893-247.893h-357.547c-155.307-0.427-247.893 92.16-247.893 247.467v357.547c0 155.307 92.587 247.893 247.893 247.893z" />
<glyph unicode="&#xe99b;" d="M233.387 449.285l183.040 183.040c12.373 12.373 32.853 12.373 45.227 0s12.373-32.853 0-45.227l-128.427-128.427h434.773c17.493 0 32-14.507 32-32s-14.507-32-32-32h-434.773l128.427-128.427c12.373-12.373 12.373-32.853 0-45.227-6.4-6.4-14.507-9.387-22.613-9.387s-16.213 2.987-22.613 9.387l-183.040 183.040c-5.973 5.973-9.387 14.080-9.387 22.613s3.413 16.64 9.387 22.613z" />
<glyph unicode="&#xe99c;" d="M512-0c235.639 0 426.667 191.027 426.667 426.667 0 235.642-191.027 426.667-426.667 426.667-235.642 0-426.667-191.025-426.667-426.667 0-235.639 191.025-426.667 426.667-426.667z" />
<glyph unicode="&#xe99d;" d="M661.312 458.671h-221.44l73.387 73.385c12.373 12.373 12.373 32.853 0 45.227s-32.853 12.373-45.227 0l-128.002-127.998c-12.373-12.373-12.373-32.853 0-45.227l128.002-128c6.4-6.4 14.507-9.387 22.613-9.387s16.213 2.987 22.613 9.387c12.373 12.373 12.373 32.853 0 45.227l-73.387 73.387h221.44c17.493 0 32 14.507 32 32s-14.507 32-32 32z" />
<glyph unicode="&#xe99e;" d="M459.529 575.146l215.467-161.706v-239.36c0-40.96-49.493-61.44-78.507-32.427l-221.012 220.587c-35.413 35.413-35.413 93.013 0 128.427l84.052 84.479z" />
<glyph unicode="&#xe99f;" d="M674.965 679.257v-265.812l-215.467 161.705 136.96 136.96c29.013 28.587 78.507 8.107 78.507-32.853z" />
<glyph unicode="&#xe9a0;" d="M768 540.59v-227.839c0-141.653-100.267-199.253-222.72-128.853l-54.613 31.573c-13.227 7.68-21.333 21.76-21.333 37.12v348.159c0 15.36 8.107 29.44 21.333 37.12l54.613 31.574c122.453 70.4 222.72 12.8 222.72-128.854z" />
<glyph unicode="&#xe9a1;" d="M426.688 563.624v-274.348c0-16.64-17.918-26.88-31.998-18.347l-46.933 27.307c-122.453 70.4-122.453 186.453 0 256.855l46.933 27.307c14.080 8.107 31.998-2.133 31.998-18.773z" />
<glyph unicode="&#xe9a2;" d="M690.773 853.334h-357.547c-155.307 0-247.893-92.587-247.893-247.893v-357.12c0-155.733 92.587-248.32 247.893-248.32h357.12c155.307 0 247.893 92.587 247.893 247.893v357.547c0.427 155.307-92.16 247.893-247.467 247.893z" />
<glyph unicode="&#xe9a3;" d="M790.613 449.285l-183.040 183.040c-12.373 12.373-32.853 12.373-45.227 0s-12.373-32.853 0-45.227l128.427-128.427h-434.773c-17.493 0-32-14.507-32-32s14.507-32 32-32h434.773l-128.427-128.427c-12.373-12.373-12.373-32.853 0-45.227 6.4-6.4 14.507-9.387 22.613-9.387s16.213 2.987 22.613 9.387l183.040 183.040c5.973 5.973 9.387 14.080 9.387 22.613s-3.413 16.64-9.387 22.613z" />
<glyph unicode="&#xe9a4;" d="M512-0c235.639 0 426.667 191.027 426.667 426.667 0 235.642-191.027 426.667-426.667 426.667-235.642 0-426.667-191.025-426.667-426.667 0-235.639 191.025-426.667 426.667-426.667z" />
<glyph unicode="&#xe9a5;" d="M683.947 449.285l-128 127.998c-12.373 12.373-32.853 12.373-45.227 0s-12.373-32.853 0-45.227l73.387-73.385h-221.44c-17.493 0-32-14.507-32-32s14.507-32 32-32h221.44l-73.387-73.387c-12.373-12.373-12.373-32.853 0-45.227 6.4-6.4 14.507-9.387 22.613-9.387s16.213 2.987 22.613 9.387l128 128c12.373 12.373 12.373 32.853 0 45.227z" />
<glyph unicode="&#xe9a6;" d="M564.467 575.146l-215.467-161.706v-239.36c0-40.96 49.493-61.44 78.507-32.427l221.013 221.013c35.413 35.413 35.413 93.013 0 128.427l-84.053 84.052z" />
<glyph unicode="&#xe9a7;" d="M349 679.257v-265.812l215.467 161.705-136.96 136.96c-29.014 28.587-78.507 8.107-78.507-32.853z" />
<glyph unicode="&#xe9a8;" d="M256 540.59v-227.839c0-141.653 100.267-199.253 222.72-128.853l54.613 31.573c13.227 7.68 21.333 21.76 21.333 37.12v348.159c0 15.36-8.107 29.44-21.333 37.12l-54.613 31.574c-122.453 70.4-222.72 12.8-222.72-128.854z" />
<glyph unicode="&#xe9a9;" d="M597.333 563.624v-274.348c0-16.64 17.92-26.88 32-18.347l46.933 27.307c122.453 70.4 122.453 186.453 0 256.855l-46.933 27.307c-14.080 8.107-32-2.133-32-18.773z" />
<glyph unicode="&#xe9aa;" d="M690.765 853.334h-357.122c-155.307 0-247.893-92.587-247.893-247.893v-357.12c0-155.307 92.586-247.893 247.893-247.893h357.122c155.307 0 247.893 92.587 247.893 247.893v357.12c0 155.307-92.587 247.893-247.893 247.893z" />
<glyph unicode="&#xe9ab;" d="M825.579 585.805c-1.707 3.84-3.84 7.253-6.827 10.24l-76.796 76.8c-12.373 12.373-32.853 12.373-45.227 0s-12.373-32.853 0-45.226l22.182-22.187h-6.396c-83.2 0-155.311-45.653-194.991-112.64-39.253 66.987-111.358 112.64-194.558 112.64h-18.346l22.185 22.187c12.373 12.373 12.373 32.853 0 45.226s-32.853 12.373-45.227 0l-76.8-76.8c-12.373-12.373-12.373-32.853 0-45.227l76.8-76.8c6.4-6.4 14.508-9.387 22.615-9.387s16.212 2.987 22.612 9.387c12.373 12.373 12.373 32.853 0 45.227l-22.185 22.187h17.919c89.6 0 162.558-72.96 162.558-162.56v-176.213c0-17.493 14.507-32 32-32s32 14.507 32 32v176.213c0 89.6 72.96 162.56 162.987 162.56h6.404l-22.187-22.187c-12.373-12.373-12.373-32.853 0-45.227 6.4-6.4 14.502-9.387 22.609-9.387s16.213 2.987 22.613 9.387l76.8 76.8c2.987 2.987 5.124 6.4 6.831 10.24 3.84 8.107 3.836 17.067 0.422 24.747z" />
<glyph unicode="&#xe9ac;" d="M690.773 853.334h-357.547c-155.307 0-247.893-92.587-247.893-247.893v-357.12c0-155.733 92.587-248.32 247.893-248.32h357.12c155.307 0 247.893 92.587 247.893 247.893v357.547c0.427 155.307-92.16 247.893-247.467 247.893z" />
<glyph unicode="&#xe9ad;" d="M512.009 302.516c-8.107 0-16.213 2.987-22.613 9.387l-150.615 150.613c-12.373 12.373-12.373 32.853 0 45.227s32.853 12.372 45.227 0l128.002-128 128 128c12.373 12.372 32.853 12.372 45.227 0s12.373-32.853 0-45.227l-150.613-150.613c-6.4-6.4-14.507-9.387-22.613-9.387z" />
<glyph unicode="&#xe9ae;" d="M690.773 853.334h-357.547c-155.307 0-247.893-92.587-247.893-247.893v-357.12c0-155.733 92.587-248.32 247.893-248.32h357.12c155.307 0 247.893 92.587 247.893 247.893v357.547c0.427 155.307-92.16 247.893-247.467 247.893z" />
<glyph unicode="&#xe9af;" d="M565.756 244.045c-8.107 0-16.213 2.987-22.613 9.387l-150.612 150.613c-12.373 12.373-12.373 32.853 0 45.227l150.612 150.615c12.373 12.373 32.853 12.373 45.227 0s12.373-32.853 0-45.227l-128-128.002 128-128c12.373-12.373 12.373-32.853 0-45.227-5.973-6.4-14.080-9.387-22.613-9.387z" />
<glyph unicode="&#xe9b0;" d="M690.773 853.334h-357.547c-155.307 0-247.893-92.587-247.893-247.893v-357.12c0-155.733 92.587-248.32 247.893-248.32h357.12c155.307 0 247.893 92.587 247.893 247.893v357.547c0.427 155.307-92.16 247.893-247.467 247.893z" />
<glyph unicode="&#xe9b1;" d="M458.227 244.045c-8.107 0-16.213 2.987-22.613 9.387-12.374 12.373-12.374 32.853 0 45.227l128 128-128 128.002c-12.374 12.373-12.374 32.853 0 45.227s32.853 12.373 45.227 0l150.613-150.615c12.373-12.373 12.373-32.853 0-45.227l-150.613-150.613c-6.4-6.4-14.507-9.387-22.613-9.387z" />
<glyph unicode="&#xe9b2;" d="M690.773 853.334h-357.547c-155.307 0-247.893-92.587-247.893-247.893v-357.12c0-155.733 92.587-248.32 247.893-248.32h357.12c155.307 0 247.893 92.587 247.893 247.893v357.547c0.427 155.307-92.16 247.893-247.467 247.893z" />
<glyph unicode="&#xe9b3;" d="M662.622 332.369c-8.107 0-16.213 2.987-22.613 9.387l-128 128-128.002-128c-12.373-12.373-32.853-12.373-45.227 0s-12.373 32.853 0 45.227l150.615 150.612c12.373 12.373 32.853 12.373 45.227 0l150.613-150.612c12.373-12.373 12.373-32.853 0-45.227-6.4-6.4-14.507-9.387-22.613-9.387z" />
<glyph unicode="&#xe9b4;" d="M333.227 853.334h357.12c155.733 0 248.32-92.587 248.32-247.893v-357.12c0-155.307-92.587-247.893-247.893-247.893h-357.547c-155.307-0.427-247.893 92.16-247.893 247.467v357.547c0 155.307 92.587 247.893 247.893 247.893z" />
<glyph unicode="&#xe9b5;" d="M436.928 672c-17.921 0-32.001-14.507-32.001-32v-349.44l-71.253 71.253c-12.373 12.373-32.853 12.373-45.227 0s-12.373-32.853 0-45.227l125.867-125.867c2.987-2.987 6.4-5.12 10.24-6.827s8.108-2.56 12.375-2.56 8.107 0.853 12.373 2.56c7.68 3.413 14.080 9.387 17.493 17.493 1.707 3.84 2.56 8.107 2.56 12.373v426.24c-0.427 17.493-14.933 32-32.427 32z" />
<glyph unicode="&#xe9b6;" d="M735.565 536.747l-125.867 125.867c-2.987 2.987-6.4 5.12-10.24 6.827-7.68 3.413-16.64 3.413-24.32 0s-14.080-9.387-17.493-17.493c-1.707-3.84-2.56-7.68-2.56-11.947v-426.667c0-17.493 14.507-32 32-32s32 14.507 32 32v349.44l71.253-71.253c6.4-6.4 14.507-9.387 22.613-9.387s16.213 2.987 22.613 9.387c12.373 12.373 12.373 32.853 0 45.227z" />
<glyph unicode="&#xe9b7;" d="M333.227 853.334h357.12c155.733 0 248.32-92.587 248.32-247.893v-357.12c0-155.307-92.587-247.893-247.893-247.893h-357.547c-155.307-0.427-247.893 92.16-247.893 247.467v357.547c0 155.307 92.587 247.893 247.893 247.893z" />
<glyph unicode="&#xe9b8;" d="M754.773 363.529c-3.413 7.68-9.387 14.080-17.493 17.493-3.84 1.707-8.107 2.56-12.373 2.56h-426.24c-17.493 0-32-14.507-32-32s14.507-32 32-32h349.44l-71.253-71.253c-12.373-12.373-12.373-32.853 0-45.227 6.4-6.4 14.507-9.387 22.613-9.387s16.213 2.987 22.613 9.387l125.867 125.867c2.987 2.987 5.12 6.4 6.827 10.24 3.413 8.107 3.413 16.64 0 24.32z" />
<glyph unicode="&#xe9b9;" d="M269.227 489.814c3.413-7.68 9.387-14.080 17.493-17.493 3.84-1.707 7.68-2.56 11.947-2.56h426.667c17.493 0 32 14.507 32 32s-14.507 32.001-32 32.001h-349.44l71.253 71.253c12.373 12.373 12.373 32.853 0 45.227s-32.853 12.373-45.227 0l-125.867-125.867c-2.987-2.987-5.12-6.4-6.827-10.24-3.413-8.108-3.413-16.641 0-24.321z" />
<glyph unicode="&#xe9ba;" d="M938.667 605.44v-357.12c0-155.307-92.587-247.893-247.893-247.893h-357.547c-155.307-0.427-247.893 92.16-247.893 247.467v357.547c0 155.307 92.587 247.893 247.893 247.893h357.12c155.733 0 248.32-92.587 248.32-247.893z" />
<glyph unicode="&#xe9bb;" d="M534.652 705.28l183.040-183.040c12.373-12.373 12.373-32.853 0-45.227s-32.853-12.373-45.227 0l-128.427 128.427v-434.773c0-17.493-14.507-32-32-32s-32 14.507-32 32v434.773l-128.425-128.427c-12.373-12.373-32.853-12.373-45.227 0-6.4 6.4-9.387 14.507-9.387 22.613s3.413 16.64 9.387 22.613l183.038 183.040c5.973 5.973 14.080 9.387 22.613 9.387s16.64-3.413 22.613-9.387z" />
<glyph unicode="&#xe9bc;" d="M512-0c235.639 0 426.667 191.027 426.667 426.667 0 235.642-191.027 426.667-426.667 426.667-235.642 0-426.667-191.025-426.667-426.667 0-235.639 191.025-426.667 426.667-426.667z" />
<glyph unicode="&#xe9bd;" d="M662.592 470.618l-128 127.998c-12.373 12.373-32.853 12.373-45.227 0l-128.002-127.998c-12.373-12.373-12.373-32.853 0-45.227s32.853-12.373 45.227 0l73.389 73.387v-221.44c0-17.493 14.507-32 32-32s32 14.507 32 32v221.44l73.387-73.387c6.4-6.4 14.507-9.387 22.613-9.387s16.213 2.987 22.613 9.387c12.373 12.373 12.373 32.853 0 45.227z" />
<glyph unicode="&#xe9be;" d="M660.51 479.138l-161.707-215.467h-239.359c-40.96 0-61.44 49.493-32.426 78.507l221.012 221.012c35.413 35.413 93.013 35.413 128.427 0l84.053-84.052z" />
<glyph unicode="&#xe9bf;" d="M764.565 263.68h-265.813l161.707 215.467 136.96-136.96c28.587-29.013 8.107-78.507-32.853-78.507z" />
<glyph unicode="&#xe9c0;" d="M398.045 170.667h227.84c141.653 0 199.253 100.267 128.853 222.72l-31.573 54.613c-7.68 13.227-21.76 21.333-37.12 21.333h-348.16c-15.36 0-29.44-8.107-37.12-21.333l-31.573-54.613c-70.4-122.453-12.8-222.72 128.853-222.72z" />
<glyph unicode="&#xe9c1;" d="M375.022 511.996h274.348c16.64 0 26.88 17.922 18.347 32.002l-27.307 46.933c-70.4 122.453-186.453 122.453-256.855 0l-27.307-46.933c-8.107-14.080 2.133-32.002 18.773-32.002z" />
<glyph unicode="&#xe9c2;" d="M512-0c235.639 0 426.667 191.027 426.667 426.667 0 235.642-191.027 426.667-426.667 426.667-235.642 0-426.667-191.025-426.667-426.667 0-235.639 191.025-426.667 426.667-426.667z" />
<glyph unicode="&#xe9c3;" d="M520.525 197.125c-29.867 0-60.16 11.52-82.773 34.133-22.188 22.187-34.561 51.627-34.561 82.773s12.373 61.013 34.561 82.773l60.156 60.16c12.373 12.373 32.853 12.373 45.227 0s12.373-32.853 0-45.227l-60.156-60.16c-10.24-10.24-15.787-23.467-15.787-37.547s5.547-27.733 15.787-37.547c20.907-20.907 54.613-20.907 75.52 0l94.72 94.72c54.187 54.187 54.187 142.078 0 196.265s-142.080 54.187-196.267 0l-103.256-103.252c-21.76-21.76-33.705-50.347-33.705-80.64s11.945-59.307 33.705-80.64c12.373-12.373 12.373-32.853 0-45.227s-32.853-12.373-45.226 0c-33.707 33.707-52.052 78.507-52.052 126.293s18.345 92.587 52.052 126.293l103.255 103.252c78.934 78.933 207.788 78.933 286.721 0s78.933-207.786 0-286.719l-94.72-94.72c-23.040-23.467-52.907-34.987-83.2-34.987z" />
<glyph unicode="&#xe9c4;" d="M690.765 853.334h-357.122c-155.307 0-247.893-92.587-247.893-247.893v-357.12c0-155.307 92.586-247.893 247.893-247.893h357.122c155.307 0 247.893 92.587 247.893 247.893v357.12c0 155.307-92.587 247.893-247.893 247.893z" />
<glyph unicode="&#xe9c5;" d="M520.525 197.125c-29.867 0-60.16 11.52-82.773 34.133-22.188 22.187-34.561 51.627-34.561 82.773s12.373 61.013 34.561 82.773l60.156 60.16c12.373 12.373 32.853 12.373 45.227 0s12.373-32.853 0-45.227l-60.156-60.16c-10.24-10.24-15.787-23.467-15.787-37.547s5.547-27.733 15.787-37.547c20.907-20.907 54.613-20.907 75.52 0l94.72 94.72c54.187 54.187 54.187 142.078 0 196.265s-142.080 54.187-196.267 0l-103.256-103.252c-21.76-21.76-33.705-50.347-33.705-80.64s11.945-59.307 33.705-80.64c12.373-12.373 12.373-32.853 0-45.227s-32.853-12.373-45.226 0c-33.707 33.707-52.052 78.507-52.052 126.293s18.345 92.587 52.052 126.293l103.255 103.252c78.934 78.933 207.788 78.933 286.721 0s78.933-207.786 0-286.719l-94.72-94.72c-23.040-23.467-52.907-34.987-83.2-34.987z" />
<glyph unicode="&#xe9c6;" d="M690.765 853.334h-357.122c-155.307 0-247.893-92.587-247.893-247.893v-357.12c0-155.307 92.586-247.893 247.893-247.893h357.122c155.307 0 247.893 92.587 247.893 247.893v357.12c0 155.307-92.587 247.893-247.893 247.893z" />
<glyph unicode="&#xe9c7;" d="M666.415 635.735l-97.702 32.425c-24.747 8.533-49.92 5.122-69.12-8.531s-29.867-36.695-29.867-62.721v-204.374c-17.067 9.387-36.271 14.933-57.176 14.933-65.707 0-119.466-53.76-119.466-119.467s53.76-119.467 119.466-119.467c65.705 0 119.465 53.76 119.465 119.467v194.133c0.427-0.427 1.284-0.427 1.711-0.853l97.702-32.427c8.96-2.987 18.347-4.693 27.307-4.693 15.36 0 29.867 4.267 41.813 13.227 19.2 13.653 29.867 36.693 29.867 62.721v26.026c0 38.827-27.307 77.228-64 89.602zM412.55 230.827c-31.573 0-56.745 25.6-56.745 56.747 0 31.573 25.598 57.173 56.745 57.173 31.572 0 57.176-25.6 57.176-57.173 0-31.147-25.604-56.747-57.176-56.747z" />
<glyph unicode="&#xe9c8;" d="M458.705 834.131c29.867 25.173 78.080 25.173 107.093 0l67.413-57.6c12.8-10.667 37.12-19.627 54.187-19.627h72.533c45.227 0 82.347-37.12 82.347-82.347v-72.533c0-17.067 8.96-40.96 19.627-53.76l57.6-67.415c25.173-29.867 25.173-78.080 0-107.093l-57.6-67.413c-10.667-12.8-19.627-36.693-19.627-53.76v-72.533c0-45.227-37.12-82.347-82.347-82.347h-72.533c-17.067 0-40.96-8.96-53.76-19.627l-67.413-57.6c-29.867-25.173-78.080-25.173-107.093 0l-67.415 57.6c-12.8 10.667-37.12 19.627-53.76 19.627h-74.667c-45.227 0-82.347 37.12-82.347 82.347v72.96c0 16.64-8.533 40.96-19.2 53.333l-57.6 67.84c-24.747 29.44-24.747 77.227 0 106.667l57.6 67.841c10.667 12.8 19.2 36.693 19.2 53.333v72.107c0 45.227 37.12 82.347 82.347 82.347h73.813c17.067 0 40.96 8.96 53.76 19.627l67.842 58.027z" />
<glyph unicode="&#xe9c9;" d="M631.915 245.76l-119.893 270.080-119.891-270.080-58.88 26.027 149.331 335.786h58.88l149.333-335.786-58.88-26.027z" />
<glyph unicode="&#xe9ca;" d="M586.667 338.769h-149.333c-17.493 0-32 14.507-32 32s14.507 32 32 32h149.333c17.493 0 32-14.507 32-32s-14.507-32-32-32z" />
<glyph unicode="&#xe9cb;" d="M258.574 273.912l239.359 410.027c6.827 11.947 23.893 12.8 32 1.707l66.56-89.174c19.2-25.6 20.48-60.16 3.84-87.467l-142.507-228.267c-14.080-22.613-38.825-36.267-65.705-36.267h-116.906c-14.933 0.427-24.321 16.64-16.641 29.44z" />
<glyph unicode="&#xe9cc;" d="M650.244 410.868l-81.92-136.533c-7.68-12.8 1.707-29.44 16.64-29.44h163.84c14.933 0 24.32 16.213 16.64 29.44l-81.92 136.533c-7.253 12.373-25.6 12.373-33.28 0z" />
<glyph unicode="&#xe9cd;" d="M512-0c235.639 0 426.667 191.027 426.667 426.667 0 235.642-191.027 426.667-426.667 426.667-235.642 0-426.667-191.025-426.667-426.667 0-235.639 191.025-426.667 426.667-426.667z" />
<glyph unicode="&#xe9ce;" d="M765.85 609.703l-5.973 3.413-59.307 34.133-122.453 70.827c-37.547 21.76-94.72 21.76-132.267 0l-122.453-70.827-59.307-34.56-7.68-4.267c-76.373-51.2-81.493-60.587-81.493-142.933v-196.693c0-82.347 5.12-91.733 83.2-144.213l187.733-108.373c18.773-11.093 42.24-16.213 66.133-16.213 23.467 0 47.36 5.12 66.133 16.213l189.44 109.653c76.373 51.2 81.493 60.587 81.493 142.933v196.693c0 82.347-5.12 91.733-83.2 144.213z" />
<glyph unicode="&#xe9cf;" d="M264.083 612.694l59.307 34.56 116.909 67.413 5.547 3.413c37.547 21.76 94.72 21.76 132.267 0l5.547-3.413 176.213-101.547v91.307c0 96-52.907 148.907-148.907 148.907h-198.402c-96 0-148.48-52.907-148.48-148.907v-91.733z" />
<glyph unicode="&#xe9d0;" d="M633.161 369.494l-26.453-32.427c-4.267-4.693-7.253-14.080-6.827-20.48l2.56-41.813c1.707-25.6-16.64-38.827-40.533-29.44l-38.827 15.36c-5.973 2.133-16.213 2.133-22.187 0l-38.827-15.36c-23.893-9.387-42.238 3.84-40.531 29.44l2.56 41.813c0.427 6.4-2.56 15.787-6.827 20.48l-26.453 32.427c-16.64 19.627-9.387 41.387 15.36 47.787l40.531 10.24c6.4 1.707 14.080 7.68 17.493 13.227l22.613 34.987c14.080 21.76 36.267 21.76 50.347 0l22.613-34.987c3.413-5.547 11.093-11.52 17.493-13.227l40.533-10.24c24.747-6.4 32-28.16 15.36-47.787z" />
<glyph unicode="&#xe9d1;" d="M690.773 853.334h-357.12c-155.733 0-248.32-92.587-248.32-247.893v-357.12c0-155.307 92.587-247.893 247.893-247.893h357.12c155.307 0 247.893 92.587 247.893 247.893v357.12c0.427 155.307-92.16 247.893-247.467 247.893z" />
<glyph unicode="&#xe9d2;" d="M593.899 576.851h-219.735l14.080 14.080c12.373 12.373 12.373 32.853 0 45.227s-32.853 12.373-45.227 0l-66.987-66.987c-12.373-12.373-12.373-32.853 0-45.227l66.987-66.988c6.4-6.4 14.507-9.387 22.613-9.387s16.213 2.987 22.613 9.387c12.373 12.373 12.373 32.853 0 45.227l-11.093 11.095h216.749c54.613 0 99.413-44.375 99.413-99.415s-44.378-99.413-99.413-99.413h-209.922c-17.493 0-32-14.507-32-32s14.507-32 32-32h209.922c90.027 0 163.413 73.387 163.413 163.413s-73.387 162.988-163.413 162.988z" />
<glyph unicode="&#xe9d3;" d="M938.675 582.834v-312.319c0-64-69.542-104.107-125.009-72.107l-291.418 168.107v120.32l20.911 11.947 270.507 156.159c55.467 32 125.009-8.107 125.009-72.107z" />
<glyph unicode="&#xe9d4;" d="M522.214 582.834v-312.319c0-64-69.542-104.107-124.584-72.107l-270.934 156.16c-55.040 32-55.040 112.213 0 144.213l270.934 156.159c55.042 32 124.584-8.107 124.584-72.107z" />
<glyph unicode="&#xe9d5;" d="M528.239 216.756h-97.707c-17.493 0-32 14.507-32 32s14.507 32 32 32h97.707c18.347 0 33.28 14.933 33.28 33.28s-14.933 33.28-33.28 33.28h-97.707c-10.24 0-20.052 5.12-26.026 13.227s-7.68 19.2-4.267 29.013l32.426 97.707c4.267 13.227 16.64 21.76 30.293 21.76h130.56c17.493 0 32-14.507 32-32s-14.507-32-32-32h-107.52l-11.093-33.707h53.333c53.76 0 97.28-43.52 97.28-97.28s-43.52-97.28-97.28-97.28z" />
<glyph unicode="&#xe9d6;" d="M511.991 790.19c-3.413 0-6.822-0.427-10.236-0.427l34.982 43.521c11.093 13.653 8.96 34.133-5.12 44.8s-33.702 8.96-44.796-5.12l-84.483-105.388c-0.427-0.427-0.426-1.279-0.853-1.706-1.28-1.707-2.134-3.84-2.987-5.974-0.853-1.707-1.706-3.414-2.132-5.547s-0.427-3.84-0.427-5.974c0-2.133 0-4.265 0-6.398 0-0.853 0-1.28 0-2.133 0.427-1.28 1.28-2.561 1.707-3.841 0.853-2.133 1.707-3.84 2.56-5.974 1.28-1.707 2.56-3.413 3.84-4.693 0.853-1.28 1.707-2.56 2.987-3.414 0.427-0.427 1.279-0.852 2.132-1.279 1.28-0.853 2.561-1.28 3.414-2.133 2.133-1.28 4.692-2.133 7.252-2.56 1.28-0.427 2.56-0.428 3.84-0.854 1.28 0 2.134-0.427 3.416-0.427 1.28 0 2.129 0.428 2.982 0.854 1.28 0 2.564-0.427 3.844 0 27.307 6.4 52.907 9.385 77.227 9.385 191.573 0 347.302-155.734 347.302-347.308s-155.729-347.302-347.302-347.302c-191.575 0-347.309 155.729-347.309 347.302 0 74.24 24.32 145.923 70.4 207.363 10.667 14.080 7.68 34.133-6.4 44.8s-34.132 7.679-44.799-6.401c-54.613-72.533-83.201-157.441-83.201-245.761 0-226.56 184.321-411.302 411.309-411.302 226.987 0 411.302 184.316 411.302 411.302s-183.893 412.589-410.453 412.589z" />
<glyph unicode="&#xe9d7;" d="M407.021 227.409c-17.493 0-32 14.507-32 32v144.64l-8.107-8.96c-11.947-13.227-32-14.080-45.227-2.56-13.227 11.947-14.080 32-2.56 45.227l64 71.253c8.96 9.814 23.040 13.228 35.413 8.535s20.478-16.641 20.478-29.868v-228.267c0-17.92-14.078-32-31.998-32z" />
<glyph unicode="&#xe9d8;" d="M511.983 790.198c-3.413 0-6.827-0.427-10.24-0.427l34.987 43.521c11.093 13.653 8.96 34.133-5.12 44.8-13.653 11.093-33.707 8.96-44.8-5.12l-84.48-105.388c-0.427-0.427-0.426-1.279-0.853-1.705-1.28-1.707-2.134-3.841-2.987-5.974-0.853-1.707-1.706-3.413-2.133-5.547s-0.427-3.841-0.427-5.974c0-2.133 0-4.265 0-6.398 0-0.853 0-1.28 0-2.133 0.427-1.28 1.28-2.561 1.707-3.841 0.853-2.133 1.28-3.84 2.56-5.547s2.56-3.413 4.267-5.12c0.853-0.853 1.28-2.133 2.56-2.987 0.427-0.427 1.279-0.428 1.706-0.854 1.28-0.853 2.56-1.706 4.267-2.133 2.133-1.28 4.266-2.133 6.4-2.56 1.28-0.427 2.987-0.425 4.267-0.852 1.28 0 2.134-0.427 3.413-0.427 0.853 0 2.133 0.425 2.987 0.852 1.28 0 2.56 0 4.267 0 27.307 6.4 52.907 9.388 77.227 9.388 191.573 0 347.307-155.734 347.307-347.309 0-191.573-155.733-347.307-347.307-347.307s-347.306 155.733-347.306 347.307c0 74.24 24.32 145.921 70.4 207.361 10.667 14.080 7.68 34.135-6.4 44.802s-34.134 7.679-44.801-6.401c-54.613-72.533-83.199-157.442-83.199-245.762 0-226.56 184.319-411.307 411.306-411.307s411.307 184.32 411.307 411.307c0 226.988-184.32 411.736-410.88 411.736z" />
<glyph unicode="&#xe9d9;" d="M597.333 227.422c-64.853 0-117.333 52.48-117.333 117.333v57.6c0 64.853 52.48 117.332 117.333 117.332s117.333-52.479 117.333-117.332v-57.6c0-64.853-52.48-117.333-117.333-117.333zM597.333 455.262c-29.44 0-53.333-23.893-53.333-53.333v-57.6c0-29.44 23.893-53.333 53.333-53.333s53.333 23.893 53.333 53.333v57.6c0 29.44-23.893 53.333-53.333 53.333z" />
<glyph unicode="&#xe9da;" d="M615.654 216.756h-97.702c-17.493 0-32 14.507-32 32s14.507 32 32 32h97.702c18.347 0 33.284 14.933 33.284 33.28s-14.938 33.28-33.284 33.28h-97.702c-10.24 0-20.053 5.12-26.027 13.227s-7.684 19.2-4.271 29.013l32.427 97.707c4.267 13.227 16.644 21.76 30.298 21.76h130.56c17.493 0 32-14.507 32-32s-14.507-32-32-32h-107.524l-11.093-33.707h53.333c53.76 0 97.284-43.52 97.284-97.28s-43.951-97.28-97.284-97.28z" />
<glyph unicode="&#xe9db;" d="M407.021 216.756c-17.493 0-32 14.507-32 32v144.636l-8.107-9.382c-11.947-13.227-32-14.080-45.227-2.56-13.227 11.947-14.080 32-2.56 45.227l64 71.253c8.96 9.813 23.041 13.227 35.414 8.533 12.375-4.693 20.477-16.64 20.477-29.867v-228.267c0-17.493-14.078-31.573-31.998-31.573z" />
<glyph unicode="&#xe9dc;" d="M511.991 790.19c-3.413 0-6.827-0.427-10.24-0.427l34.987 43.521c11.093 13.653 8.96 34.133-5.12 44.8s-33.707 8.96-44.8-5.12l-84.48-105.388c-0.427-0.427-0.428-1.279-0.854-1.706-1.28-1.707-2.131-3.84-2.985-5.974-0.853-1.707-1.708-3.414-2.135-5.547s-0.424-3.84-0.424-5.974c0-2.133 0-4.265 0-6.398 0-0.853 0-1.28 0-2.133 0.427-1.28 1.279-2.561 1.705-3.841 0.853-2.133 1.707-3.84 2.56-5.974 1.28-1.707 2.559-3.413 4.266-4.693 0.853-0.853 1.706-2.134 2.56-3.414 0.427-0.427 1.282-0.425 1.708-0.852 1.28-0.853 2.559-1.282 3.839-2.135 2.133-1.28 4.695-2.133 6.828-2.56 1.28-0.427 2.559-0.425 4.266-0.852 1.28 0 2.134-0.427 3.413-0.427s2.133 0.428 2.987 0.854c1.28 0 2.56-0.427 3.84 0 27.307 6.4 52.907 9.385 77.227 9.385 191.573 0 347.307-155.734 347.307-347.308 0-191.573-155.733-347.307-347.307-347.307s-347.305 155.733-347.305 347.307c0 74.24 24.319 145.92 70.399 207.36 10.667 14.080 7.681 34.135-6.399 44.802s-34.135 7.679-44.802-6.401c-54.613-72.533-83.198-157.442-83.198-245.762 0-226.56 184.318-411.307 411.305-411.307s411.307 184.32 411.307 411.307c0 226.988-183.893 412.163-410.453 412.163z" />
<glyph unicode="&#xe9dd;" d="M906.667 718.934v-115.201c0-78.507-23.893-102.4-102.4-102.4h-115.2c-78.507 0-102.4 23.893-102.4 102.4v115.201c0 78.507 23.893 102.4 102.4 102.4h115.2c78.507 0 102.4-23.893 102.4-102.4z" />
<glyph unicode="&#xe9de;" d="M437.333 249.6v-115.2c0-78.507-23.893-102.4-102.4-102.4h-115.2c-78.507 0-102.4 23.893-102.4 102.4v115.2c0 78.507 23.893 102.4 102.4 102.4h115.2c78.507 0 102.4-23.893 102.4-102.4z" />
<glyph unicode="&#xe9df;" d="M709.508 437.329v-79.787c0-97.28-31.147-128.427-128.427-128.427h-79.787v20.48c0 113.493-52.907 166.4-166.398 166.4h-20.48v79.787c0 97.279 31.147 128.426 128.425 128.426h79.787v-20.48c0-113.492 52.907-166.399 166.4-166.399h20.48z" />
<glyph unicode="&#xe9e0;" d="M820.907 700.584h-17.067l-144.213 144.213c-11.52 11.52-30.293 11.52-42.24 0-11.52-11.52-11.52-30.293 0-42.24l101.973-101.973h-414.72l101.973 101.973c11.52 11.52 11.52 30.293 0 42.24-11.52 11.52-30.293 11.52-42.24 0l-143.787-144.213h-17.067c-38.4 0-118.187 0-118.187-109.227 0-41.387 8.533-68.693 26.453-86.615 10.24-10.667 22.613-16.213 35.84-19.2 12.373-2.987 25.6-3.413 38.4-3.413h651.947c13.227 0 25.6 0.853 37.547 3.413 35.84 8.533 63.147 34.135 63.147 105.815 0 109.227-79.787 109.227-117.76 109.227z" />
<glyph unicode="&#xe9e1;" d="M838.438 482.129h-652.372c-12.8 0-26.027 0.427-38.4 3.413l53.76-327.68c11.947-73.387 43.947-157.867 186.027-157.867h239.358c143.787 0 169.387 72.107 184.747 152.747l64.427 332.8c-11.947-2.56-24.747-3.413-37.547-3.413zM452.732 206.503c0-16.64-13.227-29.867-29.865-29.867-16.64 0-29.867 13.227-29.867 29.867v140.8c0 16.64 13.227 29.867 29.867 29.867 16.638 0 29.865-13.227 29.865-29.867v-140.8zM635.345 206.503c0-16.64-13.227-29.867-29.867-29.867s-29.867 13.227-29.867 29.867v140.8c0 16.64 13.227 29.867 29.867 29.867s29.867-13.227 29.867-29.867v-140.8z" />
<glyph unicode="&#xe9e2;" d="M690.748 560.645c-16.64 0-29.867 13.227-29.867 29.867v54.613c0 41.813-17.92 81.92-48.64 110.080-31.573 28.587-72.107 41.813-114.773 37.973-71.681-6.827-134.401-79.787-134.401-155.733v-38.4c0-16.64-13.227-29.867-29.867-29.867s-29.866 13.227-29.866 29.867v38.4c0 106.667 86.187 205.227 188.161 215.040 59.307 5.547 116.48-13.227 160.427-53.333 43.52-39.253 68.267-95.573 68.267-154.027v-54.613c0-16.64-13.227-29.867-29.44-29.867z" />
<glyph unicode="&#xe9e3;" d="M851.614 556.37c-35.84 39.68-94.72 58.88-180.907 58.88h-317.438c-86.187 0-145.067-19.2-180.907-58.88-41.387-46.081-40.107-107.521-35.413-150.188l29.867-237.653c8.96-83.2 42.667-168.533 226.133-168.533h238.078c183.467 0 217.173 85.333 226.133 168.107l29.867 238.507c4.693 42.24 5.547 103.68-35.413 149.761zM359.243 377.596h-0.427c-23.467 0-42.667 19.2-42.667 42.667s19.2 42.667 42.667 42.667c23.893 0 43.093-19.2 43.093-42.667s-19.2-42.667-42.667-42.667zM657.907 377.596h-0.427c-23.467 0-42.667 19.2-42.667 42.667s19.2 42.667 42.667 42.667c23.893 0 43.093-19.2 43.093-42.667s-19.2-42.667-42.667-42.667z" />
<glyph unicode="&#xe9e4;" d="M820.907 700.584h-17.067l-144.213 144.213c-11.52 11.52-30.293 11.52-42.24 0-11.52-11.52-11.52-30.293 0-42.24l101.973-101.973h-414.72l101.973 101.973c11.52 11.52 11.52 30.293 0 42.24-11.52 11.52-30.293 11.52-42.24 0l-143.787-144.213h-17.067c-38.4 0-118.187 0-118.187-109.227 0-41.387 8.533-68.693 26.453-86.615 10.24-10.667 22.613-16.213 35.84-19.2 12.373-2.987 25.6-3.413 38.4-3.413h651.947c13.227 0 25.6 0.853 37.547 3.413 35.84 8.533 63.147 34.135 63.147 105.815 0 109.227-79.787 109.227-117.76 109.227z" />
<glyph unicode="&#xe9e5;" d="M838.865 482.129h-652.798c-12.373 0-26.027 0.427-38.4 3.84l53.76-328.107c12.373-73.387 44.373-157.867 186.453-157.867h239.358c143.787 0 169.387 72.107 184.747 152.747l64.427 333.227c-11.947-2.987-24.747-3.84-37.547-3.84zM593.958 175.356c-6.4-6.4-14.507-9.387-22.613-9.387s-16.213 2.987-22.613 9.387l-36.267 36.267-37.547-37.547c-6.4-6.4-14.507-9.387-22.613-9.387s-16.213 2.987-22.613 9.387c-12.372 12.373-12.372 32.853 0 45.227l37.547 37.547-36.267 36.267c-12.372 12.373-12.372 32.853 0 45.227s32.853 12.373 45.227 0l36.267-36.267 34.987 34.987c12.373 12.373 32.853 12.373 45.227 0s12.373-32.853 0-45.227l-34.987-34.987 36.267-36.267c12.8-12.8 12.8-32.853 0-45.227z" />
<glyph unicode="&#xe9e6;" d="M690.748 560.645c-16.64 0-29.867 13.227-29.867 29.867v54.613c0 41.813-17.92 81.92-48.64 110.080-31.573 28.587-72.107 41.813-114.773 37.973-71.681-6.827-134.401-79.787-134.401-155.733v-38.4c0-16.64-13.227-29.867-29.867-29.867s-29.866 13.227-29.866 29.867v38.4c0 106.667 86.187 205.227 188.161 215.040 59.307 5.547 116.48-13.227 160.427-53.333 43.52-39.253 68.267-95.573 68.267-154.027v-54.613c0-16.64-13.227-29.867-29.44-29.867z" />
<glyph unicode="&#xe9e7;" d="M851.614 556.37c-35.84 39.68-94.72 58.88-180.907 58.88h-317.438c-86.187 0-145.067-19.2-180.907-58.88-41.387-46.081-40.107-107.521-35.413-150.188l29.867-237.653c8.96-83.2 42.667-168.533 226.133-168.533h238.078c183.467 0 217.173 85.333 226.133 168.107l29.867 238.507c4.693 42.24 5.973 103.68-35.413 149.761zM511.987 145.916c-89.171 0-161.705 72.533-161.705 161.707s72.533 161.707 161.705 161.707c89.173 0 161.707-72.533 161.707-161.707s-72.533-161.707-161.707-161.707z" />
<glyph unicode="&#xe9e8;" d="M512.038 145.92c89.31 0 161.707 72.397 161.707 161.707s-72.397 161.707-161.707 161.707c-89.306 0-161.705-72.397-161.705-161.707s72.399-161.707 161.705-161.707z" />
<glyph unicode="&#xe9e9;" d="M580.228 285.445l-22.613 22.613 21.333 21.333c12.373 12.373 12.373 32.853 0 45.227s-32.853 12.373-45.227 0l-21.333-21.333-22.613 22.613c-12.373 12.373-32.853 12.373-45.227 0s-12.373-32.853 0-45.227l22.613-22.613-23.467-23.467c-12.373-12.373-12.373-32.853 0-45.227 6.4-6.4 14.507-9.387 22.613-9.387s16.213 2.987 22.613 9.387l23.467 23.467 22.613-22.613c6.4-6.4 14.507-9.387 22.613-9.387s16.213 2.987 22.613 9.387c12.373 12.373 12.373 32.427 0 45.227z" />
<glyph unicode="&#xe9ea;" d="M820.907 700.584h-17.067l-144.213 144.213c-11.52 11.52-30.293 11.52-42.24 0-11.52-11.52-11.52-30.293 0-42.24l101.973-101.973h-414.72l101.973 101.973c11.52 11.52 11.52 30.293 0 42.24-11.52 11.52-30.293 11.52-42.24 0l-143.787-144.213h-17.067c-38.4 0-118.187 0-118.187-109.227 0-41.387 8.533-68.693 26.453-86.615 10.24-10.667 22.613-16.213 35.84-19.2 12.373-2.987 25.6-3.413 38.4-3.413h651.947c13.227 0 25.6 0.853 37.547 3.413 35.84 8.533 63.147 34.135 63.147 105.815 0 109.227-79.787 109.227-117.76 109.227z" />
<glyph unicode="&#xe9eb;" d="M838.438 482.129h-652.372c-12.373 0-26.027 0.427-38.4 3.84l53.76-328.107c11.947-73.387 43.947-157.867 186.027-157.867h239.358c143.787 0 169.387 72.107 184.747 152.747l64.427 333.227c-11.947-2.987-24.747-3.84-37.547-3.84zM512.038 149.329c-99.838 0-181.332 81.493-181.332 181.333 0 17.493 14.507 32 32 32s32-14.507 32-32c0-64.853 52.478-117.333 117.332-117.333s117.333 52.48 117.333 117.333c0 17.493 14.507 32 32 32s32-14.507 32-32c0-99.84-81.493-181.333-181.333-181.333z" />
<glyph unicode="&#xe9ec;" d="M820.907 700.584h-17.067l-144.213 144.213c-11.52 11.52-30.293 11.52-42.24 0-11.52-11.52-11.52-30.293 0-42.24l101.973-101.973h-414.72l101.973 101.973c11.52 11.52 11.52 30.293 0 42.24-11.52 11.52-30.293 11.52-42.24 0l-143.787-144.213h-17.067c-38.4 0-118.187 0-118.187-109.227 0-41.387 8.533-68.693 26.453-86.615 10.24-10.667 22.613-16.213 35.84-19.2 12.373-2.987 25.6-3.413 38.4-3.413h651.947c13.227 0 25.6 0.853 37.547 3.413 35.84 8.533 63.147 34.135 63.147 105.815 0 109.227-79.787 109.227-117.76 109.227z" />
<glyph unicode="&#xe9ed;" d="M838.865 482.129h-652.798c-12.373 0-26.027 0.427-38.4 3.84l53.76-328.107c12.373-73.387 44.373-157.867 186.453-157.867h239.358c143.787 0 169.387 72.107 184.747 152.747l64.427 333.227c-11.947-2.987-24.747-3.84-37.547-3.84zM634.918 296.529l-138.667-128c-5.973-5.547-14.080-8.533-21.76-8.533-8.107 0-16.213 2.987-22.613 9.387l-63.998 64c-12.373 12.373-12.373 32.853 0 45.227s32.853 12.373 45.225 0l42.24-42.24 116.053 107.093c12.8 11.947 33.28 11.093 45.227-1.707 12.373-13.227 11.52-33.28-1.707-45.227z" />
<glyph unicode="&#xe9ee;" d="M690.748 560.645c-16.64 0-29.867 13.227-29.867 29.867v54.613c0 41.813-17.92 81.92-48.64 110.080-31.573 28.587-72.107 41.813-114.773 37.973-71.681-6.827-134.401-79.787-134.401-155.733v-38.4c0-16.64-13.227-29.867-29.867-29.867s-29.866 13.227-29.866 29.867v38.4c0 106.667 86.187 205.227 188.161 215.040 59.307 5.547 116.48-13.227 160.427-53.333 43.52-39.253 68.267-95.573 68.267-154.027v-54.613c0-16.64-13.227-29.867-29.44-29.867z" />
<glyph unicode="&#xe9ef;" d="M851.614 556.37c-35.84 39.68-94.72 58.88-180.907 58.88h-317.438c-86.187 0-145.067-19.2-180.907-58.88-41.387-46.081-40.107-107.521-35.413-150.188l29.867-237.653c8.96-83.2 42.667-168.533 226.133-168.533h238.078c183.467 0 217.173 85.333 226.133 168.107l29.867 238.507c4.693 42.24 5.973 103.68-35.413 149.761zM511.987 145.916c-89.171 0-161.705 72.533-161.705 161.707s72.533 161.707 161.705 161.707c89.173 0 161.707-72.533 161.707-161.707s-72.533-161.707-161.707-161.707z" />
<glyph unicode="&#xe9f0;" d="M512.038 145.92c89.31 0 161.707 72.397 161.707 161.707s-72.397 161.707-161.707 161.707c-89.306 0-161.705-72.397-161.705-161.707s72.399-161.707 161.705-161.707z" />
<glyph unicode="&#xe9f1;" d="M487.718 228.694c-8.107 0-16.213 2.987-22.613 9.387l-42.242 42.24c-12.373 12.373-12.373 32.853 0 45.227 12.375 12.373 32.855 12.373 45.228 0l20.48-20.48 68.267 63.147c12.8 11.947 33.28 11.093 45.227-1.707s11.093-33.28-1.707-45.227l-90.88-84.053c-6.4-5.547-14.080-8.533-21.76-8.533z" />
<glyph unicode="&#xe9f2;" d="M690.748 560.645c-16.64 0-29.867 13.227-29.867 29.867v54.613c0 41.813-17.92 81.92-48.64 110.080-31.573 28.587-72.107 41.813-114.773 37.973-71.681-6.827-134.401-79.787-134.401-155.733v-38.4c0-16.64-13.227-29.867-29.867-29.867s-29.866 13.227-29.866 29.867v38.4c0 106.667 86.187 205.227 188.161 215.040 59.307 5.547 116.48-13.227 160.427-53.333 43.52-39.253 68.267-95.573 68.267-154.027v-54.613c0-16.64-13.227-29.867-29.44-29.867z" />
<glyph unicode="&#xe9f3;" d="M851.614 556.37c-35.84 39.68-94.72 58.88-180.907 58.88h-317.438c-86.187 0-145.067-19.2-180.907-58.88-41.387-46.081-40.107-107.521-35.413-150.188l29.867-237.653c8.96-83.2 42.667-168.533 226.133-168.533h238.078c183.467 0 217.173 85.333 226.133 168.107l29.867 238.507c4.693 42.24 5.973 103.68-35.413 149.761zM511.987 145.916c-89.171 0-161.705 72.533-161.705 161.707s72.533 161.707 161.705 161.707c89.173 0 161.707-72.533 161.707-161.707s-72.533-161.707-161.707-161.707z" />
<glyph unicode="&#xe9f4;" d="M673.745 307.627c0-89.173-72.533-161.707-161.707-161.707-89.172 0-161.705 72.533-161.705 161.707s72.533 161.707 161.705 161.707c89.173 0 161.707-72.533 161.707-161.707z" />
<glyph unicode="&#xe9f5;" d="M469.329 231.249c-10.667 0-21.333 5.547-27.307 15.36-8.96 14.933-4.267 34.987 11.093 43.947l37.973 22.613v46.080c0 17.493 14.507 32 32 32s31.573-14.080 31.573-32v-64c0-11.093-5.973-21.76-15.36-27.307l-53.333-32c-5.12-2.987-11.093-4.693-16.64-4.693z" />
<glyph unicode="&#xe9f6;" d="M501.76 848.171c-3.285-0.853-93.141-36.437-199.68-79.061-208.939-83.627-203.477-81.109-212.096-97.28-3.755-7.040-3.797-7.595-3.797-89.003 0-77.611 0.171-82.261 3.285-88.576 4.224-8.491 12.288-16.555 20.779-20.779 6.528-3.2 14.379-3.285 401.749-3.285s395.221 0.085 401.749 3.285c8.491 4.224 16.555 12.288 20.779 20.779 3.115 6.315 3.285 10.965 3.285 88.576 0 81.408-0.043 81.963-3.797 89.003-8.661 16.171-2.944 13.568-214.016 97.963-130.859 52.352-198.4 78.549-203.947 79.104-4.565 0.469-11.008 0.128-14.293-0.725zM522.325 703.147c35.029-6.656 58.325-38.784 52.779-72.875-8.405-51.627-70.912-71.893-108.203-35.115-36.139 35.669-16.853 97.963 33.451 107.861 10.325 2.048 11.733 2.048 21.973 0.128zM121.173 201.942c-23.68-2.432-44.331-15.531-57.131-36.139-9.344-15.104-9.856-18.944-10.667-78.336l-0.768-55.040h-4.053c-2.219 0-7.979-0.853-12.8-1.877-32.597-6.997-32.299-54.4 0.341-61.141 6.571-1.365 141.995-1.749 481.024-1.451l471.893 0.469 7.637 4.309c14.635 8.149 20.053 26.837 12.245 42.155-4.992 9.728-12.075 14.251-25.856 16.427l-11.605 1.792-0.811 54.699c-0.853 58.965-1.408 62.976-10.709 77.995-9.387 15.189-24.747 27.605-41.387 33.536-7.381 2.603-38.741 2.859-399.701 3.029-215.424 0.128-394.368-0.085-397.653-0.427z" />
<glyph unicode="&#xe9f7;" d="M170.667 320v-149.333h170.667v298.667h-170.667v-149.333zM512 320v-149.333h170.667v298.667h-170.667v-149.333z" />
<glyph unicode="&#xe9f8;" d="M341.333 320v-149.333h170.667v298.667h-170.667v-149.333zM682.667 320v-149.333h170.667v298.667h-170.667v-149.333z" />
<glyph unicode="&#xe9f9;" d="M725.333 64h-426.667c-128 0-213.333 64-213.333 213.333v298.667c0 149.333 85.333 213.333 213.333 213.333h426.667c128 0 213.333-64 213.333-213.333v-298.667c0-149.333-85.333-213.333-213.333-213.333z" />
<glyph unicode="&#xe9fa;" d="M256 224c-17.493 0-32 14.507-32 32v341.333c0 17.493 14.507 32 32 32s32-14.507 32-32v-341.333c0-17.493-14.507-32-32-32z" />
<glyph unicode="&#xe9fb;" d="M384 394.667c-17.493 0-32 14.507-32 32v170.667c0 17.493 14.507 32 32 32s32-14.507 32-32v-170.667c0-17.493-14.507-32-32-32z" />
<glyph unicode="&#xe9fc;" d="M384 224c-17.493 0-32 14.507-32 32v42.667c0 17.493 14.507 32 32 32s32-14.507 32-32v-42.667c0-17.493-14.507-32-32-32z" />
<glyph unicode="&#xe9fd;" d="M640 522.667c-17.493 0-32 14.507-32 32v42.667c0 17.493 14.507 32 32 32s32-14.507 32-32v-42.667c0-17.493-14.507-32-32-32z" />
<glyph unicode="&#xe9fe;" d="M512 224c-17.493 0-32 14.507-32 32v341.333c0 17.493 14.507 32 32 32s32-14.507 32-32v-341.333c0-17.493-14.507-32-32-32z" />
<glyph unicode="&#xe9ff;" d="M640 224c-17.493 0-32 14.507-32 32v170.667c0 17.493 14.507 32 32 32s32-14.507 32-32v-170.667c0-17.493-14.507-32-32-32z" />
<glyph unicode="&#xea00;" d="M768 224c-17.493 0-32 14.507-32 32v341.333c0 17.493 14.507 32 32 32s32-14.507 32-32v-341.333c0-17.493-14.507-32-32-32z" />
<glyph unicode="&#xea01;" d="M551.68 734.292h-238.080c-174.933 0-228.267-53.333-228.267-228.265v-158.72c0-174.933 53.333-228.267 228.267-228.267h238.080c174.933 0 228.267 53.333 228.267 228.267v158.72c0 174.932-53.333 228.265-228.267 228.265z" />
<glyph unicode="&#xea02;" d="M871.219 554.668c-5.973 0.427-13.653 0.853-22.187 0.853-16.64 0-29.867-13.227-29.867-29.867v-198.401c0-16.64 13.227-29.867 29.867-29.867 8.533 0 15.787 0.427 23.040 0.853 66.56 7.68 66.56 54.613 66.56 88.747v79.36c0 34.133 0 81.068-67.413 88.321z" />
<glyph unicode="&#xea03;" d="M272.195 309.329c-2.56 0-5.12 0.427-7.68 0.853-17.067 4.267-27.733 21.76-23.467 38.827 12.8 50.773 12.8 104.533 0 155.307-4.267 17.067 5.973 34.56 23.467 38.827 17.067 4.267 34.133-6.4 38.4-23.467 15.36-61.013 15.36-125.44 0-186.027-3.413-14.507-16.64-24.32-30.72-24.32z" />
<glyph unicode="&#xea04;" d="M421.529 309.338c-2.56 0-5.12 0.427-7.68 0.853-17.067 4.267-27.734 21.76-23.467 38.827 12.8 50.773 12.8 104.533 0 155.307-4.267 17.065 5.974 34.558 23.467 38.825 17.067 4.267 34.56-5.973 38.827-23.467 15.36-61.011 15.36-125.438 0-186.025-3.84-14.507-17.067-24.32-31.147-24.32z" />
<glyph unicode="&#xea05;" d="M551.68 734.292h-238.080c-174.933 0-228.267-53.333-228.267-228.265v-158.72c0-174.933 53.333-228.267 228.267-228.267h238.080c174.933 0 228.267 53.333 228.267 228.267v158.72c0 174.932-53.333 228.265-228.267 228.265z" />
<glyph unicode="&#xea06;" d="M871.219 554.668c-5.973 0.427-13.653 0.853-22.187 0.853-16.64 0-29.867-13.227-29.867-29.867v-198.401c0-16.64 13.227-29.867 29.867-29.867 8.533 0 15.787 0.427 23.040 0.853 66.56 7.68 66.56 54.613 66.56 88.747v79.36c0 34.133 0 81.068-67.413 88.321z" />
<glyph unicode="&#xea07;" d="M427.081 245.76c-7.254 0-14.934 2.56-20.907 7.68-13.227 11.52-14.933 31.573-3.413 45.227l76.8 90.027c0.427 1.28 0 2.56-0.853 3.84-0.853 1.707-2.56 2.56-4.693 2.56h-84.907c-25.173 0-47.36 12.8-60.16 34.56-12.373 21.76-12.373 47.36 0 69.12l72.96 96.425c10.667 14.080 30.72 17.067 44.8 6.4s17.067-30.72 6.4-44.8l-70.4-93.439c1.28 1.707 1.28 0 2.133-2.133 0.853-1.707 2.56-2.56 4.693-2.56h85.76c25.173 0 47.36-12.8 60.16-34.56 12.373-21.76 12.373-47.36 0-69.12-0.853-1.707-2.133-3.413-3.413-4.693l-79.787-93.44c-6.827-7.68-15.787-11.093-25.173-11.093z" />
<glyph unicode="&#xea08;" d="M871.219 554.668c-5.973 0.427-13.653 0.853-22.187 0.853-16.64 0-29.867-13.227-29.867-29.867v-198.401c0-16.64 13.227-29.867 29.867-29.867 8.533 0 15.787 0.427 23.040 0.853 66.56 7.68 66.56 54.613 66.56 88.747v79.36c0 34.133 0 81.068-67.413 88.321z" />
<glyph unicode="&#xea09;" d="M618.667 730.879l-383.147-606.718c-113.067 16.213-150.187 77.653-150.187 223.147v158.72c0 174.932 53.333 228.265 228.267 228.265h238.080c24.747 0 46.933-0.853 66.987-3.413z" />
<glyph unicode="&#xea0a;" d="M779.913 506.023v-158.72c0-125.867-102.4-228.267-228.267-228.267h-233.812l374.612 593.068c64.853-29.44 87.467-91.733 87.467-206.082z" />
<glyph unicode="&#xea0b;" d="M170.704-10.671c-5.973 0-11.947 1.707-17.067 5.12-14.933 9.387-19.627 29.013-9.813 43.947l512.001 810.666c9.387 14.933 29.44 19.2 43.947 9.813 14.933-9.387 19.627-29.013 9.813-43.947l-512.001-810.666c-5.973-9.813-16.213-14.933-26.88-14.933z" />
<glyph unicode="&#xea0c;" d="M551.68 734.292h-238.080c-174.933 0-228.267-53.333-228.267-228.265v-158.72c0-174.933 53.333-228.267 228.267-228.267h238.080c174.933 0 228.267 53.333 228.267 228.267v158.72c0 174.932-53.333 228.265-228.267 228.265z" />
<glyph unicode="&#xea0d;" d="M871.219 554.668c-5.973 0.427-13.653 0.853-22.187 0.853-16.64 0-29.867-13.227-29.867-29.867v-198.401c0-16.64 13.227-29.867 29.867-29.867 8.533 0 15.787 0.427 23.040 0.853 66.56 7.68 66.56 54.613 66.56 88.747v79.36c0 34.133 0 81.068-67.413 88.321z" />
<glyph unicode="&#xea0e;" d="M551.68 734.292h-238.080c-174.933 0-228.267-53.333-228.267-228.265v-158.72c0-174.933 53.333-228.267 228.267-228.267h238.080c174.933 0 228.267 53.333 228.267 228.267v158.72c0 174.932-53.333 228.265-228.267 228.265z" />
<glyph unicode="&#xea0f;" d="M871.219 554.668c-5.973 0.427-13.653 0.853-22.187 0.853-16.64 0-29.867-13.227-29.867-29.867v-198.401c0-16.64 13.227-29.867 29.867-29.867 8.533 0 15.787 0.427 23.040 0.853 66.56 7.68 66.56 54.613 66.56 88.747v79.36c0 34.133 0 81.068-67.413 88.321z" />
<glyph unicode="&#xea10;" d="M272.195 309.329c-2.56 0-5.12 0.427-7.68 0.853-17.067 4.267-27.733 21.76-23.467 38.827 12.8 50.773 12.8 104.533 0 155.307-4.267 17.067 5.973 34.56 23.467 38.827 16.64 4.267 34.133-6.4 38.4-23.467 15.36-61.013 15.36-125.44 0-186.027-3.413-14.507-16.64-24.32-30.72-24.32z" />
<glyph unicode="&#xea11;" d="M551.68 734.292h-238.080c-174.933 0-228.267-53.333-228.267-228.265v-158.72c0-174.933 53.333-228.267 228.267-228.267h238.080c174.933 0 228.267 53.333 228.267 228.267v158.72c0 174.932-53.333 228.265-228.267 228.265z" />
<glyph unicode="&#xea12;" d="M871.219 554.668c-5.973 0.427-13.653 0.853-22.187 0.853-16.64 0-29.867-13.227-29.867-29.867v-198.401c0-16.64 13.227-29.867 29.867-29.867 8.533 0 15.787 0.427 23.040 0.853 66.56 7.68 66.56 54.613 66.56 88.747v79.36c0 34.133 0 81.068-67.413 88.321z" />
<glyph unicode="&#xea13;" d="M272.195 309.329c-2.56 0-5.12 0.427-7.68 0.853-17.067 4.267-27.733 21.76-23.467 38.827 12.8 50.773 12.8 104.533 0 155.307-4.267 17.067 5.973 34.56 23.467 38.827 17.067 4.267 34.133-6.4 38.4-23.467 15.36-61.013 15.36-125.44 0-186.027-3.413-14.507-16.64-24.32-30.72-24.32z" />
<glyph unicode="&#xea14;" d="M421.529 309.338c-2.56 0-5.12 0.427-7.68 0.853-17.067 4.267-27.734 21.76-23.467 38.827 12.8 50.773 12.8 104.533 0 155.307-4.267 17.065 5.974 34.558 23.467 38.825 17.067 4.267 34.56-5.973 38.827-23.467 15.36-61.011 15.36-125.438 0-186.025-3.84-14.507-17.067-24.32-31.147-24.32z" />
<glyph unicode="&#xea15;" d="M570.863 309.338c-2.56 0-5.12 0.427-7.68 0.853-17.067 4.267-27.733 21.76-23.467 38.827 12.8 50.773 12.8 104.533 0 155.307-4.267 17.065 5.973 34.558 23.467 38.825 17.067 4.267 34.56-5.973 38.827-23.467 15.36-61.011 15.36-125.438 0-186.025-3.84-14.507-17.067-24.32-31.147-24.32z" />
<glyph unicode="&#xea16;" d="M384 138.667h-256c-40.96 0-74.667 33.707-74.667 74.667v426.667c0 40.96 33.707 74.667 74.667 74.667h213.333c88.32 0 160-71.68 160-160 0-43.947-17.92-83.627-46.507-112.64 52.907-26.027 89.173-80.64 89.173-143.36 0-88.32-71.68-160-160-160zM117.333 394.667v-181.333c0-5.973 4.693-10.667 10.667-10.667h256c52.907 0 96 43.093 96 96s-43.093 96-96 96h-266.667zM117.333 458.667h224c52.907 0 96 43.093 96 96s-43.093 96-96 96h-213.333c-5.973 0-10.667-4.693-10.667-10.667v-181.333z" />
<glyph unicode="&#xea17;" d="M839.253 138.667h-71.253c-111.787 0-202.667 90.88-202.667 202.667s90.88 202.667 202.667 202.667c111.787 0 202.667-90.88 202.667-202.667 0-17.493-14.507-32-32-32h-305.493c14.507-61.013 69.547-106.667 134.827-106.667h71.253c17.493 0 32-14.507 32-32s-14.507-32-32-32zM633.173 373.334h270.080c-14.507 61.013-69.547 106.667-134.827 106.667s-120.747-45.653-135.253-106.667z" />
<glyph unicode="&#xea18;" d="M832 586.667h-128c-17.493 0-32 14.507-32 32s14.507 32 32 32h128c17.493 0 32-14.507 32-32s-14.507-32-32-32z" />
<glyph unicode="&#xea19;" d="M128 554.667c47.128 0 85.333 38.205 85.333 85.333s-38.205 85.333-85.333 85.333c-47.128 0-85.333-38.205-85.333-85.333s38.205-85.333 85.333-85.333z" />
<glyph unicode="&#xea1a;" d="M896 554.667c47.13 0 85.333 38.205 85.333 85.333s-38.204 85.333-85.333 85.333c-47.13 0-85.333-38.205-85.333-85.333s38.204-85.333 85.333-85.333z" />
<glyph unicode="&#xea1b;" d="M320 234.667v-85.333c0-26.027-15.787-48.64-37.973-58.027-8.107-3.84-16.64-5.973-26.027-5.973h-85.333c-35.413 0-64 28.587-64 64v85.333c0 35.413 28.587 64 64 64h85.333c35.413 0 64-28.587 64-64z" />
<glyph unicode="&#xea1c;" d="M917.333 234.667v-85.333c0-35.413-28.587-64-64-64h-85.333c-9.387 0-17.92 2.133-26.027 5.973-22.187 9.387-37.973 32-37.973 58.027v85.333c0 35.413 28.587 64 64 64h85.333c35.413 0 64-28.587 64-64z" />
<glyph unicode="&#xea1d;" d="M640 704v-128c0-34.987-29.013-64-64-64h-128c-34.987 0-64 29.013-64 64v128c0 34.987 29.013 64 64 64h128c34.987 0 64-29.013 64-64z" />
<glyph unicode="&#xea1e;" d="M384 672h-170.667c-17.493 0-32-14.507-32-32s14.507-32 32-32h109.653c-87.467-64.853-141.653-172.373-141.653-288 0-8.533 0.427-16.64 1.707-25.173 1.707-16.213 15.787-28.16 31.573-28.16 1.28 0 2.56 0 3.84 0 17.493 2.133 30.293 17.92 28.16 35.413-0.853 5.973-0.853 11.52-0.853 17.493 0 110.933 60.16 213.335 153.173 260.268 15.787 8.107 22.187 27.305 14.080 43.091-0.427 0.427-0.853 0.854-0.853 1.281 2.56 4.693 4.693 9.813 4.693 15.36-0.853 17.92-15.36 32.427-32.853 32.427z" />
<glyph unicode="&#xea1f;" d="M701.013 608h109.653c17.493 0 32 14.507 32 32s-14.507 32-32 32h-170.667c-17.493 0-32-14.507-32-32 0-5.547 1.707-10.666 4.693-15.36-0.427-0.427-0.853-0.854-0.853-1.281-8.107-15.787-1.707-34.987 14.080-43.094 93.013-46.933 153.173-149.332 153.173-260.266 0-5.973-0.427-11.52-0.853-17.493-2.133-17.493 10.667-33.28 28.16-35.413 1.28 0 2.56 0 3.84 0 16.213 0 29.867 11.947 31.573 28.16 0.853 8.533 1.707 16.64 1.707 25.173-0.853 115.2-55.040 222.72-142.507 287.573z" />
<glyph unicode="&#xea20;" d="M156.583 832v-510.72c0-41.813 19.627-81.493 53.333-106.667l222.292-166.4c47.36-35.413 112.64-35.413 160 0l222.293 166.4c33.707 25.173 53.333 64.853 53.333 106.667v510.72h-711.252z" />
<glyph unicode="&#xea21;" d="M938.667 800h-853.333c-17.493 0-32 14.507-32 32s14.507 32 32 32h853.333c17.493 0 32-14.507 32-32s-14.507-32-32-32z" />
<glyph unicode="&#xea22;" d="M682.667 565.334h-341.333c-17.493 0-32 14.507-32 32s14.507 32 32 32h341.333c17.493 0 32-14.507 32-32s-14.507-32-32-32z" />
<glyph unicode="&#xea23;" d="M682.667 352h-341.333c-17.493 0-32 14.507-32 32s14.507 32 32 32h341.333c17.493 0 32-14.507 32-32s-14.507-32-32-32z" />
<glyph unicode="&#xea24;" d="M938.667 616.966v-380.588c0-97.707-79.36-176.64-177.067-176.64h-499.2c-97.707 0-177.067 78.933-177.067 176.64v380.588c0 97.707 79.36 176.638 177.067 176.638h499.2c97.707 0 177.067-78.932 177.067-176.638z" />
<glyph unicode="&#xea25;" d="M394.667 394.667h-170.667c-17.493 0-32 14.507-32 32s14.507 32 32 32h170.667c17.493 0 32-14.507 32-32s-14.507-32-32-32z" />
<glyph unicode="&#xea26;" d="M795.307 440.747c5.973 11.947 9.813 25.173 9.813 39.253 0 45.653-39.68 85.333-85.333 85.333h-26.027v21.333c0 17.493-14.507 32-32 32s-32-14.507-32-32v-21.333h-85.76c-17.493 0-32-14.507-32-32s14.507-32 32-32h10.667v-149.333h-10.667c-17.493 0-32-14.507-32-32s14.507-32 32-32h85.76v-21.333c0-17.493 14.507-32 32-32s32 14.507 32 32v21.333h45.227c51.2 0 93.013 38.4 93.013 85.333 0 27.733-14.507 51.627-36.693 67.413zM637.44 501.334h82.773c11.093 0 21.333-11.947 21.333-21.333 0-11.947-9.387-21.333-21.333-21.333h-101.547v42.667h18.773zM738.987 352h-120.32v42.667h120.747c15.787 0 29.013-9.813 29.013-21.333s-13.653-21.333-29.44-21.333z" />
<glyph unicode="&#xea27;" d="M981.333 289.28c17.673 0 32-14.327 32-32 0-182.793-147.874-330.667-330.667-330.667-11.529 0-22.165 6.204-27.844 16.235-5.683 10.031-5.525 22.345 0.405 32.23l44.8 74.667c9.092 15.155 28.749 20.070 43.904 10.974 15.155-9.092 20.066-28.749 10.974-43.9l-11.575-19.294c118.148 27.409 206.003 133.184 206.003 259.755 0 17.673 14.327 32 32 32z" />
<glyph unicode="&#xea28;" d="M280.67 858.372c-118.148-27.41-206.003-133.183-206.003-259.757 0-17.673-14.327-32-32-32s-32 14.327-32 32c0 182.793 147.874 330.667 330.667 330.667 11.529 0 22.166-6.201 27.846-16.234s5.525-22.344-0.407-32.23l-44.8-74.667c-9.093-15.155-28.749-20.069-43.904-10.976s-20.069 28.749-10.976 43.904l11.576 19.293z" />
<glyph unicode="&#xea29;" d="M633.591 284.587c0-145.493-117.76-263.249-263.255-263.249-145.493 0-263.253 117.756-263.253 263.249s117.76 263.257 263.253 263.257c6.827 0 13.227-0.428 20.48-0.854 129.281-9.813 232.535-113.065 242.348-242.345 0-6.4 0.427-12.804 0.427-20.058z" />
<glyph unicode="&#xea2a;" d="M917.342 568.748c0-145.494-117.76-263.254-263.253-263.254h-20.907c-9.813 129.28-113.067 232.535-242.348 242.348v20.906c0 145.493 117.762 263.252 263.255 263.252s263.253-117.759 263.253-263.252z" />
<glyph unicode="&#xea2b;" d="M474.415 298.245c5.12 10.667 8.107 22.182 8.107 34.556 0 42.667-37.547 80.218-80.212 80.218h-11.093v16.213c0 17.493-14.507 32-32 32s-32-14.507-32-32v-16.213h-44.8c-17.493 0-32-14.507-32-32v-192c0-17.493 14.507-32 32-32h44.8v-16.218c0-17.493 14.507-32 32-32s32 14.507 32 32v16.218h28.16c47.785 0 87.038 35.84 87.038 80.213 0 24.32-12.8 46.507-32 61.013zM314.417 349.018h87.893c8.96 0 16.213-9.818 16.213-16.218 0-8.96-7.253-16.213-16.213-16.213h-87.893v32.431zM419.377 220.587h-105.387v32h104.96c13.652 0 23.038-8.533 23.038-16.213s-8.96-15.787-22.612-15.787z" />
<glyph unicode="&#xea2c;" d="M1003.917 424.534c-12.373 12.373-32.853 12.373-45.227 0l-19.627-19.627v21.76c0 235.52-191.573 427.094-427.093 427.094-130.135 0-251.735-58.453-333.228-160-11.093-13.653-8.96-34.133 5.12-44.8 13.653-11.093 34.133-8.96 44.8 5.12 69.547 86.613 172.8 136.107 283.308 136.107 200.107 0 363.093-162.987 363.093-363.094v-21.333l-19.627 19.627c-12.373 12.373-32.853 12.373-45.227 0s-12.373-32.853 0-45.227l74.24-74.24c2.987-2.987 6.4-5.12 10.24-6.827s8.107-2.56 12.373-2.56c4.267 0 8.107 0.853 12.373 2.56 3.84 1.707 7.253 3.84 10.24 6.827l74.24 74.24c12.373 11.52 12.373 32 0 44.373z" />
<glyph unicode="&#xea2d;" d="M840.073 204.8c-13.653 11.093-34.133 8.964-44.8-5.116-69.547-86.613-172.8-136.111-283.307-136.111-200.106 0-363.093 162.991-363.093 363.098v21.333l19.627-19.631c6.4-6.4 14.507-9.382 22.614-9.382s16.213 2.982 22.613 9.382c12.373 12.373 12.373 32.853 0 45.227l-74.24 74.244c-2.987 2.987-6.4 5.119-10.24 6.825-7.68 3.413-16.64 3.413-24.32 0-3.84-1.707-7.253-3.839-10.24-6.825l-74.24-74.244c-12.373-12.373-12.373-32.853 0-45.227s32.853-12.373 45.227 0l19.627 19.631v-21.333c0-235.52 191.573-427.098 427.092-427.098 130.133 0 251.733 58.453 333.227 160 10.667 13.653 8.533 34.133-5.547 45.227z" />
<glyph unicode="&#xea2e;" d="M659.2 442.027c11.52 17.067 17.92 37.12 17.92 59.307 0 56.747-49.92 106.667-106.667 106.667h-34.987v42.667c0 17.493-14.507 32-32 32s-32-14.507-32-32v-42.667h-87.467c-17.493 0-32-14.507-32-32v-298.667c0-17.493 14.507-32 32-32h87.467v-42.667c0-17.493 14.507-32 32-32s32 14.507 32 32v42.667h61.867c64.853 0 117.333 47.787 117.333 106.667 0 37.973-22.187 71.253-55.467 90.027zM416 544h154.453c23.467 0 42.667-23.467 42.667-42.667 0-23.467-19.2-42.667-42.667-42.667h-154.453v85.333zM597.333 309.334h-181.333v85.333h181.333c29.44 0 53.333-19.2 53.333-42.667s-23.893-42.667-53.333-42.667z" />
<glyph unicode="&#xea2f;" d="M937.417 426.667c0-141.227-114.773-256-256-256-65.707 0-125.44 24.747-170.667 65.707 52.48 46.507 85.333 114.773 85.333 190.293s-32.853 143.787-85.333 190.293c45.227 40.96 104.96 65.707 170.667 65.707 141.227 0 256-114.773 256-256z" />
<glyph unicode="&#xea30;" d="M596.083 426.667c0-75.52-32.853-143.787-85.333-190.293-45.227-40.96-104.96-65.707-170.667-65.707-141.227 0-256 114.773-256 256s114.773 256 256 256c65.707 0 125.44-24.747 170.667-65.707 52.48-46.507 85.333-114.773 85.333-190.293z" />
<glyph unicode="&#xea31;" d="M533.316 190.729c-5.973-6.4-14.080-9.387-22.613-9.387-8.107 0-16.213 2.987-22.613 9.387l-67.84 67.84c25.173 2.987 49.493 8.96 72.106 18.347l40.96-40.96c12.8-12.373 12.8-32.853 0-45.227z" />
<glyph unicode="&#xea32;" d="M680.922 258.983c-5.973-6.4-14.507-9.813-22.613-9.813s-16.213 3.413-22.613 9.387l-65.28 64c16.64 13.227 32 28.587 45.227 45.653l64.853-64c12.8-12.373 12.8-32.853 0.427-45.227z" />
<glyph unicode="&#xea33;" d="M746.688 404.058c-5.973-6.4-14.080-9.387-22.613-9.387-8.107 0-16.213 2.987-22.613 9.387l-40.96 40.96c9.387 22.613 15.36 46.933 18.347 72.108l67.84-67.841c12.8-12.373 12.8-32.853 0-45.227z" />
<glyph unicode="&#xea34;" d="M678.43 594.347c-19.2 146.347-144.213 258.987-295.68 258.987-165.12 0-298.667-133.547-298.667-298.667 0-151.467 112.64-276.48 258.987-295.68 12.8-2.133 26.027-2.987 39.68-2.987 12.8 0 25.173 0.853 37.547 2.56l-16.213 16.213c-12.373 12.8-12.373 32.853 0 45.227 12.373 12.8 32.853 12.8 45.227 0l43.093-43.093c28.587 11.093 54.613 26.453 78.080 45.653l-38.4 37.973c-12.373 12.373-12.8 32.427 0 45.227 12.373 12.373 32.427 12.8 45.227 0.427l38.4-37.973c18.773 23.040 34.133 48.64 44.8 76.8l-43.093 43.093c-12.373 12.8-12.373 32.853 0 45.227 12.373 12.8 32.853 12.8 45.227 0l16.213-16.213c1.707 12.373 2.56 24.747 2.56 37.547 0 13.653-0.853 26.88-2.987 39.68z" />
<glyph unicode="&#xea35;" d="M937.348 298.676c0-165.12-133.547-298.667-298.667-298.667-151.467 0-276.482 112.64-295.682 258.987 12.8-2.133 26.027-2.987 39.68-2.987 12.8 0 25.173 0.853 37.547 2.56l67.842-67.84c6.4-6.4 14.507-9.387 22.613-9.387 8.533 0 16.64 2.987 22.613 9.387 12.8 12.373 12.8 32.853 0 45.227l-40.96 40.96c28.587 11.093 54.613 26.453 78.080 45.653l65.28-64c6.4-5.973 14.507-9.387 22.613-9.387s16.64 3.413 22.613 9.813c12.373 12.373 12.373 32.853-0.427 45.227l-64.853 64c18.773 23.040 34.133 48.64 44.8 76.8l40.96-40.96c6.4-6.4 14.507-9.387 22.613-9.387 8.533 0 16.64 2.987 22.613 9.387 12.8 12.373 12.8 32.853 0 45.227l-67.84 67.839c1.707 12.373 2.56 24.747 2.56 37.547 0 13.653-0.853 26.88-2.987 39.68 146.347-19.2 258.987-144.212 258.987-295.679z" />
<glyph unicode="&#xea36;" d="M725.333 469.334c-23.467 0-42.667 19.2-42.667 42.667v42.667c0 85.333-42.667 128-128 128h-170.667c-85.333 0-128-42.667-128-128v-256c0-85.333 42.667-128 128-128h256c85.333 0 128 42.667 128 128v128c0 23.467-19.2 42.667-42.667 42.667zM426.667 544h85.333c17.493 0 32-14.507 32-32s-14.507-32-32-32h-85.333c-17.493 0-32 14.507-32 32s14.507 32 32 32zM597.333 309.334h-170.667c-17.493 0-32 14.507-32 32s14.507 32 32 32h170.667c17.493 0 32-14.507 32-32s-14.507-32-32-32z" />
<glyph unicode="&#xea37;" d="M690.765 853.334h-357.122c-155.307 0-247.893-92.587-247.893-247.893v-357.12c0-155.307 92.586-247.893 247.893-247.893h357.122c155.307 0 247.893 92.587 247.893 247.893v357.12c0 155.307-92.587 247.893-247.893 247.893z" />
<glyph unicode="&#xea38;" d="M690.765 853.334h-357.122c-155.307 0-247.893-92.587-247.893-247.893v-357.12c0-155.307 92.586-247.893 247.893-247.893h357.122c155.307 0 247.893 92.587 247.893 247.893v357.12c0 155.307-92.587 247.893-247.893 247.893z" />
<glyph unicode="&#xea39;" d="M542.332 126.725c-9.813 0-17.493 2.56-21.76 4.693-9.813 4.693-32.853 20.053-32.853 61.867v145.92l-124.585-114.347c-12.8-11.947-33.28-11.093-45.227 2.133s-11.094 33.28 2.133 45.227l167.679 153.6v3.413l-167.679 151.893c-13.227 11.947-14.080 32-2.133 45.227 11.947 12.8 32.427 14.080 45.227 2.133l124.585-114.346v145.92c0 41.813 23.040 57.173 32.853 61.867s36.267 12.373 68.267-14.507l103.253-86.187c14.080-11.52 22.187-28.587 22.613-46.080s-6.827-34.56-20.48-46.933l-111.36-101.974 111.36-101.973c13.227-12.373 20.907-29.44 20.48-46.933s-8.533-34.133-22.613-46.080l-103.253-86.187c-17.92-14.507-34.133-18.347-46.507-18.347zM551.718 371.205v-173.227l99.413 83.2-99.413 90.027zM551.718 655.365v-170.667l99.413 91.307-99.413 79.36z" />
<glyph unicode="&#xea3a;" d="M690.765 853.334h-357.122c-155.307 0-247.893-92.587-247.893-247.893v-357.12c0-155.307 92.586-247.893 247.893-247.893h357.122c155.307 0 247.893 92.587 247.893 247.893v357.12c0 155.307-92.587 247.893-247.893 247.893z" />
<glyph unicode="&#xea3b;" d="M515.396 128.005c-9.813 0-17.493 2.56-21.76 4.693-9.813 4.693-32.853 19.627-32.853 61.44v144.64l-123.733-113.067c-12.8-11.947-33.28-11.093-45.227 2.133s-11.092 33.28 2.134 45.227l166.826 152.747v3.413l-166.826 151.039c-13.227 11.947-14.081 32-2.134 45.227s32 14.080 45.227 2.133l123.733-113.067v144.64c0 41.813 23.040 57.174 32.853 61.44 9.813 4.693 36.267 12.373 68.267-14.507l102.827-85.76c14.080-11.52 22.187-28.16 22.613-45.653s-6.827-34.56-20.053-46.934l-110.507-101.119 110.507-101.12c13.227-12.373 20.907-29.44 20.48-46.933s-8.533-34.133-22.613-45.653l-102.827-85.76c-18.347-14.933-34.56-19.2-46.933-19.2zM524.783 371.205v-171.52l98.56 82.347-98.56 89.173zM524.783 653.658v-168.96l98.56 90.452-98.56 78.508z" />
<glyph unicode="&#xea3c;" d="M282.464 367.783c-32.427 0-58.88 26.453-58.88 58.88s26.454 58.88 58.88 58.88c32.427 0 58.88-26.453 58.88-58.88s-26.453-58.88-58.88-58.88zM282.464 431.783c-2.987 0-5.12-2.56-5.12-5.12 0-5.973 10.667-5.973 10.667 0 0 2.987-2.56 5.12-5.547 5.12z" />
<glyph unicode="&#xea3d;" d="M741.547 367.783c-32.427 0-58.88 26.453-58.88 58.88s26.453 58.88 58.88 58.88c32.427 0 58.88-26.453 58.88-58.88s-26.88-58.88-58.88-58.88zM741.547 431.783c-2.987 0-5.12-2.56-5.12-5.12 0-5.973 10.667-5.973 10.667 0-0.427 2.987-2.987 5.12-5.547 5.12z" />
<glyph unicode="&#xea3e;" d="M512-0c235.639 0 426.667 191.027 426.667 426.667 0 235.642-191.027 426.667-426.667 426.667-235.642 0-426.667-191.025-426.667-426.667 0-235.639 191.025-426.667 426.667-426.667z" />
<glyph unicode="&#xea3f;" d="M517.060 682.575c-24.521-11.735-30.238-38.179-30.238-57.078v-114.269l-98.696 90.494c-13.026 11.944-33.268 11.066-45.213-1.96s-11.066-33.268 1.96-45.213l139.7-128.092-139.7-128.094c-13.026-11.947-13.903-32.188-1.96-45.214s32.186-13.905 45.213-1.958l98.696 90.492v-114.266c0-19.247 6.033-45.517 30.647-57.037 24.55-11.49 48.529 0.627 63.177 12.787l87.855 73.357c0.021 0.017 0.047 0.034 0.068 0.055 27.106 22.498 28.442 62.366 1.882 86.272l-91.179 83.605 91.179 83.601c26.56 23.907 25.225 63.778-1.882 86.276-0.026 0.018-0.047 0.036-0.068 0.054l-87.808 73.317c-14.647 12.206-38.857 24.725-63.633 12.869zM550.822 365.713l70.822-64.939-70.822-59.136v124.075zM550.822 487.198v124.075l70.822-59.134-70.822-64.94z" />
<glyph unicode="&#xea40;" d="M640-0h-256c-128 0-213.333 85.333-213.333 213.333v426.667c0 128 85.333 213.333 213.333 213.333h256c128 0 213.333-85.333 213.333-213.333v-426.667c0-128-85.333-213.333-213.333-213.333z" />
<glyph unicode="&#xea41;" d="M537.562 165.969c-9.387 0-16.64 2.56-20.907 4.267-9.387 4.267-30.72 18.347-30.72 57.173v113.92l-98.135-90.027c-12.8-11.947-33.28-11.093-45.226 2.133s-11.094 33.28 2.132 45.227l139.949 128.427-139.949 128.426c-13.227 11.947-14.079 32-2.132 45.227 11.947 12.8 32.426 14.081 45.226 2.134l98.135-90.028v113.494c0 38.4 21.333 52.48 30.72 57.173 8.96 4.267 33.707 11.948 63.573-12.799l87.893-73.387c12.8-10.667 20.48-26.453 20.907-42.667s-6.4-32.426-18.773-43.52l-90.88-83.2 90.88-83.2c12.373-11.52 19.2-27.307 18.773-43.52s-8.107-32-20.907-42.667l-87.893-73.387c-16.213-15.36-31.147-19.2-42.667-19.2zM550.362 366.503v-124.587l71.253 59.307-71.253 65.28zM550.362 611.409v-124.586l71.253 65.28-71.253 59.306z" />
<glyph unicode="&#xea42;" d="M538.039 844.374c-15.36 11.947-36.693 11.947-52.053 0-81.066-61.867-320.428-263.68-319.148-498.773 0-190.293 154.881-345.6 345.601-345.6s345.6 154.88 345.6 345.173c0.427 231.68-239.36 436.907-320 499.2z" />
<glyph unicode="&#xea43;" d="M857.173 332.8c-0.853-26.027-4.693-51.627-11.52-76.373l-301.653-146.773v-108.373c-10.667-0.853-21.333-1.28-32-1.28s-21.333 0.427-32 1.28v838.827c2.133 1.707 3.84 2.987 5.547 4.267 15.787 11.947 37.12 11.947 52.48 0 1.707-1.28 3.84-2.987 5.973-4.693v-232.107l161.28 78.507c14.080-16.213 27.307-32.853 40.533-50.347-1.707-1.707-3.413-2.987-5.547-3.84l-196.267-95.573v-142.080l268.373 130.56c0.427 0 0.427 0.427 0.853 0.427 9.387-19.2 17.493-38.827 23.893-59.307l-293.12-142.933v-142.080l282.453 137.387 30.72 14.507z" />
<glyph unicode="&#xea44;" d="M497.033 838.41l-226.132-226.133c-8.533-8.533-8.533-21.76 0-30.293l55.040-55.040c8.533-8.533 21.76-8.533 30.293 0l140.372 140.373c8.533 8.533 21.76 8.533 30.293 0l140.373-140.373c8.533-8.533 21.76-8.533 30.293 0l55.040 55.040c8.533 8.533 8.533 21.76 0 30.293l-225.707 225.707c-8.107 8.533-21.76 8.533-29.867 0.427z" />
</font>
</defs>
</svg>
