<svg width="24" height="24" viewBox="0 0 24 24" fill="none" xmlns="http://www.w3.org/2000/svg">
<path d="M5.53 2C5.11 2 4.78 2.34 4.78 2.75V4.78H2.75C2.34 4.78 2 5.11 2 5.53C2 5.95 2.34 6.28 2.75 6.28H5.53C5.94 6.28 6.28 5.94 6.28 5.53V2.75C6.28 2.34 5.94 2 5.53 2Z" fill="#292D32"/>
<path d="M21.2507 17.7188H18.4707C18.0607 17.7188 17.7207 18.0588 17.7207 18.4688V21.2488C17.7207 21.6588 18.0607 21.9988 18.4707 21.9988C18.8807 21.9988 19.2207 21.6588 19.2207 21.2488V19.2188H21.2507C21.6607 19.2188 22.0007 18.8787 22.0007 18.4688C22.0007 18.0588 21.6607 17.7188 21.2507 17.7188Z" fill="#292D32"/>
<path d="M16.7201 18.4703C16.7201 17.5103 17.5101 16.7203 18.4701 16.7203H19.1601V10.0503C19.1601 7.16031 16.8201 4.82031 13.9301 4.82031H7.28008V5.51031C7.28008 6.47031 6.49008 7.26031 5.53008 7.26031H4.83008V13.9303C4.83008 16.8203 7.17008 19.1603 10.0601 19.1603H16.7301V18.4703H16.7201Z" fill="#292D32"/>
</svg>
