<svg width="24" height="24" viewBox="0 0 24 24" fill="none" xmlns="http://www.w3.org/2000/svg">
<path d="M16.19 2H7.81C4.17 2 2 4.17 2 7.81V16.18C2 19.83 4.17 22 7.81 22H16.18C19.82 22 21.99 19.83 21.99 16.19V7.81C22 4.17 19.83 2 16.19 2ZM10.22 21H7.91C5.2 21 3 18.8 3 16.09V13.78C3 13.37 3.34 13.03 3.75 13.03C4.16 13.03 4.5 13.37 4.5 13.78V16.09C4.5 17.97 6.03 19.5 7.91 19.5H10.22C10.63 19.5 10.97 19.84 10.97 20.25C10.97 20.66 10.64 21 10.22 21ZM10.22 4.5H7.91C6.03 4.5 4.5 6.03 4.5 7.91V10.22C4.5 10.63 4.16 10.97 3.75 10.97C3.34 10.97 3 10.64 3 10.22V7.91C3 5.2 5.2 3 7.91 3H10.22C10.63 3 10.97 3.34 10.97 3.75C10.97 4.16 10.64 4.5 10.22 4.5ZM21 16.09C21 18.8 18.8 21 16.09 21H14.7C14.29 21 13.95 20.66 13.95 20.25C13.95 19.84 14.29 19.5 14.7 19.5H16.09C17.97 19.5 19.5 17.97 19.5 16.09V14.7C19.5 14.29 19.84 13.95 20.25 13.95C20.66 13.95 21 14.29 21 14.7V16.09ZM21 10.22C21 10.63 20.66 10.97 20.25 10.97C19.84 10.97 19.5 10.63 19.5 10.22V7.91C19.5 6.03 17.97 4.5 16.09 4.5H13.78C13.37 4.5 13.03 4.16 13.03 3.75C13.03 3.34 13.36 3 13.78 3H16.09C18.8 3 21 5.2 21 7.91V10.22Z" fill="#292D32"/>
</svg>
