<svg width="24" height="24" viewBox="0 0 24 24" fill="none" xmlns="http://www.w3.org/2000/svg">
<path d="M3.5 5.05859V18.9386C3.5 19.3486 3.16 19.6886 2.75 19.6886C2.34 19.6886 2 19.3486 2 18.9386V5.05859C2 4.64859 2.34 4.30859 2.75 4.30859C3.16 4.30859 3.5 4.64859 3.5 5.05859Z" fill="#292D32"/>
<path d="M22 5.05859V18.9386C22 19.3486 21.66 19.6886 21.25 19.6886C20.84 19.6886 20.5 19.3486 20.5 18.9386V5.05859C20.5 4.64859 20.84 4.30859 21.25 4.30859C21.66 4.30859 22 4.64859 22 5.05859Z" fill="#292D32"/>
<path d="M8 21.25H16C17.66 21.25 19 19.91 19 18.25V5.75C19 4.09 17.66 2.75 16 2.75H8C6.34 2.75 5 4.09 5 5.75V18.25C5 19.91 6.34 21.25 8 21.25Z" fill="#292D32"/>
</svg>
