<svg width="24" height="24" viewBox="0 0 24 24" fill="none" xmlns="http://www.w3.org/2000/svg">
<path d="M22 11.5V15.5C22 19 20 20.5 17 20.5H7C4 20.5 2 19 2 15.5V8.5C2 5 4 3.5 7 3.5H12" stroke="#292D32" stroke-width="1.5" stroke-miterlimit="10" stroke-linecap="round" stroke-linejoin="round"/>
<path opacity="0.4" d="M7 9L10.13 11.5C11.16 12.32 12.85 12.32 13.88 11.5" stroke="#292D32" stroke-width="1.5" stroke-miterlimit="10" stroke-linecap="round" stroke-linejoin="round"/>
<path opacity="0.4" d="M19.4812 2.82141L19.7612 3.3914C19.9012 3.6714 20.2512 3.9314 20.5612 3.9914L20.9412 4.0514C22.0812 4.2414 22.3512 5.0814 21.5312 5.9114L21.1812 6.26139C20.9512 6.50139 20.8212 6.9614 20.8912 7.2814L20.9412 7.4914C21.2512 8.8714 20.5212 9.40139 19.3212 8.68139L19.0612 8.5314C18.7512 8.3514 18.2512 8.3514 17.9412 8.5314L17.6812 8.68139C16.4712 9.41139 15.7412 8.8714 16.0612 7.4914L16.1112 7.2814C16.1812 6.9614 16.0512 6.50139 15.8212 6.26139L15.4712 5.9114C14.6512 5.0814 14.9212 4.2414 16.0612 4.0514L16.4412 3.9914C16.7412 3.9414 17.1012 3.6714 17.2412 3.3914L17.5212 2.82141C18.0612 1.73141 18.9412 1.73141 19.4812 2.82141Z" stroke="#292D32" stroke-width="1.5" stroke-linecap="round" stroke-linejoin="round"/>
</svg>
