<svg width="24" height="24" viewBox="0 0 24 24" fill="none" xmlns="http://www.w3.org/2000/svg">
<path d="M15 22.75H9C3.57 22.75 1.25 20.43 1.25 15V9C1.25 3.57 3.57 1.25 9 1.25H15C20.43 1.25 22.75 3.57 22.75 9V15C22.75 20.43 20.43 22.75 15 22.75ZM9 2.75C4.39 2.75 2.75 4.39 2.75 9V15C2.75 19.61 4.39 21.25 9 21.25H15C19.61 21.25 21.25 19.61 21.25 15V9C21.25 4.39 19.61 2.75 15 2.75H9Z" fill="#292D32"/>
<path d="M6.00141 18.7514C5.81141 18.7514 5.62141 18.6814 5.47141 18.5314C5.18141 18.2414 5.18141 17.7614 5.47141 17.4714L17.4714 5.47141C17.7614 5.18141 18.2414 5.18141 18.5314 5.47141C18.8214 5.76141 18.8214 6.24141 18.5314 6.53141L6.53141 18.5314C6.38141 18.6814 6.19141 18.7514 6.00141 18.7514Z" fill="#292D32"/>
<path d="M18 10.75C17.59 10.75 17.25 10.41 17.25 10V6.75H14C13.59 6.75 13.25 6.41 13.25 6C13.25 5.59 13.59 5.25 14 5.25H18C18.41 5.25 18.75 5.59 18.75 6V10C18.75 10.41 18.41 10.75 18 10.75Z" fill="#292D32"/>
<path d="M10 18.75H6C5.59 18.75 5.25 18.41 5.25 18V14C5.25 13.59 5.59 13.25 6 13.25C6.41 13.25 6.75 13.59 6.75 14V17.25H10C10.41 17.25 10.75 17.59 10.75 18C10.75 18.41 10.41 18.75 10 18.75Z" fill="#292D32"/>
<path d="M18.0014 18.7514C17.8114 18.7514 17.6214 18.6814 17.4714 18.5314L5.47141 6.53141C5.18141 6.24141 5.18141 5.76141 5.47141 5.47141C5.76141 5.18141 6.24141 5.18141 6.53141 5.47141L18.5314 17.4714C18.8214 17.7614 18.8214 18.2414 18.5314 18.5314C18.3814 18.6814 18.1914 18.7514 18.0014 18.7514Z" fill="#292D32"/>
<path d="M6 10.75C5.59 10.75 5.25 10.41 5.25 10V6C5.25 5.59 5.59 5.25 6 5.25H10C10.41 5.25 10.75 5.59 10.75 6C10.75 6.41 10.41 6.75 10 6.75H6.75V10C6.75 10.41 6.41 10.75 6 10.75Z" fill="#292D32"/>
<path d="M18 18.75H14C13.59 18.75 13.25 18.41 13.25 18C13.25 17.59 13.59 17.25 14 17.25H17.25V14C17.25 13.59 17.59 13.25 18 13.25C18.41 13.25 18.75 13.59 18.75 14V18C18.75 18.41 18.41 18.75 18 18.75Z" fill="#292D32"/>
</svg>
