<svg width="24" height="24" viewBox="0 0 24 24" fill="none" xmlns="http://www.w3.org/2000/svg">
<path d="M12 22.75C6.07 22.75 1.25 17.93 1.25 12C1.25 6.07 6.07 1.25 12 1.25C17.93 1.25 22.75 6.07 22.75 12C22.75 17.93 17.93 22.75 12 22.75ZM12 2.75C6.9 2.75 2.75 6.9 2.75 12C2.75 17.1 6.9 21.25 12 21.25C17.1 21.25 21.25 17.1 21.25 12C21.25 6.9 17.1 2.75 12 2.75Z" fill="black"/>
<path d="M14.9999 11.7517C14.7299 11.7517 14.4599 11.6017 14.3299 11.3417L12.0399 6.75172H11.9699L9.67994 11.3417C9.49994 11.7117 9.04994 11.8617 8.66994 11.6817C8.29994 11.4917 8.14994 11.0417 8.32994 10.6717L10.8299 5.67172C10.9599 5.42172 11.2199 5.26172 11.4999 5.26172H12.4999C12.7799 5.26172 13.0399 5.42172 13.1699 5.67172L15.6699 10.6717C15.8599 11.0417 15.7099 11.4917 15.3299 11.6817C15.2299 11.7217 15.1099 11.7517 14.9999 11.7517Z" fill="black"/>
<path d="M12.0007 18.75C11.8707 18.75 11.7307 18.71 11.6107 18.64L6.61075 15.64C6.27075 15.44 6.15075 15.01 6.32075 14.66L7.32075 12.66C7.51075 12.29 7.96075 12.14 8.33075 12.32C8.70075 12.51 8.85075 12.96 8.67075 13.33L7.98075 14.71L12.0007 17.12L16.0207 14.71L15.3307 13.33C15.1407 12.96 15.2907 12.51 15.6707 12.32C16.0407 12.14 16.4907 12.28 16.6807 12.66L17.6807 14.66C17.8607 15.01 17.7307 15.44 17.3907 15.64L12.3907 18.64C12.2707 18.71 12.1307 18.75 12.0007 18.75Z" fill="black"/>
</svg>
