<svg width="24" height="24" viewBox="0 0 24 24" fill="none" xmlns="http://www.w3.org/2000/svg">
<path d="M12.0005 22.71C11.8405 22.71 11.6805 22.69 11.5205 22.64L5.44049 20.9C4.75049 20.7 4.26048 20.12 4.18048 19.41L2.38049 3.19C2.33049 2.7 2.48049 2.2 2.82049 1.83C3.15049 1.46 3.63048 1.25 4.12048 1.25H19.8905C20.3905 1.25 20.8605 1.46 21.1905 1.83C21.5205 2.2 21.6805 2.7 21.6305 3.19L19.8305 19.41C19.7505 20.12 19.2605 20.7 18.5705 20.9L12.4905 22.64C12.3205 22.69 12.1605 22.71 12.0005 22.71ZM4.12048 2.75C4.02048 2.75 3.96048 2.8 3.93048 2.83C3.90048 2.86 3.86048 2.93 3.87048 3.02L5.67047 19.24C5.68047 19.34 5.75046 19.43 5.85046 19.45L11.9305 21.19C11.9805 21.2 12.0205 21.2 12.0705 21.19L18.1505 19.45C18.2505 19.42 18.3205 19.34 18.3305 19.24L20.1305 3.02C20.1405 2.92 20.0905 2.86 20.0705 2.83C20.0405 2.8 19.9805 2.75 19.8805 2.75H4.12048Z" fill="black"/>
<path d="M10.6198 16.7417C10.5498 16.7417 10.4798 16.7317 10.4098 16.7117L7.28983 15.8117C6.88983 15.6917 6.65988 15.2817 6.77988 14.8817C6.88988 14.4817 7.30987 14.2617 7.70987 14.3717L9.86985 14.9917V7.01172C9.86985 6.60172 10.2098 6.26172 10.6198 6.26172C11.0298 6.26172 11.3698 6.60172 11.3698 7.01172V15.9817C11.3698 16.2217 11.2599 16.4417 11.0699 16.5817C10.9399 16.6817 10.7798 16.7417 10.6198 16.7417Z" fill="black"/>
<path d="M12.8992 16.7501C12.5592 16.7501 12.2591 16.52 12.1691 16.18C12.0691 15.78 12.3091 15.3701 12.7191 15.2701L15.7491 14.51V12.8101L13.4592 13.1401C13.2392 13.1701 13.0291 13.1101 12.8591 12.9601C12.6991 12.8201 12.5991 12.6101 12.5991 12.3901V7.44006C12.5991 7.07006 12.8691 6.75005 13.2391 6.70005L16.3891 6.25005C16.7991 6.19005 17.1791 6.48005 17.2391 6.89005C17.2991 7.30005 17.0091 7.68006 16.5991 7.74006L14.0892 8.10006V11.5301L16.3791 11.2C16.5991 11.17 16.8091 11.2301 16.9791 11.3801C17.1391 11.5201 17.2391 11.73 17.2391 11.95V15.1001C17.2391 15.4401 17.0091 15.7401 16.6691 15.8301L13.0691 16.73C13.0191 16.74 12.9592 16.7501 12.8992 16.7501Z" fill="black"/>
</svg>
