<svg width="24" height="24" viewBox="0 0 24 24" fill="none" xmlns="http://www.w3.org/2000/svg">
<path opacity="0.4" d="M5.32914 19.4212C5.21914 19.4212 5.09914 19.3912 4.99914 19.3412L2.77914 18.2312C2.52914 18.1012 2.36914 17.8412 2.36914 17.5612V14.7812C2.36914 14.3713 2.70914 14.0312 3.11914 14.0312C3.52914 14.0312 3.86914 14.3713 3.86914 14.7812V17.0912L5.67914 17.9913C6.04914 18.1813 6.19913 18.6313 6.01913 19.0013C5.86913 19.2613 5.60914 19.4212 5.32914 19.4212Z" fill="#292D32"/>
<path d="M11.9995 22.7487C11.9395 22.7487 11.8795 22.7387 11.8295 22.7287C11.7695 22.7187 11.7095 22.6888 11.6495 22.6588L9.43948 21.5587C9.06948 21.3687 8.91947 20.9188 9.09947 20.5488C9.28947 20.1788 9.73947 20.0288 10.1095 20.2088L11.2495 20.7787V19.2188C11.2495 18.8088 11.5895 18.4688 11.9995 18.4688C12.4095 18.4688 12.7495 18.8088 12.7495 19.2188V20.7787L13.8895 20.2088C14.2595 20.0288 14.7095 20.1788 14.8995 20.5488C15.0895 20.9188 14.9395 21.3687 14.5595 21.5587L12.3495 22.6588C12.2895 22.6888 12.2295 22.7087 12.1695 22.7287C12.1095 22.7387 12.0595 22.7487 11.9995 22.7487Z" fill="#292D32"/>
<path opacity="0.4" d="M18.6702 19.4191C18.4002 19.4191 18.1302 19.2691 18.0002 19.0091C17.8102 18.6391 17.9602 18.1891 18.3402 17.9991L20.1502 17.0991V14.7891C20.1502 14.3791 20.4902 14.0391 20.9002 14.0391C21.3102 14.0391 21.6502 14.3791 21.6502 14.7891V17.5691C21.6502 17.8491 21.4902 18.1091 21.2402 18.2391L19.0202 19.3491C18.8902 19.3891 18.7802 19.4191 18.6702 19.4191Z" fill="#292D32"/>
<path d="M11.9995 14.4191C11.5895 14.4191 11.2495 14.0791 11.2495 13.6691V11.3591L9.43948 10.4591C9.06948 10.2691 8.91947 9.81907 9.09947 9.44907C9.28947 9.07907 9.73947 8.92907 10.1095 9.10907L11.9995 10.0491L13.8895 9.10907C14.2595 8.92907 14.7095 9.06907 14.8995 9.44907C15.0895 9.81907 14.9395 10.2691 14.5595 10.4591L12.7495 11.3591V13.6691C12.7495 14.0791 12.4095 14.4191 11.9995 14.4191Z" fill="#292D32"/>
<path opacity="0.4" d="M3.10938 9.96939C2.69938 9.96939 2.35938 9.62939 2.35938 9.21939V6.45939V6.44938C2.35938 6.38938 2.36937 6.32938 2.37937 6.27938C2.39937 6.19938 2.42938 6.12938 2.46938 6.05938C2.49938 6.00938 2.52937 5.96938 2.56937 5.92938C2.60937 5.88938 2.65937 5.84939 2.70937 5.81939C2.72937 5.80939 2.75937 5.78938 2.77937 5.77938L4.98937 4.67938C5.35937 4.49938 5.80937 4.63939 5.99937 5.01939C6.18937 5.38939 6.03938 5.83938 5.65938 6.02938L4.77937 6.46939L5.65938 6.90939C6.02938 7.09939 6.17937 7.54938 5.99937 7.91938C5.81937 8.28938 5.35937 8.43938 4.98937 8.25938L3.84937 7.68939V9.24939C3.85937 9.63939 3.52937 9.96939 3.10938 9.96939Z" fill="#292D32"/>
<path d="M14.2198 3.86077C14.1098 3.86077 13.9898 3.83077 13.8898 3.78077L11.9998 2.84077L10.1098 3.78077C9.73979 3.97077 9.28979 3.82078 9.09979 3.44078C8.90979 3.07078 9.05979 2.62077 9.43979 2.43077L11.6598 1.32078C11.8698 1.21078 12.1198 1.21078 12.3298 1.32078L14.5498 2.43077C14.9198 2.62077 15.0698 3.07078 14.8898 3.44078C14.7598 3.71078 14.4998 3.86077 14.2198 3.86077Z" fill="#292D32"/>
<path opacity="0.4" d="M20.8904 9.97026C20.4804 9.97026 20.1404 9.63026 20.1404 9.22026V7.66026L19.0004 8.23025C18.6304 8.42025 18.1804 8.27026 17.9904 7.89026C17.8004 7.52026 17.9504 7.07026 18.3304 6.88026L19.2104 6.44026L18.3304 6.00026C17.9604 5.81026 17.8104 5.36026 17.9904 4.99026C18.1704 4.62026 18.6304 4.47025 19.0004 4.65025L21.2104 5.75026C21.2304 5.76026 21.2604 5.77025 21.2804 5.79025C21.3404 5.82025 21.3904 5.87026 21.4404 5.92026C21.4704 5.96026 21.5004 6.00025 21.5304 6.04025C21.5704 6.11025 21.6004 6.18025 21.6204 6.26025C21.6304 6.32025 21.6404 6.38025 21.6404 6.43025V6.44026V9.20025C21.6404 9.64025 21.3004 9.97026 20.8904 9.97026Z" fill="#292D32"/>
</svg>
