<svg width="24" height="24" viewBox="0 0 24 24" fill="none" xmlns="http://www.w3.org/2000/svg">
<path d="M5.15039 22C4.74039 22 4.40039 21.66 4.40039 21.25V2.75C4.40039 2.34 4.74039 2 5.15039 2C5.56039 2 5.90039 2.34 5.90039 2.75V21.25C5.90039 21.66 5.56039 22 5.15039 22Z" fill="#292D32"/>
<path opacity="0.4" d="M18.0195 12.3294L16.7995 11.1094C16.5095 10.8594 16.3395 10.4894 16.3295 10.0794C16.3095 9.62938 16.4895 9.17938 16.8195 8.84938L18.0195 7.64937C19.0595 6.60938 19.4495 5.60938 19.1195 4.81938C18.7995 4.03938 17.8095 3.60938 16.3495 3.60938H5.14953C4.93953 3.61937 4.76953 3.78938 4.76953 3.99938V15.9994C4.76953 16.2094 4.93953 16.3794 5.14953 16.3794H16.3495C17.7895 16.3794 18.7595 15.9394 19.0895 15.1494C19.4195 14.3494 19.0395 13.3594 18.0195 12.3294Z" fill="#292D32"/>
</svg>
