<svg width="24" height="24" viewBox="0 0 24 24" fill="none" xmlns="http://www.w3.org/2000/svg">
<path opacity="0.4" d="M10.0693 2.81984L3.1393 8.36983C2.3593 8.98983 1.85929 10.2999 2.02929 11.2799L3.35927 19.2398C3.59927 20.6598 4.95928 21.8098 6.39928 21.8098H17.5993C19.0293 21.8098 20.3993 20.6498 20.6393 19.2398L21.9693 11.2799C22.1293 10.2999 21.6293 8.98983 20.8593 8.36983L13.9293 2.82985C12.8593 1.96985 11.1293 1.96984 10.0693 2.81984Z" fill="#292D32"/>
<path d="M14.1205 15.1301C13.9305 15.1301 13.7505 15.0601 13.6005 14.9201C12.6305 13.9901 11.3706 13.9901 10.3906 14.9201C10.0906 15.2101 9.62052 15.2002 9.33052 14.9002C9.04052 14.6002 9.05054 14.1302 9.35054 13.8402C10.9005 12.3502 13.0705 12.3502 14.6305 13.8402C14.9305 14.1302 14.9405 14.6002 14.6505 14.9002C14.5205 15.0502 14.3205 15.1301 14.1205 15.1301Z" fill="#292D32"/>
<path d="M16.2404 13.0118C16.0504 13.0118 15.8604 12.9417 15.7204 12.8017C15.2504 12.3417 14.7204 11.9718 14.1604 11.7018C12.7604 11.0318 11.2304 11.0318 9.84037 11.7018C9.28037 11.9718 8.76037 12.3417 8.28037 12.8017C7.99037 13.0917 7.51037 13.0917 7.22037 12.7917C6.93037 12.4917 6.94038 12.0217 7.23038 11.7317C7.82038 11.1517 8.48037 10.6917 9.19037 10.3517C11.0004 9.48172 13.0004 9.48172 14.8004 10.3517C15.5104 10.6917 16.1704 11.1517 16.7604 11.7317C17.0604 12.0217 17.0604 12.4917 16.7704 12.7917C16.6304 12.9317 16.4404 13.0118 16.2404 13.0118Z" fill="#292D32"/>
<path d="M12.0005 17.5003C11.7405 17.5003 11.4905 17.4003 11.2905 17.2103C10.9005 16.8203 10.9005 16.1903 11.2905 15.8003C11.6805 15.4103 12.3205 15.4103 12.7105 15.8003C13.1005 16.1903 13.1005 16.8203 12.7105 17.2103C12.5105 17.4003 12.2605 17.5003 12.0005 17.5003Z" fill="#292D32"/>
</svg>
