<svg width="24" height="24" viewBox="0 0 24 24" fill="none" xmlns="http://www.w3.org/2000/svg">
<path opacity="0.4" d="M16.1898 2H7.81978C4.17978 2 2.00977 4.17 2.00977 7.81V16.18C2.00977 19.82 4.17978 21.99 7.81978 21.99H16.1898C19.8298 21.99 21.9998 19.82 21.9998 16.18V7.81C21.9998 4.17 19.8298 2 16.1898 2Z" fill="#292D32"/>
<path d="M16.8598 8.45812C16.0198 8.37812 15.2498 8.32812 14.4998 8.27812L14.4198 7.79812C14.3498 7.31812 14.1998 6.32812 12.6898 6.32812H11.2998C9.80979 6.32812 9.6498 7.27812 9.5698 7.78812L9.4898 8.25812C9.0598 8.28812 8.6398 8.30812 8.2098 8.34812L7.11979 8.45812C6.73979 8.49812 6.46979 8.82812 6.50979 9.20812C6.54979 9.55812 6.83979 9.82812 7.18979 9.82812C7.20979 9.82812 7.23979 9.82812 7.25979 9.82812L8.33979 9.71812C8.93979 9.66812 9.54979 9.61812 10.1498 9.58812C11.3698 9.53812 12.5898 9.55812 13.8198 9.61812C14.7298 9.65812 15.6798 9.72812 16.7198 9.82812C16.7398 9.82812 16.7598 9.82812 16.7798 9.82812C17.1298 9.82812 17.4298 9.55812 17.4598 9.20812C17.5098 8.82812 17.2398 8.48812 16.8598 8.45812Z" fill="#292D32"/>
<path d="M15.8305 11.0986C15.6605 10.9086 15.4105 10.8086 15.1605 10.8086H8.84049C8.59049 10.8086 8.34049 10.9186 8.17049 11.0986C8.00049 11.2886 7.91048 11.5386 7.93048 11.7886L8.2405 15.7486C8.3005 16.5986 8.37049 17.6586 10.2905 17.6586H13.7105C15.6305 17.6586 15.7005 16.5986 15.7605 15.7486L16.0705 11.7886C16.0905 11.5386 16.0005 11.2886 15.8305 11.0986Z" fill="#292D32"/>
</svg>
