<svg width="24" height="24" viewBox="0 0 24 24" fill="none" xmlns="http://www.w3.org/2000/svg">
<path opacity="0.4" d="M21.0802 8.58003V15.42C21.0802 16.54 20.4802 17.58 19.5102 18.15L13.5702 21.58C12.6002 22.14 11.4002 22.14 10.4202 21.58L4.48016 18.15C3.51016 17.59 2.91016 16.55 2.91016 15.42V8.58003C2.91016 7.46003 3.51016 6.41999 4.48016 5.84999L10.4202 2.42C11.3902 1.86 12.5902 1.86 13.5702 2.42L19.5102 5.84999C20.4802 6.41999 21.0802 7.45003 21.0802 8.58003Z" fill="#292D32"/>
<path d="M12 13.75C11.59 13.75 11.25 13.41 11.25 13V7.75C11.25 7.34 11.59 7 12 7C12.41 7 12.75 7.34 12.75 7.75V13C12.75 13.41 12.41 13.75 12 13.75Z" fill="#292D32"/>
<path d="M12 17.2489C11.87 17.2489 11.74 17.2189 11.62 17.1689C11.49 17.1189 11.39 17.0489 11.29 16.9589C11.2 16.8589 11.13 16.7489 11.07 16.6289C11.02 16.5089 11 16.3789 11 16.2489C11 15.9889 11.1 15.7289 11.29 15.5389C11.39 15.4489 11.49 15.3789 11.62 15.3289C11.99 15.1689 12.43 15.2589 12.71 15.5389C12.8 15.6389 12.87 15.7389 12.92 15.8689C12.97 15.9889 13 16.1189 13 16.2489C13 16.3789 12.97 16.5089 12.92 16.6289C12.87 16.7489 12.8 16.8589 12.71 16.9589C12.52 17.1489 12.27 17.2489 12 17.2489Z" fill="#292D32"/>
</svg>
