<svg width="24" height="24" viewBox="0 0 24 24" fill="none" xmlns="http://www.w3.org/2000/svg">
<path d="M16.3001 15.3001C15.3001 16.6001 13.7001 17.5001 12.0001 17.5001C9.0001 17.5001 6.6001 15.1001 6.6001 12.1001C6.6001 9.1001 9.0001 6.6001 12.0001 6.6001C13.2001 6.6001 14.4001 7.0001 15.3001 7.7001" stroke="#17191C" stroke-width="1.5" stroke-miterlimit="10" stroke-linecap="round" stroke-linejoin="round"/>
<path d="M17.4 11.4C18.0627 11.4 18.6 10.8627 18.6 10.2C18.6 9.53726 18.0627 9 17.4 9C16.7372 9 16.2 9.53726 16.2 10.2C16.2 10.8627 16.7372 11.4 17.4 11.4Z" stroke="#17191C" stroke-width="1.5" stroke-miterlimit="10" stroke-linecap="round" stroke-linejoin="round"/>
<path d="M12 22C17.5228 22 22 17.5228 22 12C22 6.47715 17.5228 2 12 2C6.47715 2 2 6.47715 2 12C2 17.5228 6.47715 22 12 22Z" stroke="#17191C" stroke-width="1.5" stroke-miterlimit="10" stroke-linecap="round" stroke-linejoin="round"/>
</svg>
