<svg width="24" height="24" viewBox="0 0 24 24" fill="none" xmlns="http://www.w3.org/2000/svg">
<path d="M11 2.60005L6 5.40005C5.4 5.80005 5 6.40005 5 7.10005V16C5 16.6 5.3 17.3 5.8 17.6L10.8 21.2001C11.5 21.7001 12.4 21.7001 13.1 21.2001L18.1 17.6C18.6 17.2 18.9 16.6 18.9 16V7.20005C18.9 6.50005 18.5 5.80005 17.9 5.50005L12.9 2.60005C12.4 2.20005 11.6 2.20005 11 2.60005Z" stroke="#17191C" stroke-width="1.5" stroke-miterlimit="10" stroke-linecap="round" stroke-linejoin="round"/>
<path d="M12 3L10 12L11.8 21.2" stroke="#17191C" stroke-width="1.5" stroke-miterlimit="10" stroke-linecap="round" stroke-linejoin="round"/>
<path d="M18.2 16.9L10 12L18.5 7.30005" stroke="#17191C" stroke-width="1.5" stroke-miterlimit="10" stroke-linecap="round" stroke-linejoin="round"/>
</svg>
