<svg width="24" height="24" viewBox="0 0 24 24" fill="none" xmlns="http://www.w3.org/2000/svg">
<path opacity="0.4" d="M11.0002 20.0083C15.9763 20.0083 20.0102 15.9744 20.0102 10.9983C20.0102 6.0222 15.9763 1.98828 11.0002 1.98828C6.02415 1.98828 1.99023 6.0222 1.99023 10.9983C1.99023 15.9744 6.02415 20.0083 11.0002 20.0083Z" fill="#292D32"/>
<path d="M12.7699 8.29132C12.1399 8.09132 11.4699 8.21132 10.9899 8.58132C10.4999 8.21132 9.84993 8.09132 9.21993 8.29132C7.85993 8.73132 7.42993 10.2813 7.80993 11.4613C8.38993 13.2713 10.2999 14.2113 10.9899 14.2113C11.6599 14.2113 13.6099 13.2513 14.1699 11.4613C14.5599 10.2813 14.1299 8.73132 12.7699 8.29132Z" fill="#292D32"/>
<path d="M21.9901 18.95C21.6601 18.34 20.9601 18 20.0201 18C19.3101 18 18.7001 18.29 18.3401 18.79C17.9801 19.29 17.9001 19.96 18.1201 20.63C18.5501 21.93 19.3001 22.22 19.7101 22.27C19.7701 22.28 19.8301 22.28 19.9001 22.28C20.3401 22.28 21.0201 22.09 21.6801 21.1C22.2101 20.33 22.3101 19.56 21.9901 18.95Z" fill="#292D32"/>
</svg>
