<svg width="24" height="24" viewBox="0 0 24 24" fill="none" xmlns="http://www.w3.org/2000/svg">
<path d="M9 22H15C20 22 22 20 22 15V9C22 4 20 2 15 2H9C4 2 2 4 2 9V15C2 20 4 22 9 22Z" stroke="#292D32" stroke-width="1.5" stroke-linecap="round" stroke-linejoin="round"/>
<g opacity="0.4">
<path d="M14.3511 10.9111C14.2511 11.6211 13.8311 12.2211 13.2511 12.5811V14.5611C13.2511 15.2511 12.6911 15.8111 12.0011 15.8111C11.3111 15.8111 10.7511 15.2511 10.7511 14.5611V12.5811C10.1711 12.2211 9.75109 11.6211 9.65109 10.9111C9.63109 10.8011 9.62109 10.6811 9.62109 10.5611C9.62109 9.04109 11.0611 7.8611 12.6411 8.2811C13.4411 8.4911 14.0911 9.1411 14.3011 9.9411C14.3911 10.2711 14.4011 10.6011 14.3511 10.9111Z" stroke="#292D32" stroke-width="1.5" stroke-miterlimit="10"/>
<path d="M22.0016 10.9102H14.3516" stroke="#292D32" stroke-width="1.5" stroke-miterlimit="10"/>
<path d="M9.64999 10.9102H2" stroke="#292D32" stroke-width="1.5" stroke-miterlimit="10"/>
</g>
</svg>
