<svg width="24" height="24" viewBox="0 0 24 24" fill="none" xmlns="http://www.w3.org/2000/svg">
<path d="M17.2004 22.7484C14.1404 22.7484 11.6504 20.2584 11.6504 17.1984C11.6504 14.1384 14.1404 11.6484 17.2004 11.6484C20.2604 11.6484 22.7504 14.1384 22.7504 17.1984C22.7504 20.2584 20.2604 22.7484 17.2004 22.7484ZM17.2004 13.1484C14.9704 13.1484 13.1504 14.9684 13.1504 17.1984C13.1504 19.4284 14.9704 21.2484 17.2004 21.2484C19.4304 21.2484 21.2504 19.4284 21.2504 17.1984C21.2504 14.9684 19.4304 13.1484 17.2004 13.1484Z" fill="#292D32"/>
<path d="M18.9904 18.0117H15.4004C14.9904 18.0117 14.6504 17.6717 14.6504 17.2617C14.6504 16.8517 14.9904 16.5117 15.4004 16.5117H18.9904C19.4004 16.5117 19.7404 16.8517 19.7404 17.2617C19.7404 17.6717 19.4104 18.0117 18.9904 18.0117Z" fill="#292D32"/>
<path d="M17.1992 19.8517C16.7892 19.8517 16.4492 19.5117 16.4492 19.1017V15.5117C16.4492 15.1017 16.7892 14.7617 17.1992 14.7617C17.6092 14.7617 17.9492 15.1017 17.9492 15.5117V19.1017C17.9492 19.5117 17.6092 19.8517 17.1992 19.8517Z" fill="#292D32"/>
<path d="M12 21.6516C11.69 21.6516 11.38 21.6116 11.13 21.5216C8.57 20.6516 1.25 16.4116 1.25 8.69159C1.25 5.19159 4.08 2.35156 7.56 2.35156C9.23 2.35156 10.83 3.02159 12 4.19159C13.17 3.02159 14.78 2.35156 16.44 2.35156C19.92 2.35156 22.75 5.19159 22.75 8.69159C22.75 10.6416 22.28 12.5116 21.35 14.2616C21.24 14.4716 21.03 14.6216 20.79 14.6516C20.54 14.6816 20.31 14.6016 20.14 14.4216C19.36 13.6016 18.31 13.1416 17.19 13.1416C14.96 13.1416 13.14 14.9616 13.14 17.1916C13.14 18.1816 13.51 19.1416 14.18 19.8916C14.34 20.0716 14.4 20.3116 14.35 20.5416C14.3 20.7716 14.14 20.9716 13.93 21.0716C13.53 21.2516 13.17 21.4016 12.84 21.5116C12.61 21.6116 12.31 21.6516 12 21.6516ZM7.56 3.85156C4.91 3.85156 2.75 6.02159 2.75 8.69159C2.75 15.5316 9.32 19.3116 11.62 20.1016C11.8 20.1716 12.19 20.1616 12.37 20.1016C12.4 20.0916 12.43 20.0816 12.46 20.0716C11.94 19.2116 11.65 18.2216 11.65 17.2016C11.65 14.1416 14.14 11.6516 17.2 11.6516C18.38 11.6516 19.5 12.0216 20.44 12.6916C20.98 11.4116 21.25 10.0716 21.25 8.69159C21.25 6.02159 19.09 3.85156 16.44 3.85156C14.94 3.85156 13.5 4.57162 12.6 5.78162C12.32 6.16162 11.68 6.16162 11.4 5.78162C10.5 4.57162 9.06 3.85156 7.56 3.85156Z" fill="#292D32"/>
</svg>
