<svg width="24" height="24" viewBox="0 0 24 24" fill="none" xmlns="http://www.w3.org/2000/svg">
<path d="M6.10999 18.2516C5.92999 18.2516 5.73998 18.1816 5.59998 18.0516C3.61998 16.1916 1.25 13.0616 1.25 8.69159C1.25 5.19159 4.08 2.35156 7.56 2.35156C9.25 2.35156 10.83 3.01159 12 4.19159C13.17 3.01159 14.75 2.35156 16.44 2.35156C17.7 2.35156 18.92 2.73158 19.97 3.43158C20.31 3.66158 20.4 4.13156 20.17 4.47156C19.94 4.81156 19.47 4.90157 19.13 4.67157C18.34 4.13157 17.41 3.84161 16.45 3.84161C14.93 3.84161 13.52 4.55162 12.61 5.78162C12.33 6.16162 11.69 6.16162 11.41 5.78162C10.49 4.55162 9.09001 3.84161 7.57001 3.84161C4.92001 3.84161 2.76001 6.01158 2.76001 8.68158C2.76001 12.5216 4.87001 15.2916 6.64001 16.9516C6.94001 17.2316 6.95999 17.7116 6.67999 18.0116C6.50999 18.1716 6.30999 18.2516 6.10999 18.2516Z" fill="#292D32"/>
<path d="M11.9994 21.6489C11.6894 21.6489 11.3894 21.6089 11.1394 21.5189C10.3894 21.2589 9.49942 20.8388 8.63942 20.3288C8.27942 20.1188 8.16941 19.6588 8.37941 19.2988C8.58941 18.9488 9.04938 18.8288 9.40938 19.0388C10.1894 19.4988 10.9794 19.8788 11.6294 20.0988C11.8094 20.1588 12.1994 20.1588 12.3794 20.0988C14.6794 19.3088 21.2594 15.5188 21.2594 8.67882C21.2594 8.17882 21.1794 7.6888 21.0394 7.2188C20.9194 6.8188 21.1294 6.39886 21.5294 6.27886C21.9294 6.15886 22.3494 6.37885 22.4694 6.76885C22.6594 7.38885 22.7594 8.02882 22.7594 8.67882C22.7594 15.5588 16.6894 20.1988 12.8694 21.5088C12.6094 21.6088 12.3094 21.6489 11.9994 21.6489Z" fill="#292D32"/>
<path d="M1.99948 22.7514C1.80948 22.7514 1.61945 22.6815 1.46945 22.5315C1.17945 22.2415 1.17945 21.7614 1.46945 21.4714L21.4695 1.47141C21.7595 1.18141 22.2395 1.18141 22.5295 1.47141C22.8195 1.76141 22.8195 2.24146 22.5295 2.53146L2.52951 22.5315C2.37951 22.6815 2.18948 22.7514 1.99948 22.7514Z" fill="#292D32"/>
</svg>
