<svg width="24" height="24" viewBox="0 0 24 24" fill="none" xmlns="http://www.w3.org/2000/svg">
<path d="M12 15.75C7.86 15.75 4.5 12.5 4.5 8.5C4.5 4.5 7.86 1.25 12 1.25C16.14 1.25 19.5 4.5 19.5 8.5C19.5 12.5 16.14 15.75 12 15.75ZM12 2.75C8.69 2.75 6 5.33 6 8.5C6 11.67 8.69 14.25 12 14.25C15.31 14.25 18 11.67 18 8.5C18 5.33 15.31 2.75 12 2.75Z" fill="#292D32"/>
<path d="M15.62 22.7481C15.34 22.7481 15.06 22.6781 14.77 22.5481L12.08 21.2781C12.05 21.2681 11.94 21.2681 11.9 21.2781L9.23002 22.5381C8.64002 22.8181 8.02001 22.8081 7.54001 22.4981C7.04001 22.1781 6.75002 21.5882 6.76002 20.8882L6.77 13.5081C6.77 13.0981 7.09 12.7381 7.52 12.7581C7.93 12.7581 8.27 13.0981 8.27 13.5081L8.26002 20.8882C8.26002 21.1082 8.32001 21.2181 8.35001 21.2281C8.37001 21.2381 8.46001 21.2481 8.60001 21.1781L11.28 19.9081C11.71 19.7081 12.3 19.7081 12.73 19.9081L15.42 21.1781C15.56 21.2481 15.65 21.2381 15.67 21.2281C15.7 21.2081 15.76 21.0982 15.76 20.8882V13.3281C15.76 12.9181 16.1 12.5781 16.51 12.5781C16.92 12.5781 17.26 12.9181 17.26 13.3281V20.8882C17.26 21.5982 16.97 22.1781 16.47 22.4981C16.21 22.6681 15.92 22.7481 15.62 22.7481Z" fill="#292D32"/>
</svg>
