<svg width="24" height="24" viewBox="0 0 24 24" fill="none" xmlns="http://www.w3.org/2000/svg">
<path d="M16.2406 22.6695C15.8106 22.6695 15.2706 22.5395 14.6006 22.1395L12.3606 20.8095C12.1906 20.7095 11.8106 20.7095 11.6406 20.8095L9.40061 22.1395C7.98061 22.9795 7.12061 22.6295 6.74061 22.3495C6.36061 22.0695 5.76063 21.3495 6.13063 19.7495L6.66062 17.4395C6.70062 17.2595 6.60062 16.9195 6.47062 16.7795L4.61061 14.9195C3.61061 13.9195 3.69061 13.0495 3.83061 12.6095C3.97061 12.1695 4.41061 11.4195 5.80061 11.1795L8.19062 10.7795C8.36062 10.7495 8.63063 10.5495 8.70063 10.3995L10.0206 7.75952C10.6706 6.46952 11.5306 6.26953 11.9906 6.26953C12.4506 6.26953 13.3106 6.45952 13.9606 7.75952L15.2806 10.3995C15.3606 10.5495 15.6306 10.7495 15.7906 10.7795L18.1806 11.1795C19.5706 11.4095 20.0106 12.1695 20.1506 12.6095C20.2906 13.0495 20.3706 13.9195 19.3706 14.9195L17.5106 16.7795C17.3806 16.9095 17.2806 17.2595 17.3206 17.4395L17.8506 19.7395C18.2206 21.3495 17.6306 22.0595 17.2406 22.3395C17.0606 22.4995 16.7206 22.6695 16.2406 22.6695ZM12.0006 19.2395C12.4006 19.2395 12.8006 19.3295 13.1206 19.5195L15.3606 20.8495C15.9506 21.1995 16.3006 21.1995 16.3706 21.1395C16.4506 21.0795 16.5506 20.7495 16.4006 20.0895L15.8706 17.7895C15.7106 17.1095 15.9706 16.2295 16.4606 15.7395L18.3206 13.8795C18.6906 13.5095 18.7706 13.2195 18.7306 13.0895C18.6906 12.9595 18.4606 12.7695 17.9406 12.6895L15.5506 12.2895C14.9106 12.1795 14.2306 11.6795 13.9406 11.0995L12.6206 8.45953C12.3906 8.00953 12.1406 7.79953 11.9906 7.79953C11.8406 7.79953 11.5906 7.99953 11.3606 8.45953L10.0406 11.0995C9.75063 11.6795 9.07061 12.1795 8.43061 12.2895L6.04063 12.6895C5.52063 12.7795 5.29062 12.9595 5.25062 13.0895C5.21062 13.2195 5.29062 13.5095 5.66062 13.8795L7.52061 15.7395C8.01061 16.2295 8.27061 17.1195 8.11061 17.7895L7.58061 20.0995C7.43061 20.7695 7.53061 21.0995 7.61061 21.1495C7.69061 21.2095 8.04062 21.2095 8.62062 20.8595L10.8606 19.5295C11.2006 19.3395 11.6006 19.2395 12.0006 19.2395Z" fill="#292D32"/>
<path d="M6 9.75C5.59 9.75 5.25 9.41 5.25 9V2C5.25 1.59 5.59 1.25 6 1.25C6.41 1.25 6.75 1.59 6.75 2V9C6.75 9.41 6.41 9.75 6 9.75Z" fill="#292D32"/>
<path d="M18 9.75C17.59 9.75 17.25 9.41 17.25 9V2C17.25 1.59 17.59 1.25 18 1.25C18.41 1.25 18.75 1.59 18.75 2V9C18.75 9.41 18.41 9.75 18 9.75Z" fill="#292D32"/>
<path d="M12 4.75C11.59 4.75 11.25 4.41 11.25 4V2C11.25 1.59 11.59 1.25 12 1.25C12.41 1.25 12.75 1.59 12.75 2V4C12.75 4.41 12.41 4.75 12 4.75Z" fill="#292D32"/>
</svg>
