<svg width="24" height="24" viewBox="0 0 24 24" fill="none" xmlns="http://www.w3.org/2000/svg">
<path d="M2 7C2 6.45 2.45 6 3 6H8C9.66 6 11 7.34 11 9C11 10.66 9.66 12 8 12H2H9C10.66 12 12 13.34 12 15C12 16.66 10.66 18 9 18H3C2.45 18 2 17.55 2 17V10.97" stroke="black" stroke-width="1.5" stroke-miterlimit="10" stroke-linecap="round" stroke-linejoin="round"/>
<path d="M14 14H22C22 11.79 20.21 10 18 10C15.79 10 14 11.79 14 14ZM14 14C14 16.21 15.79 18 18 18H19.67" stroke="black" stroke-width="1.5" stroke-miterlimit="10" stroke-linecap="round" stroke-linejoin="round"/>
<path d="M19.5 7.5H16.5" stroke="black" stroke-width="1.5" stroke-miterlimit="10" stroke-linecap="round" stroke-linejoin="round"/>
</svg>
