<svg width="24" height="24" viewBox="0 0 24 24" fill="none" xmlns="http://www.w3.org/2000/svg">
<path d="M15 16C18.866 16 22 12.866 22 9C22 5.13401 18.866 2 15 2C11.134 2 8 5.13401 8 9C8 12.866 11.134 16 15 16Z" stroke="black" stroke-width="1.5" stroke-miterlimit="10"/>
<path d="M5.09003 9.2C6.21003 8.45 7.55 8 9 8C12.87 8 16 11.13 16 15C16 18.87 12.87 22 9 22C5.13 22 2 18.87 2 15C2 14.29 2.09999 13.61 2.29999 12.97" stroke="black" stroke-width="1.5" stroke-miterlimit="10" stroke-linecap="round" stroke-linejoin="round"/>
</svg>
