<svg width="24" height="24" viewBox="0 0 24 24" fill="none" xmlns="http://www.w3.org/2000/svg">
<path d="M5 11.6994V15.9694C5 16.6194 5.31003 17.2194 5.84003 17.5994L10.84 21.1694C11.54 21.6694 12.47 21.6694 13.16 21.1694L18.16 17.5994C18.69 17.2194 19 16.6194 19 15.9694V7.15938C19 6.43938 18.62 5.77938 17.99 5.41938L12.99 2.55937C12.38 2.20937 11.62 2.20937 11.01 2.55937L6.01001 5.41938C5.39001 5.77938 5 6.43938 5 7.15938" stroke="black" stroke-width="1.5" stroke-miterlimit="10" stroke-linecap="round" stroke-linejoin="round"/>
<path d="M12 3L10 12L11.85 21.23" stroke="black" stroke-width="1.5" stroke-miterlimit="10" stroke-linecap="round" stroke-linejoin="round"/>
<path d="M18.16 16.9117L10 12.0017L18.54 7.26172" stroke="black" stroke-width="1.5" stroke-miterlimit="10" stroke-linecap="round" stroke-linejoin="round"/>
</svg>
