<svg width="24" height="24" viewBox="0 0 24 24" fill="none" xmlns="http://www.w3.org/2000/svg">
<path d="M7.56055 7.56032V3.89034C7.56055 3.06034 8.17056 2.37031 8.98056 2.24031C10.9806 1.93031 13.0205 1.93031 15.0205 2.24031C15.8405 2.37031 16.4406 3.07034 16.4406 3.89034V9.78032C16.4406 11.0103 15.4506 12.0003 14.2206 12.0003H9.78055C8.55055 12.0003 7.56055 12.9903 7.56055 14.2203V20.1103C7.56055 20.9403 8.17056 21.6303 8.98056 21.7603C10.9806 22.0703 13.0205 22.0703 15.0205 21.7603C15.8405 21.6303 16.4406 20.9303 16.4406 20.1103V16.4403" stroke="black" stroke-width="1.5" stroke-linecap="round" stroke-linejoin="round"/>
<path d="M16.44 7.55859H20.11C20.94 7.55859 21.63 8.16861 21.76 8.97861C22.07 10.9786 22.07 13.0186 21.76 15.0186C21.63 15.8386 20.93 16.4386 20.11 16.4386H12" stroke="black" stroke-width="1.5" stroke-linecap="round" stroke-linejoin="round"/>
<path d="M2.01953 12.9805C2.04953 13.6605 2.11955 14.3404 2.22955 15.0204C2.35955 15.8404 3.05955 16.4405 3.87955 16.4405H7.54953" stroke="black" stroke-width="1.5" stroke-linecap="round" stroke-linejoin="round"/>
<path d="M12.0005 7.55859H3.88046C3.05046 7.55859 2.36047 8.16861 2.23047 8.97861" stroke="black" stroke-width="1.5" stroke-linecap="round" stroke-linejoin="round"/>
<path d="M10.3896 4.77875C10.3896 4.80875 10.3695 4.83875 10.3295 4.83875C10.2895 4.83875 10.2695 4.81875 10.2695 4.77875C10.2695 4.74875 10.2895 4.71875 10.3295 4.71875C10.3395 4.71875 10.3595 4.72874 10.3695 4.73874C10.3795 4.74874 10.3896 4.75875 10.3896 4.77875Z" stroke="black" stroke-width="1.5" stroke-linecap="round" stroke-linejoin="round"/>
<path d="M13.7196 19.2202C13.7196 19.2502 13.6996 19.2802 13.6596 19.2802C13.6296 19.2802 13.5996 19.2602 13.5996 19.2202C13.5996 19.1902 13.6196 19.1602 13.6596 19.1602C13.6696 19.1602 13.6896 19.1701 13.6996 19.1801C13.7196 19.1901 13.7196 19.2102 13.7196 19.2202Z" stroke="black" stroke-width="1.5" stroke-linecap="round" stroke-linejoin="round"/>
</svg>
