<svg width="24" height="24" viewBox="0 0 24 24" fill="none" xmlns="http://www.w3.org/2000/svg">
<path d="M2 10.9906V9.26062C2 8.48062 2.44999 7.78062 3.14999 7.45062L9.64999 4.39062C10.19 4.14062 10.81 4.14062 11.35 4.39062L14.02 5.6506C14 5.7706 14 5.89061 14 6.00061C14 8.21061 15.79 10.0006 18 10.0006C18.35 10.0006 18.68 9.96061 19 9.87061V16.7306C19 17.5106 18.55 18.2106 17.85 18.5406L11.35 21.6006C10.81 21.8506 10.19 21.8506 9.64999 21.6006L3.14999 18.5406C2.44999 18.2106 2 17.5106 2 16.7306V15.4406" stroke="black" stroke-width="1.5" stroke-miterlimit="10" stroke-linecap="round" stroke-linejoin="round"/>
<path d="M7 10.5V13.5C7 14.6 7.9 15.5 9 15.5C10.1 15.5 11 14.6 11 13.5V10.5" stroke="black" stroke-width="1.5" stroke-miterlimit="10" stroke-linecap="round"/>
<path d="M14 10.5V15.44" stroke="black" stroke-width="1.5" stroke-miterlimit="10" stroke-linecap="round"/>
<path d="M22 6C22 7.86 20.73 9.43 19 9.87C18.68 9.96 18.35 10 18 10C15.79 10 14 8.21 14 6C14 5.89 14 5.77 14.02 5.66C14.19 3.61 15.9 2 18 2C20.21 2 22 3.79 22 6Z" stroke="black" stroke-width="1.5" stroke-miterlimit="10"/>
<path d="M19.0901 5.9108C19.3301 5.7008 19.4602 5.42078 19.4602 5.08078C19.4602 4.31078 18.8802 3.80078 18.0002 3.80078C17.1202 3.80078 16.5401 4.32078 16.5401 5.08078C16.5401 5.41078 16.6702 5.7008 16.9102 5.9108C16.5902 6.1508 16.4102 6.50081 16.4102 6.89081C16.4102 7.70081 17.0201 8.20081 18.0101 8.20081C19.0001 8.20081 19.6102 7.70081 19.6102 6.89081C19.6002 6.49081 19.4201 6.1408 19.0901 5.9108ZM18.0002 5.5108C17.7302 5.5108 17.5602 5.3608 17.5602 5.1308C17.5602 4.8508 17.7902 4.7608 18.0002 4.7608C18.2102 4.7608 18.4402 4.8608 18.4402 5.1308C18.4402 5.3608 18.2702 5.5108 18.0002 5.5108ZM18.0002 6.34079C18.2802 6.34079 18.5802 6.4608 18.5802 6.7908C18.5802 7.0808 18.3602 7.25079 18.0002 7.25079C17.6402 7.25079 17.4202 7.0808 17.4202 6.7908C17.4202 6.3808 17.8602 6.34079 18.0002 6.34079Z" fill="black"/>
</svg>
