<svg width="24" height="24" viewBox="0 0 24 24" fill="none" xmlns="http://www.w3.org/2000/svg">
<path d="M9.03023 21.6898L11.3602 19.7298C11.7102 19.4298 12.2902 19.4298 12.6402 19.7298L14.9702 21.6898C15.5102 21.9598 16.1702 21.6898 16.3702 21.1098L16.8102 19.7798C16.9202 19.4598 16.8102 18.9898 16.5702 18.7498L14.3002 16.4698C14.1302 16.3098 14.0002 15.9898 14.0002 15.7598V12.9098C14.0002 12.4898 14.3102 12.2898 14.7002 12.4498L19.6102 14.5698C20.3802 14.8998 21.0102 14.4898 21.0102 13.6498V12.3598C21.0102 11.6898 20.5102 10.9198 19.8902 10.6598L14.3002 8.24977C14.1402 8.17977 14.0002 7.96977 14.0002 7.78977V4.78977C14.0002 3.84977 13.3102 2.73977 12.4702 2.30977C12.1702 2.15977 11.8202 2.15977 11.5202 2.30977C10.6802 2.73977 9.99023 3.85977 9.99023 4.79977V7.79977C9.99023 7.97977 9.85023 8.18977 9.69023 8.25977L4.11023 10.6698C3.49023 10.9198 2.99023 11.6898 2.99023 12.3598V13.6498C2.99023 14.4898 3.62023 14.8998 4.39023 14.5698L9.30023 12.4498C9.68023 12.2798 10.0002 12.4898 10.0002 12.9098V15.7598C10.0002 15.9898 9.87023 16.3098 9.71023 16.4698L7.44023 18.7498C7.20023 18.9898 7.09023 19.4498 7.20023 19.7798L7.64023 21.1098C7.82023 21.6898 8.48023 21.9698 9.03023 21.6898Z" stroke="#292D32" stroke-width="1.5" stroke-linecap="round" stroke-linejoin="round"/>
</svg>
