<svg width="24" height="24" viewBox="0 0 24 24" fill="none" xmlns="http://www.w3.org/2000/svg">
<path d="M22 4.67019V16.7402C22 17.7002 21.22 18.6002 20.26 18.7202L19.93 18.7602C17.75 19.0502 14.39 20.1602 12.47 21.2202C12.21 21.3702 11.78 21.3702 11.51 21.2202L11.47 21.2002C9.54997 20.1502 6.20003 19.0502 4.03003 18.7602L3.73999 18.7202C2.77999 18.6002 2 17.7002 2 16.7402V4.66018C2 3.47018 2.96997 2.57019 4.15997 2.67019C6.25997 2.84019 9.43997 3.90022 11.22 5.01022L11.47 5.16018C11.76 5.34018 12.24 5.34018 12.53 5.16018L12.7 5.05019C13.33 4.66019 14.13 4.27019 15 3.92019C16.31 3.40019 17.77 2.98024 19 2.78024C19.27 2.73024 19.53 2.7002 19.77 2.6802H19.83C21.02 2.5802 22 3.47019 22 4.67019Z" stroke="#292D32" stroke-width="1.5" stroke-linecap="round" stroke-linejoin="round"/>
<path opacity="0.4" d="M12 5.49023V20.4902" stroke="#292D32" stroke-width="1.5" stroke-linecap="round" stroke-linejoin="round"/>
<path opacity="0.4" d="M19 2.78027V8.00024L17 6.67023L15 8.00024V3.92023C16.31 3.40023 17.77 2.98027 19 2.78027Z" stroke="#292D32" stroke-width="1.5" stroke-linecap="round" stroke-linejoin="round"/>
</svg>
