<svg width="24" height="24" viewBox="0 0 24 24" fill="none" xmlns="http://www.w3.org/2000/svg">
<path d="M2 22H22" stroke="#292D32" stroke-width="1.5" stroke-linecap="round" stroke-linejoin="round"/>
<path d="M3.10938 22V13C3.10938 11.34 4.59938 10 6.43938 10H17.5494C19.3894 10 20.8794 11.34 20.8794 13V22" stroke="#292D32" stroke-width="1.5" stroke-linecap="round" stroke-linejoin="round"/>
<path d="M5.56055 10V7.17C5.56055 5.97 6.64055 5 7.98055 5H16.0305C17.3605 5 18.4405 5.97 18.4405 7.17V10" stroke="#292D32" stroke-width="1.5" stroke-linecap="round" stroke-linejoin="round"/>
<path opacity="0.34" d="M3.5293 13.98L3.8993 13.99C4.6393 14 5.2293 14.6 5.2293 15.34V15.67C5.2293 16.41 5.8293 17.02 6.5793 17.02C7.3193 17.02 7.9293 16.42 7.9293 15.67V15.36C7.9293 14.62 8.5293 14.01 9.2793 14.01C10.0193 14.01 10.6293 14.61 10.6293 15.36V15.67C10.6293 16.41 11.2293 17.02 11.9793 17.02C12.7193 17.02 13.3293 16.42 13.3293 15.67V15.36C13.3293 14.62 13.9293 14.01 14.6793 14.01C15.4193 14.01 16.0293 14.61 16.0293 15.36V15.67C16.0293 16.41 16.6293 17.02 17.3793 17.02C18.1193 17.02 18.7293 16.42 18.7293 15.67V15.36C18.7293 14.62 19.3293 14.01 20.0793 14.01H20.5293" stroke="#292D32" stroke-width="1.5" stroke-linecap="round" stroke-linejoin="round"/>
<path opacity="0.34" d="M8 5V3" stroke="#292D32" stroke-width="1.5" stroke-linecap="round" stroke-linejoin="round"/>
<path opacity="0.34" d="M16 5V3" stroke="#292D32" stroke-width="1.5" stroke-linecap="round" stroke-linejoin="round"/>
<path opacity="0.34" d="M12 5V2" stroke="#292D32" stroke-width="1.5" stroke-linecap="round" stroke-linejoin="round"/>
</svg>
