<svg width="24" height="24" viewBox="0 0 24 24" fill="none" xmlns="http://www.w3.org/2000/svg">
<path opacity="0.4" d="M11 2H9C4 2 2 4 2 9V15C2 20 4 22 9 22H15C20 22 22 20 22 15V13" stroke="#292D32" stroke-width="1.5" stroke-linecap="round" stroke-linejoin="round"/>
<path d="M16.0399 3.01976L8.15988 10.8998C7.85988 11.1998 7.55988 11.7898 7.49988 12.2198L7.06988 15.2298C6.90988 16.3198 7.67988 17.0798 8.76988 16.9298L11.7799 16.4998C12.1999 16.4398 12.7899 16.1398 13.0999 15.8398L20.9799 7.95976C22.3399 6.59976 22.9799 5.01976 20.9799 3.01976C18.9799 1.01976 17.3999 1.65976 16.0399 3.01976Z" stroke="#292D32" stroke-width="1.5" stroke-miterlimit="10" stroke-linecap="round" stroke-linejoin="round"/>
<path opacity="0.4" d="M14.9102 4.1499C15.5802 6.5399 17.4502 8.4099 19.8502 9.0899" stroke="#292D32" stroke-width="1.5" stroke-miterlimit="10" stroke-linecap="round" stroke-linejoin="round"/>
</svg>
