<svg width="24" height="24" viewBox="0 0 24 24" fill="none" xmlns="http://www.w3.org/2000/svg">
<path opacity="0.4" d="M19.86 8.09009C19.86 8.51009 19.83 8.92009 19.78 9.31009C19.32 9.11009 18.82 9.00009 18.29 9.00009C17.07 9.00009 15.99 9.59008 15.32 10.4901C14.64 9.59008 13.56 9.00009 12.34 9.00009C10.29 9.00009 8.63 10.6701 8.63 12.7401C8.63 15.4201 10.05 17.4701 11.63 18.8601C11.58 18.8901 11.53 18.9001 11.48 18.9201C11.18 19.0301 10.68 19.0301 10.38 18.9201C7.79 18.0301 2 14.3501 2 8.09009C2 5.33009 4.21999 3.1001 6.95999 3.1001C8.58999 3.1001 10.03 3.88009 10.93 5.09009C11.84 3.88009 13.28 3.1001 14.9 3.1001C17.64 3.1001 19.86 5.33009 19.86 8.09009Z" stroke="#292D32" stroke-width="1.5" stroke-linecap="round" stroke-linejoin="round"/>
<path d="M22.0009 12.74C22.0009 17.42 17.6709 20.18 15.7309 20.84C15.5009 20.92 15.1308 20.92 14.9008 20.84C14.0708 20.56 12.8009 19.89 11.6309 18.86C10.0509 17.47 8.63086 15.42 8.63086 12.74C8.63086 10.67 10.2909 9 12.3409 9C13.5609 9 14.6409 9.58999 15.3209 10.49C15.9909 9.58999 17.0709 9 18.2909 9C18.8209 9 19.3209 9.11 19.7809 9.31C21.0909 9.89 22.0009 11.2 22.0009 12.74Z" stroke="#292D32" stroke-width="1.5" stroke-linecap="round" stroke-linejoin="round"/>
</svg>
