<svg width="24" height="24" viewBox="0 0 24 24" fill="none" xmlns="http://www.w3.org/2000/svg">
<path d="M12 15.5C14.21 15.5 16 13.71 16 11.5V6C16 3.79 14.21 2 12 2C9.79 2 8 3.79 8 6V11.5C8 13.71 9.79 15.5 12 15.5Z" stroke="#292D32" stroke-width="1.5" stroke-linecap="round" stroke-linejoin="round"/>
<path opacity="0.4" d="M10.6094 6.43012C11.5094 6.10012 12.4894 6.10012 13.3894 6.43012" stroke="#292D32" stroke-width="1.5" stroke-linecap="round" stroke-linejoin="round"/>
<path opacity="0.4" d="M11.1992 8.54982C11.7292 8.40982 12.2792 8.40982 12.8092 8.54982" stroke="#292D32" stroke-width="1.5" stroke-linecap="round" stroke-linejoin="round"/>
<g opacity="0.4">
<path d="M4.34961 9.65039V11.3504C4.34961 15.5704 7.77961 19.0004 11.9996 19.0004C16.2196 19.0004 19.6496 15.5704 19.6496 11.3504V9.65039" stroke="#292D32" stroke-width="1.5" stroke-linecap="round" stroke-linejoin="round"/>
<path d="M12 19V22" stroke="#292D32" stroke-width="1.5" stroke-linecap="round" stroke-linejoin="round"/>
</g>
</svg>
