<svg width="24" height="24" viewBox="0 0 24 24" fill="none" xmlns="http://www.w3.org/2000/svg">
<path opacity="0.4" d="M22 12C22 13.31 21.75 14.57 21.28 15.72C20.63 15.27 19.84 15 19 15C18.06 15 17.19 15.33 16.5 15.88C15.58 16.61 15 17.74 15 19C15 19.75 15.21 20.46 15.58 21.06C15.62 21.13 15.67 21.2 15.73 21.27C14.58 21.74 13.32 22 12 22C6.48 22 2 17.52 2 12C2 6.48 6.48 2 12 2C17.52 2 22 6.48 22 12Z" stroke="#292D32" stroke-width="1.5" stroke-linecap="round" stroke-linejoin="round"/>
<path d="M9.38086 12.0001V10.6101C9.38086 8.89008 10.6009 8.18007 12.0909 9.04007L13.2909 9.73007L14.4908 10.4201C15.9808 11.2801 15.9808 12.6901 14.4908 13.5501L13.2909 14.2401L12.0909 14.9301C10.6009 15.7901 9.38086 15.0901 9.38086 13.3601V12.0001Z" stroke="#292D32" stroke-width="1.5" stroke-miterlimit="10" stroke-linecap="round" stroke-linejoin="round"/>
<path d="M23 19C23 19.75 22.79 20.46 22.42 21.06C22.21 21.42 21.94 21.74 21.63 22C20.93 22.63 20.01 23 19 23C17.63 23 16.43 22.31 15.73 21.27C15.67 21.2 15.62 21.13 15.58 21.06C15.21 20.46 15 19.75 15 19C15 17.74 15.58 16.61 16.5 15.88C17.19 15.33 18.06 15 19 15C19.84 15 20.63 15.27 21.28 15.72C22.32 16.44 23 17.64 23 19Z" stroke="#292D32" stroke-width="1.5" stroke-miterlimit="10" stroke-linecap="round" stroke-linejoin="round"/>
<g opacity="0.4">
<path d="M20.0692 20.0402L17.9492 17.9302" stroke="#292D32" stroke-width="1.5" stroke-miterlimit="10" stroke-linecap="round" stroke-linejoin="round"/>
<path d="M20.0497 17.96L17.9297 20.0699" stroke="#292D32" stroke-width="1.5" stroke-miterlimit="10" stroke-linecap="round" stroke-linejoin="round"/>
</g>
</svg>
