<svg width="24" height="24" viewBox="0 0 24 24" fill="none" xmlns="http://www.w3.org/2000/svg">
<path d="M22.9998 15.37V17.5601C22.9998 20.0001 21.2198 22.3 18.7998 22.97C18.6298 23.01 18.4499 23.01 18.2899 22.97C17.1099 22.65 16.0698 21.93 15.3398 21C14.5498 20.02 14.0898 18.8101 14.0898 17.5601V15.37C14.0898 14.95 14.3998 14.49 14.7798 14.33L17.5598 13.1899C18.1898 12.9399 18.8898 12.9399 19.5198 13.1899L20.5198 13.6L22.3098 14.33C22.6898 14.49 22.9998 14.95 22.9998 15.37Z" stroke="#292D32" stroke-width="1.5" stroke-linecap="round" stroke-linejoin="round"/>
<path opacity="0.4" d="M20.9493 11.0103L20.5193 13.6003L19.5193 13.1902C18.8893 12.9402 18.1893 12.9402 17.5593 13.1902L14.7793 14.3302C14.3993 14.4902 14.0893 14.9503 14.0893 15.3703V17.5604C14.0893 18.8104 14.5493 20.0203 15.3393 21.0003H6.1793C4.8093 21.0003 3.51931 19.9104 3.28931 18.5604L2.0293 11.0103C1.8693 10.0803 2.33929 8.83028 3.07929 8.24028L9.65931 2.98027C10.6693 2.17027 12.3093 2.17028 13.3193 2.99028L19.8993 8.24028C20.6293 8.83028 21.1093 10.0803 20.9493 11.0103Z" stroke="#292D32" stroke-width="1.5" stroke-linecap="round" stroke-linejoin="round"/>
</svg>
