<svg width="24" height="24" viewBox="0 0 24 24" fill="none" xmlns="http://www.w3.org/2000/svg">
<path d="M9.00094 17.7504C8.89094 17.7504 8.77094 17.7204 8.67094 17.6704C7.90094 17.2804 7.24094 16.7004 6.76094 15.9804C6.36094 15.3804 6.36094 14.6104 6.76094 14.0104C7.24094 13.2904 7.90094 12.7104 8.67094 12.3304C9.04094 12.1404 9.49094 12.3004 9.68094 12.6704C9.87094 13.0404 9.72094 13.4904 9.34094 13.6804C8.80094 13.9504 8.34094 14.3604 8.01094 14.8604C7.95094 14.9504 7.95094 15.0704 8.01094 15.1704C8.34094 15.6704 8.80094 16.0804 9.34094 16.3504C9.71094 16.5404 9.86094 16.9904 9.68094 17.3604C9.54094 17.6004 9.27094 17.7504 9.00094 17.7504Z" fill="#292D32"/>
<path d="M15.2092 17.7504C14.9292 17.7504 14.6692 17.6004 14.5392 17.3404C14.3492 16.9704 14.4992 16.5204 14.8792 16.3304C15.4192 16.0604 15.8792 15.6504 16.2092 15.1504C16.2692 15.0604 16.2692 14.9404 16.2092 14.8404C15.8792 14.3404 15.4192 13.9304 14.8792 13.6604C14.5092 13.4704 14.3592 13.0204 14.5392 12.6504C14.7292 12.2804 15.1792 12.1304 15.5492 12.3104C16.3192 12.7004 16.9792 13.2804 17.4592 14.0004C17.8592 14.6004 17.8592 15.3704 17.4592 15.9704C16.9792 16.6904 16.3192 17.2704 15.5492 17.6504C15.4292 17.7204 15.3192 17.7504 15.2092 17.7504Z" fill="#292D32"/>
<path d="M15 22.75H9C3.57 22.75 1.25 20.43 1.25 15V9C1.25 3.57 3.57 1.25 9 1.25H15C20.43 1.25 22.75 3.57 22.75 9V15C22.75 20.43 20.43 22.75 15 22.75ZM9 2.75C4.39 2.75 2.75 4.39 2.75 9V15C2.75 19.61 4.39 21.25 9 21.25H15C19.61 21.25 21.25 19.61 21.25 15V9C21.25 4.39 19.61 2.75 15 2.75H9Z" fill="#292D32"/>
<path d="M2.23047 8.76C1.82047 8.76 1.48047 8.42 1.48047 8.01C1.48047 7.6 1.81047 7.26 2.23047 7.26L21.4505 7.25C21.8605 7.25 22.2005 7.59 22.2005 8C22.2005 8.41 21.8705 8.75 21.4505 8.75L2.23047 8.76Z" fill="#292D32"/>
</svg>
