<svg xmlns="http://www.w3.org/2000/svg" width="193.832" height="193.83" viewBox="0 0 193.832 193.83">
  <g id="Grupo_335" data-name="Grupo 335" transform="translate(-586 -2782.658)">
    <g id="Grupo_313" data-name="Grupo 313" transform="translate(586 2782.658)" opacity="0.18">
      <path id="Trazado_726" data-name="Trazado 726" d="M8400.764,401.225H8274.182a31.812,31.812,0,0,0-31.812,31.813V559.617a31.811,31.811,0,0,0,31.812,31.813h126.582a31.812,31.812,0,0,0,31.813-31.813V433.038A31.813,31.813,0,0,0,8400.764,401.225Zm-126.582-1.339a33.151,33.151,0,0,0-33.15,33.152V559.617a33.153,33.153,0,0,0,33.15,33.154h126.582a33.153,33.153,0,0,0,33.151-33.154V433.038a33.151,33.151,0,0,0-33.151-33.152Z" transform="translate(-8240.557 -399.412)" fill="#a5a7b5" fill-rule="evenodd"/>
      <path id="Trazado_727" data-name="Trazado 727" d="M8432.114,591.918,8239.23,399.035l.949-.947,192.883,192.884Z" transform="translate(-8239.23 -398.088)" fill="#a5a7b5" fill-rule="evenodd"/>
      <path id="Trazado_728" data-name="Trazado 728" d="M8239.23,590.972l192.884-192.884.948.947L8240.18,591.918Z" transform="translate(-8239.23 -398.088)" fill="#a5a7b5" fill-rule="evenodd"/>
      <path id="Trazado_729" data-name="Trazado 729" d="M8276.791,592.771V399.886h1.339V592.771Z" transform="translate(-8266.894 -399.412)" fill="#a5a7b5" fill-rule="evenodd"/>
      <path id="Trazado_730" data-name="Trazado 730" d="M8491.689,592.771V399.886h1.338V592.771Z" transform="translate(-8425.16 -399.412)" fill="#a5a7b5" fill-rule="evenodd"/>
      <path id="Trazado_731" data-name="Trazado 731" d="M8717.23,592.771V399.886h1.339V592.771Z" transform="translate(-8591.267 -399.412)" fill="#a5a7b5" fill-rule="evenodd"/>
      <path id="Trazado_732" data-name="Trazado 732" d="M8932.131,592.771V399.886h1.339V592.771Z" transform="translate(-8749.535 -399.412)" fill="#a5a7b5" fill-rule="evenodd"/>
      <path id="Trazado_733" data-name="Trazado 733" d="M8433.915,436.983H8241.031v-1.34h192.884Z" transform="translate(-8240.557 -425.746)" fill="#a5a7b5" fill-rule="evenodd"/>
      <path id="Trazado_734" data-name="Trazado 734" d="M8433.915,651.883H8241.031v-1.339h192.884Z" transform="translate(-8240.557 -584.016)" fill="#a5a7b5" fill-rule="evenodd"/>
      <path id="Trazado_735" data-name="Trazado 735" d="M8433.915,877.424H8241.031v-1.34h192.884Z" transform="translate(-8240.557 -750.121)" fill="#a5a7b5" fill-rule="evenodd"/>
      <path id="Trazado_736" data-name="Trazado 736" d="M8433.915,1092.329H8241.031v-1.339h192.884Z" transform="translate(-8240.557 -908.394)" fill="#a5a7b5" fill-rule="evenodd"/>
      <path id="Trazado_737" data-name="Trazado 737" d="M8399.587,631.463a72.875,72.875,0,1,0-72.874-72.875A72.874,72.874,0,0,0,8399.587,631.463Zm0,1.341a74.216,74.216,0,1,0-74.216-74.216A74.216,74.216,0,0,0,8399.587,632.8Z" transform="translate(-8302.672 -461.635)" fill="#a5a7b5" fill-rule="evenodd"/>
      <path id="Trazado_738" data-name="Trazado 738" d="M8523.949,711.182A28.378,28.378,0,1,0,8495.57,682.8,28.379,28.379,0,0,0,8523.949,711.182Zm0,1.339a29.718,29.718,0,1,0-29.718-29.718A29.718,29.718,0,0,0,8523.949,712.521Z" transform="translate(-8427.032 -585.888)" fill="#a5a7b5" fill-rule="evenodd"/>
      <path id="Trazado_739" data-name="Trazado 739" d="M8473.8,678.979a46.321,46.321,0,1,0-46.318-46.321A46.319,46.319,0,0,0,8473.8,678.979Zm0,1.339a47.66,47.66,0,1,0-47.661-47.66A47.66,47.66,0,0,0,8473.8,680.319Z" transform="translate(-8376.884 -535.743)" fill="#a5a7b5" fill-rule="evenodd"/>
    </g>
    <g id="Group" transform="translate(616.647 2820.462)">
      <path id="Vector" d="M67.211,134.8a14.162,14.162,0,0,1-11.254-6l-9.378-12.5a2.356,2.356,0,0,0-1.313-.625H42.2c-26.072,0-42.2-7.065-42.2-42.2V42.2C0,14.568,14.568,0,42.2,0H79.716A4.723,4.723,0,0,1,84.4,4.689a4.723,4.723,0,0,1-4.689,4.689H42.2C19.819,9.378,9.378,19.82,9.378,42.2V73.464c0,28.26,9.691,32.824,32.824,32.824h3.126a11.728,11.728,0,0,1,8.753,4.377l9.378,12.5c2.188,2.876,5.314,2.876,7.5,0l9.378-12.5a10.956,10.956,0,0,1,8.753-4.377H92.22c22.383,0,32.824-10.441,32.824-32.824V54.707a4.689,4.689,0,1,1,9.378,0V73.464c0,27.635-14.568,42.2-42.2,42.2H89.094a1.632,1.632,0,0,0-1.25.625l-9.378,12.5A14.162,14.162,0,0,1,67.211,134.8Z" transform="translate(0 0)" fill="#131315"/>
    </g>
    <g id="Group-2" data-name="Group" transform="translate(677.607 2875.168)">
      <path id="Vector-2" data-name="Vector" d="M6.252,12.5A6.252,6.252,0,1,1,12.5,6.252,6.231,6.231,0,0,1,6.252,12.5Z" transform="translate(0 0)" fill="#131315"/>
    </g>
    <g id="Group-3" data-name="Group" transform="translate(700.616 2875.168)">
      <path id="Vector-3" data-name="Vector" d="M6.252,12.5A6.252,6.252,0,1,1,12.5,6.252,6.231,6.231,0,0,1,6.252,12.5Z" transform="translate(0 0)" fill="#131315"/>
    </g>
    <g id="Group-4" data-name="Group" transform="translate(654.598 2875.168)">
      <path id="Vector-4" data-name="Vector" d="M6.252,12.5A6.252,6.252,0,1,1,12.5,6.252,6.231,6.231,0,0,1,6.252,12.5Z" transform="translate(0 0)" fill="#131315"/>
    </g>
    <g id="Group-5" data-name="Group" transform="translate(710.431 2820.462)">
      <path id="Vector-5" data-name="Vector" d="M20.32,40.64a20.32,20.32,0,1,1,20.32-20.32A20.359,20.359,0,0,1,20.32,40.64Zm0-31.261A10.941,10.941,0,1,0,31.261,20.32,10.994,10.994,0,0,0,20.32,9.378Z" transform="translate(0 0)" fill="#131315"/>
    </g>
  </g>
</svg>
