<svg width="24" height="24" viewBox="0 0 24 24" fill="none" xmlns="http://www.w3.org/2000/svg">
<path d="M21 7V17C21 20 19.5 22 16 22H8C4.5 22 3 20 3 17V7C3 4 4.5 2 8 2H16C19.5 2 21 4 21 7Z" stroke="#292D32" stroke-width="1.5" stroke-miterlimit="10" stroke-linecap="round" stroke-linejoin="round"/>
<path d="M14.5 4.5V6.5C14.5 7.6 15.4 8.5 16.5 8.5H18.5" stroke="#292D32" stroke-width="1.5" stroke-miterlimit="10" stroke-linecap="round" stroke-linejoin="round"/>
<path d="M7.48002 15.4901C7.15002 14.4601 7.53999 13.1901 8.60999 12.8401C9.17999 12.6601 9.87999 12.8101 10.27 13.3601C10.64 12.7901 11.37 12.6601 11.93 12.8401C13.01 13.1901 13.39 14.4601 13.07 15.4901C12.56 17.1201 10.77 17.9701 10.27 17.9701C9.77999 17.9601 8.01002 17.1301 7.48002 15.4901Z" stroke="#292D32" stroke-width="1.5" stroke-linecap="round" stroke-linejoin="round"/>
</svg>
