<svg width="24" height="24" viewBox="0 0 24 24" fill="none" xmlns="http://www.w3.org/2000/svg">
<path d="M10 17.5H14" stroke="#292D32" stroke-width="1.5" stroke-linecap="round" stroke-linejoin="round"/>
<path d="M2 17.5V7.5C2 3.5 3 2.5 7 2.5" stroke="#292D32" stroke-width="1.5" stroke-linecap="round" stroke-linejoin="round"/>
<path d="M22 17.5V7.5C22 3.5 21 2.5 17 2.5" stroke="#292D32" stroke-width="1.5" stroke-linecap="round" stroke-linejoin="round"/>
<path d="M10 15.91V19.2C10 21.2 9.2 22 7.2 22H4.8C2.8 22 2 21.2 2 19.2V15.91C2 13.91 2.8 13.11 4.8 13.11H7.2C9.2 13.11 10 13.91 10 15.91Z" stroke="#292D32" stroke-width="1.5" stroke-linecap="round" stroke-linejoin="round"/>
<path d="M22 15.91V19.2C22 21.2 21.2 22 19.2 22H16.8C14.8 22 14 21.2 14 19.2V15.91C14 13.91 14.8 13.11 16.8 13.11H19.2C21.2 13.11 22 13.91 22 15.91Z" stroke="#292D32" stroke-width="1.5" stroke-linecap="round" stroke-linejoin="round"/>
</svg>
