<svg width="24" height="24" viewBox="0 0 24 24" fill="none" xmlns="http://www.w3.org/2000/svg">
<path d="M10.49 2.23006L5.50003 4.10005C4.35003 4.53005 3.41003 5.89004 3.41003 7.12004V14.55C3.41003 15.73 4.19005 17.28 5.14005 17.99L9.44003 21.2001C10.85 22.2601 13.17 22.2601 14.58 21.2001L18.88 17.99C19.83 17.28 20.61 15.73 20.61 14.55V7.12004C20.61 5.89004 19.67 4.53005 18.52 4.10005L13.53 2.23006C12.68 1.92006 11.32 1.92006 10.49 2.23006Z" stroke="#292D32" stroke-width="1.5" stroke-linecap="round" stroke-linejoin="round"/>
<path d="M12.0001 10.92C11.9601 10.92 11.9101 10.92 11.8701 10.92C10.9301 10.89 10.1801 10.11 10.1801 9.16003C10.1801 8.19003 10.9701 7.40002 11.9401 7.40002C12.9101 7.40002 13.7001 8.19003 13.7001 9.16003C13.6901 10.12 12.9401 10.89 12.0001 10.92Z" stroke="#292D32" stroke-width="1.5" stroke-linecap="round" stroke-linejoin="round"/>
<path d="M10.01 13.72C9.05004 14.36 9.05004 15.41 10.01 16.05C11.1 16.78 12.89 16.78 13.98 16.05C14.94 15.41 14.94 14.36 13.98 13.72C12.9 12.99 11.11 12.99 10.01 13.72Z" stroke="#292D32" stroke-width="1.5" stroke-linecap="round" stroke-linejoin="round"/>
</svg>
