<svg width="24" height="24" viewBox="0 0 24 24" fill="none" xmlns="http://www.w3.org/2000/svg">
<path d="M17.3108 11.25C17.3308 11.51 17.2408 11.78 17.0408 11.98L11.0208 18C9.69083 19.33 8.35083 19.33 7.01083 18L3.00083 13.99C2.32083 13.3 1.98083 12.61 2.00083 11.92H2.07083L17.1908 11.26L17.3108 11.25Z" fill="#292D32"/>
<path opacity="0.4" d="M17.04 10.6402L9.69 3.29013L8.82 2.42014C8.53 2.13014 8.05 2.13014 7.76 2.42014C7.47 2.71014 7.47 3.19013 7.76 3.48013L8.63 4.35013L3 9.98013C2.36 10.6201 2.02 11.2701 2 11.9201H2.07L17.19 11.2602L17.31 11.2502C17.3 11.0302 17.2 10.8002 17.04 10.6402Z" fill="#292D32"/>
<path d="M16 22.75H3C2.59 22.75 2.25 22.41 2.25 22C2.25 21.59 2.59 21.25 3 21.25H16C16.41 21.25 16.75 21.59 16.75 22C16.75 22.41 16.41 22.75 16 22.75Z" fill="#292D32"/>
<path d="M19.35 14.7798C19.09 14.4998 18.61 14.4998 18.35 14.7798C18.04 15.1198 16.5 16.8598 16.5 18.1698C16.5 19.4698 17.55 20.5198 18.85 20.5198C20.15 20.5198 21.2 19.4698 21.2 18.1698C21.2 16.8598 19.66 15.1198 19.35 14.7798Z" fill="#292D32"/>
</svg>
