<svg width="24" height="24" viewBox="0 0 24 24" fill="none" xmlns="http://www.w3.org/2000/svg">
<path d="M22.0005 18.33C22.0005 18.69 21.9205 19.06 21.7505 19.42C21.5805 19.78 21.3605 20.12 21.0705 20.44C20.5805 20.98 20.0405 21.37 19.4305 21.62C18.8305 21.87 18.1705 22 17.4705 22C16.4505 22 15.3605 21.76 14.2105 21.27C13.0605 20.78 11.9005 20.12 10.7605 19.29C10.1805 18.86 9.61055 18.42 9.06055 17.94L12.3205 14.68C12.3305 14.68 12.3305 14.68 12.3405 14.69C12.8605 15.13 13.2905 15.43 13.6305 15.61C13.6805 15.63 13.7405 15.66 13.8105 15.69C13.8905 15.72 13.9705 15.73 14.0605 15.73C14.2305 15.73 14.3605 15.67 14.4705 15.56L15.2305 14.81C15.4805 14.56 15.7205 14.37 15.9505 14.25C16.1805 14.11 16.4105 14.04 16.6605 14.04C16.8505 14.04 17.0505 14.08 17.2705 14.17C17.4905 14.26 17.7205 14.39 17.9705 14.56L21.2905 16.91C21.5505 17.09 21.7305 17.3 21.8405 17.55C21.9405 17.8 22.0005 18.05 22.0005 18.33Z" fill="#292D32"/>
<path opacity="0.4" d="M10.76 13.24L7.5 16.5C7.49 16.5 7.49 16.5 7.48 16.49C6.45 15.45 5.52 14.36 4.68 13.22C3.87 12.1 3.22 10.97 2.74 9.86C2.73 9.84 2.73 9.83 2.72 9.81C2.24 8.67 2 7.58 2 6.54C2 5.86 2.12 5.21 2.36 4.61C2.56 4.1 2.86 3.62 3.27 3.19C3.34 3.11 3.42 3.02 3.51 2.94C3.67 2.78 3.83 2.64 4 2.53C4.01 2.53 4.01 2.53 4.01 2.53C4.51 2.17 5.04 2 5.6 2C5.88 2 6.16 2.06 6.41 2.18C6.65 2.29 6.86 2.45 7.03 2.68C7.05 2.7 7.06 2.72 7.08 2.74L9.4 6.01C9.58 6.26 9.71 6.49 9.8 6.71C9.89 6.92 9.94 7.13 9.94 7.32C9.94 7.56 9.87 7.8 9.73 8.03C9.6 8.26 9.41 8.5 9.17 8.74L8.41 9.53C8.3 9.64 8.25 9.77 8.25 9.93C8.25 10.01 8.26 10.08 8.28 10.16C8.31 10.24 8.34 10.3 8.36 10.36C8.54 10.69 8.85 11.12 9.29 11.64C9.74 12.16 10.22 12.69 10.74 13.22C10.75 13.23 10.75 13.23 10.76 13.24Z" fill="#292D32"/>
<path d="M21.7709 2.22988C21.4709 1.92988 20.9809 1.92988 20.6809 2.22988L2.23086 20.6899C1.93086 20.9899 1.93086 21.4799 2.23086 21.7799C2.38086 21.9199 2.57086 21.9999 2.77086 21.9999C2.97086 21.9999 3.16086 21.9199 3.31086 21.7699L21.7709 3.30988C22.0809 3.00988 22.0809 2.52988 21.7709 2.22988Z" fill="#292D32"/>
</svg>
