<svg width="24" height="24" viewBox="0 0 24 24" fill="none" xmlns="http://www.w3.org/2000/svg">
<path opacity="0.4" d="M22 7.7699V8.9999H2V7.5399C2 5.2499 3.86 3.3999 6.15 3.3999H16V5.9699C16 7.2399 16.76 7.9999 18.03 7.9999H20.97C21.37 7.9999 21.71 7.9299 22 7.7699Z" fill="#292D32"/>
<path d="M2 9V16.46C2 18.75 3.86 20.6 6.15 20.6H17.85C20.14 20.6 22 18.75 22 16.46V9H2ZM8 17.25H6C5.59 17.25 5.25 16.91 5.25 16.5C5.25 16.09 5.59 15.75 6 15.75H8C8.41 15.75 8.75 16.09 8.75 16.5C8.75 16.91 8.41 17.25 8 17.25ZM14.5 17.25H10.5C10.09 17.25 9.75 16.91 9.75 16.5C9.75 16.09 10.09 15.75 10.5 15.75H14.5C14.91 15.75 15.25 16.09 15.25 16.5C15.25 16.91 14.91 17.25 14.5 17.25Z" fill="#292D32"/>
<path d="M20.97 1H18.03C16.76 1 16 1.76 16 3.03V5.97C16 7.24 16.76 8 18.03 8H20.97C22.24 8 23 7.24 23 5.97V3.03C23 1.76 22.24 1 20.97 1ZM21.91 4.93C21.81 5.03 21.66 5.1 21.5 5.11H20.09L20.1 6.5C20.09 6.67 20.03 6.81 19.91 6.93C19.81 7.03 19.66 7.1 19.5 7.1C19.17 7.1 18.9 6.83 18.9 6.5V5.1L17.5 5.11C17.17 5.11 16.9 4.83 16.9 4.5C16.9 4.17 17.17 3.9 17.5 3.9L18.9 3.91V2.51C18.9 2.18 19.17 1.9 19.5 1.9C19.83 1.9 20.1 2.18 20.1 2.51L20.09 3.9H21.5C21.83 3.9 22.1 4.17 22.1 4.5C22.09 4.67 22.02 4.81 21.91 4.93Z" fill="#292D32"/>
</svg>
