<svg width="24" height="24" viewBox="0 0 24 24" fill="none" xmlns="http://www.w3.org/2000/svg">
<path opacity="0.4" d="M20.5 10.19H17.61C15.24 10.19 13.31 8.26 13.31 5.89V3C13.31 2.45 12.86 2 12.31 2H8.07C4.99 2 2.5 4.00001 2.5 7.57001V16.43C2.5 20 4.99 22 8.07 22H15.93C19.01 22 21.5 20 21.5 16.43V11.19C21.5 10.64 21.05 10.19 20.5 10.19Z" fill="#292D32"/>
<path d="M15.7997 2.21C15.3897 1.8 14.6797 2.07998 14.6797 2.64998V6.13999C14.6797 7.59999 15.9197 8.80999 17.4297 8.80999C18.3797 8.81999 19.6997 8.82 20.8297 8.82C21.3997 8.82 21.6997 8.14999 21.2997 7.74999C19.8597 6.29999 17.2797 3.69 15.7997 2.21Z" fill="#292D32"/>
<path d="M14.7605 19.2598C12.4105 19.4298 12.4105 22.8298 14.7605 22.9998H20.3205C20.9905 22.9998 21.6505 22.7498 22.1405 22.2998C23.7905 20.8598 22.9105 17.9798 20.7405 17.7098C19.9605 13.0198 13.1805 14.7998 14.7805 19.2698" fill="#292D32"/>
</svg>
