<svg width="24" height="24" viewBox="0 0 24 24" fill="none" xmlns="http://www.w3.org/2000/svg">
<path d="M9.31994 13.28H12.4099V20.48C12.4099 21.54 13.7299 22.04 14.4299 21.24L21.9999 12.64C22.6599 11.89 22.1299 10.72 21.1299 10.72H18.0399V3.51997C18.0399 2.45997 16.7199 1.95997 16.0199 2.75997L8.44994 11.36C7.79994 12.11 8.32994 13.28 9.31994 13.28Z" fill="#292D32"/>
<path opacity="0.4" d="M8.5 4.75H1.5C1.09 4.75 0.75 4.41 0.75 4C0.75 3.59 1.09 3.25 1.5 3.25H8.5C8.91 3.25 9.25 3.59 9.25 4C9.25 4.41 8.91 4.75 8.5 4.75Z" fill="#292D32"/>
<path opacity="0.4" d="M7.5 20.75H1.5C1.09 20.75 0.75 20.41 0.75 20C0.75 19.59 1.09 19.25 1.5 19.25H7.5C7.91 19.25 8.25 19.59 8.25 20C8.25 20.41 7.91 20.75 7.5 20.75Z" fill="#292D32"/>
<path opacity="0.4" d="M4.5 12.75H1.5C1.09 12.75 0.75 12.41 0.75 12C0.75 11.59 1.09 11.25 1.5 11.25H4.5C4.91 11.25 5.25 11.59 5.25 12C5.25 12.41 4.91 12.75 4.5 12.75Z" fill="#292D32"/>
</svg>
