<svg width="24" height="24" viewBox="0 0 24 24" fill="none" xmlns="http://www.w3.org/2000/svg">
<path opacity="0.4" d="M21.6509 10.03C21.2609 9.46997 20.5709 9.14997 19.7809 9.14997H15.6809C15.4109 9.14997 15.1609 9.03998 14.9909 8.83998C14.8109 8.63998 14.7409 8.35997 14.7809 8.06997L15.2909 4.78997C15.5109 3.80997 14.8609 2.70998 13.8809 2.37998C12.9709 2.03998 11.9009 2.49998 11.4709 3.14998L7.25086 9.41998L7.13086 9.61998V18.46L7.28086 18.61L10.4509 21.06C10.8709 21.48 11.8209 21.71 12.4909 21.71H16.3909C17.7309 21.71 19.0809 20.7 19.3809 19.47L21.8409 11.98C22.1009 11.27 22.0309 10.58 21.6509 10.03Z" fill="#292D32"/>
<path d="M5.21 6.37988H4.18C2.63 6.37988 2 6.97988 2 8.45988V18.5199C2 19.9999 2.63 20.5999 4.18 20.5999H5.21C6.76 20.5999 7.39 19.9999 7.39 18.5199V8.45988C7.39 6.97988 6.76 6.37988 5.21 6.37988Z" fill="#292D32"/>
</svg>
