<svg width="24" height="24" viewBox="0 0 24 24" fill="none" xmlns="http://www.w3.org/2000/svg">
<path opacity="0.4" d="M18.8105 6.24998H20.1706C19.9806 5.97998 19.7806 5.72998 19.5706 5.47998L18.8105 6.24998Z" fill="#292D32"/>
<path opacity="0.4" d="M18.52 4.41982C18.27 4.20982 18.02 4.00982 17.75 3.81982V5.17982L18.52 4.41982Z" fill="#292D32"/>
<path opacity="0.4" d="M17 7.75C16.9 7.75 16.81 7.73 16.71 7.69C16.53 7.61 16.38 7.47 16.3 7.28C16.26 7.19 16.24 7.09 16.24 6.99V2.99C16.24 2.98 16.25 2.97 16.25 2.95C14.96 2.35 13.52 2 12 2C6.48 2 2 6.48 2 12C2 17.52 6.48 22 12 22C17.52 22 22 17.52 22 12C22 10.48 21.65 9.04 21.04 7.74C21.03 7.74 21.02 7.75 21 7.75H17Z" fill="#292D32"/>
<path d="M19.5795 5.47994L22.5295 2.52994C22.8195 2.23994 22.8195 1.75994 22.5295 1.46994C22.2395 1.17994 21.7595 1.17994 21.4695 1.46994L18.5195 4.41994C18.8995 4.74994 19.2495 5.10994 19.5795 5.47994Z" fill="#292D32"/>
<path d="M17.7498 3C17.7498 2.59 17.4098 2.25 16.9998 2.25C16.5998 2.25 16.2798 2.57 16.2598 2.96C16.7798 3.21 17.2798 3.49 17.7498 3.82V3Z" fill="#292D32"/>
<path d="M21.7499 7C21.7499 6.59 21.4099 6.25 20.9999 6.25H20.1699C20.4999 6.72 20.7899 7.22 21.0299 7.74C21.4299 7.72 21.7499 7.4 21.7499 7Z" fill="#292D32"/>
<path d="M13.75 11.82L12.75 11.47V9.25H12.83C13.34 9.25 13.75 9.7 13.75 10.25C13.75 10.66 14.09 11 14.5 11C14.91 11 15.25 10.66 15.25 10.25C15.25 8.87 14.17 7.75 12.83 7.75H12.75V7.5C12.75 7.09 12.41 6.75 12 6.75C11.59 6.75 11.25 7.09 11.25 7.5V7.75H10.95C9.74001 7.75 8.75 8.77 8.75 10.03C8.75 11.49 9.6 11.96 10.25 12.19L11.25 12.54V14.76H11.17C10.66 14.76 10.25 14.31 10.25 13.76C10.25 13.35 9.91 13.01 9.5 13.01C9.09 13.01 8.75 13.35 8.75 13.76C8.75 15.14 9.83001 16.26 11.17 16.26H11.25V16.51C11.25 16.92 11.59 17.26 12 17.26C12.41 17.26 12.75 16.92 12.75 16.51V16.26H13.05C14.26 16.26 15.25 15.24 15.25 13.98C15.25 12.51 14.4 12.04 13.75 11.82ZM10.74 10.76C10.4 10.64 10.25 10.57 10.25 10.02C10.25 9.59 10.57 9.24 10.95 9.24H11.25V10.93L10.74 10.76ZM13.05 14.75H12.75V13.06L13.26 13.24C13.6 13.36 13.75 13.43 13.75 13.98C13.75 14.4 13.43 14.75 13.05 14.75Z" fill="#292D32"/>
</svg>
