<svg width="24" height="24" viewBox="0 0 24 24" fill="none" xmlns="http://www.w3.org/2000/svg">
<path opacity="0.4" d="M11.9991 17.3501C12.8994 17.3501 13.6291 16.6203 13.6291 15.7201C13.6291 14.8199 12.8994 14.0901 11.9991 14.0901C11.0989 14.0901 10.3691 14.8199 10.3691 15.7201C10.3691 16.6203 11.0989 17.3501 11.9991 17.3501Z" fill="#292D32"/>
<path d="M16.65 9.43994H7.35C3.25 9.43994 2 10.6899 2 14.7899V16.6499C2 20.7499 3.25 21.9999 7.35 21.9999H16.65C20.75 21.9999 22 20.7499 22 16.6499V14.7899C22 10.6899 20.75 9.43994 16.65 9.43994ZM12 18.7399C10.33 18.7399 8.98 17.3799 8.98 15.7199C8.98 14.0599 10.33 12.6999 12 12.6999C13.67 12.6999 15.02 14.0599 15.02 15.7199C15.02 17.3799 13.67 18.7399 12 18.7399Z" fill="#292D32"/>
<path opacity="0.4" d="M7.1207 9.45V8.28C7.1207 5.35 7.9507 3.4 12.0007 3.4C16.3307 3.4 16.8807 5.51 16.8807 7.35C16.8807 7.74 17.1907 8.05 17.5807 8.05C17.9707 8.05 18.2807 7.74 18.2807 7.35C18.2807 3.8 16.1707 2 12.0007 2C6.3707 2 5.7207 5.58 5.7207 8.28V9.53C6.1407 9.48 6.6107 9.45 7.1207 9.45Z" fill="#292D32"/>
</svg>
