<svg width="24" height="24" viewBox="0 0 24 24" fill="none" xmlns="http://www.w3.org/2000/svg">
<path d="M22.0004 17.1984C22.0004 18.0984 21.7504 18.9484 21.3004 19.6684C20.4704 21.0584 18.9504 21.9984 17.2004 21.9984C15.4504 21.9984 13.9204 21.0584 13.1004 19.6684C12.6604 18.9484 12.4004 18.0984 12.4004 17.1984C12.4004 14.5484 14.5504 12.3984 17.2004 12.3984C19.8504 12.3984 22.0004 14.5484 22.0004 17.1984Z" stroke="#292D32" stroke-width="1.5" stroke-miterlimit="10" stroke-linecap="round" stroke-linejoin="round"/>
<path d="M15.3301 17.1995L16.5101 18.3795L19.0701 16.0195" stroke="#292D32" stroke-width="1.5" stroke-linecap="round" stroke-linejoin="round"/>
<path opacity="0.4" d="M22 8.69159C22 10.6616 21.49 12.4016 20.69 13.9116C19.81 12.9816 18.57 12.4016 17.2 12.4016C14.55 12.4016 12.4 14.5516 12.4 17.2016C12.4 18.4316 12.87 19.5516 13.63 20.4016C13.26 20.5716 12.92 20.7116 12.62 20.8116C12.28 20.9316 11.72 20.9316 11.38 20.8116C8.48 19.8216 2 15.6916 2 8.69159C2 5.60159 4.49 3.10156 7.56 3.10156C9.37 3.10156 10.99 3.9816 12 5.3316C13.01 3.9816 14.63 3.10156 16.44 3.10156C19.51 3.10156 22 5.60159 22 8.69159Z" stroke="#292D32" stroke-width="1.5" stroke-linecap="round" stroke-linejoin="round"/>
</svg>
