<svg xmlns="http://www.w3.org/2000/svg" width="24" height="24" viewBox="0 0 24 24">
  <g id="_18" data-name="18" transform="translate(-428 -444)">
    <g id="Group">
      <path id="Vector" d="M0,5.26A1.711,1.711,0,0,0,1.67,7.01H3.55A1.489,1.489,0,0,0,5,5.48a1.321,1.321,0,0,0-.99-1.45L1,2.98A1.314,1.314,0,0,1,.01,1.53,1.5,1.5,0,0,1,1.46,0H3.34A1.711,1.711,0,0,1,5.01,1.75" transform="translate(437.5 452.49)" fill="none" stroke="#292d32" stroke-linecap="round" stroke-linejoin="round" stroke-width="1.5"/>
      <path id="Vector-2" data-name="Vector" d="M0,0V9" transform="translate(440 451.5)" fill="none" stroke="#292d32" stroke-linecap="round" stroke-linejoin="round" stroke-width="1.5"/>
    </g>
    <path id="Vector-3" data-name="Vector" d="M20,10A10,10,0,1,1,10,0" transform="translate(430 446)" fill="none" stroke="#292d32" stroke-linecap="round" stroke-linejoin="round" stroke-width="1.5"/>
    <path id="Vector-4" data-name="Vector" d="M4,4V0H0" transform="translate(446 446)" fill="none" stroke="#292d32" stroke-linecap="round" stroke-linejoin="round" stroke-width="1.5"/>
    <path id="Vector-5" data-name="Vector" d="M0,5,5,0" transform="translate(445 446)" fill="none" stroke="#292d32" stroke-linecap="round" stroke-linejoin="round" stroke-width="1.5"/>
    <path id="Vector-6" data-name="Vector" d="M0,0H24V24H0Z" transform="translate(428 444)" fill="none" opacity="0"/>
  </g>
</svg>
