<svg xmlns="http://www.w3.org/2000/svg" width="21.504" height="21.509" viewBox="0 0 21.504 21.509">
  <g id="_40" data-name="40" transform="translate(-1.252 -1.243)">
    <path id="Vector" d="M17.793,12.923a7.575,7.575,0,0,1-7.6,1.87l-4.71,4.7a1.935,1.935,0,0,1-1.49.49l-2.18-.3a1.888,1.888,0,0,1-1.5-1.5L.013,16A2.015,2.015,0,0,1,.5,14.51l4.7-4.7a7.571,7.571,0,1,1,12.59,3.11Z" transform="translate(1.997 2.007)" fill="none" stroke="#292d32" stroke-linecap="round" stroke-linejoin="round" stroke-width="1.5"/>
    <path id="Vector-2" data-name="Vector" d="M0,0,2.3,2.3" transform="translate(6.89 17.49)" fill="none" stroke="#292d32" stroke-linecap="round" stroke-linejoin="round" stroke-width="1.5"/>
    <path id="Vector-3" data-name="Vector" d="M3,1.5A1.5,1.5,0,1,1,1.5,0,1.5,1.5,0,0,1,3,1.5Z" transform="translate(13 8)" fill="none" stroke="#292d32" stroke-linecap="round" stroke-linejoin="round" stroke-width="1.5"/>
  </g>
</svg>
