<svg width="24" height="24" viewBox="0 0 24 24" fill="none" xmlns="http://www.w3.org/2000/svg">
<path opacity="0.4" d="M16.19 2H7.81C4.17 2 2 4.17 2 7.81V16.18C2 19.83 4.17 22 7.81 22H16.18C19.82 22 21.99 19.83 21.99 16.19V7.81C22 4.17 19.83 2 16.19 2Z" fill="#292D32"/>
<path d="M21.3 12.2305H17.82C16.84 12.2305 15.97 12.7705 15.53 13.6505L14.69 15.3105C14.49 15.7105 14.09 15.9605 13.65 15.9605H10.37C10.06 15.9605 9.62 15.8905 9.33 15.3105L8.49 13.6605C8.05 12.7905 7.17 12.2405 6.2 12.2405H2.7C2.31 12.2405 2 12.5505 2 12.9405V16.2005C2 19.8305 4.18 22.0005 7.82 22.0005H16.2C19.63 22.0005 21.74 20.1205 22 16.7805V12.9305C22 12.5505 21.69 12.2305 21.3 12.2305Z" fill="#292D32"/>
<path d="M13.55 7.79844H10.45C10.06 7.79844 9.75 7.48844 9.75 7.09844C9.75 6.70844 10.06 6.39844 10.45 6.39844H13.55C13.94 6.39844 14.25 6.70844 14.25 7.09844C14.25 7.48844 13.93 7.79844 13.55 7.79844Z" fill="#292D32"/>
<path d="M14.3287 10.5914H9.66875C9.27875 10.5914 8.96875 10.2814 8.96875 9.89141C8.96875 9.50141 9.27875 9.19141 9.66875 9.19141H14.3187C14.7087 9.19141 15.0188 9.50141 15.0188 9.89141C15.0188 10.2814 14.7087 10.5914 14.3287 10.5914Z" fill="#292D32"/>
</svg>
