<svg width="24" height="24" viewBox="0 0 24 24" fill="none" xmlns="http://www.w3.org/2000/svg">
<path d="M18.6897 11.5308C18.1197 11.3808 17.4497 11.3008 16.6497 11.3008C15.5397 11.3008 15.1297 11.5708 14.5597 12.0008C14.5297 12.0208 14.4997 12.0508 14.4697 12.0808L13.5197 13.0908C12.7297 13.9408 11.2797 13.9408 10.4797 13.0908L9.52969 12.0908C9.49969 12.0508 9.46969 12.0208 9.43969 12.0008C8.85969 11.5708 8.44969 11.3008 7.34969 11.3008C6.54969 11.3008 5.87969 11.3708 5.30969 11.5308C2.92969 12.1708 2.92969 14.0608 2.92969 15.7208V16.6508C2.92969 19.1608 2.92969 22.0008 8.27969 22.0008H15.7197C19.2697 22.0008 21.0697 20.2008 21.0697 16.6508V15.7208C21.0697 14.0608 21.0697 12.1708 18.6897 11.5308Z" fill="#292D32"/>
<path opacity="0.4" d="M14.7891 2H9.20906C4.78906 2 4.78906 4.35 4.78906 6.42V12.21C4.78906 12.43 4.88906 12.63 5.05906 12.76C5.22906 12.89 5.45906 12.94 5.66906 12.88C6.11906 12.76 6.67906 12.7 7.34906 12.7C8.01906 12.7 8.15906 12.78 8.55906 13.08L9.46906 14.04C10.1191 14.74 11.0491 15.14 12.0091 15.14C12.9691 15.14 13.8891 14.74 14.5491 14.04L15.4591 13.08C15.8591 12.78 15.9991 12.7 16.6691 12.7C17.3391 12.7 17.8991 12.76 18.3491 12.88C18.5591 12.94 18.7791 12.89 18.9591 12.76C19.1291 12.63 19.2291 12.42 19.2291 12.21V6.42C19.2091 4.35 19.2091 2 14.7891 2Z" fill="#292D32"/>
<path d="M13.55 9.91172H10.45C10.06 9.91172 9.75 9.60172 9.75 9.21172C9.75 8.82172 10.06 8.51172 10.45 8.51172H13.55C13.94 8.51172 14.25 8.82172 14.25 9.21172C14.25 9.59172 13.93 9.91172 13.55 9.91172Z" fill="#292D32"/>
<path d="M14.3287 7.11875H9.66875C9.27875 7.11875 8.96875 6.80875 8.96875 6.41875C8.96875 6.02875 9.27875 5.71875 9.66875 5.71875H14.3187C14.7087 5.71875 15.0188 6.02875 15.0188 6.41875C15.0188 6.79875 14.7087 7.11875 14.3287 7.11875Z" fill="#292D32"/>
</svg>
