<svg width="24" height="24" viewBox="0 0 24 24" fill="none" xmlns="http://www.w3.org/2000/svg">
<path opacity="0.4" d="M7 18.4297H11L15.45 21.3897C16.11 21.8297 17 21.3597 17 20.5597V18.4297C20 18.4297 22 16.4297 22 13.4297V7.42969C22 4.42969 20 2.42969 17 2.42969H7C4 2.42969 2 4.42969 2 7.42969V13.4297C2 16.4297 4 18.4297 7 18.4297Z" fill="#292D32"/>
<path d="M15.5 11.25H8.5C8.09 11.25 7.75 10.91 7.75 10.5C7.75 10.09 8.09 9.75 8.5 9.75H15.5C15.91 9.75 16.25 10.09 16.25 10.5C16.25 10.91 15.91 11.25 15.5 11.25Z" fill="#292D32"/>
</svg>
