<svg width="24" height="24" viewBox="0 0 24 24" fill="none" xmlns="http://www.w3.org/2000/svg">
<path d="M19.5 8C20.8807 8 22 6.88071 22 5.5C22 4.11929 20.8807 3 19.5 3C18.1193 3 17 4.11929 17 5.5C17 6.88071 18.1193 8 19.5 8Z" fill="#292D32"/>
<path d="M19.5 8C20.8807 8 22 6.88071 22 5.5C22 4.11929 20.8807 3 19.5 3C18.1193 3 17 4.11929 17 5.5C17 6.88071 18.1193 8 19.5 8Z" fill="#292D32"/>
<path opacity="0.4" d="M20.72 9.31172C21.35 9.11172 22 9.60173 22 10.2717V15.5117C22 19.0117 20 20.5117 17 20.5117H7C4 20.5117 2 19.0117 2 15.5117V8.51172C2 5.01172 4 3.51172 7 3.51172H14.61C15.26 3.51172 15.7 4.11173 15.58 4.74173C15.46 5.33173 15.48 5.96172 15.66 6.61172C16.03 7.95172 17.12 9.02172 18.46 9.37172C19.25 9.57172 20.02 9.53172 20.72 9.31172Z" fill="#292D32"/>
<path d="M11.9988 12.8688C11.1588 12.8688 10.3088 12.6088 9.6588 12.0788L6.5288 9.5788C6.2088 9.3188 6.14881 8.8488 6.4088 8.5288C6.6688 8.2088 7.13879 8.14881 7.45879 8.4088L10.5888 10.9088C11.3488 11.5188 12.6388 11.5188 13.3988 10.9088L14.5788 9.9688C14.8988 9.7088 15.3788 9.7588 15.6288 10.0888C15.8888 10.4088 15.8388 10.8888 15.5088 11.1388L14.3288 12.0788C13.6888 12.6088 12.8388 12.8688 11.9988 12.8688Z" fill="#292D32"/>
</svg>
