<svg width="24" height="24" viewBox="0 0 24 24" fill="none" xmlns="http://www.w3.org/2000/svg">
<path d="M18 18.8597H17.24C16.44 18.8597 15.68 19.1697 15.12 19.7297L13.41 21.4198C12.63 22.1898 11.36 22.1898 10.58 21.4198L8.87 19.7297C8.31 19.1697 7.54 18.8597 6.75 18.8597H6C4.34 18.8597 3 17.5298 3 15.8898V4.97974C3 3.33974 4.34 2.00977 6 2.00977H18C19.66 2.00977 21 3.33974 21 4.97974V15.8898C21 17.5198 19.66 18.8597 18 18.8597Z" stroke="#292D32" stroke-width="1.5" stroke-miterlimit="10" stroke-linecap="round" stroke-linejoin="round"/>
<path opacity="0.4" d="M7 9.15979C7 8.22979 7.76 7.46973 8.69 7.46973C9.62 7.46973 10.38 8.22979 10.38 9.15979C10.38 11.0398 7.71 11.2398 7.12 13.0298C7 13.3998 7.31 13.7698 7.7 13.7698H10.38" stroke="#292D32" stroke-width="1.5" stroke-linecap="round" stroke-linejoin="round"/>
<path opacity="0.4" d="M16.0398 13.7599V8.04991C16.0398 7.78991 15.8698 7.55985 15.6198 7.48985C15.3698 7.41985 15.0998 7.51985 14.9598 7.73985C14.2398 8.89985 13.4598 10.2199 12.7798 11.3799C12.6698 11.5699 12.6698 11.8199 12.7798 12.0099C12.8898 12.1999 13.0998 12.3198 13.3298 12.3198H16.9998" stroke="#292D32" stroke-width="1.5" stroke-linecap="round" stroke-linejoin="round"/>
</svg>
