<svg width="24" height="24" viewBox="0 0 24 24" fill="none" xmlns="http://www.w3.org/2000/svg">
<path d="M19.43 7.75984C20.19 7.34984 20.19 6.17984 19.43 5.76984L12.92 2.25984C12.34 1.94984 11.66 1.94984 11.08 2.25984L4.57 5.76984C3.81 6.17984 3.81 7.34984 4.57 7.75984L11.08 11.2698C11.66 11.5798 12.34 11.5798 12.92 11.2698L15.26 10.0098" stroke="#292D32" stroke-width="1.5" stroke-linecap="round" stroke-linejoin="round"/>
<path d="M2 11.1197C2 10.2897 2.87 9.75968 3.61 10.1297L9.66 13.1597C10.41 13.5397 10.89 14.3097 10.89 15.1497V20.8697C10.89 21.6997 10.02 22.2297 9.28 21.8597L3.23 18.8297C2.48 18.4497 2 17.6797 2 16.8397V14.9597" stroke="#292D32" stroke-width="1.5" stroke-linecap="round" stroke-linejoin="round"/>
<path d="M20.3894 10.1297L14.3394 13.1597C13.5894 13.5397 13.1094 14.3097 13.1094 15.1497V20.8697C13.1094 21.6997 13.9794 22.2297 14.7194 21.8597L20.7694 18.8297C21.5194 18.4497 21.9994 17.6797 21.9994 16.8397V11.1197C21.9994 10.2897 21.1294 9.75968 20.3894 10.1297Z" stroke="#292D32" stroke-width="1.5" stroke-linecap="round" stroke-linejoin="round"/>
</svg>
