<svg width="24" height="24" viewBox="0 0 24 24" fill="none" xmlns="http://www.w3.org/2000/svg">
<path d="M12.5495 12.9201C10.9095 13.3101 9.4795 11.8801 9.8695 10.2401C10.0595 9.47008 10.6895 8.84011 11.4595 8.65011C12.8095 8.32011 14.0295 9.25009 14.1895 10.5001" stroke="#292D32" stroke-width="1.5" stroke-linecap="round" stroke-linejoin="round"/>
<path d="M7.64093 3.15039C4.99093 4.66039 3.21094 7.52034 3.21094 10.7903C3.21094 13.3303 4.29094 15.6203 6.02094 17.2203" stroke="#292D32" stroke-width="1.5" stroke-linecap="round" stroke-linejoin="round"/>
<path d="M18.01 17.19C19.72 15.59 20.79 13.32 20.79 10.79C20.79 5.92998 16.85 2 12 2" stroke="#292D32" stroke-width="1.5" stroke-linecap="round" stroke-linejoin="round"/>
<path d="M7.99977 14.5498C7.07977 13.5698 6.50977 12.2498 6.50977 10.7898C6.50977 7.75979 8.96977 5.2998 11.9998 5.2998C15.0298 5.2998 17.4898 7.75979 17.4898 10.7898C17.4898 12.2498 16.9198 13.5598 15.9998 14.5498" stroke="#292D32" stroke-width="1.5" stroke-linecap="round" stroke-linejoin="round"/>
<path d="M10.3007 16.6603L8.86071 18.4503C7.72071 19.8803 8.73071 21.9903 10.5607 21.9903H13.4307C15.2607 21.9903 16.2807 19.8703 15.1307 18.4503L13.6907 16.6603C12.8307 15.5703 11.1707 15.5703 10.3007 16.6603Z" stroke="#292D32" stroke-width="1.5" stroke-linecap="round" stroke-linejoin="round"/>
</svg>
