<svg width="24" height="24" viewBox="0 0 24 24" fill="none" xmlns="http://www.w3.org/2000/svg">
<path d="M15 22.75H9C3.57 22.75 1.25 20.43 1.25 15V9C1.25 3.57 3.57 1.25 9 1.25H15C20.43 1.25 22.75 3.57 22.75 9V15C22.75 20.43 20.43 22.75 15 22.75ZM9 2.75C4.39 2.75 2.75 4.39 2.75 9V15C2.75 19.61 4.39 21.25 9 21.25H15C19.61 21.25 21.25 19.61 21.25 15V9C21.25 4.39 19.61 2.75 15 2.75H9Z" fill="#292D32"/>
<path d="M9.62 18.05C8.04 18.05 6.75 16.7601 6.75 15.1801C6.75 13.6001 8.04 12.3101 9.62 12.3101C11.2 12.3101 12.49 13.6001 12.49 15.1801C12.49 16.7601 11.2 18.05 9.62 18.05ZM9.62 13.8201C8.87 13.8201 8.25 14.4301 8.25 15.1901C8.25 15.9401 8.86 16.5601 9.62 16.5601C10.37 16.5601 10.99 15.9501 10.99 15.1901C10.99 14.4301 10.37 13.8201 9.62 13.8201Z" fill="#292D32"/>
<path d="M11.7402 15.93C11.3302 15.93 10.9902 15.59 10.9902 15.18V7.77002C10.9902 7.36002 11.3302 7.02002 11.7402 7.02002C12.1502 7.02002 12.4902 7.36002 12.4902 7.77002V15.18C12.4902 15.6 12.1502 15.93 11.7402 15.93Z" fill="#292D32"/>
<path d="M15.5203 11.4297C15.3103 11.4297 15.0902 11.3897 14.8702 11.3197L12.5303 10.5397C11.6503 10.2497 10.9902 9.32974 10.9902 8.39974V7.77975C10.9902 7.14975 11.2503 6.59974 11.7103 6.26974C12.1703 5.93974 12.7702 5.85972 13.3702 6.05972L15.7103 6.83974C16.5903 7.12974 17.2502 8.0497 17.2502 8.9797V9.59969C17.2502 10.2297 16.9903 10.7797 16.5303 11.1097C16.2403 11.3197 15.8903 11.4297 15.5203 11.4297ZM12.7103 7.44973C12.6603 7.44973 12.6103 7.4597 12.5803 7.4797C12.5203 7.5197 12.4802 7.62974 12.4802 7.76974V8.38973C12.4802 8.66973 12.7402 9.0197 13.0002 9.1097L15.3403 9.88973C15.4703 9.92973 15.5903 9.92973 15.6503 9.88973C15.7103 9.84973 15.7502 9.73969 15.7502 9.59969V8.9797C15.7502 8.6997 15.4902 8.34973 15.2302 8.25973L12.8903 7.4797C12.8303 7.4597 12.7603 7.44973 12.7103 7.44973Z" fill="#292D32"/>
</svg>
