<svg width="24" height="24" viewBox="0 0 24 24" fill="none" xmlns="http://www.w3.org/2000/svg">
<path d="M18.85 11.75H16.15C13.49 11.75 12.25 10.51 12.25 7.85001V5.14999C12.25 2.48999 13.49 1.25 16.15 1.25H18.85C21.51 1.25 22.75 2.48999 22.75 5.14999V7.85001C22.75 10.51 21.51 11.75 18.85 11.75ZM16.15 2.75C14.31 2.75 13.75 3.30999 13.75 5.14999V7.85001C13.75 9.69001 14.31 10.25 16.15 10.25H18.85C20.69 10.25 21.25 9.69001 21.25 7.85001V5.14999C21.25 3.30999 20.69 2.75 18.85 2.75H16.15Z" fill="#292D32"/>
<path d="M7.85 22.75H5.15C2.49 22.75 1.25 21.51 1.25 18.85V16.15C1.25 13.49 2.49 12.25 5.15 12.25H7.85C10.51 12.25 11.75 13.49 11.75 16.15V18.85C11.75 21.51 10.51 22.75 7.85 22.75ZM5.15 13.75C3.31 13.75 2.75 14.31 2.75 16.15V18.85C2.75 20.69 3.31 21.25 5.15 21.25H7.85C9.69 21.25 10.25 20.69 10.25 18.85V16.15C10.25 14.31 9.69 13.75 7.85 13.75H5.15Z" fill="#292D32"/>
<path d="M13.6211 18.1301H11.0011C10.5911 18.1301 10.2511 17.7901 10.2511 17.3801V16.1501C10.2511 14.3101 9.69109 13.7501 7.85109 13.7501H6.62109C6.21109 13.7501 5.87109 13.4101 5.87109 13.0001V10.3801C5.87109 7.26013 7.26109 5.87012 10.3811 5.87012H13.0011C13.4111 5.87012 13.7511 6.21012 13.7511 6.62012V7.85013C13.7511 9.69013 14.3111 10.2501 16.1511 10.2501H17.3811C17.7911 10.2501 18.1311 10.5901 18.1311 11.0001V13.6201C18.1311 16.7401 16.7411 18.1301 13.6211 18.1301ZM11.7511 16.6301H13.6211C15.9011 16.6301 16.6311 15.9001 16.6311 13.6201V11.7501H16.1511C13.4911 11.7501 12.2511 10.5101 12.2511 7.85013V7.37012H10.3811C8.10109 7.37012 7.37109 8.10013 7.37109 10.3801V12.2501H7.85109C10.5111 12.2501 11.7511 13.4901 11.7511 16.1501V16.6301Z" fill="#292D32"/>
</svg>
