<svg width="24" height="24" viewBox="0 0 24 24" fill="none" xmlns="http://www.w3.org/2000/svg">
<path d="M12 19.75C9.38 19.75 7.25 17.62 7.25 15C7.25 12.38 9.38 10.25 12 10.25C14.62 10.25 16.75 12.38 16.75 15C16.75 17.62 14.62 19.75 12 19.75ZM12 11.75C10.21 11.75 8.75 13.21 8.75 15C8.75 16.79 10.21 18.25 12 18.25C13.79 18.25 15.25 16.79 15.25 15C15.25 13.21 13.79 11.75 12 11.75Z" fill="#292D32"/>
<path d="M13.0704 16.8599C12.8804 16.8599 12.6904 16.7899 12.5404 16.6399L10.4304 14.5299C10.1404 14.2399 10.1404 13.7599 10.4304 13.4699C10.7204 13.1799 11.2004 13.1799 11.4904 13.4699L13.6004 15.5799C13.8904 15.8699 13.8904 16.3499 13.6004 16.6399C13.4504 16.7899 13.2604 16.8599 13.0704 16.8599Z" fill="#292D32"/>
<path d="M10.9291 16.8897C10.7391 16.8897 10.5491 16.8197 10.3991 16.6697C10.1091 16.3797 10.1091 15.8997 10.3991 15.6097L12.5091 13.4997C12.7991 13.2097 13.2791 13.2097 13.5691 13.4997C13.8591 13.7897 13.8591 14.2697 13.5691 14.5597L11.4591 16.6697C11.3091 16.8097 11.1191 16.8897 10.9291 16.8897Z" fill="#292D32"/>
<path d="M14.9998 22.75H8.99982C4.37982 22.75 3.51982 20.6 3.29982 18.51L2.54982 12.52C2.43982 11.44 2.39982 9.89 3.44982 8.73C4.34982 7.73 5.83982 7.25 7.99982 7.25H15.9998C18.1698 7.25 19.6598 7.74 20.5498 8.73C21.5898 9.89 21.5598 11.44 21.4498 12.5L20.6998 18.51C20.4798 20.6 19.6198 22.75 14.9998 22.75ZM7.99982 8.75C6.30982 8.75 5.14982 9.08 4.55982 9.74C4.06982 10.28 3.90982 11.11 4.03982 12.35L4.78982 18.34C4.95982 19.94 5.39982 21.26 8.99982 21.26H14.9998C18.5998 21.26 19.0398 19.95 19.2098 18.36L19.9598 12.35C20.0898 11.13 19.9298 10.3 19.4398 9.75C18.8498 9.08 17.6898 8.75 15.9998 8.75H7.99982Z" fill="#292D32"/>
<path d="M16.5 8.62981C16.09 8.62981 15.75 8.28981 15.75 7.87981V6.49981C15.75 5.44981 15.3 4.42981 14.52 3.71981C13.73 2.99981 12.7 2.66981 11.63 2.76981C9.83 2.93981 8.25 4.77981 8.25 6.69981V7.66981C8.25 8.07981 7.91 8.41981 7.5 8.41981C7.09 8.41981 6.75 8.07981 6.75 7.66981V6.68981C6.75 3.99981 8.92 1.51981 11.49 1.26981C12.99 1.12981 14.43 1.59981 15.53 2.60981C16.62 3.59981 17.25 5.01981 17.25 6.49981V7.87981C17.25 8.28981 16.91 8.62981 16.5 8.62981Z" fill="#292D32"/>
</svg>
