<svg width="24" height="24" viewBox="0 0 24 24" fill="none" xmlns="http://www.w3.org/2000/svg">
<path d="M19.24 5.57859H18.84L15.46 2.19859C15.19 1.92859 14.75 1.92859 14.47 2.19859C14.2 2.46859 14.2 2.90859 14.47 3.18859L16.86 5.57859H7.14L9.53 3.18859C9.8 2.91859 9.8 2.47859 9.53 2.19859C9.26 1.92859 8.82 1.92859 8.54 2.19859L5.17 5.57859H4.77C3.87 5.57859 2 5.57859 2 8.13859C2 9.10859 2.2 9.74859 2.62 10.1686C2.86 10.4186 3.15 10.5486 3.46 10.6186C3.75 10.6886 4.06 10.6986 4.36 10.6986H19.64C19.95 10.6986 20.24 10.6786 20.52 10.6186C21.36 10.4186 22 9.81859 22 8.13859C22 5.57859 20.13 5.57859 19.24 5.57859Z" fill="#292D32"/>
<path d="M19.0506 12H4.87064C4.25064 12 3.78064 12.55 3.88064 13.16L4.72064 18.3C5.00064 20.02 5.75064 22 9.08064 22H14.6906C18.0606 22 18.6606 20.31 19.0206 18.42L20.0306 13.19C20.1506 12.57 19.6806 12 19.0506 12ZM12.0006 19.5C9.66064 19.5 7.75064 17.59 7.75064 15.25C7.75064 14.84 8.09064 14.5 8.50064 14.5C8.91064 14.5 9.25064 14.84 9.25064 15.25C9.25064 16.77 10.4806 18 12.0006 18C13.5206 18 14.7506 16.77 14.7506 15.25C14.7506 14.84 15.0906 14.5 15.5006 14.5C15.9106 14.5 16.2506 14.84 16.2506 15.25C16.2506 17.59 14.3406 19.5 12.0006 19.5Z" fill="#292D32"/>
</svg>
