<svg width="24" height="24" viewBox="0 0 24 24" fill="none" xmlns="http://www.w3.org/2000/svg">
<path opacity="0.4" d="M23 15.9697C23 19.8397 19.87 22.9697 16 22.9697L17.05 21.2197" stroke="#292D32" stroke-width="1.5" stroke-linecap="round" stroke-linejoin="round"/>
<path opacity="0.4" d="M1 7.96973C1 4.09973 4.13 0.969727 8 0.969727L6.95 2.71973" stroke="#292D32" stroke-width="1.5" stroke-linecap="round" stroke-linejoin="round"/>
<path opacity="0.4" d="M14.8498 15.3302C14.8498 18.7402 12.0898 21.5002 8.67977 21.5002C5.26977 21.5002 2.50977 18.7402 2.50977 15.3302C2.50977 11.9202 5.26977 9.16016 8.67977 9.16016C8.83977 9.16016 8.98977 9.17018 9.15977 9.18018C12.1898 9.41018 14.6098 11.8302 14.8398 14.8602C14.8398 15.0102 14.8498 15.1602 14.8498 15.3302Z" fill="#292D32"/>
<path d="M21.5002 8.66998C21.5002 12.08 18.7402 14.84 15.3302 14.84H14.8402C14.6102 11.81 12.1902 9.38997 9.16016 9.15997V8.66998C9.16016 5.25998 11.9202 2.5 15.3302 2.5C18.7402 2.5 21.5002 5.25998 21.5002 8.66998Z" fill="#292D32"/>
<path d="M11.1191 15.0099C11.2391 14.7599 11.3091 14.49 11.3091 14.2C11.3091 13.2 10.4291 12.3199 9.42914 12.3199H9.16914V11.9399C9.16914 11.5299 8.82914 11.1899 8.41914 11.1899C8.00914 11.1899 7.66914 11.5299 7.66914 11.9399V12.3199H6.61914C6.20914 12.3199 5.86914 12.6599 5.86914 13.0699V15.3199V17.5699C5.86914 17.9799 6.20914 18.3199 6.61914 18.3199H7.66914V18.7C7.66914 19.11 8.00914 19.45 8.41914 19.45C8.82914 19.45 9.16914 19.11 9.16914 18.7V18.3199H9.82914C10.9491 18.3199 11.8691 17.4799 11.8691 16.4399C11.8691 15.8699 11.5691 15.3499 11.1191 15.0099ZM7.36914 13.8199H9.42914C9.63914 13.8199 9.80914 14.05 9.80914 14.2C9.80914 14.41 9.63914 14.58 9.42914 14.58H7.36914V13.8199ZM9.82914 16.83H7.35914V16.08H9.41914H9.81914C10.1391 16.08 10.3591 16.28 10.3591 16.46C10.3591 16.64 10.1491 16.83 9.82914 16.83Z" fill="#292D32"/>
</svg>
