<svg width="24" height="24" viewBox="0 0 24 24" fill="none" xmlns="http://www.w3.org/2000/svg">
<path d="M23 15.97C23 19.84 19.87 22.97 16 22.97L17.05 21.22" stroke="#292D32" stroke-width="1.5" stroke-linecap="round" stroke-linejoin="round"/>
<path d="M1 7.96997C1 4.09997 4.13 0.969971 8 0.969971L6.95 2.71997" stroke="#292D32" stroke-width="1.5" stroke-linecap="round" stroke-linejoin="round"/>
<path d="M6.62 13.0699H9.43C10.05 13.0699 10.56 13.63 10.56 14.2C10.56 14.82 10.06 15.33 9.43 15.33H6.62V13.0699Z" stroke="#292D32" stroke-width="1.5" stroke-miterlimit="10" stroke-linecap="round" stroke-linejoin="round"/>
<path d="M6.62 15.33H9.84C10.55 15.33 11.13 15.83 11.13 16.46C11.13 17.08 10.55 17.59 9.84 17.59H6.62V15.33Z" stroke="#292D32" stroke-width="1.5" stroke-miterlimit="10" stroke-linecap="round" stroke-linejoin="round"/>
<path d="M8.42 17.58V18.7" stroke="#292D32" stroke-width="1.5" stroke-miterlimit="10" stroke-linecap="round" stroke-linejoin="round"/>
<path d="M8.42 11.95V13.0699" stroke="#292D32" stroke-width="1.5" stroke-miterlimit="10" stroke-linecap="round" stroke-linejoin="round"/>
<path d="M14.85 15.33C14.85 18.74 12.09 21.4999 8.68 21.4999C5.27 21.4999 2.51 18.74 2.51 15.33C2.51 11.92 5.27 9.15991 8.68 9.15991C8.84 9.15991 8.99 9.16993 9.16 9.17993C12.19 9.40993 14.61 11.8299 14.84 14.8599C14.84 15.0099 14.85 15.16 14.85 15.33Z" stroke="#292D32" stroke-width="1.5" stroke-miterlimit="10" stroke-linecap="round" stroke-linejoin="round"/>
<path d="M21.5 8.66998C21.5 12.08 18.74 14.84 15.33 14.84H14.84C14.61 11.81 12.19 9.38997 9.16 9.15997V8.66998C9.16 5.25998 11.92 2.5 15.33 2.5C18.74 2.5 21.5 5.25998 21.5 8.66998Z" stroke="#292D32" stroke-width="1.5" stroke-miterlimit="10" stroke-linecap="round" stroke-linejoin="round"/>
</svg>
