<svg width="24" height="24" viewBox="0 0 24 24" fill="none" xmlns="http://www.w3.org/2000/svg">
<path d="M8.9707 16.75C8.5807 16.75 8.2407 16.72 7.9207 16.67C4.1207 16.17 1.2207 12.87 1.2207 9C1.2207 4.73 4.7007 1.25 8.9707 1.25C12.8407 1.25 16.1407 4.14 16.6407 7.97C16.6907 8.27 16.7207 8.61 16.7207 9C16.7207 13.27 13.2507 16.75 8.9707 16.75ZM8.9707 2.75C5.5207 2.75 2.7207 5.55 2.7207 9C2.7207 12.12 5.0507 14.78 8.1407 15.19C8.4007 15.23 8.6707 15.25 8.9707 15.25C12.4207 15.25 15.2207 12.45 15.2207 9C15.2207 8.7 15.2007 8.43 15.1607 8.19C14.7507 5.08 12.1007 2.75 8.9707 2.75Z" fill="#292D32"/>
<path d="M14.9711 22.7497C11.1011 22.7497 7.80111 19.8597 7.30111 16.0297C7.27111 15.7897 7.35111 15.5597 7.52111 15.3897C7.69111 15.2197 7.94111 15.1497 8.17111 15.1897C8.41111 15.2297 8.67111 15.2497 8.97111 15.2497C12.4211 15.2497 15.2211 12.4497 15.2211 8.99973C15.2211 8.69973 15.2011 8.42973 15.1611 8.18973C15.1211 7.95973 15.2011 7.71973 15.3611 7.54973C15.5211 7.37973 15.7511 7.28973 16.0011 7.32973C19.8311 7.82973 22.7211 11.1297 22.7211 14.9997C22.7211 19.2697 19.2511 22.7497 14.9711 22.7497ZM8.98111 16.7497C9.74111 19.3697 12.1711 21.2497 14.9711 21.2497C18.4211 21.2497 21.2211 18.4497 21.2211 14.9997C21.2211 12.1997 19.3411 9.75973 16.7211 9.00973C16.7211 13.2697 13.2511 16.7497 8.98111 16.7497Z" fill="#292D32"/>
<path d="M15.4315 16.1603C15.2415 16.1603 15.0515 16.0903 14.9015 15.9503L13.6015 14.6703C13.3115 14.3803 13.3015 13.9003 13.5915 13.6103C13.8815 13.3203 14.3515 13.3103 14.6515 13.6003L15.9515 14.8803C16.2415 15.1703 16.2515 15.6503 15.9615 15.9403C15.8215 16.0803 15.6215 16.1603 15.4315 16.1603Z" fill="#292D32"/>
<path d="M16.9702 12.7504C16.7802 12.7504 16.5902 12.6804 16.4402 12.5304L15.4402 11.5304C15.1502 11.2404 15.1502 10.7604 15.4402 10.4704C15.7302 10.1804 16.2102 10.1804 16.5002 10.4704L17.5002 11.4704C17.7902 11.7604 17.7902 12.2404 17.5002 12.5304C17.3602 12.6804 17.1702 12.7504 16.9702 12.7504Z" fill="#292D32"/>
<path d="M11.9702 17.7504C11.7802 17.7504 11.5902 17.6804 11.4402 17.5304L10.4402 16.5304C10.1502 16.2404 10.1502 15.7604 10.4402 15.4704C10.7302 15.1804 11.2102 15.1804 11.5002 15.4704L12.5002 16.4704C12.7902 16.7604 12.7902 17.2404 12.5002 17.5304C12.3602 17.6804 12.1702 17.7504 11.9702 17.7504Z" fill="#292D32"/>
</svg>
