<svg width="24" height="24" viewBox="0 0 24 24" fill="none" xmlns="http://www.w3.org/2000/svg">
<path d="M15.97 9C15.97 12.87 12.84 16 8.97 16C8.65 16 8.34 15.98 8.04 15.93C4.61 15.48 1.97 12.55 1.97 9C1.97 5.13 5.1 2 8.97 2C12.52 2 15.45 4.64 15.9 8.07C15.95 8.37 15.97 8.68 15.97 9Z" stroke="#292D32" stroke-width="1.5" stroke-linecap="round" stroke-linejoin="round"/>
<path d="M21.97 15.0001C21.97 18.8701 18.84 22.0001 14.97 22.0001C11.42 22.0001 8.49 19.3601 8.04 15.9301C8.34 15.9801 8.65 16.0001 8.97 16.0001C12.84 16.0001 15.97 12.8701 15.97 9.00007C15.97 8.68007 15.95 8.37007 15.9 8.07007C19.33 8.52007 21.97 11.4501 21.97 15.0001Z" stroke="#292D32" stroke-width="1.5" stroke-linecap="round" stroke-linejoin="round"/>
<path d="M14.12 14.1201L15.43 15.4101" stroke="#292D32" stroke-width="1.5" stroke-linecap="round" stroke-linejoin="round"/>
<path d="M16.97 12L15.97 11" stroke="#292D32" stroke-width="1.5" stroke-linecap="round" stroke-linejoin="round"/>
<path d="M11.97 17L10.97 16" stroke="#292D32" stroke-width="1.5" stroke-linecap="round" stroke-linejoin="round"/>
</svg>
