<svg width="24" height="24" viewBox="0 0 24 24" fill="none" xmlns="http://www.w3.org/2000/svg">
<path d="M21.9707 12C21.9707 15.31 19.2807 18 15.9707 18C14.9807 18 14.0407 17.76 13.2207 17.33C14.6607 15.94 15.4707 14.02 15.4707 12C15.4707 9.97 14.6507 8.04 13.2207 6.67C14.0407 6.24 14.9807 6 15.9707 6C19.2807 6 21.9707 8.69 21.9707 12Z" fill="#292D32"/>
<path d="M13.9707 12C13.9707 13.77 13.2007 15.37 11.9707 16.46C10.9107 17.42 9.5107 18 7.9707 18C4.6607 18 1.9707 15.31 1.9707 12C1.9707 8.69 4.6607 6 7.9707 6C9.5107 6 10.9107 6.58 11.9707 7.54C13.2007 8.63 13.9707 10.23 13.9707 12Z" fill="#292D32"/>
</svg>
