<svg width="24" height="24" viewBox="0 0 24 24" fill="none" xmlns="http://www.w3.org/2000/svg">
<path d="M17.6005 5.31125L11.9505 2.27125C11.3505 1.95125 10.6405 1.95125 10.0405 2.27125L4.40047 5.31125C3.99047 5.54125 3.73047 5.98125 3.73047 6.46125C3.73047 6.95125 3.98047 7.39125 4.40047 7.61125L10.0505 10.6512C10.3505 10.8112 10.6805 10.8913 11.0005 10.8913C11.3205 10.8913 11.6605 10.8112 11.9505 10.6512L17.6005 7.61125C18.0105 7.39125 18.2705 6.95125 18.2705 6.46125C18.2705 5.98125 18.0105 5.54125 17.6005 5.31125Z" fill="#292D32"/>
<path d="M9.12 11.7106L3.87 9.09058C3.46 8.88058 3 8.91058 2.61 9.14058C2.23 9.38058 2 9.79058 2 10.2406V15.2006C2 16.0606 2.48 16.8306 3.25 17.2206L8.5 19.8406C8.68 19.9306 8.88 19.9806 9.08 19.9806C9.31 19.9806 9.55 19.9106 9.76 19.7906C10.14 19.5506 10.37 19.1406 10.37 18.6906V13.7306C10.36 12.8706 9.88 12.1006 9.12 11.7106Z" fill="#292D32"/>
<path d="M20.0006 10.2406V12.7006C19.5206 12.5606 19.0106 12.5006 18.5006 12.5006C17.1406 12.5006 15.8106 12.9706 14.7606 13.8106C13.3206 14.9406 12.5006 16.6506 12.5006 18.5006C12.5006 18.9906 12.5606 19.4806 12.6906 19.9506C12.5406 19.9306 12.3906 19.8706 12.2506 19.7806C11.8706 19.5506 11.6406 19.1406 11.6406 18.6906V13.7306C11.6406 12.8706 12.1206 12.1006 12.8806 11.7106L18.1306 9.09058C18.5406 8.88058 19.0006 8.91058 19.3906 9.14058C19.7706 9.38058 20.0006 9.79058 20.0006 10.2406Z" fill="#292D32"/>
<path d="M21.98 15.6695C21.16 14.6595 19.91 14.0195 18.5 14.0195C17.44 14.0195 16.46 14.3895 15.69 15.0095C14.65 15.8295 14 17.0995 14 18.5195C14 19.3595 14.24 20.1595 14.65 20.8395C14.92 21.2895 15.26 21.6795 15.66 21.9995H15.67C16.44 22.6395 17.43 23.0195 18.5 23.0195C19.64 23.0195 20.67 22.5995 21.46 21.8995C21.81 21.5995 22.11 21.2395 22.35 20.8395C22.76 20.1595 23 19.3595 23 18.5195C23 17.4395 22.62 16.4395 21.98 15.6695ZM20.76 17.9595L18.36 20.1795C18.22 20.3095 18.03 20.3795 17.85 20.3795C17.66 20.3795 17.47 20.3095 17.32 20.1595L16.21 19.0495C15.92 18.7595 15.92 18.2795 16.21 17.9895C16.5 17.6995 16.98 17.6995 17.27 17.9895L17.87 18.5895L19.74 16.8595C20.04 16.5795 20.52 16.5995 20.8 16.8995C21.09 17.2095 21.07 17.6795 20.76 17.9595Z" fill="#292D32"/>
</svg>
