<svg width="24" height="24" viewBox="0 0 24 24" fill="none" xmlns="http://www.w3.org/2000/svg">
<path d="M11.9994 13.2999C11.8694 13.2999 11.7394 13.2699 11.6194 13.1999L2.78936 8.0899C2.42936 7.8799 2.30934 7.41987 2.51934 7.05987C2.72934 6.69987 3.17934 6.57985 3.54934 6.78985L11.9994 11.6799L20.3993 6.81988C20.7593 6.60988 21.2193 6.7399 21.4293 7.0899C21.6393 7.4499 21.5094 7.90987 21.1594 8.11987L12.3894 13.1999C12.2594 13.2599 12.1294 13.2999 11.9994 13.2999Z" fill="#292D32"/>
<path d="M12 22.36C11.59 22.36 11.25 22.02 11.25 21.61V12.54C11.25 12.13 11.59 11.79 12 11.79C12.41 11.79 12.75 12.13 12.75 12.54V21.61C12.75 22.02 12.41 22.36 12 22.36Z" fill="#292D32"/>
<path d="M12.0006 22.75C11.1206 22.75 10.2506 22.56 9.56061 22.18L4.22061 19.21C2.77061 18.41 1.64062 16.48 1.64062 14.82V9.16998C1.64062 7.50998 2.77061 5.59002 4.22061 4.78002L9.56061 1.82C10.9306 1.06 13.0706 1.06 14.4406 1.82L19.7806 4.78997C21.2306 5.58997 22.3606 7.51999 22.3606 9.17999V14.83C22.3606 16.49 21.2306 18.41 19.7806 19.22L14.4406 22.18C13.7506 22.56 12.8806 22.75 12.0006 22.75ZM12.0006 2.74999C11.3706 2.74999 10.7506 2.88 10.2906 3.13L4.95062 6.09997C3.99062 6.63997 3.14062 8.06999 3.14062 9.17999V14.83C3.14062 15.93 3.99062 17.37 4.95062 17.91L10.2906 20.88C11.2006 21.39 12.8006 21.39 13.7106 20.88L19.0506 17.91C20.0106 17.37 20.8606 15.94 20.8606 14.83V9.17999C20.8606 8.07999 20.0106 6.63997 19.0506 6.09997L13.7106 3.13C13.2506 2.88 12.6306 2.74999 12.0006 2.74999Z" fill="#292D32"/>
<path d="M17.0012 13.99C16.5912 13.99 16.2512 13.65 16.2512 13.24V10.0201L7.13116 4.76007C6.77116 4.55007 6.65114 4.09005 6.86114 3.74005C7.07114 3.38005 7.52116 3.26003 7.88116 3.47003L17.3712 8.95007C17.6012 9.08007 17.7512 9.33003 17.7512 9.60003V13.2601C17.7512 13.6501 17.4112 13.99 17.0012 13.99Z" fill="#292D32"/>
</svg>
