<svg width="24" height="24" viewBox="0 0 24 24" fill="none" xmlns="http://www.w3.org/2000/svg">
<path d="M21.091 6.97953C20.241 6.03953 18.831 5.56953 16.761 5.56953H16.521V5.52953C16.521 3.84953 16.521 1.76953 12.761 1.76953H11.241C7.48101 1.76953 7.48101 3.84953 7.48101 5.52953V5.56953H7.24101C5.17101 5.56953 3.75101 6.03953 2.91101 6.97953C1.92101 8.08953 1.95101 9.55953 2.05101 10.5695L2.06101 10.6395L2.15101 11.6895C2.16101 11.6995 2.18101 11.7095 2.20101 11.7195C2.54101 11.9395 2.87101 12.1595 3.23101 12.3595C3.37101 12.4495 3.52101 12.5295 3.67101 12.6095C4.80101 13.2295 6.01101 13.7195 7.25101 14.0595C7.28101 16.6495 9.40101 18.7495 12.001 18.7495C14.621 18.7495 16.751 16.6195 16.751 13.9995V13.9595C18.011 13.5795 19.221 13.0495 20.351 12.3895C20.411 12.3595 20.451 12.3295 20.501 12.2995C20.961 12.0495 21.401 11.7595 21.821 11.4595C21.831 11.4495 21.851 11.4295 21.861 11.4095L21.901 11.0495L21.951 10.5795C21.961 10.5195 21.961 10.4695 21.971 10.3995C22.051 9.39953 22.031 8.01953 21.091 6.97953ZM8.91101 5.52953C8.91101 3.82953 8.91101 3.18953 11.241 3.18953H12.761C15.091 3.18953 15.091 3.82953 15.091 5.52953V5.56953H8.91101V5.52953ZM12.001 17.2495C10.351 17.2495 8.98101 16.0095 8.78101 14.4095C8.76101 14.2795 8.75101 14.1395 8.75101 13.9995C8.75101 12.2095 10.211 10.7495 12.001 10.7495C13.791 10.7495 15.251 12.2095 15.251 13.9995C15.251 14.1195 15.241 14.2295 15.231 14.3395V14.3495C15.051 15.9795 13.671 17.2495 12.001 17.2495Z" fill="#292D32"/>
<path d="M21.6516 13.3711L21.2316 17.9611C21.0216 19.9611 20.2016 22.0011 15.8016 22.0011H8.18156C3.78156 22.0011 2.96156 19.9611 2.76156 17.9711L2.35156 13.5811C2.38156 13.6011 2.40156 13.6111 2.42156 13.6211C2.59156 13.7311 2.78156 13.8311 2.95156 13.9211C3.73156 14.3511 4.54156 14.7311 5.37156 15.0311C5.68156 15.1411 5.90156 15.4011 5.99156 15.7211C6.74156 18.3211 9.16156 20.2511 12.0016 20.2511C14.8916 20.2511 17.3316 18.2811 18.0416 15.5811C18.1216 15.2611 18.3416 15.0011 18.6516 14.8811C19.4916 14.5511 20.2916 14.1611 21.0416 13.7311C21.1316 13.6811 21.2016 13.6411 21.2316 13.6211C21.3616 13.5411 21.5016 13.4611 21.6516 13.3711Z" fill="#292D32"/>
<path d="M11.4328 16.0284C11.2428 16.0284 11.0528 15.9584 10.9028 15.8084L9.91281 14.8284C9.62281 14.5384 9.62281 14.0584 9.91281 13.7684C10.2028 13.4784 10.6828 13.4784 10.9728 13.7684L11.4528 14.2484L13.0628 12.7684C13.3628 12.4884 13.8428 12.5084 14.1228 12.8084C14.4028 13.1084 14.3828 13.5884 14.0828 13.8684L11.9528 15.8384C11.7928 15.9584 11.6128 16.0284 11.4328 16.0284Z" fill="#292D32"/>
</svg>
