<svg width="24" height="24" viewBox="0 0 24 24" fill="none" xmlns="http://www.w3.org/2000/svg">
<path d="M12 18.2C14.2091 18.2 16 16.4091 16 14.2C16 11.9908 14.2091 10.2 12 10.2C9.79086 10.2 8 11.9908 8 14.2C8 16.4091 9.79086 18.2 12 18.2Z" stroke="#292D32" stroke-width="1.5" stroke-miterlimit="10" stroke-linecap="round" stroke-linejoin="round"/>
<path d="M12.25 12.95V13.88C12.25 14.23 12.07 14.56 11.76 14.74L11 15.2" stroke="#292D32" stroke-width="1.5" stroke-miterlimit="10" stroke-linecap="round" stroke-linejoin="round"/>
<path d="M7.99995 22H15.9999C20.0199 22 20.7399 20.39 20.9499 18.43L21.6999 10.43C21.9699 7.99 21.2699 6 16.9999 6H6.99995C2.72995 6 2.02995 7.99 2.29995 10.43L3.04995 18.43C3.25995 20.39 3.97995 22 7.99995 22Z" stroke="#292D32" stroke-width="1.5" stroke-miterlimit="10" stroke-linecap="round" stroke-linejoin="round"/>
<path d="M8 6V5.2C8 3.43 8 2 11.2 2H12.8C16 2 16 3.43 16 5.2V6" stroke="#292D32" stroke-width="1.5" stroke-miterlimit="10" stroke-linecap="round" stroke-linejoin="round"/>
<path d="M21.65 11C19.92 12.26 18 13.14 16.01 13.64" stroke="#292D32" stroke-width="1.5" stroke-miterlimit="10" stroke-linecap="round" stroke-linejoin="round"/>
<path d="M2.62 11.27C4.29 12.41 6.11 13.22 8 13.68" stroke="#292D32" stroke-width="1.5" stroke-miterlimit="10" stroke-linecap="round" stroke-linejoin="round"/>
</svg>
