<svg width="24" height="24" viewBox="0 0 24 24" fill="none" xmlns="http://www.w3.org/2000/svg">
<path d="M21.7689 2.22891C21.4689 1.92891 20.9789 1.92891 20.6789 2.22891L2.22891 20.6889C1.92891 20.9889 1.92891 21.4789 2.22891 21.7789C2.37891 21.9189 2.56891 21.9989 2.76891 21.9989C2.96891 21.9989 3.15891 21.9189 3.30891 21.7689L21.7689 3.30891C22.0789 3.00891 22.0789 2.52891 21.7689 2.22891Z" fill="#292D32"/>
<path d="M16.5502 5.11L15.8302 3.66C15.3702 2.75 14.1702 2 13.1502 2H10.8602C9.83017 2 8.63017 2.75 8.17017 3.66L7.45017 5.11C7.17017 5.65 6.61017 6 6.00017 6C3.83017 6 2.11017 7.83 2.25017 9.99L2.77017 18.25C2.82017 19.1 3.03017 19.89 3.48017 20.52L18.0002 6C17.3902 6 16.8302 5.65 16.5502 5.11ZM9.50017 10.75H6.50017C6.09017 10.75 5.75017 10.41 5.75017 10C5.75017 9.59 6.09017 9.25 6.50017 9.25H9.50017C9.91017 9.25 10.2502 9.59 10.2502 10C10.2502 10.41 9.91017 10.75 9.50017 10.75Z" fill="#292D32"/>
<path d="M21.7503 9.98835L21.2303 18.2483C21.1003 20.3083 20.0003 21.9983 17.2403 21.9983H7.41026C6.52026 21.9983 6.07026 20.9183 6.70026 20.2883L9.17026 17.8183C9.48026 17.5083 9.96026 17.4683 10.3503 17.6883C11.0403 18.0783 11.8703 18.2283 12.7503 18.0383C14.0203 17.7683 15.0503 16.7283 15.3003 15.4483C15.4703 14.5883 15.3203 13.7783 14.9403 13.1083C14.7203 12.7183 14.7503 12.2283 15.0703 11.9183L19.5703 7.41835C19.9803 7.00835 20.6703 7.05835 21.0203 7.52835C21.5403 8.20835 21.8103 9.06835 21.7503 9.98835Z" fill="#292D32"/>
</svg>
