<svg width="24" height="24" viewBox="0 0 24 24" fill="none" xmlns="http://www.w3.org/2000/svg">
<path d="M13.5 4.60844V7.53844C13.5 8.20844 12.96 8.74844 12.29 8.74844H3.21C2.53 8.74844 2 8.18844 2 7.51844C2.01 6.38844 2.46 5.35844 3.21 4.60844C3.96 3.85844 5 3.39844 6.14 3.39844H12.29C12.96 3.39844 13.5 3.93844 13.5 4.60844Z" fill="#292D32"/>
<path d="M2 11.46V16.46C2 18.75 3.85 20.6 6.14 20.6H17.85C20.14 20.6 22 18.74 22 16.45V11.46C22 10.79 21.46 10.25 20.79 10.25H3.21C2.54 10.25 2 10.79 2 11.46ZM8 17.25H6C5.59 17.25 5.25 16.91 5.25 16.5C5.25 16.09 5.59 15.75 6 15.75H8C8.41 15.75 8.75 16.09 8.75 16.5C8.75 16.91 8.41 17.25 8 17.25ZM14.5 17.25H10.5C10.09 17.25 9.75 16.91 9.75 16.5C9.75 16.09 10.09 15.75 10.5 15.75H14.5C14.91 15.75 15.25 16.09 15.25 16.5C15.25 16.91 14.91 17.25 14.5 17.25Z" fill="#292D32"/>
<path d="M19.97 1.75H17.03C15.76 1.75 15 2.51 15 3.78V6.72C15 7.99 15.76 8.75 17.03 8.75H19.97C21.24 8.75 22 7.99 22 6.72V3.78C22 2.51 21.24 1.75 19.97 1.75ZM18.01 7.32C17.98 7.35 17.91 7.39 17.86 7.39L16.82 7.54C16.79 7.55 16.75 7.55 16.72 7.55C16.57 7.55 16.44 7.5 16.35 7.4C16.23 7.28 16.18 7.11 16.21 6.93L16.36 5.89C16.37 5.84 16.4 5.77 16.43 5.74L18.13 4.04C18.16 4.11 18.19 4.19 18.22 4.27C18.26 4.35 18.3 4.42 18.34 4.49C18.37 4.55 18.41 4.61 18.45 4.65C18.49 4.71 18.53 4.77 18.56 4.8C18.58 4.83 18.59 4.84 18.6 4.85C18.69 4.96 18.79 5.06 18.88 5.13C18.9 5.15 18.92 5.17 18.93 5.17C18.98 5.21 19.04 5.26 19.08 5.29C19.14 5.33 19.19 5.37 19.25 5.4C19.32 5.44 19.4 5.48 19.48 5.52C19.56 5.56 19.64 5.59 19.71 5.61L18.01 7.32ZM20.4 4.93L20.07 5.26C20.06 5.28 20.03 5.29 20 5.29C19.99 5.29 19.98 5.29 19.97 5.29C19.25 5.08 18.68 4.51 18.47 3.79C18.46 3.75 18.47 3.71 18.5 3.68L18.83 3.35C19.37 2.81 19.88 2.82 20.41 3.35C20.68 3.62 20.81 3.88 20.81 4.14C20.8 4.4 20.67 4.66 20.4 4.93Z" fill="#292D32"/>
</svg>
