<svg width="24" height="24" viewBox="0 0 24 24" fill="none" xmlns="http://www.w3.org/2000/svg">
<path opacity="0.4" d="M21 22.75H3C2.59 22.75 2.25 22.41 2.25 22C2.25 21.59 2.59 21.25 3 21.25H21C21.41 21.25 21.75 21.59 21.75 22C21.75 22.41 21.41 22.75 21 22.75Z" fill="#292D32"/>
<path d="M5.59998 8.37988H4C3.45 8.37988 3 8.82988 3 9.37988V17.9999C3 18.5499 3.45 18.9999 4 18.9999H5.59998C6.14998 18.9999 6.59998 18.5499 6.59998 17.9999V9.37988C6.59998 8.81988 6.14998 8.37988 5.59998 8.37988Z" fill="#292D32"/>
<path d="M12.7992 5.18994H11.1992C10.6492 5.18994 10.1992 5.63994 10.1992 6.18994V17.9999C10.1992 18.5499 10.6492 18.9999 11.1992 18.9999H12.7992C13.3492 18.9999 13.7992 18.5499 13.7992 17.9999V6.18994C13.7992 5.63994 13.3492 5.18994 12.7992 5.18994Z" fill="#292D32"/>
<path d="M20.0004 2H18.4004C17.8504 2 17.4004 2.45 17.4004 3V18C17.4004 18.55 17.8504 19 18.4004 19H20.0004C20.5504 19 21.0004 18.55 21.0004 18V3C21.0004 2.45 20.5504 2 20.0004 2Z" fill="#292D32"/>
</svg>
