<svg width="24" height="24" viewBox="0 0 24 24" fill="none" xmlns="http://www.w3.org/2000/svg">
<path d="M20.6117 10.8305C19.8417 9.91045 18.8517 9.31045 17.7017 9.05045C17.4417 7.89045 16.9917 6.89045 16.3317 6.06045C16.3117 6.03045 16.2917 6.00045 16.2717 5.98045C14.0717 3.32045 10.4717 3.33045 8.04172 4.71045C5.96172 5.90045 4.19172 8.41045 5.12172 11.9904C2.99172 12.5105 2.01172 14.3704 2.01172 16.0504C2.01172 17.9304 3.24172 20.0404 5.98172 20.2404H16.3217C16.3317 20.2404 16.3517 20.2404 16.3617 20.2404C17.7817 20.2404 19.1417 19.7105 20.1917 18.7505C22.7017 16.5304 22.3717 12.9104 20.6117 10.8305Z" fill="#292D32"/>
<path d="M21.7631 8.74172C21.7631 9.08172 21.7231 9.41172 21.6231 9.73172C20.8931 8.88172 19.9631 8.25172 18.9331 7.86172C18.6131 6.86172 18.1531 5.97172 17.5531 5.19172C17.5231 5.15172 17.4931 5.11172 17.4531 5.06172C17.6431 5.02172 17.8431 5.01172 18.0331 5.01172C20.0931 5.01172 21.7631 6.68172 21.7631 8.74172Z" fill="#292D32"/>
</svg>
