<svg width="24" height="24" viewBox="0 0 24 24" fill="none" xmlns="http://www.w3.org/2000/svg">
<path d="M6.91992 5.73039C8.59992 4.14039 11.1699 3.54039 13.3799 4.25039" stroke="#292D32" stroke-width="1.5" stroke-miterlimit="10" stroke-linecap="round" stroke-linejoin="round"/>
<path d="M21.8995 13.9601C22.1695 15.6301 21.6995 17.4201 20.2695 18.6801C19.2795 19.5901 17.9795 20.0901 16.6295 20.0801H5.53945C0.869454 19.7401 0.859454 12.9401 5.53945 12.6001H5.58945C5.19945 11.5201 5.05945 10.5201 5.10945 9.62012" stroke="#292D32" stroke-width="1.5" stroke-miterlimit="10" stroke-linecap="round" stroke-linejoin="round"/>
<path d="M7.25984 13.0106C6.73984 12.7506 6.16984 12.6106 5.58984 12.6006" stroke="#292D32" stroke-width="1.5" stroke-miterlimit="10" stroke-linecap="round" stroke-linejoin="round"/>
<path d="M21.9687 8.5C21.9687 9.6 21.4587 10.59 20.6487 11.23C20.0587 11.71 19.2887 12 18.4687 12C16.5387 12 14.9688 10.43 14.9688 8.5C14.9688 7.54 15.3587 6.67 15.9987 6.04V6.03C16.6287 5.39 17.5087 5 18.4687 5C20.3987 5 21.9687 6.57 21.9687 8.5Z" stroke="#292D32" stroke-width="1.5" stroke-miterlimit="10" stroke-linecap="round" stroke-linejoin="round"/>
</svg>
