<svg width="24" height="24" viewBox="0 0 24 24" fill="none" xmlns="http://www.w3.org/2000/svg">
<path opacity="0.4" d="M20.6098 10.83C19.8398 9.90996 18.8498 9.30996 17.6998 9.04996C17.4398 7.88996 16.9898 6.88996 16.3298 6.05996C16.3098 6.02996 16.2898 5.99996 16.2698 5.97996C14.0698 3.31996 10.4698 3.32996 8.03977 4.70996C5.95977 5.89996 4.18977 8.40996 5.11977 11.99C2.98977 12.51 2.00977 14.37 2.00977 16.05C2.00977 17.93 3.23977 20.04 5.97977 20.24H16.3198C16.3298 20.24 16.3498 20.24 16.3598 20.24C17.7798 20.24 19.1398 19.71 20.1898 18.75C22.6998 16.53 22.3698 12.91 20.6098 10.83Z" fill="#292D32"/>
<path d="M21.759 8.73977C21.759 9.63977 21.439 10.4998 20.859 11.1598C20.789 11.0498 20.699 10.9398 20.609 10.8298C19.849 9.91977 18.849 9.29977 17.699 9.04977C17.449 7.88977 16.989 6.89977 16.329 6.06977C16.319 6.03977 16.289 6.00977 16.269 5.98977C16.169 5.86977 16.059 5.75977 15.959 5.64977C16.569 5.22977 17.269 5.00977 18.029 5.00977C20.089 5.00977 21.759 6.67977 21.759 8.73977Z" fill="#292D32"/>
</svg>
