<svg width="24" height="24" viewBox="0 0 24 24" fill="none" xmlns="http://www.w3.org/2000/svg">
<path d="M14.3997 15.1501H9.59961C9.18961 15.1501 8.84961 14.8101 8.84961 14.4001V9.6001C8.84961 9.1901 9.18961 8.8501 9.59961 8.8501H14.3997C14.8097 8.8501 15.1497 9.1901 15.1497 9.6001V14.4001C15.1497 14.8101 14.8097 15.1501 14.3997 15.1501ZM10.3496 13.6501H13.6497V10.3501H10.3496V13.6501Z" fill="#292D32"/>
<path d="M7.79999 18.7499C6.38999 18.7499 5.25 17.6099 5.25 16.1999C5.25 14.7899 6.38999 13.6499 7.79999 13.6499H9.59998C10.01 13.6499 10.35 13.9899 10.35 14.3999V16.1999C10.35 17.6099 9.20999 18.7499 7.79999 18.7499ZM7.79999 15.1499C7.21999 15.1499 6.75 15.6199 6.75 16.1999C6.75 16.7799 7.21999 17.2499 7.79999 17.2499C8.37999 17.2499 8.84998 16.7799 8.84998 16.1999V15.1499H7.79999Z" fill="#292D32"/>
<path d="M9.59998 10.35H7.79999C6.38999 10.35 5.25 9.20999 5.25 7.79999C5.25 6.38999 6.38999 5.25 7.79999 5.25C9.20999 5.25 10.35 6.38999 10.35 7.79999V9.60001C10.35 10.01 10.01 10.35 9.59998 10.35ZM7.79999 6.75C7.21999 6.75 6.75 7.21999 6.75 7.79999C6.75 8.37999 7.21999 8.85001 7.79999 8.85001H8.84998V7.79999C8.84998 7.21999 8.37999 6.75 7.79999 6.75Z" fill="#292D32"/>
<path d="M16.2004 10.35H14.4004C13.9904 10.35 13.6504 10.01 13.6504 9.60001V7.79999C13.6504 6.38999 14.7904 5.25 16.2004 5.25C17.6104 5.25 18.7504 6.38999 18.7504 7.79999C18.7504 9.20999 17.6104 10.35 16.2004 10.35ZM15.1504 8.85001H16.2004C16.7804 8.85001 17.2504 8.37999 17.2504 7.79999C17.2504 7.21999 16.7804 6.75 16.2004 6.75C15.6204 6.75 15.1504 7.21999 15.1504 7.79999V8.85001Z" fill="#292D32"/>
<path d="M16.2004 18.7499C14.7904 18.7499 13.6504 17.6099 13.6504 16.1999V14.3999C13.6504 13.9899 13.9904 13.6499 14.4004 13.6499H16.2004C17.6104 13.6499 18.7504 14.7899 18.7504 16.1999C18.7504 17.6099 17.6104 18.7499 16.2004 18.7499ZM15.1504 15.1499V16.1999C15.1504 16.7799 15.6204 17.2499 16.2004 17.2499C16.7804 17.2499 17.2504 16.7799 17.2504 16.1999C17.2504 15.6199 16.7804 15.1499 16.2004 15.1499H15.1504Z" fill="#292D32"/>
<path d="M15 22.75H9C3.57 22.75 1.25 20.43 1.25 15V9C1.25 3.57 3.57 1.25 9 1.25H15C20.43 1.25 22.75 3.57 22.75 9V15C22.75 20.43 20.43 22.75 15 22.75ZM9 2.75C4.39 2.75 2.75 4.39 2.75 9V15C2.75 19.61 4.39 21.25 9 21.25H15C19.61 21.25 21.25 19.61 21.25 15V9C21.25 4.39 19.61 2.75 15 2.75H9Z" fill="#292D32"/>
</svg>
