<svg width="24" height="24" viewBox="0 0 24 24" fill="none" xmlns="http://www.w3.org/2000/svg">
<path opacity="0.4" d="M22.0293 12.0303C22.0293 15.0603 20.6793 17.7803 18.5393 19.6203C18.1593 19.9403 17.7593 20.2403 17.3293 20.5103C15.7993 21.4703 13.9793 22.0303 12.0293 22.0303C6.5093 22.0303 2.0293 17.5503 2.0293 12.0303C2.0293 9.00027 3.3793 6.28027 5.5193 4.44027C5.8993 4.12027 6.2993 3.82027 6.7293 3.55027C8.2593 2.59027 10.0793 2.03027 12.0293 2.03027C17.5493 2.03027 22.0293 6.51027 22.0293 12.0303Z" fill="#292D32"/>
<path d="M15.0995 7.68029L15.0895 12.2303C15.0895 12.5403 14.8995 12.8103 14.6195 12.9203C14.5295 12.9603 14.4295 12.9803 14.3395 12.9803C14.1395 12.9803 13.9495 12.9003 13.8095 12.7603L5.61953 4.56029C5.57953 4.52029 5.54953 4.48029 5.51953 4.44029C5.89953 4.12029 6.29953 3.82029 6.72953 3.55029L13.5895 10.4203L13.5995 7.68029C13.5995 7.27029 13.9395 6.93029 14.3495 6.93029C14.7695 6.93029 15.0995 7.27029 15.0995 7.68029Z" fill="#292D32"/>
<path d="M18.539 19.6204C18.159 19.9404 17.759 20.2404 17.329 20.5104L10.469 13.6404L10.459 16.3804C10.459 16.7904 10.119 17.1304 9.70898 17.1304C9.28898 17.1304 8.95898 16.7904 8.95898 16.3804L8.96898 11.8304C8.96898 11.5204 9.15898 11.2504 9.43898 11.1404C9.70898 11.0204 10.039 11.0804 10.249 11.3004L18.439 19.5004C18.479 19.5404 18.509 19.5804 18.539 19.6204Z" fill="#292D32"/>
</svg>
