<svg width="24" height="24" viewBox="0 0 24 24" fill="none" xmlns="http://www.w3.org/2000/svg">
<path d="M10.8792 14.1499C10.3692 14.5899 9.70914 14.8699 8.98914 14.8699C7.40914 14.8699 6.11914 13.5899 6.11914 11.9999C6.11914 10.4099 7.39914 9.12988 8.98914 9.12988C9.71914 9.12988 10.3792 9.39985 10.8792 9.84985" stroke="#292D32" stroke-width="1.5" stroke-linecap="round" stroke-linejoin="round"/>
<path d="M17.8792 14.1499C17.3692 14.5899 16.7091 14.8699 15.9891 14.8699C14.4091 14.8699 13.1191 13.5899 13.1191 11.9999C13.1191 10.4099 14.3991 9.12988 15.9891 9.12988C16.7191 9.12988 17.3792 9.39985 17.8792 9.84985" stroke="#292D32" stroke-width="1.5" stroke-linecap="round" stroke-linejoin="round"/>
<path d="M4 6C2.75 7.67 2 9.75 2 12C2 17.52 6.48 22 12 22C17.52 22 22 17.52 22 12C22 6.48 17.52 2 12 2C10.57 2 9.19997 2.29998 7.96997 2.84998" stroke="#292D32" stroke-width="1.5" stroke-linecap="round" stroke-linejoin="round"/>
</svg>
