<svg width="24" height="24" viewBox="0 0 24 24" fill="none" xmlns="http://www.w3.org/2000/svg">
<path d="M2.70911 17.0202L4.44911 13.5402C4.92911 12.5702 4.92911 11.4402 4.44911 10.4702L2.70911 6.98022C1.21911 4.00022 4.42911 0.850218 7.37911 2.41022L8.91911 3.23022C9.13911 3.34022 9.30911 3.52022 9.39911 3.74022L15.0891 16.3902C15.3191 16.9102 15.1091 17.5202 14.6091 17.7802L7.36911 21.5902C4.42911 23.1502 1.21911 20.0002 2.70911 17.0202Z" fill="#292D32"/>
<path opacity="0.4" d="M16.3093 15.6004L12.5793 7.32045C12.1593 6.39045 13.1593 5.45045 14.0593 5.93045L19.8293 8.97045C22.2793 10.2604 22.2793 13.7604 19.8293 15.0504L17.7893 16.1204C17.2393 16.4004 16.5693 16.1704 16.3093 15.6004Z" fill="#292D32"/>
</svg>
