<svg width="24" height="24" viewBox="0 0 24 24" fill="none" xmlns="http://www.w3.org/2000/svg">
<path d="M9.00048 17.75C8.81048 17.75 8.62048 17.68 8.47048 17.53L6.47048 15.53C6.26048 15.32 6.19048 14.99 6.31048 14.71C6.43048 14.43 6.70048 14.25 7.00048 14.25H13.0005C13.4105 14.25 13.7505 14.59 13.7505 15C13.7505 15.41 13.4105 15.75 13.0005 15.75H8.81048L9.53048 16.47C9.82048 16.76 9.82048 17.24 9.53048 17.53C9.38048 17.68 9.19048 17.75 9.00048 17.75Z" fill="#292D32"/>
<path d="M6.99945 15.7504C6.80945 15.7504 6.61945 15.6804 6.46945 15.5304C6.17945 15.2404 6.17945 14.7604 6.46945 14.4704L8.46945 12.4704C8.75945 12.1804 9.23945 12.1804 9.52945 12.4704C9.81945 12.7604 9.81945 13.2404 9.52945 13.5304L7.52945 15.5304C7.37945 15.6804 7.18945 15.7504 6.99945 15.7504Z" fill="#292D32"/>
<path d="M15 22.75H9C3.57 22.75 1.25 20.43 1.25 15V9C1.25 3.57 3.57 1.25 9 1.25H14C14.41 1.25 14.75 1.59 14.75 2C14.75 2.41 14.41 2.75 14 2.75H9C4.39 2.75 2.75 4.39 2.75 9V15C2.75 19.61 4.39 21.25 9 21.25H15C19.61 21.25 21.25 19.61 21.25 15V10C21.25 9.59 21.59 9.25 22 9.25C22.41 9.25 22.75 9.59 22.75 10V15C22.75 20.43 20.43 22.75 15 22.75Z" fill="#292D32"/>
<path d="M22 10.7505H18C14.58 10.7505 13.25 9.42048 13.25 6.00048V2.00048C13.25 1.70048 13.43 1.42048 13.71 1.31048C13.99 1.19048 14.31 1.26048 14.53 1.47048L22.53 9.47048C22.74 9.68048 22.81 10.0105 22.69 10.2905C22.57 10.5705 22.3 10.7505 22 10.7505ZM14.75 3.81048V6.00048C14.75 8.58048 15.42 9.25048 18 9.25048H20.19L14.75 3.81048Z" fill="#292D32"/>
</svg>
