<svg width="24" height="24" viewBox="0 0 24 24" fill="none" xmlns="http://www.w3.org/2000/svg">
<path d="M15.7997 2.21048C15.3897 1.80048 14.6797 2.08048 14.6797 2.65048V6.14048C14.6797 7.60048 15.9197 8.81048 17.4297 8.81048C18.3797 8.82048 19.6997 8.82048 20.8297 8.82048C21.3997 8.82048 21.6997 8.15048 21.2997 7.75048C19.8597 6.30048 17.2797 3.69048 15.7997 2.21048Z" fill="#292D32"/>
<path d="M14.7605 19.2618C12.4105 19.4318 12.4105 22.8318 14.7605 23.0018H20.3205C20.9905 23.0018 21.6505 22.7518 22.1405 22.3018C23.7905 20.8618 22.9105 17.9818 20.7405 17.7118C19.9605 13.0218 13.1805 14.8018 14.7805 19.2718" fill="#292D32"/>
<path d="M21.5 11.19V14.44C21.5 14.74 21.06 14.88 20.84 14.67C20.36 14.2 19.77 13.84 19.09 13.63C17.41 13.11 15.46 13.62 14.25 14.9C13.44 15.74 13.03 16.81 13.04 17.97C13.04 18.16 12.95 18.33 12.8 18.44C12 19.05 11.5 20.01 11.5 21.12C11.5 21.2 11.5 21.28 11.51 21.36C11.53 21.68 11.3 21.99 10.97 21.99H8.07C4.99 21.99 2.5 19.99 2.5 16.42V7.57C2.5 4 4.99 2 8.07 2H12.31C12.86 2 13.31 2.45 13.31 3V5.89C13.31 8.27 15.23 10.19 17.61 10.19H20.5C21.05 10.19 21.5 10.64 21.5 11.19Z" fill="#292D32"/>
</svg>
