<svg width="24" height="24" viewBox="0 0 24 24" fill="none" xmlns="http://www.w3.org/2000/svg">
<path d="M16.19 2H7.81C4.6 2 2 4.6 2 7.81V10.25C2 10.8 2.45 11.25 3 11.25H21C21.55 11.25 22 10.8 22 10.25V7.81C22 4.6 19.4 2 16.19 2ZM6.75 8.25C6.75 8.66 6.41 9 6 9C5.59 9 5.25 8.66 5.25 8.25V6.25C5.25 5.84 5.59 5.5 6 5.5C6.41 5.5 6.75 5.84 6.75 6.25V8.25ZM10.75 8.25C10.75 8.66 10.41 9 10 9C9.59 9 9.25 8.66 9.25 8.25V6.25C9.25 5.84 9.59 5.5 10 5.5C10.41 5.5 10.75 5.84 10.75 6.25V8.25ZM18 8H14C13.59 8 13.25 7.66 13.25 7.25C13.25 6.84 13.59 6.5 14 6.5H18C18.41 6.5 18.75 6.84 18.75 7.25C18.75 7.66 18.41 8 18 8Z" fill="#292D32"/>
<path d="M2 16.19C2 19.4 4.6 22 7.81 22H16.18C19.4 22 22 19.4 22 16.19V13.75C22 13.2 21.55 12.75 21 12.75H3C2.45 12.75 2 13.2 2 13.75V16.19ZM14 16.25H18C18.41 16.25 18.75 16.59 18.75 17C18.75 17.41 18.41 17.75 18 17.75H14C13.59 17.75 13.25 17.41 13.25 17C13.25 16.59 13.59 16.25 14 16.25ZM9.25 16C9.25 15.59 9.59 15.25 10 15.25C10.41 15.25 10.75 15.59 10.75 16V18C10.75 18.41 10.41 18.75 10 18.75C9.59 18.75 9.25 18.41 9.25 18V16ZM5.25 16C5.25 15.59 5.59 15.25 6 15.25C6.41 15.25 6.75 15.59 6.75 16V18C6.75 18.41 6.41 18.75 6 18.75C5.59 18.75 5.25 18.41 5.25 18V16Z" fill="#292D32"/>
</svg>
