<svg width="24" height="24" viewBox="0 0 24 24" fill="none" xmlns="http://www.w3.org/2000/svg">
<path d="M12.9995 11.7502C12.8095 11.7502 12.6195 11.6802 12.4695 11.5302C12.1795 11.2402 12.1795 10.7602 12.4695 10.4702L20.6695 2.27023C20.9595 1.98023 21.4395 1.98023 21.7295 2.27023C22.0195 2.56023 22.0195 3.04023 21.7295 3.33023L13.5295 11.5302C13.3795 11.6802 13.1895 11.7502 12.9995 11.7502Z" fill="#292D32"/>
<path d="M21.9992 7.55C21.5892 7.55 21.2492 7.21 21.2492 6.8V2.75H17.1992C16.7892 2.75 16.4492 2.41 16.4492 2C16.4492 1.59 16.7892 1.25 17.1992 1.25H21.9992C22.4092 1.25 22.7492 1.59 22.7492 2V6.8C22.7492 7.21 22.4092 7.55 21.9992 7.55Z" fill="#292D32"/>
<path d="M15 22.75H9C3.57 22.75 1.25 20.43 1.25 15V9C1.25 3.57 3.57 1.25 9 1.25H11C11.41 1.25 11.75 1.59 11.75 2C11.75 2.41 11.41 2.75 11 2.75H9C4.39 2.75 2.75 4.39 2.75 9V15C2.75 19.61 4.39 21.25 9 21.25H15C19.61 21.25 21.25 19.61 21.25 15V13C21.25 12.59 21.59 12.25 22 12.25C22.41 12.25 22.75 12.59 22.75 13V15C22.75 20.43 20.43 22.75 15 22.75Z" fill="#292D32"/>
</svg>
