<svg width="24" height="24" viewBox="0 0 24 24" fill="none" xmlns="http://www.w3.org/2000/svg">
<path d="M13.41 20.79L12.0001 21.7C10.6901 22.51 8.87006 21.6 8.87006 19.98V14.63C8.87006 13.92 8.47006 13.01 8.06006 12.51L4.22003 8.47C3.71003 7.96 3.31006 7.06001 3.31006 6.45001V4.13C3.31006 2.92 4.22008 2.01001 5.33008 2.01001H18.67C19.78 2.01001 20.6901 2.92 20.6901 4.03V6.25C20.6901 7.06 20.1801 8.07001 19.6801 8.57001" stroke="#292D32" stroke-width="1.5" stroke-miterlimit="10" stroke-linecap="round" stroke-linejoin="round"/>
<path d="M17.0799 11.89L13.5399 15.43C13.3999 15.57 13.2699 15.83 13.2399 16.02L13.0499 17.37C12.9799 17.86 13.3199 18.2 13.8099 18.13L15.1599 17.94C15.3499 17.91 15.6199 17.78 15.7499 17.64L19.2899 14.1C19.8999 13.49 20.1899 12.78 19.2899 11.88C18.3999 10.99 17.6899 11.28 17.0799 11.89Z" stroke="#292D32" stroke-width="1.5" stroke-miterlimit="10" stroke-linecap="round" stroke-linejoin="round"/>
<path d="M16.58 12.39C16.88 13.47 17.7199 14.31 18.7999 14.61" stroke="#292D32" stroke-width="1.5" stroke-miterlimit="10" stroke-linecap="round" stroke-linejoin="round"/>
</svg>
