<svg width="24" height="24" viewBox="0 0 24 24" fill="none" xmlns="http://www.w3.org/2000/svg">
<path d="M15 22.75H9C3.57 22.75 1.25 20.43 1.25 15V9C1.25 3.57 3.57 1.25 9 1.25H15C20.43 1.25 22.75 3.57 22.75 9V15C22.75 20.43 20.43 22.75 15 22.75ZM9 2.75C4.39 2.75 2.75 4.39 2.75 9V15C2.75 19.61 4.39 21.25 9 21.25H15C19.61 21.25 21.25 19.61 21.25 15V9C21.25 4.39 19.61 2.75 15 2.75H9Z" fill="#292D32"/>
<path d="M15 16.1297H10.08C7.97 16.1297 6.25 14.4097 6.25 12.2997C6.25 10.1897 7.97 8.46973 10.08 8.46973H16.85C17.26 8.46973 17.6 8.80973 17.6 9.21973C17.6 9.62973 17.26 9.96973 16.85 9.96973H10.08C8.8 9.96973 7.75 11.0097 7.75 12.2997C7.75 13.5897 8.79 14.6297 10.08 14.6297H15C15.41 14.6297 15.75 14.9697 15.75 15.3797C15.75 15.7897 15.41 16.1297 15 16.1297Z" fill="#292D32"/>
<path d="M15.4311 11.5198C15.2411 11.5198 15.0511 11.4498 14.9011 11.2998C14.6111 11.0098 14.6111 10.5298 14.9011 10.2398L15.9411 9.19982L14.9011 8.15983C14.6111 7.86983 14.6111 7.38982 14.9011 7.09982C15.1911 6.80982 15.6711 6.80982 15.9611 7.09982L17.5311 8.66982C17.8211 8.95982 17.8211 9.43983 17.5311 9.72983L15.9611 11.2998C15.8111 11.4398 15.6211 11.5198 15.4311 11.5198Z" fill="#292D32"/>
</svg>
