<svg width="24" height="24" viewBox="0 0 24 24" fill="none" xmlns="http://www.w3.org/2000/svg">
<path d="M15.6812 3.96C16.1612 4.67 16.4412 5.52 16.4412 6.44C16.4312 8.84 14.5412 10.79 12.1612 10.87C12.0612 10.86 11.9412 10.86 11.8312 10.87C9.62118 10.8 7.83118 9.11 7.59118 6.95C7.30118 4.38 9.41118 2 11.9912 2" stroke="#292D32" stroke-width="1.5" stroke-linecap="round" stroke-linejoin="round"/>
<path d="M6.99078 14.56C4.57078 16.18 4.57078 18.82 6.99078 20.43C9.74078 22.27 14.2508 22.27 17.0008 20.43C19.4208 18.81 19.4208 16.17 17.0008 14.56C14.2708 12.73 9.76078 12.73 6.99078 14.56Z" stroke="#292D32" stroke-width="1.5" stroke-linecap="round" stroke-linejoin="round"/>
</svg>
