<svg width="24" height="24" viewBox="0 0 24 24" fill="none" xmlns="http://www.w3.org/2000/svg">
<path d="M9 6C7.9 6 7 6.9 7 8C7 9.1 7.9 10 9 10C10.1 10 11 9.1 11 8" stroke="#292D32" stroke-width="1.5" stroke-linecap="round" stroke-linejoin="round"/>
<path d="M2 12.89V15C2 20 4 22 9 22H15C20 22 22 20 22 15V10" stroke="#292D32" stroke-width="1.5" stroke-linecap="round" stroke-linejoin="round"/>
<path d="M13 2H9C4 2 2 4 2 9" stroke="#292D32" stroke-width="1.5" stroke-linecap="round" stroke-linejoin="round"/>
<path d="M19.1409 2.58966L15.5109 6.21966C15.3709 6.35966 15.2309 6.62966 15.2109 6.82966L15.0109 8.21966C14.9409 8.71966 15.2909 9.06966 15.7909 8.99966L17.1809 8.79966C17.3709 8.76966 17.6509 8.63966 17.7909 8.49966L21.4209 4.86966C22.0509 4.23966 22.3409 3.51966 21.4209 2.59966C20.4909 1.65966 19.7709 1.95966 19.1409 2.58966Z" stroke="#292D32" stroke-width="1.5" stroke-miterlimit="10" stroke-linecap="round" stroke-linejoin="round"/>
<path d="M18.6191 3.11035C18.9291 4.21035 19.7891 5.07035 20.8891 5.38035" stroke="#292D32" stroke-width="1.5" stroke-miterlimit="10" stroke-linecap="round" stroke-linejoin="round"/>
<path d="M2.66992 18.9496L7.59992 15.6396C8.38992 15.1096 9.52992 15.1696 10.2399 15.7796L10.5699 16.0696C11.3499 16.7396 12.6099 16.7396 13.3899 16.0696L17.5499 12.4996C18.3299 11.8296 19.5899 11.8296 20.3699 12.4996L21.9999 13.8996" stroke="#292D32" stroke-width="1.5" stroke-linecap="round" stroke-linejoin="round"/>
</svg>
