<svg width="24" height="24" viewBox="0 0 24 24" fill="none" xmlns="http://www.w3.org/2000/svg">
<path d="M17.5 22.75H3.5C3.09 22.75 2.75 22.41 2.75 22V5C2.75 2.76 4.26 1.25 6.5 1.25H14.5C16.74 1.25 18.25 2.76 18.25 5V22C18.25 22.41 17.91 22.75 17.5 22.75ZM4.25 21.25H16.75V5C16.75 3.59 15.91 2.75 14.5 2.75H6.5C5.09 2.75 4.25 3.59 4.25 5V21.25Z" fill="#292D32"/>
<path d="M19 22.75H2C1.59 22.75 1.25 22.41 1.25 22C1.25 21.59 1.59 21.25 2 21.25H19C19.41 21.25 19.75 21.59 19.75 22C19.75 22.41 19.41 22.75 19 22.75Z" fill="#292D32"/>
<path d="M12.6102 10.7502H8.38023C6.75023 10.7502 5.74023 9.74023 5.74023 8.11023V6.88023C5.74023 5.25023 6.75023 4.24023 8.38023 4.24023H12.6102C14.2402 4.24023 15.2502 5.25023 15.2502 6.88023V8.11023C15.2502 9.74023 14.2402 10.7502 12.6102 10.7502ZM8.39023 5.75023C7.58023 5.75023 7.25023 6.08023 7.25023 6.89023V8.12022C7.25023 8.93022 7.58023 9.26022 8.39023 9.26022H12.6202C13.4302 9.26022 13.7602 8.93022 13.7602 8.12022V6.89023C13.7602 6.08023 13.4302 5.75023 12.6202 5.75023H8.39023Z" fill="#292D32"/>
<path d="M9.5 13.75H6.5C6.09 13.75 5.75 13.41 5.75 13C5.75 12.59 6.09 12.25 6.5 12.25H9.5C9.91 12.25 10.25 12.59 10.25 13C10.25 13.41 9.91 13.75 9.5 13.75Z" fill="#292D32"/>
<path d="M17.5 16.7602C17.09 16.7602 16.75 16.4302 16.75 16.0102C16.75 15.6002 17.08 15.2602 17.5 15.2602L21.25 15.2502V10.4602L19.66 9.67017C19.29 9.48017 19.14 9.03017 19.32 8.66017C19.51 8.29017 19.96 8.14018 20.33 8.32018L22.33 9.32018C22.58 9.45018 22.74 9.71017 22.74 9.99017V15.9902C22.74 16.4002 22.41 16.7402 21.99 16.7402L17.5 16.7602Z" fill="#292D32"/>
</svg>
