<svg width="24" height="24" viewBox="0 0 24 24" fill="none" xmlns="http://www.w3.org/2000/svg">
<path d="M15.8406 22.0002H8.16059C3.97059 22.0002 3.14059 19.4702 4.50059 16.3902L5.94059 13.1202C5.94059 13.1202 9.00059 13.0002 12.0006 14.0002C15.0006 15.0002 17.8306 13.1102 17.8306 13.1102L18.0206 12.9902L19.5106 16.4002C20.8506 19.4802 19.9706 22.0002 15.8406 22.0002Z" fill="#292D32"/>
<path opacity="0.4" d="M18.0214 12.99L17.8314 13.11C17.8314 13.11 15.0014 15 12.0014 14C9.00141 13 5.94141 13.12 5.94141 13.12L8.74141 6.74H8.44141C7.79141 6.74 7.19141 6.48 6.76141 6.05C6.33141 5.62 6.07141 5.02 6.07141 4.37C6.07141 3.07 7.13141 2 8.44141 2H15.5514C16.2114 2 16.8014 2.27 17.2314 2.7C17.7914 3.26 18.0814 4.08 17.8614 4.95C17.6014 6.03 16.5614 6.74 15.4414 6.74H15.2814L18.0214 12.99Z" fill="#292D32"/>
</svg>
