<svg width="24" height="24" viewBox="0 0 24 24" fill="none" xmlns="http://www.w3.org/2000/svg">
<path d="M18.32 12.75H15C12.51 12.75 11.25 11.34 11.25 8.54996V5.67996C11.25 4.65996 11.37 3.19996 12.43 2.39996C13.32 1.73996 14.6 1.68996 16.49 2.23996C18.97 2.95996 21.04 5.02996 21.76 7.50996C22.31 9.38996 22.26 10.68 21.6 11.56C20.8 12.63 19.34 12.75 18.32 12.75ZM14.28 3.35996C13.87 3.35996 13.55 3.43996 13.34 3.59996C12.95 3.88996 12.76 4.56996 12.76 5.67996V8.55996C12.76 10.8 13.62 11.26 15.01 11.26H18.33C19.43 11.26 20.11 11.07 20.41 10.68C20.76 10.22 20.73 9.29996 20.34 7.94996C19.76 5.97996 18.06 4.26996 16.09 3.69996C15.35 3.46996 14.75 3.35996 14.28 3.35996Z" fill="#292D32"/>
<path d="M11.0704 22.7498C10.5404 22.7498 10.0004 22.7098 9.46037 22.6198C5.37037 21.9598 2.04037 18.6398 1.38037 14.5498C0.530371 9.28983 3.92037 4.32983 9.11037 3.26983C9.52037 3.18983 9.91037 3.44983 10.0004 3.84983C10.0804 4.25983 9.82037 4.64983 9.42037 4.73983C5.03037 5.63983 2.15037 9.83983 2.88037 14.3098C3.44037 17.7698 6.25037 20.5798 9.71037 21.1398C14.2004 21.8598 18.3904 18.9698 19.2804 14.5598C19.3604 14.1498 19.7604 13.8898 20.1604 13.9698C20.5704 14.0498 20.8304 14.4498 20.7504 14.8498C19.8004 19.5198 15.7204 22.7498 11.0704 22.7498Z" fill="#292D32"/>
</svg>
