<svg width="24" height="24" viewBox="0 0 24 24" fill="none" xmlns="http://www.w3.org/2000/svg">
<path d="M10.0801 11.8319H11.7301L11.9201 10.1719H10.2701L10.0801 11.8319Z" fill="#292D32"/>
<path d="M21.97 7.21C21.77 4.13 19.87 2.23 16.79 2.03C16.59 2.01 16.39 2 16.19 2H7.81C7.61 2 7.41 2.01 7.21 2.03C4.13 2.23 2.23 4.13 2.03 7.21C2.01 7.41 2 7.61 2 7.81V16.19C2 16.39 2.01 16.59 2.03 16.79C2.23 19.87 4.13 21.77 7.21 21.97C7.41 21.99 7.61 22 7.81 22H13.5C14.05 22 14.5 21.55 14.5 21V18.03C14.5 16.08 16.08 14.5 18.03 14.5H21C21.55 14.5 22 14.05 22 13.5V7.81C22 7.61 21.99 7.41 21.97 7.21ZM16 10.17H13.43L13.24 11.83H15.47C15.89 11.83 16.22 12.17 16.22 12.58C16.22 12.99 15.89 13.33 15.47 13.33H13.08L12.8 15.82C12.76 16.2 12.43 16.49 12.05 16.49C12.03 16.49 12 16.49 11.97 16.48C11.56 16.44 11.26 16.07 11.31 15.65L11.57 13.33H9.92L9.64 15.82C9.6 16.2 9.27 16.49 8.9 16.49C8.87 16.49 8.84 16.49 8.81 16.48C8.4 16.44 8.1 16.07 8.15 15.65L8.41 13.33H6C5.59 13.33 5.25 12.99 5.25 12.58C5.25 12.17 5.59 11.83 6 11.83H8.57L8.76 10.17H6.53C6.11 10.17 5.78 9.83 5.78 9.42C5.78 9.01 6.11 8.67 6.53 8.67H8.92L9.2 6.18C9.25 5.77 9.62 5.47 10.03 5.52C10.44 5.56 10.74 5.93 10.69 6.35L10.43 8.67H12.08L12.36 6.18C12.41 5.77 12.78 5.47 13.19 5.52C13.6 5.56 13.9 5.93 13.85 6.35L13.59 8.67H16C16.41 8.67 16.75 9.01 16.75 9.42C16.75 9.83 16.41 10.17 16 10.17Z" fill="#292D32"/>
<path d="M20.97 23H18.03C16.76 23 16 22.24 16 20.97V18.03C16 16.76 16.76 16 18.03 16H20.97C22.24 16 23 16.76 23 18.03V20.97C23 22.24 22.24 23 20.97 23ZM21.19 19.69C21.07 19.57 20.91 19.51 20.75 19.51C20.59 19.51 20.43 19.57 20.31 19.69L20.13 19.87V17.63C20.13 17.28 19.85 17 19.5 17C19.15 17 18.87 17.28 18.87 17.63V19.87L18.69 19.69C18.45 19.45 18.05 19.45 17.81 19.69C17.57 19.93 17.57 20.33 17.81 20.57L19.06 21.82C19.11 21.87 19.18 21.91 19.25 21.94C19.27 21.95 19.29 21.95 19.31 21.96C19.36 21.98 19.41 21.99 19.47 21.99C19.49 21.99 19.51 21.99 19.53 21.99C19.6 21.99 19.66 21.98 19.73 21.95C19.74 21.95 19.74 21.95 19.75 21.95C19.82 21.92 19.88 21.88 19.93 21.83C19.94 21.82 19.94 21.82 19.95 21.82L21.2 20.57C21.44 20.33 21.44 19.93 21.19 19.69Z" fill="#292D32"/>
</svg>
