<svg width="24" height="24" viewBox="0 0 24 24" fill="none" xmlns="http://www.w3.org/2000/svg">
<path d="M8.5 12V7.21997" stroke="#292D32" stroke-width="1.5" stroke-miterlimit="10" stroke-linecap="round" stroke-linejoin="round"/>
<path d="M8.5 22V19" stroke="#292D32" stroke-width="1.5" stroke-miterlimit="10" stroke-linecap="round" stroke-linejoin="round"/>
<path d="M15.5 22V7.21997" stroke="#292D32" stroke-width="1.5" stroke-miterlimit="10" stroke-linecap="round" stroke-linejoin="round"/>
<path d="M10.1001 5.29999C10.1001 5.78999 9.90007 6.25001 9.57007 6.57001C9.25007 6.90001 8.80005 7.09998 8.30005 7.09998H6.05005C6.33005 6.72998 6.50006 6.25 6.50006 5.75V4.84998C6.50006 4.34998 6.33005 3.87 6.05005 3.5H8.30005C9.29005 3.5 10.1001 4.30999 10.1001 5.29999Z" stroke="#292D32" stroke-width="1.5" stroke-miterlimit="10" stroke-linecap="round" stroke-linejoin="round"/>
<path d="M6.5 4.85002V5.75005C6.5 6.25005 6.32999 6.73002 6.04999 7.10002C5.28999 8.11002 3.73 8.45002 2.28 7.16002C2.12 7.02002 2 6.72005 2 6.50005V4.16002C2 3.97002 2.10001 3.69003 2.23001 3.55003C3.49001 2.23003 5.01 2.42005 5.84 3.25005C5.91 3.32005 5.97999 3.40004 6.04999 3.49004C6.32999 3.87004 6.5 4.35002 6.5 4.85002Z" stroke="#292D32" stroke-width="1.5" stroke-miterlimit="10" stroke-linecap="round" stroke-linejoin="round"/>
<path d="M13.8999 5.29999C13.8999 5.78999 14.0999 6.25001 14.4299 6.57001C14.7499 6.90001 15.1999 7.09998 15.6999 7.09998H17.9499C17.6699 6.72998 17.4999 6.25 17.4999 5.75V4.84998C17.4999 4.34998 17.6699 3.87 17.9499 3.5H15.6999C14.7099 3.5 13.8999 4.30999 13.8999 5.29999Z" stroke="#292D32" stroke-width="1.5" stroke-miterlimit="10" stroke-linecap="round" stroke-linejoin="round"/>
<path d="M17.5 4.85002V5.75005C17.5 6.25005 17.67 6.73002 17.95 7.10002C18.71 8.11002 20.27 8.45002 21.72 7.16002C21.88 7.02002 22 6.72005 22 6.50005V4.16002C22 3.97002 21.9 3.69003 21.77 3.55003C20.51 2.23003 18.99 2.42005 18.16 3.25005C18.09 3.32005 18.02 3.40004 17.95 3.49004C17.67 3.87004 17.5 4.35002 17.5 4.85002Z" stroke="#292D32" stroke-width="1.5" stroke-miterlimit="10" stroke-linecap="round" stroke-linejoin="round"/>
<path d="M10 13.5V17.5C10 18.33 9.33 19 8.5 19C7.67 19 7 18.33 7 17.5V13.5C7 12.67 7.67 12 8.5 12C9.33 12 10 12.67 10 13.5Z" stroke="#292D32" stroke-width="1.5" stroke-miterlimit="10" stroke-linecap="round" stroke-linejoin="round"/>
</svg>
