<svg width="24" height="24" viewBox="0 0 24 24" fill="none" xmlns="http://www.w3.org/2000/svg">
<path d="M5.56971 22.6998C3.22971 22.6998 1.24971 20.7198 1.24971 18.3798V12.2198C1.19971 9.2998 2.27971 6.5498 4.29971 4.4898C6.31971 2.4398 9.02971 1.2998 11.9497 1.2998C17.9097 1.2998 22.7497 6.14981 22.7497 12.0998V18.2598C22.7497 20.6398 20.8097 22.5798 18.4297 22.5798C16.0897 22.5798 14.1097 20.5998 14.1097 18.2598V15.4498C14.1097 13.9998 15.2497 12.8598 16.6997 12.8598C18.1497 12.8598 19.2897 13.9998 19.2897 15.4498V18.4798C19.2897 18.8898 18.9497 19.2298 18.5397 19.2298C18.1297 19.2298 17.7897 18.8898 17.7897 18.4798V15.4498C17.7897 14.7698 17.2397 14.3598 16.6997 14.3598C16.0197 14.3598 15.6097 14.9098 15.6097 15.4498V18.2598C15.6097 19.7898 16.8997 21.0798 18.4297 21.0798C19.9597 21.0798 21.2497 19.7898 21.2497 18.2598V12.0998C21.2497 6.9698 17.0797 2.7998 11.9497 2.7998C9.43971 2.7998 7.10971 3.7698 5.36971 5.5398C3.62971 7.3098 2.69971 9.6798 2.74971 12.1998V18.3798C2.74971 19.9098 4.03971 21.1998 5.56971 21.1998C7.09971 21.1998 8.38971 19.9098 8.38971 18.3798V15.5698C8.38971 14.8898 7.83971 14.4798 7.29971 14.4798C6.61971 14.4798 6.20971 15.0298 6.20971 15.5698V18.4898C6.20971 18.8998 5.86971 19.2398 5.45971 19.2398C5.04971 19.2398 4.70971 18.8998 4.70971 18.4898V15.5698C4.70971 14.1198 5.84971 12.9798 7.29971 12.9798C8.74971 12.9798 9.88971 14.1198 9.88971 15.5698V18.3798C9.88971 20.7198 7.90971 22.6998 5.56971 22.6998Z" fill="#292D32"/>
</svg>
