<svg width="24" height="24" viewBox="0 0 24 24" fill="none" xmlns="http://www.w3.org/2000/svg">
<path d="M14.9697 22.75H8.96973C3.53973 22.75 1.21973 20.43 1.21973 15V9C1.21973 3.57 3.53973 1.25 8.96973 1.25H14.9697C20.3997 1.25 22.7197 3.57 22.7197 9V15C22.7197 20.43 20.4097 22.75 14.9697 22.75ZM8.96973 2.75C4.35973 2.75 2.71973 4.39 2.71973 9V15C2.71973 19.61 4.35973 21.25 8.96973 21.25H14.9697C19.5797 21.25 21.2197 19.61 21.2197 15V9C21.2197 4.39 19.5797 2.75 14.9697 2.75H8.96973Z" fill="#292D32"/>
<path d="M11.4493 18.0599C11.2093 18.0599 10.6293 17.9699 10.2893 17.0999L9.14926 14.2199C8.98926 13.8099 8.41926 13.4299 7.98926 13.4299L1.98926 13.4499C1.57926 13.4499 1.23926 13.1199 1.23926 12.6999C1.23926 12.2899 1.56926 11.9499 1.98926 11.9499L7.98926 11.9299H7.99926C9.04926 11.9299 10.1693 12.6899 10.5593 13.6699L11.4693 15.9699L13.5293 10.7499C13.8393 9.96989 14.3893 9.85989 14.6193 9.83989C14.8493 9.82989 15.4093 9.87989 15.7993 10.6199L16.8393 12.5899C17.0193 12.9299 17.5593 13.2599 17.9493 13.2599H22.0093C22.4193 13.2599 22.7593 13.5999 22.7593 14.0099C22.7593 14.4199 22.4193 14.7599 22.0093 14.7599H17.9493C16.9993 14.7599 15.9593 14.1299 15.5193 13.2899L14.7393 11.8099L12.6393 17.0999C12.2693 17.9599 11.6793 18.0599 11.4493 18.0599Z" fill="#292D32"/>
</svg>
