<svg width="24" height="24" viewBox="0 0 24 24" fill="none" xmlns="http://www.w3.org/2000/svg">
<path d="M20.6904 13.9184C20.6804 13.9184 20.6804 13.9084 20.6804 13.9084V13.8984C19.8004 12.9784 18.5704 12.3984 17.2004 12.3984C14.5504 12.3984 12.4004 14.5484 12.4004 17.1984C12.4004 18.4284 12.8704 19.5484 13.6304 20.3984C14.5104 21.3784 15.7804 21.9984 17.2004 21.9984C19.8504 21.9984 22.0004 19.8484 22.0004 17.1984C22.0004 15.9284 21.5004 14.7784 20.6904 13.9184ZM19.0104 19.0684C18.8704 19.2084 18.6704 19.2884 18.4804 19.2884C18.2904 19.2884 18.1004 19.2084 17.9504 19.0684L17.2104 18.3284L16.4504 19.0984C16.3004 19.2384 16.1104 19.3184 15.9204 19.3184C15.8204 19.3184 15.7304 19.2984 15.6404 19.2584C15.5504 19.2284 15.4604 19.1684 15.3904 19.0984C15.0904 18.7984 15.0904 18.3284 15.3904 18.0384L16.1504 17.2684L15.4204 16.5284C15.1204 16.2384 15.1204 15.7584 15.4204 15.4684C15.7104 15.1784 16.1804 15.1784 16.4804 15.4684L17.2104 16.2084L17.9204 15.4984C18.2204 15.2084 18.6904 15.2084 18.9804 15.4984C19.1504 15.6684 19.2204 15.8884 19.1904 16.1084C19.1804 16.2784 19.1104 16.4384 18.9804 16.5584L18.2704 17.2684L19.0104 18.0084C19.3104 18.2984 19.3104 18.7684 19.0104 19.0684Z" fill="#292D32"/>
<path d="M22 8.73062C22 9.92062 21.81 11.0206 21.48 12.0406C21.42 12.2506 21.17 12.3106 20.99 12.1806C19.9 11.3706 18.57 10.9406 17.2 10.9406C13.73 10.9406 10.9 13.7706 10.9 17.2406C10.9 18.3206 11.18 19.3806 11.71 20.3206C11.87 20.6006 11.68 20.9606 11.38 20.8506C8.97 20.0306 4.1 17.0406 2.52 12.0406C2.19 11.0206 2 9.92062 2 8.73062C2 5.64062 4.49 3.14063 7.56 3.14063C9.37 3.14063 10.99 4.02062 12 5.37062C13.01 4.02062 14.63 3.14063 16.44 3.14063C19.51 3.14062 22 5.64062 22 8.73062Z" fill="#292D32"/>
</svg>
