<svg width="24" height="24" viewBox="0 0 24 24" fill="none" xmlns="http://www.w3.org/2000/svg">
<path d="M17.5998 22.5599H6.39983C4.57983 22.5599 2.91983 21.1598 2.61983 19.3598L1.28984 11.3999C1.07984 10.1599 1.67985 8.56987 2.66985 7.77987L9.59984 2.22982C10.9398 1.14982 13.0498 1.15983 14.3998 2.23983L21.3298 7.77987C22.3098 8.56987 22.9098 10.1599 22.7098 11.3999L21.3798 19.3598C21.0798 21.1298 19.3898 22.5599 17.5998 22.5599ZM11.9898 2.93978C11.4598 2.93978 10.9298 3.09987 10.5398 3.40987L3.60982 8.9598C3.03982 9.4198 2.64982 10.4399 2.76982 11.1599L4.09984 19.1198C4.27984 20.1698 5.32983 21.0599 6.39983 21.0599H17.5998C18.6698 21.0599 19.7198 20.1698 19.8998 19.1098L21.2298 11.1499C21.3498 10.4299 20.9499 9.39979 20.3899 8.94979L13.4598 3.40987C13.0598 3.09987 12.5298 2.93978 11.9898 2.93978Z" fill="#292D32"/>
<path d="M14.1205 15.1302C13.9305 15.1302 13.7505 15.0602 13.6005 14.9202C12.6305 13.9902 11.3706 13.9902 10.3906 14.9202C10.0906 15.2102 9.62052 15.2002 9.33052 14.9002C9.04052 14.6002 9.05054 14.1302 9.35054 13.8402C10.9005 12.3502 13.0705 12.3502 14.6305 13.8402C14.9305 14.1302 14.9405 14.6002 14.6505 14.9002C14.5205 15.0502 14.3205 15.1302 14.1205 15.1302Z" fill="#292D32"/>
<path d="M16.2404 13.0098C16.0504 13.0098 15.8604 12.9398 15.7204 12.7998C15.2504 12.3398 14.7204 11.9697 14.1604 11.6997C12.7604 11.0297 11.2304 11.0297 9.84037 11.6997C9.28037 11.9697 8.76037 12.3398 8.28037 12.7998C7.99037 13.0898 7.51037 13.0898 7.22037 12.7898C6.93037 12.4898 6.94038 12.0198 7.23038 11.7298C7.82038 11.1498 8.48037 10.6898 9.19037 10.3498C11.0004 9.47977 13.0004 9.47977 14.8004 10.3498C15.5104 10.6898 16.1704 11.1498 16.7604 11.7298C17.0604 12.0198 17.0604 12.4898 16.7704 12.7898C16.6304 12.9298 16.4404 13.0098 16.2404 13.0098Z" fill="#292D32"/>
<path d="M12.0005 17.5003C11.7405 17.5003 11.4905 17.4002 11.2905 17.2102C10.9005 16.8202 10.9005 16.1903 11.2905 15.8003C11.6805 15.4103 12.3205 15.4103 12.7105 15.8003C13.1005 16.1903 13.1005 16.8202 12.7105 17.2102C12.5105 17.4002 12.2605 17.5003 12.0005 17.5003Z" fill="#292D32"/>
</svg>
