<svg width="24" height="24" viewBox="0 0 24 24" fill="none" xmlns="http://www.w3.org/2000/svg">
<path d="M15.2605 22.2498H8.74047C3.83047 22.2498 1.73047 20.1498 1.73047 15.2398V15.1098C1.73047 10.6698 3.48047 8.52978 7.40047 8.15978C7.80047 8.12978 8.18047 8.42978 8.22047 8.83978C8.26047 9.24978 7.96047 9.61978 7.54047 9.65978C4.40047 9.94978 3.23047 11.4298 3.23047 15.1198V15.2498C3.23047 19.3198 4.67047 20.7598 8.74047 20.7598H15.2605C19.3305 20.7598 20.7705 19.3198 20.7705 15.2498V15.1198C20.7705 11.4098 19.5805 9.92978 16.3805 9.65978C15.9705 9.61978 15.6605 9.25978 15.7005 8.84978C15.7405 8.43978 16.0905 8.12978 16.5105 8.16978C20.4905 8.50978 22.2705 10.6598 22.2705 15.1298V15.2598C22.2705 20.1498 20.1705 22.2498 15.2605 22.2498Z" fill="#292D32"/>
<path d="M12 15.63C11.59 15.63 11.25 15.29 11.25 14.88V2C11.25 1.59 11.59 1.25 12 1.25C12.41 1.25 12.75 1.59 12.75 2V14.88C12.75 15.3 12.41 15.63 12 15.63Z" fill="#292D32"/>
<path d="M11.9998 16.7498C11.8098 16.7498 11.6198 16.6798 11.4698 16.5298L8.11984 13.1798C7.82984 12.8898 7.82984 12.4098 8.11984 12.1198C8.40984 11.8298 8.88984 11.8298 9.17984 12.1198L11.9998 14.9398L14.8198 12.1198C15.1098 11.8298 15.5898 11.8298 15.8798 12.1198C16.1698 12.4098 16.1698 12.8898 15.8798 13.1798L12.5298 16.5298C12.3798 16.6798 12.1898 16.7498 11.9998 16.7498Z" fill="#292D32"/>
</svg>
