<svg width="24" height="24" viewBox="0 0 24 24" fill="none" xmlns="http://www.w3.org/2000/svg">
<path d="M11.8798 14.9901C11.6898 14.9901 11.4998 14.9201 11.3498 14.7701L8.78977 12.2101C8.49977 11.9201 8.49977 11.4401 8.78977 11.1501C9.07977 10.8601 9.55977 10.8601 9.84977 11.1501L11.8798 13.1801L13.9098 11.1501C14.1998 10.8601 14.6798 10.8601 14.9698 11.1501C15.2598 11.4401 15.2598 11.9201 14.9698 12.2101L12.4098 14.7701C12.2598 14.9201 12.0698 14.9901 11.8798 14.9901Z" fill="#292D32"/>
<path d="M11.8809 14.92C11.4709 14.92 11.1309 14.58 11.1309 14.17V4C11.1309 3.59 11.4709 3.25 11.8809 3.25C12.2909 3.25 12.6309 3.59 12.6309 4V14.17C12.6309 14.58 12.2909 14.92 11.8809 14.92Z" fill="#292D32"/>
<path d="M12 20.9302C6.85 20.9302 3.25 17.3302 3.25 12.1802C3.25 11.7702 3.59 11.4302 4 11.4302C4.41 11.4302 4.75 11.7702 4.75 12.1802C4.75 16.4502 7.73 19.4302 12 19.4302C16.27 19.4302 19.25 16.4502 19.25 12.1802C19.25 11.7702 19.59 11.4302 20 11.4302C20.41 11.4302 20.75 11.7702 20.75 12.1802C20.75 17.3302 17.15 20.9302 12 20.9302Z" fill="#292D32"/>
</svg>
