<svg width="24" height="24" viewBox="0 0 24 24" fill="none" xmlns="http://www.w3.org/2000/svg">
<path opacity="0.4" d="M16.19 2H7.81C4.17 2 2 4.17 2 7.81V16.18C2 19.83 4.17 22 7.81 22H16.18C19.82 22 21.99 19.83 21.99 16.19V7.81C22 4.17 19.83 2 16.19 2Z" fill="#292D32"/>
<path d="M15.8897 8.10982C14.4097 6.63982 12.0097 6.63982 10.5397 8.10982C9.50971 9.12982 9.19971 10.6098 9.59971 11.9098L7.24971 14.2598C7.08971 14.4298 6.96971 14.7598 7.00971 14.9998L7.15971 16.0898C7.20971 16.4498 7.54971 16.7898 7.90971 16.8398L8.99971 16.9998C9.23971 17.0298 9.56971 16.9298 9.73971 16.7498L10.1497 16.3398C10.2497 16.2498 10.2497 16.0898 10.1497 15.9898L9.17971 15.0198C9.03971 14.8798 9.03971 14.6398 9.17971 14.4898C9.31971 14.3498 9.55971 14.3498 9.70971 14.4898L10.6797 15.4598C10.7697 15.5498 10.9297 15.5498 11.0297 15.4598L12.0897 14.4098C13.3797 14.8098 14.8597 14.4998 15.8897 13.4798C17.3697 11.9898 17.3697 9.58982 15.8897 8.10982ZM13.2497 11.9998C12.5597 11.9998 11.9997 11.4398 11.9997 10.7498C11.9997 10.0598 12.5597 9.49982 13.2497 9.49982C13.9397 9.49982 14.4997 10.0598 14.4997 10.7498C14.4997 11.4398 13.9397 11.9998 13.2497 11.9998Z" fill="#292D32"/>
</svg>
