<svg width="24" height="24" viewBox="0 0 24 24" fill="none" xmlns="http://www.w3.org/2000/svg">
<path d="M15 22.75H9C3.57 22.75 1.25 20.43 1.25 15V9C1.25 3.57 3.57 1.25 9 1.25H15C20.43 1.25 22.75 3.57 22.75 9V15C22.75 20.43 20.43 22.75 15 22.75ZM9 2.75C4.39 2.75 2.75 4.39 2.75 9V15C2.75 19.61 4.39 21.25 9 21.25H15C19.61 21.25 21.25 19.61 21.25 15V9C21.25 4.39 19.61 2.75 15 2.75H9Z" fill="#292D32"/>
<path d="M8.80974 18.2498C8.73974 18.2498 8.65974 18.2498 8.58974 18.2298L7.39974 18.0698C6.67974 17.9698 6.04974 17.3498 5.93974 16.6098L5.76974 15.3998C5.69974 14.9198 5.89974 14.3098 6.24974 13.9498L8.52974 11.6698C8.18974 10.0498 8.67974 8.36982 9.86974 7.18982C11.7797 5.27982 14.8997 5.27982 16.8097 7.18982C17.7397 8.11982 18.2497 9.34982 18.2497 10.6598C18.2497 11.9698 17.7397 13.2098 16.8097 14.1298C15.6197 15.3098 13.9397 15.7998 12.3297 15.4598L10.0397 17.7398C9.74974 18.0498 9.25974 18.2498 8.80974 18.2498ZM13.3397 7.24982C12.4697 7.24982 11.5897 7.57982 10.9297 8.24982C10.0297 9.14982 9.70974 10.4598 10.0797 11.6798C10.1597 11.9498 10.0897 12.2298 9.88974 12.4298L7.30974 15.0098C7.28974 15.0398 7.24974 15.1498 7.24974 15.1898L7.41974 16.3898C7.42974 16.4498 7.53974 16.5598 7.59974 16.5698L8.79974 16.7398C8.84974 16.7298 8.94974 16.7098 8.97974 16.6798L11.5697 14.0898C11.7697 13.8898 12.0597 13.8298 12.3197 13.9098C13.5297 14.2898 14.8397 13.9698 15.7397 13.0698C16.3797 12.4298 16.7397 11.5698 16.7397 10.6598C16.7397 9.74982 16.3897 8.88982 15.7397 8.24982C15.0897 7.58982 14.2097 7.24982 13.3397 7.24982Z" fill="#292D32"/>
<path d="M10.4493 17.0299C10.2593 17.0299 10.0693 16.9599 9.9193 16.8099L9.0593 15.9499C8.7693 15.6599 8.7693 15.1799 9.0593 14.8899C9.3493 14.5999 9.8293 14.5999 10.1193 14.8899L10.9793 15.7499C11.2693 16.0399 11.2693 16.5199 10.9793 16.8099C10.8393 16.9599 10.6493 17.0299 10.4493 17.0299Z" fill="#292D32"/>
<path d="M13.3791 11.8001C13.2391 11.8001 13.1091 11.7801 12.9891 11.7301C12.8691 11.6801 12.7591 11.6001 12.6691 11.5101C12.4791 11.3201 12.3691 11.0701 12.3691 10.8001C12.3691 10.5401 12.4791 10.2801 12.6691 10.1001C12.8991 9.86012 13.2491 9.75012 13.5691 9.82012C13.6291 9.84012 13.6991 9.85012 13.7591 9.88012C13.8191 9.91012 13.8791 9.94012 13.9291 9.97012C13.9791 10.0101 14.0391 10.0501 14.0791 10.1001C14.2691 10.2801 14.3791 10.5401 14.3791 10.8001C14.3791 10.9401 14.3491 11.0601 14.2991 11.1901C14.2491 11.3101 14.1791 11.4201 14.0791 11.5101C13.8891 11.7001 13.6391 11.8001 13.3791 11.8001Z" fill="#292D32"/>
</svg>
