<svg width="24" height="24" viewBox="0 0 24 24" fill="none" xmlns="http://www.w3.org/2000/svg">
<path opacity="0.4" d="M19.7906 4.21982C16.8306 1.26982 12.0306 1.26982 9.09063 4.21982C7.02063 6.26982 6.40063 9.21982 7.20063 11.8198L2.50063 16.5198C2.17063 16.8598 1.94063 17.5298 2.01063 18.0098L2.31063 20.1898C2.42063 20.9098 3.09063 21.5898 3.81063 21.6898L5.99063 21.9898C6.47063 22.0598 7.14063 21.8398 7.48063 21.4898L8.30063 20.6698C8.50063 20.4798 8.50063 20.1598 8.30063 19.9598L6.36063 18.0198C6.07063 17.7298 6.07063 17.2498 6.36063 16.9598C6.65063 16.6698 7.13063 16.6698 7.42063 16.9598L9.37063 18.9098C9.56063 19.0998 9.88063 19.0998 10.0706 18.9098L12.1906 16.7998C14.7806 17.6098 17.7306 16.9798 19.7906 14.9298C22.7406 11.9798 22.7406 7.16982 19.7906 4.21982ZM14.5006 11.9998C13.1206 11.9998 12.0006 10.8798 12.0006 9.49982C12.0006 8.11982 13.1206 6.99982 14.5006 6.99982C15.8806 6.99982 17.0006 8.11982 17.0006 9.49982C17.0006 10.8798 15.8806 11.9998 14.5006 11.9998Z" fill="#292D32"/>
<path d="M14.5 12C15.8807 12 17 10.8807 17 9.5C17 8.11929 15.8807 7 14.5 7C13.1193 7 12 8.11929 12 9.5C12 10.8807 13.1193 12 14.5 12Z" fill="#292D32"/>
</svg>
