<svg width="24" height="24" viewBox="0 0 24 24" fill="none" xmlns="http://www.w3.org/2000/svg">
<path d="M11.9707 22.75C6.0507 22.75 1.2207 17.93 1.2207 12C1.2207 6.07 6.0507 1.25 11.9707 1.25C17.8907 1.25 22.7207 6.07 22.7207 12C22.7207 17.93 17.9007 22.75 11.9707 22.75ZM11.9707 2.75C6.8707 2.75 2.7207 6.9 2.7207 12C2.7207 17.1 6.8707 21.25 11.9707 21.25C17.0707 21.25 21.2207 17.1 21.2207 12C21.2207 6.9 17.0707 2.75 11.9707 2.75Z" fill="#292D32"/>
<path d="M12 17.25C9.1 17.25 6.75 14.89 6.75 12C6.75 9.11 9.1 6.75 12 6.75C14.9 6.75 17.25 9.11 17.25 12C17.25 14.89 14.9 17.25 12 17.25ZM12 8.25C9.93 8.25 8.25 9.93 8.25 12C8.25 14.07 9.93 15.75 12 15.75C14.07 15.75 15.75 14.07 15.75 12C15.75 9.93 14.07 8.25 12 8.25Z" fill="#292D32"/>
<path d="M8.43984 9.21012C8.24984 9.21012 8.04984 9.14012 7.90984 9.00012L4.36984 5.46012C4.07984 5.17012 4.07984 4.69012 4.36984 4.40012C4.65984 4.11012 5.13984 4.11012 5.42984 4.40012L8.96984 7.94012C9.25984 8.23012 9.25984 8.70012 8.96984 9.00012C8.81984 9.14012 8.62984 9.21012 8.43984 9.21012Z" fill="#292D32"/>
<path d="M4.89984 19.8197C4.70984 19.8197 4.51984 19.7497 4.36984 19.5997C4.07984 19.3097 4.07984 18.8297 4.36984 18.5397L7.90984 14.9997C8.19984 14.7097 8.67984 14.7097 8.96984 14.9997C9.25984 15.2897 9.25984 15.7697 8.96984 16.0597L5.42984 19.5997C5.28984 19.7497 5.08984 19.8197 4.89984 19.8197Z" fill="#292D32"/>
<path d="M19.0414 19.8197C18.8514 19.8197 18.6614 19.7497 18.5114 19.5997L14.9714 16.0597C14.6814 15.7697 14.6814 15.2897 14.9714 14.9997C15.2614 14.7097 15.7414 14.7097 16.0314 14.9997L19.5714 18.5397C19.8614 18.8297 19.8614 19.3097 19.5714 19.5997C19.4314 19.7497 19.2414 19.8197 19.0414 19.8197Z" fill="#292D32"/>
<path d="M15.5112 9.21035C15.3212 9.21035 15.1312 9.14035 14.9812 8.99035C14.6912 8.70035 14.6912 8.22035 14.9812 7.93035L18.5212 4.39035C18.8112 4.10035 19.2912 4.10035 19.5812 4.39035C19.8712 4.68035 19.8712 5.16035 19.5812 5.45035L16.0412 9.00035C15.8912 9.14035 15.7012 9.21035 15.5112 9.21035Z" fill="#292D32"/>
</svg>
