<svg width="24" height="24" viewBox="0 0 24 24" fill="none" xmlns="http://www.w3.org/2000/svg">
<path opacity="0.4" d="M18 18.8597H17.24C16.44 18.8597 15.68 19.1698 15.12 19.7298L13.41 21.4198C12.63 22.1898 11.36 22.1898 10.58 21.4198L8.87 19.7298C8.31 19.1698 7.54 18.8597 6.75 18.8597H6C4.34 18.8597 3 17.5298 3 15.8898V4.97977C3 3.33977 4.34 2.00977 6 2.00977H18C19.66 2.00977 21 3.33977 21 4.97977V15.8898C21 17.5198 19.66 18.8597 18 18.8597Z" fill="#292D32"/>
<path d="M12.28 14.96C12.13 15.01 11.88 15.01 11.72 14.96C10.42 14.51 7.5 12.66 7.5 9.51001C7.5 8.12001 8.62 7 10 7C10.82 7 11.54 7.39 12 8C12.46 7.39 13.18 7 14 7C15.38 7 16.5 8.12001 16.5 9.51001C16.49 12.66 13.58 14.51 12.28 14.96Z" fill="#292D32"/>
</svg>
