<svg width="24" height="24" viewBox="0 0 24 24" fill="none" xmlns="http://www.w3.org/2000/svg">
<path opacity="0.4" d="M10.7604 2C10.2804 2 9.90039 2.38 9.90039 2.86V21.15C9.90039 21.62 10.2804 22.01 10.7604 22.01C16.6504 22.01 20.7604 17.9 20.7604 12.01C20.7604 6.12 16.6404 2 10.7604 2Z" fill="#292D32"/>
<path d="M15.9002 11.5402L13.0602 8.69016C12.7702 8.40016 12.2902 8.40016 12.0002 8.69016C11.7102 8.98016 11.7102 9.46016 12.0002 9.75016L13.5602 11.3102H3.99023C3.58023 11.3102 3.24023 11.6502 3.24023 12.0602C3.24023 12.4702 3.58023 12.8102 3.99023 12.8102H13.5602L12.0002 14.3802C11.7102 14.6702 11.7102 15.1502 12.0002 15.4402C12.1502 15.5902 12.3402 15.6602 12.5302 15.6602C12.7202 15.6602 12.9102 15.5902 13.0602 15.4402L15.9002 12.5902C16.2002 12.3002 16.2002 11.8302 15.9002 11.5402Z" fill="#292D32"/>
</svg>
