<svg width="24" height="24" viewBox="0 0 24 24" fill="none" xmlns="http://www.w3.org/2000/svg">
<path opacity="0.4" d="M13.2402 2C13.7102 2 14.1002 2.38 14.1002 2.86V21.15C14.1002 21.62 13.7202 22.01 13.2402 22.01C7.35023 22.01 3.24023 17.9 3.24023 12.01C3.24023 6.12 7.36023 2 13.2402 2Z" fill="#292D32"/>
<path d="M20.5409 11.5402L17.7009 8.69016C17.4109 8.40016 16.9309 8.40016 16.6409 8.69016C16.3509 8.98016 16.3509 9.46016 16.6409 9.75016L18.2009 11.3102H8.63086C8.22086 11.3102 7.88086 11.6502 7.88086 12.0602C7.88086 12.4702 8.22086 12.8102 8.63086 12.8102H18.2009L16.6409 14.3702C16.3509 14.6602 16.3509 15.1402 16.6409 15.4302C16.7909 15.5802 16.9809 15.6502 17.1709 15.6502C17.3609 15.6502 17.5509 15.5802 17.7009 15.4302L20.5409 12.5802C20.8309 12.3002 20.8309 11.8302 20.5409 11.5402Z" fill="#292D32"/>
</svg>
