<svg width="24" height="24" viewBox="0 0 24 24" fill="none" xmlns="http://www.w3.org/2000/svg">
<path d="M22 8.99953V14.9995C22 17.4995 21.5 19.2495 20.38 20.3795L14 13.9995L21.73 6.26953C21.91 7.05953 22 7.95953 22 8.99953Z" stroke="#292D32" stroke-width="1.5" stroke-linecap="round" stroke-linejoin="round"/>
<path d="M2 9C2 4 4 2 9 2H15C18.96 2 21.04 3.26 21.73 6.27L6.26999 21.73C3.25999 21.04 2 18.96 2 15V12.94" stroke="#292D32" stroke-width="1.5" stroke-linecap="round" stroke-linejoin="round"/>
<path d="M20.3795 20.38C19.2495 21.5 17.4995 22 14.9995 22H8.99954C7.95954 22 7.05953 21.91 6.26953 21.73L13.9995 14L20.3795 20.38Z" stroke="#292D32" stroke-width="1.5" stroke-linecap="round" stroke-linejoin="round"/>
<path d="M6.23929 7.97973C6.91929 5.04973 11.3193 5.04973 11.9993 7.97973C12.3893 9.69973 11.3093 11.1597 10.3593 12.0597C9.66928 12.7197 8.5793 12.7197 7.8793 12.0597C6.9293 11.1597 5.83929 9.69973 6.23929 7.97973Z" stroke="#292D32" stroke-width="1.5"/>
<path d="M9.09412 8.7002H9.1031" stroke="#292D32" stroke-width="2" stroke-linecap="round" stroke-linejoin="round"/>
</svg>
