<svg width="24" height="24" viewBox="0 0 24 24" fill="none" xmlns="http://www.w3.org/2000/svg">
<path d="M12 22.7798C11.31 22.7798 10.66 22.4298 10.2 21.8198L8.70001 19.8198C8.67001 19.7798 8.55 19.7297 8.5 19.7197H8C3.83 19.7197 1.25 18.5897 1.25 12.9697V7.96973C1.25 3.54973 3.58 1.21973 8 1.21973H16C20.42 1.21973 22.75 3.54973 22.75 7.96973V12.9697C22.75 17.3897 20.42 19.7197 16 19.7197H15.5C15.42 19.7197 15.35 19.7598 15.3 19.8198L13.8 21.8198C13.34 22.4298 12.69 22.7798 12 22.7798ZM8 2.71973C4.42 2.71973 2.75 4.38973 2.75 7.96973V12.9697C2.75 17.4897 4.3 18.2197 8 18.2197H8.5C9.01 18.2197 9.58999 18.5097 9.89999 18.9197L11.4 20.9197C11.75 21.3797 12.25 21.3797 12.6 20.9197L14.1 18.9197C14.43 18.4797 14.95 18.2197 15.5 18.2197H16C19.58 18.2197 21.25 16.5497 21.25 12.9697V7.96973C21.25 4.38973 19.58 2.71973 16 2.71973H8Z" fill="#292D32"/>
<path d="M7.99945 13.4497C7.80945 13.4497 7.61945 13.3796 7.46945 13.2296L5.46945 11.2296C5.17945 10.9396 5.17945 10.4596 5.46945 10.1696L7.46945 8.16965C7.75945 7.87965 8.23945 7.87965 8.52945 8.16965C8.81945 8.45965 8.81945 8.93965 8.52945 9.22965L7.05945 10.6997L8.52945 12.1696C8.81945 12.4596 8.81945 12.9396 8.52945 13.2296C8.37945 13.3796 8.18945 13.4497 7.99945 13.4497Z" fill="#292D32"/>
<path d="M15.9995 13.4497C15.8095 13.4497 15.6195 13.3796 15.4695 13.2296C15.1795 12.9396 15.1795 12.4596 15.4695 12.1696L16.9395 10.6997L15.4695 9.22965C15.1795 8.93965 15.1795 8.45965 15.4695 8.16965C15.7595 7.87965 16.2395 7.87965 16.5295 8.16965L18.5295 10.1696C18.8195 10.4596 18.8195 10.9396 18.5295 11.2296L16.5295 13.2296C16.3795 13.3796 16.1895 13.4497 15.9995 13.4497Z" fill="#292D32"/>
<path d="M11.0004 13.7798C10.9004 13.7798 10.8004 13.7597 10.7004 13.7197C10.3204 13.5597 10.1404 13.1197 10.3104 12.7297L12.3104 8.05975C12.4704 7.67975 12.9103 7.49973 13.3003 7.66973C13.6803 7.82973 13.8604 8.26972 13.6904 8.65972L11.6904 13.3298C11.5704 13.6098 11.2904 13.7798 11.0004 13.7798Z" fill="#292D32"/>
</svg>
