<svg width="24" height="24" viewBox="0 0 24 24" fill="none" xmlns="http://www.w3.org/2000/svg">
<path d="M17 21.25H7C3.35 21.25 1.25 19.15 1.25 15.5V8.5C1.25 4.85 3.35 2.75 7 2.75H17C20.65 2.75 22.75 4.85 22.75 8.5V15.5C22.75 19.15 20.65 21.25 17 21.25ZM7 4.25C4.14 4.25 2.75 5.64 2.75 8.5V15.5C2.75 18.36 4.14 19.75 7 19.75H17C19.86 19.75 21.25 18.36 21.25 15.5V8.5C21.25 5.64 19.86 4.25 17 4.25H7Z" fill="#292D32"/>
<path d="M12 15.75C9.93 15.75 8.25 14.07 8.25 12C8.25 9.93 9.93 8.25 12 8.25C14.07 8.25 15.75 9.93 15.75 12C15.75 14.07 14.07 15.75 12 15.75ZM12 9.75C10.76 9.75 9.75 10.76 9.75 12C9.75 13.24 10.76 14.25 12 14.25C13.24 14.25 14.25 13.24 14.25 12C14.25 10.76 13.24 9.75 12 9.75Z" fill="#292D32"/>
<path d="M3 9.75H2C1.59 9.75 1.25 9.41 1.25 9C1.25 8.59 1.59 8.25 2 8.25H3C5.58 8.25 6.25 7.58 6.25 5V4C6.25 3.59 6.59 3.25 7 3.25C7.41 3.25 7.75 3.59 7.75 4V5C7.75 8.42 6.42 9.75 3 9.75Z" fill="#292D32"/>
<path d="M22 9.75H21C17.58 9.75 16.25 8.42 16.25 5V4C16.25 3.59 16.59 3.25 17 3.25C17.41 3.25 17.75 3.59 17.75 4V5C17.75 7.58 18.42 8.25 21 8.25H22C22.41 8.25 22.75 8.59 22.75 9C22.75 9.41 22.41 9.75 22 9.75Z" fill="#292D32"/>
<path d="M7 20.75C6.59 20.75 6.25 20.41 6.25 20V19C6.25 16.42 5.58 15.75 3 15.75H2C1.59 15.75 1.25 15.41 1.25 15C1.25 14.59 1.59 14.25 2 14.25H3C6.42 14.25 7.75 15.58 7.75 19V20C7.75 20.41 7.41 20.75 7 20.75Z" fill="#292D32"/>
<path d="M17 20.75C16.59 20.75 16.25 20.41 16.25 20V19C16.25 15.58 17.58 14.25 21 14.25H22C22.41 14.25 22.75 14.59 22.75 15C22.75 15.41 22.41 15.75 22 15.75H21C18.42 15.75 17.75 16.42 17.75 19V20C17.75 20.41 17.41 20.75 17 20.75Z" fill="#292D32"/>
</svg>
