<svg width="24" height="24" viewBox="0 0 24 24" fill="none" xmlns="http://www.w3.org/2000/svg">
<path d="M11.311 18.0002C11.301 18.0002 11.301 18.0002 11.291 18.0002C10.251 17.9902 9.37096 17.3402 9.06096 16.3502L7.11097 10.0702C6.85097 9.22022 7.07096 8.31021 7.70096 7.69021C8.32096 7.07021 9.22096 6.8502 10.061 7.1102L16.351 9.06021C17.351 9.37021 18.001 10.2502 18.011 11.2902C18.021 12.3302 17.391 13.2102 16.401 13.5402L14.681 14.1202C14.421 14.2102 14.231 14.4002 14.141 14.6502L13.551 16.3802C13.221 17.3702 12.341 18.0002 11.311 18.0002ZM9.34096 8.50021C9.04096 8.50021 8.84096 8.66021 8.75096 8.75021C8.52096 8.98021 8.44096 9.31021 8.54096 9.62021L10.491 15.9002C10.661 16.4502 11.151 16.5002 11.301 16.5002C11.421 16.4902 11.931 16.4602 12.111 15.9102L12.701 14.1802C12.931 13.4902 13.491 12.9302 14.181 12.7002L15.901 12.1202C15.901 12.1202 15.901 12.1202 15.911 12.1202C16.461 11.9402 16.501 11.4502 16.501 11.3102C16.501 11.1602 16.451 10.6702 15.901 10.5002L9.61097 8.5502C9.51097 8.5102 9.42096 8.50021 9.34096 8.50021Z" fill="#292D32"/>
<path d="M12 22.75C6.07 22.75 1.25 17.93 1.25 12C1.25 6.07 6.07 1.25 12 1.25C17.93 1.25 22.75 6.07 22.75 12C22.75 17.93 17.93 22.75 12 22.75ZM12 2.75C6.9 2.75 2.75 6.9 2.75 12C2.75 17.1 6.9 21.25 12 21.25C17.1 21.25 21.25 17.1 21.25 12C21.25 6.9 17.1 2.75 12 2.75Z" fill="#292D32"/>
</svg>
