<svg width="24" height="24" viewBox="0 0 24 24" fill="none" xmlns="http://www.w3.org/2000/svg">
<path d="M22 13V17C22 20.5 20 22 17 22H7C4 22 2 20.5 2 17V13C2 10.35 3.15 8.85003 5 8.28003C5.6 8.09003 6.27 8 7 8H17C17.73 8 18.4 8.09003 19 8.28003C20.85 8.85003 22 10.35 22 13Z" stroke="#292D32" stroke-width="1.5" stroke-miterlimit="10" stroke-linecap="round" stroke-linejoin="round"/>
<path d="M19 7V8.28003C18.4 8.09003 17.73 8 17 8H7C6.27 8 5.6 8.09003 5 8.28003V7C5 5.9 5.9 5 7 5H17C18.1 5 19 5.9 19 7Z" stroke="#292D32" stroke-width="1.5" stroke-miterlimit="10" stroke-linecap="round" stroke-linejoin="round"/>
<path d="M16 3.51001V5H8V3.51001C8 2.68001 8.68001 2 9.51001 2H14.49C15.32 2 16 2.68001 16 3.51001Z" stroke="#292D32" stroke-width="1.5" stroke-miterlimit="10" stroke-linecap="round" stroke-linejoin="round"/>
<g opacity="0.4">
<path d="M9.07001 19.4501C9.79902 19.4501 10.39 18.8591 10.39 18.1301C10.39 17.4011 9.79902 16.8101 9.07001 16.8101C8.34099 16.8101 7.75 17.4011 7.75 18.1301C7.75 18.8591 8.34099 19.4501 9.07001 19.4501Z" stroke="#292D32" stroke-width="1.5" stroke-linecap="round" stroke-linejoin="round"/>
<path d="M15.2504 17.2501V12.0801C15.2504 10.9801 14.5604 10.8201 13.8604 11.0201L11.2104 11.7401C10.7304 11.8701 10.4004 12.2501 10.4004 12.8001V13.7201V14.3401V18.1301" stroke="#292D32" stroke-width="1.5" stroke-linecap="round" stroke-linejoin="round"/>
<path d="M13.9294 18.5702C14.6584 18.5702 15.2494 17.9792 15.2494 17.2502C15.2494 16.5212 14.6584 15.9302 13.9294 15.9302C13.2004 15.9302 12.6094 16.5212 12.6094 17.2502C12.6094 17.9792 13.2004 18.5702 13.9294 18.5702Z" stroke="#292D32" stroke-width="1.5" stroke-linecap="round" stroke-linejoin="round"/>
<path d="M10.4004 14.3502L15.2504 13.0303" stroke="#292D32" stroke-width="1.5" stroke-linecap="round" stroke-linejoin="round"/>
</g>
</svg>
