<svg width="24" height="24" viewBox="0 0 24 24" fill="none" xmlns="http://www.w3.org/2000/svg">
<path d="M6.28016 22.0007C8.00328 22.0007 9.40016 20.6039 9.40016 18.8807C9.40016 17.1576 8.00328 15.7607 6.28016 15.7607C4.55703 15.7607 3.16016 17.1576 3.16016 18.8807C3.16016 20.6039 4.55703 22.0007 6.28016 22.0007Z" stroke="#292D32" stroke-width="1.5" stroke-linecap="round" stroke-linejoin="round"/>
<path d="M20.8404 7.96034V4.60034C20.8404 2.00034 19.2104 1.64034 17.5604 2.09034L11.3204 3.79034C10.1804 4.10034 9.40039 5.00034 9.40039 6.30034V8.47034V9.93034V18.8703" stroke="#292D32" stroke-width="1.5" stroke-linecap="round" stroke-linejoin="round"/>
<path d="M20.8398 16.8V12" stroke="#292D32" stroke-width="1.5" stroke-linecap="round" stroke-linejoin="round"/>
<path d="M17.7196 19.9207C19.4427 19.9207 20.8396 18.5238 20.8396 16.8007C20.8396 15.0775 19.4427 13.6807 17.7196 13.6807C15.9965 13.6807 14.5996 15.0775 14.5996 16.8007C14.5996 18.5238 15.9965 19.9207 17.7196 19.9207Z" stroke="#292D32" stroke-width="1.5" stroke-linecap="round" stroke-linejoin="round"/>
<path d="M9.40039 9.52039L20.8404 6.40039" stroke="#292D32" stroke-width="1.5" stroke-linecap="round" stroke-linejoin="round"/>
</svg>
