<svg width="24" height="24" viewBox="0 0 24 24" fill="none" xmlns="http://www.w3.org/2000/svg">
<path d="M10.2894 10.3398V18.4098C10.2894 20.3898 8.66937 21.9998 6.69937 21.9998C4.71937 21.9998 3.10938 20.3898 3.10938 18.4098C3.10938 16.4398 4.71937 14.8298 6.69937 14.8298C7.52938 14.8298 8.27938 15.1198 8.88938 15.5898V10.7398L10.2894 10.3398Z" fill="#292D32"/>
<path d="M20.889 7.32031V16.4803C20.889 18.4603 19.279 20.0703 17.299 20.0703C15.329 20.0703 13.709 18.4603 13.709 16.4803C13.709 14.5103 15.329 12.9003 17.299 12.9003C18.139 12.9003 18.889 13.1903 19.499 13.6703V7.72031L20.889 7.32031Z" fill="#292D32"/>
<path opacity="0.4" d="M20.8887 5.18007V7.32007L8.88867 10.7401V6.75007C8.88867 5.28007 9.77867 4.14007 11.1887 3.76007L16.9687 2.18007C18.1387 1.86007 19.1287 1.97007 19.8287 2.51007C20.5387 3.04007 20.8887 3.94007 20.8887 5.18007Z" fill="#292D32"/>
</svg>
