<svg width="24" height="24" viewBox="0 0 24 24" fill="none" xmlns="http://www.w3.org/2000/svg">
<path d="M6.30975 20.0904C5.73975 20.0904 5.17976 19.9404 4.65976 19.6404C3.61976 19.0404 3.00977 17.9804 3.00977 16.7804V7.21038C3.00977 6.02038 3.62976 4.95039 4.65976 4.35039C5.69976 3.75039 6.92975 3.75039 7.95975 4.35039L16.2498 9.13039C17.2798 9.73039 17.8997 10.8004 17.8997 11.9904C17.8997 13.1804 17.2798 14.2504 16.2498 14.8504L7.95975 19.6304C7.43975 19.9404 6.87975 20.0904 6.30975 20.0904ZM6.30975 5.41039C5.99975 5.41039 5.68976 5.49038 5.40976 5.65038C4.84976 5.98038 4.50977 6.56038 4.50977 7.21038V16.7804C4.50977 17.4304 4.84976 18.0104 5.40976 18.3404C5.96976 18.6604 6.64975 18.6704 7.20975 18.3404L15.4998 13.5604C16.0598 13.2304 16.3997 12.6504 16.3997 12.0004C16.3997 11.3504 16.0598 10.7704 15.4998 10.4404L7.20975 5.66039C6.92975 5.50039 6.61975 5.41039 6.30975 5.41039Z" fill="#292D32"/>
<path d="M20.2402 18.9303C19.8302 18.9303 19.4902 18.5903 19.4902 18.1803V5.82031C19.4902 5.41031 19.8302 5.07031 20.2402 5.07031C20.6502 5.07031 20.9902 5.41031 20.9902 5.82031V18.1803C20.9902 18.5903 20.6602 18.9303 20.2402 18.9303Z" fill="#292D32"/>
</svg>
