<svg width="24" height="24" viewBox="0 0 24 24" fill="none" xmlns="http://www.w3.org/2000/svg">
<path d="M13.5503 20.158C13.2903 20.268 13.0103 20.368 12.7103 20.468L11.1303 20.988C7.16034 22.268 5.07034 21.198 3.78034 17.228L2.50034 13.278C1.22034 9.30797 2.28034 7.20797 6.25034 5.92797L7.79034 5.41797C7.60034 5.89797 7.44034 6.44797 7.29034 7.06797L6.31034 11.258C5.21034 15.968 6.82034 18.568 11.5303 19.688L13.2103 20.088C13.3203 20.118 13.4403 20.138 13.5503 20.158Z" fill="#292D32"/>
<path d="M17.1702 3.20854L15.5002 2.81854C12.1602 2.02854 10.1702 2.67854 9.00018 5.09854C8.70018 5.70854 8.46018 6.44854 8.26018 7.29854L7.28018 11.4885C6.30018 15.6685 7.59018 17.7285 11.7602 18.7185L13.4402 19.1185C14.0202 19.2585 14.5602 19.3485 15.0602 19.3885C18.1802 19.6885 19.8402 18.2285 20.6802 14.6185L21.6602 10.4385C22.6402 6.25854 21.3602 4.18854 17.1702 3.20854Z" fill="#292D32"/>
</svg>
