<svg width="24" height="24" viewBox="0 0 24 24" fill="none" xmlns="http://www.w3.org/2000/svg">
<path d="M2 13.0098V14.9998C2 19.9998 4 21.9998 9 21.9998H11" stroke="#292D32" stroke-width="1.5" stroke-linecap="round" stroke-linejoin="round"/>
<path d="M22 10V9C22 4 20 2 15 2H9C4 2 2 4 2 9" stroke="#292D32" stroke-width="1.5" stroke-linecap="round" stroke-linejoin="round"/>
<path d="M15.5098 22C16.6143 22 17.5098 21.1046 17.5098 20C17.5098 18.8954 16.6143 18 15.5098 18C14.4052 18 13.5098 18.8954 13.5098 20C13.5098 21.1046 14.4052 22 15.5098 22Z" stroke="#292D32" stroke-width="1.5" stroke-linecap="round" stroke-linejoin="round"/>
<path d="M17.5098 20.0007V13.0107" stroke="#292D32" stroke-width="1.5" stroke-linecap="round" stroke-linejoin="round"/>
<path d="M18.8198 12.0704L21.0298 12.8104C21.5598 12.9904 21.9998 13.5903 21.9998 14.1603V14.7504C21.9998 15.5104 21.4098 15.9404 20.6898 15.7004L18.4797 14.9604C17.9497 14.7804 17.5098 14.1804 17.5098 13.6104V13.0204C17.5098 12.2504 18.0998 11.8304 18.8198 12.0704Z" stroke="#292D32" stroke-width="1.5" stroke-linecap="round" stroke-linejoin="round"/>
</svg>
