<svg width="24" height="24" viewBox="0 0 24 24" fill="none" xmlns="http://www.w3.org/2000/svg">
<path d="M16.9812 13.1996C16.7912 13.1996 16.5912 13.1196 16.4512 12.9796L11.0512 7.56958C10.8012 7.31958 10.7612 6.93958 10.9512 6.63958L12.6412 3.96958C13.1112 3.22958 13.8212 2.76958 14.6512 2.67958C15.5812 2.58958 16.5412 2.94958 17.2912 3.69958L20.3212 6.72958C21.0412 7.44958 21.4012 8.41958 21.2912 9.37958C21.2012 10.2196 20.7512 10.9496 20.0512 11.3896L17.3812 13.0796C17.2612 13.1596 17.1212 13.1996 16.9812 13.1996ZM12.5312 6.93958L17.0912 11.4996L19.2612 10.1296C19.5712 9.92958 19.7712 9.60958 19.8112 9.21958C19.8712 8.71958 19.6612 8.18958 19.2712 7.79958L16.2412 4.76958C15.8112 4.33958 15.2912 4.10958 14.8212 4.17958C14.4412 4.21958 14.1312 4.42958 13.9112 4.77958L12.5312 6.93958Z" fill="#292D32"/>
<path d="M5.89038 21.3395C5.00038 21.3395 4.20038 21.0195 3.60038 20.4295C2.90038 19.7295 2.59038 18.7595 2.72038 17.6795L3.70038 9.34954C4.00038 6.82954 5.11038 5.90954 7.70038 6.05954L11.6204 6.28954C12.0304 6.31954 12.3504 6.66954 12.3204 7.07954C12.2904 7.48954 11.9404 7.80954 11.5304 7.77954L7.61038 7.55954C5.83038 7.44954 5.39038 7.79954 5.19038 9.52954L4.21038 17.8495C4.14038 18.4595 4.30038 18.9995 4.66038 19.3595C5.03038 19.7195 5.57038 19.8895 6.18038 19.8095L14.5004 18.8295C16.2504 18.6195 16.6404 18.1595 16.4704 16.4395L16.2304 12.4895C16.2104 12.0795 16.5204 11.7195 16.9304 11.6995C17.3404 11.6695 17.7004 11.9895 17.7204 12.3995L17.9504 16.3195C18.1904 18.8095 17.2104 20.0095 14.6604 20.3195L6.34038 21.2995C6.20038 21.3295 6.04038 21.3395 5.89038 21.3395Z" fill="#292D32"/>
<path d="M4.61078 20.1693C4.42078 20.1693 4.23078 20.0993 4.08078 19.9493C3.79078 19.6593 3.79078 19.1793 4.08078 18.8893L7.12078 15.8493C7.41078 15.5593 7.89078 15.5593 8.18078 15.8493C8.47078 16.1393 8.47078 16.6193 8.18078 16.9093L5.14078 19.9493C4.99078 20.0993 4.80078 20.1693 4.61078 20.1693Z" fill="#292D32"/>
</svg>
