<svg width="24" height="24" viewBox="0 0 24 24" fill="none" xmlns="http://www.w3.org/2000/svg">
<path d="M14.1492 22.7496H9.86924C8.84924 22.7496 7.90924 22.3196 7.30924 21.5596C6.77924 20.8996 6.58924 20.0596 6.76924 19.2596L7.45924 16.1796C7.53924 15.8396 7.83924 15.5996 8.18924 15.5996H15.8292C16.1792 15.5996 16.4792 15.8396 16.5592 16.1796L17.2592 19.2596C17.4492 20.1196 17.2692 20.9496 16.7492 21.5996C16.1692 22.3296 15.2192 22.7496 14.1492 22.7496ZM8.78924 17.0996L8.22924 19.5996C8.14924 19.9596 8.23924 20.3196 8.47924 20.6296C8.78924 21.0196 9.30924 21.2496 9.86924 21.2496H14.1592C14.7692 21.2496 15.2892 21.0396 15.5792 20.6696C15.8192 20.3796 15.8892 19.9996 15.7992 19.5996L15.2392 17.0996H8.78924Z" fill="#292D32"/>
<path d="M8.18957 17.1C8.00957 17.1 7.82957 17.04 7.68957 16.91L4.74957 14.3C2.81957 12.71 2.65957 11.17 4.24957 9.15L9.43957 2.57C10.1096 1.72 11.0296 1.25 12.0096 1.25C12.9996 1.25 13.9096 1.72 14.5796 2.57L19.7696 9.15C21.3396 11.14 21.1996 12.59 19.2696 14.3L16.3296 16.91C16.0196 17.18 15.5396 17.16 15.2696 16.85C14.9996 16.54 15.0196 16.07 15.3296 15.79L18.2696 13.18C19.5896 12.01 19.6496 11.43 18.5896 10.08L13.4096 3.5C12.6496 2.53 11.3796 2.53 10.6196 3.5L5.42957 10.08C4.33957 11.46 4.38957 12.07 5.71957 13.16L8.67957 15.79C8.98957 16.06 9.01957 16.54 8.73957 16.85C8.59957 17.01 8.39957 17.1 8.18957 17.1Z" fill="#292D32"/>
<path d="M12.0098 7.71992C11.5998 7.71992 11.2598 7.37992 11.2598 6.96992V2.66992C11.2598 2.25992 11.5998 1.91992 12.0098 1.91992C12.4198 1.91992 12.7598 2.25992 12.7598 2.66992V6.96992C12.7598 7.37992 12.4198 7.71992 12.0098 7.71992Z" fill="#292D32"/>
<path d="M14.1492 22.7496H9.86924C8.84924 22.7496 7.90924 22.3196 7.30924 21.5596C6.77924 20.8996 6.58924 20.0596 6.76924 19.2596L7.45924 16.1796C7.53924 15.8396 7.83924 15.5996 8.18924 15.5996H15.8292C16.1792 15.5996 16.4792 15.8396 16.5592 16.1796L17.2592 19.2596C17.4492 20.1196 17.2692 20.9496 16.7492 21.5996C16.1692 22.3296 15.2192 22.7496 14.1492 22.7496ZM8.78924 17.0996L8.22924 19.5996C8.14924 19.9596 8.23924 20.3196 8.47924 20.6296C8.78924 21.0196 9.30924 21.2496 9.86924 21.2496H14.1592C14.7692 21.2496 15.2892 21.0396 15.5792 20.6696C15.8192 20.3796 15.8892 19.9996 15.7992 19.5996L15.2392 17.0996H8.78924Z" fill="#292D32"/>
<path d="M8.18957 17.1C8.00957 17.1 7.82957 17.04 7.68957 16.91L4.74957 14.3C2.81957 12.71 2.65957 11.17 4.24957 9.15L9.43957 2.57C10.1096 1.72 11.0296 1.25 12.0096 1.25C12.9996 1.25 13.9096 1.72 14.5796 2.57L19.7696 9.15C21.3396 11.14 21.1996 12.59 19.2696 14.3L16.3296 16.91C16.0196 17.18 15.5396 17.16 15.2696 16.85C14.9996 16.54 15.0196 16.07 15.3296 15.79L18.2696 13.18C19.5896 12.01 19.6496 11.43 18.5896 10.08L13.4096 3.5C12.6496 2.53 11.3796 2.53 10.6196 3.5L5.42957 10.08C4.33957 11.46 4.38957 12.07 5.71957 13.16L8.67957 15.79C8.98957 16.06 9.01957 16.54 8.73957 16.85C8.59957 17.01 8.39957 17.1 8.18957 17.1Z" fill="#292D32"/>
<path d="M12.0098 7.71992C11.5998 7.71992 11.2598 7.37992 11.2598 6.96992V2.66992C11.2598 2.25992 11.5998 1.91992 12.0098 1.91992C12.4198 1.91992 12.7598 2.25992 12.7598 2.66992V6.96992C12.7598 7.37992 12.4198 7.71992 12.0098 7.71992Z" fill="#292D32"/>
</svg>
