<svg width="24" height="24" viewBox="0 0 24 24" fill="none" xmlns="http://www.w3.org/2000/svg">
<path d="M18.2512 14.2204C18.0612 14.2204 17.8612 14.1405 17.7212 14.0005L12.0512 8.33049C11.8012 8.08049 11.7612 7.7005 11.9512 7.4005L13.7212 4.60045C14.2012 3.83045 14.9512 3.36049 15.8112 3.26049C16.7612 3.15049 17.7712 3.54048 18.5512 4.32048L21.7312 7.50048C22.4812 8.25048 22.8512 9.25048 22.7412 10.2505C22.6412 11.1205 22.1812 11.8704 21.4612 12.3304L18.6612 14.1005C18.5312 14.1805 18.3912 14.2204 18.2512 14.2204ZM13.5412 7.70049L18.3612 12.5205L20.6512 11.0705C20.9912 10.8605 21.2012 10.5105 21.2412 10.0905C21.3012 9.5605 21.0812 8.99048 20.6612 8.57048L17.4812 5.39049C17.0212 4.93049 16.4712 4.70049 15.9712 4.76049C15.5712 4.80049 15.2312 5.03045 14.9912 5.41045L13.5412 7.70049Z" fill="#292D32"/>
<path d="M6.6291 22.7495C5.6891 22.7495 4.8591 22.4196 4.2391 21.7996C3.5191 21.0796 3.1991 20.0695 3.3291 18.9495L4.3091 10.6695C4.3591 10.2595 4.7191 9.96954 5.1391 10.0095C5.5491 10.0595 5.8491 10.4296 5.7991 10.8396L4.81911 19.1195C4.73911 19.7695 4.9091 20.3395 5.2991 20.7295C5.6891 21.1195 6.26909 21.2995 6.92909 21.2195L15.6491 20.1895C17.5091 19.9695 17.9191 19.4696 17.7391 17.6496L17.4991 13.4995C17.4791 13.0895 17.7891 12.7295 18.2091 12.7095C18.6191 12.6895 18.9791 12.9996 18.9991 13.4196L19.2391 17.5396C19.4991 20.1196 18.4791 21.3695 15.8291 21.6895L7.1091 22.7195C6.9491 22.7395 6.7891 22.7495 6.6291 22.7495Z" fill="#292D32"/>
<path d="M12.5801 8.56018C12.5601 8.56018 12.5501 8.56018 12.5301 8.56018L10.7801 8.45019C10.3701 8.42019 10.0501 8.0702 10.0801 7.6502C10.1101 7.2402 10.4601 6.92019 10.8801 6.95019L12.6301 7.06018C13.0401 7.09018 13.3601 7.44016 13.3301 7.86016C13.3001 8.25016 12.9701 8.56018 12.5801 8.56018Z" fill="#292D32"/>
<path d="M5.2807 21.5301C5.0907 21.5301 4.9007 21.4602 4.7507 21.3102C4.4607 21.0202 4.4607 20.5401 4.7507 20.2501L7.9307 17.07C8.2207 16.78 8.70071 16.78 8.99071 17.07C9.28071 17.36 9.28071 17.8401 8.99071 18.1301L5.8107 21.3102C5.6607 21.4602 5.4707 21.5301 5.2807 21.5301Z" fill="#292D32"/>
<path d="M6.5 11.75C5.91 11.75 5.34 11.65 4.81 11.47C3.65 11.08 2.64999 10.28 2.00999 9.21002C1.50999 8.39002 1.25 7.45 1.25 6.5C1.25 4.88 1.97 3.39002 3.23 2.40002C4.15 1.66002 5.31 1.25 6.5 1.25C9.4 1.25 11.75 3.61 11.75 6.5C11.75 6.97 11.68 7.45997 11.55 7.90997C11.42 8.36997 11.24 8.79002 10.99 9.21002C10.7 9.69002 10.35 10.1 9.94 10.45C9 11.29 7.78 11.75 6.5 11.75ZM6.5 2.75C5.65 2.75 4.82 3.04001 4.16 3.57001C3.26 4.28001 2.75 5.34 2.75 6.5C2.75 7.17 2.93999 7.83999 3.28999 8.42999C3.74999 9.18999 4.45999 9.76998 5.28999 10.04C6.49999 10.47 7.95001 10.2 8.96001 9.31C9.25001 9.06 9.50001 8.75999 9.71001 8.42999C9.89001 8.12999 10.02 7.83 10.11 7.5C10.2 7.17 10.25 6.83 10.25 6.5C10.25 4.43 8.57 2.75 6.5 2.75Z" fill="#292D32"/>
<path d="M7.69977 8.43021C7.50977 8.43021 7.31977 8.36024 7.16977 8.21024L4.78977 5.83023C4.49977 5.54023 4.49977 5.06023 4.78977 4.77023C5.07977 4.48023 5.55978 4.48023 5.84978 4.77023L8.22977 7.15024C8.51977 7.44024 8.51977 7.92024 8.22977 8.21024C8.08977 8.35024 7.88977 8.43021 7.69977 8.43021Z" fill="#292D32"/>
<path d="M5.30023 8.4498C5.11023 8.4498 4.92023 8.37977 4.77023 8.22977C4.48023 7.93977 4.48023 7.45977 4.77023 7.16977L7.15022 4.78977C7.44022 4.49977 7.92024 4.49977 8.21024 4.78977C8.50024 5.07977 8.50024 5.55976 8.21024 5.84976L5.83023 8.22977C5.68023 8.37977 5.49023 8.4498 5.30023 8.4498Z" fill="#292D32"/>
</svg>
