<svg width="24" height="24" viewBox="0 0 24 24" fill="none" xmlns="http://www.w3.org/2000/svg">
<path d="M9 2H15C20 2 22 4 22 9V15C22 20 20 22 15 22H9C4 22 2 20 2 15V9C2 4 4 2 9 2Z" stroke="#292D32" stroke-width="1.5" stroke-linecap="round" stroke-linejoin="round"/>
<path d="M8.57007 15.27L15.11 8.72998" stroke="#292D32" stroke-width="1.5" stroke-linecap="round" stroke-linejoin="round"/>
<path d="M8.98001 10.3699C9.65932 10.3699 10.21 9.81923 10.21 9.13992C10.21 8.46061 9.65932 7.90991 8.98001 7.90991C8.3007 7.90991 7.75 8.46061 7.75 9.13992C7.75 9.81923 8.3007 10.3699 8.98001 10.3699Z" stroke="#292D32" stroke-width="1.5" stroke-linecap="round" stroke-linejoin="round"/>
<path d="M15.52 16.0899C16.1993 16.0899 16.75 15.5392 16.75 14.8599C16.75 14.1806 16.1993 13.6299 15.52 13.6299C14.8407 13.6299 14.29 14.1806 14.29 14.8599C14.29 15.5392 14.8407 16.0899 15.52 16.0899Z" stroke="#292D32" stroke-width="1.5" stroke-linecap="round" stroke-linejoin="round"/>
</svg>
