<svg width="24" height="24" viewBox="0 0 24 24" fill="none" xmlns="http://www.w3.org/2000/svg">
<path opacity="0.4" d="M11.9707 22C17.4936 22 21.9707 17.5228 21.9707 12C21.9707 6.47715 17.4936 2 11.9707 2C6.44786 2 1.9707 6.47715 1.9707 12C1.9707 17.5228 6.44786 22 11.9707 22Z" fill="#292D32"/>
<path d="M14.9713 10.2301L12.0713 8.56012C11.3513 8.14012 10.4813 8.14012 9.76133 8.56012C9.04133 8.98012 8.61133 9.72012 8.61133 10.5601V13.9101C8.61133 14.7401 9.04133 15.4901 9.76133 15.9101C10.1213 16.1201 10.5213 16.2201 10.9113 16.2201C11.3113 16.2201 11.7013 16.1201 12.0613 15.9101L14.9613 14.2401C15.6813 13.8201 16.1113 13.0801 16.1113 12.2401C16.1313 11.4001 15.7013 10.6501 14.9713 10.2301Z" fill="#292D32"/>
</svg>
