<svg width="24" height="24" viewBox="0 0 24 24" fill="none" xmlns="http://www.w3.org/2000/svg">
<path d="M11.9707 22.75C6.0507 22.75 1.2207 17.93 1.2207 12C1.2207 6.07 6.0507 1.25 11.9707 1.25C17.8907 1.25 22.7207 6.07 22.7207 12C22.7207 17.93 17.9007 22.75 11.9707 22.75ZM11.9707 2.75C6.8707 2.75 2.7207 6.9 2.7207 12C2.7207 17.1 6.8707 21.25 11.9707 21.25C17.0707 21.25 21.2207 17.1 21.2207 12C21.2207 6.9 17.0707 2.75 11.9707 2.75Z" fill="#292D32"/>
<path d="M10.5602 16.9905C10.1202 16.9905 9.70023 16.8805 9.33023 16.6705C8.47023 16.1705 7.99023 15.1905 7.99023 13.9105V10.5605C7.99023 9.28048 8.46023 8.30048 9.32023 7.80048C10.1802 7.30048 11.2702 7.38048 12.3802 8.02048L15.2802 9.69048C16.3902 10.3305 17.0002 11.2305 17.0002 12.2305C17.0002 13.2205 16.3902 14.1305 15.2802 14.7705L12.3802 16.4405C11.7602 16.8105 11.1302 16.9905 10.5602 16.9905ZM10.5602 8.97048C10.3802 8.97048 10.2102 9.01048 10.0802 9.09048C9.70023 9.31048 9.49023 9.84048 9.49023 10.5605V13.9105C9.49023 14.6205 9.70023 15.1605 10.0802 15.3705C10.4502 15.5905 11.0202 15.5005 11.6402 15.1505L14.5402 13.4805C15.1602 13.1205 15.5102 12.6705 15.5102 12.2405C15.5102 11.8105 15.1502 11.3605 14.5402 11.0005L11.6402 9.33048C11.2402 9.09048 10.8702 8.97048 10.5602 8.97048Z" fill="#292D32"/>
</svg>
