<svg width="24" height="24" viewBox="0 0 24 24" fill="none" xmlns="http://www.w3.org/2000/svg">
<path d="M19.5 19.75H15.5C15.09 19.75 14.75 19.41 14.75 19C14.75 18.59 15.09 18.25 15.5 18.25H19.5C19.91 18.25 20.25 18.59 20.25 19C20.25 19.41 19.91 19.75 19.5 19.75Z" fill="#292D32"/>
<path d="M12.1508 11.62C12.1208 11.62 12.1008 11.62 12.0708 11.62C12.0108 11.61 11.9508 11.62 11.8908 11.62C8.99078 11.53 6.80078 9.25 6.80078 6.44C6.80078 3.58 9.13078 1.25 11.9908 1.25C14.8508 1.25 17.1808 3.58 17.1808 6.44C17.1708 9.25 14.9708 11.53 12.1808 11.62C12.1708 11.62 12.1608 11.62 12.1508 11.62ZM11.9908 2.75C9.96078 2.75 8.30078 4.41 8.30078 6.44C8.30078 8.44 9.86078 10.05 11.8508 10.12C11.9108 10.11 12.0408 10.11 12.1708 10.12C14.1308 10.03 15.6708 8.42 15.6808 6.44C15.6808 4.41 14.0208 2.75 11.9908 2.75Z" fill="#292D32"/>
<path d="M11.9902 22.5602C9.95016 22.5602 8.02016 22.0302 6.56016 21.0502C5.17016 20.1202 4.41016 18.8502 4.41016 17.4802C4.41016 16.1102 5.18016 14.8502 6.56016 13.9302C9.55016 11.9302 14.4102 11.9302 17.4002 13.9302C17.7402 14.1602 17.8402 14.6302 17.6102 14.9702C17.3802 15.3202 16.9102 15.4102 16.5702 15.1802C14.0802 13.5202 9.88016 13.5202 7.39016 15.1802C6.43016 15.8202 5.91016 16.6302 5.91016 17.4802C5.91016 18.3302 6.43016 19.1602 7.39016 19.8002C8.60016 20.6102 10.2302 21.0502 11.9802 21.0502C12.3902 21.0502 12.7302 21.3902 12.7302 21.8002C12.7302 22.2102 12.4002 22.5602 11.9902 22.5602Z" fill="#292D32"/>
</svg>
