<svg width="24" height="24" viewBox="0 0 24 24" fill="none" xmlns="http://www.w3.org/2000/svg">
<path d="M15.9609 21.3202C15.7709 21.3202 15.5809 21.2502 15.4309 21.1002L13.9109 19.5802C13.6209 19.2902 13.6209 18.8102 13.9109 18.5202C14.2009 18.2302 14.6809 18.2302 14.9709 18.5202L15.9609 19.5102L18.4709 17.0002C18.7609 16.7102 19.2409 16.7102 19.5309 17.0002C19.8209 17.2902 19.8209 17.7702 19.5309 18.0602L16.4909 21.1002C16.3409 21.2502 16.1509 21.3202 15.9609 21.3202Z" fill="#292D32"/>
<path d="M12.1607 11.62C12.1307 11.62 12.1107 11.62 12.0807 11.62C12.0307 11.61 11.9607 11.61 11.9007 11.62C9.00068 11.53 6.81068 9.25 6.81068 6.44C6.80068 5.06 7.34068 3.76 8.32068 2.78C9.30068 1.8 10.6007 1.25 11.9907 1.25C14.8507 1.25 17.1807 3.58 17.1807 6.44C17.1807 9.25 14.9907 11.52 12.1907 11.62C12.1807 11.62 12.1707 11.62 12.1607 11.62ZM11.9907 2.75C11.0007 2.75 10.0807 3.14 9.38068 3.83C8.69068 4.53 8.31068 5.45 8.31068 6.43C8.31068 8.43 9.87068 10.05 11.8607 10.11C11.9207 10.1 12.0507 10.1 12.1807 10.11C14.1507 10.02 15.6807 8.41 15.6807 6.43C15.6807 4.41 14.0207 2.75 11.9907 2.75Z" fill="#292D32"/>
<path d="M11.9902 22.5602C9.95016 22.5602 8.02016 22.0302 6.56016 21.0502C5.17016 20.1202 4.41016 18.8502 4.41016 17.4802C4.41016 16.1102 5.18016 14.8502 6.56016 13.9302C9.55016 11.9302 14.4102 11.9302 17.4002 13.9302C17.7402 14.1602 17.8402 14.6302 17.6102 14.9702C17.3802 15.3202 16.9102 15.4102 16.5702 15.1802C14.0802 13.5202 9.88016 13.5202 7.39016 15.1802C6.43016 15.8202 5.91016 16.6302 5.91016 17.4802C5.91016 18.3302 6.43016 19.1602 7.39016 19.8002C8.60016 20.6102 10.2302 21.0502 11.9802 21.0502C12.3902 21.0502 12.7302 21.3902 12.7302 21.8002C12.7302 22.2102 12.4002 22.5602 11.9902 22.5602Z" fill="#292D32"/>
</svg>
