<svg width="24" height="24" viewBox="0 0 24 24" fill="none" xmlns="http://www.w3.org/2000/svg">
<path opacity="0.4" d="M16.1898 2H7.81977C4.17977 2 2.00977 4.17 2.00977 7.81V16.18C2.00977 19.82 4.17977 21.99 7.81977 21.99H16.1898C19.8298 21.99 21.9998 19.82 21.9998 16.18V7.81C21.9998 4.17 19.8298 2 16.1898 2Z" fill="#292D32"/>
<path d="M15.8109 7.21973H14.3209C13.2309 7.21973 12.3809 8.06973 12.3809 9.15973V10.6498C12.3809 11.7398 13.2309 12.5898 14.3209 12.5898H16.2309C16.1509 14.3998 15.7309 14.6698 14.5209 15.3798C14.1609 15.5898 14.0509 16.0497 14.2609 16.4097C14.4009 16.6497 14.6509 16.7798 14.9109 16.7798C15.0409 16.7798 15.1709 16.7497 15.2909 16.6797C17.0809 15.6197 17.7509 14.9297 17.7509 11.8497V9.17975C17.7509 8.08975 16.8809 7.21973 15.8109 7.21973Z" fill="#292D32"/>
<path d="M9.68 7.21973H8.19C7.1 7.21973 6.25 8.06973 6.25 9.15973V10.6498C6.25 11.7398 7.1 12.5898 8.19 12.5898H10.1C10.02 14.3998 9.6 14.6698 8.39 15.3798C8.03 15.5898 7.92 16.0497 8.13 16.4097C8.27 16.6497 8.52 16.7798 8.78 16.7798C8.91 16.7798 9.04 16.7497 9.16 16.6797C10.95 15.6197 11.62 14.9297 11.62 11.8497V9.17975C11.61 8.08975 10.74 7.21973 9.68 7.21973Z" fill="#292D32"/>
</svg>
