<svg width="24" height="24" viewBox="0 0 24 24" fill="none" xmlns="http://www.w3.org/2000/svg">
<path d="M15.5 22.75H8.5C4.79 22.75 2.75 20.71 2.75 17V7C2.75 3.29 4.79 1.25 8.5 1.25H15.5C19.15 1.25 21.25 3.35 21.25 7V8C21.25 8.96 20.46 9.75 19.5 9.75C19.36 9.75 19.25 9.86 19.25 10V12.17C19.25 12.5 19.38 12.82 19.62 13.05L20.45 13.88C20.97 14.4 21.26 15.09 21.26 15.82V17C21.25 20.65 19.15 22.75 15.5 22.75ZM8.5 2.75C5.64 2.75 4.25 4.14 4.25 7V17C4.25 19.86 5.64 21.25 8.5 21.25H15.5C18.32 21.25 19.75 19.82 19.75 17V15.83C19.75 15.5 19.62 15.18 19.38 14.95L18.55 14.12C18.03 13.6 17.74 12.91 17.74 12.18V10C17.74 9.04 18.53 8.25 19.49 8.25C19.63 8.25 19.74 8.14 19.74 8V7C19.74 4.18 18.31 2.75 15.49 2.75H8.5Z" fill="#292D32"/>
<path d="M16.0105 22.7202C15.6005 22.7202 15.2605 22.3902 15.2605 21.9802L15.2305 18.9902C15.2305 18.3002 14.6605 17.7502 13.9805 17.7502H9.98047C9.65047 17.7502 9.33047 17.8802 9.09047 18.1202C8.86047 18.3502 8.73047 18.6702 8.73047 19.0002L8.74047 21.9702C8.74047 22.3802 8.41047 22.7202 7.99047 22.7202C7.58047 22.7202 7.24047 22.3902 7.24047 21.9702L7.23047 19.0002C7.23047 18.2602 7.51047 17.5702 8.03047 17.0502C8.55047 16.5302 9.24047 16.2402 9.98047 16.2402H13.9905C15.5005 16.2402 16.7305 17.4702 16.7405 18.9702L16.7705 21.9502C16.7705 22.3802 16.4305 22.7202 16.0105 22.7202C16.0105 22.7202 16.0205 22.7202 16.0105 22.7202Z" fill="#292D32"/>
<path d="M13.9697 8.52978H7.96973C7.55973 8.52978 7.21973 8.18979 7.21973 7.77979C7.21973 7.36979 7.55973 7.02979 7.96973 7.02979H13.9697C14.3797 7.02979 14.7197 7.36979 14.7197 7.77979C14.7197 8.18979 14.3897 8.52978 13.9697 8.52978Z" fill="#292D32"/>
</svg>
