<svg width="24" height="24" viewBox="0 0 24 24" fill="none" xmlns="http://www.w3.org/2000/svg">
<path d="M19.6297 7.23844C19.9297 7.70844 19.7697 8.33844 19.2897 8.62844L18.6997 8.97844L5.58967 16.8384C5.10967 17.1284 4.47967 16.9684 4.19967 16.4784C3.19967 14.7384 2.74967 12.6184 3.13967 10.3984C3.79967 6.62844 6.89967 3.62844 10.6897 3.08844C14.4397 2.55844 17.8297 4.35844 19.6297 7.23844Z" fill="#292D32"/>
<path d="M20.8892 13.4269C20.2092 17.6769 16.4492 20.9269 12.1392 20.9969C10.2392 21.0269 8.47917 20.4769 7.01917 19.4869C6.39917 19.0769 6.41917 18.1569 7.05917 17.7769L19.4692 10.4869C20.1192 10.1069 20.9192 10.5469 20.9792 11.2969C21.0292 11.9969 20.9992 12.7069 20.8892 13.4269Z" fill="#292D32"/>
</svg>
