<svg width="24" height="24" viewBox="0 0 24 24" fill="none" xmlns="http://www.w3.org/2000/svg">
<path d="M14.6 12.5799V15.3099C14.6 17.5899 13.69 18.4999 11.41 18.4999H8.69C6.42 18.4999 5.5 17.5899 5.5 15.3099V12.5799C5.5 10.3099 6.41 9.3999 8.69 9.3999H11.42C13.69 9.3999 14.6 10.3099 14.6 12.5799Z" stroke="#292D32" stroke-width="1.5" stroke-linecap="round" stroke-linejoin="round"/>
<path d="M18.5 8.68V11.41C18.5 13.69 17.59 14.6 15.31 14.6H14.6V12.58C14.6 10.31 13.69 9.4 11.41 9.4H9.39999V8.68C9.39999 6.4 10.31 5.5 12.59 5.5H15.32C17.59 5.5 18.5 6.41 18.5 8.68Z" stroke="#292D32" stroke-width="1.5" stroke-linecap="round" stroke-linejoin="round"/>
<path d="M22 15C22 18.87 18.87 22 15 22L16.05 20.25" stroke="#292D32" stroke-width="1.5" stroke-linecap="round" stroke-linejoin="round"/>
<path d="M2 9C2 5.13 5.13 2 9 2L7.95 3.75" stroke="#292D32" stroke-width="1.5" stroke-linecap="round" stroke-linejoin="round"/>
</svg>
