<svg width="24" height="24" viewBox="0 0 24 24" fill="none" xmlns="http://www.w3.org/2000/svg">
<path opacity="0.4" d="M7.81 2H16.18C19.83 2 22 4.17 22 7.81V16.18C22 19.82 19.83 21.99 16.19 21.99H7.81C4.17 22 2 19.83 2 16.19V7.81C2 4.17 4.17 2 7.81 2Z" fill="#292D32"/>
<path d="M12 18.5799C8.83 18.5799 6.25 15.9999 6.25 12.8299C6.25 9.71988 8.73 7.18988 11.81 7.07988L11.44 6.64988C11.17 6.33988 11.2 5.85988 11.51 5.58988C11.82 5.31988 12.3 5.34988 12.57 5.65988L14.23 7.55988C14.25 7.57988 14.26 7.59988 14.28 7.61988C14.32 7.67988 14.36 7.74988 14.38 7.81988C14.39 7.85988 14.4 7.89988 14.41 7.93988C14.43 8.02988 14.42 8.12988 14.4 8.21988C14.38 8.29988 14.35 8.37988 14.31 8.45988C14.3 8.47988 14.28 8.49988 14.27 8.51988C14.23 8.57988 14.17 8.62988 14.11 8.66988C14.11 8.66988 14.1 8.66988 14.1 8.67988L12.16 10.0999C11.82 10.3399 11.36 10.2699 11.11 9.93988C10.87 9.60988 10.94 9.13988 11.27 8.88988L11.68 8.58988C9.48 8.74988 7.74 10.5899 7.74 12.8299C7.74 15.1699 9.65 17.0799 11.99 17.0799C14.33 17.0799 16.24 15.1699 16.24 12.8299C16.24 11.9899 15.99 11.1699 15.53 10.4699C15.3 10.1299 15.39 9.65988 15.74 9.42988C16.09 9.19988 16.55 9.28988 16.78 9.63988C17.41 10.5899 17.75 11.6899 17.75 12.8299C17.75 15.9999 15.17 18.5799 12 18.5799Z" fill="#292D32"/>
</svg>
