<svg width="24" height="24" viewBox="0 0 24 24" fill="none" xmlns="http://www.w3.org/2000/svg">
<path d="M12.0004 22.7602C10.9104 22.7602 9.83041 22.4402 8.98041 21.8102L4.68039 18.6002C3.54039 17.7502 2.65039 15.9802 2.65039 14.5602V7.13019C2.65039 5.59019 3.78041 3.95019 5.23041 3.41019L10.2204 1.5402C11.2104 1.1702 12.7704 1.1702 13.7604 1.5402L18.7604 3.41019C20.2104 3.95019 21.3404 5.59019 21.3404 7.13019V14.5602C21.3404 15.9802 20.4504 17.7502 19.3104 18.6002L15.0104 21.8102C14.1704 22.4402 13.0904 22.7602 12.0004 22.7602ZM10.7504 2.94019L5.76041 4.81018C4.90041 5.13018 4.15039 6.21019 4.15039 7.13019V14.5602C4.15039 15.5102 4.8204 16.8402 5.5704 17.4002L9.87039 20.6102C11.0204 21.4702 12.9704 21.4702 14.1204 20.6102L18.4204 17.4002C19.1804 16.8302 19.8404 15.5002 19.8404 14.5602V7.13019C19.8404 6.22019 19.0904 5.14018 18.2304 4.81018L13.2404 2.94019C12.5804 2.69019 11.4204 2.69019 10.7504 2.94019Z" fill="#292D32"/>
<path d="M11.9999 11.6702C11.9799 11.6702 11.9599 11.6702 11.9299 11.6702C10.4799 11.6302 9.41992 10.5202 9.41992 9.17017C9.41992 7.79017 10.5499 6.66016 11.9299 6.66016C13.3099 6.66016 14.4399 7.79017 14.4399 9.17017C14.4299 10.5302 13.3699 11.6301 12.0199 11.6801C12.0099 11.6701 12.0099 11.6702 11.9999 11.6702ZM11.9299 8.16016C11.3699 8.16016 10.9199 8.61017 10.9199 9.17017C10.9199 9.72017 11.3499 10.1601 11.8899 10.1801C11.8899 10.1801 11.9399 10.1801 11.9999 10.1801C12.5299 10.1501 12.9399 9.71017 12.9399 9.17017C12.9499 8.61017 12.4899 8.16016 11.9299 8.16016Z" fill="#292D32"/>
<path d="M12.0008 17.35C11.1408 17.35 10.2708 17.12 9.6008 16.67C8.9308 16.23 8.55078 15.58 8.55078 14.89C8.55078 14.2 8.9308 13.55 9.6008 13.1C10.9508 12.2 13.0608 12.21 14.4008 13.1C15.0708 13.54 15.4508 14.19 15.4508 14.88C15.4508 15.57 15.0708 16.22 14.4008 16.67C13.7308 17.12 12.8608 17.35 12.0008 17.35ZM10.4308 14.34C10.1808 14.5 10.0408 14.7 10.0508 14.88C10.0508 15.06 10.1908 15.26 10.4308 15.42C11.2708 15.98 12.7308 15.98 13.5708 15.42C13.8208 15.26 13.9608 15.06 13.9608 14.88C13.9608 14.7 13.8208 14.5 13.5808 14.34C12.7408 13.79 11.2708 13.79 10.4308 14.34Z" fill="#292D32"/>
</svg>
