<svg width="24" height="24" viewBox="0 0 24 24" fill="none" xmlns="http://www.w3.org/2000/svg">
<path opacity="0.4" d="M10.9608 2.06008L5.46078 4.12008C4.41078 4.52008 3.55078 5.76008 3.55078 6.89008V14.9901C3.55078 15.8001 4.08078 16.8701 4.73078 17.3501L10.2308 21.4601C11.2008 22.1901 12.7908 22.1901 13.7608 21.4601L19.2608 17.3501C19.9108 16.8601 20.4408 15.8001 20.4408 14.9901V6.89008C20.4408 5.77008 19.5808 4.52008 18.5308 4.13008L13.0308 2.07008C12.4708 1.85008 11.5308 1.85008 10.9608 2.06008Z" fill="#292D32"/>
<path d="M14.6808 12.9101L13.0908 11.3201L14.6408 9.77014C14.9308 9.48014 14.9308 9.00014 14.6408 8.71014C14.3508 8.42014 13.8708 8.42014 13.5808 8.71014L12.0308 10.2601L10.4408 8.67014C10.1508 8.38014 9.67078 8.38014 9.38078 8.67014C9.09078 8.96014 9.09078 9.44014 9.38078 9.73014L10.9708 11.3201L9.33078 12.9601C9.04078 13.2501 9.04078 13.7301 9.33078 14.0201C9.48078 14.1701 9.67078 14.2401 9.86078 14.2401C10.0508 14.2401 10.2408 14.1701 10.3908 14.0201L12.0308 12.3801L13.6208 13.9701C13.7708 14.1201 13.9608 14.1901 14.1508 14.1901C14.3408 14.1901 14.5308 14.1201 14.6808 13.9701C14.9708 13.6701 14.9708 13.2001 14.6808 12.9101Z" fill="#292D32"/>
</svg>
