<svg width="24" height="24" viewBox="0 0 24 24" fill="none" xmlns="http://www.w3.org/2000/svg">
<path opacity="0.4" d="M14 6.19995V10C11.21 10.05 10.05 11.21 10 14H6.2C3.2 14 2 12.8 2 9.80005V6.19995C2 3.19995 3.2 2 6.2 2H9.8C12.8 2 14 3.19995 14 6.19995Z" stroke="#292D32" stroke-width="1.5" stroke-linecap="round" stroke-linejoin="round"/>
<path opacity="0.4" d="M6.95922 5.87008C6.42922 5.51008 5.72922 5.5101 5.19922 5.8901" stroke="#292D32" stroke-width="1.5" stroke-miterlimit="10" stroke-linecap="round" stroke-linejoin="round"/>
<path opacity="0.4" d="M10.9592 5.87008C10.4292 5.51008 9.72922 5.5101 9.19922 5.8901" stroke="#292D32" stroke-width="1.5" stroke-miterlimit="10" stroke-linecap="round" stroke-linejoin="round"/>
<path opacity="0.4" d="M8.16078 11.4202H5.84078C5.54078 11.4202 5.30078 11.1801 5.30078 10.8801C5.30078 9.39013 6.51078 8.18018 8.00078 8.18018C8.64078 8.18018 9.23078 8.40014 9.69078 8.77014" stroke="#292D32" stroke-width="1.5" stroke-miterlimit="10" stroke-linecap="round" stroke-linejoin="round"/>
<path d="M22 14.2V17.8C22 20.8 20.8 22 17.8 22H14.2C11.2 22 10 20.8 10 17.8V14C10.05 11.21 11.21 10.05 14 10H17.8C20.8 10 22 11.2 22 14.2Z" stroke="#292D32" stroke-width="1.5" stroke-linecap="round" stroke-linejoin="round"/>
<path d="M14.9592 13.6201C14.4292 13.9801 13.7292 13.9801 13.1992 13.6001" stroke="#292D32" stroke-width="1.5" stroke-miterlimit="10" stroke-linecap="round" stroke-linejoin="round"/>
<path d="M18.9592 13.6201C18.4292 13.9801 17.7292 13.9801 17.1992 13.6001" stroke="#292D32" stroke-width="1.5" stroke-miterlimit="10" stroke-linecap="round" stroke-linejoin="round"/>
<path d="M13.8408 16.1802H18.1608C18.4608 16.1802 18.7008 16.4201 18.7008 16.7201C18.7008 18.2101 17.4908 19.4202 16.0008 19.4202C14.5108 19.4202 13.3008 18.2101 13.3008 16.7201C13.3008 16.4201 13.5408 16.1802 13.8408 16.1802Z" stroke="#292D32" stroke-width="1.5" stroke-miterlimit="10" stroke-linecap="round" stroke-linejoin="round"/>
</svg>
