<svg width="24" height="24" viewBox="0 0 24 24" fill="none" xmlns="http://www.w3.org/2000/svg">
<path d="M17 21.25H7C3.35 21.25 1.25 19.15 1.25 15.5V8.5C1.25 4.85 3.35 2.75 7 2.75H14C14.41 2.75 14.75 3.09 14.75 3.5C14.75 3.91 14.41 4.25 14 4.25H7C4.14 4.25 2.75 5.64 2.75 8.5V15.5C2.75 18.36 4.14 19.75 7 19.75H17C19.86 19.75 21.25 18.36 21.25 15.5V10.5C21.25 10.09 21.59 9.75 22 9.75C22.41 9.75 22.75 10.09 22.75 10.5V15.5C22.75 19.15 20.65 21.25 17 21.25Z" fill="#292D32"/>
<path d="M11.9988 12.8698C11.1588 12.8698 10.3088 12.6098 9.6588 12.0798L6.5288 9.57978C6.2088 9.31978 6.14881 8.84978 6.4088 8.52978C6.66881 8.20978 7.13879 8.14978 7.45879 8.40978L10.5888 10.9098C11.3488 11.5198 12.6388 11.5198 13.3988 10.9098L14.5788 9.96978C14.8988 9.70978 15.3788 9.75977 15.6288 10.0898C15.8888 10.4098 15.8388 10.8898 15.5088 11.1398L14.3288 12.0798C13.6888 12.6098 12.8388 12.8698 11.9988 12.8698Z" fill="#292D32"/>
<path d="M19.5 8.75C17.71 8.75 16.25 7.29 16.25 5.5C16.25 3.71 17.71 2.25 19.5 2.25C21.29 2.25 22.75 3.71 22.75 5.5C22.75 7.29 21.29 8.75 19.5 8.75ZM19.5 3.75C18.54 3.75 17.75 4.54 17.75 5.5C17.75 6.46 18.54 7.25 19.5 7.25C20.46 7.25 21.25 6.46 21.25 5.5C21.25 4.54 20.46 3.75 19.5 3.75Z" fill="#292D32"/>
</svg>
