<svg width="24" height="24" viewBox="0 0 24 24" fill="none" xmlns="http://www.w3.org/2000/svg">
<path d="M17 21.25H7C3.35 21.25 1.25 19.15 1.25 15.5V8.5C1.25 4.85 3.35 2.75 7 2.75H12C12.41 2.75 12.75 3.09 12.75 3.5C12.75 3.91 12.41 4.25 12 4.25H7C4.14 4.25 2.75 5.64 2.75 8.5V15.5C2.75 18.36 4.14 19.75 7 19.75H17C19.86 19.75 21.25 18.36 21.25 15.5V11.5C21.25 11.09 21.59 10.75 22 10.75C22.41 10.75 22.75 11.09 22.75 11.5V15.5C22.75 19.15 20.65 21.25 17 21.25Z" fill="#292D32"/>
<path d="M11.9988 12.8698C11.1588 12.8698 10.3088 12.6098 9.6588 12.0798L6.5288 9.57978C6.2088 9.31978 6.14881 8.84978 6.4088 8.52978C6.66881 8.20978 7.13879 8.14978 7.45879 8.40978L10.5888 10.9098C11.3488 11.5198 12.6388 11.5198 13.3988 10.9098C13.7188 10.6498 14.1888 10.6998 14.4488 11.0298C14.7088 11.3498 14.6588 11.8298 14.3288 12.0798C13.6888 12.6098 12.8388 12.8698 11.9988 12.8698Z" fill="#292D32"/>
<path d="M16.7407 9.75023C16.3307 9.75023 16.0507 9.61022 15.8707 9.48022C15.5407 9.24022 15.0307 8.64024 15.3307 7.32024L15.3807 7.11023C15.4007 7.03023 15.3407 6.84023 15.2907 6.78023L14.9407 6.43022C14.3507 5.83022 14.1207 5.13023 14.3207 4.50023C14.5207 3.88023 15.1107 3.44023 15.9407 3.30023L16.3207 3.24023C16.3907 3.22023 16.5307 3.12023 16.5707 3.05023L16.8507 2.48022C17.2407 1.69022 17.8407 1.24023 18.5007 1.24023C19.1607 1.24023 19.7607 1.69022 20.1507 2.48022L20.4307 3.05023C20.4607 3.11023 20.6107 3.22023 20.6807 3.24023L21.0607 3.30023C21.8907 3.44023 22.4807 3.88023 22.6807 4.50023C22.8807 5.12023 22.6607 5.82022 22.0607 6.43022L21.7107 6.78023C21.6607 6.84023 21.6007 7.03023 21.6207 7.11023L21.6707 7.32024C21.9707 8.64024 21.4607 9.24022 21.1307 9.48022C20.8007 9.72022 20.0807 10.0102 18.9307 9.32024L18.6807 9.17023C18.6107 9.13023 18.4107 9.13023 18.3407 9.17023L18.0807 9.32024C17.5407 9.64024 17.0907 9.75023 16.7407 9.75023ZM18.4907 2.75023C18.4807 2.76023 18.3407 2.86022 18.2007 3.15022L17.9207 3.72023C17.6807 4.21023 17.1107 4.63023 16.5807 4.72023L16.2007 4.78023C15.8807 4.83023 15.7707 4.94024 15.7607 4.96024C15.7607 4.98024 15.7907 5.14022 16.0207 5.37022L16.3707 5.72023C16.7807 6.14023 16.9907 6.86022 16.8607 7.43022L16.8107 7.64023C16.7307 8.00023 16.7607 8.19022 16.7807 8.26022C16.8007 8.24022 16.9807 8.22023 17.3107 8.02023L17.5707 7.87022C18.1207 7.54022 18.9107 7.54022 19.4607 7.87022L19.7107 8.02023C20.0407 8.22023 20.2107 8.24023 20.2707 8.24023C20.2607 8.21023 20.3007 8.03023 20.2107 7.64023L20.1607 7.43022C20.0307 6.85022 20.2407 6.14023 20.6507 5.72023L21.0007 5.37022C21.2307 5.14022 21.2607 4.98023 21.2607 4.95023C21.2507 4.93023 21.1407 4.83023 20.8207 4.77023L20.4407 4.71024C19.9007 4.62024 19.3407 4.20024 19.1007 3.71024L18.8207 3.15022C18.6607 2.85022 18.5307 2.76023 18.4907 2.75023Z" fill="#292D32"/>
</svg>
