<svg width="24" height="24" viewBox="0 0 24 24" fill="none" xmlns="http://www.w3.org/2000/svg">
<path d="M14.9991 1.62109H8.99914C5.80914 1.62109 4.61914 2.81109 4.61914 6.00109V18.0011C4.61914 21.1911 5.80914 22.3811 8.99914 22.3811H14.9991C18.1891 22.3811 19.3791 21.1911 19.3791 18.0011V6.00109C19.3791 2.81109 18.1891 1.62109 14.9991 1.62109ZM11.9991 6.00109C12.8291 6.00109 13.4991 6.67109 13.4991 7.50109C13.4991 8.33109 12.8291 9.00109 11.9991 9.00109C11.1691 9.00109 10.4991 8.33109 10.4991 7.50109C10.4991 6.67109 11.1691 6.00109 11.9991 6.00109ZM11.9991 18.0011C10.3391 18.0011 8.99914 16.6611 8.99914 15.0011C8.99914 13.3411 10.3391 12.0011 11.9991 12.0011C13.6591 12.0011 14.9991 13.3411 14.9991 15.0011C14.9991 16.6611 13.6591 18.0011 11.9991 18.0011Z" fill="#292D32"/>
</svg>
