<svg width="24" height="24" viewBox="0 0 24 24" fill="none" xmlns="http://www.w3.org/2000/svg">
<path d="M11.9693 22.7502C11.3593 22.7502 10.7293 22.7002 10.0893 22.5902C5.68932 21.8402 2.09932 18.2402 1.36932 13.8202C0.789319 10.3102 1.87932 6.88015 4.36932 4.39015C6.85932 1.90015 10.2893 0.820153 13.7893 1.39015C18.1993 2.12015 21.8093 5.70015 22.5593 10.1002C22.7193 11.0702 22.7593 12.0202 22.6793 12.9202V12.9302C22.6593 13.1602 22.6193 13.3802 22.5593 13.6002C22.4893 13.8502 22.2993 14.0402 22.0593 14.1202C21.8193 14.2002 21.5493 14.1402 21.3493 13.9802C20.4093 13.1902 19.2093 12.7502 17.9693 12.7502C15.0693 12.7502 12.7193 15.1102 12.7193 18.0002C12.7193 19.2402 13.1593 20.4402 13.9493 21.3802C14.1193 21.5802 14.1693 21.8402 14.0893 22.0902C14.0093 22.3402 13.8193 22.5202 13.5693 22.5902C13.3493 22.6502 13.1293 22.6902 12.8993 22.7102C12.5993 22.7402 12.2893 22.7502 11.9693 22.7502ZM11.9693 2.75015C9.51932 2.75015 7.19932 3.70015 5.43932 5.46015C3.29932 7.60015 2.35932 10.5602 2.85932 13.5802C3.48932 17.3702 6.55932 20.4702 10.3493 21.1102C10.9493 21.2102 11.5193 21.2702 12.0693 21.2502C11.5293 20.2602 11.2393 19.1402 11.2393 18.0002C11.2393 14.2802 14.2693 11.2502 17.9893 11.2502C19.1293 11.2502 20.2493 11.5402 21.2393 12.0802C21.2493 11.5302 21.1993 10.9602 21.0993 10.3602C20.4593 6.58015 17.3593 3.50015 13.5693 2.88015C13.0193 2.79015 12.4893 2.75015 11.9693 2.75015Z" fill="#292D32"/>
<path d="M13.3787 22.61C13.1587 22.61 12.9488 22.52 12.8088 22.34C11.7888 21.13 11.2188 19.59 11.2188 18C11.2188 14.28 14.2487 11.25 17.9687 11.25C19.5587 11.25 21.0987 11.81 22.3087 12.84C22.5387 13.03 22.6287 13.34 22.5487 13.62C22.3687 14.24 22.0487 14.78 21.5887 15.24L15.2087 21.62C14.7487 22.08 14.1988 22.4 13.5887 22.58C13.5187 22.6 13.4487 22.61 13.3787 22.61ZM17.9687 12.75C15.0687 12.75 12.7188 15.11 12.7188 18C12.7188 19.06 13.0387 20.09 13.6287 20.95C13.8187 20.85 13.9887 20.72 14.1487 20.56L20.5288 14.18C20.6888 14.02 20.8187 13.85 20.9187 13.66C20.0588 13.07 19.0287 12.75 17.9687 12.75Z" fill="#292D32"/>
</svg>
