<svg width="24" height="24" viewBox="0 0 24 24" fill="none" xmlns="http://www.w3.org/2000/svg">
<path opacity="0.4" d="M10 3.75H11.25V8.5C11.25 8.91 11.59 9.25 12 9.25C12.41 9.25 12.75 8.91 12.75 8.5V3.75H14C14.41 3.75 14.75 3.41 14.75 3C14.75 2.59 14.41 2.25 14 2.25H10C9.59 2.25 9.25 2.59 9.25 3C9.25 3.41 9.59 3.75 10 3.75Z" fill="#292D32"/>
<path opacity="0.4" d="M14 20.25H12.75V15.5C12.75 15.09 12.41 14.75 12 14.75C11.59 14.75 11.25 15.09 11.25 15.5V20.25H10C9.59 20.25 9.25 20.59 9.25 21C9.25 21.41 9.59 21.75 10 21.75H14C14.41 21.75 14.75 21.41 14.75 21C14.75 20.59 14.41 20.25 14 20.25Z" fill="#292D32"/>
<path opacity="0.4" d="M2.8294 9.87994C2.9494 9.94994 3.0794 9.97994 3.1994 9.97994C3.4594 9.97994 3.7094 9.84993 3.8494 9.59993L4.4794 8.51994L8.5994 10.8999C8.7094 10.9699 8.8394 10.9999 8.9694 10.9999C9.2294 10.9999 9.4794 10.8699 9.6194 10.6199C9.8294 10.2599 9.6994 9.79993 9.3494 9.59993L5.2394 7.21994L5.8594 6.13994C6.0694 5.77994 5.9394 5.31993 5.5894 5.11993C5.2294 4.90993 4.7694 5.02994 4.5694 5.38994L2.5694 8.84993C2.3494 9.21993 2.4694 9.66994 2.8294 9.87994Z" fill="#292D32"/>
<path opacity="0.4" d="M21.1704 14.1202C20.8104 13.9102 20.3504 14.0302 20.1504 14.3902L19.5204 15.4702L15.4004 13.1002C15.0404 12.8902 14.5804 13.0202 14.3804 13.3702C14.1704 13.7302 14.3004 14.1902 14.6504 14.3902L18.7604 16.7702L18.1404 17.8502C17.9304 18.2102 18.0604 18.6702 18.4104 18.8702C18.5304 18.9402 18.6604 18.9702 18.7804 18.9702C19.0404 18.9702 19.2904 18.8402 19.4304 18.5902L21.4304 15.1302C21.6504 14.7802 21.5304 14.3302 21.1704 14.1202Z" fill="#292D32"/>
<path opacity="0.4" d="M18.7704 7.22019L14.6604 9.60019C14.3004 9.81019 14.1804 10.2702 14.3904 10.6202C14.5304 10.8602 14.7804 11.0002 15.0404 11.0002C15.1704 11.0002 15.3004 10.9702 15.4104 10.9002L19.5204 8.52019L20.1504 9.60019C20.2904 9.84019 20.5404 9.98019 20.8004 9.98019C20.9304 9.98019 21.0604 9.95019 21.1704 9.88019C21.5304 9.67019 21.6504 9.21019 21.4404 8.86019L19.4404 5.40019C19.2304 5.04019 18.7704 4.92019 18.4204 5.13019C18.0604 5.34019 17.9404 5.80019 18.1504 6.15019L18.7704 7.22019Z" fill="#292D32"/>
<path opacity="0.4" d="M5.23036 16.7802L9.34036 14.4002C9.70037 14.1902 9.82036 13.7302 9.61036 13.3802C9.40036 13.0202 8.94036 12.9002 8.59036 13.1102L4.48036 15.4902L3.85036 14.4102C3.64036 14.0502 3.18036 13.9302 2.83036 14.1402C2.47036 14.3502 2.35036 14.8102 2.56036 15.1602L4.56036 18.6202C4.70036 18.8602 4.95036 19.0002 5.21036 19.0002C5.34036 19.0002 5.47036 18.9702 5.58036 18.9002C5.94036 18.6902 6.06036 18.2302 5.85036 17.8802L5.23036 16.7802Z" fill="#292D32"/>
<path d="M15.5 12C15.5 12.64 15.33 13.23 15.03 13.75C14.42 14.8 13.29 15.5 12 15.5C10.71 15.5 9.58 14.8 8.97 13.75C8.67 13.23 8.5 12.64 8.5 12C8.5 11.36 8.67 10.77 8.97 10.25C9.58 9.2 10.71 8.5 12 8.5C13.29 8.5 14.42 9.2 15.03 10.25C15.33 10.77 15.5 11.36 15.5 12Z" fill="#292D32"/>
</svg>
