<svg width="24" height="24" viewBox="0 0 24 24" fill="none" xmlns="http://www.w3.org/2000/svg">
<path d="M12.0691 21.9797C10.6591 21.9797 9.23911 21.4397 8.16911 20.3697L3.63911 15.8397C2.53911 14.7397 1.95911 13.2197 2.02911 11.6697L2.26911 6.66969C2.37911 4.27969 4.26911 2.38969 6.66911 2.26969L11.6691 2.02969C13.2191 1.96969 14.7391 2.53969 15.8391 3.63969L20.3691 8.16969C22.5191 10.3197 22.5191 13.8297 20.3691 15.9797L15.9791 20.3697C14.8991 21.4397 13.4891 21.9797 12.0691 21.9797ZM4.69911 14.7697L9.22911 19.2997C9.98911 20.0597 10.9991 20.4797 12.0691 20.4797C13.1391 20.4797 14.1491 20.0597 14.9091 19.2997L19.2991 14.9097C20.0591 14.1497 20.4791 13.1397 20.4791 12.0697C20.4791 10.9997 20.0591 9.98969 19.2991 9.22969L14.7691 4.69969C13.9691 3.89969 12.8591 3.46969 11.7391 3.52969L6.73911 3.76969C5.10911 3.83969 3.83911 5.10969 3.75911 6.72969L3.51911 11.7297C3.46911 12.8597 3.89911 13.9697 4.69911 14.7697Z" fill="#292D32"/>
<path d="M9.5 12.75C7.71 12.75 6.25 11.29 6.25 9.5C6.25 7.71 7.71 6.25 9.5 6.25C11.29 6.25 12.75 7.71 12.75 9.5C12.75 11.29 11.29 12.75 9.5 12.75ZM9.5 7.75C8.54 7.75 7.75 8.54 7.75 9.5C7.75 10.46 8.54 11.25 9.5 11.25C10.46 11.25 11.25 10.46 11.25 9.5C11.25 8.54 10.46 7.75 9.5 7.75Z" fill="#292D32"/>
</svg>
