<svg width="24" height="24" viewBox="0 0 24 24" fill="none" xmlns="http://www.w3.org/2000/svg">
<path d="M18.0605 22.1598H5.94046C3.99046 22.1598 2.50046 21.4498 1.74046 20.1698C0.990464 18.8898 1.09046 17.2398 2.04046 15.5398L8.10046 4.62984C9.10046 2.82984 10.4805 1.83984 12.0005 1.83984C13.5205 1.83984 14.9005 2.82984 15.9005 4.62984L21.9605 15.5398C22.9105 17.2498 23.0205 18.8898 22.2605 20.1698C21.5005 21.4498 20.0105 22.1598 18.0605 22.1598ZM12.0005 3.33984C11.0605 3.33984 10.1405 4.05984 9.41046 5.35984L3.36046 16.2698C2.68046 17.4898 2.57046 18.6098 3.04046 19.4198C3.51046 20.2198 4.55046 20.6698 5.95046 20.6698H18.0705C19.4705 20.6698 20.5005 20.2298 20.9805 19.4198C21.4505 18.6098 21.3405 17.4998 20.6605 16.2698L14.5905 5.35984C13.8605 4.05984 12.9405 3.33984 12.0005 3.33984Z" fill="#292D32"/>
<path d="M21.4408 20.75C21.2908 20.75 21.1408 20.71 21.0108 20.61L12.0008 14.3L2.99084 20.61C2.65084 20.85 2.18084 20.77 1.95084 20.43C1.71084 20.09 1.79084 19.62 2.13084 19.39L11.5708 12.78C11.8308 12.6 12.1708 12.6 12.4308 12.78L21.8708 19.39C22.2108 19.63 22.2908 20.1 22.0508 20.43C21.9108 20.64 21.6808 20.75 21.4408 20.75Z" fill="#292D32"/>
<path d="M12 14.14C11.59 14.14 11.25 13.8 11.25 13.39V3C11.25 2.59 11.59 2.25 12 2.25C12.41 2.25 12.75 2.59 12.75 3V13.39C12.75 13.8 12.41 14.14 12 14.14Z" fill="#292D32"/>
</svg>
