<svg width="24" height="24" viewBox="0 0 24 24" fill="none" xmlns="http://www.w3.org/2000/svg">
<path d="M12.0002 14C6.99016 14 2.91016 17.36 2.91016 21.5C2.91016 21.78 3.13016 22 3.41016 22H20.5902C20.8702 22 21.0902 21.78 21.0902 21.5C21.0902 17.36 17.0102 14 12.0002 14Z" fill="#292D32"/>
<path d="M15.71 3.66C14.81 2.64 13.47 2 12 2C10.6 2 9.32 2.57 8.41 3.51C7.54 4.41 7 5.65 7 7C7 7.94 7.26 8.82 7.73 9.57C7.98 10 8.3 10.39 8.68 10.71C9.55 11.51 10.71 12 12 12C13.83 12 15.41 11.02 16.28 9.57C16.54 9.14 16.74 8.66 16.85 8.16C16.95 7.79 17 7.4 17 7C17 5.72 16.51 4.55 15.71 3.66ZM13.87 7.92H10.13C9.61 7.92 9.19 7.5 9.19 6.98C9.19 6.46 9.61 6.04 10.13 6.04H13.87C14.39 6.04 14.81 6.46 14.81 6.98C14.81 7.5 14.39 7.92 13.87 7.92Z" fill="#292D32"/>
</svg>
