<svg width="24" height="24" viewBox="0 0 24 24" fill="none" xmlns="http://www.w3.org/2000/svg">
<path d="M12.0002 14C6.99016 14 2.91016 17.36 2.91016 21.5C2.91016 21.78 3.13016 22 3.41016 22H20.5902C20.8702 22 21.0902 21.78 21.0902 21.5C21.0902 17.36 17.0102 14 12.0002 14Z" fill="#292D32"/>
<path d="M16.8506 5.79813C16.7306 5.30813 16.5306 4.82813 16.2506 4.38813C16.0606 4.06813 15.8106 3.74813 15.5406 3.46813C14.6406 2.56813 13.4706 2.07813 12.2706 2.01813C10.9106 1.92813 9.52058 2.42813 8.47058 3.46813C7.48058 4.44813 6.98058 5.75813 7.00058 7.07813C7.01058 8.32813 7.51058 9.57813 8.46058 10.5381C9.12058 11.1981 9.93058 11.6381 10.8006 11.8381C11.2706 11.9581 11.7706 12.0181 12.2706 11.9781C13.4606 11.9281 14.6206 11.4581 15.5306 10.5381C16.8206 9.24813 17.2606 7.43813 16.8506 5.79813ZM14.0006 8.99813C13.6406 9.35813 13.0406 9.35813 12.6806 8.99813L11.9906 8.30813L11.3306 8.96813C10.9706 9.32813 10.3706 9.32813 10.0106 8.96813C9.64058 8.59813 9.64058 8.00813 10.0006 7.64813L10.6606 6.98813L10.0206 6.36813C9.66058 5.99813 9.66058 5.40813 10.0206 5.02813C10.3906 4.66813 10.9806 4.66813 11.3606 5.02813L11.9806 5.66813L12.6506 4.99813C13.0106 4.63813 13.6006 4.63813 13.9706 4.99813C14.3306 5.35813 14.3306 5.95813 13.9706 6.31813L13.3106 6.97813L14.0006 7.67813C14.3606 8.03813 14.3606 8.63813 14.0006 8.99813Z" fill="#292D32"/>
</svg>
