<svg width="24" height="24" viewBox="0 0 24 24" fill="none" xmlns="http://www.w3.org/2000/svg">
<path d="M15 22.75H9C3.57 22.75 1.25 20.43 1.25 15V9C1.25 3.57 3.57 1.25 9 1.25H15C20.43 1.25 22.75 3.57 22.75 9V15C22.75 20.43 20.43 22.75 15 22.75ZM9 2.75C4.39 2.75 2.75 4.39 2.75 9V15C2.75 19.61 4.39 21.25 9 21.25H15C19.61 21.25 21.25 19.61 21.25 15V9C21.25 4.39 19.61 2.75 15 2.75H9Z" fill="#292D32"/>
<path d="M21.4795 17.8604H2.51953C2.10953 17.8604 1.76953 17.5204 1.76953 17.1104C1.76953 16.7004 2.10953 16.3604 2.51953 16.3604H21.4795C21.8895 16.3604 22.2295 16.7004 22.2295 17.1104C22.2295 17.5204 21.8995 17.8604 21.4795 17.8604Z" fill="#292D32"/>
<path d="M21.4795 7.86035H2.51953C2.10953 7.86035 1.76953 7.52035 1.76953 7.11035C1.76953 6.70035 2.09953 6.36035 2.51953 6.36035H21.4795C21.8895 6.36035 22.2295 6.70035 22.2295 7.11035C22.2295 7.52035 21.8995 7.86035 21.4795 7.86035Z" fill="#292D32"/>
<path d="M6.9707 22.2104C6.5607 22.2104 6.2207 21.8703 6.2207 21.4604V17.1104C6.2207 16.7004 6.5607 16.3604 6.9707 16.3604C7.3807 16.3604 7.7207 16.7004 7.7207 17.1104V21.4604C7.7207 21.8804 7.3807 22.2104 6.9707 22.2104Z" fill="#292D32"/>
<path d="M12 22.7204C11.59 22.7204 11.25 22.3804 11.25 21.9704V17.1104C11.25 16.7004 11.59 16.3604 12 16.3604C12.41 16.3604 12.75 16.7004 12.75 17.1104V21.9704C12.75 22.3804 12.41 22.7204 12 22.7204Z" fill="#292D32"/>
<path d="M16.9707 22.2704C16.5607 22.2704 16.2207 21.9304 16.2207 21.5204V17.1104C16.2207 16.7004 16.5607 16.3604 16.9707 16.3604C17.3807 16.3604 17.7207 16.7004 17.7207 17.1104V21.5204C17.7207 21.9404 17.3807 22.2704 16.9707 22.2704Z" fill="#292D32"/>
<path d="M6.9707 7.21035C6.5607 7.21035 6.2207 6.87035 6.2207 6.46035V2.11035C6.2207 1.70035 6.5607 1.36035 6.9707 1.36035C7.3807 1.36035 7.7207 1.70035 7.7207 2.11035V6.46035C7.7207 6.88035 7.3807 7.21035 6.9707 7.21035Z" fill="#292D32"/>
<path d="M12 7.72035C11.59 7.72035 11.25 7.38035 11.25 6.97035V2.11035C11.25 1.70035 11.59 1.36035 12 1.36035C12.41 1.36035 12.75 1.70035 12.75 2.11035V6.97035C12.75 7.38035 12.41 7.72035 12 7.72035Z" fill="#292D32"/>
<path d="M12 18.7803C11.59 18.7803 11.25 18.4403 11.25 18.0303V7.03027C11.25 6.62027 11.59 6.28027 12 6.28027C12.41 6.28027 12.75 6.62027 12.75 7.03027V18.0303C12.75 18.4403 12.41 18.7803 12 18.7803Z" fill="#292D32"/>
<path d="M16.9707 7.27035C16.5607 7.27035 16.2207 6.93035 16.2207 6.52035V2.11035C16.2207 1.70035 16.5607 1.36035 16.9707 1.36035C17.3807 1.36035 17.7207 1.70035 17.7207 2.11035V6.52035C17.7207 6.94035 17.3807 7.27035 16.9707 7.27035Z" fill="#292D32"/>
</svg>
