<svg width="24" height="24" viewBox="0 0 24 24" fill="none" xmlns="http://www.w3.org/2000/svg">
<path d="M12.76 20.7504C11.95 20.7504 11.08 20.4704 10.18 19.9104L7.2 18.0504C6.99 17.9204 6.76 17.8504 6.52 17.8504H5.06C2.6 17.8504 1.25 16.5004 1.25 14.0404V9.96045C1.25 7.50045 2.6 6.15045 5.06 6.15045H6.52C6.76 6.15045 7 6.08045 7.2 5.95045L10.18 4.09045C11.67 3.16045 13.11 2.99045 14.25 3.63045C15.39 4.26045 16.01 5.57045 16.01 7.33045V16.6904C16.01 18.4404 15.38 19.7604 14.25 20.3904C13.8 20.6304 13.3 20.7504 12.76 20.7504ZM5.06 7.65045C3.44 7.65045 2.75 8.34045 2.75 9.96045V14.0404C2.75 15.6604 3.44 16.3504 5.06 16.3504H6.52C7.04 16.3504 7.55 16.5004 8 16.7704L10.98 18.6304C11.97 19.2504 12.9 19.4004 13.53 19.0604C14.16 18.7104 14.52 17.8404 14.52 16.6804V7.32045C14.52 6.15045 14.16 5.28045 13.53 4.94045C12.9 4.59045 11.97 4.75045 10.98 5.37045L8 7.22045C7.55 7.50045 7.04 7.65045 6.52 7.65045H5.06Z" fill="#292D32"/>
<path d="M22 12.75H18C17.59 12.75 17.25 12.41 17.25 12C17.25 11.59 17.59 11.25 18 11.25H22C22.41 11.25 22.75 11.59 22.75 12C22.75 12.41 22.41 12.75 22 12.75Z" fill="#292D32"/>
</svg>
