<svg width="24" height="24" viewBox="0 0 24 24" fill="none" xmlns="http://www.w3.org/2000/svg">
<path d="M5 15C2.79 15 1 16.79 1 19C1 19.75 1.21 20.46 1.58 21.06C2.27 22.22 3.54 23 5 23C6.46 23 7.73 22.22 8.42 21.06C8.79 20.46 9 19.75 9 19C9 16.79 7.21 15 5 15ZM6.49 19.73H5.75V20.51C5.75 20.92 5.41 21.26 5 21.26C4.59 21.26 4.25 20.92 4.25 20.51V19.73H3.51C3.1 19.73 2.76 19.39 2.76 18.98C2.76 18.57 3.1 18.23 3.51 18.23H4.25V17.52C4.25 17.11 4.59 16.77 5 16.77C5.41 16.77 5.75 17.11 5.75 17.52V18.23H6.49C6.9 18.23 7.24 18.57 7.24 18.98C7.24 19.39 6.91 19.73 6.49 19.73Z" fill="#292D32"/>
<path d="M21.5 12.5H19C17.9 12.5 17 13.4 17 14.5C17 15.6 17.9 16.5 19 16.5H21.5C21.78 16.5 22 16.28 22 16V13C22 12.72 21.78 12.5 21.5 12.5Z" fill="#292D32"/>
<path d="M16.5292 5.40016C16.8292 5.69016 16.5792 6.14016 16.1592 6.14016L7.87923 6.13016C7.39923 6.13016 7.15923 5.55016 7.49923 5.21016L9.24923 3.45016C10.7292 1.98016 13.1192 1.98016 14.5992 3.45016L16.4892 5.36016C16.4992 5.37016 16.5192 5.39016 16.5292 5.40016Z" fill="#292D32"/>
<path d="M21.8694 18.66C21.2594 20.72 19.4994 22 17.0994 22H10.5994C10.2094 22 9.95938 21.57 10.1194 21.21C10.4194 20.51 10.6094 19.72 10.6094 19C10.6094 15.97 8.13938 13.5 5.10938 13.5C4.34938 13.5 3.60938 13.66 2.92938 13.96C2.55938 14.12 2.10938 13.87 2.10938 13.47V12C2.10938 9.28 3.74938 7.38 6.29938 7.06C6.54938 7.02 6.81937 7 7.09937 7H17.0994C17.3594 7 17.6094 7.01 17.8494 7.05C19.8694 7.28 21.3294 8.51 21.8694 10.34C21.9694 10.67 21.7294 11 21.3894 11H19.0994C16.9294 11 15.2094 12.98 15.6794 15.23C16.0094 16.87 17.5294 18 19.1994 18H21.3894C21.7394 18 21.9694 18.34 21.8694 18.66Z" fill="#292D32"/>
</svg>
