<svg width="24" height="24" viewBox="0 0 24 24" fill="none" xmlns="http://www.w3.org/2000/svg">
<path d="M22.0002 12.6216V14.6816C22.0002 15.2416 21.5402 15.7016 20.9702 15.7016H19.0402C17.9602 15.7016 16.9702 14.9116 16.8802 13.8316C16.8202 13.2016 17.0602 12.6116 17.4802 12.2016C17.8502 11.8216 18.3602 11.6016 18.9202 11.6016H20.9702C21.5402 11.6016 22.0002 12.0616 22.0002 12.6216Z" fill="#292D32"/>
<path d="M15.38 13.9584C15.29 12.9084 15.67 11.8784 16.43 11.1284C17.07 10.4784 17.96 10.0984 18.92 10.0984H19.49C19.77 10.0984 20 9.86844 19.96 9.58844C19.69 7.64844 18.01 6.14844 16 6.14844H6C3.79 6.14844 2 7.93844 2 10.1484V17.1484C2 19.3584 3.79 21.1484 6 21.1484H16C18.02 21.1484 19.69 19.6484 19.96 17.7084C20 17.4284 19.77 17.1984 19.49 17.1984H19.04C17.14 17.1984 15.54 15.7784 15.38 13.9584ZM13 11.8984H7C6.59 11.8984 6.25 11.5684 6.25 11.1484C6.25 10.7284 6.59 10.3984 7 10.3984H13C13.41 10.3984 13.75 10.7384 13.75 11.1484C13.75 11.5584 13.41 11.8984 13 11.8984Z" fill="#292D32"/>
<path d="M14.2106 3.98156C14.4706 4.25156 14.2406 4.65156 13.8606 4.65156H6.03064C4.94064 4.65156 3.92064 4.97156 3.07064 5.52156C2.68064 5.77156 2.15064 5.50156 2.34064 5.07156C2.90064 3.76156 4.21064 2.85156 5.72064 2.85156H11.3406C12.5006 2.85156 13.5306 3.26156 14.2106 3.98156Z" fill="#292D32"/>
</svg>
