<svg width="24" height="24" viewBox="0 0 24 24" fill="none" xmlns="http://www.w3.org/2000/svg">
<path d="M12.0019 16.3319C9.61187 16.3319 7.67188 14.3919 7.67188 12.0019C7.67188 9.61187 9.61187 7.67188 12.0019 7.67188C14.3919 7.67188 16.3319 9.61187 16.3319 12.0019C16.3319 14.3919 14.3919 16.3319 12.0019 16.3319ZM12.0019 9.17188C10.4419 9.17188 9.17188 10.4419 9.17188 12.0019C9.17188 13.5619 10.4419 14.8319 12.0019 14.8319C13.5619 14.8319 14.8319 13.5619 14.8319 12.0019C14.8319 10.4419 13.5619 9.17188 12.0019 9.17188Z" fill="#292D32"/>
<path d="M11.9981 21.0205C8.23813 21.0205 4.68813 18.8205 2.24812 15.0005C1.18813 13.3505 1.18813 10.6605 2.24812 9.00047C4.69813 5.18047 8.24813 2.98047 11.9981 2.98047C15.7481 2.98047 19.2981 5.18047 21.7381 9.00047C22.7981 10.6505 22.7981 13.3405 21.7381 15.0005C19.2981 18.8205 15.7481 21.0205 11.9981 21.0205ZM11.9981 4.48047C8.76813 4.48047 5.67813 6.42047 3.51813 9.81047C2.76813 10.9805 2.76813 13.0205 3.51813 14.1905C5.67813 17.5805 8.76813 19.5205 11.9981 19.5205C15.2281 19.5205 18.3181 17.5805 20.4781 14.1905C21.2281 13.0205 21.2281 10.9805 20.4781 9.81047C18.3181 6.42047 15.2281 4.48047 11.9981 4.48047Z" fill="#292D32"/>
</svg>
