<svg width="24" height="24" viewBox="0 0 24 24" fill="none" xmlns="http://www.w3.org/2000/svg">
<path d="M12.0004 22.7592C10.9104 22.7592 9.83041 22.4392 8.98041 21.8092L4.68039 18.5992C3.54039 17.7492 2.65039 15.9792 2.65039 14.5592V7.12922C2.65039 5.58922 3.78041 3.94921 5.23041 3.40921L10.2204 1.53922C11.2104 1.16922 12.7704 1.16922 13.7604 1.53922L18.7604 3.40921C20.2104 3.94921 21.3404 5.58922 21.3404 7.12922V14.5592C21.3404 15.9792 20.4504 17.7492 19.3104 18.5992L15.0104 21.8092C14.1704 22.4392 13.0904 22.7592 12.0004 22.7592ZM10.7504 2.93921L5.76041 4.80921C4.90041 5.12921 4.15039 6.20922 4.15039 7.12922V14.5592C4.15039 15.5092 4.8204 16.8392 5.5704 17.3992L9.87039 20.6092C11.0204 21.4692 12.9704 21.4692 14.1204 20.6092L18.4204 17.3992C19.1804 16.8292 19.8404 15.4992 19.8404 14.5592V7.12922C19.8404 6.21922 19.0904 5.13921 18.2304 4.80921L13.2404 2.93921C12.5804 2.68921 11.4204 2.68921 10.7504 2.93921Z" fill="#292D32"/>
<path d="M11.9999 11.6702C11.9799 11.6702 11.9599 11.6702 11.9299 11.6702C10.4799 11.6302 9.41992 10.5202 9.41992 9.17017C9.41992 7.79017 10.5499 6.66016 11.9299 6.66016C13.3099 6.66016 14.4399 7.79017 14.4399 9.17017C14.4299 10.5302 13.3699 11.6301 12.0199 11.6801C12.0099 11.6701 12.0099 11.6702 11.9999 11.6702ZM11.9299 8.16016C11.3699 8.16016 10.9199 8.61017 10.9199 9.17017C10.9199 9.72017 11.3499 10.1601 11.8899 10.1801C11.8899 10.1801 11.9399 10.1801 11.9999 10.1801C12.5299 10.1501 12.9399 9.71017 12.9399 9.17017C12.9499 8.61017 12.4899 8.16016 11.9299 8.16016Z" fill="#292D32"/>
<path d="M12.0008 17.3509C11.1408 17.3509 10.2708 17.1209 9.6008 16.6709C8.9308 16.2309 8.55078 15.581 8.55078 14.891C8.55078 14.201 8.9308 13.5509 9.6008 13.1009C10.9508 12.2009 13.0608 12.2109 14.4008 13.1009C15.0708 13.5409 15.4508 14.1909 15.4508 14.8809C15.4508 15.5709 15.0708 16.2209 14.4008 16.6709C13.7308 17.1209 12.8608 17.3509 12.0008 17.3509ZM10.4308 14.3409C10.1808 14.5009 10.0408 14.7009 10.0508 14.8809C10.0508 15.0609 10.1908 15.2609 10.4308 15.4209C11.2708 15.9809 12.7308 15.9809 13.5708 15.4209C13.8208 15.2609 13.9608 15.0609 13.9608 14.8809C13.9608 14.7009 13.8208 14.5009 13.5808 14.3409C12.7408 13.7909 11.2708 13.7909 10.4308 14.3409Z" fill="#292D32"/>
</svg>
