<svg width="24" height="24" viewBox="0 0 24 24" fill="none" xmlns="http://www.w3.org/2000/svg">
<path d="M11.9984 22.7514C10.8684 22.7514 9.78844 22.4214 8.97844 21.8114L4.67844 18.6014C3.53844 17.7514 2.64844 15.9814 2.64844 14.5614V7.12141C2.64844 5.58141 3.77844 3.94141 5.22844 3.40141L10.2184 1.53141C11.2084 1.16141 12.7684 1.16141 13.7584 1.53141L18.7584 3.40141C20.2084 3.94141 21.3384 5.58141 21.3384 7.12141V10.5514C21.3384 10.9614 20.9984 11.3014 20.5884 11.3014C20.1784 11.3014 19.8384 10.9614 19.8384 10.5514V7.12141C19.8384 6.21141 19.0884 5.13141 18.2284 4.80141L13.2384 2.93141C12.5784 2.68141 11.4084 2.68141 10.7484 2.93141L5.75844 4.81141C4.89844 5.13141 4.14844 6.21141 4.14844 7.13141V14.5614C4.14844 15.5114 4.81844 16.8414 5.56844 17.4014L9.86844 20.6114C10.4184 21.0214 11.1884 21.2514 11.9884 21.2514C12.3984 21.2514 12.7384 21.5914 12.7384 22.0014C12.7384 22.4114 12.4084 22.7514 11.9984 22.7514Z" fill="#292D32"/>
<path d="M16 20.75C13.38 20.75 11.25 18.62 11.25 16C11.25 13.38 13.38 11.25 16 11.25C18.62 11.25 20.75 13.38 20.75 16C20.75 18.62 18.62 20.75 16 20.75ZM16 12.76C14.21 12.76 12.75 14.22 12.75 16.01C12.75 17.8 14.21 19.26 16 19.26C17.79 19.26 19.25 17.8 19.25 16.01C19.25 14.22 17.79 12.76 16 12.76Z" fill="#292D32"/>
<path d="M21 21.9992C20.93 21.9992 20.87 21.9892 20.8 21.9792C20.74 21.9692 20.68 21.9492 20.62 21.9192C20.56 21.8992 20.5 21.8692 20.44 21.8292C20.39 21.7892 20.34 21.7492 20.29 21.7092C20.11 21.5192 20 21.2592 20 20.9992C20 20.8692 20.03 20.7392 20.08 20.6192C20.13 20.4992 20.2 20.3892 20.29 20.2892C20.66 19.9192 21.34 19.9192 21.71 20.2892C21.8 20.3892 21.87 20.4992 21.92 20.6192C21.97 20.7392 22 20.8692 22 20.9992C22 21.2592 21.89 21.5192 21.71 21.7092C21.52 21.8892 21.26 21.9992 21 21.9992Z" fill="#292D32"/>
</svg>
