<svg width="24" height="24" viewBox="0 0 24 24" fill="none" xmlns="http://www.w3.org/2000/svg">
<path d="M18.75 22C20.5449 22 22 20.5449 22 18.75C22 16.9551 20.5449 15.5 18.75 15.5C16.9551 15.5 15.5 16.9551 15.5 18.75C15.5 20.5449 16.9551 22 18.75 22Z" fill="#292D32"/>
<path d="M19 8C20.6569 8 22 6.65685 22 5C22 3.34315 20.6569 2 19 2C17.3431 2 16 3.34315 16 5C16 6.65685 17.3431 8 19 8Z" fill="#292D32"/>
<path d="M5 8C6.65685 8 8 6.65685 8 5C8 3.34315 6.65685 2 5 2C3.34315 2 2 3.34315 2 5C2 6.65685 3.34315 8 5 8Z" fill="#292D32"/>
<path opacity="0.4" d="M4.83039 8.01953C5.80039 10.7995 8.42039 12.6695 11.3704 12.6695C11.3804 12.6695 11.3904 12.6695 11.4004 12.6695L14.9304 12.6595C16.4504 12.6395 17.8104 13.6695 18.2204 15.1495V16.9995C18.2204 17.4195 18.5604 17.7595 18.9804 17.7595C19.4004 17.7595 19.7404 17.4195 19.7404 16.9995V5.77953C19.7404 5.35953 19.4004 5.01953 18.9804 5.01953C18.5604 5.01953 18.2204 5.35953 18.2204 5.77953V12.3995C17.3404 11.6195 16.1904 11.1395 14.9404 11.1395C14.9304 11.1395 14.9304 11.1395 14.9204 11.1395L11.3904 11.1495C11.3804 11.1495 11.3804 11.1495 11.3704 11.1495C9.08039 11.1495 7.03039 9.69953 6.28039 7.52953C6.17039 7.20953 5.87039 7.01953 5.56039 7.01953C5.48039 7.01953 5.39039 7.02952 5.31039 7.05952C4.90039 7.17952 4.69039 7.61953 4.83039 8.01953Z" fill="#292D32"/>
</svg>
