<svg width="24" height="24" viewBox="0 0 24 24" fill="none" xmlns="http://www.w3.org/2000/svg">
<path opacity="0.4" d="M7.81 22H16.19C19.83 22 22 19.83 22 16.19V7.81C22 7.61 21.99 7.41 21.98 7.22C21.9 5.99 21.55 4.95 20.95 4.13C20.66 3.71 20.29 3.34 19.87 3.05C18.92 2.36 17.68 2 16.19 2H7.81C4.37 2 2.24 3.94 2.03 7.22C2.01 7.41 2 7.61 2 7.81V16.19C2 17.68 2.36 18.92 3.05 19.87C3.34 20.29 3.71 20.66 4.13 20.95C5.08 21.64 6.32 22 7.81 22Z" fill="#292D32"/>
<path d="M2 8.71875H22V7.80875C22 7.60875 21.99 7.40875 21.98 7.21875H2.03C2.01 7.40875 2 7.60875 2 7.80875V8.71875Z" fill="#292D32"/>
<path d="M15.3109 14.9716C15.3109 14.7816 15.2409 14.5916 15.0909 14.4416L12.5309 11.8816C12.2409 11.5916 11.7609 11.5916 11.4709 11.8816L8.91086 14.4416C8.62086 14.7316 8.62086 15.2116 8.91086 15.5016C9.20086 15.7916 9.68086 15.7916 9.97086 15.5016L12.0009 13.4816L14.0309 15.5116C14.3209 15.8016 14.8009 15.8016 15.0909 15.5116C15.2409 15.3616 15.3109 15.1716 15.3109 14.9716Z" fill="#292D32"/>
</svg>
