<svg width="24" height="24" viewBox="0 0 24 24" fill="none" xmlns="http://www.w3.org/2000/svg">
<path d="M11.9999 22.5002C11.5999 22.5002 11.1999 22.4102 10.8799 22.2302L5.55992 19.1902C4.75992 18.7302 4.28992 17.7002 4.46992 16.7902L6.17991 8.22016C6.24991 7.89016 6.43992 7.48016 6.65992 7.22016L10.2599 2.90016C11.1499 1.83016 12.8299 1.83016 13.7199 2.90016L17.3199 7.22016C17.5399 7.48016 17.7299 7.89016 17.7999 8.22016L19.5099 16.7902C19.6899 17.7002 19.2199 18.7302 18.4199 19.1802L13.0999 22.2202C12.7999 22.4102 12.3999 22.5002 11.9999 22.5002ZM11.9999 3.56016C11.7899 3.56016 11.5899 3.67016 11.4199 3.86016L7.81993 8.18016C7.76993 8.24016 7.67992 8.43016 7.65992 8.51016L5.94993 17.0802C5.89993 17.3502 6.07992 17.7402 6.30992 17.8802L11.6299 20.9202C11.8099 21.0202 12.1999 21.0202 12.3699 20.9202L17.6899 17.8802C17.9299 17.7402 18.1099 17.3502 18.0499 17.0802L16.3399 8.51016C16.3199 8.43016 16.2299 8.24016 16.1799 8.18016L12.5799 3.86016C12.4099 3.67016 12.2099 3.56016 11.9999 3.56016Z" fill="black"/>
<path d="M12.0004 21.7598C11.4604 21.7598 11.0004 21.4298 10.8204 20.9298L6.47042 8.74976C6.33042 8.35976 6.53043 7.92976 6.92043 7.78976C7.31043 7.64976 7.74043 7.84976 7.88043 8.23976L12.0004 19.7698L16.1104 8.26976C16.2504 7.87976 16.6804 7.67976 17.0704 7.81976C17.4604 7.95976 17.6604 8.38976 17.5204 8.77976L13.1804 20.9398C13.0004 21.4398 12.5404 21.7598 12.0004 21.7598Z" fill="black"/>
</svg>
