<svg width="24" height="24" viewBox="0 0 24 24" fill="none" xmlns="http://www.w3.org/2000/svg">
<path d="M17.2802 9.8901C17.1202 9.8901 16.9501 9.8601 16.7901 9.7901L12.0202 7.6701L7.20018 9.7901C6.70018 10.0101 6.11019 9.8701 5.77019 9.4301C5.43019 8.9901 5.44016 8.3801 5.80016 7.9601L10.8002 1.8501C11.4102 1.1001 12.5902 1.1001 13.2102 1.8501L18.2102 7.9601C18.5602 8.3901 18.5702 8.9901 18.2402 9.4301C17.9902 9.7201 17.6402 9.8901 17.2802 9.8901ZM12.0002 6.1601C12.2102 6.1601 12.4302 6.2001 12.6302 6.2901L16.2102 7.8801L12.0401 2.7901L7.81017 7.8701L11.3702 6.2901C11.5702 6.2001 11.7802 6.1601 12.0002 6.1601Z" fill="black"/>
<path d="M11.9995 22.7502C11.5395 22.7502 11.0995 22.5402 10.7995 22.1602L5.7995 16.0502C5.4495 15.6202 5.43953 15.0202 5.76953 14.5802C6.10953 14.1402 6.68953 13.9902 7.19953 14.2102L11.9795 16.3302L16.7995 14.2102C17.3095 13.9902 17.8895 14.1402 18.2295 14.5802C18.5595 15.0202 18.5495 15.6202 18.1995 16.0502L13.1995 22.1602C12.8995 22.5402 12.4595 22.7502 11.9995 22.7502ZM7.78949 16.1202L11.9495 21.2102L16.1795 16.1302L12.6295 17.7102C12.2295 17.8902 11.7695 17.8902 11.3695 17.7102L7.78949 16.1202Z" fill="black"/>
<path d="M12 15.3699C11.88 15.3699 11.77 15.3399 11.67 15.2899L6.41998 12.6699C6.16998 12.5399 6 12.2799 6 11.9999C6 11.7199 6.15998 11.4599 6.41998 11.3299L11.67 8.70994C11.88 8.59994 12.13 8.59994 12.34 8.70994L17.59 11.3299C17.84 11.4599 18.01 11.7199 18.01 11.9999C18.01 12.2799 17.85 12.5399 17.59 12.6699L12.34 15.2899C12.23 15.3499 12.12 15.3699 12 15.3699ZM8.42999 11.9999L12 13.7799L15.57 11.9999L12 10.2199L8.42999 11.9999Z" fill="black"/>
</svg>
