<svg width="24" height="24" viewBox="0 0 24 24" fill="none" xmlns="http://www.w3.org/2000/svg">
<path d="M16.8896 15.9601C16.6996 15.9601 16.4996 15.8801 16.3596 15.7401L13.1696 12.5501C12.8796 12.2601 12.8796 11.7801 13.1696 11.4901L16.3896 8.27011C16.6196 8.04011 16.9696 7.99013 17.2596 8.13013L21.7496 10.3801C22.3696 10.6801 22.7596 11.3001 22.7596 12.0001C22.7596 12.7001 22.3696 13.3201 21.7496 13.6201L17.2396 15.8801C17.1196 15.9301 16.9996 15.9601 16.8896 15.9601ZM14.7596 12.0201L17.0296 14.2901L21.0596 12.2701C21.0596 12.2701 21.0596 12.2701 21.0696 12.2701C21.2196 12.2001 21.2396 12.0701 21.2396 12.0001C21.2396 11.9301 21.2196 11.8001 21.0696 11.7301L17.0596 9.72012L14.7596 12.0201Z" fill="black"/>
<path d="M3.07 22.75C2.74 22.75 2.4 22.66 2.11 22.47C1.57 22.14 1.25 21.56 1.25 20.92V3.06002C1.25 2.43002 1.57 1.85003 2.11 1.51003C2.65 1.18003 3.31 1.14002 3.88 1.43002L17.25 8.12002C17.47 8.23002 17.62 8.43004 17.65 8.67004C17.68 8.91004 17.61 9.15003 17.44 9.32003L4.64 22.12C4.58 22.18 4.52 22.22 4.44 22.26L3.86 22.55C3.62 22.69 3.34 22.75 3.07 22.75ZM3.07 2.75002C3 2.75002 2.94 2.78001 2.9 2.80001C2.84 2.83001 2.75 2.92003 2.75 3.07003V20.93C2.75 21.09 2.84 21.17 2.9 21.2C2.96 21.24 3.07 21.28 3.22 21.21L3.68 20.98L15.65 9.01003L3.21 2.79003C3.16 2.76003 3.11 2.75002 3.07 2.75002Z" fill="black"/>
<path d="M4.11999 22.35C3.88999 22.35 3.65999 22.24 3.50999 22.04C3.28999 21.74 3.32999 21.33 3.58999 21.07L13.17 11.49C13.31 11.35 13.5 11.27 13.7 11.27C13.9 11.27 14.09 11.35 14.23 11.49L17.42 14.68C17.59 14.85 17.67 15.09 17.63 15.33C17.59 15.57 17.44 15.77 17.23 15.88L4.46999 22.27C4.34999 22.32 4.23999 22.35 4.11999 22.35ZM13.7 13.08L7.92999 18.85L15.62 15L13.7 13.08Z" fill="black"/>
<path d="M13.7003 12.7701C13.5103 12.7701 13.3203 12.7001 13.1703 12.5501L3.56027 2.9401C3.27027 2.6501 3.27027 2.1701 3.56027 1.8801C3.85027 1.5901 4.33027 1.5901 4.62027 1.8801L14.2303 11.4901C14.5203 11.7801 14.5203 12.2601 14.2303 12.5501C14.0903 12.7001 13.8903 12.7701 13.7003 12.7701Z" fill="black"/>
<path d="M16.8998 15.9799C16.7198 15.9799 16.5298 15.9099 16.3898 15.7599L16.3598 15.7299C16.0698 15.4399 16.0698 14.9599 16.3698 14.6699C16.6698 14.3799 17.1398 14.3799 17.4298 14.6799C17.7198 14.9699 17.7298 15.4699 17.4398 15.7599C17.2798 15.9099 17.0898 15.9799 16.8998 15.9799Z" fill="black"/>
</svg>
