<svg width="24" height="24" viewBox="0 0 24 24" fill="none" xmlns="http://www.w3.org/2000/svg">
<path d="M14.7602 22.72C14.5902 22.72 14.4302 22.68 14.3002 22.6C13.8502 22.3101 11.6102 20.76 11.2002 18.4C10.9802 17.09 11.3502 15.79 12.3102 14.55C15.1002 10.94 15.4102 9.89005 15.4202 9.85005C15.4602 9.57005 15.6502 9.37005 15.9202 9.28005C16.1902 9.19005 16.4702 9.28005 16.6802 9.48005C18.9602 11.69 20.0002 13.97 19.7602 16.26C19.3802 19.85 15.9002 22.2 15.2102 22.63C15.0902 22.68 14.9202 22.72 14.7602 22.72ZM16.3802 11.3101C15.9202 12.1201 15.0802 13.42 13.5002 15.45C12.7902 16.36 12.5302 17.24 12.6802 18.13C12.9202 19.52 14.1402 20.61 14.7702 21.08C15.7602 20.39 18.0002 18.57 18.2602 16.06C18.4302 14.52 17.8002 12.9301 16.3802 11.3101Z" fill="black"/>
<path d="M10.2796 22.7299C10.0196 22.7299 9.75959 22.6599 9.56959 22.6099C7.35959 21.9799 5.3596 19.9599 4.5796 17.5899C3.7796 15.1599 4.26956 12.6199 5.96956 10.4299C9.06956 6.36988 10.0996 3.09988 10.3396 2.19988C10.4496 1.76988 10.7696 1.43988 11.2096 1.30988C11.6596 1.18988 12.1496 1.31988 12.4896 1.65988C12.5196 1.67988 12.5396 1.70988 12.5596 1.73988C13.4996 2.99988 14.5096 5.24988 14.5096 7.78988C14.5096 9.52988 13.2896 11.1099 12.1096 12.6299C10.8596 14.2499 9.56961 15.9199 9.70961 17.7299C9.83961 19.0699 10.4196 20.0899 10.8096 20.7699C11.1396 21.3399 11.4496 21.8799 11.0596 22.3899C10.8496 22.6499 10.5696 22.7299 10.2796 22.7299ZM9.74959 21.9699H9.75959H9.74959ZM11.6496 3.05988C11.1896 4.56988 9.98956 7.62988 7.15956 11.3499C5.38956 13.6399 5.55959 15.7599 6.00959 17.1299C6.53959 18.7399 7.7396 20.1399 9.1396 20.8399C8.7596 20.0999 8.33956 19.0999 8.21956 17.8599C8.03956 15.4599 9.56958 13.4699 10.9296 11.7099C11.9996 10.3199 13.0096 9.00988 13.0096 7.77988C13.0096 5.87988 12.3296 4.13988 11.6496 3.05988ZM11.7896 2.56988C11.7896 2.56988 11.7896 2.57988 11.7896 2.56988C11.7896 2.57988 11.7896 2.56988 11.7896 2.56988Z" fill="black"/>
</svg>
