<svg width="24" height="24" viewBox="0 0 24 24" fill="none" xmlns="http://www.w3.org/2000/svg">
<path d="M15.6702 17.8899H7.97017C7.73017 17.8899 7.51016 17.7799 7.37016 17.5899C7.23016 17.3999 7.18016 17.1599 7.25016 16.9299L10.3302 6.14986C10.4202 5.82986 10.7202 5.60986 11.0502 5.60986H14.0902C14.3202 5.60986 14.5402 5.71986 14.6902 5.89986C14.8302 6.08986 14.8802 6.32987 14.8202 6.54987L12.9502 13.5499H16.2002C16.4202 13.5499 16.6302 13.6499 16.7802 13.8199C16.9202 13.9899 16.9802 14.2199 16.9402 14.4299L16.4302 17.2699C16.3402 17.6299 16.0302 17.8899 15.6702 17.8899ZM8.96016 16.3899H15.0402L15.2802 15.0499H11.9602C11.7302 15.0499 11.5101 14.9399 11.3601 14.7599C11.2201 14.5699 11.1702 14.3299 11.2302 14.1099L13.1002 7.10986H11.6002L8.96016 16.3899Z" fill="black"/>
<path d="M7.31965 13.2698C6.96965 13.2698 6.65964 13.0198 6.58964 12.6698C6.50964 12.2598 6.76964 11.8698 7.17964 11.7898L14.8796 10.2498C15.2796 10.1698 15.6797 10.4298 15.7597 10.8398C15.8397 11.2498 15.5797 11.6398 15.1697 11.7198L7.46964 13.2598C7.41964 13.2698 7.36965 13.2698 7.31965 13.2698Z" fill="black"/>
<path d="M12 22.75C6.07 22.75 1.25 17.93 1.25 12C1.25 6.07 6.07 1.25 12 1.25C17.93 1.25 22.75 6.07 22.75 12C22.75 17.93 17.93 22.75 12 22.75ZM12 2.75C6.9 2.75 2.75 6.9 2.75 12C2.75 17.1 6.9 21.25 12 21.25C17.1 21.25 21.25 17.1 21.25 12C21.25 6.9 17.1 2.75 12 2.75Z" fill="black"/>
</svg>
