<svg width="24" height="24" viewBox="0 0 24 24" fill="none" xmlns="http://www.w3.org/2000/svg">
<path d="M12.0003 22.7499C7.3003 22.7499 3.1803 19.7399 1.7603 15.2699C1.6903 15.0399 1.7303 14.7999 1.8703 14.5999C2.0103 14.4099 2.2303 14.2899 2.4703 14.2899L6.2603 14.2599V8.9999C6.2603 8.6799 6.4603 8.3999 6.7503 8.2899C7.0503 8.1799 7.3803 8.26989 7.5803 8.51989L12.0003 13.8299L16.4203 8.51989C16.6203 8.27989 16.9603 8.1899 17.2503 8.2899C17.5503 8.3999 17.7403 8.6799 17.7403 8.9999V14.2499H21.5303C21.7703 14.2499 21.9903 14.3599 22.1303 14.5599C22.2703 14.7499 22.3103 14.9999 22.2403 15.2299C20.8403 19.7299 16.7103 22.7499 12.0003 22.7499ZM3.5503 15.7799C5.0303 19.0899 8.3003 21.2499 12.0003 21.2499C15.7103 21.2499 18.9903 19.0799 20.4603 15.7499H17.0003C16.5903 15.7499 16.2503 15.4099 16.2503 14.9999V11.0699L12.5803 15.4799C12.2903 15.8199 11.7103 15.8199 11.4303 15.4799L7.7603 11.0699V14.9999C7.7603 15.4099 7.4303 15.7499 7.0203 15.7499L3.5503 15.7799Z" fill="black"/>
<path d="M2.47 15.79C2.14 15.79 1.85 15.58 1.75 15.26C1.42 14.19 1.25 13.09 1.25 12C1.25 6.07 6.07 1.25 12 1.25C17.93 1.25 22.75 6.07 22.75 12C22.75 13.1 22.58 14.19 22.26 15.23C22.16 15.54 21.87 15.75 21.54 15.75H17C16.59 15.75 16.25 15.41 16.25 15V11.07L12.58 15.48C12.29 15.82 11.71 15.82 11.43 15.48L7.76 11.07V15C7.76 15.41 7.43 15.75 7.02 15.75L2.47 15.79ZM12 2.75C6.9 2.75 2.75 6.9 2.75 12C2.75 12.76 2.85 13.53 3.04 14.29L6.25 14.26V9C6.25 8.68 6.45 8.4 6.74 8.29C7.04 8.18 7.37 8.27 7.57 8.52L12 13.83L16.42 8.52C16.62 8.28 16.96 8.19 17.25 8.29C17.55 8.4 17.74 8.68 17.74 9V14.25H20.96C21.14 13.52 21.24 12.76 21.24 12C21.25 6.9 17.1 2.75 12 2.75Z" fill="black"/>
</svg>
