<svg width="24" height="24" viewBox="0 0 24 24" fill="none" xmlns="http://www.w3.org/2000/svg">
<path d="M12 18.1798C10.98 18.1798 10.37 17.7998 9.97 17.5498C9.78 17.4298 9.64 17.3498 9.5 17.2998C9.17 17.1898 8.86 17.1798 8.59 17.1598C8.28 17.1498 7.97001 17.1398 7.70001 16.9598C7.42001 16.7698 7.33001 16.4998 7.29001 16.3198C7.27001 16.3098 7.25001 16.3098 7.23001 16.2998C6.97001 16.2298 6.67999 16.1498 6.32999 15.9598C5.80999 15.6698 5.75 15.2798 5.75 15.0698C5.76 14.8698 5.84 14.4898 6.34 14.2598C7.55 13.6798 7.97001 12.8698 8.10001 12.5198C7.99001 12.4498 7.85999 12.3698 7.73999 12.2898L7.42999 12.0898C6.60999 11.5198 6.75001 10.8398 6.85001 10.5798C7.01001 10.1398 7.41999 9.86981 7.92999 9.86981C8.02999 9.86981 8.11999 9.87981 8.20999 9.89981C8.22999 9.89981 8.24001 9.90982 8.26001 9.90982C8.26001 9.59982 8.26 9.32981 8.28 9.08981C8.38 8.01981 8.76 7.44982 9.13 7.02982C9.45 6.66982 10.36 5.81982 11.98 5.81982C13.09 5.81982 14.13 6.24982 14.82 6.99982C15.22 7.46982 15.59 8.0298 15.68 9.0798C15.7 9.3598 15.71 9.63981 15.71 9.89981C15.72 9.89981 15.72 9.89981 15.73 9.89981C15.77 9.87981 15.9 9.8598 16.03 9.8598C16.54 9.8598 16.95 10.1398 17.11 10.5898C17.21 10.8398 17.35 11.5098 16.53 12.0898C16.47 12.1298 16.36 12.2098 16.22 12.2898C16.09 12.3698 15.97 12.4498 15.87 12.5198C16.01 12.8798 16.44 13.6798 17.64 14.2698C18.12 14.5298 18.22 14.8598 18.22 15.0998C18.22 15.3498 18.12 15.6998 17.64 15.9598C17.29 16.1498 16.99 16.2398 16.74 16.3098C16.72 16.3098 16.7 16.3198 16.67 16.3298C16.62 16.5398 16.53 16.7798 16.28 16.9498C15.99 17.1398 15.69 17.1498 15.39 17.1598C15.11 17.1698 14.8 17.1898 14.45 17.2998C14.33 17.3398 14.19 17.4298 14.02 17.5298C13.6 17.8098 13.01 18.1798 12 18.1798ZM8.69 15.6698C9.03 15.6898 9.47 15.7198 9.97 15.8798C10.27 15.9798 10.51 16.1198 10.77 16.2798C11.1 16.4898 11.41 16.6798 12 16.6798C12.58 16.6798 12.89 16.4898 13.24 16.2698C13.49 16.1198 13.73 15.9798 14.02 15.8798C14.56 15.7098 15.01 15.6798 15.32 15.6698C15.38 15.4798 15.51 15.2798 15.75 15.1198C15.83 15.0698 15.9 15.0298 15.99 14.9898C14.57 13.9098 14.37 12.6398 14.36 12.5698C14.36 12.5598 14.36 12.5398 14.36 12.5298C14.33 12.3398 14.3 11.9398 14.68 11.5698C14.57 11.5198 14.48 11.4498 14.42 11.3798C14.3 11.2598 14.17 11.0398 14.2 10.6898C14.22 10.2698 14.26 9.70981 14.22 9.20981C14.16 8.53981 13.96 8.25981 13.73 7.98981C13.51 7.74981 12.97 7.30981 12.02 7.30981C10.99 7.30981 10.44 7.83982 10.3 7.99982C10.08 8.24982 9.88001 8.53983 9.82001 9.19983C9.79001 9.56983 9.78999 10.0498 9.82999 10.5998C9.83999 10.6498 9.84 10.7098 9.84 10.7398C9.86 11.0298 9.72999 11.2498 9.60999 11.3698C9.55999 11.4298 9.47001 11.4998 9.35001 11.5598C9.74001 11.9298 9.70001 12.3398 9.67001 12.5298C9.67001 12.5398 9.67001 12.5498 9.67001 12.5698C9.66001 12.6298 9.45999 13.8998 8.04999 14.9798C8.12999 15.0198 8.21999 15.0598 8.29999 15.1198C8.50999 15.2798 8.63 15.4898 8.69 15.6698ZM17.31 15.3098L16.96 14.6498C16.96 14.6498 16.95 14.6498 16.95 14.6598L17.31 15.3098L16.95 14.6598L17.31 15.3098Z" fill="black"/>
<path d="M12 22.75C6.07 22.75 1.25 17.93 1.25 12C1.25 6.07 6.07 1.25 12 1.25C17.93 1.25 22.75 6.07 22.75 12C22.75 17.93 17.93 22.75 12 22.75ZM12 2.75C6.9 2.75 2.75 6.9 2.75 12C2.75 17.1 6.9 21.25 12 21.25C17.1 21.25 21.25 17.1 21.25 12C21.25 6.9 17.1 2.75 12 2.75Z" fill="black"/>
</svg>
