<svg width="24" height="24" viewBox="0 0 24 24" fill="none" xmlns="http://www.w3.org/2000/svg">
<path d="M4.03998 14.94C3.70998 14.94 3.41001 14.72 3.32001 14.39C3.11001 13.61 3 12.81 3 12C3 7.04 7.04 3 12 3C13.69 3 15.33 3.47 16.75 4.36C17.1 4.58 17.21 5.04 16.99 5.39C16.77 5.74 16.31 5.85 15.96 5.63C14.77 4.89 13.4 4.5 12 4.5C7.86 4.5 4.5 7.86 4.5 12C4.5 12.68 4.59002 13.35 4.77002 13.99C4.88002 14.39 4.63999 14.8 4.23999 14.91C4.17999 14.93 4.10998 14.94 4.03998 14.94Z" fill="black"/>
<path d="M11.9998 21.0001C10.2998 21.0001 8.64979 20.5201 7.21979 19.6301C6.86979 19.4101 6.7598 18.9501 6.9798 18.6001C7.1998 18.2501 7.65983 18.1401 8.00983 18.3601C9.19983 19.1101 10.5798 19.5001 11.9898 19.5001C16.1298 19.5001 19.4898 16.1401 19.4898 12.0001C19.4898 11.2701 19.3798 10.5401 19.1798 9.85007C19.0598 9.45007 19.2898 9.04007 19.6798 8.92007C20.0798 8.80007 20.4898 9.03007 20.6098 9.42007C20.8598 10.2501 20.9898 11.1201 20.9898 12.0001C20.9998 16.9601 16.9598 21.0001 11.9998 21.0001Z" fill="black"/>
<path d="M1.99965 16.7502C1.73965 16.7502 1.47968 16.6102 1.33968 16.3602C1.13968 16.0002 1.26967 15.5402 1.63967 15.3402L21.6397 4.34016C21.9997 4.14016 22.4596 4.27017 22.6596 4.64017C22.8596 5.00017 22.7296 5.46017 22.3596 5.66017L2.35964 16.6602C2.24964 16.7202 2.11965 16.7502 1.99965 16.7502Z" fill="black"/>
<path d="M1.99965 20.2502C1.73965 20.2502 1.47968 20.1102 1.33968 19.8602C1.13968 19.5002 1.26967 19.0402 1.63967 18.8402L21.6397 7.84016C21.9997 7.64016 22.4596 7.77017 22.6596 8.14017C22.8596 8.50017 22.7296 8.96017 22.3596 9.16017L2.35964 20.1602C2.24964 20.2202 2.11965 20.2502 1.99965 20.2502Z" fill="black"/>
</svg>
