<svg width="24" height="24" viewBox="0 0 24 24" fill="none" xmlns="http://www.w3.org/2000/svg">
<path d="M15 22.75H9C3.57 22.75 1.25 20.43 1.25 15V9C1.25 3.57 3.57 1.25 9 1.25H15C20.43 1.25 22.75 3.57 22.75 9V15C22.75 20.43 20.43 22.75 15 22.75ZM9 2.75C4.39 2.75 2.75 4.39 2.75 9V15C2.75 19.61 4.39 21.25 9 21.25H15C19.61 21.25 21.25 19.61 21.25 15V9C21.25 4.39 19.61 2.75 15 2.75H9Z" fill="black"/>
<path d="M9.54987 18.4698H7.09985C6.00985 18.4698 5.12988 17.5798 5.12988 16.4898V7.5098C5.12988 6.4198 6.01985 5.52979 7.09985 5.52979H9.54987C10.6399 5.52979 11.5299 6.4198 11.5299 7.5098V16.4898C11.5299 17.5798 10.6399 18.4698 9.54987 18.4698ZM7.09985 7.02979C6.83985 7.02979 6.62988 7.2498 6.62988 7.5098V16.4898C6.62988 16.7498 6.84985 16.9698 7.09985 16.9698H9.54987C9.80987 16.9698 10.0299 16.7498 10.0299 16.4898V7.5098C10.0299 7.2498 9.80987 7.02979 9.54987 7.02979H7.09985Z" fill="black"/>
<path d="M17.1398 14.3798H14.1998C13.2398 14.3798 12.4697 13.5998 12.4697 12.6498V7.2598C12.4697 6.2998 13.2498 5.52979 14.1998 5.52979H17.1398C18.0998 5.52979 18.8698 6.3098 18.8698 7.2598V12.6498C18.8798 13.6098 18.0998 14.3798 17.1398 14.3798ZM14.2098 7.02979C14.0798 7.02979 13.9797 7.1398 13.9797 7.2598V12.6498C13.9797 12.7798 14.0898 12.8798 14.2098 12.8798H17.1498C17.2798 12.8798 17.3798 12.7698 17.3798 12.6498V7.2598C17.3798 7.1298 17.2698 7.02979 17.1498 7.02979H14.2098Z" fill="black"/>
</svg>
