<svg width="24" height="24" viewBox="0 0 24 24" fill="none" xmlns="http://www.w3.org/2000/svg">
<path d="M22 3.77979H2C1.59 3.77979 1.25 3.43979 1.25 3.02979C1.25 2.61979 1.59 2.27979 2 2.27979H22C22.41 2.27979 22.75 2.61979 22.75 3.02979C22.75 3.43979 22.41 3.77979 22 3.77979Z" fill="black"/>
<path d="M11.9997 21.7199C11.3597 21.7199 10.7797 21.3999 10.4297 20.8699L2.46966 8.47987C2.09966 7.90987 2.07965 7.17986 2.39965 6.57986C2.72965 5.97986 3.34966 5.60986 4.02966 5.60986H19.9597C20.6397 5.60986 21.2697 5.97986 21.5897 6.57986C21.9197 7.17986 21.8896 7.90987 21.5196 8.47987L13.5597 20.8699C13.2197 21.3999 12.6397 21.7199 11.9997 21.7199ZM4.03967 7.10986C3.84967 7.10986 3.74966 7.23987 3.71966 7.29987C3.68966 7.35987 3.62967 7.50986 3.72967 7.66986L11.6897 20.0599C11.7797 20.1999 11.9196 20.2299 11.9896 20.2299C12.0596 20.2299 12.1997 20.2099 12.2897 20.0599L20.2497 7.66986C20.3497 7.50986 20.2897 7.35987 20.2597 7.29987C20.2297 7.23987 20.1397 7.10986 19.9397 7.10986H4.03967Z" fill="black"/>
</svg>
