<svg width="24" height="24" viewBox="0 0 24 24" fill="none" xmlns="http://www.w3.org/2000/svg">
<path d="M18.91 14.6924C18.91 15.9824 19.97 17.0324 21.26 17.0324C21.26 20.7824 20.32 21.7224 16.57 21.7224H7.19C3.44 21.7224 2.5 20.7824 2.5 17.0324V16.5724C3.79 16.5724 4.85 15.5124 4.85 14.2224C4.85 12.9324 3.79 11.8724 2.5 11.8724V11.4124C2.51 7.66241 3.44 6.72241 7.19 6.72241H16.56C20.31 6.72241 21.25 7.66241 21.25 11.4124V12.3524C19.96 12.3524 18.91 13.3924 18.91 14.6924Z" stroke="#292D32" stroke-width="1.5" stroke-linecap="round" stroke-linejoin="round"/>
<path d="M16.2111 6.7225H7.12109L10.0511 3.7925C12.4411 1.4025 13.6411 1.4025 16.0311 3.7925L16.6311 4.3925C16.0011 5.0225 15.8511 5.9525 16.2111 6.7225Z" stroke="#292D32" stroke-width="1.5" stroke-linecap="round" stroke-linejoin="round"/>
<path d="M9.87891 6.72266L9.87891 21.7227" stroke="#292D32" stroke-width="1.5" stroke-linecap="round" stroke-linejoin="round" stroke-dasharray="5 5"/>
</svg>
