<svg width="24" height="24" viewBox="0 0 24 24" fill="none" xmlns="http://www.w3.org/2000/svg">
<path d="M20.0297 2.48047L4.17969 18.3305" stroke="#292D32" stroke-width="1.5" stroke-linecap="round" stroke-linejoin="round"/>
<path d="M5.25008 12.9992C4.83008 12.0292 4.58008 10.9792 4.58008 9.8992C4.58008 4.9892 8.80008 1.1192 13.6001 2.1692C15.0601 2.4892 16.3601 3.2692 17.3601 4.3492" stroke="#292D32" stroke-width="1.5" stroke-linecap="round" stroke-linejoin="round"/>
<path opacity="0.4" d="M19.0602 7.30078C20.2802 11.1808 18.3102 15.0808 15.5202 16.8708V18.0308C15.5202 18.3208 15.6202 18.9908 14.6202 18.9908H9.42016C8.39016 18.9908 8.52016 18.5608 8.52016 18.0308V16.8708C8.04016 16.5708 7.59016 16.2008 7.16016 15.7708" stroke="#292D32" stroke-width="1.5" stroke-linecap="round" stroke-linejoin="round"/>
<path opacity="0.4" d="M8.5 21.9992C10.79 21.3492 13.21 21.3492 15.5 21.9992" stroke="#292D32" stroke-width="1.5" stroke-linecap="round" stroke-linejoin="round"/>
</svg>
