<svg width="24" height="24" viewBox="0 0 24 24" fill="none" xmlns="http://www.w3.org/2000/svg">
<path d="M21.14 9.89844H12.75V15.3784C12.75 15.7884 12.41 16.1284 12 16.1284C11.59 16.1284 11.25 15.7884 11.25 15.3784V9.89844H2.86C2.38 9.89844 2 10.2784 2 10.7584C2 16.6484 6.11 20.7584 12 20.7584C17.89 20.7584 22 16.6484 22 10.7584C22 10.2784 21.62 9.89844 21.14 9.89844Z" fill="#292D32"/>
<path d="M12.7484 5.79969L14.3084 7.35969C14.5984 7.64969 15.0784 7.64969 15.3684 7.35969C15.6584 7.06969 15.6584 6.58969 15.3684 6.29969L12.5184 3.45969C12.2284 3.16969 11.7484 3.16969 11.4584 3.45969L8.61844 6.30969C8.47844 6.45969 8.39844 6.64969 8.39844 6.83969C8.39844 7.02969 8.46844 7.21969 8.61844 7.36969C8.90844 7.65969 9.38844 7.65969 9.67844 7.36969L11.2384 5.80969V9.89969H12.7384V5.79969H12.7484Z" fill="#292D32"/>
</svg>
