<svg width="24" height="24" viewBox="0 0 24 24" fill="none" xmlns="http://www.w3.org/2000/svg">
<path opacity="0.4" d="M21.23 7.62047H15.69C15.31 7.62047 15 7.31047 15 6.92047C15 6.54047 15.31 6.23047 15.69 6.23047H21.23C21.61 6.23047 21.92 6.54047 21.92 6.92047C21.92 7.31047 21.61 7.62047 21.23 7.62047Z" fill="#292D32"/>
<path opacity="0.4" d="M6.46008 7.61828H2.77008C2.39008 7.61828 2.08008 7.30828 2.08008 6.92828C2.08008 6.54828 2.39008 6.23828 2.77008 6.23828H6.46008C6.84008 6.23828 7.15008 6.54828 7.15008 6.92828C7.15008 7.30828 6.84008 7.61828 6.46008 7.61828Z" fill="#292D32"/>
<path d="M10.1505 10.84C12.3154 10.84 14.0705 9.08496 14.0705 6.92C14.0705 4.75504 12.3154 3 10.1505 3C7.98551 3 6.23047 4.75504 6.23047 6.92C6.23047 9.08496 7.98551 10.84 10.1505 10.84Z" fill="#292D32"/>
<path opacity="0.4" d="M21.2296 17.7706H17.5396C17.1596 17.7706 16.8496 17.4606 16.8496 17.0806C16.8496 16.7006 17.1596 16.3906 17.5396 16.3906H21.2296C21.6096 16.3906 21.9196 16.7006 21.9196 17.0806C21.9196 17.4606 21.6096 17.7706 21.2296 17.7706Z" fill="#292D32"/>
<path opacity="0.4" d="M8.31008 17.7706H2.77008C2.39008 17.7706 2.08008 17.4606 2.08008 17.0806C2.08008 16.7006 2.39008 16.3906 2.77008 16.3906H8.31008C8.69008 16.3906 9.00008 16.7006 9.00008 17.0806C9.00008 17.4606 8.69008 17.7706 8.31008 17.7706Z" fill="#292D32"/>
<path d="M13.8497 21.0002C16.0146 21.0002 17.7697 19.2451 17.7697 17.0802C17.7697 14.9152 16.0146 13.1602 13.8497 13.1602C11.6847 13.1602 9.92969 14.9152 9.92969 17.0802C9.92969 19.2451 11.6847 21.0002 13.8497 21.0002Z" fill="#292D32"/>
</svg>
