<svg width="24" height="24" viewBox="0 0 24 24" fill="none" xmlns="http://www.w3.org/2000/svg">
<path opacity="0.4" d="M18.9401 5.42141L13.7701 2.43141C12.7801 1.86141 11.2301 1.86141 10.2401 2.43141L5.02008 5.44141C2.95008 6.84141 2.83008 7.05141 2.83008 9.28141V14.7114C2.83008 16.9414 2.95008 17.1614 5.06008 18.5814L10.2301 21.5714C10.7301 21.8614 11.3701 22.0014 12.0001 22.0014C12.6301 22.0014 13.2701 21.8614 13.7601 21.5714L18.9801 18.5614C21.0501 17.1614 21.1701 16.9514 21.1701 14.7214V9.28141C21.1701 7.05141 21.0501 6.84141 18.9401 5.42141Z" fill="#292D32"/>
<path d="M12 15.25C13.7949 15.25 15.25 13.7949 15.25 12C15.25 10.2051 13.7949 8.75 12 8.75C10.2051 8.75 8.75 10.2051 8.75 12C8.75 13.7949 10.2051 15.25 12 15.25Z" fill="#292D32"/>
</svg>
