<svg width="24" height="24" viewBox="0 0 24 24" fill="none" xmlns="http://www.w3.org/2000/svg">
<path opacity="0.4" d="M7.35 3.85938H16.65C20.75 3.85938 22 5.10938 22 9.20938V14.7894C22 18.8894 20.75 20.1394 16.65 20.1394H7.35C3.25 20.1394 2 18.8894 2 14.7894V9.20938C2 5.10938 3.25 3.85938 7.35 3.85938Z" fill="#292D32"/>
<path d="M13.2102 7.57812H15.4402C17.6902 7.57812 18.7402 8.62813 18.7402 10.8781V13.1081C18.7402 15.3581 17.6902 16.4081 15.4402 16.4081H13.2102C10.9602 16.4081 9.91016 15.3581 9.91016 13.1081V10.8781C9.91016 8.62813 10.9602 7.57812 13.2102 7.57812Z" fill="#292D32"/>
</svg>
