<svg xmlns="http://www.w3.org/2000/svg" width="20" height="20" viewBox="0 0 20 20">
  <g id="_31b" data-name="31b" transform="translate(-2 -2)">
    <path id="Vector" d="M3.26,1.63A1.63,1.63,0,1,1,1.63,0,1.63,1.63,0,0,1,3.26,1.63Z" transform="translate(10.37 14.09)" fill="#292d32"/>
    <path id="Vector-2" data-name="Vector" d="M16.28,7.53V6.28C16.28,3.58,15.63,0,10,0S3.72,3.58,3.72,6.28V7.53C.92,7.88,0,9.3,0,12.79v1.86C0,18.75,1.25,20,5.35,20h9.3c4.1,0,5.35-1.25,5.35-5.35V12.79C20,9.3,19.08,7.88,16.28,7.53ZM10,16.74a3.02,3.02,0,1,1,3.02-3.02A3.02,3.02,0,0,1,10,16.74ZM5.35,7.44H5.12V6.28c0-2.93.83-4.88,4.88-4.88s4.88,1.95,4.88,4.88V7.45H5.35Z" transform="translate(2 2)" fill="#292d32"/>
  </g>
</svg>
