<svg xmlns="http://www.w3.org/2000/svg" width="20.038" height="19.997" viewBox="0 0 20.038 19.997">
  <g id="_39b" data-name="39b" transform="translate(-1.972 -2.001)">
    <path id="Vector" d="M6.909,2.6C6.109-.861.9-.871.1,2.6-.37,4.63.92,6.35,2.04,7.42a2.147,2.147,0,0,0,2.93,0C6.089,6.349,7.369,4.629,6.909,2.6ZM3.539,4.2a1,1,0,1,1-.01-2h.01a1,1,0,1,1,0,2Z" transform="translate(1.971 2.001)" fill="#292d32"/>
    <path id="Vector-2" data-name="Vector" d="M6.939,2.6C6.139-.861.909-.871.1,2.6-.37,4.63.92,6.35,2.05,7.42a2.16,2.16,0,0,0,2.94,0C6.119,6.349,7.409,4.629,6.939,2.6ZM3.559,4.2a1,1,0,1,1-.01-2h.01a1,1,0,0,1,0,2Z" transform="translate(14.971 14.001)" fill="#292d32"/>
    <g id="Group">
      <path id="Vector-3" data-name="Vector" d="M5.431,15.5H2.751a2.751,2.751,0,0,1-1.81-4.82l7.99-6.99a1.248,1.248,0,0,0-.82-2.19H5.431a.755.755,0,0,1-.75-.75A.755.755,0,0,1,5.431,0h2.68a2.715,2.715,0,0,1,2.57,1.78,2.732,2.732,0,0,1-.76,3.04l-7.99,6.99A1.248,1.248,0,0,0,2.751,14h2.68a.75.75,0,0,1,0,1.5Z" transform="translate(6.569 4.25)" fill="#292d32"/>
    </g>
  </g>
</svg>
