<svg width="24" height="24" viewBox="0 0 24 24" fill="none" xmlns="http://www.w3.org/2000/svg">
<path d="M3.23 1H11.36C12.04 1 12.59 1.56 12.59 2.25V3.62C12.59 4.12 12.28 4.74 11.97 5.05L9.33 7.43C8.96 7.74 8.72 8.36 8.72 8.86V11.54C8.72 11.91 8.47 12.41 8.17 12.6L7.3 13.17C6.5 13.67 5.39 13.11 5.39 12.11V8.8C5.39 8.36 5.14 7.8 4.9 7.49L2.56 4.99C2.25 4.68 2 4.12 2 3.75V2.31C2 1.56 2.55 1 3.23 1Z" fill="#292D32"/>
<path d="M17 2H14.6C14.32 2 14.1 2.22 14.1 2.5C14.1 2.98 14.1 3.62 14.1 3.62C14.1 4.61 13.57 5.58 13.05 6.11L10.33 8.54C10.3 8.61 10.25 8.71 10.22 8.79V11.54C10.22 12.45 9.68 13.44 8.94 13.89L8.12 14.42C7.66 14.71 7.15 14.85 6.64 14.85C6.18 14.85 5.72 14.73 5.3 14.5C4.78254 14.2134 4.39183 13.781 4.1531 13.2736C4.03113 13.0143 4 12.7245 4 12.438V10.21C4 10.08 3.95 9.95 3.85 9.86L2.85 8.86C2.54 8.54 2 8.76 2 9.21V17C2 19.76 4.24 22 7 22H17C19.76 22 22 19.76 22 17V7C22 4.24 19.76 2 17 2ZM18 17.75H11C10.59 17.75 10.25 17.41 10.25 17C10.25 16.59 10.59 16.25 11 16.25H18C18.41 16.25 18.75 16.59 18.75 17C18.75 17.41 18.41 17.75 18 17.75ZM18 13.75H13C12.59 13.75 12.25 13.41 12.25 13C12.25 12.59 12.59 12.25 13 12.25H18C18.41 12.25 18.75 12.59 18.75 13C18.75 13.41 18.41 13.75 18 13.75Z" fill="#292D32"/>
</svg>
