<svg width="24" height="24" viewBox="0 0 24 24" fill="none" xmlns="http://www.w3.org/2000/svg">
<path d="M16 22.75H8C4.35 22.75 2.25 20.65 2.25 17V7C2.25 3.35 4.35 1.25 8 1.25H16C19.65 1.25 21.75 3.35 21.75 7V17C21.75 20.65 19.65 22.75 16 22.75ZM8 2.75C5.14 2.75 3.75 4.14 3.75 7V17C3.75 19.86 5.14 21.25 8 21.25H16C18.86 21.25 20.25 19.86 20.25 17V7C20.25 4.14 18.86 2.75 16 2.75H8Z" fill="#292D32"/>
<path d="M18.5 9.25H16.5C14.98 9.25 13.75 8.02 13.75 6.5V4.5C13.75 4.09 14.09 3.75 14.5 3.75C14.91 3.75 15.25 4.09 15.25 4.5V6.5C15.25 7.19 15.81 7.75 16.5 7.75H18.5C18.91 7.75 19.25 8.09 19.25 8.5C19.25 8.91 18.91 9.25 18.5 9.25Z" fill="#292D32"/>
<path d="M9.99945 17.7514C9.80945 17.7514 9.61945 17.6815 9.46945 17.5315L7.46945 15.5315C7.17945 15.2415 7.17945 14.7614 7.46945 14.4714L9.46945 12.4714C9.75945 12.1814 10.2395 12.1814 10.5295 12.4714C10.8195 12.7614 10.8195 13.2415 10.5295 13.5315L9.05945 15.0014L10.5295 16.4714C10.8195 16.7614 10.8195 17.2415 10.5295 17.5315C10.3795 17.6815 10.1895 17.7514 9.99945 17.7514Z" fill="#292D32"/>
<path d="M13.9995 17.7514C13.8095 17.7514 13.6195 17.6815 13.4695 17.5315C13.1795 17.2415 13.1795 16.7614 13.4695 16.4714L14.9395 15.0014L13.4695 13.5315C13.1795 13.2415 13.1795 12.7614 13.4695 12.4714C13.7595 12.1814 14.2395 12.1814 14.5295 12.4714L16.5295 14.4714C16.8195 14.7614 16.8195 15.2415 16.5295 15.5315L14.5295 17.5315C14.3795 17.6815 14.1895 17.7514 13.9995 17.7514Z" fill="#292D32"/>
</svg>
