<svg width="24" height="24" viewBox="0 0 24 24" fill="none" xmlns="http://www.w3.org/2000/svg">
<path d="M12 18.0999C11.3 18.0999 10.7 17.4999 10.7 16.7999V7.1999C10.7 6.4999 11.3 5.8999 12 5.8999C12.7 5.8999 13.3 6.4999 13.3 7.1999V16.8999C13.3 17.5999 12.7 18.0999 12 18.0999Z" stroke="#17191C" stroke-width="1.5" stroke-miterlimit="10"/>
<path d="M6.69996 8.90004C6.99996 8.30004 7.79996 8.10004 8.49996 8.40004L16.9 13.2C17.5 13.6 17.7 14.4 17.4 15C17 15.6 16.2 15.8 15.6 15.5L7.19996 10.7C6.49996 10.4 6.29996 9.60004 6.69996 8.90004Z" stroke="#17191C" stroke-width="1.5" stroke-miterlimit="10"/>
<path d="M6.69995 15.1C6.29995 14.5 6.59995 13.7 7.19995 13.3L15.6 8.5C16.2 8.1 17 8.4 17.4 9C17.8 9.6 17.5 10.4 16.9 10.8L8.49995 15.6C7.79995 15.9 6.99995 15.7 6.69995 15.1Z" stroke="#17191C" stroke-width="1.5" stroke-miterlimit="10"/>
<path d="M12 22C17.5228 22 22 17.5228 22 12C22 6.47715 17.5228 2 12 2C6.47715 2 2 6.47715 2 12C2 17.5228 6.47715 22 12 22Z" stroke="#17191C" stroke-width="1.5" stroke-miterlimit="10"/>
</svg>
