<svg width="24" height="24" viewBox="0 0 24 24" fill="none" xmlns="http://www.w3.org/2000/svg">
<path d="M19.0001 7C19.0001 7.2 19.0001 7.3 19.0001 7.5C18.9001 9 18.2001 10.3 17.3001 11.2C16.2001 12.3 14.7001 13 13.0001 13H9.90006C9.40006 13 9.00006 13.4 8.90006 13.9L8.10006 19.2C8.00006 19.6 7.80006 19.9 7.40006 20C7.30006 20 7.20006 20 7.10006 20H5.20006C4.60006 20 4.10006 19.5 4.20006 18.8L6.60006 4.5C6.80006 3.1 8.10006 2 9.50006 2H14.0001C16.8001 2 19.0001 4.2 19.0001 7Z" stroke="#17191C" stroke-width="1.5" stroke-miterlimit="10"/>
<path d="M21.0001 11C21.0001 12.4 20.4001 13.6 19.5001 14.5C18.6001 15.4 17.4001 16 16.0001 16H13.9001C13.4001 16 13.0001 16.3 12.9001 16.8L12.2001 21.1C12.1001 21.6 11.7001 21.9 11.2001 21.9H8.20006C7.60006 21.9 7.10006 21.3 7.20006 20.7L7.40006 20C7.80006 19.9 8.10006 19.6 8.10006 19.2L8.90006 13.9C9.00006 13.4 9.40006 13 9.90006 13H13.0001C14.7001 13 16.2001 12.3 17.2001 11.2C18.2001 10.2 18.8001 8.9 18.9001 7.5C20.2001 8.2 21.0001 9.5 21.0001 11Z" stroke="#17191C" stroke-width="1.5" stroke-miterlimit="10"/>
</svg>
