<svg width="24" height="24" viewBox="0 0 24 24" fill="none" xmlns="http://www.w3.org/2000/svg">
<path d="M21.25 22H2.75C2.34 22 2 21.66 2 21.25C2 20.84 2.34 20.5 2.75 20.5H21.25C21.66 20.5 22 20.84 22 21.25C22 21.66 21.66 22 21.25 22Z" fill="#292D32"/>
<path opacity="0.4" d="M20.5889 13.6987L13.3589 20.9288C11.9389 22.3488 9.64891 22.3488 8.23891 20.9388L3.62891 16.3287L15.9889 3.96875L20.5989 8.57875C22.0089 9.98875 22.0089 12.2787 20.5889 13.6987Z" fill="#292D32"/>
<path d="M15.9886 3.97016L3.6186 16.3302L2.7086 15.4202C1.2986 14.0102 1.2986 11.7202 2.7186 10.3002L9.9486 3.07016C11.3686 1.65016 13.6586 1.65016 15.0686 3.06016L15.9886 3.97016Z" fill="#292D32"/>
<path d="M12.8903 17.5989L11.5403 18.9489C11.2603 19.2289 10.8103 19.2289 10.5303 18.9489C10.2503 18.6689 10.2503 18.2189 10.5303 17.9389L11.8803 16.5889C12.1603 16.3089 12.6103 16.3089 12.8903 16.5889C13.1703 16.8689 13.1703 17.3189 12.8903 17.5989Z" fill="#292D32"/>
<path d="M17.2694 13.22L14.5794 15.91C14.2994 16.19 13.8494 16.19 13.5694 15.91C13.2894 15.63 13.2894 15.18 13.5694 14.9L16.2594 12.21C16.5394 11.93 16.9894 11.93 17.2694 12.21C17.5394 12.49 17.5394 12.94 17.2694 13.22Z" fill="#292D32"/>
</svg>
