<svg width="24" height="24" viewBox="0 0 24 24" fill="none" xmlns="http://www.w3.org/2000/svg">
<path d="M18.5 12.6484V16.3484C18.5 19.4684 15.59 21.9984 12 21.9984C8.41 21.9984 5.5 19.4684 5.5 16.3484V12.6484C5.5 15.7684 8.41 17.9984 12 17.9984C15.59 17.9984 18.5 15.7684 18.5 12.6484Z" fill="#292D32"/>
<path opacity="0.4" d="M18.5 7.64844V12.6484C18.5 15.7684 15.59 17.9984 12 17.9984C8.41 17.9984 5.5 15.7684 5.5 12.6484V7.64844C5.5 8.55844 5.75 9.39844 6.19 10.1184C7.26 11.8784 9.46 12.9984 12 12.9984C14.54 12.9984 16.74 11.8784 17.81 10.1184C18.25 9.39844 18.5 8.55844 18.5 7.64844Z" fill="#292D32"/>
<path d="M18.5 7.65C18.5 8.56 18.25 9.4 17.81 10.12C16.74 11.88 14.54 13 12 13C9.46 13 7.26 11.88 6.19 10.12C5.75 9.4 5.5 8.56 5.5 7.65C5.5 4.53 8.41 2 12 2C13.8 2 15.42 2.63 16.6 3.65C17.77 4.68 18.5 6.09 18.5 7.65Z" fill="#292D32"/>
</svg>
