<svg width="24" height="24" viewBox="0 0 24 24" fill="none" xmlns="http://www.w3.org/2000/svg">
<path opacity="0.4" d="M12 22C17.5228 22 22 17.5228 22 12C22 6.47715 17.5228 2 12 2C6.47715 2 2 6.47715 2 12C2 17.5228 6.47715 22 12 22Z" fill="#292D32"/>
<path d="M14.9983 16C14.4383 16 13.9883 15.55 13.9883 15C13.9883 14.45 14.4383 14 14.9883 14C15.5383 14 15.9883 14.45 15.9883 15C15.9883 15.55 15.5483 16 14.9983 16Z" fill="#292D32"/>
<path d="M9.01001 10C8.45001 10 8 9.55 8 9C8 8.45 8.45 8 9 8C9.55 8 10 8.45 10 9C10 9.55 9.56001 10 9.01001 10Z" fill="#292D32"/>
<path d="M9.00144 15.7514C8.81144 15.7514 8.62141 15.6815 8.47141 15.5315C8.18141 15.2415 8.18141 14.7614 8.47141 14.4714L14.4714 8.47141C14.7614 8.18141 15.2415 8.18141 15.5315 8.47141C15.8215 8.76141 15.8215 9.24146 15.5315 9.53146L9.53146 15.5315C9.38146 15.6815 9.19144 15.7514 9.00144 15.7514Z" fill="#292D32"/>
</svg>
