<svg width="24" height="24" viewBox="0 0 24 24" fill="none" xmlns="http://www.w3.org/2000/svg">
<path opacity="0.4" d="M16.19 2H7.81C4.17 2 2 4.17 2 7.81V16.18C2 19.83 4.17 22 7.81 22H16.18C19.82 22 21.99 19.83 21.99 16.19V7.81C22 4.17 19.83 2 16.19 2Z" fill="#292D32"/>
<path d="M10.5 8.80859H6C5.59 8.80859 5.25 8.46859 5.25 8.05859C5.25 7.64859 5.59 7.30859 6 7.30859H10.5C10.91 7.30859 11.25 7.64859 11.25 8.05859C11.25 8.46859 10.91 8.80859 10.5 8.80859Z" fill="#292D32"/>
<path d="M18 14.8086H13.5C13.09 14.8086 12.75 14.4686 12.75 14.0586C12.75 13.6486 13.09 13.3086 13.5 13.3086H18C18.41 13.3086 18.75 13.6486 18.75 14.0586C18.75 14.4686 18.41 14.8086 18 14.8086Z" fill="#292D32"/>
<path d="M18 18.5586H13.5C13.09 18.5586 12.75 18.2186 12.75 17.8086C12.75 17.3986 13.09 17.0586 13.5 17.0586H18C18.41 17.0586 18.75 17.3986 18.75 17.8086C18.75 18.2186 18.41 18.5586 18 18.5586Z" fill="#292D32"/>
<path d="M18 7.30859H16.52V5.80859C16.52 5.39859 16.18 5.05859 15.77 5.05859C15.36 5.05859 15.02 5.39859 15.02 5.80859V7.30859H13.5C13.09 7.30859 12.75 7.64859 12.75 8.05859C12.75 8.46859 13.09 8.80859 13.5 8.80859H15.02V10.3086C15.02 10.7186 15.36 11.0586 15.77 11.0586C16.18 11.0586 16.52 10.7186 16.52 10.3086V8.80859H18C18.41 8.80859 18.75 8.46859 18.75 8.05859C18.75 7.64859 18.41 7.30859 18 7.30859Z" fill="#292D32"/>
<path d="M9.31141 15.9389L11.0314 14.2189C11.3214 13.9289 11.3214 13.4489 11.0314 13.1589C10.7414 12.8689 10.2614 12.8689 9.97141 13.1589L8.25141 14.8789L6.53141 13.1589C6.24141 12.8689 5.76141 12.8689 5.47141 13.1589C5.18141 13.4489 5.18141 13.9289 5.47141 14.2189L7.19141 15.9389L5.47141 17.6589C5.18141 17.9489 5.18141 18.4289 5.47141 18.7189C5.62141 18.8689 5.81141 18.9389 6.00141 18.9389C6.19141 18.9389 6.38141 18.8689 6.53141 18.7189L8.25141 16.9989L9.97141 18.7189C10.1214 18.8689 10.3114 18.9389 10.5014 18.9389C10.6914 18.9389 10.8814 18.8689 11.0314 18.7189C11.3214 18.4289 11.3214 17.9489 11.0314 17.6589L9.31141 15.9389Z" fill="#292D32"/>
</svg>
