<svg width="24" height="24" viewBox="0 0 24 24" fill="none" xmlns="http://www.w3.org/2000/svg">
<path opacity="0.4" d="M9.42172 2.16141L3.92172 4.2214C2.87172 4.6114 2.01172 5.8614 2.01172 6.9814V15.0814C2.01172 15.8914 2.54173 16.9614 3.19173 17.4414L8.69173 21.5514C9.66173 22.2814 11.2517 22.2814 12.2217 21.5514L17.7217 17.4414C18.3717 16.9514 18.9017 15.8914 18.9017 15.0814V6.9814C18.9017 5.8614 18.0417 4.6114 16.9917 4.2214L11.4917 2.16141C10.9217 1.95141 9.99172 1.95141 9.42172 2.16141Z" fill="#292D32"/>
<path d="M19.2601 6.76172H12.4102C12.2102 6.76172 12.0201 6.77173 11.8401 6.77173C10.1201 6.87173 9.66016 7.50173 9.66016 9.46173V9.85173C9.66016 10.2659 9.99594 10.6017 10.4102 10.6017H21.2502C21.6644 10.6017 22.0002 10.2659 22.0002 9.85173V9.46173C22.0002 7.30173 21.4501 6.76172 19.2601 6.76172Z" fill="#292D32"/>
<path d="M10.4219 11.6992C10.0077 11.6992 9.67188 12.035 9.67188 12.4492V14.5392C9.67188 16.6992 10.2219 17.2492 12.4119 17.2492H19.2619C21.4119 17.2492 21.9819 16.7292 22.0019 14.6592V12.4492C22.0019 12.035 21.6661 11.6992 21.2519 11.6992H10.4219ZM13.2719 15.4692H12.0219C11.7219 15.4692 11.4819 15.2292 11.4819 14.9292C11.4819 14.6292 11.7219 14.3892 12.0219 14.3892H13.2719C13.5719 14.3892 13.8119 14.6292 13.8119 14.9292C13.8119 15.2292 13.5719 15.4692 13.2719 15.4692ZM17.3219 15.4692H14.8319C14.5319 15.4692 14.2919 15.2292 14.2919 14.9292C14.2919 14.6292 14.5319 14.3892 14.8319 14.3892H17.3219C17.6219 14.3892 17.8619 14.6292 17.8619 14.9292C17.8719 15.2292 17.6219 15.4692 17.3219 15.4692Z" fill="#292D32"/>
</svg>
