<svg width="24" height="24" viewBox="0 0 24 24" fill="none" xmlns="http://www.w3.org/2000/svg">
<path opacity="0.4" d="M22.0009 9.20938V14.7894C22.0009 18.8894 20.7509 20.1394 16.6509 20.1394H9.91094V17.1194C9.91094 16.7394 9.59094 16.4194 9.21094 16.4194V7.57938C9.59094 7.57938 9.91094 7.25938 9.91094 6.87938V3.85938H16.6509C20.7509 3.85938 22.0009 5.10938 22.0009 9.20938Z" fill="#292D32"/>
<path d="M18.4712 11.8981C18.6412 11.7381 18.7012 11.4881 18.6312 11.2681C18.5612 11.0381 18.3712 10.8781 18.1312 10.8481L16.8512 10.6581C16.8012 10.6481 16.7612 10.6181 16.7412 10.5781L16.1712 9.41813C16.0712 9.20813 15.8512 9.07812 15.6212 9.07812C15.3812 9.07812 15.1712 9.20813 15.0612 9.41813L14.4912 10.5781C14.4712 10.6281 14.4212 10.6581 14.3712 10.6581L13.0912 10.8481C12.8612 10.8781 12.6612 11.0481 12.5912 11.2681C12.5212 11.4981 12.5812 11.7381 12.7512 11.8981L13.6812 12.7981C13.7212 12.8281 13.7312 12.8881 13.7212 12.9381L13.5012 14.2081C13.4612 14.4381 13.5512 14.6781 13.7512 14.8081C13.8612 14.8881 13.9812 14.9281 14.1112 14.9281C14.2112 14.9281 14.3112 14.9081 14.4012 14.8581L15.5512 14.2581C15.5912 14.2381 15.6512 14.2381 15.6912 14.2581L16.8412 14.8581C17.0512 14.9681 17.3012 14.9481 17.4912 14.8081C17.6812 14.6681 17.7812 14.4381 17.7412 14.1981L17.5212 12.9281C17.5112 12.8781 17.5312 12.8281 17.5612 12.7881L18.4712 11.8981Z" fill="#292D32"/>
<path d="M9.20865 7.57938V16.4194C8.82865 16.4194 8.50865 16.7394 8.50865 17.1194V20.1394H7.34865C3.39865 20.1394 2.09865 18.9594 2.00865 15.2794C1.99865 15.0894 2.07865 14.9094 2.20865 14.7794C2.33865 14.6394 2.52865 14.5694 2.70865 14.5694C4.10865 14.5694 5.25865 13.4194 5.25865 12.0094C5.25865 10.5994 4.10865 9.43937 2.70865 9.43937C2.50865 9.43937 2.33865 9.36937 2.20865 9.22937C2.07865 9.09937 1.99865 8.90937 2.00865 8.72937C2.09865 5.03937 3.39865 3.85938 7.34865 3.85938H8.50865V6.87938C8.50865 7.26938 8.82865 7.57938 9.20865 7.57938Z" fill="#292D32"/>
</svg>
