<svg width="24" height="24" viewBox="0 0 24 24" fill="none" xmlns="http://www.w3.org/2000/svg">
<path d="M3 13.0794V14.8794C3 16.9994 3 16.9994 5 18.3494L10.5 21.5294C11.33 22.0094 12.68 22.0094 13.5 21.5294L19 18.3494C21 16.9994 21 16.9994 21 14.8894V9.10937C21 6.99937 21 6.99937 19 5.64937L13.5 2.46937C12.68 1.98937 11.33 1.98937 10.5 2.46937L5 5.64937C3 6.99937 3 6.99937 3 9.10937" stroke="#292D32" stroke-width="1.5" stroke-linecap="round" stroke-linejoin="round"/>
<path d="M15 12C15 10.34 13.66 9 12 9C10.34 9 9 10.34 9 12C9 13.66 10.34 15 12 15C12.41 15 12.81 14.92 13.17 14.76" stroke="#292D32" stroke-width="1.5" stroke-miterlimit="10" stroke-linecap="round" stroke-linejoin="round"/>
</svg>
