<svg width="24" height="24" viewBox="0 0 24 24" fill="none" xmlns="http://www.w3.org/2000/svg">
<path d="M20.97 16H18.03C16.76 16 16 16.76 16 18.03V20.97C16 22.24 16.76 23 18.03 23H20.97C22.24 23 23 22.24 23 20.97V18.03C23 16.76 22.24 16 20.97 16ZM21.19 19.31C21.07 19.43 20.91 19.49 20.75 19.49C20.59 19.49 20.43 19.43 20.31 19.31L20.13 19.13V21.37C20.13 21.72 19.85 22 19.5 22C19.15 22 18.87 21.72 18.87 21.37V19.13L18.69 19.31C18.45 19.55 18.05 19.55 17.81 19.31C17.57 19.07 17.57 18.67 17.81 18.43L19.06 17.18C19.11 17.13 19.18 17.09 19.25 17.06C19.27 17.05 19.29 17.05 19.31 17.04C19.36 17.02 19.41 17.01 19.47 17.01C19.49 17.01 19.51 17.01 19.53 17.01C19.6 17.01 19.66 17.02 19.73 17.05C19.74 17.05 19.74 17.05 19.75 17.05C19.82 17.08 19.88 17.12 19.93 17.17C19.94 17.18 19.94 17.18 19.95 17.18L21.2 18.43C21.44 18.67 21.44 19.07 21.19 19.31Z" fill="#292D32"/>
<path opacity="0.4" d="M16 20.97V18.03C16 16.76 16.76 16 18.03 16H20.97C21.37 16 21.71 16.08 22 16.22C22 16.21 22 16.2 22 16.18V7.81C22 4.17 19.83 2 16.19 2H7.81C4.17 2 2 4.17 2 7.81V16.18C2 19.83 4.17 22 7.81 22H16.18C16.19 22 16.2 22 16.22 22C16.08 21.71 16 21.37 16 20.97Z" fill="#292D32"/>
<path d="M16 10.1711C16.41 10.1711 16.75 9.83107 16.75 9.42107C16.75 9.01107 16.41 8.67107 16 8.67107H13.59L13.85 6.35107C13.9 5.94107 13.6 5.57107 13.19 5.52107C12.78 5.48107 12.41 5.77107 12.36 6.18107L12.08 8.67107H10.43L10.69 6.35107C10.74 5.94107 10.44 5.57107 10.03 5.52107C9.62 5.47107 9.25 5.77107 9.2 6.18107L8.92 8.67107H6.52C6.11 8.67107 5.77 9.01107 5.77 9.42107C5.77 9.83107 6.11 10.1711 6.52 10.1711H8.75L8.57 11.8311H6C5.59 11.8311 5.25 12.1711 5.25 12.5811C5.25 12.9911 5.59 13.3311 6 13.3311H8.41L8.15 15.6511C8.1 16.0611 8.4 16.4311 8.81 16.4811C8.84 16.4811 8.87 16.4811 8.89 16.4811C9.27 16.4811 9.59 16.2011 9.63 15.8111L9.91 13.3211H11.56L11.3 15.6411C11.25 16.0511 11.55 16.4211 11.96 16.4711C11.99 16.4711 12.02 16.4711 12.04 16.4711C12.42 16.4711 12.74 16.1911 12.78 15.8011L13.06 13.3111H15.46C15.87 13.3111 16.21 12.9711 16.21 12.5611C16.21 12.1511 15.87 11.8111 15.46 11.8111H13.23L13.41 10.1511H16V10.1711ZM11.73 11.8311H10.08L10.26 10.1711H11.91L11.73 11.8311Z" fill="#292D32"/>
</svg>
