<svg width="24" height="24" viewBox="0 0 24 24" fill="none" xmlns="http://www.w3.org/2000/svg">
<path opacity="0.4" d="M16.1898 2H7.81976C4.17976 2 2.00977 4.17 2.00977 7.81V16.18C2.00977 19.82 4.17976 21.99 7.81976 21.99H16.1898C19.8298 21.99 21.9998 19.82 21.9998 16.18V7.81C21.9998 4.17 19.8298 2 16.1898 2Z" fill="#292D32"/>
<path d="M16.41 14.1683C15.8 12.4283 14.16 11.2583 12.32 11.2583C12.31 11.2583 12.31 11.2583 12.3 11.2583L10.24 11.2683C10.24 11.2683 10.24 11.2683 10.23 11.2683C9.46998 11.2683 8.80999 10.7583 8.60999 10.0283C9.49999 9.74829 10.15 8.91829 10.15 7.93829C10.15 6.72829 9.16001 5.73828 7.95001 5.73828C6.74001 5.73828 5.75 6.72829 5.75 7.93829C5.75 8.82829 6.28999 9.59829 7.04999 9.93829V14.2783C6.28999 14.5783 5.75 15.3183 5.75 16.1783C5.75 17.3083 6.66999 18.2283 7.79999 18.2283C8.92999 18.2283 9.84998 17.3083 9.84998 16.1783C9.84998 15.3083 9.30999 14.5783 8.54999 14.2783V12.2583C9.03999 12.5683 9.61998 12.7483 10.23 12.7483H10.24L12.3 12.7383C13.48 12.6983 14.53 13.4583 14.95 14.5583C14.46 14.9383 14.14 15.5183 14.14 16.1783C14.14 17.3083 15.06 18.2283 16.19 18.2283C17.32 18.2283 18.24 17.3083 18.24 16.1783C18.25 15.1383 17.44 14.2783 16.41 14.1683Z" fill="#292D32"/>
</svg>
