<svg width="24" height="24" viewBox="0 0 24 24" fill="none" xmlns="http://www.w3.org/2000/svg">
<path d="M15.0002 22.7483C14.7302 22.7483 14.4802 22.5983 14.3502 22.3683C14.2202 22.1283 14.2202 21.8483 14.3602 21.6083L15.4102 19.8583C15.6202 19.5083 16.0802 19.3883 16.4402 19.5983C16.8002 19.8083 16.9102 20.2683 16.7002 20.6283L16.4302 21.0783C19.1902 20.4283 21.2602 17.9483 21.2602 14.9883C21.2602 14.5783 21.6002 14.2383 22.0102 14.2383C22.4202 14.2383 22.7602 14.5783 22.7602 14.9883C22.7502 19.2683 19.2702 22.7483 15.0002 22.7483Z" fill="#292D32"/>
<path d="M2 9.75C1.59 9.75 1.25 9.41 1.25 9C1.25 4.73 4.73 1.25 9 1.25C9.27 1.25 9.52 1.4 9.65 1.63C9.78 1.87 9.78 2.15 9.64 2.39L8.59 4.14C8.38 4.49 7.92 4.61 7.56 4.39C7.21 4.18 7.09 3.72 7.31 3.36L7.58 2.91C4.81 3.56 2.75 6.04 2.75 9C2.75 9.41 2.41 9.75 2 9.75Z" fill="#292D32"/>
<path d="M16.4002 8.21094L12.6402 6.18094C12.2402 5.97094 11.7702 5.97094 11.3702 6.18094L7.60016 8.21094C7.33016 8.36094 7.16016 8.65094 7.16016 8.97094C7.16016 9.30094 7.33016 9.59094 7.60016 9.74094L11.3602 11.7709C11.5602 11.8809 11.7802 11.9309 12.0002 11.9309C12.2202 11.9309 12.4402 11.8809 12.6402 11.7709L16.4002 9.74094C16.6702 9.59094 16.8402 9.30094 16.8402 8.97094C16.8402 8.65094 16.6702 8.36094 16.4002 8.21094Z" fill="#292D32"/>
<path d="M10.74 12.4685L7.24 10.7185C6.97 10.5885 6.66 10.5985 6.4 10.7585C6.15 10.9185 6 11.1885 6 11.4885V14.7985C6 15.3685 6.32 15.8885 6.83 16.1385L10.33 17.8885C10.45 17.9485 10.58 17.9785 10.72 17.9785C10.88 17.9785 11.03 17.9385 11.17 17.8485C11.43 17.6885 11.58 17.4185 11.58 17.1185V13.8085C11.57 13.2385 11.26 12.7285 10.74 12.4685Z" fill="#292D32"/>
<path d="M17.5919 10.7585C17.3319 10.5985 17.0219 10.5885 16.7519 10.7185L13.2519 12.4685C12.7419 12.7285 12.4219 13.2385 12.4219 13.8085V17.1185C12.4219 17.4185 12.5719 17.6885 12.8319 17.8485C12.9719 17.9385 13.1219 17.9785 13.2819 17.9785C13.4119 17.9785 13.5419 17.9485 13.6719 17.8885L17.1719 16.1385C17.6819 15.8785 18.0019 15.3685 18.0019 14.7985V11.4885C18.0019 11.1885 17.8519 10.9185 17.5919 10.7585Z" fill="#292D32"/>
</svg>
