<svg width="24" height="24" viewBox="0 0 24 24" fill="none" xmlns="http://www.w3.org/2000/svg">
<path d="M16.19 2H7.81C4.17 2 2 4.17 2 7.81V16.18C2 19.83 4.17 22 7.81 22H16.18C19.82 22 21.99 19.83 21.99 16.19V7.81C22 4.17 19.83 2 16.19 2ZM17.85 14.1C17.81 14.19 17.76 14.27 17.69 14.34L14.65 17.38C14.5 17.53 14.31 17.6 14.12 17.6C13.93 17.6 13.74 17.53 13.59 17.38C13.3 17.09 13.3 16.61 13.59 16.32L15.35 14.56H6.85C6.44 14.56 6.1 14.22 6.1 13.81C6.1 13.4 6.44 13.06 6.85 13.06H17.16C17.26 13.06 17.35 13.08 17.45 13.12C17.63 13.2 17.78 13.34 17.86 13.53C17.92 13.71 17.92 13.92 17.85 14.1ZM17.15 10.93H6.85C6.75 10.93 6.66 10.91 6.56 10.87C6.38 10.79 6.23 10.65 6.15 10.46C6.07 10.28 6.07 10.07 6.15 9.89C6.19 9.8 6.24 9.72 6.31 9.65L9.35 6.61C9.64 6.32 10.12 6.32 10.41 6.61C10.7 6.9 10.7 7.38 10.41 7.67L8.66 9.43H17.16C17.57 9.43 17.91 9.77 17.91 10.18C17.91 10.59 17.57 10.93 17.15 10.93Z" fill="#292D32"/>
</svg>
