<svg width="24" height="24" viewBox="0 0 24 24" fill="none" xmlns="http://www.w3.org/2000/svg">
<path d="M17.6005 5.31125L11.9505 2.27125C11.3505 1.95125 10.6405 1.95125 10.0405 2.27125L4.40047 5.31125C3.99047 5.54125 3.73047 5.98125 3.73047 6.46125C3.73047 6.95125 3.98047 7.39125 4.40047 7.61125L10.0505 10.6512C10.3505 10.8112 10.6805 10.8913 11.0005 10.8913C11.3205 10.8913 11.6605 10.8112 11.9505 10.6512L17.6005 7.61125C18.0105 7.39125 18.2705 6.95125 18.2705 6.46125C18.2705 5.98125 18.0105 5.54125 17.6005 5.31125Z" fill="#292D32"/>
<path d="M9.12 11.7106L3.87 9.09058C3.46 8.88058 3 8.91058 2.61 9.14058C2.23 9.38058 2 9.79058 2 10.2406V15.2006C2 16.0606 2.48 16.8306 3.25 17.2206L8.5 19.8406C8.68 19.9306 8.88 19.9806 9.08 19.9806C9.31 19.9806 9.55 19.9106 9.76 19.7906C10.14 19.5506 10.37 19.1406 10.37 18.6906V13.7306C10.36 12.8706 9.88 12.1006 9.12 11.7106Z" fill="#292D32"/>
<path d="M20.0006 10.2406V12.7006C19.5206 12.5606 19.0106 12.5006 18.5006 12.5006C17.1406 12.5006 15.8106 12.9706 14.7606 13.8106C13.3206 14.9406 12.5006 16.6506 12.5006 18.5006C12.5006 18.9906 12.5606 19.4806 12.6906 19.9506C12.5406 19.9306 12.3906 19.8706 12.2506 19.7806C11.8706 19.5506 11.6406 19.1406 11.6406 18.6906V13.7306C11.6406 12.8706 12.1206 12.1006 12.8806 11.7106L18.1306 9.09058C18.5406 8.88058 19.0006 8.91058 19.3906 9.14058C19.7706 9.38058 20.0006 9.79058 20.0006 10.2406Z" fill="#292D32"/>
<path d="M21.98 15.65C21.16 14.64 19.91 14 18.5 14C17.44 14 16.46 14.37 15.69 14.99C14.65 15.81 14 17.08 14 18.5C14 19.91 14.64 21.16 15.65 21.98C16.42 22.62 17.42 23 18.5 23C19.64 23 20.67 22.57 21.47 21.88C22.4 21.05 23 19.85 23 18.5C23 17.42 22.62 16.42 21.98 15.65ZM19.53 18.78C19.53 19.04 19.39 19.29 19.17 19.42L17.76 20.26C17.64 20.33 17.51 20.37 17.37 20.37C17.12 20.37 16.87 20.24 16.73 20.01C16.52 19.65 16.63 19.19 16.99 18.98L18.03 18.36V17.1C18.03 16.69 18.37 16.35 18.78 16.35C19.19 16.35 19.53 16.69 19.53 17.1V18.78Z" fill="#292D32"/>
</svg>
