<svg width="24" height="24" viewBox="0 0 24 24" fill="none" xmlns="http://www.w3.org/2000/svg">
<path d="M21.6914 2.71C21.6114 2.53 21.4714 2.38 21.2814 2.3C21.1914 2.27 21.1014 2.25 21.0014 2.25H17.0014C16.5914 2.25 16.2514 2.59 16.2514 3C16.2514 3.41 16.5914 3.75 17.0014 3.75H19.1914L14.4714 8.47C14.1814 8.76 14.1814 9.24 14.4714 9.53C14.6214 9.68 14.8114 9.75 15.0014 9.75C15.1914 9.75 15.3814 9.68 15.5314 9.53L20.2514 4.81V7C20.2514 7.41 20.5914 7.75 21.0014 7.75C21.4114 7.75 21.7514 7.41 21.7514 7V3C21.7514 2.9 21.7314 2.81 21.6914 2.71Z" fill="#292D32"/>
<path d="M8.47 14.4714L3.75 19.1914V17.0014C3.75 16.5914 3.41 16.2514 3 16.2514C2.59 16.2514 2.25 16.5914 2.25 17.0014V21.0014C2.25 21.1014 2.27 21.1914 2.31 21.2914C2.39 21.4714 2.53 21.6214 2.72 21.7014C2.8 21.7314 2.9 21.7514 3 21.7514H7C7.41 21.7514 7.75 21.4114 7.75 21.0014C7.75 20.5914 7.41 20.2514 7 20.2514H4.81L9.53 15.5314C9.82 15.2414 9.82 14.7614 9.53 14.4714C9.24 14.1814 8.76 14.1814 8.47 14.4714Z" fill="#292D32"/>
<path d="M2.2 14.75C1.85 14.75 1.54 14.5 1.47 14.15C1.33 13.45 1.25 12.72 1.25 12C1.25 6.07 6.07 1.25 12 1.25C12.73 1.25 13.46 1.32 14.17 1.47C14.58 1.55 14.84 1.95 14.76 2.35C14.68 2.76 14.27 3.01 13.88 2.94C13.25 2.81 12.63 2.75 12 2.75C6.9 2.75 2.75 6.9 2.75 12C2.75 12.62 2.81 13.25 2.94 13.85C3.02 14.26 2.76 14.65 2.35 14.73C2.3 14.75 2.25 14.75 2.2 14.75Z" fill="#292D32"/>
<path d="M12.001 22.7483C11.271 22.7483 10.541 22.6783 9.83101 22.5283C9.42101 22.4483 9.16101 22.0483 9.24101 21.6483C9.32101 21.2383 9.73101 20.9883 10.121 21.0583C10.731 21.1783 11.361 21.2483 11.991 21.2483C17.091 21.2483 21.241 17.0983 21.241 11.9983C21.241 11.3783 21.181 10.7583 21.061 10.1483C20.981 9.73835 21.241 9.34835 21.651 9.26835C22.061 9.18835 22.451 9.44835 22.531 9.85835C22.671 10.5583 22.741 11.2783 22.741 11.9983C22.751 17.9283 17.931 22.7483 12.001 22.7483Z" fill="#292D32"/>
</svg>
