<svg width="24" height="24" viewBox="0 0 24 24" fill="none" xmlns="http://www.w3.org/2000/svg">
<path d="M15.0002 22.75C14.7302 22.75 14.4802 22.6 14.3502 22.37C14.2202 22.14 14.2202 21.85 14.3602 21.62L15.4102 19.87C15.6202 19.51 16.0802 19.4 16.4402 19.61C16.8002 19.82 16.9102 20.28 16.7002 20.64L16.4302 21.09C19.1902 20.44 21.2602 17.96 21.2602 15C21.2602 14.59 21.6002 14.25 22.0102 14.25C22.4202 14.25 22.7602 14.59 22.7602 15C22.7502 19.27 19.2702 22.75 15.0002 22.75Z" fill="#292D32"/>
<path d="M2 9.75C1.59 9.75 1.25 9.41 1.25 9C1.25 4.73 4.73 1.25 9 1.25C9.27 1.25 9.52 1.4 9.65 1.63C9.78 1.86 9.78 2.15 9.64 2.38L8.59 4.14C8.38 4.49 7.92 4.61 7.56 4.39C7.21 4.18 7.09 3.72 7.31 3.36L7.58 2.91C4.81 3.56 2.75 6.04 2.75 9C2.75 9.41 2.41 9.75 2 9.75Z" fill="#292D32"/>
<path d="M10.6709 13.8484L7.53094 12.1584C7.20094 11.9784 6.80094 11.9784 6.47094 12.1584L3.33094 13.8484C3.10094 13.9684 2.96094 14.2184 2.96094 14.4884C2.96094 14.7584 3.10094 15.0084 3.33094 15.1284L6.47094 16.8184C6.64094 16.9084 6.82094 16.9484 7.00094 16.9484C7.18094 16.9484 7.36094 16.9084 7.53094 16.8184L10.6709 15.1284C10.9009 15.0084 11.0409 14.7584 11.0409 14.4884C11.0409 14.2184 10.8909 13.9784 10.6709 13.8484Z" fill="#292D32"/>
<path d="M5.95 17.4106L3.03 15.9506C2.81 15.8406 2.55 15.8506 2.33 15.9806C2.13 16.1106 2 16.3406 2 16.5906V19.3506C2 19.8306 2.26 20.2606 2.69 20.4706L5.61 21.9306C5.71 21.9706 5.82 22.0006 5.93 22.0006C6.06 22.0006 6.19 21.9606 6.31 21.8906C6.52 21.7606 6.65 21.5306 6.65 21.2806V18.5206C6.65 18.0506 6.38 17.6206 5.95 17.4106Z" fill="#292D32"/>
<path d="M11.6616 15.9806C11.4516 15.8506 11.1916 15.8406 10.9616 15.9506L8.04156 17.4106C7.61156 17.6206 7.35156 18.0506 7.35156 18.5306V21.2906C7.35156 21.5406 7.48156 21.7706 7.69156 21.9006C7.81156 21.9606 7.94156 22.0006 8.07156 22.0006C8.18156 22.0006 8.29156 21.9706 8.39156 21.9206L11.3116 20.4606C11.7416 20.2506 12.0016 19.8206 12.0016 19.3406V16.5806C12.0016 16.3406 11.8716 16.1106 11.6616 15.9806Z" fill="#292D32"/>
<path d="M20.6709 3.82891L17.5309 2.13891C17.2009 1.95891 16.8009 1.95891 16.4709 2.13891L13.3309 3.82891C13.1009 3.94891 12.9609 4.19891 12.9609 4.46891C12.9609 4.73891 13.1009 4.98891 13.3309 5.10891L16.4709 6.79891C16.6409 6.88891 16.8209 6.92891 17.0009 6.92891C17.1809 6.92891 17.3609 6.88891 17.5309 6.79891L20.6709 5.10891C20.9009 4.98891 21.0409 4.73891 21.0409 4.46891C21.0409 4.18891 20.8909 3.94891 20.6709 3.82891Z" fill="#292D32"/>
<path d="M15.95 7.37938L13.03 5.91938C12.81 5.80938 12.55 5.81937 12.33 5.94937C12.13 6.07937 12 6.30937 12 6.55937V9.31937C12 9.79937 12.26 10.2294 12.69 10.4394L15.61 11.8994C15.71 11.9494 15.82 11.9794 15.93 11.9794C16.06 11.9794 16.19 11.9394 16.31 11.8694C16.52 11.7394 16.65 11.5094 16.65 11.2594V8.49938C16.65 8.01938 16.38 7.58938 15.95 7.37938Z" fill="#292D32"/>
<path d="M21.6616 5.94937C21.4516 5.81937 21.1916 5.80938 20.9616 5.91938L18.0416 7.37938C17.6116 7.58938 17.3516 8.01938 17.3516 8.49938V11.2594C17.3516 11.5094 17.4816 11.7394 17.6916 11.8694C17.8116 11.9394 17.9416 11.9794 18.0716 11.9794C18.1816 11.9794 18.2916 11.9494 18.3916 11.8994L21.3116 10.4394C21.7416 10.2194 22.0016 9.78937 22.0016 9.31937V6.55937C22.0016 6.30937 21.8716 6.07937 21.6616 5.94937Z" fill="#292D32"/>
</svg>
