<svg width="24" height="24" viewBox="0 0 24 24" fill="none" xmlns="http://www.w3.org/2000/svg">
<path d="M22 15V9C22 4 20 2 15 2H9C4 2 2 4 2 9V15C2 20 4 22 9 22H15C20 22 22 20 22 15Z" stroke="#292D32" stroke-width="1.5" stroke-linecap="round" stroke-linejoin="round"/>
<g opacity="0.4">
<path d="M9.62 17.2986C10.7908 17.2986 11.74 16.3494 11.74 15.1786C11.74 14.0077 10.7908 13.0586 9.62 13.0586C8.44915 13.0586 7.5 14.0077 7.5 15.1786C7.5 16.3494 8.44915 17.2986 9.62 17.2986Z" stroke="#292D32" stroke-width="1.5" stroke-linecap="round" stroke-linejoin="round"/>
<path d="M11.7422 15.1795V7.76953" stroke="#292D32" stroke-width="1.5" stroke-linecap="round" stroke-linejoin="round"/>
<path d="M13.1322 6.76814L15.4722 7.54811C16.0422 7.73811 16.5022 8.3781 16.5022 8.9781V9.5981C16.5022 10.4081 15.8722 10.8581 15.1122 10.5981L12.7722 9.81813C12.2022 9.62813 11.7422 8.98814 11.7422 8.38814V7.76814C11.7422 6.96814 12.3622 6.50814 13.1322 6.76814Z" stroke="#292D32" stroke-width="1.5" stroke-linecap="round" stroke-linejoin="round"/>
</g>
</svg>
