<svg width="24" height="24" viewBox="0 0 24 24" fill="none" xmlns="http://www.w3.org/2000/svg">
<path opacity="0.4" d="M2 8.33945V15.6595C2 17.1595 3.62999 18.0995 4.92999 17.3495L8.10001 15.5295L11.27 13.6995C11.47 13.5795 11.63 13.4495 11.76 13.2895V10.7295C11.63 10.5695 11.47 10.4395 11.27 10.3195L8.10001 8.48945L4.92999 6.66947C3.62999 5.89947 2 6.83945 2 8.33945Z" stroke="#292D32" stroke-width="1.5" stroke-linecap="round" stroke-linejoin="round"/>
<path d="M11.7617 8.33945V15.6595C11.7617 17.1595 13.3917 18.0995 14.6917 17.3495L17.8617 15.5295L21.0317 13.6995C22.3317 12.9495 22.3317 11.0795 21.0317 10.3195L17.8617 8.48945L14.6917 6.66947C13.3917 5.89947 11.7617 6.83945 11.7617 8.33945Z" stroke="#292D32" stroke-width="1.5" stroke-linecap="round" stroke-linejoin="round"/>
</svg>
