<svg width="24" height="24" viewBox="0 0 24 24" fill="none" xmlns="http://www.w3.org/2000/svg">
<path d="M17.82 6.53C17.16 3.93 14.81 2 12 2C8.69 2 6 4.69 6 8V13C6 14.46 6.52 15.8 7.39 16.84" stroke="#292D32" stroke-width="1.5" stroke-linecap="round" stroke-linejoin="round"/>
<path opacity="0.4" d="M18.0019 9.98047V13.0005C18.0019 16.3105 15.3119 19.0005 12.0019 19.0005C11.2719 19.0005 10.5619 18.8705 9.92188 18.6305" stroke="#292D32" stroke-width="1.5" stroke-linecap="round" stroke-linejoin="round"/>
<path opacity="0.4" d="M5.85938 19.58C7.46938 21.08 9.62937 22 11.9994 22C16.9694 22 20.9994 17.97 20.9994 13V11" stroke="#292D32" stroke-width="1.5" stroke-linecap="round" stroke-linejoin="round"/>
<path d="M21.5 2.98828L2.5 21.9883" stroke="#292D32" stroke-width="1.5" stroke-linecap="round" stroke-linejoin="round"/>
<path d="M11.5508 5.50172V2.26172" stroke="#292D32" stroke-width="1.5" stroke-linecap="round" stroke-linejoin="round"/>
<path d="M8.5 3.5V7.5" stroke="#292D32" stroke-width="1.5" stroke-linecap="round" stroke-linejoin="round"/>
</svg>
