<svg width="24" height="24" viewBox="0 0 24 24" fill="none" xmlns="http://www.w3.org/2000/svg">
<path d="M11.6509 2.34953L6.36094 7.63953C6.16094 7.83953 6.16094 8.14953 6.36094 8.34953L7.65093 9.63953C7.85093 9.83953 8.16094 9.83953 8.36094 9.63953L11.6509 6.34953C11.8509 6.14953 12.1609 6.14953 12.3609 6.34953L15.6509 9.63953C15.8509 9.83953 16.1609 9.83953 16.3609 9.63953L17.6509 8.34953C17.8509 8.14953 17.8509 7.83953 17.6509 7.63953L12.3609 2.34953C12.1609 2.15953 11.8409 2.15953 11.6509 2.34953Z" fill="black"/>
<path d="M11.6509 21.6509L6.36094 16.3609C6.16094 16.1609 6.16094 15.8509 6.36094 15.6509L7.65093 14.3609C7.85093 14.1609 8.16094 14.1609 8.36094 14.3609L11.6509 17.6509C11.8509 17.8509 12.1609 17.8509 12.3609 17.6509L15.6509 14.3609C15.8509 14.1609 16.1609 14.1609 16.3609 14.3609L17.6509 15.6509C17.8509 15.8509 17.8509 16.1609 17.6509 16.3609L12.3609 21.6509C12.1609 21.8409 11.8409 21.8409 11.6509 21.6509Z" fill="black"/>
<path d="M20.0992 10.0995L21.6392 11.6395C21.8392 11.8395 21.8392 12.1495 21.6392 12.3495L20.0992 13.8895C19.8992 14.0895 19.5892 14.0895 19.3892 13.8895L17.8492 12.3495C17.6492 12.1495 17.6492 11.8395 17.8492 11.6395L19.3892 10.0995C19.5892 9.90953 19.9092 9.90953 20.0992 10.0995Z" fill="black"/>
<path d="M4.59922 10.0995L6.13921 11.6395C6.33921 11.8395 6.33921 12.1495 6.13921 12.3495L4.59922 13.8895C4.39922 14.0895 4.08921 14.0895 3.88921 13.8895L2.34922 12.3495C2.14922 12.1495 2.14922 11.8395 2.34922 11.6395L3.88921 10.0995C4.08921 9.90953 4.40922 9.90953 4.59922 10.0995Z" fill="black"/>
<path d="M12.3507 9.88047L14.1207 11.6505C14.3207 11.8505 14.3207 12.1605 14.1207 12.3605L12.3507 14.1305C12.1507 14.3305 11.8407 14.3305 11.6407 14.1305L9.8707 12.3605C9.6707 12.1605 9.6707 11.8505 9.8707 11.6505L11.6407 9.88047C11.8407 9.68047 12.1607 9.68047 12.3507 9.88047Z" fill="black"/>
</svg>
