<svg width="24" height="24" viewBox="0 0 24 24" fill="none" xmlns="http://www.w3.org/2000/svg">
<path d="M14.9693 12.75H14.1993H9.5293V15.58H10.8393H14.9693C15.9193 15.58 16.6993 14.94 16.6993 14.16C16.6993 13.38 15.9193 12.75 14.9693 12.75Z" fill="black"/>
<path d="M12 2C6.48 2 2 6.48 2 12C2 17.52 6.48 22 12 22C17.52 22 22 17.52 22 12C22 6.48 17.52 2 12 2ZM14.97 17.08H13.32V18.5C13.32 18.91 12.98 19.25 12.57 19.25C12.16 19.25 11.82 18.91 11.82 18.5V17.08H10.84H10.61V18.5C10.61 18.91 10.27 19.25 9.86 19.25C9.45 19.25 9.11 18.91 9.11 18.5V17.08H8.78H7.05C6.64 17.08 6.3 16.74 6.3 16.33C6.3 15.92 6.64 15.58 7.05 15.58H8.03V12V8.42H7.05C6.64 8.42 6.3 8.08 6.3 7.67C6.3 7.26 6.64 6.92 7.05 6.92H8.78H9.11V5.5C9.11 5.09 9.45 4.75 9.86 4.75C10.27 4.75 10.61 5.09 10.61 5.5V6.92H10.84H11.82V5.5C11.82 5.09 12.16 4.75 12.57 4.75C12.98 4.75 13.32 5.09 13.32 5.5V6.92H14.2C15.75 6.92 17.12 8.28 17.12 9.84C17.12 10.51 16.88 11.12 16.5 11.62C17.51 12.11 18.2 13.07 18.2 14.18C18.2 15.77 16.75 17.08 14.97 17.08Z" fill="black"/>
<path d="M15.6193 9.83016C15.6193 9.17016 14.9993 8.41016 14.1993 8.41016H10.8393H9.5293V11.2402H14.1993C14.9793 11.2502 15.6193 10.6102 15.6193 9.83016Z" fill="black"/>
</svg>
