<svg width="24" height="24" viewBox="0 0 24 24" fill="none" xmlns="http://www.w3.org/2000/svg">
<path d="M17.1484 10C17.7007 10 18.1484 9.55228 18.1484 9C18.1484 8.44772 17.7007 8 17.1484 8C16.5962 8 16.1484 8.44772 16.1484 9C16.1484 9.55228 16.5962 10 17.1484 10Z" fill="black"/>
<path d="M17.1484 16C17.7007 16 18.1484 15.5523 18.1484 15C18.1484 14.4477 17.7007 14 17.1484 14C16.5962 14 16.1484 14.4477 16.1484 15C16.1484 15.5523 16.5962 16 17.1484 16Z" fill="black"/>
<path d="M19.75 13C20.3023 13 20.75 12.5523 20.75 12C20.75 11.4477 20.3023 11 19.75 11C19.1977 11 18.75 11.4477 18.75 12C18.75 12.5523 19.1977 13 19.75 13Z" fill="black"/>
<path d="M6.79883 10C7.35111 10 7.79883 9.55228 7.79883 9C7.79883 8.44772 7.35111 8 6.79883 8C6.24654 8 5.79883 8.44772 5.79883 9C5.79883 9.55228 6.24654 10 6.79883 10Z" fill="black"/>
<path d="M6.79883 16C7.35111 16 7.79883 15.5523 7.79883 15C7.79883 14.4477 7.35111 14 6.79883 14C6.24654 14 5.79883 14.4477 5.79883 15C5.79883 15.5523 6.24654 16 6.79883 16Z" fill="black"/>
<path d="M4.19922 13C4.7515 13 5.19922 12.5523 5.19922 12C5.19922 11.4477 4.7515 11 4.19922 11C3.64693 11 3.19922 11.4477 3.19922 12C3.19922 12.5523 3.64693 13 4.19922 13Z" fill="black"/>
<path d="M15.8984 6.19922C16.4507 6.19922 16.8984 5.7515 16.8984 5.19922C16.8984 4.64693 16.4507 4.19922 15.8984 4.19922C15.3462 4.19922 14.8984 4.64693 14.8984 5.19922C14.8984 5.7515 15.3462 6.19922 15.8984 6.19922Z" fill="black"/>
<path d="M8.09961 6.19922C8.65189 6.19922 9.09961 5.7515 9.09961 5.19922C9.09961 4.64693 8.65189 4.19922 8.09961 4.19922C7.54732 4.19922 7.09961 4.64693 7.09961 5.19922C7.09961 5.7515 7.54732 6.19922 8.09961 6.19922Z" fill="black"/>
<path d="M12.0488 7C12.6011 7 13.0488 6.55228 13.0488 6C13.0488 5.44772 12.6011 5 12.0488 5C11.4965 5 11.0488 5.44772 11.0488 6C11.0488 6.55228 11.4965 7 12.0488 7Z" fill="black"/>
<path d="M15.8984 20C16.4507 20 16.8984 19.5523 16.8984 19C16.8984 18.4477 16.4507 18 15.8984 18C15.3462 18 14.8984 18.4477 14.8984 19C14.8984 19.5523 15.3462 20 15.8984 20Z" fill="black"/>
<path d="M8.09961 20C8.65189 20 9.09961 19.5523 9.09961 19C9.09961 18.4477 8.65189 18 8.09961 18C7.54732 18 7.09961 18.4477 7.09961 19C7.09961 19.5523 7.54732 20 8.09961 20Z" fill="black"/>
<path d="M12.0488 19.1992C12.6011 19.1992 13.0488 18.7515 13.0488 18.1992C13.0488 17.6469 12.6011 17.1992 12.0488 17.1992C11.4965 17.1992 11.0488 17.6469 11.0488 18.1992C11.0488 18.7515 11.4965 19.1992 12.0488 19.1992Z" fill="black"/>
<path d="M13.75 10.25C14.4404 10.25 15 9.69036 15 9C15 8.30964 14.4404 7.75 13.75 7.75C13.0596 7.75 12.5 8.30964 12.5 9C12.5 9.69036 13.0596 10.25 13.75 10.25Z" fill="black"/>
<path d="M10.25 10.25C10.9404 10.25 11.5 9.69036 11.5 9C11.5 8.30964 10.9404 7.75 10.25 7.75C9.55964 7.75 9 8.30964 9 9C9 9.69036 9.55964 10.25 10.25 10.25Z" fill="black"/>
<path d="M15.5 13.25C16.1904 13.25 16.75 12.6904 16.75 12C16.75 11.3096 16.1904 10.75 15.5 10.75C14.8096 10.75 14.25 11.3096 14.25 12C14.25 12.6904 14.8096 13.25 15.5 13.25Z" fill="black"/>
<path d="M8.5 13.25C9.19036 13.25 9.75 12.6904 9.75 12C9.75 11.3096 9.19036 10.75 8.5 10.75C7.80964 10.75 7.25 11.3096 7.25 12C7.25 12.6904 7.80964 13.25 8.5 13.25Z" fill="black"/>
<path d="M10.25 16.25C10.9404 16.25 11.5 15.6904 11.5 15C11.5 14.3096 10.9404 13.75 10.25 13.75C9.55964 13.75 9 14.3096 9 15C9 15.6904 9.55964 16.25 10.25 16.25Z" fill="black"/>
<path d="M13.75 16.25C14.4404 16.25 15 15.6904 15 15C15 14.3096 14.4404 13.75 13.75 13.75C13.0596 13.75 12.5 14.3096 12.5 15C12.5 15.6904 13.0596 16.25 13.75 16.25Z" fill="black"/>
<path d="M11.9991 3.33031C11.5091 3.33031 11.1191 2.94031 11.1191 2.45031C11.1191 1.96031 11.5091 1.57031 11.9991 1.57031C12.4891 1.57031 12.8792 1.96031 12.8792 2.45031C12.8792 2.94031 12.4891 3.33031 11.9991 3.33031Z" fill="black"/>
<path d="M17.2502 3.60156C16.8302 3.60156 16.4902 3.26156 16.4902 2.85156C16.4902 2.44156 16.8302 2.10156 17.2402 2.10156C17.6502 2.10156 18.0002 2.44156 18.0002 2.85156C18.0002 3.26156 17.6702 3.60156 17.2502 3.60156Z" fill="black"/>
<path d="M6.75 3.60156C6.34 3.60156 6 3.26156 6 2.85156C6 2.44156 6.33 2.10156 6.75 2.10156H6.76001C7.17001 2.10156 7.51001 2.44156 7.51001 2.85156C7.51001 3.26156 7.17 3.60156 6.75 3.60156Z" fill="black"/>
<path d="M11.9991 22.3811C11.5091 22.3811 11.1191 21.9911 11.1191 21.5011C11.1191 21.0111 11.5091 20.6211 11.9991 20.6211C12.4891 20.6211 12.8792 21.0111 12.8792 21.5011C12.8792 21.9911 12.4891 22.3811 11.9991 22.3811Z" fill="black"/>
<path d="M17.2502 21.8516C16.8302 21.8516 16.4902 21.5116 16.4902 21.1016C16.4902 20.6916 16.8302 20.3516 17.2402 20.3516C17.6502 20.3516 18.0002 20.6916 18.0002 21.1016C18.0002 21.5116 17.6702 21.8516 17.2502 21.8516Z" fill="black"/>
<path d="M6.75 21.8516C6.34 21.8516 6 21.5116 6 21.1016C6 20.6916 6.33 20.3516 6.75 20.3516H6.76001C7.17001 20.3516 7.51001 20.6916 7.51001 21.1016C7.51001 21.5116 7.17 21.8516 6.75 21.8516Z" fill="black"/>
<path d="M1.5499 12.8811C1.0699 12.8811 0.669922 12.4911 0.669922 12.0111V12.0011C0.669922 11.5211 1.0599 11.1211 1.5499 11.1211C2.0399 11.1211 2.4299 11.5111 2.4299 12.0011C2.4299 12.4911 2.0299 12.8811 1.5499 12.8811Z" fill="black"/>
<path d="M3.75 17.7483C3.34 17.7483 3 17.4183 3 16.9983V16.9883C3 16.5783 3.34 16.2383 3.75 16.2383C4.16 16.2383 4.5 16.5783 4.5 16.9883C4.5 17.3983 4.16 17.7483 3.75 17.7483Z" fill="black"/>
<path d="M3.75 7.76172C3.34 7.76172 3 7.42172 3 7.01172C3 6.60172 3.34 6.26172 3.75 6.26172C4.16 6.26172 4.5 6.59172 4.5 7.00172V7.01172C4.5 7.42172 4.16 7.76172 3.75 7.76172Z" fill="black"/>
<path d="M22.4991 12.8811C22.0191 12.8811 21.6191 12.4911 21.6191 12.0111V12.0011C21.6191 11.5211 22.0091 11.1211 22.4991 11.1211C22.9891 11.1211 23.3792 11.5111 23.3792 12.0011C23.3792 12.4911 22.9791 12.8811 22.4991 12.8811Z" fill="black"/>
<path d="M20.3008 17.7483C19.8908 17.7483 19.5508 17.4183 19.5508 16.9983V16.9883C19.5508 16.5783 19.8908 16.2383 20.3008 16.2383C20.7108 16.2383 21.0508 16.5783 21.0508 16.9883C21.0508 17.3983 20.7108 17.7483 20.3008 17.7483Z" fill="black"/>
<path d="M20.3008 7.76172C19.8908 7.76172 19.5508 7.42172 19.5508 7.01172C19.5508 6.60172 19.8908 6.26172 20.3008 6.26172C20.7108 6.26172 21.0508 6.59172 21.0508 7.01172V7.02172C21.0508 7.42172 20.7108 7.76172 20.3008 7.76172Z" fill="black"/>
</svg>
