<svg width="24" height="24" viewBox="0 0 24 24" fill="none" xmlns="http://www.w3.org/2000/svg">
<path d="M11.9994 6.00127L6.43936 10.0013L3.18936 7.80126C2.60936 7.41126 2.59938 6.57128 3.16938 6.16128L6.99936 3.40127C7.33936 3.16127 7.79938 3.15128 8.13938 3.38128L11.9994 6.00127Z" fill="black"/>
<path d="M20.81 7.79881L17.56 9.99882L12 5.99882L15.86 3.38883C16.21 3.15883 16.66 3.15882 17 3.40882L20.83 6.16883C21.4 6.56883 21.39 7.40881 20.81 7.79881Z" fill="black"/>
<path d="M11.9999 14L7.55992 17L4.99992 15.16L3.15992 13.84C2.59992 13.43 2.60991 12.59 3.17991 12.2L6.42991 10L11.9999 14Z" fill="black"/>
<path d="M20.8102 12.2C21.3902 12.59 21.4002 13.43 20.8302 13.84L18.9902 15.16L16.4302 17L11.9902 14L17.5502 10L20.8102 12.2Z" fill="black"/>
<path d="M18.68 17.3381C18.81 17.2381 19 17.3381 19 17.4981V18.2281C19 18.6181 18.77 18.9681 18.42 19.1381L12.42 21.9081C12.15 22.0281 11.85 22.0281 11.58 21.9081L5.57999 19.1381C5.22999 18.9681 5 18.6181 5 18.2281V17.4981C5 17.3381 5.18001 17.2381 5.32001 17.3381L7.25 18.7281C7.42 18.8481 7.65001 18.8581 7.82001 18.7381L11.72 16.0981C11.89 15.9881 12.11 15.9881 12.28 16.0981L16.18 18.7381C16.35 18.8581 16.58 18.8481 16.75 18.7281L18.68 17.3381Z" fill="black"/>
</svg>
