<svg width="24" height="24" viewBox="0 0 24 24" fill="none" xmlns="http://www.w3.org/2000/svg">
<path d="M16.1898 2H7.81978C4.17978 2 2.00977 4.17 2.00977 7.81V16.18C2.00977 19.82 4.17978 21.99 7.81978 21.99H16.1898C19.8298 21.99 21.9998 19.82 21.9998 16.18V7.81C21.9998 4.17 19.8298 2 16.1898 2ZM10.9998 7.5C10.9998 7.78 10.7798 8 10.4998 8H8.99977C8.44977 8 7.99977 8.45 7.99977 9V10.5C7.99977 10.78 7.77977 11 7.49977 11H5.49977C5.21977 11 4.99977 10.78 4.99977 10.5V9C4.99977 6.79 6.78977 5 8.99977 5H10.4998C10.7798 5 10.9998 5.22 10.9998 5.5V7.5ZM18.9998 15C18.9998 17.21 17.2098 19 14.9998 19H13.4998C13.2198 19 12.9998 18.78 12.9998 18.5V16.5C12.9998 16.22 13.2198 16 13.4998 16H14.9998C15.5498 16 15.9998 15.55 15.9998 15V13.5C15.9998 13.22 16.2198 13 16.4998 13H18.4998C18.7798 13 18.9998 13.22 18.9998 13.5V15Z" fill="black"/>
</svg>
