<svg width="24" height="24" viewBox="0 0 24 24" fill="none" xmlns="http://www.w3.org/2000/svg">
<path d="M9.5 8.75H8.25V11.25H9.5C10.19 11.25 10.75 10.69 10.75 10C10.75 9.31 10.19 8.75 9.5 8.75Z" fill="black"/>
<path d="M16.1898 2H7.81976C4.17976 2 2.00977 4.17 2.00977 7.81V16.18C2.00977 19.82 4.17976 21.99 7.81976 21.99H16.1898C19.8298 21.99 21.9998 19.82 21.9998 16.18V7.81C21.9998 4.17 19.8298 2 16.1898 2ZM9.49976 12.75H8.24976V16C8.24976 16.41 7.90976 16.75 7.49976 16.75C7.08976 16.75 6.74976 16.41 6.74976 16V8C6.74976 7.59 7.08976 7.25 7.49976 7.25H9.49976C11.0198 7.25 12.2498 8.48 12.2498 10C12.2498 11.52 11.0198 12.75 9.49976 12.75ZM15.2498 12.75C16.3498 12.75 17.2498 13.65 17.2498 14.75C17.2498 15.85 16.3498 16.75 15.2498 16.75H13.9998C13.5898 16.75 13.2498 16.41 13.2498 16C13.2498 15.59 13.5898 15.25 13.9998 15.25H15.2498C15.5298 15.25 15.7498 15.03 15.7498 14.75C15.7498 14.47 15.5298 14.25 15.2498 14.25C14.1498 14.25 13.2498 13.35 13.2498 12.25C13.2498 11.15 14.1498 10.25 15.2498 10.25H16.4998C16.9098 10.25 17.2498 10.59 17.2498 11C17.2498 11.41 16.9098 11.75 16.4998 11.75H15.2498C14.9698 11.75 14.7498 11.97 14.7498 12.25C14.7498 12.53 14.9698 12.75 15.2498 12.75Z" fill="black"/>
</svg>
