<svg width="24" height="24" viewBox="0 0 24 24" fill="none" xmlns="http://www.w3.org/2000/svg">
<path d="M20.4897 6.70813L12.4897 2.26812C12.1897 2.09812 11.8198 2.09812 11.5198 2.26812L3.51978 6.70813C3.19978 6.88813 3.00977 7.21812 3.00977 7.57812V16.3981C3.00977 16.7581 3.20978 17.0981 3.51978 17.2681L11.5397 21.7281C11.8297 21.8881 12.1797 21.8981 12.4697 21.7481L16.4998 19.7381C16.8098 19.5781 17.1797 19.5981 17.4797 19.7881L19.4697 21.0381C20.1397 21.4581 20.9998 20.9781 20.9998 20.1881V17.5781C20.9998 17.2181 20.7997 16.8781 20.4897 16.7081L17.4897 15.0481C17.1897 14.8781 16.8198 14.8781 16.5198 15.0481L12.4897 17.2881C12.1897 17.4581 11.8198 17.4581 11.5198 17.2881L7.51978 15.0681C7.19978 14.8881 7.00977 14.5581 7.00977 14.1981V9.81813C7.00977 9.45813 7.20978 9.11812 7.51978 8.94812L11.5198 6.72812C11.8198 6.55812 12.1897 6.55812 12.4897 6.72812L16.4897 8.94812C16.8097 9.12812 16.9998 9.45813 16.9998 9.81813V12.8781C16.9998 13.6881 17.9098 14.1581 18.5698 13.6981L20.5698 12.3081C20.8398 12.1181 20.9998 11.8181 20.9998 11.4881V7.59813C20.9998 7.22813 20.7997 6.88813 20.4897 6.70813Z" fill="black"/>
<path d="M15.8606 10.4216V13.5716C15.8606 13.9216 15.6706 14.2416 15.3606 14.4116L12.4706 16.0216C12.1806 16.1816 11.8206 16.1816 11.5306 16.0216L8.64062 14.4116C8.33062 14.2416 8.14062 13.9216 8.14062 13.5716V10.4216C8.14062 10.0716 8.33062 9.75156 8.64062 9.58156L11.5306 7.97156C11.8206 7.81156 12.1806 7.81156 12.4706 7.97156L15.3606 9.58156C15.6706 9.75156 15.8606 10.0716 15.8606 10.4216Z" fill="black"/>
</svg>
