<svg width="24" height="24" viewBox="0 0 24 24" fill="none" xmlns="http://www.w3.org/2000/svg">
<path d="M14.5405 1.87891C13.3105 1.87891 12.3105 2.87889 12.3105 4.10889V8.7489C12.3105 9.9789 13.3105 10.9789 14.5405 10.9789C15.7705 10.9789 16.7706 9.9789 16.7706 8.7489V4.10889C16.7706 2.88889 15.7705 1.87891 14.5405 1.87891Z" fill="black"/>
<path d="M20.1802 7.10938C19.1102 7.10938 18.2402 7.97938 18.2402 9.04938V10.6194C18.2402 10.8294 18.4102 10.9994 18.6202 10.9994H20.1902C21.2602 10.9994 22.1302 10.1294 22.1302 9.05939C22.1302 7.98939 21.2502 7.10938 20.1802 7.10938Z" fill="black"/>
<path d="M8.50085 6.98828H3.86086C2.63086 6.98828 1.63086 7.98829 1.63086 9.21829C1.63086 10.4483 2.63086 11.4483 3.86086 11.4483H8.50085C9.73085 11.4483 10.7309 10.4483 10.7309 9.21829C10.7309 7.98829 9.73085 6.98828 8.50085 6.98828Z" fill="black"/>
<path d="M8.7896 1.62109C7.7196 1.62109 6.84961 2.4911 6.84961 3.5611C6.84961 4.6311 7.7196 5.5011 8.7896 5.5011H10.3596C10.5696 5.5011 10.7396 5.33109 10.7396 5.12109V3.55109C10.7296 2.50109 9.8596 1.62109 8.7896 1.62109Z" fill="black"/>
<path d="M9.42921 13.0312C8.19921 13.0312 7.19922 14.0313 7.19922 15.2613V19.9012C7.19922 21.1312 8.19921 22.1313 9.42921 22.1313C10.6592 22.1313 11.6592 21.1312 11.6592 19.9012V15.2613C11.6592 14.0313 10.6592 13.0312 9.42921 13.0312Z" fill="black"/>
<path d="M5.3596 13.0312H3.7896C2.7196 13.0312 1.84961 13.9013 1.84961 14.9713C1.84961 16.0413 2.7196 16.9113 3.7896 16.9113C4.8596 16.9113 5.7296 16.0413 5.7296 14.9713V13.4012C5.7296 13.2012 5.5596 13.0312 5.3596 13.0312Z" fill="black"/>
<path d="M20.1102 12.5703H15.4702C14.2402 12.5703 13.2402 13.5703 13.2402 14.8003C13.2402 16.0303 14.2402 17.0303 15.4702 17.0303H20.1102C21.3402 17.0303 22.3402 16.0303 22.3402 14.8003C22.3402 13.5703 21.3402 12.5703 20.1102 12.5703Z" fill="black"/>
<path d="M15.1805 18.4688H13.6105C13.4005 18.4688 13.2305 18.6388 13.2305 18.8488V20.4188C13.2305 21.4888 14.1005 22.3587 15.1705 22.3587C16.2405 22.3587 17.1105 21.4888 17.1105 20.4188C17.1205 19.3388 16.2505 18.4688 15.1805 18.4688Z" fill="black"/>
</svg>
