<svg width="24" height="24" viewBox="0 0 24 24" fill="none" xmlns="http://www.w3.org/2000/svg">
<path d="M22.6595 4.64C22.4595 4.28 21.9996 4.14 21.6396 4.34L4.69959 13.66C4.57959 13.12 4.49958 12.56 4.49958 12C4.49958 7.86 7.85958 4.5 11.9996 4.5C13.4096 4.5 14.7796 4.89 15.9596 5.63C16.3096 5.85 16.7696 5.74 16.9896 5.39C17.2096 5.04 17.0996 4.58 16.7496 4.36C15.3296 3.47 13.6896 3 11.9996 3C7.03958 3 2.99958 7.04 2.99958 12C2.99958 12.81 3.10958 13.61 3.31958 14.39C3.31958 14.4 3.32959 14.4 3.32959 14.41L1.63959 15.34C1.27959 15.54 1.1396 16 1.3396 16.36C1.4796 16.61 1.72958 16.75 1.99958 16.75C2.11958 16.75 2.24956 16.72 2.35956 16.66L22.3596 5.66C22.7196 5.46 22.8596 5 22.6595 4.64Z" fill="black"/>
<path d="M22.6595 8.14156C22.4595 7.78156 21.9996 7.64155 21.6396 7.84155L19.5296 9.00156C19.4996 9.02156 19.4596 9.03155 19.4296 9.06155L1.63959 18.8416C1.27959 19.0416 1.1396 19.5016 1.3396 19.8616C1.4796 20.1116 1.72958 20.2516 1.99958 20.2516C2.11958 20.2516 2.24956 20.2216 2.35956 20.1616L19.3896 10.7916C19.4496 11.1916 19.4996 11.5916 19.4996 12.0016C19.4996 16.1416 16.1396 19.5016 11.9996 19.5016C10.5796 19.5016 9.2096 19.1016 8.0196 18.3616C7.6696 18.1416 7.20957 18.2516 6.98957 18.6016C6.76957 18.9516 6.86956 19.4116 7.22956 19.6316C8.65956 20.5316 10.3096 21.0016 12.0096 21.0016C16.9696 21.0016 21.0096 16.9616 21.0096 12.0016C21.0096 11.3316 20.9096 10.6816 20.7696 10.0416L22.3696 9.16156C22.7196 8.96156 22.8596 8.50156 22.6595 8.14156Z" fill="black"/>
</svg>
