<svg width="24" height="24" viewBox="0 0 24 24" fill="none" xmlns="http://www.w3.org/2000/svg">
<path d="M16.1898 2H7.81976C4.17976 2 2.00977 4.17 2.00977 7.81V16.18C2.00977 19.82 4.17976 21.99 7.81976 21.99H16.1898C19.8298 21.99 21.9998 19.82 21.9998 16.18V7.81C21.9998 4.17 19.8298 2 16.1898 2ZM10.7698 16.49C10.7698 17.16 10.2197 17.71 9.54974 17.71H7.09973C6.42973 17.71 5.87976 17.16 5.87976 16.49V7.51001C5.87976 6.84001 6.42973 6.29001 7.09973 6.29001H9.54974C10.2197 6.29001 10.7698 6.84001 10.7698 7.51001V16.49ZM18.1198 12.65C18.1198 13.19 17.6798 13.63 17.1398 13.63H14.1998C13.6598 13.63 13.2197 13.19 13.2197 12.65V7.26001C13.2197 6.72001 13.6598 6.28 14.1998 6.28H17.1398C17.6798 6.28 18.1198 6.72001 18.1198 7.26001V12.65Z" fill="black"/>
</svg>
