<svg width="24" height="24" viewBox="0 0 24 24" fill="none" xmlns="http://www.w3.org/2000/svg">
<path d="M11.9998 22.7487C11.7498 22.7487 11.5098 22.6187 11.3698 22.4087L2.32981 8.40866C2.10981 8.05866 2.20981 7.59865 2.54981 7.36865C2.89981 7.14865 3.35982 7.23865 3.58982 7.58865L11.9898 20.6086L20.3598 7.58865C20.5798 7.23865 21.0498 7.13864 21.3998 7.35864C21.7498 7.57864 21.8498 8.04865 21.6298 8.39865L12.6298 22.3986C12.4898 22.6186 12.2598 22.7487 11.9998 22.7487Z" fill="black"/>
<path d="M3.91975 4H5.73972C5.90972 4 6.05974 4.08 6.15974 4.22L11.5997 12.37C11.7997 12.67 12.2297 12.67 12.4297 12.37L17.8697 4.22C17.9597 4.08 18.1197 4 18.2897 4H20.1097C20.5097 4 20.7397 4.43999 20.5297 4.76999L12.4497 17.35C12.2497 17.66 11.8097 17.66 11.6097 17.35L3.52973 4.76999C3.27973 4.43999 3.51975 4 3.91975 4Z" fill="black"/>
<path d="M9.41952 3.5C8.96952 3.34 8.56951 3.85 8.83951 4.25L11.5895 8.38C11.7895 8.68001 12.2195 8.68001 12.4195 8.38L15.1695 4.26001C15.4395 3.86001 15.0395 3.35001 14.5895 3.51001L13.2095 4V2.5C13.2095 2.22 12.9895 2 12.7095 2H11.3095C11.0295 2 10.8095 2.22 10.8095 2.5V4L9.41952 3.5Z" fill="black"/>
</svg>
