<svg width="24" height="24" viewBox="0 0 24 24" fill="none" xmlns="http://www.w3.org/2000/svg">
<path d="M18.289 22.75H5.70897C2.30897 22.75 2.12897 20.88 1.97897 19.37L1.57897 14.36C1.48897 13.39 1.76897 12.42 2.38897 11.64C3.12897 10.74 4.17897 10.25 5.30897 10.25H18.689C19.799 10.25 20.849 10.74 21.559 11.59L21.729 11.82C22.269 12.56 22.509 13.46 22.419 14.37L22.019 19.36C21.869 20.88 21.689 22.75 18.289 22.75ZM5.30897 11.75C4.63897 11.75 3.99897 12.05 3.57897 12.57L3.50897 12.64C3.18897 13.05 3.01897 13.63 3.07897 14.23L3.47897 19.24C3.61897 20.7 3.67897 21.25 5.70897 21.25H18.289C20.329 21.25 20.379 20.7 20.519 19.23L20.919 14.22C20.979 13.63 20.809 13.04 20.419 12.58L20.319 12.46C19.869 11.99 19.299 11.75 18.679 11.75H5.30897Z" fill="#292D32"/>
<path d="M20.5 12.2213C20.09 12.2213 19.75 11.8813 19.75 11.4713V9.68125C19.75 6.70125 19.23 6.18125 16.25 6.18125H13.7C12.57 6.18125 12.18 5.78125 11.75 5.21125L10.46 3.50125C10.02 2.92125 9.92 2.78125 9.02 2.78125H7.75C4.77 2.78125 4.25 3.30125 4.25 6.28125V11.4313C4.25 11.8413 3.91 12.1813 3.5 12.1813C3.09 12.1813 2.75 11.8413 2.75 11.4313V6.28125C2.75 2.45125 3.92 1.28125 7.75 1.28125H9.03C10.57 1.28125 11.05 1.78125 11.67 2.60125L12.95 4.30125C13.22 4.66125 13.24 4.68125 13.71 4.68125H16.26C20.09 4.68125 21.26 5.85125 21.26 9.68125V11.4713C21.25 11.8813 20.91 12.2213 20.5 12.2213Z" fill="#292D32"/>
<path d="M14.5697 17.75H9.42969C9.01969 17.75 8.67969 17.41 8.67969 17C8.67969 16.59 9.01969 16.25 9.42969 16.25H14.5697C14.9797 16.25 15.3197 16.59 15.3197 17C15.3197 17.41 14.9897 17.75 14.5697 17.75Z" fill="#292D32"/>
</svg>
