<svg width="24" height="24" viewBox="0 0 24 24" fill="none" xmlns="http://www.w3.org/2000/svg">
<path d="M2 13.02V15C2 20 4 22 9 22H15C20 22 22 20 22 15V9C22 4 20 2 15 2H9C4 2 2 4 2 9" stroke="#292D32" stroke-width="1.5" stroke-linecap="round" stroke-linejoin="round"/>
<path d="M18.28 9.76178V12.9018C18.28 13.1018 18.27 13.3018 18.25 13.4918C18.07 15.6118 16.82 16.6718 14.52 16.6718H14.21C14.01 16.6718 13.82 16.7618 13.71 16.9218L12.77 18.1818C12.35 18.7418 11.68 18.7418 11.26 18.1818L10.32 16.9218C10.22 16.7918 9.99001 16.6718 9.82001 16.6718H9.51001C7.00001 16.6718 5.75 16.0518 5.75 12.9118V9.77176C5.75 7.47176 6.80999 6.22178 8.92999 6.04178C9.11999 6.02178 9.31999 6.01178 9.51999 6.01178H14.55C17.02 6.00178 18.28 7.26178 18.28 9.76178Z" stroke="#292D32" stroke-width="1.5" stroke-miterlimit="10" stroke-linecap="round" stroke-linejoin="round"/>
</svg>
