<svg width="24" height="24" viewBox="0 0 24 24" fill="none" xmlns="http://www.w3.org/2000/svg">
<path d="M21.25 5.15V7.85C21.25 9.69 20.69 10.25 18.85 10.25H16.15C14.31 10.25 13.75 9.69 13.75 7.85V5.15C13.75 3.31 14.31 2.75 16.15 2.75H18.85C20.69 2.75 21.25 3.31 21.25 5.15Z" fill="#292D32"/>
<path d="M10.25 16.15V18.85C10.25 20.69 9.69 21.25 7.85 21.25H5.15C3.31 21.25 2.75 20.69 2.75 18.85V16.15C2.75 14.31 3.31 13.75 5.15 13.75H7.85C9.69 13.75 10.25 14.31 10.25 16.15Z" fill="#292D32"/>
<path d="M16.1491 11.7511C16.4142 11.7511 16.6291 11.966 16.6291 12.2311V13.6211C16.6291 15.9011 15.8991 16.6311 13.6191 16.6311H12.2291C11.964 16.6311 11.7491 16.4162 11.7491 16.1511C11.7491 13.4911 10.5091 12.2511 7.84914 12.2511C7.58404 12.2511 7.36914 12.0362 7.36914 11.7711V10.3811C7.36914 8.10109 8.09914 7.37109 10.3791 7.37109H11.7691C12.0342 7.37109 12.2491 7.586 12.2491 7.85109C12.2491 10.5111 13.4891 11.7511 16.1491 11.7511Z" fill="#292D32"/>
</svg>
