<svg width="24" height="24" viewBox="0 0 24 24" fill="none" xmlns="http://www.w3.org/2000/svg">
<path d="M21.0391 13.2789L20.1191 12.3789L12.3691 20.1189L13.2991 21.0489C14.0791 21.8289 14.8891 22.2189 15.6891 22.2189C16.4891 22.2189 17.2991 21.8289 18.0791 21.0489L21.0391 18.0889C22.6291 16.4889 22.6291 14.8789 21.0391 13.2789Z" fill="#292D32"/>
<path d="M10.6898 2.93141C9.11976 1.36141 7.46977 1.36141 5.89977 2.93141L2.92977 5.89141C1.36977 7.46141 1.36977 9.11141 2.92977 10.6814L3.84977 11.6014L11.5998 3.85141L10.6898 2.93141Z" fill="#292D32"/>
<path d="M21.8098 3.93814C20.4998 7.20814 17.5098 11.4781 14.6598 14.2681C14.2498 11.6881 12.1898 9.66814 9.58984 9.30814C12.3898 6.44814 16.6898 3.41814 19.9698 2.09814C20.5498 1.87814 21.1298 2.04814 21.4898 2.40814C21.8698 2.78814 22.0498 3.35814 21.8098 3.93814Z" fill="#292D32"/>
<path d="M13.7791 15.0909C13.5791 15.2609 13.3791 15.4309 13.1791 15.5909L11.3891 17.0209C11.3891 16.9909 11.3791 16.9509 11.3791 16.9109C11.2391 15.8409 10.7391 14.8509 9.92914 14.0409C9.10914 13.2209 8.08914 12.7209 6.96914 12.5809C6.93914 12.5809 6.89914 12.5709 6.86914 12.5709L8.31914 10.7409C8.45914 10.5609 8.60914 10.3909 8.76914 10.2109L9.44914 10.3009C11.5991 10.6009 13.3291 12.2909 13.6691 14.4309L13.7791 15.0909Z" fill="#292D32"/>
<path d="M10.4298 17.6208C10.4298 18.7208 10.0098 19.7708 9.20976 20.5608C8.59976 21.1808 7.77977 21.6008 6.77977 21.7208L4.32976 21.9908C2.98976 22.1408 1.83976 20.9908 1.98976 19.6408L2.25976 17.1808C2.49976 14.9908 4.32976 13.5908 6.26976 13.5508C6.45976 13.5408 6.66976 13.5508 6.86976 13.5708C7.71976 13.6808 8.53976 14.0708 9.22976 14.7508C9.89976 15.4208 10.2798 16.2108 10.3898 17.0408C10.4098 17.2408 10.4298 17.4308 10.4298 17.6208Z" fill="#292D32"/>
</svg>
