<svg width="24" height="24" viewBox="0 0 24 24" fill="none" xmlns="http://www.w3.org/2000/svg">
<path d="M16.19 2H7.81C4.17 2 2 4.17 2 7.81V16.18C2 19.83 4.17 22 7.81 22H16.18C19.82 22 21.99 19.83 21.99 16.19V7.81C22 4.17 19.83 2 16.19 2ZM17 17.5H13.9C13.6 17.5 13.33 17.33 13.21 17.05C13.09 16.77 13.14 16.46 13.34 16.24L14.96 14.45C15.63 13.7 16.01 12.75 16.01 11.77C16.01 10.77 15.6 9.83 14.85 9.12C14.1 8.41 13.06 8 12 8C10.94 8 9.9 8.41 9.15 9.12C8.4 9.83 7.99 10.77 7.99 11.77C7.99 12.75 8.36 13.7 9.04 14.45L10.66 16.24C10.86 16.46 10.91 16.78 10.79 17.05C10.67 17.32 10.4 17.5 10.1 17.5H7C6.59 17.5 6.25 17.16 6.25 16.75C6.25 16.34 6.59 16 7 16H8.41L7.92 15.46C7 14.44 6.49 13.13 6.49 11.77C6.49 10.38 7.08 9.01 8.12 8.03C9.16 7.04 10.53 6.5 12 6.5C13.47 6.5 14.84 7.04 15.88 8.03C16.91 9.01 17.51 10.38 17.51 11.77C17.51 13.12 17 14.43 16.08 15.46L15.59 16H17C17.41 16 17.75 16.34 17.75 16.75C17.75 17.16 17.41 17.5 17 17.5Z" fill="#292D32"/>
</svg>
