<svg width="24" height="24" viewBox="0 0 24 24" fill="none" xmlns="http://www.w3.org/2000/svg">
<path d="M9.87031 5.67108L6.45031 7.75109L4.89031 5.1911C4.32031 4.2511 4.62031 3.0111 5.56031 2.4411C6.50031 1.8711 7.74031 2.17108 8.31031 3.11108L9.87031 5.67108Z" stroke="#292D32" stroke-width="1.5" stroke-linecap="round" stroke-linejoin="round"/>
<path d="M9.19913 20.4391C9.85913 21.7891 11.4591 22.2591 12.7391 21.4691L19.1691 17.5591C20.4591 16.7791 20.7691 15.1491 19.8791 13.9391L17.1091 10.1991C15.9091 8.58911 13.6491 8.03907 11.8191 9.15907L8.65914 11.0791C6.81914 12.1991 6.25913 14.4591 7.14913 16.2591" stroke="#292D32" stroke-width="1.5" stroke-linecap="round" stroke-linejoin="round"/>
<path d="M10.7574 5.09815L5.63281 8.21875L7.71321 11.6351L12.8378 8.51455L10.7574 5.09815Z" stroke="#292D32" stroke-width="1.5" stroke-linecap="round" stroke-linejoin="round"/>
<path d="M14.3105 16.8086L15.9606 19.5186" stroke="#292D32" stroke-width="1.5" stroke-linecap="round" stroke-linejoin="round"/>
<path d="M11.75 18.3711L13.4 21.0811" stroke="#292D32" stroke-width="1.5" stroke-linecap="round" stroke-linejoin="round"/>
<path d="M16.8691 15.25L18.5191 17.96" stroke="#292D32" stroke-width="1.5" stroke-linecap="round" stroke-linejoin="round"/>
</svg>
