<svg width="24" height="24" viewBox="0 0 24 24" fill="none" xmlns="http://www.w3.org/2000/svg">
<path d="M20.0992 5.68938C21.6592 4.56938 22.4092 5.13938 21.7692 6.94938L17.7292 18.2594C17.5892 18.6594 17.1192 18.9894 16.6992 18.9894H7.29922C6.87922 18.9894 6.40922 18.6594 6.26922 18.2594L2.12922 6.66938C1.53922 5.00938 2.22922 4.49938 3.64922 5.51938L7.54922 8.30938C8.19922 8.75938 8.93922 8.52938 9.21922 7.79938L10.9792 3.10938C11.5392 1.60938 12.4692 1.60938 13.0292 3.10938L14.7892 7.79938C15.0692 8.52938 15.8092 8.75938 16.4492 8.30938L17.0792 7.85938" stroke="#292D32" stroke-width="1.5" stroke-linecap="round" stroke-linejoin="round"/>
<path d="M6.5 22H17.5" stroke="#292D32" stroke-width="1.5" stroke-linecap="round" stroke-linejoin="round"/>
<path d="M9.5 14H14.5" stroke="#292D32" stroke-width="1.5" stroke-linecap="round" stroke-linejoin="round"/>
</svg>
