<svg width="24" height="24" viewBox="0 0 24 24" fill="none" xmlns="http://www.w3.org/2000/svg">
<path d="M5.33008 2H18.67C19.78 2 20.6901 2.90999 20.6901 4.01999V6.23999C20.6901 7.04999 20.1801 8.06 19.6801 8.56" stroke="#292D32" stroke-width="1.5" stroke-miterlimit="10" stroke-linecap="round" stroke-linejoin="round"/>
<path d="M13.4105 20.7892L12.0005 21.6992C10.6905 22.5092 8.87054 21.5992 8.87054 19.9792V14.6292C8.87054 13.9192 8.47055 13.0092 8.06055 12.5092L4.22052 8.46921C3.71052 7.95921 3.31055 7.05922 3.31055 6.44922" stroke="#292D32" stroke-width="1.5" stroke-miterlimit="10" stroke-linecap="round" stroke-linejoin="round"/>
<path d="M17.0802 11.8894L13.5401 15.4294C13.4001 15.5694 13.2701 15.8294 13.2401 16.0194L13.0501 17.3694C12.9801 17.8594 13.3202 18.1994 13.8102 18.1294L15.1601 17.9394C15.3501 17.9094 15.6202 17.7794 15.7502 17.6394L19.2901 14.0994C19.9001 13.4894 20.1901 12.7794 19.2901 11.8794C18.4001 10.9894 17.6902 11.2794 17.0802 11.8894Z" stroke="#292D32" stroke-width="1.5" stroke-miterlimit="10" stroke-linecap="round" stroke-linejoin="round"/>
<path d="M16.5801 12.3906C16.8801 13.4706 17.72 14.3106 18.8 14.6106" stroke="#292D32" stroke-width="1.5" stroke-miterlimit="10" stroke-linecap="round" stroke-linejoin="round"/>
</svg>
