<svg width="24" height="24" viewBox="0 0 24 24" fill="none" xmlns="http://www.w3.org/2000/svg">
<path d="M3.5 5C3.5 3 4.84 2 6.5 2H14.5C16.16 2 17.5 3 17.5 5V22H3.5V9" stroke="#292D32" stroke-width="1.5" stroke-linecap="round" stroke-linejoin="round"/>
<path d="M2 22H19" stroke="#292D32" stroke-width="1.5" stroke-linecap="round" stroke-linejoin="round"/>
<path d="M8.39 9.99828H12.62C13.66 9.99828 14.51 9.49828 14.51 8.10828V6.87828C14.51 5.48828 13.66 4.98828 12.62 4.98828H8.39C7.35 4.98828 6.5 5.48828 6.5 6.87828V8.10828C6.5 9.49828 7.35 9.99828 8.39 9.99828Z" stroke="#292D32" stroke-width="1.5" stroke-linecap="round" stroke-linejoin="round"/>
<path d="M6.5 13H9.5" stroke="#292D32" stroke-width="1.5" stroke-linecap="round" stroke-linejoin="round"/>
<path d="M17.5 16.01L22 16V10L20 9" stroke="#292D32" stroke-width="1.5" stroke-linecap="round" stroke-linejoin="round"/>
</svg>
