<svg width="24" height="24" viewBox="0 0 24 24" fill="none" xmlns="http://www.w3.org/2000/svg">
<path d="M21.9014 13.9607C22.1714 15.6307 21.7014 17.4207 20.2714 18.6807C19.2814 19.5907 17.9814 20.0907 16.6314 20.0807H5.54141C0.871407 19.7407 0.861407 12.9407 5.54141 12.6007H5.59141C3.40141 6.47071 9.09141 2.87071 13.3814 4.25071" stroke="#292D32" stroke-width="1.5" stroke-miterlimit="10" stroke-linecap="round" stroke-linejoin="round"/>
<path d="M7.25984 13.0116C6.73984 12.7516 6.16984 12.6116 5.58984 12.6016" stroke="#292D32" stroke-width="1.5" stroke-miterlimit="10" stroke-linecap="round" stroke-linejoin="round"/>
<path opacity="0.4" d="M21.9687 8.5C21.9687 9.6 21.4587 10.59 20.6487 11.23C20.0587 11.71 19.2887 12 18.4687 12C16.5387 12 14.9688 10.43 14.9688 8.5C14.9688 7.54 15.3587 6.67 15.9987 6.04V6.03C16.6287 5.39 17.5087 5 18.4687 5C20.3987 5 21.9687 6.57 21.9687 8.5Z" stroke="#292D32" stroke-width="1.5" stroke-miterlimit="10" stroke-linecap="round" stroke-linejoin="round"/>
</svg>
