<svg width="24" height="24" viewBox="0 0 24 24" fill="none" xmlns="http://www.w3.org/2000/svg">
<path d="M20.5 15.25C20.09 15.25 19.75 14.91 19.75 14.5C19.75 14.09 20.09 13.75 20.5 13.75C21.09 13.75 21.22 13.66 21.23 13.66C21.25 13.6 21.25 13.25 21.25 13V11C21.25 10.75 21.25 10.41 21.21 10.32C21.2 10.33 21.05 10.25 20.5 10.25C20.09 10.25 19.75 9.91 19.75 9.5C19.75 9.09 20.09 8.75 20.5 8.75C22.58 8.75 22.75 9.77 22.75 11V13C22.75 14.23 22.58 15.25 20.5 15.25Z" fill="#292D32"/>
<path d="M4.00088 22.2501C3.86088 22.2501 3.72088 22.2101 3.60088 22.1301C3.25088 21.9101 3.14088 21.4501 3.37088 21.1001L15.3709 2.10012C15.5909 1.75012 16.0609 1.65012 16.4009 1.87012C16.7509 2.09012 16.8609 2.55012 16.6309 2.90012L4.63088 21.9001C4.49088 22.1301 4.25088 22.2501 4.00088 22.2501Z" fill="#292D32"/>
<path d="M5.39 19.67C5.36 19.67 5.33 19.67 5.31 19.67C1.91 19.29 1.25 17.31 1.25 14V10C1.25 5.59 2.59 4.25 7 4.25C7.41 4.25 7.75 4.59 7.75 5C7.75 5.41 7.41 5.75 7 5.75C3.43 5.75 2.75 6.43 2.75 10V14C2.75 17.32 3.43 17.95 5.47 18.18C5.88 18.23 6.18 18.6 6.13 19.01C6.09 19.39 5.76 19.67 5.39 19.67Z" fill="#292D32"/>
<path d="M13 19.75C12.59 19.75 12.25 19.41 12.25 19C12.25 18.59 12.59 18.25 13 18.25C16.57 18.25 17.25 17.57 17.25 14V9.99996C17.25 6.68996 16.57 6.04996 14.54 5.81996C14.13 5.76996 13.83 5.39996 13.88 4.98996C13.93 4.57996 14.29 4.26996 14.71 4.32996C18.09 4.70996 18.75 6.69996 18.75 9.99996V14C18.75 18.41 17.41 19.75 13 19.75Z" fill="#292D32"/>
</svg>
