<svg width="24" height="24" viewBox="0 0 24 24" fill="none" xmlns="http://www.w3.org/2000/svg">
<path d="M12.6 18.1099C12.38 18.1099 12.21 18.0499 12.11 18.0099C11.89 17.9099 11.3901 17.5799 11.3901 16.6699V13.9999L9.09004 16.1099C8.79004 16.3899 8.31004 16.3699 8.03004 16.0599C7.75004 15.7499 7.77003 15.2799 8.08003 14.9999L11.36 11.9899L8.08003 8.97994C7.77003 8.69994 7.75004 8.22994 8.03004 7.91994C8.31004 7.61994 8.79004 7.58993 9.09004 7.86993L11.3901 9.97994V7.31994C11.3901 6.41994 11.89 6.08994 12.11 5.97994C12.32 5.87994 12.9 5.70993 13.6 6.27993L15.66 7.99993C15.96 8.24993 16.14 8.61993 16.15 8.99993C16.16 9.37993 16 9.75992 15.71 10.0199L13.58 11.9699L15.71 13.9199C16 14.1899 16.16 14.5599 16.15 14.9399C16.14 15.3199 15.96 15.6899 15.66 15.9399L13.6 17.6599C13.22 18.0199 12.87 18.1099 12.6 18.1099ZM12.9 13.4099V16.3299L14.5701 14.9399L12.9 13.4099ZM12.9 7.66994V10.5899L14.5701 9.05993L12.9 7.66994Z" fill="#292D32"/>
<path d="M15 22.75H9C5.56 22.75 3.25 20.44 3.25 17V7C3.25 3.56 5.56 1.25 9 1.25H15C18.44 1.25 20.75 3.56 20.75 7V17C20.75 20.44 18.44 22.75 15 22.75ZM9 2.75C6.42 2.75 4.75 4.42 4.75 7V17C4.75 19.58 6.42 21.25 9 21.25H15C17.58 21.25 19.25 19.58 19.25 17V7C19.25 4.42 17.58 2.75 15 2.75H9Z" fill="#292D32"/>
</svg>
