<svg width="24" height="24" viewBox="0 0 24 24" fill="none" xmlns="http://www.w3.org/2000/svg">
<path d="M12 22.75C6.07 22.75 1.25 17.93 1.25 12C1.25 6.07 6.07 1.25 12 1.25C17.93 1.25 22.75 6.07 22.75 12C22.75 17.93 17.93 22.75 12 22.75ZM12 2.75C6.9 2.75 2.75 6.9 2.75 12C2.75 17.1 6.9 21.25 12 21.25C17.1 21.25 21.25 17.1 21.25 12C21.25 6.9 17.1 2.75 12 2.75Z" fill="#292D32"/>
<path d="M9.89062 8.58008C9.48063 8.58008 9.14062 8.24008 9.14062 7.83008V5.83008C9.14062 5.42008 9.48063 5.08008 9.89062 5.08008C10.3006 5.08008 10.6406 5.42008 10.6406 5.83008V7.83008C10.6406 8.24008 10.3106 8.58008 9.89062 8.58008Z" fill="#292D32"/>
<path d="M14.1094 8.58008C13.6994 8.58008 13.3594 8.24008 13.3594 7.83008V5.83008C13.3594 5.42008 13.6994 5.08008 14.1094 5.08008C14.5194 5.08008 14.8594 5.42008 14.8594 5.83008V7.83008C14.8594 8.24008 14.5194 8.58008 14.1094 8.58008Z" fill="#292D32"/>
<path d="M16.4695 10.8901H7.51953C7.10953 10.8901 6.76953 10.5501 6.76953 10.1401C6.76953 9.73014 7.10953 9.39014 7.51953 9.39014H16.4695C16.8795 9.39014 17.2195 9.73014 17.2195 10.1401C17.2195 10.5501 16.8895 10.8901 16.4695 10.8901Z" fill="#292D32"/>
<path d="M13.5 18.4199H10.5C7.75 18.4199 5.75 16.4199 5.75 13.6699V10.6699C5.75 7.91992 7.75 5.91992 10.5 5.91992H13.5C16.25 5.91992 18.25 7.91992 18.25 10.6699V13.6699C18.25 16.4199 16.25 18.4199 13.5 18.4199ZM10.5 7.41992C8.25 7.41992 7.25 9.04992 7.25 10.6699V13.6699C7.25 15.2899 8.25 16.9199 10.5 16.9199H13.5C15.75 16.9199 16.75 15.2899 16.75 13.6699V10.6699C16.75 9.04992 15.75 7.41992 13.5 7.41992H10.5Z" fill="#292D32"/>
</svg>
