<svg width="24" height="24" viewBox="0 0 24 24" fill="none" xmlns="http://www.w3.org/2000/svg">
<path d="M15.24 9.25H2C1.59 9.25 1.25 8.91 1.25 8.5C1.25 8.09 1.59 7.75 2 7.75H15.24C15.65 7.75 15.99 8.09 15.99 8.5C15.99 8.91 15.65 9.25 15.24 9.25Z" fill="#292D32"/>
<path d="M7.29 17.25H6C5.59 17.25 5.25 16.91 5.25 16.5C5.25 16.09 5.59 15.75 6 15.75H7.29C7.7 15.75 8.04 16.09 8.04 16.5C8.04 16.91 7.71 17.25 7.29 17.25Z" fill="#292D32"/>
<path d="M14.5 17.25H11C10.59 17.25 10.25 16.91 10.25 16.5C10.25 16.09 10.59 15.75 11 15.75H14.5C14.91 15.75 15.25 16.09 15.25 16.5C15.25 16.91 14.91 17.25 14.5 17.25Z" fill="#292D32"/>
<path d="M17.5605 21.2501H7.98047C7.57047 21.2501 7.23047 20.9101 7.23047 20.5001C7.23047 20.0901 7.57047 19.7501 7.98047 19.7501H17.5605C20.7005 19.7501 21.2505 19.2101 21.2505 16.1101V6.89014C21.2505 6.48014 21.5905 6.14014 22.0005 6.14014C22.4105 6.14014 22.7505 6.48014 22.7505 6.89014V16.1001C22.7505 20.0501 21.5405 21.2501 17.5605 21.2501Z" fill="#292D32"/>
<path d="M3.71 20.89C3.62 20.89 3.52 20.87 3.43 20.84C1.62 20.12 1.25 18.43 1.25 16.11V7.89C1.25 3.95 2.46 2.75 6.44 2.75H17.55C18.69 2.75 19.53 2.84 20.19 3.04C20.59 3.16 20.81 3.57 20.7 3.97C20.58 4.37 20.16 4.59 19.77 4.48C19.25 4.33 18.55 4.26 17.55 4.26H6.44C3.3 4.26 2.75 4.8 2.75 7.9V16.11C2.75 18.5 3.18 19.13 3.99 19.45C4.38 19.6 4.56 20.04 4.41 20.42C4.29 20.71 4.01 20.89 3.71 20.89Z" fill="#292D32"/>
<path d="M1.99945 22.7499C1.80945 22.7499 1.61945 22.6799 1.46945 22.5299C1.17945 22.2399 1.17945 21.7599 1.46945 21.4699L21.4695 1.46994C21.7595 1.17994 22.2395 1.17994 22.5295 1.46994C22.8195 1.75994 22.8195 2.23994 22.5295 2.52994L2.52945 22.5299C2.37945 22.6799 2.18945 22.7499 1.99945 22.7499Z" fill="#292D32"/>
</svg>
