<svg width="24" height="24" viewBox="0 0 24 24" fill="none" xmlns="http://www.w3.org/2000/svg">
<path d="M13.0495 19.4201C12.5095 19.4201 11.9395 19.3701 11.3195 19.2701L6.6295 18.5301C5.1495 18.3001 4.0095 17.8901 3.1595 17.2901C0.969499 15.7701 1.0995 13.1601 1.3795 11.3301L2.1195 6.64005C2.7995 2.34005 5.0195 0.730051 9.3195 1.40005L14.0095 2.14005C16.2195 2.49005 19.1895 3.38005 19.3795 7.11005C19.4195 7.75005 19.3795 8.48005 19.2395 9.34005L18.5095 14.0301C17.9295 17.7001 16.2195 19.4201 13.0495 19.4201ZM7.5295 2.75005C5.1495 2.75005 4.0695 3.96005 3.5995 6.88005L2.8595 11.5701C2.3995 14.5201 3.2395 15.5201 4.0195 16.0701C4.6795 16.5401 5.6095 16.8601 6.8595 17.0501L11.5495 17.7901C15.0395 18.3401 16.4795 17.2901 17.0295 13.7901L17.7595 9.10005C17.8795 8.35005 17.9195 7.72005 17.8795 7.19005V7.18005C17.7695 5.08005 16.5795 4.05005 13.7695 3.61005L9.0895 2.88005C8.5095 2.79005 7.9995 2.75005 7.5295 2.75005Z" fill="#292D32"/>
<path d="M14.6793 22.75C13.8293 22.75 12.8693 22.57 11.7593 22.2L7.24928 20.7C4.67928 19.8499 3.28928 18.6299 2.86928 16.8499C2.79928 16.5499 2.91928 16.2299 3.17928 16.0599C3.43928 15.8899 3.77928 15.8899 4.02928 16.0699C4.68928 16.5399 5.60928 16.8599 6.85928 17.0499L11.5493 17.79C15.0393 18.34 16.4793 17.2899 17.0293 13.7899L17.7593 9.09995C17.8793 8.34995 17.9193 7.71995 17.8793 7.18995C17.8693 6.92995 17.9993 6.66995 18.2293 6.51995C18.4593 6.36995 18.7493 6.35995 18.9893 6.48995C21.6693 7.91995 22.3793 10.2099 21.2193 13.7099L19.7193 18.2199C19.0093 20.3399 18.0793 21.64 16.7793 22.29C16.1493 22.6 15.4593 22.75 14.6793 22.75ZM5.72928 18.36C6.20928 18.6799 6.84928 18.99 7.71928 19.28L12.2293 20.78C13.9493 21.3499 15.1793 21.4 16.0993 20.95C17.0193 20.49 17.7193 19.4699 18.2893 17.7499L19.7893 13.2399C20.6093 10.7599 20.2893 9.43995 19.3393 8.54995C19.3193 8.79995 19.2793 9.05995 19.2393 9.33995L18.5093 14.0299C17.8293 18.33 15.6093 19.9399 11.3093 19.28L6.61928 18.54C6.30928 18.4799 6.00928 18.42 5.72928 18.36Z" fill="#292D32"/>
<path d="M8.24 9.71999C6.87 9.71999 5.75 8.59999 5.75 7.22999C5.75 5.85999 6.87 4.73999 8.24 4.73999C9.61 4.73999 10.73 5.85999 10.73 7.22999C10.73 8.59999 9.61 9.71999 8.24 9.71999ZM8.24 6.24999C7.7 6.24999 7.25 6.68999 7.25 7.23999C7.25 7.78999 7.69 8.22999 8.24 8.22999C8.78 8.22999 9.23 7.78999 9.23 7.23999C9.23 6.68999 8.78 6.24999 8.24 6.24999Z" fill="#292D32"/>
</svg>
