<svg width="24" height="24" viewBox="0 0 24 24" fill="none" xmlns="http://www.w3.org/2000/svg">
<path d="M13.4 14.5999C13.21 14.5999 13.02 14.5299 12.87 14.3799L11.47 12.9799C11.33 12.8399 11.25 12.6499 11.25 12.4499V9.65991C11.25 9.24991 11.59 8.90991 12 8.90991C12.41 8.90991 12.75 9.24991 12.75 9.65991V12.1399L13.93 13.3199C14.22 13.6099 14.22 14.0899 13.93 14.3799C13.78 14.5299 13.59 14.5999 13.4 14.5999Z" fill="#292D32"/>
<path d="M12 19.25C10.41 19.25 8.91 18.75 7.65 17.8C7.62 17.78 7.6 17.77 7.57 17.75C5.78 16.36 4.75 14.26 4.75 12C4.75 8 8 4.75 12 4.75C16 4.75 19.25 8 19.25 12C19.25 14.25 18.23 16.33 16.46 17.72C16.43 17.74 16.41 17.76 16.38 17.78C15.11 18.74 13.6 19.25 12 19.25ZM8.43 16.51C8.46 16.53 8.48 16.54 8.5 16.56C10.53 18.13 13.51 18.12 15.53 16.54C15.55 16.52 15.58 16.5 15.6 16.49C16.97 15.39 17.75 13.76 17.75 12C17.75 8.83 15.17 6.25 12 6.25C8.83 6.25 6.25 8.83 6.25 12C6.25 13.77 7.04 15.41 8.43 16.51Z" fill="#292D32"/>
<path d="M12.5496 22.7501H11.4596C9.49959 22.7501 8.29959 21.7801 7.78959 19.7701L7.28959 17.3001C7.24959 17.0801 7.29959 16.8501 7.44959 16.6801C7.59959 16.5101 7.80959 16.4101 8.02959 16.4101H8.03959C8.20959 16.4101 8.36959 16.4601 8.49959 16.5701C10.5296 18.1401 13.5096 18.1301 15.5296 16.5501C15.8396 16.3101 16.3296 16.3601 16.5796 16.6701C16.7196 16.8401 16.7796 17.0701 16.7396 17.2901L16.2296 19.7601C15.6996 21.7801 14.4996 22.7501 12.5496 22.7501ZM9.08959 18.6401L9.24959 19.4401C9.62959 20.9401 10.4096 21.2501 11.4596 21.2501H12.5496C13.5896 21.2501 14.3696 20.9401 14.7596 19.4201L14.9196 18.6401C13.1096 19.4401 10.9096 19.4501 9.08959 18.6401Z" fill="#292D32"/>
<path d="M16.0003 7.62C15.8303 7.62 15.6603 7.56 15.5303 7.46C13.5103 5.88 10.5303 5.87 8.50025 7.44C8.19025 7.68 7.70025 7.63 7.46025 7.33C7.32025 7.16 7.26025 6.93 7.30025 6.71L7.79025 4.27C8.30025 2.22 9.50025 1.25 11.4603 1.25H12.5503C14.5003 1.25 15.7002 2.22 16.2102 4.21L16.7303 6.72C16.7803 6.94 16.7203 7.17 16.5803 7.34C16.4403 7.52 16.2303 7.62 16.0003 7.62ZM12.0003 4.75C13.0303 4.75 14.0103 4.96 14.9203 5.36L14.7503 4.55C14.3603 3.07 13.5903 2.75 12.5503 2.75H11.4603C10.4103 2.75 9.63025 3.06 9.25025 4.6L9.09025 5.36C10.0003 4.96 10.9803 4.75 12.0003 4.75Z" fill="#292D32"/>
</svg>
