<svg width="24" height="24" viewBox="0 0 24 24" fill="none" xmlns="http://www.w3.org/2000/svg">
<path d="M10.9308 22.75C10.4508 22.75 9.97078 22.63 9.53078 22.38C8.64078 21.88 8.11078 20.99 8.11078 19.98V14.63C8.11078 14.12 7.78078 13.37 7.47078 12.98L3.67078 8.98999C3.04078 8.35999 2.55078 7.26001 2.55078 6.45001V4.13C2.55078 2.52 3.77078 1.26001 5.32078 1.26001H18.6508C20.1808 1.26001 21.4208 2.50003 21.4208 4.03003V6.25C21.4208 7.3 20.7908 8.50998 20.1908 9.09998C19.9008 9.38998 19.4208 9.38998 19.1308 9.09998C18.8408 8.80998 18.8408 8.32998 19.1308 8.03998C19.5008 7.66998 19.9208 6.84 19.9208 6.25V4.03003C19.9208 3.33003 19.3508 2.76001 18.6508 2.76001H5.33078C4.62078 2.76001 4.06078 3.36 4.06078 4.13V6.45001C4.06078 6.82001 4.36078 7.55 4.75078 7.94L8.60078 11.99C9.11078 12.62 9.61078 13.68 9.61078 14.63V19.98C9.61078 20.64 10.0608 20.96 10.2608 21.07C10.6908 21.31 11.2008 21.3 11.6008 21.06L13.0008 20.16C13.3508 19.94 13.8108 20.04 14.0408 20.39C14.2608 20.74 14.1608 21.2 13.8108 21.43L12.4008 22.34C11.9508 22.61 11.4408 22.75 10.9308 22.75Z" fill="#292D32"/>
<path d="M16.8789 20.25C14.9589 20.25 13.1489 19.23 12.1689 17.58C11.6489 16.74 11.3789 15.76 11.3789 14.75C11.3789 11.72 13.8489 9.25 16.8789 9.25C19.9089 9.25 22.3789 11.72 22.3789 14.75C22.3789 15.76 22.0989 16.74 21.5789 17.59C20.6089 19.23 18.8089 20.25 16.8789 20.25ZM16.8789 10.75C14.6689 10.75 12.8789 12.54 12.8789 14.75C12.8789 15.48 13.0789 16.19 13.4589 16.8C14.1789 18.01 15.4889 18.75 16.8789 18.75C18.2989 18.75 19.5789 18.03 20.2989 16.81C20.6789 16.19 20.8789 15.48 20.8789 14.75C20.8789 12.54 19.0889 10.75 16.8789 10.75Z" fill="#292D32"/>
<path d="M18.1501 16.7399C17.9601 16.7399 17.7701 16.6699 17.6201 16.5199L15.1101 14.0099C14.8201 13.7199 14.8201 13.2399 15.1101 12.9499C15.4001 12.6599 15.8801 12.6599 16.1701 12.9499L18.6801 15.4599C18.9701 15.7499 18.9701 16.2299 18.6801 16.5199C18.5401 16.6699 18.3501 16.7399 18.1501 16.7399Z" fill="#292D32"/>
<path d="M15.6205 16.77C15.4305 16.77 15.2405 16.7 15.0905 16.55C14.8005 16.26 14.8005 15.78 15.0905 15.49L17.6005 12.98C17.8905 12.69 18.3705 12.69 18.6605 12.98C18.9505 13.27 18.9505 13.7499 18.6605 14.0399L16.1505 16.55C16.0005 16.7 15.8105 16.77 15.6205 16.77Z" fill="#292D32"/>
<path d="M10.9308 22.75C10.4508 22.75 9.97078 22.63 9.54078 22.39C8.65078 21.89 8.12078 20.99 8.12078 19.98V14.63C8.12078 14.13 7.79078 13.37 7.47078 12.98L3.67078 8.98999C3.04078 8.33999 2.55078 7.25001 2.55078 6.45001V4.12C2.55078 2.51 3.77078 1.25 5.32078 1.25H18.6608C20.1908 1.25 21.4308 2.49002 21.4308 4.02002V6.23999C21.4308 7.28999 20.8108 8.47003 20.2108 9.09003L18.4108 10.68C18.2308 10.84 17.9708 10.9 17.7408 10.85C17.4708 10.78 17.1808 10.75 16.8808 10.75C14.6708 10.75 12.8808 12.54 12.8808 14.75C12.8808 15.48 13.0808 16.19 13.4608 16.81C13.7808 17.34 14.2108 17.78 14.7108 18.09C14.9308 18.23 15.0708 18.47 15.0708 18.73V19.07C15.0708 19.86 14.5908 20.97 13.7908 21.44L12.4108 22.33C11.9608 22.61 11.4408 22.75 10.9308 22.75ZM5.33078 2.75C4.62078 2.75 4.06078 3.35 4.06078 4.12V6.45001C4.06078 6.81001 4.36078 7.55001 4.76078 7.95001L8.61078 12C9.12078 12.63 9.63078 13.7 9.63078 14.64V19.99C9.63078 20.65 10.0908 20.98 10.2808 21.09C10.7108 21.33 11.2208 21.32 11.6108 21.08L13.0108 20.18C13.2808 20.02 13.5508 19.51 13.5708 19.15C13.0208 18.74 12.5408 18.21 12.1808 17.61C11.6608 16.76 11.3808 15.78 11.3808 14.78C11.3808 11.75 13.8508 9.28003 16.8808 9.28003C17.1608 9.28003 17.4408 9.30003 17.7008 9.34003L19.1808 8.03003C19.5208 7.68003 19.9408 6.85001 19.9408 6.26001V4.03998C19.9408 3.33998 19.3708 2.77002 18.6708 2.77002H5.33078V2.75Z" fill="#292D32"/>
</svg>
