<svg width="24" height="24" viewBox="0 0 24 24" fill="none" xmlns="http://www.w3.org/2000/svg">
<path d="M12.1605 11.62C12.1305 11.62 12.1105 11.62 12.0805 11.62C12.0305 11.61 11.9605 11.61 11.9005 11.62C9.00055 11.53 6.81055 9.25 6.81055 6.44C6.81055 3.58 9.14055 1.25 12.0005 1.25C14.8605 1.25 17.1905 3.58 17.1905 6.44C17.1805 9.25 14.9805 11.53 12.1905 11.62C12.1805 11.62 12.1705 11.62 12.1605 11.62ZM12.0005 2.75C9.97055 2.75 8.31055 4.41 8.31055 6.44C8.31055 8.44 9.87055 10.05 11.8605 10.12C11.9105 10.11 12.0505 10.11 12.1805 10.12C14.1405 10.03 15.6805 8.42 15.6905 6.44C15.6905 4.41 14.0305 2.75 12.0005 2.75Z" fill="#292D32"/>
<path d="M12.1696 22.55C10.2096 22.55 8.23961 22.05 6.74961 21.05C5.35961 20.13 4.59961 18.87 4.59961 17.5C4.59961 16.13 5.35961 14.86 6.74961 13.93C9.74961 11.94 14.6096 11.94 17.5896 13.93C18.9696 14.85 19.7396 16.11 19.7396 17.48C19.7396 18.85 18.9796 20.12 17.5896 21.05C16.0896 22.05 14.1296 22.55 12.1696 22.55ZM7.57961 15.19C6.61961 15.83 6.09961 16.65 6.09961 17.51C6.09961 18.36 6.62961 19.18 7.57961 19.81C10.0696 21.48 14.2696 21.48 16.7596 19.81C17.7196 19.17 18.2396 18.35 18.2396 17.49C18.2396 16.64 17.7096 15.82 16.7596 15.19C14.2696 13.53 10.0696 13.53 7.57961 15.19Z" fill="#292D32"/>
</svg>
