<svg width="24" height="24" viewBox="0 0 24 24" fill="none" xmlns="http://www.w3.org/2000/svg">
<path d="M17.79 22.7402H6.21C3.47 22.7402 1.25 20.5102 1.25 17.7702V10.3602C1.25 9.00021 2.09 7.29021 3.17 6.45021L8.56 2.25021C10.18 0.990208 12.77 0.930208 14.45 2.11021L20.63 6.44021C21.82 7.27021 22.75 9.05021 22.75 10.5002V17.7802C22.75 20.5102 20.53 22.7402 17.79 22.7402ZM9.48 3.43021L4.09 7.63021C3.38 8.19021 2.75 9.46021 2.75 10.3602V17.7702C2.75 19.6802 4.3 21.2402 6.21 21.2402H17.79C19.7 21.2402 21.25 19.6902 21.25 17.7802V10.5002C21.25 9.54021 20.56 8.21021 19.77 7.67021L13.59 3.34021C12.45 2.54021 10.57 2.58021 9.48 3.43021Z" fill="#292D32"/>
<path d="M13.5 18.75H10.5C8.43 18.75 6.75 17.07 6.75 15V12C6.75 9.93 8.43 8.25 10.5 8.25H13.5C15.57 8.25 17.25 9.93 17.25 12V15C17.25 17.07 15.57 18.75 13.5 18.75ZM10.5 9.75C9.26 9.75 8.25 10.76 8.25 12V15C8.25 16.24 9.26 17.25 10.5 17.25H13.5C14.74 17.25 15.75 16.24 15.75 15V12C15.75 10.76 14.74 9.75 13.5 9.75H10.5Z" fill="#292D32"/>
<path d="M12 18.75C11.59 18.75 11.25 18.41 11.25 18V9C11.25 8.59 11.59 8.25 12 8.25C12.41 8.25 12.75 8.59 12.75 9V18C12.75 18.41 12.41 18.75 12 18.75Z" fill="#292D32"/>
<path d="M16.5 14.25H7.5C7.09 14.25 6.75 13.91 6.75 13.5C6.75 13.09 7.09 12.75 7.5 12.75H16.5C16.91 12.75 17.25 13.09 17.25 13.5C17.25 13.91 16.91 14.25 16.5 14.25Z" fill="#292D32"/>
</svg>
