<svg width="24" height="24" viewBox="0 0 24 24" fill="none" xmlns="http://www.w3.org/2000/svg">
<path d="M11.9995 22.7501C6.91954 22.7501 2.48954 19.1401 1.46954 14.1701C1.38954 13.7601 1.64954 13.3701 2.04954 13.2801C2.45954 13.2001 2.84954 13.4601 2.93954 13.8601C3.81954 18.1401 7.62954 21.2501 11.9995 21.2501C16.3595 21.2501 20.1695 18.1601 21.0595 13.9001C21.1395 13.4901 21.5395 13.2301 21.9495 13.3201C22.3595 13.4001 22.6195 13.8001 22.5295 14.2101C21.4895 19.1501 17.0695 22.7501 11.9995 22.7501Z" fill="#292D32"/>
<path d="M21.8109 10.81C21.4609 10.81 21.1509 10.56 21.0809 10.2C20.2309 5.88001 16.4109 2.73999 12.0009 2.73999C7.62093 2.73999 3.81093 5.85 2.94093 10.13C2.86093 10.54 2.46093 10.79 2.05093 10.71C1.64093 10.63 1.38093 10.23 1.47093 9.82001C2.49093 4.85001 6.92093 1.23999 12.0009 1.23999C17.1309 1.23999 21.5609 4.89 22.5509 9.91C22.6309 10.32 22.3609 10.71 21.9609 10.79C21.9109 10.81 21.8609 10.81 21.8109 10.81Z" fill="#292D32"/>
<path d="M12 14.25C10.76 14.25 9.75 13.24 9.75 12C9.75 10.76 10.76 9.75 12 9.75C13.24 9.75 14.25 10.76 14.25 12C14.25 13.24 13.24 14.25 12 14.25ZM12 11.25C11.59 11.25 11.25 11.59 11.25 12C11.25 12.41 11.59 12.75 12 12.75C12.41 12.75 12.75 12.41 12.75 12C12.75 11.59 12.41 11.25 12 11.25Z" fill="#292D32"/>
</svg>
