<svg width="24" height="24" viewBox="0 0 24 24" fill="none" xmlns="http://www.w3.org/2000/svg">
<path d="M11.9707 22.75C6.0507 22.75 1.2207 17.93 1.2207 12C1.2207 6.07 6.0507 1.25 11.9707 1.25C17.8907 1.25 22.7207 6.07 22.7207 12C22.7207 17.93 17.9007 22.75 11.9707 22.75ZM11.9707 2.75C6.8707 2.75 2.7207 6.9 2.7207 12C2.7207 17.1 6.8707 21.25 11.9707 21.25C17.0707 21.25 21.2207 17.1 21.2207 12C21.2207 6.9 17.0707 2.75 11.9707 2.75Z" fill="#292D32"/>
<path d="M12 17.25C9.1 17.25 6.75 14.89 6.75 12C6.75 9.11 9.1 6.75 12 6.75C14.9 6.75 17.25 9.11 17.25 12C17.25 14.89 14.9 17.25 12 17.25ZM12 8.25C9.93 8.25 8.25 9.93 8.25 12C8.25 14.07 9.93 15.75 12 15.75C14.07 15.75 15.75 14.07 15.75 12C15.75 9.93 14.07 8.25 12 8.25Z" fill="#292D32"/>
<path d="M8.43984 9.21012C8.24984 9.21012 8.04984 9.14012 7.90984 9.00012L4.36984 5.46012C4.07984 5.17012 4.07984 4.69012 4.36984 4.40012C4.65984 4.11012 5.13984 4.11012 5.42984 4.40012L8.96984 7.94012C9.25984 8.23012 9.25984 8.70012 8.96984 9.00012C8.81984 9.14012 8.62984 9.21012 8.43984 9.21012Z" fill="#292D32"/>
<path d="M4.89984 19.8202C4.70984 19.8202 4.51984 19.7502 4.36984 19.6002C4.07984 19.3102 4.07984 18.8302 4.36984 18.5402L7.90984 15.0002C8.19984 14.7102 8.67984 14.7102 8.96984 15.0002C9.25984 15.2902 9.25984 15.7702 8.96984 16.0602L5.42984 19.6002C5.28984 19.7502 5.08984 19.8202 4.89984 19.8202Z" fill="#292D32"/>
<path d="M19.0395 19.8202C18.8495 19.8202 18.6595 19.7502 18.5095 19.6002L14.9695 16.0602C14.6795 15.7702 14.6795 15.2902 14.9695 15.0002C15.2595 14.7102 15.7395 14.7102 16.0295 15.0002L19.5695 18.5402C19.8595 18.8302 19.8595 19.3102 19.5695 19.6002C19.4295 19.7502 19.2395 19.8202 19.0395 19.8202Z" fill="#292D32"/>
<path d="M15.5092 9.20986C15.3192 9.20986 15.1292 9.13986 14.9792 8.98986C14.6892 8.69986 14.6892 8.21986 14.9792 7.92986L18.5192 4.38986C18.8092 4.09986 19.2892 4.09986 19.5792 4.38986C19.8692 4.67986 19.8692 5.15986 19.5792 5.44986L16.0392 8.99986C15.8892 9.13986 15.6992 9.20986 15.5092 9.20986Z" fill="#292D32"/>
</svg>
