<svg width="24" height="24" viewBox="0 0 24 24" fill="none" xmlns="http://www.w3.org/2000/svg">
<path d="M15.6491 21.4102C15.2191 21.4102 14.7891 21.3202 14.4391 21.1502L9.18906 18.5202C8.88906 18.3702 8.29906 18.3802 8.00906 18.5502L5.64906 19.9002C4.62906 20.4802 3.57906 20.5602 2.78906 20.0902C1.98906 19.6302 1.53906 18.6902 1.53906 17.5102V7.79016C1.53906 6.88016 2.13906 5.85016 2.92906 5.40016L7.25906 2.92016C7.98906 2.50016 9.09906 2.47016 9.84906 2.85016L15.0991 5.48016C15.3991 5.63016 15.9791 5.61016 16.2791 5.45016L18.6291 4.11016C19.6491 3.53016 20.6991 3.45016 21.4891 3.92016C22.2891 4.38016 22.7391 5.32016 22.7391 6.50016V16.2302C22.7391 17.1402 22.1391 18.1702 21.3491 18.6202L17.0191 21.1002C16.6391 21.3002 16.1391 21.4102 15.6491 21.4102ZM8.63906 16.9202C9.06906 16.9202 9.49906 17.0102 9.84906 17.1802L15.0991 19.8102C15.3991 19.9602 15.9791 19.9402 16.2791 19.7802L20.6091 17.3002C20.9291 17.1202 21.2391 16.5802 21.2391 16.2202V6.49016C21.2391 5.86016 21.0591 5.39016 20.7291 5.21016C20.4091 5.03016 19.9091 5.10016 19.3691 5.41016L17.0191 6.75016C16.2891 7.17016 15.1791 7.20016 14.4291 6.82016L9.17906 4.19016C8.87906 4.04016 8.29906 4.06016 7.99906 4.22016L3.66906 6.70016C3.34906 6.88016 3.03906 7.42016 3.03906 7.79016V17.5202C3.03906 18.1502 3.21906 18.6202 3.53906 18.8002C3.85906 18.9902 4.35906 18.9102 4.90906 18.6002L7.25906 17.2602C7.64906 17.0302 8.14906 16.9202 8.63906 16.9202Z" fill="#292D32"/>
<path d="M8.56055 17.75C8.15055 17.75 7.81055 17.41 7.81055 17V4C7.81055 3.59 8.15055 3.25 8.56055 3.25C8.97055 3.25 9.31055 3.59 9.31055 4V17C9.31055 17.41 8.97055 17.75 8.56055 17.75Z" fill="#292D32"/>
<path d="M15.7305 20.7501C15.3205 20.7501 14.9805 20.4101 14.9805 20.0001V6.62012C14.9805 6.21012 15.3205 5.87012 15.7305 5.87012C16.1405 5.87012 16.4805 6.21012 16.4805 6.62012V20.0001C16.4805 20.4101 16.1405 20.7501 15.7305 20.7501Z" fill="#292D32"/>
</svg>
