<svg width="24" height="24" viewBox="0 0 24 24" fill="none" xmlns="http://www.w3.org/2000/svg">
<path d="M16.3692 22.77C16.3592 22.77 16.3592 22.77 16.3492 22.77C15.3392 22.76 14.4992 22.14 14.1992 21.17L12.3492 15.22C12.0992 14.4 12.3092 13.52 12.9192 12.93C13.5192 12.34 14.3892 12.12 15.1892 12.37L21.1492 14.22C22.1092 14.52 22.7392 15.36 22.7492 16.37C22.7592 17.37 22.1492 18.22 21.1892 18.54L19.5592 19.09C19.3292 19.17 19.1492 19.34 19.0792 19.57L18.5192 21.21C18.2092 22.16 17.3692 22.77 16.3692 22.77ZM14.5092 13.77C14.2392 13.77 14.0592 13.92 13.9792 13.99C13.7692 14.2 13.6992 14.49 13.7892 14.78L15.6392 20.73C15.7992 21.24 16.2392 21.26 16.3792 21.27C16.5192 21.27 16.9492 21.23 17.1092 20.74L17.6692 19.1C17.8892 18.43 18.4292 17.9 19.0992 17.67L20.7292 17.12C21.2292 16.96 21.2592 16.52 21.2592 16.39C21.2592 16.26 21.2192 15.82 20.7192 15.66L14.7592 13.81C14.6592 13.78 14.5792 13.77 14.5092 13.77Z" fill="#292D32"/>
<path d="M12 22.75C6.07 22.75 1.25 17.93 1.25 12C1.25 6.07 6.07 1.25 12 1.25C17.93 1.25 22.75 6.07 22.75 12C22.75 12.41 22.41 12.75 22 12.75C21.59 12.75 21.25 12.41 21.25 12C21.25 6.9 17.1 2.75 12 2.75C6.9 2.75 2.75 6.9 2.75 12C2.75 17.1 6.9 21.25 12 21.25C12.41 21.25 12.75 21.59 12.75 22C12.75 22.41 12.41 22.75 12 22.75Z" fill="#292D32"/>
</svg>
