<svg width="24" height="24" viewBox="0 0 24 24" fill="none" xmlns="http://www.w3.org/2000/svg">
<path d="M7.9707 22.75C5.3507 22.75 3.2207 20.62 3.2207 18C3.2207 15.38 5.3507 13.25 7.9707 13.25C10.5907 13.25 12.7207 15.38 12.7207 18C12.7207 20.62 10.5907 22.75 7.9707 22.75ZM7.9707 14.75C6.1807 14.75 4.7207 16.21 4.7207 18C4.7207 19.79 6.1807 21.25 7.9707 21.25C9.7607 21.25 11.2207 19.79 11.2207 18C11.2207 16.21 9.7707 14.75 7.9707 14.75Z" fill="#292D32"/>
<path d="M11.9707 18.75C11.5607 18.75 11.2207 18.41 11.2207 18V4C11.2207 3.59 11.5607 3.25 11.9707 3.25C12.3807 3.25 12.7207 3.59 12.7207 4V18C12.7207 18.41 12.3907 18.75 11.9707 18.75Z" fill="#292D32"/>
<path d="M19.1305 10.2299C18.8005 10.2299 18.4505 10.1699 18.1105 10.0599L13.6905 8.58994C12.3105 8.12994 11.2305 6.62994 11.2305 5.17994V3.99994C11.2305 3.02994 11.6305 2.18994 12.3105 1.68994C13.0005 1.18994 13.9205 1.08994 14.8405 1.38994L19.2605 2.85994C20.6405 3.31994 21.7205 4.81994 21.7205 6.26994V7.43994C21.7205 8.40994 21.3205 9.24994 20.6405 9.74994C20.2105 10.0799 19.6805 10.2299 19.1305 10.2299ZM13.8205 2.71994C13.5805 2.71994 13.3605 2.77994 13.1905 2.90994C12.8905 3.11994 12.7305 3.50994 12.7305 3.99994V5.16994C12.7305 5.96994 13.4005 6.89994 14.1605 7.15994L18.5805 8.62994C19.0405 8.78994 19.4705 8.74994 19.7605 8.53994C20.0605 8.32994 20.2205 7.93994 20.2205 7.44994V6.27994C20.2205 5.47994 19.5505 4.54994 18.7905 4.28994L14.3705 2.81994C14.1805 2.74994 13.9905 2.71994 13.8205 2.71994Z" fill="#292D32"/>
</svg>
