<svg width="24" height="24" viewBox="0 0 24 24" fill="none" xmlns="http://www.w3.org/2000/svg">
<path d="M15 22.75H9C3.57 22.75 1.25 20.43 1.25 15V9C1.25 3.57 3.57 1.25 9 1.25H15C20.43 1.25 22.75 3.57 22.75 9V15C22.75 20.43 20.43 22.75 15 22.75ZM9 2.75C4.39 2.75 2.75 4.39 2.75 9V15C2.75 19.61 4.39 21.25 9 21.25H15C19.61 21.25 21.25 19.61 21.25 15V9C21.25 4.39 19.61 2.75 15 2.75H9Z" fill="#292D32"/>
<path d="M12.0011 16.5601C10.9011 16.5601 10.0011 15.6601 10.0011 14.5601V12.9601C9.4111 12.4701 9.0111 11.7801 8.9111 11.0101C8.8911 10.8901 8.87109 10.7201 8.87109 10.5601C8.87109 9.5901 9.31109 8.6901 10.0911 8.0901C10.8711 7.4901 11.8711 7.3001 12.8311 7.5501C13.8811 7.8301 14.7511 8.69011 15.0211 9.74011C15.1311 10.1501 15.1611 10.5801 15.0911 11.0101C14.9811 11.7701 14.5911 12.4601 14.0011 12.9501V14.5501C14.0011 15.6601 13.1011 16.5601 12.0011 16.5601ZM11.9911 8.9401C11.6311 8.9401 11.2911 9.0501 11.0011 9.2801C10.6011 9.5901 10.3711 10.0601 10.3711 10.5601C10.3711 10.6301 10.3711 10.7101 10.3911 10.7701C10.4611 11.2701 10.7311 11.6801 11.1511 11.9401L11.5011 12.1601V14.5601C11.5011 14.8401 11.7211 15.0601 12.0011 15.0601C12.2811 15.0601 12.5011 14.8401 12.5011 14.5601V12.1601L12.8511 11.9401C13.2611 11.6801 13.5411 11.2701 13.6011 10.8001V10.7801C13.6411 10.5601 13.6311 10.3401 13.5711 10.1301C13.4311 9.58011 12.9811 9.1401 12.4411 9.0001C12.2911 8.9601 12.1411 8.9401 11.9911 8.9401Z" fill="#292D32"/>
<path d="M21.9996 10.1602H14.3496V11.6602H21.9996V10.1602Z" fill="#292D32"/>
<path d="M9.64999 10.1602H2V11.6602H9.64999V10.1602Z" fill="#292D32"/>
</svg>
