<svg width="24" height="24" viewBox="0 0 24 24" fill="none" xmlns="http://www.w3.org/2000/svg">
<path d="M17.0002 21H10.2802C8.66023 21 7.11023 20.31 6.03023 19.12L2.50023 15.24C0.820234 13.4 0.820234 10.62 2.50023 8.77L6.03023 4.89C7.11023 3.69 8.66023 3 10.2802 3H17.0002C20.1702 3 22.7502 5.58 22.7502 8.75V15.25C22.7502 18.42 20.1702 21 17.0002 21ZM10.2802 4.5C9.09023 4.5 7.94023 5.01 7.14023 5.89L3.60023 9.78C2.45023 11.05 2.45023 12.96 3.60023 14.23L7.13023 18.11C7.93023 18.99 9.08024 19.5 10.2702 19.5H17.0002C19.3402 19.5 21.2502 17.59 21.2502 15.25V8.75C21.2502 6.41 19.3402 4.5 17.0002 4.5H10.2802Z" fill="#292D32"/>
<path d="M16 15.22C15.81 15.22 15.62 15.15 15.47 15L10.53 10.05C10.24 9.75996 10.24 9.27996 10.53 8.98996C10.82 8.69996 11.3 8.69996 11.59 8.98996L16.53 13.94C16.82 14.23 16.82 14.71 16.53 15C16.38 15.15 16.19 15.22 16 15.22Z" fill="#292D32"/>
<path d="M11.06 15.22C10.87 15.22 10.68 15.15 10.53 15C10.24 14.71 10.24 14.23 10.53 13.94L15.47 8.99997C15.76 8.70997 16.24 8.70997 16.53 8.99997C16.82 9.28997 16.82 9.76997 16.53 10.06L11.59 15C11.44 15.15 11.25 15.22 11.06 15.22Z" fill="#292D32"/>
</svg>
