<svg width="24" height="24" viewBox="0 0 24 24" fill="none" xmlns="http://www.w3.org/2000/svg">
<path opacity="0.58" d="M24 0H0V24H24V0Z" fill="white"/>
<path opacity="0.4" d="M10.99 2.60172L4.48999 6.42172C3.87999 6.78172 3.5 7.44172 3.5 8.14172V15.8517C3.5 16.5617 3.87999 17.2117 4.48999 17.5717L10.99 21.3917C11.62 21.7617 12.39 21.7617 13.02 21.3917L19.52 17.5717C20.13 17.2117 20.51 16.5517 20.51 15.8517V8.14172C20.51 7.43172 20.13 6.78172 19.52 6.42172L13.02 2.60172C12.39 2.23172 11.61 2.23172 10.99 2.60172Z" fill="#292D32"/>
<path d="M17.39 14.3611L14.78 12.7911L15.04 12.5311C15.33 12.2411 15.33 11.7611 15.04 11.4711C14.75 11.1811 14.27 11.1811 13.98 11.4711L13.46 11.9911L11.66 10.9111L12.04 10.5311C12.33 10.2411 12.33 9.76109 12.04 9.47109C11.75 9.18109 11.27 9.18109 10.98 9.47109L10.33 10.1211L8.46002 9.00109L12 6.87109L16.61 9.64109C16.97 9.85109 17.43 9.74109 17.64 9.38109C17.85 9.03109 17.74 8.56109 17.38 8.35109L12.38 5.35109C12.14 5.21109 11.84 5.21109 11.61 5.35109L6.60999 8.35109C6.37999 8.49109 6.25 8.73109 6.25 8.99109C6.25 9.25109 6.38999 9.50109 6.60999 9.63109L9.21997 11.2011L8.96002 11.4611C8.67002 11.7511 8.67002 12.2311 8.96002 12.5211C9.11002 12.6711 9.29999 12.7411 9.48999 12.7411C9.67999 12.7411 9.87002 12.6711 10.02 12.5211L10.54 12.0011L12.34 13.0811L11.96 13.4611C11.67 13.7511 11.67 14.2311 11.96 14.5211C12.11 14.6711 12.3 14.7411 12.49 14.7411C12.68 14.7411 12.87 14.6711 13.02 14.5211L13.67 13.8711L15.53 14.9911L12 17.1311L7.39001 14.3611C7.03001 14.1511 6.56999 14.2611 6.35999 14.6211C6.14999 14.9811 6.26 15.4411 6.62 15.6511L11.62 18.6511C11.74 18.7211 11.87 18.7611 12.01 18.7611C12.15 18.7611 12.28 18.7211 12.4 18.6511L17.4 15.6511C17.63 15.5111 17.76 15.2711 17.76 15.0111C17.76 14.7511 17.61 14.4911 17.39 14.3611Z" fill="#292D32"/>
</svg>
