<svg width="24" height="24" viewBox="0 0 24 24" fill="none" xmlns="http://www.w3.org/2000/svg">
<path d="M24 0H0V24H24V0Z" fill="white"/>
<path opacity="0.4" d="M12 22C17.5228 22 22 17.5228 22 12C22 6.47715 17.5228 2 12 2C6.47715 2 2 6.47715 2 12C2 17.5228 6.47715 22 12 22Z" fill="#292D32"/>
<path d="M12.7809 6.35938C13.4409 6.35938 13.9209 6.97937 13.7509 7.61937L11.9609 14.2994H14.9909C15.6109 14.2994 16.0909 14.8594 15.9709 15.4794L15.8209 16.3194C15.7309 16.7994 15.3209 17.1394 14.8409 17.1394H9.30086C8.64086 17.1394 8.16087 16.4994 8.34087 15.8694L10.9509 6.72937C11.0109 6.51937 11.2109 6.36937 11.4309 6.36937H12.7809V6.35938Z" fill="#292D32"/>
<path d="M7.32063 13.2688C6.97063 13.2688 6.66062 13.0188 6.59062 12.6688C6.51062 12.2588 6.77061 11.8688 7.18061 11.7888L14.8806 10.2488C15.2806 10.1688 15.6806 10.4288 15.7606 10.8388C15.8406 11.2488 15.5806 11.6388 15.1706 11.7188L7.47062 13.2588C7.42062 13.2688 7.37063 13.2688 7.32063 13.2688Z" fill="#292D32"/>
</svg>
