<svg width="24" height="24" viewBox="0 0 24 24" fill="none" xmlns="http://www.w3.org/2000/svg">
<path d="M24 0H0V24H24V0Z" fill="white"/>
<path opacity="0.4" d="M22 12C22 14.76 19.76 17 17 17C17 14.24 14.76 12 12 12C14.76 12 17 9.76 17 7C19.76 7 22 9.24 22 12Z" fill="#292D32"/>
<path d="M17 17C14.24 17 12 14.76 12 12C14.76 12 17 14.24 17 17Z" fill="#292D32"/>
<path opacity="0.4" d="M17 17C17 19.76 14.76 22 12 22C9.24 22 7 19.76 7 17C9.76 17 12 14.76 12 12C12 14.76 14.24 17 17 17Z" fill="#292D32"/>
<path d="M17 7C17 9.76 14.76 12 12 12C12 9.24 14.24 7 17 7Z" fill="#292D32"/>
<path opacity="0.4" d="M17 7C14.24 7 12 9.24 12 12C12 9.24 9.76 7 7 7C7 4.24 9.24 2 12 2C14.76 2 17 4.24 17 7Z" fill="#292D32"/>
<path d="M12 12C12 14.76 9.76 17 7 17C7 14.24 9.24 12 12 12Z" fill="#292D32"/>
<path d="M12 12C9.24 12 7 9.76 7 7C9.76 7 12 9.24 12 12Z" fill="#292D32"/>
<path opacity="0.4" d="M12 12C9.24 12 7 14.24 7 17C4.24 17 2 14.76 2 12C2 9.24 4.24 7 7 7C7 9.76 9.24 12 12 12Z" fill="#292D32"/>
</svg>
