<svg width="24" height="24" viewBox="0 0 24 24" fill="none" xmlns="http://www.w3.org/2000/svg">
<path opacity="0.58" d="M24 0H0V24H24V0Z" fill="white"/>
<path d="M18.9992 7C18.9992 7.18 18.9892 7.35 18.9692 7.52C18.8492 8.97 18.2092 10.28 17.2392 11.24C16.1592 12.33 14.6592 13 12.9992 13H9.86923C9.36923 13 8.94924 13.37 8.87924 13.86L8.11923 19.14C8.05923 19.53 7.77924 19.85 7.40924 19.95C7.31924 19.99 7.22924 20 7.12924 20H5.17923C4.55923 20 4.08924 19.45 4.18924 18.84L6.57922 4.50999C6.81922 3.05999 8.06924 2 9.53924 2H13.9992C16.7592 2 18.9992 4.24 18.9992 7Z" fill="#292D32"/>
<path opacity="0.4" d="M20.9995 10.9995C20.9995 12.3795 20.4395 13.6295 19.5395 14.5395C18.6295 15.4395 17.3795 15.9995 15.9995 15.9995H13.8495C13.3595 15.9995 12.9395 16.3495 12.8595 16.8395L12.1395 21.1595C12.0595 21.6495 11.6395 21.9995 11.1495 21.9995H8.2195C7.5895 21.9995 7.11949 21.4195 7.23949 20.7995L7.4095 19.9495C7.7795 19.8495 8.05949 19.5295 8.11949 19.1395L8.8795 13.8595C8.9495 13.3695 9.36949 12.9995 9.86949 12.9995H12.9995C14.6595 12.9995 16.1595 12.3295 17.2395 11.2395C18.2095 10.2795 18.8495 8.96953 18.9695 7.51953C20.1795 8.20953 20.9995 9.50953 20.9995 10.9995Z" fill="#292D32"/>
</svg>
