<svg width="24" height="24" viewBox="0 0 24 24" fill="none" xmlns="http://www.w3.org/2000/svg">
<path opacity="0.58" d="M24 0H0V24H24V0Z" fill="white"/>
<path opacity="0.4" d="M12 22C17.5228 22 22 17.5228 22 12C22 6.47715 17.5228 2 12 2C6.47715 2 2 6.47715 2 12C2 17.5228 6.47715 22 12 22Z" fill="#292D32"/>
<path fill-rule="evenodd" clip-rule="evenodd" d="M6.25 9.68172V12.4817C6.25 14.0217 7.50001 15.2617 9.04001 15.2517L12.72 15.2217C13.23 15.2217 13.64 14.8017 13.64 14.3017V11.5317C13.64 10.0017 12.4 8.76172 10.87 8.76172H7.17999C6.65999 8.76172 6.25 9.17172 6.25 9.68172Z" fill="#292D32"/>
<path fill-rule="evenodd" clip-rule="evenodd" d="M17.75 10.0221V14.0021C17.75 14.4321 17.27 14.6921 16.91 14.4521L14.99 13.1721C14.84 13.0721 14.75 12.9021 14.75 12.7221V11.3021C14.75 11.1221 14.84 10.9521 14.99 10.8521L16.91 9.57208C17.27 9.33208 17.75 9.59208 17.75 10.0221Z" fill="#292D32"/>
</svg>
