<svg width="24" height="24" viewBox="0 0 24 24" fill="none" xmlns="http://www.w3.org/2000/svg">
<path d="M15.4998 15.7517C15.3198 15.7517 15.1198 15.7417 14.9398 15.7317C14.5698 15.7117 14.2697 15.4117 14.2397 15.0417C14.0197 12.2517 11.7498 9.9917 8.96976 9.7717C8.59976 9.7417 8.29975 9.44172 8.27975 9.07172C8.26975 8.89172 8.25977 8.69172 8.25977 8.51172C8.25977 4.51172 11.5098 1.26172 15.5098 1.26172C19.5098 1.26172 22.7598 4.51172 22.7598 8.51172C22.7598 12.5117 19.4998 15.7517 15.4998 15.7517ZM9.74976 8.36169C12.7298 8.89169 15.1198 11.2717 15.6398 14.2517C18.7498 14.1717 21.2498 11.6317 21.2498 8.50171C21.2498 5.33171 18.6698 2.75171 15.4998 2.75171C12.3798 2.75171 9.82976 5.25169 9.74976 8.36169Z" fill="#292D32"/>
<path d="M8.5 22.75C4.5 22.75 1.25 19.5 1.25 15.5C1.25 11.5 4.5 8.25 8.5 8.25C8.68 8.25 8.88 8.25999 9.06 8.26999C12.59 8.54999 15.45 11.41 15.72 14.92C15.73 15.12 15.74 15.32 15.74 15.5C15.75 19.5 12.5 22.75 8.5 22.75ZM8.5 9.75C5.33 9.75 2.75 12.33 2.75 15.5C2.75 18.67 5.33 21.25 8.5 21.25C11.67 21.25 14.25 18.67 14.25 15.5C14.25 15.34 14.24 15.18 14.23 15.02C14.01 12.25 11.74 9.98001 8.95999 9.76001C8.81999 9.76001 8.66 9.75 8.5 9.75Z" fill="#292D32"/>
<path d="M8.5 18.7512C8.23 18.7512 7.97 18.6012 7.84 18.3612L7.06 16.9412L5.64001 16.1612C5.40001 16.0312 5.25 15.7812 5.25 15.5012C5.25 15.2212 5.40001 14.9712 5.64001 14.8412L7.06 14.0612L7.84 12.6412C8.1 12.1612 8.89 12.1612 9.16 12.6412L9.94 14.0612L11.36 14.8412C11.6 14.9712 11.75 15.2212 11.75 15.5012C11.75 15.7812 11.6 16.0312 11.36 16.1612L9.94 16.9412L9.16 18.3612C9.03 18.6012 8.77 18.7512 8.5 18.7512ZM7.56 15.5012L7.97 15.7312C8.1 15.8012 8.19999 15.9012 8.26999 16.0312L8.5 16.4412L8.73001 16.0312C8.80001 15.9012 8.9 15.8012 9.03 15.7312L9.44 15.5012L9.03 15.2712C8.9 15.2012 8.80001 15.1012 8.73001 14.9712L8.5 14.5612L8.26999 14.9712C8.19999 15.1012 8.1 15.2012 7.97 15.2712L7.56 15.5012Z" fill="#292D32"/>
</svg>
