<svg width="24" height="24" viewBox="0 0 24 24" fill="none" xmlns="http://www.w3.org/2000/svg">
<path d="M11 20.75C5.62 20.75 1.25 16.38 1.25 11C1.25 5.62 5.62 1.25 11 1.25C11.41 1.25 11.75 1.59 11.75 2C11.75 2.41 11.41 2.75 11 2.75C6.45 2.75 2.75 6.45 2.75 11C2.75 15.55 6.45 19.25 11 19.25C15.55 19.25 19.25 15.55 19.25 11C19.25 10.59 19.59 10.25 20 10.25C20.41 10.25 20.75 10.59 20.75 11C20.75 16.38 16.38 20.75 11 20.75Z" fill="#292D32"/>
<path d="M20 5.75H14C13.59 5.75 13.25 5.41 13.25 5C13.25 4.59 13.59 4.25 14 4.25H20C20.41 4.25 20.75 4.59 20.75 5C20.75 5.41 20.41 5.75 20 5.75Z" fill="#292D32"/>
<path d="M17 8.75H14C13.59 8.75 13.25 8.41 13.25 8C13.25 7.59 13.59 7.25 14 7.25H17C17.41 7.25 17.75 7.59 17.75 8C17.75 8.41 17.41 8.75 17 8.75Z" fill="#292D32"/>
<path d="M20.1611 22.79C20.0811 22.79 20.0011 22.78 19.9311 22.77C19.4611 22.71 18.6111 22.39 18.1311 20.96C17.8811 20.21 17.9711 19.46 18.3811 18.89C18.7911 18.32 19.4811 18 20.2711 18C21.2911 18 22.0911 18.39 22.4511 19.08C22.8111 19.77 22.7111 20.65 22.1411 21.5C21.4311 22.57 20.6611 22.79 20.1611 22.79ZM19.5611 20.49C19.7311 21.01 19.9711 21.27 20.1311 21.29C20.2911 21.31 20.5911 21.12 20.9011 20.67C21.1911 20.24 21.2111 19.93 21.1411 19.79C21.0711 19.65 20.7911 19.5 20.2711 19.5C19.9611 19.5 19.7311 19.6 19.6011 19.77C19.4811 19.94 19.4611 20.2 19.5611 20.49Z" fill="#292D32"/>
</svg>
