<svg width="24" height="24" viewBox="0 0 24 24" fill="none" xmlns="http://www.w3.org/2000/svg">
<g opacity="0.4">
<path d="M7.80078 10.1992V14.3992" stroke="#292D32" stroke-width="1.5" stroke-linecap="round" stroke-linejoin="round"/>
<path d="M7.95001 9.89999C9.02697 9.89999 9.90002 9.02697 9.90002 7.95001C9.90002 6.87306 9.02697 6 7.95001 6C6.87306 6 6 6.87306 6 7.95001C6 9.02697 6.87306 9.89999 7.95001 9.89999Z" stroke="#292D32" stroke-width="1.5" stroke-linecap="round" stroke-linejoin="round"/>
<path d="M7.79999 17.9984C8.7941 17.9984 9.59998 17.1926 9.59998 16.1985C9.59998 15.2043 8.7941 14.3984 7.79999 14.3984C6.80588 14.3984 6 15.2043 6 16.1985C6 17.1926 6.80588 17.9984 7.79999 17.9984Z" stroke="#292D32" stroke-width="1.5" stroke-linecap="round" stroke-linejoin="round"/>
<path d="M16.2004 17.9984C17.1945 17.9984 18.0004 17.1926 18.0004 16.1985C18.0004 15.2043 17.1945 14.3984 16.2004 14.3984C15.2063 14.3984 14.4004 15.2043 14.4004 16.1985C14.4004 17.1926 15.2063 17.9984 16.2004 17.9984Z" stroke="#292D32" stroke-width="1.5" stroke-linecap="round" stroke-linejoin="round"/>
<path d="M7.87891 10.1992C8.14891 11.2492 9.10889 12.0292 10.2389 12.0192L12.2989 12.0092C13.8689 11.9992 15.2089 13.0092 15.6989 14.4192" stroke="#292D32" stroke-width="1.5" stroke-linecap="round" stroke-linejoin="round"/>
</g>
<path d="M9 22H15C20 22 22 20 22 15V9C22 4 20 2 15 2H9C4 2 2 4 2 9V15C2 20 4 22 9 22Z" stroke="#292D32" stroke-width="1.5" stroke-linecap="round" stroke-linejoin="round"/>
</svg>
