<svg width="24" height="24" viewBox="0 0 24 24" fill="none" xmlns="http://www.w3.org/2000/svg">
<path opacity="0.58" d="M24 0H0V24H24V0Z" fill="white"/>
<path d="M20.8904 10.5301C20.4804 10.5301 20.1404 10.1901 20.1404 9.78006V6.91006L12.0004 2.84006L3.86035 6.91006V9.78006C3.86035 10.1901 3.52035 10.5301 3.11035 10.5301C2.70035 10.5301 2.36035 10.1901 2.36035 9.78006V6.44006C2.36035 6.16006 2.5204 5.90006 2.7804 5.77006L11.6703 1.33006C11.8803 1.22006 12.1304 1.22006 12.3404 1.33006L21.2303 5.77006C21.4803 5.90006 21.6504 6.16006 21.6504 6.44006V9.77006C21.6404 10.1901 21.3004 10.5301 20.8904 10.5301Z" fill="#292D32"/>
<path d="M12.0004 22.75C11.8804 22.75 11.7703 22.72 11.6703 22.67L2.7804 18.23C2.5304 18.1 2.36035 17.84 2.36035 17.56V14.23C2.36035 13.82 2.70035 13.48 3.11035 13.48C3.52035 13.48 3.86035 13.82 3.86035 14.23V17.1L12.0004 21.17L20.1404 17.1V14.23C20.1404 13.82 20.4804 13.48 20.8904 13.48C21.3004 13.48 21.6404 13.82 21.6404 14.23V17.56C21.6404 17.84 21.4803 18.1 21.2203 18.23L12.3304 22.67C12.2304 22.72 12.1204 22.75 12.0004 22.75Z" fill="#292D32"/>
<path opacity="0.4" d="M16.4406 12.0001C16.4406 9.55006 14.4505 7.56006 12.0005 7.56006C9.55055 7.56006 7.56055 9.55006 7.56055 12.0001C7.56055 14.2001 9.17057 16.0201 11.2706 16.3701C11.2706 16.4001 11.2606 16.4201 11.2606 16.4401V22.0001C11.2606 22.4101 11.6006 22.7501 12.0106 22.7501C12.4206 22.7501 12.7606 22.4101 12.7606 22.0001V16.4401C12.7606 16.4101 12.7505 16.3901 12.7505 16.3701C14.8405 16.0201 16.4406 14.2001 16.4406 12.0001Z" fill="#292D32"/>
</svg>
