<svg width="24" height="24" viewBox="0 0 24 24" fill="none" xmlns="http://www.w3.org/2000/svg">
<path d="M24 0H0V24H24V0Z" fill="white"/>
<path opacity="0.4" d="M12 22C17.5228 22 22 17.5228 22 12C22 6.47715 17.5228 2 12 2C6.47715 2 2 6.47715 2 12C2 17.5228 6.47715 22 12 22Z" fill="#292D32"/>
<path d="M12 17.75H8C7.59 17.75 7.25 17.41 7.25 17V7C7.25 6.59 7.59 6.25 8 6.25H12C15.17 6.25 17.75 8.83 17.75 12C17.75 15.17 15.17 17.75 12 17.75ZM8.75 16.25H12C14.34 16.25 16.25 14.34 16.25 12C16.25 9.66 14.34 7.75 12 7.75H8.75V16.25Z" fill="#292D32"/>
<path d="M18.5205 10.75H6.48047C6.07047 10.75 5.73047 10.41 5.73047 10C5.73047 9.59 6.07047 9.25 6.48047 9.25H18.5205C18.9305 9.25 19.2705 9.59 19.2705 10C19.2705 10.41 18.9305 10.75 18.5205 10.75Z" fill="#292D32"/>
<path d="M18.5205 14.75H6.48047C6.07047 14.75 5.73047 14.41 5.73047 14C5.73047 13.59 6.07047 13.25 6.48047 13.25H18.5205C18.9305 13.25 19.2705 13.59 19.2705 14C19.2705 14.41 18.9305 14.75 18.5205 14.75Z" fill="#292D32"/>
</svg>
