<svg width="24" height="24" viewBox="0 0 24 24" fill="none" xmlns="http://www.w3.org/2000/svg">
<path opacity="0.58" d="M24 0H0V24H24V0Z" fill="white"/>
<path opacity="0.4" d="M11.9994 6.0003L6.43936 10.0003L3.18936 7.8003C2.60936 7.4103 2.59938 6.5703 3.16938 6.1603L6.99936 3.4003C7.33936 3.1603 7.79938 3.15029 8.13938 3.38029L11.9994 6.0003Z" fill="#292D32"/>
<path opacity="0.4" d="M20.81 7.79981L17.56 9.9998L12 5.9998L15.86 3.3898C16.21 3.1598 16.66 3.15981 17 3.40981L20.83 6.1698C21.4 6.5698 21.39 7.40981 20.81 7.79981Z" fill="#292D32"/>
<path opacity="0.4" d="M11.9999 14L7.55992 17L4.99992 15.16L3.15992 13.84C2.59992 13.43 2.60991 12.59 3.17991 12.2L6.42991 10L11.9999 14Z" fill="#292D32"/>
<path opacity="0.4" d="M20.81 12.2C21.39 12.59 21.4 13.43 20.83 13.84L19 15.16L16.44 17L12 14L17.56 10L20.81 12.2Z" fill="#292D32"/>
<path d="M19 15.16V18.13C19 18.52 18.77 18.87 18.42 19.04L12.42 21.81C12.15 21.93 11.85 21.93 11.58 21.81L5.57999 19.04C5.22999 18.88 5 18.52 5 18.13V15.16L7.56 17L12 14L16.44 17L19 15.16Z" fill="#292D32"/>
</svg>
