<svg width="24" height="24" viewBox="0 0 24 24" fill="none" xmlns="http://www.w3.org/2000/svg">
<path opacity="0.58" d="M24 0H0V24H24V0Z" fill="white"/>
<path opacity="0.4" d="M7.7002 15.71L4.59021 21L1.41016 15.71H7.7002Z" fill="#292D32"/>
<path d="M12.0002 8.41L7.7002 15.71H1.41016L8.82019 3L12.0002 8.41Z" fill="#292D32"/>
<path opacity="0.4" d="M15.1803 3L12.0003 8.41L8.82031 3H15.1803Z" fill="#292D32"/>
<path d="M22.59 15.63C22.59 15.63 22.57 15.66 22.53 15.71H16.3L12 8.41L15.18 3C15.18 3 22.54 15.63 22.59 15.63Z" fill="#292D32"/>
<path opacity="0.4" d="M22.5308 15.71C22.1108 16.37 19.4108 21 19.4108 21L16.3008 15.71H22.5308Z" fill="#292D32"/>
<path d="M19.4098 21H4.58984L7.69983 15.71H16.2998L19.4098 21Z" fill="#292D32"/>
<path opacity="0.4" d="M16.2992 15.7102H7.69922L11.9992 8.41016L16.2992 15.7102Z" fill="#292D32"/>
</svg>
