<svg width="24" height="24" viewBox="0 0 24 24" fill="none" xmlns="http://www.w3.org/2000/svg">
<path d="M24 0H0V24H24V0Z" fill="white"/>
<path opacity="0.4" d="M12 22C17.5228 22 22 17.5228 22 12C22 6.47715 17.5228 2 12 2C6.47715 2 2 6.47715 2 12C2 17.5228 6.47715 22 12 22Z" fill="#292D32"/>
<path d="M12.7809 6.35986C13.4409 6.35986 13.9209 6.97986 13.7509 7.61986L11.9609 14.2999H14.9909C15.6109 14.2999 16.0909 14.8599 15.9709 15.4799L15.8209 16.3199C15.7309 16.7999 15.3209 17.1399 14.8409 17.1399H9.30086C8.64086 17.1399 8.16087 16.4999 8.34087 15.8699L10.9509 6.72986C11.0109 6.51986 11.2109 6.36986 11.4309 6.36986H12.7809V6.35986Z" fill="#292D32"/>
<path d="M7.32063 13.2698C6.97063 13.2698 6.66062 13.0198 6.59062 12.6698C6.51062 12.2598 6.77061 11.8698 7.18061 11.7898L14.8806 10.2498C15.2806 10.1698 15.6806 10.4298 15.7606 10.8398C15.8406 11.2498 15.5806 11.6398 15.1706 11.7198L7.47062 13.2598C7.42062 13.2698 7.37063 13.2698 7.32063 13.2698Z" fill="#292D32"/>
</svg>
