<svg width="24" height="24" viewBox="0 0 24 24" fill="none" xmlns="http://www.w3.org/2000/svg">
<path d="M19 9C19 10.45 18.57 11.78 17.83 12.89C16.75 14.49 15.04 15.62 13.05 15.91C12.71 15.97 12.36 16 12 16C11.64 16 11.29 15.97 10.95 15.91C8.96 15.62 7.25 14.49 6.17 12.89C5.43 11.78 5 10.45 5 9C5 5.13 8.13 2 12 2C15.87 2 19 5.13 19 9Z" stroke="#292D32" stroke-width="1.5" stroke-linecap="round" stroke-linejoin="round"/>
<path opacity="0.4" d="M21.2491 18.4684L19.5991 18.8584C19.2291 18.9484 18.9391 19.2284 18.8591 19.5984L18.5091 21.0685C18.3191 21.8685 17.2991 22.1085 16.7691 21.4785L11.9991 15.9984L7.2291 21.4884C6.6991 22.1184 5.6791 21.8784 5.4891 21.0784L5.1391 19.6084C5.0491 19.2384 4.7591 18.9484 4.3991 18.8684L2.7491 18.4785C1.9891 18.2985 1.7191 17.3484 2.2691 16.7984L6.1691 12.8984C7.2491 14.4984 8.9591 15.6285 10.9491 15.9185C11.2891 15.9785 11.6391 16.0085 11.9991 16.0085C12.3591 16.0085 12.7091 15.9785 13.0491 15.9185C15.0391 15.6285 16.7491 14.4984 17.8291 12.8984L21.7291 16.7984C22.2791 17.3384 22.0091 18.2884 21.2491 18.4684Z" stroke="#292D32" stroke-width="1.5" stroke-linecap="round" stroke-linejoin="round"/>
<path opacity="0.4" d="M12.58 5.98L13.17 7.15999C13.25 7.31999 13.46 7.48 13.65 7.51L14.72 7.68999C15.4 7.79999 15.56 8.3 15.07 8.79L14.24 9.61998C14.1 9.75998 14.02 10.03 14.07 10.23L14.31 11.26C14.5 12.07 14.07 12.39 13.35 11.96L12.35 11.37C12.17 11.26 11.87 11.26 11.69 11.37L10.69 11.96C9.96997 12.38 9.53997 12.07 9.72997 11.26L9.96997 10.23C10.01 10.04 9.93997 9.75998 9.79997 9.61998L8.96997 8.79C8.47997 8.3 8.63997 7.80999 9.31997 7.68999L10.39 7.51C10.57 7.48 10.78 7.31999 10.86 7.15999L11.45 5.98C11.74 5.34 12.26 5.34 12.58 5.98Z" stroke="#292D32" stroke-width="1.5" stroke-linecap="round" stroke-linejoin="round"/>
</svg>
