<svg width="24" height="24" viewBox="0 0 24 24" fill="none" xmlns="http://www.w3.org/2000/svg">
<path d="M13.3 8.11156L14.62 10.7516C14.8 11.1116 15.28 11.4716 15.68 11.5316L18.07 11.9316C19.6 12.1916 19.96 13.2916 18.86 14.3916L17 16.2516C16.69 16.5616 16.51 17.1716 16.61 17.6116L17.14 19.9216C17.56 21.7416 16.59 22.4516 14.98 21.5016L12.74 20.1716C12.33 19.9316 11.67 19.9316 11.26 20.1716L9.01996 21.5016C7.40996 22.4516 6.43995 21.7416 6.85995 19.9216L7.38998 17.6116C7.48998 17.1816 7.30997 16.5716 6.99997 16.2516L5.13998 14.3916C4.03998 13.2916 4.39996 12.1816 5.92996 11.9316L8.31997 11.5316C8.71997 11.4616 9.19997 11.1116 9.37997 10.7516L10.7 8.11156C11.41 6.68156 12.59 6.68156 13.3 8.11156Z" stroke="#292D32" stroke-width="1.5" stroke-linecap="round" stroke-linejoin="round"/>
<path opacity="0.4" d="M6 9V2" stroke="#292D32" stroke-width="1.5" stroke-linecap="round" stroke-linejoin="round"/>
<path opacity="0.4" d="M18 9V2" stroke="#292D32" stroke-width="1.5" stroke-linecap="round" stroke-linejoin="round"/>
<path opacity="0.4" d="M12 4V2" stroke="#292D32" stroke-width="1.5" stroke-linecap="round" stroke-linejoin="round"/>
</svg>
